<svg xmlns="http://www.w3.org/2000/svg" viewBox="149.12 261.37 69.55 69.55" width="24" height="24" role="img">
  <mask id="set2009" maskUnits="userSpaceOnUse" x="149.12" y="261.37" width="69.55" height="69.55"><path d="M207.9,298.6L187,286.2c-1.3-0.8-1.8-2.5-1-3.8l9-15.2c0.5-0.9-0.1-2.1-1.2-2.1h-20.1c-0.5,0-0.9,0.3-1.2,0.7   l-13,21.9c-0.7,1.1-0.3,2.5,0.8,3.2l22.1,13c1.3,0.8,1.8,2.4,1.3,3.8l-7.5,18c-0.4,0.8,0.6,1.5,1.3,1l30.6-25.5   C209,300.5,208.9,299.1,207.9,298.6z M202.7,301.6L185.4,316c-0.7,0.6-1.7-0.2-1.3-1l3.6-8.6c0.6-1.4,0-3-1.2-3.8l-21.8-12.9   c-1.1-0.6-1.5-2.1-0.8-3.2l10.4-17.7c0.2-0.4,0.7-0.7,1.2-0.7h12.8c1.1,0,1.7,1.1,1.2,2.1l-7.8,13.1c-0.8,1.3-0.3,3.1,1,3.8   l19.8,11.7C203.5,299.6,203.6,300.9,202.7,301.6z" fill="#fff"/>
	</mask>
  <rect x="149.12" y="261.37" width="69.55" height="69.55" fill="currentColor" mask="url(#set2009)"/>
</svg>
