<svg xmlns="http://www.w3.org/2000/svg" viewBox="1165.29 1313.44 77.73 77.73" width="24" height="24" role="img">
  <mask id="set3069" maskUnits="userSpaceOnUse" x="1165.29" y="1313.44" width="77.73" height="77.73"><path d="M1183.5,1362.9L1183.5,1362.9C1183.5,1362.9,1183.5,1362.9,1183.5,1362.9c0.2,0.3,0.5,0.6,0.8,0.9l2,2    l0.2,0.2c0,0,1.8,1.8,1.8,1.8c1.4,0.1,2.7,0,4,0.5c1.8,0.7,3.3,2,4.1,3.7l0.1,0.2c1.4,3.1,3.4,6,5.7,8.5c0.9,1,1.8,2,2.7,3    c0.9,1,2.4,3.3,3.9,2.7c0.4-0.2,0.7-0.4,0.9-0.7c2.4-2.4,4.8-4.8,7.2-7.2c0.9-0.9,0.9-2.4,0-3.3l-7.1-6.8c-1.4-1.3-2.1-3.2-2-5.2    l0.2-2.3l0,0l7.1-7.1c2.2-2.2,2.2-5.9,0-8.1l-2.3-2.3l14.2-14.2v-1.1v-2.4v-0.4l0.1-0.1c0.6-0.6,0.6-1.5,0-2.1l-0.8-0.8    c0,0,0.4-0.7,0.4-0.7l0.1-0.1l-2.8-2.8c-0.1-0.1-0.3-0.1-0.5-0.1l-0.2,0.1l-0.4,0.2l-0.1-0.1c-0.6-0.6-1.5-0.6-2.1,0    c0,0-0.3-0.3-0.3-0.3l-0.9-0.9c0,0-2.4,2.4-2.4,2.4c0,0-0.3,0.3-0.3,0.3c0,0,1.2,1.2,1.2,1.2l-33.6,33.6c-0.6,0.6-1.1,1.3-1.4,2    c-0.3,0.7-0.2,1.7-0.6,2.2c-0.1,0.1-0.1,0.2-0.2,0.3c-0.2,0.2-0.4,0.4-0.6,0.6c-0.2,0.2-0.5,0.5-0.6,0.8c-0.4,0.8,0,1.4,0.6,1.9    C1182,1363.5,1182.9,1363.5,1183.5,1362.9z M1201.6,1354.6L1201.6,1354.6l0.5-0.6c3.2,2.5,6.3,1.4,7.5,0.8c0,0,0,0,0,0l0,0    c0,0,0.1,0,0.1,0c0,0,0.1,0,0.1-0.1c0,0,0,0,0.1,0c0.2-0.1,0.3-0.2,0.3-0.2c0,0,0,0,0,0c0,0,0,0,0,0c-2.6-0.1-4.8-2-5.6-2.9    l7.1-7.1l2.3,2.3c1.6,1.6,1.6,4.3,0,5.9l-7.1,7.1L1201.6,1354.6z" fill="#fff"/>
	</mask>
  <rect x="1165.29" y="1313.44" width="77.73" height="77.73" fill="currentColor" mask="url(#set3069)"/>
</svg>
