<svg xmlns="http://www.w3.org/2000/svg" viewBox="1373.28 261.28 69.44 69.44" width="24" height="24" role="img">
  <mask id="set3015" maskUnits="userSpaceOnUse" x="1373.28" y="261.28" width="69.44" height="69.44"><path d="M1419.9,265h-23.8c-10.4,0-18.8,8.4-18.8,18.8v24.4c0,10.4,8.4,18.8,18.8,18.8h23.8    c10.4,0,18.8-8.4,18.8-18.8v-24.4C1438.7,273.4,1430.3,265,1419.9,265z M1433.7,308.2c0,7.6-6.2,13.8-13.8,13.8h-23.8    c-7.6,0-13.8-6.2-13.8-13.8v-24.4c0-7.6,6.2-13.8,13.8-13.8h23.8c7.6,0,13.8,6.2,13.8,13.8V308.2z" fill="#fff"/>
		<path d="M1410.7,287.3h-5.4c-3.3,0-6,2.7-6,6v5.4c0,3.3,2.7,6,6,6h5.4c3.3,0,6-2.7,6-6v-5.4    C1416.7,290,1414,287.3,1410.7,287.3z M1411.7,297.6c0,1.2-0.9,2.1-2.1,2.1h-3.2c-1.2,0-2.1-0.9-2.1-2.1v-3.2    c0-1.2,0.9-2.1,2.1-2.1h3.2c1.2,0,2.1,0.9,2.1,2.1V297.6z" fill="#fff"/>
		<path d="M1395.2,291.7h-17.9v8.6h17.9c0.9,0,1.6-0.7,1.6-1.6v-5.3C1396.8,292.4,1396.1,291.7,1395.2,291.7z     M1391.5,297.3c0,0.9-0.7,1.6-1.6,1.6h-2.2c-0.9,0-1.6-0.7-1.6-1.6v-2.2c0-0.9,0.7-1.6,1.6-1.6h2.2c0.9,0,1.6,0.7,1.6,1.6V297.3z" fill="#fff"/>
		<path d="M1412.3,308.8V327h-8.6v-18.2c0-0.9,0.7-1.6,1.6-1.6h5.3C1411.6,307.2,1412.3,307.9,1412.3,308.8z" fill="#fff"/>
		<path d="M1419.2,293.3v5.3c0,0.9,0.7,1.6,1.6,1.6h17.9v-8.6h-17.9C1419.9,291.7,1419.2,292.4,1419.2,293.3z     M1429.9,297.3c0,0.9-0.7,1.6-1.6,1.6h-2.2c-0.9,0-1.6-0.7-1.6-1.6v-2.2c0-0.9,0.7-1.6,1.6-1.6h2.2c0.9,0,1.6,0.7,1.6,1.6V297.3z" fill="#fff"/>
	</mask>
  <rect x="1373.28" y="261.28" width="69.44" height="69.44" fill="currentColor" mask="url(#set3015)"/>
</svg>
