<?xml version="1.0" encoding="UTF-8" standalone="no"?>
<svg
   xmlns:dc="http://purl.org/dc/elements/1.1/"
   xmlns:cc="http://creativecommons.org/ns#"
   xmlns:rdf="http://www.w3.org/1999/02/22-rdf-syntax-ns#"
   xmlns:svg="http://www.w3.org/2000/svg"
   xmlns="http://www.w3.org/2000/svg"
   xmlns:sodipodi="http://sodipodi.sourceforge.net/DTD/sodipodi-0.dtd"
   xmlns:inkscape="http://www.inkscape.org/namespaces/inkscape"
   height="236.3"
   width="235.60001"
   version="1.1"
   id="Layer_1"
   x="0px"
   y="0px"
   viewBox="0 0 235.60001 236.3"
   xml:space="preserve"
   sodipodi:docname="antelope-passant.svg"
   inkscape:version="1.0 (4035a4f, 2020-05-01)"><metadata
   id="metadata1105"><rdf:RDF><cc:Work
       rdf:about=""><dc:format>image/svg+xml</dc:format><dc:type
         rdf:resource="http://purl.org/dc/dcmitype/StillImage" /><dc:title></dc:title></cc:Work></rdf:RDF></metadata><defs
   id="defs1103">
	
</defs><sodipodi:namedview
   fit-margin-bottom="0"
   fit-margin-right="0"
   fit-margin-left="0"
   fit-margin-top="0"
   inkscape:document-rotation="0"
   pagecolor="#ffffff"
   bordercolor="#666666"
   borderopacity="1"
   objecttolerance="10"
   gridtolerance="10"
   guidetolerance="10"
   inkscape:pageopacity="0"
   inkscape:pageshadow="2"
   inkscape:window-width="1446"
   inkscape:window-height="1081"
   id="namedview1101"
   showgrid="false"
   inkscape:zoom="2.2266667"
   inkscape:cx="120"
   inkscape:cy="136.8"
   inkscape:window-x="0"
   inkscape:window-y="25"
   inkscape:window-maximized="0"
   inkscape:current-layer="Layer_1" />
<style
   type="text/css"
   id="style996">
	.st0{fill:#FFFFFF;}
	.st1{fill:#010101;}
</style>
<g
   transform="translate(-30,-63.2)"
   id="g1096">
		<path
   id="path998"
   d="m 30.1,181.3 c 0,-38.4 0,-76.7 -0.1,-115.1 0,-2.6 0.6,-3 3.1,-3 76.5,0.1 153,0.1 229.5,0 2.6,0 3,0.6 3,3.1 -0.1,76.7 -0.1,153.5 0,230.2 0,2.6 -0.6,3 -3.1,3 -76.5,-0.1 -153,-0.1 -229.5,0 -2.6,0 -3,-0.6 -3,-3.1 0.2,-38.4 0.1,-76.8 0.1,-115.1 z"
   class="st0"
   style="fill:none" />
		<path
   id="path1000"
   d="m 210.6,236.1 c -0.8,2.2 -4,3.4 -1.2,6.5 1.1,1.2 -0.4,3.1 -1.5,4.4 -5.4,6.3 -10.7,12.7 -16.1,19 -2.2,2.6 -2.3,6.1 -4.7,8.7 -1.1,1.2 -2.1,2 -3.6,2.6 -4,1.7 -8.4,2.8 -8.9,8.5 -0.3,3.2 -3.9,3.9 -6.3,4.5 -3.2,0.7 -6.6,0.6 -9.9,-1.1 -2.5,-1.2 -2.5,-2.4 -0.6,-4 2.9,-2.6 6.1,-5 9.6,-6.7 4.3,-2 7.5,-5 10.2,-9.2 3.6,-5.7 8.5,-10.5 12,-16.5 1.6,-2.7 2.5,-5.6 3.6,-8.4 1,-2.5 -1.3,-3.8 -2.8,-5 -1.6,-1.3 -3.6,-3.2 -5.8,-1.5 -3.2,2.6 -7.2,3.9 -9.7,7.4 -0.5,0.8 -2.2,1.1 -1,2.6 1.4,1.7 2,-0.4 3.1,-0.7 -0.2,2.5 -1.6,4 -3.9,4.2 -2.2,0.2 -3.8,-1 -4.8,-3.1 -2.4,-4.8 1.5,-6.6 5.1,-9.3 -3.1,0 -5.1,-0.9 -7.2,-1.4 -3.2,-0.9 -5.5,-2.6 -5.9,-5.9 -0.4,-3.3 2.2,-5 4.4,-6.8 0.3,0.4 0.6,0.6 0.6,0.7 -0.7,2.1 -1.5,4.1 0.4,6 1.5,1.5 3.2,1.8 5.2,0.8 2.7,-1.5 5.3,-3.4 5.5,-6.6 0.3,-6 -0.5,-12.1 2.2,-17.8 0.3,-0.7 0.9,-2.2 -1.7,-1.7 -8.7,1.7 -16.8,4.9 -24.6,8.8 -11.5,5.7 -23.7,9.5 -36.4,11.5 -1.1,0.2 -2.8,0.4 -3.2,1.2 -0.6,1.3 1.1,1.9 1.9,2.7 0.9,1 1.9,1.8 3,2.7 0.7,0.6 2.2,0.6 2.1,1.5 -0.1,1.2 -1.3,1.9 -2.5,2.3 -3.6,1.5 -6.8,0.5 -9.7,-1.8 -0.8,-0.7 -1.6,-1.4 -2.4,-2.2 -4.4,12.1 -7.3,24.5 -12.4,36.1 -0.5,1.2 -0.8,2.7 -0.9,4.1 -0.2,3.6 -1.1,7.1 -5.3,8.3 -1.7,0.5 -2.4,1.4 -2.9,3.4 -1.6,6.1 -9.7,8.8 -15.1,5.4 -1.1,-0.7 -2.1,-0.4 -3.2,-0.4 -1.1,0 -2.3,0 -2.8,-1.2 -0.5,-1.3 0.5,-2.1 1.4,-2.7 3.1,-2.2 5.6,-5.2 9.3,-6.6 2.9,-1.1 4.9,-3.4 6.5,-6.2 5.9,-10.3 8.4,-21.5 10.7,-32.9 0.5,-2.6 1.7,-5 1.5,-7.7 -0.1,-1.6 -0.2,-2.7 -2.2,-3.1 -2.7,-0.5 -5.3,-1.6 -8.1,-1.3 -3.8,0.4 -7.4,-1.8 -11.1,-0.4 -7.3,2.6 -10.7,8.4 -12.4,15.4 -0.9,3.6 -1.7,7.2 -1.6,11 0.1,2.6 -1.4,4.7 -3.5,5.4 -2.7,0.8 -1.6,1.5 -0.7,3 4.1,6.4 3.6,8.5 -2.5,12.5 -1,0.7 -1.6,1.7 -2.9,0.2 -0.9,-1 -1.6,0.7 -2.2,1.3 -1.8,1.6 -2.9,0.7 -2.8,-1.1 1,-10.2 -0.5,-20.5 4.4,-30.3 4.1,-8.2 8.4,-16.4 12,-24.9 1.9,-4.3 6.3,-4.5 10.2,-5.3 3.5,-0.8 6.9,-1.5 10.4,-2.3 1.2,-0.3 1.8,-0.8 1.2,-2.4 -1.3,-3.2 -2.4,-6.5 -2.2,-10 0.1,-1.8 -0.5,-2.3 -2.2,-2.3 -2.2,0 -4.6,0.9 -6.4,-1.5 -0.9,-1.3 -1.3,0.3 -1.9,0.6 -2.8,2.1 -5.8,3.4 -9.3,1.7 -0.7,-0.3 -1.4,-0.7 -1.5,-1.4 -0.2,-1.1 1,-0.8 1.5,-1.2 1.2,-1.1 3.3,-0.6 4.2,-2.4 -5.4,0.8 -10.6,1.7 -14.8,-2.9 -1.4,-1.5 -1.7,-2.9 -0.5,-4.5 1.9,-2.3 3.3,-5.5 7.4,-5.3 -0.5,0.6 -0.7,1 -1.1,1.3 -1.6,1.3 -3.6,2.3 -2,5.1 1.5,2.7 4,3 6.2,2.2 3.5,-1.4 6.9,-3.2 8.6,-7 1.6,-3.6 3.1,-7.3 5.9,-10.1 1.4,-1.4 0.4,-3.2 1,-4.8 2.1,-5.4 5.3,-10 9.5,-14.7 -2.6,0.5 -4.7,0.7 -6.8,1 -1.5,0.2 -2.9,0.9 -3.1,3.3 -0.3,3.5 -2.6,6.1 -5.3,8.2 -2.3,1.7 -2.3,1.7 -0.6,4.1 0.2,0.2 0.2,0.8 0,1 -0.4,0.6 -1,1 -1.8,1 -2.9,-0.2 -5.3,-3.9 -4.2,-6.6 1,-2.7 3.1,-4.6 5,-6.5 0.4,-0.4 1,-1.1 0.9,-1.4 -0.2,-0.7 -0.9,-1 -1.8,-0.9 -1.2,0.1 -2.5,-0.1 -3.7,0 -2.8,0.2 -5.3,0.1 -6.5,-3.1 -0.7,-1.6 -2.4,-1.5 -3.8,-1.3 -3.1,0.3 -5.1,-1.3 -7.1,-4.4 2.8,0.1 4.9,-0.2 7.2,0.4 3.4,0.9 5.8,-2.2 8.9,-2.8 0.3,-0.1 0,-1.8 -0.9,-2 -5.4,-0.8 -10,-5.4 -16,-3.1 -0.6,0.2 -1.8,0.6 -2.2,-0.5 -0.4,-0.8 0.6,-1.2 1.1,-1.7 3.4,-4.3 8.5,-5.5 13.2,-6.4 7.9,-1.5 14.7,-5 21.5,-8.9 1.2,-0.7 0.9,-1.3 0.6,-2.3 -1.2,-4.2 -2,-8.4 1.1,-12.2 0.6,-0.7 1.2,-2 2.2,-1.7 0.6,0.2 1.1,1.4 1.4,2.2 0.5,1.3 0.9,2.6 1.6,5 2.7,-6.4 4.1,-12.3 7.2,-17.5 3.1,-5.3 5.6,-11 9,-16.1 3.3,-5.1 6.5,-10.6 13.5,-13.1 -1.4,3.1 -3.9,5.3 -1.9,8.3 0.1,0.1 0,0.3 0,0.3 -3.9,2.5 -4.3,7.3 -6.8,10.7 -1.2,1.7 -4,2.8 -1.5,5.5 0.8,0.9 -0.4,1.5 -1,1.9 -2.8,1.8 -5.1,3.8 -2.7,7.4 0.4,0.6 0.5,1 -0.3,1.4 -2.9,1.5 -4,3.8 -4,7 0,2.4 -2,4.3 -2.5,6.8 13.8,-17 25.9,-35.8 47.8,-44 -2.7,2.7 -5.1,5.5 -7.8,8 -1.1,1 -2.5,2.2 -2.4,3.4 0.3,3.3 -1.3,4.2 -4.1,4.6 -2.9,0.4 -3.7,2.7 -3.4,5.2 0.2,2.3 -0.4,3.2 -2.9,3.1 -3.8,-0.2 -4.6,2.6 -4.4,5.6 0.1,2.5 -0.4,3.4 -3.1,3.3 -3.2,-0.2 -4.6,1.9 -4.2,4.9 0.3,2.4 -0.3,3.9 -2.9,4.6 -3.9,1.1 -4.8,4.3 -5.1,8.2 12.8,-10.8 22.8,-9.7 29.8,-10.3 0.5,1.6 -0.9,2.3 -1.8,2.8 -5.5,3.8 -9.2,9.9 -15.6,12.8 -0.6,0.3 -1.2,0.9 -0.5,1.8 2.2,2.8 3,6.7 6.7,8 1.3,0.5 1.8,1.7 2.9,2.1 1.1,0.4 2.4,1.9 3.5,0.3 0.8,-1.1 2.3,-2.5 0.6,-4.1 -0.7,-0.7 -1.1,-1.6 -0.7,-2.3 0.6,-0.8 1.9,-0.6 2.8,-0.3 2.6,0.9 3.8,2.8 3.8,5.7 -0.1,3.6 -2.8,4.8 -5.4,5.9 -1.1,0.5 -2.8,-0.3 -3.4,1.4 -0.2,0.7 0.4,1.2 0.9,1.4 1.2,0.5 2.5,1.8 3.9,0.2 0.4,-0.6 1.2,-1.2 1.7,-0.1 0.4,0.8 -0.2,1.6 -0.8,2.2 -2.2,2.1 -7.9,2.3 -10.4,0.2 -1,-0.9 -1.8,-2 -2.7,-3.2 -2.1,3 -2.9,6.3 -5,8.6 1.2,0.7 2.4,1.1 3.1,2 2.5,2.9 4.8,5.2 8.2,0.7 1.2,-1.6 1.6,0.1 1.8,1.2 0.3,2.7 -0.2,5.3 -2.6,6.7 -2.8,1.6 -5.8,3.4 -9.4,1.7 -0.7,-0.4 -1.5,-0.7 -2.3,-0.9 -0.9,-0.2 -1.4,0.4 -1.8,1 -0.4,0.6 0.2,1.1 0.7,1.5 2,1.7 4.3,2.5 6.9,2.5 4.2,0.1 8.3,0.1 12.5,0 8.6,-0.3 17.1,1.8 25.8,1.5 6.1,-0.2 12.1,-1.5 18.1,-2.6 10.5,-2 20.9,-2.5 31.5,-0.2 7.8,1.7 14.8,5.4 22.5,7.3 4,1 6.2,4.8 9.4,7.1 6.6,4.7 12.8,3.8 17.9,-2.6 1.7,-2.1 2.3,-3.6 0.5,-5.5 -1.9,-2.1 -4.1,-2.7 -6.8,-1.3 -3.9,2.1 -1.6,3.5 0.8,4.8 -3.6,1.1 -6.4,-0.2 -7.8,-2.8 -1.3,-2.4 -2.2,-5.5 -0.4,-8.2 4.2,-6 9.5,-4.7 15.2,-1.4 -2.1,-6.2 -8.7,-11.8 -16.2,-14.5 -7.8,-2.8 -16.2,-3.7 -23.5,-7.5 -3.7,-1.9 -8,-3.4 -9.9,-8.1 -1.6,-3.9 -0.9,-15.8 3.2,-19 1.6,-1.3 3,-2.8 4.4,-4.4 1.3,-1.4 2.8,-3.3 1.3,-5.1 -1.5,-1.9 -3.9,-2.1 -6.3,-1 -0.7,0.3 -1.2,1.7 -2,0.5 -0.5,-0.7 0.1,-1.5 0.7,-2.2 2,-2.3 7.5,-3.5 10.8,-2.1 3.1,1.3 4.2,3.8 3.8,7 -0.4,2.9 0.7,3.8 3.7,3.8 3.1,0.1 6,1.5 9.2,1.4 1.6,0 3.1,-0.2 4.6,-0.7 1.7,-0.6 3.1,-1.5 3.1,-3.3 0.1,-1.9 -1.8,-2.4 -3.1,-3.1 -1.8,-0.9 -3.2,0 -4,1.5 -0.6,1.2 -1.3,2.3 -2.6,1.8 -1.4,-0.6 -2.1,-1.8 -2.1,-3.5 0.1,-2 0.8,-3.4 2.2,-4.8 2.2,-2.2 5.2,-3.3 6.7,-6.5 1.3,-2.7 3.9,-1.3 6.1,-0.1 -0.7,1.5 -3.5,0.7 -3.1,3 0.4,2.3 2.6,2.4 4.1,3 5.1,1.9 6.9,4.3 6.9,9.5 0,4.4 0.1,8.8 -1.9,13.1 -2.2,4.6 -8.6,7.7 -13.4,5.6 -2.1,-1 -4.1,-2.3 -6.9,-2.1 1.1,2.9 4.6,4.3 4.4,7.3 -0.1,1.6 -2.1,2.8 -3.7,3.8 -0.9,-3.7 -5.8,-6.1 -9,-4.5 -0.5,0.2 -1.1,1 -1,1.3 0.5,1.3 0.8,2.7 2.6,3.1 3.4,0.8 6.8,1.8 10.2,2.8 13.4,3.7 24.4,10.5 29.2,24.2 4.2,11.8 -0.7,22.3 -9.7,25.9 -9.1,3.6 -18.2,3.6 -26.1,-3.6 -0.3,-0.3 -0.5,-0.8 -1.3,-0.4 1.4,3.1 2.5,6.3 3.3,9.6 0.8,3.5 3.4,5.8 6.6,7.4 1.1,0.5 2.7,0.8 3.7,-0.5 1,-1.3 0.4,-2.2 -0.8,-2.9 -0.4,-0.2 -1,-0.2 -0.5,-0.8 0.2,-0.3 0.7,-0.7 0.8,-0.6 1,0.4 2.3,0.7 2.7,1.5 1.6,2.7 3.7,4.7 6.3,6.6 2.4,1.8 0.1,4.2 -2.1,5.8 -1.3,-3.4 -3.5,-3.6 -6.3,-2.2 -0.4,0.2 -0.9,0.4 -1.3,0.5 -6,1.8 -6.3,2.3 -2.1,7.1 2.2,2.5 4.2,5.3 7.9,5.9 2,0.3 2.5,1.8 2.5,3.8 -0.1,6.6 0,13.2 -0.1,19.9 -0.1,6.7 1.6,13.1 2.7,19.5 0.7,4 0.3,5.3 -3.5,5.8 -1.5,0.2 -1.3,1.1 -1.5,1.9 -0.7,2.4 -2,4.3 -4.4,5.2 -1.4,0.5 -1.9,1.3 -2.1,2.9 -0.4,2.9 -2.1,4.8 -5.3,4.7 -2.7,0 -5.4,0 -8.1,0 -1,0 -2.1,0 -2.5,-1 -0.4,-1 -0.5,-2.1 0.5,-3 3,-2.9 5.4,-6.6 9.2,-8.2 3.9,-1.7 5.1,-4.8 6.1,-8.2 1.8,-6 0.7,-12.2 -0.1,-18.3 -0.4,-3 -1.5,-5.9 -2.2,-8.9 -0.8,-3.6 -3.5,-5.5 -6.5,-6.8 -2.5,-1 -2.2,1.4 -2,2.6 0.5,3 -1.5,4.4 -3.3,6 -0.4,0.4 -1.2,0.4 -1.7,-0.1 -0.4,-0.4 0,-0.8 0.2,-1.3 1.2,-2.5 -0.4,-4.9 -3.2,-5.1 -5.2,0.1 -5.6,-0.2 -7.7,-3.4 z"
   class="st1" />
		<path
   id="path1002"
   d="m 195,248.5 c -0.8,-2.3 -0.5,-3 1,-2.2 0.8,0.5 1,1.8 2.5,1.4 -3.6,-4 -5.2,-9.3 -10.5,-12.7 -0.2,0 0.9,2 -0.4,1.8 -1.9,-0.3 -1.3,-2.1 -1.6,-3.5 -1.2,2.7 -2.9,4.7 -5.4,5.8 -2.7,1.2 -4.7,3.2 -6.8,5.3 -1.8,1.8 -2.6,3.5 0.6,5.9 -5.4,-2.3 -6.3,-5.1 -2.5,-7.3 6.9,-4 11.8,-10.7 18.3,-13.8 -1.1,0.6 -4.4,-3.5 -5.1,1.6 0,0.4 -1,-0.1 -1.5,-0.6 -1.1,-1.3 -2.3,-2.5 -3.8,-3.7 1.6,5.5 -3.3,6.6 -5.7,9.2 1.9,0 2.7,-0.4 5.8,-3.3 0.6,-0.6 1.1,-2 2.5,-0.5 1.4,1.5 -0.2,1.9 -0.7,2.4 -4.7,5.1 -15.1,4.1 -19.2,-1.6 -1,-1.3 -0.7,-2.2 0.5,-3 2.1,6.3 7.9,6 11.1,2.7 2.1,-2.2 5,-3.9 4.7,-7.7 -0.1,-1.9 1.3,0.7 1.8,-0.7 -0.5,-0.6 -1.3,-1.3 -1.7,-2.1 -0.4,-0.9 -0.6,-2.1 1.2,-1.7 0.2,0.3 -0.1,0 -0.1,0.1 -1.3,-3 -1,-5.9 0.5,-8.8 0.9,0 1.2,1.6 2.3,1.1 0.7,-1 -0.2,-1.3 -0.6,-1.9 -0.3,-0.4 -1.9,0 -0.7,-1.2 0.6,-0.6 1.2,-0.9 1.6,0.2 0.5,1.7 2.2,1.5 3.3,2.5 0.1,-1.8 -2.1,-2 -1.4,-3.2 0.6,-1.1 2.2,0.2 3.2,-0.5 0.3,0.6 1.5,-0.8 1.6,0.9 0.2,1.8 1.2,3.3 3.1,4 -0.5,-6.3 -3,-8.2 -10.5,-8 4,-4.5 11.1,-0.2 15.1,9.2 -1.4,0.7 -1.7,-1.8 -3.3,-1.1 -0.1,2.9 3.9,1.9 4.3,4.6 -1,-0.2 -1.9,-0.3 -2.9,-0.5 -1.3,-0.7 -2.6,-1.3 -3.8,-2.1 -0.4,-0.3 -0.9,-0.4 -1.3,-0.6 0.4,0.3 0.9,0.2 1.3,0.6 1.2,0.8 2.5,1.7 3.9,2 0,1.7 1.3,2.1 2.5,2.6 1.1,0.5 2,1.2 2.2,2.7 -4.3,-0.1 -6.7,-4.2 -10.6,-4.8 3.1,2.6 6.4,5 10.3,6.3 0.9,0.3 1.8,0.5 1.9,1.4 0.1,1.2 -1.2,1.7 -1.9,2.5 -1.1,1.3 -1.6,-0.3 -1.8,-0.7 -2.4,-4.4 -7.6,-4.1 -11.1,-6.6 1.7,3.8 6.6,3.2 9.4,6.5 -4.8,-1.7 -9.3,-2.3 -13.3,-4.4 3.7,4 9.1,3.9 13.6,6.5 -3.3,-0.7 -5.4,1.1 -7.5,3.1 -0.8,0.8 -0.3,1.4 0.3,1.8 2.2,1.6 4.5,3.1 6.8,4.5 1.6,1 2.4,-0.5 3.4,-1.6 -2.6,-0.7 -4.9,-2 -7.4,-4 2,0 3.4,0 5.8,0 -2,-1.1 -3.8,-0.5 -4.6,-2.2 1.7,0 3.2,0 4.8,0 3.3,-0.1 6.7,-4.2 5,-6.7 -3.4,-5.1 -2,-11.1 -4,-16.4 -0.7,-1.9 -2.4,-2.9 -2.9,-4.8 -0.1,-0.4 -0.6,-0.7 -1.1,-0.2 -0.3,0.4 -0.3,0.6 -0.2,1.1 0.4,1.6 2.2,2.2 2.3,4 -4.3,-5.9 -10.4,-9.7 -15.2,-14.9 -0.3,0.3 -0.6,0.6 -0.9,0.9 1.5,2 2.9,3.9 5.1,6.8 -3.3,-2 -5.6,-3.5 -8,-4.9 -0.9,2 1.7,1.9 2.2,3.1 -0.5,1.2 -1.7,-0.7 -1.9,0.3 -0.3,1.2 0.9,0.9 1.5,0.9 1.9,-0.1 3.6,0.2 4.8,1.9 -7.9,1.3 -15.3,4.1 -22.8,6.4 -4,1.2 -6.8,-1.7 -10.3,-1.4 -0.8,0.1 -1.6,-0.2 -2.6,-0.3 1,3.5 4.5,0.7 6.3,2.7 -2.4,0.4 -4.7,0.9 -6.9,1.3 0,0.1 0,0.2 0,0.3 1.5,0.1 3,0.2 4.9,0.3 -2.7,1.8 -5,2.2 -6.6,-0.8 -0.5,-0.9 -1.1,-1.1 -1.7,-0.8 -1,0.5 0.1,0.9 0.3,1.2 1,1.7 -1.4,1.1 -1.4,2.3 1.3,0 2.6,0 3.9,0 -3.6,2.3 -7.5,0.3 -11.2,0.8 0.8,2.2 3.8,0.5 4.4,2 -5.1,4.8 -10.4,2.2 -15.6,-0.4 -0.1,0.3 -0.1,0.6 -0.2,0.9 1.6,1.1 3.3,2.2 5.1,3.5 -1.5,0.7 -2.6,0.6 -3.6,-0.5 -1.2,-1.3 -2.6,-2 -4.4,-2 -1,-0.4 -1.7,-1.1 -2.2,-2 0,0 -0.1,-0.1 -0.1,-0.1 0,0 0.2,0.3 0.3,0.3 0.5,0.9 1.1,1.5 2.2,1.7 0.4,1.8 1.9,2.6 3.3,3.5 -1.2,0.9 -2,0.1 -2.7,-0.7 -0.7,-0.7 -1.4,-1.5 -2.5,-1 -0.1,0 -0.1,0.3 -0.2,0.5 1.4,0.1 -0.1,2.7 1.9,2.4 0.1,0 0.3,0.3 0.6,0.6 -4.3,0.9 -5.1,-6.9 -10.2,-3.5 1,-2.3 2.4,-3.9 3.4,-5.8 1.4,-2.9 -3.3,-3.5 -1.3,-5.9 -1.2,-0.1 -1.5,0.4 -1.4,1 1,4.5 -1.1,8.2 -3.1,11.8 -1.9,3.6 -1.8,7.4 -1,11.2 0.4,2.1 1.7,2.6 4.6,2.8 -1.4,-1.3 -3.6,-2 -3.4,-4.4 1.7,1.8 3.4,3.6 4.9,5.2 -2,1.2 -3.8,1.1 -5.9,-0.5 -3.5,-2.6 -4.3,-5.4 -2.7,-11.5 -1.4,2 -2.7,3.3 -2.2,5.4 0.3,1.3 -0.7,2 -1.5,2.7 -0.7,0.6 -1,-0.4 -1.4,-0.7 -1.5,-1.1 0.2,-1.6 0.6,-2.2 1.3,-1.9 -1.9,-2.8 -0.5,-4.6 -3.8,3.8 -3.6,7.5 0.1,11.2 -2.2,-1.1 -2.6,-3.6 -5.4,-4.3 1,1.5 1.8,2.7 2.7,3.8 0.7,1 2.9,1.8 1,3.4 -0.8,0.7 -1.2,-1.5 -2.7,-1.1 -0.2,1.9 1.4,3.5 1.4,5.5 -0.1,4.7 -2.5,8.6 -3.8,12.9 -2,6.8 -5.1,13.2 -6.2,20.3 -0.3,1.9 -1.3,3.6 -3.7,3.8 -0.6,-1.1 2.2,-1.8 0.6,-2.8 -1.4,-0.9 -1.6,0.8 -2.3,1.5 -1.8,1.6 -3.9,2.9 -2.5,6.1 0.7,1.5 -4.5,5.3 -7.2,5.5 -1.1,0.1 -2.2,0 -3.5,-0.3 3.9,-2.2 6.8,-5.4 9.4,-9 -4.6,3.5 -9.2,7 -15.8,7.9 4.3,-3.7 8.2,-6.8 12.9,-9 3.3,-1.5 4.3,-5.1 5.8,-7.9 5.6,-10.8 7.5,-22.9 10.3,-34.5 0.3,-1.4 -0.1,-2.9 0.1,-4.4 0.2,-2 1.2,-3.6 3.6,-3.4 0.5,0 0.9,0 1.1,-0.3 0.6,-0.9 1.8,-2.4 1.5,-2.9 -1.2,-1.9 -1.6,0.8 -2.8,0.8 -0.9,0 -1.9,1.2 -3.5,1.2 0.9,-1 1.7,-1.7 2.4,-2.6 0.5,-0.7 2.1,0.3 1.7,-0.9 -0.5,-1.5 -1.9,-0.2 -2.3,0.2 -4.8,4.2 -10.2,1.8 -15.3,1.3 -3.2,-0.3 -6.5,0.5 -9.7,-0.8 -0.9,-0.4 -2,0.4 -2.7,-1.1 -0.5,-1 -1.8,0.5 -1.7,0.6 2.8,2.9 -0.4,4.2 -1.7,5 -6,3.8 -6.5,10.1 -8.2,15.9 -1.1,3.8 0.1,8.2 -3.3,11.8 -0.6,-0.9 -0.3,-2.8 -1.6,-2.6 -1.2,0.2 -0.7,1.9 -1.1,2.8 -1.3,2.9 -0.3,4.9 1.7,7.1 2.9,3.3 1.4,6.9 -3,8.6 0,-2.9 -0.2,-5.9 0.1,-8.8 0.1,-0.8 0.2,-1.3 -0.5,-1.7 -0.2,-0.1 -0.7,-0.1 -1,0.1 -0.6,0.4 -1.3,1 -0.7,1.8 0.8,1 0.3,2.1 0.5,3.2 0.5,3.1 -0.4,5.5 -4,7.3 2.1,-9.4 -0.1,-18.8 4.4,-27.9 4.3,-8.7 9.2,-17 12.8,-26 0.8,-2 2.2,-3.1 4.5,-3.6 6.4,-1.1 12.6,-3 19,-4.6 5,-1.2 8.6,-0.2 12.1,3 0.4,0.4 0.8,0.9 2.2,0.7 -1.9,-3.6 -7.3,-5.4 -5.4,-10.6 1.5,-4.1 3.9,-7.4 8.4,-10.3 -4.4,0.6 -6.2,3 -8,5.4 1.4,-7.5 5.3,-13.1 12.7,-15.8 -3.5,0.3 -6.5,1.6 -9.2,3.9 2.2,-5.5 9.7,-3.8 12.5,-10 -4.6,2.8 -8.6,4.8 -12.3,7.5 -3.3,2.4 -2.5,6.7 -4,10.1 -1.7,3.8 -3.2,7.8 -5.1,12.7 -0.1,-4.9 0.9,-8.3 2.7,-11.5 -2.5,0.9 -3.6,3.2 -4.2,9 -0.1,1.1 -0.3,2 -1.3,2.4 -0.9,0.3 -1.6,-0.1 -2.2,-0.8 -0.4,-0.5 -1.2,-1 -0.2,-1.6 1.2,-0.8 0.6,-2.5 1.9,-3.4 2,-1.5 1.1,-3.7 0.8,-5.7 0,-0.2 0,-1.7 -1.1,-1.1 -0.6,0.3 -0.9,0.9 -0.6,1.5 1.7,3.1 -0.5,5.1 -2,7.3 -0.2,-3.7 -2.3,-7.3 -0.3,-11.3 -3.3,3 -5,0.4 -7,-1.5 -0.9,-0.9 -0.2,-1.4 0.4,-2.1 1.8,-2.2 3.4,-4.5 6,-6.1 1.7,-1.1 2.9,-2.5 1.7,-5.3 -0.9,-2 1.3,-5.1 0.6,-6.7 -1.8,-4.6 2.6,-4.3 4,-6.4 -4.4,0 -6.3,2.7 -5.2,7 0.2,0.7 -0.5,1.5 -0.8,2.3 -0.8,1.7 -1.7,3.5 -0.3,5.2 1.1,1.3 -0.2,2 -0.5,2.9 -0.2,0.8 -5.4,3.1 -6.5,4.4 -1,1.2 -2.1,3.4 -1,5.4 0.5,0.9 1.1,1.8 1.6,2.7 -4,-0.3 -4.6,-1.3 -4.5,-8.4 -2.4,4.7 -2.7,10.8 -10.5,9.9 3.5,-2 6.2,-4 7.2,-8.5 -3.7,2.8 -7.3,3.9 -11.3,3.5 -2.7,-0.3 -4.7,-1.5 -6.5,-3.4 -1.1,-1.2 -0.9,-2.1 0.2,-3.1 3.6,6 8,6.5 14.8,2.1 0.7,-0.4 1.8,-3.3 2.7,0 0.2,0.6 0.4,0.3 0.6,0 0.4,-0.7 0.8,-1.4 1.2,-2 -3,-1.1 0.2,-1.4 0.4,-2 0.3,-1 1.8,-1.8 0.2,-3 -0.1,-0.1 0.2,-0.9 0.5,-1.2 5.4,-5.5 5.5,-13.5 9.5,-19.7 1,-1.5 1.9,-3 3.1,-4.3 1.2,-1.4 2.8,-2.2 4.9,-1.8 2.3,0.4 4.5,-0.1 6.3,-2 0.8,-0.8 1.9,-1.2 3.3,-1.3 -1.4,1.5 -2.8,3 -4.2,4.5 3.5,-3.7 9,-4.2 12.7,-7.7 -1.4,-1.4 -2.1,-0.1 -2.9,0.2 -0.9,0.3 -1.7,1.9 -2.8,1.2 -1.4,-0.9 0.1,-2.1 0.5,-4.1 -3.6,4.7 -7.6,6.9 -12.6,7.6 0.7,-0.8 1.5,-1.5 2.2,-2.4 1.6,-2.2 0.7,-5.7 -1.7,-6.5 -0.2,-0.1 -0.6,0.1 -0.8,0.3 -0.7,0.6 0,1.2 0.3,1.5 2.8,3.1 0.2,4.1 -2.1,4.6 -3.8,0.9 -7.7,4.3 -11.8,-0.4 1.1,5.9 -1.9,2.6 -3.9,1.8 0.4,2.3 3.6,3.2 2,6 -1,1.7 -0.7,4 -2.6,5.3 -1.1,0.8 -2.6,0.6 -3.5,2 -0.7,1.1 -1.9,2 -1.9,4 -2.2,-2.7 -0.5,-4.5 0.6,-6.1 1,-1.4 2.4,-2.4 3.6,-3.7 1.9,-2 1.3,-5.4 -1.3,-5.6 -0.9,-0.1 -2.7,0.2 -3.9,0.7 -2.7,1.1 -4.3,0 -6.2,-2.6 5.6,0.7 10.4,-1.1 15,-3 4.5,-1.8 10.2,-0.1 13.8,-4.8 -7,-4.2 -14,-7.3 -22.2,-3.5 -2.1,0.9 -4.4,0.5 -6.7,-0.3 -3.6,-1.4 -7.2,-3 -12.2,-2 4,-3.7 8.3,-4.2 12.1,-5.1 7.1,-1.7 13.7,-4.4 20,-7.9 2.8,-1.6 5.8,-2.1 9,-1.9 0.5,0 1.3,-0.2 1.4,0.1 3.2,4.9 3.8,-0.3 4.6,-1.5 7.3,-10.2 15,-20.2 23.3,-29.7 4.5,-5.1 10,-9.1 15.5,-13 1.4,-1 2.1,-2.7 5.1,-3.3 -2,2 -3.8,3.1 -4.6,4.7 -1.6,3.4 -3.3,6.3 -7.3,7.4 -1.8,0.5 -2.1,3.1 -1.9,5.1 0.2,1.5 -0.2,2 -1.9,2.2 -3.5,0.3 -5.4,2.5 -5.4,6.2 0,2.1 -0.6,2.8 -2.7,2.5 -3.2,-0.4 -4.8,1.8 -4.6,4.3 0.3,3.4 -1.3,4.7 -3.8,6.1 -2.7,1.5 -4.6,3.8 -4.4,7.3 0.1,2.6 -1.1,3.8 -3.7,3.7 -1.2,0 -2.4,-0.4 -3.5,0.3 2.5,2.8 7.7,2.8 10.5,-0.4 4.2,-4.7 9,-8.2 15.3,-9.2 3,-0.5 6.2,-0.2 9.4,-2.1 -6.3,8.9 -18.9,17.3 -26.9,18.3 8.9,2.4 9.9,3.3 9.4,9 2,-2 2.1,-2.7 0.4,-6.1 -1.1,-2.1 -1.1,-2.1 0.9,-3.9 2.2,4.3 4.9,8 9.6,10.1 2.1,0.9 3.7,2.4 6.2,1.2 2.6,-1.3 1.6,-3.7 2,-5.8 1.7,1.5 2.9,3.1 1.2,5.3 -1.8,2.4 -4.4,3.4 -7,2.2 -1.7,-0.8 -3.5,-0.7 -5.4,-1.4 4.7,0.8 2.4,7.5 8,7.9 -2.8,0.9 -4.3,0 -5.7,-1.3 -1.8,-1.8 -3.6,-3.6 -5.2,-5.6 -0.5,-0.6 -0.8,-0.9 -1.4,-0.5 -0.3,0.2 -0.9,0.5 -0.6,1.1 2.5,4.6 -1.5,7.7 -3.1,11.1 -0.9,1.9 -0.9,2.4 0.9,3.1 1.3,0.5 2.4,1.5 3.5,2.5 3.3,3.4 4.7,3.5 8.5,0.5 -0.4,4.7 -3.6,6.3 -7.4,3.2 -2.4,-2 -4.7,-2.1 -8.4,-1.8 4.1,1.1 7.3,2.2 10.1,4.6 -1.8,0.7 -3.2,0.2 -4.6,-0.4 -2,-1 -4.4,-1.7 -5.4,0.5 -1.1,2.3 -0.1,4.6 2.7,5.8 2.4,1 4.8,1.9 7.6,1.8 8.7,-0.3 17.4,-0.3 25.9,0.8 7.2,1 14.4,1.1 21.3,-0.3 6.7,-1.4 13.4,-2 20,-3.6 6,-1.5 11.7,0.1 17.4,1 8,1.2 15.1,5.4 22.9,7.4 4.1,1 6.1,4.9 9.4,7.1 8,5.2 15.6,3.8 21.5,-3.5 2.1,-2.7 1.4,-6.2 -1.7,-8.5 -2.8,-2 -7.6,-1.4 -9.4,1.3 -0.5,0.8 -0.8,1.7 -1.2,2.5 -3.4,-1.9 -1.6,-4.3 -0.6,-6.7 3.7,-1.4 7.3,-1.9 9.5,-0.2 -2.1,-1.5 -5.7,-1.5 -9.4,0.3 -0.7,0.2 -1.7,0.7 -1.9,0.4 -0.4,-0.5 -0.3,-1.3 0.2,-2 1.9,-2.6 5.7,-3.9 8.8,-2.8 3.8,1.4 8.7,1.6 9.6,7.2 -0.8,-5.1 -2.6,-9.5 -5.7,-13.5 -6.3,-8.2 -15.6,-10.5 -24.9,-12.8 -6,-1.5 -11.7,-3.7 -17.1,-6.7 -4.6,-2.6 -6.3,-9.4 -4.8,-15.5 1,-4.1 3.8,-6.6 6.5,-9.2 1.2,-1.2 2.4,-2.4 2.8,-4.1 0.9,-4.6 -0.3,-6.1 -5.4,-6.7 4,-1 6.3,-0.6 7.5,1.4 1.7,2.7 2,5.5 -0.8,8.2 5.6,1.1 10.9,2.3 16.3,3 3.2,0.5 6,-1.1 8.5,-3 2.5,-1.9 1.4,-4.2 0.1,-6.2 -1.2,-1.9 -5.8,-2.4 -7.5,-1 -0.9,0.8 -2,1.4 -2,2.9 -1.7,-1.3 -1.6,-2.5 -0.7,-3.9 2,-2.9 4.3,-4.1 6.6,-3.6 0.1,-1.1 0.1,-2.2 0.3,-3.2 0.1,-0.5 0.6,-1 1.3,-2.1 -0.6,4.7 1.5,6.3 5.4,7.1 4.4,0.9 4.9,5.2 5.3,8.8 0.5,3.6 -1.9,6.1 -4.7,7.8 -3.8,2.3 -7.9,3.2 -12,0.5 -1.7,-1.1 -3.6,-1.4 -5.7,-0.9 1,0.9 2.6,0.6 3.2,1.8 -0.9,0.6 -2.2,-0.3 -3.9,1.5 5.5,-2.2 9.5,2.2 14.4,0.4 4.8,-1.8 4.9,-1.4 7.7,-5 0.2,5.6 -2.3,6.1 -10.3,7.3 2.5,2.1 4.9,0.6 7.7,-0.4 -3,3.3 -6.9,4 -11.4,2.2 -6.1,-2.5 -11.9,-1.4 -17.7,0.9 -1.4,0.6 -1.2,1.4 -0.5,2.1 1.1,0.9 8.9,-2 9.6,-3.6 1.4,2.7 3,5.1 5.2,7 0.3,0.3 1.2,0.6 0.4,1.4 -0.7,0.7 -1,0.1 -1.4,-0.2 -2.4,-1.9 -5.1,-2.3 -8.1,-2.2 -2.4,0.1 -4,1.3 -4.5,3.4 -0.6,2.2 1.3,3.3 3,4 3.2,1.2 6.5,2.3 9.8,2.9 12.9,2.6 23.1,8.7 28.8,20.9 4.5,9.6 2.5,17.8 -5.3,24.7 -1.1,1 -2.5,1.5 -3.9,1.7 -5.2,0.7 -10.4,2.5 -15.6,0.4 -4.1,-1.7 -7.5,-4.8 -10.6,-7.9 -2.7,-2.7 -6,-4 -9.6,-5.2 7,5.1 10.1,12.5 12.1,20.5 1.1,4.3 6,8 10.2,8.2 1.9,0.1 3.2,-0.4 3.9,-2.2 1,0.8 0.1,2.1 1.3,2.6 -1.5,0.7 -3.3,-0.5 -4.3,1.7 2.1,-0.8 4.2,-0.7 6.2,-0.6 1.2,0 2.4,1.1 2.1,1.9 -0.6,1.8 -1.3,0 -2,-0.2 -2.4,-0.6 -4.7,0.1 -7,0.8 -3.2,1 -6.4,1.9 -9.7,0.1 -0.8,-0.4 -1.5,-0.7 -2.4,0.4 4.6,2.3 6.7,6.6 9.2,10.7 1.5,2.5 3.9,4.5 6.7,5.2 2.5,0.6 2.6,1.9 2.6,3.9 -0.1,4.9 0,9.8 0,14.7 0,8.2 1.6,16.2 3.3,24.2 0.6,2.5 0,3.3 -2.2,3.1 -1.8,-0.2 -3,0.6 -3.2,2.1 -0.4,3.6 -3,4.6 -5.8,5.3 -1.2,0.3 -1.8,0.4 -1.6,1.7 0.6,4.9 -0.4,5.9 -5.6,5.6 0.5,-2.6 2.3,-4.4 4.3,-6.4 -3,0.2 -4.4,1.9 -5.3,4 -0.9,2.2 -2.1,3 -4.5,1.4 3.5,-3.1 6.3,-6.9 10.5,-9.2 5,-2.8 6,-8 6.3,-13 0.4,-8.9 -0.4,-17.6 -4.2,-26 -1.4,-3.1 -4.2,-4.1 -6.6,-5.7 -2.3,-1.6 -5.7,-2.1 -5.1,-6.1 0,-0.3 0,-1.3 -1.1,-1.3 0.4,5.8 -3.5,1.5 -5.8,2.4 4.8,2.6 9.5,5.2 6.8,12.2 -0.7,-6.6 -7.2,-8.6 -10,-13.5 -1.1,1.9 -1,2 1.1,4.4 1.3,1.5 3.9,1.8 4,4.3 -3.9,0.3 -6.2,-1.3 -7,-5 -0.4,-1.9 -1.2,-3.5 -3.3,-4.4 1.7,5 -0.1,9.4 -4.8,11 6,-3.7 2.6,-8.9 2.7,-14.5 -1.7,3.7 -2.5,7.5 -6.9,7.5 0.9,2.9 2.8,-0.5 4,0.9 -0.2,1.4 -1.6,0.9 -2.4,1.4 0.6,0.9 4,1.6 0.2,2.8 0.7,1.3 -1.5,1.2 -1.1,2.3 0.3,0.9 1.3,0.4 1.9,0.6 1.5,0.4 2.6,1.6 4.3,1.6 0.3,0 1.2,0.5 0.6,1.3 -0.4,0.6 -0.8,0.3 -1.4,0.1 -1.2,-0.4 -2.3,-2.5 -3.9,-0.5 1,0.3 1.7,1.1 2.9,1.1 0.5,0 1.5,0.5 0.9,1.4 -0.4,0.7 -0.9,0.7 -1.8,0.4 -1.2,-0.4 -1.8,-1.9 -3.7,-1.8 0.8,1.1 1.4,1.7 2.4,2.2 0.7,0.4 1.7,1.6 1.6,2 -0.6,1.2 -1.7,1.1 -2.7,0.2 -0.2,-0.2 -0.7,0 -1.5,0 3.4,1.9 1.2,3.4 0.1,4.8 -3.2,3.8 -6.4,7.6 -9.7,11.2 -2.3,2.4 -2.4,5.8 -4.5,8.4 -1,1.3 -2,2.3 -3.5,2.6 -3.4,0.8 -5.5,3.6 -8.3,5.3 -0.3,0.2 -0.6,0.5 -0.7,0.8 -1.8,6.2 -3.1,7 -9.1,5.9 0.3,-1.4 1.9,-1.3 2.4,-2.4 0.5,-1 2.1,-0.7 2.6,-2.3 -2.8,-0.1 -5.2,1.6 -6.2,3.3 -1.4,2.5 -2.5,0.8 -4,0.9 3.9,-5 9.7,-6.8 14.5,-10 1.3,-0.8 2.6,-1.7 3.2,-2.9 4.5,-8.4 12.3,-14.6 16,-23.5 0.5,-1.2 1.4,-2 2.4,-2.6 z"
   class="st0" />
		<path
   id="path1004"
   d="m 83.9,120.5 c 4.8,-18.4 12.4,-35.2 24.6,-50.2 0.8,3.4 -0.2,5.4 -2,7.7 -2.6,3.2 -4.8,7.1 -6.1,10.9 -0.8,2.3 -1.2,4.4 -3.1,6.1 -0.2,0.2 -0.4,0.7 -0.3,1 0.9,5.3 -3.8,8.7 -4.6,13.6 -0.6,3.4 -2.2,6.9 -3.8,10.1 -0.9,1.8 -3,0.8 -4.7,0.8 z"
   class="st0" />
		<path
   id="path1006"
   d="m 80.5,118.2 c 1,-0.9 0.9,-2.5 2.7,-3.5 -0.6,2.1 -1.6,3.8 -1.8,5.6 -0.1,0.9 -1.2,1.5 -2.2,0.4 -2,-2.1 -1.7,-9.3 0.6,-11.7 0.5,1.5 1.4,2.9 1.5,4.4 0.2,1.6 -1.9,2.8 -0.8,4.8 z"
   class="st0" />
		<path
   id="path1008"
   d="m 78.3,145.3 c -3,0.2 -5.9,0.8 -8.7,1.9 -1.9,0.8 -2.4,0 -3.1,-1.5 -1,-2.2 1.2,-1.9 1.8,-2.1 3.7,-1.6 6.8,0.4 10,1.7 z"
   class="st0" />
		<path
   id="path1010"
   d="m 47.4,148.6 c 5.8,2.2 10.4,-1.3 15.5,-3.3 -1.1,4.7 -10.4,6.6 -15.5,3.3 z"
   class="st0" />
		<path
   id="path1012"
   d="m 64.2,142.1 c 5.4,-3.3 10.2,-1.8 15,1.2 -4.8,-2.4 -9.9,-1.8 -15,-1.2 z"
   class="st0" />
		<path
   id="path1014"
   d="m 65,146 c 0.5,1 1.8,1.9 0.9,3.1 -0.4,0.5 -1.2,0.5 -1.6,0 -1.1,-1.2 0.5,-2 0.7,-3.1 z"
   class="st0" />
		<path
   id="path1016"
   d="m 116.6,224.2 c -1.3,-0.6 -2.9,-0.4 -3.3,-2.2 0,-0.2 0.2,-0.6 0.3,-0.6 1.7,0.1 2.2,1.7 3,2.8 z"
   class="st0" />
		<path
   id="path1018"
   d="m 64,143.8 c -1.4,0.7 -2.3,0.2 -2.9,-0.9 -0.1,-0.2 0.2,-0.9 0.3,-0.9 1.4,-0.1 1.7,1.2 2.6,1.8 z"
   class="st0" />
		<path
   id="path1020"
   d="m 78.8,129.7 c -1.3,-0.7 -2.3,-1.3 -3.3,-1.9 1.9,-1.2 1.8,-1 3.4,-0.1 4,2.4 8.3,3.4 12.9,2.3 0.5,-0.1 0.8,-0.3 1.2,0.1 0.5,0.5 0.1,0.8 -0.2,1.2 -0.9,1.3 -2.2,1.5 -3.5,0.9 -1.1,-0.5 -3.1,-1 -2.9,0.1 0.3,2.1 -3.1,3.6 -0.8,5.8 0.8,0.7 1.8,1.4 0.8,3.3 -2.7,-5.2 -8.5,-4.6 -12.6,-7.2 0.9,-0.6 1.6,-0.3 2.4,0.2 0.4,0.3 1.3,0.7 1.6,-0.4 0.6,-2.7 -1.1,-3.5 -3.3,-4.1 1.4,-1.4 2.6,1.2 4.3,-0.2 z"
   class="st1" />
		<path
   id="path1022"
   d="m 161.9,202.6 c 1.8,-1 3.1,0.7 4.7,0.4 0.4,-1.2 -1.9,-1.7 -0.7,-2.7 0.6,-0.5 1.7,-0.3 2.7,0.2 2.2,1 5,-0.7 7.2,2 0.1,-3.8 -4.2,-2.6 -4.7,-5.3 2,-0.1 3.5,1.3 5.3,1.8 1.3,0.3 1.1,1.8 0.8,2.9 -0.3,1.1 -1.3,1.5 -2.4,1.2 -2.6,-0.8 -4.8,-1.5 -7.3,1 -1,0.9 -3.9,0.7 -5.6,-1.5 z"
   class="st1" />
		<path
   id="path1024"
   d="m 244.7,120.7 c -1.1,-2.4 2.8,-1.8 1.9,-3.8 -0.5,-1.3 -1.6,0 -2.4,-0.3 2.9,-4 1.2,-7.8 -3.9,-8.3 -1.8,-0.2 -3.3,-1.6 -5.2,-0.8 5.6,-1.6 10.1,0.3 12.1,4.8 1.6,3.5 0.9,5.9 -2.5,8.4 z"
   class="st1" />
		<path
   id="path1026"
   d="m 115.5,119.3 c -0.5,0.7 -1.1,1 -1.7,1.4 -2.3,1.7 -5.1,2.7 -6.9,5 -0.8,1 -2.7,1.6 -3.3,0.9 -1.5,-1.9 1.2,-1.2 1.7,-2.1 1.8,-3.1 5.3,-3.8 8,-5.8 0.4,-0.3 1.1,-0.3 1.7,-0.3 0.2,0.1 0.4,0.6 0.5,0.9 z"
   class="st1" />
		<path
   id="path1028"
   d="m 123.7,211 c 0.4,0 0.7,0.1 1.1,0.1 1.9,0.1 -1,-2.6 1.2,-2.1 1.1,0.3 1.8,1.5 2.9,2 1.1,0.5 2.1,-0.2 3,-1.6 0.5,-0.8 1,-0.5 1.4,0 0.8,1.3 2.2,0.8 3.2,1.1 -2.8,2.8 -6.1,2.1 -9.4,1.1 0.5,2.7 4.2,1.4 4.4,4.1 l 0.1,-0.1 c -2.9,-1.1 -5.8,-2.2 -7.7,-4.8 z"
   class="st1" />
		<path
   id="path1030"
   d="m 210.8,131.8 c 2.5,-7.1 8.1,-8.7 14.7,-8.6 -5.3,2.1 -12.3,1.4 -14.7,8.6 z"
   class="st1" />
		<path
   id="path1032"
   d="m 164.4,206.6 c -4.6,-1.8 -9.4,0.6 -13.9,-0.9 7.7,-1.9 10.3,-1.8 13.9,0.9 z"
   class="st1" />
		<path
   id="path1034"
   d="m 236.9,211.3 c -3.1,1.8 -6.2,1.3 -9.2,1.3 -1.3,0 -2.6,-0.6 -3.3,-1.9 -0.3,-0.5 -1.4,-1.5 -0.1,-2.1 1.1,-0.6 0.8,0.8 1.2,1.2 2.2,2.1 5,1.6 7.6,1.6 1.2,0 2.3,-0.2 3.8,-0.1 z"
   class="st1" />
		<path
   id="path1036"
   d="m 241.1,172.8 c 3.6,-3 7.1,-2.6 12.3,1.7 -3.8,-3 -8.1,-2.5 -12.3,-1.7 -0.1,-0.1 0,0 0,0 z"
   class="st1" />
		<path
   id="path1038"
   d="m 235.3,231.5 c 6.2,1.6 6.2,1.6 5.5,7.4 -0.5,-3.4 -2,-6.1 -5.5,-7.4 z"
   class="st1" />
		<path
   id="path1040"
   d="m 212.2,184 c 2.9,1.7 4.7,4.4 6.6,7.2 -3,-1.6 -5.1,-4.1 -6.6,-7.2 z"
   class="st1" />
		<path
   id="path1042"
   d="m 95.2,212.6 c -0.7,-3.8 -1.8,-7.3 1.6,-10.2 -3.5,2.9 1.2,6.9 -1.6,10.2 z"
   class="st1" />
		<path
   id="path1044"
   d="m 123.8,210.9 c -4,1 -3.8,-4 -6.8,-4.4 4,-0.8 4.9,2.5 6.7,4.6 0,-0.1 0.1,-0.2 0.1,-0.2 z"
   class="st1" />
		<path
   id="path1046"
   d="m 232.9,210 c -3.5,0.8 -5.9,-1 -8.1,-3.3 -0.7,-0.7 -0.6,-1.4 0.2,-1.8 1.5,-0.7 0.5,0.7 0.8,1.1 1.9,2.2 4.2,3.6 7.1,4 z"
   class="st1" />
		<path
   id="path1048"
   d="m 92.9,256.1 c -0.1,-2.4 0.9,-4.3 0.6,-6.5 -0.1,-0.8 0.4,-1.5 1.1,-1.4 0.4,0.1 0.9,1.2 0.8,1.7 -0.8,2.1 -1.7,4.2 -2.5,6.2 z"
   class="st1" />
		<path
   id="path1050"
   d="m 99.2,216 c 1.7,-1.2 2.9,3.2 4.4,-0.7 0,1.6 0,2.7 0,4.1 -1.8,-1.1 -3.6,-1.4 -4.4,-3.4 z"
   class="st1" />
		<path
   id="path1052"
   d="m 91.4,156.1 c -1.1,2.9 -3.5,1.9 -5.3,2.3 1.3,-1.5 3.2,-1.6 5.3,-2.3 z"
   class="st1" />
		<path
   id="path1054"
   d="m 78.2,187.8 c -0.2,2.2 -0.9,4.3 -0.1,7 -3,-2.8 -0.3,-4.8 0.1,-7 z"
   class="st1" />
		<path
   id="path1056"
   d="m 79.2,149 c 2.5,-0.8 4.4,-1.4 6.4,-2 -1.7,1.6 -3.4,2.8 -6.4,2 z"
   class="st1" />
		<path
   id="path1058"
   d="m 84.1,163.1 c 1,-1.2 1.5,-3.1 3.8,-2.7 -0.5,2 -2.2,2.3 -3.8,2.7 z"
   class="st1" />
		<path
   id="path1060"
   d="m 125,215.7 c -2.7,-0.7 -4,-1.5 -4.9,-2.9 0,-0.1 0.7,-0.7 0.7,-0.7 1.2,0.9 2.3,1.9 4.2,3.6 z"
   class="st1" />
		<path
   id="path1062"
   d="m 191.3,197.8 c 1.5,1.1 3.5,1.6 3.4,4 -0.7,-1.7 -3.4,-1.8 -3.3,-4.1 z"
   class="st1" />
		<path
   id="path1064"
   d="m 196.4,240.1 c 2.2,-1.2 2.9,2 4.8,1.5 -2,0.8 -3.4,-0.1 -4.8,-1.5 z"
   class="st1" />
		<path
   id="path1066"
   d="m 233,127.4 c 1.9,-0.4 2,1.7 3.4,1.5 -1.6,0.9 -2.7,0.7 -3.4,-1.5 z"
   class="st1" />
		<path
   id="path1068"
   d="m 200.1,243 c -2,2.4 -2.5,0.1 -3.4,-0.9 1,0.3 2.1,0.6 3.4,0.9 z"
   class="st1" />
		<path
   id="path1070"
   d="m 92,180.4 c -1.1,1.2 -1.8,2.7 -4,1.6 1.8,0 2.2,-2 4,-1.6 z"
   class="st1" />
		<path
   id="path1072"
   d="m 195.9,217.5 c -1.7,0 -3.3,0 -3.6,-2.3 l -0.1,0.1 c 1.3,0.5 2.8,0.9 3.6,2.3 -0.1,0 0.1,-0.1 0.1,-0.1 z"
   class="st1" />
		<path
   id="path1074"
   d="m 53.7,135.4 c -0.6,0.9 -0.9,1.8 -2,1.2 -0.3,-0.2 -1,-0.8 -0.6,-1 0.7,-0.3 1.6,-0.2 2.6,-0.2 z"
   class="st1" />
		<path
   id="path1076"
   d="m 192.2,215.3 c -1.7,0.8 -2.6,0 -3,-1.9 1.5,0.1 1.8,1.7 2.9,2 0,0 0.1,-0.1 0.1,-0.1 z"
   class="st1" />
		<path
   id="path1078"
   d="m 191.4,197.7 c -1.7,0.7 -2.2,-0.8 -3.2,-1.9 1.9,-0.3 2.3,1.1 3.1,2 0,0 0.1,-0.1 0.1,-0.1 z"
   class="st1" />
		<path
   id="path1080"
   d="m 131.4,215.8 c 1.4,-0.4 2.8,-0.7 4,1 -1.6,0.1 -2.7,-0.6 -3.9,-1.1 0,0 -0.1,0.1 -0.1,0.1 z"
   class="st1" />
		<path
   id="path1082"
   d="m 180,220.1 c 1.9,-0.8 1.7,0.8 2.3,1.9 -1.7,0.2 -1.3,-1.6 -2.2,-2 0,0 -0.1,0.1 -0.1,0.1 z"
   class="st1" />
		<path
   id="path1084"
   d="m 120.9,215.2 c -1.5,0.7 -2.1,-0.1 -2.6,-1.6 1.3,0.1 1.7,1.2 2.6,1.6 z"
   class="st1" />
		<path
   id="path1086"
   d="m 208.3,180.8 c -0.9,0 -1.8,0 -3.4,0 1.7,-0.9 2.7,-0.5 3.4,0 z"
   class="st1" />
		<path
   id="path1088"
   d="m 72.7,178.3 c -0.6,0.6 -1.1,1.2 -1.7,1.8 -0.7,-0.6 -0.4,-1.1 0,-1.5 0.3,-0.3 0.7,-0.5 1.1,-0.7 0.3,0.1 0.4,0.3 0.6,0.4 z"
   class="st1" />
		<path
   id="path1090"
   d="m 195,248.5 c 0.7,0.6 1.4,1.2 2,1.8 -1.6,0.3 -2.3,-0.3 -2,-1.8 0.1,-0.1 0,0 0,0 z"
   class="st1" />
		<path
   id="path1092"
   d="m 123,217.5 c -1.9,0.3 -2.7,-0.4 -2.1,-2.3 0,0 -0.1,0.1 -0.1,0.1 0.7,0.8 1.4,1.6 2.1,2.4 0,-0.1 0.1,-0.2 0.1,-0.2 z"
   class="st1" />
		<path
   id="path1094"
   d="m 83.1,131.2 c -1.3,1.2 -2.2,2.3 -0.4,4.5 -2.1,-0.7 -3.4,-1.5 -3.1,-2.8 0.2,-1.1 1.3,-2.4 3.5,-1.7 z"
   class="st0" />
	</g>
</svg>
