<?xml version="1.0" encoding="UTF-8" standalone="no"?>
<svg
   xmlns:dc="http://purl.org/dc/elements/1.1/"
   xmlns:cc="http://creativecommons.org/ns#"
   xmlns:rdf="http://www.w3.org/1999/02/22-rdf-syntax-ns#"
   xmlns:svg="http://www.w3.org/2000/svg"
   xmlns="http://www.w3.org/2000/svg"
   xmlns:sodipodi="http://sodipodi.sourceforge.net/DTD/sodipodi-0.dtd"
   xmlns:inkscape="http://www.inkscape.org/namespaces/inkscape"
   inkscape:version="1.0 (4035a4f, 2020-05-01)"
   height="265.71863"
   width="208.96501"
   sodipodi:docname="antelope-rampant.svg"
   xml:space="preserve"
   viewBox="0 0 208.96501 265.71863"
   y="0px"
   x="0px"
   id="Layer_1"
   version="1.1"><metadata
   id="metadata1077"><rdf:RDF><cc:Work
       rdf:about=""><dc:format>image/svg+xml</dc:format><dc:type
         rdf:resource="http://purl.org/dc/dcmitype/StillImage" /><dc:title></dc:title></cc:Work></rdf:RDF></metadata><defs
   id="defs1075" /><sodipodi:namedview
   inkscape:current-layer="Layer_1"
   inkscape:window-maximized="0"
   inkscape:window-y="25"
   inkscape:window-x="0"
   inkscape:cy="144.7"
   inkscape:cx="104.43785"
   inkscape:zoom="2.52"
   fit-margin-bottom="0"
   fit-margin-right="0"
   fit-margin-left="0"
   fit-margin-top="0"
   showgrid="false"
   id="namedview1073"
   inkscape:window-height="480"
   inkscape:window-width="820"
   inkscape:pageshadow="2"
   inkscape:pageopacity="0"
   guidetolerance="10"
   gridtolerance="10"
   objecttolerance="10"
   borderopacity="1"
   bordercolor="#666666"
   pagecolor="#ffffff" />
<style
   id="style888"
   type="text/css">
	.st0{fill:#010101;}
	.st1{fill:#FFFFFF;}
</style>
<g
   transform="translate(-45.56215,-55.3)"
   id="g1070">
	<g
   id="g1068">
		<path
   id="path890"
   d="m 117.8,118.9 c 0.6,-2.4 1.5,-4.5 -0.3,-6.9 -1.5,-1.9 1.7,-5.7 4.9,-6 1.7,-0.2 3.6,0.1 4.6,-1.6 0.2,-0.3 -0.2,-1.3 -0.4,-1.3 -1.7,-0.2 -3.1,0.6 -4.6,1.2 -5.8,2.3 -11.6,4.1 -17.4,0.1 -1.9,-1.3 -3.7,-2.8 -3.7,-5.3 0,-2.2 1.8,-3 3.5,-4 1.8,-1.1 2.9,-0.8 3.4,1.1 1.1,4.5 4.7,4.1 7.8,3.5 4,-0.8 7.9,-2.2 12.1,-2.2 1,0 1.9,-0.1 1.7,-1.4 -0.1,-0.8 0.5,-1.9 -0.6,-2.4 -1,-0.4 -1.5,0.1 -2,1.1 -0.4,0.8 -1.2,2.1 -2.2,1.7 -1.1,-0.4 -2.2,-1.3 -2.2,-2.8 0,-0.6 0.3,-1.4 -0.6,-1.6 -0.9,-0.2 -1.4,0.6 -1.7,1.3 -0.8,2.2 -1.8,2 -3.2,0.5 -2.7,-2.9 -7.6,-4.6 -4.6,-10.7 -3.2,1.4 -5.9,1.1 -7.7,3.2 -1.2,1.4 -2.9,2.5 -1.5,4.8 0.3,0.5 0.3,1.4 -0.4,1.6 -0.6,0.2 -1.2,0.1 -1.9,-0.7 -2.7,-3.4 -2,-9.8 1.9,-12 5.4,-3.1 11.2,-3.8 17.4,-3.1 6.3,0.7 12,4.3 18.6,3.7 2.8,-0.2 5.4,-0.8 8,-1.6 1.1,-0.4 1.8,-0.8 1.9,-2 0.1,-1.5 -1.2,-0.8 -1.8,-1.3 -0.9,-0.7 -2.9,-0.7 -2.6,-2.3 0.3,-1.5 1.7,-2.2 3.5,-2.3 4.4,-0.3 7.9,1.3 9.3,5.3 0.7,2 1.4,1.1 2.1,0.7 0.7,-0.3 1.1,-1 1.7,-1.5 1,-0.8 1.7,-2.7 3.3,-2.1 2.1,0.8 -1.2,2.3 0.2,3.4 7.6,-6.1 17,-7.3 26.2,-9 13,-2.4 26.5,-2.7 38.8,-8.4 2.2,-1 3.7,-2.9 5.8,-4.3 0.9,6 -4.3,10.9 -14.7,14 1.6,1.3 2.9,2.3 4.2,3.4 1.3,1.1 1.5,2.4 0.7,3.7 -1.1,1.7 -2.8,0.7 -3.6,-0.1 -4.5,-4.3 -10.1,-3.7 -16.2,-3 1.2,1 2.4,2 3.6,3.1 1.3,1.2 1.8,2.5 0.6,4 -1.3,1.6 -2.8,0.3 -3.7,-0.3 -4.4,-3.3 -9.5,-3.5 -14.7,-3.7 0,1.4 1.6,1.7 1.6,2.5 -0.3,5.2 3.5,3.6 6.1,3.7 14.9,0.8 29.1,-2.1 42.6,-8.4 4.8,-2.2 8.8,-5.6 12.5,-9.8 1.5,6.4 -0.9,10.6 -8,14.4 -3.1,1.7 -6.4,3.1 -10,4.8 2.7,1.8 4.9,3.8 6.8,6.1 0.9,1 2,2.9 0.7,4.1 -1,0.9 -2.7,0.4 -4.1,-0.5 -5.2,-3.5 -11.1,-4.8 -17.8,-4.4 1.6,2.3 3.9,3.8 4.8,6.4 0.4,1.3 0.5,2.4 0.6,3.7 0.2,1.4 -0.9,2.1 -1.8,2.7 -1.2,0.8 -1.9,-0.6 -2.4,-1.2 -3.7,-4.9 -9,-7 -14.4,-9 -1.2,-0.4 -2.3,-0.2 -4.1,-0.2 3.2,2.9 5.9,5.6 5,9.9 -0.2,0.8 0.5,1.9 -0.7,2.3 -1.1,0.4 -1.8,-0.3 -2.4,-1.3 -2.5,-3.8 -6.2,-6.2 -9.8,-8.6 -1.3,-0.9 -2.8,-1 -4.6,-0.7 0.2,0.4 0.4,0.6 0.4,0.9 0.1,5 4.1,8 6.2,12 1.7,3.2 1.5,6.1 -3.5,5.5 -3,-0.3 -6,0.2 -9,0.6 -2.6,0.3 -2.2,1.7 -2,3.1 0.2,1.4 1.1,2.8 1.2,4.2 0.1,1.6 1.6,2.5 1.8,4 -4.9,0.7 -5.9,2.5 -3.6,6.2 0.6,1 2,1.8 1.2,2.9 -0.9,1.3 -2.3,-0.2 -3.5,-0.4 -0.4,3.4 -0.6,6.6 0.7,9.5 1,2.2 0.4,2.6 -1.5,1.8 -2.9,-1.2 -2.9,0.6 -2.2,2.3 0.8,2 -0.1,4.8 2.7,5.9 -2.2,2 -3.3,-0.8 -5.2,-0.9 0.5,2.7 1.4,5.1 3.8,7.4 -2.2,0.2 -3.6,0.3 -5.2,0.5 -0.2,2.9 2.8,3.9 3.7,6.2 -3.9,0.9 -4.2,2 -3.1,8.2 2,11.4 7.1,21.2 15.6,29 6.5,6 10.6,13.8 16.6,20.1 3.3,3.4 9,6.8 13.7,5 6.8,-2.7 9.2,-5.6 9.6,-12.1 0.6,-9.1 -3.9,-15.9 -9.4,-22.1 -6.4,-7.2 -13.8,-13.6 -19.5,-21.4 -4.5,-6 -7.3,-12.8 -8.2,-20.4 -0.5,-4 -0.8,-7.9 0,-11.9 0.7,-3.9 2.5,-7 5,-9.7 2.3,-2.5 4.2,-5.1 5.4,-8.4 1.7,-4.4 5.8,-6.8 10,-8.5 4.2,-1.7 8.8,-2.5 12.6,-5.1 1.2,-0.8 2.9,-1.1 3.8,0 0.8,1 -0.6,2.3 -1.1,3.4 -0.4,0.8 -2,1.1 -1.3,2.3 0.6,1.1 1.8,0.6 2.8,0.7 4.1,0.2 7.9,-0.4 11.6,-2.2 4.5,-2.2 5,-4 2.1,-7.7 3.1,0 5,1.1 4.5,4.4 -1,7.4 -3.3,14.3 -9.8,18.7 -2.5,1.7 -5.8,1.6 -8.8,3.7 3.8,0 7.2,0.8 9.8,-2.1 0.7,4.4 -3.1,7.9 -8.5,8.4 -4.8,0.4 -8.8,-1.4 -12.8,-3.6 -1.3,-0.7 -2.6,-1.3 -4.2,-1.8 1.7,2.1 3.5,4.2 1,6.7 -0.5,0.5 -0.9,1.3 -1.9,0.6 -5.4,-3.7 -7.3,-3.1 -10.6,2.6 -3.7,6.4 -1.5,12.6 1,18.5 2.3,5.3 10.1,14.5 13.8,17 0.4,-3.8 1,-7.4 2.8,-10.7 2.3,-4.4 6.2,-6.6 10.8,-7 2.5,-0.2 4.9,-1 7.5,-0.9 2.5,0.1 3,-2.1 3.8,-3.6 0.5,-1 0.9,-1.8 2.1,-1.7 1.7,0.1 0.9,1.5 1,2.4 0.6,8 -0.9,10.6 -9.1,12.5 1.4,1.2 2.8,2.2 4,3.5 1,1.1 0.9,2.7 0.2,3.9 -0.6,1 -1.6,0.9 -2.7,0.5 -4.6,-1.7 -8,1 -8.5,6.2 -0.5,5.5 2.7,9.6 5.4,13.6 6.4,9.7 6.8,19.8 2.9,30.3 -0.4,1.1 -0.4,2.2 -0.6,3.3 -0.3,1.4 1.1,4.2 -2.4,2.9 -0.4,-0.1 -0.6,0.1 -0.6,2 0,1.8 -0.4,3 -2.3,1.8 -3.7,-2.4 -4.2,-0.6 -3.9,2.7 0.1,0.7 -0.1,1.4 -0.1,2.1 -1.2,0.5 -1.6,-0.4 -2.1,-0.8 -3.4,-2.8 -3.9,-2.7 -4.7,1.4 -0.4,2.2 -1.4,2.5 -3,0.9 -1.6,-1.6 -3.3,-3.2 -5.1,-5.1 -1.9,4.2 -3.6,3.2 -5.8,0.1 -1.3,-1.9 -3.7,-3 -4.9,-5.4 -0.6,5.3 -0.5,10.5 -1.1,15.6 -0.6,5.4 2.2,9.6 6.5,13 2.1,1.6 3.7,3.7 6,5.2 1.9,1.2 1.9,4 0.8,5.1 -2.9,2.8 -4.5,7 -9.1,8 -1.8,0.4 -3.1,2 -4.5,3.4 -2.8,2.8 -5.6,5.6 -8.4,8.5 -2,2 -3.6,4.2 -3.1,7.3 0.1,0.8 0,1.6 -0.5,2.5 -0.8,1.5 -1.5,2.9 -3.6,2.9 -2.6,-0.1 -1.9,-2.2 -2.3,-3.9 -1.7,1.9 -2.4,3.1 -0.9,5.8 2.1,3.9 -1.5,6.9 -3.9,9.4 -2.3,2.3 -5.1,4.3 -8.3,5.7 -1.1,0.5 -2.3,1.1 -3.1,0.4 -0.9,-0.8 -0.7,-2.2 0.1,-3.2 -1.2,-0.8 -1.4,0.3 -2,0.6 -1.8,0.9 -4,1.2 -5.3,0 -1.2,-1.2 1.1,-2.2 1.7,-3.4 1.5,-3.2 2.8,-6.6 4.3,-9.8 1,-2.2 2.1,-4.4 4.5,-5.5 1.7,-0.7 3.3,-2.1 3.8,-3.6 1.3,-4.4 5,-6.3 8.4,-8.6 4.3,-3 7.5,-7.1 10.2,-11.5 2.8,-4.6 1.5,-7.4 -3.8,-8.5 -2.4,-0.5 -4.4,-1.6 -6.4,-2.9 -1.3,3.3 -3.3,6.2 -2.8,10 0.2,1.5 -1.1,2.4 -2.8,2.8 -0.1,-1.5 -0.2,-2.9 -0.3,-4.6 -1.1,2.2 -1.9,4.3 -3.6,5.5 -2.1,1.5 -4,0.8 -5.4,-1.4 3.7,0 4.8,-1.7 3.3,-5.7 -1.8,-4.9 -4.2,-9.7 -3.4,-15.1 0.7,-4.3 0.1,-8.3 -0.7,-12.5 -0.9,-5.1 0.7,-10.1 2.5,-16.2 -6.3,6.9 -14.6,8 -21.1,12.3 -1.6,1.1 -3,2.4 -4.1,3.9 -1.2,1.5 -1.7,3.1 -0.3,5.4 3,4.8 4.7,10.3 8.6,14.7 1.8,2.1 -1,6.1 -4.5,6.8 -9.4,1.8 -18.8,3.6 -28.2,5.4 -1.3,0.2 -1.9,0.8 -2.5,1.9 -0.9,1.7 -2.5,2.8 -4.3,3.5 -1.3,0.5 -2.6,-0.2 -3.5,-0.9 -0.9,-0.7 -0.8,-2.1 0.1,-3.1 0.8,-0.8 1.4,-1.6 0.7,-2.7 -0.3,-0.5 -0.9,-0.2 -1.3,0.1 -1.1,0.7 -3.1,1.1 -2.6,2.6 1.6,4.5 -1.8,5.6 -4.6,6.7 -4.6,1.8 -9.6,2 -14.5,1.8 -1.5,-0.1 -2.4,-1.1 -2.8,-2.2 -0.8,-2.2 2,-2.2 3,-4 -2.4,0 -4.4,0.1 -6.5,0 -1.1,-0.1 -2.3,-0.4 -2.7,-1.6 -0.5,-1.7 1.3,-1.9 2.1,-2.1 4.8,-1.4 8.7,-5 13.3,-6.4 5.7,-1.7 11.3,-3.8 17.1,-5.2 4.6,-1.1 9.3,1.1 14,0.7 2.3,-0.2 4.7,-0.3 6.6,-2 1.9,-1.6 2.3,-3.4 0.2,-5.1 -6.5,-4.9 -11,-11.8 -17.8,-16.6 -0.6,3.4 -2.9,4.2 -6,3.4 0.2,-1.2 2,-1.8 1,-3.5 -4.4,4.3 -9.6,5.4 -15.4,3.6 -2.3,-0.7 -3.9,-2.2 -4.3,-4.7 -0.2,-1 0.4,-1.9 1.3,-2.1 1.2,-0.3 0.9,0.8 1,1.5 0.2,2.6 1.9,1.5 3,1.1 3.3,-1.2 5.9,-3.6 7.6,-6.5 1.3,-2.1 2.8,-3.8 4.5,-5.6 1.9,-2 4,-3.7 4.9,-6.5 1.1,-3.1 3.9,-5 6.8,-5.5 9.4,-1.7 18.8,-5.1 28.5,-3.9 4.8,0.6 9.1,0.8 13.3,-1.7 3.7,-2.2 3.5,-5 0.3,-7.9 -7.1,-6.2 -16.4,-8.1 -24.4,-12.5 -5.3,-2.9 -9.9,-6.4 -12.6,-11.9 -1,-2.1 -2.6,-1.9 -4,-1.2 -2.6,1.3 -5.4,1.6 -8.1,1.2 -6.8,-1 -13,1.1 -19,3.6 -6.2,2.6 -10.1,8.1 -14.3,13.3 -0.9,1.2 -0.4,2.5 -0.5,3.7 -0.1,2.3 -1.5,3.7 -3.4,4 -2.2,0.4 -2,-1.7 -2.1,-3.2 0,-0.5 0.1,-1.2 -0.6,-1.2 -0.4,0 -0.9,0.3 -1.3,0.6 -0.7,0.6 -0.6,1.4 -0.2,2.1 2.3,5.1 1.9,6.4 -3,9.6 -7.9,5.2 -12.2,6.9 -16.9,6.6 0,-1.3 1.8,-1.5 1.7,-2.8 -0.1,0 -0.3,-0.1 -0.4,-0.1 -1.8,-0.4 -4.4,1 -5.2,-1.2 -0.8,-2 2.1,-2.1 3.1,-3.2 2.6,-3 4.3,-6.7 7.1,-9.6 5.7,-5.9 10.6,-12.5 18.3,-16.2 3.8,-1.8 6.2,-5.3 8.9,-8.6 3,-3.7 6.3,-7.5 11.8,-7.4 5.7,0.1 10.7,-1.3 13.8,-6.6 0.2,-0.4 0.9,-0.4 1.3,-0.7 0.3,-0.2 0.5,-0.6 0.8,-0.9 -1,0 -2.3,-1.6 -2.6,-0.9 -1.5,4 -6.1,2.6 -8.5,5.1 -2.4,2.4 -13.3,2.5 -15.9,0.3 -1.9,-1.6 -3.8,-3.4 -2.5,-6.4 1.6,-3.7 4.4,-4.4 7.8,-3.5 0.4,1 -0.4,1.3 -0.6,1.8 -0.3,0.6 -1.9,0.8 -0.9,1.9 0.6,0.8 1.4,1.8 2.5,1.3 3.2,-1.3 6.4,-2.8 8.1,-6.1 0.4,-0.7 0.4,-1.4 -0.2,-1.6 -4.6,-1.3 -3,-5.6 -3.9,-8.5 -1.5,-4.4 -2.1,-9.2 -3.3,-13.7 -0.8,-3.3 -2.8,-6 -4.6,-8.8 -1.3,-2.1 -2.6,-4.1 -3.1,-6.6 -1.3,-6.7 -4.2,-9 -11,-9.1 -1.3,0 -2.8,0.4 -3.4,-1.1 -0.6,-1.4 -0.1,-2.7 1.2,-3.7 0.9,-0.7 1.4,-1.4 0.3,-2.5 -1,-0.9 -1.8,-1.9 -3.3,-0.7 -2.9,2.4 -5.6,1 -7.1,-1.3 -3.8,-5.7 -7,-11.7 -6.6,-18.9 2.1,-0.7 2.2,1.8 3.7,1.7 0.8,-1.7 -1.7,-3.2 -0.2,-5 2.8,0.1 3.1,3.6 5.2,4.2 8.5,2.6 12.5,9.9 17,16.5 2.5,3.6 5.7,6.4 9.4,8.5 5.9,3.3 7.7,9.2 9.5,15 0.8,2.8 1.2,5.5 3.2,7.7 3.1,3.6 5.1,8 8.4,11.4 2.4,2.4 4.3,3.8 7.5,0.5 2.6,-2.7 6.5,-3.6 10.2,-3.9 5.5,-0.4 11,-0.6 16.3,-2.4 4.1,-1.4 8.2,-3 10,-7.6 0.6,-1.5 1,-2.5 -0.9,-3.2 -3.1,-1.1 -5.2,-3.4 -7.5,-5.6 -3.5,-3.4 -12.5,-4.7 -17,-2.9 -1.4,0.6 -1.7,1.8 -2.2,2.9 -1.9,3.1 -4.2,4.7 -8,4 z"
   class="st0" />
		<path
   id="path892"
   d="m 178.6,132.2 c 1.2,2.9 0.6,6.1 1.2,9.5 -1.5,-1 -1.9,-2.4 -2,-4 -1.1,0.8 -0.3,1.8 -0.9,2.6 -1.1,-0.1 0,-1.4 -1.4,-1.7 0.5,3.4 1.1,6.7 1.6,10.1 -2.2,-1.8 -2.2,-1.8 -2.3,-9 -1.4,1.5 -1.4,1.5 -0.8,4.3 -1.4,0.5 -1.1,-1.2 -2.1,-1.6 -0.4,2.6 1.8,4.6 1.4,7 -0.4,2.6 2.5,4.3 2.2,7 -2.1,-0.1 -1.9,-2.5 -3.9,-3.5 0.2,4 0.6,7.5 3.7,11.6 -5.1,-3.3 -6.5,-0.3 -7.9,2.9 1.7,0.4 1.9,-1.9 3.5,-1.9 -0.3,1.9 -2.3,2.6 -3,4.2 1.9,0.5 2.1,-1.8 3.9,-1.9 -0.9,2.2 -2.3,3.9 -3.8,5.6 1.4,1.2 1.7,-1 2.7,-0.9 0.9,1.5 -1.8,1.7 -1,3.5 0.9,-0.8 1.7,-1.4 3.3,-2.9 -1.1,3.1 -3.2,4 -4.3,5.8 1.8,0.6 2.1,-1.5 3.5,-1.8 0.6,1.9 1.2,3.7 1.8,5.6 -1.8,0 -2.3,-3 -3.1,-2.1 -1.3,1.4 0.7,2.7 1.8,3.8 2,2.2 2.5,5.4 5.7,6.8 1.1,0.5 0.9,3.4 2.4,4.7 0.1,0.1 -0.3,0.8 -0.2,0.8 0.6,0.4 2.5,-1.1 1.8,1.1 -0.3,0.9 -1.6,-0.8 -2.5,0 0.6,1.6 2.3,1.1 3.5,1.8 1.7,0.9 3.2,1.7 2.3,4.1 -0.3,0.7 -0.4,1.7 1.2,1 1.4,-0.6 0.5,0.9 0.5,1.2 0,2.6 -0.1,2.6 2.5,1.8 0.1,0 0.2,-0.1 0.4,-0.1 1.5,0.1 1.6,3.2 3.9,1.9 -0.1,1.2 1.4,2.1 0.5,3.5 -0.8,1.3 0.6,0.6 0.9,0.7 1.9,0.8 2.5,2.7 3.9,4 -3.2,1.1 0.7,2 0.2,3.2 -0.1,0.2 0.6,1.2 1.2,0.9 0.3,-0.2 0.3,-1.1 0.8,-1.6 0.1,1.1 0.2,2.1 0.3,3.2 1.2,-0.1 0.2,-1.3 1.1,-1.8 0.6,1.8 2.1,3 3.3,4.5 1.2,1.5 1.8,3.7 1.8,6.3 1.2,-2.4 0.2,-4.3 -0.1,-6.3 2.4,0.8 0.9,3 1.8,4.2 2.3,-0.4 -0.3,-1.9 0.8,-2.6 2.3,2.4 4.6,4.2 7.9,1.5 0.5,-0.4 1.5,-0.1 2.2,-0.3 11.1,-2.9 13.9,-12.5 10.8,-22 -2.2,-6.6 -5.9,-12.6 -10.7,-17.7 -6.8,-7.1 -14.2,-13.9 -19.6,-22.2 -3.6,-5.6 -5.9,-11.7 -6.5,-18.7 -0.7,-8.2 1.6,-14.6 7.5,-20 1,-1 1.7,-2.2 2,-3.5 1.8,-6.9 7.1,-10.3 13.2,-12.3 3.5,-1.2 7,-2.3 10.3,-4.4 -0.9,3.5 -2,4.1 -6.9,5.8 -3,1 -6.1,1.9 -8.8,3.8 0.8,0.9 1.4,0.6 2.2,0.2 4.6,-2.2 9.4,-3.2 14.5,-2.8 4.2,0.3 8.4,0 12.7,-1.2 2.2,-0.7 3.5,-1.6 4.9,-3.6 -3.4,12.6 -8.7,14.5 -17.4,13.2 -2.1,-0.3 -4.3,0.1 -6.3,-1.1 2,1 4.2,0.9 6.4,1 1.3,1.1 6.1,1.6 8.8,0.7 0.6,-0.2 1.2,-0.4 1.8,-0.3 0.1,0 0.2,0.1 0.3,0.1 -2.7,2.6 -6.4,3.4 -9.7,4.1 -3.1,0.8 -6.3,-1.8 -9,-3.6 -3.2,-2.1 -5.6,-0.7 -8.4,0.6 5.8,-0.4 10.8,1.3 14.8,5.6 2.3,2.4 5.4,1.3 8.4,1.7 -2.4,3 -5.3,0.6 -7.9,0.8 0.7,1.5 2.5,1 3.5,2.1 -3.8,0.7 -7.2,-0.7 -10.1,-2.3 -4.5,-2.6 -8.9,-3.8 -13.9,-1.7 1.4,2.2 6.3,0.1 6.4,4.8 -3.1,-2 -6.4,-2.2 -9.2,-0.5 -3.4,2.1 -5.8,5.4 -6.2,9.7 -0.9,10.7 3.4,19.5 10.4,27.1 2.8,3 5.3,6.5 9.4,8.1 0.7,0.3 1.4,0.6 2.5,0.1 -3.3,-4.7 -1,-9.1 1.1,-13.4 2.1,-4.4 5.8,-6.2 10.6,-6.3 4.1,-0.1 8.6,0.3 11.1,-4.5 1,4 -1.2,4.7 -4.3,5.4 -2.8,0.6 -6.2,-0.7 -8.3,2.4 -1.1,0.1 -2.2,0.3 -3.1,0.9 0.9,-0.6 2,-0.7 3,-1 3.1,-0.9 6.4,-0.4 9.5,-1.6 0.5,-0.2 1.5,0 1.7,0.3 0.5,1.1 -0.8,0.9 -1.2,1.4 -2.8,2.8 -6.7,2.4 -10,3.6 -2.7,1 -4.8,2.4 -3.7,6.1 2,-2.7 4.2,-5.3 7.8,-4.3 2.1,0.6 4.2,1.9 4.3,4.9 -3.2,-1.1 -6.3,-2.8 -9.2,0.4 -3.3,3.6 -3.9,7.7 -2.6,12.2 1.5,5.3 4.7,9.8 7.2,14.6 4.3,8 4.1,15.9 0,23.9 -0.3,0.6 -1.2,1.1 -0.6,2 0.7,1 2.3,1.9 0.8,3.1 -1,0.8 -2.4,0 -4.2,-0.9 1,1.7 2.2,3 1.2,4.9 -2.4,-0.8 -4.9,-1.2 -7.1,-2.9 -0.8,2.2 2.2,3.6 0.9,5.8 -1.4,-1.3 -3.3,-1.7 -4.9,-2.5 -1.6,-0.8 -2.3,1 -3.5,0.5 -0.1,1.1 0.1,1.8 1.3,2.4 0.8,0.4 0.6,1.7 0,2.9 -1.6,-1.8 -2.4,-4 -4.7,-4.9 -0.6,-0.2 -1.1,-1.6 -0.9,-2.3 0.4,-1.1 1.1,-0.3 1.8,0.1 0.2,0.1 1.1,0.4 0.8,-0.5 -0.2,-0.5 -0.6,-1 -0.9,-1.4 -0.4,1.7 -2.2,-1 -2.6,0.8 -0.2,0.7 0.5,2.3 -0.9,1.9 -1.5,-0.4 0,-1.8 -0.3,-3 -1.8,0.7 -1,2.1 -1,3.1 0,0.8 1.5,1.9 0,2.5 -1.4,0.6 -1,-1.1 -1.6,-1.7 -2.5,-2.1 -5.2,-4 -4.7,-7.9 -1.3,0.8 -1.4,-0.6 -2.1,-0.9 -0.1,-0.1 0.1,1.2 -0.5,1.5 -1.4,-1 1,-2.8 -1,-4.1 -0.8,-0.5 -1,-0.4 -1.6,-0.3 -0.8,0.2 -1.2,0.7 -0.7,1.3 3,3.8 -0.1,8.2 1.6,12.2 -1.6,0 -0.6,-1.4 -1.4,-1.6 -0.7,0.5 -0.6,1.7 -0.3,2 1.5,1.6 -0.5,2.4 -1,2.6 -2,0.6 -1.7,2.7 -1.3,3.2 2.4,2.8 2.4,5.9 2.1,9.3 -1,-0.1 -0.8,-1.8 -2.1,-1.6 -0.3,2.6 1.3,5 0.9,7.7 0.4,-2.5 0.8,-4.8 3.6,-6.4 -0.2,3.3 0.7,6.5 -1,10 3,-1.7 0.9,-4.4 2.5,-6.2 0,2 0,3.8 0,5.8 1.5,-0.6 0.5,-1.8 1.2,-2.6 1.5,3.1 4.1,5.7 3.7,9.7 1.5,0.2 2.4,-1 2.8,-2 0.4,-1.1 -0.9,-2 -1.7,-2.3 -1.7,-0.6 -1.4,-2 -1.7,-3.3 0.5,0.5 1.1,1 1.6,1.5 5.3,5.2 4.7,9.8 -2.7,12.4 -5.6,2 -8.6,6.3 -12.1,10.2 -0.9,1 -1.7,2.1 -2.6,3.2 -2.3,2.9 -4.5,5.7 -3.5,9.8 0.1,0.5 0.1,2.2 -1,2.8 -1.1,-0.1 -0.8,-0.9 -0.9,-1.5 -0.4,-2.8 -1.7,-3 -3.8,-1.3 -2.6,2.1 -3.3,6.1 -7.2,6.9 -0.7,0.1 0.3,0.5 0.6,0.6 0.7,0.2 -0.8,2.1 0.9,1.3 0.7,-0.4 1.3,-0.7 2.6,-0.4 -2,1 -1.4,3.1 -3.2,4 1.7,0.9 1.8,-1 3.5,-0.7 -3.4,2.9 -5.4,6.7 -9.6,9.3 1.1,-5.1 2,-9.5 3.1,-14.6 -5.2,2.3 -2.7,9.6 -8.6,10.7 3.8,-4.9 2.8,-12.6 9.6,-16 0.7,-0.3 1.4,-0.9 1.7,-1.5 2.3,-5.8 7.6,-8.7 11.9,-12.7 4,-3.7 7.4,-7.8 9.2,-13.1 0.8,-2.4 2.6,-0.1 3.3,-1.3 -1.1,-0.7 -1.1,-1 -0.1,-2.1 -5.7,-2.1 -11.8,-3.9 -16.9,-8 -1.3,-1 -1.2,-2.9 -1.8,-4.4 1.4,-0.7 0.2,-1.3 0,-2 -0.2,-0.5 -0.6,0.3 -0.2,0 0.1,0 0.3,0.3 0.4,0.5 0.3,0.6 0.5,1.1 -0.1,1.6 -0.4,0.3 -1.8,-1.4 -1.3,0.3 0.4,1.4 0.5,2.7 0.6,4.4 -1.2,-1.5 -2.2,-2.5 -3.2,-3.8 1.3,1.4 -0.8,3.8 2.2,4.8 1.8,0.6 1.4,2.5 -0.6,3.1 -1.2,0.4 -0.7,1.4 -0.6,1.6 0.7,0.8 0.7,1.6 0.6,2.5 0,0.5 -0.1,1 -0.1,1.7 -2.1,-1.4 -2.1,-4 -4.2,-6 0.2,3.7 1.6,6.9 -1.1,10.1 0.7,-4.7 -1.4,-8.2 -2.8,-11.9 -1.4,-3.8 -1.8,-7.8 -0.1,-11.3 1.2,-2.5 0.2,-4.6 -0.3,-6.5 -1.4,-5 0.1,-9.7 0.7,-14.5 0.7,-6 2.4,-12 0,-17.9 -3.8,-9.3 -11,-15.2 -20.2,-18.7 -7.9,-3 -15.4,-6.9 -22.1,-12.8 2.9,-0.3 3.6,-2.7 4.7,-4.3 3.1,-4.1 8.1,-4.7 11.8,-7.6 0.7,-0.6 2.5,-1 0.7,-2.4 -0.5,-0.8 0.2,-1.7 -0.2,-2.6 -0.1,-0.2 -0.2,-0.4 -0.3,-0.6 -0.6,0.4 -0.1,1.1 -0.3,1.6 -0.4,1.1 -0.8,2.2 -2.3,1.7 -1.7,-2.1 2.4,-3.8 0.1,-6.3 -0.6,-0.6 1,3.8 -1.1,1.1 -0.7,-0.9 -1.2,0.2 -1.2,1.1 0,2.1 -1.4,3.4 -2.6,4.8 -1.4,1.6 -3,2.7 -3.8,5 -1.1,3 -6.7,3.9 -10.3,1.4 -1.8,-1.2 -2.9,-0.5 -4,-0.2 -3.2,1.1 -6.2,1 -9.6,1 -7.9,-0.2 -16.2,0.9 -22.5,5.7 -5.2,4 -11.2,8.3 -11.1,16.4 0,0.9 -0.6,2.2 -1.9,2.8 -0.7,-1.6 -0.5,-3.9 -3.4,-3.7 -3.5,0.2 -5.1,2 -4,5.4 0.7,2.2 0.2,3 -2.1,3.8 0.9,0.1 1.6,0.1 2.2,0.1 0.5,0 0.9,0.1 1.4,0.6 -1.3,0.1 -2.7,0.2 -4,0.3 2.5,1.7 0.5,3 -0.6,3.7 -2.9,1.9 -6.3,2.5 -9.3,4.4 1,-1.9 1.7,-3.9 2.9,-5.6 1.2,-1.8 2.2,-3.5 1.9,-6 -3.8,2.8 -4.1,8.6 -10.2,9.7 5.5,-5.2 8,-11.7 13.8,-15.8 3.5,-2.5 5.6,-6.8 9.4,-9.1 2.3,-1.4 4.6,-3 6.9,-4.4 2.8,-1.8 4.8,-4.2 6.6,-7 2.1,-3.3 5.2,-6.7 9.3,-6.7 6.4,0 11.7,-1.3 16.4,-6.1 3.6,-3.7 9.6,-2.6 14.1,-5.6 -4.6,-0.3 -8.4,2 -12.9,3 1.2,-2 2.6,-3.6 3.3,-5.4 0.6,-1.6 3.7,-2.8 0.8,-5.4 -0.3,3.8 -2.2,6.1 -5.5,8 0.6,-2.3 3.6,-2.8 2.8,-5.6 -3.2,2.9 -6.2,5.7 -9.4,8.6 -1.3,-3.1 2.7,-4.8 1.7,-7.8 -1.7,1.4 -2.2,3.4 -3,5.1 -0.9,1.9 -2.3,3.2 -4.2,4.8 -0.2,-1.1 -0.3,-2 -0.4,-3 -2.9,3.8 -9.3,5.3 -12,2.7 -1.9,-1.8 -4.1,-3.9 -0.6,-6.4 1,4.5 3,5.3 7.2,3.7 4.5,-1.6 7,-5 9.2,-8.8 2,-3.4 4.9,-5.6 8.6,-6.7 2.8,-0.8 4.6,-3.1 6.6,-4.8 3.7,-3.1 7.8,-4.1 12.3,-4.5 10.5,-0.7 20.7,-2.4 27.1,-12.4 1.3,-2 3,-2 6.4,-0.8 -1.1,0.1 -1.8,0.1 -2.5,0.1 -0.6,0 -1.2,0.1 -1.8,0.3 2.9,0.9 5.5,0.2 8,-1.2 -1,-1.7 -1.8,0.8 -2.9,-0.3 1,-1.2 3.7,-1.9 2.4,-3.9 -0.7,-1 -3,-0.8 -4.5,-1 -2.8,-0.3 1.1,3.2 -1.8,3.2 -0.6,-0.9 -1.1,-2.3 -2.8,-2.5 -1.4,1 0.9,1.8 -0.1,2.9 -0.4,-0.4 -0.7,-0.9 -1.2,-1 -1.2,-0.4 -0.8,-5.1 -3.5,-1.3 -0.5,0.6 -1.5,-0.7 -2,-1.3 -3.6,-4.7 -8.9,-6.3 -14.2,-7.6 -3.6,-0.9 -7.1,0.9 -10.7,1.5 -0.3,0.1 -0.8,0.6 -0.8,0.7 1.5,3.7 -3.7,3 -3.6,5.8 -1.1,-1.9 -0.6,-3.9 -1.1,-5.8 -0.6,-2.3 1.5,-3.7 3.9,-4 2.3,-0.3 4.6,-0.8 5.4,-3.5 3,2.3 11.6,2.8 14.4,0.7 1.6,-1.2 2.2,-2.7 0.6,-4.5 -2.5,-2.9 -6,-4.5 -9.3,-6.2 -1.9,-1 -2,1.6 -3.4,1.7 -0.9,-4.5 -2.2,-4.7 -6.6,-1.1 -1.4,-2.5 -2.4,-6.2 -6.1,-2.1 -0.7,0.8 -1.1,-0.2 -1.4,-0.6 -1.4,-1.9 -4.7,-2.8 -3.9,-6 0.3,-1.1 0.6,-2.1 0.7,-3.2 0.1,-4.7 0.7,-4.8 5.2,-4.1 7.2,1.2 14,4.9 21.7,3.6 1,-0.2 2,-0.1 3,-0.3 2.1,-0.4 4.3,-2.8 6.2,0.3 0.4,3.1 -2.2,4.2 -4.3,5.9 3.7,0.4 5.5,5.6 10,3 0.3,-0.1 0.7,-0.2 1.1,-0.2 2.4,0.8 2,2.3 1,3.9 -0.7,1 -1.7,1.7 -2.4,2.5 1.8,-1.3 2.8,-4 6.4,-3.6 -3.3,-1.7 -5.5,-3.3 -5.8,-6.8 -0.2,-2.9 -2.7,-4.3 -5,-5.6 -0.1,-3.1 0.6,-6.6 -4.2,-7.2 2.5,-1.4 6.3,-0.7 7.2,1.1 3,5.9 3,5.9 8.3,1.9 0.9,1.5 -0.7,2.2 -1.2,3.3 2.7,0.9 3.4,-1.8 4.9,-2.8 5.9,-4.3 12.9,-5.5 19.8,-6.9 12.7,-2.4 25.6,-3.4 38.1,-7 2.8,-0.8 5.5,-2 9.2,-3.4 -4.7,4.9 -10.4,6.2 -15.7,9.1 3.6,1 5.3,3.3 6.5,6.4 -6.7,-6.4 -14.9,-4 -23.4,-4.5 3.1,3.2 5.5,5.7 8,8.2 -6.4,-4.7 -13.6,-5.9 -21.7,-4.8 1.1,2.3 3,3.4 4.4,5 0.5,0.6 0.6,1.1 0.1,1.7 -0.4,0.5 -0.8,0.8 -1.5,0.1 -4.3,-4.4 -9.7,-3 -15.2,-3.1 0.7,2.2 1.1,4.2 3.9,3.8 l -0.1,-0.1 c 0,0.8 0.3,2.1 -1.2,1.4 -0.9,-0.4 -1.6,-0.5 -2.5,-0.5 -0.6,0.5 -1.1,0.4 -1.7,0 -1.9,-1.8 -3.7,1.2 -5.7,0 1.4,1.3 2.8,2.3 5.6,2.5 -2.5,0.7 -4,1.1 -5.6,1.6 2.5,-0.8 5.2,1.3 7.8,-0.8 1,-0.8 2.9,-0.8 4.4,-0.9 9.4,-0.7 18.8,-0.7 28.3,-0.8 14.4,-0.2 27.9,-4.1 40.3,-11.6 1.8,-1.1 3.1,-2.9 5.3,-4.9 -1.3,4.5 -4.1,6.9 -7.1,8.8 -2.6,1.6 -5.3,3.5 -8.6,4.1 -1.5,0.3 -3.2,1.2 -3.7,2.9 -0.6,2.1 1.6,2.5 2.7,3.1 2.2,1.2 3.1,3.5 4.7,5.5 -7.3,-4.5 -15.3,-5.3 -24.2,-4.4 3.4,2.9 6.4,5.2 7.9,8.9 0.4,1 0.7,2.4 0,2.8 -1.1,0.7 -1.4,-0.6 -2.1,-1.4 -5.6,-7.2 -13.6,-8 -22.3,-8.5 1.3,2.7 4.3,3 5.3,5.2 0.8,2 2.6,3.8 1.4,6.2 -2,-4.9 -10.6,-11.5 -18.5,-10.4 0,2.5 3.2,3.8 2.5,7 -2.7,-4 -6.4,-5.2 -10.8,-5.5 -4.2,-0.3 -8,0.9 -12.8,2.7 3.5,0.8 5.6,-0.5 7.9,-0.9 2.6,-0.4 5.2,-0.6 7.8,0.3 2.3,0.9 4.9,1.1 6.6,4.1 -3.7,-0.8 -6.9,-1.7 -10.2,-2.1 -3,-0.4 -6.4,-1.5 -9,1.4 7,-1.4 13.5,1.4 20.2,2.4 3.2,0.5 4.8,3.7 6.8,7 -3.8,-2.1 -7.2,-3.9 -11.3,-6.2 1.1,2.6 3.3,3.3 3.4,5.5 -3.2,-0.9 -7.1,1 -9.2,-3.2 -0.5,0.8 -0.7,1 -0.7,1.2 -0.1,1.2 2.3,1.7 1.2,2.8 -1.2,1.3 -2.1,-0.5 -3.2,-1 -1.9,-0.8 -3.2,-2.2 -4.1,-3.8 -0.7,-1.1 -1.2,-1 -2.3,-0.8 3.3,5.6 7.1,8.7 14.2,7 3.2,-0.8 7.1,0.7 11,-0.6 -0.6,1.5 -1.1,2 -2,2 -5.3,-0.2 -10.5,1.3 -15.7,0 -3.8,-0.9 -6.1,-3.9 -8.4,-6.7 -0.8,-0.9 -1.1,-2 -2.5,-1.7 -0.4,-0.4 -0.6,-1 -1.1,-1.3 0.2,0.6 0.8,0.8 1.3,1.2 -0.2,1.1 -1.3,1.4 -2.2,2 2.6,0.3 3.7,2.4 5.3,3.9 2.2,2 4.2,4 7.6,4.3 3.4,0.3 3,3.9 3.7,6.1 0.4,1.1 2.1,4 0,4.3 -2.7,0.3 -0.9,-2.6 -1.3,-4.1 -0.6,-2 -0.6,-4.2 -3,-5.6 -0.1,1.2 -0.2,2.3 -0.3,3.3 -0.1,0 -0.3,0 -0.4,0 -0.2,-1.1 -0.3,-2.1 -0.5,-3.2 -0.3,2.5 -2.6,4.9 -0.2,7.5 0.7,0.8 1.2,2.4 0.9,3.4 -0.4,1.6 0.7,2.1 1.3,1.7 1.9,-1 1.4,0.8 1.2,1 -1.1,1.1 -0.3,2 0,3 0.1,0.4 1.3,1 0.2,1.3 -0.4,0.1 -1.1,-0.5 -1.6,-0.8 -1.3,0.6 -0.5,1.8 -0.7,2.6 z"
   class="st1" />
		<path
   id="path894"
   d="m 122.7,245.4 c -2.8,-0.5 -4.2,-2.9 -5.7,-4.8 -1.2,-1.5 0.2,-3.5 1.5,-4.6 3,-2.5 3.1,-2.5 1.7,-6.2 -1.6,0.8 -0.1,2.6 -1.1,3.5 -1.5,-0.2 -1,-2.1 -2.5,-2.5 -0.4,2.1 -0.8,4.1 -1.4,6.8 -0.3,-1.3 -0.5,-2.1 -0.8,-3.2 -1,3 -1.7,5.9 -4.2,8.4 -0.1,-2.9 -0.3,-5.5 1.2,-8.9 -3.4,2.9 -4.5,6.7 -7.8,8.5 -0.9,-2.1 2.4,-2.8 0.7,-4.8 -2.8,3.3 -4.9,8.5 -11,4.7 5.4,-1.8 9.3,-5.3 11.9,-10.2 0.8,-1.4 2.1,-2.7 3.5,-3.5 2.5,-1.5 3.5,-3.7 4.6,-6.3 1.5,-3.4 5.2,-4.3 8.7,-4.8 7.3,-1 14.1,-4.2 21.6,-3.7 3,0.2 6,0.5 9,0.9 1.8,0.2 3.3,1.1 4.2,2.8 l -0.1,-0.1 c -0.2,1.3 -0.5,2.3 1.5,1.2 3.4,-1.9 6.1,-0.8 8.3,2.6 0.7,1.1 1,1.2 -0.1,1.9 -1,0.5 -2,1 -2.9,1.6 -4.1,2.4 -7.4,5.8 -10.7,9.1 -1.4,-1 1,-1.7 -0.1,-2.8 -1.1,1.6 -2.3,3.1 -3.4,4.7 -0.2,-0.1 -0.3,-0.2 -0.5,-0.3 0.4,-1.1 0.9,-2.2 1.3,-3.4 -2.5,2.8 -5.2,5.2 -7.8,7.7 -0.3,0.3 -0.5,1.6 -1.5,0.6 -1.9,-2 -3.1,-0.8 -3.8,1.2 -0.9,2.4 -0.5,4.4 1.5,6.5 1.3,1.4 3.9,2.5 2.9,5.5 -0.1,0.3 1.2,1 2.1,1.7 -1.2,0.3 -1.8,0.5 -2.3,0.6 2.9,2.3 4.4,5.8 8.4,8.5 -3.5,0 -4,2.6 -6.6,4.2 1.2,-2.7 3.3,-4.4 1.8,-7.3 -1.9,3.1 -3.5,6 -7.3,7.8 1.6,-2.3 2.8,-3.9 3.9,-5.5 -5.8,4 -11.5,8.1 -18.8,8.9 0.1,-1.9 2.9,-1.3 2.7,-3.7 -5,3.4 -10.7,5.4 -14.5,10.3 -0.4,-2.3 2.8,-3.3 0.5,-5.8 -2.8,-2.9 -5.6,-1.6 -6.6,0.6 -2,4.2 -5,1.9 -7.6,2 -0.5,0 -1,-0.6 -1.8,0.4 2.4,1.6 5.2,0.1 7.7,1.1 -2.1,1 -4.8,-0.5 -6.5,1.8 1.9,0.1 3.7,0.2 5.5,0.3 0,0.2 0,0.4 0,0.6 -2.3,0 -4.7,0 -7,0 0,0.2 0,0.4 0,0.6 1.7,0.1 3.5,0.2 6.4,0.3 -5.3,2.3 -9.9,3.4 -14.6,2.8 -2.3,-0.3 -0.6,-1.9 0.2,-2.6 2.9,-2.3 6.4,-4.1 8,-8.2 -4.3,2.7 -8.3,6.4 -14.1,4.4 5.3,-2.3 10.4,-4.7 15.2,-7.6 1.2,-0.7 2.5,-0.5 3.7,-0.4 2,0.2 4.3,-0.1 5.4,-1.2 3.8,-3.7 7.9,-2.4 12.4,-2.2 4.6,0.2 9.7,1.9 14.1,-1.3 3.8,-2.7 4.3,-5.6 0.8,-8.6 -2,-1.7 -2.7,-4.9 -5.9,-5.4 -1.5,-0.2 -0.9,-1.8 -0.8,-2.3 0.8,-2.1 2.2,0.8 3.9,-0.8 -2.5,-1.3 -5.8,0.5 -7.3,-2.1 0.1,-0.6 0.9,-0.1 1,-0.7 0,0 -0.1,0 -0.3,0 -0.4,0 -0.3,0.5 -0.4,0.7 z"
   class="st1" />
		<path
   id="path896"
   d="m 65.1,93.3 c -2.4,1.2 -4.2,1.1 -5.1,-2 -1.1,-3.6 -4.8,-6.1 -4.5,-10.5 3.8,2.1 6.8,5.5 12.4,6 -4,-2.9 -9.2,-3.4 -9.5,-9.5 2.4,2.6 5,3.8 7.7,5 4.5,2 5.8,6.8 8.6,10.4 3.2,4.2 6.4,8.4 11,11 5.5,3 8.6,7.8 9.6,13.7 1.1,6.8 5.8,11.3 9.2,16.7 1.9,3 4.8,5.2 7.3,8.3 -4.6,1 -7.9,3.6 -10.7,6.9 -0.8,1 -1.9,0.8 -2.8,0.6 -1.1,-0.3 -1.2,-1.3 -1.4,-2.4 -1.6,-10.1 -3.2,-20.2 -9.2,-29.1 -2.3,-3.4 -1.8,-7.8 -4.5,-11.2 -3.2,-4.1 -4.7,-4.9 -9.7,-3.6 -1.1,0.3 -2.2,0.2 -3.3,0.2 -0.5,-1.6 0.6,-2.1 1.3,-2.7 1.1,-1 1.9,-2.2 1.4,-3.7 C 72.4,95.9 70.6,95 69.6,95.4 67.8,96 66.7,93 64.9,95 65,95.1 64.8,93.9 65.1,93.3 64.9,91.8 64,90.5 64.4,88.9 c -0.3,1.6 0.5,2.9 0.7,4.4 z"
   class="st1" />
		<path
   id="path898"
   d="m 141.5,103.7 c -9.1,-5 -17.8,-1.5 -26.4,1.1 -3.7,1.1 -6.7,-0.3 -9.6,-1.6 -3.3,-1.5 -3.1,-3.8 0,-6.3 1.8,4.6 5.4,5.9 11.5,4.2 6.8,-1.8 13.5,-3.1 20.5,-0.6 1.9,0.6 3,1.6 4,3.2 z"
   class="st1" />
		<path
   id="path900"
   d="m 156.3,91.5 c -1.5,1.7 -3.2,2 -5.2,0.7 -2.1,-1.4 -3.7,-3.8 -6.8,-3.3 -0.2,0 -0.7,-0.6 -0.8,-1 0,-0.2 0.5,-0.8 0.7,-0.8 3.4,0.1 4.5,-2.5 5.9,-4.8 0.3,-0.3 0.6,-0.6 0.9,-0.9 2.8,-1.3 3.6,1.5 5.1,2.7 0.8,0.6 1.2,2.1 1.1,3.4 -0.2,3.4 2.1,4.4 4.9,4.8 0.4,0.1 1.2,-0.3 0.9,0.4 -0.3,0.7 0.1,1.7 0,1.6 -4.1,-1.2 -5.7,3.2 -8.8,4 -0.3,0.1 -0.7,0 -1.6,-0.1 2.2,-0.7 3.6,-2 4.6,-3.5 0.8,-1.2 2.4,-3.1 -1,-3.1 C 155,90 155,88 154.4,86.2 c -0.9,-2.7 -2.1,-2.6 -3.5,-0.3 -0.8,1 -1,2 0.1,3 1.1,2 3.8,1 5.3,2.6 z"
   class="st0" />
		<path
   id="path902"
   d="m 112.2,78.3 c 0.2,2 1.2,3.7 -2.4,3.9 -3.7,0.2 -6.7,2.3 -8.6,5.9 -0.6,-5.4 0.5,-6.4 11,-9.8 z"
   class="st1" />
		<path
   id="path904"
   d="m 178.7,82.1 c -0.4,-1 -1.9,-2.2 0.8,-2.4 3.2,-0.2 6.1,0.6 9.6,2.7 -4.1,0.9 -7.4,2.8 -10.6,-0.5 0.1,0.1 0.2,0.2 0.2,0.2 z"
   class="st1" />
		<path
   id="path906"
   d="m 143,103.2 c -2.4,-2.9 -5,-4.9 -8.7,-5.1 -0.3,0 -1.7,-0.2 -1.4,-1.2 0.2,-0.6 1,-1.4 1.6,-1.5 2.2,-0.3 7.7,4.6 8.5,7.8 z"
   class="st1" />
		<path
   id="path908"
   d="m 137.8,104.8 c -4.6,0.8 -5,0.7 -7.5,-1.9 2.6,-1 6.1,-0.2 7.5,1.9 z"
   class="st1" />
		<path
   id="path910"
   d="m 141.6,167.6 c 1.1,-0.4 1.6,-1.3 1.7,-2.4 0.4,-0.4 0.7,-1.3 1.6,-0.6 l -0.1,-0.1 c 0.9,1.5 -0.4,2.6 -0.8,3.9 -1.5,-0.4 -2,1.3 -3.2,1.7 -0.8,0.3 -1,2 -2.7,1.2 0.7,-1.8 2.4,-2.5 3.5,-3.7 z"
   class="st1" />
		<path
   id="path912"
   d="m 168.4,218.7 c -0.5,-1.1 -2.9,-1.2 -1.9,-3 0.2,-0.3 1,-0.5 1.4,-0.3 1.5,0.8 0.5,2.1 0.5,3.3 z"
   class="st1" />
		<path
   id="path914"
   d="m 178.6,132.2 c -0.5,-1.1 -1,-2.2 -1.9,-4 1.3,0.8 2.3,0.7 2.7,1.6 0,0.9 0.2,1.8 -0.8,2.4 z"
   class="st0" />
		<path
   id="path916"
   d="m 173.2,82.9 c 0.6,0 1.1,0 1.7,0 -0.2,1 1.5,0.4 1.2,1.3 -0.1,0.3 -0.7,0.7 -0.8,0.7 -0.9,-0.4 -2.3,-0.4 -2.1,-2 z"
   class="st1" />
		<path
   id="path918"
   d="m 143.9,168.3 c 0.3,-1.3 0.5,-2.6 0.8,-3.9 2.6,0.9 0.1,2 0.1,3 -0.3,0.3 -0.6,0.6 -0.9,0.9 z"
   class="st0" />
		<path
   id="path920"
   d="m 157,217.4 c 1.1,-0.7 2.1,-1.7 3.8,-1.2 -1.3,1.1 -2.4,1.8 -3.8,1.2 -0.1,-0.1 0,0 0,0 z"
   class="st1" />
		<path
   id="path922"
   d="m 166.3,213 c -0.3,-0.2 -0.6,-0.4 -0.7,-0.7 -0.1,-0.7 0.4,-1.1 0.9,-1.4 0.6,-0.3 0.5,0.3 0.5,0.6 0.2,0.6 0.1,1.2 -0.7,1.5 z"
   class="st1" />
		<path
   id="path924"
   d="m 170.3,112.2 c -2.3,0.7 -3.6,1.1 -5,0.6 0.6,-1.2 2,0 2.7,-1 0.8,-1.1 2,0.4 2.9,-0.1 0.3,-1.3 -1.4,-0.7 -1.6,-1.9 -0.1,-1 -2.7,1.3 -1.9,-1 0.2,-0.5 2.5,-1.1 4,-0.4 2,1 2,3.8 4.2,4.6 0.1,0 0,0.7 0,1.1 -2.4,-0.5 -3.9,0.6 -4.9,2.6 -1.8,-2.5 -3.5,0.5 -5.3,0.2 -1,-0.2 -2,-0.6 -1.9,-1.5 0.2,-1.8 1.1,-0.5 1.8,-0.2 2.1,0.6 3.1,-0.8 5,-3 z"
   class="st0" />
		<path
   id="path926"
   d="m 166.6,144.1 c 2.4,-3.8 0.6,-6.9 0.5,-10.3 2.3,1.6 1.1,4.1 2,6.7 1.2,-2.3 -0.3,-5 2.2,-6.4 -0.1,1.5 -0.3,2.6 -0.3,3.6 0,0.6 0,1.1 0.9,1.4 0.8,0.3 0.5,-2.3 1.4,-0.5 0.7,1.4 -1.8,1.1 -1.6,2.5 -2.5,-0.8 -3,1.6 -5.1,3 z"
   class="st0" />
		<path
   id="path928"
   d="m 165,154.7 c -0.1,-0.9 -0.1,-1.8 -0.3,-2.6 -0.2,-0.7 -0.8,-1.5 0.3,-1.8 1,-0.2 0.4,0.8 0.6,1.3 0.7,1.1 0.9,-0.1 1.3,-0.3 -0.7,-1.8 1.3,-3.3 0.5,-5.1 0.6,0.8 2.5,0.8 1.3,2.6 -0.6,0.9 -0.3,1 1.9,0.7 -2.1,1.9 -3.9,3.4 -5.7,5 z"
   class="st0" />
		<path
   id="path930"
   d="m 217.4,120.5 c 5.8,-2.4 11.9,-0.8 17.8,-1.1 -5.9,1 -11.9,-0.4 -17.8,1.1 z"
   class="st0" />
		<path
   id="path932"
   d="m 147.1,106.8 c 0.5,-0.4 1,-0.7 1.5,-1.1 1,-1 1.6,-0.2 2.1,0.5 0.7,0.9 -0.1,1.5 -0.7,1.9 -2,1.3 -4.2,1.2 -6.8,0.8 1.4,-0.9 3.2,-0.7 3.9,-2.1 0.1,-0.1 0,0 0,0 z"
   class="st0" />
		<path
   id="path934"
   d="m 172.9,136.8 c 0.8,-1.8 1.6,-2.6 2.7,-3.1 1.2,-0.5 1,-1.4 0.5,-2.1 -0.4,-0.6 -2.1,-0.7 -0.7,-1.6 0.7,-0.5 1.8,0.5 1.7,1.4 -0.2,1.8 1.5,3.2 0.5,5.4 -1.2,-3 -2.7,-0.6 -4.7,0 z"
   class="st0" />
		<path
   id="path936"
   d="m 164.9,164.4 c 1.3,-2.5 3.9,-3.1 5.4,-5 0.3,-0.4 0.9,-0.6 1.3,0 0.3,0.5 0.2,0.9 -0.4,1.2 -1.8,0.8 -3,2.2 -4,3.8 -1.1,1.6 -1.4,-1.2 -2.3,0 z"
   class="st0" />
		<path
   id="path938"
   d="m 174.9,124.4 c -3.2,1.1 -3,-2.2 -4.9,-3.7 1.6,0.3 2.6,0.6 3.8,0.7 0.7,0.1 1.4,0.5 1.5,1 0.1,1 -1,0.3 -1.3,0.7 -1,1.1 1.3,0.6 0.8,1.5 z"
   class="st0" />
		<path
   id="path940"
   d="m 164.9,154.5 c -0.4,3.6 -0.8,4.1 -4.3,5.2 1.4,-1.6 3.1,-2.4 2.2,-4.9 -0.5,-1.4 1.5,0.2 2.3,-0.2 -0.1,0.1 -0.2,-0.1 -0.2,-0.1 z"
   class="st0" />
		<path
   id="path942"
   d="m 165.6,161.4 c -1,1.4 -1.7,2.3 -3.2,2.4 -0.7,0 -2.1,0.6 -0.3,1.7 0.6,0.4 -0.4,0.9 -0.8,1.2 -0.5,0.3 -1,0 -1,-0.6 -0.1,-1.2 -0.1,-2.8 1.1,-2.8 1.5,-0.2 2.3,-1.8 4.2,-1.9 z"
   class="st0" />
		<path
   id="path944"
   d="m 131.5,169.4 c -1.5,1.8 -2.6,4.5 -6.3,2.6 2.5,-1 4.4,-1.8 6.3,-2.6 z"
   class="st0" />
		<path
   id="path946"
   d="m 194.5,227.1 c -1.7,-2.9 -2.9,-4.9 -4,-6.9 2.3,0.9 3.5,2.8 4,6.9 z"
   class="st0" />
		<path
   id="path948"
   d="m 165.1,138.7 c 0.4,3 1.3,5.9 -0.5,8.8 0.6,-2.9 -0.1,-5.9 0.5,-8.8 z"
   class="st0" />
		<path
   id="path950"
   d="m 118.2,154.5 c -1.2,-3.2 1.4,-4.6 2.5,-7.2 0.6,3.2 -1.3,5 -2.5,7.2 z"
   class="st0" />
		<path
   id="path952"
   d="m 152.3,165.8 c -0.3,-2.7 1.1,-5.4 0.1,-8.2 0.9,2.8 1.2,5.5 -0.1,8.2 z"
   class="st0" />
		<path
   id="path954"
   d="m 155.4,165 c 0.6,-2.8 0.3,-5.6 -0.4,-8.3 2.2,2.6 1.3,5.5 0.4,8.3 z"
   class="st0" />
		<path
   id="path956"
   d="m 174,244.2 c 0.6,-1.6 1.3,-3.2 1.9,-4.8 3.4,2.6 -0.9,3.4 -0.9,5.2 -0.3,-0.2 -0.6,-0.3 -1,-0.4 z"
   class="st0" />
		<path
   id="path958"
   d="m 179.7,245.4 c 2.1,1.5 1.5,3.7 2.1,5.9 -1.4,-1.1 -1.4,-1.1 -2.1,-5.9 z"
   class="st0" />
		<path
   id="path960"
   d="m 172.7,200.5 c 0.7,1.7 1.4,3.5 2.1,5.2 -2,-1.1 -2.2,-3.1 -3.1,-4.7 0.3,-0.1 0.7,-0.3 1,-0.5 z"
   class="st0" />
		<path
   id="path962"
   d="m 231.1,163.8 c -1.4,1.2 -3.7,1.3 -4.3,3.5 -0.1,-3.1 1.5,-4.1 4.3,-3.5 0.1,0.1 0,0 0,0 z"
   class="st0" />
		<path
   id="path964"
   d="m 229,123.4 c -2.6,0.7 -5.1,0.3 -8.4,-1.1 3.4,-0.3 5.8,0.6 8.4,1.1 -0.1,0.1 0,0 0,0 z"
   class="st0" />
		<path
   id="path966"
   d="m 180.1,256.8 c 0.4,-1.9 -2.3,-2.5 -1.8,-4.6 2.4,0.7 2.8,3 3.2,4.8 0.2,0.9 -0.9,-0.5 -1.5,-0.3 0,-0.1 0.1,0.1 0.1,0.1 z"
   class="st0" />
		<path
   id="path968"
   d="m 188.5,223.5 c 2.3,0.8 4.2,2.3 3.8,3.4 -0.8,1.8 -1.5,-0.2 -2.1,-0.9 -0.5,-0.6 -0.9,-1.3 -1.7,-2.5 z"
   class="st0" />
		<path
   id="path970"
   d="m 156.8,93.1 c -1.5,1.4 -2,4.1 -5.3,3.4 2.4,-0.7 3.1,-3.2 5.3,-3.4 z"
   class="st0" />
		<path
   id="path972"
   d="m 192,229.6 c 0.6,1.6 0.7,2.8 -0.4,5 -0.7,-2.2 -1.2,-3.5 0.4,-5 z"
   class="st0" />
		<path
   id="path974"
   d="m 160.6,146.7 c 0.7,-1.6 0.1,-3.3 0.5,-5.4 0.9,2.2 2.1,4 -0.5,5.4 z"
   class="st0" />
		<path
   id="path976"
   d="m 174.8,124.5 c 0.8,-0.3 1.8,-1.3 1.6,0.6 0.2,1.4 -0.3,1.9 -1.7,1.7 -0.4,0.2 -1,0.6 -1.2,0.4 -0.3,-0.2 -0.3,-0.8 0.1,-1.2 0.5,-0.5 0.9,-1.1 1.3,-1.6 0,0 -0.1,0.1 -0.1,0.1 z"
   class="st0" />
		<path
   id="path978"
   d="m 174.7,126.8 c 0.8,-0.3 1.4,-0.9 1.7,-1.7 0.7,2.2 0.7,2.2 -2,4 0.1,-0.8 0.2,-1.6 0.3,-2.3 z"
   class="st0" />
		<path
   id="path980"
   d="m 171.2,247.1 c 0.2,1.4 1.7,2.4 1.1,4 -0.1,0.2 -0.9,0.4 -0.9,0.3 -0.9,-1.4 -0.2,-2.9 -0.2,-4.3 z"
   class="st0" />
		<path
   id="path982"
   d="m 165.2,81.8 c 0.5,3.6 -2.1,1 -3,1.8 0.7,-1.2 1.9,-1.4 3,-1.8 z"
   class="st0" />
		<path
   id="path984"
   d="m 168.7,101.3 c -3.3,0.9 -0.8,-2.2 -1.9,-2.9 1.4,0.5 1.8,1.6 1.9,2.9 z"
   class="st0" />
		<path
   id="path986"
   d="m 144.8,164.5 c -0.5,0.2 -1,0.4 -1.6,0.6 0.1,-1.3 -0.6,-2.9 1.4,-3.6 0.1,1.1 0.2,2 0.2,3 z"
   class="st0" />
		<path
   id="path988"
   d="m 149.1,165.1 c 0.1,-1.4 0.3,-2.8 0.5,-4.2 2,1.5 0.5,2.9 -0.5,4.2 z"
   class="st0" />
		<path
   id="path990"
   d="m 175.1,202.2 c -0.3,-1.1 -0.5,-2.3 -0.8,-3.4 1.7,0.8 0.8,2.3 0.8,3.4 z"
   class="st0" />
		<path
   id="path992"
   d="m 169.3,133.1 c 0.7,-1 1.4,-2.1 2.1,-3.2 1,2 -0.6,2.7 -2.1,3.2 z"
   class="st0" />
		<path
   id="path994"
   d="m 166.5,106.9 c -1,-0.7 -1.9,-1.3 -3,-2.1 2,-1 2.5,0.7 3,2.1 z"
   class="st0" />
		<path
   id="path996"
   d="m 188.8,247.5 c 0.5,1.1 0.9,2.2 1.5,3.6 -2.4,-0.5 -1.3,-2.3 -1.5,-3.6 z"
   class="st0" />
		<path
   id="path998"
   d="m 165,108.2 c -2.1,0.1 -2.3,-1.3 -3.5,-1.8 2,-0.8 2.3,0.9 3.5,1.8 z"
   class="st0" />
		<path
   id="path1000"
   d="m 169.7,81.7 c 1.3,-1 1.3,-1 3.9,-0.5 -1.3,0.1 -2.6,0.2 -3.9,0.5 z"
   class="st0" />
		<path
   id="path1002"
   d="m 124.4,152.1 c -1.1,-1.7 0.7,-2.4 0.5,-4 1.4,1.9 -0.1,2.7 -0.5,4 z"
   class="st0" />
		<path
   id="path1004"
   d="m 172.8,245.4 c 0.4,1 1.4,1.5 1.1,2.6 -0.1,0.2 -0.9,0.4 -1,0.3 -0.7,-0.9 -0.5,-1.8 -0.1,-2.9 z"
   class="st0" />
		<path
   id="path1006"
   d="m 159.1,131.2 c 1.9,-0.9 3.2,-0.4 4.5,-0.3 -1.3,0.7 -2.6,0.5 -4.5,0.3 z"
   class="st0" />
		<path
   id="path1008"
   d="m 167,97.1 c -1.1,-0.2 -2.2,-0.4 -3.3,-0.6 1.2,-0.5 2.4,-0.7 3.3,0.6 z"
   class="st0" />
		<path
   id="path1010"
   d="m 169.9,151.5 c 0.7,1.3 0.3,2.2 -0.9,2.8 -0.7,-1.2 -0.3,-2.1 0.9,-2.8 z"
   class="st0" />
		<path
   id="path1012"
   d="m 187.4,249.8 c 0.4,1.3 1.8,2.1 0.9,3.7 -0.5,-1 -1.5,-1.8 -0.9,-3.7 z"
   class="st0" />
		<path
   id="path1014"
   d="m 171.4,205.4 c 1.2,0.5 1.7,1.4 1.8,2.7 -1.7,-0.2 -1.2,-1.9 -1.8,-2.7 z"
   class="st0" />
		<path
   id="path1016"
   d="m 194,259.9 c 0.4,-1.3 0.7,-2.4 1.4,-4.3 0.2,2.1 0.7,3.3 -1.4,4.3 z"
   class="st0" />
		<path
   id="path1018"
   d="m 116.6,85.7 c -0.2,-1.6 1,-1.9 1.7,-2.9 0.7,2 -1.1,2.1 -1.7,2.9 z"
   class="st0" />
		<path
   id="path1020"
   d="m 122.5,149.5 c 0.1,-0.8 0.1,-1.7 0.2,-2.5 0.3,0.2 0.7,0.3 0.9,0.6 0.5,0.8 -0.5,1.3 -1.1,1.9 z"
   class="st0" />
		<path
   id="path1022"
   d="m 135.5,146.4 c 0,0.5 0,1 -0.7,1.1 -0.6,0.1 -1,-0.3 -0.8,-0.8 0.1,-0.4 0.5,-0.9 0.9,-1 0.9,-0.4 0.4,0.5 0.6,0.7 z"
   class="st0" />
		<path
   id="path1024"
   d="m 147.2,106.7 c -0.7,-0.1 -1.4,-0.1 -2.2,-0.2 0.4,-0.4 0.7,-1.1 1.2,-1.2 1.2,-0.2 0.9,0.8 0.9,1.5 0,0 0.1,-0.1 0.1,-0.1 z"
   class="st0" />
		<path
   id="path1026"
   d="m 126.8,84.4 c -1.2,1.1 -1.8,1.7 -2.6,2.4 -0.3,-1.7 0.5,-2.2 2.6,-2.4 z"
   class="st0" />
		<path
   id="path1028"
   d="m 169,91.2 c 0.4,-1.1 1.1,-1.7 2.3,-1.2 -0.4,1 -1.4,1.1 -2.3,1.2 z"
   class="st0" />
		<path
   id="path1030"
   d="m 64.6,203.3 c -1.1,0.8 -2.2,0.5 -3.4,0.3 1.1,-1 2.2,-0.7 3.4,-0.3 z"
   class="st0" />
		<path
   id="path1032"
   d="m 122.1,85.8 c -0.4,-1.4 0.3,-1.9 1.4,-2.1 0.5,1.4 -1.1,1.3 -1.4,2.1 z"
   class="st0" />
		<path
   id="path1034"
   d="m 169.6,81.6 c -1.4,1 -2.9,0.7 -4.4,0.2 v 0 c 1.5,-0.7 3,-0.6 4.4,-0.2 0.1,0.1 0,0 0,0 z"
   class="st0" />
		<path
   id="path1036"
   d="m 163.1,85.6 c 1.8,-0.7 2.6,-0.1 3.2,0.8 -1.3,0.9 -1.9,-0.7 -3.2,-0.8 z"
   class="st0" />
		<path
   id="path1038"
   d="m 193,255.9 c -0.3,-0.8 -1.5,-1.3 -0.7,-2.4 0.1,-0.2 0.6,-0.4 0.6,-0.3 0.6,0.9 0.4,1.8 0.1,2.7 z"
   class="st0" />
		<path
   id="path1040"
   d="m 130.5,148.1 c 0.3,-0.8 0.5,-1.7 0.9,-2.9 0.5,1.4 0.5,2.4 -0.9,2.9 z"
   class="st0" />
		<path
   id="path1042"
   d="m 173.3,119.1 c -0.2,0.3 -0.4,0.6 -0.7,0.7 -0.7,0.1 -1.1,-0.4 -1.4,-0.9 -0.3,-0.6 0.3,-0.5 0.6,-0.5 0.7,-0.1 1.3,-0.1 1.5,0.7 z"
   class="st0" />
		<path
   id="path1044"
   d="m 172.6,117.5 c -0.1,0 -0.4,-0.2 -0.7,-0.3 0.4,-0.4 0.8,-0.9 1.3,-1.1 0.6,-0.2 0.8,0.4 0.7,0.9 0,0.5 -0.6,0.6 -1.3,0.5 z"
   class="st0" />
		<path
   id="path1046"
   d="m 129.4,231.6 c 0.9,-1.2 1.8,-2.4 2.8,-3.7 0.5,0.8 0.1,1.4 -0.1,2.2 -0.6,1.8 -2.1,2.4 -3.6,2.8 -0.2,0.1 -1,-1 -1.1,-1.7 -0.3,-1.7 1.8,-2.5 1.7,-4.2 0.2,0 0.6,-0.1 0.7,0 0.2,0.3 0.5,0.7 0.4,0.9 -0.5,1.1 -1,2.1 -1.6,3.2 0.2,0.1 0.5,0.3 0.8,0.5 z"
   class="st0" />
		<path
   id="path1048"
   d="m 122.7,245.4 c -0.5,-0.7 -1,-1.4 -1.6,-2.3 1.9,-0.5 2.3,2.4 4.3,1.4 -0.9,1.1 -1.9,0.5 -2.8,0.7 -0.1,0.1 0.1,0.2 0.1,0.2 z"
   class="st0" />
		<path
   id="path1050"
   d="m 133.4,230 c 0.6,-1.4 0.6,-2.6 2,-3.1 0.5,1.6 0,2.6 -2,3.1 z"
   class="st0" />
		<path
   id="path1052"
   d="m 122.9,231.5 c -0.5,-1.3 -0.7,-2.2 0,-3.1 0.1,-0.1 0.7,0.2 1,0.3 -0.3,0.8 -0.6,1.7 -1,2.8 z"
   class="st0" />
		<path
   id="path1054"
   d="m 164,219.7 c -0.6,1.8 -1.6,1.8 -3.4,1.6 1.4,-0.7 2.2,-1.1 3.4,-1.6 z"
   class="st0" />
		<path
   id="path1056"
   d="m 158,224.9 c 0.6,-0.9 1.3,-1.5 2.5,-1.1 0.1,0.1 0.2,0.1 0.3,0.2 -1,0.2 -1.5,1.8 -2.8,0.9 z"
   class="st0" />
		<path
   id="path1058"
   d="m 62.7,87.9 c 0.8,1.8 0.5,3.3 -0.7,4.8 -0.8,-1.8 1.1,-3.2 0.7,-4.8 z"
   class="st0" />
		<path
   id="path1060"
   d="m 65.1,93.3 c -1.5,-1.6 -1.3,-3.4 -0.8,-5.3 0,1.7 1.6,3.3 0.8,5.3 0,-0.1 0,0 0,0 z"
   class="st0" />
		<path
   id="path1062"
   d="m 150.2,86 c 0.2,-1.4 0.1,-3 2.2,-3.1 2.1,-0.2 2.8,1.7 2.9,2.8 0.1,2 1.5,3.8 0.8,5.8 l 0.1,-0.1 c -2.2,-0.4 -5,0.8 -6,-2.4 0.1,-0.1 0.3,-0.2 0.4,-0.3 0.7,-0.3 1.8,0.2 2,-0.6 0.2,-1.2 -1,-1.5 -2,-1.8 -0.1,-0.1 -0.2,-0.2 -0.4,-0.3 z"
   class="st1" />
		<path
   id="path1064"
   d="m 150.2,89 c -2.2,-1 -2.2,-2 0,-3 l -0.1,-0.1 c 0.9,1.1 0.9,2.1 0,3.2 z"
   class="st1" />
		<path
   id="path1066"
   d="m 150.1,89.1 c 0,-1.1 0,-2.1 0,-3.2 2.9,-2.4 2.9,1.7 4.5,2.2 0.4,0.1 -0.7,1.5 -1.8,1.7 -0.9,0.2 -1.6,-1.2 -2.7,-0.7 z"
   class="st0" />
	</g>
</g>
</svg>
