<?xml version="1.0" encoding="UTF-8" standalone="no"?>
<svg
   xmlns:dc="http://purl.org/dc/elements/1.1/"
   xmlns:cc="http://creativecommons.org/ns#"
   xmlns:rdf="http://www.w3.org/1999/02/22-rdf-syntax-ns#"
   xmlns:svg="http://www.w3.org/2000/svg"
   xmlns="http://www.w3.org/2000/svg"
   xmlns:sodipodi="http://sodipodi.sourceforge.net/DTD/sodipodi-0.dtd"
   xmlns:inkscape="http://www.inkscape.org/namespaces/inkscape"
   inkscape:version="1.0 (4035a4f, 2020-05-01)"
   height="145.93771"
   width="213.89427"
   sodipodi:docname="bee-volant.svg"
   xml:space="preserve"
   viewBox="0 0 213.89427 145.93771"
   y="0px"
   x="0px"
   id="Layer_1"
   version="1.1"><metadata
   id="metadata5411"><rdf:RDF><cc:Work
       rdf:about=""><dc:format>image/svg+xml</dc:format><dc:type
         rdf:resource="http://purl.org/dc/dcmitype/StillImage" /><dc:title></dc:title></cc:Work></rdf:RDF></metadata><defs
   id="defs5409" /><sodipodi:namedview
   inkscape:current-layer="Layer_1"
   inkscape:window-maximized="0"
   inkscape:window-y="25"
   inkscape:window-x="0"
   inkscape:cy="102.248"
   inkscape:cx="102.96712"
   inkscape:zoom="2.52"
   fit-margin-bottom="0"
   fit-margin-right="0"
   fit-margin-left="0"
   fit-margin-top="0"
   showgrid="false"
   id="namedview5407"
   inkscape:window-height="480"
   inkscape:window-width="820"
   inkscape:pageshadow="2"
   inkscape:pageopacity="0"
   guidetolerance="10"
   gridtolerance="10"
   objecttolerance="10"
   borderopacity="1"
   bordercolor="#666666"
   pagecolor="#ffffff" />
<style
   id="style5314"
   type="text/css">
  .st0{fill:#FFFFFF;}
  .st1{fill:#000000;}
</style>
<g
   transform="translate(-47.032883,-97.752)"
   id="g5404">
	<g
   id="g5402">
		<path
   id="path5316"
   d="m 92.5,235.8 c -1.2,-2 0.7,-2.9 0.4,-4.3 -1.8,-0.7 -2.8,2.1 -4.9,1.1 2.3,-2.2 4.5,-4.2 6.9,-6.2 11.1,-9.4 21,-19.9 27.1,-33.4 3.5,-7.6 7.8,-14.6 15.8,-18.4 0.7,-0.3 1.4,-1 1,-2.2 -4.6,-1.2 -6.9,0.4 -10,4.5 -8.4,11 -19.2,19.4 -33,23 -1.4,0.4 -3.4,0.7 -4.4,-1.4 1.2,-1.4 3.1,0.2 4.3,-1 -1.4,-0.6 -2.9,-1.3 -5,-2.2 16.8,-2.9 26.9,-14.4 37.3,-25.5 -4.2,0.7 -6.7,4.1 -10.2,6.1 -13.2,7.4 -26.3,6.4 -39.7,1.1 -3,-1.2 -2.8,-3.3 -1,-5.5 0.9,-1.1 2,-2.2 3.7,-4 -7.8,-1.3 -14.5,-4.2 -21.3,-6.5 -4.4,-1.5 -8.1,-3.9 -11.3,-7.3 -1.2,-1.2 -1.7,-2.4 -0.4,-3.9 6.3,-7.6 14.3,-11.9 24.2,-12.9 14.8,-1.4 28.8,2.6 43,5.4 6.8,1.3 13.8,3.3 20.7,0.3 2.2,-0.9 5.1,-1.5 1,-4.9 -5.5,-4.5 -10.6,-9.5 -14.3,-16.2 -3.2,-5.7 -8.8,-10.4 -12.5,-16.1 -1,-1.6 -2.3,-3 -3,-5 1.7,0.2 2.7,-0.4 2.5,-1.6 -0.1,-0.7 0.2,-0.8 0.7,-0.9 0.9,-0.1 1.7,0 2.2,0.8 5.6,8.6 14.8,14.4 18.6,24.5 1.6,4.3 5.2,7.5 8.5,10.6 0.5,0.5 1.1,1.4 1.9,0.2 0.2,-0.3 0.8,-0.5 0.2,-1.2 -2.1,-2.3 -5.8,-4.2 -2,-8 2.2,-2.2 4.4,-4.3 7.5,-5.6 -6.5,-4.8 -15.6,-5.9 -20.7,-14.7 9.8,7.4 19.4,13.9 30.7,13.9 11.3,0 20.9,-6.4 30.3,-13.7 -4.5,8.6 -13.9,9.4 -20.3,14.4 2.1,1.2 4,2.2 5.7,3.7 3.4,3 4.9,5.8 0.5,9.2 -0.5,0.4 -1.6,0.8 -0.6,1.9 1.2,1.3 1.6,-0.1 2.2,-0.6 7.1,-5.7 9.9,-14.4 15,-21.4 1.6,-2.2 3.3,-4.4 5.4,-5.7 2.7,-1.7 4.5,-3.7 5.7,-6.4 0.7,-1.6 1.7,-2.4 3.5,-1.9 0.7,1.3 -1.5,1.5 -1.1,2.6 1.3,1.1 2.2,-1.8 4.1,0.5 -11.5,13.2 -18.6,30.3 -35.1,39.5 2.8,5.7 8.1,2.2 11.9,1.9 9,-0.8 18.1,-2.2 26.7,-4.9 7.7,-2.4 15.3,-1.5 23,-1.7 10.7,-0.3 19.1,4.3 26,12.3 1.6,1.9 1.2,3.1 -0.3,4.6 -3.3,3.2 -7,5.6 -11.4,7.1 -7.4,2.6 -14.6,5.4 -22.3,7.3 5.7,8.5 5.7,8.6 -4.4,11.8 -12.3,3.8 -24,2.6 -34.9,-4.3 -2,-1.2 -3.2,-3.2 -4.5,-5.2 -0.4,-0.6 -0.8,-2 -2.1,-1 -1.3,1 -1,1.8 0,2.8 9.4,9.2 19.6,21.6 36.6,24.8 -1.1,1.5 -2.8,1.6 -5.7,2.4 2.9,0.2 4.3,0.3 6,0.4 -1.6,2.7 -3.8,2 -5.7,1.5 -14,-4.3 -25.1,-12.5 -33.2,-24.8 -2.2,-3.3 -5.5,-3 -8.9,-2.7 0.2,2.6 2.1,3.8 3.9,4.8 5.6,3 9.3,7.7 11.6,13.3 5.2,12.7 14.3,22.3 23.3,32.1 3.5,3.9 9,5.5 11.9,10.4 -1.8,0.6 -2.9,-1.3 -4.5,-1.3 -1.2,1.3 1.8,2.2 -0.5,4.1 -6.2,-9.3 -17.5,-12.4 -24.6,-21.8 -6.7,-8.9 -9.7,-19.3 -15.4,-28.5 -1.6,7.5 1.4,14.7 0.1,21.8 -2,10.7 -3.9,21.6 -12.2,29.9 -2.4,2.4 -5.9,2.9 -7.9,5.7 -0.6,0.9 -1.4,0 -2.1,-0.3 -12.8,-5.5 -17,-16.7 -19.8,-29.1 -1.9,-8.5 -0.8,-16.9 0.6,-25.3 0.2,-1.4 1.3,-3.1 -0.5,-3.7 -1.4,-0.4 -1.6,1.5 -2.2,2.7 -3,6 -2.8,13.5 -7.8,18.5 -5.1,5.2 -7.5,12.8 -13.9,16.5 -6.1,3.9 -11.6,8.4 -16.6,13.2 z"
   class="st1" />
		<path
   id="path5318"
   d="m 163.9,225 c -0.2,1.3 -1.6,2.6 -2.1,2.5 -2.1,-0.5 -2.6,1.4 -2.6,2.1 -0.2,2.8 1.8,-0.6 2,0.5 0.4,1.8 0.5,3.2 2.6,1.3 0.4,0.5 1.5,0.8 0.5,1.8 -1.6,1.6 -3,3.3 -4.6,5.1 -1.7,-2.7 3.3,-3.6 0.5,-5.6 -2.1,-1.5 -1.6,1.6 -3,1.9 -0.1,-1.1 -0.3,-2.1 -0.4,-3.4 -2.1,2.6 -1.7,5.5 -1.9,8.3 -3.4,-0.9 -7,-1.5 -6.3,-6.4 0.1,-0.5 -0.5,-1.5 -0.9,-1.6 -1.4,-0.2 -0.6,1 -0.8,1.6 -0.3,0.8 -1.4,0.8 -1.4,0.6 0.2,-3.8 -5.8,-0.5 -5,-4.4 0.1,-0.5 2.2,-0.6 3.5,-0.9 -2,-3.1 -3.8,-6 -7.2,-7.8 1.8,0 3.3,0.6 5.2,-0.2 -1.9,-1.4 -5,-2.4 -2.6,-5.6 0.8,-1 -0.3,-0.7 -0.7,-1.1 -5.1,-4.1 -4.9,-6 0.9,-9.2 0.2,-0.1 0.2,-0.6 0.3,-0.9 -0.8,-1.7 -1.6,1.6 -2.4,-0.6 1,-1.6 2.3,-3.6 3.6,-5.6 -3,0.3 -4.5,1.8 -5.1,4.4 -0.3,-0.1 -0.5,-0.3 -0.8,-0.4 2.7,-4 -1.2,-11.5 7,-12.8 1.2,-0.2 -0.7,-4 1.6,-5.3 -0.5,-0.5 -1.1,-1.4 -1.4,-1.3 -1.6,0.5 -3.4,1 -2.8,3.4 0,0.1 -2.1,0.7 -3.8,1.4 2.6,-5.4 8.7,-8.3 8.3,-16.1 1.9,5.8 2.2,5.9 5,3.3 0.1,-0.1 0.2,-0.4 0.2,-0.4 1.3,0.4 0.4,2.8 2.9,2.5 2.1,-0.2 -2.9,-3.9 1.7,-2.5 1.6,0.5 1.9,1.1 2.7,2.1 0.8,0.9 1.9,0 2.9,-2.4 1.7,3.5 3.2,7.1 2.6,11.2 -0.1,0.6 -0.1,1.5 0.9,1.4 1.1,-0.1 1.1,-0.7 0.7,-1.7 -1.2,-3.3 -0.9,-6.6 0,-10.1 2.5,4.7 4.8,9 7,13.2 -2,0.4 -4.2,0.7 -3.7,-2.7 0.4,-2.4 -1.8,-3.3 -3,-5 0.7,3.1 0.7,6.4 2.1,9.1 3.5,6.8 3.8,6.7 2.1,14.6 -0.2,0.7 -0.3,1.4 0.4,1.7 4.8,1.7 0.9,4.5 1.2,7 -2,-1.8 0.3,-3.8 -0.4,-5.5 -2.6,0.3 -0.3,2.8 -2.1,3.2 0,-2.8 -0.5,-5.7 0.2,-8.2 0.7,-2.7 0.8,-4.8 -1.6,-7.5 2.2,10.2 -2.2,18.7 -3.7,28.2 2,-1.8 3.7,-3.4 5.5,-5 1.1,2.3 -2.4,2.8 -1.7,4.8 -0.8,0.9 -2,1.6 -2.1,3 z"
   class="st0" />
		<path
   id="path5320"
   d="m 109.7,151.9 c -2.9,-3.6 -5.3,-6.4 -8,-9.7 10,1.4 19.4,4 29.1,3.8 1.4,0 2.9,0.5 4.3,-0.5 0.7,-0.5 2.2,-1 2.4,0.1 0.1,0.8 0.3,2 -0.5,3.2 -4.1,6.4 -10.7,7 -17.1,8.3 -11.8,2.2 -23.9,3.5 -35,8.6 -3.7,1.7 -7,-0.9 -10.3,-1.8 -8.4,-2.1 -16.8,-4.2 -23.5,-10.3 -1.7,-1.5 -1.5,-2.2 -0.2,-4.1 5.3,-8 13.4,-9.7 21.8,-10.3 7.4,-0.6 14.8,-0.6 22.2,0.9 2.4,0.5 4.2,1 5.8,3.7 1.7,3.1 5.5,5.1 9,8.1 z"
   class="st0" />
		<path
   id="path5322"
   d="m 199,150.4 c 3,-2.7 6.2,-5.1 8.7,-8.2 0.9,-1.1 1.1,-2 2.8,-2.4 13.4,-2.8 26.7,-3.6 39.7,2.1 3.7,1.6 5.4,5 8,7.7 1.5,1.6 -0.3,1.9 -0.9,2.6 -4.2,5.2 -10.8,6.2 -16.4,8.8 -4.4,2 -9.4,2 -13.9,3.9 -1.2,0.5 -2.8,0.2 -4.3,-0.5 -8.9,-4 -18.4,-5.6 -27.9,-7.2 -4.6,-0.8 -9.2,-2 -13.9,-2.4 -3.4,-0.2 -5.4,-3.4 -6.3,-6.7 -0.6,-2.1 1.2,-3 2.6,-3 9.7,-0.1 19,-2.5 28.8,-3.9 -2.6,3.2 -4.9,6.1 -7.2,8.9 0.1,0.1 0.2,0.2 0.2,0.3 z"
   class="st0" />
		<path
   id="path5324"
   d="m 144.5,137.4 c 3.9,-0.6 6.3,-5.3 11,-3.9 0.6,0.2 0.7,-1.6 0.3,-1.9 -0.5,-0.5 -1.6,-0.2 -2.2,-0.7 -1.6,-1.1 -4.3,3.2 -5,-0.9 -0.5,-3.1 1.4,-5.5 3.4,-7.8 1.7,-1.9 3.7,-0.9 5.7,-1 4.9,-0.2 5.5,3.6 7.5,6.3 1.2,1.7 -0.1,2.4 -0.5,3.5 -0.5,1.5 -1.4,0.3 -2.3,0.1 -2.2,-0.4 -4.6,-1.2 -5.9,2.6 4.8,-2 7.8,1.4 12.1,3.4 -0.7,-1.3 -1.1,-2.1 -1.7,-3.3 1.5,0.5 3.1,-0.2 3.3,2.3 0.2,3.4 -2.2,1 -3.2,1.5 -1.1,0.5 -2.5,0.1 -4,0.1 0.9,1.7 2.4,0.5 3.3,1.4 -0.7,1.4 -2.4,0 -3.2,1 2.1,1.4 4.2,1.3 6.7,-0.5 -0.2,2.8 -2.8,2.2 -3.6,3.7 1.8,1.8 6.2,-2.3 6.7,4.1 -2.2,-3 -4.4,-2.8 -7,-2.5 1.5,1.2 3.9,2 3.4,3.4 -0.5,1.3 -2.9,1.6 -4.7,1.5 -1.4,-0.1 -2.9,-0.5 -4.3,0.4 1.1,0.9 2.3,0.3 3.4,0.5 1.3,0.3 3.8,-1.2 3.1,2.3 -0.3,1.5 1,2.4 2.5,0.8 1,-1.1 2.1,-2 3.5,-2.9 -1.6,3.8 -0.7,8.4 -4.4,11.5 0.7,-2.1 1.5,-4.2 2.2,-6.4 -4.2,-2.3 -3.2,2.9 -5.3,3.7 -1.3,0.5 -1.6,4.2 -3.9,1.1 -0.1,-0.2 -1.1,0 -1.2,0.2 -2.7,6.9 -8.7,2.2 -13,3.3 -2.9,0.7 -3.5,-2.7 -2.2,-5.6 -2.3,0.7 -2,2.4 -2.7,3.7 -0.1,-2.8 -1.3,-4.8 -3.4,-6.1 1.4,-2 3.2,1.8 3.8,-0.4 0.5,-2.3 -3.3,-1.4 -3.8,-3.5 1.1,-1.4 3.3,1.9 4.1,-1.1 0.5,-2 0.9,-3.4 -1.9,-3.3 0.6,-1.6 -0.6,-3.4 0.6,-5.1 1.2,-1.8 1.9,-4 2.8,-6.1 0.2,0.5 0,0.6 0,0.6 z"
   class="st0" />
		<path
   id="path5326"
   d="m 208.2,179 c -6.8,0.6 -13.1,-1.6 -19.2,-5 -2.1,-1.2 -4.1,-2.4 -5.1,-4.8 -1.6,-3.9 -5.6,-3.9 -8.7,-5.3 -0.7,-0.3 -3.3,0.1 -1.8,-2 1.4,-2.1 -0.5,-6.9 4.8,-5.9 6.9,1.4 13.9,2.6 20.9,4 5.2,1 10.4,2.2 15.6,3.3 4.7,1 7.8,4.4 11.2,7.4 1.9,1.7 4,4.1 -1.3,5.6 -5.3,1.4 -10.5,2.9 -16.4,2.7 z"
   class="st0" />
		<path
   id="path5328"
   d="m 135.7,153.5 c 0.5,5.6 -0.3,9.4 -5.5,11.9 -7.2,3.4 -12.9,9.5 -20.8,11.9 -10.2,3.1 -19.9,1.6 -29.6,-1.4 -1.5,-0.5 -2.1,-1.3 -1.1,-3.4 2.1,-4.2 6.1,-5.1 9.8,-6.5 10.3,-3.9 21.2,-5.3 32,-7.1 5.2,-0.8 10.6,-1.2 15.2,-5.4 z"
   class="st0" />
		<path
   id="path5330"
   d="m 138.5,162.9 c 10.1,6.6 20,5 29.8,2.4 -0.9,4.2 -1.8,5.4 -7.6,5.2 -4.4,-0.2 -8.9,0.2 -13.4,-0.3 -4.7,-0.5 -6.6,-3.1 -8.8,-7.3 z"
   class="st0" />
		<path
   id="path5332"
   d="m 176.4,186.2 c 3.4,-0.1 4.6,1.6 5.5,3.4 2.3,4.9 4.6,9.9 7.7,14.4 0.8,1.2 2.5,2.6 0.9,3.6 -1.7,1.1 -3.4,0.5 -4.6,-1.9 -1.9,-3.7 -3.7,-7.5 -4.7,-11.5 -0.8,-3 -1.6,-5.7 -4.8,-8 z"
   class="st0" />
		<path
   id="path5334"
   d="m 128.4,186.1 c -1.3,6.7 -3.1,13.2 -6.4,19.2 -1,1.8 -2.8,2.3 -4.2,1.5 -1.8,-1 -0.5,-2.4 0.4,-3.6 4,-5.3 6.1,-11.7 10.2,-17.1 z"
   class="st0" />
		<path
   id="path5336"
   d="m 117.7,209.5 c -0.1,2.1 -7.8,11.3 -9.7,12.1 -0.9,0.4 -1.5,0.5 -2.2,-0.2 -0.8,-0.8 -0.9,-1.4 -0.3,-2.5 2.4,-4.1 6.3,-6.7 9.3,-10.2 0.9,-1 1.3,0.3 2,0.4 0.4,0 0.7,0.3 0.9,0.4 z"
   class="st0" />
		<path
   id="path5338"
   d="m 203,221.2 c -0.8,1.5 -1.4,2.1 -3.6,1 -4.8,-2.5 -5.9,-7.6 -8.8,-11.3 -0.9,-1.1 1.2,-1.2 1.7,-1.4 1.2,-0.4 10.7,10 10.7,11.7 z"
   class="st0" />
		<path
   id="path5340"
   d="m 116.8,106.5 c 1,0.9 1.8,1.5 2.4,2.2 1.6,1.8 3.6,3.6 4.4,5.7 0.5,1.5 4.2,2.7 1.5,4.7 -1.8,1.3 -2.7,-1.5 -3.8,-2.5 -2.2,-1.9 -4.2,-4.2 -6.2,-6.4 -0.4,-0.5 -0.8,-1.8 -0.6,-2 0.6,-0.5 1.7,-0.5 2.3,-1.7 z"
   class="st0" />
		<path
   id="path5342"
   d="m 189.5,119.9 c -0.7,-0.8 -2.2,-1.3 -1.1,-2.7 2.5,-2.9 4.1,-6.5 7,-9.2 1.7,-1.6 2.8,-0.4 3.8,0.2 1.2,0.8 -0.1,2.1 -0.6,2.6 -2.5,2.8 -5.3,5.4 -8,8.1 -0.3,0.3 -0.7,0.6 -1.1,1 z"
   class="st0" />
		<path
   id="path5344"
   d="m 204.1,194.9 c -6.6,-0.3 -9.9,-3.9 -13.2,-7.4 -0.4,-0.4 -1.2,-0.8 -0.4,-1.5 0.3,-0.3 1,-0.7 1.1,-0.7 3.6,3.4 8.5,5 12.5,9.6 z"
   class="st0" />
		<path
   id="path5346"
   d="m 104.2,193.8 c 3.5,-4.8 8.7,-6 12.1,-9.5 0.1,-0.1 0.8,0.4 1.1,0.7 0.8,0.7 0,1.1 -0.4,1.5 -3.2,3.5 -6.5,7 -12.8,7.3 z"
   class="st0" />
		<path
   id="path5348"
   d="m 177.7,172 c 3.8,3.6 7.6,7.3 11.3,11 0.2,0.2 1.5,1.2 0.4,1.8 -0.5,0.3 -1.8,0.2 -2.2,-0.3 -2.1,-1.9 -4.3,-3.7 -5.8,-6 -1.4,-2.1 -2.4,-4.3 -3.7,-6.5 z"
   class="st0" />
		<path
   id="path5350"
   d="m 118.7,184 c 2.3,-5.5 7.1,-8.7 11,-12.7 -2.4,5.4 -5.3,10.2 -11,12.7 z"
   class="st0" />
		<path
   id="path5352"
   d="m 178.8,167.5 c -1.3,0.8 -2.6,1.7 -4,2.5 -1.1,0.7 -2.6,1.8 -3.4,0.5 -0.7,-1 -0.5,-2.9 0,-4.2 0.5,-1.4 1.6,-1.7 3.2,-0.6 1.1,0.9 3.3,-0.3 4.2,1.8 z"
   class="st0" />
		<path
   id="path5354"
   d="m 148,125.5 c -1.5,1.2 -2.2,3.5 -4.5,3.4 -1.1,-0.1 -2.1,-1 -3.1,-1.6 1,-1.8 1.6,-4.1 4.1,-4.3 1.7,-0.2 2.3,1.6 3.5,2.5 z"
   class="st0" />
		<path
   id="path5356"
   d="m 169.9,123 c 2.2,0.4 2.9,2.5 3.7,4.4 0,0.1 -1.9,1.4 -3,1.5 -2.2,0.1 -3,-2.2 -4.4,-3.5 1,-0.9 1.6,-2.5 3.7,-2.4 z"
   class="st0" />
		<path
   id="path5358"
   d="m 181.2,131 c 1.2,-3.4 3,-6 4.9,-8.5 0.4,-0.5 0.7,-1.6 1.8,-1 1.4,0.7 0.6,1.6 0.1,2.4 -1.6,2.8 -2,6.6 -6.8,7.1 z"
   class="st0" />
		<path
   id="path5360"
   d="m 133.2,130.8 c -6.2,0 -5.3,-5.7 -8,-8.2 0,0 0.5,-0.8 0.8,-1.1 1,-0.7 1.4,0.5 1.8,0.9 1.8,2.7 3.5,5.4 5.4,8.4 z"
   class="st0" />
		<path
   id="path5362"
   d="m 135.9,164.1 c -0.1,2 0.3,3.8 1.4,5.7 -2.7,0 -6.1,1.5 -6.8,-1.2 -0.6,-2.5 3.3,-3 5.4,-4.5 z"
   class="st0" />
		<path
   id="path5364"
   d="m 139.1,176.2 c -0.3,4.7 -5.1,4.8 -6.6,7.7 -0.4,-0.3 -0.8,-0.6 -1.1,-0.9 -0.6,-0.8 -0.3,-1.4 0.3,-2.2 1.9,-2.2 4.3,-3.5 7.4,-4.6 z"
   class="st0" />
		<path
   id="path5366"
   d="m 177.3,184 c -4.7,0.1 -5.7,-3.7 -8.1,-5.7 2.9,1.1 5.5,2.7 8.1,5.7 z"
   class="st0" />
		<path
   id="path5368"
   d="m 173.9,137.1 c 1.9,-1.6 3.8,-3.3 6.4,-5.5 -1.2,3.9 -3.5,5 -6.4,5.5 z"
   class="st0" />
		<path
   id="path5370"
   d="m 133.4,131.3 c 3.1,2.3 4.4,4.5 6.8,5.6 -3.8,-0.4 -3.8,-0.4 -6.8,-5.6 z"
   class="st0" />
		<path
   id="path5372"
   d="m 167.2,132.6 c 1.4,-2.3 3.1,-3.3 5.8,-2.2 -2.2,0.4 -2.9,3.5 -5.8,2.2 z"
   class="st0" />
		<path
   id="path5374"
   d="m 146.8,132.6 c -3,1.4 -3.4,-2.1 -5.5,-1.9 3.2,-0.6 3.2,-0.6 5.5,1.9 z"
   class="st0" />
		<path
   id="path5376"
   d="m 163.9,225 c -0.6,-0.2 -1.1,-0.4 -1.7,-0.6 1,-1.2 1.9,-2.7 3.8,-2.6 0,1.6 -0.7,2.7 -2.1,3.2 z"
   class="st1" />
		<path
   id="path5378"
   d="m 144.7,137.3 c -3,-3.5 0.9,-2.3 2.1,-2.9 -0.8,1 -1.5,2 -2.1,2.9 -0.2,0.1 0,0 0,0 z"
   class="st0" />
		<path
   id="path5380"
   d="m 158,177.5 c 1.5,1.1 2.1,2.4 2,4 -0.1,2.6 -0.4,4.9 3.4,6 1.2,0.3 1.4,5.2 1.5,8 0.2,4.7 0.5,9.5 -1.8,14.7 -0.5,-7.5 1.8,-14.4 -0.8,-21.5 -2.3,3.5 -3.2,0.1 -4.9,-0.6 -2.3,-1 -5.3,1.1 -7.2,-1.6 2.9,0 7,1.1 8.3,-0.3 1.8,-1.8 0.5,-5.7 -0.5,-8.7 z"
   class="st1" />
		<path
   id="path5382"
   d="m 153.8,230.4 c 0.7,2.5 -0.1,5 -0.4,7.7 -1.8,-0.9 -3.3,-1.8 -3.3,-4 3,0.6 0.9,-3.9 3.7,-3.7 z"
   class="st1" />
		<path
   id="path5384"
   d="m 161.5,207.2 c -0.5,-2 -0.9,-3.4 -1.3,-4.8 0.4,-0.1 1.2,-0.4 1.3,-0.3 0.8,1.5 0.6,3 0,5.1 z"
   class="st1" />
		<path
   id="path5386"
   d="m 140.9,202.7 c 2.2,1.5 3.2,2.9 1.7,5.6 -0.7,-2.1 -1.1,-3.5 -1.7,-5.6 z"
   class="st1" />
		<path
   id="path5388"
   d="m 129.4,150.1 c 1.3,-3.1 4.1,-1.9 6.1,-3.1 -1.2,3.4 -4.5,0.8 -6.1,3.1 z"
   class="st1" />
		<path
   id="path5390"
   d="m 114.8,149.5 c 2.7,-0.7 4.7,-0.7 7.4,0 -2.7,0.7 -4.7,0.7 -7.4,0 z"
   class="st1" />
		<path
   id="path5392"
   d="m 91.5,146.9 c -2.8,0.2 -3.2,-1.5 -4.9,-2.7 2.8,-0.3 3.1,1.5 4.9,2.7 z"
   class="st1" />
		<path
   id="path5394"
   d="m 186.6,148.5 c 2,-0.5 4,-0.8 6.3,0.1 -2.3,0.7 -4.3,0.5 -6.3,-0.1 z"
   class="st1" />
		<path
   id="path5396"
   d="m 216.7,146.5 c 1.3,-2.1 2,-3.2 3.8,-3.5 -0.1,1.8 -1.3,2.5 -3.8,3.5 z"
   class="st1" />
		<path
   id="path5398"
   d="m 164.3,158 c -1.2,1.2 -2.5,1.2 -4.9,0.2 2.3,-0.1 3.6,-0.1 4.9,-0.2 z"
   class="st1" />
		<path
   id="path5400"
   d="m 156.7,141.4 c 2.3,-0.4 3.6,-0.8 5,0.2 -1.5,0.6 -2.8,0.6 -5,-0.2 z"
   class="st1" />
	</g>
</g>
</svg>
