<?xml version="1.0" encoding="UTF-8" standalone="no"?>
<svg
   xmlns:dc="http://purl.org/dc/elements/1.1/"
   xmlns:cc="http://creativecommons.org/ns#"
   xmlns:rdf="http://www.w3.org/1999/02/22-rdf-syntax-ns#"
   xmlns:svg="http://www.w3.org/2000/svg"
   xmlns="http://www.w3.org/2000/svg"
   xmlns:sodipodi="http://sodipodi.sourceforge.net/DTD/sodipodi-0.dtd"
   xmlns:inkscape="http://www.inkscape.org/namespaces/inkscape"
   inkscape:version="1.0 (4035a4f, 2020-05-01)"
   height="293.13138"
   width="215.1451"
   sodipodi:docname="bell.svg"
   xml:space="preserve"
   viewBox="0 0 215.1451 293.13138"
   y="0px"
   x="0px"
   id="Layer_1"
   version="1.1"><metadata
   id="metadata6379"><rdf:RDF><cc:Work
       rdf:about=""><dc:format>image/svg+xml</dc:format><dc:type
         rdf:resource="http://purl.org/dc/dcmitype/StillImage" /><dc:title></dc:title></cc:Work></rdf:RDF></metadata><defs
   id="defs6377" /><sodipodi:namedview
   inkscape:current-layer="Layer_1"
   inkscape:window-maximized="0"
   inkscape:window-y="25"
   inkscape:window-x="0"
   inkscape:cy="165.97539"
   inkscape:cx="107.84357"
   inkscape:zoom="2.52"
   fit-margin-bottom="0"
   fit-margin-right="0"
   fit-margin-left="0"
   fit-margin-top="0"
   showgrid="false"
   id="namedview6375"
   inkscape:window-height="480"
   inkscape:window-width="820"
   inkscape:pageshadow="2"
   inkscape:pageopacity="0"
   guidetolerance="10"
   gridtolerance="10"
   objecttolerance="10"
   borderopacity="1"
   bordercolor="#666666"
   pagecolor="#ffffff" />
<style
   id="style5974"
   type="text/css">
  .st0{fill:#FFFFFF;}
  .st1{fill:#000000;}
</style>
<g
   transform="translate(-42.156433,-34.024606)"
   id="g6372">
	<g
   id="g6370">
		<path
   id="path5976"
   d="M 118.1,101.7 C 110.8,98.2 102.4,98 97.2,91.5 93.5,86.9 89,83 87.8,76.5 c -1.2,-6.7 1.3,-11.7 8,-12.6 9.5,-1.3 16.4,-6 20.4,-15 5.2,-11.8 15.1,-15.5 26.8,-11.9 7,2.1 13.6,0.1 19.8,-2.3 6.1,-2.3 16,1.7 17.9,5.6 1.7,3.5 4.4,6.4 4.7,11 0.2,4.4 5.3,5.7 8.8,7.6 2.2,1.2 4.9,1.9 7.3,2 4.3,0.1 8,0.5 10.2,5 2.7,5.4 0.2,9.7 -2.8,13.7 -7.2,9.8 -16.7,16.5 -28.6,19.7 -0.7,0.2 -1.2,0.7 -2.2,1.3 11.1,6.9 19.2,16.3 24.3,28.1 5.1,11.8 9,24 11.8,36.5 2.9,13.2 6.6,26.3 8.8,39.6 2.5,14.9 7.3,28.9 12.4,42.9 4.1,11.4 10.7,21.3 17.1,31.2 10.8,16.5 1.7,28.6 -10.7,36 -7,4.2 -15.1,5.2 -22.9,6.9 -11.7,2.6 -23.6,2.9 -35.4,4.1 -20.9,2.1 -41.9,1 -62.8,0.7 -13.8,-0.2 -27.9,-0.5 -41.5,-3.9 -10.1,-2.5 -20.2,-5.8 -28.5,-12.2 -9.9,-7.7 -11.1,-19.4 -4.1,-30.4 6,-9.4 10,-19.7 14.9,-29.6 9,-18.4 10.9,-38.5 16.4,-57.7 3.8,-13.5 4.2,-27.9 7.5,-41.5 4.5,-18 12.6,-34.4 27.5,-46.5 1.2,-1.1 3.1,-1.8 5.2,-3.1 z"
   class="st1" />
		<path
   id="path5978"
   d="m 54.5,274.7 c 0.6,-9.1 9,-8.2 14.4,-10.6 9.3,-4 19.4,-5.6 29.3,-7.3 0.9,-0.2 1.6,-0.9 2.3,-1.8 -13.8,1.3 -27.1,4.6 -40.3,10.1 1.8,-4.9 6.5,-4.9 9.8,-5.8 3.7,-0.9 6.3,-3.7 9.8,-4.6 -6.2,0.2 -11.4,4.2 -17.3,5 2.1,-2.9 15.7,-8.9 20.8,-9.8 7.8,-1.4 15.6,-3.4 23.2,-5.6 -14.8,0.4 -28.7,4.8 -42.9,10.6 2.2,-5.6 4,-10.9 7.5,-15.5 0.2,-0.3 0.9,-0.4 1.3,-0.4 8.3,0.7 15.6,-4.3 23.7,-4.5 -8.6,-1.4 -16.6,2.6 -25,3.1 7.3,-5.2 16.6,-4.4 24.3,-8.7 -7.3,1.3 -14.6,2.7 -21.9,4 1,-2.8 12.5,-7.3 17.2,-7.3 -3.3,-0.7 -6.5,-1.4 -9.9,0.3 -2.1,1.1 -4.9,2.3 -6.6,1.4 -1.8,-1 0.3,-3.6 0.7,-5.4 2.2,-10.5 4.3,-21.1 7.3,-31.5 3.3,-11.6 3.6,-23.6 6.5,-35.2 2.9,-11.7 7.4,-22.4 13.1,-32.9 8.8,-16.3 24.1,-22.8 40.4,-25.9 14.2,-2.7 28,1.1 39.3,11.5 5.3,4.9 11,9.4 14.2,15.9 5.1,10.2 9.3,20.7 12,31.8 3.6,14.7 7,29.4 10,44.3 2.2,11 4.6,21.9 7.7,32.7 -2.7,1.3 -5,-1.4 -8,-0.6 10.4,2.2 12.1,11 14.8,18.9 1.7,5.1 4,9.7 7.1,14.1 0.8,1.2 2.1,2.6 1.3,4.4 -12.8,-3.8 -25.2,-7.9 -38.5,-9.8 -19.4,-2.7 -38.9,-3.8 -58.2,-2.4 -14.7,1.1 -29.4,1.9 -44.1,3.2 -16.3,1.4 -30.6,7.1 -44.7,14.4 0,0.2 -0.4,0 -0.6,-0.1 z"
   class="st0" />
		<path
   id="path5980"
   d="m 155.2,92.6 c 2.7,-3.8 5.6,-7.3 7.4,-11.6 3,-7.3 6.8,-14.4 5.5,-22.8 -0.5,-3.1 -1.3,-5.6 -4.1,-7.2 -3,-1.7 -5.8,-1.3 -8.1,0.8 -3.1,2.9 -5.9,1.8 -9.2,0.5 -3.8,-1.5 -7.8,-3.8 -11.9,-1.3 -5,3 -5.6,8.1 -4.6,13.1 2,9.7 6,18.4 13.5,25.2 0.9,0.8 2.3,1.5 2.3,3 C 140.1,96 135.4,92 132.4,88.5 125.3,80.4 119.5,71.3 119,59.7 c -0.2,-4.6 -1.9,-9 2,-13.2 5.3,-5.6 10.7,-9.4 19,-6.5 7.8,2.7 15.5,1 22.8,-2 4.9,-2 9.2,-0.8 12.6,2.2 3.8,3.3 6.2,7.8 5.5,13.4 -0.9,7.6 -2.8,14.8 -6,21.6 -3.3,7 -7.9,13.2 -13.8,18.5 5.9,-7.6 9.1,-16.3 11,-25.7 -4.8,8.8 -6.6,19.6 -16.9,24.6 z"
   class="st0" />
		<path
   id="path5982"
   d="m 155.2,301.3 c 7.7,9 7.8,12 1.3,18.8 -6.1,6.5 -9.9,4.1 -14.3,0.5 -6.9,-5.6 -6.7,-7.6 1.5,-18.8 -5.5,2.7 -10.2,3.3 -14.9,1.2 -4,-1.7 -7.3,-4 -7.2,-9 0.1,-4.2 2.2,-7.4 6,-9.1 3.9,-1.8 8.1,-2 11.1,1.6 1.1,1.3 2,1.6 3.2,1.3 2.1,-0.4 1.1,-2.1 1.1,-3.2 0.1,-4.3 0.1,-8.7 0,-13 0,-1.7 0.1,-2.8 2.3,-2.8 2.2,0 2.9,0.7 2.8,2.8 -0.4,5.2 0.2,10.4 2,15.6 0,-5.1 -0.1,-10.2 0,-15.3 0,-1.1 -0.9,-2.9 1.4,-3 2.3,-0.1 1.5,1.8 1.5,2.9 0.1,4.5 0,9 0.1,13.5 0,0.9 -0.5,2.1 0.8,2.5 1,0.3 1.5,-0.7 2,-1.2 4.9,-6 12.8,-6.3 17.8,-0.6 2.7,3 1.7,11.8 -1.6,15.4 -3,3.2 -9.7,3.6 -13.3,0.6 -1.1,-0.7 -2,-1.3 -3.6,-0.7 z"
   class="st0" />
		<path
   id="path5984"
   d="m 47,288.6 c 7.7,-9.8 18.4,-14.8 29.3,-19.7 11.6,-5.2 23.8,-5.7 36,-6.9 20.3,-2 40.6,-2.3 61,-1.8 11.2,0.2 22.4,2.2 33.5,3.5 11.8,1.4 22.5,5.1 33.3,9.2 4.8,1.9 6.8,6.3 10.4,9.2 1.1,0.9 0.3,1.8 -0.5,2.5 -0.7,0.6 -1.4,0.8 -2,-0.3 -2.3,-4.5 -7.5,-4.6 -11.1,-7.2 -2.8,-2.1 -1.4,1.9 -3.2,2 -1.3,-4.9 -5.8,-4.7 -9.8,-6.2 -8.9,-3.4 -18.4,-2.9 -27.4,-5.4 -4.4,-1.2 -9.1,-0.4 -13.7,-1.2 -16.9,-2.9 -34,-0.1 -51,0.1 -6.2,0.1 -12.5,0 -18.7,0.8 -14.2,1.7 -28.8,2.2 -42.2,8 -7.1,3 -13.8,6.7 -19.6,12 -0.9,0.9 -1.8,2.3 -4.3,1.4 z"
   class="st0" />
		<path
   id="path5986"
   d="m 165,62.4 c -1.5,11 -4.9,21 -13.5,28.6 -0.8,0.7 -1.5,1.6 -2.4,0.4 -5.9,-7.2 -13.2,-13.6 -15.3,-23.2 -0.9,-4.2 -3.2,-8.5 0.1,-12.9 1.7,-2.4 3.1,-3.8 6.2,-2.4 2.9,1.3 6,2.4 9.1,3 2.3,0.5 4.9,0.4 7.2,-0.9 6,-3.4 8.7,-1.8 8.7,4.9 -0.1,0.8 -0.1,1.6 -0.1,2.5 z"
   class="st0" />
		<path
   id="path5988"
   d="m 89.9,302.8 c -4.2,0.1 -8.3,0.1 -12.5,0.2 -0.6,0 -1.2,-0.2 -1.8,-0.2 1.1,-2.7 2.1,-5.5 3.4,-8.1 0.6,-1.2 1.6,0.1 1.7,0.6 0.5,1.2 1,3 -0.3,3.6 -1.6,0.7 -1.7,1.8 -1.1,2.6 1.2,1.5 1.8,-0.4 2.7,-0.8 0.6,-0.3 1.4,-0.7 1.8,-0.5 5.1,2.4 10.1,-1.6 15.2,-0.2 1.1,0.3 1.1,-0.9 0.9,-1.7 l -0.1,0.1 c 3.6,1.1 7.3,3.1 11.6,-1.4 -0.8,3.6 -2.1,5.6 -0.8,7.9 3.8,-2.8 7.9,-2.6 11.8,-0.7 3,1.4 6.2,1.6 9.2,2.9 1.4,0.6 3.4,0.5 3.5,2.6 0.2,2.2 -2.1,2.3 -3.3,3.1 -0.6,0.4 -1.5,0.4 -3.6,1 4.1,0.1 6.4,0.8 6.5,4.5 -11.3,-1.2 -22.7,-1.2 -34.1,-0.9 12.7,3.9 26.3,2.6 39.2,5.8 -14.7,0.4 -29.3,0.6 -43.8,-1.9 -6.6,-1.1 -13,-1.6 -18.9,-5.1 -1.6,-0.9 -4.2,-0.2 -6.4,-0.2 -0.9,0 -1.8,-0.3 -2,-1.1 -0.3,-1.3 1.1,-0.5 1.5,-0.9 1.2,-1.4 2.1,-3.1 -0.5,-3.9 -1.3,-0.4 -1.8,-0.8 -1.5,-1.9 0.6,-2 1.8,-0.1 2.6,0 1.7,0.1 3.2,1.2 5.1,0.9 -0.6,2 -4,-0.7 -3.4,3 0.5,2.6 1.2,3.2 3.8,3.1 5.4,-0.4 10.8,1.4 15.4,3.6 3.3,1.5 3,-3.6 5.4,-1.9 -4.9,-1.3 -9.8,-2.5 -14.7,-3.7 -0.9,-0.2 -1.9,-0.1 -2.7,-1 -1,-1.1 -0.4,-1.8 0.4,-2.5 0.7,-0.6 1.6,-1 1.9,0.1 1.3,4.7 2.8,2.2 4.1,0.1 0.9,-1.3 1.9,-1.1 2.9,-0.4 1.7,1.1 3.5,0.2 5.6,0.7 -3.1,-4.1 -7.3,-3.1 -11.1,-3.2 -0.9,0 -2.4,0.4 -2.2,-1 0.2,-1.7 1.3,-0.6 2.2,-0.3 2,0.9 4.1,-0.5 6.4,0 1.6,0.4 -0.3,-1.9 0,-3 4.3,1 8.8,0.6 13.2,0.8 -4.6,-0.3 -8.9,-0.1 -13.2,-0.7 z"
   class="st0" />
		<path
   id="path5990"
   d="m 211.1,294.1 c -1.2,-0.4 -2.4,-0.8 -3.7,-1.1 -2.3,-0.4 -1.6,-2.6 -0.9,-2.8 3.4,-1 2.8,-3.7 3,-6.6 -1.5,1.6 -2.6,3.1 -4.1,4.2 -0.8,0.6 -2.5,0.8 -3.2,-0.3 -0.5,-0.9 -0.6,-2.2 1.1,-2.6 1.3,-0.3 1.5,-1.6 2,-2.6 1.1,-2.9 3.9,-3.2 5.4,-1.6 1.3,1.5 1.7,1.6 2.8,0.4 1.3,-1.3 2.9,-1.7 3.7,0 0.6,1.3 0.5,3.8 -1.5,3.9 -2.2,0.2 -0.5,1.6 -1.2,2.1 -1,1 -0.4,1.9 0.5,2.4 1.3,0.8 1.4,-0.6 2,-1.3 2,-2.3 3.1,-5.7 6.7,-6.1 0.7,-0.1 1.6,-1.8 2.2,-0.1 0.4,1 -0.1,2.4 -1,2.5 -3.8,0.7 -5,2.9 -5.8,6.6 -0.6,2.6 -4.7,3.6 -5.2,7 -0.2,1.2 -1.6,2.2 -0.5,3.6 0.2,0.2 0.8,0 1.3,0 -0.7,-2.9 5,0 3.4,-3.8 -0.3,-0.8 -0.4,-2 0.5,-2.9 2,0.1 2.2,2.1 2.2,3.1 0,1.2 -0.7,2 1.2,1.9 1.5,0 2.2,-0.4 2,-2 -0.6,-4.2 3.6,-6.1 4.9,-9.4 0.5,-1.3 2.5,-1.1 3.6,-0.4 1.2,0.8 -0.1,1.6 -0.6,2.3 -0.2,0.3 -0.3,0.7 -0.4,1.1 2.5,0.6 5,1.2 7,3 0.3,-2 3.4,-1.8 3.4,-3.7 -0.1,-2.2 2.4,-2.9 2.6,-2.7 1.4,1.4 0.1,2.9 -0.6,3.9 -4.1,6.1 -4.1,6.1 -11.1,1.1 -0.9,-0.6 -2.7,-0.3 -2.5,0.2 1.3,4 -5.3,-1.7 -3.5,3 0.6,1.6 0,3.9 -0.8,5.5 -0.7,1.4 -2.8,2.1 -4.3,0.9 -0.9,-0.8 -1.5,-2.8 -2.7,-1.8 -1.3,1.2 -3,2.9 -2,5.2 1.2,2.7 -1.8,2.5 -2.1,2.3 -5.5,-2.7 -10,2.9 -15.2,1.6 3.9,2.2 7.6,-0.9 11.6,0.1 1.5,0.4 3.3,-1.1 4.4,1.3 0.3,0.7 2.2,0.3 2.1,0.1 -0.5,-2 3.7,-1.3 2.1,-3.6 -1.2,-1.7 0.4,-3.2 1,-2.9 3.3,1.7 8.1,-1.9 10.4,2.8 -0.3,2 -4.9,-2.2 -3.2,2.5 0.1,0.2 -0.9,0.8 -1.4,1.2 -0.4,-0.7 -0.9,-1.3 -1.3,-2 -0.4,-0.9 0.8,-3.1 -1.6,-2.4 -1.2,0.3 -3.7,0.7 -1.7,3.2 0.7,0.9 -0.3,1.3 -1.2,1.5 -3.1,0.6 -6.1,1.8 -9.4,2.1 -13.2,1.1 -26.6,-0.1 -39.5,3.8 -2.4,0.7 -5.3,0.1 -9,0.1 2.6,-1.8 -0.9,-5.4 3.3,-6.1 0.9,-0.2 0.1,-0.5 0,-0.9 -1.9,-4.9 -1.9,-4.3 3.5,-5.1 9.9,-1.5 19.8,-0.7 29.8,-0.8 3.9,-0.1 7.7,0.6 11.6,0.9 1.7,0.1 2.9,-0.8 4.2,-1.7 -0.3,-0.5 -0.4,-0.9 -0.6,-1 -2,-1 -5,1.7 -6,-0.8 -0.6,-1.3 1.4,-3.7 2.1,-5.6 0.3,-0.9 0.2,-1.9 0.3,-2.9 0.5,-0.4 0.9,-0.8 1,-1.4 -0.4,0.6 -0.7,1.1 -1.1,1.6 z"
   class="st0" />
		<path
   id="path5992"
   d="m 183,55 c 6.8,5.7 13.3,8.4 21,8.1 4,-0.1 6.7,5.6 5,9.4 -6.3,14.5 -18.6,21.2 -32.9,25.4 -0.6,0.2 -1.6,0.1 -1.9,-0.3 -0.6,-0.8 0.1,-1.4 0.6,-2.1 2.1,-2.4 4.9,-3.7 7.5,-5.4 4.3,-3 8.1,-6.2 9.9,-11.6 1.3,-3.9 -0.4,-5.4 -3.1,-6.9 -0.8,-0.5 -2,-0.4 -2.7,-0.9 -2.5,-2.1 -6.4,-3.5 -3.6,-8.3 1,-1.5 0.2,-4.1 0.2,-7.4 z"
   class="st0" />
		<path
   id="path5994"
   d="m 99.1,69.1 c 4,2.1 6.9,-1.3 10.2,-2.2 2.1,-0.5 3.9,-2.1 5.9,-3.2 2.4,6.7 2.3,6.9 -3.9,8.2 -3.5,0.8 -7.6,1.4 -8.1,5.6 -0.6,4.4 2.5,7.4 6.3,9.5 5.6,3.2 11.4,6 16.5,10.2 -8.1,3 -22.1,-1.5 -26.9,-8.5 -3,-4.3 -7.7,-7.3 -8.1,-13.4 -0.3,-5 1,-7.8 5.6,-9.1 11.5,-3.1 11.5,-3.1 18.8,-9.8 1,4.7 0.5,5.2 -3.4,7.7 -4,2.5 -8.9,2.4 -12.7,5.2 -2.9,0.7 -4.6,2.3 -4.2,6.3 -0.2,-3.9 1.5,-5.5 4,-6.5 z"
   class="st0" />
		<path
   id="path5996"
   d="m 157.5,324.1 c 2.6,-2.6 4.7,-3 7.1,-3.1 16.3,-1.1 32.7,-2.5 48.9,-4.3 10,-1.1 20.1,-3.8 29,-9.5 0.6,-0.4 1.9,-1.8 2.9,-0.2 0.9,1.5 -0.8,2 -1.4,2.5 -6.7,5.2 -14.9,6.6 -22.8,8.5 -12.9,3.2 -26.1,3.6 -39.1,5.2 -8,0.9 -15.8,0.5 -24.6,0.9 z"
   class="st0" />
		<path
   id="path5998"
   d="m 134.6,94.4 c -5.1,1.8 -4.9,1.6 -9.4,-1.6 -4.3,-3.1 -8.7,-6 -13.7,-8 -1.8,-0.7 -3.5,-1.7 -4.5,-3.6 -1.7,-3.2 -1,-5.3 2.5,-6.2 2.6,-0.7 5.5,-0.5 7.6,-2.6 0.7,-0.7 1.4,-0.5 1.9,0.4 0.7,1.4 1.9,2.6 2.5,4.1 4.3,11.2 7.1,12.4 13.1,17.5 z"
   class="st0" />
		<path
   id="path6000"
   d="m 165,93.5 c 6.1,-5.5 10.1,-12.1 12.9,-19.4 1.4,-3.6 3.4,-3.7 6.2,-2 0.8,0.5 1.5,1.3 2.4,1.8 4.1,2.1 4.7,4.1 1.6,7.5 -2.4,2.6 -5.5,4.5 -8.3,6.8 -2.2,1.7 -4.6,3.2 -6.4,5.2 -2.7,3 -5.2,3.3 -8.4,0.1 z"
   class="st0" />
		<path
   id="path6002"
   d="m 181.6,299.7 c -0.4,-1.2 -3,-1.1 -1.8,-2.5 0.8,-0.9 1.5,-3 3.7,-2.3 1.2,0.4 2.6,-0.2 2.6,1.9 -0.1,4.1 3.1,3.2 5.3,3.1 1.8,-0.1 4.7,1.6 4.8,-2.7 0,-2.5 4.6,-3.7 3,-7.4 -0.4,-0.9 1.2,-0.9 1.9,-0.8 1.4,0.4 2.4,1.5 1.9,2.9 -1.2,3.4 -2.6,6.8 -4,10.2 -0.6,1.5 -2,0.8 -3,0.8 -4.6,0.1 -9.3,0.2 -13.9,0 -1.3,-0.1 -3.7,1.4 -3.9,-1.4 -0.3,-2.7 2.5,-0.7 3.4,-1.8 z"
   class="st0" />
		<path
   id="path6004"
   d="m 208.5,297.2 c -2.4,1.7 -1.7,6 -6,5.9 -1.4,0 -1.8,-1.7 -1.4,-1.8 3.4,-0.8 1.1,-4.4 3,-5.9 0.9,-0.7 1.6,-1.7 3,-1.3 1.7,0.4 0.4,1.9 1.4,3.1 z"
   class="st0" />
		<path
   id="path6006"
   d="m 188.1,288.1 c 0.5,1.3 1.6,2.5 0.3,4 -1.2,1.4 -3.3,1.4 -4,0.8 -1.5,-1.3 -3.5,-1.2 -5.1,-2.4 3.3,0 6,-1.6 9,-2.2 z"
   class="st0" />
		<path
   id="path6008"
   d="m 117,294.3 c -0.1,0.6 -0.2,0.9 -0.2,1.2 -2.9,-1.5 -5,1.7 -7.7,1.1 -0.4,-0.1 -0.9,-0.6 -1,-1.1 -0.3,-1.2 0.7,-1.8 1.4,-2.4 0.7,-0.6 2,-1.9 2.2,-0.5 0.8,3.8 4.7,-1.6 5.3,1.7 z"
   class="st0" />
		<path
   id="path6010"
   d="m 192.8,295.8 c 0.5,2.5 -0.2,3.5 -2.2,3.2 -1.1,-0.2 -3,0.5 -2.6,-1.7 0.3,-1.9 1.6,-3.2 3.6,-3.3 2,-0.1 1.2,1.5 1.2,1.8 z"
   class="st0" />
		<path
   id="path6012"
   d="m 101.2,296.9 c 0.8,-2.2 0.6,-5.3 3.9,-4.8 1.9,0.3 1.1,2.3 0.9,3.3 -0.8,3.4 -3.3,0.5 -4.8,1.5 z"
   class="st0" />
		<path
   id="path6014"
   d="m 193,293 c -1,0 -2.2,0 -1.9,-1.4 0.3,-1.5 0.4,-3.4 2.5,-3.5 1.5,-0.1 2.5,0.9 2.4,2.5 -0.1,1.8 -1.3,2.5 -3,2.4 z"
   class="st0" />
		<path
   id="path6016"
   d="m 99.8,298.2 c -0.7,-0.4 -1.3,-1 -2,-1.1 -1.4,-0.2 -3.2,0.3 -2.7,-2.1 0.3,-1.5 1.5,-1.9 3,-2 2.5,-0.2 1.9,1.6 1.9,2.9 0,0.8 -0.2,1.6 -0.3,2.4 0,0 0.1,-0.1 0.1,-0.1 z"
   class="st0" />
		<path
   id="path6018"
   d="m 193,282 c -0.9,-0.1 -2,0.2 -2,-1.3 0,-1.9 1.4,-3.1 2.8,-3.5 1.4,-0.4 2.3,1 2.2,2.5 -0.1,1.7 -1.3,2.4 -3,2.3 z"
   class="st0" />
		<path
   id="path6020"
   d="m 160.3,277.6 c 0.6,-2.2 0.4,-5 3.4,-5.3 0.7,-0.1 2.2,1 2.2,1.4 -0.5,3.1 -3.9,2.4 -5.6,3.9 z"
   class="st0" />
		<path
   id="path6022"
   d="m 171.4,281.8 c -1,-1.9 -2.2,-3.6 -0.8,-6 1.4,0.7 4,1.3 4.1,2.1 0.2,1.8 -1.9,2.7 -3.3,3.9 z"
   class="st0" />
		<path
   id="path6024"
   d="m 224.7,275.9 c -3.9,-0.5 -2.8,3.5 -5,4 -0.7,0.2 -2.2,-1.5 -1.6,-2 1.3,-1.2 1.1,-4.1 3.8,-3.8 0.7,0.1 1.3,0.8 2.8,1.8 z"
   class="st0" />
		<path
   id="path6026"
   d="m 188.3,288.2 c 0.2,-1.5 -3.3,-1.7 -1.2,-3.8 0.9,-1 1.9,-1.9 3.3,-1.3 0.6,0.2 1,0.8 1.5,1.2 -1.5,1 -1.3,3.7 -3.7,3.7 -0.1,0.1 0.1,0.2 0.1,0.2 z"
   class="st0" />
		<path
   id="path6028"
   d="m 199.7,282 c -1.2,-0.2 -3.2,0.4 -2.6,-1.7 0.5,-1.7 2.8,-0.1 4.1,-1.2 0.7,-0.6 1.9,0 1.8,1.4 -0.2,2.5 -2.2,1 -3.3,1.5 z"
   class="st0" />
		<path
   id="path6030"
   d="m 113.9,296.4 c 1.3,2 2.3,3.4 3.3,4.8 -1.4,1.1 -3.1,1.3 -3.7,0.3 -1,-1.3 -0.8,-3.1 0.4,-5.1 z"
   class="st0" />
		<path
   id="path6032"
   d="m 177.1,281.1 c 0.4,0 -0.2,-0.4 -0.1,-1.5 0.1,-1.5 0.6,-2.9 1.9,-3.5 0.9,-0.4 2.1,0.9 1.9,1.7 -0.3,1.2 -0.3,3.1 -3.7,3.3 z"
   class="st0" />
		<path
   id="path6034"
   d="m 100.6,288 c 1,0.1 2.4,-0.4 2.4,1.4 0,2.3 -1.7,1.4 -2.8,1.5 -1.2,0.1 -2.3,0.1 -2.2,-1.7 0.2,-1.7 1.6,-1 2.6,-1.2 z"
   class="st0" />
		<path
   id="path6036"
   d="m 206.7,273 c 0.7,2.6 0.5,5.1 -0.8,5.8 -1.8,1 -3.3,-2 -1.6,-3.3 0.7,-0.7 1.7,-1.1 2.4,-2.5 z"
   class="st0" />
		<path
   id="path6038"
   d="m 93.1,293.4 c -0.2,2.8 -1.5,3.7 -2.8,4.3 -0.3,0.1 -1.4,-1.1 -1.4,-2.3 0,-1.9 1.8,-1.6 2.7,-2.3 0.8,-0.5 1.5,0.4 1.5,0.3 z"
   class="st0" />
		<path
   id="path6040"
   d="m 179,273.7 c -0.3,1.8 -2,1.2 -2.6,2.2 -0.5,-1.1 -2.6,-0.4 -2.4,-2 0.2,-1.2 1.1,-1.9 2.5,-1.9 1.5,0 1.9,1.1 2.5,1.7 z"
   class="st0" />
		<path
   id="path6042"
   d="m 84.9,298 c -1,0 -1.8,0.1 -1.9,-1.1 -0.1,-1.5 0.6,-2.5 2,-2.8 0.9,-0.2 2,-0.2 2,1.3 0,1.5 -0.8,2.3 -2.1,2.6 z"
   class="st0" />
		<path
   id="path6044"
   d="m 103,279.7 c -0.5,1.7 -1.5,2.3 -3,2.3 -1,-0.1 -1.9,0.2 -2.1,-1.3 -0.1,-1.8 1,-1.8 2.2,-1.7 1.1,0.1 2.3,-0.3 2.9,0.7 z"
   class="st0" />
		<path
   id="path6046"
   d="m 105.1,289.4 c -0.2,-1.8 1.5,-1.4 2.3,-2 1.2,-0.9 1.7,0 1.6,1.2 -0.1,1 0.6,2.4 -1.3,2.5 -1.4,0 -2,-0.9 -2.6,-1.7 z"
   class="st0" />
		<path
   id="path6048"
   d="m 203.7,270.8 c -0.9,0.7 -0.4,2.5 -2.2,2.3 -1.3,-0.2 -2.4,-0.8 -2.3,-2.1 0,-1.4 1.8,-0.9 2.5,-1.7 0.3,0.8 1.9,0.2 2,1.5 z"
   class="st0" />
		<path
   id="path6050"
   d="m 114,286 c 1.2,0.4 1.9,1.1 2,2.4 0.1,1.3 -0.6,1.7 -1.7,1.6 -0.8,-0.1 -2.3,0.4 -2.1,-1 0.1,-1 0.5,-2.4 1.8,-3 z"
   class="st0" />
		<path
   id="path6052"
   d="m 105.3,282 c 0.5,1.5 1.9,3.3 -0.6,3.9 -0.8,0.2 -2.3,0.5 -2.5,-0.6 -0.3,-1.9 1.8,-2.3 3.1,-3.3 z"
   class="st0" />
		<path
   id="path6054"
   d="m 90,279 c 1,0.3 1.3,1 0.8,1.5 -1.1,1.3 -2,3.1 -3.9,3.4 -0.9,0.2 -1,-1.1 -0.8,-1.4 1.2,-1.3 2.6,-2.4 3.9,-3.5 z"
   class="st0" />
		<path
   id="path6056"
   d="m 190,276 c -1,0 -1.9,0 -2,-1.4 -0.1,-1.8 1.2,-1.5 2.3,-1.6 1.2,-0.1 1.8,0.4 1.7,1.7 -0.1,1.4 -1.1,1.3 -2,1.3 z"
   class="st0" />
		<path
   id="path6058"
   d="m 73.1,294.8 c -0.5,2.2 0.9,4 -1.2,5.2 -0.4,0.2 -1.6,-0.1 -1.7,-0.4 -0.7,-2.3 0.9,-3.3 2.9,-4.8 z"
   class="st0" />
		<path
   id="path6060"
   d="m 182.4,271 c 2,1.7 1.8,3.3 1,4.8 0,0.1 -1.2,-0.2 -1.7,-0.6 -1.9,-1.7 0.7,-2.6 0.7,-4.2 z"
   class="st0" />
		<path
   id="path6062"
   d="m 67.5,290.8 c -2.1,0 -3.6,0 -5,0 2.2,-3.1 2.2,-3.1 5,0 z"
   class="st0" />
		<path
   id="path6064"
   d="m 86.4,276 c 0.4,-2.3 1.3,-3.5 3.4,-3 1.8,0.4 1.5,1.1 -0.8,2 -0.4,0.2 -0.8,0.5 -1.2,0.7 -0.3,0.2 -0.7,0.2 -1.4,0.3 z"
   class="st0" />
		<path
   id="path6066"
   d="m 129,279.7 c 0.1,1.6 -0.1,2.5 -1.2,2.2 -0.9,-0.2 -1.7,-1 -1.7,-2.1 0,-0.7 -0.2,-1.8 0.9,-1.8 1.2,0.2 1.9,1.1 2,1.7 z"
   class="st0" />
		<path
   id="path6068"
   d="m 83,291.4 c 0.1,1.1 -0.3,1.7 -1.6,1.6 -1,-0.1 -1.4,-0.4 -1.4,-1.4 0,-1.2 0.6,-2.2 1.4,-2.3 0.8,-0.1 1.6,0.9 1.6,2.1 z"
   class="st0" />
		<path
   id="path6070"
   d="m 199.8,275.3 c -0.4,1.2 -1.2,1.8 -2.4,1.7 -0.4,-0.1 -1.6,0 -0.8,-0.9 0.9,-0.9 -0.5,-3 1.6,-3 1.2,0 0.6,1.7 1.6,2.2 z"
   class="st0" />
		<path
   id="path6072"
   d="m 97.1,283 c 1,0 2,-0.1 1.8,1.1 -0.1,1 -0.9,1.7 -2,1.8 -0.7,0.1 -1.8,0.3 -1.9,-0.8 0.1,-1.3 1.1,-1.9 2.1,-2.1 z"
   class="st0" />
		<path
   id="path6074"
   d="m 199,285.4 c 0,0.9 0,1.6 -1.2,1.6 -1.3,0.1 -2.2,-0.5 -2.5,-1.6 -0.1,-0.3 1.1,-1.1 1.8,-1.3 0.9,-0.3 2,-0.3 1.9,1.3 z"
   class="st0" />
		<path
   id="path6076"
   d="m 123,269.5 c 1.4,-0.4 0.9,0.8 0.9,1.4 0,0.9 0.3,2.2 -1.2,2 -0.6,-0.1 -1.5,-0.9 -1.6,-1.6 -0.4,-1.5 1.2,-1.2 1.9,-1.8 z"
   class="st0" />
		<path
   id="path6078"
   d="m 232,301.6 c 0,1 -0.5,1.4 -1.5,1.4 -1.4,0 -1.5,-0.8 -1.5,-1.9 0.1,-1.2 0.9,-1.1 1.7,-1.1 1.1,0 1.4,0.7 1.3,1.6 z"
   class="st0" />
		<path
   id="path6080"
   d="m 66.3,300.9 c -1.6,-2.2 -1.7,-3.6 -0.7,-4.8 0.3,-0.3 1.2,0.1 1.9,0.1 -0.3,1.3 -0.6,2.6 -1.2,4.7 z"
   class="st0" />
		<path
   id="path6082"
   d="m 117.6,285 c -0.9,0.1 -1.6,-0.2 -1.6,-1.2 0,-0.8 0,-1.6 1.1,-1.7 1.1,-0.1 1.9,0.1 1.9,1.5 0,0.9 -0.4,1.4 -1.4,1.4 z"
   class="st0" />
		<path
   id="path6084"
   d="m 79,278.1 c 0.2,1.6 -0.6,2.4 -1.8,2.8 -0.7,0.3 -1.1,-0.3 -1.2,-1.1 -0.3,-1.7 1,-1.7 2,-2.2 1,-0.6 0.9,0.2 1,0.5 z"
   class="st0" />
		<path
   id="path6086"
   d="m 60.2,305.4 c 1.7,-0.9 2.9,-0.2 3.7,1.3 0.2,0.3 -0.2,1.2 -0.4,1.2 -1.8,0.1 -2.4,-1.4 -3.3,-2.5 z"
   class="st0" />
		<path
   id="path6088"
   d="m 185.9,278 c 0.8,0 1.1,0.5 1.1,1.2 0.1,1.1 -0.2,1.9 -1.6,1.7 -0.6,-0.1 -1.4,0 -1.3,-0.9 0.1,-1 0.8,-1.6 1.8,-2 z"
   class="st0" />
		<path
   id="path6090"
   d="m 109.1,283.6 c 0.5,-0.7 0.9,-1.7 2.1,-1.5 0.9,0.1 0.8,0.9 0.8,1.5 0.1,1.4 -0.9,1.5 -1.9,1.4 -0.7,-0.1 -1.2,-0.5 -1,-1.4 z"
   class="st0" />
		<path
   id="path6092"
   d="m 236,285.9 c 0,0.8 -0.5,1.1 -1.2,1.1 -1.2,0.1 -1.9,-0.2 -1.7,-1.6 0.1,-0.6 0,-1.4 0.9,-1.3 1,0.1 1.6,0.8 2,1.8 z"
   class="st0" />
		<path
   id="path6094"
   d="m 78.9,287.1 c 0.2,1.7 -0.5,2 -1.7,1.9 -0.7,0 -1.3,-0.3 -1.2,-1.1 0.2,-1 0.9,-1.7 2,-1.8 1,-0.1 0.9,0.7 0.9,1 z"
   class="st0" />
		<path
   id="path6096"
   d="m 223.6,291.7 c -0.7,1 -0.5,2.7 -2.2,2.3 -0.5,-0.1 -1.5,0.1 -0.8,-0.9 0.5,-0.8 0.3,-2.4 2.1,-2 0.4,0 1.2,-0.1 0.9,0.6 z"
   class="st0" />
		<path
   id="path6098"
   d="m 104.1,276.9 c -0.3,-0.1 -1.1,0.1 -1,-0.9 0.1,-1.1 0.8,-1.7 1.8,-2 0.8,-0.2 1,0.5 1.1,1.2 0.1,1.2 -0.2,2 -1.9,1.7 z"
   class="st0" />
		<path
   id="path6100"
   d="m 60,298.6 c 0.1,1.4 -0.9,1.5 -1.9,1.4 -0.8,-0.1 -1.3,-0.6 -1,-1.2 0.4,-0.9 1,-1.8 2.1,-1.7 0.8,0.1 0.7,0.9 0.8,1.5 z"
   class="st0" />
		<path
   id="path6102"
   d="m 238.9,303 c -1.6,-0.3 -3.1,0.8 -3.8,-0.9 -0.1,-0.4 0.5,-1.4 0.9,-1.5 1.5,-0.4 2.1,0.9 2.9,2.4 z"
   class="st0" />
		<path
   id="path6104"
   d="m 180.9,270.2 c -0.2,0.9 -0.9,0.8 -1.5,0.8 -1,0 -1.5,-0.4 -1.4,-1.5 0.1,-0.9 0.2,-1.7 1.3,-0.8 0.6,0.5 1.8,0.2 1.6,1.5 z"
   class="st0" />
		<path
   id="path6106"
   d="m 158.3,272.7 c -0.1,-1.2 -1,-2.6 0.4,-3.5 0.3,-0.2 1.4,0.4 1.6,0.8 0.6,1.6 -2.1,1.2 -2,2.7 z"
   class="st0" />
		<path
   id="path6108"
   d="m 111.8,271.3 c -1,1.8 -2.1,2.1 -3.4,1.3 -0.2,-0.1 -0.3,-1 -0.2,-1.2 1.1,-0.8 2.3,-0.4 3.6,-0.1 z"
   class="st0" />
		<path
   id="path6110"
   d="m 70,283.3 c 0,0.8 0,1.8 -1.1,1.6 -0.6,-0.1 -1.1,-1 -1.7,-1.5 0.5,-0.4 0.9,-1 1.4,-1.2 1,-0.5 1.3,0.2 1.4,1.1 z"
   class="st0" />
		<path
   id="path6112"
   d="m 92.2,290.7 c 0.8,-1.1 1.3,-2.4 2.8,-2.2 0.3,0 0.9,0.9 0.9,1.1 -0.8,1.2 -1.9,1.8 -3.7,1.1 z"
   class="st0" />
		<path
   id="path6114"
   d="m 182.4,282.2 c 0.2,1.1 2.4,2 0.5,3.4 -0.3,0.3 -1.1,0.5 -1.3,0.3 -1.6,-1.6 0.9,-2.3 0.8,-3.7 z"
   class="st0" />
		<path
   id="path6116"
   d="m 168.8,270.3 c -1.4,-0.8 -3.1,0.2 -4.8,-1 2,-0.3 3.6,-0.8 4.8,1 z"
   class="st0" />
		<path
   id="path6118"
   d="m 213.9,277.5 c -0.5,0.5 -0.9,1 -1.5,1.3 -1.1,0.5 -1.5,-0.3 -1.4,-1.2 0,-0.4 -0.5,-1.5 0.7,-1.2 0.8,0.3 1.5,0.7 2.2,1.1 z"
   class="st0" />
		<path
   id="path6120"
   d="m 113.8,280.9 c -1,-0.4 -0.8,-1.3 -0.7,-2 0.1,-0.8 0.8,-1.2 1.3,-0.8 0.4,0.3 0.5,1.1 0.6,1.7 0,0.8 -0.5,1.2 -1.2,1.1 z"
   class="st0" />
		<path
   id="path6122"
   d="m 84.2,286 c 1,0.1 1.7,0.1 1.7,1 0,1.2 -1,1 -1.8,1 -0.8,0 -1.2,-0.4 -1.1,-1.2 0.2,-0.7 0.9,-0.9 1.2,-0.8 z"
   class="st0" />
		<path
   id="path6124"
   d="m 247,295.5 c 0,0.7 0,1.4 -0.8,1.5 -1.2,0.1 -1.2,-0.8 -1.1,-1.6 0,-0.7 0.2,-1.3 1.1,-1.2 0.7,-0.1 0.8,0.6 0.8,1.3 z"
   class="st0" />
		<path
   id="path6126"
   d="m 107.2,279 c 1,0.1 1.7,0.1 1.7,1 0,1.2 -1,1 -1.8,1 -0.8,0 -1.2,-0.4 -1.1,-1.2 0.2,-0.7 0.9,-0.9 1.2,-0.8 z"
   class="st0" />
		<path
   id="path6128"
   d="m 69.6,304.8 c -0.5,-1.2 -1.8,-2 -1.4,-3.4 0.1,-0.2 1.1,-0.5 1.2,-0.3 0.9,1.1 0.7,2.3 0.2,3.7 z"
   class="st0" />
		<path
   id="path6130"
   d="m 90.8,285 c 1,0.1 1.1,0.7 1.1,1.4 0,0.9 -0.2,1.7 -1.3,1.5 -0.7,-0.1 -0.8,-0.9 -0.7,-1.6 0.1,-0.6 0.3,-1.2 0.9,-1.3 z"
   class="st0" />
		<path
   id="path6132"
   d="m 123.7,274.8 c 0.4,0.4 1,0.7 0.9,0.9 -0.3,0.7 -0.7,1.4 -1,2.1 -0.5,-0.4 -1.4,-1 -1.3,-1.1 0.3,-0.7 0.9,-1.2 1.4,-1.9 z"
   class="st0" />
		<path
   id="path6134"
   d="m 86.9,277.2 c -1,0.9 -1.8,1.6 -2.6,2.3 -0.1,-0.3 -0.2,-0.6 -0.2,-0.9 -0.3,-2 1,-1.6 2.8,-1.4 z"
   class="st0" />
		<path
   id="path6136"
   d="m 87.5,292 c -0.7,0 -1.3,0 -1.4,-0.9 -0.1,-0.8 0.4,-1.2 1.1,-1 0.5,0.2 1.2,0.7 1.4,1.2 0.3,1.1 -0.8,0.4 -1.1,0.7 z"
   class="st0" />
		<path
   id="path6138"
   d="m 59.1,290 c 0.2,0.2 0.8,0.4 0.8,0.7 0.2,0.9 -0.4,1.4 -1.1,1.9 -0.9,0.5 -0.7,-0.4 -0.7,-0.6 -0.1,-0.8 -0.3,-1.7 1,-2 z"
   class="st0" />
		<path
   id="path6140"
   d="m 235,305.2 c 0,1.1 0,1.9 -1.1,1.7 -0.3,0 -0.7,-0.6 -0.8,-0.9 0,-0.9 0.7,-1.4 1.4,-1.7 0.1,0 0.4,0.7 0.5,0.9 z"
   class="st0" />
		<path
   id="path6142"
   d="m 59.7,285.3 c -0.2,1.2 -1.2,1.9 -2.1,2.4 -0.5,0.3 -0.7,-0.6 -0.5,-0.9 0.5,-1 1,-2.2 2.6,-1.5 z"
   class="st0" />
		<path
   id="path6144"
   d="m 213.6,215.5 c -2.7,3.2 -5,6.9 -10.2,4.6 -0.9,-0.4 -1.8,0.5 -2,1.1 -0.4,1.7 1.9,1.3 2.3,2.5 -1.7,0.4 -3.4,0.7 -4.4,-1.1 -0.6,-1 -0.8,-2.6 0.1,-3.3 1.3,-1.1 3.3,-2.3 4.9,-1.2 2.1,1.3 3.9,0.3 4.5,-1 0.9,-2 3.5,-3.7 1.5,-6.6 -4.4,-6.2 -5.5,-7.9 -11.5,-1.7 4,-6 1.8,-10.4 -3.2,-13.6 -1.3,-0.8 -3.4,-0.8 -5.1,0.7 -3.1,2.9 -3.4,6 -0.8,12.7 -0.3,0.1 -0.6,0.3 -0.9,0.2 -1.6,-0.2 -2.4,-3.7 -4,-2 -1.8,1.9 -4.9,3.8 -4.3,6.9 0.5,2.9 3,4.5 5.9,5.1 1.7,0.4 3.7,-0.7 5.1,1.1 0.6,0.7 1.8,1.3 1.3,2.4 -0.4,0.9 -1.2,1.7 -2.3,1.5 -0.7,-0.1 -1.8,0.4 -2,-0.5 -0.1,-0.6 0.8,-1.3 1.5,-2.5 -1.5,0 -2.6,-0.1 -3.6,0 -3.4,0.6 -5.9,-1 -7.3,-3.8 -1.6,-3.2 -1.7,-6.6 1.4,-9.3 2.6,-2.3 4.2,-4.9 5,-8.6 0.7,-3.2 2.8,-7.1 7.3,-7.3 4.5,-0.2 7.4,2.6 9,6.3 1.2,2.9 2.8,4.5 5.7,5.7 5,2.3 6.8,6.3 6.1,11.7 z"
   class="st1" />
		<path
   id="path6146"
   d="m 154.2,205.7 c 1.6,-5 0.1,-9.4 -4.2,-12 -1.9,-1.2 -4,-1.2 -5.8,0.6 -3.6,3.4 -3.7,5.8 -0.4,12.3 -0.3,0.1 -0.5,0.3 -0.8,0.4 -2.2,0.8 -1.3,-4.7 -4.1,-2.2 -2.1,1.8 -5.1,3.7 -4.5,7 0.5,2.9 3,4.6 5.8,5.2 1.4,0.3 3,0.1 4.5,0.1 1.2,0 2.3,-0.2 2.3,1.6 0,1.6 -0.3,3 -2.2,3.3 -0.5,0.1 -1.8,0.1 -1.4,-0.5 2.8,-5 -2,-2.3 -2.7,-2.3 -3.4,-0.1 -6.2,-1 -7.7,-4.1 -1.7,-3.6 -1.2,-6.8 2,-9.6 2.4,-2 3.9,-4.3 4.4,-7.8 0.5,-3.8 3.7,-6.8 7.8,-7.5 3.8,-0.7 6.5,2.1 8,4.8 2.2,3.9 4.6,6.8 8.8,8.8 3.8,1.8 5.6,5.9 3.7,9.6 -1.7,3.5 -4.9,6.5 -9.8,5.1 -1.7,-0.5 -2.9,-0.3 -2,1.9 0.2,0.5 1.3,0.9 0.6,1.5 -0.6,0.4 -1.5,0.4 -2.3,-0.2 -1.5,-1.1 -1.4,-2.7 -0.9,-4 0.6,-1.7 2.3,-1.7 3.8,-1.5 4,0.6 7.3,-1.5 8,-5.1 0.4,-2.2 -4,-7.4 -6.4,-7.9 -2.3,-0.5 -2.6,2.3 -4.5,2.5 z"
   class="st1" />
		<path
   id="path6148"
   d="m 109.3,222.1 c 0.5,1.3 0.9,2.4 1.4,3.7 -0.5,0 -1.2,0.1 -1.4,-0.1 -0.7,-0.9 -1.2,-1.9 -1.9,-2.7 -1,-1 -2.1,-2.3 -1.2,-3.4 1,-1.2 2.6,-0.4 4.1,0 2.1,0.5 4.5,3.1 6.5,0.1 1.5,-2.3 6,-3.1 3.3,-7.5 -2.7,-4.3 -7.1,-6.7 -11.4,-5.3 1.8,-3.4 0.8,-8.6 -2.3,-10.7 -1.6,-1.1 -3.6,-2.1 -5.8,-0.2 -4.5,3.7 -4.7,4.2 -1.7,11 -3.5,-0.3 -5.9,1.6 -8.1,3.9 -2.6,2.7 -3.8,5.5 -0.9,8.4 2.7,2.7 5.7,4.6 9.4,1.2 0.5,-0.5 0.8,-1.6 1.9,-0.8 1.6,1.1 0.8,2.7 0.9,4.1 0.1,1.1 -0.8,1.7 -1.6,2.2 -2.2,-5 -7.3,0.1 -10.5,-3.3 -5.6,-5.8 -5.6,-13.1 3.2,-16.5 2.5,-0.9 2.8,-0.7 1.5,-3.5 -2.1,-4.4 2.7,-6.2 5.2,-8.4 2.8,-2.3 6.5,-2 8.7,0.9 1.5,2 4.4,3.6 3.7,7.1 -0.5,2.3 2.1,2 3.3,2.8 2.7,1.9 6.4,2.7 7.4,6.4 0.9,3.2 0.3,6.2 -2.3,8.5 -2,1.8 -3.8,4.1 -7.2,2.1 -1.2,-0.5 -2.8,0 -4.2,0 z"
   class="st1" />
		<path
   id="path6150"
   d="m 109.2,244.1 c 14.6,-3.3 29.5,-3.5 44.5,-2.1 -14.8,1.3 -29.7,0.3 -44.5,2.1 z"
   class="st1" />
		<path
   id="path6152"
   d="m 103.6,228.8 c 15.6,-3.2 31.2,-4.1 46.9,-3.6 -15.7,1 -31.3,2.3 -46.9,3.6 z"
   class="st1" />
		<path
   id="path6154"
   d="m 193.7,243 c 12.7,1.8 25.1,4.8 37,9.3 -12.3,-3.1 -25,-4.8 -37,-9.3 z"
   class="st1" />
		<path
   id="path6156"
   d="m 231.5,255.6 c -12.2,1 -23.3,-3.9 -34.9,-6.1 12.1,-0.5 23.1,5.4 34.9,6.1 z"
   class="st1" />
		<path
   id="path6158"
   d="m 203.4,255.7 c 10,0.4 19.9,1.8 29,6.7 -9.7,-2.3 -19.4,-4.5 -29,-6.7 z"
   class="st1" />
		<path
   id="path6160"
   d="m 161.5,241.3 c 7.7,0.2 15.5,-1.2 23.1,1.2 -7.8,0 -15.6,1.6 -23.1,-1.2 z"
   class="st1" />
		<path
   id="path6162"
   d="m 76.3,243.3 c 2.7,-3.8 7.2,-2.4 10.8,-3 5.5,-0.9 11.1,-2.2 16.9,-1.1 -9.4,0.4 -18.3,3.9 -27.8,4 z"
   class="st1" />
		<path
   id="path6164"
   d="m 109.6,153.4 c -6.3,2.1 -12.9,2.4 -19.2,4.5 5.8,-4.2 12.3,-5.3 19.2,-4.5 z"
   class="st1" />
		<path
   id="path6166"
   d="m 165.4,135.3 c 6.3,0 12.7,-1.1 19.5,1.2 -7,2.1 -13.2,0 -19.5,-1.2 z"
   class="st1" />
		<path
   id="path6168"
   d="m 163.6,124.5 c 8.9,-2.3 17.9,-2 26.8,1.3 -8.8,-0.6 -17.6,-3.7 -26.8,-1.3 z"
   class="st1" />
		<path
   id="path6170"
   d="m 181.6,252.4 c 5.2,-0.3 10.4,-1.1 15.9,2.3 -6.2,0.8 -11.2,-0.1 -15.9,-2.3 z"
   class="st1" />
		<path
   id="path6172"
   d="m 109.6,159.3 c -6.3,3.4 -13.5,2.8 -20.1,4.6 6.5,-2.7 13.1,-4.4 20.1,-4.6 z"
   class="st1" />
		<path
   id="path6174"
   d="m 111.7,135.8 c -5.2,1.7 -10.3,3.2 -15.3,5.4 1.2,-4.1 5.4,-5.6 15.3,-5.4 z"
   class="st1" />
		<path
   id="path6176"
   d="m 108.4,185.5 c -8.1,0.1 -15.7,3.5 -23.8,3.2 7.8,-1.8 15.6,-4.2 23.8,-3.2 z"
   class="st1" />
		<path
   id="path6178"
   d="m 107.8,173.2 c -6.7,1.2 -13.2,3 -20.2,2.2 6.7,-1.2 13.3,-2.4 20,-3.5 0.1,0.4 0.1,0.8 0.2,1.3 z"
   class="st1" />
		<path
   id="path6180"
   d="m 205.6,191.4 c -7,-2.4 -14.7,0 -21.6,-3.5 7,3.1 14.8,-0.7 21.7,2.7 0.1,0 -0.1,0.5 -0.1,0.8 z"
   class="st1" />
		<path
   id="path6182"
   d="m 208.6,180.5 c -8.2,0.5 -16,-2.7 -24.2,-3 8.4,-1.5 16.2,2.1 24.2,3 z"
   class="st1" />
		<path
   id="path6184"
   d="m 107.5,179.5 c -6.7,0.4 -13.1,2.7 -19.9,3.2 6.5,-2.3 12.9,-4.6 19.9,-3.2 z"
   class="st1" />
		<path
   id="path6186"
   d="m 98.6,132.8 c 4.3,-2.4 8.8,-4 13.9,-3.3 -4.3,2.3 -9.1,2.4 -13.9,3.3 z"
   class="st1" />
		<path
   id="path6188"
   d="m 205.9,185.9 c -3.2,1.7 -6.3,0.1 -9.2,-1 -3.3,-1.2 -6.8,-0.7 -11.3,-1.1 7.9,-2.6 14,2 20.5,2.1 z"
   class="st1" />
		<path
   id="path6190"
   d="m 121.6,116.5 c -4.9,0.3 -8.7,4.5 -14,3.3 7,-3.6 8.7,-4 14,-3.3 z"
   class="st1" />
		<path
   id="path6192"
   d="m 110.5,147.4 c -5.1,1.4 -9.3,3 -14.2,2.5 6.6,-3.2 6.6,-3.2 14.2,-2.5 z"
   class="st1" />
		<path
   id="path6194"
   d="m 176.6,225.7 c -5.7,-0.3 -11.4,-0.6 -18.3,-0.9 7,0 12.7,0 18.4,0 -0.1,0.3 -0.1,0.6 -0.1,0.9 z"
   class="st1" />
		<path
   id="path6196"
   d="m 103.1,125.7 c 4.9,-1.7 9.4,-3.7 15.4,-2.1 -5.7,0.2 -9.8,3.5 -15.4,2.1 z"
   class="st1" />
		<path
   id="path6198"
   d="m 78.4,210.5 c 2.6,-2.2 4.8,-3.7 6.6,-5.6 1.1,-1.2 2.2,-1.2 2.8,-0.4 0.9,1.3 -0.8,1.3 -1.4,1.8 -2.2,1.9 -3.9,4.3 -8,4.2 z"
   class="st1" />
		<path
   id="path6200"
   d="m 103.7,250.5 c -5.9,1 -10.5,1.8 -15.2,2.6 4.3,-2.6 8.9,-3.8 15.2,-2.6 z"
   class="st1" />
		<path
   id="path6202"
   d="m 208.9,228.9 c -4.3,2.6 -8.3,-0.8 -12.5,-0.3 4.2,-0.6 8.4,-1 12.5,0.3 z"
   class="st1" />
		<path
   id="path6204"
   d="m 110.3,165.1 c -5.3,2.3 -10.3,1.6 -14.9,2.6 4.5,-1.9 9,-3 14.9,-2.6 z"
   class="st1" />
		<path
   id="path6206"
   d="m 99.4,142.9 c 4,-0.2 6.7,-2.3 10.2,-1.9 -3.1,3.4 -4.2,3.7 -10.2,1.9 z"
   class="st1" />
		<path
   id="path6208"
   d="m 156.4,212.4 c 3.5,-0.9 2.2,-4 4,-5.4 0.7,1.3 2.3,2.8 2,3.7 -0.6,2 -2.6,2.9 -6,1.7 z"
   class="st1" />
		<path
   id="path6210"
   d="m 99.1,143.3 c -0.3,1.9 -1.2,1.6 -2,1.7 -1.5,0.1 -1.8,2.5 -3.7,1.7 -0.3,-0.1 -0.4,-0.9 -0.4,-1.3 0.4,-2.4 2.9,-1.3 4.2,-2.3 0.3,-0.3 1.2,0.1 1.9,0.2 z"
   class="st1" />
		<path
   id="path6212"
   d="m 198,173.6 c 4.3,-2 7,2.1 10.5,1.9 -3.8,1.3 -6.8,-1.2 -10.5,-1.9 z"
   class="st1" />
		<path
   id="path6214"
   d="m 173.9,129.5 c 4.1,-1.5 7.3,0.8 11.8,0.7 -4.7,1.7 -8,0 -11.8,-0.7 z"
   class="st1" />
		<path
   id="path6216"
   d="m 178.1,118.2 c 3.3,-0.3 6.1,-0.9 7.8,3 -2.6,-1.3 -5.4,-0.8 -7.8,-3 z"
   class="st1" />
		<path
   id="path6218"
   d="m 173.8,112.2 c -4.1,0 -8.1,0 -12.2,0 0,-0.4 0,-0.8 0,-1.2 4,0.9 8.2,-1.7 12,1.4 z"
   class="st1" />
		<path
   id="path6220"
   d="m 168.8,108.4 c -2.1,-0.8 -5,0.6 -6.7,-2.1 2.8,-0.7 5,-0.3 6.7,2.1 z"
   class="st1" />
		<path
   id="path6222"
   d="m 157.2,103.4 c -3.5,1.5 -5.9,-0.7 -8.5,-1 2.7,-0.1 5.5,-1.3 8.5,1 z"
   class="st1" />
		<path
   id="path6224"
   d="m 205,209 c 4.1,3.7 4.1,3.7 -1.9,6 0.7,-2.2 4.4,-3 1.9,-6 z"
   class="st1" />
		<path
   id="path6226"
   d="m 76.2,243.2 c -1.6,2.6 -4.8,2 -6.9,3.3 1.5,-2.8 3.9,-3.7 7.1,-3.2 -0.1,0 -0.2,-0.1 -0.2,-0.1 z"
   class="st1" />
		<path
   id="path6228"
   d="m 93.2,199.5 c -3,1.2 -5.7,-0.4 -8.1,1 2.2,-3.6 4.9,-1.8 8.1,-1 z"
   class="st1" />
		<path
   id="path6230"
   d="m 140.6,214.5 c 1.2,-2.2 2.5,-3.4 4.1,-4.4 -0.3,3.8 -0.3,3.8 -4.1,4.4 z"
   class="st1" />
		<path
   id="path6232"
   d="m 77.3,213.7 c 3.2,-1.1 4.7,-3.1 7.7,-2.5 -1.9,2.4 -4,3.1 -7.7,2.5 z"
   class="st1" />
		<path
   id="path6234"
   d="m 127.6,221.2 c 3.2,0 6.5,0 9.7,0 0,0.2 0,0.3 0,0.5 -3.2,0 -6.5,0 -9.7,0 0,-0.2 0,-0.4 0,-0.5 z"
   class="st1" />
		<path
   id="path6236"
   d="m 113.7,112.9 c 3.6,-2 6.6,-2 9.7,-1.3 -3,-0.3 -5.7,1.6 -9.7,1.3 z"
   class="st1" />
		<path
   id="path6238"
   d="m 189.4,138.5 c 3.6,-1 5.5,0.1 7.6,2 -2.9,1.2 -4.4,-1.3 -7.6,-2 z"
   class="st1" />
		<path
   id="path6240"
   d="m 195.1,203.8 c 1.2,-2.6 -0.4,-4 -2.1,-5.4 4.5,1.5 4.8,2.1 2.1,5.4 z"
   class="st1" />
		<path
   id="path6242"
   d="m 171.9,170.7 c 3.3,-1.5 5.9,-1 8.5,0 -2.6,0 -5.2,0 -8.5,0 z"
   class="st1" />
		<path
   id="path6244"
   d="m 77.8,221.3 c 0.9,-2.6 2.4,-4.4 6.1,-5.1 -2.6,2.1 -4.3,3.6 -6.1,5.1 z"
   class="st1" />
		<path
   id="path6246"
   d="m 176.5,213.2 c -2.4,-0.3 -4.9,3.1 -7.6,0 2.9,0 5.2,0 7.6,0 z"
   class="st1" />
		<path
   id="path6248"
   d="m 184.7,215.7 c 1.8,-1.7 3.1,-2.8 4.4,-4 -0.2,2.6 -0.6,5 -4.4,4 z"
   class="st1" />
		<path
   id="path6250"
   d="m 181.5,152.4 c 3,-0.5 6,-0.7 9,0.1 -3,0.6 -6,0.7 -9,-0.1 z"
   class="st1" />
		<path
   id="path6252"
   d="m 81,255.8 c 0.9,-3.9 3.5,-2.7 5.8,-2.7 -1.6,1.9 -3.7,1.8 -5.8,2.7 z"
   class="st1" />
		<path
   id="path6254"
   d="m 147.5,196.2 c 2,0.9 5,0.8 4.2,5.7 -0.7,-3.6 -3.5,-3.6 -4.2,-5.7 z"
   class="st1" />
		<path
   id="path6256"
   d="m 187.6,227.4 c -2.4,-1.2 -5.4,0.8 -7.5,-1.6 2.2,1.6 5.6,-1.7 7.5,1.6 z"
   class="st1" />
		<path
   id="path6258"
   d="m 213.5,215.5 c 2.5,-3 4.1,0 6.6,1.2 -2.7,0.6 -4.5,-1 -6.6,-1.2 0.1,0 0,0 0,0 z"
   class="st1" />
		<path
   id="path6260"
   d="m 94.8,219.2 c 0.3,-1.1 0.3,-1.8 0.5,-2 1.5,-0.9 1.2,-2.7 2.3,-3.8 0,0 1,0.7 1,0.9 -0.4,1.9 -1.4,3.5 -3.8,4.9 z"
   class="st1" />
		<path
   id="path6262"
   d="m 216.1,235.7 c 1.7,0.8 3.6,0 5.6,0.5 -2.1,2.4 -3.9,1.8 -5.6,-0.5 z"
   class="st1" />
		<path
   id="path6264"
   d="m 212.2,234.7 c -2.3,0 -4.5,0 -7.9,0 3.5,-1.1 5.9,-0.6 7.9,0 z"
   class="st1" />
		<path
   id="path6266"
   d="m 174.7,188.2 c 2.3,0 4.5,0 6.8,0 0,0.2 0,0.3 0,0.5 -2.3,0 -4.6,0 -6.9,0 0,-0.2 0,-0.3 0.1,-0.5 z"
   class="st1" />
		<path
   id="path6268"
   d="m 114.3,215.6 c 0.1,-2 1.5,-3 2.7,-4.2 0.2,0.2 0.7,0.5 0.6,0.7 -0.2,2 -2.1,2.5 -3.3,3.5 z"
   class="st1" />
		<path
   id="path6270"
   d="m 173.6,112.3 c 1.9,-1 3.4,0.2 5.1,1.1 -2.2,1.1 -3.7,0.5 -5,-1.3 0.1,0.1 -0.1,0.2 -0.1,0.2 z"
   class="st1" />
		<path
   id="path6272"
   d="m 187.5,227.4 c 2.3,-0.8 4.7,-0.5 7,0 -2.3,0.5 -4.6,1 -6.9,-0.1 0,0.1 -0.1,0.1 -0.1,0.1 z"
   class="st1" />
		<path
   id="path6274"
   d="m 175.4,221.7 c -2,0 -4,0 -6.7,0 2.7,-1.2 4.7,-0.5 6.7,0 z"
   class="st1" />
		<path
   id="path6276"
   d="m 172.3,199.7 c 1.6,-0.8 3.1,-1 4.6,-0.2 0.1,0.1 -0.1,1.2 -0.3,1.2 -1.7,0.7 -2.5,-1.7 -4.3,-1 z"
   class="st1" />
		<path
   id="path6278"
   d="m 205.1,169.3 c -0.1,-1.7 1.4,-1.3 2.1,-1.7 1.1,-0.6 0.7,0.6 0.8,1 0.2,1.1 -0.5,1.4 -1.4,1.4 -0.7,0 -1.4,0 -1.5,-0.7 z"
   class="st1" />
		<path
   id="path6280"
   d="m 187.2,237.8 c -1.6,0 -3.1,0 -6,0 3,-1.1 4.7,-0.9 6,0 z"
   class="st1" />
		<path
   id="path6282"
   d="m 76.1,223.7 c 1,-1.6 2.1,-2.1 3.6,-1.4 -0.6,1.7 -1.8,2 -3.6,1.4 z"
   class="st1" />
		<path
   id="path6284"
   d="m 104.5,201.5 c -1.7,0.6 -3.2,1 -4.3,-1.1 1.8,-0.9 2.9,1.2 4.3,1.1 z"
   class="st1" />
		<path
   id="path6286"
   d="m 215.7,220.4 c 2.4,-0.5 2.9,0.5 3.2,1.6 0.1,0.2 -0.5,0.9 -0.8,0.9 -1.7,0.1 -0.8,-1.9 -2.4,-2.5 z"
   class="st1" />
		<path
   id="path6288"
   d="m 102,227.9 c -1.2,2.6 -2.9,2.3 -5.2,1.7 2,-0.7 3.4,-1.1 5.2,-1.7 z"
   class="st1" />
		<path
   id="path6290"
   d="m 205.5,191.4 c 2,-0.7 4,-0.6 7.1,0.1 -3.1,0.5 -5.1,1 -7,-0.2 0,0.1 -0.1,0.1 -0.1,0.1 z"
   class="st1" />
		<path
   id="path6292"
   d="m 94.8,193.4 c -1.2,0.5 -2,1.8 -3.4,1.4 -0.2,-0.1 -0.5,-1.1 -0.3,-1.2 1.1,-1 2.3,-0.7 3.7,-0.2 z"
   class="st1" />
		<path
   id="path6294"
   d="m 170.7,117.1 c 1.6,0 3.1,0 4.7,0 0,0.2 0,0.3 0,0.5 -1.6,0 -3.2,0 -4.9,0 0.1,-0.1 0.1,-0.3 0.2,-0.5 z"
   class="st1" />
		<path
   id="path6296"
   d="m 176.8,194.7 c -1.1,0.5 -2.4,0.7 -3.3,0.1 -0.6,-0.4 0.3,-1.1 0.7,-1.4 1.5,-1 2,0.4 2.6,1.3 z"
   class="st1" />
		<path
   id="path6298"
   d="m 169.4,170.3 c -1.6,0.9 -3.3,1 -5.9,0 2.6,0 4.2,0 5.9,0 z"
   class="st1" />
		<path
   id="path6300"
   d="m 176.7,247.1 c 1.6,0 3.1,0 4.7,0 0,0.2 0,0.3 0,0.5 -1.6,0 -3.2,0 -4.9,0 0.1,-0.1 0.1,-0.3 0.2,-0.5 z"
   class="st1" />
		<path
   id="path6302"
   d="m 195.1,233.9 c -2.8,-0.6 -4.3,-0.9 -7.2,-1.6 3.1,-0.2 4.8,-0.9 7.2,1.6 z"
   class="st1" />
		<path
   id="path6304"
   d="m 160.8,106.4 c -1.5,1 -2.8,0.6 -4.4,0.3 1.5,-1.2 2.8,-0.7 4.4,-0.3 z"
   class="st1" />
		<path
   id="path6306"
   d="m 202.2,168 c 1.2,-0.1 1.9,0.1 1.8,1.2 0,0.3 -0.8,0.8 -0.9,0.7 -0.6,-0.4 -1.2,-0.9 -1.7,-1.4 0.2,-0.2 0.6,-0.4 0.8,-0.5 z"
   class="st1" />
		<path
   id="path6308"
   d="m 100.7,233.7 c 2.2,-0.9 3.5,-0.9 5.1,-0.3 -1.5,1 -2.8,0.6 -5.1,0.3 z"
   class="st1" />
		<path
   id="path6310"
   d="m 135.4,105.8 c -2.4,0 -3.7,0 -6.2,0 2.7,-1 4.1,-1.1 6.2,0 z"
   class="st1" />
		<path
   id="path6312"
   d="m 166.6,177 c 1.3,0.1 2.7,0.1 4.9,0.2 -2.3,1 -3.6,1 -4.9,-0.2 z"
   class="st1" />
		<path
   id="path6314"
   d="m 166.1,116 c 1.5,0 1.9,0.3 1.8,1.1 -0.1,0.8 -0.8,0.9 -1.4,0.8 -0.4,-0.1 -1.4,0.4 -1.1,-0.7 0.2,-0.6 0.7,-1.1 0.7,-1.2 z"
   class="st1" />
		<path
   id="path6316"
   d="m 179.2,252.2 c -1.9,1.1 -3.3,0.6 -5.8,0.8 2.5,-1.4 3.8,-0.9 5.8,-0.8 z"
   class="st1" />
		<path
   id="path6318"
   d="m 202.5,163.2 c 1.4,0 2.7,0 4.6,0 -1.8,1.1 -3.1,0.9 -4.6,0 z"
   class="st1" />
		<path
   id="path6320"
   d="m 152.2,224.6 c 1.5,-1 2.8,-0.6 4.4,-0.3 -1.5,1.2 -2.8,0.7 -4.4,0.3 z"
   class="st1" />
		<path
   id="path6322"
   d="m 197.6,155 c 1.3,0.1 2.7,0.1 4.9,0.2 -2.3,1 -3.6,1 -4.9,-0.2 z"
   class="st1" />
		<path
   id="path6324"
   d="m 174.4,61 c 2.1,-7.1 1.4,-12.3 -2.4,-16.9 -0.1,-0.1 -0.1,-0.3 -0.1,-0.5 -0.3,-1.9 -4.2,-2.7 -3,-3.6 2.1,-1.4 3.3,1.9 4.8,3.3 4.9,4.7 5.4,11.2 0.7,17.7 z"
   class="st1" />
		<path
   id="path6326"
   d="m 123.2,48.6 c 2.9,-3.6 5.7,-7.7 12.7,-6 -5.7,0.7 -8.8,4.1 -12.7,6 z"
   class="st1" />
		<path
   id="path6328"
   d="m 127.9,50.9 c -1,3.9 -1,8 -1,12.6 -3.2,-4.1 -2.6,-9 1.1,-12.4 z"
   class="st1" />
		<path
   id="path6330"
   d="m 128.1,51.1 c 1.7,-4.6 7.9,-6.4 12.5,-2.6 -5.4,-1.7 -8.8,1.1 -12.6,2.5 -0.1,-0.1 0.1,0.1 0.1,0.1 z"
   class="st1" />
		<path
   id="path6332"
   d="m 172.7,56.6 c -0.4,-2.8 -2.2,-5.1 -3.2,-8.4 5.1,2 2.8,5.6 3.2,8.4 z"
   class="st1" />
		<path
   id="path6334"
   d="m 135.4,86.8 c -3.3,-0.9 -2.3,-5.2 -5.3,-6.3 4.2,0 4,3.9 5.3,6.3 z"
   class="st1" />
		<path
   id="path6336"
   d="m 130.7,78.9 c -2.1,-1 -1.9,-3.3 -3.2,-4.7 2.2,0.8 4.1,1.8 3.2,4.7 z"
   class="st1" />
		<path
   id="path6338"
   d="m 148.2,316.8 c 0.5,0.1 1.1,0.3 1.5,0.2 2.5,-1.3 4.2,-8.2 2.6,-10.8 3.4,-0.3 5.3,1.3 5.7,4.4 0.4,3 0,5.6 -3.5,6.6 -1.5,0.4 -2.9,1.4 -4.4,1.8 -1.9,0.4 -2.4,-0.5 -1.7,-2.3 z"
   class="st1" />
		<path
   id="path6340"
   d="m 163.2,299.2 c 2.4,-4.4 7.3,-6 5.6,-11.3 2.5,1.8 5.1,3.3 4,6.1 -1.4,3.7 -5.1,4.3 -9.6,5.2 z"
   class="st1" />
		<path
   id="path6342"
   d="m 127.8,289.9 c -0.8,7 3.1,10.1 9.8,8.4 -2.8,3.7 -6.6,3.7 -10.8,-0.1 -3.2,-2.8 -2.4,-5.5 1,-8.3 z"
   class="st1" />
		<path
   id="path6344"
   d="m 148.3,316.7 c -0.6,0.2 -1.3,0.2 -1.8,0.5 -2,1.3 -2.3,-0.8 -3.2,-1.5 -0.5,-0.4 -0.5,-1.3 0.3,-1.6 1.1,-0.4 2.2,-0.1 3,0.9 0.5,0.6 1.1,1.2 1.6,1.8 0,0 0.1,-0.1 0.1,-0.1 z"
   class="st1" />
		<path
   id="path6346"
   d="m 89.9,302.8 c 0.2,-0.6 0.5,-1.1 0.7,-1.7 2.5,1.2 5.1,3.5 7.6,0 2.2,4.4 5.8,-0.3 8.4,1.8 -5.6,1.1 -11.2,2.3 -16.9,-0.2 0,0 0.2,0.1 0.2,0.1 z"
   class="st1" />
		<path
   id="path6348"
   d="m 121.2,309.8 c -5.9,0 -11.8,0 -17.7,0 0,-0.2 0,-0.3 0,-0.5 6,0 11.9,0 17.9,0 0,0.1 -0.1,0.3 -0.2,0.5 z"
   class="st1" />
		<path
   id="path6350"
   d="m 90.5,312.6 c 3.2,-0.4 6.4,-1 9.4,0.7 -3.2,0.4 -6.4,1.5 -9.4,-0.7 z"
   class="st1" />
		<ellipse
   id="ellipse6352"
   ry="0.40000001"
   rx="4.1999998"
   cy="313.5"
   cx="104.5" />
		<path
   id="path6354"
   d="m 101.4,309.3 c -1.3,0.8 -2.7,0.9 -4.2,0.2 1.5,-1 2.9,-0.2 4.2,-0.2 z"
   class="st1" />
		<path
   id="path6356"
   d="m 172.7,311.4 c 7.7,0.1 15.2,-1 22.9,-1.2 -7.6,2.6 -15.3,1.7 -22.9,1.2 z"
   class="st1" />
		<path
   id="path6358"
   d="m 211.1,294.1 c -0.3,-1.9 -0.1,-3.5 2.2,-4 -1,1.2 1.1,4.1 -2.4,3.8 0,0 0.2,0.2 0.2,0.2 z"
   class="st1" />
		<path
   id="path6360"
   d="m 205,67.2 c 3.4,2.8 3.4,2.8 0.1,5.9 0.1,-2.2 1.7,-4.1 -0.1,-5.9 z"
   class="st1" />
		<path
   id="path6362"
   d="m 186.8,62.6 c -2.3,-0.6 -3,-2.1 -2.7,-4.9 1.2,2.1 2,3.5 2.7,4.9 z"
   class="st1" />
		<path
   id="path6364"
   d="m 200.1,66.4 c -2.5,0.9 -4.5,0.6 -6.5,0.1 2,-0.6 4,-0.7 6.5,-0.1 z"
   class="st1" />
		<path
   id="path6366"
   d="m 105.7,87.4 c 3.5,6.2 10.9,4.7 15.6,8.6 -6.6,1.6 -16.1,-3.4 -15.6,-8.6 z"
   class="st1" />
		<path
   id="path6368"
   d="m 99.1,69.1 c -3,2.6 -4.4,5.5 -1.9,9.6 -4.1,-1.4 -3.7,-4.5 -3,-7 0.5,-2.1 2.5,-3.5 5.1,-2.5 0,0.1 -0.2,-0.1 -0.2,-0.1 z"
   class="st1" />
	</g>
</g>
</svg>
