<?xml version="1.0" encoding="UTF-8" standalone="no"?>
<svg
   xmlns:dc="http://purl.org/dc/elements/1.1/"
   xmlns:cc="http://creativecommons.org/ns#"
   xmlns:rdf="http://www.w3.org/1999/02/22-rdf-syntax-ns#"
   xmlns:svg="http://www.w3.org/2000/svg"
   xmlns="http://www.w3.org/2000/svg"
   xmlns:sodipodi="http://sodipodi.sourceforge.net/DTD/sodipodi-0.dtd"
   xmlns:inkscape="http://www.inkscape.org/namespaces/inkscape"
   inkscape:version="1.0 (4035a4f, 2020-05-01)"
   height="224.65732"
   width="270.6951"
   sodipodi:docname="castle.svg"
   xml:space="preserve"
   viewBox="0 0 270.6951 224.65732"
   y="0px"
   x="0px"
   id="Layer_1"
   version="1.1"><metadata
   id="metadata11567"><rdf:RDF><cc:Work
       rdf:about=""><dc:format>image/svg+xml</dc:format><dc:type
         rdf:resource="http://purl.org/dc/dcmitype/StillImage" /><dc:title></dc:title></cc:Work></rdf:RDF></metadata><defs
   id="defs11565" /><sodipodi:namedview
   inkscape:current-layer="Layer_1"
   inkscape:window-maximized="0"
   inkscape:window-y="25"
   inkscape:window-x="0"
   inkscape:cy="155.07364"
   inkscape:cx="132.7951"
   inkscape:zoom="2.52"
   fit-margin-bottom="0"
   fit-margin-right="0"
   fit-margin-left="0"
   fit-margin-top="0"
   showgrid="false"
   id="namedview11563"
   inkscape:window-height="480"
   inkscape:window-width="820"
   inkscape:pageshadow="2"
   inkscape:pageopacity="0"
   guidetolerance="10"
   gridtolerance="10"
   objecttolerance="10"
   borderopacity="1"
   bordercolor="#666666"
   pagecolor="#ffffff" />
<style
   id="style11264"
   type="text/css">
  .st0{fill:#FFFFFF;}
  .st1{fill:#000000;}
</style>
<g
   transform="translate(-17.204898,-44.926364)"
   id="g11560">
	<g
   id="g11558">
		<path
   id="path11266"
   d="m 81.1,63.3 c 7.4,-0.3 16.7,5.2 16.5,-10.4 -0.1,-6.9 9.3,-2.5 14.3,-3.3 6.3,-1.1 5.7,4.5 4.7,7.6 -4.2,14.2 -1.4,31.1 -16.1,41.2 -4.1,2.8 -4.7,7.2 -3.3,11.4 1.4,4.3 5.7,2.4 8.6,2.2 5.7,-0.3 9.2,0.8 8.2,7.6 -0.7,4.3 0.4,7.1 5.9,6.9 4.5,-0.2 6,-2.1 5.4,-6 -1.7,-10.6 5.9,-8.2 11.6,-8.3 6,-0.1 13.1,-1.7 11.3,8.6 -0.7,4.2 1.4,5.7 5.7,5.7 4.3,0 6.4,-1.5 5.6,-5.8 -1.8,-10.4 5.4,-8.7 11.3,-8.6 5.7,0.1 13.3,-2.3 11.6,8.4 -0.7,4 0.9,5.8 5.4,6 5.6,0.2 6.5,-2.6 5.9,-7 -1,-6.8 2.6,-7.4 8.2,-7.6 8.9,-0.2 13.3,-8.4 6.8,-14 -14.3,-12.5 -11.6,-28.4 -12.3,-44.1 -0.4,-8.7 4.9,-7.4 10,-7.2 4.8,0.1 10.9,-2.1 10.3,7 -0.2,3.7 -3.2,10 5.3,10.2 8.5,0.2 5.8,-5.9 5.7,-9.8 -0.1,-5.3 1.1,-7.9 7,-7.5 6.1,0.5 12.2,0.1 17.9,0.1 2.3,6.3 -11.2,16.3 5.3,17.1 4.3,0.2 7.7,-0.2 6.9,-5.8 -1.7,-12 7.3,-8.7 12.8,-8.2 7.4,0.8 7.3,5.1 5.5,12.1 -3.3,14.2 -4.1,28.3 -16,40.2 -3.8,3.8 -1.6,19.8 1.3,29.1 4,12.8 2.3,25.9 4.2,38.7 2,13.4 9.8,22.4 15.3,34.5 -5.5,-1.2 -9.4,-1.2 -8.9,6.8 1,16.6 0,33.2 0.4,49.9 0.1,6.1 -1.6,8.1 -7.9,8.1 -51.8,-0.2 -103.6,1.7 -155.3,-0.9 -26.9,-1.3 -53.7,-1.8 -80.6,-1.7 -11.4,0 -13.7,-5.7 -11.9,-13.6 3.2,-14 1.9,-28 1.9,-42 0,-1.9 0.3,-5.1 -0.4,-5.4 -17.5,-6.9 -1.2,-14.1 1.4,-17.7 5.3,-7.3 6.9,-15.2 7.4,-23.1 1.1,-16.3 3.4,-32.3 5.6,-48.4 1.2,-8.4 2.8,-17.2 -6.8,-24.7 -12.3,-9.6 -7,-26.1 -9.1,-39.3 -1.2,-7.9 9.3,-4.8 14.9,-5.6 5.6,-0.8 7.3,1.6 7.2,7.2 -0.1,3.9 -3,10 5.5,10 8.6,0 5.1,-6.1 5.7,-10 2.1,-15.1 13.9,-6.6 19.9,-6.5 12.5,0.2 3.7,9.7 4.2,15.9 z"
   class="st1" />
		<path
   id="path11268"
   d="m 115.8,132.7 c -5,-0.5 -10,-0.9 -11.4,-1.1 2.4,2.1 20.8,-13 13.4,10.2 -0.1,0.2 2.2,1.5 3.4,1.5 2.7,0 3.5,-0.2 2.2,-3.9 -4.1,-11.4 4.1,-11.5 11.2,-9.8 3.5,0.8 6.9,2.8 10.7,2.4 4.2,-0.4 5.8,1.2 5.9,5.6 0,4.2 -1.2,5.7 -5.6,5.9 -9.3,0.5 -18.5,2.2 -27.7,2.5 -3.8,0.1 -8.7,2.7 -11.7,-2.9 -7.6,-13.7 8,-4.9 9.6,-10.4 z"
   class="st0" />
		<path
   id="path11270"
   d="m 70.6,83.8 c -8.5,-0.9 -19,3.7 -16.5,-10.5 1.1,-6.1 5.5,-8.5 10,-6.4 7,3.1 19.4,-6.1 21.2,8.2 2.1,16.2 -11.7,4 -14.7,8.7 z"
   class="st0" />
		<path
   id="path11272"
   d="m 240.5,83.6 c -4.8,-0.7 -11.6,2.4 -14.5,-4.1 -1.3,-2.8 0,-7.4 1.4,-10.6 2,-4.4 5.1,-1.2 8,-0.2 2.5,0.9 6.1,1.2 8.1,0 7,-4.4 9.2,-0.9 10.1,5.3 0.9,6.4 -0.1,11.2 -8.5,9.6 -1.3,-0.2 -2.8,0 -4.6,0 z"
   class="st0" />
		<path
   id="path11274"
   d="m 238.5,216.3 c -4.6,3.8 -9.3,-9.8 -17.3,-4.8 -1,0.6 -1.8,-2.7 -1.7,-4.6 0.3,-5 3.6,-0.8 4.2,-1.3 4.4,-4 10.9,0.4 15.7,-4.6 2,-2.1 9,-0.5 13.2,1 1.3,0.4 1.6,6.3 0.8,9.2 -1.9,7 -8,2 -14.9,5.1 z"
   class="st0" />
		<path
   id="path11276"
   d="m 186,142.7 c -6.6,0.3 -13.3,0.1 -19.8,0.9 -10.6,1.2 -15.3,-2 -11.3,-13.3 6.1,3 13.2,3.2 18.9,1.4 12.7,-4 11.6,3.8 11.9,11.4 z"
   class="st0" />
		<path
   id="path11278"
   d="m 237.9,234.4 c 5,2 13.4,-4.1 13.2,7.6 -0.1,7.3 -3.7,7.9 -8.7,6.9 -6.5,-1.3 -17.1,4 -17,-8.9 0,-10.5 8.9,-2.6 12.5,-5.6 z"
   class="st0" />
		<path
   id="path11280"
   d="m 215.2,250.5 c -4.3,-5 -15.7,4.1 -16.7,-8.9 -0.2,-3.2 0.1,-6 2,-6.2 6.5,-0.7 13.4,-1.7 19.5,-0.2 7.6,1.9 -3.3,10.1 3.1,14.6 1,0.7 -5.1,1.5 -8.1,0.6 z"
   class="st0" />
		<path
   id="path11282"
   d="m 68.1,232.2 c 7.6,-0.9 12.5,-1.1 11.9,7.8 -0.9,11.4 -9,4.8 -13.6,5.9 -5,1.3 -9.7,1.1 -9.6,-7.2 0.1,-11.8 8.8,-4.3 11.3,-6.5 z"
   class="st0" />
		<path
   id="path11284"
   d="m 79.4,248.7 c 4.6,1.6 11.7,-3.5 12.1,6.8 0.3,9.6 -5.5,8.1 -10.8,7.5 -4.9,-0.5 -12.6,4.1 -12.6,-7.1 0.1,-10.3 7.1,-5.8 11.3,-7.2 z"
   class="st0" />
		<path
   id="path11286"
   d="m 250.7,231.9 c -5.2,-0.7 -11.7,2.7 -11.6,-7.3 0.2,-11.3 8,-6.2 12.8,-6.9 5.5,-0.8 10.9,-1.5 10.5,7.8 -0.4,10.5 -7.8,4.7 -11.7,6.4 z"
   class="st0" />
		<path
   id="path11288"
   d="m 53.6,214.5 c 5,1.4 12,-3.2 12.2,7.1 0.2,11.2 -7.4,6.9 -12.4,7.3 -5.1,0.4 -11.1,2.4 -11,-7.3 0.3,-10.5 7.6,-5.3 11.2,-7.1 z"
   class="st0" />
		<path
   id="path11290"
   d="m 222.8,132.1 c 0.7,-4.2 -4,-9.2 4.5,-12.1 4.8,-1.7 -5.6,-0.1 -3.2,-5 7,0 14.4,-0.1 21.7,0.1 3.3,0.1 8.3,-1.8 7.8,4.6 -0.3,3 2,7.5 -1.7,8.8 -4.6,1.6 -5,-4.1 -7.4,-6 -11.9,-9.1 -12,4.1 -16.3,9.3 0.5,1.2 0.8,2.6 -0.6,3.1 -2.5,0.8 -4,-0.5 -4.8,-2.8 z"
   class="st0" />
		<path
   id="path11292"
   d="m 250.4,266 c -5.4,-0.2 -11.5,2.2 -11.2,-7.5 0.2,-8.8 5.9,-7.4 10.2,-6.5 4.3,0.9 12.1,-5.2 12.8,5 0.5,9 -5.6,9.4 -11.8,9 z"
   class="st0" />
		<path
   id="path11294"
   d="m 84.9,132.1 c 5.8,0.5 13,-2.8 12.3,8 -0.4,6.3 -3.4,7.5 -7.8,6.1 -6,-1.8 -15.5,1.2 -15.3,-10.3 0.1,-13.1 8.6,0.9 10.8,-3.8 z"
   class="st0" />
		<path
   id="path11296"
   d="m 63.5,200.5 c 6,0 8.8,0.1 11.6,0 5,-0.3 4.7,3.1 4.8,6.4 0.1,3.5 -1.3,4.7 -4.8,5.1 -6.6,0.7 -13.1,-2.5 -19.8,-0.3 -2.8,0.9 -3.8,-1.4 -3.9,-4.1 -0.2,-3.3 1.8,-5.7 4.3,-6.4 3.4,-0.9 7.2,-0.6 7.8,-0.7 z"
   class="st0" />
		<path
   id="path11298"
   d="m 266.9,234.8 c 3.5,0.7 9.7,-2.9 9.8,6.3 0.1,7.6 -3.3,8.6 -9.2,7.8 -4.8,-0.6 -11.4,2.9 -11.3,-7.1 0.1,-8.4 4.9,-7.2 10.7,-7 z"
   class="st0" />
		<path
   id="path11300"
   d="m 255.1,132.1 c 4.7,0.3 10,-2 10.2,6.8 0.2,9.8 -5.9,7.1 -11,7.5 -5.4,0.4 -9.6,0.6 -9.5,-7.5 0.1,-8.9 5.7,-6.5 10.3,-6.8 z"
   class="st0" />
		<path
   id="path11302"
   d="m 97.5,69.6 c 6.9,-0.7 11.5,-1.1 11,7.2 -0.6,10 -8.2,5.3 -12.6,6.6 -6.2,1.8 -7.6,-1.6 -7.8,-7.6 -0.2,-9.5 6.5,-5.5 9.4,-6.2 z"
   class="st0" />
		<path
   id="path11304"
   d="m 68.8,177.9 c -3.9,-2.1 -12.2,4.4 -11.8,-6.4 0.2,-5.9 3.2,-8.3 9,-8.1 7.4,0.3 13,4.7 13.2,11.1 0.2,5.8 -6.7,1.9 -10.4,3.4 z"
   class="st0" />
		<path
   id="path11306"
   d="m 42.1,255.6 c 5.1,-0.7 9.5,-1.2 13.8,-1.8 0,-0.5 0,-1 0,-1.4 -3.9,-0.4 -7.8,-0.7 -11.7,-1.1 7.3,-0.9 15.8,-6.9 21,2.2 1.2,2.1 2.6,9.1 -2.5,9.2 -6.8,0.2 -16.2,4.8 -20.6,-7.1 z"
   class="st0" />
		<path
   id="path11308"
   d="m 91,231.9 c -7.3,-5.2 -14.9,-1.3 -21.5,-3.6 -2.5,-15.5 8.8,-11 16.1,-10.5 10.5,0.8 4,8.5 5.4,14.1 z"
   class="st0" />
		<path
   id="path11310"
   d="m 105.1,238.1 c 0.7,8 -1.1,13.6 -4.9,10.3 -5.4,-4.7 -16.4,3.4 -17.5,-8.4 -0.5,-4.5 2.7,-7.2 5.6,-5.1 5.3,4 14.3,-1.9 16.8,3.2 z"
   class="st0" />
		<path
   id="path11312"
   d="m 68.3,115 c 2.8,0 5.7,-0.1 8.5,0 2.7,0.1 6.1,-0.4 5.8,4 -0.2,2.3 0,5.8 -1.3,6.5 -2.7,1.5 -5.4,1.7 -7.6,-2.6 -2.1,-4 -8.6,-3.9 -10.5,-0.1 -2.2,4.4 -5,4.1 -7.7,2.9 -1.2,-0.5 -1.2,-4.2 -1.3,-6.5 -0.4,-5.7 4.1,-3.9 7,-4.1 2.3,-0.3 4.7,-0.1 7.1,-0.1 z"
   class="st0" />
		<path
   id="path11314"
   d="m 267.7,69.4 c 4.9,-0.5 8.8,-0.7 9.1,7.4 0.3,9.2 -7.5,5.7 -10.8,8.9 -2.5,-3.6 -10.1,-0.1 -9.9,-8.8 0.2,-9.5 5.8,-7.4 11.6,-7.5 z"
   class="st0" />
		<path
   id="path11316"
   d="m 214.9,180.5 c -5,0.1 -10.1,-0.5 -8.9,-7.1 0.5,-2.8 -0.4,-9.7 6.6,-7.1 4.4,1.6 12,-2.9 12.5,6.1 0.4,7.2 -4.4,8.5 -10.2,8.1 z"
   class="st0" />
		<path
   id="path11318"
   d="m 207.9,214.6 c -7.7,2.8 -10,-3.5 -9.5,-8.6 0.5,-5.3 6.6,-5.1 11.3,-5.6 5.8,-0.5 6.8,1.9 7,7.2 0.4,6.8 -2.8,7.9 -8.8,7 z"
   class="st0" />
		<path
   id="path11320"
   d="m 193.6,189.4 c -7.6,-3.2 -13.6,0.4 -19.8,-0.1 -4.2,-0.4 -5.7,-1.5 -5.7,-5.7 0,-4 1.1,-5.5 5.4,-6 9.1,-1.1 15.8,1.4 20.1,11.8 z"
   class="st0" />
		<path
   id="path11322"
   d="m 235.5,217.3 c -1.7,5.7 6.6,14.2 -4.1,14.2 -5.7,0 -16.1,4.6 -16.9,-3.3 -1.9,-17.1 16.9,0.3 21,-10.9 z"
   class="st0" />
		<path
   id="path11324"
   d="m 91.2,166.3 c 5.3,-0.6 9.6,-0.3 8.7,7 -0.5,3.8 0.5,8.2 -5.5,7.1 -5.2,-0.9 -11.3,-0.6 -11.7,-8.6 -0.5,-7.4 4.8,-5 8.5,-5.5 z"
   class="st0" />
		<path
   id="path11326"
   d="m 238.7,166.2 c 3.2,1.4 9.8,-2.8 8.9,4.7 -0.3,2.8 0.5,10.5 -6.8,7.1 -4.2,-2 -12.2,4.7 -12.8,-5.6 -0.6,-9.6 6.7,-4.8 10.7,-6.2 z"
   class="st0" />
		<path
   id="path11328"
   d="m 132.1,160.4 c -6.4,2.2 -9.3,-1 -8.7,-6.5 1.1,-10.4 11.5,-1.7 16.3,-6.9 1.5,-1.7 1.9,5.3 2.3,7.7 1.8,9.7 -6.4,4.4 -9.9,5.7 z"
   class="st0" />
		<path
   id="path11330"
   d="m 222.8,132.1 c 1.8,0.5 3.8,3.1 5.4,-0.3 7.9,2.8 3.8,9.8 2,12.1 -4,5.2 -11.2,2.8 -16.7,2 -4.9,-0.7 -2.4,-6.4 -2.3,-9.7 0.3,-10.4 10.1,4.3 11.6,-4.1 z"
   class="st0" />
		<path
   id="path11332"
   d="m 153.2,192 c 5.1,0 8.9,-0.5 12.5,0.1 3.7,0.7 8.8,-3.1 10.8,2.8 1,2.9 -0.3,5.8 -3,7.2 -4.3,2.2 -10.7,3.1 -12.9,-0.3 -1.9,-2.9 -6.3,-3.6 -7.4,-9.8 z"
   class="st0" />
		<path
   id="path11334"
   d="m 40.2,189.2 c -1.6,4.6 -3.6,9.2 3.7,10.9 1.3,0.3 4.2,-0.3 3.4,2.6 -0.3,1.2 -1.9,1.9 -3,2.9 -4.8,-5.8 -14.5,-1.5 -17.9,-6.8 -3.8,-6 3.2,-9.5 7.6,-12.9 2.5,0.4 5,0.8 6.2,3.3 z"
   class="st0" />
		<path
   id="path11336"
   d="m 256.8,201.1 c 5.2,2.2 8.3,8.3 14.4,3.4 3,-2.4 5.3,-0.8 5.1,3.1 -0.1,2.5 1.3,5.5 -2.5,7.1 -9.4,4.1 -17.1,-1.4 -17,-13.6 z"
   class="st0" />
		<path
   id="path11338"
   d="m 212.1,83.5 c -6,0.7 -9.9,0.8 -10.1,-7.3 -0.3,-9.2 7.5,-5.7 10.8,-8.9 2.5,3.6 10.1,0.1 9.9,8.8 -0.3,9.5 -5.6,7.6 -10.6,7.4 z"
   class="st0" />
		<path
   id="path11340"
   d="m 215.1,250.5 c 4,6.4 8.9,4.8 14.4,2 2.3,-1.2 5.9,-1.9 6.8,1.7 0.6,2.5 0.6,6.7 -0.9,7.8 -5.9,4.4 -12.6,-4.9 -19.8,0.4 -1.1,0.8 -1.7,-7.6 -0.4,-11.9 0,0 -0.1,0 -0.1,0 z"
   class="st0" />
		<path
   id="path11342"
   d="m 259.2,160.9 c -6.6,-0.2 -12.8,5.7 -19.6,1 11.6,-14.9 12.5,-15.3 25.2,-9.8 -0.4,0.4 -0.7,0.8 -1.1,1.3 -1.7,1.2 -3.3,2.4 -3.3,4.8 0.1,1.1 -0.4,2 -1.2,2.7 z"
   class="st0" />
		<path
   id="path11344"
   d="m 42.9,137.5 c -4.5,-9.6 2.7,-8.7 7.8,-8 4.4,0.6 11.8,-4.5 12.2,6 0.3,7.2 -2.5,9.3 -8.8,8 -3.7,-0.8 -8.4,2.6 -11.2,-2.5 5,-3.6 10.8,-0.7 15.4,-1.7 -4.7,-1.2 -10.4,1.8 -15.4,-1.8 z"
   class="st0" />
		<path
   id="path11346"
   d="m 266.6,168.4 c -3,0.5 -5.9,1 -9.3,1.5 2.9,4.3 12.4,-1.4 10.4,7.7 -1.2,5.5 -6.3,2.7 -9.5,2.7 -6.3,0.2 -8.3,-4.4 -7.2,-9.6 2.2,-10.5 10.6,-0.1 15.6,-2.3 z"
   class="st0" />
		<path
   id="path11348"
   d="m 239.4,111.9 c -6.4,1 -9,-0.5 -8.7,-6.3 0.5,-7.4 5.8,-4.3 9.2,-4.7 4.1,-0.5 8.3,-1 8.1,5.9 -0.2,8.3 -6.2,4.3 -8.6,5.1 z"
   class="st0" />
		<path
   id="path11350"
   d="m 192.1,160.6 c -6.5,0 -13.1,-0.1 -19.7,0 -5.5,0.1 -4.2,-3.8 -4.3,-6.8 -0.2,-5.6 2.9,-2.1 5.1,-1.9 7.4,0.6 15.8,-1.9 18.9,8.7 z"
   class="st0" />
		<path
   id="path11352"
   d="m 213.7,57.6 c 1.1,6.9 -4.8,7.5 -8.7,8.7 -5.8,1.8 -5.3,-2.9 -5.6,-6.8 -0.5,-5.4 1.2,-7.9 7,-7.3 3.7,0.4 8.2,-0.8 7.3,5.4 z"
   class="st0" />
		<path
   id="path11354"
   d="m 48.4,69.2 c 6.1,14.9 5.7,15.2 -17.1,13.9 5.2,-2.4 9.4,-4.3 13.3,-6.1 -3.4,-8 -10,7 -13,-2.4 -0.2,-0.6 1.7,-1.8 2.6,-2.8 4.3,-3.4 9.4,-2 14.2,-2.6 z"
   class="st0" />
		<path
   id="path11356"
   d="m 155.4,170.6 c 3.2,-1.4 -4.4,-8.4 3.5,-7 5.9,1.1 13.2,-4 17.5,3.1 1.1,1.9 2.2,7.7 -2.5,7.7 -6.5,0.1 -13.6,3.1 -19.6,-1.8 -0.1,-0.1 0.1,-0.8 0.3,-1.1 0.2,-0.4 0.7,-0.7 1,-1 2.1,-0.3 4.3,-0.3 6.3,-1.4 -2.1,0.9 -4.3,1.1 -6.5,1.5 z"
   class="st0" />
		<path
   id="path11358"
   d="m 155.3,189.1 c -3.2,-0.6 -7.2,1.3 -10.4,-1.9 -1.8,-1.8 -2.9,-3.8 -2.2,-6.3 0.3,-1.1 1.3,-2.8 2.2,-2.9 3.5,-0.4 3.3,2.3 3.4,4.6 0.1,3.2 2.1,3.7 4.7,3.6 2.1,-0.1 4.5,-1 3.5,-3 -3,-6.1 0.7,-5.5 4.7,-5.5 5.6,0 3.9,4 4.2,7 0.4,5.5 -3.7,4.2 -6.8,4.4 -1.1,0.1 -2,0 -3.3,0 z"
   class="st0" />
		<path
   id="path11360"
   d="m 189.1,175.2 c -3.8,-1.5 -9.9,2.5 -9.5,-5 0.3,-5.2 3.8,-6.8 8.6,-6.7 4.9,0.1 8,2 8.3,7.1 0.4,6.8 -5.2,2.9 -7.4,4.6 z"
   class="st0" />
		<path
   id="path11362"
   d="m 139.3,177.8 c -0.9,4.6 4.7,11.4 -5.1,11.2 -6.1,-0.1 -16.4,2.9 -9.6,-10 4.9,4.1 9.3,-0.9 14.7,-1.2 z"
   class="st0" />
		<path
   id="path11364"
   d="m 132.7,205.1 c -0.1,-13.2 6.6,-15.9 19.5,-11.3 -6.3,5.8 -10.5,12.6 -19.7,11.2 z"
   class="st0" />
		<path
   id="path11366"
   d="m 61.1,112.9 c 1,-7.8 1.6,-13.6 10.9,-12.3 4.7,0.7 5.6,2.8 4.9,6.4 -2.4,10.7 -10.6,2.3 -15.8,5.9 z"
   class="st0" />
		<path
   id="path11368"
   d="m 42.9,179.5 c 0.1,-6.8 6.2,-2.6 7.1,-6.3 -2.4,-3.5 -10,2.5 -10.1,-5.6 0,-5.6 4.1,-3.9 6.9,-4.1 3.7,-0.2 6.8,-0.7 7.6,5.2 1.1,9.5 -5,9.4 -11.5,10.8 z"
   class="st0" />
		<path
   id="path11370"
   d="m 187.6,143.1 c 1.5,-14 1.5,-14 20.4,-5.8 -4.9,0.4 -9,0.7 -13.5,1 2.5,4.3 7.8,0.2 10.1,5.4 -6.2,-0.4 -11.8,-0.7 -17.4,-1 z"
   class="st0" />
		<path
   id="path11372"
   d="m 211,226.2 c 0.4,3.3 -0.5,5.8 -5.9,5.8 -7,0.1 -5.2,-4.6 -5.6,-8.4 -0.6,-5.2 2,-6.1 6.5,-6.1 6.2,0 4.7,4.3 5,8.7 z"
   class="st0" />
		<path
   id="path11374"
   d="m 76.8,57.7 c 0.9,6.2 -2.9,5.9 -6.8,6.1 -4.9,0.3 -7.7,-0.6 -7.5,-6.6 0.3,-6.2 4.4,-4.7 7.8,-4.8 4,-0.2 8,-0.2 6.5,5.3 z"
   class="st0" />
		<path
   id="path11376"
   d="m 68.4,158.6 c -6,0.6 -12.5,6 -16.8,-1.7 -1.1,-1.9 -1.5,-6.3 1.7,-7.4 8.4,-3.1 10.1,5.6 15.1,9.1 z"
   class="st0" />
		<path
   id="path11378"
   d="m 84.9,162.2 c -3.2,-5.4 -13.9,3.8 -12.6,-6.4 0.4,-3.5 2.5,-7.7 8.4,-6.7 10.6,1.8 1.1,9.3 4.2,13.1 z"
   class="st0" />
		<path
   id="path11380"
   d="m 236.9,194.4 c 6.1,-1.6 -1.1,-9.6 5.2,-10.9 2.1,-0.4 4.8,-0.8 5.8,2.3 1.1,3.4 5.3,7.8 2.4,10 -3.5,2.7 -9.5,4.6 -13,-1.9 z"
   class="st0" />
		<path
   id="path11382"
   d="m 164.1,126.1 c 1.9,-4.9 -0.3,-13.7 9.3,-11.1 4,1.1 6,2.3 4,7.5 -3.1,8 -8.9,1.3 -13.3,3.6 z"
   class="st0" />
		<path
   id="path11384"
   d="m 213.8,149.3 c 4.2,-0.5 5.9,1.1 5.7,5.4 -0.2,4.8 -1.5,8.2 -6.7,8.7 -6.4,0.6 -4.4,-4.3 -4.7,-7.5 -0.5,-4.3 0.2,-7.6 5.7,-6.6 z"
   class="st0" />
		<path
   id="path11386"
   d="m 268,195.1 c -11.4,3.7 -11.4,3.7 -16.9,-10.4 9.1,-4.9 10.9,5.8 16.8,7.7 1,0.6 1.4,1.1 1.1,1.8 -0.3,0.6 -0.7,0.9 -1,0.9 z"
   class="st0" />
		<path
   id="path11388"
   d="m 93.8,108.5 c -1.3,1 2,6.9 -2.1,4.3 -3.7,-2.4 -12.5,3.3 -11.8,-7.3 0.4,-5.5 3,-4.4 6.1,-4.7 5.6,-0.6 9.5,0.3 7.8,7.7 z"
   class="st0" />
		<path
   id="path11390"
   d="m 213.5,189.4 c -1.1,0.7 -2.8,1.2 -3.3,2.2 -2.3,4.4 -5.1,7.6 -10.6,5.9 -1,-0.3 -2.6,-1.7 -2.6,-2.5 0.4,-6.4 6.7,-5 10.6,-7.5 -2.5,-0.8 -4.6,-1.4 -6.4,-2 -1.1,-1.4 -0.6,-2.4 0.7,-1.8 3.9,1.8 13,-5.8 11.1,6.2 z"
   class="st0" />
		<path
   id="path11392"
   d="m 53.5,196 c 4.6,-4.1 0.5,-16 13.2,-12 -2.1,6.1 2.1,18 -13.2,12 z"
   class="st0" />
		<path
   id="path11394"
   d="m 236.8,159.9 c -5.5,0.7 -13.6,10.1 -14.7,-2.9 -0.8,-9.1 4.3,-8.5 10.3,-7.4 -0.1,4.6 -5.1,0.7 -6.1,4 3.4,2 7,4.1 10.5,6.3 z"
   class="st0" />
		<path
   id="path11396"
   d="m 142.3,128.4 c -2.7,-5 -11.8,2.5 -11.7,-6.2 0.1,-4.5 0.9,-8.5 7.2,-7.3 10.2,2.1 1.5,9.3 4.5,13.5 z"
   class="st0" />
		<path
   id="path11398"
   d="m 96.1,196.8 c -12.6,4.5 -11.7,-6.8 -15.7,-12.4 12.4,-4.6 12.1,6.1 15.7,12.4 z"
   class="st0" />
		<path
   id="path11400"
   d="m 106.9,219.8 c -2.9,0.4 -5.8,0.9 -9.5,1.4 2.9,3.1 9.5,0.8 8,7.5 -1.2,5.1 -5.1,3.2 -7.8,3 -6.1,-0.5 -3.5,-5.7 -3.4,-8.7 0.4,-10.5 8.3,-3 12.7,-3.2 z"
   class="st0" />
		<path
   id="path11402"
   d="m 249.3,49.3 c -3,9.3 -3,14.9 -11,14.5 -5.4,-0.2 -5,-3.8 -4.4,-6.8 1.7,-10.1 9,-1.7 15.4,-7.7 z"
   class="st0" />
		<path
   id="path11404"
   d="m 269.3,66.5 c -1.9,-4.9 8,-1.3 3.5,-5.2 -2.3,-2 -5.5,-2.3 -4.7,-6.3 0.8,-4.2 4.3,-2.4 6.8,-2.7 4,-0.5 4.9,2.2 4.4,5.2 -0.6,3.1 2.7,8 -3.4,8.9 -2.3,0.4 -4.6,0.1 -6.6,0.1 z"
   class="st0" />
		<path
   id="path11406"
   d="m 26.2,241.4 c 9.6,1.9 16.5,2.5 23.8,1.3 -1.7,-4.9 -7,-0.2 -9.3,-4.2 4.3,-0.9 8.6,-1.7 12.8,-2.6 -0.1,11.2 -11,14.1 -27.3,5.5 z"
   class="st0" />
		<path
   id="path11408"
   d="m 109.6,65.8 c -0.7,0.2 -1.7,0.8 -2.7,0.7 -2.8,-0.3 -7.4,1.7 -7.1,-3.8 0.2,-3.4 -2.3,-8.2 2.2,-10 2.5,-1 7.2,-2.1 8.7,1.6 1.8,4.2 -2,4.9 -5,7.3 -4,3.2 4.4,0.2 3.9,4.2 z"
   class="st0" />
		<path
   id="path11410"
   d="m 26.7,250.6 c 11.1,-3.6 14.3,-0.8 13.3,7.6 -0.4,3.4 -1.2,5.4 -4.9,4.9 -2.5,-0.3 -6,1.3 -6.5,-3 -0.4,-2.9 -0.2,-5.6 4,-5.6 1.2,0 4.5,0.6 2.2,-2.4 -0.7,-0.9 -3.1,-0.6 -8.1,-1.5 z"
   class="st0" />
		<path
   id="path11412"
   d="m 204.7,254.6 c 3,-0.7 6.8,-3.9 6.4,3.4 -0.3,6.3 -4,5.2 -7.6,5.1 -3,0 -7.3,1.3 -6.8,-4.3 0.5,-5.1 2.6,-7.8 8,-4.2 z"
   class="st0" />
		<path
   id="path11414"
   d="m 250.9,107.2 c -0.6,-4.4 0.5,-6.7 5,-6.5 3.4,0.2 6.4,-0.1 6.3,4.9 0,4.3 -0.6,7 -5.9,6.7 -3.9,-0.3 -6.4,-1.1 -5.4,-5.1 z"
   class="st0" />
		<path
   id="path11416"
   d="m 112.4,176.1 c 7,-6.5 15.6,-1 15,-6.9 -0.7,-6 -9,0.6 -14.8,-2.4 6.3,-5.1 12.1,-3.7 17.4,-1.9 1.1,0.4 1.9,6.1 0.7,7.7 -4.3,5.4 -10.3,0.6 -18.3,3.5 z"
   class="st0" />
		<path
   id="path11418"
   d="m 213.1,189.9 c 4.2,-0.7 5.4,-7.4 10,-6 4,1.2 1.5,5.5 1.8,8.4 l 0.4,-0.5 c -3.2,3.6 -6.3,8.4 -11.9,5.5 -3.6,-1.9 2.3,-5.2 0.1,-7.9 0,0 -0.4,0.5 -0.4,0.5 z"
   class="st0" />
		<path
   id="path11420"
   d="m 115,191.8 c 5.4,2.5 13.6,-4.8 15.8,5 2.1,9 -5.1,6.3 -9.9,6.2 0.3,-4.4 5.2,-0.9 6.3,-4 -3.4,-3.3 -11,1.5 -12.2,-7.2 z"
   class="st0" />
		<path
   id="path11422"
   d="m 99.3,155.9 c 0.8,5.9 -0.3,7.6 -3.3,7.5 -5.3,-0.1 -7.5,-2.9 -7.6,-8 -0.1,-3.5 -0.1,-6.9 5,-6.1 -1.7,5.7 5.4,5.6 5.9,6.6 z"
   class="st0" />
		<path
   id="path11424"
   d="m 195.5,233.7 c -10.3,4.1 -14.4,-2.1 -18,-10.4 5.6,0.2 10.9,0.5 16.7,0.7 -2.1,6.5 -8.3,-1.1 -8.5,4.2 -0.4,7.3 7.2,1.1 9.8,5.5 z"
   class="st0" />
		<path
   id="path11426"
   d="m 237.3,194 c -4.3,1.1 -10.2,10.7 -12,-2.1 0,0 -0.4,0.5 -0.4,0.5 4.6,-1.3 3.4,-9.7 9,-8.4 5.4,1.3 1.3,7.1 2.9,10.5 0.1,-0.1 0.5,-0.5 0.5,-0.5 z"
   class="st0" />
		<path
   id="path11428"
   d="m 82.9,197.8 c -5.5,-1.2 -11.8,3.3 -11.5,-5.2 0.1,-2.9 -1.6,-8.5 1.8,-8.3 6.4,0.1 5.5,7.8 9.7,13.5 z"
   class="st0" />
		<path
   id="path11430"
   d="m 111.7,199.1 c -7.9,3.4 -10.3,-0.8 -13,-6.5 -2.1,-4.4 1.5,-3.8 2.7,-3.8 6.3,0.4 7.7,5.6 10.3,10.3 z"
   class="st0" />
		<path
   id="path11432"
   d="m 275.8,231.2 c -7,1.5 -11.3,1.5 -11,-7.4 0.3,-9.6 6.4,-5 10.7,-6.4 -0.9,4.9 -6.9,2.3 -6.5,4.1 0.8,3.2 3.9,5.8 6.8,9.7 z"
   class="st0" />
		<path
   id="path11434"
   d="m 36.6,158.1 c 2.8,-3.9 5.6,-11 8.6,-11.1 6.4,-0.2 3.6,6.9 2.9,9.9 -1.9,8.2 -7.5,-1.1 -11.5,1.2 z"
   class="st0" />
		<path
   id="path11436"
   d="m 159.6,160.6 c -4.1,0.1 -7.8,-0.9 -4.5,-5.1 1.7,-2.1 -3.6,-6.9 2.9,-6.3 4.4,0.4 6.6,2.5 7.2,6.7 0.8,4.8 -2.5,4.9 -5.6,4.7 z"
   class="st0" />
		<path
   id="path11438"
   d="m 104.5,149.6 c 4.8,2.7 14.8,-6.5 14.8,5.3 0,11.9 -10.3,1.7 -14.5,5.8 2.6,-5.6 9.2,-0.1 12.1,-5.4 -2.3,-6.9 -9.6,-0.4 -12.4,-5.7 z"
   class="st0" />
		<path
   id="path11440"
   d="m 149.3,163.9 c -3.5,4.6 -11.7,-0.7 -11.8,5 0,6.6 6.7,1.3 12.3,0.7 -5.2,7.4 -10.3,5.4 -14.6,4.2 -1.1,-0.3 -2.2,-5.9 -1,-7.6 4.1,-6.2 10.3,-0.6 15.1,-2.3 z"
   class="st0" />
		<path
   id="path11442"
   d="m 266.1,252.5 c 3.5,-0.4 8,-2.7 10,1.4 2,4.1 -2.5,4.8 -5,7.1 -4.3,4 4.7,-0.1 3.9,4.3 -3.4,0.5 -7.6,2.9 -9.7,-2 -1.5,-3.5 2.2,-4.2 4.5,-6.3 4.6,-4 -5.4,-0.2 -3.7,-4.5 z"
   class="st0" />
		<path
   id="path11444"
   d="m 42.1,109.2 c 4.1,-3.3 10,4.4 11.6,-2.5 1.2,-5.1 -5.6,-1.4 -7.1,-5.1 4.3,-1.1 9,-2.8 12.1,1 1,1.3 -0.9,7.2 -2.9,8.3 -4.1,2.2 -9.3,3 -13.7,-1.7 z"
   class="st0" />
		<path
   id="path11446"
   d="m 187.2,142.7 c 4,7.6 11.4,1.4 17.4,4.8 -3.9,2.1 -13.3,3.3 -2.5,10.9 -6.1,-6.2 -15.7,-6.3 -16.1,-15.7 0,0 -0.4,0.4 -0.4,0.4 0.7,0.4 1.4,0.4 2.1,0 -0.1,0 -0.5,-0.4 -0.5,-0.4 z"
   class="st0" />
		<path
   id="path11448"
   d="m 93.1,208.1 c 0.7,2.6 2.4,5.7 -2,6.5 -4.3,0.7 -7.4,-1.4 -8.2,-5.7 -0.3,-1.6 0.1,-4.6 1.2,-5.1 4.9,-2.6 6.8,2 9.5,4.7 z"
   class="st0" />
		<path
   id="path11450"
   d="m 118.3,246.1 c -3.8,0.2 -6.4,-2.1 -6.8,-5.3 -0.5,-4.3 3.5,-2.9 5.9,-3.2 3.6,-0.5 6.9,1.3 7.2,4.4 0.1,2 -3,4.4 -6.3,4.1 z"
   class="st0" />
		<path
   id="path11452"
   d="m 188.2,206 c -5.3,-1.8 -10.9,-4 -8.5,-11.2 1.9,-5.5 6.4,-2.5 11.3,-2.2 -11.2,3.5 0.8,9.8 -3.3,13.8 z"
   class="st0" />
		<path
   id="path11454"
   d="m 96.9,126.4 c -0.6,3.5 -3.4,3 -5.4,2.7 -4.1,-0.7 -6.2,-3.4 -6,-7.7 0.1,-2.1 1.1,-4 3.1,-3.3 3.9,1.4 6.7,4.4 8.3,8.3 z"
   class="st0" />
		<path
   id="path11456"
   d="m 93.5,208.5 c 2.7,-4.7 7.1,-6.4 11.9,-5 5.1,1.5 -2.8,5.2 0.8,7.7 1.7,1.2 2,3.3 -1.1,3.4 -2.3,0.1 -5.9,0.4 -6.6,-0.8 -1.5,-2.3 2.9,-1.5 2.9,-2.7 -0.1,-7.9 -6.5,0.9 -8.3,-3.1 0,0.1 0.4,0.5 0.4,0.5 z"
   class="st0" />
		<path
   id="path11458"
   d="m 177.3,210.8 c -1.1,-2.9 0.1,-5 2.9,-4.2 3.2,0.8 5.3,3.5 5,7.3 -0.2,2.9 1.3,7.1 -4.2,6.6 -7.8,-0.8 3.3,-8.8 -3.7,-9.7 z"
   class="st0" />
		<path
   id="path11460"
   d="m 192.9,258.2 c -4.5,4 -9.3,6.7 -15.1,4.1 -0.6,-0.3 -0.9,-2.8 -0.3,-3.5 5,-6.4 10.2,1.1 15.4,-0.6 z"
   class="st0" />
		<path
   id="path11462"
   d="m 203.9,129.2 c -5.7,0.3 -4.5,-3.9 -4.3,-6.9 0.2,-2.8 -2,-7.3 3.7,-7.3 1.2,0 2.3,0.6 3.5,1 -3.2,3.9 -1.5,7.6 -0.2,11.7 0.8,2.1 -1.8,1.1 -2.7,1.5 z"
   class="st0" />
		<path
   id="path11464"
   d="m 26.4,52.2 c 9.4,0.8 18,-3.7 16.3,8.4 -0.5,3.4 -3.5,3.9 -5.1,2.9 -5.8,-3.5 2.2,-2 1.6,-3.9 -1.3,-4.9 -6.4,-3.7 -12.8,-7.4 z"
   class="st0" />
		<path
   id="path11466"
   d="m 107.1,188.3 c 4.4,-1.6 6.4,-2.3 10.3,-3.6 -4.8,-1 -8,-1.6 -11.1,-2.2 4.5,1.1 10.5,-7.3 13,-0.3 2.9,8.1 -4,7.2 -12.2,6.1 z"
   class="st0" />
		<path
   id="path11468"
   d="m 173,206 c 1.9,6.9 1.4,11.4 -5,13.3 -2.4,0.7 -4.4,-1.2 -4.3,-2.2 0.5,-5 5.2,-6.8 9.3,-11.1 z"
   class="st0" />
		<path
   id="path11470"
   d="m 95.6,263.8 c 3.2,-4.1 -3,-12.6 6.3,-11.8 7,0.7 2.3,6.4 3.5,11.1 -4.7,-10.5 -6.6,-2.6 -9.8,0.7 z"
   class="st0" />
		<path
   id="path11472"
   d="m 106,176.9 c 7.7,-5.7 -7.9,-8 -1.1,-13.1 1,-0.8 4.6,-0.3 5,0.6 2.2,4.4 2.4,8.9 -3.9,12.5 z"
   class="st0" />
		<path
   id="path11474"
   d="m 129.4,246.1 c 3.1,-0.4 4.8,0.9 4.5,4.6 -0.2,2.8 -1.1,4 -4.1,4 -3.3,0.1 -6.2,-1.8 -6.4,-4.1 -0.2,-2.3 2.6,-4.4 6,-4.5 z"
   class="st0" />
		<path
   id="path11476"
   d="m 185.3,242.5 c -0.5,2.6 1.2,6.5 -3.3,6.1 -2.6,-0.3 -5.2,-2.5 -5,-5.6 0.2,-2.9 2.4,-5.1 5.3,-5.3 3.5,-0.1 2.7,2.9 3,4.8 z"
   class="st0" />
		<path
   id="path11478"
   d="m 259.2,160.9 c 0,-1.2 0,-2.3 0,-3.5 -1.1,-5.2 4.8,-2.9 6,-5.6 0,0 -0.4,0.3 -0.4,0.3 5.7,2.3 3.5,7.3 1.9,10 -1.3,2.5 -5.4,2.6 -7.5,-1.2 z"
   class="st0" />
		<path
   id="path11480"
   d="m 256.3,117 c 4.7,4.4 8.9,5.8 8.3,10.4 -0.3,2.3 -2.9,2.1 -4.6,1.8 -7,-1.6 -2.2,-6.8 -3.7,-12.2 z"
   class="st0" />
		<path
   id="path11482"
   d="m 149.5,210.5 c -0.8,-3.7 -4.2,-8 2.2,-9.9 1.5,-0.4 4.8,-0.6 4.4,1.6 -0.6,3.6 0.2,9.3 -6.6,8.3 l -1.3,-0.1 z"
   class="st0" />
		<path
   id="path11484"
   d="m 187.8,206.5 c 11,-1.6 -1,11.5 7.6,12.1 0.6,0 -1.9,2 -3.4,1.8 -6.5,-0.5 -3.1,-5.6 -3.8,-8.7 -0.4,-1.8 0,-3.8 0.1,-5.7 -0.1,0 -0.5,0.5 -0.5,0.5 z"
   class="st0" />
		<path
   id="path11486"
   d="m 79.8,94.6 c -2.9,0 -6.6,2.3 -8.3,-1.8 -0.6,-1.4 -0.3,-4.4 0.7,-5.1 2.6,-1.9 5.8,-2.5 7.8,1.3 1.6,1.9 1.3,3.8 -0.2,5.6 z"
   class="st0" />
		<path
   id="path11488"
   d="m 268,195.1 c -0.1,-0.9 -0.1,-1.8 -0.1,-2.7 4.4,-1.2 8.4,-0.6 10.9,3.6 0.5,0.9 0.2,3.3 -0.5,3.7 -5.1,2.7 -6.1,-4.7 -10.3,-4.6 z"
   class="st0" />
		<path
   id="path11490"
   d="m 215.2,105.2 c 2.4,-3.7 3.2,-3.8 13.8,-2.1 -4.6,5 -9.2,3.6 -13.9,2 z"
   class="st0" />
		<path
   id="path11492"
   d="m 247.9,94.6 c -4.5,1.5 -6.9,-1.1 -8.3,-4.7 -0.7,-1.9 0.7,-3.1 2.9,-3.4 4.2,-0.5 5.8,1.3 5.5,5.4 1,0.6 1.3,1.3 0.9,1.8 -0.3,0.6 -0.6,0.9 -1,0.9 z"
   class="st0" />
		<path
   id="path11494"
   d="m 132.5,204.9 c 3.4,3.1 3.2,8.8 8,10.7 l -0.4,-0.4 c -4,6 -6.8,-1.5 -10.4,-0.9 1,-3.1 2,-6.1 3,-9.3 0,0.1 -0.2,-0.1 -0.2,-0.1 z"
   class="st0" />
		<path
   id="path11496"
   d="m 111.6,227.9 c 5.2,-3.4 9.7,-6.6 15.7,-3.5 -4.3,3.5 -8.7,6.1 -15.7,3.5 z"
   class="st0" />
		<path
   id="path11498"
   d="m 216.7,129.1 c -3,-0.6 -5,-2.4 -5.6,-5.3 -0.5,-2.2 1.2,-3 3.3,-3.1 3.3,-0.2 5.4,0.7 5,4.5 -0.2,1.8 0,3.8 -2.7,3.9 z"
   class="st0" />
		<path
   id="path11500"
   d="m 178.7,233.6 c -3.5,1.6 -7,2.1 -10.1,-0.4 -0.4,-0.3 0.2,-3.2 0.9,-3.5 4.1,-1.6 7.4,-0.6 9.2,3.9 z"
   class="st0" />
		<path
   id="path11502"
   d="m 40.2,189.2 c -2.6,-0.2 -4.9,-0.7 -6.2,-3.3 3,-4.4 7.1,-3.2 10.3,-1.1 1,0.7 -2,3.4 -4.1,4.4 z"
   class="st0" />
		<path
   id="path11504"
   d="m 191.3,237.8 c -2.6,3.7 5.4,7.2 0.5,10.8 -0.6,0.4 -2.4,0.3 -2.5,0 -1.5,-3.7 -2.3,-7.5 2,-10.8 z"
   class="st0" />
		<path
   id="path11506"
   d="m 124.1,256.2 c -4.3,1.4 -8.6,3.3 -12.4,-0.8 -0.4,-0.4 -0.2,-2.2 0.3,-2.5 5.3,-3.6 8.2,1.5 12,3.4 z"
   class="st0" />
		<path
   id="path11508"
   d="m 110.3,125.6 c -3.5,0.7 -7.2,2.3 -10.2,-1.1 -0.4,-0.4 0.6,-3.3 1.3,-3.4 4,-0.9 7.7,-0.5 8.9,4.5 z"
   class="st0" />
		<path
   id="path11510"
   d="m 133.9,232 c -1.1,3.4 -3.6,2.8 -5.7,2.6 -2.2,-0.2 -3.4,-2.2 -2.4,-3.8 0.7,-1.1 3.1,-1.4 4.8,-1.7 2.1,-0.3 3.1,1.1 3.3,2.9 z"
   class="st0" />
		<path
   id="path11512"
   d="m 126.9,208.8 c -5.6,-0.9 -1,4.9 -3.6,5.6 -3.6,0.9 -3.4,-1.9 -3.5,-4.2 -0.1,-2.9 1.2,-4.3 4.2,-3.9 1.5,0.1 3.8,-0.5 2.9,2.5 z"
   class="st0" />
		<path
   id="path11514"
   d="m 247.9,94.6 c 0,-0.9 0.1,-1.8 0.1,-2.7 3.7,0.8 4.2,-6.7 8.8,-3.4 0.7,0.5 1.1,1.4 1.6,2.2 -3.3,1.6 -5.9,5.4 -10.5,3.9 z"
   class="st0" />
		<path
   id="path11516"
   d="m 176.7,252.1 c -1.2,3.3 -3.7,2.7 -5.9,2.4 -2.2,-0.2 -3.3,-2.2 -2.2,-3.8 0.8,-1.1 3.1,-1.4 4.8,-1.6 2.3,-0.3 3,1.3 3.3,3 z"
   class="st0" />
		<path
   id="path11518"
   d="m 215.1,105.1 c 2,6.1 8.3,2.8 11.6,5.9 -4.3,-1 -12.6,6.9 -11.5,-5.8 0,0 -0.1,-0.1 -0.1,-0.1 z"
   class="st0" />
		<path
   id="path11520"
   d="m 42.9,137.5 c 5.1,0.2 10.3,0.5 15.4,0.7 0,0.6 0.1,1.2 0.1,1.8 -5.2,0.3 -10.3,0.6 -15.5,1 0,-1.2 0,-2.4 0,-3.5 z"
   class="st1" />
		<path
   id="path11522"
   d="m 68.8,96 c -3.6,-3.9 -8,-2.4 -8.7,-6.4 -0.2,-0.8 1.3,-2.8 2,-2.8 3.8,0.1 5.7,2.5 6.7,9.2 z"
   class="st0" />
		<path
   id="path11524"
   d="m 123.9,256.3 c 3.4,14.2 -7.7,3.4 -10.6,6.7 2.1,-4.7 9.5,-0.5 10.7,-6.7 0.1,-0.1 -0.1,0 -0.1,0 z"
   class="st0" />
		<path
   id="path11526"
   d="m 38.8,233.9 c -3.3,0.8 -6.6,1.6 -11,2.6 2.7,-7 7.1,-3.9 11,-2.6 z"
   class="st0" />
		<path
   id="path11528"
   d="m 201.4,175.8 c -2.5,-6.1 -2.5,-10 -0.7,-14.4 2.8,4 1.6,7.8 0.7,14.4 z"
   class="st0" />
		<path
   id="path11530"
   d="m 79.8,94.6 c 0,-1.9 0.1,-3.7 0.1,-5.6 2.7,0.5 4,-4.2 8.2,-1.2 -2.5,2.7 -4.2,5.8 -8.3,6.8 z"
   class="st0" />
		<path
   id="path11532"
   d="m 48.4,69.2 c -3.8,6.1 -9.4,2 -14.2,2.6 0,-0.9 0.1,-1.8 0.1,-2.7 4.8,-1.4 9.7,-2.2 14.4,0.5 z"
   class="st1" />
		<path
   id="path11534"
   d="m 149.9,159.9 c -5.7,-2.2 -4.7,-5.7 -3.6,-11.2 1.7,4.9 2.7,8 3.6,11.2 z"
   class="st0" />
		<path
   id="path11536"
   d="m 231.3,86.6 c 3.4,-0.3 5.5,0.3 5,3.3 -0.1,0.8 -2.3,2.2 -2.7,2 -1.8,-1.1 -3.3,-2.7 -4.9,-4.1 1.1,-0.5 2.2,-1 2.6,-1.2 z"
   class="st0" />
		<path
   id="path11538"
   d="m 140.6,215.7 c -1.8,-3.5 -0.9,-6.5 2.4,-8.2 3,-1.6 4.1,2.4 6.5,3 0,0 0,-0.1 0,-0.1 -3.1,1.6 -6.3,3.2 -9.4,4.8 0.1,0.1 0.5,0.5 0.5,0.5 z"
   class="st0" />
		<path
   id="path11540"
   d="m 48.7,69.6 c -4.8,-0.2 -9.6,-0.3 -14.4,-0.5 5,-4 9.8,-4.6 14.4,0.5 z"
   class="st0" />
		<path
   id="path11542"
   d="m 116.8,215.6 c 0.1,2.3 0.2,5 -3,4.7 -3,-0.3 -1.3,-2.1 -0.5,-3.6 0.8,-1.4 -3.5,-3.8 0.6,-4.6 2.1,-0.4 3,1.4 2.9,3.5 z"
   class="st0" />
		<path
   id="path11544"
   d="m 258.4,74.2 c 6.1,-2.5 10,-2.5 14.4,-0.7 -4,2.8 -7.8,1.6 -14.4,0.7 z"
   class="st1" />
		<path
   id="path11546"
   d="m 216.9,224.2 c 3.8,-0.9 7.1,-2 10.1,0.6 0.1,0.1 -0.7,1.7 -1.3,2.1 -3.9,2.6 -5.7,-1.4 -8.8,-2.7 z"
   class="st1" />
		<path
   id="path11548"
   d="m 225.9,140.1 c -3.5,0 -7.1,0 -12.9,0 6.1,-3.5 10.1,-1.8 12.9,0 z"
   class="st1" />
		<path
   id="path11550"
   d="m 206.6,80.1 c 4.2,-1.8 4.1,-10.5 11.3,-7.3 2.3,1 -2.4,3.8 0.5,5.4 -3.3,5.3 -7.8,1.7 -11.8,1.9 z"
   class="st1" />
		<path
   id="path11552"
   d="m 265.3,151.9 c 0.2,4.2 -5.7,1.9 -6,5.6 -2.2,0.2 -4.8,1.1 -5.4,-2.1 -0.4,-2.2 1.2,-3.1 3.2,-3.2 2.7,-0.2 5.4,-0.3 8.2,-0.3 z"
   class="st1" />
		<path
   id="path11554"
   d="m 58.1,134.9 c -3.8,-0.2 -7.6,-0.4 -13.8,-0.7 6.4,-2.7 10.3,-2.6 13.8,0.7 z"
   class="st1" />
		<path
   id="path11556"
   d="m 155.4,170.6 c 4.4,-3.4 8.9,-6.4 14.9,-3.1 -4,6.5 -9.4,4.9 -14.9,2.9 0.1,0.1 0,0.2 0,0.2 z"
   class="st1" />
	</g>
</g>
</svg>
