<?xml version="1.0" encoding="UTF-8" standalone="no"?>
<svg
   xmlns:dc="http://purl.org/dc/elements/1.1/"
   xmlns:cc="http://creativecommons.org/ns#"
   xmlns:rdf="http://www.w3.org/1999/02/22-rdf-syntax-ns#"
   xmlns:svg="http://www.w3.org/2000/svg"
   xmlns="http://www.w3.org/2000/svg"
   xmlns:sodipodi="http://sodipodi.sourceforge.net/DTD/sodipodi-0.dtd"
   xmlns:inkscape="http://www.inkscape.org/namespaces/inkscape"
   inkscape:version="1.0 (4035a4f, 2020-05-01)"
   height="239.01886"
   width="179.10698"
   sodipodi:docname="dolphin-hauriant.svg"
   xml:space="preserve"
   viewBox="0 0 179.10698 239.01886"
   y="0px"
   x="0px"
   id="Layer_1"
   version="1.1"><metadata
   id="metadata13907"><rdf:RDF><cc:Work
       rdf:about=""><dc:format>image/svg+xml</dc:format><dc:type
         rdf:resource="http://purl.org/dc/dcmitype/StillImage" /><dc:title></dc:title></cc:Work></rdf:RDF></metadata><defs
   id="defs13905" /><sodipodi:namedview
   inkscape:current-layer="Layer_1"
   inkscape:window-maximized="0"
   inkscape:window-y="25"
   inkscape:window-x="0"
   inkscape:cy="126.275"
   inkscape:cx="84.039039"
   inkscape:zoom="2.52"
   fit-margin-bottom="0"
   fit-margin-right="0"
   fit-margin-left="0"
   fit-margin-top="0"
   showgrid="false"
   id="namedview13903"
   inkscape:window-height="480"
   inkscape:window-width="820"
   inkscape:pageshadow="2"
   inkscape:pageopacity="0"
   guidetolerance="10"
   gridtolerance="10"
   objecttolerance="10"
   borderopacity="1"
   bordercolor="#666666"
   pagecolor="#ffffff" />
<style
   id="style13776"
   type="text/css">
  .st0{fill:#FFFFFF;}
  .st1{fill:#000000;}
</style>
<g
   transform="translate(-65.960961,-73.725)"
   id="g13900">
	<g
   id="g13898">
		<path
   id="path13778"
   d="m 105.1,129 c -3.2,-4.4 -7.5,-4.7 -11.4,-5.9 -1.2,-0.4 -2.5,-0.8 -3.7,-1 -2.3,-0.3 -4.3,-1.6 -3.8,-3.6 0.6,-2.4 3.3,-3.2 5.8,-2.5 5.5,1.6 10.9,3.4 17,5.3 -3.3,-5.8 -8,-7.8 -13.5,-8.4 -8.9,-0.9 -17.4,-3.1 -25.1,-7.9 -1.7,-1.1 -3.9,-1.8 -3.3,-4.2 0.6,-2.3 2.5,-3.2 5,-3 2.7,0.2 5.4,0.3 8,0 4.4,-0.5 8.4,-1.7 10.7,-6.3 2.9,-5.7 7.9,-9 13.9,-10.6 10,-2.7 20,-4.2 30.4,-2.2 6.6,1.3 12.4,-2.8 18.7,-4.3 4.1,-1 8.3,-0.7 12.3,-0.3 1.4,0.1 6,0.6 2.6,4.6 -1.1,1.3 0.4,1.7 1.4,2.1 4.7,1.9 9.5,3.7 14.2,5.8 3.9,1.8 3.9,2 2.4,6.2 -0.5,1.4 0.6,1.7 1.1,2.1 7.2,5.3 9.2,13.6 11.8,21.3 1.6,4.8 -3.6,1 -4.9,3.3 1.7,4.9 3.5,10.4 5.6,15.9 0.6,1.7 1.9,3.1 -1.1,3.4 -1.5,0.2 -1.3,1.4 -1.2,2.2 1.2,9.6 -3.8,17.5 -7.5,25.7 -0.2,0.4 -0.5,0.9 -0.6,1.4 -0.3,8.4 -7.5,12.5 -11.3,18.6 -1.4,2.3 -3,4.6 -2.7,7.7 0.3,2.8 -1.4,4.2 -4.2,4.4 -5.7,0.4 -9.1,3.9 -10.7,9 -1.1,3.6 -2.9,5 -6.7,6.4 -4.9,1.7 -10.7,4.1 -11.5,11.1 -0.3,2.9 -1.8,5.2 -5.7,5.6 -4.2,0.4 -6.5,4.1 -8.3,7.6 -2.3,4.4 -4.8,8.5 -8.7,11.6 -7.1,5.7 -6.6,13.5 -5.8,21.2 0.8,9.2 7.4,13.2 15.2,16.4 12.5,5.1 23.7,4 33.6,-5.5 7,-6.7 8.4,-16.8 3.7,-26.1 -3.4,-6.7 -5.5,-13.7 -5.8,-21.3 -0.3,-7.4 2.7,-13.5 6.8,-19.2 1.5,-2.1 3.4,-3.9 3.2,-6.8 -0.2,-2.2 1.3,-3.7 3.1,-3.8 1.9,-0.1 2.6,2.3 2.7,3.6 0.3,4.1 1,8.5 -0.1,12.4 -1.2,4.2 -0.4,7.1 2.6,9.5 3.1,2.5 3.4,5 0.6,7.8 -1,1 -1,1.7 -0.2,2.9 3.5,5.1 7.4,9.6 14.3,9.6 2.2,0 4.5,-0.5 3.9,3.1 -0.3,1.8 0.8,2.6 2.5,3.1 4.3,1.3 8.2,4.5 13.2,1.1 2.2,-1.5 4.5,0.3 6.4,2.2 3.8,4 10.2,2.9 13.1,-2.1 1.9,-3.2 2.7,-7.1 6.2,-9.1 1.2,-0.7 2.6,-2.2 4.5,-0.9 1.7,1.3 1.3,3.1 1,4.6 -2.6,16.3 -19,30.2 -36.1,30.2 -9.8,0 -18.1,5.2 -25.3,11.8 -10.4,9.6 -22.5,15.2 -36.6,17.2 -14.2,2 -27.7,0 -40.1,-6.4 C 95.3,299.8 87,290 82,277.7 c -1.2,-3 -2.6,-5.5 -5.2,-7.7 -3.8,-3.2 -5.1,-8.1 -4.8,-13.2 0.2,-2.4 0.2,-4 -3.2,-3.9 -2.9,0.1 -3.6,-1.7 -2,-4.3 1.2,-2 2,-3.7 0.5,-6.7 -1.9,-3.8 0.9,-8.1 2.3,-12.1 0.4,-1.3 1.8,-2.4 -0.6,-3.6 -2.1,-1 -0.9,-2.9 0,-4.2 1.2,-1.7 2.7,-3.3 3.9,-5 1.6,-2.2 3.7,-4.1 -0.5,-6.4 -2.9,-1.6 0.2,-6.7 5,-8.7 4.7,-2 9.5,-2.3 14.4,-1.9 2.5,0.2 4.4,-0.4 6.1,-2.3 8.1,-8.7 17.6,-15.7 26.4,-23.6 4.7,-4.2 9,-8.6 10.9,-15.2 2.6,-9.3 -1.7,-14.8 -9,-17.7 -7,-2.8 -14.7,-4 -22.3,-4 -7.1,0 -13.9,-0.7 -20.4,-3.9 -1.5,-0.7 -2.9,-1.3 -2.5,-3.1 0.4,-1.8 1.7,-2.8 3.8,-3.2 4.5,-0.8 8.2,2.1 12.5,2.1 2.4,-0.1 4.7,-0.1 7.8,-0.1 z"
   class="st1" />
		<path
   id="path13780"
   d="m 132.6,170.4 c 1,-1.8 1.8,-3.8 3,-5.5 5.8,-7.8 5.3,-20.2 -6.2,-25.3 -1.8,-0.8 -4.1,-1.1 -5.2,-3.6 2.6,-0.3 4.9,-0.6 7.3,-1 4.5,-0.8 4.1,-3.6 3.7,-6.6 -0.3,-2.2 -1.3,-4.3 -1.3,-6.7 0.2,-5.3 -2,-7 -8.2,-6.5 3.5,2 8,2.9 6,8.2 -1.3,0.2 -1.6,-2.1 -3.4,-1.4 -0.1,0.3 -0.3,0.9 -0.2,1.2 1.3,1.8 2.7,3.7 4.2,5.4 1.2,1.3 0,2 -0.3,3 -0.4,1.5 -1.1,0.9 -2.1,0.8 -1.9,-0.2 -3.9,1.3 -5.3,-1.3 -0.4,-0.7 -1.3,-0.3 -1.6,0.8 -0.9,3.3 -4.9,4.5 -8.8,2.6 1.9,-1.8 4.5,-2.7 5.7,-5.3 4.2,-8.4 -0.4,-15.5 -9.7,-16.6 -12.8,-1.4 -25.8,-2.4 -37.2,-9.4 -1,-0.6 -3.1,-0.6 -2.5,-2.4 0.4,-1.5 2.2,-1 3.5,-1.2 7.1,-1 13.5,1.5 19.7,4.4 2.7,1.2 5.1,2 8.4,1.3 -4.2,-1.8 -8.2,-3.4 -12,-5.3 -0.4,-0.2 -2,0.1 -1.5,-1.1 0.3,-0.9 1.1,-1.6 2.4,-0.9 4,2.1 7.9,4.4 12.5,4.9 0.4,0 0.7,1 0.9,1.5 3.2,7.2 9.6,8.7 16.1,7 4.1,-1.1 7.4,-3.6 11.5,1.8 -0.7,-4.9 -5,-5.2 -5.5,-9 -0.2,-1.4 -2.3,1.2 -2.7,2.5 -1.4,4.3 -4.9,3 -7.8,3 -3,0 -4.7,-2 -5.6,-4.6 -0.4,-1 -0.7,-2.5 0.4,-3.2 1.6,-1.1 3.5,-1.8 5.4,-2.7 0.1,0 0.5,0.4 0.6,0.7 0.4,1.2 -0.7,0.6 -1.1,0.9 -1.7,1.4 -3.3,3.1 -2.1,5.5 0.8,1.7 2.3,2.7 4.5,2.5 2.5,-0.2 3.9,-1.4 4.3,-3.9 0,-0.2 -0.1,-0.4 0,-0.5 2.3,-3.8 6.2,-1.9 8.7,-1.3 2.7,0.6 7.3,-0.3 8,4.3 0.1,0.9 -1.6,2.1 0.6,2.3 1.6,0.2 2.5,-0.7 2.7,-2.3 0.5,-3.2 -2.1,-4.1 -4.1,-5.4 -3.8,-2.2 -8.5,-0.2 -12.3,-2.4 -6,-3.4 -11.6,-2.9 -17.9,-0.2 -3.5,1.4 -8,0.6 -11.9,-1.4 -4.7,-2.4 -5.1,-4.9 -1.2,-8.5 5.4,-4.9 11.9,-8.1 18.9,-8.7 14.1,-1.2 27.8,0.5 40.2,8.7 13.7,9 22.2,21.7 25.8,37 3.1,12.8 1.6,25.9 -4.1,38.6 -6.5,14.5 -15.2,27 -26.4,38.2 -8.8,8.7 -17.5,17.5 -25.6,26.7 -6.2,7 -10.6,15.4 -14.3,23.9 -0.4,0.9 -0.2,2.4 -1.6,1.5 -1.6,-1.1 -2.7,-0.6 -3.1,0.7 -0.2,0.5 1.3,2.1 2.2,2.3 3.1,0.8 0.7,2.7 1.2,3.9 -2.1,0.9 -0.9,-3.3 -3,-1.8 -2.1,1.5 0.2,2.4 0.9,3.5 0.7,1 2.3,1.5 2.2,3.2 -1.4,0.8 -1.5,-1.6 -3.2,-0.8 2.8,3.3 3.1,7.6 5.9,11.5 6.7,9.5 16.5,11.3 26.2,14.1 14.5,4.1 33,-6.3 35.5,-21.9 0.9,-6.1 -0.8,-10.7 -3,-15.6 -3.9,-8.8 -6.7,-17.8 -4.4,-27.7 1,-4.2 3.7,-7.5 5.8,-11 1.5,-2.5 2.5,-4.9 2.4,-8 2.7,1.7 2.2,3.3 1,5.5 -2.8,5 -6.3,9.8 -7.5,15.5 -1,4.6 0.3,9.1 2.2,13.6 -1.8,-10 0.6,-18.9 6,-27.3 0.3,1.9 0.4,3.5 -0.5,5.3 -2.3,4.5 -0.6,8.4 2.6,11.8 0.7,0.7 2.4,1.2 1.6,2.6 -4.7,8.5 -2.4,17.1 -0.4,25.7 1.6,6.8 0.2,13 -3.1,19.6 1.8,-0.7 3.3,-0.6 3.7,-2.5 3.5,-1.7 5,-5 6.9,-8 2,-3.1 3.4,-6.4 6.1,-9 -5.2,5 -6.7,12.8 -12.9,17.1 -2.5,-2.3 1.1,-3 1.4,-4.7 1.3,-6.1 0.8,-11.9 -1.1,-17.7 -1.1,-3.2 -1.6,-6.6 -0.8,-10.6 4.4,4.8 8.6,9.2 15.5,8.3 0.6,-0.1 1.5,0.7 1.9,1.4 3.7,6.5 10.9,9.4 17.9,6.5 2.5,-1 3.3,1 5.1,1.7 -8.7,-0.5 -13.4,5.4 -18.8,11 2.5,0.7 3,-1.6 4.3,-2.4 1.3,-0.9 2.6,-2 3.9,-2.9 4.1,-2.8 8,-5.2 13.5,-2.6 4.1,1.9 12.2,-2.4 14.2,-6.5 1.5,-3.2 2.7,-6.6 6.7,-8.5 -2.8,13.7 -10.5,23 -23,27.9 -6.6,2.6 -14.2,0.9 -21.1,3.2 -3.1,1.1 -5.8,2.6 -8.6,4.2 -5.8,3.3 -11.7,6.6 -17.5,9.9 -0.4,0.2 -1.6,-0.1 -0.7,0.9 0.3,0.4 1.2,0.3 2.2,0.5 -2.6,1.6 -5.5,-1.5 -7.4,1.4 1.3,0.1 2.7,0.2 5.1,0.5 -4.6,3.3 -9.1,1.1 -13.1,2 0.4,1.5 1.6,0.7 2.3,0.7 1.6,0 -0.2,2.6 1.7,2.2 0.1,1.5 -1.3,0.4 -1.6,0.9 -1.5,2.4 -4.6,1.3 -6.6,2.8 -0.3,0.2 -3.5,1.8 -2.5,-1.8 0.4,-1.4 -1.2,-1.1 -2,-0.3 -1,1 -1.8,2.2 -2.8,3.5 -1.1,-2.3 1.2,-3.3 1.6,-5 -1.8,0 -3.5,0 -5.6,0 2.5,1.6 0,3.5 0.8,5.3 0.2,0.5 -1,0.6 -1.6,0.6 -1.7,-0.1 -0.5,-1 -0.3,-1.5 1,-4.1 -2.9,-3.3 -4.7,-4.2 -1.2,-0.7 -1.4,1.2 -1.1,1.9 0.7,1.3 1.8,2.3 2.7,3.5 -1.4,0.8 -2.6,0.4 -3.5,-0.8 -0.2,-0.3 -0.3,-0.6 -0.3,-0.9 -0.2,-3.1 -2.7,-3.5 -4.8,-3.8 -1.8,-0.2 -1.7,1.3 0.6,2.8 0.7,0.4 1.4,0.6 1.8,1.4 -4.3,0.9 -4.3,0.9 -10.2,-6.1 -1.3,1.9 0.5,3.6 0.5,5.7 -5.3,-0.4 -3,-8.3 -8.6,-7.8 -1.5,2.2 1.2,3.3 2.2,5.5 -3.2,0 -5.6,-1.1 -7.1,-3 -1.5,-2 2,-2.6 2.2,-4.3 -2.1,-1.1 -4.7,-3.2 -4.4,1.8 0.1,1.4 -1,1.8 -2.1,0.8 -8.5,-7.6 -16.5,-15.1 -20,-27 -2,-6.6 -2.8,-13.2 -2.9,-19.6 -0.5,-19.8 6.1,-37.8 17.3,-53.9 5.4,-7.8 13.7,-13.3 21.2,-19.2 3.9,-3.6 7.1,-8.1 11.6,-11 0.8,-0.1 1.4,0 2.1,0.1 -0.8,-0.1 -1.4,-0.2 -2.1,-0.1 z"
   class="st0" />
		<path
   id="path13782"
   d="m 179.4,116.2 c 2.9,1.1 5.5,2.1 8.5,2 2,-0.1 3.3,1.7 4.1,3.6 1.9,5 3.8,10 6.1,16 -4.1,-3 -7.6,-5.4 -12.4,-6.9 11.1,10.2 12,14.4 5.9,26 -1.2,-2 -0.9,-5 -4.7,-5.9 3,5.4 4.4,10.3 0.6,15.4 -0.9,1.2 -0.4,3.5 -0.5,5.3 0,1.2 0.1,2.7 -1.2,3 -1.8,0.5 -1.8,-1.5 -2.3,-2.5 -0.8,-1.7 -1.3,-3.6 -1.9,-5.4 -1.5,2.4 -2.1,4.3 0.1,7.3 2.3,3.1 -1.1,6.3 -3,8.6 -2.9,3.6 -6.2,6.8 -5.8,11.9 0.1,0.9 -0.1,1.5 -1.3,1.7 -7.7,0.9 -12,5.5 -14.1,12.6 -0.2,0.7 -0.1,2.6 -2,2.2 -0.4,-2.6 2.4,-4.9 1,-7.7 -2.6,1.6 -1.6,5 -3.2,6.7 -2.4,2.6 -5.3,4.9 -8.2,7 -1.1,0.8 -2.8,1.5 -2.9,2.5 -1.2,8 -10.1,8.9 -13.5,14.5 -4.8,8.1 -12.4,14.1 -16,22.9 -1.1,2.8 -1.5,5.8 -2.3,9.1 -2.6,-8.1 2.4,-13.9 5.6,-19.9 6.8,-12.9 16.4,-23.7 27,-33.4 10.5,-9.6 19.8,-20 27.6,-31.8 8.8,-13.4 14.4,-27.9 13.2,-44.2 -0.5,-7.1 -0.4,-14.3 -4.4,-20.6 z"
   class="st0" />
		<path
   id="path13784"
   d="m 75.8,250.4 c 1.5,-0.2 1.3,-1.8 3,-2.1 0.6,6.5 -0.7,13 1.1,19.3 -3.7,-2.5 -5.1,-6.1 -4.8,-10.1 0.3,-4.5 -0.4,-7.6 -6.2,-6.6 1.1,-4.1 4.6,-6.1 6.2,-9.4 -1.2,-0.7 -2,-0.6 -3,-0.2 -3.2,1.2 -3.6,-0.8 -2.8,-3 1.1,-3.2 2.4,-6.3 4.1,-9.2 2.3,-3.9 2.5,-3.8 -2.4,-4.6 0.2,-2.5 2.3,-4.3 3.6,-5.4 5.1,-4.2 3.2,-7.3 -0.6,-10.6 5.4,-6.8 12.8,-6.4 20.6,-6.6 -3.3,9.8 -9.8,16.7 -18.8,21.4 3.8,-0.6 6.4,-3.2 9.9,-3.9 -0.3,6.7 -5.7,10.3 -9.6,14.9 -1.6,1.9 -2.7,3.8 0.6,6 -0.1,-3.9 1.3,-6.7 4.3,-9.8 -0.3,7.6 -0.2,14.3 -5.2,19.9 z"
   class="st0" />
		<path
   id="path13786"
   d="m 164.7,94.3 c 3.3,-0.9 3.8,4 6.9,2.3 -0.4,-1.1 -2.1,-0.7 -2.2,-2.4 2,-0.4 4,-1.1 6.2,-1.3 9.3,-1 12.2,6.6 16.5,12.4 2.4,3.3 2.5,7.6 4.9,11.4 -6.5,0.8 -12,-1.5 -17.6,-3.1 -0.8,-0.2 -1.7,-1.2 -2.1,-2 -2.8,-6.6 -6.7,-12.4 -12.6,-17.3 z"
   class="st0" />
		<path
   id="path13788"
   d="m 154.2,79.2 c 2.5,-0.1 5,-0.2 7.4,-0.4 -0.3,-2.8 -3.1,-1.1 -4.5,-2.7 2.3,0 4.4,-0.2 6.5,0.1 0.4,0.1 2.1,0.2 1.9,1.4 -1.1,5.8 3.9,5.7 7,7.2 4,1.9 8.5,2.5 13.4,6 -6.7,0 -11.9,0.3 -17.2,1 -3.6,0.5 -7,0 -9.8,-2.9 -4.3,-4.3 -10.3,-5.7 -15.9,-8.5 3.3,-1.1 6.3,-2 9.1,-3.2 2.6,-1.1 1.5,1.3 2.3,2 -0.3,0.2 -0.7,-0.3 -1,0.1 -0.1,0.1 0.1,0.1 0.4,-0.1 0.6,-0.2 -0.2,0.3 0.4,0 z"
   class="st0" />
		<path
   id="path13790"
   d="m 111.5,114.9 c 4.3,1 9.2,6.4 8.3,9.1 -1.1,3.3 -1.6,6.8 -6.7,8.3 -9.8,2.9 -18.6,1.8 -27.6,-1.9 5.9,-0.5 11.5,2.2 17.5,1.8 3.9,-0.3 7.4,-1.5 10.7,-2.7 6.2,-2.3 5.3,-9.4 -2.2,-14.6 z"
   class="st0" />
		<path
   id="path13792"
   d="m 90.4,118 c 7.7,2.5 15.5,5 23.2,7.6 -8.7,0.7 -15.5,-5.3 -23.9,-5.9 0.3,-0.5 0.5,-1.1 0.7,-1.7 z"
   class="st0" />
		<path
   id="path13794"
   d="m 154.1,149.1 c 3.3,2.6 3.8,6.2 3.8,9.8 0,3.8 1.4,6.7 4.9,9.3 -2.5,-6.3 -3.8,-12 4.3,-13.5 -5.5,-11.3 -15.7,-18.2 -25.1,-26.1 9.3,5.9 19.5,10.9 24.2,22.8 1.4,-4 4.1,-5 7.4,-4.8 -11,-1 -14.7,-12.3 -24.8,-15.3 3.3,-2.5 3.8,1.7 6.5,-0.1 -3.5,-3.7 -8.5,-4.8 -12.3,-8.1 10.3,0.1 13.8,8.7 19.5,15.5 -0.6,-4.4 -4,-11.2 -8,-16.1 7.2,3.3 10.3,8.7 11.2,14.8 0.7,4.9 3.1,6.4 7.2,6.7 0.5,0 1,0 1.5,0 1.7,0.1 3.2,1.5 3.1,2.5 -0.1,1 -1.5,2.5 -3.3,2.5 -3.6,-0.1 -7.4,-0.4 -3.5,5 0.9,1.2 -0.6,2.4 -2.3,3 -5.8,2.2 -6.1,2.9 -3.5,8.1 1.1,2.2 1,3.6 -0.8,5.1 -1.7,1.3 -3.4,1.3 -4.8,-0.3 -1.3,-1.4 -2.1,-2.1 -3.7,-0.2 -1.4,1.7 -2.8,3 -0.6,5 0.2,0.2 0.5,0.5 0.7,0.7 1.8,2 1.7,4 0.1,6.2 -1.8,2.6 -4.1,1.5 -5.5,0.1 -3.1,-2.9 -4.5,-1.3 -6.5,1.3 -4.3,5.5 -8.7,10.6 -14.7,14.8 -7.6,5.3 -13.2,13.1 -18.2,21.1 -4.8,7.8 -8.6,15.9 -10.7,25 -2.9,12.6 -1.2,24.4 6.1,34.7 5.2,7.1 13.5,10.9 22,13.4 4,1.2 8.1,2.2 12.2,2.9 5.5,0.9 10.7,-0.7 15.5,-2.9 6.4,-2.9 13.1,-5.6 18.6,-11.3 -1.6,4.3 -1.4,4.6 -10.3,9.2 -6.8,3.5 -13.5,8.2 -21.7,7.2 -13.4,-1.7 -26.6,-4.7 -36.6,-14.4 -5.6,-5.5 -8.4,-13.4 -9,-20.9 -1,-12.5 1.4,-24.9 7.6,-36.1 6.7,-12.1 15.2,-22.7 26.2,-31.2 5.6,-4.4 9.3,-10.6 13.9,-15.9 0.2,-0.2 0.6,-0.7 0.5,-0.8 -4.4,-6.6 0.7,-12.2 2.7,-17.5 2.7,-7.2 -0.2,-12.1 -3.3,-17.4 -1.3,-2.2 -3.1,-4.2 -5,-6 0.5,0.3 1.8,0 2.9,0.9 6.5,5.7 11.4,12.4 8.1,22.3 -1.2,3.5 -2.4,7 -3.7,10.4 -1.5,3.7 1.4,9.2 5.4,9.7 0.5,0.1 1.2,-0.4 1.6,-0.8 1.1,-1 -0.3,-1.3 -0.6,-1.8 -3.9,-5.4 -3.7,-5.3 1.4,-10 3.5,-3.2 0.1,-7.3 0.4,-10.9 0.7,-2.7 -0.4,-5.2 -1,-7.6 z"
   class="st1" />
		<path
   id="path13796"
   d="m 226.7,271.7 c -2.1,3.6 -5.8,4.4 -9.4,5.4 -5.6,1.6 -11.3,0.9 -16.9,0.5 6.4,-0.6 12.7,-1.5 19,-2.6 2.8,-0.5 4.3,-3.6 7.4,-3.2 z"
   class="st1" />
		<path
   id="path13798"
   d="m 178.9,277.9 c 5.5,-5.7 7.5,-13.9 13.8,-19.1 0.6,-0.5 1.2,-1.1 2.2,-1.5 -1.1,3.6 -4.7,5.5 -6.2,9.1 -1.5,3.8 -4.6,6.9 -7,10.3 -0.7,1 -1.7,1.6 -3,1 0,0 0.2,0.2 0.2,0.2 z"
   class="st1" />
		<path
   id="path13800"
   d="m 181.6,281 c 4.9,-3 11,-2.8 16,-6.3 0.2,2.2 -1.9,1.9 -2.3,3.1 1.1,0.2 2.2,0.3 4.8,0.7 -7,1.7 -12.8,1 -18.5,2.5 z"
   class="st1" />
		<path
   id="path13802"
   d="m 135.2,139.6 c 3.4,1.8 5.9,4.1 9.5,4.6 -5.7,1.9 -5.7,1.9 -9.5,-4.6 z"
   class="st1" />
		<path
   id="path13804"
   d="m 226.9,271.9 c 3,-2.8 5.9,-5.6 8.9,-8.5 -2.5,3.3 -4.1,7.5 -9,8.3 -0.1,0 0.1,0.2 0.1,0.2 z"
   class="st1" />
		<path
   id="path13806"
   d="m 89,273.8 c -0.8,3.2 5,0.6 3.4,4.2 -0.4,1 -1.6,1.3 -2.6,0.9 -2.3,-1 -2.1,-2.9 -0.8,-5.1 z"
   class="st1" />
		<path
   id="path13808"
   d="m 85.8,265.9 c 0.6,2.2 3.8,1.7 3.8,3.9 0,1 -1.8,1.6 -2.9,1.1 -2.3,-1.1 -1.9,-2.9 -0.9,-5 z"
   class="st1" />
		<path
   id="path13810"
   d="m 153.2,303.1 c 2.3,0 4.3,0 6.9,0 -2.6,1.5 -4.3,5 -6.9,0 z"
   class="st1" />
		<path
   id="path13812"
   d="m 100.8,289.3 c -2.5,4.1 -3.8,2.5 -5.1,-1.4 2,0.6 3.5,1 5.1,1.4 z"
   class="st1" />
		<path
   id="path13814"
   d="m 116.8,230.3 c 0.3,1.2 2.3,-1 2.2,1.2 -0.1,1.8 -1.3,1.4 -2.3,1.5 -1.2,0.1 -1.8,-0.3 -1.7,-1.6 0.1,-1.4 0.8,-1.5 1.8,-1.1 z"
   class="st1" />
		<path
   id="path13816"
   d="m 90,260.4 c -1.3,0.9 -1.5,3 -3.7,2.3 0.6,-1.2 -3,-2.4 -0.1,-3.7 0.6,2.1 2.4,0.8 3.8,1.4 z"
   class="st1" />
		<path
   id="path13818"
   d="m 95,94.1 c 0.6,-3.5 0.6,-3.5 5.5,-5.4 -2.1,2.5 -4.8,3 -5.5,5.4 z"
   class="st1" />
		<path
   id="path13820"
   d="m 86.5,251 c 1.2,-0.1 1.7,0.7 2.2,1.3 -0.8,0.6 -1.6,1.4 -2.5,1.6 -1,0.2 -2,-0.7 -1.8,-1.6 0.2,-0.8 1.1,-1.7 2.1,-1.3 z"
   class="st1" />
		<path
   id="path13822"
   d="m 164.9,102.4 c 0.2,1.3 -0.4,1.6 -1.3,1.6 -1.3,0.1 -1.7,-0.5 -1.6,-1.7 0.1,-1.1 0.8,-2.1 1.6,-2 0.7,0.1 1.7,1 1.3,2.1 z"
   class="st1" />
		<path
   id="path13824"
   d="m 97.5,283 c -3.1,3 -4.5,2.2 -5.8,-0.3 2.1,-1.3 3.4,0.9 5.8,0.3 z"
   class="st1" />
		<path
   id="path13826"
   d="m 147.9,201.2 c -1.5,2.5 -3.1,1.8 -6,1.1 2.6,-1.7 4.2,-1.3 6,-1.1 z"
   class="st1" />
		<path
   id="path13828"
   d="m 147.7,107.8 c -0.8,0.9 -0.6,2.7 -2.6,2.2 -0.9,-0.2 -1,-0.5 -0.5,-1.2 0.6,-0.9 1.2,-1.8 1.8,-2.7 0.6,0.5 1.4,0.7 1.3,1.7 z"
   class="st1" />
		<path
   id="path13830"
   d="m 106,293.6 c 0,1.3 -0.7,1.3 -1.3,1.4 -1.3,0.1 -2.1,-0.7 -2.6,-1.7 -0.2,-0.6 0.2,-1.4 1,-1.2 1,0.4 2,1.1 2.9,1.5 z"
   class="st1" />
		<path
   id="path13832"
   d="m 108.9,251.5 c -0.4,0.3 -1.3,1.2 -1.5,1.1 -0.8,-0.6 -1.5,-1.5 -2.2,-2.3 0.5,-0.4 1,-0.7 1.5,-1.1 0.4,1.1 2.5,0.3 2.2,2.3 z"
   class="st1" />
		<path
   id="path13834"
   d="m 114,238.1 c -0.3,1.2 -1.8,0.7 -2.3,1.6 -0.5,-0.5 -1.5,-1 -1.6,-1.5 -0.2,-1.6 1.2,-1.1 2.1,-1.2 0.8,0 1.7,-0.1 1.8,1.1 z"
   class="st1" />
		<path
   id="path13836"
   d="m 111.3,243.8 c -1.6,2.1 -2.5,3.7 -4.8,3.1 -0.3,-0.1 -0.3,-0.8 -0.5,-1.2 1.6,-0.6 3.2,-1.2 5.3,-1.9 z"
   class="st1" />
		<path
   id="path13838"
   d="m 146,301.6 c 0.1,1.5 -0.9,1.5 -1.9,1.4 -0.8,-0.1 -1.3,-0.6 -1,-1.2 0.4,-0.9 1,-1.8 2.1,-1.6 0.9,0 0.7,0.8 0.8,1.4 z"
   class="st1" />
		<path
   id="path13840"
   d="m 153,110.4 c -2.7,3.2 -3.5,0 -4.7,-1.4 1.5,0.5 2.9,0.9 4.7,1.4 z"
   class="st1" />
		<path
   id="path13842"
   d="m 128.1,220.5 c -0.7,0.5 -1.3,1.3 -2,1.4 -1,0.2 -1.8,-0.6 -1.8,-1.6 0,-0.5 1.2,-1.2 1.8,-1.2 0.6,0.1 1.3,0.9 2,1.4 z"
   class="st1" />
		<path
   id="path13844"
   d="m 132.8,215.3 c -1,1.8 -2.1,2.1 -3.4,1.3 -0.2,-0.1 -0.3,-1 -0.2,-1.2 1.1,-0.8 2.3,-0.4 3.6,-0.1 z"
   class="st1" />
		<path
   id="path13846"
   d="m 121.5,296.9 c 0.5,0.8 1.3,1.4 1.4,2 0.2,1.2 -0.9,1 -1.7,1 -0.8,0 -1.4,-0.4 -1.1,-1.1 0.2,-0.6 0.9,-1.1 1.4,-1.9 z"
   class="st1" />
		<path
   id="path13848"
   d="m 144,155.2 c -0.4,0.9 -0.9,1.7 -2,1.8 -0.9,0.1 -1.2,-0.7 -0.9,-1.3 0.3,-0.7 1,-1.3 1.7,-1.6 0.6,-0.3 1.2,0.2 1.2,1.1 z"
   class="st1" />
		<path
   id="path13850"
   d="m 122.6,225.2 c -0.3,1.8 -1.5,2 -2.9,1.7 -0.3,-0.1 -0.7,-0.9 -0.6,-1.1 0.9,-1.6 2.3,-0.6 3.5,-0.6 z"
   class="st1" />
		<path
   id="path13852"
   d="m 134,211.5 c 0.4,-0.3 1,-0.8 1.6,-1.3 0.4,0.5 1.2,1.1 1.1,1.4 -0.2,0.5 -0.9,1.1 -1.4,1.2 -0.8,0.3 -1.3,-0.1 -1.3,-1.3 z"
   class="st1" />
		<path
   id="path13854"
   d="m 109,238 c -0.1,0.9 -0.8,1 -1.4,1 -0.9,0 -1.7,-0.2 -1.4,-1.3 0.1,-0.3 1,-0.6 1.6,-0.7 0.6,0 1.2,0.2 1.2,1 z"
   class="st1" />
		<path
   id="path13856"
   d="m 142.8,160.7 c -1.1,0.4 -2.4,0.7 -3.3,0 -0.6,-0.4 0.3,-1.1 0.8,-1.4 1.5,-0.9 1.9,0.4 2.5,1.4 z"
   class="st1" />
		<path
   id="path13858"
   d="m 130,301.1 c -0.3,1.1 -1.2,0.9 -2,0.8 -0.8,-0.1 -1.2,-0.8 -0.8,-1.3 0.2,-0.4 1.1,-0.5 1.7,-0.6 0.6,0 1.1,0.4 1.1,1.1 z"
   class="st1" />
		<path
   id="path13860"
   d="m 145.5,89 c 1.1,0.1 2.2,0.2 3.2,0.3 -0.2,0.4 -0.4,0.9 -0.7,1.2 -1.3,1.1 -1.4,-1.7 -2.5,-1.5 z"
   class="st1" />
		<path
   id="path13862"
   d="m 142.1,207.6 c -0.9,0.2 -1.4,0.3 -1.9,0.3 -0.7,0 -1.2,-0.3 -1.1,-1.1 0.1,-0.8 0.7,-1.1 1.3,-0.7 0.5,0.3 0.9,0.8 1.7,1.5 z"
   class="st1" />
		<path
   id="path13864"
   d="m 156.9,190.9 c 0,0.7 -0.4,1.1 -1.1,1 -0.5,-0.1 -1,-0.3 -1.5,-0.5 0.4,-0.4 0.8,-1 1.3,-1.3 0.6,-0.3 1.3,-0.1 1.3,0.8 z"
   class="st1" />
		<path
   id="path13866"
   d="m 150.2,196 c 0.2,0.2 0.6,0.5 0.7,0.8 0.1,1.1 -0.7,1.2 -1.5,1.1 -0.4,0 -0.7,-0.3 -1.1,-0.5 0.4,-0.6 0.8,-1.3 1.9,-1.4 z"
   class="st1" />
		<path
   id="path13868"
   d="m 132.6,170.4 c 1.4,-0.3 2.9,-0.7 5.1,-1.2 -1.9,2.4 -3.4,2 -5,1.1 0,0 -0.1,0.1 -0.1,0.1 z"
   class="st1" />
		<path
   id="path13870"
   d="m 160,185.9 c -0.2,1.3 -1.1,1.1 -1.8,1.1 -0.3,0 -1.1,0.1 -0.7,-0.7 0.3,-0.7 0.9,-1.4 1.8,-1.2 0.3,0.1 0.5,0.6 0.7,0.8 z"
   class="st1" />
		<path
   id="path13872"
   d="m 140.1,165.3 c -0.7,0.7 -1.1,1.2 -1.6,1.5 -0.6,0.4 -1.3,0.1 -1.4,-0.6 -0.1,-0.7 0.2,-1.2 1,-1.2 0.5,0.1 1.1,0.2 2,0.3 z"
   class="st1" />
		<path
   id="path13874"
   d="m 116,297.1 c -0.2,0.2 -0.5,0.7 -0.8,0.8 -0.9,0.2 -1.5,-0.5 -1.8,-1.2 -0.3,-0.7 0.5,-0.6 0.8,-0.6 0.7,-0.1 1.6,-0.3 1.8,1 z"
   class="st1" />
		<path
   id="path13876"
   d="m 163,296.9 c -0.2,1.3 -1.1,1.1 -1.8,1.1 -0.3,0 -1.1,0.1 -0.7,-0.7 0.3,-0.7 0.9,-1.4 1.8,-1.2 0.3,0.1 0.5,0.6 0.7,0.8 z"
   class="st1" />
		<path
   id="path13878"
   d="m 97.3,95.1 c -0.5,-2.3 0.9,-2.6 2,-3.3 0.5,1.9 -1,2.2 -2,3.3 z"
   class="st1" />
		<path
   id="path13880"
   d="m 152,299 c 1.6,0 2,0.3 1.9,1.1 -0.1,0.8 -0.8,0.9 -1.4,0.8 -0.4,-0.1 -1.4,0.4 -1.1,-0.7 0.2,-0.6 0.6,-1.1 0.6,-1.2 z"
   class="st1" />
		<path
   id="path13882"
   d="m 152.8,93 c -1.1,0 -1.9,0 -1.7,-1.1 0,-0.3 0.6,-0.7 0.9,-0.8 0.9,0 1.4,0.7 1.7,1.4 0,0.1 -0.7,0.4 -0.9,0.5 z"
   class="st1" />
		<path
   id="path13884"
   d="m 135.7,303 c -0.2,-0.2 -0.6,-0.6 -0.6,-0.9 0,-1.2 0.9,-1 1.7,-1 0.3,0 0.9,0.5 0.9,0.6 -0.4,0.6 -0.9,1.2 -2,1.3 z"
   class="st1" />
		<path
   id="path13886"
   d="m 132,174.7 c 0,1.1 -0.6,1.3 -1.2,1.2 -0.5,0 -1.4,0.3 -1.3,-0.6 0.1,-0.7 0.8,-1.4 1.7,-1.3 0.3,0.1 0.5,0.6 0.8,0.7 z"
   class="st1" />
		<path
   id="path13888"
   d="m 128,305 c 0,1.6 -0.3,2 -1.1,1.9 -0.8,-0.1 -0.9,-0.8 -0.8,-1.4 0.1,-0.4 -0.4,-1.4 0.7,-1.1 0.6,0.2 1.1,0.6 1.2,0.6 z"
   class="st1" />
		<path
   id="path13890"
   d="m 172.7,181.7 c 0.3,4.1 -2.6,7.4 -0.8,11 0.1,0.2 -0.3,1.1 -0.6,1.1 -1.1,0.2 -2,-0.6 -2.1,-1.5 -0.5,-3.8 0.3,-7.3 3.5,-10.6 z"
   class="st1" />
		<path
   id="path13892"
   d="m 135.8,227 c -0.6,-2.7 0.6,-4.8 2.5,-8.2 0,3.9 -1.1,6.1 -2.5,8.2 z"
   class="st1" />
		<path
   id="path13894"
   d="m 190.6,112.9 c -1.2,-4.9 -2.3,-8.3 -6.7,-10.7 5.9,1.4 7.3,3.6 6.7,10.7 z"
   class="st1" />
		<path
   id="path13896"
   d="m 154.2,79.2 c -1.2,0.6 -2.4,1.3 -4,2.2 0.9,-2.9 2.5,-2.5 4.2,-2 0,0 -0.2,-0.2 -0.2,-0.2 z"
   class="st1" />
	</g>
</g>
</svg>
