<?xml version="1.0" encoding="UTF-8" standalone="no"?>
<svg
   xmlns:dc="http://purl.org/dc/elements/1.1/"
   xmlns:cc="http://creativecommons.org/ns#"
   xmlns:rdf="http://www.w3.org/1999/02/22-rdf-syntax-ns#"
   xmlns:svg="http://www.w3.org/2000/svg"
   xmlns="http://www.w3.org/2000/svg"
   xmlns:sodipodi="http://sodipodi.sourceforge.net/DTD/sodipodi-0.dtd"
   xmlns:inkscape="http://www.inkscape.org/namespaces/inkscape"
   inkscape:version="1.0 (4035a4f, 2020-05-01)"
   height="279.24039"
   width="236.03625"
   sodipodi:docname="eagles-head-erased.svg"
   xml:space="preserve"
   viewBox="0 0 236.03625 279.24039"
   y="0px"
   x="0px"
   id="Layer_1"
   version="1.1"><metadata
   id="metadata16213"><rdf:RDF><cc:Work
       rdf:about=""><dc:format>image/svg+xml</dc:format><dc:type
         rdf:resource="http://purl.org/dc/dcmitype/StillImage" /><dc:title></dc:title></cc:Work></rdf:RDF></metadata><defs
   id="defs16211" /><sodipodi:namedview
   inkscape:current-layer="Layer_1"
   inkscape:window-maximized="0"
   inkscape:window-y="25"
   inkscape:window-x="0"
   inkscape:cy="179.71277"
   inkscape:cx="117.20771"
   inkscape:zoom="2.52"
   fit-margin-bottom="0"
   fit-margin-right="0"
   fit-margin-left="0"
   fit-margin-top="0"
   showgrid="false"
   id="namedview16209"
   inkscape:window-height="480"
   inkscape:window-width="820"
   inkscape:pageshadow="2"
   inkscape:pageopacity="0"
   guidetolerance="10"
   gridtolerance="10"
   objecttolerance="10"
   borderopacity="1"
   bordercolor="#666666"
   pagecolor="#ffffff" />
<style
   id="style16040"
   type="text/css">
  .st0{fill:#FFFFFF;}
  .st1{fill:#000000;}
</style>
<g
   transform="translate(-32.792289,-20.287231)"
   id="g16206">
	<g
   id="g16204">
		<path
   id="path16042"
   d="m 252.1,118.1 c -0.1,3.6 1.4,6.3 2.1,9.2 2.4,10.4 -2.4,19.7 -3.6,29.6 -0.4,3 -1.2,6 -1.5,9.1 -0.1,2 -1.3,3.3 -2.7,3.8 -1.8,0.7 -2.2,-1.5 -2.8,-2.7 -1,-1.9 -2,-3.9 -3.1,-5.9 -4.6,8 -5.9,17 -8.4,25.6 -1,3.3 0.6,6.9 2.8,9.5 2,2.3 3.3,4.6 1.2,6.9 -2.1,2.2 -3.8,-1.1 -5.9,-1.6 -0.8,-0.2 -1.3,-1.8 -2.6,-2.5 -0.2,6.3 -2.8,11.3 -5.7,16.3 -2.6,4.5 -0.3,14.3 4.2,19.4 5.1,5.8 5.6,5.8 10.1,-0.3 2.4,4.3 2.4,6.1 -0.5,10.2 -1.2,1.6 -0.4,1.8 0.8,2.8 3.6,3 4,8 6.3,11.8 0.4,0.6 0.1,2.1 -0.4,2.8 -3.4,4.2 -3.9,9.4 -5.5,14.2 -1.5,4.5 -9.8,9.1 -14.1,7.7 -2.3,-0.7 -4.8,-2.2 -4.8,-5 -0.1,-3 3.1,-1.8 4.7,-2.8 0.3,-0.2 1,0 1.7,0 0.6,1.6 -2.3,2.1 -1.1,3.6 0.2,0.3 1.1,0.4 1.3,0.2 1,-1 2.2,-1.7 2.5,-3.5 0.9,-6.8 -2.1,-10.7 -8.8,-12.4 -12.7,-3.2 -25.7,-5.2 -36.7,-13.5 -5.1,-3.8 -7.6,-8.5 -9.5,-14.1 -0.3,-0.9 -0.7,-1.4 -1.5,-2.1 -5.5,10 -13.1,18.6 -18.1,28.9 -3.4,7.1 -1.8,17.2 3.8,22.7 4.2,4.1 7.7,3.2 9.8,-2.1 1.2,-2.9 3.1,-1.9 4.8,-0.2 4.8,4.8 2.1,12.7 -5.6,14.4 -13.4,3.1 -26,1.7 -35.6,-9.7 -3.6,-4.3 -4.5,-9.8 -6.8,-14.8 -2.7,-6.1 -2.5,-12.6 -3.9,-18.8 -1.5,-6.7 -3.3,-7.5 -9.7,-4.6 -5.8,2.6 -11.2,6.1 -17.4,8.1 -2.6,0.8 -3.9,3.3 -5.5,5.2 -1.2,1.4 -0.5,3.4 1,4.8 1.9,1.8 3.2,0.9 4.6,-0.6 1.1,-1.2 2.3,-2.2 3.9,-3.8 -0.3,5.7 -3.9,8.5 -7.9,9 -3.3,0.4 -7.3,-1.4 -9.1,-5.1 -4,-8.5 -11.6,-10.9 -19.9,-12.6 -3.6,-0.7 -7.1,-2 -10.7,-2.8 -1.2,-0.3 -2.4,-2.1 -3.9,-0.2 -1.7,2.2 0.7,2.9 1.5,4.2 -6,1.9 -8.9,1 -11.8,-3.4 -1.8,-2.8 -1.9,-6 0.7,-7.9 2.6,-1.9 2,-3.3 1.1,-5.6 -3.3,-8.7 -4,-18 -1.9,-26.8 2.1,-8.7 8.7,-14.2 17.1,-17.3 2.9,-1 5.8,-1.9 8.6,-3 2.8,-1.1 5.8,-2 5.3,-6.2 -0.1,-0.6 0.4,-3.1 2.1,-2.6 1.6,0.6 3.4,2 3.6,3.8 0.5,4.2 0.1,8 -4.5,10.3 -4.3,2.2 -8.2,5.1 -12.1,8 -2.8,2 -3.2,7.9 -1,11.3 2.9,4.4 6.4,8.1 11.4,10.3 4.1,1.8 7.2,1 9.3,-3 1.8,-3.4 3.4,-6.9 5.1,-10.4 -1.7,-0.9 -4.7,-0.7 -4.7,-2.5 0,-1.9 2.1,-3.4 4.3,-4.2 4.2,-1.7 6.3,-5.6 8.2,-9.3 2.1,-4 3.8,-8.1 6.1,-12 1.2,-2.1 5.8,-4.4 1.6,-8 -0.3,-0.2 2.1,-3.3 3.2,-5.1 -2.2,-1.9 -7.2,-1.1 -7.2,-4.3 -0.1,-2.2 4.5,-2.7 6.9,-4.2 1.8,-1.1 3.6,-2.3 5,-3.8 4.4,-4.7 9.2,-8.7 15.3,-10.7 -0.1,-0.7 0,-1.1 -0.2,-1.2 -1.6,-1.6 -4,-3.6 -3.2,-5.6 1,-2.5 4.2,-2.9 6.9,-2.5 5.8,0.9 10.9,-1.6 16.1,-3.2 3.4,-1.1 6.4,-3.7 5.5,-7.6 -0.8,-3.8 -4.7,-3.7 -7.9,-4.3 -11.4,-1.9 -22.7,0.4 -34,0.1 -3.6,-0.1 -6.9,-0.6 -10.5,-1.8 -8.1,-2.9 -14.1,-7.5 -17.5,-15.6 -1.3,-3.1 -5.2,-3 -7.9,-4.5 -2.7,-1.5 -6,-2.5 -9.1,-3 -1.9,-0.3 -3.2,-1.5 -4.1,-2.4 -1.6,-1.5 -3.6,-3.9 -2.5,-6.3 1.2,-2.6 4.1,-1.8 6.2,-1.2 9.9,2.5 19.5,2.1 29.4,-0.5 7.3,-2 14.6,-5.1 22.8,-3.9 -4.5,-4.3 -7.2,-9.9 -11.1,-14.5 -3.9,-4.6 -10.1,-3.9 -17.8,1.4 -1.6,1.1 -3.4,2.2 -3.9,4.5 -0.5,2.6 -1.4,5.4 -4.5,5.7 -3.5,0.3 -5.8,-2.1 -7.4,-4.8 -5.1,-8.3 -3.7,-16.4 1.5,-24.1 3.8,-5.6 9,-9.5 14.7,-13.3 7.6,-5.1 15.6,-8.5 23.8,-12.2 3.6,-1.6 6.5,-5.9 11,-7 10.4,-2.5 20.9,-1.8 31.4,-0.8 13.6,1.3 26.8,4.6 40,7.3 8.6,1.8 17.1,4.2 25.6,6.5 9.6,2.6 19,3.9 28.8,0.6 2.5,-0.8 3.8,-2.5 5.4,-4 1.8,-1.7 3.5,-3.3 5.9,-1.5 2.3,1.8 2.4,4 1.1,6.6 -1.7,3.4 -4.3,5.7 -7.6,7.4 -3.5,1.9 -7.2,3.6 -10.8,5.4 2.4,4.2 7.1,5.1 10,8.3 6.4,6.9 11.2,15 18.1,21.3 1,0.9 1.4,2.2 0.5,3 -1.4,1.1 -3.2,2.1 -5,1.2 -2.4,-1.2 -4.8,-2.3 -8.4,-2.9 7,9.2 8.9,20 14.8,28.9 1.1,1.6 1.9,3.4 3.2,4.9 1.1,1.3 2.6,2.9 1.6,4.8 -1,1.8 -2.9,2.5 -5,2.5 -3.8,-0.4 -7.5,-1.4 -11.4,-3.4 z"
   class="st1" />
		<path
   id="path16044"
   d="m 160.6,86.4 c -0.6,-3.4 -4,-3.7 -6.2,-5.2 -1.7,-1.2 -3.9,-1.6 -5.3,-4.1 4.5,-0.1 8.9,0.4 12.8,-2.9 -2.9,-0.1 -5.3,-0.1 -7.9,0.7 -6.1,1.9 -16.5,-5 -20,-10.4 -0.3,-0.4 -0.2,-1 -0.5,-1.3 -4.6,-4.4 -4.7,-8.7 0,-13.2 0.7,-0.7 0.9,-2.1 0,-2.7 -1.4,-0.9 -1.2,0.9 -1.8,1.4 -1.7,1.5 -1.9,4.3 -4.8,5.2 1.2,-3 1.7,-7.5 3.5,-8.1 2.4,-0.8 5.9,0.1 9.4,0.3 -2,3.5 -4.1,6.7 -3.7,10.7 0.4,4 2.7,7 5.6,9.4 8.5,7 17.8,6.6 25.1,1.3 3.8,-2.7 5.1,-7.5 3.7,-12.3 -0.3,-1 -0.9,-2.1 -0.2,-2.7 1.3,-1.2 1.9,0.6 2.7,1.1 4.5,2.8 9.4,4.8 11.8,10.5 1.9,4.4 9.2,6.4 14,4.2 -6,-0.2 -7.2,-4.4 -8.7,-7.9 -2,-4.5 -5.5,-6.6 -9.8,-8.6 -5.8,-2.6 -12.4,-4.1 -16.3,-9.9 -0.2,-0.3 -0.2,-1.3 -0.9,-0.5 -4.4,5.4 -10.3,1.2 -15.4,2.5 -0.4,0.1 -0.8,-0.1 -2.3,-0.3 4.5,-1.8 8.1,-3.4 12.4,-3.9 -4.8,-4.1 -8.9,-0.1 -12.7,0.9 -9.4,2.5 -17.9,2 -26.1,-4 0.9,-1.1 1.9,-2.1 2.8,-3.2 -3.1,-2.2 -5.5,5.9 -8.6,0.1 1.7,-0.9 3.2,-2.3 4.4,-4 -2.6,-1.7 -3.6,1.4 -5.4,1.9 -1.3,0.4 -2.1,0.7 -2.9,-0.4 -1.1,-1.4 0.1,-2.2 1,-2.7 4.1,-2.6 8.7,-4.2 13.6,-4.2 18.9,0 37.3,3.3 55.6,7.2 12.9,2.8 25.5,6.5 38.3,9.6 11.2,2.7 21.5,-0.2 31.8,-8.5 -3.2,7.9 -9.5,9.8 -15.2,12.3 -6,2.7 -12.2,2.8 -19.1,-0.4 1.3,4.4 4.4,5.3 6.4,5.5 11.4,0.9 17.9,9.1 24.4,16.5 4,4.5 8.9,8.4 12.8,14.1 -5,-1.1 -8.6,-3.6 -11.7,-6.5 -4.2,-3.9 -7.7,-8.7 -11.9,-12.6 -3.6,-3.4 -7.8,-6.2 -13.5,-5.8 6.6,2.9 11.1,8.3 15.9,13.2 1.1,1.1 1.1,1.1 1.1,3.2 -2.7,-0.9 -3.8,-4 -5.5,-4.6 1.7,0.5 2.6,3.9 5.6,4.5 3.4,5.1 8.2,9.4 9.4,15.9 -5.2,-1.6 -7.2,-6.6 -10.5,-10.2 -1.3,-1.4 -2.6,-2.9 -3.8,-4.4 -2.4,-2.9 -4.6,-4.2 -6.1,1 4.8,-1.1 6.8,2 8.8,5.5 2.9,5.2 6.5,9.7 11.6,13 1.7,1.1 3.4,2.6 4.2,4.7 2.7,7.2 7.5,13.3 11,20.2 -5.2,0.8 -14,-4.1 -15.8,-8.7 -0.3,-0.7 -0.1,-1.1 0.3,-1.8 3.1,-4.4 0.9,-7.4 -2.5,-10.5 -3.2,-2.8 -6.7,-5.3 -9.9,-8 -1.8,-1.5 -2.7,-0.4 -4,-0.2 3.7,5.9 10.8,8.5 14.6,16.1 -3.4,-1.8 -5.5,-4.3 -8.6,-3 3.6,4.6 7.7,8.7 10.1,14.8 -6.2,-4.1 -9.3,-11.4 -17.2,-11.9 6.6,8.4 18.4,13.1 17.8,26.8 -2.1,-1.6 -3.9,-3 -4.9,-5.1 -0.6,-1.3 -1.7,-1.1 -2.4,-0.7 -1.4,0.8 -0.3,1.6 0.4,2.3 2.3,2.2 3.3,5.6 6.7,6.9 1.9,0.7 1.6,3 1.1,4.4 -2.8,8.4 -3.2,17 -3.4,25.8 -1.5,-4.4 -5.8,-7.7 -3.8,-13.3 1.3,-3.6 1.5,-7.6 2.2,-11.4 0.4,-1.8 -0.3,-3.6 -1.3,-4.5 -3.4,-3 -4.9,-7.1 -7,-10.9 -2.1,-3.8 -6.4,-5.4 -9.8,-8 -0.9,-0.7 -0.7,-4.3 -3.2,-1.7 -1.9,2 -0.3,3.4 1.2,4.5 5.8,4.1 10.5,9.1 13.1,16 -4,0.8 -4.7,-5.4 -9.2,-4 1.2,3.2 3.7,4.5 6.4,5.7 4.2,1.9 5.2,4.8 4.1,9.4 -2.2,9.4 -5.1,18.5 -7.9,27.7 -1.1,3.5 -1.2,7.2 -2.2,10.8 -1.3,4.6 -0.6,9.6 4,12.8 0.8,0.6 2,1.3 1.6,2.8 -7.4,-1.2 -7.7,-1.8 -9.1,-19.9 -3.9,3.9 -3.2,8.7 -1.6,13.3 2.2,6.3 0.5,11.9 -2.7,17.1 -4.4,7.1 -4.6,14.1 0,20.7 1.6,2.3 3.6,4.2 5.3,6.4 2.6,3.3 5.6,4.2 9.4,0.5 -0.5,5.8 -4.6,6.4 -7.8,6.1 -3,-0.3 -6.3,-1.9 -8.4,-4.4 -4.9,-5.9 -10.9,-11.2 -11,-20 -1.5,5.9 0.3,12.3 4.2,16.3 3.5,3.5 6.6,7.3 11.3,9.3 0.4,0.2 0.8,0.9 1.1,0.8 10.6,-0.7 11.1,8.2 14.1,14.9 -4.2,-2.3 -6,-7.7 -11.5,-8.7 -0.6,2.2 1.1,3.1 2.3,3.9 6.4,4.7 7.1,16.3 1.3,21.7 -0.4,0.4 -1.3,0.5 -1.8,0.4 -1.6,-0.4 -0.1,-1.2 0,-1.8 0.4,-6 -1.9,-10.9 -5.9,-15.2 -1.6,-1.7 -1.6,-5.3 -5.6,-3.7 1,1 2.1,1.9 2.1,3.4 -3,1.9 -4.5,-1.8 -7.2,-2 -2.3,-0.1 -2.8,-4.1 -5.8,-4.8 -0.6,1.4 1.3,1.7 1.1,3.1 -3.3,-0.9 -6.8,-1.5 -9.9,-2.9 -5,-2.1 -9.9,-4.5 -14.7,-7.2 -8.3,-4.7 -11.4,-17 -7.6,-26.9 0.6,-1.4 2.1,-2.6 1.3,-4.6 -1.7,0.1 -2.6,1 -3.3,2.6 -6.8,15.1 -15.5,28.9 -25.8,41.8 -6.3,8 -0.8,24.8 7.3,29.2 3.8,2.1 7.2,0.8 10.5,-1.1 1.2,-0.7 2.5,-1.7 3.3,-0.2 0.5,1 0.6,2.5 -1.3,3.6 -9.6,5.4 -17.6,4.7 -27.1,-0.4 -12.9,-7 -16.4,-19.3 -17.4,-32.7 -0.3,-4.1 -1.8,-7.5 -3.4,-11 -1.5,-3.2 -4.6,-2 -8.6,-2.5 6.1,-3 9.7,-7.1 12.5,-11.8 2.6,-4.5 4.8,-9.1 4.4,-14.5 -0.1,-1.1 0.3,-2.5 -1.6,-2.4 -1.5,0.1 -1.3,1.1 -1.4,2.1 -1,11 -7.5,18.5 -15.8,24.9 -5.9,4.6 -12.4,7.9 -19.3,10.7 -5.1,2.1 -6.9,6.9 -8.2,12.2 -2.6,-2 -3.3,-4.3 -1.2,-6.8 2,-2.3 2.6,-5.2 4.7,-8.1 -5.5,0.3 -5.8,5.4 -9.1,7.7 -5.3,-7.7 -14.7,-6.6 -24.1,-9 4.5,-0.9 7.6,-1.4 10.7,-2 -5.4,-0.2 -10.8,-3.3 -16,1.1 -0.4,-2.7 2.1,-2.9 1.9,-4.8 -3.6,1 -6.5,3 -8.8,5.7 -0.8,1 -1.4,3.4 -3.1,2.1 -1.3,-1 -2.4,-2.7 -1.1,-5.1 1.3,-2.4 3.4,-3.3 5.3,-4.7 1.9,-1.4 5.3,-1.5 5,-6.3 -1.4,3.5 -4,3.3 -6.1,4.3 -2.6,-5.3 -3.7,-11.1 -4.8,-16.9 -1.8,-9.7 6.3,-23.1 15.8,-26.4 2.7,-1 5.7,-1.4 8.2,-2.7 3.4,-1.8 8.3,-2.6 6.8,-8.8 3.2,3.4 2.6,6.7 -1.2,8.9 -3.8,2.2 -7.6,4.3 -11.2,6.7 -7.1,4.8 -9,10.1 -4.5,17.5 4,6.5 9.3,11.6 17.8,11.8 4.7,0.1 8.2,-1.8 9.6,-6 2.9,-8.3 6.6,-15.3 16.8,-16.2 1.8,-0.1 3.6,-1.5 5,-4 -7.4,2.9 -14.4,4.9 -21.8,5.7 7.7,-3.5 15.7,-6.5 21.7,-12.7 -4.7,1.9 -9.1,4.2 -13.5,7 7.1,-6.6 6.8,-17.6 14.7,-23.7 2.4,-1.8 -0.5,-5.5 2.8,-8 4.4,-3.4 8.6,-6.6 14.2,-6.1 2.5,0.2 3.4,-1.8 5.3,-2.4 5.1,-1.6 10.5,-1.7 15.5,-3.6 1.7,-0.6 2.9,-1.3 4,-3.3 -9.3,1.5 -18.1,3.5 -26.4,7.4 2.4,-2.8 6.3,-3.3 8.6,-7.9 -9.9,3.9 -18.2,9.3 -27.8,11.6 10.5,-5.4 17.4,-16.5 29.8,-18.6 2.2,-0.4 4.7,-1.6 6.3,1.5 1,1.9 3.3,1.3 5,0.8 4.5,-1.3 8.9,-2.7 13.4,-4.1 -2.9,-1.9 -2.9,-1.9 -16.7,2.8 5.3,-4.5 9.5,-8.1 13.9,-11.9 -2.7,-1.1 -4.3,0.4 -5.7,1.7 -5,4.8 -11.4,4.9 -17.5,5.8 -2.8,0.4 -4,-1.7 -5.9,-3.9 12.8,-0.2 25.7,0.5 30.6,-16.3 0.7,5.1 4.3,8.5 0.6,12.4 -0.2,0.2 0.1,1.5 0.5,1.7 0.9,0.4 1.5,-0.3 2,-1 2.2,-3 2,-6.3 1,-9.5 -0.3,-1.1 -0.9,-2.1 -0.1,-3.4 2.8,1.1 5.5,2.3 8.3,3.4 -1.3,2.8 -2.6,5.6 -4,8.3 -0.3,0.6 -0.8,0.9 -0.1,1.6 0.6,0.6 0.9,0.5 1.6,0.1 3.6,-2.3 5.2,-6 6.6,-9.7 1.3,-3.3 -2,-4.4 -3.9,-6.4 -2.6,-2.8 -3.1,1.4 -4.5,0.7 -4.8,-2.5 -10.6,-2.7 -15.1,-6 -1.2,-0.9 -3,-2.6 -4,-1.3 -1.8,2.1 1.9,2.3 2.5,4.5 -5.9,-0.6 -11.4,-0.9 -16.9,-1.7 -2.8,-0.4 -5.6,-0.7 -8.3,-0.2 -10.4,1.9 -20.5,1.4 -29.7,-4.3 -3.6,-2.3 -6.8,-5.4 -8.8,-9.6 2.7,-0.7 5.2,-0.3 6.8,1.3 3.1,3.3 7.3,4.1 11,4.2 7.9,0.2 15.8,0 23.8,-0.4 8.2,-0.4 16.8,0.3 24.8,3.7 6.6,2.8 13.1,5.7 20.9,2.3 8,-3.5 10.4,-12.1 4.5,-19 C 163.5,93.1 157.3,90.9 150.6,90 140.9,88.7 131,88.3 121.8,85.7 115.6,84 108.9,81.5 105.6,74.1 103,66.7 96.8,62.5 87.9,64 80.6,65.2 74.7,68 71,74.7 70.4,75.8 70.7,78 68.7,77.9 67.1,77.7 66.7,75.8 66.2,74.5 63,66.3 65.6,59 70.9,52.9 c 3.2,-3.8 6.4,-7.9 11.4,-10 1.8,-0.8 2.2,-0.8 3.1,0.9 3.5,6.3 8.3,10.4 16.3,9.3 7.3,-1 14.2,1.3 21.1,3.1 2.9,0.8 4.7,4.3 6.2,7.1 4.9,9.7 14.2,14.3 22.9,19.5 2.6,1.5 5.3,3.9 8.8,3.5 7.5,0.6 13.9,5.2 21.3,6 -7.4,-1 -13.8,-5.8 -21.4,-5.9 z"
   class="st0" />
		<path
   id="path16046"
   d="m 54.1,93 c 5.8,1.7 11.5,2.5 17.3,3 7.4,0.7 13.7,-3.1 20.6,-4.7 10.7,-2.3 21,-2.7 31.9,-0.6 9.7,1.8 19.7,1.8 29.4,4.3 3.4,0.9 6.6,2.1 9.4,4.8 -10.1,-2.7 -20.1,-5.2 -30.6,-3.9 10.5,1.2 20.7,3.7 30.5,7.9 -5.8,1.3 -10.8,-2.1 -16.2,-3 -8.3,-1.3 -16.6,-1.1 -24.7,-0.5 -10.7,0.7 -21.3,1.4 -32,1.9 -10,0.5 -19.4,-1.6 -28.8,-4.3 -2.5,-0.8 -5.4,-1.8 -6.8,-4.9 z"
   class="st0" />
		<path
   id="path16048"
   d="m 101.9,32.9 c 1.3,-0.4 2.2,0.6 3.2,1.1 6.4,3.1 12.7,6.3 19,9.5 2,1 4.1,1.8 2.3,4.7 -1.4,2.3 -1.9,6.3 -5.6,4.6 C 113.6,49.6 106.1,50 98.7,49.9 94.7,49.8 88.4,44 88.1,40.4 88,39.2 88.8,38.5 89.6,38 c 3.7,-2.5 8.1,-3.5 12.3,-5.1 z"
   class="st0" />
		<path
   id="path16050"
   d="m 89.6,106.3 c 11.2,1.1 22.2,-1.6 33.3,-2.5 9.4,-0.8 18.5,-0.9 27.6,1.3 2.8,0.7 5.4,2.1 7.4,4.4 1.3,1.5 1.5,2.9 0.6,4.5 -0.9,1.6 -2.6,1.4 -4,0.9 -5.1,-1.7 -10.1,-4.1 -15.4,-5.3 -7.8,-1.7 -15.4,-2.7 -23.5,-1.8 -8.5,0.8 -17.4,1.2 -26,-1.5 z"
   class="st0" />
		<path
   id="path16052"
   d="m 159.3,50.4 c 6.1,2.1 8.5,7.2 6.3,12.5 -1.3,3.2 -9.6,6.6 -13.2,4.8 -4.1,-2.1 -9.2,-3.3 -10.6,-9.1 -0.9,-4.1 0.7,-9.4 4.3,-11.2 1.5,-0.8 3.1,-0.7 4.5,0.8 1.8,1.9 4.5,3.6 4.1,6.3 -0.3,2 -2.8,1.9 -4.6,1.2 -1,-0.4 -1.6,-3.2 -3.2,-0.5 -1,1.8 -1.6,3.4 0,5.4 2.8,3.4 7.3,4.6 10.9,2.5 4.1,-2.4 3.5,-6.2 2.6,-9.9 -0.2,-0.9 -0.1,-2.1 -1.1,-2.8 z"
   class="st0" />
		<path
   id="path16054"
   d="m 170.9,131.9 c -1.1,2.4 -1.2,4.6 -1.8,6.7 -0.6,2.2 -2.1,1.6 -3.1,1.3 -1.6,-0.4 -0.1,-1.7 0.1,-2.2 1.2,-2.5 1.8,-5.1 1.9,-7.9 0.2,-4.8 5.3,-5 7.8,-7.7 2.1,-2.2 3.9,-5.6 3.2,-8.6 -0.2,-1.1 0.4,-1.5 0.9,-2.1 1.1,-1 1.8,-0.1 2.5,0.6 1,0.9 2.1,2.1 1.3,3.4 -0.9,1.4 -1.5,2.8 -2.2,4.3 -2.2,4.4 -1.6,6.6 3,8.1 1.4,0.5 2.7,1 4.2,1.6 -4.5,3.6 -6.7,-1.7 -9.9,-2.6 -1.1,-0.3 -2.1,-2.1 -3.2,-0.7 -0.8,1 -2.2,2 -1.2,4.1 1,2.2 2.1,4.3 3.5,6.2 0.9,1.2 1.4,2.2 0.2,3.7 -3.1,-1.9 -5.4,-4.7 -7.2,-8.2 z"
   class="st1" />
		<path
   id="path16056"
   d="m 232,151.2 c -0.4,2 1.3,4.8 -2.1,5.7 -1.7,0.5 -8.4,-3.9 -8.8,-5.5 -0.2,-1 0.4,-1.5 1.1,-2 1.5,-1.1 1.9,0.5 2.8,1.1 1.4,0.9 1.6,4.6 3.4,3.1 1.5,-1.4 1.5,-4.8 -0.4,-7.1 -1.6,-2 -3.2,-4.1 -5,-6 -0.9,-1 -1.4,-2.1 -0.6,-3 0.8,-1 2.2,-0.7 2.9,0.4 2.6,4.2 8.1,7 6.7,13.3 z"
   class="st1" />
		<path
   id="path16058"
   d="m 217.3,169.7 c 1.8,-1.9 2,-5 4.8,-5.7 0.8,2.5 -1.8,9.3 -3.9,9.8 -1.5,0.3 -3.4,0.3 -4.7,-0.4 -1,-0.5 -0.4,-2.2 0.1,-3.5 1.5,-4.2 -0.3,-8.4 -0.5,-12.6 0,-1.1 -0.9,-3 1,-3.2 1.5,-0.1 1.5,1.7 2.1,2.8 1.8,4.2 0,8.5 1.1,12.8 z"
   class="st1" />
		<path
   id="path16060"
   d="m 199,172.3 c 4.2,1.3 2.5,4.7 3.2,7.3 2.1,-1.8 2.3,-4.6 3.6,-7.1 1.5,4.3 -1,11.1 -4.3,12.3 -1.9,0.7 -2.6,-0.2 -2.6,-2.2 0.2,-3.3 0.1,-6.6 0.1,-10.3 z"
   class="st1" />
		<path
   id="path16062"
   d="m 228.2,164.9 c 1.9,-2.2 2.5,-4.7 3.5,-7.2 1.9,3.9 -1,11.2 -4.5,12.2 -1.8,0.5 -2.3,-0.4 -2.3,-2.1 0.1,-3.4 0,-6.9 0,-10.5 4.2,1.2 2.8,4.5 3.3,7.6 z"
   class="st1" />
		<path
   id="path16064"
   d="m 160.6,86.4 c 3.1,-0.9 6.2,-0.6 9.1,0.7 5.6,2.4 11.4,4.1 17.7,5.4 -3.8,2.3 -16.5,-0.8 -26.7,-6.2 0,0 -0.1,0.1 -0.1,0.1 z"
   class="st1" />
		<path
   id="path16066"
   d="m 199.6,155.8 c 0.6,-4.2 0.4,-7.8 4.3,-10.6 -1.2,5.3 -1.4,9.8 -4.1,13.7 -4.1,-2.2 -3.8,-7.1 -6.4,-10.1 -0.7,-0.8 0.4,-0.7 0.7,-0.7 0.8,-0.1 1.5,-0.1 1.9,1 0.9,1.9 2.1,3.8 3.6,6.7 z"
   class="st1" />
		<path
   id="path16068"
   d="m 156.7,171 c 5.2,0.1 3.8,5.3 7,6.8 0.5,-3.3 0.2,-6.9 4.3,-8.5 -0.7,2.2 -1.6,4.4 -1.9,6.6 -0.3,2.3 -0.5,5.4 -2.7,5.5 -2.1,0.1 -2.8,-3.2 -3.8,-5.2 -0.7,-1.6 -1,-3.5 -2.9,-5.2 z"
   class="st1" />
		<path
   id="path16070"
   d="m 200,191.6 c -0.9,4.1 -1.4,7.2 -2.4,10.2 -0.3,1 -0.7,2.9 -2.1,2.9 -0.9,0 -1.9,-1.4 -2.4,-2.3 -1.3,-2.6 -2.5,-5.4 -3.8,-8.3 4.5,0.1 3.2,5.2 6.4,6.7 0.7,-3.2 -0.1,-7.1 4.3,-9.2 z"
   class="st1" />
		<path
   id="path16072"
   d="m 149.2,207.8 c 4.6,0.6 3.3,5.7 6.6,6.9 0.3,-3.3 0.3,-6.6 3.9,-8.6 -0.7,3.1 -1.2,6.3 -2.1,9.3 -0.2,0.8 -0.3,2.4 -1.8,2.5 -1.5,0.1 -2.3,-0.7 -2.9,-2.1 -1,-2.5 -2.3,-5 -3.7,-8 z"
   class="st1" />
		<path
   id="path16074"
   d="m 125.8,198.9 c 0.3,-3.4 0.3,-6.7 4,-8.7 -0.8,3.3 -1.4,6.5 -2.4,9.7 -0.2,0.6 -0.2,2 -1.6,2.1 -1.4,0.1 -2.3,-0.6 -2.8,-1.6 -1.3,-2.7 -2.4,-5.4 -3.7,-8.3 4.5,0 3.3,5.4 6.5,6.8 z"
   class="st1" />
		<path
   id="path16076"
   d="m 213.9,121.2 c 2.4,-0.5 2.7,2 4.7,1.7 1.2,-2.7 -0.3,-4.7 -1.9,-6.8 -1,-1.2 -1.3,-3.2 0,-3.9 1.3,-0.7 2,0.9 2.5,2.2 0.6,1.5 1.4,2.9 2.1,4.3 1.6,2.8 0,5.1 -2.1,6 -2.5,1.2 -4.4,-0.4 -5.3,-3.5 z"
   class="st1" />
		<path
   id="path16078"
   d="m 191.3,114.9 c 5.5,3.9 12.3,2.7 17.9,5.4 -5.5,2.6 -15.6,-0.1 -17.9,-5.4 z"
   class="st1" />
		<path
   id="path16080"
   d="m 184,104 c 0,0.7 0.2,1.5 0,2 -0.7,1.3 -1,3.9 -2.5,3.6 -1.7,-0.3 -1.6,-2.2 -0.8,-4 0.8,-2 0.1,-4 -2.5,-4.6 -0.9,-0.2 -2,-0.6 -1.7,-1.7 0.4,-1.2 1.7,-1.5 2.9,-1.2 2.6,0.5 4.6,3.1 4.6,5.9 z"
   class="st1" />
		<path
   id="path16082"
   d="m 200.1,125.8 c -6.2,6.5 0.3,7.1 3.4,9 1.4,0.9 3.4,1 4.4,3.1 -5,0.1 -9.3,-2.2 -12.2,-5.2 -2.9,-2.9 1.1,-5 4.4,-6.9 z"
   class="st1" />
		<path
   id="path16084"
   d="m 212.3,139.1 c 3.2,2.4 5.2,5.1 4.6,8.9 -0.3,1.6 1.2,4.4 -0.9,4.7 -1.7,0.3 -3.3,-2 -4.6,-5 1.7,1 2.5,1.5 3.2,2 2.1,-4.2 -4,-6.3 -2.3,-10.6 z"
   class="st1" />
		<path
   id="path16086"
   d="m 225.2,257.1 c 3.3,1.9 5.5,4.4 7.7,7.1 1.3,1.7 0.5,2.9 -0.4,3.5 -1.2,0.8 -2,0.3 -2.5,-1.6 -1,-3.1 -5.4,-4.4 -4.8,-9 z"
   class="st1" />
		<path
   id="path16088"
   d="m 212,197.1 c 1.1,0.7 1.9,1.2 2.7,1.7 0.8,-2.4 -0.3,-4.3 -1.6,-6 -0.9,-1.1 -2,-2.5 -0.8,-3.4 1.6,-1.2 2.6,0.9 3.3,1.9 2.1,2.9 1.3,6.3 1.2,9.5 0,1.4 -1.2,1.4 -2,0.4 -0.9,-1 -2.7,-1.7 -2.8,-4.1 z"
   class="st1" />
		<path
   id="path16090"
   d="m 137.3,259.2 c 0.8,0.5 1.6,1 2.3,1.5 2,-4.2 -4,-6.3 -2.4,-10.6 3.2,2.1 5.2,4.8 4.7,8.8 -0.2,1.3 1,3.3 -0.9,3.9 -2.4,0.9 -2.8,-1.7 -3.7,-3.6 z"
   class="st1" />
		<path
   id="path16092"
   d="m 192.3,214.2 c 3.2,2.2 5.2,4.9 4.6,8.9 -0.2,1.3 1,3.3 -1,3.8 -2.5,0.6 -2.9,-1.8 -4.8,-3.1 2.2,-0.7 2.4,0.8 3.4,0.8 2.3,-4.1 -4.1,-6.3 -2.2,-10.4 z"
   class="st1" />
		<path
   id="path16094"
   d="m 128.5,237.9 c 2.2,3 0.7,5.9 3,7.7 0.7,-1.1 1.4,-2.3 2.4,-4.1 2.1,2.8 0.4,4.8 -0.7,6.7 -0.4,0.7 -1.2,1.2 -2.1,0.5 -3.1,-2.6 -3.6,-5.9 -2.6,-10.8 z"
   class="st1" />
		<path
   id="path16096"
   d="m 188.2,157.1 c 1.6,3.6 0.2,5.6 -1.3,7.4 -0.7,0.9 -1.4,0.2 -2.1,-0.3 -2.3,-1.7 -3,-4.9 -2,-9.5 2.5,1.8 0.1,5.4 2.8,6.8 0.6,-1.1 1.4,-2.3 2.6,-4.4 z"
   class="st1" />
		<path
   id="path16098"
   d="m 113.4,223.2 c 0.7,0.5 1.4,1 2.2,1.5 2.1,-4.2 -3.9,-6.3 -2.3,-10.4 3.1,1.8 4.9,4.3 4.8,8 -0.1,1.6 0.5,3.7 -1.3,4.4 -2.4,0.9 -2.6,-1.8 -3.4,-3.5 z"
   class="st1" />
		<path
   id="path16100"
   d="m 111.6,205.5 c 0.7,-1.2 1.4,-2.4 2.3,-4.1 2.1,2.9 0.5,4.8 -0.7,6.8 -0.4,0.7 -1.2,1.1 -2.1,0.4 -3.1,-2.6 -3.9,-5.8 -2.7,-10 2.8,1.9 0.5,5.4 3.2,6.9 z"
   class="st1" />
		<path
   id="path16102"
   d="m 178.8,200 c 2.1,3 0,6.1 2.9,7.3 0.6,-0.9 1.4,-2.2 2.3,-3.7 2.2,2.9 0.4,4.8 -0.9,6.7 -0.8,1.2 -1.7,0.6 -2.4,-0.2 -2.7,-2.6 -3.3,-5.6 -1.9,-10.1 z"
   class="st1" />
		<path
   id="path16104"
   d="m 146.8,176.9 c 1.9,3.2 0.3,6.1 2.7,7.7 0.7,-1.2 1.6,-2.4 2.5,-3.9 2.2,2.9 0.4,4.8 -0.9,6.7 -0.8,1.2 -1.7,0.6 -2.4,-0.2 -2.7,-2.7 -3.3,-5.7 -1.9,-10.3 z"
   class="st1" />
		<path
   id="path16106"
   d="m 182.3,117.4 c 5.4,2.1 8.8,4.4 11.1,8.3 0.6,1.1 0.7,1.7 -0.1,2.5 -1.3,1.3 -1.9,-0.3 -2.1,-0.8 -1.8,-3.7 -5.5,-5.7 -8.9,-10 z"
   class="st1" />
		<path
   id="path16108"
   d="m 200.1,55.7 c 5.3,-0.6 9.3,3.9 14.5,3.6 -5.8,2.9 -10.1,-0.6 -14.5,-3.6 z"
   class="st1" />
		<path
   id="path16110"
   d="m 109,178 c 3.9,0.5 3.8,4.6 6.8,5.9 0,-2.1 0.9,-3.6 2.9,-4.5 1.6,3.2 -0.8,5.1 -2.8,6.2 -2.3,1.2 -3,-1.4 -3.9,-3 -0.9,-1.5 -2.8,-2.1 -3,-4.6 z"
   class="st1" />
		<path
   id="path16112"
   d="m 153.8,162.7 c 0.1,-2 0.8,-3.7 3,-4.4 1.3,3.3 -1,5.4 -3.2,6.3 -2.1,0.9 -2.9,-1.7 -3.9,-3.4 -0.8,-1.3 -2.6,-2 -2.7,-4.2 3.9,0.2 3.7,4.5 6.8,5.7 z"
   class="st1" />
		<path
   id="path16114"
   d="m 192.7,135.2 c 1.2,3.6 -1.2,5.6 -3.3,6.5 -1.9,0.8 -2.9,-1.9 -3.8,-3.6 -0.7,-1.3 -2.9,-1.7 -2.3,-4.1 3.6,0.4 3.5,4.5 6.4,5.8 0.1,-2 0.9,-3.6 3,-4.6 z"
   class="st1" />
		<path
   id="path16116"
   d="m 185.7,185.5 c 0.2,-1.7 0.9,-3.4 2.9,-4.2 1.5,3.2 -0.9,5.2 -2.9,6.2 -2.2,1.1 -3,-1.4 -3.9,-3.1 -0.7,-1.4 -2.7,-1.9 -2.8,-4.2 4.1,-0.3 3.5,4.8 6.7,5.3 z"
   class="st1" />
		<path
   id="path16118"
   d="m 209.7,65.3 c -2.5,2.9 -7.8,3.8 -10.2,1.7 -0.9,-0.8 -2.4,-1.6 -0.9,-3.1 1.4,-1.5 1.9,-0.8 2.6,0.8 0.8,1.8 2.8,1.9 4.3,1.1 1.5,-0.9 2.8,-0.9 4.2,-0.5 z"
   class="st1" />
		<path
   id="path16120"
   d="m 158.3,155.1 c 5.1,-0.4 9,3 13.2,5.3 -5.3,0.8 -8.8,-3.5 -13.2,-5.3 z"
   class="st1" />
		<path
   id="path16122"
   d="m 133.8,181.6 c -5.4,0.7 -9,-3.5 -13.4,-5.4 5.2,-0.3 9.2,2.9 13.4,5.4 z"
   class="st1" />
		<path
   id="path16124"
   d="m 144.5,217.7 c 1.1,3.1 0.1,5.3 -1.8,6.9 -1.6,1.4 -2.4,-1 -3.5,-1.6 -2.9,-1.5 1.3,-3.1 0.2,-4.7 0.7,1.2 1.4,2.4 2.1,3.6 1,-1.4 1,-3.1 3,-4.2 z"
   class="st1" />
		<path
   id="path16126"
   d="m 218.2,108.1 c 3.6,1.1 7.4,0.6 10.9,2.5 0.9,0.5 2.4,0.6 1.9,2.2 -0.7,2 -1.9,0.1 -2.5,-0.1 -3.6,-0.9 -7,-2.2 -10.5,-3.4 0,-0.4 0.1,-0.8 0.2,-1.2 z"
   class="st1" />
		<path
   id="path16128"
   d="m 205.4,127.5 c 4.3,-0.3 7.8,1.8 12.6,4.2 -5.9,0.8 -9.3,-1.6 -12.6,-4.2 z"
   class="st1" />
		<path
   id="path16130"
   d="m 203.1,106.4 c 6.1,-3.7 10.3,-1.2 14.5,0.5 -4.5,1.2 -8.7,-1.3 -14.5,-0.5 z"
   class="st1" />
		<path
   id="path16132"
   d="m 200.7,110.4 c 2.6,2.7 5.1,4.7 8.7,3.7 -2.1,2.1 -4.2,2.4 -6.9,1.1 -2.1,-1 -3,-1.9 -1.8,-4.8 z"
   class="st1" />
		<path
   id="path16134"
   d="m 198.2,165.8 c 1.4,-3 5.2,-3 5.9,-6.1 0.2,-0.8 1,-0.9 1.5,-0.5 0.4,0.4 0.6,1.4 0.4,1.8 -2,2.5 -3.5,5.8 -7.8,4.8 z"
   class="st1" />
		<path
   id="path16136"
   d="m 195.5,89.4 c -8.1,0.9 -8.3,0.8 -10.5,-3.5 3.8,1 6.8,3.5 10.5,3.5 z"
   class="st1" />
		<path
   id="path16138"
   d="m 193.8,108.3 c -0.2,0.4 -0.3,0.6 -0.4,0.6 -2.7,0.5 -5.2,0 -7.1,-2.1 -0.6,-0.6 -0.4,-1.5 0.3,-1.6 2.9,-0.2 5,1.6 7.2,3.1 z"
   class="st1" />
		<path
   id="path16140"
   d="m 162.5,147.2 c 0.6,1.1 1.2,2.2 2.1,3.7 0.6,-2.5 1.5,-4.5 4.8,-5.1 -1.5,2.9 -2.5,5.7 -5.2,6 -1.7,0.2 -2.1,-2.3 -1.7,-4.6 z"
   class="st1" />
		<path
   id="path16142"
   d="m 239.3,71.7 c -4.5,0 -5.8,-5.3 -9.8,-6 5.1,-0.9 6.7,3.8 9.7,6.2 0,-0.1 0.1,-0.2 0.1,-0.2 z"
   class="st1" />
		<path
   id="path16144"
   d="m 148.7,195.4 c 1.3,3 -1,4.4 -2.7,6.1 -0.5,0.5 -1.2,0.9 -1.7,0.1 -0.3,-0.5 -0.2,-1.2 -0.2,-1.9 2.8,-0.1 1.8,-4.3 4.6,-4.3 z"
   class="st1" />
		<path
   id="path16146"
   d="m 201,102.7 c -0.3,1.5 -1.4,1.5 -1.9,1.2 -1.6,-1.2 -4.4,-0.2 -5,-2.9 -0.2,-0.9 0.8,-1.2 1.3,-0.9 1.7,1.3 4.2,1 5.6,2.6 z"
   class="st1" />
		<path
   id="path16148"
   d="m 226.1,174.6 c -0.9,0.7 2.1,2.2 -0.5,2.4 -2.8,0.2 -1.2,-2.8 -2.5,-3.9 -0.5,-0.4 -0.3,-2 1.2,-2 3,-0.1 1.1,2.4 1.8,3.5 z"
   class="st1" />
		<path
   id="path16150"
   d="m 216.9,96.1 c -2.6,1.4 -4.9,1 -7.2,-1.1 3,-2.3 5,0.3 7.2,1.1 z"
   class="st1" />
		<path
   id="path16152"
   d="m 217.2,85.3 c -2.3,2.2 -4.3,2 -6.3,1 -0.5,-0.3 -1,-0.8 -0.3,-1.5 1.3,-1.4 2.5,-1 3.9,-0.1 0.6,0.5 1.5,0.4 2.7,0.6 z"
   class="st1" />
		<path
   id="path16154"
   d="m 192.3,83.4 c 2.4,-3.2 4.5,0.3 7.6,-0.2 -3.8,2.3 -3.8,2.3 -7.6,0.2 z"
   class="st1" />
		<path
   id="path16156"
   d="m 172.9,191.4 c 0.2,2.7 -1.1,4.3 -3.5,4.4 -1.2,0 -2,-1.7 -1.3,-3.2 0.2,-0.5 0.8,-2.4 1.7,-0.6 2.1,3.6 1.8,-0.8 3.1,-0.6 z"
   class="st1" />
		<path
   id="path16158"
   d="m 104,220.7 c 0,3.4 -1.1,5.1 -3.6,5 -1.2,-0.1 -1.9,-1.8 -1.2,-3.2 0.2,-0.5 0.5,-1.6 1.6,-0.9 1.6,1 1.9,1 3.2,-0.9 z"
   class="st1" />
		<path
   id="path16160"
   d="m 158,235.7 c 0,3.4 -1.1,5.1 -3.6,5 -1.2,-0.1 -1.9,-1.8 -1.2,-3.2 0.2,-0.5 0.5,-1.6 1.6,-0.9 1.6,1 1.9,1 3.2,-0.9 z"
   class="st1" />
		<path
   id="path16162"
   d="m 224.9,68.4 c 0.2,2.7 -1.1,4.3 -3.4,4.4 -1.1,0 -2,-1.7 -1.3,-3.2 0.2,-0.5 0.8,-2.4 1.7,-0.6 1.9,3.6 1.7,-0.8 3,-0.6 z"
   class="st1" />
		<path
   id="path16164"
   d="m 205.2,47.2 c 0.8,-0.1 1.2,-0.3 1.4,-0.2 2.3,0.8 4.7,1.6 8,2.7 -4.1,0.3 -7.4,1.5 -9.4,-2.5 z"
   class="st1" />
		<path
   id="path16166"
   d="m 228.1,89.3 c -0.8,0.7 -1.5,1.7 -1.9,1.6 -1.6,-0.5 -3.5,-0.8 -4.2,-2.8 -0.2,-0.8 0.4,-1.1 1.2,-1.1 1.9,0.1 3.2,1.2 4.9,2.3 z"
   class="st1" />
		<path
   id="path16168"
   d="m 150.8,192.3 c 0.9,-0.1 1.4,-0.3 1.5,-0.2 1.5,1.8 5,-0.3 5.6,2.9 0,0.2 -0.3,0.8 -0.4,0.8 -2.3,-0.5 -4.5,-1.5 -6.7,-3.5 z"
   class="st1" />
		<path
   id="path16170"
   d="m 204.8,79.5 c -1.6,2.1 -3.6,-1.9 -5.2,0.4 -0.5,-0.4 -0.9,-0.9 -1.4,-1.3 0.5,-0.5 1.1,-1.4 1.7,-1.4 2.1,-0.3 3.6,0.8 4.9,2.3 z"
   class="st1" />
		<path
   id="path16172"
   d="m 227.6,80.8 c 0.9,-0.7 2.1,-1.7 2.3,0.3 0.1,1.1 -1.1,1.9 -2.5,1.8 -1.3,-0.1 -2.5,-0.8 -2.3,-2 0.5,-2 1.6,-0.3 2.5,-0.1 z"
   class="st1" />
		<path
   id="path16174"
   d="m 171.7,69.9 c 1.5,-2.7 0.8,-5 3.1,-5.8 0.3,-0.1 1.1,0.3 1.1,0.6 0.4,2.4 -1.3,3.3 -4.2,5.2 z"
   class="st1" />
		<path
   id="path16176"
   d="m 216.3,98.4 c 3,-1.5 4.3,1.1 6.2,1.9 -2.6,0.6 -2.6,0.6 -6.2,-1.9 z"
   class="st1" />
		<path
   id="path16178"
   d="m 207,43.6 c -2.7,1.1 -4.4,0.1 -5.7,-2.1 2.8,-1.7 3.5,1.7 5.7,2.1 z"
   class="st1" />
		<path
   id="path16180"
   d="m 169.5,73 c -0.9,-0.1 -1.6,-0.3 -1.4,-1.1 0.3,-1.2 1.1,-1.9 2.4,-1.9 0.9,0 1.8,0.3 1.4,1.3 -0.4,1.1 -1.3,1.9 -2.4,1.7 z"
   class="st1" />
		<path
   id="path16182"
   d="m 222.8,65.3 c -0.9,1.8 -2.6,2.2 -4.2,2.6 -0.1,0 -0.6,-1.1 -0.5,-1.1 1.3,-1 2.6,-2.3 4.7,-1.5 z"
   class="st1" />
		<path
   id="path16184"
   d="m 101.8,218.3 c -0.9,1.8 -2.6,2.2 -4.2,2.6 -0.1,0 -0.6,-1.1 -0.5,-1.1 1.3,-1 2.6,-2.3 4.7,-1.5 z"
   class="st1" />
		<path
   id="path16186"
   d="m 155.9,233.2 c -1.1,2.3 -3.1,1.9 -4.6,2.6 0.8,-2.4 2.3,-3.1 4.6,-2.6 z"
   class="st1" />
		<path
   id="path16188"
   d="m 171.4,188.3 c -2.1,1.6 -3.4,2.5 -5.9,2.6 1.6,-2.5 3.1,-3.2 5.9,-2.6 z"
   class="st1" />
		<path
   id="path16190"
   d="m 208.3,179.5 c 0.4,1.8 1.6,4 -0.1,5.2 -1,0.7 -1.3,-0.5 -0.8,-1.7 0.5,-1 0.6,-2.3 0.9,-3.5 z"
   class="st1" />
		<path
   id="path16192"
   d="m 138.3,167.3 c 0.9,0.1 0.7,0.8 0.7,1.3 0.1,1.1 -0.6,1.4 -1.5,1.3 -0.6,-0.1 -1.4,0 -1.4,-1 0,-1.3 1.6,-0.7 2.2,-1.6 z"
   class="st1" />
		<path
   id="path16194"
   d="m 238.2,118.3 c 2.1,-0.8 3.3,-0.1 4.1,2.9 -1.8,-1.2 -2.9,-2 -4.1,-2.9 z"
   class="st1" />
		<path
   id="path16196"
   d="m 216,78.1 c 0.2,-1.3 1.1,-1.1 1.8,-1.1 0.3,0 1.1,-0.1 0.7,0.7 -0.3,0.7 -0.9,1.4 -1.8,1.2 -0.3,-0.1 -0.5,-0.6 -0.7,-0.8 z"
   class="st1" />
		<path
   id="path16198"
   d="m 162.3,75.8 c 1.6,-2.4 2.5,-3.2 4.1,-2.6 -0.5,1.4 -1.7,1.4 -4.1,2.6 z"
   class="st1" />
		<path
   id="path16200"
   d="m 141.6,195.3 c 0.7,0.4 1.4,0.9 1.3,1.8 0,0.3 -0.5,0.7 -0.9,0.8 -0.9,0.2 -1,-0.5 -1,-1.2 0,-0.5 -0.2,-1.2 0.6,-1.4 z"
   class="st1" />
		<path
   id="path16202"
   d="m 103.2,39.7 c -2.6,0.2 -4.2,1.3 -5.9,2.3 1.8,2.9 5.5,1.1 7.4,3.8 -3.9,0.6 -7.5,0.5 -10.2,-2.8 -0.9,-1.1 -0.2,-2.2 0.6,-2.4 2.5,-0.6 4.5,-4.5 8.1,-0.9 z"
   class="st1" />
	</g>
</g>
</svg>
