<?xml version="1.0" encoding="UTF-8" standalone="no"?>
<svg
   xmlns:dc="http://purl.org/dc/elements/1.1/"
   xmlns:cc="http://creativecommons.org/ns#"
   xmlns:rdf="http://www.w3.org/1999/02/22-rdf-syntax-ns#"
   xmlns:svg="http://www.w3.org/2000/svg"
   xmlns="http://www.w3.org/2000/svg"
   xmlns:sodipodi="http://sodipodi.sourceforge.net/DTD/sodipodi-0.dtd"
   xmlns:inkscape="http://www.inkscape.org/namespaces/inkscape"
   inkscape:version="1.0 (4035a4f, 2020-05-01)"
   height="297.10886"
   width="260.13495"
   sodipodi:docname="lion-rampant.svg"
   xml:space="preserve"
   viewBox="0 0 260.13495 297.10886"
   y="0px"
   x="0px"
   id="Layer_1"
   version="1.1"><metadata
   id="metadata23761"><rdf:RDF><cc:Work
       rdf:about=""><dc:format>image/svg+xml</dc:format><dc:type
         rdf:resource="http://purl.org/dc/dcmitype/StillImage" /><dc:title></dc:title></cc:Work></rdf:RDF></metadata><defs
   id="defs23759" /><sodipodi:namedview
   inkscape:current-layer="Layer_1"
   inkscape:window-maximized="0"
   inkscape:window-y="25"
   inkscape:window-x="0"
   inkscape:cy="175.8299"
   inkscape:cx="133.73031"
   inkscape:zoom="2.52"
   fit-margin-bottom="0"
   fit-margin-right="0"
   fit-margin-left="0"
   fit-margin-top="0"
   showgrid="false"
   id="namedview23757"
   inkscape:window-height="480"
   inkscape:window-width="820"
   inkscape:pageshadow="2"
   inkscape:pageopacity="0"
   guidetolerance="10"
   gridtolerance="10"
   objecttolerance="10"
   borderopacity="1"
   bordercolor="#666666"
   pagecolor="#ffffff" />
<style
   id="style23384"
   type="text/css">
  .st0{fill:#FFFFFF;}
  .st1{fill:#000000;}
</style>
<g
   transform="translate(-16.269688,-24.170098)"
   id="g23754">
	<g
   id="g23752">
		<path
   id="path23386"
   d="m 234.8,70.4 c 7.9,3.2 14.7,7.1 12.2,17.5 -1.3,5.4 -10.3,8.9 -14.8,8.8 0.1,-1.6 1.5,-2.3 2.5,-3.2 5,-4.3 3,-9.6 -1.9,-12.5 -3.5,-2 -7.7,-2.4 -10.9,-5.1 -1.2,-1 -2.3,-2.3 -3.9,-3.1 -0.1,2.2 1.5,3.2 2.5,4.6 2.8,3.6 5.3,7.4 5.7,12.1 0.9,10.9 -10.6,15.6 -18,11.5 -2.8,-1.5 -6.4,-2.1 -5.6,-6.6 0.2,-0.9 -0.7,-2.3 0.7,-2.5 1.2,-0.2 2.5,-0.4 3.5,0.7 1.4,1.5 2.8,3.1 5.1,3.6 2,0.4 4,0.4 4.9,-1.6 0.9,-2.1 0.2,-3.8 -1.9,-5 -2.5,-1.4 -5.7,-1.7 -7.8,-4.1 -0.6,-0.7 -1.6,0.2 -2.2,0.7 -3,2.2 -6,2.7 -9.1,0.4 -2.8,-2.1 -5.9,-4.1 -5.4,-8.3 0.2,-1.8 -1.1,-4.3 0.7,-5.2 2,-0.9 2.9,1.8 4.3,3 1.7,1.4 3.2,2.8 5.6,1.8 3.4,-1.4 4.1,-4.4 4.5,-7.5 0.3,-2.6 0.3,-5.3 0,-8 -0.8,-7.4 2.4,-12.8 7.4,-17.9 12.6,-12.9 27.9,-14.4 44,-10.3 11.5,3 19.3,14.4 19.5,26.5 0.1,9 -1.4,17.7 -6.2,25.5 -7.1,11.5 -18.2,16.9 -30.9,20.3 -8.8,2.3 -18,3.6 -26.1,8.3 -3.8,2.2 -7.8,4.3 -10.4,8.3 5.5,-3 11.1,-2.4 17,-1.6 6.8,0.9 12.6,-2.5 17.6,-6.4 5.3,-4.2 11.3,-5.2 17.6,-5.7 2.5,-0.2 5.1,-0.1 7.6,0 0.8,0 2.1,-0.8 2.5,0.9 0.2,1.2 -0.7,2 -1.5,2.4 -2.3,1.3 -4.7,2.5 -7.5,2.8 -6.7,0.7 -11.6,4.9 -16.7,8.7 -5.1,3.9 -11,4.5 -17.1,5 -6.5,0.5 -13,1.1 -19,4.2 -2.5,1.3 -4.2,3.3 -5.2,6.1 6,-5 12.7,-4.4 19.8,-3.7 8.6,0.9 17.1,-0.3 22.8,-8 4.9,-6.6 11.8,-8.6 19.4,-9.3 2,-0.2 3.8,-0.9 5.5,-1.9 1,-0.5 2.1,-0.8 2.8,-0.2 0.8,0.8 0.7,2.3 0.2,3.2 -1.6,2.5 -3.2,5.1 -6.4,5.7 -7.2,1.4 -12,5.7 -16.3,11.6 -5.2,7.1 -12.9,10.3 -21.9,10.6 -4.2,0.1 -8.3,-1.1 -12.5,-0.2 -7.9,1.7 -11.7,6.6 -10.9,15 2.8,-12.5 13,-13.3 22.9,-10.9 4.5,1.1 9.1,0.9 13.5,0.4 4.5,-0.5 8.1,-3.3 9.8,-7.9 2.4,-6.4 6.7,-10.7 13.4,-12.6 2.5,-0.7 5,-0.4 7.4,-0.4 2,0 2.7,2.4 1.4,3.9 -0.4,0.4 -1,0.8 -1.6,0.9 -8.4,1.4 -11,7.9 -13,14.8 -1,3.3 -2.9,5.4 -5.7,6.8 -6.8,3.4 -13.7,5.3 -21.5,3.4 -3.1,-0.8 -6.6,-0.3 -9.9,-0.1 -2.1,0.1 -3.8,1.6 -4.7,3.4 -0.8,1.8 0.7,3.2 1.9,4.5 4.4,4.4 10.3,4.8 15.6,4.1 8.5,-1.2 16.2,-0.3 23.6,3.8 0.2,0.1 0.5,0.1 0.8,0.1 0.8,-1 0.4,-2.2 0.4,-3.2 -0.3,-3.3 0.7,-6.6 2.7,-8.6 4.6,-4.5 8.1,-9.8 12.1,-14.7 0.7,-0.8 1.4,-2.1 2.8,-1.5 1.4,0.6 0.6,2 0.7,3 0.6,6 -0.2,11.7 -5.3,15.5 -4.1,3 -4,6.5 -2.4,10.7 2.1,5.6 4,11.2 3.2,17.3 -1,8.2 -3.4,15.6 -11.2,20 2,2.9 4.8,5.5 3,9.8 -0.9,2.1 -1.7,2.7 -3.3,0.8 -2.8,-3.3 -6.6,-3.7 -10.6,-3.3 -2.9,0.3 -3.7,3 -2.4,6.4 0.8,2.2 3.4,3 4,5.5 -7.2,1.6 -12.8,-1.9 -18.2,-5.4 -1.6,-1 -1.8,-1 -2.4,0.7 -1.3,3.7 -1.4,3.7 2.2,9.9 -5.7,1 -9.4,-1.1 -11.3,-6.1 -1.6,-4.2 -3.9,-7.6 -8.7,-8.8 -2.1,-0.6 -3.9,-2.1 -5.9,-2.9 -2,-0.8 -3.2,-2.6 -5.2,-3.5 3,3.3 2.3,7.2 2.3,11 0,1.3 0.3,2.3 1.3,3.3 3.4,3.3 6.4,7 9.3,10.7 3.2,4.1 8,4.9 13.1,2.4 5.8,-2.9 8.5,-2.6 11.9,1.3 1.1,1.2 1.8,2.6 1.8,4.3 -0.1,3.7 1.2,6.8 4.1,9.1 2.6,2 3.9,4.7 4.7,7.7 0.2,0.7 0.7,1.6 -0.1,2 -0.6,0.3 -1.5,0.3 -2.2,0.1 -1.4,-0.5 -2.6,-1.3 -4.2,-2 -0.6,3.2 1,5.9 0.9,8.9 0,0.6 0.7,1.3 1.1,1.9 0.6,1 3.4,0.1 2.3,2.4 -0.8,1.7 -2.7,2.2 -4.5,1.9 -2.7,-0.4 -4.1,0.7 -4.9,3.2 -0.6,1.7 0.1,2.7 1,4 2.3,3.1 1.3,5.4 -2.7,5.7 -2,0.2 -2.1,0.9 -2.6,2.5 -1,3.1 -3.3,5.5 -5.7,7.7 -1.9,1.8 -2.8,-0.9 -4.2,-1 -0.8,2.4 -1.7,5.5 -4.1,5.8 -2.2,0.3 -3.5,-2.9 -5.3,-4.4 -0.7,-0.5 -0.3,-2.8 -2,-1.6 -1.6,1.1 0.1,1.9 0.8,2.6 1.4,1.7 1.4,3.4 -0.1,5 -1.9,2 -3.9,3.9 -5.9,5.9 -0.6,0.6 -1.2,1.3 -2.3,1 -1.3,-0.4 -0.6,-1.5 -0.7,-2.2 -0.1,-0.9 0.1,-1.8 -0.2,-2.6 -0.4,-1 -0.8,-2.1 -2.1,-2.3 -1.5,-0.1 -0.5,1.2 -1,1.7 -1.8,1.9 -3.9,3.4 -4.9,6.1 -0.8,2.2 -3.3,0.5 -4.8,-0.4 -0.7,-0.4 -1.1,-1.3 -1.4,-2.1 -1.3,-3.1 -3.2,-5.1 -6.9,-3.5 -0.5,0.2 -1.4,0.2 -1.9,0 -3.7,-1.8 -5.9,-0.3 -7.8,3 -1,1.7 -2.9,1.1 -3.2,-0.8 -0.3,-1.9 -0.6,-4 0.3,-6 1.4,-3 3.4,-5.5 4.4,-8.8 0.6,-1.9 2.9,-2.5 4.8,-2.9 -1,-2.7 -2.3,-4.9 -6,-4.5 -1.3,0.1 -2.9,-0.9 -1.5,-3.3 2,-3.4 10.8,-8.1 14.5,-7.1 2.8,0.8 4.5,2.8 5.5,5.6 1.1,3.1 2.8,3.8 6.1,2.1 4,-2.2 7.5,-4.6 8.1,-9.3 0.8,-5.8 -0.6,-9.4 -8.7,-12.1 -5.1,-1.8 -10.3,-3.1 -15.1,-5.4 -0.7,-0.3 -1.6,-0.5 -1.9,-1.1 -4.3,-6.6 -11.9,-8.4 -18,-12.4 -2.4,-1.6 -4.6,-3.3 -6.6,-5.4 -0.2,0.1 -0.4,0.2 -0.6,0.3 -4.2,3.9 -6.9,4.7 1.6,8.7 6.3,3 7.2,8.3 2.2,14.2 -1.1,1.3 -2.3,2.6 -3.3,4.1 -1.4,2.1 -2.6,4.2 -0.3,6.8 1.5,1.7 0.4,2.9 -1.8,3.1 -3.1,0.3 -5.9,-0.4 -8.4,-3.6 0.4,5.7 0.5,10.3 -2.8,14.3 -0.5,0.7 -0.5,1.9 -1.6,2.2 -1.4,0.3 -2.2,-0.8 -2.7,-1.7 -0.6,-1 -1.3,-2.1 -1.1,-3.5 0.4,-2.4 -0.6,-4.1 -2.9,-5.3 0,3.1 -1.6,5.8 -1.8,8.9 -0.3,4 -4.2,5.4 -7.6,3.2 -1.1,-0.7 -1.4,-1.3 -2.4,0.3 -1.5,2.4 -3.7,4.3 -5.6,6.6 -2.1,2.5 -3.5,0.9 -3.9,-1 -0.5,-2.3 -1.7,-4.3 -2.4,-6.5 -0.2,-0.7 0.4,-2.1 -1.2,-1.6 -0.8,0.3 -1.1,0.9 -0.8,2.1 1.1,4.7 -1.8,7.9 -4.7,10.9 -0.8,0.9 -1.8,0.8 -2.6,-0.1 -0.9,-0.9 -1.6,-1.9 -2.3,-2.9 -1.4,-1.9 -2.7,-4 -6.1,-2 -2.6,1.5 -6.1,1.3 -7.7,4.7 -0.6,1.3 -1.5,0.7 -2.4,-0.1 -2.1,-1.8 -3,-4.1 -2.4,-6.7 0.6,-2.6 -0.6,-3.2 -2.7,-3.1 -2.4,0.1 -4.5,-0.3 -6,-2.2 -1.2,-1.6 -2.3,-0.3 -3.2,0.1 -1.4,0.7 -2.9,1.1 -3.8,0.1 -0.8,-0.9 -0.5,-2.5 0.3,-3.8 1.5,-2.2 2.5,-4.7 4.1,-6.9 2.2,-3 6.3,-3.5 9.7,-1.5 2,1.2 2,1.2 4.4,1 -0.3,-1.1 -1.1,-1.1 -2,-1.4 -1.2,-0.3 -2.5,-1.2 -2.3,-2.6 0.8,-4.4 -2.1,-3.5 -4.4,-3.1 -0.9,0.2 -1.8,0.8 -2.4,0 -0.5,-0.7 0.1,-1.6 0.6,-2.4 1.6,-2.9 6.2,-4.8 10.1,-4 0.5,0.1 1,0.8 1.3,0.6 5,-2 7.5,0.4 10,4.6 1.4,2.4 4.7,0.2 6.9,-0.4 7.8,-2.4 12.9,-8.5 18,-14.2 3.7,-4.2 2.3,-11.4 -2.9,-16.3 -7.6,-7 -12.8,-15.4 -14.5,-25.5 -0.9,-5.7 -2.4,-12.1 3.1,-16.8 2.1,-1.8 4.4,-3 7.4,-2.9 8.7,0.4 17,-0.7 24.9,-4.6 0.4,-0.2 0.8,-0.6 2,-1.4 -9.5,0.2 -17.2,-3.1 -24.6,-7.1 -2.6,-1.4 -4.4,-4.1 -7.6,-4.2 -1,0 -1.9,-1.5 -2.9,-0.3 -0.9,1.1 -0.7,2.4 -0.3,3.6 0.5,1.2 1.4,2.3 2.1,3.5 1.5,2.8 0.8,4.1 -2.3,4.4 -5,0.6 -6.3,0.1 -10.7,-4.1 0,2.4 0,4.3 0,6.3 0,1.3 0.2,2.6 0,3.8 -1.3,7.1 -5.4,8.7 -11.4,4 1.7,4.5 0.9,8.7 -0.8,12.7 -1,2.5 -2.7,4.2 -5.8,2.3 -2.5,-1.6 -5.6,-2.2 -7.3,-5.3 -0.5,0.8 -0.9,1.2 -1,1.7 -1.8,6.2 -2.8,5.5 -9.2,5 -0.8,-0.1 -1.7,-1 -1.8,0.5 -0.3,4.3 -4.2,6.2 -6.4,9.3 -1.2,1.8 -3.2,1.9 -4.3,-0.6 -1,-2.4 -3,-4 -4.9,-5.9 -1.8,2 -4.1,3.4 -4.8,6.3 -0.5,2.2 -2.3,2.9 -4,1.6 -4.8,-4 -8.3,-8.9 -2.6,-15.1 -2.5,-1.7 -5,-0.8 -7.4,0.1 -1.8,0.7 -2.1,0.1 -2.2,-1.6 -0.3,-5.8 1.6,-10.5 6.9,-13.2 1.6,-0.8 1.6,-2.2 1.9,-3.3 0.3,-1 -1,-1.8 -2.1,-2.1 -1.7,-0.6 -3.4,-1.3 -5.1,-1.9 2.2,-3.5 7.7,-4.8 11.7,-2.4 1.1,0.6 1.5,1 2.9,0.2 3.4,-1.9 8.3,1.5 8.8,5.9 0.1,1.2 0.1,2.4 1.3,2.8 1.3,0.5 2,-0.6 2.8,-1.4 3.9,-3.8 7.4,-7.9 9.4,-13.2 0.9,-2.3 1.7,-4.9 3.5,-6.4 7.1,-5.8 9.8,-14 13.4,-21.8 -0.9,-1.5 -3.3,0.7 -3.7,-1.5 -0.3,-1.8 1.7,-2.3 2.5,-3.5 0.2,-0.3 0.5,-0.6 0.8,-0.8 4,-3.4 4.1,-4.4 1.2,-8.7 -0.8,-1.1 -1.7,-1.2 -2.9,-1.2 -1.2,0 -2.4,0 -3.6,-0.6 -5,-2.4 -5.5,-4.2 -1.7,-8.2 0.4,-0.4 0.8,-0.9 1.3,-1.4 -3.1,-1.2 -6.3,-1.6 -9.1,-3 -2.1,-1 -2.9,-2.2 -1.8,-4.4 0.5,-1.1 0.6,-2.5 1.3,-3.4 3,-3.4 1.1,-4.6 -2.1,-5.8 -3.3,-1.3 -5.1,-5 -8.9,-5.8 -1.1,-0.2 -0.4,-1.3 0.1,-2.1 1.4,-2.3 2.8,-4.7 5,-6.5 0.4,-0.3 1.2,-0.7 0.8,-1.5 -0.3,-0.5 -0.9,-0.8 -1.6,-0.8 -2.3,0.1 -4.4,0.5 -6,2.3 -1,1.1 -2.2,2.1 -3.6,1.4 -1.1,-0.6 -1.2,-2.2 -1.4,-3.6 -0.5,-3.7 1.4,-6.6 2.9,-9.7 -2.9,-1.6 -6.3,-2.6 -8.3,-5.4 -0.8,-1.1 -1.9,-2.2 -1.2,-3.7 0.6,-1.3 2.2,-2.1 3.4,-1.8 4.7,1.3 6.5,-3 9.6,-4.7 1,-0.6 0.3,-1.2 -0.2,-1.8 -0.9,-0.9 -1.7,-1.8 -2.5,-2.7 -2.2,1.2 -3.4,5.1 -5.8,3.6 -3.7,-2.2 -8.7,-2.4 -10.9,-7 -0.9,-2 -0.9,-2.9 1.4,-2.6 2.3,0.3 3.6,-0.6 4.8,-2.5 2.5,-4.2 6.3,-3.9 10.4,-2 -1.9,-1.7 -3.8,-2.9 -5.3,-4.8 -1.3,-1.5 -4,-0.3 -6.1,-0.6 -0.9,-0.1 -2.1,0.7 -2.7,-0.6 -0.5,-1.2 0.6,-1.8 1.2,-2.5 3.3,-4.2 8.2,-4.8 12.8,-5.9 3,-0.7 4.3,1.8 5.8,3.8 0.6,0.8 1,2.4 2.2,1.7 1.3,-0.8 -0.3,-1.8 -0.6,-2.7 -1.1,-3.8 -3.6,-6.3 -7.5,-7.4 -1,-0.3 -2.5,-0.4 -2.5,-1.6 0,-1.3 1.5,-1.5 2.5,-2 4.2,-2.1 8.4,-2.7 12.7,-0.3 1.2,0.7 2.7,1.3 4.1,1.5 3.5,0.5 5.5,2.2 5,5.8 3.6,-1.2 5.4,-3.3 4.5,-7.2 -0.2,-1 0.2,-1.8 1,-2.2 1,-0.5 1.5,0.5 2.2,1.1 4.1,3.7 6.1,11.2 4.2,16.1 -0.9,2.3 -2.8,3.7 -5,4.7 -4.3,2.1 -5.9,7.9 -2.3,10.9 9.9,8.1 13.7,20.1 19.8,30.6 0.4,0.6 0.8,1.3 1.1,1.9 2.1,5.2 5.8,6.6 11.3,6.2 8.2,-0.6 16.3,-0.6 24.1,-4.3 -1.5,-0.7 -3.3,0 -3.8,-1.7 -0.5,-1.7 0.4,-2.9 1.7,-3.9 2.1,-1.7 2.7,-3.9 3,-6.5 0.4,-3.2 2,-6.2 4,-9.5 -5.3,1.9 -9.6,4.7 -14.5,6.3 -7.2,2.3 -13.8,1.6 -20.1,-2.6 -3.9,-2.7 -6.3,-6.4 -6.1,-11.2 0.2,-3.2 -0.8,-5.8 -2.3,-8.4 -1.2,-2 -1.3,-4.3 0.3,-5.8 1.7,-1.6 4,-1.7 6.2,-0.5 4.5,2.4 8,5.4 7.2,11.3 -0.2,1.8 -0.5,3.7 0.3,5.6 1.5,3.4 5.5,5 10.4,3.6 4.8,-1.3 9.5,-3.1 14.2,-4.7 1.3,-0.4 2,-0.9 1,-2.6 -1.5,-2.3 -2.3,-5 -4.3,-7.2 -3.3,-3.8 -2.3,-9.1 -3.4,-13.7 -0.3,-1.4 1.1,-1.7 2,-2.3 4,-2.4 8.6,-2.6 13.1,-3.5 2.9,-0.6 5.4,-1.8 6.7,-4.2 2.8,-5 7.5,-6.3 12.6,-7.4 4.3,-0.9 8.7,-1.6 13.1,-2.3 4.1,-0.7 7.7,-3.1 11.3,-5.1 2.8,-1.6 4.4,-1.3 4.9,2.2 0.3,2.6 0.6,5.2 -0.9,7.6 -0.9,1.4 -1,2.1 0.8,3.3 2.9,1.8 6.1,3.2 8.6,5.8 2.3,2.5 4,5.2 4.6,8.3 0.8,4.3 2.9,7.2 7,8.8 2.8,1.1 2.5,2.2 0.6,4.2 -3.8,3.9 -8.7,5 -13.6,6 -1.7,0.4 -2.5,0.6 -2.2,2.4 1,6.4 0.5,12.9 2.3,19.2 1.4,4.8 5.9,8.1 11.1,8.2 1.1,0 2.4,-0.3 3.1,1 0.7,1.3 -0.7,1.7 -1.2,2.4 -3.3,4.3 -7.3,7.3 -13,7.2 -3.7,-0.1 -6,-0.2 -6.5,4.9 -0.8,7.2 -3,14.3 -2.8,21.7 0.1,2.8 1.6,5.2 1.7,7.9 0.1,2.5 -0.8,3.3 -3,2.7 -8.2,-2.3 -15.2,-6.3 -19.5,-14.1 -0.1,2.3 0,2.7 1.8,4.5 2.3,2.4 4.6,4.7 7,7 2.5,2.5 3.1,5.7 3.7,9 0.1,0.5 0.1,1.3 -0.1,1.5 -4.5,2.4 -0.1,4.2 0.6,5.8 4,8.7 10.7,15.4 17.3,22.2 5.4,5.6 10.1,12 15.1,18 5.2,6.2 12.5,8 20,9.3 8.9,1.5 17.2,-1 25,-5.2 6.7,-3.6 9.4,-12.4 5.8,-18.4 -1.6,-2.6 -4,-4.2 -6.9,-4.4 -6.9,-0.6 -13.8,-0.9 -20.7,-0.9 -8.3,0 -16.5,-1.7 -24.1,-5 -10.7,-4.7 -17.8,-12.9 -19.7,-24.6 -1.9,-11.9 -0.6,-23.4 7.5,-33.2 6.4,-7.8 14.3,-13.9 24,-16.7 8.1,-2.3 16.2,-4.5 24.2,-7.3 7.2,-2.5 14,-5.8 18.7,-12.3 5.6,-7.6 8.1,-15.7 6.3,-25.3 -1.8,-9.6 -10.1,-16.9 -19.7,-16.3 -4.2,0.3 -8.6,1 -10.8,5.7 -1.6,3.5 -1,6.8 2.1,8.9 2.9,1.9 6,3.3 9.8,2.8 3,-0.4 4.8,-1.9 4.8,-5 0,-3.3 -2.3,-3.4 -4.7,-3.4 -1.5,0 -3.8,0.6 -3.6,-2 0.2,-2.1 1.9,-2.5 3.9,-2.6 7.4,-0.1 12.3,3.8 11.9,10 -0.4,7.3 -7.2,13.8 -14.1,13.6 -3.2,-0.1 -6.3,-0.1 -9.3,-0.1 z"
   class="st1" />
		<path
   id="path23388"
   d="m 181,311 c -1.3,0.8 -2.5,1.9 -3,-0.8 -0.4,-2 -2,-3.5 -3.5,-4.7 -1.7,-1.3 -0.6,-3.1 0.1,-3.4 3,-1.2 5.8,-3.6 9.4,-2.3 1.7,0.6 3.1,0.7 4.6,-0.2 -0.3,-1.1 -1.1,-0.6 -1.5,-0.9 -2.6,-1.5 -6.6,-0.4 -8.2,-2.5 -1.5,-2 2,-5.2 0.4,-8.2 -0.6,-1.1 0.7,-1.7 1.2,-2 1.2,-0.5 2.6,-0.7 3.9,0.3 1.8,1.3 2.7,3.3 3.5,5.2 1.6,3.6 4.4,4 7.5,3.1 6.9,-2.1 11.5,-8.8 11.7,-15.8 0.2,-4.4 -2.6,-8.8 -8,-10.7 -6.5,-2.3 -13.6,-3.1 -19.4,-7.5 -0.6,-0.4 -1.2,-0.8 -1.8,-1.3 -0.2,-0.2 -0.3,-0.5 -0.5,-0.8 1.7,-0.4 2.6,1.5 4.4,1.2 0.1,-1.4 -0.8,-1.7 -1.9,-2.2 -6.5,-3.1 -13.3,-5.8 -19.4,-9.7 -9.3,-5.9 -14,-15.2 -16.7,-25.7 -0.4,-1.8 -0.8,-3.6 -0.9,-5.5 -0.1,-2.8 1,-4.4 3.4,-5.6 4.4,-2.1 8.7,-4.6 13.1,-6.7 3.2,-1.6 4.7,-4.2 4.9,-7.7 0.1,-2.1 -0.8,-3.3 -2.7,-3.9 -1.2,1.9 1.4,3.4 0,5.2 -4.1,-4.2 -9.5,-4.8 -15.1,-5.3 -11.2,-1 -22.7,-1.3 -32.8,-7.6 -1.3,-0.8 -4,-2 -3.3,-3 1.6,-2 1.2,-5.7 4.9,-6.1 2.6,-0.3 5.2,-1.3 6,-4 0.6,-1.8 1,-4.1 -2.8,-4.4 1.4,1.7 1.9,3 0.1,4.3 -1.7,1.2 -3.1,3.7 -5.3,2.2 -2.2,-1.5 -1.9,-0.2 -2.5,1.1 -1.2,2.6 -1.7,5.9 -5.9,5.5 -1.7,-0.2 -2.9,-0.6 -3.8,-2 -0.4,-0.7 -0.4,-1.9 -1.6,-1.5 -0.9,0.3 -1.1,1.4 -0.8,2.3 0.3,1.3 -0.9,2.1 -0.8,3.2 0.2,3 -1.2,6.5 3.1,8.6 -4.8,1.8 -7.6,0.1 -10.2,-2.8 -0.8,-0.9 -1.5,-2.5 -2.8,-2.1 -1.4,0.5 -0.7,2.2 -0.8,3.4 -0.3,3.7 0.5,7.5 -0.8,11.2 -1.5,4.3 -2.7,4.6 -5.9,1.5 -1.5,-1.4 -2.2,-3.3 -3.1,-5 -0.4,-0.7 -0.7,-1.6 -1.4,-1.4 -0.6,0.1 -1.1,1 -0.9,1.9 0.4,3.1 0.4,6.2 1.2,9.2 1,3.7 -0.9,6.7 -2,9.8 -0.5,1.6 -1.6,0 -1.9,-0.1 -3.7,-1.9 -6.9,-4.4 -9.1,-8.4 -1,2.8 -1.8,5.2 -2.7,7.5 -0.7,1.7 -1.6,3.2 -3.8,2.7 -2,-0.5 -4.6,-0.1 -5.5,-2.9 -0.5,-1.5 -1,-3 -1.6,-4.7 -1.8,1.9 -1.2,3.7 -0.5,5.7 0.6,1.9 1.9,3.9 0.3,6 -0.3,0.3 -0.1,1.1 -0.8,0.7 -0.3,-0.2 -0.9,-0.4 -0.4,-1.1 0.7,-1 0.6,-2.1 -0.4,-2.6 -2.8,-1.2 -3.4,-3.5 -3.1,-6.8 -3.9,4.6 1.3,6.3 2.1,9.4 -2.4,0.3 -5.1,-0.5 -6.9,1.6 -1.8,-2.2 -1.3,-4.1 0,-6.3 1.1,-1.7 1.8,-3.6 2.3,-5.7 -3,1.7 -4.7,4.7 -6,7.6 -1.3,2.9 -1.2,3.2 -4,1.5 -2.3,-1.4 -4.5,-0.9 -6.9,0 1.9,-2.7 3.4,-5.6 6,-7.4 1,-0.7 0.9,-0.9 0.5,-1.8 -0.4,-1.1 -1,-0.7 -1.7,-0.3 -1.6,0.9 -3.2,1.7 -5.1,2.7 0.1,-3.6 -0.5,-6.6 -4.6,-7.3 2,-3.1 4.6,-2.9 7.6,-2 2.4,0.7 4.5,3.1 8,1.8 -2.7,-2 -5.2,-3.2 -8,-4.1 -0.8,-0.2 -1.4,-0.7 -1.6,-1.4 -0.2,-0.7 0.5,-1.4 1,-1.4 2.4,0 3.1,-2.4 4.9,-3.1 2.4,0.8 1.6,3.2 2.5,4.7 -0.9,-1.5 0.2,-4.1 -2.6,-4.6 0.5,-3.2 2.2,-2.8 4.1,-1.3 1.3,1 2.3,2.4 2.2,4.1 -0.1,1.8 0.6,3.3 2.1,3.6 1.8,0.3 3.9,0.9 5.6,-0.9 4.5,-4.7 9.3,-9 11.3,-15.4 1.4,-4.7 5.7,-7.1 8.4,-10.8 3.5,-4.8 4.4,-10.9 8.2,-15.5 0.4,-0.5 0.5,-1.1 0.9,-1.6 0.6,-0.6 1.5,-0.7 2,-0.1 0.6,0.6 -0.1,1 -0.5,1.6 -1.4,2.3 -3.4,4.3 -3.7,7.5 4.2,-2.3 4.2,-8.3 10,-9.7 -2.3,3.6 -4.4,6.5 -5.6,10 2.3,-0.7 2.2,-0.8 5.5,-5.3 1.4,-2 2.3,-4.8 5.6,-5.2 -0.2,3.3 -4.3,4.8 -3.3,8.5 4.4,-3.6 5.5,-10.3 12.4,-12.5 -3.3,4 -6.9,6.7 -8.8,10.6 0.2,0.2 0.5,0.5 0.7,0.7 2.7,-2.6 5.4,-5.2 8.3,-7.9 1.2,4.6 -5.2,5.4 -4.1,9.6 1.2,-0.4 1.9,-1.5 2.7,-2.5 0.6,-0.8 0.7,-2.5 2.2,-1.2 0.4,0.3 2.2,1.9 -0.3,2.8 -0.7,0.3 -1.1,1.7 -1.6,2.6 2,0.5 1.6,-1.7 2.7,-2.1 0.3,0.1 0.6,0.2 0.7,0.3 2.5,6.7 2.7,7.8 8.1,2.1 4.9,-5.2 8.3,-11.2 11.7,-17.6 3.9,8 11.2,13.2 17.2,19.6 2.4,2.6 3.9,2.3 4.9,-1.1 1.4,-4.5 1.3,-9 0.2,-13.8 8.9,5.2 11.3,16 20.3,22.3 -4.6,-6.9 -10,-12.2 -12.6,-19.3 5.6,6.6 10.3,13.9 16.7,19.7 -3.2,-7 -8.4,-12.4 -13,-18.4 -2.2,-2.8 -2.5,-5.5 -2.2,-9.3 5,8.8 10.3,16.8 17.1,23.7 -3,-7.5 -9.3,-12.9 -12.6,-20.1 5.2,4.1 7,11 13.2,15.2 -2.4,-4.3 -4.8,-7.7 -7.9,-11.7 4.2,1.2 6.2,3.8 7.5,6.5 3.5,7.3 8.4,13.4 14.3,18.9 7.2,6.6 12.4,15 19.5,21.9 5,4.9 10.9,7.7 17.4,8.9 10.6,2.1 20.9,0.5 30.4,-5 7.9,-4.6 11.7,-13.1 7.5,-21.1 -2.1,-4 -5.6,-6.1 -10.5,-6.6 -12.2,-1.1 -24.7,0 -36.7,-3.7 -11.3,-3.5 -19.3,-10.2 -22.9,-21.5 -4.1,-12.9 -0.5,-30.2 11.3,-40.1 8.8,-7.5 18.7,-10.8 29.2,-13.7 8.6,-2.4 17.3,-4.5 24.7,-9.9 13.7,-9.8 18.9,-24.7 12.2,-40.1 -5.3,-12.3 -19.1,-15.9 -29.7,-10 -4.1,2.3 -6.1,7.7 -5.1,12 0.7,3 6.1,7.3 9.8,7.6 2,0.2 4.1,0.2 6.1,0 4.4,-0.3 7.6,-5.7 5.9,-9.8 -0.7,-1.6 -1.9,-2.4 -3.7,-2.4 -1.2,0 -2.5,0.5 -3.6,-0.5 2.6,-1.5 5.1,-1.4 7.2,0.6 2.3,2.2 4.4,4.8 3.1,8.2 -2.3,6.1 -7.4,10.5 -14.4,10.1 -3.6,-0.2 -7.1,-0.1 -10.5,-1.9 -6.1,-3.2 -8.1,-7.6 -6.3,-14.4 0.2,-0.8 0.1,-1.7 0.2,-2.7 -4.2,3.4 -4.4,11.6 -0.3,15.8 3.8,3.9 7.8,7.4 13.1,9.5 3.2,1.3 6.7,3.1 7.1,7.4 0.4,4.6 -0.3,8.7 -5.9,10.6 1.9,-3.1 1.8,-6 0.4,-9 -1.5,-3.2 -4.2,-4.5 -7.4,-5.6 -7.2,-2.6 -13.8,-6 -16,-14.3 -0.2,-0.7 -0.5,-1.1 -1.1,-1.3 -1,6.5 0.3,10.8 4.3,16.3 1.9,2.6 3.5,5.6 4.8,8.6 1.8,4.1 -1.6,10.2 -6.3,12.3 -4.1,1.8 -10.4,-0.2 -12.3,-4 -0.1,-0.3 0,-0.7 0.1,-1.5 2.1,1.4 3.5,3.4 6.1,3.9 4.4,1 6.6,0.7 7.8,-2.4 1.3,-3 -0.2,-6.9 -3.5,-8.4 -3,-1.3 -5.7,-2.6 -7.6,-5.5 -1.1,-1.8 -2,0.5 -2.7,1.1 -4.3,4 -7.3,3.8 -11,-0.7 -1.3,-1.6 -1.7,-3.3 -1.3,-5.4 2.2,0.6 2.8,3.4 5.3,3.6 5.4,0.4 9.6,-3.4 9.8,-9.2 0.1,-2.7 0.3,-5.4 0,-8 -0.6,-5.9 1.5,-10.7 5.2,-15 7,-8.1 15.8,-12.5 26.5,-12.8 6.9,-0.2 14,-0.8 20.4,3.1 9.6,5.8 15.3,17.7 13,29 -0.7,3.5 -1.1,7.1 -2.2,10.4 -2.3,6.9 -6.7,12.4 -12.4,16.8 -9.3,7.1 -20.6,9.4 -31.5,12.2 -9.9,2.5 -19.3,6 -26.3,14 -1.2,1.4 -2.2,2.9 -3.2,4.5 -0.3,0.5 -1.3,1.1 -0.5,1.9 0.6,0.5 1.3,0.2 2.1,-0.2 4.7,-2 9.5,-4.1 14.7,-4.1 1.7,0 3.4,0.5 5.1,0.7 7.5,0.8 13.8,-1.9 19.5,-6.4 6.2,-4.8 13.3,-5.9 21.4,-5.7 -1.8,1.3 -3.6,1.3 -5.2,1.8 -4.8,1.5 -9.3,3 -13.2,6.8 -5.3,5 -12.6,6.4 -19.9,6.6 -5.5,0.2 -10.9,1.1 -16.1,2.5 -7.1,1.9 -12.4,9.8 -12.6,17.5 -0.1,2.2 0,4.4 0.4,6.6 2,-4.1 3.2,-8.5 6.8,-11.4 4.2,-3.4 8.6,-5 14.6,-4.2 9.6,1.3 19.7,1.5 26.7,-7.5 0.8,-1 1.8,-1.8 2.7,-2.7 2.7,-3 5.7,-5.4 10.1,-5.7 3.6,-0.2 7.1,-1.3 11.1,-2.1 -2.3,3.4 -5.8,3.8 -8.9,4.6 -4.6,1.1 -8,3.9 -10.1,7.7 -5.4,9.5 -18.7,15 -29.9,12.4 -5.4,-1.3 -11.2,0 -14.9,4.7 -4.4,5.7 -4.4,13.7 -0.9,19.1 1,1.5 2.2,2.4 4.3,1.6 -3.5,-4.7 -1.7,-8.9 1.5,-12.8 4,-5 9.2,-4.8 15,-3.9 7.5,1.3 15.2,3.1 22.3,-2 2.9,-2.1 5.1,-4.6 6.3,-8 2.4,-7 8.9,-10.9 16.6,-9.9 -7.8,0.4 -10.6,6 -12.7,12.1 -3.5,10 -12.8,14.9 -23.3,12.9 -4.8,-0.9 -9.9,-0.6 -14.8,-0.1 -2.7,0.2 -4.6,2.5 -5.3,5.2 -0.6,2.6 0.3,4.9 2.4,6.7 3.6,3 7.9,4.5 12.5,4.7 3.4,0.1 6.7,-0.2 10.1,-0.6 6.6,-0.7 12.9,1.4 18.7,4.5 0.9,0.5 1.9,1 3.3,1.8 0,-2.9 0,-5.2 0,-7.6 0.1,-3.3 1.3,-6.3 3.4,-8.7 3.3,-3.7 7.4,-6.7 9.8,-12 1.5,6.2 -0.8,10.6 -4.7,13.4 -5,3.7 -4.3,7.8 -2.8,12.4 1.6,4.8 3.8,9.5 3.3,14.6 -0.6,6.6 -1.6,13.2 -7.1,18.1 -1.9,1.7 -4.2,2 -6.3,3.3 2.1,3 6.1,4.8 5.8,9.7 -3,-2.8 -6.2,-4.2 -10.1,-3.9 -2.7,0.2 -5.9,-0.1 -6.9,2.6 -1,2.9 -2.5,6.5 0.9,9.5 -6.1,-1.2 -11,-4.3 -15.6,-9.1 -0.3,5 -6.2,9 -1,14.4 -3.5,0.1 -4.3,-2.6 -5.1,-4.8 -1.7,-4.8 -4.4,-8.2 -9.4,-10 -6.5,-2.4 -12,-6.3 -15.3,-12.8 -0.4,-0.8 -1.1,-1.7 -2.7,-1.9 -0.9,3.7 1.9,6.4 2.4,9.6 0.5,3.4 3,6.3 2.9,10.2 -0.1,3.5 -2.9,6.2 -2.2,10.9 2.5,-5.2 4.4,-3.4 6.5,-0.8 1.7,2.1 3.8,4 5.5,6.2 3.9,5.1 9.7,8.3 18.4,3.5 4.6,-2.6 8.7,0 9,5.4 0,1 0,2 0.3,3 0.7,2.3 1.8,4.3 3.6,5.9 1.3,1.2 2.5,2.5 3.6,3.9 0.3,0.4 0.3,1 0.6,1.7 -2.2,-0.8 -4.2,-1.6 -6.6,-2.5 -0.2,5.7 0.2,10.9 2.7,15.8 -6,0.9 -7.9,3.2 -7.3,8.7 0.1,0.5 0.1,1 0.3,1.4 0.3,1 2.7,1.3 1.2,2.7 -1.1,1.1 -2.5,0.3 -3.8,-0.3 -0.4,-0.2 -0.9,-0.3 -1.4,-0.5 0,3.6 -0.5,7 -4,10 0.4,-3.9 2,-7.3 -0.6,-10.3 -1.1,0.4 -0.9,1.3 -0.6,2.1 1.3,2.7 0.2,5 -0.9,7.4 -0.2,0.3 0,1.3 -0.7,0.8 -3.8,-2.7 -3.2,1.2 -3.9,2.7 -1.2,2.6 -1.3,2.8 -2.9,1.7 0.5,-1.3 0.7,-2.6 0.6,-3.8 0.3,1.2 -0.2,2.6 -0.5,3.9 -0.8,-0.6 -2,-1.2 -2.2,-2 -0.5,-2.5 -1.7,-3.9 -4.1,-2.4 -2.2,1.4 -3.7,3.6 -1.4,6.3 0.2,0.2 0.3,0.4 0.5,0.8 -2.6,-0.3 -5.1,-1.7 -7.4,0.4 -0.6,0.5 -1.1,0.2 -1.1,-0.2 -0.3,-1 -1.7,-1.6 -1,-2.9 0.3,-0.7 0.7,-1.3 1.1,-1.9 0.4,-0.7 -0.1,-1.1 -0.5,-1.6 -0.8,-0.8 -1.1,0.2 -1.4,0.5 -1.6,1.6 -2.5,3.7 -1.4,5.7 0.8,1.3 -0.1,2 -0.5,2.6 -0.5,0.8 -1.5,-0.1 -2,-0.5 -2.6,-1.9 -5.4,-1 -8.5,-0.2 0.7,-3.2 2.5,-5 4.9,-6.3 0.6,-0.3 1.5,-0.9 1.1,-1.7 -0.5,-1 -1.4,-0.6 -2.2,-0.1 -2.3,1.4 -4.6,2.9 -5.3,5.8 -0.4,1.5 -1.5,2.4 -3.2,2.3 0.7,-1.9 0.9,-4 2.2,-5.9 -1.3,1.4 -1.2,3.6 -1.8,5.4 z"
   class="st0" />
		<path
   id="path23390"
   d="m 158.4,121.5 c -5.5,2.5 -2.9,-3.3 -4.9,-4.6 1,3.2 -3.5,6.7 0.9,9.7 0.5,0.3 0.2,1.9 0.2,2.9 -0.4,5.2 1.8,9.3 5.4,12.9 2.9,2.9 6.2,5.4 7,9.9 0.1,0.8 1,1.6 0.3,2.4 -0.7,0.8 -1.3,-0.3 -1.9,-0.5 -6.6,-1.3 -12.6,-3.7 -15.3,-11.9 -1.7,5.4 0.8,10.1 -2.5,14.2 -5.1,-4.2 -7,-10.3 -9.8,-16 -0.7,4.5 -0.8,8.9 0.6,13.3 1,3.2 3.1,6.2 2.6,9.9 -0.2,1.8 -0.5,3.4 -1.9,4.9 -5.6,-4.9 -10.7,-10.2 -14.8,-16.4 -1.9,-2.8 -1.8,-6.3 -1.8,-9.7 0,-1.1 1.1,-3.1 -1,-3.4 -2.2,-0.4 -2.1,1.9 -2.4,3.1 -0.6,2.4 -1.1,4.8 -1.9,7.1 -2.3,6.9 -6.4,12.7 -11.2,18 -1.6,1.8 -2.7,2.1 -3.3,-0.9 -1.4,-6.4 -2.5,-12.8 -2.2,-20.1 -8.1,8.8 -18.1,9.8 -29.3,9.3 3.5,-2.6 6.9,-4.3 9.5,-7.1 2.7,-2.9 4.7,-5.9 5.4,-9.9 1,-5.3 3.9,-9.5 8.4,-13.1 -4,-1.7 -7.8,-3 -11.3,-4.8 -2.8,-1.5 -5.2,-3.3 -7.5,-5.4 -2.3,-2.1 -1.7,-3 0.8,-4 5.2,-2 10.5,-3.4 16,-3.7 8.5,-0.4 17.1,0.8 25.5,-1.6 4.4,-1.2 9,-2.1 11.8,-6.2 1.7,-2.4 5.4,-1.9 6.7,-4.9 0,0 1.2,0.4 1.9,0.7 3.6,1.4 6.6,0.2 9.2,-2.2 2.7,-2.6 2.1,-5.4 -1.7,-7.7 7.8,-4.6 6.5,-12.2 6.3,-19.2 -0.1,-4.3 -6.9,-9.3 -11.2,-8.4 -5.1,1.1 -10.1,2.8 -16.3,3.3 2.8,1.7 4.9,1.3 7,0.8 2.9,-0.6 5.7,-1.5 8.6,-1.9 4.8,-0.6 8.6,2.3 9.6,6.8 1.5,6.8 -1,13.4 -6.7,17.4 -0.7,0.5 -1.7,0.8 -1.5,1.8 0.1,0.5 1.1,0.9 1.7,1.1 1.2,0.4 2.8,0.3 2.6,2 -0.2,1.5 -0.8,2.9 -2.6,3.7 -3.3,1.5 -5.5,0.2 -7.4,-2.3 -2.1,6.3 -8.1,5.5 -12.6,7.9 -0.2,-2.3 1.4,-2.8 2.2,-3.9 0.6,-0.8 1.7,-1.3 1.4,-2.5 -1,-4.4 2.3,-4.7 5.1,-5.4 5.2,-1.3 10.1,-3 13.9,-7.1 4.1,-4.5 3.1,-14.5 -2.2,-17.5 -3.2,-1.8 -6.9,-0.3 -10.2,0.5 -2.5,0.6 -5,0.5 -7.5,0.4 -2.4,0 -6.6,-8.2 -5.1,-10 1,-1.3 3,-0.3 4.5,-1.2 0.9,-0.5 2.4,-0.5 2.1,-2 -0.5,-1.8 -1.9,-0.6 -2.6,-0.2 -1.4,0.7 -2.7,0.7 -4.6,-0.1 4.7,-2.6 9.5,-2.8 14.1,-3.9 2.8,-0.7 5.4,-1.8 6.8,-4.1 3.2,-5.4 8.5,-6 13.7,-7.4 6.2,-1.7 12.9,-1.7 18.7,-5 1.5,-0.9 2.7,-2.5 4.8,-2.4 -1.3,4.6 -7.7,8 -13.1,10.2 4.3,0.6 6.4,-0.4 13.7,-7 -0.6,4.3 -0.6,4.3 -13.7,11.1 -0.5,-0.6 0.4,-0.7 0.5,-1.1 0.1,-0.3 0.3,-0.6 0.5,-1 -1.7,0 -3.2,0 -4.7,0 -0.7,1 0.7,0.7 0.9,1.4 0.7,3.1 2.2,3.6 4.9,2.3 2.1,-1 4.2,-2 6.3,-3 2.5,-1.3 4.3,-0.1 5.6,1.9 1.5,2.4 2.8,4.9 3.8,7.5 1.9,5 -3.1,11.3 -9.1,12 -1,0.1 -3,-1 -2.7,1.3 0.2,1.9 2.1,1 3.1,0.9 9,-1.3 14,-6.8 10,-17.6 -0.5,-1.3 -1.2,-2.6 -2.2,-4.7 4.7,2.6 7.6,5.6 8.8,10.1 1.4,5.1 3.4,9.8 9.1,11.8 -4.5,2.6 -11.2,1.1 -14.9,-3.2 0.2,4.1 2.7,5.6 10.5,6.1 -5.1,2.7 -10.2,3 -15.6,3.1 5.4,2.5 3.4,7.5 3.8,11.3 0.4,4.3 0.8,8.6 1.8,12.9 1.2,5.2 7.3,9.6 13.3,10.1 -4.3,5.8 -12.2,7 -18.3,5.3 -0.6,-0.2 -1.2,-1.2 -1.8,-0.3 -0.3,0.4 -0.6,1.5 -0.4,1.6 4.2,2.8 1,6.3 0.6,9.3 -0.9,6.4 -3.2,12.5 -2.6,19.1 0.2,2.5 0.4,4.9 1.4,7.1 -7.8,-0.8 -15.5,-7.5 -17.3,-14.8 -0.8,-3.1 -1.6,-6.1 -2.3,-9.2 1,-1.5 -0.3,-3.5 1.3,-4.8 -1.7,1.4 -0.9,3.3 -1.3,4.9 z"
   class="st0" />
		<path
   id="path23392"
   d="m 77.7,296.4 c 3.4,-4 8.3,-3.4 11.3,-6.3 -0.6,-0.6 -1.1,-1.5 -1.9,-1.1 -3.6,1.8 -7.9,2.3 -10.6,5.5 -0.9,1.1 -1.5,1.5 -2.6,1.2 -1.4,-0.4 -0.7,-1.7 -0.7,-2.6 -0.1,-3 -1,-5.3 -4.5,-6 1.5,-2.3 3.3,-2.6 5.6,-1.3 2.2,1.3 4.4,1.4 6.9,0.9 1.6,-0.3 2.9,-1 3.1,-2.2 0.3,-1.7 -1.7,-1.8 -2.9,-2.4 -0.8,-0.4 -2.1,0.2 -2.9,-1.2 3.3,-1.2 6.2,-2.9 6,-7.1 1.6,-0.3 2.2,0.9 2.8,1.8 3,4.5 5,5.1 10.3,3.6 9.4,-2.7 15.7,-9.6 21.5,-16.7 3.4,-4.2 3.4,-10.3 -2.2,-16.6 -3.9,-4.4 -8.1,-8.6 -10.6,-13.9 -3.6,-7.3 -6.7,-14.8 -4.4,-23.3 1,-3.7 3.7,-5.1 6.9,-4.9 11.1,0.7 21.3,-2.1 31,-7.2 1.4,-0.7 2.5,-0.5 4.5,-0.4 -8.7,5.6 -17.7,8.4 -27,10.7 7.6,-0.4 17.8,-3.1 25.8,-8.3 -1.1,2.4 -2.8,2.8 -4.3,3.6 -1.6,0.8 -3.1,2 -4.7,2.9 -1.6,0.8 -3.4,1.3 -5,2.2 -1.6,0.9 -3.6,0.8 -5.1,2.4 8.7,-0.6 15,-6.4 22.5,-9.1 -6.8,5.4 -14.2,9.7 -22.4,12.5 10,-1.9 18.7,-7 27.3,-12.3 0.1,0.3 0.3,0.6 0.4,0.8 -2.3,1.5 -4.7,3 -7,4.6 2.6,1.6 3.6,-1.3 5.4,-1.8 1.8,-0.5 3.5,-1.6 6,-1.6 -4.2,3.1 -8.6,4.8 -12.7,6.9 -0.9,0.5 -2.4,0.6 -2.7,1.9 -1.3,4.8 -6.1,5.9 -9,9.4 3.6,0.1 5.6,-3.2 8.8,-4.8 0.2,3.2 -4,2.7 -3.6,5.5 1.8,0.5 2.1,-1.6 3.7,-2 -0.5,2.7 -3.4,3.5 -4.4,5.7 0.3,0.1 0.5,0.2 0.7,0.2 1.4,-0.4 2.5,-3.4 4,-1.1 0.8,1.2 -1.8,2 -2.8,3.1 -0.7,0.9 -2.4,0.9 -3.4,2.3 3.3,0.6 4.6,-3 7.8,-2.4 -2.4,2.5 -5.6,3.5 -7.2,6.5 3.2,0.2 4.5,-3.4 7.9,-3.9 -1.6,1.8 -2.8,3.1 -4.1,4.5 2.3,0.4 3.3,-1.8 5.3,-2.3 0,2.8 -4.1,1.8 -3.6,4.7 1.3,-0.1 2.3,-0.6 3.2,-1.5 0.5,-0.4 0.9,-0.8 1.5,-0.1 0.7,0.8 -0.2,1 -0.5,1.4 -0.7,1.2 -3,0.9 -2.7,2.9 2.3,1.5 4.4,-5.4 6.5,0.1 -2.5,0 -3.4,2.3 -5.2,3.6 3,1.4 3.8,-4 7.2,-1.5 -2.4,0.4 -4.1,1.5 -5.3,2.9 -0.4,0.4 -2.3,-0.1 -1.2,1.4 0.8,1.1 1.4,-0.3 2.2,-0.4 1.4,-0.2 1.8,-3.6 3.4,-2 1,1.1 -1.5,2.3 -2.5,3.4 -2.1,2.2 -2.1,4.1 0.1,6.1 0.8,0.7 1.5,1.5 2.6,2 9.7,4.7 8.3,5.5 2.2,14.3 -1.4,2 -3,3.9 -3.3,6.4 -0.2,1.5 0,2.9 1.8,4 -4.7,0 -5.1,-0.3 -8.3,-6.4 -1.8,2.8 -2.1,6 -1.8,9.5 -2.2,-1.1 -3.1,-2.7 -3,-4.8 0.1,-1.9 1.6,-3.5 1.5,-5.8 -3.5,3.1 -4.3,7.6 -1.4,10.2 3.1,2.8 3.5,5.1 0.7,8 -0.3,0.3 -0.1,0.9 -0.7,1.6 -0.1,-5 -2.4,-8.9 -5.9,-12.1 -3.3,3.9 -3.4,9 -5.1,13.7 -1.9,-3.1 -1.8,-4 1.4,-12.1 -4.6,2.4 -5.2,6.7 -2,14.4 -3.1,-1.1 -4.1,-3.4 -4.9,-6.4 -2.6,4.4 -4.8,8.6 -8.3,12.4 -1,-2.6 -1.9,-4.8 -2.7,-7.1 -0.5,-1.3 -0.7,-3.6 -2.2,-3.4 -1.6,0.2 -3.9,0.8 -4.5,2.7 -1.1,3.2 -3.3,4.3 -6.4,4.8 -0.8,0.1 -1.4,1.1 -2.3,0.1 -0.8,-0.9 -0.7,-1.9 -0.4,-2.8 0.5,-1.2 1.2,-2.4 1.9,-3.6 0.3,-0.6 1.4,-1 0.3,-1.7 -1,-0.7 -1.2,0.4 -1.6,0.8 -1.6,1.4 -3.1,2.9 -3,5.3 0.1,2.2 -1.6,2.9 -3.1,3.7 -2.1,1.2 -1.7,-1.3 -2.4,-1.9 -2.5,-1.5 -5,-2.8 -9,-2.7 z"
   class="st0" />
		<path
   id="path23394"
   d="m 43.4,97.8 c -0.9,1 -1.7,2 -2.7,3.2 -0.8,-7 1.2,-9.8 8.4,-12.8 -3.2,-1.1 -6.8,-0.5 -10.8,-2.3 4.4,0.2 6.7,-3.2 10.4,-3.2 -4.7,-1.9 -10.1,5.6 -15.1,-1.5 4.5,0.4 7.7,-0.6 10.1,-3.7 0.1,-0.1 0.2,-0.1 0.3,-0.1 1.2,-0.9 3.9,1.1 3.9,-2.2 0,-2.6 -1.3,-4.2 -3,-5.7 -0.8,-0.8 -1.5,-1.6 -2.4,-2.5 2.3,-0.6 3.1,1.9 5.3,2.1 -0.4,-2.6 -2.2,-3.3 -4,-3.8 -1.6,-0.4 -3.2,-0.2 -3.8,1.9 -0.3,1.1 -1.8,1.6 -2.2,2.9 -0.2,0.7 -0.9,1.7 -2,0.8 -0.8,-0.6 -1,-1.1 -0.3,-2.2 2.1,-2.9 1.5,-5.3 -2,-6.7 1.1,-2.1 2.5,-2.8 4.5,-1.5 1.4,0.9 3.1,1.4 4.5,0.3 2,-1.5 4.1,1.6 6,-0.4 1.3,-2.2 -1.4,-2.5 -1.7,-3.6 0.4,1.2 2.8,1.7 1.8,3.8 -2.7,-2 -5.5,-3.7 -8.5,-5.2 -1.3,-0.6 -2.3,-1.9 -0.4,-3.2 1.2,-0.8 1.3,-2 1.2,-3.3 -0.1,-0.9 -0.3,-1.9 0.7,-2.4 1.2,-0.5 1.7,0.8 2.2,1.4 1.9,2.1 3.6,4.3 5.3,6.5 1.6,-0.5 0.2,-2.1 1.3,-2.9 0.6,0.6 1.4,1.2 1.7,1.9 0.3,0.9 0.3,2.5 1.4,2.2 1.5,-0.4 1.2,-2.2 0.9,-3.3 -0.6,-2.2 -2,-3.9 -3.4,-5.6 -1.1,-1.3 -0.6,-2.2 0.8,-2.8 1.6,-0.7 3.1,-1.5 4.3,-2.9 1,-1.2 2.3,-1.5 3.7,-0.8 1.4,0.8 1.2,2.4 0.8,3.4 -1.3,2.9 -0.2,5.9 -0.9,9.8 2.8,-2.9 3.1,-6.5 6.1,-8.1 1.7,2.2 3.8,3.8 7.1,2.6 -0.7,3.2 -2.2,4.9 -4.7,6.1 -4.9,2.3 -7,10.8 -2.8,14.3 9.4,7.9 12.9,19.4 18.8,29.4 1.1,1.8 2.8,3.4 3.1,5.9 -3.4,-1.6 -4.1,-5.1 -6.3,-7.4 0.5,3.7 1.8,7 4.8,9.6 -1.7,0.6 -2.3,-0.2 -3.1,-1.4 -2.6,-3.6 -3.9,-7.6 -5.2,-11.7 -0.3,-1.1 -0.8,-2.2 -1.9,-1.7 -0.8,0.3 -0.2,1.4 0,2.3 1,4.9 3.1,9.3 6.2,13.2 -1.8,1.5 -2.8,0.5 -3.6,-1.3 -1.5,-3.5 -3,-6.9 -4.5,-10.4 -0.3,-0.6 -0.5,-1.1 -1.1,-1.4 -0.5,3.3 2.1,10.3 5.5,14.9 -3.3,0 -3.9,-2.5 -5,-4.7 -1,-2.1 -0.3,-5.1 -3.5,-6.8 1.3,4 1.3,8 4,11.1 0.4,0.4 1,0.8 0.2,1.5 -1,0.8 -1.3,-0.2 -1.6,-0.8 -1,-2.3 -1.7,-4.8 -3.6,-7.4 -0.8,3.3 1.1,5.3 1.9,7.5 1,2.6 1.5,4.5 -2.3,4.3 -1.3,-0.1 -2.1,0.6 -2.2,2.4 3.4,-1.8 5.9,-0.8 7.7,2 0.6,0.8 2.8,1.3 1.3,2.7 -1,1 -2.7,0.9 -4.1,-0.2 -1.8,-1.4 -1.8,-1.3 -4.1,0.4 7.1,2.8 15.1,2 21.8,6 -3.6,4.8 -4.5,-2.8 -7.4,-1.3 0.4,2.6 2.5,3.9 5.1,4.9 -0.5,1.1 -1.1,2.3 -1.6,3.4 -2.6,-2 -4.5,-4.4 -6.3,-6.9 -1.9,-2.6 -6.8,-3.9 -9.1,-2.5 5.4,1 14.1,9.1 14,13.3 -3,-2.9 -4.7,-7 -8.3,-9.1 2.4,3.8 4,8 7.2,11.2 0.5,0.5 0.4,0.8 -0.1,1.2 -1.1,0.9 -0.7,-0.4 -1,-0.6 -0.8,-0.6 -1.2,-2 -2.8,-1.7 0,1.6 0.9,2.7 1.9,3.8 0.3,0.4 1.3,0.6 0.6,1.4 -0.2,0.3 -0.5,0.6 -0.9,0.7 -1.3,0.2 -0.7,-1 -1,-1.5 -0.7,-1.1 -0.7,-2.8 -2.8,-3 0.2,2.2 0.7,4.2 2.2,5.8 0.9,0.9 0.7,1.6 -0.2,2.1 -0.9,0.6 -1.2,-0.5 -1.6,-0.9 -0.6,-0.8 -1.1,-1.7 -1.4,-2.6 -1,-2.7 -2.9,-3.5 -5.7,-3.8 -1.9,-0.2 -5.1,0.3 -5,-3.5 4.7,3.2 6.4,2.4 9,-2.2 -1.5,-0.9 -2,0.7 -2.7,1.3 -1.3,1.4 -2.5,2.2 -4,0.4 -1.6,-1.9 0.9,-2 1.4,-3 0.2,-0.5 0.9,-0.8 1.7,-1.4 -4,-2.4 -8.7,-2.2 -12.4,-4.6 2.8,-3.3 6.5,-1.6 9.7,-2.2 -2.4,-2.1 -6.2,-1.9 -10.5,0.8 1.1,-4.7 4.3,-6.8 9.3,-8.8 -4.1,-0.1 -6.8,-0.8 -9.5,-2.2 -2.7,-1.4 -4.6,-3.6 -7,-5.2 2,-1.7 3.7,-0.8 5.6,0.5 2.2,1.5 4.7,3.4 7.9,0.8 -2.8,0 -4.8,-0.3 -6.6,-2.3 -2.4,-2.7 -5.3,-1.8 -8.8,0.5 1.9,-4.6 5.1,-6.8 8.7,-8.9 -4.2,-3.3 -8.5,-4 -13.2,-2.3 -0.9,-2.1 0.7,-2.6 2.1,-3.1 1.4,-0.5 2.8,-1 4.4,-0.7 -1.8,-0.4 -3.5,0.2 -5.1,0.9 -0.7,0.5 -2.2,1.1 -1,2.8 z"
   class="st0" />
		<path
   id="path23396"
   d="m 137.3,75.8 c -5,-0.9 -9.9,1.6 -14.9,4.3 -5,2.6 -10.1,5 -16,4.9 C 97,84.9 90.5,78.7 90.6,69.3 c 0,-2.7 -1.2,-4.7 -2.2,-6.9 -0.4,-0.8 -1.7,-1.9 -0.1,-2.9 1.2,-0.7 2.2,-0.5 3.4,0.2 4.1,2.5 6.2,5.6 5.8,10.7 -0.4,6.2 1.2,8.9 5.7,9.7 3.1,0.6 6.4,0.5 9.7,-0.3 7.1,-1.6 13.3,-5.4 20.2,-7.4 4,-1.2 8.1,-0.6 12.2,0.3 0.8,0.2 1.1,0.6 0.6,1.3 -0.5,0.7 -0.5,1.9 -2,1.8 -1.9,-0.2 -3.8,0 -6.6,0 z"
   class="st0" />
		<path
   id="path23398"
   d="m 42.7,38 c 3.2,-1.4 6.3,-1.6 9.2,-0.4 1,0.4 3.4,0.3 2.5,2.1 -0.9,1.7 -2.6,3.4 -5.2,2 -2,-1.2 -4.1,-2.4 -6.5,-3.7 z"
   class="st0" />
		<path
   id="path23400"
   d="m 159.9,201.4 c -4.4,-1.3 -8.4,-3 -12.8,-3.1 -0.6,0 -1,-0.3 -0.8,-0.9 0.1,-0.4 0.5,-0.9 0.9,-1.1 3,-1.8 10.8,1.2 12.7,5.1 z"
   class="st0" />
		<path
   id="path23402"
   d="m 25,223.8 c 2.8,-1.2 5.5,-2.1 7.3,0.7 0.2,0.4 -1.4,5.2 -2.7,5.2 -2.7,-0.1 -3.3,-3.4 -4.6,-5.9 z"
   class="st0" />
		<path
   id="path23404"
   d="m 70.2,37.8 c 2.7,1.8 3,4.1 2.9,6.7 0,1.1 -0.3,2 -1.4,2.3 -0.7,0.2 -1.7,0.1 -1.9,-0.7 -0.3,-1 -1.9,-1.9 -0.9,-2.8 1.7,-1.6 0.8,-3.5 1.3,-5.5 z"
   class="st0" />
		<path
   id="path23406"
   d="m 146.6,70.5 c -4.6,-1.3 -8.5,-0.5 -12.3,-0.8 -0.9,-0.1 -2.1,0.7 -2.6,-0.7 -0.1,-0.3 0,-0.7 0.1,-1.1 0.8,0.3 1.5,0.6 2.3,0.8 0.6,0.1 1.6,0.4 1.7,0.2 1.3,-2.2 2.5,-1.6 3.9,0 0.5,0.6 1.1,-0.1 1.5,-0.6 3.5,-4.4 3.8,-0.3 5.4,2.2 z"
   class="st0" />
		<path
   id="path23408"
   d="m 64.1,293.9 c 0.8,-2.3 1.7,-5.1 4.3,-4.9 2.2,0.2 3.3,2.5 3,5.4 -2.5,-1.3 -4.8,-2.7 -7.3,-0.5 z"
   class="st0" />
		<path
   id="path23410"
   d="m 96.9,302.2 c 2.1,-1.6 5.1,-1.2 7.4,-3.6 -0.5,3.4 -2.8,5.3 -4.2,7.8 -1.1,-1.5 -2.2,-2.9 -3.2,-4.2 z"
   class="st0" />
		<path
   id="path23412"
   d="m 190.6,312.5 c 1.4,-0.1 3,0.2 2.9,1.5 -0.2,1.5 -1.3,4 -2.2,4.1 -2.1,0.2 -2.6,-2.3 -3.1,-3.9 -0.5,-1.5 1.2,-1.8 2.4,-1.7 z"
   class="st0" />
		<path
   id="path23414"
   d="m 81.4,305.7 c -2.5,-2.6 -1.3,-4.9 -0.2,-6.8 0.3,-0.5 2.8,0.6 3.2,1.8 1.1,2.7 -2.5,2.8 -3,5 z"
   class="st0" />
		<path
   id="path23416"
   d="m 27,65.2 c 2,0.6 3.3,1.2 4.7,-0.1 0.5,-0.5 0.8,-1.9 1.9,-1 1.2,0.9 0.8,2.4 0.6,3.5 -0.2,1.1 -1.4,1.8 -2.3,1.2 -1.6,-0.9 -3.7,-1.1 -4.9,-3.6 z"
   class="st0" />
		<path
   id="path23418"
   d="m 73.9,274.9 c 1.9,-1.6 3.9,-1.3 5.9,-1.2 1,0 1.5,0.9 2,1.6 0.6,0.9 -0.6,1.1 -1,1.6 -0.7,0.8 -1.6,0.9 -2.3,0.2 -1.2,-1.1 -2.6,-1.8 -4.6,-2.2 z"
   class="st0" />
		<path
   id="path23420"
   d="m 31.2,51.1 c 2.1,-2.1 4.8,-2.5 7.2,-3.6 0.6,4.2 0.2,4.4 -7.2,3.6 z"
   class="st0" />
		<path
   id="path23422"
   d="m 176,309.9 c -2.6,0.7 -4.3,2.3 -6,4.3 -0.8,-3.3 0.8,-5.3 2.8,-6.5 1.2,-0.7 1.9,1.4 3.2,2.2 z"
   class="st0" />
		<path
   id="path23424"
   d="m 172.1,292.4 c 1,-2.1 2.1,-4.1 4.7,-3.4 0.7,0.2 1.5,0.8 1.1,2 -1.2,3.1 -3.8,1 -5.8,1.4 z"
   class="st0" />
		<path
   id="path23426"
   d="m 22.8,211.9 c 0.3,3 -2.5,1.1 -3.5,2.2 -0.7,0.8 -1.1,-0.3 -1.1,-1.1 0.1,-1.6 0.5,-3.5 2.2,-3.8 1.3,-0.3 2.3,1.1 2.4,2.7 z"
   class="st0" />
		<path
   id="path23428"
   d="m 44.6,230.1 c -1,-2.2 -2.9,-3.4 -1.7,-5.2 0.7,-1.1 2.8,-1.6 3.6,-0.2 1,1.9 -1.2,3.1 -1.9,5.4 z"
   class="st0" />
		<path
   id="path23430"
   d="m 128.8,72.7 c -1,-2.2 -1.8,-3.6 -2.3,-5.1 -0.2,-0.6 -0.4,-1.6 0.8,-1.7 0.7,0 2,-0.6 2.1,0.7 0,1.8 0.3,3.6 -0.6,6.1 z"
   class="st0" />
		<path
   id="path23432"
   d="m 136.8,78.2 c -0.5,1.7 -1.1,3.3 -1.6,5.2 -0.9,-1.9 -1.7,-3.6 -3.8,-5.2 2.1,0 3.6,0 5.4,0 z"
   class="st0" />
		<path
   id="path23434"
   d="m 22.6,193.8 c 2,0 3.5,-0.2 4.9,0.1 0.7,0.1 1.4,1 1.9,1.6 0.1,0.1 -0.6,1 -1,1.4 -1.1,1.2 -1.3,-0.3 -1.9,-0.6 -1.1,-0.7 -2.1,-1.4 -3.9,-2.5 z"
   class="st0" />
		<path
   id="path23436"
   d="m 204.3,315.4 c -0.5,-1.5 -1.1,-2.8 -1.6,-4.3 1.6,0 3.2,0 5,0 -1.2,1.4 -1.6,3.1 -3.4,4.3 z"
   class="st0" />
		<path
   id="path23438"
   d="m 128.5,86.6 c 0.6,-2.4 2.1,-4 1.6,-6.4 2.9,4.5 2.9,4.5 -1.6,6.4 z"
   class="st0" />
		<path
   id="path23440"
   d="m 139.5,78.2 c 0.4,-0.1 0.7,-0.1 1,-0.1 1,0 2,0 3,0 -1.9,2.7 -1.9,2.7 -4,0.1 z"
   class="st0" />
		<path
   id="path23442"
   d="m 138.8,64.4 c 1.1,0 2.2,0 3.7,0 -1.5,1.5 -2.6,4.1 -3.7,0 z"
   class="st0" />
		<path
   id="path23444"
   d="m 132.4,65.4 c 1.4,-0.4 2.5,-0.6 3.6,0.1 0.1,0.1 -0.3,1.3 -0.7,1.5 -1.6,0.9 -1.8,-0.8 -2.9,-1.6 z"
   class="st0" />
		<path
   id="path23446"
   d="m 137.1,83.1 c 0.5,-1.6 0.7,-2.5 1,-3.4 2.1,1.4 1,2.2 -1,3.4 z"
   class="st0" />
		<path
   id="path23448"
   d="m 231,40.5 c -10.1,5.2 -14.3,13.9 -10.9,22.8 2.1,5.4 6.9,8.6 11.7,11.6 2,1.2 4.1,2.2 6.1,3.3 4.2,2.2 5.3,5.9 4.8,10.4 -2.7,-1.1 -0.6,-3.7 -1.9,-5.3 -1.9,-2.5 -3.9,-4.7 -6.9,-5.9 -4.3,-1.7 -8.1,-4.1 -11.3,-7.6 -5,-5.3 -6.4,-12.5 -3.6,-19.5 0.3,-0.7 1.3,-1.3 0.6,-2.6 -6.9,6.6 -9.8,14.1 -8.5,23.8 0.8,5.8 4.5,9.4 7.2,13.8 1.3,2.1 2.9,4.1 1.8,8 -1.4,-7.8 -7.8,-11.6 -9.9,-18.1 -3.1,2.3 -4.1,8 -10.8,6.2 4.1,-0.2 6.4,-2 7.9,-4.3 1.6,-2.4 2.1,-5.2 1.8,-8.2 -0.9,-12.4 5.6,-20.6 15.6,-26.5 7.4,-4.4 15.6,-5.8 25.1,-5.3 -4,1.4 -7.2,0.5 -10.4,1.2 -9.7,2.2 -13.3,10.4 -10.6,19.1 1,3.2 3.4,5.2 6.5,6.1 4.5,1.3 9.2,2.6 13.8,0.1 -3.1,3.1 -14.2,3.1 -17.5,-0.2 -4.3,-4.6 -8.3,-12 -0.6,-22.9 z"
   class="st1" />
		<path
   id="path23450"
   d="m 206.7,168.2 c -0.2,-3.1 -1.1,-6.3 0.6,-9.5 2.3,-4.1 5.7,-5.7 10.4,-4.6 6.1,1.5 12.4,2.1 18.6,1.4 6.7,-0.7 11.3,-4.8 14.6,-10.6 0.7,-1.2 0.9,-2.8 2.3,-3.7 -1.6,7.8 -8.4,13.7 -15.8,15.3 -6.5,1.4 -12.6,-0.5 -18.7,-1.3 -4.5,-0.6 -10.2,2.2 -10.8,6.6 -0.3,2.2 -1.4,4.1 -1.2,6.4 z"
   class="st1" />
		<path
   id="path23452"
   d="m 194,231.6 c 0.4,-7.4 -0.8,-14.3 -4.2,-20.8 -1,-1.9 -1.2,-5.1 1.7,-6.2 2.2,-0.8 4.7,-0.7 5.7,2.4 -0.3,0.2 -0.6,0.4 -0.7,0.4 -1.5,-0.6 -2.8,-2.6 -4.6,-1 -1.9,1.7 -0.4,3.5 0.5,5 3.8,5.8 3.4,12.2 3.3,18.7 -0.1,0.7 -0.5,1.1 -1.7,1.5 z"
   class="st1" />
		<path
   id="path23454"
   d="m 151.2,230.4 c 5.2,11.1 14,18.1 26,22.5 -10.4,-1.3 -23.3,-10.2 -26,-22.5 z"
   class="st1" />
		<path
   id="path23456"
   d="m 226,269.8 c 1.6,-2.1 1.5,-4.8 2.3,-7.2 0.7,-2.3 -1.6,-3.7 -4.4,-3 -3.1,0.8 -6.3,-1 -6.6,-4 2.4,1.7 4.7,2.8 7.8,1.6 1.5,-0.6 3.6,0.2 4.9,1.8 1.3,1.6 1.4,3.1 0.1,4.8 -1.5,1.9 -0.1,5.7 -4,6 z"
   class="st1" />
		<path
   id="path23458"
   d="m 177.1,250.3 c -8.1,0.7 -21.7,-11.6 -21.7,-19.9 5.4,9.3 11.1,17.4 21.7,19.9 z"
   class="st1" />
		<path
   id="path23460"
   d="m 225.8,269.7 c 0.8,4.3 1.3,8.6 -1.7,12.4 -1,1.3 0.5,4.5 -1.8,4.3 -2.1,-0.2 1,-2.8 -0.4,-4.2 -1,-1.1 -1.7,-2.4 -2.7,-3.7 1.9,-0.4 2.5,2 4.3,1.7 0.3,-1 0.3,-2.1 0,-3.1 -0.4,-1.1 -0.4,-1.1 0.6,-2.1 0.6,-0.6 0.3,-1.3 0,-2.1 -0.5,-1.6 -0.2,-2.9 1.8,-3.1 0.1,0 -0.1,-0.1 -0.1,-0.1 z"
   class="st1" />
		<path
   id="path23462"
   d="m 196,156.4 c -0.7,-5.6 5.3,-13.5 10.5,-14.5 4.2,-0.8 8.4,-0.6 12.7,-0.7 3.7,-0.1 7.4,0.3 12,-1.2 -2.7,2.2 -4.9,2 -7,2 -5.6,0.1 -11.2,-0.2 -16.9,0.7 -3.9,0.7 -9.8,7.1 -10.9,12.5 -0.1,0.3 -0.3,0.7 -0.4,1.2 z"
   class="st1" />
		<path
   id="path23464"
   d="m 156.1,210.3 c 0.7,-1.2 1.2,-2.3 2.6,-3.1 6,-3.1 7.5,-6.5 6.5,-13.3 -0.1,-0.6 -0.3,-1.4 0.5,-1.6 0.9,-0.2 0.8,0.6 1,1.2 1.9,6.8 -0.7,10.6 -5.6,14.3 -1.3,1 -2.3,3.2 -5,2.5 z"
   class="st1" />
		<path
   id="path23466"
   d="m 114.4,181.9 c 4.7,-2.3 8.7,-5 10.2,-10.6 2.4,5.7 -3.1,11.3 -10.2,10.6 z"
   class="st1" />
		<path
   id="path23468"
   d="m 212,298.7 c -2.1,-2.6 1.4,-5.4 -0.9,-8.5 1.9,0.9 2.8,1.6 3.1,4.1 0.6,-2.5 0.9,-3.8 1.2,-5.2 0.2,-0.8 -1.4,-2.1 0.5,-2.2 1.2,-0.1 1.2,1.4 1.1,2.4 -0.3,2.3 -0.6,4.7 -0.9,7.1 -4.2,-3.4 -1.9,2.5 -4.1,2.3 z"
   class="st1" />
		<path
   id="path23470"
   d="m 175.6,247.3 c -8.1,-0.3 -11.5,-6.2 -14.6,-12.5 4,5.3 8.5,9.9 14.6,12.5 z"
   class="st1" />
		<path
   id="path23472"
   d="m 160.7,211.7 c 2.3,-4 7.6,-6.3 7.1,-12 1.9,3.9 -0.2,7.6 -7.1,12 z"
   class="st1" />
		<path
   id="path23474"
   d="m 82.9,187.9 c -1.7,5 -0.3,9.8 0.9,14.9 -3.9,-3.6 -4.4,-11.2 -0.9,-14.9 z"
   class="st1" />
		<path
   id="path23476"
   d="m 212.6,218.5 c 6.1,0.1 11.1,6 9.9,11.8 -1.6,-5.4 -4.4,-9.7 -9.9,-11.8 z"
   class="st1" />
		<path
   id="path23478"
   d="m 72.8,214.1 c -3.5,-3.5 -3.8,-8 -0.7,-13.2 -1.3,4.5 -0.3,8.8 0.7,13.2 z"
   class="st1" />
		<path
   id="path23480"
   d="m 200.8,267.2 c -4.7,-0.6 -8.9,-2.2 -11.9,-6.1 4.3,1.2 7.6,4.7 11.9,6.1 z"
   class="st1" />
		<path
   id="path23482"
   d="m 97.5,191.5 c -2.5,-2.2 -4.1,-8.8 -2.9,-11.1 0.2,-0.5 0.9,-0.9 1.4,-1 0.6,-0.1 0.8,0.5 0.7,1 -0.4,1.8 -1.2,3.3 -0.3,5.3 0.7,1.5 0.7,3.5 1.1,5.8 z"
   class="st1" />
		<path
   id="path23484"
   d="m 259.7,169.6 c -0.1,2.3 -0.3,4.6 0.3,7 0.6,2.2 2.3,4 2.4,6.5 -4,-3.3 -5.6,-9.1 -3.7,-12.9 0.3,-0.6 0.5,-0.8 1,-0.6 z"
   class="st1" />
		<path
   id="path23486"
   d="m 118.2,184.3 c 4.2,-2.2 7.4,-4.7 9.6,-8.3 -0.8,5.2 -4.7,8.7 -9.6,8.3 z"
   class="st1" />
		<path
   id="path23488"
   d="m 231.1,291.6 c -3.1,-3.2 -1.8,-7.2 -1.7,-10.9 0,-0.3 1,-0.9 1.5,-0.8 0.8,0.1 0.7,1 0.5,1.5 -1.6,3.4 -0.7,6.8 -0.3,10.2 z"
   class="st1" />
		<path
   id="path23490"
   d="m 58.8,206 c -1.8,3.8 1.5,8 -0.6,12.2 -1.4,-4.4 -1.9,-8.4 0.6,-12.2 z"
   class="st1" />
		<path
   id="path23492"
   d="m 64.6,192.4 c -1.5,2.2 0,4.1 0.1,6.1 0.1,1.2 0.4,2.5 -0.4,3.6 -0.3,0.3 -0.8,0.6 -1.2,0.7 -0.1,0 -0.6,-0.6 -0.6,-0.7 1.3,-3 -0.5,-6 0.2,-8.9 0.1,-0.5 0.7,-1.1 1.9,-0.8 z"
   class="st1" />
		<path
   id="path23494"
   d="m 85.6,172.7 c 0.7,0.3 1.1,0.5 0.6,1.6 -0.8,2 -1.5,4.1 -0.3,6.3 0.6,1.1 -0.5,2.3 -1.3,3.2 -0.1,0.1 -0.9,-0.3 -1.2,-0.6 -1.1,-1.2 0.3,-1.6 0.7,-2.4 0.8,-1.9 0.2,-3.9 0.3,-5.9 0.1,-1 0.2,-1.8 1.2,-2.2 z"
   class="st1" />
		<path
   id="path23496"
   d="m 202.1,128.6 c 0,-2.2 2.2,-2.2 3.3,-2.5 4.4,-1 9,-2.4 13.6,-0.3 -6,-0.6 -11.6,0.4 -16.9,2.8 z"
   class="st1" />
		<path
   id="path23498"
   d="m 76,182.2 c 2.9,2.8 3.2,5.4 1.4,7.1 -1.1,1.1 1.3,3.4 -1.1,2.8 -1.9,-0.5 -0.4,-2.3 -0.2,-3.6 0.2,-1.8 0.8,-3.6 -0.1,-6.3 z"
   class="st1" />
		<path
   id="path23500"
   d="m 217.6,284.5 c 3.1,1.5 3.2,2.4 1.8,8.4 -3.8,-2.4 1.2,-6.1 -1.8,-8.4 z"
   class="st1" />
		<path
   id="path23502"
   d="m 230.2,220.6 c 4.6,0.1 5.7,4.2 7.9,7.1 -3.3,-1.6 -4.7,-5.4 -7.9,-7.1 z"
   class="st1" />
		<path
   id="path23504"
   d="m 237.3,277.9 c -3.3,-0.6 -4,-3.1 -4,-5.8 0,-0.8 0.4,-1.6 -0.2,-2.4 -0.4,-0.6 -0.5,-1.2 0.5,-1.3 0.7,-0.1 0.8,0.5 0.7,1 -0.2,3.3 1.2,5.9 3,8.5 z"
   class="st1" />
		<path
   id="path23506"
   d="m 123.5,184.9 c 2.7,-1.7 4.9,-4.1 7.4,-6.8 -1.4,4.7 -3.9,7 -7.4,6.8 z"
   class="st1" />
		<path
   id="path23508"
   d="m 131.9,185.2 c -1.8,-0.3 -3.3,3.2 -4.5,1.3 -1.1,-1.7 2.4,-1.8 3.2,-3.4 0.6,-1.2 1.7,-2.2 3.1,-3.9 0.2,3 -2.5,4 -2,6.1 z"
   class="st1" />
		<path
   id="path23510"
   d="m 181.9,288.1 c 5.2,0.4 2.6,5.2 6,6.7 -6,0.2 -2.9,-4.8 -6,-6.7 z"
   class="st1" />
		<path
   id="path23512"
   d="m 35,220.8 c -3.9,-1.9 -3.9,-3.2 0,-8.4 -0.2,3.2 -2.7,5.9 0,8.4 z"
   class="st1" />
		<path
   id="path23514"
   d="m 131.8,185.3 c 2.6,0.1 2.9,-2.8 5.2,-4.2 -0.2,3.4 -2.4,4.8 -4.1,6.4 -0.4,0.4 -1.3,0.4 -1.7,0 -0.8,-1 0.7,-1.4 0.7,-2.2 0,-0.1 -0.1,0 -0.1,0 z"
   class="st1" />
		<path
   id="path23516"
   d="m 73.8,193.4 c 0,0 0.2,0.9 -0.1,1.5 -0.5,0.7 -1,2 -2.1,1.5 -1.2,-0.5 -0.1,-1.5 0.1,-2.1 0.3,-0.7 0.4,-1.5 0.7,-2 0.7,-1.1 -2.3,-2.6 0.1,-2.8 1.6,-0.3 1.3,1.8 1.3,3.9 z"
   class="st1" />
		<path
   id="path23518"
   d="m 181,311 c -0.4,-0.1 -0.7,-0.1 -1.1,-0.2 1.6,-2.6 0.8,-6.9 6.2,-7.4 -3.5,1.9 -3.2,5.5 -5.2,7.7 0,0.1 0.1,-0.1 0.1,-0.1 z"
   class="st1" />
		<path
   id="path23520"
   d="m 169,205.8 c 0,1.3 0.1,2 0,2.8 -0.2,1 1.8,2.2 0.1,2.8 -1,0.3 -2.3,-0.5 -3.6,0.3 -0.2,0.1 -0.5,-1.5 0,-1.7 2,-0.5 2,-2.6 3.5,-4.2 z"
   class="st1" />
		<path
   id="path23522"
   d="m 32.5,197 c 1.6,-0.6 2.2,0.2 2.6,1.7 0.4,1.6 0.7,3.4 2.3,4.7 -2.9,0.7 -3.8,-1.5 -3.6,-3 0.2,-1.6 -0.5,-2.4 -1.1,-3.5 -0.1,0 -0.2,0.1 -0.2,0.1 z"
   class="st1" />
		<path
   id="path23524"
   d="m 66.5,199.6 c 1.2,-2.6 -0.2,-5.3 0.5,-7.9 1,2.8 2.7,5.6 -0.5,7.9 z"
   class="st1" />
		<path
   id="path23526"
   d="m 259.8,169.7 c -0.6,-1.3 -0.2,-2.3 0.8,-3.3 2,-2 3.9,-4.2 6.2,-5.9 -1.4,3.9 -5.4,5.6 -7.1,9.2 0,-0.1 0.1,0 0.1,0 z"
   class="st1" />
		<path
   id="path23528"
   d="m 195.8,311 c -3.1,-1.6 -3.8,-3.9 -3.1,-6.6 0.2,-0.6 0.8,-1.4 1.7,-1 0.8,0.4 0.2,1 -0.1,1.5 -1,2.2 0.8,3.8 1.5,6.1 z"
   class="st1" />
		<path
   id="path23530"
   d="m 200,263.7 c 0.1,-0.9 -1.4,-1 -1,-2.1 1.4,-0.4 1.6,1.5 2.8,1.4 0.4,0 1.4,0.5 1,-0.7 -0.2,-0.5 -2,-1.2 0.1,-1.5 1.2,-0.2 2.4,0.1 2.5,1.5 0.1,0.9 -0.8,1.5 -1.8,1.5 -1.2,0 -2.5,-0.1 -3.7,-0.2 z"
   class="st1" />
		<path
   id="path23532"
   d="m 92.8,175.5 c 0.8,-2.2 1.4,-4.1 2.1,-6.2 2.2,3.7 2,4.3 -2.1,6.2 z"
   class="st1" />
		<path
   id="path23534"
   d="m 199.9,263.5 c 0.4,1.7 2.3,0.4 3.1,1.5 -3.7,0.8 -6.4,-0.8 -9.1,-3.4 2.6,-0.3 4,2.2 6.2,2 -0.1,0.1 -0.2,-0.1 -0.2,-0.1 z"
   class="st1" />
		<path
   id="path23536"
   d="m 215.7,306.7 c -0.4,-2.6 -0.4,-5.2 0.4,-7.8 0.6,2.6 2.1,5.2 -0.5,7.7 0,0 0.1,0.1 0.1,0.1 z"
   class="st1" />
		<path
   id="path23538"
   d="m 193.8,297.6 c 2.2,-1.2 3.8,-2 5.5,-3 0.6,-0.3 1.1,-0.7 1.5,0 0.4,0.6 -0.2,1.3 -0.7,1.5 -1.9,0.7 -3.4,2.6 -6.3,1.5 z"
   class="st1" />
		<path
   id="path23540"
   d="m 105.7,172.4 c 1.2,2.4 0.5,4.6 1.9,6.1 0.3,0.3 0.2,0.7 -0.2,0.7 -0.6,0.1 -1.2,0.3 -1.6,-0.5 -0.9,-1.7 -1.2,-3.6 -0.1,-6.3 z"
   class="st1" />
		<path
   id="path23542"
   d="m 205.4,308.3 c -0.7,-1.8 -1.6,-3.3 -1.3,-5 0.1,-0.7 0.7,-1.5 1.5,-1.4 1.2,0.2 0.6,0.9 0.3,1.6 -0.7,1.4 1.4,2.9 -0.5,4.8 z"
   class="st1" />
		<path
   id="path23544"
   d="m 79.2,182 c 2.6,2 2.6,2 0.7,5.9 -1.3,-1.8 -0.5,-3.7 -0.7,-5.9 z"
   class="st1" />
		<path
   id="path23546"
   d="m 254.2,218 c -3,0 -5.5,0 -8.8,0 3.3,-1.3 5.8,-2.4 8.8,0 z"
   class="st1" />
		<path
   id="path23548"
   d="m 53.4,202 c -1.3,2.3 -3.3,3.4 -6.1,3.5 1.8,-1.4 3.7,-2.9 5.5,-4.3 0.1,0.3 0.4,0.5 0.6,0.8 z"
   class="st1" />
		<path
   id="path23550"
   d="m 87.9,180 c -2.1,-1.9 -1,-3.5 -0.1,-4.9 0.7,-1 1.8,0.3 1.3,1.8 -0.4,1 -0.8,2 -1.2,3.1 z"
   class="st1" />
		<path
   id="path23552"
   d="m 59.4,197.8 c 1.7,2.4 1.9,4.8 0.2,7.2 -3,-2.5 2.4,-4.8 -0.2,-7.2 z"
   class="st1" />
		<path
   id="path23554"
   d="m 188.3,205.8 c -0.8,-1.7 0.4,-2.5 1.2,-3.3 0.7,-0.6 1.3,-1.9 2.4,-0.6 1.2,1.5 -0.5,1.3 -1.1,1.8 -0.9,0.6 -1.7,1.4 -2.5,2.1 z"
   class="st1" />
		<path
   id="path23556"
   d="m 239.6,263.5 c -1.4,0.8 -2.2,-0.1 -3,-0.5 -1.1,-0.7 -3.2,-1.7 -2.3,-2.9 1,-1.4 1,1.4 2.3,1.6 1,0 2.4,0.4 3,1.8 z"
   class="st1" />
		<path
   id="path23558"
   d="m 137.1,187.6 c 0.6,-0.8 1.7,-2.2 3.3,-4.5 -1.1,3.1 -2.2,4.4 -3.3,4.5 z"
   class="st1" />
		<path
   id="path23560"
   d="m 112.9,172.4 c 1.9,-1.5 3.3,-2.5 4.6,-3.5 0.1,2.7 0,2.8 -4.6,3.5 z"
   class="st1" />
		<path
   id="path23562"
   d="m 200.1,301.1 c -0.7,-0.5 -1.3,-0.9 -1.9,-1.3 0.7,-0.7 1.1,-1.9 2.2,-1.7 0.8,0.2 0.9,1.6 1.9,1.8 -0.7,0.4 -1.5,0.8 -2.2,1.2 z"
   class="st1" />
		<path
   id="path23564"
   d="m 138.4,189.2 c 1.4,-1.6 2.4,-2.7 3.8,-4.2 0.2,3 -0.9,4.1 -3.8,4.2 z"
   class="st1" />
		<path
   id="path23566"
   d="m 52.6,199.1 c -1,1.5 -2.3,2.9 -3.7,3.7 1.1,-1.1 2.5,-2.5 3.7,-3.7 z"
   class="st1" />
		<path
   id="path23568"
   d="m 196.6,131.6 c 0.9,-2.6 2.7,-3.6 5.4,-2.9 0,0 0,0 0,0 -1.8,1 -3.7,1.9 -5.5,2.9 z"
   class="st1" />
		<path
   id="path23570"
   d="m 174.9,243.4 c -2.2,0.1 -3.6,-0.9 -4.1,-3 1.3,1 2.7,2 4.1,3 z"
   class="st1" />
		<path
   id="path23572"
   d="m 186.5,201.9 c 0.9,-1.1 1.6,-2.5 3.7,-1.9 -0.9,1.3 -1.5,2.4 -3.7,1.9 z"
   class="st1" />
		<path
   id="path23574"
   d="m 52.5,206.2 c -0.8,0.9 -1.3,1.9 -2.4,1.9 -0.2,0 -0.6,-0.6 -0.5,-0.8 0.4,-1.2 1.3,-1.7 2.9,-1.1 z"
   class="st1" />
		<path
   id="path23576"
   d="m 196.5,131.5 c -0.8,1.1 -1.4,2.4 -3.4,2.8 0.9,-1.7 1.3,-3.2 3.5,-2.7 0,0 -0.1,-0.1 -0.1,-0.1 z"
   class="st1" />
		<path
   id="path23578"
   d="m 237.9,120.6 c 0.3,-1.2 1,-1.9 2.3,-2.4 -0.1,1.7 -1.3,1.9 -2.3,2.4 z"
   class="st1" />
		<path
   id="path23580"
   d="m 243,132.5 c -1,1.6 -1.5,2.4 -2.9,2.7 0.1,-1.5 1.1,-2 2.9,-2.7 z"
   class="st1" />
		<path
   id="path23582"
   d="m 145.5,187.1 c -1,0.8 -1.3,2.1 -3.5,1.9 1.3,-0.9 1.6,-2.3 3.5,-1.9 z"
   class="st1" />
		<path
   id="path23584"
   d="m 149.4,189.2 c 0.3,0.3 0.7,0.7 1.2,1.1 -0.4,0.4 -0.7,0.7 -1.1,1.1 -0.3,-0.3 -0.8,-0.6 -1,-1.1 -0.2,-0.5 -0.1,-1 0.9,-1.1 z"
   class="st1" />
		<path
   id="path23586"
   d="m 204.2,214.2 c -2,0.2 -2.1,-0.9 -2.2,-2 0.6,0.6 1.3,1.1 2.2,2 z"
   class="st1" />
		<path
   id="path23588"
   d="m 226,219.1 c 1.5,-0.3 2,0.7 3,0.9 -1.3,0.8 -2.1,0.2 -3,-0.9 z"
   class="st1" />
		<path
   id="path23590"
   d="m 227.8,124.7 c -1.6,0.7 -2.7,0.7 -3.8,0.2 1,-0.7 2.1,-0.4 3.8,-0.2 z"
   class="st1" />
		<path
   id="path23592"
   d="m 180.4,51.7 c 0.9,4 -2.2,5.5 -5.3,7 -0.8,0.4 -1.8,0.8 -2.2,-0.2 -0.4,-0.9 0.3,-1.3 1,-1.9 1.9,-1.7 4.2,-2.9 3.3,-6.6 -0.5,-2.1 -1.2,-0.9 -1.5,-0.7 -3.8,2.6 -4.9,-1.9 -7.4,-2.7 -0.5,-0.1 -0.2,-1.1 0.3,-1.2 2.5,-0.9 4.8,-3.4 7.3,-2.7 2.6,0.7 3.7,3.7 4.3,6.5 0.3,0.5 0.2,1.3 0.2,2.5 z"
   class="st1" />
		<path
   id="path23594"
   d="m 85.7,152 c 1,-2.5 2.7,-3.6 4,-5 2.5,-2.5 4.2,-5.4 5.6,-8.6 1.3,-3 3.4,-5.1 6.3,-6.4 6.7,-3.1 12.8,-7.1 17.9,-12.5 0.2,-0.2 0.7,-0.2 1,-0.4 0.9,0.9 0.2,1.4 -0.3,1.9 -5.3,5.5 -11.4,9.7 -18.5,12.6 -2.8,1.1 -3.9,3.6 -5.1,6 -2.4,4.9 -4.8,9.8 -10.9,12.4 z"
   class="st1" />
		<path
   id="path23596"
   d="m 159.8,42.3 c -2,-0.5 -3,-0.1 -4,1.8 -1.1,2.2 -3.4,3.6 -6.3,2.1 -1.9,-1 -3.9,-1.4 -6,-0.3 -0.8,0.4 -2.1,0.1 -3.2,0.1 0.4,-1.6 1.9,-1.4 2.6,-2.2 0.9,-0.9 3.8,-1 1.3,-3.4 -0.5,-0.4 0.8,-1.4 1.5,-1.8 4.8,-2.7 9.6,-3.1 14.1,3.7 z"
   class="st1" />
		<path
   id="path23598"
   d="m 119.4,128.6 c -6.4,10.7 -9,22.8 -12.8,34.5 -1.7,-7.9 3.9,-22.9 12.8,-34.5 z"
   class="st1" />
		<path
   id="path23600"
   d="m 150,118.2 c -0.3,14.2 4,25.9 16.3,35 -11.9,-3.3 -21.6,-23.8 -16.3,-35 z"
   class="st1" />
		<path
   id="path23602"
   d="m 171.7,108.5 c 1.7,1.9 1.7,1.9 0.1,8 -1,-0.1 -1.3,-0.9 -1.6,-2.7 -3,11 1.3,19.7 4.7,28.6 -3.7,-3.7 -5.2,-8.5 -6.6,-13.3 -1.5,-5 -0.9,-10.1 0.1,-15.1 0.2,-0.9 -0.1,-2.8 2.4,-2.2 1.2,0.2 -0.4,-2.4 0.9,-3.3 z"
   class="st1" />
		<path
   id="path23604"
   d="m 133.1,118.7 c -5.5,14.5 -3.4,28.3 3.5,42.2 -9.8,-6.9 -10,-35.4 -3.5,-42.2 z"
   class="st1" />
		<path
   id="path23606"
   d="m 122.6,109.8 c -12.4,10.6 -26.5,6.1 -40.4,4 2.4,-1 5,-1 7.5,-0.4 7.9,2.1 15.8,2.2 23.7,0.3 3.2,-0.8 6.2,-2.6 9.2,-3.9 z"
   class="st1" />
		<path
   id="path23608"
   d="m 147.9,106.1 c 4.2,-6.7 3.5,-14.5 5,-22 2.8,4.1 -0.5,7.8 0.1,11.5 0.8,4.8 -2.8,7.2 -5.1,10.5 z"
   class="st1" />
		<path
   id="path23610"
   d="m 160.3,102.3 c 0.8,-3.9 -1.4,-8.6 3.1,-11.6 1.2,-0.8 2.3,-2.4 1.5,-4.2 -0.3,-0.6 -0.8,-1.2 0,-1.5 0.8,-0.3 1.5,0.4 1.7,1.1 0.6,2.5 -0.4,4.7 -2.1,6.3 -1.6,1.5 -2.9,2.6 -1.7,5.2 0.7,1.8 -2,2.9 -2.5,4.7 z"
   class="st1" />
		<path
   id="path23612"
   d="m 143.9,49.6 c 1.1,-2.2 2.5,-3.6 5.1,-2 1.7,1 3.2,1.1 5,-0.4 2.6,-2.3 5.6,0.5 8.5,-0.1 -1.8,0.9 -3.2,3.6 -5.7,1.1 -0.1,-0.1 -0.5,-0.3 -0.5,-0.3 -3.6,4.5 -8.5,-0.3 -12.4,1.7 z"
   class="st1" />
		<path
   id="path23614"
   d="m 159.8,85.3 c -1.7,6.1 -1.3,12.8 -4.5,18.9 -1,-3.5 1.5,-14.6 4.5,-18.9 z"
   class="st1" />
		<path
   id="path23616"
   d="m 178.4,79.6 c 3.3,3.9 3.3,3.9 -1.8,16.2 -1.9,-2.3 -0.7,-4.6 0.3,-6.1 2.2,-3.2 2.4,-6.5 1.5,-10.1 z"
   class="st1" />
		<path
   id="path23618"
   d="m 171,98.6 c -0.8,-6.1 4.8,-11.1 2.8,-17.5 2.7,2.3 2.4,5.1 1.1,7.8 -0.6,1.3 -1.5,2 -0.8,3.9 1,2.4 -2.6,3.4 -3.1,5.8 z"
   class="st1" />
		<path
   id="path23620"
   d="m 169.1,82.9 c 2.1,4.6 2,8.3 -1.6,11.5 -0.8,0.7 -1.2,1.6 -0.7,2.3 1.3,1.6 0.1,2.7 -0.6,4.3 -1.6,-2.4 -1.6,-5 -0.4,-7 1.8,-3.1 3.9,-5.9 2.5,-9.8 -0.1,-0.2 0.3,-0.6 0.8,-1.3 z"
   class="st1" />
		<path
   id="path23622"
   d="m 144.8,132.2 c -0.7,7.5 0.3,13.8 2.4,20.5 -4,-3.8 -5.6,-15.4 -2.4,-20.5 z"
   class="st1" />
		<path
   id="path23624"
   d="m 162.2,80.8 c -2.8,-1.4 -2.8,-2.8 -1.8,-4.4 1.6,-2.6 1.6,-5 0.5,-7.8 -0.6,-1.4 -1.1,-3.5 1.1,-4.9 0.1,3 0.5,5.7 1.3,8.4 0.8,2.9 -2,5.2 -1.1,8.7 z"
   class="st1" />
		<path
   id="path23626"
   d="m 179.1,67.2 c -1.8,0.5 -2,-1 -3,-1.1 -0.3,1.6 0.9,3.7 -2.4,4 -1.7,0.1 -0.8,2.4 0.4,4.2 -2.5,-1.8 -2.5,-1.8 -1.9,-9 1.7,0.1 1.1,1.7 1.6,2.6 1.2,-1 0.9,-3.4 2.8,-3.5 1.1,0.1 2,1.3 2.5,2.8 z"
   class="st1" />
		<path
   id="path23628"
   d="m 181.3,92.9 c 2,9.5 4.2,12.2 10,12.8 -3.5,0.9 -7.4,-0.7 -9.8,-4 -1.5,-2.1 -1.7,-6.4 -0.2,-8.8 z"
   class="st1" />
		<path
   id="path23630"
   d="m 113.2,122.8 c -0.9,-2.4 -0.1,-3.9 0.9,-4.5 3.2,-2 7.4,-2.3 9.7,-6 -0.6,2.5 -1.6,4.8 -4,5.2 -3.2,0.4 -5.3,1.7 -6.6,5.3 z"
   class="st1" />
		<path
   id="path23632"
   d="m 143.3,129.1 c -3,-4.2 1.9,-7.3 0,-10.6 4,3.3 1,6.5 0,10.6 z"
   class="st1" />
		<path
   id="path23634"
   d="m 146,96.2 c 2.5,4.8 -1.4,7.4 -2.7,10.8 -1.7,-0.5 -1.2,-2.2 -0.9,-2.7 1.5,-2.6 3.8,-4.6 3.6,-8.1 z"
   class="st1" />
		<path
   id="path23636"
   d="m 137.5,97.7 c 0.6,1.8 0.3,2.9 -0.9,4 -1.6,1.5 -3.7,2.9 -2.6,5.7 0.2,0.5 -0.1,1.1 -0.8,0.9 -0.4,-0.1 -1,-0.4 -1.2,-0.8 -0.9,-1.8 0.1,-3.3 1.1,-4.7 1.3,-1.5 3.2,-2.6 4.4,-5.1 z"
   class="st1" />
		<path
   id="path23638"
   d="m 164.5,66.7 c 2.4,3.4 3.4,6.8 0.7,10.6 -0.3,0.5 -0.5,0.9 -1,0.7 -0.2,-0.1 -0.6,-0.7 -0.5,-0.8 2.6,-3.4 0.4,-6.9 0.3,-10.4 0,-0.1 0.2,-0.1 0.5,-0.1 z"
   class="st1" />
		<path
   id="path23640"
   d="m 126.9,118.4 c 2.8,4.1 -1.5,6.5 -1.7,10.6 -3.2,-4.7 2.5,-7 1.7,-10.6 z"
   class="st1" />
		<path
   id="path23642"
   d="m 137.9,129.1 c -2,-3.2 0,-5.7 0.6,-8.5 0.1,-0.6 0.6,-0.8 1.1,-0.5 0.6,0.3 0.8,0.6 0.7,1.6 -0.2,2.7 -2.2,4.7 -2.4,7.4 z"
   class="st1" />
		<path
   id="path23644"
   d="m 142.1,97.3 c 2.6,4.6 -4.7,6 -3,10.2 -4,-4.7 3.5,-6.3 3,-10.2 z"
   class="st1" />
		<path
   id="path23646"
   d="m 164.2,111.5 c 2.1,3 -0.3,5.4 -0.8,8 -0.1,0.7 -0.8,0.4 -1.2,0.1 -0.9,-0.7 -1.2,-1.5 -0.7,-2.6 1,-1.8 2.2,-3.4 2.7,-5.5 z"
   class="st1" />
		<path
   id="path23648"
   d="m 133.3,129.1 c -1.9,-3.7 0.5,-6.5 1.3,-9.9 1.6,2.3 1.8,2.4 1.3,3 -1.7,2 -2,4.4 -2.6,6.9 z"
   class="st1" />
		<path
   id="path23650"
   d="m 173.4,106.3 c 3.9,1.6 5,5.6 2.6,7.7 -0.3,0.3 -0.9,0.4 -1.3,0.5 -0.1,0 -0.5,-0.7 -0.3,-0.9 1.5,-2.6 0,-4.8 -1,-7.3 z"
   class="st1" />
		<path
   id="path23652"
   d="m 158.2,65.9 c 1.4,3 2.5,6 0.2,9 -0.3,0.4 -0.4,0.9 -1,0.8 -0.2,-0.1 -0.6,-0.7 -0.5,-0.8 2.6,-2.6 -0.1,-6.1 1.3,-9 z"
   class="st1" />
		<path
   id="path23654"
   d="m 167.8,68.4 c 1.7,2.3 3.5,4.4 1.9,7.3 -0.3,0.6 -0.5,1.5 -1.4,1.3 -0.7,-0.2 -1.3,-1.2 -0.9,-1.8 1.7,-2.4 0.2,-4.6 0.4,-6.8 z"
   class="st1" />
		<path
   id="path23656"
   d="m 118.3,126.5 c 0.4,-4 4.7,-5.2 6.2,-8.4 0.5,4.6 -4.9,5.1 -6.2,8.4 z"
   class="st1" />
		<path
   id="path23658"
   d="m 154.6,66.1 c 2.4,2.7 2.6,5.3 1.1,8 -0.3,0.5 -0.8,1.1 -1.5,0.8 -0.3,-0.1 -0.6,-1 -0.5,-1.2 2.1,-2.3 0.4,-5.1 0.9,-7.6 z"
   class="st1" />
		<path
   id="path23660"
   d="m 158.4,121.5 c -1.6,-2.9 0.3,-5.2 1.2,-7.7 1.6,0.2 1.2,1.4 1,2 -0.7,1.9 -0.7,4 -2.3,5.6 0,0 0.1,0.1 0.1,0.1 z"
   class="st1" />
		<path
   id="path23662"
   d="m 147.3,128 c -2,-2.8 -1.1,-5.6 0.1,-8.4 -0.6,2.8 0.1,5.6 -0.1,8.4 z"
   class="st1" />
		<path
   id="path23664"
   d="m 152.6,61.6 c -2,-1.1 -2.7,-3.1 -4.8,-2.9 4,-0.6 4.2,-0.5 4.8,2.9 z"
   class="st1" />
		<path
   id="path23666"
   d="m 181.8,107.3 c -2.4,-0.9 -2.4,-0.9 -4.2,-3.2 3,-1 2.1,3.1 4.2,3.2 z"
   class="st1" />
		<path
   id="path23668"
   d="m 181.2,103 c 1,1.4 2,2.8 2.8,3.9 -1.4,-0.4 -2.2,-2.2 -2.8,-3.9 z"
   class="st1" />
		<path
   id="path23670"
   d="m 155.2,58.2 c -1.5,1.4 -1.5,1.4 -3,-1.1 1.6,-1.1 1.9,1.2 3.1,1.2 z"
   class="st1" />
		<path
   id="path23672"
   d="m 136.7,50 c 0.7,1.3 0.1,2.2 -1,2.8 -0.2,0.1 -0.9,-0.2 -1,-0.3 0,-1.3 1.2,-1.8 2,-2.5 z"
   class="st1" />
		<path
   id="path23674"
   d="m 138,48.4 c 0.9,0.8 1.9,1.3 1.9,2.4 0,0.2 -0.6,0.6 -0.8,0.5 -1.2,-0.4 -1.7,-1.3 -1.1,-2.9 z"
   class="st1" />
		<path
   id="path23676"
   d="m 140.2,48.1 c 1.8,1 2.7,1.5 2.8,2.7 0,0.2 -0.5,0.4 -0.8,0.5 -0.5,-0.8 -1,-1.6 -2,-3.2 z"
   class="st1" />
		<path
   id="path23678"
   d="m 186.6,100.7 c -2,0.3 -2.3,-1.1 -3.3,-1.8 1.8,-0.6 2.2,0.9 3.3,1.8 z"
   class="st1" />
		<path
   id="path23680"
   d="m 131.8,55.9 c 1.1,0.7 1.7,1.5 1.2,2.8 -0.6,-0.7 -1.3,-1.3 -1.2,-2.8 z"
   class="st1" />
		<path
   id="path23682"
   d="m 155.3,58.3 c 0,-0.7 -0.3,-1.7 0.9,-1.5 0.4,0.1 0.8,0.8 1.2,1.2 -0.7,0.1 -1.4,0.1 -2.1,0.2 -0.1,0 0,0.1 0,0.1 z"
   class="st1" />
		<path
   id="path23684"
   d="m 105.7,280 c 0,1.6 0,3.2 0,5.1 2.2,-1.2 2.2,-3.5 3.4,-4.9 1.1,0.5 0.1,1.7 0.7,2.4 1.7,-0.2 2.3,-4.2 4.9,-1.5 0.6,-1.2 2.8,-1.1 2.6,-3.2 -0.2,-1.9 0.6,-3.5 3,-4.5 -0.4,2.5 -2.4,4.5 -0.9,6.7 -1.7,0.5 -1.1,3.7 -4.5,3 -2.2,-0.5 -5.1,1.9 -7.6,3.3 -1,0.5 -1.3,3.2 -2.8,0.3 -0.3,-0.5 -1.6,0.7 -1.7,1.8 0,1.1 -0.6,1.4 -1.4,0.8 -0.6,-0.4 -1.4,-1.2 -0.6,-1.8 2.4,-2 4.1,-4.4 3.9,-8 0.3,0.1 0.7,0.3 1,0.5 z"
   class="st1" />
		<path
   id="path23686"
   d="m 136.7,272.1 c 1,-2.9 2.1,-5.5 5.5,-6.4 1.4,-0.4 2.7,-2 2.5,-4.2 -0.1,-2.5 -2.1,-1.1 -3.1,-1.7 -2.4,-1.6 -4.9,-3 -3.2,-7.3 1.5,3.6 3.2,5.8 6.8,6.6 2.5,0.5 1.7,6.7 -1.2,8.5 -2.3,1.5 -4.9,2.8 -7.3,4.5 z"
   class="st1" />
		<path
   id="path23688"
   d="m 119.7,244.8 c 6.5,12.4 6.6,17.8 0.3,21.1 5.9,-7.2 1.8,-14.1 -0.3,-21.1 z"
   class="st1" />
		<path
   id="path23690"
   d="m 133.6,267.9 c 0.7,2.2 -0.7,4 0.4,5.6 0.1,0.1 -0.2,0.7 -0.5,0.8 -3.9,1.8 -3.9,1.8 -4.4,4.5 -2.8,-1.5 -2.8,-1.5 4.5,-10.9 z"
   class="st1" />
		<path
   id="path23692"
   d="m 119.5,284.8 c 0,3 -2.1,4.4 -2.8,6.5 -0.7,2.1 -1.2,4.2 -1.1,6.7 -2.8,-3.4 -1.3,-8.6 3.9,-13.2 z"
   class="st1" />
		<path
   id="path23694"
   d="m 130,214.1 c 4.7,-2.3 8.8,-6 15.3,-6.8 -5.5,2.9 -10.1,5.3 -14.7,7.7 -0.2,-0.2 -0.4,-0.5 -0.6,-0.9 z"
   class="st1" />
		<path
   id="path23696"
   d="m 148.3,277.4 c -3.1,-3.2 -2,-8.7 2.2,-11.5 -1.1,3.9 -4.5,7.1 -2.2,11.5 z"
   class="st1" />
		<path
   id="path23698"
   d="m 139.3,213.3 c -3.2,1.8 -5.6,5 -9.7,5.4 3,-2.3 5.7,-5 9.7,-5.4 z"
   class="st1" />
		<path
   id="path23700"
   d="m 89,300.3 c 0.2,-2.9 -0.6,-5.5 0.9,-7.9 0.4,-0.7 0.9,-1.5 1.7,-1.1 1.1,0.5 0.3,1.2 -0.1,1.8 -1.7,2 0.3,5 -2.5,7.2 z"
   class="st1" />
		<path
   id="path23702"
   d="m 125.6,277.8 c -3.8,-3.5 -3.1,1.3 -5,2.2 -0.7,-2.1 -0.6,-4 1.3,-4.7 1.4,-0.5 3.4,-0.6 3.7,2.5 z"
   class="st1" />
		<path
   id="path23704"
   d="m 90.2,283 c 3,0.3 5.6,-1 9.1,-2.2 -3,3 -4.1,3.2 -9.1,2.2 z"
   class="st1" />
		<path
   id="path23706"
   d="m 125.8,262 c 0,-0.1 -0.1,-0.2 -0.1,-0.3 -0.5,-2 0.4,-3.7 1.2,-5.5 0,0 0.7,0.2 0.9,0.4 0.4,0.6 -0.9,4 -2,5.4 z"
   class="st1" />
		<path
   id="path23708"
   d="m 85.4,276.3 c 1.4,1.9 2.6,3 1.9,5 -1.3,-1.3 -2.2,-2.5 -1.9,-5 z"
   class="st1" />
		<path
   id="path23710"
   d="m 99.4,283.3 c -2.2,2.5 -4.1,2.8 -6.2,2.2 1.9,-0.2 3.5,-1.4 6.2,-2.2 z"
   class="st1" />
		<path
   id="path23712"
   d="m 81.4,289.4 c -1.4,0.7 -2.7,2.6 -4.5,0.5 1.6,-0.6 3.1,0.2 4.5,-0.5 z"
   class="st1" />
		<path
   id="path23714"
   d="m 100.8,296.9 c -0.4,-1.8 -0.7,-3.1 0.6,-3.9 0.2,-0.1 0.7,0.1 0.8,0.3 0.7,1.4 -0.5,2 -1.4,3.6 z"
   class="st1" />
		<path
   id="path23716"
   d="m 128.9,258.7 c 0.5,-0.3 0.4,0.4 0.4,0.6 0,0.5 0.2,1.3 -0.6,1.4 -0.2,0 -0.7,-0.2 -0.8,-0.5 -0.1,-0.7 0.4,-1.1 1,-1.5 z"
   class="st1" />
		<path
   id="path23718"
   d="m 51.9,80.8 c 3.8,0.3 7.8,-0.4 11.3,2.1 -3.7,-1.3 -7.9,0.9 -11.3,-2.1 z"
   class="st1" />
		<path
   id="path23720"
   d="m 43.4,97.8 c -0.9,0 -2.1,0.3 -1.3,-1.3 1.8,-3.6 7.8,-4.4 11.4,-1.3 -3.8,0 -7.9,-2.1 -10.1,2.7 -0.1,0 0,-0.1 0,-0.1 z"
   class="st1" />
		<path
   id="path23722"
   d="m 60.4,59.8 c -0.3,2 3,2.8 1.5,5.6 -1.1,1.9 -1.4,1.3 -2.2,0.3 -1.5,-2 -1.5,-4 0.7,-5.9 z"
   class="st1" />
		<path
   id="path23724"
   d="M 67.7,100.2 C 64.8,99 62.2,99.5 59.6,99.4 58.7,99.3 57.4,98.8 57.5,98.1 57.7,97 58.9,96.9 60,97.4 c 2.3,1.2 5.7,-0.8 7.7,2.8 z"
   class="st1" />
		<path
   id="path23726"
   d="m 56.5,89.8 c 2.7,1.6 6.6,-1.2 9.3,3.2 -3.3,-2.3 -6.9,0.1 -9.3,-3.2 z"
   class="st1" />
		<path
   id="path23728"
   d="m 50.4,76.9 c 2,-2.6 4,-0.4 5.9,0.1 0.8,0.2 2.1,-1.6 2.1,0.3 0,1.4 -1.6,0.6 -2.4,0.7 -1.9,0.4 -3.7,-0.4 -5.6,-1.1 z"
   class="st1" />
		<path
   id="path23730"
   d="m 60.1,41.8 c -1,2.4 -1.3,5.1 -3.3,7.5 -0.3,-3.9 0.3,-5.3 3.3,-7.5 z"
   class="st1" />
		<path
   id="path23732"
   d="m 59.1,67.9 c -3.7,-1.2 -2.8,-4 -2.2,-6.7 1.1,2.1 1.2,4.6 2.2,6.7 z"
   class="st1" />
		<path
   id="path23734"
   d="m 62,86.2 c -2,0 -3.9,0.6 -5.8,1 -1.1,0.2 -2.2,-0.4 -2,-1.6 0.1,-1.2 1.6,-0.9 2.1,-0.6 1.8,1.1 3.9,0.3 5.7,1.2 z"
   class="st1" />
		<path
   id="path23736"
   d="m 67.5,107.4 c -0.4,0.5 -0.8,1.4 -1.8,0.9 -0.6,-0.3 -1.1,-1 -1.8,-1.3 -0.7,-0.3 -1.3,1.5 -2.2,0.3 -0.4,-0.5 0,-0.9 0.4,-1.3 1,-0.9 2.2,-0.8 3.1,-0.3 0.9,0.5 2.1,0.5 2.3,1.7 z"
   class="st1" />
		<path
   id="path23738"
   d="m 66.9,103 c -2.2,0.6 -4.4,1.8 -6.1,-0.8 2.4,-1.6 4.1,1 6.1,0.8 z"
   class="st1" />
		<path
   id="path23740"
   d="M 48.8,60.6 C 48.4,58 46,57 44.1,55.2 c 3.5,0.3 4.7,2.7 6,5 -0.5,0.1 -0.9,0.2 -1.4,0.3 0,0 0.1,0.1 0.1,0.1 z"
   class="st1" />
		<path
   id="path23742"
   d="m 58.6,93.6 c 2.3,-2.1 3.6,-0.3 5.3,0.6 -2.1,1.2 -3.6,0.4 -5.3,-0.6 z"
   class="st1" />
		<path
   id="path23744"
   d="m 69.6,49.9 c -1.2,2.4 -2.4,3.6 -5.5,2.6 2.5,-0.1 2.9,-2.5 5.5,-2.6 z"
   class="st1" />
		<path
   id="path23746"
   d="m 69.1,110.3 c -1.2,1.9 -2.7,0.9 -4.4,1.5 1.5,-1.8 2.8,-2.1 4.4,-1.5 z"
   class="st1" />
		<path
   id="path23748"
   d="m 151.4,44.5 c -1.9,0.1 -4.1,-0.1 -3.9,-1.3 0.3,-1.9 1,-4.4 4.2,-4.1 1.9,0.2 3.6,0.8 3.5,2.5 -0.3,2 -1.6,3.9 -3.8,2.9 z"
   class="st0" />
		<path
   id="path23750"
   d="m 151.4,43.8 c -1.2,0 -2.1,-0.4 -2.2,-1.8 -0.1,-0.9 0.7,-2.1 1.2,-1.6 1,1 3.6,-1.7 3.4,1.5 -0.2,1.4 -1,1.9 -2.4,1.9 z"
   class="st1" />
	</g>
</g>
</svg>
