<?xml version="1.0" encoding="UTF-8" standalone="no"?>
<svg
   xmlns:dc="http://purl.org/dc/elements/1.1/"
   xmlns:cc="http://creativecommons.org/ns#"
   xmlns:rdf="http://www.w3.org/1999/02/22-rdf-syntax-ns#"
   xmlns:svg="http://www.w3.org/2000/svg"
   xmlns="http://www.w3.org/2000/svg"
   xmlns:sodipodi="http://sodipodi.sourceforge.net/DTD/sodipodi-0.dtd"
   xmlns:inkscape="http://www.inkscape.org/namespaces/inkscape"
   inkscape:version="1.0 (4035a4f, 2020-05-01)"
   height="152.54532"
   width="209.68599"
   sodipodi:docname="ram-statant.svg"
   xml:space="preserve"
   viewBox="0 0 209.68599 152.54532"
   y="0px"
   x="0px"
   id="Layer_1"
   version="1.1"><metadata
   id="metadata28075"><rdf:RDF><cc:Work
       rdf:about=""><dc:format>image/svg+xml</dc:format><dc:type
         rdf:resource="http://purl.org/dc/dcmitype/StillImage" /><dc:title></dc:title></cc:Work></rdf:RDF></metadata><defs
   id="defs28073" /><sodipodi:namedview
   inkscape:current-layer="Layer_1"
   inkscape:window-maximized="0"
   inkscape:window-y="25"
   inkscape:window-x="0"
   inkscape:cy="95.745319"
   inkscape:cx="108.46911"
   inkscape:zoom="2.52"
   fit-margin-bottom="0"
   fit-margin-right="0"
   fit-margin-left="0"
   fit-margin-top="0"
   showgrid="false"
   id="namedview28071"
   inkscape:window-height="480"
   inkscape:window-width="820"
   inkscape:pageshadow="2"
   inkscape:pageopacity="0"
   guidetolerance="10"
   gridtolerance="10"
   objecttolerance="10"
   borderopacity="1"
   bordercolor="#666666"
   pagecolor="#ffffff" />
<style
   id="style27966"
   type="text/css">
  .st0{fill:#FFFFFF;}
  .st1{fill:#000000;}
</style>
<g
   transform="translate(-41.530888,-104.25468)"
   id="g28068">
	<g
   id="g28066">
		<path
   id="path27968"
   d="m 88.9,117.2 c 15.9,-10.9 37.5,-3.2 42.4,13.4 0.5,1.8 0.9,3.6 0.6,5.3 -1,5.3 2.6,6.9 6.4,8 17.8,4.8 35.9,3.5 53.9,2.1 18.5,-1.4 35.3,2 49.1,15.6 4.7,4.7 4.8,11 6.3,16.4 2.2,8.4 3.8,17.1 3.6,26.1 -0.1,4.2 -1.7,7.6 -3.8,10.8 -2,3.1 -5.5,4 -9.4,2.3 0,8.3 0.1,16.5 0,24.6 -0.1,8.2 -12,15 -18.8,10.8 -0.9,-0.6 -1.8,-1.5 -0.6,-2.9 0.8,-1 1.3,-2.2 2.2,-3.2 7.1,-7.7 4.1,-16.3 2.3,-24.8 -0.4,-2 -1,-1.1 -2.4,-1.3 -6.9,-0.8 -9.3,2.9 -12,8.6 -2.2,4.6 -4.1,9.4 -6.1,14.1 -2.1,4.9 -5.8,6.9 -10.4,9.1 -4.8,2.2 -8.7,0.4 -13.1,0.5 0.5,-2.6 2.3,-3.6 3.8,-4.9 9.2,-8 15,-17.8 16.3,-30.1 0.2,-1.4 0.8,-2.8 0.9,-4.2 0.4,-4.9 -1.3,-6.9 -6.1,-6.5 -14.4,1.2 -28.8,0.8 -43.3,1 -3.2,0.1 -6.8,-2.4 -9,-0.6 -2,1.6 -0.4,5.7 -0.7,8.6 -1.1,8.7 -3.1,17.3 -3,26.2 0.1,8.9 -4.9,14.2 -13.4,14.6 -0.3,-3.6 -5.5,0.1 -5.7,-3.9 -0.1,-1.6 -1.3,-1 -2.1,-0.3 -2.8,2.7 -5.5,0.7 -7.2,-0.9 -2.1,-2 0.6,-3.4 1.9,-4.7 4.1,-4.4 4,-10 3.4,-15.3 -1,-8.3 -2.5,-16.6 -4.8,-24.7 -0.3,-0.9 -0.1,-2 -1.1,-2.6 -8.4,-5.2 -11.1,-13.5 -13.3,-22.6 -1.3,-5.4 -5.5,-10.1 -8.4,-15.1 -0.6,-1.1 -1.5,-2.1 -2.1,-3.3 -3.4,-6.6 -11.1,-7.9 -16.4,-2.8 -4.6,4.4 -13.3,2.2 -15.4,-3.7 -0.7,-2 0,-3.5 0.9,-4.4 1.6,-1.8 1.4,-2.8 -0.3,-4.2 -1.7,-1.5 -3.2,-2.1 -5.3,-0.7 -1.8,1.2 -3.1,5.3 -5.8,2.4 -2.1,-2.3 -1.5,-5.8 -0.1,-8.8 2.7,-5.3 8.9,-7.3 15.5,-5.6 1.9,0.5 4.4,2.9 5.5,1.5 2.1,-2.8 5.2,-5.3 5.1,-9.6 -0.1,-5.8 0.1,-11.7 2.9,-17.1 2.5,-4.7 11.4,-7.8 15.8,-5.2 3.2,1.9 4.2,5 2.8,8.6 -0.2,1.3 -0.9,2.3 -1.5,3.4 z"
   class="st1" />
		<path
   id="path27970"
   d="m 127,246.9 c 0.8,-10.6 3.1,-21.2 0.1,-31.9 -0.7,-2.3 -0.1,-5 -0.1,-7.5 2.8,-0.3 4.1,3.4 7.1,2.6 0.7,-0.2 1.1,1.1 0.6,1.4 -2.7,1.2 -0.8,2.5 0.2,2.8 2.1,0.7 1.1,-1.7 1.5,-2.5 1,-1.6 1.3,-3.9 -0.6,-5.3 -0.9,-0.7 -0.3,-3.1 -2.5,-2.2 -2.8,1.2 0.7,2.4 0.2,3.7 -3.3,-0.2 -2.2,-3.1 -3.2,-4.7 -0.2,-0.3 1.2,-1.4 0.1,-2 -1.2,-0.7 -1.7,0.5 -2.3,1.2 -0.4,0.5 -0.8,1.5 -1,1.4 -1.3,-0.3 -2.8,1.9 -3.8,-0.1 -1,-2.1 0.6,-2.5 2.2,-2.8 0.6,-0.1 1.4,0 1.4,-1 -7.5,-0.1 -7.7,0.1 -5.9,5.9 -1.8,-1 -3.9,-3.2 -3.6,-3.4 3.2,-2.7 -2.7,-1.5 -1.3,-3 1.1,-1.4 2.4,1.3 3.4,-0.3 0.2,-0.4 1.6,-0.7 0.9,-0.8 -4.4,-1.1 -0.5,-4.1 -1.7,-6 -1.7,0.4 -2.4,1.9 -3.1,3.3 -0.2,-2.4 -0.1,-2.6 2,-5.7 -1.6,0.8 -2.3,1.3 -3.1,1.6 0.6,-2.9 0.5,-3.1 -4,-6 -0.8,-0.5 -0.4,-1.4 -0.4,-2.1 0,-1.2 -0.3,-1.7 -1.5,-2.8 -0.8,-0.7 -0.7,-1.4 0.5,-1.7 1.7,-0.3 0.5,-2 1.7,-2.5 -2.1,-1.5 -1.7,2.9 -3.4,1.1 -1.1,-1.1 -0.2,-2.4 0.9,-3.4 1.1,-3.1 1.1,-3.2 4.3,-2.8 0.6,0.1 0.6,-0.4 0.8,-0.7 0.2,-0.3 0.2,-0.6 0.1,-0.9 -0.3,-0.8 -0.9,-0.8 -1.6,-0.6 -2.7,0.7 -3.4,2.8 -3.5,5.2 -3.5,-0.1 -0.4,-3 -1.7,-4.1 -1,1.3 -0.9,1.1 -3,0 -1.6,-0.8 -2.5,0.9 -4.6,1.8 7.9,2.5 6.1,9.3 8,14.4 0.1,0.1 0,0.3 0,0.5 -0.4,1.7 -4.3,0.6 -2.7,3.8 1.3,2.5 3.5,-0.3 5,1.2 1.6,1.7 1.1,4.4 3.3,5.7 -1.8,0.3 -1.5,2.4 -2.8,3.1 -1.5,0.8 -2,-0.7 -2.8,-1.3 -4.8,-4.2 -7,-9.8 -8.2,-16.2 2.7,0.7 3.3,3.5 6,3.8 0,-2.1 -1.6,-4.3 0.2,-6.2 0.2,-0.2 0.4,-1.6 -0.6,-1.4 -4.7,1.1 -3.3,-2 -2.6,-4.4 -2.3,0.2 -2.8,2.3 -4.4,2.8 -0.8,-2.2 -3.1,-4.2 -0.9,-6.8 0.7,-0.9 -0.2,-1.2 -0.6,-1.5 -1.8,-1.6 -2.3,1.3 -4.1,1.2 2.1,-3.3 2.3,-7.5 6.9,-9 1.7,-0.6 3.5,-1.2 4.7,-0.5 8.2,4.9 13.8,-0.8 19.7,-4.8 1,-0.7 1.3,-2.3 2.4,-4.3 1.8,5.4 -2.9,8.2 -0.9,12 5.7,-3.8 3.3,-10.6 6.2,-15.4 3,1.4 -2.1,4.6 1.5,5 1.7,0.2 0.2,-2.3 1.2,-3.3 1.6,0.7 -0.4,3 1.5,3.4 0.9,0.2 0.9,-0.6 1.3,-1.1 0.8,-1.2 1.8,-2.2 2.8,-3.4 -3.3,0.5 -5.1,-1.3 -7.8,-3.9 4.9,0 8,4 12,2.2 1.1,1.9 -2.1,2.3 -0.7,4.2 1.5,-0.1 2.8,-0.9 4,-1.9 0.6,-0.5 1.2,-1.5 2,-0.7 0.7,0.6 -1.3,1.5 -0.2,2.4 1.8,0 2.8,-5.1 5.4,-0.8 0.1,0.2 1.8,0.1 2.2,-0.4 1.7,-1.9 3,-2 4,0.5 0.3,0.8 1.2,1.2 1.3,1 1.5,-3.8 4.9,-1.5 7,-1.7 5.4,-0.5 11,-0.7 16.3,0.8 3.2,0.9 6,-0.9 8.9,-1.4 18,-2.7 33.6,1.4 46.3,14.8 0.4,0.5 0.8,1 1.1,1.6 0.2,0.4 0,1 -0.1,1.8 -3,-3.3 -5.4,-6.8 -9.5,-8.6 -0.7,2.1 1.4,2.5 2,3.7 1.6,2.7 2.3,5.9 2.1,8.6 -0.2,4.9 -0.8,4.8 1.5,9.2 -2.7,-0.4 -3.2,-4.5 -6.6,-3.4 0.9,3.2 7.4,4.5 3,9.6 -0.3,-2.7 -0.7,-5.2 -4,-6 2.3,3.9 2.3,3.9 -2.4,5.1 -0.8,0.2 -1.2,1.1 -0.8,1.3 2,0.9 -0.7,2.8 0.8,3.5 0.9,0.4 1.8,-0.1 2.6,-0.9 0.5,-0.4 0.2,-3.1 2,-0.9 0.8,0.9 -2.1,2.7 0.6,2.8 1.8,0 1.7,-2.1 2.2,-3.5 0.7,4 0.7,3.8 -3.1,5.1 -0.9,0.3 -4.1,-0.1 -2.3,2.9 0.4,0.7 -0.5,2.2 -1.1,1.6 -3.3,-3.6 -5,2.7 -7.9,1.2 -0.1,-0.1 -0.8,0.5 -0.9,0.8 -0.1,0.4 0,0.9 0.7,1 3.4,0.8 10.3,-2.2 12.6,-5.6 0,3.4 -2,5.8 -5,5.8 -0.7,0 -1.2,0 -1.5,0.8 -0.3,1.1 1.2,3.1 0.6,2.7 -3.9,-2.3 -7.5,3 -11.7,0.1 1.1,-1.4 5.8,0.6 3.2,-3.7 -2,-3.3 -2.4,2.7 -4.6,0.3 -2,-2.1 3.2,-3.6 0,-4.1 -1.6,-0.3 -1.2,-3.6 -3.2,-1.8 -1.4,1.3 0.1,2.5 0.6,3.8 0.3,0.8 0.5,2 -0.6,2.8 -3.7,-1.1 0.4,-8.8 -6.2,-7.3 -0.3,-2.5 2.9,-2.8 2.8,-5.5 -3.4,2.9 -4.2,-0.1 -5.7,-2.2 -1.2,2 -2.3,3.9 -3.2,5.5 -4.3,-0.1 -4.3,-9.4 -11.7,-3.8 6.2,0.4 7.5,7.9 14.4,6.3 -3.6,2.7 -6.5,2 -9.4,-1.4 -1.2,-1.4 -5.9,-1.8 -7.3,-0.5 -0.9,0.8 -1,0.7 -3.3,-2.7 -1.6,0.4 -1.9,1.7 -1.5,2.9 0.4,1.4 1.7,1.8 3.2,1.7 2.4,-0.2 4.9,-1.2 5.4,3 0.2,1.5 2.5,3.4 4.7,1.1 0.9,-0.9 1.8,-1.4 3.3,-0.8 -0.5,2.3 -3,1.9 -4.3,3.1 0.8,1.5 2.3,1.1 3.6,1.9 -4.1,-0.8 -7.9,0.1 -12,2.4 0.8,-2.1 2.6,-1.8 2.6,-3.2 -0.8,-1.3 -3.4,0.7 -3.4,-1.4 0,-1.4 1.1,-2.9 3,-1.3 0.7,0.6 1.2,1.8 2.4,1.1 -0.9,-6.1 -6.2,-3.1 -9.3,-4.8 -1.1,2.8 2.8,1.7 2.2,3.8 -1.5,1.2 -2.8,-1 -4.5,-0.6 0.1,4.1 4.7,2 5.4,4.5 -3.7,2.4 -5.6,-2.3 -8.8,-2.3 -0.1,-0.8 0.3,-2.1 -1.3,-1.3 -0.2,0.1 0.2,0.2 0.4,0.2 0.4,0.2 0.8,0.5 1.1,1 -3.4,3.3 2.9,1.1 1.5,3.5 -2.6,1.8 -4.1,-1.4 -6.2,-2.1 -1.5,-0.5 -1.1,-0.5 -2.6,0.8 -1.1,1 -2.9,1.8 -4.8,1.6 1.4,-3.4 2.9,-6.6 6.9,-8.7 -2.6,-0.4 -5.8,2.9 -6.2,-1.9 0,-0.3 -3.3,1.3 -5.3,0.1 0.5,0.9 0.8,2.1 1.6,2.5 1.6,0.8 5,-0.2 3.2,3.6 -2.1,4.3 -3.8,0.5 -5.7,-0.2 -0.8,1.4 -0.2,2.5 0.9,3.5 1.4,1.2 -0.2,2 -0.7,2.1 -1.9,0.5 -0.5,-1.1 -0.8,-1.5 -1.1,-1.4 -2.5,-2.7 -3.8,-3.9 -0.5,-0.4 -1.6,-0.7 -1.6,0 0.3,5.1 -5.6,-0.9 -5.7,3.2 -0.3,-0.2 -0.6,-0.2 -0.8,-0.5 -0.3,-0.3 -0.9,-0.9 -0.2,-1.1 2.6,-1 4.3,-3.8 7.5,-3.5 1.2,0.1 2.9,2 2.3,-1.5 -0.2,-1.3 2,0.8 3.6,0.5 -0.9,-1.9 -1.8,-4 -2.8,-6 -1.9,-0.3 -0.3,2.5 -2,2.1 -1.3,-0.3 -2,-1.3 -2.7,-2.5 -0.8,-1.5 -0.1,-3 -0.6,-4.4 -0.4,-1.2 -1.5,-2.3 -2.6,-1.6 -2,1.2 1.3,0.7 0.7,1.8 -0.9,1.7 -1.8,3.5 -0.1,5.3 0.1,0.1 -0.7,1.2 -1.2,1.4 -0.3,0.1 -1.3,-0.5 -1.4,-0.9 -0.5,-1.6 -0.9,-1.7 -2.1,-0.5 -1.1,1.1 -1,1.6 0.1,2.6 2.4,2.1 4.8,2.1 7.5,0.5 -1.9,3.2 -4.5,3.2 -7.2,1.6 -1.7,1.7 1.4,6.7 -4,5.2 -0.2,-0.1 -1.5,2 -1.3,2.3 4.4,6.8 0.6,13.9 0.2,20.6 -0.4,6.7 0.8,13.9 -2.2,20.7 -0.3,-0.9 -0.6,-1.6 -1.1,-3 -0.4,2.7 -1.6,5.5 -1.1,6.4 2,3.5 -1.1,3.4 -2.4,3.7 -2.1,0.7 -4,-0.2 -4,-2.9 0.7,-2.4 5,-0.9 4.7,-4.1 0.5,-0.7 -1,-0.3 -0.3,-0.1 0.4,0.1 0.3,0.2 0.2,0.5 -0.5,1.3 -1.7,1.5 -3.2,0.2 z"
   class="st0" />
		<path
   id="path27972"
   d="m 94.9,125.9 c -0.1,-3.6 -2.5,-6.4 0.9,-8.8 0.2,2 0.3,3.7 0.5,6.3 1.1,-3 0.2,-6.1 3.5,-7.1 0.4,1.8 0.2,3.8 1.7,5.3 0.9,-0.5 0.6,-1.4 0.5,-2.1 -0.2,-1.6 -2.1,-3.9 0.8,-4.3 2.5,-0.4 0.3,2.9 1.9,3.7 2.5,-2.3 4.7,-7.4 8.5,-1.4 3.6,-2.9 4.6,1.7 6.9,2.5 2.8,1 3.8,3.1 1.1,5.6 1.9,0.8 2.1,-1.6 3.5,-1.3 0.9,1.7 -1.5,1.9 -1.4,3.3 1.7,1.2 2,-1.7 3.6,-1.2 0,2.1 -2.1,2.5 -2.7,4.1 1.8,1.5 2.1,-1.5 4,-1.1 1.8,0.3 -5.1,3.7 0.6,3.4 0.4,0 -2.7,0.8 -2.6,2.6 2.9,-0.8 1.3,2.4 2.7,3 -3.5,2.7 -1.4,6.9 -2.9,10.2 -1.5,3.2 -3.6,5.5 -7.7,7.5 2.1,-2.6 2.6,-4.8 4.8,-6.4 1.9,-1.4 1.4,-4.6 1.2,-6.6 -0.7,-7.1 -6.2,-17.9 -16,-18.5 -3.4,-0.2 -6.1,0.9 -8.9,2.1 -2.2,0.9 -4.6,2.9 -6.7,-0.3 -0.6,-0.8 -1.6,-0.7 -1.7,0.4 0,0.6 -1.8,1.2 0.1,2.2 2.4,1.3 4.6,2.4 7.8,1.8 -2.1,3.6 -5.4,1 -7.9,2.7 3,0.4 5.6,2.2 8.4,0.4 4.8,-3.1 9.1,-1.9 13,1.6 -1.2,0.5 -2.2,2.6 -3.6,-0.7 -0.9,-2 -4.5,-1 -6.8,-0.4 -1.4,0.3 -2.6,1.3 -3.8,2 0.4,1 1.5,0.3 2.2,0.8 -2.1,3.1 -4.1,-0.5 -6.1,-0.1 0.9,10.4 -2.5,14.4 -12.9,15.1 0,1.5 1.9,0.2 2.1,1.4 -6.2,2.5 -14.3,-0.8 -18.8,6.9 0,-2.6 2.2,-3.2 3.1,-5.5 -4,0.4 -5.6,7.3 -11.6,3.5 4,-0.4 5.7,-1.8 4.4,-5.1 -0.2,0.1 -0.5,0.1 -0.8,0.3 -1.4,0.8 -1.3,4.4 -3.4,2.9 -1.6,-1.2 0.1,-3.4 1.4,-5 2.1,-2.6 4,-5.5 5.5,-8.5 2.8,-5.5 7.1,-10 10.3,-15.2 1.6,-2.6 5.2,-2.8 7.2,-0.7 1.1,1.1 1.3,0 1.7,-0.4 1.4,-1.2 2.4,-2.7 4.3,-3.2 0.4,-0.1 0.7,-0.8 1.1,-1 0.8,-0.3 2.9,-1.5 3.3,-2.5 1.1,1.8 1.2,3.9 3.7,5.8 z"
   class="st0" />
		<path
   id="path27974"
   d="m 226,207.5 c 2.4,-1.9 4.3,-4.2 8.2,-4.3 -2.7,2.7 -2.6,5.2 -1.5,8.2 3,8.4 2.4,17.1 2.3,25.8 0,3.8 -4.5,2.7 -5.7,5.3 2.3,2.9 3.4,-1.7 5.7,-0.9 -0.7,5 -4.4,7.3 -8.5,9.3 0.8,-2 3.1,-3.3 3.1,-6.2 -3,1.7 -3.6,5.9 -7.3,5.9 -0.1,-0.3 -0.3,-0.8 -0.2,-0.9 6.4,-4.7 6.1,-11.4 6,-18.3 0,-7 -0.8,-13.5 -4.7,-19.5 -0.5,-0.8 -1.7,-1.8 -0.8,-2.9 1.3,-1.6 1.7,0.4 2.6,0.8 0.3,0.1 0.6,0.2 1,0.2 1.6,0.4 2.8,-0.6 4.2,-1.1 1,-0.4 0.1,-0.8 -0.1,-1.1 -1.2,-2.1 -2.6,0.8 -4.3,-0.3 z"
   class="st0" />
		<path
   id="path27976"
   d="m 246,188.9 c -0.2,1.6 -1.8,2.2 -2.7,3.4 -0.6,0.9 -0.2,1.6 0.5,2.1 1.4,1.1 0.9,-0.6 1.3,-0.9 0.7,-0.5 2.2,-0.1 1.7,0.4 -3.6,3.5 3.4,6.7 -0.3,11.4 -2.6,3.3 -0.7,4.9 -5.2,7.2 1.5,1.8 2.8,-0.9 4.5,-0.1 -0.9,1.4 -2.3,2 -3.4,2.9 -1.8,1.5 -3,0.1 -3.9,-0.5 -1.6,-1.1 0.4,-1.8 0.8,-2.7 1.2,-2.4 3.9,-4.5 2.1,-7.9 -2.4,1.6 -2,5.4 -5.4,6.5 0.3,-5.6 6.4,-10.4 2.4,-16.4 -1.1,1.6 -0.1,3 0.4,4.6 0.3,1 -0.8,2 -1.7,2 -1.6,0 -0.5,-1.2 -0.7,-1.9 -1.3,-7 4,-10.8 7.3,-15.6 -1.9,-1 -2.2,1.4 -3.6,1.4 -1.5,-3.6 4.7,-4.4 3.4,-6.7 -0.9,3.2 4.7,8.3 -2.6,12 3,0.9 3.1,-1.8 4.7,-1.7 0.2,0 0.3,0.2 0.4,0.5 z"
   class="st0" />
		<path
   id="path27978"
   d="m 111.5,159.8 c 3.4,-9.2 2.4,-14 -3.1,-15.7 -3.8,-1.2 -7.9,0.8 -8.5,4.1 -0.8,4.6 2.8,8 9.7,9 -1.4,3.4 -3.7,2.9 -6.3,1.5 -6.6,-3.3 -8.9,-7.3 -7.3,-13 1.4,-4.8 5.5,-6.2 9.7,-6.7 4.8,-0.6 10.6,4.3 12.1,9.6 1.2,3.9 -1.5,8.6 -6.3,11.2 z"
   class="st0" />
		<path
   id="path27980"
   d="m 87,111.8 c 0,5.8 -7.9,13.4 -13.4,13.2 -1,0 -1.9,-0.5 -1.4,-1.4 2,-3.8 -0.1,-8.5 3.5,-12.3 2.9,-3.1 5.9,-3.6 9.4,-3.2 2.1,0.2 2,2.2 1.9,3.7 z"
   class="st0" />
		<path
   id="path27982"
   d="m 202.5,222.2 c -3.2,3.7 2.3,4.4 2.5,6.9 -0.4,1.1 -0.9,0.5 -1.3,0 -0.4,-0.3 -0.7,-0.7 -1.1,-1 -0.5,1.3 -2.2,-0.5 -2.5,0.8 -0.3,1.1 -0.3,2.5 1.6,1.3 0.1,-0.1 1.2,1.2 1.1,1.4 -1.9,3.1 -0.9,7.5 -4,9.9 -1.2,0.9 -2.7,1.9 -4.5,1.5 -1.6,-0.4 -2.9,-0.7 -1.1,-2.8 1.7,-2.1 2.9,-4.6 4.4,-7 0.6,1.5 1.2,2.9 1.8,4.3 -1.7,-8 0.9,-15.5 3,-23.6 1.4,3.2 2.7,6 3.9,8.9 0.7,-0.9 1.3,-1.7 2.4,-3.1 0.4,3 -1.1,5.5 -2.4,6.1 -2.1,0.9 -1.9,-2.5 -3.8,-3.6 z"
   class="st0" />
		<path
   id="path27984"
   d="m 117.2,223.1 c 3,2 4,5 4.9,8.1 -2.1,0.9 -0.6,-2.7 -3.2,-1.1 -0.2,0.3 -0.1,1.2 0.7,2.1 3.7,4.4 2.5,9.6 2.3,14.5 -0.1,3 -3.7,2.5 -5.4,4.2 -1.7,-2.1 2.6,-2.6 1.2,-4.6 -2.4,1 -3.4,4.2 -6.8,4.5 11.3,-7.3 6.8,-17.8 6.3,-27.7 z"
   class="st0" />
		<path
   id="path27986"
   d="m 44.3,147.9 c -1.2,-4.7 1.9,-7.3 4.8,-9.3 4.2,-2.9 8.5,-1.1 12.5,1.4 -2.1,3 -2.1,3 -3.9,2.3 -7.8,-2.8 -9.3,-2.1 -12.5,4.9 -0.1,0.2 -0.5,0.4 -0.9,0.7 z"
   class="st0" />
		<path
   id="path27988"
   d="m 91.6,168 c -1.6,-2.2 -1.3,-2.2 -0.8,-4.8 0.7,-3.3 -2.4,-3.8 -4.6,-5.3 3.3,0.1 6.5,1.6 9.8,0.2 0.9,-0.4 1,1.1 0.9,1.8 0,0.7 0.3,2.1 -0.9,1.9 -5.8,-1.3 -3.2,3.6 -4.4,6.2 z"
   class="st0" />
		<path
   id="path27990"
   d="m 214.7,213.7 c 0.2,-0.7 0.5,-1.6 1,-3 0.7,2.8 -0.1,5 1.1,7.1 -5.5,-1 -8.3,-6 -6.2,-10.6 1.6,0.5 1.7,2.2 2.4,3.4 0.4,1.1 -0.1,2.8 1.7,3.1 z"
   class="st0" />
		<path
   id="path27992"
   d="m 114.5,133.4 c 3.8,-0.3 8.6,6.4 7.4,10.7 -0.3,1.2 -1.1,2.3 -1.1,4.6 -2.5,-5.7 -1,-11.9 -6.3,-15.3 z"
   class="st0" />
		<path
   id="path27994"
   d="m 186.5,251.9 c 3.3,-6.6 3.3,-8.1 10,-7 -2.6,3.5 -6.9,4.3 -10,7 z"
   class="st0" />
		<path
   id="path27996"
   d="m 101,149.3 c 5.3,-1 6,4.3 9.7,4 0.5,0 0.3,1.2 -0.3,1.5 -1.4,0.8 -3.2,1 -4.2,-0.3 -0.6,-0.8 -4.1,0 -1.8,-2.7 -0.8,-0.6 -1.7,-1.2 -3.4,-2.5 z"
   class="st0" />
		<path
   id="path27998"
   d="m 122.9,214.6 c -3.9,-2.6 -5.1,-7.3 -8.5,-10.3 5.1,1.5 6.3,6.3 8.5,10.3 z"
   class="st0" />
		<path
   id="path28000"
   d="m 127,246.9 c 4.6,1.2 2.2,-3.2 3.5,-4.7 1.4,4.5 0.9,7.6 -4.6,7.8 0,0 0.1,0.1 0.1,0.1 -0.7,-0.6 -0.6,-1.3 -0.2,-2 0.5,-0.4 0.9,-0.8 1.2,-1.2 z"
   class="st1" />
		<path
   id="path28002"
   d="m 117.7,213.3 c 3.8,1.6 5.1,4.5 5,8.4 -1.4,-3 -4.2,-5.1 -4.9,-8.5 z"
   class="st0" />
		<path
   id="path28004"
   d="m 204.1,213.1 c 0.7,0 1.3,-0.1 1.3,0 0.8,2 3.1,3.2 3.1,5.7 0,0.1 -1.2,0.3 -1.3,0.2 -1.2,-1.9 -2.7,-3.5 -3.1,-5.9 z"
   class="st0" />
		<path
   id="path28006"
   d="m 120.2,221.2 c -2.6,-1.5 -4.4,-3.8 -4.5,-7.1 1.5,2.4 3,4.7 4.5,7.1 z"
   class="st0" />
		<path
   id="path28008"
   d="m 114.6,133.4 c -0.4,-1.5 -2.3,-1.1 -2.9,-2.2 -0.2,-0.4 -0.6,-0.6 -0.1,-1.2 0.7,-0.9 1.8,-1.4 2.5,-0.9 1.5,1 -0.7,0.8 -0.5,1.2 0.5,1.5 2.2,0.2 3,1 -0.7,0.7 -1.4,1.4 -2,2.1 -0.1,0 0,0 0,0 z"
   class="st0" />
		<path
   id="path28010"
   d="m 117.9,213.1 c -1.5,-1.7 -4.3,-2.6 -3.3,-5.8 0.8,2.1 3.9,2.9 3.2,6 -0.1,0 0.1,-0.2 0.1,-0.2 z"
   class="st0" />
		<path
   id="path28012"
   d="m 218.1,219 c 0,-2.9 0,-4.3 0,-5.8 3.4,1.3 1.1,2.9 0,5.8 z"
   class="st0" />
		<path
   id="path28014"
   d="m 125.9,248 c 0.1,0.7 0.1,1.3 0.2,2 -1,-0.2 -1.4,1.5 -2.6,0.8 0,-1.6 1.4,-2 2.4,-2.8 z"
   class="st0" />
		<path
   id="path28016"
   d="m 108.4,174.4 c -1.7,-4.6 2.2,-5.8 4.8,-7.8 0.9,-0.7 1,0.6 0.8,1 -0.7,1.8 3.5,1.4 1.6,3.1 -1.4,1.2 -2.3,4.1 -5.2,3.2 -0.3,-1.4 2.2,-1.7 1.4,-3.4 -2.3,0.2 -2.4,2.5 -3.6,3.8 0,-0.1 0.2,0.1 0.2,0.1 z"
   class="st1" />
		<path
   id="path28018"
   d="m 218.1,153.7 c 4.2,1 5.9,4.3 7.8,7.1 0.3,0.5 0.3,2.1 -0.6,2 -1.5,-0.3 -2.2,-2.3 -4,-2.2 0.8,-3 -2.4,-4 -3.2,-6.9 z"
   class="st1" />
		<path
   id="path28020"
   d="m 119,187.9 c -2.5,-4.9 -1.8,-7.9 2.5,-9.8 -2.8,2.5 -0.3,6.2 -2.5,9.8 z"
   class="st1" />
		<path
   id="path28022"
   d="m 110.4,197.1 c -0.7,0.6 0.1,1.7 -1.2,1.5 -2.3,-0.4 -2.4,-2.8 -3.9,-3.9 0.5,-0.5 1,-1.1 1.5,-1.6 1.2,1.3 2.4,2.7 3.6,4 z"
   class="st1" />
		<path
   id="path28024"
   d="m 172.8,201.1 c -2.2,-0.2 -4.5,-0.1 -6.2,-2.6 3,-0.5 5.7,1.9 8.2,-0.4 0.6,2.4 -2.1,1.7 -2.1,3.2 0,0 0.1,-0.2 0.1,-0.2 z"
   class="st1" />
		<path
   id="path28026"
   d="m 176.3,190.8 c -5.4,1.4 -5.8,0.9 -4.4,-5.5 1,2.6 -0.3,6.6 4.4,5.5 z"
   class="st1" />
		<path
   id="path28028"
   d="m 218.3,175.2 c 1.7,-2 0.8,-4.2 2.9,-5 0.3,-0.1 1.5,0.9 1.4,1.1 -0.5,1.5 -0.7,3.4 -4.3,3.9 z"
   class="st1" />
		<path
   id="path28030"
   d="m 187,170.8 c -0.2,0.8 0.4,2.2 -1.2,2.1 -0.8,-0.1 -1.6,-0.8 -1.4,-1.6 0.2,-0.8 0.9,-2 1.6,-2.2 1,-0.3 1,0.9 1,1.7 z"
   class="st1" />
		<path
   id="path28032"
   d="m 176.7,195.4 c -0.8,2 -2.5,1.5 -4,1.6 -0.8,0 -1.8,0.1 -1.6,-1.1 0.2,-1.2 1.3,-1.1 1.8,-0.4 1.3,1.7 2.5,-1.4 3.8,-0.1 z"
   class="st1" />
		<path
   id="path28034"
   d="m 155,181 c -0.2,1 -0.9,1.7 -1.9,1.9 -0.8,0.2 -1,-0.5 -1.1,-1.2 -0.1,-1.2 0.3,-1.9 1.6,-1.7 0.6,0.1 1.3,0 1.4,1 z"
   class="st1" />
		<path
   id="path28036"
   d="m 224.4,179.6 c 0.8,0.2 -0.1,-3.3 2.2,-2.3 0.3,0.1 0.4,0.9 0.3,1.4 -0.4,2.6 -2.2,0.9 -2.5,0.9 z"
   class="st1" />
		<path
   id="path28038"
   d="m 150.8,182.9 c -2,-1 -2.1,-2.4 -2.3,-3.7 0.5,0 1,-0.3 1.4,-0.1 2.1,0.7 0.7,2.3 0.9,3.8 z"
   class="st1" />
		<path
   id="path28040"
   d="m 208.7,154.6 c -1.2,0.6 -2.4,0.7 -3.6,-0.2 -0.1,-0.1 0.1,-1.1 0.3,-1.2 1.5,-0.5 2.7,-0.2 3.3,1.4 z"
   class="st1" />
		<path
   id="path28042"
   d="m 132.7,228.9 c 0.8,-1.1 -0.7,-3.1 1.3,-3.8 0.2,-0.1 0.8,0.2 0.8,0.4 0.2,1.5 -0.8,2.5 -2.1,3.4 z"
   class="st1" />
		<path
   id="path28044"
   d="m 220.3,164.7 c 1.6,-0.8 3.1,-1 4.6,-0.2 0.1,0.1 -0.1,1.2 -0.3,1.2 -1.7,0.7 -2.5,-1.7 -4.3,-1 z"
   class="st1" />
		<path
   id="path28046"
   d="m 120.1,167.1 c 0,-0.2 0,-0.4 0.1,-0.5 1.1,-0.6 0.3,-2.8 2.2,-2.5 0.2,0 0.6,0.5 0.5,0.7 -0.2,1.8 -1.3,2.4 -3,2.2 0,-0.1 0.2,0.1 0.2,0.1 z"
   class="st1" />
		<path
   id="path28048"
   d="m 133.2,220.1 c 1,0.8 2.4,1.2 1.4,2.7 -0.3,0.4 -1.1,1.3 -1.3,0.7 -0.4,-1 -0.1,-2.2 -0.1,-3.4 z"
   class="st1" />
		<path
   id="path28050"
   d="m 119.9,166.9 c 0.2,1.8 -0.4,2.8 -2.7,3.1 0.8,-1.4 0.4,-3.4 2.9,-2.9 0,0 -0.2,-0.2 -0.2,-0.2 z"
   class="st1" />
		<path
   id="path28052"
   d="m 226.7,173 c 1.1,0 1.6,0.6 1.9,1.4 0,0 -0.6,0.5 -0.9,0.6 -0.7,0.1 -1.7,0.2 -1.7,-1 0.1,-0.4 0.5,-0.7 0.7,-1 z"
   class="st1" />
		<path
   id="path28054"
   d="m 224,168 c -0.3,1.3 -1.2,1 -1.9,1 -0.2,0 -1.2,0.1 -0.6,-0.7 0.4,-0.7 1,-1.3 1.9,-1.1 0.2,0 0.4,0.5 0.6,0.8 z"
   class="st1" />
		<path
   id="path28056"
   d="m 87.7,137.6 c -1.3,0.9 -3.1,-0.1 -4.4,2.2 -1.7,3.2 -6.6,-0.3 -9.1,2.8 -0.5,-0.5 -1.3,-0.7 -0.6,-1.8 4.2,-6.4 6.9,-7.1 14.1,-3.2 z"
   class="st1" />
		<path
   id="path28058"
   d="m 83.1,129.2 c 1.4,-4.1 4.1,-3.3 6.7,-2.8 -1.5,2.7 -4.3,1.6 -6.7,2.8 z"
   class="st1" />
		<path
   id="path28060"
   d="m 74.3,131.6 c 0.1,-0.2 0.2,-0.6 0.4,-0.7 1.6,-0.9 3.3,-1.7 4.9,-2.6 0.1,0.3 0.4,0.6 0.3,0.8 -0.9,2.8 -3.8,1.4 -5.6,2.5 z"
   class="st1" />
		<path
   id="path28062"
   d="m 231.6,217.2 c 0.9,1.7 0.2,2.9 -1.3,3.7 -0.3,0.2 -1.2,-0.2 -1.2,-0.4 -0.1,-1.8 1.4,-2.4 2.5,-3.3 z"
   class="st1" />
		<path
   id="path28064"
   d="m 232.8,221 c 0.4,2 -0.9,2.7 -1.3,3.9 -1.1,-1.8 -0.3,-2.9 1.3,-3.9 z"
   class="st1" />
	</g>
</g>
</svg>
