<?xml version="1.0" encoding="UTF-8" standalone="no"?>
<svg
   xmlns:dc="http://purl.org/dc/elements/1.1/"
   xmlns:cc="http://creativecommons.org/ns#"
   xmlns:rdf="http://www.w3.org/1999/02/22-rdf-syntax-ns#"
   xmlns:svg="http://www.w3.org/2000/svg"
   xmlns="http://www.w3.org/2000/svg"
   xmlns:sodipodi="http://sodipodi.sourceforge.net/DTD/sodipodi-0.dtd"
   xmlns:inkscape="http://www.inkscape.org/namespaces/inkscape"
   inkscape:version="1.0 (4035a4f, 2020-05-01)"
   height="283.80295"
   width="261.64584"
   sodipodi:docname="sea-horse2.svg"
   xml:space="preserve"
   viewBox="0 0 261.64584 283.80295"
   y="0px"
   x="0px"
   id="Layer_1"
   version="1.1"><metadata
   id="metadata1072"><rdf:RDF><cc:Work
       rdf:about=""><dc:format>image/svg+xml</dc:format><dc:type
         rdf:resource="http://purl.org/dc/dcmitype/StillImage" /><dc:title></dc:title></cc:Work></rdf:RDF></metadata><defs
   id="defs1070" /><sodipodi:namedview
   inkscape:current-layer="Layer_1"
   inkscape:window-maximized="0"
   inkscape:window-y="25"
   inkscape:window-x="0"
   inkscape:cy="175.40235"
   inkscape:cx="129.74"
   inkscape:zoom="2.2266667"
   fit-margin-bottom="0"
   fit-margin-right="0"
   fit-margin-left="0"
   fit-margin-top="0"
   showgrid="false"
   id="namedview1068"
   inkscape:window-height="1183"
   inkscape:window-width="1817"
   inkscape:pageshadow="2"
   inkscape:pageopacity="0"
   guidetolerance="10"
   gridtolerance="10"
   objecttolerance="10"
   borderopacity="1"
   bordercolor="#666666"
   pagecolor="#ffffff" />
<style
   id="style833"
   type="text/css">
	.st0{fill:#FFFFFF;}
	.st1{fill:#000000;}
</style>
<g>
<path
   id="path835"
   d="m 248.34,147.50235 c 0.6,-3.1 1.5,-6.1 3.7,-8.6 1.8,-2 4.1,-3.1 6.6,-3.8 1.7,-0.5 2.9,-1.9 3,-3.3 0.1,-1.8 -1.1,-2.5 -2.4,-3.2 -2.2,-1 -4.5,-1.5 -6.8,-1.6 -6,-0.4 -9.9,-4.7 -9.9,-10.7 0,-3.8 0.8,-7.6 1.4,-11.4 0.7,-4 2.2,-7.8 1.3,-12.1 -0.9,-4.2 -0.4,-8.6 -0.4,-12.9 0,-2.1 0.4,-4.1 1.2,-6.1 1.6,-4.3 4.7,-7.3 8.9,-9.3 0.7,-0.3 1.5,-0.6 1.2,-1.7 -0.3,-1.1 -1,-1.1 -1.8,-0.9 -0.5,0.1 -1,0 -1.6,0 -3.5,0 -6.6,1.1 -9.4,3.4 -2.2,1.7 -3.7,4 -5.1,6.3 -0.7,1.2 -1,1.3 -2.2,0.5 -1.5,-1 -3,-2.2 -4.3,-3.5 -4.6,-4.5 -7.3,-10.2 -9.2,-16.3 -1.5,-4.8 -0.7,-9 2.8,-12.6 1.3,-1.3 2.1,-2.9 2.9,-4.5 0.8,-1.7 0.5,-3.3 -0.5,-4.9 -0.6,-0.9 -1.5,-1 -2.3,-0.3 -2,2 -4.2,3.9 -6.1,6 -4.5,5 -6.2,11.1 -7.1,17.6 -0.6,3.9 -0.3,7.9 -0.5,11.8 -0.3,6.7 -0.7,13.3 -0.9,20 -0.1,3.8 0.1,7.6 0,11.4 -0.1,6.8 -2.3,13.1 -5.3,19.1 -3.5,7 -8.6,12.9 -14.3,18.2 -2.7,2.5 -5.5,5 -8.5,7.2 -1.9,1.4 -3.8,1.5 -5.7,0.1 -1.5,-1.1 -3.1,-1.9 -4.7,-2.9 -0.6,-0.3 -0.9,-0.6 -0.2,-1.1 2.2,-2 3.2,-4.8 4.8,-7.2 0.6,-0.9 0.3,-1.8 -0.6,-2.4 -1,-0.6 -1.6,-0.1 -2.1,0.7 -0.2,0.3 -0.4,0.7 -0.7,1 -0.7,1 -1.7,1.6 -2.9,1.7 -1.3,0.1 -2.2,-0.5 -2.3,-1.8 -0.2,-1.6 -0.1,-3.3 0.4,-4.8 0.8,-2.5 2,-4.9 3.2,-7.2 2.4,-4.4 4.2,-8.9 3.6,-14.1 -0.2,-1.9 0.7,-2.6 2.6,-2.6 1.6,0 3.1,0.1 4.7,0 4.4,-0.2 7.8,-4.3 7.3,-8.7 -0.3,-2.6 -2.3,-4 -4.8,-3.4 -1,0.2 -1,0.8 -0.6,1.4 0.2,0.3 0.5,0.6 0.8,0.9 0.3,0.3 0.4,0.7 0.3,1.1 -0.3,1 -2.2,2.4 -3.3,2.2 -2.1,-0.4 -3.8,-1.3 -4.7,-3.5 -1.7,-4.6 -3.5,-9.2 -5.3,-13.7 -0.3,-0.7 -0.1,-1.1 0.4,-1.5 1.8,-1.5 2.2,-3.3 1.6,-5.5 -0.3,-1 -0.6,-1.9 -1.1,-2.8 -0.8,-1.5 -0.6,-2.8 0.5,-4.1 1.4,-1.8 3.3,-3.1 5.2,-4.4 1.8,-1.2 3.7,-2.4 5,-4.2 1.2,-1.5 1.6,-3.2 0.7,-5 -1,-1.8 -2.7,-2.1 -4.5,-2 -2,0.1 -2,0.2 -1,2 0.4,0.7 0.7,1.4 0,2.1 -0.8,0.8 -2.1,1.1 -2.8,0.6 -1,-0.7 -1.9,-1.5 -2.4,-2.6 -2.5,-6.1 -5.4,-12.1 -7.5,-18.4 -1.3,-4 -3.3,-7.5 -7.3,-9.6 -0.8,-0.4 -0.7,-1 -0.2,-1.6 0.5,-0.6 1,-1.1 1.2,-1.9 0.7,-2.2 0.6,-4.5 0.3,-6.8 -0.2,-1.2 -1.4,-2.2000001 -2.6,-2.3000001 -1.3,-0.1 -2,0.6 -2.6,1.6000001 -0.3,0.5 -0.5,0.9 -0.7,1.4 -1.8,3.3 -4.6,3.7 -7.3,1.1 -0.8,-0.8 -1.5,-1.6 -2.6,-1.9 -2.8,-1 -4.5,-3.1000001 -5.8,-5.7000001 -2.5,-5.10000001 -7.5,-5.80000001 -12.1,-4 -0.7,0.3 -1.1,0.9 -1.1,1.7 0,0.8 0.6,1.1 1.2,1.3 1.4,0.6 2.8,1.1 4.2,1.7 0.9,0.4 1.1,1 0.6,2 -2.1,3.8000001 -8.2,4.6000001 -11.2,1.6 -2.4,-2.4 -4.5,-5 -6.2,-7.9 -0.3,-0.5 -0.6,-1.00000001 -1.1,-1.40000001 -0.7,-0.7 -1.3,-0.7 -1.8,0.2 -0.3,0.50000001 -0.5,1.20000001 -0.7,1.80000001 -1.8,5.1 -1.9,10.0000001 1.2,14.7000001 0.2,0.3 0.2,0.6 0.3,0.9 0.1,0.4 0.1,0.8 -0.3,1 -0.4,0.2 -0.5,-0.3 -0.7,-0.5 -3.1,-3.3 -5.7,-6.9 -7.7,-11.1000001 -0.9,-1.9 -2.1,-2 -3.4,-0.4 -1.8,2.2 -2.6,4.8000001 -2.5,7.7000001 0.2,3.9 2.3,6.8 4.8,9.5 0.6,0.6 0.5,0.9 0,1.4 -2.2,2.3 -4.5,4.4 -7,6.4 -4.5,3.6 -9.4,6.7 -13.6,10.7 -1.4,1.3 -3,2.4 -4.8,3.2 -1.3,0.6 -2.6,1.1 -3.9,1.8 -2.2,1.1 -4.3,2.4 -5.5,4.6 -0.8,1.5 -1.6,2.9 -2.7,4.2 -0.6,0.6 -0.7,1.4 -0.2,2.2 0.8,1.1 1.7,2.1 2.6,3.2 1.2,1.4 2.8,1.8 4.7,1.5 1.6,-0.3 3.1,-0.7 4.5,-1.5 1.6,-0.9 3.2,-1.8 4.8,-2.6 1.2,-0.6 2.5,-0.8 4,-0.5 -2.6,1.4 -4.9,2.8 -7.6,3.7 -2.8,0.9 -5.3,2.3 -7.4,4.3 -0.8,0.8 -2.2,1.6 -1.8,2.7 0.4,1.2 2,1.4 3.3,1.5 2.1,0.2 4.1,0.6 6.2,1.2 6.5,1.8 11.9,-0.4 16.5,-5 0.8,-0.8 1.4,-1.7 2.2,-2.4 2.8,-2.4 6.2,-3 9.7,-3.3 1.9,-0.2 3.2,0.8 3.7,2.7 0.4,1.5 0,2.7 -1.1,3.8 -1.7,1.7 -4,2.4 -6.1,3.5 -12.2,7 -21.2,16.9 -26.3,30.2 -0.8,2.1 -2,3.9 -3.6,5.4 -2,1.8 -2.9,1.6 -3.8,-0.9 0,-0.1 0,-0.2 -0.1,-0.2 -1.6,-4.7 -3.4,-9.3 -5.7,-13.7 -1.9,-3.8 -4.7,-6.7 -8.5,-8.6 -0.9,-0.5 -1.8,-1 -2.6,-1.7 -5.2,-4.8 -6.4,-10.8 -5.5,-17.5 0.8,-5.8 3.9,-10.3 8.2,-13.9 3.5,-2.9 4.2,-6.5 3.5,-10.7 -0.1,-0.7 -0.4,-1.5 -1,-2 -0.8,-0.6 -1.9,-0.6 -2.1,0.3 -0.5,2.1 -2.2,3.3 -3.4,4.8 -0.8,0.9 -1.5,1 -2.5,0.3 -1.4,-1 -1.7,-2.5 -1.3,-4 0.8,-2.7 0.7,-5.5 0.8,-8.3 0.2,-3 0,-6 -1.4,-8.8 -0.8,-1.5 -1.5,-3.1 -2.8,-4.3 -1,-0.9 -2.4,-0.8 -3.5,0.1 -0.9,0.7 -1,1.6 -0.2,2.9 0.3,0.6 0.7,1.1 1.1,1.7 1.7,2.7 1.4,5.4 -0.3,8 -1.6,2.5 -4.6,2.8 -6.7,0.6 -0.8,-0.8 -1.4,-1.8 -2.1,-2.8 -1.4,-2.2 -2.8,-4.5 -4.4,-6.6 -2.2,-2.9 -4.8,-5.4 -8.1,-6.9 -2.6,-1.2 -5.2,-1.3 -7.6,0.3 -1.3,0.9 -1.4,1.9 0,2.7 5.9,3.4 8.9,8.6 9.5,15.2 0.5,5.5 -1,10.4 -4.8,14.4 -1.1,1.2 -2.5,1.5 -4.1,0.9 -0.9,-0.3 -1.7,-0.6 -2.6,-0.8 -4.3,-1.1 -7.8,0.3 -10.6,3.6 -0.6,0.6 -0.7,1.3 -0.3,2.1 0.4,0.8 1,0.6 1.7,0.5 0.2,0 0.5,0 0.7,0 7.7,1.2 13.6,5 17.5,11.9 1,1.7 1.8,3.6 2.3,5.5 0.9,3.3 0,5.4 -3.1,6.8 -1.9,0.9 -2.1,2.3 -0.5,3.7 1.1,0.9 2.5,1.5 3.9,1.8 2.5,0.6 4.8,0.3 6.6,-1.8 0.3,-0.3 0.7,-0.6 1,-0.8 1.5,-1.1 2.4,-1 3.5,0.5 1,1.3 1.7,2.9 2.5,4.3 3.1,5.6 6.3,11.1 11.3,15.1 0.7,0.5 0.9,1.3 0.9,2.1 -0.1,1.8 -0.1,3.7 0.1,5.5 0.5,5.8 1.8,11.4 2.9,17.1 1.1,5.6 2.9,11 7,15.2 0.5,0.6 0,0.8 -0.2,1 -3.8,4.2 -8.5,7.4 -13.8,9.2 -5.4,1.9 -8.8,5.5 -10.6,10.7 -1.8,5.4 -4,10.7 -5.9,16 -2.2,6 -4.1,12.2 -4.8,18.6 -0.6,6 -3.2,11 -7.9,14.8 -1.3,1.1 -2.7,2 -4,3.1 -2.5,2.1 -3.5,4.8 -2.9,8 0.3,1.7 1.6,2.9 3,3 1.4,0.1 2.1,-0.7 2.6,-2.7 0.3,-1.1 0.6,-1.2 1.5,-0.6 2.1,1.4 3.3,3.4 3.9,5.7 0.8,2.9 0.1,5.7 -0.8,8.5 -0.6,2 -1.3,4 -1.5,6.1 -0.3,3.2 1.9,6.3 5,6.9 0,-0.6 0,-1.1 0,-1.7 0,-8.2 4.5,-11.7 11.9,-12.9 3.7,-0.6 6.7,1.2 9.4,3.6 1.5,1.4 3,2.9 4.9,3.8 1.6,0.7 3.3,1.1 5.1,1 0.7,0 1.2,-0.4 1.4,-1.1 0.2,-0.7 -0.2,-1 -0.7,-1.2 -1.8,-0.6 -2.6,-2 -3.3,-3.6 -2.2,-5.3 -1.9,-10.8 -0.4,-16.2 0.9,-3.2 2.8,-4.2 6,-3.1 2.1,0.7 3.8,0.1 5.4,-1.4 0.6,-0.6 0.8,-1.2 0.5,-2 -0.3,-0.8 -1,-0.7 -1.6,-0.6 -2.4,0.1 -4.2,-1.1 -5.2,-3.3 -0.4,-1 -0.9,-2 -1.4,-2.9 -2.1,-3.8 -5.1,-6.9 -8.1,-9.9 -3.9,-3.9 -5.6,-8.6 -4.4,-14.1 0.7,-3.2 1.7,-6.2 2.7,-9.3 1.2,-3.5 3.7,-5.9 7.2,-7.3 2.2,-0.8 4.5,-0.8 6.7,-1.1 5.7,-0.6 11.3,-1.4 16.7,-3.7 1.6,-0.7 2.8,-0.4 4,0.8 1.5,1.6 3.2,3 5,4.3 6.8,5 14.5,8.1 22.7,10.1 10.8,2.6 21.6,5 32.4,7.4 1.3,0.3 2.7,0.5 4.2,1.1 -1,1 -2,1.8 -2.8,2.7 -11,11.7 -16.5,25.8 -16.9,41.7 -0.3,11.7 2.4,22.6 9.3,32.2 6.4,9 14.5,15.8 25.2,19.2 7.3,2.3 14.8,2.6 22.4,1.8 12.6,-1.3 23.8,-5.7 33.3,-14.2 3.5,-3.2 7.2,-6.1 11.7,-8.1 6.1,-2.7 9.3,-7.9 11.4,-13.9 0.3,-1 0.6,-1.2 1.5,-0.6 1.8,1.3 2.6,1.1 3.6,-0.9 1.8,-3.6 1.8,-7.3 0.3,-11 -0.7,-1.9 -1.2,-3.7 -0.6,-5.7 0.2,-0.7 0.4,-1.8 1.1,-1.9 0.7,-0.2 1.2,0.8 1.7,1.3 1.5,1.8 3.1,1.5 3.9,-0.7 0.2,-0.5 0.3,-1.1 0.4,-1.6 0.3,-3 0.4,-6 -0.1,-9 -0.6,-3.8 -2.7,-6.8 -5.8,-9.1 1.5,0 3,0.1 4.4,-0.3 2.1,-0.6 2.5,-1.6 1.5,-3.6 -0.8,-1.6 -2,-2.9 -3.2,-4.1 -2.2,-2.3 -4.3,-4.5 -5.5,-7.5 -1.2,-2.9 -0.9,-4.1 2,-5.4 1.1,-0.5 1.4,-1.4 1.4,-2.4 0,-1 -0.4,-1.8 -1.5,-2.3 -2,-0.9 -4.2,-1.1 -6.3,-1 -2.1,0.1 -4.1,0.2 -6.2,-0.1 -3.2,-0.5 -4.7,-2 -5.2,-5.2 -0.2,-1.2 -0.1,-2.3 -0.1,-3.5 -0.1,-2.8 -1.1,-3.7 -3.9,-3.2 -3.4,0.6 -6.7,0 -9.3,-2.3 -2.4,-2.1 -4.6,-4.6 -6.7,-7 -1.3,-1.5 -1.1,-2.6 0.4,-3.9 3.3,-2.7 7,-4.5 11.3,-4.6 7,-0.2 12.8,2.5 17.7,7.2 3.4,3.2 7.1,5.7 11.4,7.3 3.3,1.2 6.6,2.3 10.1,2.4 1.9,0.1 3.1,-1 3.6,-2.7 0.3,-1.4 -0.1,-1.9 -2.1,-3 -2.2,-1.2 -4.6,-2.2 -6.6,-3.8 -1.8,-1.6 -2.7,-3.5 -2.4,-5.9 0.1,-2 0.3,-3.8 0.7,-5.6 z m -48.4,91.5 c -2.4,5.3 -8.1,9.6 -14.3,9.4 -3.8,0.2 -6.7,-1.6 -9,-4.4 -1.6,-1.9 -1.6,-4.1 -0.5,-6.3 0.9,-2 1.1,-4 0.7,-6.1 -0.5,-2.2 -2.3,-2.9 -4.3,-2 -0.3,0.1 -0.5,0.2 -0.8,0.3 -0.8,0.3 -1.3,0.3 -1.3,-0.8 0,-1.9 -0.2,-3.7 0,-5.6 0.1,-0.8 -0.2,-1.6 -0.8,-2.2 -1,-1.1 -1.6,-1 -2.5,0.1 -0.6,0.8 -1.5,1.4 -2.4,2 -0.8,0.5 -1.6,0.4 -2.3,-0.3 -0.7,-0.6 -0.4,-1.3 0,-2 0.7,-1.1 1.1,-2.3 1.6,-3.5 0.6,-1.7 1.5,-3.2 2.9,-4.4 0.9,-0.8 1.3,-3.7 0.8,-4.7 -0.3,-0.5 -0.8,-0.7 -1.3,-0.6 -0.4,0.1 -0.9,0.2 -1.3,0.1 -1,-0.1 -1.6,-0.7 -1.3,-1.7 0.8,-3.3 1.1,-6.6 1.7,-9.9 0.6,-3.3 2.6,-4.3 5.6,-2.9 10.4,4.9 18.4,12.3 23.1,23 1.8,4.1 4.2,8.1 5.5,12.4 0.9,3.6 1.7,6.9 0.2,10.1 z"
   class="st1" />
<path
   id="path837"
   d="m 28.24,225.20235 c -1.8,2.9 -3.5,5.8 -5.4,8.8 -0.8,-1.8 -0.9,-3.2 0.4,-4.7 2.4,-2.7 3.4,-6.1 3.9,-9.6 0.6,-4.1 1.1,-8.2 0.8,-12.3 0,-0.5 -0.1,-1 -0.3,-1.5 -0.9,1.7 -1.3,3.6 -1.4,5.5 -0.4,5 -1.1,9.9 -2.9,14.6 -0.1,0.3 -0.2,0.6 -0.3,0.9 0,0.1 -0.1,0.1 -0.2,0.2 -0.8,-1.2 -1.5,-2.5 -2.4,-3.7 -0.7,-1 -1.5,-2 -2.5,-2.8 -2.1,-1.7 -4,-1.6 -5.8,0.3 -0.2,0.2 -0.4,0.5 -0.7,0.7 -0.7,-1.8 -0.4,-3 1.2,-4.1 1.2,-0.8 2.6,-1.5 3.9,-2.2 1.8,-1 3.5,-2.1 4.9,-3.6 0.3,-0.3 0.7,-0.6 0.7,-1.3 -1.7,1.1 -3.2,2.1 -4.7,3.1 -0.3,0.2 -0.6,0.4 -0.9,0.6 -0.3,0.2 -0.8,0.6 -1,0.1 -0.3,-0.5 0.3,-0.6 0.6,-0.7 3.1,-1.9 5.4,-4.4 7.1,-7.6 1.9,-3.4 2.9,-7.2 3.6,-11 1.8,-10.6 5.6,-20.5 9.6,-30.4 0.8,-2 1.6,-4.1 2.3,-6.2 0.7,-2 2,-3.3 4,-4 6,-2.1 11.2,-5.6 16.2,-9.3 1.1,-0.8 2.1,-1.6 3.2,-2.4 2.2,-1.7 4.6,-2.8 7.4,-3 3.7,-0.4 6.5,-2.4 8.8,-5.1 1.5,-1.7 3,-3.6 4.3,-5.4 1.1,-1.5 2.3,-2.8 4,-3.5 -2.3,-0.1 -4.2,0.8 -5.6,2.5 -1.4,1.6 -2.6,3.4 -4,5.1 -0.3,0.4 -0.5,0.8 -1,1 -0.3,-2.7 1.2,-7.2 3.2,-10.3 2.6,-3.9 6.2,-6.6 10.3,-8.8 3.5,-1.9 7.2,-3.7 10.8,-5.5 0.3,-0.1 0.5,-0.3 0.8,-0.4 -1.3,-1.1 -2,-1.1 -3.1,0 -1.4,1.5 -3.3,2.3 -5.2,2.9 -4.5,1.6 -8.5,3.8 -11.9,7.1 -4.3,4.1 -7.2,9 -8.4,14.9 -0.1,0.5 -0.2,1.1 -0.4,1.6 -0.5,1.4 -2.1,1.9 -3.3,1.2 -0.5,-0.3 -0.6,-0.8 -0.6,-1.3 -0.1,-3.3 0.2,-6.6 0.7,-9.9 0.1,-0.8 -0.1,-1.5 -0.4,-2.3 -1,4.2 -2,8.5 -3,12.7 -2.1,-10 2.4,-17.8 8.5,-25.4 0,2.2 0,4.1 0,6.1 0,0.7 0,1.3 0.5,1.9 1.2,1.5 2.4,1.3 3.2,-0.4 0.4,-0.9 1,-1.7 1.6,-2.5 0.5,-0.7 0.9,-1.4 1.1,-2.3 -1,0.1 -1.6,0.7 -2.1,1.3 -0.5,0.7 -1,1.4 -1.5,2.1 -0.2,0.2 -0.3,0.7 -0.7,0.6 -0.3,-0.1 -0.4,-0.5 -0.5,-0.8 -0.3,-0.7 -0.3,-1.3 -0.1,-2 1.6,-4.8 2.9,-9.7 5,-14.3 5.1,-11.2 12.9,-20.1 23.5,-26.5 2.1,-1.3 4.2,-2.5 6.2,-3.8 0.7,-0.4 1.4,-0.9 2,-1.5 2.2,-2 2.4,-4 0.8,-6.5 -0.1,-0.2 -0.4,-0.4 -0.4,-0.8 2,0.1 4,0.3 6.1,0.1 7,-0.6 12,-4.1 15.4,-10.1 0.8,-1.4 1.4,-2.9 2,-4.4 0.2,-0.6 0.1,-0.8 -0.5,-0.8 -0.9,0 -1.6,0.3 -2,1 -0.4,0.6 -0.7,1.2 -0.9,1.8 -2.7,6.9 -7.7,10.4 -15.1,10.8 -2.6,0.1 -5.1,0 -7.7,-0.2 -6.7,-0.4 -12.5,1.2 -17,6.4 -1.9,2.2 -4.2,3.9 -7.1,4.6 -2.7,0.7 -5.2,-0.1 -7.8,-0.7 -0.8,-0.2 -0.8,-1 -0.3,-1.7 0.4,-0.6 0.9,-0.9 1.5,-1.1 3.9,-1.8 7.8,-3.6 11.9,-5 1.7,-0.6 2.9,-1.7 4.5,-2.7 -5.4,-4.1 -11.1,-5.8 -17.5,-3.2 -2.5,1 -5,1.5 -7.6,2 -0.7,0.1 -1.5,0.2 -2.2,-0.3 -1,-0.7 -1,-1.5 -0.3,-2.4 3.1,-4.2 7.3,-6.6 12,-8.3 2.4,-0.9 4.2,-2.7 5.9,-4.4 2.4,-2.5 5.4,-4.3 8.1,-6.4 4.7,-3.6 8.9,-7.9 13.4,-11.8 0.9,-0.8 1.8,-1.5 2.7,-2.2 1.3,-0.9 2.1,-0.8 3.2,0.3 0.4,0.4 0.9,1.1 1.6,0.5 0.6,-0.5 0.7,-1.1 0.3,-1.8 -0.5,-1 -0.3,-2 -0.4,-3.1 0,-0.7 0,-1.5 -0.4,-2.1 -2.1,-2.8 -2,-6 -2,-9.3000001 0,-1 0,-2.1 0,-3.4 2.2,1.9 3.9,3.8 5.4,5.9 2,3.0000001 3.1,6.3000001 3.5,9.8000001 0.1,0.9 -0.1,1.7 -0.8,2.3 -0.8,0.8 -0.8,1.7 -0.2,2.7 0.6,0.8 1.2,1.6 1.3,2.7 0.1,0.8 0.8,0.6 1.3,0.6 1.8,-0.1 1.8,-0.1 1.1,-1.7 -0.1,-0.1 -0.1,-0.3 -0.2,-0.4 -0.7,-1 -0.6,-1.7 0.8,-1.9 0.8,-0.1 1.1,-0.6 0.6,-1.4 -0.2,-0.3 -0.3,-0.6 -0.5,-1 0.2,-0.2 0.4,-0.1 0.6,0 3.8,1.9 7.5,3.8 10.4,6.9 2.3,2.5 4.6,2.6 6.8,0.9 0.1,-0.1 0.3,-0.1 0.4,-0.3 -1.3,-0.1 -2.4,-0.5 -3.3,-1.4 -3.4,-3.7 -7.7,-6.1 -12.3,-7.9 -2.2,-0.8 -3.7,-2.2 -4.4,-4.5 -0.2,-0.8 -0.1,-1.1 0.8,-1 1.5,0.1 3,-0.1 4.5,-0.5 2.4,-0.7 4.3,-2 5.8,-4.0000001 1.3,-1.8 1.1,-3.3 -0.7,-4.6 -0.9,-0.6 -1.8,-1.3 -3,-1.2 -0.3,0 -0.5,-0.1 -0.6,-0.4 1.7,-1.1 4.2,-0.4 5.5,0.8 1.3,1.2 2.5,2.5 3,4.3 0.5,1.8 -0.3,3.3000001 -1.2,4.9000001 1.5,-0.6 3,-1.3 4.6,-1 1.6,0.3 2.9,1.1 3.9,2.5 -2.2,0.8 -4.9,-0.5 -6.8,1.7 3,0.4 5.9,0.8 8.9,1 4.5,0.4 7.9,-1.3 10,-5.5 0.1,-0.1 0.1,-0.2 0.2,-0.3 2.2,2.2 2.1,4.4 -0.2,6.5 -1.6,1.4 -3.4,2.5 -5.4,3.7 5.7,1.3 10.3,3.7 11.9,10 -0.9,-0.5 -1.6,-1.1 -2.4,-1.4 -0.8,-0.3 -1.6,-0.3 -2.5,0.2 4,2.1 7,5 8,9.8 -1.4,-0.7 -2.2,-1.8 -3.2,-2.7 -1.3,-1.2 -2.8,-2.2 -4.7,-2 -0.2,0 -0.5,0 -0.7,0.3 1.7,1.4 3.4,2.8 5.1,4.2 1.7,1.4 3.4,2.8 4.7,4.6 1.1,1.4 1.9,2.9 2.5,4.5 1.2,3.1 3.6,4.9 6.7,4.9 2.4,0 3.6,-0.9 4.1,-3.2 0.2,-0.8 0.4,-0.8 1,-0.3 0.8,0.7 0.9,1.5 0.4,2.4 -2.3,3.9 -6.7,5.2 -10.8,3.2 -1.9,-0.9 -3.4,-2.2 -4.6,-3.9 -1,-1.4 -2.3,-2.3 -4.3,-2.2 3.1,3.5 5.4,7.6 10.3,8.8 0.7,0.2 0.6,0.5 0.3,0.9 -1.8,2.4 -3.4,3.8 -6.8,1.9 -1.7,-1 -3.2,-2.1 -4.9,-3 -2.6,-1.5 -4.7,-1.7 -7.9,-1.1 1.7,0.8 3.2,1.4 4.7,2.1 3.8,1.7 7.5,3.5 10.3,6.6 1.2,1.3 2.3,2.8 2.9,4.5 0.6,1.4 -0.2,2.9 -1.6,3.3 -0.6,0.2 -1.1,-0.1 -1.5,-0.5 -0.6,-0.6 -1.2,-1.2 -1.8,-1.8 -0.9,-0.8 -1.9,-0.9 -3,-0.2 5.6,5.4 8,12.5 10.6,19.5 1.3,3.6 4.6,5.4 8.3,4.8 1.5,-0.3 2.7,-1.1 3.4,-2.4 0.3,-0.7 0.6,-1.4 0.9,-2 0.8,1.6 0.5,3.5 -0.8,4.9 -2.7,2.9 -7.6,3.8 -11.2,2.3 -1.4,-0.6 -2.5,-1.5 -3.2,-2.8 -0.7,-1.3 -1.6,-2.5 -2.1,-3.9 -0.2,-0.7 -0.6,-1.1 -1.3,-0.7 -0.8,0.4 -0.9,1 -0.4,1.8 1.1,1.6 2.3,3.3 3.4,4.9 0.6,0.8 0.8,1.6 0.5,2.6 -3.8,-3.9 -7.7,-7.4 -13.1,-8.7 -1.5,-0.3 -3,-0.4 -4.6,0.1 1.7,0.7 3.3,1.3 4.9,2 3.3,1.4 6.6,2.8 9.2,5.5 3.1,3.3 4.1,7.2 2.9,11.6 -0.1,0.2 -0.1,0.5 -0.3,0.6 -0.3,0.1 -0.5,-0.2 -0.6,-0.5 -0.3,-1 -1.3,-1.6 -1.4,-2.7 -0.1,-0.7 -0.5,-1.1 -1.3,-0.8 -0.7,0.3 -1.4,0.7 -1,1.7 0.2,0.5 0.6,0.9 0.9,1.3 2,2.2 2.3,4.2 1,6.8 -1.2,2.3 -2.5,4.5 -3.1,7.1 -0.5,2.2 -0.5,4.4 0.1,6.6 0.5,2 1.7,2.8 3.7,2.5 0.9,-0.1 1.7,-0.3 2.7,-0.5 -0.7,1.2 -1.5,2.3 -2.4,3.2 -0.6,0.6 -1.4,0.8 -2.1,0.4 -2.4,-1 -4.7,-2.2 -6.4,-4.3 -1.8,-2.2 -2.2,-4.6 -1,-7.2 0.9,-2.1 1.8,-4.3 3.1,-6.2 3.3,-5 2.3,-9.5 -1.5,-13.6 -3.1,-3.3 -6.9,-4.5 -11.5,-3.6 0.6,0.5 1.3,0.6 1.9,0.8 2.3,0.9 4.7,1.9 6.7,3.5 3.5,2.8 4.4,6.5 3.3,10.7 -1.1,4.3 -4.1,6.6 -8.3,7.6 -0.7,0.2 -0.7,-0.2 -0.6,-0.6 0,-0.8 0.6,-1.2 1.2,-1.5 1.3,-0.8 2.5,-1.7 3.4,-2.9 2.7,-3.8 1.6,-7.5 -2.8,-9 -1.3,-0.5 -2.7,-0.8 -3.9,-1.5 -0.6,-0.3 -1.2,-0.4 -2,-0.1 1.7,1.4 3.5,2.6 5.4,3.5 0.4,0.2 0.7,0.3 1.1,0.5 1.7,1 2,2.2 1.1,3.9 -0.9,1.7 -2.1,3.2 -3.8,4.2 -0.9,0.5 -1.4,0.3 -1.7,-0.6 -2.8,-8.6 -4.1,-17.3 -2.3,-26.3 0.1,-0.5 0.1,-1 0.1,-1.6 -0.1,-10.8 0.5,-21.6 0.9,-32.5 0.2,-5.9 0.4,-11.8 -0.2,-17.7 -0.3,-3.5 -2.5,-7.4 -5.2,-9.4 -0.3,1.3 -0.3,2.5 0.4,3.6 2.7,4.4 2.7,9.3 2.7,14.1 0.1,10 -0.5,20 -0.8,30.1 -0.3,8.9 -0.7,17.8 -0.8,26.7 -0.2,12 5.1,21.4 15,28.2 3.9,2.7 8.4,4.5 12.6,6.7 11.2,5.8 21.3,13.3 30.3,22.1 5.5,5.4 10.6,11.1 14.8,17.6 4.2,6.4 6.1,13.7 7.9,21.1 2,8 1.8,16.2 1.5,24.3 -0.2,4.2 -0.2,8.3 -1.1,12.4 -0.7,3.5 -1.9,6.8 -3.8,9.9 -1.6,2.5 -3,2.9 -5.6,1.8 -0.6,-0.2 -1.1,-0.3 -1.6,-0.1 -0.5,0.2 -1.1,0.3 -1.6,0.2 -0.6,-0.1 -1.2,0.1 -1.4,0.7 -0.3,0.8 -0.1,1.7 0.5,2.4 0.5,0.6 1,0.4 1.6,0.2 0.4,-0.2 0.9,-0.4 1.3,-0.5 1.4,-0.4 2.2,0.4 1.8,1.8 -0.3,1 -0.9,1.8 -1.9,2.2 -1.8,0.7 -3.5,1.6 -5.4,1.7 -1.6,0.1 -2.3,1.1 -2.1,2.7 0.1,0.7 0.6,0.9 1.2,1 1.2,0.2 2.3,-0.1 3.4,-0.9 -0.3,2.4 -2.7,3.8 -4.8,2.8 -0.7,-0.3 -1.5,-0.7 -2.3,-0.7 -1.1,-0.1 -1.8,0.3 -2.4,1.3 -0.5,0.8 -0.3,1.4 0.6,1.8 0.7,0.3 1.4,0.5 1.9,0.9 0.2,0.2 0.3,0.3 0.7,0.8 -3.1,-0.6 -5.9,0.1 -8.8,0.2 0.9,1.5 2,2.1 4.1,2.1 -0.9,1 -2.2,1.2 -3.4,0.5 -0.3,-0.2 -0.6,-0.5 -0.9,-0.7 -1.3,-1.1 -1.7,-1 -2.6,0.4 -1,1.5 -0.9,2.1 0.9,2.9 -0.9,0.7 -1.7,0.8 -2.9,0.2 -0.7,-0.4 -1.4,-0.9 -2.1,-1.3 -0.6,-0.4 -1.3,-0.4 -1.9,0.1 -0.7,0.5 -1,1.3 -1.1,2.1 -0.1,0.4 0.3,0.6 0.7,0.4 1.7,-0.7 2.2,0.6 3,1.7 -0.6,0.3 -1.1,-0.1 -1.5,-0.2 -2,-0.8 -3.9,-1.7 -5.9,-2.4 -2.4,-0.9 -4.7,-1.2 -7.1,0.1 -1.2,0.7 -1.3,0.8 -0.2,1.6 1.2,0.9 2.5,1.6 4.2,1.8 -1.6,0.9 -3,0.9 -4.4,0.1 -1.2,-0.7 -2.2,-1.7 -3.2,-2.6 -0.5,-0.4 -0.4,-0.9 0.1,-1.3 0.7,-0.5 0.9,-1 0.1,-1.6 -0.7,-0.6 -1.4,-0.5 -1.9,0.3 -0.4,0.7 -0.5,1.4 -0.7,2.2 -0.2,0.9 -0.4,1.7 -1.4,1.9 -1.1,0.2 -2,-0.1 -2.6,-1.1 -0.7,-1.1 -1.3,-2.3 -1.9,-3.5 -0.4,-0.8 -0.7,-0.8 -1.2,0 -0.7,1 -0.9,2 -0.3,3.1 0.3,0.6 0.6,1.3 1.1,2.2 -2.9,-1.1 -5.6,-2.1 -7.4,-4.6 -1,-1.4 -0.9,-2.3 -0.2,-4.6 -0.2,0 -0.5,0 -0.7,0 -1.8,0 -2.3,0.6 -1.8,2.3 0.5,1.9 1.1,3.7 1.8,5.9 -2.3,-1.9 -4.9,-3 -6,-5.6 -0.5,-1.1 -1,-1.3 -2,-0.7 -1.7,0.9 -3.1,0.6 -4.6,-0.7 -10.6,-9 -16,-20.5 -17.5,-34.2 -1.7,-16.1 2.4,-30.4 12.5,-43.1 1.9,-2.3 4.3,-4.2 6.3,-6.4 0.7,-0.8 1.7,-0.7 2.7,-0.5 0.9,0.2 1.8,0.7 2.8,0.2 0.2,-0.1 0.4,-0.1 0.4,0.1 0,0.2 0,0.4 -0.1,0.5 -0.9,1.5 -1.8,3 -2.6,4.6 -3.4,6.1 -7.1,12 -9.6,18.6 -3.6,9.6 -4.5,19.4 -1.8,29.4 1.6,5.8 4.6,10.6 9.6,14 0.3,0.2 0.6,0.6 1.1,0.4 -0.7,-1 -1.4,-2 -2.2,-3 -6.9,-9.3 -8.7,-19.6 -6.7,-30.9 1.5,-8.4 4.9,-16 9.2,-23.2 1.6,-2.6 3,-5.3 4.3,-8.1 0.3,-0.7 0.7,-1.1 1.5,-0.8 3.4,1.2 6.8,1.9 10.3,2.8 0.2,0 0.4,0.1 0.6,0.2 -1.8,1.4 -3.4,2.9 -4.8,4.6 -4.7,5.6 -7.2,12.2 -8.3,19.2 -1.9,12.1 1.9,22.3 11.6,29.9 9.8,7.6 23.9,7.8 34.4,0.9 0.6,-0.4 1.1,-0.7 1.9,-1.3 -5.9,10.3 -13.8,17.3 -25.7,18.6 1,1.1 4.4,1.5 6.1,1.1 3.9,-0.9 7.4,-2.8 10.6,-5.1 9,-6.5 13.9,-15.4 15.4,-26.3 0.4,-2.6 0.2,-5.3 0.2,-7.9 0,-2.1 -1.2,-3.8 -2.1,-5.6 -0.5,-0.9 -1.3,-0.8 -2.1,-0.3 -0.8,0.4 -1,1.2 -0.5,1.8 2.8,3.1 2.3,6.8 2.3,10.5 0,1.3 0,2.6 0.2,4 -1.1,-0.9 -1.4,-2 -1.6,-3.2 -4.1,-21 -15.3,-36.1 -36,-43.4 -6.2,-2.2 -12.6,-3.3 -18.9,-4.7 -15.2,-3.4 -30.4,-6.5 -45.4,-10.6 -6.5,-1.8 -12.5,-4.8 -17.5,-9.5 -0.7,-0.6 -1.3,-1.3 -1.9,-2 -0.2,-0.2 -0.4,-0.5 -0.5,-0.9 1.9,0.9 3.9,0.8 5.9,1.4 0.6,0.2 1.2,0.5 1.7,0.9 2.3,1.7 3.4,1.2 4,-1.6 0.1,-0.3 0.3,-0.6 -0.3,-0.5 -1.2,1.1 -1.5,1.2 -2.5,-0.1 -0.9,-1.1 -1.8,-1.9 -3.4,-2 4.1,-0.2 8,-0.9 11.8,-2.3 2.5,-0.9 2.9,-1.4 2.9,-4.1 0,-1.8 0.6,-2.6 2.3,-3.2 1.3,-0.5 2.6,-0.6 4,-0.5 0.7,0.1 1.4,0.1 2.1,-0.2 0.5,-0.2 0.9,-0.5 0.9,-1 0,-0.6 -0.4,-0.9 -0.9,-1 -0.6,-0.2 -1.2,-0.3 -1.8,-0.2 -1,0.2 -2,-0.1 -2.9,-0.4 -0.8,-0.2 -1.4,-0.7 -1.3,-1.6 0.1,-0.9 0.8,-1.2 1.5,-1.3 2.2,-0.2 4.3,-1 6.4,-1.5 2.6,-0.7 3.9,-2.4 4.5,-4.9 0.1,-0.6 0.2,-1.2 0.4,-1.9 -1.3,0 -1.8,0.7 -2.2,1.7 -0.3,0.9 -0.5,1.9 -1.6,2.5 -0.2,-0.9 -0.4,-1.8 -0.5,-2.6 -0.1,-0.6 -0.4,-1.1 -0.7,-1.6 -0.4,-0.6 -1,-1.3 -1.7,-1.2 -0.5,0.1 -0.3,1 -0.5,1.5 -0.3,0.9 -0.5,1.8 -0.8,2.6 -0.9,2.3 -2.6,3.7 -5,4.2 -1.4,0.3 -2.1,1.1 -2.1,2.6 0,1.5 -0.9,2.4 -2.1,3 -0.3,0.2 -0.9,0.2 -0.8,0.8 0.1,0.5 0.6,0.3 0.9,0.4 0.7,0.1 1,0.5 0.6,1.2 0,0 0,0.1 0,0.1 -0.6,1.4 -0.5,3.3 -1.9,4 -2.2,1.1 -4.7,2.1 -7.2,2 -5.5,-0.2 -10.7,1 -15.9,2.6 -3.5,1.1 -6.9,2.2 -10.4,3.1 -3.1,0.8 -6.1,0.9 -9.2,0.2 -2.2,-0.5 -4.5,-1 -6.9,-1.6 1.5,-1 2.9,-1.2 4.4,-1.4 1.8,-0.2 3.7,-0.1 5.5,-0.7 0.8,-0.2 1.6,-0.5 2.2,-1.1 -0.9,-1.2 -1.6,-1.4 -3,-0.9 -0.7,0.3 -1.3,0.7 -1.9,1 -1.9,1 -3.5,0.7 -5,-0.8 -0.9,-1 -1.1,-1 -1.9,0.1 -0.3,0.4 -0.6,0.8 -0.9,1.3 -1.5,2.3 -3.3,4.2 -6.8,3.3 1.3,1 2.5,0.9 3.7,0.9 1,0 2,-0.2 3,-0.1 0.6,0.1 1.1,0.3 1.5,0.6 0.4,0.3 0.9,0.5 0.8,1 0,0.4 -0.6,0.4 -1,0.5 -7.2,2.9 -10.8,8.5 -11.4,16 -0.3,3.4 -0.2,6.9 -0.2,10.3 0,3 1.6,5.4 3.7,7.4 2.7,2.7 5.6,5.4 7.9,8.5 1.1,1.5 2.2,3.1 2.9,4.9 0.7,1.9 2,2.9 3.9,3.4 0.6,0.2 1.3,0.2 1.8,0.6 -3.6,1 -5.6,0.2 -7.4,-2.9 -0.3,-0.5 -0.6,-1 -1.1,-1.3 -0.7,-0.5 -1.3,-0.3 -1.8,0.3 -0.6,0.7 -0.1,1.2 0.5,1.5 1.9,1 1.6,1.8 0.7,3.4 -0.8,1.6 -1.7,3.2 -2.7,4.8 -3.7,-6 -7,-12.1 -10.4,-18.4 -0.9,2.1 -0.4,3.9 0.6,5.6 2,3.6 4,7.3 6,10.9 0.8,1.5 1.6,3 2.5,4.5 0.8,1.3 1.1,2.6 0.9,4.1 -0.3,4.1 0,8.1 2.5,11.8 -1.6,-0.7 -2.8,-2.2 -3.4,-4.4 -0.5,-1.7 -0.8,-3.5 -1.2,-5.2 -0.2,-0.7 -0.3,-1.4 -0.8,-2 -0.6,1 -0.6,1.9 -0.2,3.7 0.7,2.6 0.7,2.7 0.4,3.9 -1,-0.6 -1.9,-1.3 -2.9,-1.8 -5.9,-3.3 -11.3,-2.6 -16.2,2.2 -2.1,2 -3.7,4.4 -5.2,6.9 -0.6,-1.5 -0.4,-3.1 0.6,-4.7 0.8,-1.3 1.9,-2.3 2.9,-3.3 2.6,-2.7 4.2,-5.8 4.8,-9.5 -0.1,-0.6 -0.1,-0.6 -0.5,-0.5 z"
   class="st0" />
<path
   id="path839"
   d="m 234.14,139.70235 c 5.1,-0.4 9.9,-2.1 14.7,-3.8 3,-1.1 5.9,-2.2 9.1,-3.1 -0.3,0.6 -0.5,1 -1,1.1 -6.1,1.4 -9.3,5.7 -10.8,11.4 -0.7,2.8 -1.6,5.5 -1.6,8.4 -0.1,3.7 1.8,6.4 4.7,8.6 1.4,1.1 3,1.8 4.7,2.3 0.6,0.2 1.3,0.4 1.7,1.2 -1.8,0.3 -3.5,0 -5.1,-0.3 -2.8,-0.6 -5.5,-1.6 -8.1,-2.9 -1.9,-1 -3.5,-2.3 -5,-3.9 -4.8,-4.9 -10.5,-8.1 -17.2,-9.6 -3.3,-0.8 -6.5,-0.1 -9.6,1 -4,1.4 -7.7,3.3 -10.3,6.8 -0.3,0.4 -0.5,0.3 -0.8,0 -1,-0.8 -1.8,-1.7 -2.7,-2.6 -0.9,-1 -1.9,-2 -3.1,-2.6 -0.7,-0.4 -0.5,-0.6 0,-1 0.9,-0.7 1.8,-1.4 2.7,-2.2 1,-0.8 1.9,-1.5 2.6,-2.6 0.1,-0.2 0.5,-0.5 0.3,-0.7 -0.2,-0.3 -0.6,-0.2 -0.9,-0.1 -1.8,0.4 -3.3,1.3 -4.6,2.6 -2.2,2.1 -2.6,2.1 -5.2,0.7 -1.2,-0.6 -2.3,-1.3 -3.4,-2 -1.8,-1.2 -1.9,-2 -0.3,-3.5 2,-1.8 4,-3.4 6,-5.1 7.5,-6.5 13.9,-13.8 18.3,-22.8 2.4,-5 3.8,-10.2 3.7,-15.8 0,-10.3 0.5,-20.7 1,-31 0.2,-5.5 0.2,-10.9 1.2,-16.4 1.3,-7 4.1,-13.2 9.8,-17.8 0.3,-0.3 0.6,-0.7 1.1,-0.7 0.4,1.3 -0.3,2.2 -1.2,3 -2.8,2.5 -4.8,5.6 -5.3,9.4 -0.5,3.2 0,6.3 1.1,9.3 2.1,5.9 4.7,11.5 9.3,16 1.3,1.2 2.7,2.3 4.1,3.3 1.6,1 1.8,1.7 1.3,3.5 -2,7.1 -4.7,13.9 -7.9,20.5 -2.6,5.4 -5.5,10.6 -8.8,15.6 -0.7,1 -0.9,2.3 -1.7,3.4 -0.8,-1 -0.6,-2 -0.2,-3 0.3,-0.6 0.7,-1.2 1,-1.9 0.3,-0.6 0.3,-1.3 -0.5,-1.6 -0.8,-0.3 -1.1,0.3 -1.3,0.9 -0.9,2.8 -1.8,5.6 -2.7,8.4 -0.4,1.3 -1,2.5 -1.8,3.5 -0.8,1.1 -1,2.2 -0.7,3.6 1.4,-1.1 2.5,-2.5 3.6,-3.8 9.6,-12.6 17.2,-26.2 21.7,-41.4 1,-3.3 2,-6.6 3.9,-9.5 2.1,-3.4 5,-6 8.8,-7.5 0.3,-0.1 0.6,-0.4 1,-0.2 -0.1,0.1 -0.1,0.3 -0.2,0.3 -4.7,3.3 -7.3,8 -9.2,13.2 -2.8,7.7 -5.7,15.3 -9.3,22.6 -0.4,0.8 -0.8,1.7 -1.3,2.4 -0.6,1 -0.8,2 -0.3,3.2 5.6,-7.3 8,-16.3 12.2,-24.3 0,0.7 0.1,1.4 0.1,2.2 0.1,4.9 0.6,9.9 0.4,14.8 -0.2,2.8 -0.7,5.6 -1.5,8.3 -1.2,3.9 -1.4,7.9 -0.9,11.9 0.4,3.3 2.3,5.7 5,7.6 1,0.7 2.1,1.4 3.3,2.1 -3.3,2.4 -7,3.6 -10.8,4.7 -4,1.1 -8,1.7 -12.2,1.5 -2.4,-0.1 -4.8,-0.1 -7.2,0.4 -0.2,0.1 -0.6,-0.1 -0.6,0.4 0,0.4 0.2,0.6 0.7,0.6 9.1,0.6 18.1,0.8 26.6,-3.2 2.2,-1 4.3,-2.3 6.2,-3.9 1.2,-1 2.5,-1.1 3.9,-0.5 1.1,0.5 2.2,1.1 3.4,1.6 -6.5,1.6 -12.4,4.6 -18.6,6.7 -2,0.7 -4,1.3 -6,1.6 -0.4,0.2 -0.8,0.3 -1.1,0.3 0.4,0.2 1.1,0.8 1.8,0.4 z"
   class="st0" />
<path
   id="path841"
   d="m 30.54,29.40235 c 0.6,-0.2 0.8,0.3 1,0.6 1.1,1.1 2.1,2.3 3.2,3.4 2.2,2 4.3,2.2 6.9,0.7 3.5,-2 4.9,-5 4,-9.1 -0.4,-1.6 -0.8,-3.2 -1.3,-5 2.6,3.1 3.4,6.5 3,10.2 -0.4,3.8 -1.7,7.4 -2.7,11 -1.7,6.4 -3.1,12.9 -3.3,19.6 -1.2,-2.8 -2.4,-5.6 -3.6,-8.5 -1,1.5 -1.1,3 -0.5,4.6 0.7,1.9 1.9,3.6 2.7,5.5 2,5.2 4.3,10.3 6.7,15.3 1.7,3.6 4.1,6.5 7.7,8.4 3.9,2.1 6.4,5.6 8.2,9.6 1.6,3.5 3.1,7 4.7,10.5 1.6,3.6 1.4,7.1 -0.4,10.6 -1.1,2.2 -2.6,4.2 -3.6,6.5 -1.5,3.7 -2,7.4 -0.7,11.2 0.6,1.8 -0.1,3.4 -1.7,3.9 -0.7,0.2 -1.2,0.1 -1.5,-0.6 -1.3,-3.5 -3.5,-6.6 -4.4,-10.3 -1.2,-4.7 -1.7,-9.6 -2.7,-14.4 -0.7,-3.7 -1.1,-7.5 -1,-11.3 0,-0.9 -0.3,-1.7 -1,-2.3 -5.1,-4.3 -8.6,-9.9 -11.6,-15.7 -0.8,-1.5 -1.5,-3 -2.3,-4.5 -0.3,-0.6 -0.7,-1.2 -1.3,-1.7 -1.4,-1.4 -2.8,-1.5 -4.4,-0.5 -0.8,0.5 -1.4,1.2 -2,1.9 -0.4,0.5 -0.9,0.9 -1.4,1.4 -2.1,1.8 -4.3,1.5 -6.2,-0.9 0.9,-0.7 1.8,-1.4 2.6,-2.1 1.6,-1.4 2.3,-3.1 1.8,-5.2 -2,-7.5 -5.4,-14 -12.6,-17.8 -2.8,-1.5 -5.7,-2.3 -8.9,-2.7 0.8,-1.6 2.1,-2.3 3.9,-2.2 1,0.1 2,0.4 3,0.7 1.3,0.4 2.7,0.7 4.1,0.8 2.7,0.2 4.9,-0.7 6.5,-3 3.1,-4.5 4.1,-9.6 4.1,-15 0,-1.9 -0.3,-3.8 -0.5,-5.7 -0.4,-2.9 -2.1,-5.1 -4.2,-7 -1.5,-1.4 -3.2,-2.5 -4.9,-3.8 1.7,-0.5 3.1,-0.4 4.5,0.6 3.6,2.5 5.8,6.1 7.4,10.1 1.5,4 2.4,8.2 3.4,12.3 0.7,3.1 1.8,6.1 3.8,8.7 -1.7,-6.4 -2.5,-12.7 -4.5,-18.8 z"
   class="st0" />
<path
   id="path843"
   d="m 240.64,244.20235 c -0.9,0.1 -1.5,-0.2 -2,-0.6 -0.4,-0.3 -0.8,-0.7 -1.2,-1 -1,-0.8 -1.2,-0.8 -1.6,0.5 -2.2,7.5 -6.5,13.3 -13.6,16.8 -0.2,0.1 -0.5,0.3 -0.8,0.4 -0.1,0 -0.2,0 -0.3,0 9.1,-13.7 11.6,-29.1 10.5,-45.1 -1.1,-16.1 -5.9,-30.8 -16.9,-43.2 1.8,0 3.5,-0.1 5.2,0 1,0.1 1.1,1 1.1,1.8 0.1,1.2 0.1,2.4 0.4,3.6 1,4.5 4.5,7.1 9.1,6.7 2.2,-0.2 4.5,-0.2 6.7,-0.2 0.3,0 0.7,0.1 1,0.2 0.7,0.4 1.1,0.8 0.3,1.5 -0.1,0.1 -0.2,0.2 -0.3,0.2 -3.1,2.8 -3.5,4.9 -1.5,8.6 1.4,2.6 3.4,4.7 5.2,7 0.8,1 1.7,1.9 2.3,3 0.2,0.3 0.6,0.7 0.4,1.1 -0.2,0.4 -0.8,0.3 -1.2,0.3 -0.8,0 -1.6,0 -2.4,-0.1 -0.9,0 -1.6,0.2 -2,1 -0.5,0.9 -0.5,1.7 0.1,2.6 0.3,0.5 0.8,0.9 1.3,1.2 3.9,2.4 5.4,6.1 5.6,10.5 0,1.5 0,3 -0.1,4.4 0,0.3 0.1,0.7 -0.3,0.8 -0.4,0.1 -0.7,-0.1 -0.9,-0.4 -0.5,-0.5 -0.9,-1 -1.3,-1.5 -0.9,-0.9 -1.7,-1 -2.7,-0.1 -0.8,0.6 -1.3,1.5 -1.4,2.4 -0.5,2.6 -0.8,5.1 -0.3,7.7 0.1,0.6 0.2,1.3 0.6,1.8 1,1.7 1.1,3.4 1,5.3 -0.1,1 0,1.9 0,2.8 z"
   class="st0" />
<path
   id="path845"
   d="m 163.34,196.80235 c -0.5,3.3 -1.1,6.5 -1.6,9.7 -0.1,0.5 -0.1,0.9 -0.2,1.4 -0.1,2.2 0.8,2.8 2.9,2.2 0.3,-0.1 0.7,-0.5 1,-0.2 0.3,0.4 -0.1,0.7 -0.3,1 -1.7,3.2 -3.3,6.6 -4.5,10 -0.9,2.5 -0.4,4.1 1.7,5.6 1.2,0.9 1.9,0.9 2.9,-0.2 0.8,-0.9 1.6,-1.7 2.9,-2.3 0,1.8 0,3.6 0,5.3 0,1.1 0,2.2 0.8,3.2 1,1.2 2,1.3 3.1,0.1 0.4,-0.5 0.9,-0.9 1.5,-1.1 0.7,-0.2 1.1,-0.1 1,0.8 -0.2,1.5 -0.6,3.1 -1,4.6 -1.1,3.8 -1.1,7.4 2.8,10.1 -1.5,0.1 -2.8,0 -3.9,-0.5 -8.5,-3.6 -14.7,-9.6 -17.2,-18.7 -1.6,-5.7 -0.8,-11.6 0.8,-17.3 1.2,-4.6 3,-9 6,-12.8 0.3,-0.2 0.6,-0.6 1.3,-0.9 z"
   class="st0" />
<path
   id="path847"
   d="m 45.94,41.60235 c 1.1,1.3 1.9,2.4 3,3.2 1.7,1.3 3.1,1.3 4.8,0 0.8,-0.6 1.4,-1.3 2,-2 0.6,-0.7 1.1,-1.4 1.8,-2.3 0.2,3 -0.7,5.5 -2.8,7.2 -5.7,4.9 -8.9,11.2 -10.5,18.7 -2.6,-8.5 0.2,-16.5 1.7,-24.8 z"
   class="st0" />
<path
   id="path849"
   d="m 102.54,9.1023499 c 0.8,3.8000001 3.6,6.4000001 5.4,9.6000001 0,0.1 0.1,0.1 0.2,0.2 1.4,1.5 1.3,1.3 -0.3,2.8 -2,2 -3.5,1.4 -4.9,-0.8 -2,-3.1 -2.4,-6.4 -1.3,-10 0.2,-0.7 0.4,-1.3000001 0.9,-1.8000001 z"
   class="st0" />
<path
   id="path851"
   d="m 87.44,61.50235 c -4.1,2.1 -8.1,4.2 -12.2,6.3 -0.3,0.1 -0.3,0 -0.3,-0.3 3.2,-2.7 6.6,-5.2 10.9,-6.1 0.3,-0.1 0.7,-0.1 1.1,-0.2 0.3,-0.1 0.6,-0.2 0.5,0.3 z"
   class="st1" />
<path
   id="path853"
   d="m 77.84,58.50235 c -2.3,1.3 -4.3,4.1 -7.6,2 2.2,-0.7 4.3,-1.3 6.3,-1.9 0.5,0 0.9,0 1.3,-0.1 z"
   class="st0" />
<path
   id="path855"
   d="m 234.14,139.70235 c -0.8,0.3 -1.6,0.2 -2.4,0.1 0.5,-0.1 0.9,-0.5 1.5,-0.3 0.3,0.3 0.6,0.1 0.9,0.2 z"
   class="st1" />
<path
   id="path857"
   d="m 75.04,67.50235 c 0.1,0.1 0.2,0.2 0.3,0.3 -0.3,0.3 -0.6,0.4 -1.1,0.6 0.1,-0.6 0.5,-0.7 0.8,-0.9 z"
   class="st0" />
<path
   id="path859"
   d="m 87.44,61.50235 c -0.1,-0.3 -0.3,-0.2 -0.5,-0.3 0.2,-0.1 0.3,-0.2 0.5,-0.2 0.2,0 0.5,-0.1 0.5,0.1 0.1,0.2 -0.2,0.3 -0.5,0.4 z"
   class="st1" />
<path
   id="path861"
   d="m 28.24,225.20235 c 0,-0.2 0.1,-0.4 0.4,-0.6 0.2,0.4 0.1,0.8 -0.1,1.1 -0.2,-0.2 0,-0.4 -0.3,-0.5 z"
   class="st1" />
<path
   id="path863"
   d="m 93.94,161.30235 c 0.1,-0.2 0.2,-0.4 0.3,-0.3 0.3,0.3 0.1,0.6 -0.1,0.9 0,-0.2 0.1,-0.5 -0.2,-0.6 z"
   class="st1" />
<path
   id="path865"
   d="m 101.84,35.50235 c 0,-2 0.3,-3.5 1.5,-4.8 0.4,-0.5 0.9,-1 1.6,-0.5 0.7,0.5 0.2,1.1 -0.1,1.6 -0.2,0.3 -0.5,0.5 -0.2,0.9 0.2,0.3 0.5,0.1 0.8,0 3.1,-0.8 5.7,0 7.8,2.5 1.6,1.9 3.5,2.1 5.7,1.1 1.5,-0.7 2.6,-2.1 4.3,-2.6 0.5,-0.1 0.9,-0.5 1.2,0.1 0.4,0.6 0.6,1.4 -0.1,1.8 -2,1.2 -3.7,2.7 -5.8,3.6 -0.6,0.3 -1.2,0.4 -1.7,0.2 -2.8,-0.8 -5.4,-0.1 -8.1,0.6 -1.1,0.3 -2.3,0.6 -3.5,0.6 -1.6,-0.1 -2.7,-1 -3,-2.6 -0.2,-0.9 -0.4,-1.8 -0.4,-2.5 z"
   class="st1" />
<path
   id="path867"
   d="m 108.64,110.20235 c -1.3,0.1 -2.7,-0.1 -4.2,-0.2 -0.6,-0.1 -1.1,-0.3 -1.1,-1 0,-0.4 0,-0.9 -0.6,-1 -0.5,-0.1 -0.1,-0.5 0,-0.6 0.2,-0.4 0.6,-0.8 0.9,-0.4 0.8,0.9 1.8,0.6 2.8,0.8 1.7,0.3 3.5,0.6 5.2,0.6 2,0 3.8,-0.5 5.4,-1.7 0.7,-0.6 1.4,-1.1 2.2,0.1 0.6,0.8 1.5,0.5 2.3,0 0.8,-0.5 1.5,-1.2 2.5,-1.4 0.2,0 0.5,-0.1 0.7,0.1 0.2,0.2 0,0.4 -0.1,0.7 -0.6,1.3 -1.7,1.9 -3,2.3 -2,0.6 -4.1,1 -6.2,1.3 -2.3,0.2 -4.5,0.4 -6.8,0.4 z"
   class="st1" />
<path
   id="path869"
   d="m 100.64,41.10235 c 5.7,0.7 9.5,4.9 15,6.4 -6.6,0.9 -11,-2 -15,-6.4 z"
   class="st1" />
<path
   id="path871"
   d="m 118.84,149.90235 c -1.7,0 -4.7,-2 -5.1,-3.3 -0.3,-1.1 0.8,-1.5 1.4,-2 0.6,-0.4 1.1,0.1 1.3,0.7 0.1,0.3 0.3,0.7 0.4,1 0.9,1.6 1.9,2 3.6,1.3 1.1,-0.5 2.1,-1.3 3.3,-1.6 0.4,-0.1 1.1,-0.4 1.3,0.1 0.3,0.5 -0.2,1 -0.6,1.3 -1.7,1.4 -3.7,2.3 -5.6,2.5 z"
   class="st1" />
<path
   id="path873"
   d="m 114.24,8.4023499 c 3.4,2.1000001 4.4,5.1000001 3.9,11.4000001 -2.1,-1.3 -4.3,-7.6 -3.9,-11.4000001 z"
   class="st1" />
<path
   id="path875"
   d="m 100.14,142.40235 c -0.4,3.4 -1.6,6.5 -3.9,9.1 -0.9,1 -1.7,0.9 -2.7,0.1 -0.3,-0.2 -0.3,-0.4 -0.1,-0.7 2.3,-2.6 4,-5.5 6.1,-8.3 0.1,-0.1 0.1,-0.3 0.2,-0.4 0.2,0.1 0.3,0.1 0.4,0.2 z"
   class="st1" />
<path
   id="path877"
   d="m 85.64,152.10235 c 5.7,-1.4 7.6,-6.5 10.7,-10.3 0.5,0.2 0.2,0.4 0.1,0.6 -0.9,2.2 -1.6,4.4 -2.8,6.4 -1.9,2.8 -4.4,3.9 -8,3.3 z"
   class="st1" />
<path
   id="path879"
   d="m 99.84,158.60235 c 1.9,-1.6 2.9,-1.5 4.4,0.4 0.2,0.3 0.5,0.7 0.8,0.9 0.7,0.6 1.5,0.8 2.2,-0.1 0.3,-0.3 0.5,-0.8 1,-0.4 0.5,0.4 0.6,0.9 0.3,1.5 -0.5,0.7 -1.1,1.3 -1.8,1.9 -0.5,0.4 -0.9,0.2 -1.3,-0.2 -0.6,-0.5 -1.1,-1 -1.6,-1.6 -1.6,-1.6 -1.9,-1.8 -4,-2.4 z"
   class="st1" />
<path
   id="path881"
   d="m 140.54,221.00235 c 0,-0.7 0.3,-1.2 0.8,-1.6 0.7,-0.5 1.4,-1 2,-1.5 0.1,-0.1 0.2,-0.1 0.3,-0.2 0.6,-0.2 1,0.1 1.3,0.6 0.4,0.7 1.7,1.1 1.2,2.2 -0.3,0.7 -0.9,1.1 -1.6,1.3 -0.4,0.1 -0.6,-0.1 -0.8,-0.4 -0.6,-0.8 -1.2,-0.8 -1.8,0.1 -0.2,0.4 -0.6,0.8 -1,0.7 -0.4,-0.2 -0.4,-0.8 -0.4,-1.2 z"
   class="st1" />
<path
   id="path883"
   d="m 83.34,142.80235 c 1.2,-1 2.5,-1.4 3.8,-1.9 1.6,-0.6 3.1,-1.3 3.7,-3.1 0.1,-0.3 0.3,-0.5 0.6,-0.3 0.5,0.3 1,0.7 1,1.4 0,0.5 -0.3,0.8 -0.6,1.1 -2.3,2.4 -5.2,2.9 -8.5,2.8 z"
   class="st1" />
<path
   id="path885"
   d="m 123.24,166.50235 c 3.9,1.6 3.9,1.6 5.7,-1.8 0.4,1 0.6,2.1 0.4,3.1 -0.2,1.2 -1.1,2.1 -2.3,2.3 -1.2,0.2 -2,-0.4 -2.6,-1.3 -0.4,-0.6 -0.7,-1.4 -1.2,-2.3 z"
   class="st1" />
<path
   id="path887"
   d="m 183.74,183.40235 c 3.4,2.1 3.9,1.9 5.5,-1.6 1.1,2 0.4,4.3 -1,5 -1.4,0.7 -2.5,0.5 -3.3,-0.8 -0.5,-0.7 -0.8,-1.6 -1.2,-2.6 z"
   class="st1" />
<path
   id="path889"
   d="m 198.24,198.40235 c 0.3,1.3 0.5,2.3 0.2,3.4 -0.3,1.3 -1.2,1.9 -2.4,2.2 -1.1,0.2 -1.8,-0.4 -2.4,-1.3 -0.4,-0.6 -0.8,-1.3 -1.3,-2.1 1.3,0.3 2.4,1.1 3.7,0.8 1.4,-0.3 1.6,-1.7 2.2,-3 z"
   class="st1" />
<path
   id="path891"
   d="m 178.84,175.40235 c 1.3,0.3 2.2,1.6 3.5,1.4 1.5,-0.3 1.4,-1.7 1.8,-2.8 1.6,1.8 0.9,4.3 -1.3,5 -1.2,0.4 -2.1,0 -2.7,-0.9 -0.4,-0.9 -0.8,-1.7 -1.3,-2.7 z"
   class="st1" />
<path
   id="path893"
   d="m 142.44,198.10235 c 0,1.8 -1.2,3.3 -2.7,3.6 -0.6,0.1 -1.2,0 -1.5,-0.7 -0.2,-0.7 0.4,-0.9 0.8,-1.1 1.5,-0.7 1.5,-0.7 0.6,-2 -0.3,-0.5 -0.6,-0.9 0.1,-1.3 0.9,-0.5 2.1,-0.4 2.4,0.4 0.2,0.4 0.2,0.9 0.3,1.1 z"
   class="st1" />
<path
   id="path895"
   d="m 138.94,170.30235 c 0.8,-0.2 1.4,0.2 2.1,0.4 2.6,0.8 3.1,0.6 3.8,-2.1 0,-0.1 0.1,-0.3 0.2,-0.5 0.4,1 0.5,1.9 0.4,2.9 -0.1,1.2 -0.9,1.9 -2,2.3 -1.1,0.4 -1.9,0.1 -2.6,-0.8 -0.7,-0.8 -1.3,-1.5 -1.9,-2.2 z"
   class="st1" />
<path
   id="path897"
   d="m 122.44,158.30235 c 1.4,0.6 2.2,1.8 3.5,1.6 1.5,-0.3 1.5,-1.7 1.7,-2.8 0.8,0.8 1.1,2.4 0.6,3.5 -0.5,1.2 -1.5,1.6 -2.7,1.7 -0.9,0.1 -1.5,-0.5 -1.9,-1.2 -0.3,-0.9 -0.7,-1.7 -1.2,-2.8 z"
   class="st1" />
<path
   id="path899"
   d="m 104.34,168.00235 c 2.5,1.1 4.2,0.6 5.3,-2.1 0.7,1.4 0.7,2.5 0,3.5 -0.7,1 -1.7,1.6 -3,1.4 -1.4,-0.1 -1.8,-1.4 -2.3,-2.8 z"
   class="st1" />
<path
   id="path901"
   d="m 159.74,169.00235 c 4.2,2.4 4.6,1.4 5.1,-1.7 0.9,1.1 1.1,2.8 0.4,3.9 -0.6,1 -1.6,1.5 -2.7,1.3 -1.8,-0.3 -2.2,-2 -2.8,-3.5 z"
   class="st1" />
<path
   id="path903"
   d="m 157.64,179.60235 c 3.6,0.6 3.9,0.5 5.1,-2.2 1.1,1.9 0.7,3.6 -1.1,4.6 -1.8,0.9 -2.6,0.4 -4,-2.4 z"
   class="st1" />
<path
   id="path905"
   d="m 201.74,266.20235 c 0.1,0.6 -0.3,1.1 -0.9,1.5 -0.8,0.5 -1.7,0.8 -2.5,1.3 -0.6,0.4 -0.8,-0.4 -1,-0.7 -0.3,-0.4 -1.3,-0.7 -0.5,-1.5 0.7,-0.7 1.2,-2.1 2.6,-1.2 0.5,0.3 0.8,0.1 1.2,-0.1 0.7,-0.5 1.1,-0.3 1.1,0.7 z"
   class="st1" />
<path
   id="path907"
   d="m 180.54,272.60235 c -0.5,-0.1 -1,-0.1 -1.4,-0.2 -0.7,-0.1 -1.1,-0.5 -1.2,-1.3 -0.1,-0.8 0.3,-1.4 0.9,-1.8 0.2,-0.1 0.5,-0.2 0.6,-0.1 0.8,0.8 1.9,0.7 2.9,0.7 0.6,0 0.6,0.6 0.6,1 0,0.6 -0.2,1.2 -0.9,1.4 -0.5,0.2 -1,0.2 -1.5,0.3 z"
   class="st1" />
<path
   id="path909"
   d="m 147.34,159.00235 c 0.7,1.3 1,2.4 0,3.5 -0.8,0.9 -1.8,1.5 -3,1.2 -1.5,-0.5 -1.6,-1.9 -2,-3.3 2.8,1.8 3,1.8 5,-1.4 z"
   class="st1" />
<path
   id="path911"
   d="m 117.94,161.60235 c -1.3,0 -2.4,-1.6 -2.1,-2.7 0.2,-0.6 0.5,-0.7 1.1,-0.5 1.5,0.7 1.5,0.7 2.3,-0.9 0.2,-0.4 0.5,-0.8 1,-0.7 0.5,0.1 0.5,0.6 0.4,1 -0.2,1.4 -1,2.5 -2.1,3.5 -0.2,0.2 -0.5,0.2 -0.6,0.3 z"
   class="st1" />
<path
   id="path913"
   d="m 107.74,154.30235 c 3.3,1.4 3.9,1.1 4.8,-2.1 0.8,0.9 0.9,2.5 0.4,3.6 -0.6,1.1 -1.5,1.7 -2.8,1.5 -1.6,-0.1 -1.8,-1.6 -2.4,-3 z"
   class="st1" />
<path
   id="path915"
   d="m 147.04,209.30235 c 0.1,1.1 0.2,2.1 0.2,3.1 0,0.6 -0.3,1.2 -0.8,1.7 -0.2,0.2 -0.4,0.4 -0.6,-0.1 -0.2,-0.6 -0.9,-0.7 -1.5,-0.9 -0.4,-0.1 -1,-0.1 -1.1,-0.7 -0.1,-0.6 0.2,-1.2 0.7,-1.5 1,-0.6 2,-1.1 3.1,-1.6 z"
   class="st1" />
<path
   id="path917"
   d="m 136.74,139.20235 c 1.2,2.2 0.7,4.2 -1.1,5 -1.7,0.8 -2.8,0 -3.7,-2.7 1.2,0.2 2.2,1.2 3.4,0.7 1.2,-0.5 1,-1.9 1.4,-3 z"
   class="st1" />
<path
   id="path919"
   d="m 185.34,191.50235 c 2.1,1.3 4.1,2.2 5.4,-0.8 0.6,2.1 0.1,4 -1.2,4.4 -1.6,0.4 -2.9,-0.1 -4.2,-3.6 z"
   class="st1" />
<path
   id="path921"
   d="m 136.14,172.40235 c 0.6,1.3 0.8,2.6 -0.1,3.8 -0.7,0.9 -1.7,1.5 -2.8,1.2 -1.3,-0.3 -1.6,-1.6 -2.1,-2.9 1.1,0.4 2,1.3 3.2,0.6 0.9,-0.6 1.3,-1.7 1.8,-2.7 z"
   class="st1" />
<path
   id="path923"
   d="m 96.34,164.60235 c 2.9,1.7 2.9,1.7 5.3,-1.6 0.6,1.1 0.7,2.2 0.1,3.3 -0.6,1.1 -1.6,1.7 -2.8,1.6 -1.7,-0.3 -1.9,-1.9 -2.6,-3.3 z"
   class="st1" />
<path
   id="path925"
   d="m 114.24,168.20235 c 2.9,0.9 3.1,1.3 5,-2.1 0.6,1.2 0.9,2.3 0.1,3.4 -0.7,1 -1.7,1.6 -3,1.4 -1.3,-0.2 -1.5,-1.5 -2.1,-2.7 z"
   class="st1" />
<path
   id="path927"
   d="m 150.34,153.60235 c 3.3,1.1 3.6,1 5,-2 1.2,1.7 0.8,3.4 -1,4.4 -1.8,1 -2.6,0.6 -4,-2.4 z"
   class="st1" />
<path
   id="path929"
   d="m 175.44,185.00235 c 1.1,0.2 2,1.3 3.2,0.6 1,-0.6 1.3,-1.7 1.9,-2.6 1,1.9 0.5,3.6 -1.2,4.6 -2,0.9 -3.1,0.1 -3.9,-2.6 z"
   class="st1" />
<path
   id="path931"
   d="m 140.74,154.00235 c -0.1,1.4 -0.7,2.7 -1.7,3.7 -0.9,0.9 -2.8,0.3 -3.1,-1 -0.1,-0.2 -0.1,-0.5 0.1,-0.7 0.2,-0.2 0.5,-0.1 0.7,0 0.8,0.7 1.2,0.1 1.5,-0.5 0.4,-0.7 0.7,-1.4 1.1,-2.1 0.2,-0.4 0.6,-0.9 1,-0.8 0.5,0.3 0.4,0.9 0.4,1.4 z"
   class="st1" />
<path
   id="path933"
   d="m 150.44,176.90235 c 2.8,1.4 2.9,1.3 5.1,-2 0.9,2.2 0.4,3.8 -1.5,4.6 -1.5,0.8 -2.1,0.4 -3.6,-2.6 z"
   class="st1" />
<path
   id="path935"
   d="m 202.14,206.30235 c 0.7,1.3 0.8,2.6 -0.1,3.7 -0.6,0.9 -1.6,1.4 -2.7,1.2 -1.4,-0.3 -1.7,-1.6 -2.3,-2.9 1.2,0.5 2.1,1.4 3.2,0.7 1,-0.6 1.4,-1.6 1.9,-2.7 z"
   class="st1" />
<path
   id="path937"
   d="m 154.34,164.70235 c -0.2,0 -0.5,-0.1 -0.7,-0.1 -0.6,-0.2 -1.5,-0.4 -1.4,-1 0.1,-0.6 1,-0.5 1.6,-0.5 0.9,0.1 1.4,-0.3 1.4,-1.2 0,-0.5 0,-1 0.6,-1.1 0.7,-0.1 1.1,0.3 1.5,0.8 0.4,0.4 0.4,1 0.1,1.4 -0.7,0.9 -1.8,1.6 -3.1,1.7 z"
   class="st1" />
<path
   id="path939"
   d="m 218.64,246.00235 c -0.8,0.1 -1.3,-0.1 -1.5,-1 -0.1,-0.8 0.1,-1.4 0.9,-1.7 0.4,-0.2 0.8,-0.2 1.2,-0.4 0.7,-0.3 1.4,-0.5 1.8,0.3 0.4,0.8 0.1,2 -0.7,2.4 -0.4,0.3 -1.1,0.4 -1.7,0.4 z"
   class="st1" />
<path
   id="path941"
   d="m 166.74,179.10235 c 1,-0.1 2,0.9 3.1,0.1 0.9,-0.6 1.2,-1.6 1.7,-2.6 1,2 0.6,3.7 -1.2,4.6 -1.5,0.8 -2.4,0.4 -3.6,-2.1 z"
   class="st1" />
<path
   id="path943"
   d="m 73.34,55.50235 c 0,-1.1 0,-2 0,-2.9 0,-0.3 0.1,-0.6 0.3,-0.9 0.4,-0.8 1,-1.4 1.9,-1.5 0.6,-0.1 0.7,0.6 0.9,1 0.3,0.9 0.3,1.7 -0.5,2.4 -0.8,0.7 -1.8,1 -2.6,1.9 z"
   class="st1" />
<path
   id="path945"
   d="m 135.64,43.90235 c 0.6,-1 0.2,-1.8 -0.3,-2.7 -0.4,-0.6 -0.3,-1.2 0.3,-1.5 0.7,-0.3 1.3,0.1 1.5,0.7 0.4,1 0.6,2 0.9,3.1 0.2,0.8 -0.9,1.9 -1.7,1.8 -0.8,0 -0.2,-0.9 -0.7,-1.4 z"
   class="st1" />
<path
   id="path947"
   d="m 151.14,202.80235 c 0,1.4 -1,2.2 -2.4,2 -1.3,-0.2 -1.7,-0.9 -0.9,-2 0.2,-0.3 0.4,-0.7 0.7,-1 0.4,-0.5 0.9,-1.2 1.7,-0.8 0.7,0.3 0.9,1 0.9,1.8 z"
   class="st1" />
<path
   id="path949"
   d="m 192.34,271.90235 c -0.5,0.3 -0.9,0.6 -1.4,0.8 -0.4,0.2 -0.8,0.4 -1.2,0.5 -0.9,0.2 -1.7,-0.2 -2,-0.9 -0.5,-0.9 0.5,-1.4 1,-2 0.5,-0.6 1.2,-0.4 1.8,0 0.5,0.4 1,0.9 1.6,1.1 0.1,0.2 0.4,0.3 0.2,0.5 z"
   class="st1" />
<path
   id="path951"
   d="m 206.54,257.80235 c 0.3,0.8 0.8,1.2 1.7,1.3 0.9,0.1 1.1,0.7 0.5,1.5 -0.6,0.9 -1.7,1 -2.7,1.4 -0.3,0.1 -0.3,-0.2 -0.4,-0.4 -0.8,-1.6 -0.7,-2.1 0.9,-3.8 z"
   class="st1" />
<path
   id="path953"
   d="m 143.54,261.30235 c 0.4,0.7 0.8,1.3 1.1,1.9 0.4,0.8 0.2,1.5 -0.5,2 -0.8,0.5 -1.6,0.1 -2.1,-0.6 -0.5,-0.6 -0.8,-1.4 0,-2 0.4,-0.5 1,-0.9 1.5,-1.3 z"
   class="st1" />
<path
   id="path955"
   d="m 158.44,196.30235 c -1.4,0.2 -1.7,0.9 -1.4,2.1 0.2,0.6 0.1,1.3 -0.8,1.4 -1,0.1 -0.9,-0.6 -1,-1.2 -0.1,-0.7 -0.1,-1.3 0,-2 0.2,-0.8 0.7,-1.3 1.5,-1.4 0.8,-0.2 1.2,0.5 1.7,1.1 z"
   class="st1" />
<path
   id="path957"
   d="m 130.84,78.00235 c 2.7,-1.2 5,-2.9 7.9,-2.7 -2.5,1.2 -4.3,3.9 -7.9,2.7 z"
   class="st1" />
<path
   id="path959"
   d="m 129.44,150.00235 c -0.3,0.6 -0.5,1.2 -1.2,1.5 -0.7,0.3 -1.3,0.1 -1.7,-0.5 -0.4,-0.6 -0.7,-1.3 -1,-2 -0.2,-0.4 0.2,-0.6 0.4,-0.9 0.2,-0.2 0.5,-0.4 0.8,-0.1 0.8,0.6 1.6,1.2 2.3,1.8 0.3,0.1 0.3,0.2 0.4,0.2 z"
   class="st1" />
<path
   id="path961"
   d="m 140.04,257.20235 c 0.1,1.4 -0.7,2.3 -1.8,2.3 -0.3,0 -0.5,0 -0.7,-0.3 -0.3,-0.6 0,-2.6 0.5,-3.1 0.4,-0.4 0.9,-0.6 1.4,-0.5 0.8,0.3 0.3,1.2 0.6,1.6 z"
   class="st1" />
<path
   id="path963"
   d="m 146.34,148.10235 c 0,1.1 -1,2.1 -2.1,1.9 -0.7,-0.1 -1.4,-0.5 -2.1,-0.8 -0.3,-0.1 -0.3,-0.4 -0.2,-0.7 0.1,-0.4 0.3,-0.7 0.7,-0.7 0.4,0 0.9,0.1 1.3,0.1 0.5,0 0.9,0.1 1.4,-0.2 0.2,-0.2 0.3,-0.7 0.7,-0.5 0.3,0.1 0.3,0.6 0.3,0.9 z"
   class="st1" />
<path
   id="path965"
   d="m 125.44,174.70235 c -0.8,0.8 -1.7,1.2 -2.8,1 -1.3,-0.2 -2.5,-1 -3.9,-0.9 -0.5,0 -0.5,-0.5 -0.4,-0.8 0.1,-0.4 0.6,-0.8 0.9,-0.5 1.4,1.2 3.1,0.8 4.7,0.9 0.5,-0.1 1,-0.2 1.5,0.3 z"
   class="st1" />
<path
   id="path967"
   d="m 198.34,183.70235 c 0.5,-1 0.8,-1.8 1.6,-2.5 0.5,-0.4 1,-0.7 1.6,-0.3 0.6,0.4 0.4,1 0.3,1.5 -0.3,1.5 -0.6,1.7 -2.1,1.5 -0.4,-0.1 -0.8,-0.1 -1.4,-0.2 z"
   class="st1" />
<path
   id="path969"
   d="m 123.74,88.30235 c 1.5,-1.7 3.4,-2.5 5.8,-2.8 -1.2,2.2 -3.1,2.9 -5.3,3.1 -0.3,0.1 -0.5,0.2 -0.5,-0.3 z"
   class="st1" />
<path
   id="path971"
   d="m 84.34,113.40235 c -1,-4.2 -0.4,-5.2 2.9,-5.9 -1.9,1.6 -1.5,4.1 -2.9,5.9 z"
   class="st1" />
<path
   id="path973"
   d="m 143.44,191.70235 c 0.4,0 0.9,0.1 1.2,0.6 0.3,0.5 0,0.9 -0.3,1.3 -1.1,1.5 -2.1,1.7 -3,0.8 -0.4,-0.3 -0.4,-0.6 0,-0.9 0.7,-0.6 0.9,-1.8 2.1,-1.8 z"
   class="st1" />
<path
   id="path975"
   d="m 129.24,82.20235 c 2.2,-1.2 4.1,-2.1 6.4,-2.1 -0.6,1.8 -3,2.7 -6.4,2.1 z"
   class="st1" />
<path
   id="path977"
   d="m 166.24,264.50235 c -1,0 -2.1,-0.8 -2.1,-1.5 0,-0.7 0.8,-1.7 1.6,-1.7 0.6,0 1.8,1.5 1.7,2.4 -0.1,0.7 -0.8,0.7 -1.2,0.8 z"
   class="st1" />
<path
   id="path979"
   d="m 151.74,267.30235 c -1.4,0.3 -2.7,0.5 -3.9,-0.5 -0.5,-0.4 -0.8,-0.8 -0.3,-1.5 0.5,-0.7 1,-0.6 1.6,-0.3 1,0.6 1.4,1.8 2.6,2.3 z"
   class="st1" />
<path
   id="path981"
   d="m 120.64,91.60235 c 2,-0.9 4,-1.7 6,-2.6 0.2,-0.1 0.3,-0.2 0.5,0 0.1,0.2 -0.1,0.4 -0.2,0.5 -1.1,1.4 -2.5,2.2 -4.3,2.3 -0.7,0 -1.3,0 -2,0 0,-0.1 0,-0.1 0,-0.2 z"
   class="st1" />
<path
   id="path983"
   d="m 186.34,254.30235 c 0.2,2.2 0,2.5 -3.4,3.8 -0.3,-1.3 0,-1.9 1.1,-2.5 0.4,-0.2 0.8,-0.3 1.2,-0.6 0.3,-0.1 0.7,-0.4 1.1,-0.7 z"
   class="st1" />
<path
   id="path985"
   d="m 170.54,262.80235 c 1.1,0 1.9,0.4 2.3,1.4 0.1,0.3 0.1,0.7 -0.3,0.9 -1,0.4 -1.9,0.1 -2.6,-0.7 -0.3,-0.4 -1,-0.8 -0.8,-1.3 0.3,-0.5 1,-0.2 1.4,-0.3 z"
   class="st1" />
<path
   id="path987"
   d="m 170.84,257.80235 c -0.5,-1.7 0.3,-3.1 1.9,-3.7 0.5,-0.2 0.7,0 0.7,0.4 0.1,0.8 0,1.6 -0.8,2.1 -0.5,0.4 -1.1,0.8 -1.8,1.2 z"
   class="st1" />
<path
   id="path989"
   d="m 109.94,100.00235 c -3.8,2.3 -3.9,2.4 -5.8,2.3 1.4,-1.9 3.7,-2.9 5.8,-2.3 z"
   class="st1" />
<path
   id="path991"
   d="m 145.84,226.60235 c 0.7,-0.1 1.5,0 1.4,1.2 -0.1,0.8 -0.5,1.3 -1.4,1.2 -1,-0.1 -1.6,-0.8 -1.5,-1.9 0.1,-1 0.8,-0.5 1.5,-0.5 z"
   class="st1" />
<path
   id="path993"
   d="m 119.24,94.70235 c -1.1,2.3 -1.7,2.5 -5.1,2 1.3,-1.9 3.4,-1.1 5.1,-2 z"
   class="st1" />
<path
   id="path995"
   d="m 186.54,264.00235 c 0,0.3 -2,2.7 -2.3,2.7 -0.1,0 -0.2,0 -0.3,-0.1 -1.1,-0.5 -1.2,-0.9 -0.3,-1.6 0.6,-0.5 1.2,-0.9 1.8,-1.3 0.5,-0.3 0.9,-0.2 1.1,0.3 z"
   class="st1" />
<path
   id="path997"
   d="m 176.24,255.90235 c 0.4,-1.7 1.2,-2.2 4,-2.1 -0.8,1.7 -2.8,1.6 -3.8,2.9 -0.5,-0.2 -0.2,-0.6 -0.2,-0.8 z"
   class="st1" />
<path
   id="path999"
   d="m 85.44,133.30235 c -0.6,1.3 -0.8,3 -2.6,3.6 0.2,-3.1 0.4,-3.4 2.6,-3.6 z"
   class="st1" />
<path
   id="path1001"
   d="m 118.54,140.50235 c 0.2,-2.4 1.1,-3 3.5,-2.3 -0.7,1.4 -2.2,1.6 -3.5,2.3 z"
   class="st1" />
<path
   id="path1003"
   d="m 147.14,180.50235 c -1.1,0.3 -2.1,0.2 -3.1,-0.3 -0.5,-0.3 -0.8,-0.7 -0.7,-1.3 0.2,-0.7 0.5,-0.8 1,-0.4 1,0.6 1.8,1.3 2.8,2 z"
   class="st1" />
<path
   id="path1005"
   d="m 110.64,173.60235 c -0.5,-0.2 -1.3,0 -1.3,-0.9 0,-0.6 1.1,-1.4 2,-1.4 0.5,0 1.1,0.7 1,1 -0.3,0.7 -0.8,1.3 -1.7,1.3 z"
   class="st1" />
<path
   id="path1007"
   d="m 221.04,236.20235 c -0.1,0 -0.4,0 -0.7,0 -0.3,0 -0.5,-0.2 -0.6,-0.4 -0.1,-0.3 -0.1,-0.8 0.2,-1 0.8,-0.5 1.6,-0.4 2.4,-0.1 0.4,0.1 0.6,0.5 0.5,0.9 -0.1,0.6 -0.6,0.7 -1.1,0.7 -0.1,-0.1 -0.3,-0.1 -0.7,-0.1 z"
   class="st1" />
<path
   id="path1009"
   d="m 162.44,261.60235 c 0,0.6 -0.1,1.3 -0.9,1.1 -0.8,-0.1 -1.5,-0.6 -1.5,-1.6 0,-0.9 0.7,-0.8 1.3,-0.8 0.9,0.1 1.2,0.6 1.1,1.3 z"
   class="st1" />
<path
   id="path1011"
   d="m 177.84,257.70235 c 0.7,-0.8 1.2,-1.8 2.4,-2 0.3,0 0.6,0 0.8,0.1 0.2,0.2 0,0.5 -0.1,0.8 -0.6,1.3 -1.4,1.6 -3.1,1.1 z"
   class="st1" />
<path
   id="path1013"
   d="m 86.24,137.30235 c 0.2,-1.7 0.9,-2.8 2.2,-3.7 0.2,-0.1 0.3,-0.4 0.6,-0.1 0.2,0.2 0,0.4 0,0.5 -0.4,1.5 -1.3,2.4 -2.8,3.3 z"
   class="st1" />
<path
   id="path1015"
   d="m 222.04,226.60235 c -0.4,-0.3 -1.3,0.2 -1.3,-0.5 0,-0.8 0.8,-1.2 1.6,-1.2 0.6,0 1.2,0.2 1.1,0.9 0,0.9 -0.8,0.8 -1.4,0.8 z"
   class="st1" />
<path
   id="path1017"
   d="m 159.14,261.50235 c -2.1,0.5 -2.8,0.2 -3.7,-1.4 1.2,-0.3 2.1,0 3.7,1.4 z"
   class="st1" />
<path
   id="path1019"
   d="m 137.24,176.40235 c 1.4,0.8 2.2,2.1 3.8,2.1 -1.7,1.1 -3.3,0.3 -3.8,-2.1 z"
   class="st1" />
<path
   id="path1021"
   d="m 105.84,163.70235 c 0.6,0 1.1,0.2 1.1,0.8 0,0.7 -0.4,1 -1.1,0.9 -0.6,0 -1.3,-0.1 -1.3,-0.9 0,-0.8 0.8,-0.7 1.3,-0.8 z"
   class="st1" />
<path
   id="path1023"
   d="m 85.24,133.00235 c -0.4,-1.1 0.2,-1.7 1,-2.1 0.3,-0.1 0.8,-0.4 1,0.1 0.3,0.5 0.1,1 -0.3,1.2 -0.5,0.4 -1,0.6 -1.7,0.8 z"
   class="st1" />
<path
   id="path1025"
   d="m 136.64,252.00235 c 0.1,0.9 -0.3,1.2 -0.8,1.2 -0.7,0 -0.9,-0.6 -0.8,-1.2 0,-0.6 0.1,-1.2 0.9,-1.1 0.8,0 0.6,0.8 0.7,1.1 z"
   class="st1" />
<path
   id="path1027"
   d="m 153.84,195.90235 c -0.3,-1 0,-1.7 0.6,-2.3 0.2,-0.2 0.2,-0.8 0.8,-0.5 0.5,0.3 0.5,0.8 0.4,1.2 -0.3,0.9 -1.1,1.1 -1.8,1.6 z"
   class="st1" />
<path
   id="path1029"
   d="m 153.44,204.90235 c -0.7,2.4 -0.7,2.4 -2.3,2.2 1.2,-2 1.2,-2 2.3,-2.2 z"
   class="st1" />
<path
   id="path1031"
   d="m 168.94,250.10235 c -0.4,0.6 -0.9,1.2 -1.3,1.8 -0.2,0.3 -0.4,0.4 -0.8,0.2 -0.3,-0.2 -0.4,-0.4 -0.3,-0.8 0.3,-0.9 0.9,-1.3 2.4,-1.2 z"
   class="st1" />
<path
   id="path1033"
   d="m 110.54,163.70235 c -0.7,0.1 -1.2,-0.1 -1.2,-0.8 0,-0.5 0.2,-0.8 0.7,-0.8 0.7,0.1 1.4,0.4 1.4,1.2 0,0.7 -0.6,0.3 -0.9,0.4 z"
   class="st1" />
<path
   id="path1035"
   d="m 128.94,175.40235 c -0.5,0.4 -0.9,0.8 -1.3,1.1 -0.3,0.3 -0.7,0.4 -1.1,0 -0.3,-0.3 -0.3,-0.7 -0.2,-1.1 0.1,-0.4 0.5,-0.4 0.9,-0.4 0.5,0.1 1,0.2 1.7,0.4 z"
   class="st1" />
<path
   id="path1037"
   d="m 221.94,216.90235 c 0.3,0 0.8,0 0.7,0.5 -0.1,0.6 -0.6,1.1 -1.2,1.1 -0.5,0 -0.8,-0.4 -0.8,-0.8 -0.1,-0.9 0.7,-0.6 1.3,-0.8 z"
   class="st1" />
<path
   id="path1039"
   d="m 176.24,255.90235 c 0.1,0.2 -0.1,0.6 0.2,0.7 -0.1,0.2 -0.2,0.4 -0.4,0.9 0,-0.8 0,-1.2 0.2,-1.6 z"
   class="st1" />
<path
   id="path1041"
   d="m 123.74,88.30235 c 0.1,0.3 0.4,0.2 0.5,0.3 -0.3,0.2 -0.6,0.3 -0.8,0.1 -0.1,0 0.1,-0.3 0.3,-0.4 z"
   class="st1" />
<path
   id="path1043"
   d="m 192.34,271.90235 c -0.1,-0.1 -0.1,-0.3 -0.2,-0.4 0.3,0 0.5,0 0.8,0 -0.1,0.3 -0.4,0.4 -0.6,0.4 z"
   class="st1" />
<path
   id="path1045"
   d="m 217.64,51.20235 c -0.1,1.4 -0.2,2.8 -0.2,4.1 -0.1,5.3 0.3,10.5 0.8,15.8 0.7,7.5 1.4,15 0.6,22.6 -0.1,0.7 -0.2,1.4 -0.3,2.3 -0.9,-0.8 -1.1,-1.8 -1.4,-2.7 -0.5,-1.9 -0.6,-3.8 -0.3,-5.8 0.9,-5.5 0.4,-11.1 -0.6,-16.5 -1.1,-6.3 -1.3,-12.5 0.8,-18.7 0.1,-0.4 0.3,-0.7 0.4,-1 0.1,-0.2 0.1,-0.1 0.2,-0.1 z"
   class="st1" />
<path
   id="path1047"
   d="m 222.44,143.90235 c 3.9,0.9 6.9,2.8 10,5.2 -5.7,-0.6 -10,-4 -15.3,-5.4 5.3,-2.1 10.3,-2.9 15.4,0.4 -3.5,1.1 -6.6,-1.3 -10.1,-0.2 z"
   class="st1" />
<path
   id="path1049"
   d="m 208.24,123.30235 c 2.2,-8.1 6.1,-15.2 8,-23.3 1.2,5.6 -3.6,19.8 -8,23.3 z"
   class="st1" />
<path
   id="path1051"
   d="m 221.44,122.30235 c -0.4,5.2 -3.3,8.6 -6.7,11.7 1.1,-4.4 3.7,-8 6.7,-11.7 z"
   class="st1" />
<path
   id="path1053"
   d="m 217.64,134.80235 c 0.6,-3.2 3.2,-4.6 5,-6.7 0.3,1.3 0,2.3 -0.7,3.2 -0.9,1.2 -2.2,2 -2.8,3.4 -0.3,0.6 -1,-0.1 -1.5,0.1 z"
   class="st1" />
<path
   id="path1055"
   d="m 220.64,139.70235 c 2.7,0 5.1,0 7.6,0 -1.5,1.9 -3.4,2 -7.6,0 z"
   class="st1" />
<path
   id="path1057"
   d="m 34.24,72.40235 c 2.6,-4.3 2.1,-8.6 0.3,-13 -0.6,-1.5 -1,-3.1 -2.1,-4.4 -0.3,-0.4 -0.3,-0.7 0.1,-1 0.4,-0.3 0.9,-0.4 1.3,0 0.1,0.1 0.2,0.2 0.3,0.4 1.2,3.7 3.2,7.2 3.6,11.2 0.2,1.4 0,2.9 -0.3,4.3 -0.3,1.6 -1.3,2.3 -3.2,2.5 z"
   class="st1" />
<path
   id="path1059"
   d="m 59.34,131.60235 c -1.2,-5 0.1,-9.2 2.9,-12.9 -1.2,4.1 -1.8,8.4 -2.9,12.9 z"
   class="st1" />
<path
   id="path1061"
   d="m 56.94,124.10235 c -1.1,-3.2 0.5,-6 4.9,-8.7 -1.7,3 -3.2,5.7 -4.9,8.7 z"
   class="st1" />
<path
   id="path1063"
   d="m 56.54,117.70235 c -0.9,-2.7 1.5,-3.4 2.5,-5.1 0.6,2.1 0.3,2.7 -2.5,5.1 z"
   class="st1" />
<path
   id="path1065"
   d="m 104.54,36.60235 c 0,-1.7 0.8,-2.6 2.2,-2.5 0.8,0 1,0.3 0.5,0.9 -0.5,0.8 -0.6,1.5 -0.2,2.3 0.3,0.5 0.4,1.1 -0.3,1.4 -0.7,0.3 -1.3,0.3 -1.8,-0.4 -0.4,-0.5 -0.4,-1 -0.4,-1.7 z"
   class="st0" />
</g>
</svg>
