<?xml version="1.0" encoding="UTF-8" standalone="no"?>
<svg
   xmlns:dc="http://purl.org/dc/elements/1.1/"
   xmlns:cc="http://creativecommons.org/ns#"
   xmlns:rdf="http://www.w3.org/1999/02/22-rdf-syntax-ns#"
   xmlns:svg="http://www.w3.org/2000/svg"
   xmlns="http://www.w3.org/2000/svg"
   xmlns:sodipodi="http://sodipodi.sourceforge.net/DTD/sodipodi-0.dtd"
   xmlns:inkscape="http://www.inkscape.org/namespaces/inkscape"
   inkscape:version="1.0 (4035a4f, 2020-05-01)"
   height="225.05174"
   width="200.19652"
   sodipodi:docname="squirrel.svg"
   xml:space="preserve"
   viewBox="0 0 200.19652 225.05174"
   y="0px"
   x="0px"
   id="Layer_1"
   version="1.1"><metadata
   id="metadata29653"><rdf:RDF><cc:Work
       rdf:about=""><dc:format>image/svg+xml</dc:format><dc:type
         rdf:resource="http://purl.org/dc/dcmitype/StillImage" /><dc:title></dc:title></cc:Work></rdf:RDF></metadata><defs
   id="defs29651" /><sodipodi:namedview
   inkscape:current-layer="Layer_1"
   inkscape:window-maximized="0"
   inkscape:window-y="25"
   inkscape:window-x="0"
   inkscape:cy="148.86712"
   inkscape:cx="102.8"
   inkscape:zoom="2.52"
   fit-margin-bottom="0"
   fit-margin-right="0"
   fit-margin-left="0"
   fit-margin-top="0"
   showgrid="false"
   id="namedview29649"
   inkscape:window-height="480"
   inkscape:window-width="820"
   inkscape:pageshadow="2"
   inkscape:pageopacity="0"
   guidetolerance="10"
   gridtolerance="10"
   objecttolerance="10"
   borderopacity="1"
   bordercolor="#666666"
   pagecolor="#ffffff" />
<style
   id="style29388"
   type="text/css">
  .st0{fill:#FFFFFF;}
  .st1{fill:#000000;}
</style>
<g
   transform="translate(-47.2,-51.132885)"
   id="g29646">
	<g
   id="g29644">
		<path
   id="path29390"
   d="m 139.1,72 c 3.7,-6.8 10,-9.7 17.2,-10.9 1.7,-0.3 4.6,0.2 5.5,2.4 1.1,2.7 0.3,6 -1.7,7.7 -5.3,4.5 -3.8,11.8 -7.6,16.8 -1.3,1.6 0.3,2.6 0.8,3.4 3.8,6.2 6,12.9 8.2,19.8 2.6,8.6 6.8,16.9 10,25.4 1.4,3.9 3.8,7.4 4.8,11.5 0.2,0.7 0.1,2.9 2.2,2.4 -0.2,2 0.6,3.7 0.8,4.4 -0.3,-0.7 -0.8,-2.5 -0.9,-4.3 -3.3,-7.5 -2.4,-15.5 -2.1,-23.3 0.1,-3.4 1.9,-6.7 3.1,-10 0.8,-2.1 2.4,-4.1 2.6,-6.2 0.8,-7.9 6.3,-12 12,-16.3 4.1,-3.1 9.3,-5.4 10.7,-11.5 2.4,1.8 0.6,4.1 2.3,5.8 3,-3.9 7.7,-4.3 12,-5 5,-0.9 8.9,-3 12,-6.6 2,-2.3 3.6,-1.5 4.6,0.4 1.9,3.8 3.8,7.3 7.6,9.7 2.5,1.6 0.5,4.8 1.8,7.3 2.9,5.5 3,11.5 1.2,17.5 -2,6.2 -7.3,9.8 -11.9,13.7 -8.4,7.1 -10.9,15 -5.7,24.2 1.8,3.3 1.4,5.3 -0.2,8.1 1.6,1.3 3.2,-2 4.7,0.1 0.5,2.2 -2.7,1.9 -3,4.3 2,-1 3.7,-1.8 5.3,-2.6 1,-0.5 1.5,0 2.1,0.6 0.8,0.7 0.3,1.1 -0.2,1.5 -7,5.3 -4.1,12.2 -2.6,18.6 2.1,9.1 6.8,17.7 4,27.5 2.7,0.3 2.9,-2.8 5.5,-2.2 -3.1,4.4 -2.1,9.7 -3.7,14.6 -1.2,3.5 -0.3,7.6 -1.1,11.6 -2.2,11.1 -7.7,20.2 -15.3,28 -4.2,4.3 -10.5,4.6 -16.2,5.5 -12.7,1.9 -25.3,4.5 -38.2,5 -10.8,0.4 -21.7,0.2 -32.5,0.1 -3.4,0 -6.2,0.3 -8.8,3.1 -3.2,3.4 -4.8,2.6 -5.7,-2.1 -1.6,0.7 -3.4,1.2 -4.8,2.2 -2.7,1.7 -3.5,1.3 -3.8,-2 -0.2,-2.8 -2.3,-4.2 -5.3,-3 -0.9,0.4 -0.6,3.1 -2.6,1.4 -1.4,-1.2 -1.2,-2.7 -0.7,-4.1 0.2,-0.7 1,-1.3 2.2,-2.6 -4.5,1.1 -7.1,4.1 -10.7,4.2 -1.2,0 -2.9,0.9 -3.5,-0.7 -0.3,-0.7 0.8,-1.9 1.3,-2.9 -4,-0.8 -7.8,-0.8 -11,3.8 -1.5,-6 2.9,-8.2 5.2,-10.7 2.5,-2.7 6.3,-5 10.5,-2.6 1.4,0.8 2.3,-0.4 3.1,-0.9 1.4,-0.8 3,-1.3 4.2,-0.8 8.1,3.8 16.6,0.9 25.1,2.1 -0.5,-4.5 -4.6,-6.1 -6.7,-9.1 -2.2,-3.2 -3.2,-7 -5.8,-10 -1.9,-2.2 -2.6,-5.8 -6.9,-2.4 0.6,-3.2 1.4,-5 1.2,-7.6 -0.9,-9.4 0.4,-19 3.3,-28 1.9,-5.9 8.3,-7.3 14.3,-8.4 -4.2,-3.6 -7.8,-7.6 -12.2,-10.2 -5.3,-3.1 -11.4,-4.8 -17,-7.6 -8.6,-4.2 -17.7,-7 -25.8,-12.7 -5,-3.5 -12.2,-6.2 -19.3,-3.5 -0.9,0.3 -1.9,0.6 -2.8,-0.7 0.8,-1.4 4.1,-2 2.7,-4.3 -1.9,-3 -5.3,-1.4 -8,-1.9 -0.2,-3.8 3.5,-4 5.8,-5.8 -2.4,-2 -5.1,-0.3 -7.5,-1.5 1.2,-3.3 3.7,-4.6 7.1,-4.5 0.1,0.2 0.2,0.4 0.4,0.6 0.2,0.6 -0.4,1.4 -0.2,1.5 3.4,0.7 6.9,1 9.1,4.3 0,0.5 -0.2,0.9 -0.6,1.2 -1.5,0.8 -3.1,1 -4.8,1.5 3,-0.9 5.7,0.5 8.5,1.3 1.2,0.3 3.1,-0.1 2.8,1.9 -0.2,1.6 -1.9,1.5 -3.2,1.7 -0.6,0.1 -1.3,-0.1 -1.9,0.3 6.3,-2.3 11.8,0 17.2,2.8 2,1.1 2,1.1 1.3,4.2 -0.2,1 0.7,0.9 1.2,1.2 6.2,3.7 13,6 19.4,9 1.2,0.6 2.6,0.7 3.5,1.8 0.3,0.4 0.8,0.6 1,1.1 -0.1,-0.7 -0.9,-1 -1.1,-1.7 0,-0.5 0.2,-0.9 0.6,-1.2 5.2,-0.7 8.8,0.6 9.2,3.4 1.3,-1.1 0.7,-3.9 2.9,-3.8 1.8,0.1 0.5,2.3 1.2,3.2 -0.3,-5 -0.3,-5.1 3.7,-5.1 0.2,0 0.1,-0.2 0.1,-0.3 1.4,-5.7 6.1,-9.9 7.5,-15.6 0.3,-1.1 1.1,-2.4 2.4,-2.2 1.8,0.3 1.2,2 1.3,3.3 0.5,5.7 -1.9,10.6 -5,15.1 -1.8,2.6 -2.7,4.8 -1.4,7.7 0.5,1.2 0.3,2.5 -0.9,4.1 1.6,-2 1.1,-3.6 0.8,-5.2 -0.3,-1.4 -1.5,-3.1 0.3,-4 1.4,-0.7 2.8,0.6 3.9,1.6 1.3,1.1 1.8,2.7 0.5,3.9 -2.7,2.7 -1.4,5.8 -1.3,8.8 0.2,-2.5 -1.6,-5.2 1.2,-7.8 0.8,2.9 4.9,3.4 4.3,7 0.6,0 0.3,-0.5 0.4,-0.8 0.4,-0.6 0.9,-1.1 1.6,-0.7 1.2,0.6 0.6,3.3 3.5,2.3 1.4,-0.5 2.5,3.1 3.5,5 0.3,0.6 0.6,1.7 1.1,1.5 4.6,-1.8 4.9,2.7 6.9,4.6 0.4,0.3 0.7,0.7 1.3,0.7 0.8,-0.5 0.4,-1.5 0.7,-2.2 0.3,-0.9 0.4,-2.1 1.7,-2 1.1,0.1 1.7,1 2.1,1.9 0.6,1.6 1,3.2 1.2,4.8 0.1,1.6 1.9,2.4 1.5,4 0.6,0.3 0.6,0.1 0.6,-0.4 0.1,-1.9 -1.9,-5 1.4,-5.4 2.6,-0.3 2.7,2.9 3.2,4.9 0.7,2.9 0.8,6 0.1,8.9 -0.4,1.8 -1.7,3.1 -3.6,2.6 -2.1,-0.5 -1,-2 -0.7,-3.2 0.1,-0.4 0.9,-0.9 -0.1,-1.3 -6.2,-1.8 -11.1,-5.9 -16.4,-9.3 -11,-6.9 -26,-0.8 -28.4,11.8 -0.4,2.3 -2.1,4.1 -2.5,6.5 2.5,-3.8 1.7,-9.2 6.5,-11.6 1.2,-0.6 2.4,-2.5 3.8,-0.8 1.1,1.3 0.6,2.9 -0.8,3.9 -6.1,4.3 -4.5,11.4 -6.1,17.3 4.5,0.9 1.9,5.8 4.4,7.8 1.6,-1.1 0.2,-2.8 0.8,-4.1 0.5,-1.3 1.3,-2.6 2.8,-2.5 1.8,0 1.8,1.7 1.8,3 0,1.7 -0.1,3.3 -0.6,4.9 -1.3,3.8 1.2,6.3 3,9 0.3,0.4 0.8,1 1.2,0.8 4.4,-2.8 4.5,1.2 5.3,3.5 0.8,2.2 2.7,2.8 4.2,4 0.9,-1.1 -0.3,-3.4 2.1,-3.4 1.5,0 3.3,-0.3 3.9,1.4 1.3,3.8 4,5.4 7.3,5.3 -3.1,-0.9 -5,-3.4 -5.6,-7 -0.2,-1.4 -0.5,-2.8 1.1,-3.5 1.5,-0.6 2,0.9 2.6,1.8 1.3,2 2.6,4.1 4.2,6.3 -0.4,-2.3 -0.4,-4 2.5,-2.9 1.3,0.5 2.4,1.2 3.4,2 1.6,1.3 4.5,2 4.2,4.4 -0.3,1.9 -3.3,1.1 -4.7,2 -5.1,3.3 -10.5,1.2 -15.9,1.5 -10,0.6 -20.3,-0.6 -30,3.3 -1.1,0.4 -2.2,0.5 -3.4,0.5 3.5,1.1 6.2,-1.5 9.3,-2.1 1.1,-0.2 2.4,-1.1 3.1,0.4 0.8,1.5 -0.5,2.1 -1.6,2.5 -2.6,0.9 -3.8,3.8 -6.6,4.4 3,-0.6 4.3,-3.8 7.2,-4.6 1.7,-0.4 4.1,-1.4 3.6,1.7 -0.3,2.5 0.5,-0.1 0.6,0.2 1.9,-1.9 3.8,-1.7 5.7,0 0.4,0.3 0.9,0.6 1.4,0.6 10.1,0.3 20.2,1.1 30,-2 1.1,-0.3 2,-0.7 3.3,-0.5 3.2,0.6 3.7,0 4.1,-2.9 0.4,-2.7 2.4,-1.7 3.8,-0.9 2.1,1.2 3.8,3.3 7.3,3.1 -2.8,-3.8 -4.7,-7.7 -4.7,-12.3 0,-5 1.6,-9.8 1.3,-14.8 0,-0.6 0.8,-1 1.4,-1.3 0.5,-0.1 0.9,0.1 1.2,0.4 2.1,1.6 1.7,-4.3 4,-1.4 1.6,2 0.2,4 -0.9,6 -3.9,7.1 1.9,17.9 8.2,20.2 -5,-2.4 -7.6,-6.6 -9,-11.8 -1.5,-5.8 2.2,-9.7 4.5,-14.2 2,1 1.4,2.6 1.2,3.7 -1,6 1.9,10.4 6.3,13.6 3.1,2.3 -0.5,2.2 -0.7,3.3 2.3,2.6 6,1.7 8.7,3.3 0.4,0.4 0.5,0.9 0.2,1.3 -0.3,0.4 -0.7,0.6 -1.4,1 3.4,-0.1 6.5,-2 9.9,-1 0.6,0.2 1.7,0 1.8,-0.6 1.1,-4.3 5.4,-5 8.3,-7.3 -2,1.1 -3.6,2.9 -6.2,2 -1,-1.9 0.7,-2.6 1.7,-3.5 2.5,-2.1 4.8,-4.4 7.4,-6.5 1.8,-1.4 3.9,-2.8 2.4,-6.1 -1.2,-2.7 3.5,-3.9 2.7,-6.9 0,-0.5 0,-0.9 0.1,-1.4 0.9,-4.6 1.3,-9.3 2.3,-12.1 -0.5,1.8 -1,5.6 -3.1,8.8 -0.5,0.9 -1.4,1.7 -2.4,1.4 -1.1,-0.4 -0.8,-1.6 -0.7,-2.6 0.4,-5.8 1.5,-11.5 3.7,-16.9 1.4,-3.4 1.8,-7 0.9,-10.8 -0.8,3.6 -0.8,3.6 -3.9,1.8 -0.6,-0.4 -0.3,0.5 -0.6,0.7 -2.3,2.2 -2.5,0 -2.5,-1.4 0.1,-3.2 1.4,-6.1 2,-9.2 0.8,-4.7 1.1,-9.3 -3.5,-12.5 -0.3,-0.4 -0.5,-0.8 -0.6,-1.3 -1.7,-3.4 1.4,-4.6 3.1,-6.5 0.4,-0.3 -0.9,-0.6 -0.3,-0.2 0.2,0.1 0.2,0.3 0,0.4 -0.7,0.7 -1.4,2 -2.4,1.5 -2.1,-1 -0.5,-2.9 -0.8,-4 -0.4,0.8 0,2 -0.3,3.1 -0.6,1.9 -2,1.9 -2.8,0.5 -1.4,-2.2 -3.1,-4.7 -2.1,-7.4 2.8,-7 2.3,-14 0.2,-20.9 -0.8,0.4 -1,2.6 -2.6,1.8 -1.5,-0.7 -0.8,-2.3 -0.5,-3.6 0.5,-2.1 1.6,-4 2.1,-5.9 -0.9,2.1 -1.9,4.3 -2.4,6.6 -0.3,1.4 -0.9,2.8 0.6,4.1 1.6,1.3 1.3,3.3 1.2,5.2 -0.1,1.5 -0.4,3.3 -2.1,3.6 -2.1,0.4 -1.8,-1.8 -2.5,-3 -2.3,-4 -1.5,-8.1 -0.4,-12.1 1.9,-6.8 5.5,-12.8 9.9,-18.3 1.2,-1.5 2.7,-3.1 4.6,-1.5 1.5,1.2 -0.2,2.7 -0.9,3.9 -1.2,2.1 -2.6,4.2 -3.1,6.6 0.3,-1.5 1.1,-2.7 2.5,-3.4 5.2,-2.7 8.2,-7.5 11.4,-12.1 0.4,-0.6 -0.3,-0.2 -0.4,-0.2 -3,-0.4 -2.3,-2 -0.9,-3.3 2,-1.9 2.8,-4.5 4.7,-6.5 -0.6,0.5 -1.1,1.1 -1.9,1.4 -0.5,0 -0.9,-0.1 -1.2,-0.5 -0.1,-0.5 -0.2,-1 0.2,-1.4 -4.7,1 -9.7,1.3 -13.3,5.3 -2.5,2.7 -6.6,2.1 -9.6,3.7 -0.6,0.3 -1.4,0.1 -1.7,-0.6 -0.5,-1.1 0.2,-2 0.9,-2.6 3.6,-3 7.6,-5.4 11.8,-7.3 2.5,-1.1 4.9,-2.3 8.2,-2.1 3.4,0.2 4.1,-4.1 4.9,-7.4 -1,2.2 -1.4,4.6 -3,6.3 -0.7,0.8 -1.6,1.9 -3,1.1 -1,-0.6 -0.9,-1.7 -0.8,-2.7 0.1,-1.5 0.9,-2.8 1.6,-4.2 0.1,-0.1 0.2,-0.4 0.2,-0.4 -0.6,-0.4 -0.4,0.5 -0.8,0.5 -0.4,0.2 -0.8,0.3 -1.2,0.1 -2.2,-0.9 -2.1,-3.1 -2.8,-4.9 -0.3,-0.3 -0.5,-0.6 -0.6,-1 -0.2,-0.9 0.8,-2.5 -1.5,-2.1 -2.2,0.4 -4,1.6 -5.7,2.8 -3.5,2.6 -7.2,4.5 -11.4,5.5 -0.4,-0.1 -0.8,-0.3 -1.1,-0.7 -0.4,-1.9 -1.3,-0.8 -2,-0.3 -1.6,1.1 -2.2,3.4 -4.4,3.7 -0.5,-0.1 -0.8,-0.4 -1,-0.8 -0.4,-0.7 -0.6,-1.7 -1.7,-0.8 -4.2,3.3 -7.5,7.5 -10.9,11.5 -1.3,1.6 -3.6,4.3 -0.9,7.1 0.8,0.8 -0.2,2.3 -1,2.4 -5.1,0.3 -4.2,4.7 -5.2,6.9 -0.3,1.3 0.7,0.6 0.1,0.7 -0.1,0 -0.2,-0.2 -0.1,-0.4 1,-1.9 0.2,-6.1 2.9,-5.5 3.1,0.7 1.2,4.3 0.6,6.4 -1.5,5.3 -0.5,10.2 1.3,15.1 0.4,1.2 0.8,2.8 -0.9,3.4 -1.4,0.5 -2,-0.6 -2.5,-1.8 1.1,3.9 2.9,7.6 2.4,12 -0.4,3.5 1.5,6.7 3.4,9.7 0.6,1 1.4,1.8 1.9,2.9 0.4,1 1.2,2.3 -0.1,3.1 -1.1,0.7 -2.2,-0.1 -3.1,-0.9 -1.2,-1.1 -1.9,-2.7 -2.8,-4.1 -0.3,-0.4 -0.5,-0.8 -0.8,-1.2 -1.6,-3.3 -1.7,-7 -3,-10.3 -0.1,-4.7 -1.4,-9.2 -2.3,-13.7 -0.7,-3.5 -2.1,-6.8 1.8,-9.7 -4.3,3 -2.5,6.8 -1.9,10.4 0.8,4.5 1.9,9 2.7,13.6 1.8,15.9 7.4,30.2 17.7,42.7 2.7,3.3 4,7.4 4.3,11.8 -2.2,1.2 -2.8,-0.8 -3.8,-2 -1.9,-2.4 -2.3,-5.5 -3.6,-7.6 1.3,4.9 4.5,9.3 7.9,13.5 3.7,4.7 4.6,10.2 5.3,15.9 0.3,2.3 0.1,4.6 -3,5.9 -0.8,-5.2 0.2,-10.2 -1.9,-14.6 1.1,3.4 1.8,7 1.5,10.8 -0.1,1.1 -0.4,2.5 0.4,3.4 2.3,2.4 1.2,4.5 -0.2,6.8 -1,1.6 -1.5,3.3 -2.4,4.9 -0.4,0.8 -1.6,1.7 -0.6,2.6 1.2,0.9 2.6,0.4 3.6,-0.7 2.1,-2.2 2.1,-5.1 2.9,-7.9 0.2,-0.4 0.4,-0.9 0.6,-1.3 1.7,-2.9 1.9,-6.3 2.8,-9.1 0.2,-1 -0.9,-0.2 -0.3,-0.4 0.2,0 0.3,0.1 0.2,0.4 -0.9,2 -0.2,5.8 -2.5,5.6 -2.8,-0.3 -0.8,-3.6 -0.8,-5.5 0,-3.4 -2.3,-6.8 -0.4,-10.2 1.3,-1.1 0.6,-2.4 0.6,-3.7 0,-1 0,-2.2 1.2,-2.4 1.1,-0.2 1.9,0.6 2.3,1.6 1.3,3 2.9,6.3 3,9.4 0.2,8.8 1,17.9 -4.8,25.8 -3.7,5 -8.4,6.3 -13,3.3 -1,-0.4 2.1,-1.6 -0.4,-1.8 -3.7,-1.2 -5.2,-3.8 -5,-7.6 0.1,-2.2 0.1,-4.3 0,-6.5 0,-2 0.5,-3.9 0.4,-5.8 -0.4,0.8 -0.1,1.8 -0.7,2.6 -0.5,0.6 -1.1,1.4 -2.1,0.9 -0.8,-0.4 -1,-1.4 -0.9,-2.2 0.5,-3.8 0.4,-7.7 1.6,-11.4 0.3,-0.9 0.5,-2.2 1.6,-2.3 1.4,0 1.5,1.5 2.2,2.6 -0.5,-2.1 -1.1,-4.1 -1.2,-6.1 -0.4,-9.8 -4.2,-18.7 -8.1,-27.6 -3,-6.8 -6.9,-13.1 -7.9,-20.8 -0.6,-4.9 -2.9,-9.9 -5.3,-14.4 -4,-7.4 -7.2,-15.2 -10.9,-22.8 -2.3,-4.7 -4.7,-9.9 -5.1,-15.4 -0.4,-5.6 -4.4,-10 -4.6,-15.6 -1.2,2 -2.7,1.2 -3.9,0.4 -2.2,-1.4 -4.1,-3.3 -6.8,-3.9 -1.1,-0.2 -1.4,-1.3 -1.2,-2.4 0.3,-1.4 1.2,-2.2 2.6,-2.8 7.1,-2.9 8.2,-4.6 7.7,-12.6 -0.1,-2.1 1,-3.4 2.4,-4.6 1.6,-1.3 3.5,-2.4 4.4,-4.6 -1.2,-0.2 -1.8,0.5 -2.5,0.7 -0.5,0.1 -0.9,0.1 -1.4,0 -3.5,-1.4 -5.5,1.4 -8,2.7 -2,1 -3.4,3.4 -6.1,2.5 -1.4,0.2 -1.6,0 -1.7,-0.2 z"
   class="st1" />
		<path
   id="path29392"
   d="m 54.1,137.1 c 0.1,-0.9 -0.1,-2.3 0.4,-2.7 2.3,-1.7 11.3,0 12.8,2.5 3.3,5.6 9.3,4.6 14.8,6.4 -1.4,-2.4 -2.7,-3.6 -4.7,-4.8 -2.1,-1.2 -4.7,-2.6 -6,-5.4 -1.4,-3 -4.5,-3.2 -7.7,-3.1 -3.2,0.1 -3,-0.1 -2,-3.2 0.7,-2.2 -1.4,-2.8 -2.8,-3.8 -1.2,-0.9 -3.9,-0.7 -3.2,-2.8 0.6,-1.9 2.9,-0.9 4.4,-1.1 1.4,-0.2 3,0.6 4.3,-0.7 0.3,-2.1 0.8,-3.9 3.4,-2.1 1.7,1.3 4.1,1.4 5.5,3.3 0.7,0.9 1.8,1.9 1.1,3.1 -0.9,1.5 -2.3,0.8 -3.5,0.2 -0.7,-0.4 -1.4,-0.9 -2.3,-1.2 2.8,4.5 7.9,7.4 9.1,13.3 0.6,-1.6 0.3,-4 2,-3.7 2.4,0.5 2.2,3.3 2.6,4.1 0.5,1.8 1.3,1 0.7,1.3 -0.1,0.1 -0.3,-0.1 -0.3,-0.4 0.3,-1.4 -1.9,-2.7 -0.3,-4.1 0.5,-0.4 1.3,0 1.7,0.5 1.1,1.2 0,3 1.2,4 -0.3,-1 -1.3,-2.6 0.1,-3.4 1.4,-0.8 2.4,0.5 3.2,1.6 0.4,0.5 0.5,1.2 0.7,1.8 0.6,1.9 -0.2,4.7 3.6,4.3 1.1,-0.1 1.2,2.5 2.1,3.6 -0.8,-2.4 -2.7,-4.9 -0.4,-8.2 2.2,3 2,6.6 4.3,9.3 1.4,-1.9 0.9,-3.4 0.5,-5 -0.3,-1 -1.3,-2.5 0.5,-2.7 1.3,-0.2 1.8,1.2 1.8,2.5 0,-1.4 -0.5,-3.1 -1.9,-2.8 -1.9,0.4 -0.8,2 -0.4,3.2 0.4,1.4 0.9,2.8 -0.4,4.2 -1.7,-0.4 -1.5,-2.1 -1.8,-3.1 -1.6,-6 -5.7,-9.4 -11.1,-12.1 -4.7,-2.3 -9.7,-4.3 -12.2,-9.7 -1,-2.2 1,-5.3 -2.3,-6.7 0.1,1.4 2.8,2 1.3,3.6 -1.3,1.4 -2.9,0.4 -4.1,-0.4 -2.3,-1.5 -4.6,-3.3 -4.3,1.7 -2.9,-1.5 -4.9,-4.5 -8.2,-5.4 -0.7,-0.2 -1.4,-0.4 -1.1,-1.2 0.3,-1 1,-1.7 2.1,-1.8 2.1,0 4.2,0 6.6,0 -0.9,-2.4 -3.3,-2.2 -4.7,-3.7 4,-3.7 7.6,0 10.6,1.3 3.3,1.4 6.3,3.6 6.5,8.8 0.2,5 4.9,7.8 9.5,9.6 4.5,1.8 8.6,4.3 12.7,6.8 2.7,1.7 6.1,3.1 7.3,-2 0.6,-2.5 2.6,-3.9 4.4,-5.2 2.5,-1.8 6.2,-3.4 5.6,-6.7 -0.7,-4.2 -4.3,-7.1 -8.1,-8.8 -5.9,-2.6 -11.9,-4.7 -15.6,-10.5 -0.9,-1.5 -1.6,-2.8 -0.1,-3.8 2.3,-1.6 2.2,-3.8 2.2,-6.2 0,-9.2 3.4,-17.6 6.6,-26 -1.2,9 -5.7,17.5 -4.1,27 0.4,-7.2 2.4,-14 6.3,-20.7 0.4,4.5 -3.4,7.1 -3.1,11 0.1,2.5 -1.4,4.8 -1.4,6.1 -0.3,-1.3 1.7,-3.6 1.3,-6.2 3.2,-0.9 1.4,-5.5 4.7,-6.2 0,0 -0.1,-0.1 -0.1,-0.1 -1.5,4.7 -2.9,9.4 -4.4,14.1 0.2,0.1 0.5,0.2 0.7,0.3 1.6,-2.9 3.2,-5.7 5.1,-9.2 0.7,2.9 -1.4,4.1 -1.7,6.6 6.2,-4.2 11.9,-7.8 14.2,-15.2 2.2,-7.1 7.8,-12.2 12.4,-17.8 1,-1.3 2.2,-2.9 4.1,-1.8 1.6,0.9 2.6,2.3 2.5,4.5 -0.2,5 0,10 -0.1,15 -0.1,2 0.6,2.2 2.1,1.3 0,0 -0.1,-0.1 -0.1,-0.1 3.1,3.2 -0.2,4 -2,5.4 -0.5,0.1 -1,0.1 -1.4,0 -4,-1.8 -7.9,-0.7 -11.6,0.7 -9.8,3.7 -17.5,10.5 -25.2,17.3 -0.4,0.4 -1.4,0.4 -1.3,1.1 0,0.9 0.7,1.9 0.1,2.8 0.7,-0.4 1.3,-1.2 2.3,-0.7 1.4,2.8 4.4,4 6.4,6 -1.8,-2.1 -4.6,-3 -6,-5.5 -0.7,-4 -0.4,-4.3 3.5,-3 0.3,0.3 0.6,0.6 0.7,1 -0.1,1.7 1.2,2.4 2.3,3.3 3.5,3.3 6.5,7.2 11.2,9 1,0.7 2,1.8 3.3,0.6 5.9,-1 10.1,3 14.8,5.3 1.4,0.7 0.4,2.7 -1.6,2.9 -2.9,0.4 -5,-1.2 -7.5,-2.3 -0.3,1 0.5,1.9 0.5,2.9 0,1.1 0.5,2.6 -1,2.9 -1,0.2 -2,-0.7 -2,-1.8 -0.1,-2.3 -3.7,1.9 -2.8,-1.4 0.6,2.3 0.6,2.3 -2.5,4.6 1.5,1 -4.3,2.4 0.2,3.4 1,0.2 0.5,1.3 0.4,2.1 -0.2,5.2 -2.8,9.1 -6.5,12.4 -0.9,0.8 -1.8,1.9 -3,0.9 -1,-1 -0.2,-2.1 0.5,-3.1 0.8,-1.1 2.1,-1.9 2.6,-3.7 -0.6,1.8 -1.9,2.6 -2.8,3.8 -1.1,1.5 -1.7,3 0.4,4.1 4.5,2.3 4.2,6.5 4.5,10.3 0.3,-0.6 0.2,-1.9 1.6,-1.8 1.1,0.1 1.3,1 1.3,1.8 0.1,1.8 0.5,3.7 -0.6,5.3 -1.6,2.4 -2.6,5 -2.9,7.9 -0.1,1 -0.2,2.3 -1.4,2.3 -1.2,0 -3.5,-0.3 -3.3,-1.4 0.4,-2.7 -2.2,-3.9 -2.4,-6.3 -0.4,-4.4 -2.9,-7.7 -7.5,-8.7 -10.6,-2.4 -20.6,-6.5 -31.2,-8.9 -1.7,-0.4 -4.3,-0.2 -4.4,-3.1 0,-0.1 0.6,-0.6 -0.1,-0.5 -4.4,0.7 -5.4,0.4 -10.6,-3.1 -0.3,-0.1 -0.1,0.1 -0.1,0.1 z"
   class="st1" />
		<path
   id="path29394"
   d="m 104.3,74.3 c -0.5,-3 1.8,-4.8 3.3,-6.9 -0.6,2.5 -1.3,5 -3.4,6.8 0,0 0.1,0.1 0.1,0.1 z"
   class="st1" />
		<path
   id="path29396"
   d="m 104.1,97.1 c -1.6,0 -4.3,-2.5 -3.9,1.8 l 0.1,-0.1 c -1.1,0.5 -2.7,0 -2.5,2.7 -0.5,-1.1 -0.6,-1.4 -0.7,-1.7 -1.5,-3.1 -0.3,-5.8 2.2,-7.3 7.9,-4.8 14.2,-12.2 23.3,-15.1 4.4,-1.4 9.2,-4.7 13.8,0 -0.7,0 -1.3,0.1 -1.8,0.6 0.5,-0.3 1.1,-0.5 1.7,-0.7 1.1,-1.6 4.5,-2.1 2.7,-5.2 3.4,1 4.6,-2.7 7.1,-3.6 1.8,-0.6 3.3,-1.9 5,-2.9 2.1,-1.2 3,-0.2 3.3,1.8 -3.1,1.3 -5.2,3.9 -8.1,5.5 -0.9,0.4 -1.8,1.2 -1.5,2.3 1.3,4 -2.2,5 -4.3,7.3 5,0.7 6.3,-3 7,-6.1 0.9,-4.3 3.4,-7 6.8,-9.2 1.4,-1.9 3.3,-2.9 5.7,-2.6 -0.4,3.5 -2.8,5.6 -5.4,7.3 -2.4,1.5 -4.5,2.6 -1,5.1 0.3,0.2 0.5,1.2 0.5,1.3 -2.7,1.2 -1.2,4.2 -2.6,6 -1.8,2.3 -3.1,5 -6.5,5.3 -0.1,0 -0.3,0.3 -0.4,0.3 -3.7,-2.7 -1.7,2.4 -3.7,2.5 4.7,-1.2 6,3.2 9,4.6 1.7,0.7 1.9,0.5 2.5,-2.1 1.7,4.4 3.4,8.8 5,13.2 1.2,3.3 0.2,7.4 2.7,10.1 2.4,2.7 1.2,6.2 2.9,8.9 2.1,3.5 4.7,6.9 5.9,10.7 1.8,5.6 5.1,10.5 7.1,15.9 0.9,2.5 1.3,5.3 2.9,7.6 2.1,3 0.3,6.7 1.7,9.5 2.5,4.7 4.1,9.7 6.5,14.4 4.7,9.2 8.7,18.5 8.3,29.3 -0.1,2.5 1.9,5.2 0.4,8.9 -0.9,-2.5 -1.5,-4.3 -2.4,-6.8 -0.8,5.9 -1.5,11 -2.3,16.4 3.4,-1.8 0.6,-5.9 3.7,-7.6 0.8,4.7 -0.4,9.2 -0.8,13.8 -0.4,4.5 0.8,7.8 5.1,9.7 0.5,0.4 0.5,0.8 0,1.2 3,2.6 9.1,1.7 11.5,-2.3 2.5,-4.2 5.3,-8.5 4.5,-13.9 -0.4,-2.6 0.6,-5.2 0.8,-7.7 0.5,-5.4 -3.1,-9.9 -4,-15 -1.5,2.6 1.3,4.9 -0.1,7.4 -0.5,-0.5 -1.2,-1.1 -1.8,-1.7 -0.2,-0.2 -0.3,-0.3 -0.5,-0.5 -0.8,-5.4 -1,-11 -4.6,-14.5 0.6,1.3 1.9,3.2 2.9,5.2 0.6,1.2 1.5,2.7 0.3,3.6 -1.5,1.1 -2.2,-0.8 -3.1,-1.6 -0.4,-0.3 -0.6,-0.8 -0.8,-1.3 0,-0.2 -0.1,-0.5 -0.1,-0.7 -1.9,-7.3 -6.8,-12.9 -10.6,-19.2 -5.4,-8.9 -11.4,-17.7 -10.6,-29 0.2,-2.2 -0.8,-4.4 -1.2,-6.6 l -0.1,0.1 c 2.8,2.6 2.1,6.8 4.5,9.6 -1.4,1.2 -1,2.5 -0.6,4 1.2,4.5 3.1,8.6 5.4,12.6 -2.1,-4.1 -4.1,-8.2 -5.3,-12.6 -0.4,-1.5 -0.7,-2.9 0.4,-4.2 2.2,1.6 2.1,5.5 6,5.8 -8.9,-8.4 -6,-20.1 -9,-30.1 1.7,1.1 1,3.9 4.6,4.8 -4.6,-8.5 -4.4,-16.8 -1.5,-25.1 -3,2.2 -2.3,5.6 -4,9.2 -0.2,-6.3 -0.1,-11.4 6.8,-12.6 -0.5,-2 -3.4,1.5 -2.8,-1.6 0.6,-3.3 1.3,-7.5 3.8,-9.1 4.6,-2.8 6.5,-8.1 11.2,-10.7 0.7,-0.4 1.2,-1 2.6,-2.3 -0.5,2.6 -1,4.4 -0.4,6.1 l -0.2,-0.1 V 96 c 2.4,-2.8 4.5,-6 8.3,-7.2 1.5,2.2 -2,2.6 -1.2,4.3 L 210,93 v -0.1 c 5.7,-1.9 10.5,-5.4 15.5,-8.5 1.5,-0.9 3.8,0.5 4.6,-2.1 0.2,-0.6 1.6,0.3 1.3,1.3 -0.4,1.4 -1.1,2.6 -1.7,4 l -0.1,0.1 -0.1,-0.2 c 1.8,0.8 2,-2.2 4.2,-1.4 -0.8,0.9 -1.7,1.7 -2.3,2.6 -1,1.4 -1.2,2.5 1.1,1.5 0,0.8 0.1,1.6 0.1,2.4 -0.1,0.9 -1,1.5 -0.7,2.8 -0.2,-1.3 0.7,-2 0.5,-2.9 2.5,-0.3 0.9,-3.4 2.8,-4.2 2.4,4 -2.5,7.3 -1.2,11.5 3.7,-2.9 3.8,-7.2 5.2,-10.9 3.6,2.9 0.8,6.3 0.1,9 -0.4,1.6 -3.6,3.6 -6.6,2.4 -0.4,-0.2 -1.1,-0.6 -1.3,-0.5 -5.2,4.8 -12.9,5.9 -17.5,11.7 4.4,-2.5 10,-2.1 13.6,-6.6 3.2,-3.9 9.6,-0.3 12.8,-5.2 0.9,2.5 -2.6,3 -1.5,5.1 -1.6,2.2 -3.6,3.8 -6.5,4.1 -4,0.4 -7.1,3.5 -10.9,4.4 -1.1,-0.3 -2.2,-1.1 -3.5,-0.3 0.8,-0.1 1.5,0.1 2.1,0.8 0.4,3.7 -4.3,3.2 -4.5,5.5 5.1,-4.4 10.6,-9.5 18.3,-10.7 2.3,-0.4 3.7,-2.1 4.8,-4 1.9,-0.5 2.6,-2.2 3.8,-3.5 -0.9,4.5 -2.3,8.6 -6.9,11 3.5,2.1 4.1,-2.6 6.8,-2.3 0.1,0.4 0.4,1.2 0.3,1.3 -6.3,4.4 -8,13.4 -16.3,15.9 -2,0.6 0.1,4.8 -3.6,5.4 0.2,-5.3 2.4,-9.5 5.6,-13.5 -6.5,3 -8.6,9.5 -11.5,15.2 -3.3,6.2 -3.9,12.8 -0.2,19.2 2.4,-1.9 1.5,-5.1 1,-7.3 -1.3,-5.4 -1.2,-9 1.7,-13.3 0.3,-0.5 0.6,-1 1,-1.6 2.3,4.8 -3.8,7.9 -2.3,12.5 1.8,-1.3 1.3,-3.9 3,-5.6 3.2,14.2 3.1,14.2 0,25.3 -0.9,3.1 2.6,4.8 2.8,7.7 1.7,-2.4 -0.1,-5.7 2.5,-7.6 1.7,2.5 -1.8,4.8 -0.2,7.2 1.4,-0.8 2.7,-1.6 2.7,-3.6 0,-0.9 -0.2,-2.4 1.3,-1.9 1.1,0.3 0.8,1.7 0.3,2.6 -0.5,1 -1,2.4 -1.8,2.8 -2.6,1.1 -2,3.2 -2.2,5.2 0.1,2.8 -1.8,5.2 -1,8.1 -0.9,-2.9 1.4,-5.4 0.9,-8.2 10.2,6.3 3.9,14.8 2.8,22.5 -0.1,0.6 -0.3,1.2 -0.4,1.9 0,0.1 0.1,0.3 0.3,0.6 1.5,-1 1.5,-2.8 2.5,-4.8 0.2,2.4 0.3,4.1 0.4,6 3.4,-1.6 0.5,-5.8 3.6,-7.5 4.5,11.9 -5.5,21.8 -3.8,33.1 1.6,-1.7 2.5,-4.3 3.3,-7.1 0.8,-2.7 1.1,-5.7 3.6,-7.8 -2.3,6.1 -1.8,12.7 -3.7,18.8 -0.7,0.1 -1.2,0.4 -1.8,0.7 0.6,-0.2 1.1,-0.5 1.7,-0.8 0.7,3 0.8,3.2 -1.2,4.3 -1.3,0.8 -2.1,1.8 -1.7,3.1 0.5,1.6 1.8,-1 2.8,0.3 -3.2,6.9 -10.5,9.8 -15.1,15.2 -0.1,0.2 -0.3,0.4 -0.4,0.6 -3.2,2.4 -7.1,3.2 -10.8,4.3 -0.2,0 -0.5,0 -0.7,-0.1 -4.9,0.3 -9.4,-0.2 -12.4,-5.3 1.8,-0.2 3.3,1 4.9,0 -8.2,-3.6 -7.9,-11 -8.1,-18.3 1.1,4 -3.4,5.3 -3.7,8.8 -0.7,8.7 2.3,13.7 10.7,16.3 -3.3,4 -5.4,2 -7.6,-1.3 -2.2,-3.3 -3.6,-7.1 -5.4,-10.4 -2.2,-4.2 0.6,-5.6 1.4,-8.2 0.6,-2 1.7,-3.9 0.7,-6.3 -0.9,2.3 -1.7,4.4 -2.8,7.1 -1.1,-2.1 -0.9,-3.6 -0.6,-5 0.6,-2.8 1.8,-5.5 2,-8.5 -0.1,3 -1.6,5.6 -1.9,8.6 -1.3,-0.6 -2.4,0.8 -2.2,1.2 2.8,5.2 -1.5,10.1 -0.5,15.4 0.7,3.9 1.5,7.2 4.5,9.9 0.6,0.5 2,0.9 1.1,2.2 -0.6,1.1 -1.7,1.1 -2.6,0.9 -2.3,-0.6 -4.7,-0.9 -6.4,-3.1 -1,-1.2 -2.1,-2.7 -5.1,-1 2.2,1.4 4.2,2.7 6.1,4 -0.2,0.4 -0.4,0.9 -0.6,1.3 -3.3,-1.6 -6.5,-3 -8.6,0.8 -1.9,-0.4 1.1,-4.9 -1.8,-2.4 -4.1,3.6 -8.9,2.8 -12.8,3 -6.5,0.3 -13.1,0.4 -19.6,0.3 -3.1,0 -1.6,-3.8 -4.2,-2.9 -2.2,0.7 -1.9,3.9 -4.5,4 -0.6,0 -1.3,-0.1 -2.4,-0.1 1.4,-1.6 2.6,-2.9 3.9,-4.3 -3.9,-0.5 -4.9,-0.5 -6.7,2.6 -1.7,3 -5.3,0.7 -6.9,3.4 2.5,-4.3 7.6,-5.5 11.3,-9.2 -5.5,-0.6 -9.8,7.4 -15,1.2 7.6,-2.1 15.2,-4.3 22.9,-4 5.7,0.2 11.3,-2.4 17.1,0.1 2.6,1.1 6.1,1.4 8.8,-1.2 1.9,-1.8 4.6,-1.4 8,-1.4 -3.8,-2.6 -6.9,-4.7 -10,-6.8 -1.6,3 2,2.6 2.3,4.2 -4.2,-0.3 -7.2,-3.3 -9.1,-9.1 -1.8,4.2 0.1,6.9 8.1,11.3 -2.8,1.5 -4.8,-0.5 -7,-1.8 -0.6,1.6 1.3,1.9 1.1,3.3 -2.3,-0.4 -3.3,-2.3 -4.6,-3.5 -1.9,-1.8 -0.8,-6.8 -6,-4.4 -0.4,1.3 1.9,2.5 2,4.3 -4,3.1 -3.9,-4.9 -7.6,-2.7 -0.7,-2.6 -1.3,-5.1 -2,-7.7 -2.5,0.6 -0.7,2.7 -1.8,3.6 -8.2,-4.9 -7.6,-12.3 -4.8,-21.5 -2.5,2.3 -4.9,2.6 -3.1,5.4 1.3,1.9 -1.8,3.1 -0.2,5.7 -4.4,-3.3 -4.4,-3.3 -4.8,-10.7 -1.7,0.6 -0.1,2.5 -1.6,3.3 -1.5,-9.6 -0.6,-18.3 7.3,-25.3 -6,3.1 -9.2,7.5 -8.8,14 0,0.5 -0.2,2.6 -1.8,2.4 -1.4,-0.2 -1.1,-1.6 -0.9,-2.4 1.5,-5.6 1.9,-11.9 5,-16.4 3.6,-5.2 10.2,-6.7 16.8,-7.2 5.3,-0.4 9.1,1.7 13.1,4.4 3.4,2.3 7.4,3.9 10.8,6.2 2.4,1.7 2.1,2 4.1,-0.5 -0.1,2.3 1,4.2 -0.8,6 -1.4,1.4 0.5,1 0.7,0.9 1.5,-0.2 2.3,-1.2 2.2,-2.7 -0.3,-2.9 0.9,-5.9 -0.8,-8.7 -0.8,-1.3 0.6,-4.4 -2.1,-3.8 -1.7,0.4 -0.2,2.9 0.4,4.1 1,2 0.7,3.3 -1.4,3.5 -1.2,0.1 -1.6,-1.4 -2,-2.7 -0.9,-3.5 -2,-6.9 -3.8,-10.2 -0.1,1.2 -0.1,2.3 -0.2,3.5 -0.1,1.1 2,2.1 0.5,3 -1.5,0.9 -2.5,-1 -3.8,-1.4 -2.9,-0.9 -0.9,-5.7 -4.2,-5.3 -6.3,0.8 -4.7,-5.9 -8.1,-7.8 -1.4,1.5 1.7,2.8 0.1,4.3 -1.5,-1.8 -2.3,-4 -3,-6.4 -1.4,2.1 0.2,3.6 0.4,5.6 -3.5,-1.6 -2.8,-4.7 -3.1,-7.4 -1.3,0.3 -0.5,1.5 -1.1,2.1 -2.2,-1 -1.6,-3.3 -2.3,-5 -0.5,3.5 -1.3,7 1.6,10 -3.9,-2.3 -5.4,-5.7 -3.1,-9.8 2.4,-4.2 1,-5.9 -3,-7.4 0.6,4 2.7,8.1 -1.9,11.2 3.8,-4.6 -1.4,-10.4 3,-15.1 4.3,-4.7 4.2,-11 4.4,-17.2 -1.9,8.1 -8.2,13.9 -10.7,21.6 -2,-1.6 0.9,-2.9 0.1,-4.3 -5.4,1.6 0.4,7.5 -4.1,10 0,-2.6 0,-4.7 0,-7 -1.5,1.9 -2.6,3.9 -2.8,6.4 -0.4,-0.1 -0.7,-0.2 -0.7,-0.3 -1.3,-4.2 -3.6,-5.5 -9.2,-5.4 -0.3,-0.4 -0.9,-0.5 -1.1,-0.9 -0.9,-1.5 -1.6,-1.1 -2.4,0 -0.3,-0.3 -1,-0.3 -1,-0.9 -0.2,0.7 0.6,0.4 0.8,0.8 1.3,0 2.6,-0.1 3.7,0.8 0.2,2.9 4.1,1.1 4.7,3.8 -4,0.6 -6.8,-2.4 -9.8,-3.7 -6.9,-3.1 -14.8,-4.6 -20.4,-10.2 -0.6,-0.6 -2.8,-0.3 -1.9,-1.8 1.3,-2.1 1.8,0.8 2.9,0.9 0.3,0 0.6,0 1.1,0 -0.7,-3.7 -4.6,-3.2 -6.7,-4.6 -3.9,-2.5 -9,-2.1 -13.7,-0.9 -1.2,0.3 -2.7,1.4 -3,-0.5 -0.2,-1.4 1.4,-1.9 2.9,-2 2,-0.1 4.2,0.7 6.4,-0.9 -5.4,-0.6 -9.9,-3 -15.1,-2.2 2.7,-1.3 5.1,-3.6 8.3,-2.5 1.1,0.1 2.2,0.3 3.4,0.1 -1.2,0.2 -2.3,-0.2 -3.5,0 -2.5,-3.6 -3.1,-3.8 -6.3,-1.8 2.4,-7.4 -4.1,-0.2 -4.5,-3.4 0.5,-0.6 3.2,0.1 2.2,-2.3 2.5,0.9 5.5,0.6 7,3.5 0.5,0.8 1.6,0.8 2.3,0.5 1.5,-0.6 0.5,-1.4 0,-2.3 -0.6,-1.2 0.5,-1.7 1.9,-3.1 -1,2.3 3.2,2.9 0.1,5.2 -0.7,0.5 0.5,1.1 1.4,1.3 12.1,2.4 23.6,7.4 35.7,9.8 3.4,0.7 3,3.4 4.7,4.7 1.8,1.4 4.1,2.7 1.7,5.4 3.5,0.9 1.2,5.6 4.5,6.7 0.1,0 0.3,0.2 1,0.8 -2.4,-6.7 4.9,-11 3,-17.4 -2.3,1.1 -0.2,3.4 -2,5.2 0.1,-4.2 -2.7,-7.6 -1.4,-11.8 -0.7,0.9 -1.4,1.7 -2.2,2.8 0.9,-4 -7,-7.9 0.4,-11.5 0.8,-0.4 1.6,-1.2 0.3,-2.2 -0.7,-0.5 -1.3,-1.2 -0.2,-1.8 1.8,-1.1 1.1,1 1.6,1.4 1.1,1.1 0.6,2.3 -0.5,3.4 -1.1,1.2 -1.9,2.7 -2.6,4.2 5.3,-3.4 8.1,-8.4 8.2,-15 -0.8,-0.4 -2.3,0.9 -4.9,1.4 2.2,-2.9 5.6,-4.2 5.9,-7.8 0.2,1.1 0.4,2.3 0.7,3.6 3.4,-2.3 -1.2,-5.4 1.1,-7.6 1.4,0.7 0,2.4 0.8,3.2 3.1,-0.3 -0.6,-3.1 1.9,-3.6 2.1,1.3 -0.6,4.7 2.6,5.8 -0.4,-2.6 -0.9,-5 -1.3,-7.5 3.1,1 5.7,3 9.1,3 0.8,0 1.4,0.7 1.4,-0.6 0,-0.6 0.5,-1.5 -1.2,-1.1 -2.3,0.5 -3.9,-2.1 -5.9,-2.6 -2.6,-0.7 -4.8,-3.4 -8,-2 -0.2,0 -0.5,-0.1 -0.7,-0.1 -1.3,-0.8 -2.8,-1.8 -2.3,-3.3 0.8,-2.4 3.3,1.1 4.6,-0.9 5,-0.5 9.5,1.2 13.7,3.4 2.9,1.6 4.9,1.2 7,-0.9 2.1,-2.1 4,-2.3 5.2,1 1.1,-2.5 0.4,-3.5 -2.3,-3.1 -0.9,0.2 -2.1,0.6 -2.5,-0.8 -0.2,-0.7 0.3,-1.2 0.8,-1.6 0.2,-0.2 0.9,0.7 0.7,-0.6 -0.3,-1.8 -1.6,-1.2 -2.4,-1.3 -0.7,-0.1 0.2,0.4 0.1,0.7 -2,6.8 -3.8,7.7 -10.7,4.9 -3.4,-1.4 -6.7,-2.5 -10.4,-1.3 -3.8,-1.1 -7.1,-3.2 -10.6,-4.7 -1.5,-0.7 -2.8,-1.7 -4.6,-1.4 -0.2,0 -0.4,0 -0.7,0 -1.1,-1.1 -5.5,-0.5 -2.1,-4 1,-1.1 2.3,-0.8 3.8,-0.6 -0.9,-0.6 -2.1,-0.9 -3,0.4 z"
   class="st0" />
		<path
   id="path29398"
   d="m 209.9,216.9 c 0,5.3 2.4,10.6 0.9,16.1 1.6,-3 2.5,-6.1 2.1,-10.6 2.2,4.7 0.1,7.9 -0.2,11.2 -0.1,1.1 2.3,4 -1.7,3.3 -3.3,0 -1.9,3.6 -3.2,4.3 1.1,-0.8 0.3,-4.1 3.3,-4.4 -0.5,2.5 -0.7,5.1 -1.4,7.6 -0.7,2.5 -2.2,4.4 -5.4,3.7 -1.4,-0.3 -3.3,0.5 -4,-1.2 -0.5,-1.4 1.8,-1.9 2.1,-3 1.2,-4.3 5.5,-7.1 3.8,-13.1 -1.5,-5.2 -0.6,-11.1 -3.1,-16.4 4.6,5 3.4,11.2 4.2,17.1 2.7,-6.3 0.9,-12.4 -2.4,-17.7 -3.9,-6.3 -8.1,-12.4 -10.8,-20.3 5.3,3.6 4.7,10.8 9.9,13.6 0,0 -0.1,-0.2 -0.1,-0.2 2.5,3.1 4.6,6.5 6.1,10.1 z"
   class="st0" />
		<path
   id="path29400"
   d="m 198.7,212.3 c 5.7,9.7 4.8,19.1 2.3,28.6 -0.5,2.1 -2.4,1.9 -3.6,3 -0.2,-1.4 -1.1,-2.4 -0.9,-4.3 0.9,-8.8 2.9,-17.5 2.2,-27.3 z"
   class="st0" />
		<path
   id="path29402"
   d="m 219.9,254.1 c 3.9,-0.1 6.4,-3.2 10,-5.7 -1.6,4.1 -4.9,5.2 -7.1,7.3 -1.1,1.1 -4.7,0.5 -2.3,4.1 0.7,1 -3.6,2 -3.8,1.9 -3.8,-2.4 -7.2,1.2 -10.8,0.4 -1,-0.2 -1.9,-0.3 -2.6,-1.4 1.1,-1.7 3.9,0.7 4.7,-1.7 l -0.2,0.1 c 4,-2 8.6,-2.3 12.2,-5.1 z"
   class="st0" />
		<path
   id="path29404"
   d="m 121.8,258.4 c -9.1,-2.1 -15.7,3.7 -23.3,6.7 2,-3.2 5.4,-4.1 8,-6 0.6,-2.1 -2.6,-1.7 -2,-2.8 1.4,-2.4 2.1,0.8 3.4,0.8 4.5,-0.1 8.9,0 13.4,0 0.2,0.3 0.3,0.8 0.5,1.3 z"
   class="st0" />
		<path
   id="path29406"
   d="m 181.7,152.3 c -0.8,-6 -3.9,-11.4 -3.9,-17.8 0,-3.5 2.9,-5.8 2.6,-7.8 -0.2,0.8 3.6,3.7 -1.2,5.1 -0.4,0.1 -0.3,2.1 0.3,3.2 3,5.5 2.8,11.4 2.1,17.4 0,0 0.1,-0.1 0.1,-0.1 z"
   class="st0" />
		<path
   id="path29408"
   d="m 103.5,258.4 c -3.6,1.3 -7,4.2 -11.4,2.7 3.7,-1 7.1,-3.6 11.4,-2.7 z"
   class="st0" />
		<path
   id="path29410"
   d="m 113.3,261.5 c 0.9,-2.1 2.6,-1.4 4.4,-1.5 -1.8,1.8 -1.8,1.8 -4.4,1.5 z"
   class="st0" />
		<path
   id="path29412"
   d="m 178.3,150.7 c 0.8,2.2 2.2,4.2 1.5,7 -1.3,-2.4 -2.5,-4.5 -1.4,-7.1 0,0 -0.1,0.1 -0.1,0.1 z"
   class="st0" />
		<path
   id="path29414"
   d="m 107.9,266.8 c 1,-1.5 1.9,-2.2 3.7,-1.6 -1,0.9 -1.7,1.8 -3.7,1.6 z"
   class="st0" />
		<path
   id="path29416"
   d="m 199,250.1 c 0,-0.4 0,-0.8 0,-1.2 1.4,0.1 3,-0.1 3.8,1.6 -1.4,1.5 -2.4,-1.4 -3.8,-0.4 z"
   class="st0" />
		<path
   id="path29418"
   d="m 64.4,118.4 c 0.2,-1.4 -2.3,-2.5 -0.7,-4 2.1,-1.9 3.1,0.5 4.7,1.3 1.3,0.6 2.6,2.2 4.4,1 -0.8,-1.9 -2.9,-1.9 -4.6,-3.1 0.8,-1 1.6,-2.6 3,-2.3 1.3,0.2 2.9,1.5 2.7,3.1 -1,9.9 7.1,11.4 13.3,14.9 2.4,1.4 5.9,1.5 6.1,6 0.1,2.4 1.5,-0.4 2.6,-0.8 -0.3,3.8 1.5,7 2.6,10.8 1.3,-3.8 -1.6,-6.6 -1.2,-9.9 5.6,0.6 4.3,5.2 5.2,9 -3,-1.2 0.1,-5.2 -3.4,-5.8 1.4,2.7 -0.1,6 3.2,8.7 -7.3,-0.3 -5.4,-6.4 -8.2,-9.8 -0.6,4 2.3,7.1 2.3,10.8 -2.4,-0.6 -1.7,-3.5 -3.3,-4.3 -1.4,-0.7 0.5,-2.7 -1.3,-2.6 -1.6,0.1 0.1,2.3 -1.5,2.6 -3.4,-2.6 -0.5,-8.2 -4.9,-10.5 -1.6,2.8 2.4,4.5 1.4,7.2 -3.1,-1.9 -1.8,-6 -4.8,-8.7 0.5,3 1.7,5.5 0.3,8.6 -0.2,-3.6 -0.9,-6.4 -3.2,-9.3 0.6,1.7 -1.6,2.6 0.1,4.3 1,1 -0.9,0.8 -1.3,0.7 -1.4,-0.5 -3,-1.6 -2.9,-3 0.4,-2.9 -0.8,-3.6 -3.3,-3.7 -0.9,0 -3.2,-0.6 -0.9,-2.2 0.9,-0.6 0.8,-0.9 -0.1,-1.1 -4.2,-0.9 -3.8,-4.6 -5.1,-8 2.8,2 5.2,3.6 8.1,5.6 -1,-2.9 -6.3,-7.6 -8,-7.5 -1.3,0.1 -0.7,1.8 -1.6,2.2 0.2,-0.3 0.3,-0.2 0.3,-0.2 z"
   class="st0" />
		<path
   id="path29420"
   d="m 117.7,77.4 c 3.6,-8.8 7.5,-16.1 14.1,-21.6 0.7,-0.5 1,-1.9 2.3,-1.2 1,0.6 1.2,1.6 0.9,2.6 -1.2,4.7 -1.4,9.3 0,13.9 0.3,1.1 -0.1,2 -1.5,1.9 -5.5,-0.4 -10.2,2.1 -15.8,4.4 z"
   class="st0" />
		<path
   id="path29422"
   d="m 118.1,109.9 c -6.2,0 -8.6,-5.2 -12,-9 0,0 -0.1,0.1 -0.1,0.1 0.8,-0.8 2.1,-1 2.7,-0.4 3.1,3 7.6,4.3 9.5,8.5 0,0.3 -0.1,0.6 -0.1,0.8 z"
   class="st0" />
		<path
   id="path29424"
   d="m 59.9,121.8 c 8.3,-4.2 4,5.2 7.9,5.6 -3.8,0.5 -4,0.5 -4,-2.8 0.1,-2.7 -1.8,-2.5 -3.9,-2.8 z"
   class="st0" />
		<path
   id="path29426"
   d="m 100.1,98.8 c 3.3,2.4 6.7,4.8 8.6,8.6 -2.4,-3.4 -8.3,-3.3 -8.5,-8.8 0.1,0.1 -0.1,0.2 -0.1,0.2 z"
   class="st0" />
		<path
   id="path29428"
   d="m 99.6,80.6 c 1.7,3.2 -1.8,5.8 -0.8,8.9 -1.5,-3.1 -0.2,-5.9 0.9,-8.8 0,0 -0.1,-0.1 -0.1,-0.1 z"
   class="st0" />
		<path
   id="path29430"
   d="m 111.3,160.2 c -0.5,-2.2 0.6,-2.8 1.7,-3.1 0.2,-0.1 0.9,0.5 0.9,0.8 -0.1,1.8 -1.9,0.8 -2.6,2.3 z"
   class="st0" />
		<path
   id="path29432"
   d="m 120.9,110.9 c -0.1,0.6 0.4,2 -0.6,1.7 -1,-0.3 -3,-0.6 -2.2,-2.7 0,0 -0.1,0.1 -0.1,0.1 1.4,-0.8 2.1,0.5 3.1,1 z"
   class="st0" />
		<path
   id="path29434"
   d="m 122.5,107.5 c 0,-0.7 -1.5,-1.5 0.8,-2 5.7,-1.1 10,3.7 15.6,2.8 0.8,-0.1 2,1.7 1.5,-0.9 -0.3,-1.6 2.8,-3.1 0.2,-5.4 2.3,-0.5 5,0.5 7.2,-1.6 0.7,3.2 -1.9,1.8 -2.3,3.2 1.1,0.2 2.2,0.4 3.4,0.6 -1.5,1.5 -3.7,-0.3 -5.2,2 2.9,0 5.4,0 7.7,0 -3.8,-0.5 1,3.7 -2,4 1,2.3 -0.7,1.8 -1.7,1.4 -0.4,-0.1 -2.9,-1 -0.1,-2 1,-0.3 -0.2,-1 -0.5,-1.3 -0.3,-0.3 -1.1,-0.5 -1.3,-0.4 -0.4,0.4 -0.5,1.2 -0.9,1.6 -2.6,2.1 -4.7,5.1 -8.8,1.4 -3.8,-3 -8.8,-3.6 -13.6,-3.4 H 122 Z"
   class="st1" />
		<path
   id="path29436"
   d="m 117.8,92.8 c -0.1,-1.1 -1.2,-0.9 -1.8,-1.3 -1.6,-1 -4.9,-0.2 -4.6,-3 0.3,-2.5 2.4,-4.4 4.9,-5.7 3.4,-1.7 6.7,-0.9 10.1,-0.4 -2.4,0.5 -4.8,1.2 -7.2,1.4 -3.1,0.3 -4.3,2.2 -5.5,5.2 4.3,-2.9 4.3,-2.9 15.4,-3.9 -2.2,1.8 -4.1,3 -4.9,5.7 -0.6,2 -3.9,2.7 -6.5,1.7 z"
   class="st1" />
		<path
   id="path29438"
   d="m 154.2,67.1 c -2,2.4 -5.9,5.3 -5.5,7.2 0.9,3.7 -1.6,5.2 -2.8,7.5 -1,1.9 -2.6,4.6 -5.4,1.4 -0.5,-0.6 -2.1,-0.4 -4.4,-0.7 4.8,-0.7 6.3,-3.9 9.2,-6.3 -2.7,0 -3.9,-1.3 -2,-2.8 3.2,-2.7 6.7,-5.4 11,-6.2 0,0.1 -0.1,-0.1 -0.1,-0.1 z"
   class="st1" />
		<path
   id="path29440"
   d="m 183.2,231.3 c 0,-7.7 0,-14.4 0,-22 4.2,6.6 4.2,15.5 0,22 z"
   class="st1" />
		<path
   id="path29442"
   d="m 178.2,176.1 c 2,4.8 4.5,9.4 5.2,14.6 0.4,2.9 3,0.6 4.4,1.4 -1,2 -0.7,4.4 -3.2,6.1 -2,-5.6 -4.8,-10.6 -5.7,-16.4 -0.2,-1.5 -1.6,-2.7 -2.4,-4.1 -1.4,-2.2 0.5,-1.9 1.8,-1.6 z"
   class="st1" />
		<path
   id="path29444"
   d="m 221,112.9 c 6,-2.5 12.5,-4.3 18.1,-7.8 0,0 -0.1,-0.1 -0.1,-0.1 0.3,3 -2.3,4.3 -4.2,4.6 -8.5,1.3 -13.9,7.1 -20,12.2 -0.5,0.4 -1,0.9 -1.5,1.2 -0.2,0.1 -0.6,-0.1 -1.1,-0.2 2,-3.4 6,-5.1 7.7,-8.7 0.1,-0.7 0.5,-1.1 1.1,-1.2 z"
   class="st1" />
		<path
   id="path29446"
   d="m 121.1,111.1 c -1,-0.3 -2.1,-0.7 -3.1,-1 -3.4,-3.8 -7,-7.4 -12,-9 0.5,-2.6 3.5,-1.9 3.8,-1.5 3.4,4.1 9.8,3.4 12.7,8 0,0 0,0 0,0 -1.4,1.1 -2.6,-0.1 -3.9,-0.8 -0.2,2.3 2.2,2.6 2.5,4.3 z"
   class="st1" />
		<path
   id="path29448"
   d="m 197.4,114.5 c 3.2,-4.8 6.4,-9.5 9.5,-14.3 0.3,-0.5 0.4,-1.3 1.2,-1.1 1.2,0.3 0.9,1.1 0.4,1.9 -1.7,2.7 -3.1,5.8 -5.2,8.1 -4,4.2 -5.5,9.3 -6.3,14.8 -0.1,0.9 0.3,2.4 -1.2,2 -1.2,-0.3 -0.8,-1.5 -0.5,-2.5 0.7,-3 1.4,-6 2.1,-8.9 0.1,0 0,0 0,0 z"
   class="st1" />
		<path
   id="path29450"
   d="m 198.5,151.6 c -3.7,-9.6 -3,-18.8 2.7,-27.5 -3.7,8.9 -4,18.1 -2.7,27.5 z"
   class="st1" />
		<path
   id="path29452"
   d="m 197.5,114.5 c -4.2,6.3 -5.3,13.3 -4.7,20.7 0.1,1.7 0.7,3.3 -1.2,5.9 -1.2,-9.9 -0.9,-18.3 3.4,-26.2 0.8,-1.4 1.5,-0.7 2.5,-0.4 -0.1,0 0,0 0,0 z"
   class="st1" />
		<path
   id="path29454"
   d="m 210.1,217.1 c -0.6,0.2 -1.2,0.3 -1.7,0.5 0.2,-4.2 -3.8,-6.8 -4.4,-10.7 1.5,0.9 3,1.9 3.7,3.7 0.1,-4.9 -4.5,-7.8 -5.1,-12.4 4.5,3.5 7.3,10.3 7.5,18.9 z"
   class="st1" />
		<path
   id="path29456"
   d="m 148.6,178.6 c 1,-1.1 -0.4,-2.8 2.2,-4 -3.9,8.6 6.2,11.9 5.3,18.8 -2.6,-1 -7.2,-8.8 -9.7,-17.1 2.5,-0.9 1,1.8 2.2,2.3 z"
   class="st1" />
		<path
   id="path29458"
   d="m 215.6,124.4 c -1.4,3.7 -4.1,5.2 -3.5,8.2 2.3,-0.1 1.5,-3.1 4.5,-3.5 -3.6,5.1 -5.5,10.3 -7.5,15.5 2,-6.4 -1.5,-14.3 6.5,-20.2 z"
   class="st1" />
		<path
   id="path29460"
   d="m 185.9,161.9 c 0.5,7.4 4.2,13.5 8.1,20.1 -2.3,0 -3.2,-1.5 -4,-2.7 -2.7,-4.3 -4.5,-9.1 -5.9,-13.9 -0.4,-1.2 -1.1,-3.6 1.9,-3.2 0.1,-0.1 -0.1,-0.3 -0.1,-0.3 z"
   class="st1" />
		<path
   id="path29462"
   d="m 124.3,233.6 c 0.1,-4.7 -0.7,-9.2 -2.6,-13.5 -1.5,-3.4 1.4,-5.7 4,-7.8 -0.6,1.2 -1.2,2.4 -1.7,3.6 -1.3,2.8 -1.3,2.7 1.5,4.6 0.4,0.2 0.4,1 0.4,1.6 0.6,4 -1.2,7.6 -1.6,11.5 z"
   class="st1" />
		<path
   id="path29464"
   d="m 172.9,223.1 c -2.9,-1.1 -2.5,-5.4 -2.3,-5.8 1.8,-2.9 1.1,-6.1 2,-9.1 1.6,4.9 2.6,9.9 0.1,15 z"
   class="st1" />
		<path
   id="path29466"
   d="m 222.5,195.5 c 1.9,6 3.1,12.1 1.5,18.5 -0.3,-6.3 -2.8,-12.2 -1.5,-18.5 z"
   class="st1" />
		<path
   id="path29468"
   d="m 224.3,223.7 c 1.4,-6 2.3,-12.1 3.2,-18.2 1.3,6.4 0.6,12.6 -3.2,18.2 z"
   class="st1" />
		<path
   id="path29470"
   d="m 174,164.9 c -0.7,-1.8 -2.3,-2.6 -3.9,-3.4 0.6,-0.8 -4.7,-1.5 0,-2.8 1.6,-0.5 -2.2,-1.6 -1.7,-3.2 3.7,1.1 7.1,6.3 6.7,10.6 -1,0.2 -1.4,-0.2 -1.1,-1.2 z"
   class="st1" />
		<path
   id="path29472"
   d="m 167.2,252.9 c 2.8,0.4 0,-3.9 2.3,-2.6 1.7,0.9 4.9,0.4 5,3.7 0.1,1.5 -1,2.4 -1.8,1.8 -1.7,-1.1 -4.3,-0.4 -5.5,-2.9 z"
   class="st1" />
		<path
   id="path29474"
   d="m 201.9,186.5 c -2.5,-1.7 -8.4,-12.2 -8.5,-14.6 3.9,4.4 5.4,9.9 8.5,14.6 z"
   class="st1" />
		<path
   id="path29476"
   d="m 170,202.1 c 0.9,3.9 1.9,7.8 -0.9,12.2 0,-4.6 -0.5,-8.5 0.9,-12.2 z"
   class="st1" />
		<path
   id="path29478"
   d="m 138.4,124.3 c -4.1,1.3 -7.5,4.8 -12.3,4.6 3.5,-3.6 7.8,-4.3 12.3,-4.6 z"
   class="st1" />
		<path
   id="path29480"
   d="m 219.6,156.4 c -1,4.4 -0.2,9 -2.3,13.5 -0.7,-5 -0.4,-9.5 2.3,-13.5 z"
   class="st1" />
		<path
   id="path29482"
   d="m 204.4,161.9 c -3.2,-4.3 -1.3,-8.5 -0.6,-12.8 0.5,4.3 -0.8,8.6 0.6,12.8 z"
   class="st1" />
		<path
   id="path29484"
   d="m 227.4,193.6 c 1.4,-4.7 0.2,-9.3 0.7,-13.8 2,2.3 1.6,10.6 -0.7,13.8 z"
   class="st1" />
		<path
   id="path29486"
   d="m 93.6,163.4 c -2.6,-1.5 -7.2,0.2 -7.4,-4.9 0.6,2.4 2.9,1.6 4.3,2 2.2,0.7 2.3,0.3 3.1,2.9 z"
   class="st1" />
		<path
   id="path29488"
   d="m 218.7,216.9 c -1.1,-5.4 -1.8,-9.5 -1.9,-14.9 2.3,5 2.5,9.2 1.9,14.9 z"
   class="st1" />
		<path
   id="path29490"
   d="m 117.7,92.7 c 1.4,2.7 4,0.5 6.4,1.8 -2.6,-0.1 -1.7,3.6 -3.7,3 -1.9,-0.5 -2.7,-3.3 -5,-3.8 0.6,-1.3 1.8,-0.4 2.5,-0.9 -0.1,0 -0.2,-0.1 -0.2,-0.1 z"
   class="st1" />
		<path
   id="path29492"
   d="m 174,164.9 c 0.4,0.4 0.8,0.8 1.2,1.2 0.1,1.5 2.5,2 1.8,3.8 -1.8,0.9 -3,-0.8 -4.4,-1.3 -0.6,-0.4 -1,-0.9 -0.6,-1.7 -0.3,-2.1 -3.1,-1.5 -3.7,-3.6 2.2,-0.8 3.5,2.3 5.7,1.6 z"
   class="st1" />
		<path
   id="path29494"
   d="m 227.9,221.9 c -0.5,6.1 -1.8,8.6 -5.8,11.3 2.1,-4.1 4.6,-7.4 5.8,-11.3 z"
   class="st1" />
		<path
   id="path29496"
   d="m 146.8,241.1 c 2.1,2.7 2.4,6.2 4,9.2 -2.9,-2.4 -4.8,-5.2 -4,-9.2 z"
   class="st1" />
		<path
   id="path29498"
   d="m 136,162.9 c -0.9,-2.9 -1.9,-5.8 0.9,-9.6 0.1,4 0.5,6.8 -0.9,9.6 z"
   class="st1" />
		<path
   id="path29500"
   d="m 115.2,168.5 c -0.9,-3.4 0.3,-6.3 2.1,-9 0.9,3.8 0.5,5.1 -2.1,9 z"
   class="st1" />
		<path
   id="path29502"
   d="m 172.8,223.3 c 0.7,0.5 2.4,-2.4 2,0.2 -0.4,2.7 -2.3,5.2 -4,7.6 -1,-3.3 2.5,-5.1 2.1,-8 0,0 -0.1,0.2 -0.1,0.2 z"
   class="st1" />
		<path
   id="path29504"
   d="m 172,166.9 c 0.4,0.4 0.8,0.8 1.2,1.2 1.5,1.1 3,2.2 3.8,4 0,1.5 3.7,1.8 1.3,4.1 0,0 0.2,0.1 0.2,0.2 -2.4,-2.6 -4.8,-5.2 -7.3,-7.8 -2.1,-2 0,-1.4 0.8,-1.7 z"
   class="st1" />
		<path
   id="path29506"
   d="m 209.7,193.3 c 4.1,3.1 5,5.1 5.2,10.1 -2.1,-0.8 -1.5,-3 -2.3,-4.4 -1,-1.5 -1.6,-3.1 -2.9,-5.7 z"
   class="st1" />
		<path
   id="path29508"
   d="m 134.2,220.4 c -0.1,0.7 1.9,2.6 1.9,2.6 -0.1,1.6 -0.2,3.1 -0.3,4.8 -3.3,-1.7 -5,-3.7 -1.6,-7.4 z"
   class="st1" />
		<path
   id="path29510"
   d="m 137.5,241.7 c -1.1,-4.1 -0.4,-7.7 3.5,-11.7 -0.7,4.9 -3.8,7.8 -3.5,11.7 z"
   class="st1" />
		<path
   id="path29512"
   d="m 220.1,253.9 c -3.1,3.9 -7.8,4.1 -12.2,5.1 3.6,-2.8 8.2,-3.3 12.2,-5.1 z"
   class="st1" />
		<path
   id="path29514"
   d="m 159.2,137.8 c 4,-0.2 6.4,2 8.2,5.4 -2.8,-1.8 -5.5,-3.6 -8.2,-5.4 z"
   class="st1" />
		<path
   id="path29516"
   d="m 140.5,243.7 c -2.9,-3.5 0,-5.9 1.6,-8.6 0,2.9 -1.6,5.6 -1.6,8.6 z"
   class="st1" />
		<path
   id="path29518"
   d="m 135.9,233.3 c -1.1,2.7 -1.5,5.5 0.4,8.4 -4,-1.3 -4.1,-4.1 -0.4,-8.4 z"
   class="st1" />
		<path
   id="path29520"
   d="m 231.1,214.1 c 0.2,-3 2.7,-5.2 2,-8 -0.2,-0.7 0.6,-1.3 1.2,-0.9 0.4,0.2 0.8,1.2 0.6,1.6 -1.1,2.3 -1,5.3 -3.8,7.3 z"
   class="st1" />
		<path
   id="path29522"
   d="m 185.4,236.4 c -0.2,-3.5 0.4,-6.9 2.2,-10.5 1.1,4.2 -0.7,7.3 -2.3,10.4 0,0 0.1,0.1 0.1,0.1 z"
   class="st1" />
		<path
   id="path29524"
   d="m 138.4,164.8 c 0,-2.2 0,-4.5 0,-7.5 1.6,3.1 1.6,3.1 0,7.5 z"
   class="st1" />
		<path
   id="path29526"
   d="m 205.6,124.9 c 0,-3.6 2.1,-5.3 5.1,-6.5 -1.7,2.2 -3.4,4.3 -5.1,6.5 z"
   class="st1" />
		<path
   id="path29528"
   d="m 200.2,119.6 c 1.3,-2.5 2.6,-5 3.8,-7.5 0.3,0.2 0.7,0.3 1,0.5 -1.3,2.5 -2.5,5 -3.8,7.6 -0.2,-0.2 -0.6,-0.4 -1,-0.6 z"
   class="st1" />
		<path
   id="path29530"
   d="m 201.4,152.3 c 0,-3.4 0,-6.8 0,-10.2 0.2,0 0.5,0 0.7,0 0,3.4 0,6.8 0,10.2 -0.2,0.1 -0.4,0 -0.7,0 z"
   class="st1" />
		<path
   id="path29532"
   d="m 142.7,162.3 c 0.1,0.5 0.3,1 0.2,1.4 -0.5,1.8 2.1,3.2 0.6,5 -0.2,0.2 -1.2,0 -1.2,-0.1 -0.3,-2.1 -2.4,-4.3 0.4,-6.3 z"
   class="st1" />
		<path
   id="path29534"
   d="m 226.6,175.6 c 1.7,3.4 -2.4,6.7 -0.4,10.1 -2.1,-3.4 -0.9,-6.7 0.5,-10 0,0 -0.1,-0.1 -0.1,-0.1 z"
   class="st1" />
		<path
   id="path29536"
   d="m 164.2,142.4 c 1.9,1.6 3.3,3.6 5.2,5.4 -1.7,-1.8 -3.4,-3.6 -5.2,-5.4 z"
   class="st1" />
		<path
   id="path29538"
   d="m 103.2,167.8 c 2.5,-1.7 -1.5,-2.2 -0.6,-3.9 2.7,0.6 2.9,3.4 4.3,5.1 0,0 0.1,-0.1 0.1,-0.1 -1.2,-0.5 -3.2,1.2 -3.8,-1.3 z"
   class="st1" />
		<path
   id="path29540"
   d="m 158.6,126.3 c -3.3,1.5 -4.5,-0.8 -6.3,-1.6 2.6,-1.3 3.8,0.8 6.3,1.6 z"
   class="st1" />
		<path
   id="path29542"
   d="m 155.6,261.5 c 2.8,-0.4 5.4,-0.9 8.4,0 -3.1,0.9 -5.9,0.4 -8.4,0 z"
   class="st1" />
		<path
   id="path29544"
   d="m 225.2,242.2 c -1.4,2 -3.3,3.2 -5.8,3.5 2,-1.1 2.8,-4.2 5.9,-3.4 z"
   class="st1" />
		<path
   id="path29546"
   d="m 179.7,250.3 c -1.6,3.4 -3.7,-1.1 -5.4,0.3 0,-2.6 1.5,-1.6 2.7,-1.2 0.9,0.4 1.8,0.6 2.7,0.9 z"
   class="st1" />
		<path
   id="path29548"
   d="m 208.4,198 c -1.3,-1.6 -2.5,-3.3 -3.3,-4.3 1.7,0.3 1.7,0.3 3.3,4.3 z"
   class="st1" />
		<path
   id="path29550"
   d="m 135.3,171.3 c 1.2,1.5 2.4,2.9 3.7,4.5 -4.2,0.6 -3.4,-2.4 -3.7,-4.5 z"
   class="st1" />
		<path
   id="path29552"
   d="m 221,112.9 c -0.4,0.4 -0.8,0.8 -1.2,1.2 -1.1,0 -2.3,0 -3.4,0 1.6,-0.5 2.5,-4.3 4.6,-1.2 z"
   class="st1" />
		<path
   id="path29554"
   d="m 143.9,238.5 c 0,1.9 0,3.9 0,5.8 -1.3,-1 -1.4,-1.3 0,-5.8 z"
   class="st1" />
		<path
   id="path29556"
   d="m 104.1,97.1 c 1.4,-5 3.7,0.4 4.4,-0.1 -0.8,0 -2.7,0 -4.5,0 -0.1,-0.1 0.1,0.1 0.1,0.1 z"
   class="st1" />
		<path
   id="path29558"
   d="m 232.7,92.7 c 0.8,2.8 0,4.3 -3.4,4.3 1.3,-1.6 2.5,-2.9 3.6,-4.2 -0.1,0 -0.2,-0.1 -0.2,-0.1 z"
   class="st1" />
		<path
   id="path29560"
   d="m 128,110.4 c 2.6,-1 4.1,0 5.7,1.2 -2.1,1.1 -3.7,-0.1 -5.7,-1.2 z"
   class="st1" />
		<path
   id="path29562"
   d="m 218.3,125.7 c -0.1,-2.4 2,-3 3.3,-4.3 0.1,2.3 -2,3 -3.3,4.3 z"
   class="st1" />
		<path
   id="path29564"
   d="m 176.9,172 c -1.5,-1.1 -3,-2.2 -3.8,-4 1.9,-0.6 2.3,1.7 3.8,1.8 0.2,0.8 1.1,1.6 0,2.2 z"
   class="st0" />
		<path
   id="path29566"
   d="m 185.6,263.2 c -3,-0.4 -3.9,-1.7 -4.5,-3.2 -0.1,-0.2 0.6,-1 0.8,-0.9 1.7,0.6 1.7,2.4 3.7,4.1 z"
   class="st1" />
		<path
   id="path29568"
   d="m 219.4,183.8 c -0.5,-1.7 -0.7,-3.2 0.1,-4.6 0.1,-0.1 1.1,0 1.2,0.2 0.9,1.8 -0.5,2.9 -1.3,4.4 z"
   class="st1" />
		<path
   id="path29570"
   d="m 235.1,231.1 c -1.2,1.3 -2.4,2.6 -4.3,4.6 0.6,-3.4 1.2,-5.5 4.4,-4.5 0.1,0.1 -0.1,-0.1 -0.1,-0.1 z"
   class="st1" />
		<path
   id="path29572"
   d="m 138.9,121.3 c -1.5,2.7 -3.6,1.4 -5.4,1.4 1.7,-0.4 3,-2.1 5.4,-1.4 z"
   class="st1" />
		<path
   id="path29574"
   d="m 161.6,131.8 c -1.8,-0.4 -3.5,-0.8 -4.6,-2.6 2.2,-0.1 3.6,0.9 4.6,2.6 z"
   class="st1" />
		<path
   id="path29576"
   d="m 187.1,196.9 c 1.2,1.8 2.4,3 1.6,4.9 -2.4,-1 -1.6,-2.8 -1.6,-4.9 z"
   class="st1" />
		<path
   id="path29578"
   d="m 93.6,163.5 c 3.3,-2.8 3.2,0.5 4.2,2.4 -2.2,0.1 -2.4,-2.6 -4.2,-2.4 0,-0.1 0,0 0,0 z"
   class="st1" />
		<path
   id="path29580"
   d="m 119.4,156.3 c 1.6,0.6 1.9,1.8 1.4,3.2 -0.1,0.3 -1.1,0.5 -1.2,0.4 -1,-1.1 -0.7,-2.4 -0.2,-3.6 z"
   class="st1" />
		<path
   id="path29582"
   d="m 209.6,167.5 c -0.2,1.6 2,2.6 0.9,4.3 -0.1,0.2 -0.8,0.3 -0.9,0.1 -1.2,-1.4 -0.5,-3 0,-4.4 z"
   class="st1" />
		<path
   id="path29584"
   d="m 155.4,120.4 c 0.5,1 2.1,0.7 2.2,2.5 -1.6,0.1 -2.8,-0.8 -3.9,-1.7 -0.3,-0.2 -0.7,-0.9 -0.1,-1 0.6,-0.2 1.3,0.1 1.8,0.2 z"
   class="st1" />
		<path
   id="path29586"
   d="m 225.3,242.3 c -0.7,-2.7 1.2,-3.4 3.5,-4.7 -0.7,2.5 -2.3,3.4 -3.6,4.6 0,0 0.1,0.1 0.1,0.1 z"
   class="st1" />
		<path
   id="path29588"
   d="m 178.5,229.2 c -1,1.1 0.2,2.9 -1.3,3.7 -0.2,0.1 -1.2,-0.4 -1.1,-0.5 0.4,-1.3 0.5,-2.8 2.4,-3.2 z"
   class="st1" />
		<path
   id="path29590"
   d="m 223.3,101.3 c 0.5,-2.4 1.8,-3.5 4.3,-2.9 -1.7,0.6 -2.4,2.8 -4.5,2.8 z"
   class="st1" />
		<path
   id="path29592"
   d="m 170.5,263.6 c -1.7,0 -2.9,1.9 -5.1,1.2 1.5,-1.6 3.1,-2.3 5.1,-1.2 z"
   class="st1" />
		<path
   id="path29594"
   d="m 136.2,77.2 c -1.1,1.8 -2.7,2.1 -4.8,1.6 1.5,-1.6 3,-2.3 5,-1.5 -0.1,0 -0.2,-0.1 -0.2,-0.1 z"
   class="st1" />
		<path
   id="path29596"
   d="m 181.8,212.8 c 0,1.6 0,3.1 0,6 -1.1,-3 -0.9,-4.7 0,-6 z"
   class="st1" />
		<path
   id="path29598"
   d="m 207.1,113 c 0.9,-1.6 1.7,-2.6 3.4,-2.7 -0.7,1.2 -1.1,2.6 -3.4,2.7 z"
   class="st1" />
		<path
   id="path29600"
   d="m 223.5,94.9 c 0.5,-1.4 1.3,-2.6 3.1,-3.1 -0.2,2.2 -1.7,2.5 -3.1,3.1 z"
   class="st1" />
		<path
   id="path29602"
   d="m 137,117.7 c 1.5,-1 2.6,-1.7 4.2,-2.8 -0.7,2.5 -1.6,3.5 -4.2,2.8 z"
   class="st1" />
		<path
   id="path29604"
   d="m 155.5,120.5 c -0.7,-1.4 -1.8,-2.3 -4.1,-3.3 3.3,-0.1 5.2,-0.1 4.1,3.3 -0.1,-0.1 0,0 0,0 z"
   class="st1" />
		<path
   id="path29606"
   d="m 131.7,237.7 c -0.8,-2.9 -0.9,-4.6 -0.2,-6.5 0.9,1.8 0.5,3.5 0.2,6.5 z"
   class="st1" />
		<path
   id="path29608"
   d="m 165.9,150 c 2.1,0.2 3.2,0.8 4.9,2.8 -2.4,-0.5 -3.7,-0.8 -4.9,-2.8 z"
   class="st1" />
		<path
   id="path29610"
   d="m 190.5,222.8 c 0.7,2.3 0.9,3.9 -1.5,5.2 0.5,-1.8 0.9,-3.2 1.5,-5.2 z"
   class="st1" />
		<path
   id="path29612"
   d="m 103.3,167.7 c -0.5,0.1 -1.1,0.4 -1.4,0.2 -0.8,-0.6 -2.2,-0.5 -2.5,-1.7 0,-0.2 0.3,-0.6 0.6,-0.7 1.5,-0.6 1.7,1.1 2.5,1.6 0.3,0.1 0.4,0.5 0.6,0.8 0.1,-0.1 0.2,-0.2 0.2,-0.2 z"
   class="st1" />
		<path
   id="path29614"
   d="m 223.1,101.1 c -1,1.1 -1.7,2.7 -4.4,2.9 1.6,-1.7 2.1,-3.6 4.5,-2.8 0.1,0.1 -0.1,-0.1 -0.1,-0.1 z"
   class="st1" />
		<path
   id="path29616"
   d="m 129.4,224.8 c -0.9,-1.6 -0.3,-2.8 1.2,-3.7 0.9,1.7 0.3,2.9 -1.2,3.7 z"
   class="st1" />
		<path
   id="path29618"
   d="m 62.6,144.4 c 1.7,-0.7 3.3,-0.6 5.7,0.1 -2.4,0.6 -4,0.9 -5.6,-0.2 0,0 -0.1,0.1 -0.1,0.1 z"
   class="st1" />
		<path
   id="path29620"
   d="m 190.6,216.7 c 0.4,2.3 0.8,3.6 -0.2,5 -0.6,-1.5 -0.6,-2.8 0.2,-5 z"
   class="st1" />
		<path
   id="path29622"
   d="m 164.2,250.1 c 1.3,0.6 2,1 2.7,1.3 -0.4,0.5 -0.9,0.9 -1.3,1.4 -0.5,-0.6 -1,-1.1 -1.4,-1.8 -0.3,-0.2 -0.2,-0.9 0,-0.9 z"
   class="st1" />
		<path
   id="path29624"
   d="m 213.8,100.3 c -0.7,1.6 -1.8,2.1 -3.9,1.2 1.6,-0.3 2.2,-1.9 3.9,-1.2 z"
   class="st1" />
		<path
   id="path29626"
   d="m 210.1,93.1 c -0.8,0.9 -1.7,1.8 -2.5,2.8 -0.3,-2.2 0.5,-3.2 2.7,-2.6 0,0 -0.2,-0.2 -0.2,-0.2 z"
   class="st1" />
		<path
   id="path29628"
   d="m 229.7,87.7 c 0.7,2 -0.3,2.9 -2.8,2.6 1,-0.8 2,-1.6 3,-2.4 -0.1,-0.1 -0.2,-0.2 -0.2,-0.2 z"
   class="st1" />
		<path
   id="path29630"
   d="m 154.9,114.6 c -1.9,0.9 -2.4,-0.9 -4.2,-1 2.3,-1.1 3.3,-0.3 4.2,1 z"
   class="st1" />
		<path
   id="path29632"
   d="m 143.1,176.3 c -0.7,0.7 -1.1,1.2 -1.6,1.5 -0.6,0.4 -1.3,0.1 -1.4,-0.6 -0.1,-0.7 0.2,-1.2 1,-1.2 0.5,0.1 1.1,0.2 2,0.3 z"
   class="st1" />
		<path
   id="path29634"
   d="m 198.6,100.1 c 0.9,1.9 -0.9,2.4 -1,4.2 -1.1,-2.3 -0.3,-3.3 1,-4.2 z"
   class="st1" />
		<path
   id="path29636"
   d="m 203.1,96.1 c -0.8,0.9 -1.7,1.8 -2.5,2.8 -0.3,-2.2 0.5,-3.2 2.7,-2.6 0,0 -0.2,-0.2 -0.2,-0.2 z"
   class="st1" />
		<path
   id="path29638"
   d="m 227.9,242.9 c 0.1,2.3 -1,2.8 -2.3,3.2 -0.1,-1.8 1.1,-2.2 2.3,-3.2 z"
   class="st1" />
		<path
   id="path29640"
   d="m 211.3,236.7 c -2.8,1.7 -2,6.1 -6.1,7.6 1.9,-3.7 3.6,-6.8 5.2,-10 1.2,0.6 0.3,1.7 0.7,2.5 0,0.1 0.2,-0.1 0.2,-0.1 z"
   class="st1" />
		<path
   id="path29642"
   d="m 90.8,133.2 c 1.4,1.6 -0.4,3.8 1.2,5.3 -3.4,-1.1 -2.6,-3.1 -1.2,-5.3 z"
   class="st1" />
	</g>
</g>
</svg>
