<?xml version="1.0" encoding="UTF-8" standalone="no"?>
<svg
   xmlns:dc="http://purl.org/dc/elements/1.1/"
   xmlns:cc="http://creativecommons.org/ns#"
   xmlns:rdf="http://www.w3.org/1999/02/22-rdf-syntax-ns#"
   xmlns:svg="http://www.w3.org/2000/svg"
   xmlns="http://www.w3.org/2000/svg"
   xmlns:sodipodi="http://sodipodi.sourceforge.net/DTD/sodipodi-0.dtd"
   xmlns:inkscape="http://www.inkscape.org/namespaces/inkscape"
   version="1.1"
   id="Layer_1"
   x="0px"
   y="0px"
   viewBox="0 0 254.0509 251.86168"
   xml:space="preserve"
   sodipodi:docname="stag-lodged.svg"
   width="254.0509"
   height="251.86168"
   inkscape:version="1.0 (4035a4f, 2020-05-01)"><metadata
   id="metadata30321"><rdf:RDF><cc:Work
       rdf:about=""><dc:format>image/svg+xml</dc:format><dc:type
         rdf:resource="http://purl.org/dc/dcmitype/StillImage" /><dc:title></dc:title></cc:Work></rdf:RDF></metadata><defs
   id="defs30319">

















































	</defs><sodipodi:namedview
   inkscape:document-rotation="0"
   pagecolor="#ffffff"
   bordercolor="#666666"
   borderopacity="1"
   objecttolerance="10"
   gridtolerance="10"
   guidetolerance="10"
   inkscape:pageopacity="0"
   inkscape:pageshadow="2"
   inkscape:window-width="1916"
   inkscape:window-height="1126"
   id="namedview30317"
   showgrid="false"
   fit-margin-top="0"
   fit-margin-left="0"
   fit-margin-right="0"
   fit-margin-bottom="0"
   inkscape:zoom="2.52"
   inkscape:cx="124.90224"
   inkscape:cy="161.10791"
   inkscape:window-x="0"
   inkscape:window-y="25"
   inkscape:window-maximized="0"
   inkscape:current-layer="Layer_1" />
<style
   type="text/css"
   id="style30216">
  .st0{fill:#FFFFFF;}
  .st1{fill:#000000;}
</style>
<path
   class="st1"
   d="m 217.00224,210.40791 c 3.3,3.8 5.8,7.7 10.3,10.1 3.4,1.8 -0.4,3.5 -1.4,4.7 -2.5,2.8 -6.6,2.3 -9.5,2.2 -5.8,-0.2 -10.8,2.2 -16.3,2.9 -8.1,1.1 -16.2,2.5 -24.2,4 -10,1.8 -20.2,2.9 -29.9,5.9 -4.1,1.3 -7.3,4.5 -10.2,7.8 -2.2,2.4 -5,4.9 -8.4,3.4 -1.2,-0.5 -2.2,-0.3 -3.2,-0.5 -1.3,-0.2 -3.2,0.7 -3.9,-0.5 -0.8,-1.5 0.6,-3 1.6,-4.3 5.2,-6.3 12.7,-9.5 19.1,-14.1 5.6,-4 12.1,-4.7 18.7,-5.3 11,-1 21.7,-3.3 32.4,-6.1 0.5,-0.1 1,-0.7 1.9,-1.4 -12.1,0.4 -23.5,0.7 -34.9,3.2 -7.3,1.6 -14.8,3.1 -22.5,2.8 -4.6,-0.2 -7.4,3.9 -11.1,5.9 -2.6,1.4 -4.5,2.7 -7.7,1.7 -2.5,-0.8 -5.4,-0.2 -9.1,-0.2 3.3,-4.7 7.4,-7.1 11.1,-10.1 5.7,-4.7 12.9,-4.9 19.6,-6.4 8.6,-1.9 17.5,-2.9 26.3,-4.4 -0.8,-1.9 -2,-2.4 -3.9,-2.5 -8.8,-0.3 -17.4,0.8 -25.9,2.6 -5.1,1 -10.1,2.3 -15.3,3.2 -2.1,0.4 -3.9,1.2 -5.5,2.4 -4.4,3.4 -9.4,3.9 -14.6,3.5 -4.400002,-0.3 -8.600002,1.5 -13.000002,1.6 4.4,0 8.9,0 13.300002,0 2.6,0 5.2,0.5 6.8,2.8 1.5,2.1 0.5,4.4 -2,4.5 -3,0.1 -5.800002,1 -8.700002,1.6 -2.2,0.5 -4.7,0.7 -6.8,-0.8 -1.4,-1 -2.9,-0.7 -4.3,-0.7 -20.6,0 -41.2,-0.1 -61.8,0.1 -3.5,0 -6.3,-1.4 -9.1,-2.7 -3,-1.3 -3,-3.7 -0.8,-6.1 1.3,-1.4 2.9,-2.3 4.7,-3.2 -3.5,-1.7 -7.2,-2.6 -10.9999999,-2.1 -4.8,0.6 -7.19999999,-2.6 -7.69999999,-7.3 -0.5,-5.1 0.7,-6.2 6.59999999,-6.8 12.3999999,-1.4 24.4999999,-4 36.3999999,-7.9 1.9,-0.6 3.8,0.1 5.9,-0.7 -0.5,-2.3 -2.4,-3.8 -4,-4.8 -3.1,-1.8 -4.8,-5.2 -8.2,-6.8 -2.5,-1.1 -1.9,-3.7 -1.9,-5.8 0,-5.5 0,-5.5 -5.3,-5.5 -0.8,0 -1.7,0 -2.7,0 0.3,-1.9 2.1,-2.4 2.9,-3.8 1.8,-3.1 3,-6.2 2.7,-9.9 -0.3,-3.2 -0.4,-6.3 2.2,-9.2 2.2,-2.3 -1.5,-3.3 -2.3,-5.6 5.8,-0.7 5.4,-5.6 6.7,-9.6 2.3,-7 4.6,-14.3 11.3,-18.7 1.2,-0.8 2.7,-1.3 0,-3.3 -4.7,-3.4 -9.7,-3.6 -14.7,-2.9 -3,0.5 -6.2,0.2 -9.2,1.3 -2.7,1 -5.1,-0.4 -6.5,-3 -0.4,-0.8 -0.7,-1.6 -1.5,-1.8 -2.6,-0.7 -4.5,-2.1 -3.5,-4.900004 1.1,-2.9 2.3,-6 6.1,-6.8 5.8,-1.2 11.6,-1.7 17.4,-2.9 6,-1.3 10.2,-5.7 15.6,-8 2.9,-1.3 6.9,-0.9 8.7,-4.4 -1.6,-2.4 -4.6,-2.6 -6.8,-2.7 -8.1,-0.2 -11.2,-5.3 -13.9,-11.8 -2.2,-5.4 -1.3,-10.7 -1.5,-16.1 -0.1,-1.9 1.2,-3.9 3,-4.5 1.9,-0.6 2,1.9 2.8,3 2.8,3.9 2.9,8.7 4.1,13.2 0.8,3.1 2.5,5.5 5.5,7 2.9,1.5 4.4,0.4 4.4,-2.2 0,-5.6 1.3,-11.6 -5.2,-15.5 -3.2,-2 -3.7,-6.4 -3.8,-10.2 -0.2,-4.6 -0.1,-9.1 0,-13.7 0,-1.8 -0.7,-4.3 2.4,-4.1 2.5,0.1 4,1.7 4.2,4.2 0.2,3 0.2,6.1 0,9.1 -0.1,1.7 0.5,3.2 0.9,4.7 0.5,2 2.3,3.2 3.9,3.1 1.5,-0.1 1.1,-2.2 1.1,-3.5 0,-0.9 0.6,-1.6 0.6,-2.3 0.1,-3.7 3.5,-7.3 -1.9,-11 -4.2,-3 -3.8,-11.9 -1.2,-16.1999995 1.8,-2.8 3.2,-2.8 4.9,0.2 0.7,1.2 0.9,2.4999995 0.8,3.8999995 -0.1,1.2 0,2.5 0,3.7 -0.1,1.6 0.2,3.3 1.5,3.8 1.3,0.5 1.4,-1.6 2.2,-2.4 3,-3.2 1.9,-7.3999995 2,-11.2999995 0.1,-4.50000002 1,-5.30000002 5.3,-5.20000002 3.1,0 3.4,2.10000002 3.8,4.30000002 0.6,3.6 1.7,4.2 4.7,2.2 2,-1.3 3.9,-2.9 5.9,-4.1 1.8,-1.1 4,-2.80000002 5.9,-0.4 2.400002,3 0,4.9 -2.1,6.3 -3.5,2.3999995 -7.4,4.0999995 -11.3,5.7999995 -7.7,3.2 -10.2,10.3 -12.1,17.5 -2.4,9.3 -3.9,18.8 -3.6,28.5 0.2,5.6 2.3,10.1 5.1,14.6 0.6,1 1.3,1 2,0.8 1,-0.4 0.8,-1.5 0.5,-2.2 -0.7,-2 -1.5,-4 -2.5,-5.9 -2.5,-5 -1.8,-9.7 0.6,-14.6 1.8,-3.5 3.7,-7.1 4.7,-11 0.3,-1.2 0.9,-3.4 2.9,-2.7 1.7,0.6 2,2.5 1.7,4.1 -0.6,2.6 -1.4,5.1 -2.2,7.7 -1.3,4.1 -1.5,8.1 -0.3,12.3 1.5,5.1 4.8,6.6 9.2,3.6 3.5,-2.5 6.8,-5.3 10.200002,-7.9 6.1,-4.5 13.5,-6.4 19.6,-10.8 4.6,-3.3 9.2,-6.7 8.4,-13.5 -0.1,-0.8 0.5,-1.8 0.8,-2.6 1.4,-4.4 1.9,-4.5 5.7,-1.2 2.4,-4.7 4.1,-9.5 4.3,-14.8 0.1,-5.2 1,-10.0999995 4.2,-14.3999995 0.5,-0.70000002 0.9,-1.60000002 1.8,-1.30000002 0.8,0.2 1.2,0.90000002 1.5,1.70000002 0.9,2.6 1.4,5.3 0.4,7.9999995 -0.8,2.4 -1,5 0.8,6.4 1.7,1.4 3.7,-0.4 5.3,-1.6 3.9,-2.9 7.7,-5.9999995 10,-10.4999995 1.2,-2.4 3.3,-3.2 5.4,-2.1 2.7,1.3 0.7,3.4 -0.2,4.8 -4.9,7.8999995 -10.6,15.0999995 -19.2,19.1999995 -3,1.5 -3.3,4.6 -5,6.8 -0.4,0.5 -0.6,2.1 0.4,2.6 1.1,0.6 2.5,0.6 3.6,-0.1 2.3,-1.3 4.6,-2.8 6.5,-4.7 1.5,-1.5 2.8,-3.3 4.9,-4.3 1.6,-0.7 3,-1.2 4,0.2 0.9,1.2 1,2.9 -0.1,4.2 -3.9,4.6 -7.5,9.4 -12.6,12.7 -3.8,2.5 -8.1,3.8 -12.4,3.6 -4.2,-0.2 -6.1,1.7 -7.5,5 -2.6,6 -6.9,10.3 -13,12.4 -4,1.4 -8.4,1.5 -12.5,2.6 -6.400002,1.6 -11.300002,5.3 -15.900002,9.7 -0.3,0.3 -1,0.5 -0.4,1.2 0.6,0.6 1,0.5 1.7,0.1 8.600002,-4.3 17.900002,-2.1 27.000002,-2.6 1.5,-0.1 3.1,0.6 3.8,1.9 0.9,1.6 -1.1,2.3 -2,3.1 -7.4,6.9 -15.6,12.2 -26.000002,13.2 -1.4,0.1 -3.4,0.2 -3.2,2.2 0.7,7.200004 -3.7,13.000004 -5.5,19.400004 -2.3,8 -3.5,16.4 -6.8,24.2 -1.6,3.8 1.5,7 4.2,9.7 1.3,1.3 2.7,0.8 4,0 5.7,-3.6 12.1,-4.2 18.700002,-4.2 10.2,0.1 20.4,-0.7 30.5,1 12.2,2 24.5,2.3 36.8,3.7 8.7,1 17.6,1.6 26.3,3 14.3,2.3 26.5,8.8 34.5,21.4 3.3,5.2 8.5,9.5 9.3,16.2 0.3,2.2 1.2,4.4 1.5,6.6 1,5.6 2.6,10.7 7.5,14.2 1,0.7 2.3,1.8 1.5,3 -0.9,1.4 -1.9,3 -4,3.1 -5.3,0.4 -10,-0.4 -13.6,-4.8 -1.7,-2.1 -4,-3.8 -5.8,-5.9 -2.2,-2.7 -3.9,-2.7 -6.6,-0.4 -2.2,1.9 -3.8,4.1 -6.8,4.2 z"
   id="path30218" /><path
   class="st0"
   d="m 71.002238,147.90791 c 2.6,1.7 -1.6,3.9 0.5,5.6 2.4,-0.5 -0.1,-4.8 3.5,-4.6 -0.2,3.1 -2,6.3 0.7,9.2 0.6,0.6 0.1,1.2 -0.3,1.7 -1.1,1.3 -3.4,2.2 -1.2,4.7 0.8,1 -2.6,1.8 -2.1,4.1 1.8,-0.1 3.3,-1.3 3,-2.6 -1,-4.8 5,-6.5 4.6,-11 -0.1,-0.6 0.6,-0.7 0.8,-0.5 3.4,2 4.7,-1.6 6.6,-2.7 6.5,-3.7 13.400002,-3.6 20.400002,-4 14.6,-0.8 28.9,1.9 43.3,2.7 9.3,0.5 18.7,1.5 28,2.6 12.3,1.5 24.9,1.7 36.3,7.9 7.8,4.3 12.5,11.1 17.8,17.9 5.2,6.7 7.6,14.3 9,22.3 0.9,5.1 3.6,8.6 7.7,11.3 0.6,0.4 1.4,0.7 1.2,1.4 -0.1,0.6 -0.7,1 -1.5,1.1 -4.1,0.4 -7.9,-0.5 -10.9,-3.3 -2.4,-2.3 -1.3,-5.2 -0.5,-7.9 -1,-0.1 -1.3,0.5 -1.7,1 -0.5,0.8 -0.6,2.6 -1.8,2 -1.2,-0.6 0,-2 0.6,-2.6 4.1,-4.3 0.5,-9.1 1.1,-13.6 -1.1,3.1 -1.1,3.7 -0.8,7.1 0.3,2.6 -1.9,4 -3.2,5.8 -0.5,0.7 -0.9,0.3 -1.2,-0.1 -0.6,-0.6 -1.3,-1 -0.7,-2.3 1.3,-3.3 2.2,-6.8 3.1,-10.3 1.2,-4.4 -0.1,-8.2 -3.5,-11.4 2.9,6 0.8,11.6 -1.1,17.2 -3,8.7 -15.5,14.3 -22.7,10.5 5.2,-2 11.3,-2.5 15.8,-7 -9,4.8 -18.2,5.8 -27.9,1.5 2.7,2.2 4.4,4.9 6.3,7.3 2.1,2.7 6.3,2.4 9.6,1.7 3.2,-0.7 4.9,1 6.2,3 1.7,2.5 3.7,4.6 6.2,6.3 2.2,1.4 1.5,2.2 -0.4,3.4 -2.1,1.3 -4.7,1.2 -6.6,1.3 -6,0 -11.2,2.9 -16.9,3.7 -8.2,1.1 -16.5,2.5 -24.6,4.1 -11,2.2 -22.3,2.8 -32.9,7 -1.9,0.7 -2.2,-0.5 -2.9,-1.2 -1.2,-1.3 0.1,-1.8 1,-2.5 6.5,-4.9 14,-6.7 22,-7.6 11.8,-1.3 23.6,-3.2 34.9,-7.1 2.2,-0.8 5,-1 7.2,0.3 2.8,1.5 5.7,1.1 8.6,0.4 -1.4,-0.1 -2.9,-0.2 -4.3,-0.3 0,-0.1 0,-0.2 0,-0.4 2.1,-0.4 4.2,-0.7 6.3,-1.2 1,-0.2 2,-0.9 1.6,-1.9 -0.5,-1.2 -1.3,-0.1 -2,0.2 -3.7,1.3 -7.6,1.4 -11.5,1.6 2.4,-1 4.8,-1.8 7.4,-1.7 -2.6,-0.5 -5.1,-0.5 -7.8,0.1 -4.3,0.9 -8.3,-1.5 -12.3,-3.1 -8.2,-3.2 -15.8,-7.2 -20.7,-15 -1.1,-1.8 -1.6,-3.5 -1.2,-5.4 0.6,-2.8 -0.8,-4.4 -2.6,-6.5 -0.3,0.7 -0.5,1 -0.6,1.3 -0.3,1.3 0.7,3.3 -0.7,3.7 -2,0.5 -2.7,-2.1 -3,-3.2 -3.2,-8.8 -1.3,-22 10,-26.2 2.7,-1 5.9,-0.9 8.9,-1 11.3,-0.5 22.5,0 32.8,5.3 0.8,0.4 1.5,0.4 2.6,0.2 -3.8,-4.7 -9.5,-5.9 -14.6,-7 -9.9,-2.2 -20.1,-1.7 -30.1,-0.1 -7.6,1.2 -13.1,8.5 -13.3,16.4 -0.1,4.6 -0.7,9.3 0.7,13.9 0.8,2.7 -0.3,4.1 -3.4,3.6 -0.8,-0.1 -2,-0.6 -2.3,0.8 -0.4,1.7 1.1,1.9 1.9,2.1 1.8,0.5 3.3,1 4,3.4 -4.9,-0.2 -8.4,-3.9 -12.7,-4.8 -0.8,0.6 -0.2,0.7 0.1,0.9 1.7,1.4 5.3,3.1 4.4,4.4 -1.5,2.2 -3.4,-1.1 -5.3,-1.6 -1.8,-0.5 -3.8,-0.4 -5.2,-3 0.2,5.1 1.3,6.1 7.9,8.1 -1.5,3.1 -4.1,1.5 -5.6,0.8 -2.5,-1.2 -4.4,-2.6 -6.6,0.3 -0.4,0.5 -1.5,0.1 -2.3,-0.4 -1.1,-0.7 -2.1,-0.4 -2.8,1 1.3,0.9 3.1,-0.3 4.8,1.2 -7.4,-0.2 -14.4,0.6 -20.9,-3.2 -1.2,-0.7 -2.1,-1.3 -1.4,-2.1 0.9,-0.9 -0.2,-3 2,-3.1 1.7,-0.1 1.8,0.7 2.1,2.2 0.5,3.2 2.9,1.8 5.4,1.9 -1.8,-2.2 -5.3,-3.1 -3.4,-6.5 2.6,0.7 4.4,2.8 6.9,4 0.6,-2.9 -3.8,-3.1 -2.8,-6.4 1.6,0 3.5,0 5.3,0 0.6,0 1.5,0.3 1.7,-0.7 0.2,-0.9 0.1,-1.9 -0.8,-2.1 -1.6,-0.4 -2.8,-1.4 -4.2,-2.1 -0.1,-0.1 -0.3,0 -0.4,0 -1.6,0 -0.4,3.9 -3.1,2.4 -1.6,-0.9 -2.8,-2.6 -5.1,-2.3 -0.1,1.6 1.7,2.7 1.3,4.4 -0.2,0.7 0.4,1.9 -0.7,2.1 -1.7,0.2 -0.5,-1.6 -1.3,-2 -1.3,1.4 -1,5.8 -5,2.3 -1.1,-1 -1.7,0.9 -2.5,1.4 -0.8,0.6 -1.4,1.2 -0.5,2.2 2,2.1 0.8,3.1 -1.4,3.5 -0.6,0.1 -1,0.3 -1,1.1 1,1.3 2.9,-0.2 4.2,1.2 -2.1,1.7 -4.4,3.2 -5.1,6.2 -0.4,1.6 -2.3,1.9 -3.900002,1.1 -0.8,-0.4 -1.6,-0.8 -2.3,-0.4 -9.7,5.7 -20.5,3.7 -30.9,4.7 -11.2,1 -22.2,3.4 -33.5,3.5 -1.8,0 -3.7,1.3 -5.4,2.3 8.5,-1.2 17,-0.6 25.5,-0.7 5.3,-0.1 10.5,0.3 15.8,-0.1 8.1,-0.6 16,1.2 24,1.6 2.3,0.1 1.3,2 2.2,2.8 0.5,0.4 0.5,1.4 0,1.9 -1.1,1 -2.3,-0.3 -2.7,-0.8 -1.5,-1.6 -3.2,-1.4 -4.9,-1.4 -20.6,0 -41.2,0 -61.8,0 -0.7,0 -1.4,0 -2.1,0 -3.2,0.1 -6.9,-1.2 -7.4,-3.8 -0.6,-2.9 3.4,-3.8 5.8,-4.4 10.1,-2.6 20.1,-5 30,-8.4 5.8,-2 11.6,-3.9 17.4,-5.8 1.7,-0.6 3,-1.4 2.8,-3.4 -0.2,-2.7 0.9,-5 1.6,-7.4 1.2,-4.1 2.5,-8.1 2.8,-12.5 0.2,-3.8 1.9,-7.7 6.6,-9 -5.4,0.8 -8.7,4.6 -8.5,9.7 0.1,3 0,5.5 -3.7,5.9 -0.1,0 -0.3,0.1 -0.4,0.1 -1.8,0 -2.1,3.6 -4.2,2 -1.1,-0.9 -1.4,-2.8 -2,-4.2 -2.7,2.7 -0.3,5 0.7,7.2 0.8,1.6 1.8,-0.1 2.7,-0.2 0.6,-0.1 1.1,-1 1.7,-0.1 0.3,0.4 0.3,1.3 0.1,1.5 -1.6,1.2 -4.4,2.7 -5.2,1.8 -2.5,-2.5 -3.9,-1.2 -6,0.2 -1.5,0.9 -3.1,0 -4.4,-1.4 -1.7,-1.9 -0.5,-3.3 0.8,-4.6 -1.7,-0.9 -2,1 -3,1.1 -1,-1.6 0.5,-2.5 1.5,-4 -2.9,1.3 -5,1.3 -5.1,-2.2 0,-0.2 0.1,-1.1 -0.6,-0.6 -3.4,2.7 -4.6,-0.9 -5.7,-2.5 -1.3,-2 -2,-4.7 -0.4,-7.2 0.2,-0.3 -0.1,-0.8 -0.2,-1.5 -0.7,1.3 -1.3,2.3 -1.8,3.4 -0.4,1 -0.5,2.1 -0.9,3.6 -4.8,-7.5 -0.9,-13.7 2.8,-20.8 -5.2,2.2 -4.4,9.2 -10.7,8.9 4.9,-5.2 5.6,-11.7 8,-18.1 -3.1,2 -3.1,2 -4.4,8.3 -1.4,-8.1 3.8,-12.8 8,-18.3 -2.4,-0.2 -2.9,2.5 -4.8,2.8 -0.7,0.1 -1,0 -1.3,-0.4 -0.6,-0.7 0.1,-0.6 0.6,-0.9 3.2,-2 3.9,-5.2 4,-8.7 0.1,-4.7 3,-8.1 7,-10 1.8,-0.9 3.2,-1.9 4.4,-3.3 -0.6,-0.2 -1,-0.4 -1.6,0.1 -0.7,0.6 -1.7,0.8 -2.2,0.1 -0.7,-0.9 0.3,-1.5 0.8,-2 2.7,-2.4 4.9,-6.5 9.4,-2.7 3.8,-3.2 7.8,1.7 11.8,-0.3 -2.1,-0.9 -4.2,-1.7 -5.8,-2.4 3.7,-3 8.8,-1.6 13.1,-3.6 2.6,-1.2 5.2,-2 7.2,-4.1 0.5,-0.6 1.1,-1.6 2,-0.8 0.6,0.5 0.4,1.5 -0.1,2.3 -1.8,3.4 -3.2,7.1 -6.4,9.7 -1.3,1 -2.9,2 -3.3,4.3 2.5,0.2 2.9,-2.6 5,-2.9 0.1,2.8 0.3,5.5 -1.9,7.7 l 0.1,0.1 c 0.2,-1.2 0.4,-2.4 -0.2,-3.8 -3.5,8.7 -7.7,17 -8.7,26.4 -0.3,0.2 -0.6,0.5 -0.8,0.8 0.2,-0.3 0.4,-0.6 0.6,-0.9 z"
   id="path30220" /><path
   class="st0"
   d="m 42.902238,45.507906 c 2.5,3 3.6,6.3 4.2,9.9 0.9,5 1.9,10 7.7,12.2 4.9,1.8 8,0.1 8,-4.9 0,-2.6 0.2,-5.3 0,-7.9 -0.2,-2.7 -0.8,-5 -3.6,-6.6 -4,-2.3 -4.9,-6.7 -5.3,-10.8 -0.5,-5 -0.1,-10.1 -0.1,-15.3 2,0.5 1.6,1.9 1.7,3.1 0,2.8 0.3,5.6 -0.1,8.3 -0.6,4.5 2.1,6.9 5.1,9.1 2.6,1.9 5.4,0.8 5.6,-2.5 0.4,-9.3 4.6,-17.2 8.5,-25.2 1.4,-2.9 0.3,-5.8999995 0.7,-8.8999995 0.2,-1.5 -0.6,-3.7 1.8,-3.9 2.5,-0.3 2.2,1.7 2.4,3.4 0.6,4.6999995 3.5,5.5999995 8.3,2.7 2.8,-1.7 5.6,-3.6 8.6,-5.5 1.2,3.1 -1.3,3.9 -2.8,5.2 -3.6,3.0999995 -8.3,4.0999995 -12.3,6.4999995 -4.5,2.7 -6.7,6.6 -8.5,11.1 -5,12.5 -6.5,25.6 -5.8,39 0.2,3.2 1.1,6.4 2.9,8.5 1.8,2.1 1.3,3.7 0.8,5.4 -0.7,2.4 -0.3,4.1 1.9,5.3 2.6,1.4 4.6,4.6 8.2,2.1 10.6,-7.5 22.500002,-9.2 35.100002,-8.2 1.2,0.1 1.9,1 3.3,1 -10.7,9.3 -22.200002,16 -37.900002,12.7 1.9,3.1 2.7,0.4 3.6,1.5 -0.4,2.6 -3.7,0.2 -4.3,2.5 1.2,1.6 2.2,-0.6 3.4,-0.2 1,1.1 -0.1,2.6 0.8,3.9 1.6,-0.9 1.5,-3.3 4.1,-3.9 -2.3,5.800004 -6.1,9.900004 -11.4,12.000004 -7.1,2.9 -14.7,3.8 -22.4,2.7 -1.6,-0.2 -3.4,-1.1 -4.7,-2.1 -2,-1.5 -4.1,-2 -6.4,-2 -1.7,0 -1.7,-0.1 -2.2,-1.9 -0.3,-1 -1.3,-0.7 -1.9,-0.3 -4,2.9 -9,2.4 -13.4,3.8 -1.3,0.4 -3.1,0.3 -3.3,-1.4 -0.2,-1.5 1.4,-1.5 2.6,-1.9 3.6,-1.3 7.3,-0.4 11.2,-0.9 -4.6,-2.2 -9.2,-1.6 -13.3,-0.3 -3.3,1 -5.3,-0.3 -5.9,-2.4 -0.5,-1.900004 0.8,-4.200004 3.3,-5.700004 3.7,-2.1 7.6,-1.5 11.4,-2.1 5.9,-1 11.3,-2.5 16.3,-6.1 3.2,-2.3 6.9,-3.9 10.9,-4.9 2.2,-0.6 5,-0.7 5.8,-3.6 0.7,-2.9 -1.4,-4.9 -5.5,-5.5 -11.4,-1.5 -17.1,-7.9 -17.1,-19.2 0,-2.6 0,-5.2 0,-7.8 z"
   id="path30222" /><path
   class="st0"
   d="m 50.902238,202.80791 c -1.2,-1.2 -2.3,-2.2 -3.7,-3.5 0.1,3.7 4.5,4.1 5.1,7.5 -2.8,-0.8 -3.7,-4.2 -6.7,-3.9 0.4,2.4 3.6,2 4,4.3 -0.6,0.6 -1,0.7 -1.6,0.3 -1.6,-0.9 -1.5,-0.5 -3.3,0.1 -1.9,0.7 -4.1,0.1 -6.1,-0.4 -0.5,-0.1 -1.1,-0.9 -1.3,-0.8 -3.8,1.8 -11,3.3 -14.4,2.1 -3.5,-1.3 -6.9,0 -10.3,-0.5 8.1,2.7 16.9,2.2 24.8,5.3 -4.2,2.2 -9.2,2.3 -13.9,3.6 -2.7,0.7 -4.8,-2 -7.8,-1.9 -2.3,0.1 -4.8,-0.5 -7.1999999,-0.5 -3.7,0 -5.7,-1.5 -6.3,-5.3 -0.7,-4.7 2.9,-4.8 5.6,-5.5 5.0999999,-1.3 10.3999999,-1.2 15.5999999,-2.2 6.8,-1.3 13.3,-4 20.1,-5.3 4.4,-1 7.1,1.3 7.4,6.6 z"
   id="path30224" /><path
   class="st0"
   d="m 127.50224,45.407906 c -1.9,6.4 -5.7,9.8 -11.1,11.9 2.5,1.2 5.8,-0.1 8.1,-2.9 4,-4.9 6.2,-10.6 6.3,-17 0,-1.9 0.9,-3.5 1.8,-5.5 3.4,11.7 -3.5,24.5 -11.8,29.6 -3.7,2.3 -8.6,2.9 -13,3.4 -6.1,0.7 -10.700002,4.3 -15.200002,7.6 -3.9,2.9 -8.2,5.5 -10.8,10.1 -0.9,1.7 -7.4,0.6 -7.9,-1.3 -0.3,-1.3 0,-2.7 2.1,-3.1 2.9,-0.5 4.4,-4 3,-6.5 -4.1,-7.4 -5.6,-14.6 0.1,-22 1.6,-2 1.5,-5.3 3.6,-7.5 -1.2,4.2 -2.1,8.5 -3.6,12.6 -1.5,4.2 -0.3,8.1 0.7,11.9 0.9,3.4 8.6,5 11.5,2.5 8.1,-6.9 16.900002,-12.8 26.800002,-16.7 3.7,-1.5 5.7,-4.7 9.4,-7.1 z"
   id="path30226" /><path
   class="st0"
   d="m 168.00224,4.1079065 c -4.2,8.0999995 -8.8,15.7999995 -17.7,19.5999995 -6,2.6 -7.2,8.9 -10.1,13.8 -0.7,1.1 1.6,1.8 2.8,1.9 4.7,0.2 8.5,-1.9 12,-4.7 1.8,-1.5 3.4,-3.2 4.7,-5.1 0.6,-0.9 1.3,-1.1 1.9,-0.8 1.2,0.5 0.4,1.2 -0.1,1.9 -5.9,8.4 -13.1,14.7 -23.9,15.5 -2,0.2 -2.8,-0.3 -2.9,-2.6 -0.1,-4.4 0.6,-8.2 3.3,-12.1 3.7,-5.4 5,-11.8 4.3,-18.5 -0.4,-3.1999995 0.9,-5.6999995 2.9,-8.2999995 1.3,3.4 -0.7,6.0999995 -0.5,8.9999995 0.2,2.5 0.9,4.8 3.1,5.8 2.1,0.9 4.1,-0.3 5.9,-1.6 5.5,-4.2 9.7,-9.1999995 14.3,-13.7999995 z"
   id="path30228" /><path
   class="st0"
   d="m 179.10224,216.40791 c -1.3,2.2 -2.3,2.1 -3.3,2 -11.3,-0.3 -22.1,3.2 -33.1,4.7 -5,0.7 -10.1,0 -15.1,1 -1.2,0.3 -2.5,-0.2 -2.6,-1.4 -0.1,-1.5 1.1,-2.5 2.5,-2.7 6.3,-1.2 12.6,-2.3 19,-3.3 5.4,-0.9 11.2,-1.1 16.2,-2.8 6.8,-2.3 10.6,3.4 16.4,2.5 z"
   id="path30230" /><path
   class="st0"
   d="m 55.902238,221.80791 c 5.8,-0.3 11.6,-1.1 17.4,-1.7 9,-1 18.3,-0.7 26.900002,-4.5 2.6,-1.1 4.2,1.6 6.3,2.4 0.3,0.1 0.4,1 -0.4,1.2 -0.4,0.1 -0.8,0.1 -1.2,0.1 -15.300002,-0.8 -30.400002,4.1 -45.700002,2.5 -1.1,-0.1 -2.2,0 -3.3,0 z"
   id="path30232" /><path
   class="st0"
   d="m 63.402238,7.6079065 c 1.8,2.8999995 0.9,5.4999995 1,7.9999995 0.1,2.1 0.3,4.5 2.2,5.3 2.5,1 0.5,2.1 0.2,2.7 -0.9,1.7 -1.7,0.2 -2.3,-0.5 -3,-3.1 -3.5,-8.6 -1.1,-15.4999995 z"
   id="path30234" /><path
   class="st0"
   d="m 79.902238,125.30791 c 0.9,2.4 -0.1,4.8 -1,6.6 -2.2,4.9 -2.7,9.7 -1.3,14.8 0.3,1.3 0.1,2.7 -0.2,4.1 -1,-4.2 -4.8,-7.7 -2.4,-12.7 2,-4.1 3.3,-8.4 4.9,-12.7 0.1,0 0,-0.1 0,-0.1 z"
   id="path30236" /><path
   class="st0"
   d="m 105.20224,226.50791 c -1.7,2.7 -4.6,1.3 -6.600002,2.6 -0.7,0.5 -1.5,-0.6 -1.7,-1.3 -0.3,-1 0.2,-1.8 1,-2.5 2.800002,-2.2 4.900002,-0.1 7.300002,1.2 z"
   id="path30238" /><path
   class="st0"
   d="m 127.60224,249.80791 c 2.2,-4.6 6.1,-5.7 8.3,-8.6 0.5,-0.7 1.1,-0.2 1.7,0.3 0.9,0.8 0.1,1.1 -0.3,1.5 -2.4,2.7 -5.1,4.9 -9.7,6.8 z"
   id="path30240" /><path
   class="st0"
   d="m 122.90224,249.00791 c 2.8,-3.6 5.9,-7 10.1,-9.1 0.8,-0.4 1.1,-0.4 1.6,0.2 0.4,0.4 0,0.6 -0.3,0.8 -4,2.4 -6.9,6.3 -11.4,8.1 z"
   id="path30242" /><path
   class="st0"
   d="m 122.40224,222.50791 c -1,4.6 -5.9,8.3 -10.1,8.2 3.6,-2.5 6.7,-4.7 10.1,-8.2 z"
   id="path30244" /><path
   class="st0"
   d="m 120.30224,230.70791 c 2.2,-2.2 3.5,-5.9 8.2,-4.4 -2.9,1.5 -5,4 -8.2,4.4 z"
   id="path30246" /><path
   class="st0"
   d="m 112.50224,209.40791 c 2.2,0.1 3.8,-0.6 4.9,1.3 -1.9,0.9 -3.3,0 -4.9,-1.3 z"
   id="path30248" /><path
   class="st1"
   d="m 73.302238,204.40791 c 2.1,0.3 2.2,2.6 3.5,3.5 3.8,2.6 8.1,3.9 12.8,4 1,0 1.6,-0.4 2.1,-1.1 1.6,-2.4 3.5,-2.5 5.7,-1 -1.6,0.3 -2.1,1 -3.4,3.4 -0.3,0.6 -1.3,0.9 -2.1,1 -6.2,1.4 -16,-3.4 -18.8,-9.2 0,-0.1 0.1,-0.3 0.2,-0.6 z"
   id="path30250" /><path
   class="st1"
   d="m 59.202238,175.30791 c -0.2,1.3 -0.4,2.3 0,3.6 0.9,3 -1.9,6.9 -4.9,7.8 -1.5,0.4 -2.2,-0.5 -2.2,-1.7 0,-3.9 -0.9,-8.1 3.2,-12.2 -0.2,4.3 -2.8,7.5 -1.2,11.1 2.6,-0.7 3.4,-2.5 3,-5.2 -0.2,-1.3 -0.4,-3 2.1,-3.4 z"
   id="path30252" /><path
   class="st1"
   d="m 50.002238,168.10791 c -0.3,1 -2.9,-0.1 -1.4,1.9 1.4,1.8 0.4,4.1 1.2,5.9 0.5,1.2 -0.2,1.5 -0.8,1.7 -1,0.3 -1.2,-0.5 -1.1,-1.2 0.9,-4.4 -2.4,-7.6 -4,-11 -1.9,-3.8 0.3,-5.2 1.4,-8 1.7,1.7 0,2.5 -0.2,3.5 -0.4,1.4 -1.6,2.9 1.3,2.2 0.6,-0.1 1.5,0.7 1.2,1.1 -3.6,4.3 0.8,3.2 2.4,3.9 z"
   id="path30254" /><path
   class="st1"
   d="m 84.902238,183.60791 c -1.6,2.7 -1,4.6 0.1,6.5 -2.6,-1.5 -5.9,-2.1 -6.5,-5.6 -0.6,-3.6 0.3,-6.8 4.1,-9.1 -0.1,4 -5,7.3 -1.2,11.3 0.8,-1.1 1.3,-2.4 3.5,-3.1 z"
   id="path30256" /><path
   class="st1"
   d="m 87.802238,163.20791 c -2.7,3.3 -4.4,7 -8.5,8.4 -0.5,0.2 -1,0.7 -1.4,0.1 -0.5,-0.8 0,-1 0.7,-1.4 1.5,-0.9 4.4,-1.1 2.4,-4.1 2.4,-0.6 3.6,-3.8 6.8,-3 z"
   id="path30258" /><path
   class="st1"
   d="m 136.50224,201.10791 c -3.5,1.9 -5,-1.1 -7.3,-1.4 -0.3,0 -0.4,-1.1 -0.6,-1.7 0.5,-0.1 1.2,-0.4 1.6,-0.2 1.9,0.9 3.8,2 6.3,3.3 z"
   id="path30260" /><path
   class="st1"
   d="m 83.602238,161.80791 c 1.1,-1.6 4.1,-2.1 2.5,-5 -0.1,-0.1 0.8,-0.8 1.3,-1.2 -0.3,1.4 2.5,1.7 1.3,3.3 -1.2,1.7 -2.3,3.7 -5.1,2.9 z"
   id="path30262" /><path
   class="st1"
   d="m 41.502238,157.30791 c 1.6,-2.9 2.9,-4.9 4.8,-6.5 0.3,-0.2 0.8,-0.4 1.1,-0.3 0.2,0.1 0.3,0.6 0.4,1 -2.5,1.1 -2.2,5 -6.3,5.8 z"
   id="path30264" /><path
   class="st1"
   d="m 61.402238,182.30791 c 1.1,3 -1.2,4.8 -0.6,7.2 -1.8,-3.2 -1.8,-3.4 0.6,-7.2 z"
   id="path30266" /><path
   class="st1"
   d="m 163.60224,183.20791 c 0.6,-0.4 1.2,-0.5 1.9,0 -1.3,1.3 0.1,3.3 -1.1,4.5 -0.4,0.4 -0.9,-0.1 -1.4,-0.5 -1.1,-1 -0.4,-1.6 0.3,-2.3 0.4,-0.6 1,-1 0.3,-1.7 z"
   id="path30268" /><path
   class="st1"
   d="m 163.60224,183.10791 c -0.6,-2.7 0.4,-4.2 3.5,-4.6 -1.3,1.8 -2.4,3.2 -3.5,4.6 0,0.1 0,0 0,0 z"
   id="path30270" /><path
   class="st1"
   d="m 116.40224,150.20791 c 2.3,-1.9 4,-0.4 5.7,0 -1.7,0 -3.4,0 -5.7,0 z"
   id="path30272" /><path
   class="st1"
   d="m 76.002238,112.90791 c 1,-1.1 1.4,-2.2 2.7,-2.2 0.2,0 0.6,0.6 0.6,0.9 -0.5,1.4 -1.5,1.8 -3.3,1.3 z"
   id="path30274" /><path
   class="st1"
   d="m 132.90224,190.90791 c 1.5,-0.7 2.6,-1.1 3.6,0 0.1,0.1 0,0.6 -0.1,0.7 -1.1,0.4 -2.2,0.7 -3.5,-0.7 z"
   id="path30276" /><path
   class="st1"
   d="m 87.102238,187.80791 c 1,0.9 2.1,1.4 2.1,2.6 0,0.2 -0.6,0.6 -0.8,0.6 -1.4,-0.5 -1.9,-1.4 -1.3,-3.2 z"
   id="path30278" /><path
   class="st1"
   d="m 167.20224,175.60791 c -0.9,1.6 -2.4,1.7 -4.6,2.8 1.7,-2.1 2.4,-3.6 4.6,-2.8 z"
   id="path30280" /><path
   class="st1"
   d="m 219.30224,172.40791 c -1.6,-1.1 -2.2,-2.1 -2,-4.1 1.6,1.1 2.2,2.1 2,4.1 z"
   id="path30282" /><path
   class="st1"
   d="m 218.80224,197.80791 c 0.8,-1.8 1.8,-1.8 2.7,-1.6 0.2,0 0.5,0.8 0.4,1 -0.8,1.1 -1.9,0.2 -3.1,0.6 z"
   id="path30284" /><path
   class="st1"
   d="m 71.002238,147.90791 c 0.5,1.4 -1,2 -1.2,3.1 0,-1.2 -1.5,-3.2 1.4,-3 -0.1,0 -0.2,-0.1 -0.2,-0.1 z"
   id="path30286" /><path
   class="st1"
   d="m 48.402238,145.20791 c 0.8,1.6 -0.4,2.1 -1.6,3 -0.2,-1.7 0,-2.8 1.7,-2.9 z"
   id="path30288" /><path
   class="st1"
   d="m 227.00224,173.40791 c -0.1,1.4 0.1,2.4 -0.2,3.2 -0.2,0.4 -0.9,-0.3 -1.1,-0.6 -0.9,-1.3 0.4,-1.6 1.3,-2.6 z"
   id="path30290" /><path
   class="st1"
   d="m 221.50224,171.30791 c 1.3,0.8 1.7,1.7 1.1,3 -1.4,-0.5 -1.7,-1.5 -1.1,-3 z"
   id="path30292" /><path
   class="st1"
   d="m 59.402238,168.30791 c 1.3,-0.2 1.8,-1.6 3.2,-1 -0.6,1.4 -1.5,1.7 -3.2,1 z"
   id="path30294" /><path
   class="st1"
   d="m 48.602238,145.40791 c 0.9,-0.5 0.6,-2.1 2.6,-2.5 -0.9,1.3 -0.2,3.3 -2.7,2.4 -0.1,-0.1 0.1,0.1 0.1,0.1 z"
   id="path30296" /><path
   class="st1"
   d="m 76.602238,115.30791 c 1.5,-0.3 2,-1.5 3.3,-1.2 -0.3,1.6 -1.3,1.7 -3.3,1.2 z"
   id="path30298" /><path
   class="st1"
   d="m 56.702238,93.407906 c -0.3,-4.6 3.5,-2.8 5.2,-4 2.4,-1.8 4.7,-2.9 7.3,-0.9 2.2,1.7 4.2,3.8 6.1,6.2 -2.8,-1.5 -4.6,-0.1 -6.6,1.3 -1.9,1.4 -4.2,0.6 -5.6,-0.7 -2,-1.7 -3.8,-2.6 -6.4,-1.9 z"
   id="path30300" /><path
   class="st1"
   d="m 104.70224,85.607906 c -1.6,-0.7 1.5,-2.6 -0.9,-3.4 -0.8,-0.2 -1.9,-0.9 -2,0 -0.3,4.6 -3.600002,1.1 -5.200002,2.1 0.7,1.3 1.8,2.3 3.1,2.6 -2.8,3.3 -5.9,-1.1 -9,0.5 4.3,-6.9 10.800002,-9.5 17.600002,-7.6 1.5,0.4 0.2,1.2 0.6,1.7 0.6,0.6 0.9,1.7 -0.5,1.6 -2,0.1 -2.4,2 -3.7,2.5 z"
   id="path30302" /><path
   class="st1"
   d="m 61.102238,82.507906 c -1,2 -3,2.6 -3.4,5.4 2.6,-2.7 4.8,-4.7 8.2,-4.2 -3.8,0.8 -6,4.3 -9.5,5.6 -0.5,0.2 -0.9,0.5 -1.3,-0.1 -0.9,-1 0.5,-0.8 0.6,-1.2 1.1,-2.3 1.3,-5.5 5.4,-5.5 z"
   id="path30304" /><path
   class="st1"
   d="m 63.102238,100.40791 c -1.6,-1.500004 -2.4,-2.200004 -3.4,-3.100004 -0.5,2.800004 3.1,3.100004 3,5.400004 -3.8,-1.2 -3.4,-2.1 -5.6,-8.000004 2.7,1 5.3,1.4 6,5.700004 z"
   id="path30306" /><path
   class="st1"
   d="m 26.202238,94.607906 c 0.1,3.4 -2,3.6 -3.9,4.3 -0.6,-3.2 1.9,-3.1 3.9,-4.3 z"
   id="path30308" /><path
   class="st0"
   d="m 66.202238,93.907906 c 1.9,0.2 0.9,-3.1 3,-1.9 0.6,0.3 0.4,1.6 -0.3,2.2 -1.5,1.3 -2.9,1.1 -4.3,-0.3 -0.5,-0.5 -1.6,-1.4 -0.7,-1.9 2.2,-1.3 0.8,2.5 2.3,1.9 z"
   id="path30310" />
</svg>
