<?xml version="1.0" encoding="UTF-8" standalone="no"?>
<svg
   xmlns:dc="http://purl.org/dc/elements/1.1/"
   xmlns:cc="http://creativecommons.org/ns#"
   xmlns:rdf="http://www.w3.org/1999/02/22-rdf-syntax-ns#"
   xmlns:svg="http://www.w3.org/2000/svg"
   xmlns="http://www.w3.org/2000/svg"
   xmlns:sodipodi="http://sodipodi.sourceforge.net/DTD/sodipodi-0.dtd"
   xmlns:inkscape="http://www.inkscape.org/namespaces/inkscape"
   inkscape:version="1.0 (4035a4f, 2020-05-01)"
   height="252.1396"
   width="201.55194"
   sodipodi:docname="tiger-rampant.svg"
   xml:space="preserve"
   viewBox="0 0 201.55194 252.1396"
   y="0px"
   x="0px"
   id="Layer_1"
   version="1.1"><metadata
   id="metadata33137"><rdf:RDF><cc:Work
       rdf:about=""><dc:format>image/svg+xml</dc:format><dc:type
         rdf:resource="http://purl.org/dc/dcmitype/StillImage" /><dc:title></dc:title></cc:Work></rdf:RDF></metadata><defs
   id="defs33135" /><sodipodi:namedview
   inkscape:current-layer="Layer_1"
   inkscape:window-maximized="0"
   inkscape:window-y="25"
   inkscape:window-x="0"
   inkscape:cy="157.6677"
   inkscape:cx="101.20073"
   inkscape:zoom="2.52"
   fit-margin-bottom="0"
   fit-margin-right="0"
   fit-margin-left="0"
   fit-margin-top="0"
   showgrid="false"
   id="namedview33133"
   inkscape:window-height="480"
   inkscape:window-width="820"
   inkscape:pageshadow="2"
   inkscape:pageopacity="0"
   guidetolerance="10"
   gridtolerance="10"
   objecttolerance="10"
   borderopacity="1"
   bordercolor="#666666"
   pagecolor="#ffffff" />
<style
   id="style33032"
   type="text/css">
	.st0{fill:#010101;}
	.st1{fill:#FFFFFF;}
</style>
<g
   transform="translate(-48.799268,-42.3323)"
   id="g33130">
	<g
   id="g33128">
		<path
   id="path33034"
   d="m 64.9,135.5 c -1.6,-1.2 -2.4,-3.3 -5,-3.6 -2.7,-0.3 -5,-1.5 -5.1,3 0,2.3 -1.7,2.8 -3.7,0.9 -2.7,-2.7 -3.3,-5.1 -0.3,-8 2.7,-2.6 5.5,-5.2 10.5,-4.7 -3.2,-2.1 -6.9,-3.1 -6.5,-7.4 0,-0.4 -0.8,-1.1 -1.4,-1.3 -1.6,-0.6 -5,0.3 -3,-3 1.3,-2.2 3.2,-4.4 6.9,-2.5 4.3,2.2 8.4,4.1 10.1,9.6 0.4,-1.8 0.3,-3.5 1.1,-4.2 2.1,-1.8 1.2,-2.9 -0.3,-4.4 -0.9,-1 -3.6,-1.7 -1.6,-3.8 1.6,-1.6 3.8,-1.5 5.3,-0.2 2.2,1.9 3.9,4.4 5.8,6.6 2.6,3.1 0,5.2 -1.3,7.8 -1.4,2.8 1.6,2.7 3.2,3.5 0.5,-7 2.6,-14.3 -4.2,-19.7 -0.5,-0.4 -0.6,-1.6 -0.4,-2.3 1.5,-4.6 1.5,-4.5 -3.5,-4.6 -4.3,-0.1 -6.9,-2.5 -6.7,-6 0.1,-1.4 0.7,-2.7 1.9,-1.9 3,1.9 4.7,-1 6.7,-1.4 -0.1,-5.4 -6.5,-5.2 -8.1,-9.4 -0.3,-0.8 -2.1,-0.3 -3,0.8 -0.7,0.8 -1.4,1.4 -2.5,0.5 -1,-0.9 -1.1,-1.9 -0.8,-3.1 1.1,-3.7 5.5,-6.3 9.3,-5 1.3,0.4 2.5,0.5 3.8,0.7 1.8,0.3 1.4,-1.5 2.2,-2.1 -4.2,-2.5 -0.2,-8 -3.9,-10.7 -0.8,-0.6 -2.2,-1.4 -1.5,-2.8 0.5,-1.1 1.7,-1.3 2.9,-1.4 5.9,-0.5 10.5,4.3 11.1,11.5 1.4,-1.6 1.4,-1.6 2,-8.2 6.7,1.8 9.5,10.1 4.6,15.1 -2.8,2.9 -2.7,5 -0.8,7.8 3.5,5.1 3.7,11.2 5.7,16.8 1.1,3.1 1.2,5.4 5.3,5.2 1.5,-0.1 3.2,1.5 5,2.4 -0.6,0.5 -1,1.1 -1.6,1.2 -1.6,0.3 -3.1,0.6 -4.2,1.9 0.9,0.6 0.6,2 2,2.5 2.1,0.8 4.6,1.8 5.8,-0.1 5.6,-8.9 15.1,-9.7 23.8,-12 2.2,-0.6 4.7,-1.4 4.4,-3.4 -0.2,-1.4 -3,-2.4 -5.1,-2.7 -3.3,-0.5 -6.4,1.4 -9.7,1.1 -2.5,-0.3 -4.7,-0.5 -6.9,-1.9 -4.5,-2.6 -7.1,-7.8 -12.7,-9.1 -1.1,-0.2 -2.7,-2.9 -1.7,-4.6 1.1,-1.7 2.7,0 3.9,0.5 3.7,1.4 7.4,2.4 11.6,1.8 -1.5,-2.4 -3.2,-4.6 -2.8,-7.6 0.5,-3.6 -1.3,-4 -4,-2.7 -0.9,0.4 -1.6,1.1 -2.5,1.5 -1.5,0.7 -2.7,3 -4.6,1.2 -2.2,-2.1 -0.2,-4 1,-5.5 4,-5.5 10.1,-7.5 16.3,-8.6 3.2,-0.6 6.3,-1.8 10.3,-1.1 -2,-3.2 -4.8,-5.7 -3.3,-9.2 0.7,-1.7 2.2,-3.1 4.6,-4 -0.3,5.7 2.1,9.2 8,10.4 -2.1,-4.3 0.2,-7 2.9,-9.4 2.4,-2 5.1,-2.8 7.9,-0.1 -0.5,0.5 -1.3,1.2 -1.8,2 -0.8,1.4 -3.5,1.8 -2.5,4.2 0.9,2.2 2.8,2.6 4.8,3.3 1.6,0.6 1.7,-0.2 2.2,-1.1 3.2,-5.1 7.3,-9 13.1,-11.3 1.7,-0.7 3.4,-1.2 4.7,-0.6 2.2,1 -0.7,2.3 -0.2,3.7 0.7,2.2 -0.7,4.4 -1.3,7.5 5.9,-4.2 12.2,-4.1 17.8,-6.5 0.7,-0.3 1.3,-1.4 2.1,-0.7 0.9,0.7 0.7,1.9 0.1,2.7 -3.7,4.7 -3.9,11.3 -8.4,15.6 -1.8,1.8 -2.3,4 0.5,5.7 0.1,0.1 0.2,0.2 0.3,0.4 5.4,5.5 5.4,5.5 11.2,1.5 1,4.1 1,4.1 -3.4,8.5 -1.6,1.6 -3.6,2.9 -1.3,5.5 1.6,1.7 -0.2,3.6 -0.8,5 -1.5,3.7 -0.7,6.2 2.7,8.1 3,1.7 2.4,3.7 -0.3,4.6 -3,1 -4.3,2.9 -5.2,5.7 -1.1,3.8 -3.9,6.6 -6,9.9 -1.5,2.3 -0.3,7.2 2.2,8.3 0.4,0.2 1.1,0.3 1.3,0.1 0.7,-0.6 0.7,-2.8 2.1,-1.2 1,1.1 -0.1,2.4 -1.1,3.4 -3.2,2.7 -6.5,2.9 -9.7,0.3 -1.1,-0.9 -1.8,-2.4 -3.1,-4.3 -1,6.3 -1,6.3 4.4,12.4 -2.6,1.2 -5.2,0.1 -8.6,1 8.8,6.8 15.4,15.3 24.1,21.5 5.8,4.2 11,9.1 14,15.5 4.7,10 13.1,16.7 20.1,24.6 3.3,3.6 8.9,3.6 13.3,1 4.5,-2.6 5.3,-7.5 4.6,-11.5 -1,-6.2 -3.3,-12.4 -9.1,-16.3 -0.5,-0.4 -1,-0.8 -1.6,-1.1 -3,-1.9 -6.4,-1.3 -7.6,1.5 -1,2.3 1,4.9 4.5,4.8 -2.7,4.1 -6.1,3.3 -9.2,1.6 -4,-2.1 -4.3,-6.1 -3.6,-10 0.8,-4.6 5.6,-6.8 14.5,-7 -2,-5.1 -4.6,-9.8 -5.7,-15 -2.5,-11.7 -0.3,-22.9 3.6,-34 3,-8.5 6.8,-16.8 6.4,-26.2 -0.2,-4.5 -4.2,-10 -8,-10.7 -4.2,-0.8 -7.4,1 -9.8,4.4 -2.3,3.2 -0.2,5.4 2.1,7.3 0.8,0.6 1.9,0.4 2.7,-0.3 1.9,-1.7 0.3,-3.3 -0.2,-4.8 2.6,-1.4 4.5,-0.4 5.7,1.6 1.6,2.4 2.2,5 0.5,7.8 -1,1.6 -2.2,3.6 -3.7,3.8 -7,0.7 -5.3,5.8 -5.4,10 -0.2,7 -6.6,11.3 -12.6,8.4 -1.8,-0.8 -2.8,-2 -3.6,-3.7 -0.5,-1.1 -1.3,-2.2 -0.3,-3.1 1,-0.9 1.7,0.5 2.4,1 2.1,1.8 3.7,0 5.2,-1 1.5,-1 0.7,-2.3 0.1,-3.9 -1.1,-2.9 -3.1,-5 -5.2,-7 -11.7,-11 -4.8,-27 8,-29.8 -3.5,-3 -3.8,-6.5 -2,-10.4 1.9,-4 5.4,-4 9.1,-4.4 3.6,-0.4 7.1,-1.1 10.8,-0.9 5.3,0.4 8.5,5.1 6.2,9.3 -0.6,1.1 -1.4,1.9 -2.8,1.7 -1.1,-0.2 -1.9,-0.9 -2.1,-1.9 -0.2,-1.8 0,-4.4 -2.7,-2.7 -1.7,1 -4.8,2.5 -2.7,5.8 0.7,1.1 0.9,2.3 2.5,2.8 16.3,5.5 18,22.4 14.5,36.8 -1.9,7.8 -5.6,15 -8,22.7 -0.4,1.5 -0.6,2.7 -0.5,4.8 3,-3.2 5.6,-5.8 10,-5.4 5.2,0.5 8.4,4 7.9,9.1 -0.1,1.3 -0.5,2.4 -1.6,2.8 -1.4,0.6 -2.2,-0.8 -2.7,-1.7 -1.6,-2.4 -2.7,-5.6 -6.5,-2.9 -1.9,1.4 -3.3,9.4 -2.1,11.1 0.9,1.2 2.2,0.2 3.2,0.6 2.9,1.2 6.6,1.7 7.5,5.4 0.6,2.5 -0.1,4.8 -2.3,6.6 -1.4,1.1 -2.7,1.1 -4.1,0.8 -1,-2 4.6,-1.3 1.7,-4.2 -1.2,-1.2 -2.4,-2.5 -4.2,-1.1 -1.9,1.5 -2.3,3.1 -1.5,5.6 2.6,7.9 8.7,13.7 11.1,21.7 4.5,14.7 -2.4,28.8 -14.4,31.4 -8.1,1.7 -15.6,1 -21.7,-5.3 -1.9,-2 -3.8,-4 -6,-6.4 -1.5,9.9 0.9,14.5 8.3,13.5 -1.9,3.7 -3.7,7.1 -8,7.9 -2.1,0.4 -1.5,0.8 -1.2,2.5 0.7,3.8 2.2,7.4 2.5,11.4 0.2,2.9 2.4,5.2 5.2,5.9 2.8,0.6 5.9,1.4 8.2,-1.6 0.6,-0.8 1.3,-2 2.7,-2 1.6,5.7 1.4,5.9 -2.8,9.2 -1,0.8 -2.3,1.5 -2.3,3 -0.1,4.6 -3,8.1 -4.9,11.9 -1,2 -1.6,3.1 0.2,4.6 1,0.9 2.3,1.9 1.6,3.3 -1,1.8 -3.4,1.3 -4.4,0.7 -3.1,-1.6 -4.8,-0.2 -6.7,1.8 -1.9,2 -3.2,3.4 -1.9,6.7 1.1,2.9 0.6,6.2 -2.4,9 -3.3,3 -4.1,0.6 -4.2,-1.6 -0.2,-3.2 -2.4,-4.3 -4.6,-4.6 -3,-0.4 -2.6,2.3 -2.6,4.3 0,1.9 -1.5,2.4 -2.8,2.9 -1.9,0.8 -4,1.1 -4.8,3.6 -0.4,1.2 -1.9,1.5 -3,0.8 -1.2,-0.8 -2.4,-1.7 -2.5,-3.4 -0.3,-3.6 1,-6.4 4.1,-8.7 -1.3,-0.8 -2.3,-1 -3.2,0 -2.3,2.5 -4.5,4.8 -8.4,2.6 -1.5,-0.9 -2.4,1.3 -3.4,2.3 -2,2 -2.7,1.1 -3,-1.1 -0.3,-2.4 0.1,-4.7 1.6,-6.5 1.1,-1.3 1.7,-2.7 2.4,-4.2 3.3,-7.1 9.4,-9.4 16.8,-5.7 2.7,1.4 4,0.9 5.2,-1.7 1.6,-3.5 3.7,-6.8 5.3,-10.2 1.4,-2.9 1.2,-5.3 -2.4,-6.7 -1.6,-0.6 -3.3,-1.5 -4.6,-2.6 -3,-2.5 -5.4,-3.5 -8.3,0.4 -1.7,2.3 -4.7,2 -7.6,1.7 0,-3.9 4.6,-5 5.6,-8.7 -5.7,4.2 -11.4,5.2 -14.9,2.5 -2.6,-2 -4.2,-4.9 -2.9,-8.2 1,-2.5 2.3,-5.4 6.5,-4.1 -0.5,0.6 -1.1,1.1 -1.3,1.7 -0.7,1.9 -1.3,3.9 0.5,5.4 1.2,1 2.9,1 4.1,-0.2 1.6,-1.6 2.2,-3.4 0.9,-5.6 -1.4,-2.3 -2.8,-4.7 -3.3,-7.4 -2.3,0.9 -4.5,1.7 -6.7,2.7 -1.1,0.5 -3.1,0.3 -2.3,3 0.3,1.2 -2.3,2.3 -3.8,1.8 -2.3,-0.7 -4.6,-2 -5.9,0.9 -1.6,3.5 -4.9,6.9 -2.1,11.2 0.5,0.8 1.2,1.5 1.8,2.3 1.5,2 7.1,1.1 5.2,4.7 -2.4,4.7 -10.4,5.3 -14.3,2.2 -0.6,-0.5 -1.3,-1.1 -1.8,-1.7 -2.8,-3.6 -4.8,-2.6 -6.1,1.1 -1.2,3.3 -3.4,2.7 -4.2,0.4 -2.2,-6.2 -8.8,-6.6 -12.7,-10.4 -1.4,-1.4 -3.2,-0.6 -4.8,0.7 -3.1,2.4 -6.4,4.6 -10.7,3.7 -1.5,-0.3 -3.5,-1.6 -1.9,-2.8 3.7,-2.6 2.8,-6.9 5.3,-10.2 -3.8,0.6 -7.1,3.4 -10.9,1.1 -1.5,-0.9 -2.6,1 -3.6,2.1 -0.8,0.8 -0.5,2.9 -2.3,2.2 -1.3,-0.5 -2.1,-1.8 -2.1,-3.6 -0.2,-4.2 3.4,-8.1 9,-9.4 -2.1,-2.2 -6,-1.1 -7.1,-4.2 -2,0.3 -2.5,4.3 -4.8,2 -2.3,-2.3 -1.2,-4.8 1.1,-6.8 0.6,-0.5 1.3,-1.3 2,-1.4 4.5,-0.8 8.1,-3.5 12.3,-5 4.3,-1.6 9.5,0.4 10.4,4.7 1,4.6 3.1,7.1 7.8,7.6 0.9,0.1 1.7,0.8 2.6,1.3 4.4,2.6 8.8,5.1 13.5,0.7 -2.6,-3.5 -1.5,-7.9 -1.4,-12.1 0,-1.5 0.2,-2.4 -1.3,-2.7 -3,-0.5 -4.7,-2.7 -6.9,-5.2 3.1,0 5.7,0 8.6,0 -2.5,-5.1 -2,-5.9 4.3,-7.6 -2.9,-3 -5.5,-6.5 -3.5,-10.3 2.3,-4.3 7,-3.5 11.3,-3.3 -0.2,0.5 -0.3,1 -0.6,1.3 -1.9,1.2 -4.9,2.1 -3.9,4.9 0.9,2.5 3.5,4.1 6.4,3.7 9,-1.1 17.6,2.3 26.5,2.1 1.1,0 2.1,0.5 3.5,0.9 -1.3,-4 -2.4,-7.8 -3.8,-11.6 -0.8,-2.2 -2.2,-4.4 -4.3,-5.1 -5.5,-2.1 -11.3,-3.4 -16.7,-6 -0.3,-0.1 -0.8,-0.3 -0.9,-0.1 -3.7,4.6 -5.2,0.9 -7,-1.8 -1.1,-1.6 -4.4,-1.9 -4.5,-1.7 -2.8,5.5 -6.1,1.4 -8.6,0.2 -3,-1.4 -7.2,-1.2 -8.8,-5.3 -0.6,-1.6 -2.3,-1.7 -3.9,-1.5 -4,0.6 -8,1.3 -11.9,2 -0.5,0.1 -0.8,0.5 -1.3,0.7 -6,2.7 -6.8,7 -1.9,11.1 -4.6,0.6 -7,-1.7 -9,-5.2 -2.5,-4.1 0.8,-6.3 3,-9.5 -3,0.3 -5.3,-1 -7.5,-2.3 -3.9,-2.4 -4.2,0.8 -4.9,3.3 -2.9,-1.1 -4.2,-3 -3.5,-5.5 1.6,-5.6 -2.9,-9 -4.5,-13.4 -0.7,-2 -2.9,-1.4 -4.8,-0.6 -6,2.5 -7.7,1.9 -12.1,-4.3 5.7,0.4 7.3,-3.5 9.9,-6.2 z"
   class="st0" />
		<path
   id="path33036"
   d="m 108.8,130.8 c -2.8,0 -2.5,3.1 -4.3,4.2 -1.1,0.6 -1.6,3 -3.5,1.5 -1.9,-1.5 0.7,-2 0.8,-3 0.1,-0.6 -0.1,-1.3 -0.2,-1.9 3.3,-0.8 5.9,-2.1 4.6,-6.4 -0.7,-2.3 0.7,-4 2.2,-5.6 -1.9,1.6 -2.9,3.6 -2.4,6.1 0.7,3.5 -1.2,5.2 -4.4,6 -1.1,1.2 -2.5,1.9 -5.6,2.6 3.4,-2.5 2.8,-6.1 5.9,-7.6 0.2,-0.1 1.8,-1.7 -0.4,-1.7 -1.2,0 -3.3,-1.9 -3.4,0.7 0,2.9 -1.4,4.9 -2.6,7.1 -1.8,3.2 1.6,3.1 2.8,3.9 2.5,1.7 5,3 1,5.6 -7.9,-6.2 -7.9,-6.2 -3.2,-15.5 -1.8,1.9 -3.5,3.9 -5.3,5.8 -0.9,0.9 -1.8,2.3 -3.2,0.6 -1.2,-1.5 0.6,-2.1 1.2,-2.5 4.1,-2.5 6.6,-7 10.9,-9.3 -3.7,0.4 -6.4,2.5 -8.8,5.1 -1.5,1.6 -3,3.5 -5.6,3.3 -0.4,0 -1.1,-0.9 -1,-0.9 1.4,-1.8 1.7,-4.6 4.5,-5.2 0.4,-0.1 0.7,-0.7 1.2,-1.4 -3,-0.1 -4.7,1.5 -6,3.6 -0.5,0.8 -0.7,1.5 -1.7,1 -0.5,-0.3 -1,-0.9 -1.1,-1.5 -0.4,-3.2 2.8,-7 6.6,-7.6 -2,-1.2 -3.9,-1.6 -6,0.5 0.5,-3.2 3,-3.8 3.9,-5.7 -0.9,-1.3 -2.9,1.6 -3.4,-0.8 -0.1,-0.5 1.5,-1.2 2.8,-2.2 -4.2,-0.9 -5.8,-4.2 -8,-6.9 2.2,-1.5 3.5,1.2 5.7,1.1 -0.2,-2.9 -3.1,-4 -4.4,-6.2 -1.9,-3.4 3.4,-3.5 2,-6.4 -2.6,0.2 -3.3,3.7 -6,3.4 -1.2,-5.1 -1.2,-5.1 4.2,-6.9 -1.3,-0.7 -2.5,-1.4 -3.8,-2.1 0.4,-2.5 2.6,-0.6 3.6,-1.8 -0.2,-0.3 -0.3,-0.9 -0.6,-1 -1.7,-0.6 -3.5,-0.8 -5,-1.7 -1,-0.6 -3.8,-0.5 -2.7,-2.4 0.8,-1.5 -0.3,-3.7 1.5,-4.4 1.9,-0.7 2.8,0.8 3.5,2.5 0.3,0.8 1.1,1.8 2.7,0.9 -0.9,-2.6 -3,-5.3 -0.4,-8.1 0.1,-0.2 -2.2,-2.5 -3.6,-4.2 2.5,0 4.5,0 6.6,0 -1.3,5 0.2,9 3.7,12.7 5.2,5.4 5.5,12.9 7.6,19.6 0.9,2.9 1.8,5.7 0.4,9.3 -1.7,4.4 1.8,8 5.4,10 2.6,1.4 4.2,2.4 4,5.5 0,0.5 -1.2,1.5 0.3,1.7 0.4,0.1 1.2,-0.4 1.2,-0.7 0.2,-5 5.9,-5.2 7.9,-9.4 -3.7,1.1 -6.7,4.2 -10.5,2 -1.7,-1 -3.4,-1.9 -4.7,-3.5 -1.3,-1.7 -2.5,-3.7 -1.6,-5.8 1.1,-2.5 3.4,-1.2 6.6,-1.7 -3.1,1.5 -4.4,2.8 -3.8,5.1 0.6,2.4 2.7,3.4 4.7,3.9 3.4,0.9 7,0.3 8.7,-2.9 2.8,-5.3 7.8,-6.5 12.8,-7.8 5.3,-1.4 11.2,-0.8 14.9,-6.4 1.1,-1.7 3.3,0.4 4.4,1.5 6.8,6.5 15.1,4.1 17.7,-2.8 0.7,-1.8 1.2,-3.9 4.1,-3.6 0.4,0.1 3.4,-1.3 1.8,-2.9 -2.2,-2.1 -2.3,-3.9 -1.2,-6.4 0.3,-0.7 0.4,-2 0,-2.4 -5.8,-6 1.9,-5.2 3.6,-7.4 -3.8,-0.7 -4.5,-0.5 -6.8,1.3 -2,1.6 -3.4,3.1 -0.3,5 1.3,0.8 2.4,2.2 1.4,3.7 -1.9,2.7 0.1,4.6 0.9,6.8 -4.7,0.3 -5.8,-0.8 -4.9,-5.4 -0.8,0.7 -1.3,1.2 -2,1.7 -0.5,0.3 -1.1,0.6 -1.6,0.8 1.8,3.2 5.9,5.9 2.1,10.3 -0.4,-2.1 -0.2,-4.7 -3.3,-5.5 0.2,2.3 3.8,4 0.7,6.9 -1.6,1.5 -2.6,2 -4.8,1.6 3.4,-2.9 1.8,-5.2 -0.6,-8 -0.3,2.5 2.3,5 -0.8,7 -1.2,-1.7 0.6,-4.4 -2,-5.6 -1.1,1.7 2.4,4 -0.5,5.3 -5.6,-5.2 -12.3,-8.4 -19.8,-7.2 -6,1 -7.4,1.1 -14.4,-3.5 7.5,2 14.1,1.1 20.9,-0.4 3.1,-0.7 6.9,1.1 10.2,2.1 3.1,1 6,0.8 7,-2.4 0.9,-3.1 -0.1,-6.2 -3.7,-7.5 -4.1,-1.5 -8.2,-3 -12.7,-2.6 -10.1,0.9 -18.1,-1.9 -21.7,-13.1 -0.1,6.4 -6.4,3.4 -8.5,6.6 2.5,-4.2 5.7,-7.1 10.8,-8 9.2,-1.7 18.2,-3.9 27.6,-6 0.1,-1.8 -3.6,-2.9 -1.8,-5.8 1.2,-2 2.5,-3.7 4.9,-4.6 -1.9,2.6 -4.3,5.1 -1.6,8.4 2.1,2.6 4.8,3.5 8.2,3.7 3.1,0.1 6.2,1.4 9.4,2.2 -0.6,2.5 -4.2,3.3 -4.1,6.8 8,-7.6 14.6,-17.2 27.5,-16.6 -1,3.1 -3.4,4.2 -6.5,4.4 -7.2,0.5 -11.5,4.2 -12.9,10.8 -0.3,1.2 0.4,1.9 0.7,1.9 2.3,0 4.8,1.4 6.8,-0.9 0.4,-0.5 0.9,-0.8 1.5,-1.3 -1.1,-1.3 -2.8,0.1 -4.1,-1 2.3,-0.7 4.5,-1.4 6.7,-2.1 -1.6,-1.1 -3.1,0.2 -4.4,-0.6 1.4,-3.3 5.6,-0.3 7.1,-3.2 -1.5,-1.9 -2.9,0.8 -4.8,0 0.5,-0.5 0.8,-1.3 1.2,-1.3 1.9,0.1 4.1,-2.7 5.4,-0.9 1.4,2.1 -0.7,4.2 -2.3,5.8 -2.8,2.8 -4.3,7.2 -9.1,7.9 2,1.7 2.7,2.1 4.1,0.7 2,-2 3.1,-1.1 4.6,0.5 2.7,2.8 5.2,6 9.9,5.7 -2.1,4.2 -4.5,4.7 -7.9,1.5 -1,-0.9 -2.6,-2.1 -4.5,-1.4 3.2,3.9 9.1,6.1 8.7,13.3 -2.3,-3.3 -3.9,-6 -8,-6.7 3.2,4.3 6.8,7.6 7,12.9 0.1,2.3 2.4,3.7 4.7,4.8 -1.9,2.4 -3.7,1.9 -5.7,0.2 -2.9,-2.5 -4.3,-6.1 -6.3,-9.2 -0.4,-0.6 -0.7,-1.6 -1.8,-1 -1.4,0.8 -0.4,1.4 0.1,2.3 2,3.3 3.3,7.1 6.6,9.5 2.9,2.2 -0.3,4.2 0.1,6.9 -1.8,-1.7 -3.1,-2.9 -5,-4.7 0.9,3.9 5.8,6.9 0.5,10 -1.3,-1 -0.9,-3.5 -4.7,-4.8 4.9,4.9 -0.1,10 2.8,14.3 1.1,1.6 2.1,3.1 3.2,4.7 -6.5,-0.7 -9.7,-5 -8.1,-10.9 0.9,-3.2 -0.4,-5.2 -3,-6.8 2.1,5.2 0.3,10.1 -0.5,15.2 -0.5,3.2 -1.1,6.7 2.4,10.4 -6.3,-3.8 -6.5,-4.9 -3.8,-14.2 -1.9,1.1 -1.9,1.1 -4.4,5.4 -1.2,-7.1 1.3,-13.1 4.5,-18.9 4.7,-8.5 8.3,-17.3 8.3,-27.3 0,-2.7 -1.1,-5 -2,-7.4 -0.4,-1.1 -1,-1.3 -1.8,-0.7 -0.5,0.4 -1.4,0.7 -0.6,1.8 5,7.7 0.5,14.9 -1.4,22.1 -1.4,5.1 -3.8,9.9 -6.5,14.4 -8.4,14.1 -0.9,25.4 8.5,34.8 1.6,1.5 3.5,2.9 5.2,4.5 4.8,4.5 9.3,9.2 14.8,13 6.8,4.8 10.3,12.5 14.9,19.2 4.8,7.1 10.7,13.4 16.9,19.2 4.4,4 12.5,3.6 17.2,0 3.9,-3 6.4,-11.4 4.4,-16.2 -2.4,-5.7 -4,-12.1 -10.2,-15.3 -1.1,-0.6 -2.2,-1.6 -3.4,-1.8 -3,-0.5 -5.9,0.1 -8.1,2.6 -2.4,2.6 0.3,4.7 0.8,7.5 -3.3,-1.7 -5.7,-3.9 -5.5,-7.3 0.2,-4.2 5,-6.2 15.8,-7.2 -1.7,-6.5 -4.8,-12.5 -6.1,-19.2 -2.2,-11.4 0.3,-21.9 4.1,-32.3 2.6,-7.3 5.3,-14.5 6,-22.3 0.4,-4.3 -1.3,-8 -3.3,-11.5 -2.7,-4.7 -7.6,-5.1 -12.2,-4.3 -4.1,0.7 -6.8,3.9 -8.3,7.6 -1.1,2.6 1.8,7.6 4.8,8.2 3.4,0.7 5.8,-0.6 6.3,-4.6 3.4,3.7 1.1,6.2 -1.5,8.3 -2.5,2 -7.7,0.6 -9.7,-2.4 -3.1,-4.8 -2.5,-9.5 0.3,-14.1 0.5,-0.9 2.1,-1.3 1.2,-3 -4.2,3.3 -6.3,7.4 -5.6,12.7 0.6,4.8 6,7 6.7,11.8 -6.5,-5.9 -10.3,-12.9 -7.5,-22.8 -4.9,7 -3.3,14.5 4.2,22.2 2.8,2.9 4.5,5.6 2.6,10 -2.2,4.9 -4.8,6.1 -9.9,3.4 2.6,-0.6 5.9,-0.3 6.6,-3.2 0.8,-3.4 0.3,-6.8 -2.6,-9.5 -3.8,-3.5 -7.7,-7.2 -8.2,-12.8 -0.8,-8.1 3.4,-14.1 11,-16.9 1.6,-0.6 3.7,-0.4 4.8,-2.3 -2.7,-1.7 -7,-2.6 -5.7,-7 0.8,-2.9 2.9,-5.3 6.8,-5.5 -1,2.1 -2.9,3.3 -2.7,6.2 4.9,-6 10.3,-9.4 17.7,-5.8 2.6,1.3 1.4,3.3 0.5,5.3 -0.8,-1.8 0.2,-4.3 -2.5,-4.8 -4,-0.6 -6.1,2.1 -8.1,4.8 -1.4,-0.3 -0.6,-3.5 -2.8,-2.1 -2.2,1.4 0.1,2.3 0.6,3.5 2.4,5.8 7.6,8 12.6,10.5 6.2,3.2 10,15.3 8.5,23.3 -1.9,10 -6.1,19.2 -9.1,28.8 -1.5,4.9 -0.1,9.8 -0.4,14.8 2.9,-5.6 4.9,-12.4 13,-11.4 2.6,0.3 5.8,2.2 4.6,6.5 -2.1,-2.2 -3.4,-6 -7.4,-4.4 -3.9,1.6 -5.7,4.6 -5.3,8.9 0.3,3.7 0.6,7.5 -3.4,10.7 4.5,-3.1 8.5,-3.9 12.8,-0.9 1.4,1 2.1,2.1 1.2,4 -2.4,-3.3 -5.2,-4.1 -8.4,-1.6 -3.4,2.7 -2.6,6.1 -1.1,9.3 3.7,8 9.3,14.9 11.3,23.8 1.5,6.8 -2.1,18.5 -7.8,22.2 -7.7,5 -17.7,3.9 -24.3,-1.9 -6.5,-5.7 -10.9,-13.2 -17.1,-19.2 -1.1,-1.1 -1.9,-2.7 -4.4,-2.8 0.9,3.1 3.1,4.6 5,6.2 4,3.5 5.7,7.8 5.2,13 -0.1,1.7 0,3.3 0,5 -0.1,4.6 1.5,7.9 6.9,8.1 -5.4,5.6 -8.4,4.8 -12.3,-3.1 -3.1,1.8 -1.3,4.6 -0.1,5.6 4.8,3.7 5.7,9.6 6.1,14.4 0.9,9.9 9.8,13.2 18.1,9.4 -1.6,3.4 -1.6,3.4 -10.6,5.1 -0.1,2 2.5,1.4 2.8,2.9 0.1,0.8 0.4,1.8 -0.5,2.3 -2.5,1.4 -2.6,1.4 -2.4,3.6 0.2,1.7 -0.5,3.2 -0.9,4.8 -0.6,2.1 0.2,5.4 1.2,7.8 -2.3,-2.3 -7.4,-3.2 -3.7,-9 -3.5,2.5 -4.4,3.8 -3.3,5.5 3.3,4.9 -2.5,4.9 -3.8,7.2 -1.5,2.9 -3.5,0.4 -5.2,-0.6 -0.7,2.1 0.1,3.1 2,3.9 1.7,0.7 2.7,2.6 1,3.9 -0.9,0.7 -2.5,4.2 -4.8,0.3 -1.4,-2.4 -7.3,-1 -7.3,1.5 0,4.7 -1,6.6 -5.5,3.2 -0.3,-0.3 -1,-0.2 -1.5,-0.3 1.6,-2.5 3.1,-4.9 4.7,-7.5 -2.8,0.3 -10.2,3.4 -13.9,6 3.5,-4.6 0.4,-5.7 -3,-6.8 2.6,-2.7 6.2,-2.1 8.4,-1.2 6.6,2.6 10.3,-1.4 13.1,-5.6 2.6,-3.8 5.4,-7.7 6.4,-12.3 0.5,-2.3 2.8,-2.9 4.1,-4.1 -1.2,-2.9 -3.3,1.6 -4,-1 -0.4,-1.4 1.1,-2.2 2.7,-2.7 -5.4,0.4 -9.3,-2 -13.2,-5.1 -2.7,-2.2 -2.8,-3.7 -0.7,-5.9 0.5,-0.6 1.3,-1.1 0.4,-2.8 -4.6,3.2 -4.8,10.6 -11.7,12.3 4.1,-4.2 5.9,-8.8 7.2,-13.5 -2.5,-2.4 -2.7,5.6 -5.4,0.7 -2,6.2 -5,8.6 -9.9,7.7 -3.6,-0.7 -5.8,-2.7 -5.4,-6.9 4.3,6 7.7,6.7 10.9,2.3 1.7,-2.4 1.4,-5 -0.1,-7.3 -4.5,-7.1 -3.3,-13.9 -0.1,-21.3 3.1,-7 7.3,-13.6 6.3,-22 -0.6,-4.8 -1.9,-10.1 -5.4,-11.2 -4.3,-1.3 -6.7,-6 -11.3,-5.6 -2.3,0.2 -1.2,-2.7 -4.3,-2.4 3.5,5.4 10.7,5.6 12.6,11 -5.9,0.9 -20.2,-5.8 -25.5,-12.3 -0.1,0.3 -0.3,0.5 -0.4,0.8 -0.7,2.1 3.8,4.5 0.1,6.1 -1.8,0.8 -2.3,-2.7 -4,-3.6 -0.6,-0.3 -1.1,-0.6 -1.8,-0.8 -2.2,-0.7 -3.4,-2.3 -4.1,-4.4 2.8,-0.5 4.3,-4.4 7.7,-2.9 1.7,0.8 3.1,0.3 4.7,0 -3.2,0.8 -5.7,-4.6 -9.6,-0.7 -1,1.1 -2.2,-3.1 -4.7,-2.6 -1.4,2.8 2.9,2.2 2.5,4.6 -2.3,0.7 -2.8,-2 -4.5,-2.5 -1.5,2.7 1.2,4.5 2.3,5.6 3.1,3 -1.1,3.8 -1.2,5.8 0.1,-4.8 -8.3,-5.5 -5.1,-11.8 -2.7,2.6 -3.5,5 -0.2,8 -4.2,-0.1 -5.7,-2.9 -7.3,-5.4 -1.5,-2.4 1.7,-2.5 2,-4.1 0.2,-1 0.3,-1.6 1.4,-0.5 3.1,3 4.4,0.3 5.2,-2 0.8,-2.3 2.4,-4.7 0.9,-7.7 -0.6,1.9 -0.8,3.7 -1.6,5.2 -0.7,1.3 -0.8,3.7 -2.8,3.6 -1.5,-0.1 -1.5,-2.2 -2.4,-3.5 -1.6,2.5 -2.9,5.3 -4.9,7.3 -2.6,2.6 -6.4,1.8 -9.7,2.3 -7.6,1 -10.9,2.9 -14.4,9.7 -2.1,-3.8 -0.9,-6.2 6.6,-11.8 -1.7,-1.4 -3.1,-0.7 -4.9,-0.1 -1.5,0.5 -3.3,0.1 -5.4,0.1 1.5,-1 2.6,-1.7 3.8,-2.4 -4.1,2.8 -9.7,-3.8 -13.5,2.4 -0.6,-6.6 6.9,-5.3 8.5,-9.6 -2.6,-1 -4.2,1.6 -6.4,2 -3.2,0.5 -2.8,-2.4 -4,-4.3 2.9,1.8 5,1.3 7.1,-2.7 -3.8,3 -6,1.5 -8.4,-0.4 -3.5,-2.9 -2.2,-5.6 0.7,-8.6 -3.2,-0.3 -4.1,1.9 -5.3,3.2 -1.5,1.5 -3,2.2 -4.8,1.4 -0.9,-0.4 -2.2,-1.7 -2.1,-2.4 0.3,-2 1.9,-3.3 3.8,-4 1.5,-0.5 3,-1 5.8,-2 -2.1,-0.2 -2.8,-0.4 -3.5,-0.3 -1.9,0.1 -4.6,0.1 -4.8,-1.7 -0.3,-1.7 2.3,-2.3 4.2,-2.6 -1.6,-3.2 -3.3,-0.8 -4.8,-0.1 -1.8,0.8 -3.7,0.7 -5.3,0.3 -1.3,-0.3 -0.9,-2.1 -0.6,-3.1 0.8,-2.7 3.3,-2.5 5.3,-2.4 1,0 2,1.1 3.4,0.4 -2.4,-4.3 -8.5,-3.7 -11,-8 1.6,-1.3 3.9,0 5.1,-2 0.7,-1.2 1.6,0.1 1.7,0.5 0.8,3.9 4,5.4 7,6.8 9.5,4.5 15.3,13.3 23.3,19.4 4.4,3.4 6.9,7.8 8.3,13.3 0.6,2.4 2.4,6.6 7.1,4.4 1.7,-0.8 2.2,1 3.1,1.8 1,0.9 1.9,1.4 2.8,0.1 1.2,-1.8 -0.9,-1.1 -1.4,-1.5 -1.2,-1.2 -2.2,-2.4 -2.1,-4.2 -2.1,-0.2 -2.7,4.2 -4.7,2 -2.4,-2.7 2.1,-3.8 2.6,-6.4 -2.7,0.1 -3.3,3.1 -5.4,3.8 -0.5,-1.3 -0.4,-2.4 0.7,-3.2 0.9,-0.7 1.5,-1.7 0.9,-2.6 -1,-1.5 -1.4,0.4 -2,0.6 -0.9,0.4 -1.5,-0.6 -1.5,-0.7 0.1,-1.8 -1.3,-3.4 -0.4,-5.4 3.1,-6.8 9.5,-8.5 15.8,-10.4 2.2,-0.6 3.6,1.9 6.3,1.8 -1.1,-1.4 -2,-2.4 -2.9,-3.5 5.7,-4 9.5,2.3 14.5,2.6 -6.4,-6.9 -10.4,-7.4 -18.5,-3.1 -3.1,1.6 -6.8,1.7 -9.7,4 -1.6,-2 2.1,-2.4 1.2,-4.2 0.9,-0.1 1.9,-0.2 2.5,-0.5 -0.6,-0.5 -1.4,-0.1 -2.3,0.1 z"
   class="st1" />
		<path
   id="path33038"
   d="m 168.3,209.7 c -0.4,3.9 -2.7,7.3 -2.4,11.4 0.1,1.3 -1.5,2.3 -3,2.9 -2.2,0.9 -4.2,1.9 -6.5,3 -0.1,-4.5 3,-8.1 2.6,-12.2 -0.4,-4.2 1.7,-8 0.4,-12.2 -0.2,9.6 -4.6,18.4 -5.2,27.8 -0.8,-0.8 -2.6,0.1 -4,-0.8 3.1,-8.2 7.9,-16 5.9,-26 -2.3,6.9 -1.7,13.6 -5.5,19.4 -3.1,4.8 -5.4,10.2 -7.4,15.6 -1.9,5 0.8,9.2 7.3,12.6 -4.8,1 -9.6,-3.1 -12.2,-10.6 -2,8.1 4.8,9.5 8.5,13.2 -7,1 -9.6,-4.4 -13.5,-9 0.6,4.3 -4.2,4.8 -4.8,8.1 -4.4,-3.5 -0.6,-5.9 1.4,-8.7 -3,-0.7 -4.7,4.2 -7.8,1.3 0.6,-1.5 2.9,-2.1 2.8,-4.2 -1.8,-0.9 -2.3,0.6 -3.1,1.3 -2.3,2 -2.4,2.1 -4.1,-0.9 -0.6,-1 -1.4,-0.9 -2,-0.7 -3.4,0.7 -3.8,-0.9 -2,-5.1 -4,3.8 -6.3,9.5 -11,4.9 -3,-2.9 2.2,-3.9 2.7,-6.2 -3.1,-2.6 -6.5,-1.7 -9.7,-0.5 -1.3,0.5 -2.3,1.4 -3.4,-0.2 -0.7,-1 -0.6,-2.3 -0.3,-3.3 0.5,-1.5 1.9,-1.8 3.3,-1.6 1.7,0.3 3.3,1.6 5.6,0.5 -4.1,-2.7 -7.9,-5.1 -12.8,-5.8 0.4,-2.2 5.1,-3.1 1.7,-6.2 1.9,-1 2.5,0.5 3.1,1.2 5.5,7.3 14.6,6 21.8,9.1 4.8,2 8.7,5.2 13.4,7.4 1.2,-2 -4.6,-2.9 -0.4,-5.2 2,-1.1 4.1,-0.5 6.6,-1.4 -4.2,-4.5 -5.8,-9.3 -3.6,-14.9 0.4,-1.1 0.7,-1.8 1.9,-1.6 2.6,0.5 4.6,7.4 2.7,10.2 4.7,-3.4 8.8,-0.3 13.7,1 -0.6,-2.1 -1.1,-3.5 -1.5,-4.9 -2,-0.6 -0.8,4.2 -3.8,2.1 -3.7,-2.6 1.8,-4 0.5,-6.3 -2.8,0.2 -3,3.1 -4.6,4.8 -1.5,-2 -0.4,-3.9 -0.3,-5.7 -1.3,-0.6 -1.7,3 -3.5,0.4 -1.2,-1.8 -1.3,-3 0.3,-4.2 1.4,-1.1 2.8,-2.2 3.8,-4.1 -4.7,2.7 -8.6,7.6 -15.4,2.6 6.7,1.2 9.2,-4 14.1,-6.6 -3,-0.2 -4.3,1 -5.8,2.2 -0.6,0.5 -1,2.1 -2.2,0.7 -0.5,-0.6 -1,-1.3 -1.5,-1.9 0.7,-0.4 1.3,-1 2,-1.3 1.8,-0.6 3.6,-1 5.4,-1.4 -7.4,-8.8 -7.4,-9.2 -2.1,-12.6 -0.7,3.2 -1.4,6.3 2.2,7.9 1.3,0.6 0.7,0.3 0.1,1.2 -0.9,1.5 1.2,2.8 1.9,2.4 6.7,-3.5 13.6,-1.4 20.1,-0.2 3.6,0.7 7.4,0.1 11,1.6 2.1,0.8 2,0.9 1.2,2.8 -1,2.4 -1.1,5.2 -3.1,7.2 -2,-2.3 -0.7,-5.2 -1.6,-7.7 1.1,7.1 -0.9,13.3 -4.9,19 -1.8,-0.8 -1.1,-2.2 -0.8,-3.4 1.4,-4.6 2.4,-9.2 1.7,-14 0.2,-0.6 -0.9,0.3 -0.3,0 0.2,-0.1 0.2,0.1 0.3,0.4 0.7,5 -0.7,9.8 -1.9,14.6 -0.1,0.5 -1.6,1.8 0.5,2 2.9,-0.3 2.7,-2.7 3.6,-4.6 1.2,-2.3 0.5,-5.6 3.9,-6.6 z"
   class="st1" />
		<path
   id="path33040"
   d="m 102.4,81.1 c 4.4,2.2 8.9,1.9 13.4,1.9 1.8,0 3.6,-0.5 5,1.3 0.8,1.1 2,0.9 3.1,0.2 5.8,-3.6 11.5,-3.6 16.9,0.8 0.7,0.6 1.7,0.7 2.5,1 0.3,0.4 0.1,0.7 -0.4,0.5 -12.6,-3.6 -26.2,2.7 -38.6,-3.8 -0.7,-0.4 -1.5,-0.7 -1.9,-1.9 z"
   class="st1" />
		<path
   id="path33042"
   d="m 160.8,53.1 c 2,-1 3.2,-2.1 5.3,-1.9 -0.9,3 -3.2,4.4 -5.1,6.1 -0.8,0.7 -3.3,1 -2,-1.7 0.3,-0.7 1.2,-1.1 0.7,-2.3 -2.7,-0.9 -3.2,4.1 -6.1,2.6 2,-5.4 6.6,-9.3 13.5,-11.1 -1.1,2.8 -4.7,1.4 -5.9,3.9 1.9,0.8 3.6,-1.8 5.4,-0.1 -1.8,1.1 -5,0.8 -5.8,4.5 z"
   class="st1" />
		<path
   id="path33044"
   d="m 97.6,212.9 c 3.2,1.7 5.8,3.1 6.2,6.2 0.2,1.3 1.8,2.3 0.8,3.5 -0.9,1 -1.9,0.3 -3,-0.3 -1.4,-0.8 -3.5,-1.2 -2.9,-3.4 0.6,-2 0,-3.7 -1.1,-6 z"
   class="st1" />
		<path
   id="path33046"
   d="m 174.8,272.6 c 3.6,-4.3 4.1,-4.3 9.8,-0.4 -2,1.2 -2,1.2 -9.8,0.4 z"
   class="st1" />
		<path
   id="path33048"
   d="m 76.7,115.4 c -2.5,1 -0.9,5.7 -4.6,5 -1.1,-0.2 -2.7,-1.8 -2.1,-3.5 1.3,-3.3 4.3,-1.3 6.7,-1.5 z"
   class="st1" />
		<path
   id="path33050"
   d="m 88.9,70.5 c -0.3,1.3 -2.7,2.2 -3.6,4.2 -0.9,-0.9 -2.3,-1.5 -2.3,-3 0,-2.7 2.5,-2.7 4.1,-3.5 0.8,-0.5 2,-0.3 1.8,2.3 z"
   class="st1" />
		<path
   id="path33052"
   d="m 72,57.1 c 3,-0.2 4.8,1.1 6.4,2.8 0.7,0.8 2.4,1.7 1.3,2.7 -0.8,0.7 -2.6,1.3 -3.7,-0.5 -1.1,-1.7 -2.5,-3.1 -4,-5 z"
   class="st1" />
		<path
   id="path33054"
   d="m 80.9,223.1 c 0.5,-3.4 3,-3.9 4.9,-5 1.1,-0.6 2.7,0.2 2.8,1.2 0.1,1 -1.4,2.8 -2.4,2.1 -2.3,-1.4 -3.4,0.8 -5.3,1.7 z"
   class="st1" />
		<path
   id="path33056"
   d="m 125.4,80.3 c 4.4,-1.7 8.9,-1.9 13.3,0 -4.5,-0.5 -8.9,-0.8 -13.3,0 z"
   class="st1" />
		<path
   id="path33058"
   d="m 61.2,76.9 c 0.6,-2.2 2.9,-2 4,-3.5 0.7,-0.9 2.1,-0.6 3,0.4 0.6,0.6 1,1.5 0.7,2.2 -0.8,1.7 -1.8,-0.1 -2.6,-0.1 -1.8,-0.2 -3.3,1 -5.1,1 z"
   class="st1" />
		<path
   id="path33060"
   d="m 52.3,133.7 c -3.1,-5.2 2.5,-5.1 4.8,-8.4 -0.1,4.5 -5.2,4.8 -4.8,8.4 z"
   class="st1" />
		<path
   id="path33062"
   d="m 89.5,229.8 c 2.1,4.9 -3.8,4.6 -3.9,7.8 -1.7,-3.9 2,-5.1 3.9,-7.8 z"
   class="st1" />
		<path
   id="path33064"
   d="m 52.3,111.4 c 4.6,-2.5 6,1.4 8.5,1.8 -3.1,1.8 -5.1,-0.9 -8.5,-1.8 z"
   class="st1" />
		<path
   id="path33066"
   d="m 76.3,112.6 c -5.7,1.6 -4.1,-4.4 -7,-5.3 3.1,0.5 4.3,3.3 7,5.3 z"
   class="st1" />
		<path
   id="path33068"
   d="m 127.6,49.4 c 0.9,2.9 3,4.6 5.5,6 -3.3,1.4 -6,-1.5 -5.5,-6 z"
   class="st1" />
		<path
   id="path33070"
   d="m 164.5,284.1 c 1.7,-3.2 2,-7 6.5,-3.8 -2,1.2 -3.8,2.3 -6.5,3.8 z"
   class="st1" />
		<path
   id="path33072"
   d="m 180.5,292.1 c -2.3,-4.2 -1.8,-4.9 3.2,-4.9 -0.6,1.9 -2.8,2.6 -3.2,4.9 z"
   class="st1" />
		<path
   id="path33074"
   d="m 67.1,91.6 c 1.3,2.1 4,-1.5 4.9,1.1 0.2,0.7 0.5,2.1 -1,2.3 -2.4,0.2 -3,-1.7 -3.9,-3.4 z"
   class="st1" />
		<path
   id="path33076"
   d="m 105,244.5 c -2,0.8 -3.6,2.1 -5.9,1.2 1.6,-2 2.8,-4.1 5.9,-1.2 z"
   class="st1" />
		<path
   id="path33078"
   d="m 199.3,287.2 c -0.5,-2.4 -0.6,-4 1.2,-5 0.7,-0.4 1.3,-0.1 1.5,0.6 0.4,2.1 -1.3,2.8 -2.7,4.4 z"
   class="st1" />
		<path
   id="path33080"
   d="m 122.9,83 c -2.3,-1.4 -2.3,-3.1 -1.3,-4.8 0.2,-0.3 1.5,-0.3 1.8,-0.1 1.3,1.8 -1.1,3.1 -0.5,4.9 z"
   class="st1" />
		<path
   id="path33082"
   d="m 96.8,217.7 c -1.3,-0.8 -3.2,-0.5 -3.4,-2.5 0,-0.3 0.9,-1.2 1.4,-1.2 2,0.3 2.5,1.7 2,3.7 z"
   class="st1" />
		<path
   id="path33084"
   d="m 88.2,66.7 c -1.8,-2.1 -1.1,-3.7 -1.1,-5.3 1.8,1.8 1.8,1.8 1.1,5.3 z"
   class="st1" />
		<path
   id="path33086"
   d="m 64.7,144.7 c -2.1,1.1 -3,-1 -4.8,-0.7 2.4,-2.5 3.8,-1.6 4.8,0.7 z"
   class="st1" />
		<path
   id="path33088"
   d="m 115.6,78.5 c -0.7,-1.2 -2,-2.2 -1.5,-3.9 2.9,0.4 1.7,2.4 1.5,3.9 z"
   class="st1" />
		<path
   id="path33090"
   d="m 173,272 c -0.3,1.3 -1.2,1 -1.9,1 -0.2,0 -1.2,0.1 -0.6,-0.7 0.4,-0.7 1,-1.3 1.9,-1.1 0.2,0 0.4,0.5 0.6,0.8 z"
   class="st1" />
		<path
   id="path33092"
   d="m 118.5,76.4 c 0.6,2.3 0.9,3.6 -1.3,5.8 0.5,-2.4 0.8,-3.6 1.3,-5.8 z"
   class="st1" />
		<path
   id="path33094"
   d="m 150.5,67.4 c -5,-0.2 -7.7,6 -13.2,4.4 0.8,3.2 4.5,1.3 5.2,3.9 -2.9,0.8 -5.1,-0.8 -7.6,-2.3 -2.5,-1.5 1.6,-7.3 -4.8,-5.2 1.7,-2.2 3.6,-2 5.1,-2.8 -2.4,-4.3 -1.4,-5.6 4.9,-6.2 -1.5,0.9 -2.7,1.7 -4.4,2.7 2.6,1.9 5.8,0.1 8,2.5 1.3,1.8 4.4,2.1 6.8,3 z"
   class="st0" />
		<path
   id="path33096"
   d="m 101.7,131.7 c 2.1,-2.1 4.3,-3.6 3.5,-7.6 -0.8,-4.1 3.2,-5.5 6.1,-7.2 0.4,0.4 0.8,0.8 1.2,1.2 -1.4,1 -2.8,2 -4.2,3 -1.6,1.2 -1.5,2.8 -1.1,4.4 0.2,0.9 2.4,1.2 1,2.6 -1.6,1.6 -3.3,3 -5,4.4 -0.2,0.1 -1,-0.7 -1.6,-1 0,0.1 0.1,0.2 0.1,0.2 z"
   class="st0" />
		<path
   id="path33098"
   d="m 147.5,134.5 c -5.7,1.3 -9.5,0.1 -12.6,-4.5 4.2,1.5 8,2.8 12.6,4.5 z"
   class="st0" />
		<path
   id="path33100"
   d="m 135.6,126.7 c -3.6,-1.4 -7.4,-0.3 -11.1,-0.8 2.5,-2.7 6.2,-2.5 11.1,0.8 z"
   class="st0" />
		<path
   id="path33102"
   d="m 151.2,89.6 c 1.1,-2.8 1.3,-5.3 -0.4,-8.1 4.3,2.6 4.4,4.7 0.4,8.1 z"
   class="st0" />
		<path
   id="path33104"
   d="m 134,122.4 c 2.9,-1.2 5.2,1.4 7.6,-0.3 -2.8,2.5 -3.9,2.5 -7.6,0.3 z"
   class="st0" />
		<path
   id="path33106"
   d="m 151.6,111.9 c -1.8,2.4 -2.9,4.8 -6.2,4.7 2.3,-1.1 2.8,-4.3 6.2,-4.7 z"
   class="st0" />
		<path
   id="path33108"
   d="m 199,204.9 c -0.1,1.1 0.1,2.1 -1.1,2 -1,-0.1 -1.9,-0.8 -1.8,-1.8 0,-0.6 0.8,-1.7 1.3,-1.7 1,-0.1 1.4,0.9 1.6,1.5 z"
   class="st0" />
		<path
   id="path33110"
   d="m 197,197.7 c 1.5,0.5 3.5,0.1 3.6,2.1 0,0.4 -0.9,1.1 -1.4,1.2 -2.1,0 -0.8,-2.6 -2.2,-3.3 z"
   class="st0" />
		<path
   id="path33112"
   d="m 136,156.8 c -2.2,0 -3.9,0 -5.7,0 1.7,-3.1 3.5,-2 5.7,0 z"
   class="st0" />
		<path
   id="path33114"
   d="m 199.5,196.2 c -1,-1.7 -3.2,-2.1 -2.9,-4.2 0.1,-1 1.2,-0.8 1.6,0.4 0.3,1.2 2.3,1.5 1.3,3.8 z"
   class="st0" />
		<path
   id="path33116"
   d="m 108.8,130.8 c 1.9,-1 3.7,-2 5.6,-3 -1.4,2.3 -3,3.8 -5.7,2.9 0,0 0.1,0.1 0.1,0.1 z"
   class="st0" />
		<path
   id="path33118"
   d="m 145.2,119.8 c -1.6,0 -3.1,0 -5.9,0 2.9,-1.1 4.6,-0.8 5.9,0 z"
   class="st0" />
		<path
   id="path33120"
   d="m 161.1,221 c -1.6,0.2 -0.8,1.9 -1.7,2.6 1,-7.9 3.2,-15.5 3.6,-23.4 0.3,7.1 0.8,14.2 -2,20.9 z"
   class="st0" />
		<path
   id="path33122"
   d="m 168.3,209.7 c -2.3,2 -2.7,4.9 -3.2,7.7 -0.4,2.1 -1.4,4.2 -3.2,5.1 -1.1,0.6 -0.5,-1 -0.7,-1.6 0,0 -0.1,0.1 -0.1,0.2 5.1,-5.9 5.2,-13.1 5.4,-20.5 1,1.3 0.9,3 1.5,4.4 0.6,1.4 0.2,3.2 0.3,4.9 -0.2,0 0,-0.2 0,-0.2 z"
   class="st0" />
		<path
   id="path33124"
   d="m 151.5,204.4 c 2,3 2.3,6.2 0,9.3 1.2,-3.1 0.5,-6.1 0,-9.3 z"
   class="st0" />
		<path
   id="path33126"
   d="m 141.2,64.8 c -1.2,2 -2.9,3 -2.3,5.2 -2.7,-3.6 -2.6,-3.7 2.3,-5.2 z"
   class="st1" />
	</g>
</g>
</svg>
