<?xml version="1.0" encoding="UTF-8" standalone="no"?>
<svg
   xmlns:dc="http://purl.org/dc/elements/1.1/"
   xmlns:cc="http://creativecommons.org/ns#"
   xmlns:rdf="http://www.w3.org/1999/02/22-rdf-syntax-ns#"
   xmlns:svg="http://www.w3.org/2000/svg"
   xmlns="http://www.w3.org/2000/svg"
   xmlns:sodipodi="http://sodipodi.sourceforge.net/DTD/sodipodi-0.dtd"
   xmlns:inkscape="http://www.inkscape.org/namespaces/inkscape"
   inkscape:version="1.0 (4035a4f, 2020-05-01)"
   height="190.6118"
   width="213.53827"
   sodipodi:docname="two-bones-in-saltire.svg"
   xml:space="preserve"
   viewBox="0 0 213.53827 190.6118"
   y="0px"
   x="0px"
   id="Layer_1"
   version="1.1"><metadata
   id="metadata35089"><rdf:RDF><cc:Work
       rdf:about=""><dc:format>image/svg+xml</dc:format><dc:type
         rdf:resource="http://purl.org/dc/dcmitype/StillImage" /><dc:title></dc:title></cc:Work></rdf:RDF></metadata><defs
   id="defs35087" /><sodipodi:namedview
   inkscape:current-layer="Layer_1"
   inkscape:window-maximized="0"
   inkscape:window-y="25"
   inkscape:window-x="0"
   inkscape:cy="112.53747"
   inkscape:cx="108.53254"
   inkscape:zoom="2.52"
   fit-margin-bottom="0"
   fit-margin-right="0"
   fit-margin-left="0"
   fit-margin-top="0"
   showgrid="false"
   id="namedview35085"
   inkscape:window-height="480"
   inkscape:window-width="820"
   inkscape:pageshadow="2"
   inkscape:pageopacity="0"
   guidetolerance="10"
   gridtolerance="10"
   objecttolerance="10"
   borderopacity="1"
   bordercolor="#666666"
   pagecolor="#ffffff" />
<style
   id="style35038"
   type="text/css">
  .st0{fill:#FFFFFF;}
  .st1{fill:#000000;}
</style>
<g
   transform="translate(-41.467458,-87.462531)"
   id="g35082">
	<g
   id="g35080">
		<path
   id="path35040"
   d="m 199.8,108.3 c 0.4,-4.9 -0.2,-8.2 1.1,-11.7 2.8,-7.8 10.2,-10.1 17.4,-6.1 5.5,3.1 8.5,6.6 7.8,13.1 -0.3,2.9 1.3,5.2 4.3,6.4 3.2,1.3 5.9,1.2 8.4,-1.3 4.6,-4.6 7.8,-5.2 12.3,-2.7 2.8,1.6 4.8,8.7 3.5,12.9 -3.1,10 -11.4,14.2 -20.4,17 -7.5,2.4 -15.2,4.1 -22.7,6.3 -4.4,1.3 -7.9,4.6 -11.3,7.4 -12.4,10 -22.9,22 -33.6,33.8 -4.6,5.1 -1.6,7.8 1.2,10.9 8.6,9.7 17.2,19.4 26.2,28.6 6.5,6.6 12.7,14.2 23.4,14.3 2.9,0 5.8,0.7 8.7,0.8 8,0.3 16.7,11.7 11.3,20.2 -1.7,2.7 -3.6,4.3 -6.8,4.8 -5.6,1.1 -11.3,1.8 -14,8.4 -1.4,3.4 -5.9,3.8 -8.5,6.3 -1.1,1 -2.9,-0.2 -4.3,-1.3 -6.1,-4.4 -7.6,-11.1 -8.8,-17.8 -1.6,-8.7 -7.3,-15 -12.6,-21.4 -6.6,-8.1 -14.1,-15.4 -20.6,-23.6 -2.8,-3.5 -6.3,-6.4 -9.4,-9.7 -1.7,-1.8 -2.5,-0.5 -3.6,0.5 -4.2,4 -7.1,9.2 -11,13.5 -7.2,8 -14.1,16.2 -20.3,25 -4.3,6.2 -6.9,13.3 -7.7,21 -0.7,6.7 -9.2,13.6 -16,13 -2.8,-0.2 -4.6,-1.7 -4.9,-4.4 -0.5,-4.4 -3,-5.8 -7.1,-5.7 -4.1,0.1 -8.3,0.6 -12.2,-1.1 -4.1,-1.8 -7.4,-4.3 -7.9,-9.3 -0.5,-5.7 1.4,-10.3 6,-13.5 4.9,-3.4 10.5,-5.3 16.3,-4.9 5.8,0.4 10.4,-2.3 14.1,-5.5 10.4,-8.9 19.3,-19.4 28.6,-29.4 3.6,-3.9 7.1,-7.8 10.4,-11.9 1.6,-2 1,-3.3 -0.2,-4.4 C 124.9,175.2 114.6,162 102.1,151 93.9,143.8 86.5,135.6 76.7,130.4 71.4,127.6 65.8,126.6 60,126 47.8,124.7 45.2,120.7 41.7,110 c -1.3,-3.9 3.1,-12 7,-14.1 4.4,-2.4 9.8,-1 13.9,3 5.2,5.1 11.6,3.5 15.9,-2.8 1,-1.4 1.5,-3.2 2.8,-4.5 2.9,-3 6.3,-5.2 10.5,-3.6 4.6,1.7 7,5.5 7.8,10.4 0.9,5.2 -1,10 -2.3,14.7 -0.5,1.9 -0.2,3.1 0.6,4.4 3.4,5.8 7.6,11 12.2,16 12.1,13.1 24.6,25.9 37.2,38.6 3.8,3.9 5.2,3.8 8.1,-0.6 4.6,-6.7 11.4,-11.4 16.1,-18 8.9,-12.7 20.6,-23.3 27.4,-37.5 1.9,-2.9 0.7,-6.1 0.9,-7.7 z"
   class="st1" />
		<path
   id="path35042"
   d="m 223.9,114.9 c 2.6,1.5 4.3,1.7 7.5,-0.2 4,-2.3 8.6,-4.1 12.7,-6.6 1.2,-0.8 2.9,0 3.9,1.4 1.7,2.4 1.3,5 0.4,7.5 -0.3,1 -1.6,1.5 -1.6,2.7 -2.5,-1.2 1.5,-4.1 -1.2,-4.5 -2.3,-0.3 -1.9,2.7 -2.8,4.3 -2.2,4.1 -4.3,8.5 -9,10.6 1.4,-4.9 5.6,-8.4 6.1,-14.3 -4.5,1.4 -4,6.1 -6.3,8.6 -2.3,2.5 -3.6,6 -7.3,8.1 1,-5 5.4,-8 5.9,-14.1 -5.2,5.6 -6.1,13.7 -14.2,15.6 0.9,-3.7 3.2,-6.4 5,-9.3 0.7,-1.1 1.5,-2.1 2,-3.3 0.3,-0.7 0.4,-1.8 -0.6,-2.1 -1.1,-0.3 -1,0.7 -1.4,1.5 -4.3,10.2 -12.2,16.9 -21.8,22 7.6,-6.5 15.4,-12.8 18.5,-23.7 -1.2,0.6 -1.8,0.7 -1.9,1 -3.8,9.9 -12.8,14.9 -20.5,21.3 -5.4,4.5 -10,9.8 -14.9,14.7 -14.9,14.8 -28.2,31.1 -42.3,46.6 -8.9,9.9 -17.2,20.3 -25.5,30.6 -5.6,6.9 -12,14.1 -12.6,23.9 0,0.4 -0.1,1.1 -0.4,1.3 -3.2,1.6 -3.3,1.6 -1.4,5.1 1.1,2.2 -1.2,8 -3.5,8.3 -2.1,0.3 -3.8,-0.3 -3.6,-2.8 0.3,-2.8 -1.2,-5.2 -1.6,-8.2 2.9,0.6 3.4,3 4.2,5.4 1.7,-3.3 0.4,-7.6 -2.8,-8.9 -5,-2 -10.7,-0.5 -15.6,-4 -0.4,3.4 2.9,3.7 2.7,6.2 -4.4,1.2 -5.8,-2.5 -7.6,-5 -1,-1.4 -1.8,-3.4 -3.5,-2.4 -2,1.1 -0.6,3.1 0.1,4.7 1.7,3.7 5.5,4.8 9,6.6 -6.2,0.9 -11.5,-2.6 -11.9,-7.6 -0.6,-5.9 5.5,-12.6 11.6,-12.7 0,1.4 -1.3,1.8 -2,2.7 -0.7,0.7 -0.3,1.1 0.2,1.5 0.3,0.3 0.7,0.8 1.1,0.1 4.5,-7.5 13.8,-5.8 19.8,-10.4 8,-6 14.8,-13 21.4,-20.5 5,-5.8 10.4,-11.4 15.8,-16.8 5.3,-5.3 9.8,-11.3 15.1,-16.6 7.9,-7.9 14.8,-16.8 22.4,-25.1 7.7,-8.4 14.3,-17.8 21.7,-26.4 5.1,-5.9 9.4,-11.9 10.4,-19.8 0.6,-4.2 1,-8.4 1.4,-12.6 0.2,-2.3 0.2,-3.8 3.6,-2.6 4.5,1.7 6,3.8 5.7,8.8 -0.1,1.5 -3.6,5.9 2.7,5.3 2.2,-0.2 3.5,4.8 7.2,4.3 z"
   class="st0" />
		<path
   id="path35044"
   d="m 95.7,98.4 c 1,3.1 0.3,5.9 -0.5,9 -2.5,9.1 2,16.1 7.5,22.8 11.5,14.1 24.7,26.7 37.6,39.5 2.8,2.9 5.9,5.5 8.9,8.4 -0.5,0.6 -0.7,1 -1,1.3 -2.4,3 -3.9,4 -7.6,0.2 -4.4,-4.5 -9.2,-8.8 -13.3,-13.6 -5.6,-6.7 -12.8,-11.6 -18.7,-18 -8.8,-9.6 -19.1,-17.6 -29.4,-25.4 -0.4,-0.3 -0.9,-0.4 -1.3,-0.7 -5,-2.8 -10.7,-4.8 -12.5,-12 -1.5,4.2 -1.5,4.2 1.6,9.7 -6.2,-1.5 -9.1,-6.1 -11.4,-11.4 -2.2,2.6 1.5,5.2 -0.3,8 -4,-3.1 -6.5,-6.4 -6.5,-11.6 0,-4.8 2.8,-6.8 7.3,-5 3.3,1.3 5.2,4.3 8,6.3 6.9,4.9 16,3.5 21.1,-3.4 1.6,-2.2 2.8,-7.9 7.5,-2.7 0.3,0.2 2,-0.9 3,-1.4 z"
   class="st0" />
		<path
   id="path35046"
   d="m 203,262.9 c -1.6,-2.8 -1.3,-6.1 -1.9,-9.1 -0.2,-0.9 0.3,-2 -0.6,-2.8 -0.8,-0.8 -0.4,-3.1 -2.3,-2.4 -2,0.7 -0.2,2.3 0,3.3 0.4,2.6 1.3,5.1 2.2,8.1 -3.2,-1.2 -2.7,-3.8 -3.2,-5.5 -1.9,-7.2 -6.5,-12.5 -11.1,-17.9 -7.4,-8.6 -14.7,-17.3 -23.1,-25.1 -0.8,-0.8 -1.1,-1.6 -0.7,-4.1 11.6,12.5 22.5,24.4 33.5,36.3 0.3,-0.3 0.7,-0.6 1,-0.9 -11.4,-16.4 -26.1,-29.8 -40,-44.8 4.2,0.7 5.2,4.9 8.3,6.1 1.5,-0.8 0,-1.3 -0.1,-1.9 -0.3,-1.3 -1.8,-2.5 0.2,-3.8 1.8,-1.1 2.3,0.7 3.2,1.5 10.6,9.9 19.5,21.5 29.8,31.8 5.3,5.3 11.4,8.3 19,8.4 3.2,0 6.3,1 10.7,1.7 -5.4,2.1 -3.6,3.1 -0.9,4.3 2.8,1.2 4.1,3.6 4.1,6.6 0,1.3 -0.9,2.5 -2.1,2.2 -1.6,-0.3 -0.1,-1.6 -0.2,-2.1 -0.4,-1.3 -0.6,-2.9 -2.8,-3.6 2,3.3 -1.8,6.5 0.6,9.9 0.5,0.7 -1.2,2.1 -3.1,2.1 -4.8,0 -9.2,0.6 -11.9,5.7 -1.7,3.1 -5.8,1.5 -7.4,-2.7 1.2,-0.8 2.5,-0.1 4.2,0 -1.4,-0.5 -2.4,-1 -2.9,-1.9 -1.9,-3 -1.7,0.5 -2.5,0.6 z"
   class="st0" />
		<path
   id="path35048"
   d="m 126.9,223.4 c -8.9,12.6 -20.1,23.9 -22.5,40.1 -1.3,-18.2 12.1,-28.3 22.5,-40.1 z"
   class="st0" />
		<path
   id="path35050"
   d="m 227.8,260.4 c 5.5,-8 5.5,-8 1.5,-17 4.2,1.4 6.3,4.2 5.6,8.5 -0.6,3.5 -1.7,7.3 -7.1,8.5 z"
   class="st0" />
		<path
   id="path35052"
   d="m 147.2,200.2 c -4,7.3 -10.4,12.5 -15.8,18.6 3.8,-7.4 8.8,-13.9 15.9,-18.4 z"
   class="st0" />
		<path
   id="path35054"
   d="m 80.3,103.4 c 1.6,-8.7 3.7,-10.8 10.1,-9.5 -5.9,0.4 -5.2,7.5 -10.1,9.5 z"
   class="st0" />
		<path
   id="path35056"
   d="m 224.1,115.1 c -0.9,-3 -5.5,-4.1 -4.1,-8.4 0.3,-1 0.5,-1.8 1.7,-2.6 0.3,4.9 3.3,7.9 9,10.1 -3.3,0.3 -5,0.5 -6.7,0.7 -0.1,0 0.1,0.2 0.1,0.2 z"
   class="st0" />
		<path
   id="path35058"
   d="m 203,262.9 c 0,-1.5 0,-2.9 0,-5.5 2.4,3.4 4.4,5.9 7.7,7 -2.3,0.5 -4.5,1.1 -6.6,-0.4 -0.4,-0.3 -0.8,-0.7 -1.1,-1.1 z"
   class="st1" />
		<path
   id="path35060"
   d="m 147.3,200.3 c -0.8,-2.8 1.4,-4.7 2.9,-5.6 2.3,-1.5 3.5,-3.7 5.5,-5.3 -0.9,5.1 -5.5,7.3 -8.6,10.8 0.1,0 0.2,0.1 0.2,0.1 z"
   class="st0" />
		<path
   id="path35062"
   d="m 215.9,95.5 c -1.3,1.3 -2,-0.6 -3,-0.5 -1.3,0.1 -2.7,0.2 -3.5,-1.2 -0.5,-0.8 0.4,-1.3 0.8,-1.4 1.6,-0.6 3.2,-0.8 4.4,0.7 0.6,0.7 1.6,1.2 1.3,2.4 z"
   class="st0" />
		<path
   id="path35064"
   d="m 164.9,178.9 c -0.7,4.4 -5.5,5.4 -7.1,9.1 1.8,-3.5 3.3,-7.3 7.2,-9 z"
   class="st0" />
		<path
   id="path35066"
   d="m 205.6,272.4 c -3,-1.9 -4.9,-3.9 -5.3,-7.1 1.8,2.2 4.9,3.2 5.3,7.1 z"
   class="st0" />
		<path
   id="path35068"
   d="m 83.3,262.6 c 3.7,-1.3 5.2,-0.1 6.5,2.1 -2.6,0.8 -3.9,-1 -6.5,-2.1 z"
   class="st0" />
		<path
   id="path35070"
   d="m 135.6,179.8 c -1.5,-1.4 -3,-2.8 -5.3,-4.9 3.7,0.5 4.4,2.7 5.3,4.9 z"
   class="st0" />
		<path
   id="path35072"
   d="m 165.1,179.1 c -0.1,-2.3 0.8,-3.4 3.2,-2.8 l -0.1,-0.1 c -0.3,1.9 -1.1,3.1 -3.2,2.8 -0.1,-0.1 0.1,0.1 0.1,0.1 z"
   class="st0" />
		<path
   id="path35074"
   d="m 168.3,176.3 c -0.9,-2.2 0.7,-2.6 1.6,-3.5 0.4,0.3 0.8,0.6 1.2,0.9 -1,0.8 -2,1.6 -3,2.4 0.1,0.1 0.2,0.2 0.2,0.2 z"
   class="st0" />
		<path
   id="path35076"
   d="m 101.9,243.6 c -2.3,2.5 -3.9,5 -4.2,8.4 -0.9,-2.6 -2.3,-4.2 -5.4,-4.6 3,-3.1 6.9,-1.9 9.6,-3.8 z"
   class="st1" />
		<path
   id="path35078"
   d="m 216,259.2 c -2.4,2.6 -4.7,2 -8.3,0.8 3.4,-1.4 5.7,-1 8.3,-0.8 z"
   class="st1" />
	</g>
</g>
</svg>
