<?xml version="1.0" encoding="UTF-8" standalone="no"?>
<svg
   xmlns:dc="http://purl.org/dc/elements/1.1/"
   xmlns:cc="http://creativecommons.org/ns#"
   xmlns:rdf="http://www.w3.org/1999/02/22-rdf-syntax-ns#"
   xmlns:svg="http://www.w3.org/2000/svg"
   xmlns="http://www.w3.org/2000/svg"
   xmlns:sodipodi="http://sodipodi.sourceforge.net/DTD/sodipodi-0.dtd"
   xmlns:inkscape="http://www.inkscape.org/namespaces/inkscape"
   inkscape:version="1.0 (4035a4f, 2020-05-01)"
   height="207.43246"
   width="218.11475"
   sodipodi:docname="unicorn-statant.svg"
   xml:space="preserve"
   viewBox="0 0 218.11475 207.43246"
   y="0px"
   x="0px"
   id="Layer_1"
   version="1.1"><metadata
   id="metadata35747"><rdf:RDF><cc:Work
       rdf:about=""><dc:format>image/svg+xml</dc:format><dc:type
         rdf:resource="http://purl.org/dc/dcmitype/StillImage" /><dc:title></dc:title></cc:Work></rdf:RDF></metadata><defs
   id="defs35745" /><sodipodi:namedview
   inkscape:current-layer="Layer_1"
   inkscape:window-maximized="0"
   inkscape:window-y="25"
   inkscape:window-x="0"
   inkscape:cy="121.06296"
   inkscape:cx="111.87284"
   inkscape:zoom="2.52"
   fit-margin-bottom="0"
   fit-margin-right="0"
   fit-margin-left="0"
   fit-margin-top="0"
   showgrid="false"
   id="namedview35743"
   inkscape:window-height="480"
   inkscape:window-width="820"
   inkscape:pageshadow="2"
   inkscape:pageopacity="0"
   guidetolerance="10"
   gridtolerance="10"
   objecttolerance="10"
   borderopacity="1"
   bordercolor="#666666"
   pagecolor="#ffffff" />
<style
   id="style35652"
   type="text/css">
  .st0{fill:#FFFFFF;}
  .st1{fill:#000000;}
</style>
<g
   transform="translate(-38.127164,-78.937038)"
   id="g35740">
	<g
   id="g35738">
		<path
   id="path35654"
   d="m 210.7,89.6 c 0.7,-7.5 4.8,-11.2 11.2,-10.6 1.7,0.2 3,0.6 3.1,2.4 0.1,1.6 -0.8,2.4 -2.4,2.6 -5.8,0.5 -3.7,4.3 -2.8,7.2 0.8,2.6 2,5 2.7,7.7 1.8,7.2 -0.2,12.3 -8.9,14 -2.1,0.4 -3.9,1.5 -6.9,1.1 2.3,1.6 3.9,1 5.3,1.1 3.5,0.3 6,2.4 6.7,5.5 0.6,3.1 -1.4,5.8 -3.7,8 -1.1,1.1 -2.8,0.8 -3.4,-0.5 -1.4,-3.5 -4.5,-4.3 -6.5,-2.1 -2.1,2.3 -2,6.1 0.3,9 3.9,4.8 9.8,6 15.1,8.1 4,1.6 8.2,2.7 12.1,4.8 1.1,-9 6.1,-12.2 13.1,-8.9 1.9,0.9 2.6,1.9 2.3,3.8 -0.3,2.6 -3.3,3.2 -3.9,2.2 -1.5,-2.6 -4.1,-2.5 -4.8,-1.2 -1.1,2.1 0.9,4.2 2.7,5.8 4.4,3.9 9.3,7.1 11.8,12.8 4.2,9.5 3.5,22.4 -6.2,29.7 -5.5,4.1 -11.4,1.9 -17.4,0.6 1.3,8.2 2.4,16.5 4.1,24.6 0.4,2.1 2.8,4.7 4.9,5.3 7.1,2.2 6.7,7.7 5.7,12.7 -1,5.5 -1.1,10.9 -0.7,16.3 0.5,6.2 -1.8,12.2 -0.4,18.5 0.5,2.1 -0.1,6.1 -5.1,4.6 -2.6,-0.7 -4.1,2.4 -4.6,5.1 -0.6,3 -8.4,7.5 -11.2,6.4 -1.5,-0.6 0.1,-3.2 -2.4,-3.1 -1.4,0.1 -2.9,0.5 -5,-0.8 4,-3.5 6.5,-8.1 11.6,-10.2 4.2,-1.8 4.7,-6 4.8,-9.9 0.2,-7.4 0.4,-14.8 -0.9,-22.2 -0.7,-4.3 -3.7,-6.6 -8.6,-6.4 5.2,2.3 5.8,4.3 2.8,9.2 -0.6,0.9 -0.9,1.7 -2.1,1.5 -1.9,-0.3 -1.4,-2.1 -1.1,-2.7 2.2,-3.8 -1.3,-3.7 -3,-4.7 -2.5,-1.5 -3.3,0.2 -4.4,2.1 -1,1.7 -2.8,2.8 -4.1,4.3 -2.7,3 -2.4,4 1.6,5.1 1.1,0.3 2.4,1.2 1.6,2.5 -1.1,2 -3,3.3 -5.4,2.2 -4.2,-1.9 -5.8,-7.3 -3.1,-11.3 1.2,-1.8 2.1,-3.6 3.2,-5.4 0.8,-1.2 0.4,-1.9 -0.5,-2.4 -1.6,-0.9 -1.1,1 -1.5,1.5 -6,7.6 -9.6,16.7 -14.5,25 -2.5,4.1 -4.8,8.4 -7.2,12.5 -1.1,1.8 -2.7,2.7 -5,2.4 -1.8,-0.3 -3.6,-0.2 -4.9,1.6 -6,8 -13.5,11.9 -24.1,7.5 3.1,-3.7 6,-8.3 10.8,-9.7 7.9,-2.4 13.2,-7.6 17.5,-14 4.8,-7.2 8.9,-14.8 12,-23 1.6,-4.1 -0.7,-5.5 -4,-6.4 -0.8,-0.2 -1.8,0.3 -2.5,-0.1 -3.6,-1.8 -4.7,-1 -4.7,3.2 0,4.9 -6.4,9.5 -11.1,8.9 -2.3,-0.3 -3.8,-2 -4.4,-3.6 -0.7,-1.8 1.1,-3.5 2.5,-4.8 1.2,-1.1 2.5,-1 3.5,0.2 1.6,2 0,2 -1.4,2.2 -1.2,0.2 -1,1 -0.5,1.8 0.8,1.1 1.8,1.4 3.1,1 2.5,-1 4.2,-2.5 3.5,-5.6 -0.6,-3.2 -1.5,-6.1 -5.5,-6.3 -4.2,-0.2 -8.6,1 -12,-2.9 -1.4,-1.6 -2.1,-3 -1.2,-4.9 1,-1.9 2.9,-2.6 5.1,-2.3 1.2,0.2 2.1,0.5 1.2,1.8 -1.4,2 0,2.8 1.5,3.1 1.7,0.4 3.4,0.2 3.9,-2 1.4,-5.7 4,-10.8 6.5,-16 1.2,-2.5 1.5,-5.8 -0.3,-8 -1.6,-2 -4.1,-0.4 -6.4,0 -13.6,2.6 -25.9,9.4 -39.6,11.6 -2.2,0.3 -4.4,0.7 -6.4,0.4 -5.9,-1.1 -8.6,2.4 -10.7,6.8 -8.9,18.5 -17,37.4 -24.9,56.3 -0.6,1.5 -0.9,3.4 -2.6,2.9 -4.1,-1.2 -5,1.4 -6.6,4.1 -2.9,4.7 -7.8,6.3 -13,5.9 -4.6,-0.4 -9.1,-1.6 -14.2,-2.5 3,-4.1 6.2,-8 10.2,-10.2 4.9,-2.7 7.6,-6.8 10.2,-11.3 7,-12 9.1,-25.6 12.9,-38.7 0.9,-3.1 1.4,-6.4 2.4,-9.3 2,-5.8 1.9,-10.5 -2,-15.3 -2.9,-3.6 -2.7,-8 -3.5,-12.3 -2.5,-14.4 -1,-27.4 11,-37.4 -2.6,-1.8 -2.6,-1.9 -10.2,0.3 -1.7,0.5 -3,1.4 -4.7,-0.2 -1.4,-1.4 -1.2,0.8 -1.4,1.1 -1.3,2 -2.3,5.3 -5.3,3.3 -2.7,-1.8 -1.4,-4.6 0.4,-7 -1.7,-1.2 -5.4,0.6 -5.3,-2 0.1,-3.5 -0.4,-7.7 2.3,-10.6 5.1,-5.6 8.2,-12.2 10.3,-19.3 -0.3,-0.3 -0.7,-0.6 -1,-1 -1.6,1.9 -3.2,3.9 -4.9,5.7 -1.3,1.5 -3,2.5 -5.1,2.6 -1.6,0.1 -3.3,-0.6 -3.8,-1.7 -0.7,-1.4 1.1,-1.9 2.2,-2.6 1.2,-0.7 2.2,-2 4.1,-3.8 -3.9,0.2 -6.7,-0.5 -9.4,-1.8 -1.8,-0.9 -2.2,-2.4 -3,-3.7 -0.9,-1.6 0.5,-2.7 1.5,-3.8 1.5,-1.6 2.4,-0.2 3.2,0.8 3,3.6 6.2,3.1 10.6,0.7 C 61.1,100.8 53.6,93.2 44.2,88.5 41.3,87.1 37,84.7 38.4,81.8 c 1.6,-3.1 5.5,0.1 8.1,1.4 7.5,3.9 14.8,8.2 22.4,12.5 -0.4,-2.4 -2.5,-5.1 1.5,-6.9 1.1,1.9 0,5.8 4.1,5.2 3.9,-0.6 1.8,-4 2.8,-5.8 2,-0.7 2.3,1.9 4,1.8 1.2,-1 -0.2,-1.9 -0.4,-2.4 -1.3,-2.2 -1.3,-4 0.8,-5.6 2,-1.6 4.9,-1.8 6.3,-0.3 2.1,2.5 3.6,1.3 5.5,0.3 2.8,-1.4 6.2,1.9 8.9,-1 -0.8,4.1 1.7,2.2 3.5,2 2.3,-0.2 4.5,0.1 6.8,0.8 1.8,0.6 3.7,0 4.8,2.5 0.4,1 3.8,2.1 4.7,-1.2 0.5,-1.8 1.7,-2.6 3.3,-2.1 1.7,0.5 1.7,2.2 1.7,3.8 0,5 1.4,6.2 6.1,5.1 1.7,-0.4 3.5,-2.1 4.7,-0.1 1,1.6 -0.1,3.5 -2,4.7 3.2,1 6.7,0.3 8.1,3.5 1.1,2.4 -1.3,3.8 -2.7,5.3 1.7,1.1 3.2,2.1 4.8,3.1 -0.6,0.8 4.9,2.1 -0.2,2.6 -0.7,0.1 -0.6,0.7 -0.2,1 2.6,1.7 3.3,5.1 5.7,7 1.1,0.8 2.7,1.8 3.4,0.5 0.8,-1.4 -0.7,-2.3 -2.1,-2.5 -0.5,-0.1 -0.9,-0.2 -1.5,-0.4 1.7,-2.4 3.5,-1.6 5.6,-0.7 2.2,0.9 1.4,2.7 1.1,3.7 -0.7,2.9 -1.9,5.7 -6.4,5.5 6.6,4.7 3.1,10.6 2.8,15.9 -0.1,1 -2.3,1.8 -0.6,3.2 1.2,1 2.7,2.3 4.4,1.7 1.7,-0.6 0.5,-2.3 0.9,-3.5 0.1,-0.4 0.3,-0.9 0.5,-1.6 3.5,1.2 2.8,3.8 2,6.1 -1.2,3.5 -4.5,5.2 -7.4,3.8 -4.8,-2.3 -5.4,1.7 -5.8,3.7 -0.6,2.9 2.6,3 4.8,3.5 6.3,1.4 12.8,1 19.2,1 19.7,0.1 37.5,5.7 53.4,17.4 2.6,1.9 4.5,4.7 6.5,7.3 2.5,3.4 6.2,5.2 10.3,4 5.2,-1.6 6,-6.4 6.4,-11 0.4,-4.3 -0.2,-8.2 -4.9,-10.2 -1.3,-0.6 -2.7,-0.9 -3.7,-0.1 -0.7,0.6 -1.2,1.9 -1.2,2.9 0,1.1 2.9,2.3 0.5,3.3 -1.9,0.8 -4.5,1.2 -6.5,-0.9 -3,-3.1 -2.4,-5.9 0.4,-8.9 4,-4.2 4,-4.3 -1.1,-6.7 -6.1,-2.9 -12.4,-5.1 -18.9,-7 -9.6,-2.8 -17.3,-7.7 -20.5,-17.8 -0.6,-1.8 -1.1,-3.6 -3.8,-3.4 -2,0.1 -3.7,0.4 -4.7,2.1 -0.8,1.2 -1.3,2.9 0.3,3.9 1.1,0.7 2.9,2.4 3.6,-0.7 0.2,-0.7 1.2,-1.5 2,-1.1 1,0.6 0.7,1.6 0.3,2.6 -1.6,3.5 -5.2,4.4 -8.9,2.2 -4.2,-2.5 -6.2,-7.4 -3,-9.8 6.4,-4.9 11.8,-10.4 16.2,-17.2 1.4,-2.1 5.2,-3 8.1,-3.8 2.5,-0.7 4.4,-2 6.1,-3.8 1.1,-1.2 3.5,-2.5 0.9,-4.2 -1.6,-1.1 -4.2,-2.8 -5.5,0.8 -1.1,3.2 -3.7,2.7 -5.5,1.5 -2,-1.4 -3.9,-3.4 -2.5,-6.6 2.5,-5.5 8.4,-7.4 14,-4.1 z"
   class="st1" />
		<path
   id="path35656"
   d="m 108.8,94.8 c -3.7,-2 -6.9,1.7 -10.6,0.7 -1.8,-0.5 -4,2.7 -5.8,1 -3.4,-3.1 -8.1,-5.1 -9.7,-10.2 -0.6,-1.8 -0.1,-2.4 0.9,-3.3 0.3,-0.3 0.7,-1.4 1.5,-0.6 0.4,0.4 1.2,0.6 0.6,1.5 -0.9,1.3 -0.7,2.5 0.5,3.5 2.2,1.8 3.9,5.7 6.7,4.8 2.7,-0.8 -0.7,-2.2 -1.3,-3.2 -0.7,-1 -2.1,-1.5 -3.1,-2.3 -0.6,-0.5 -1,-1.2 -2,-2.3 2.6,-0.2 4.2,2.1 6.8,-0.1 2.1,-1.8 0,0.8 0.2,1.2 0.6,1.7 1.4,3.8 3.2,4.1 2.1,0.4 4.4,-1 5.3,-2.5 1.3,-2.1 2.9,-2.6 4.9,-3.2 -0.1,2.2 -4.4,1.7 -2.3,4.7 2.8,-1.7 5.1,-5.8 9.6,-2.3 -2,1.3 -5.5,-0.8 -6.1,4.1 5.2,-5.9 12.3,2.7 17.1,-4.6 0,4.7 -3.2,4.9 -6,6 5.7,-0.3 10.8,4 16.8,1.5 -4.6,2.7 -10.5,1.2 -14.8,4.9 7.6,-3.9 13.8,1.6 21.1,1.9 -2.8,4.3 -2.9,4.4 -6.1,2.2 -2.9,-2 -5.7,-4.1 -9.8,-3.2 5.8,3.8 11,8.3 17.5,10.6 -1.4,0.1 -2.8,0.3 -4.3,0.4 7.2,1.4 6.4,11.9 15.3,12.2 -8.7,2.7 -12.7,-5.5 -19.7,-6.7 4,8.1 14.3,7.4 17.7,15.2 -2.3,0.7 -3.7,-2.7 -6.5,-1.4 1.7,1.5 3.3,3 5,4.2 2.2,1.6 2.2,3.7 1.5,6.2 -1.6,-1.9 -2.6,-4.3 -6,-4.9 2.7,5.6 3.4,11.7 11.2,13.8 -6.9,-0.2 -10.6,-2.5 -11.7,-9.1 -1.1,-6.6 -6.9,-9.3 -9.6,-14.3 -0.3,-0.6 -2.1,-0.6 -2.2,-1.7 -0.1,-1.1 1.4,-0.3 1.8,-0.8 0.8,-1 -0.3,-0.8 -0.8,-0.9 -3.1,-0.8 -1.2,-4.1 -3,-5.9 -1.9,-1.9 1,-1.9 2.8,-2.8 -3.6,-0.1 -6.5,-0.3 -9.1,-2.1 1.6,3.5 4.8,6.4 4.6,10.2 -0.4,5.8 3.7,7.2 7.4,9.6 2.1,1.4 3.4,4.1 4.7,6.6 -2.9,-3.3 -7.7,-3.9 -10.2,-7.8 -0.3,2.7 -1.5,5.6 2.9,5.2 0.2,0 0.4,-0.1 0.5,0 4.6,3.7 8.6,7.9 10.8,13.5 -3.7,-4.3 -8,-7.9 -12.3,-11.4 -0.6,-0.5 -1.1,-1.8 -2.3,-0.6 1.7,0.4 -1.1,1.9 0.7,2.6 5.8,2.2 6.7,9 11.5,12.4 1.2,0.9 0.2,2.8 -0.7,4.4 -2.2,3.9 -3.7,8.2 1.4,11.9 -5.4,-1.5 -5.7,-2.3 -6.5,-14.2 -7.1,8 -11.9,13.2 -18.4,8.2 9.5,2.3 12.4,-4.6 16.7,-9.4 2.4,-2.6 -0.7,-4.8 -0.8,-7.2 -0.1,-1.3 -1.8,-2.6 -2.8,-4 -4,2.6 -1.9,8.2 -5.6,10.9 0.3,0.3 0.4,0.8 0.8,1 1.2,0.8 3.6,1.4 2.3,3.2 -1.6,2.4 -3.8,4.6 -7,4.9 -2.3,0.2 -4.1,-0.7 -5.7,-2.2 -0.6,-0.6 -0.4,-1.1 0,-1.7 0.8,-1.1 1.9,-1.4 3.1,-0.9 1.4,0.6 2.6,1.8 4.7,1.6 -0.9,-2.8 -2.4,-3.9 -5.1,-3.9 -2.5,0 -4,1 -5.1,3 -0.7,1.4 -1.2,2.3 0.2,3.8 6.7,6.8 10.3,7 17.5,1 0.6,-0.5 1.2,-1.1 1.9,-1.8 0.8,6.8 6,11.2 12.7,11 2,0 3.6,-0.3 3.8,-2.8 0.2,-2.6 -0.1,-3.1 -3.8,-4.3 0.4,1.8 2.7,2.8 1.4,4.9 -0.9,-0.8 -1.8,-1.7 -2.8,-2.5 -2.2,-1.9 -4.2,-3.9 -1.8,-7.1 2,-2.6 3.4,0.4 5.2,0.5 3.4,0.1 6.7,1.4 10.2,1.4 11.3,-0.2 22.7,0 33.7,3 12,3.4 23.7,7.6 32.6,17 2.8,3 4.6,7 9.2,8.3 8,2.3 15,-2.5 15.2,-10.7 0.1,-2.3 0.1,-4.7 0,-7 -0.2,-5 -5.1,-9.4 -9.8,-8.6 -4.1,0.7 -4.3,4.2 -4.2,7.8 -1.9,-1.2 -3.7,-2.1 -2.6,-4.7 1.8,-4.1 4.8,-6 9.5,-5.2 -7.4,-8.7 -17.8,-10.8 -27.6,-13.9 -9,-2.9 -15.8,-8 -20.1,-16.4 -2.2,-4.2 -7.6,-6.2 -11.6,-4.4 -3.3,1.5 -2.4,4.7 -2.7,7.7 -3.4,-1.9 -1.8,-4.3 -0.7,-6.2 2.3,-4.1 7.1,-5.7 11.7,-4.2 -1.2,-7.2 1.9,-12 9.2,-14.5 3.1,-1 5.7,-2.9 8.4,-4.6 2.2,-1.4 3.6,-3 3.5,-5.3 C 214,97 211.7,96 210,95.5 c -2.3,-0.7 -4.8,-1.1 -6.9,1.1 -0.7,0.7 -0.4,3.8 -2.8,1.9 -1.7,-1.4 -1,-2.6 0.2,-4.2 3.2,-4.4 8.9,-4.3 13.1,0.5 0.7,0.7 0.3,2.6 2.8,2.1 -0.4,-4.7 -6.3,-9.8 0.1,-14.6 1.9,-1.4 3.6,-1.3 5.6,-0.9 -4.6,1.9 -7.2,6.8 -4.3,11.1 3.9,5.8 1.6,9.5 -1.9,13.6 -0.4,0.5 -0.9,1 -1.9,2.1 4.2,-0.7 4.7,-4.3 7.2,-6.3 0,4.8 -2.5,7.1 -6.5,8.1 -3,0.8 -6,1.2 -8.8,2.3 -1.4,0.5 -3.1,1.8 -2.4,3.8 0.6,1.8 2.3,0.7 3.4,0.9 2.9,0.5 6.4,-1.3 8.1,2.7 -5.1,-0.2 -10.7,-3.1 -14.7,3.2 3.2,0.5 5.2,-2.9 8.5,-2 1.7,0.4 3.4,0.9 5.2,1.1 1.1,0.1 1.4,0.6 1.3,1.6 0,0.9 -0.4,1.8 -1.3,1.9 -1.3,0.1 -0.3,-1.3 -0.8,-1.7 -2.5,-1.6 -5.5,-1 -8,-0.5 -1.8,0.3 -3.6,2.1 -3.9,4.6 -0.7,5.8 2.4,11.1 7.9,13.2 7.2,2.7 14.5,5.2 21.5,8.2 3.5,1.5 7.2,2.8 10,6 -2.4,-4.4 -7.9,-7.5 -4.5,-13.4 1.8,-3.2 5.1,-1.1 7.7,-1.5 -3.3,0.8 -7.8,0 -6.7,5.9 0.4,1.9 1.7,2.8 2.7,3.9 5.2,5.6 11.4,10.2 13.6,18.3 2,7.5 -0.6,17.3 -7.4,22.2 -3.2,2.4 -11.2,2.5 -16.2,-2.4 -5,-4.8 -9.3,-10.4 -15.2,-14.2 -1.9,-1.2 -3.7,-2.6 -6.1,-1.6 9.4,5.3 16.3,13 19.2,23.2 2,6.9 2.3,14.4 3.4,21.6 0.4,2.9 2,4.9 4.8,6.3 6.7,3.3 7.6,4.7 6.1,11.9 -0.9,4.3 -0.6,8.5 -0.8,12.8 -0.3,4.9 0.6,9.9 -0.9,14.8 -1,3.2 1.1,6.4 0.9,10.7 -1.6,-3.6 -3.2,-4.7 -5.4,-1.7 -1.8,2.4 -4,4 -7.4,2.8 9.1,-8.5 7.2,-19.1 5.9,-29.7 -0.5,-4.6 -1,-8.9 -4,-12.8 -1,-1.3 -1.6,-2.5 -3.3,-2.2 -3.1,0.5 -4.9,-1.2 -6.5,-3.5 0.5,-1.3 2.6,0.2 2.6,-1.4 -0.1,-2.4 -3,-3.5 -4.1,-3.5 -2.1,-0.2 -3,-1.1 -4.1,-2.4 -1.2,-1.5 -1.9,-0.6 -2,0.6 -0.3,2.9 -3.5,5.4 -1,8.6 3.4,4.2 2.9,7.9 -1,11.5 -2.3,2.1 -3.7,4.7 -4.1,8.4 -1.9,-4.1 0.8,-6.4 2.5,-8.8 4.4,-6.3 2.7,-8.4 -0.4,-12.3 -4.7,-6 -10.2,-11.6 -12.1,-19.6 -1.3,-5.6 -4.3,-10.5 -8.9,-14.2 -0.9,-0.7 -1.8,-1.5 -2.5,-2.5 -2.9,-4.2 -8,-8.5 -11.6,-7.1 -4.5,1.7 -7.9,-4.8 -11.3,0 3.9,2.4 9.3,1.3 13.1,5 -2.1,1.3 -4.1,-2.2 -6.2,-0.1 1.5,2.6 5.3,2.2 7.6,5.1 -5.4,0.4 -10.3,1 -15.3,2.1 -3.2,0.7 -6.1,1.9 -9.1,3.1 -4.7,1.9 -9,5.9 -14.4,1.4 0.5,0.8 1.1,1.6 1.6,2.3 -6.1,0.4 -8,-6.6 -14,-8.1 2.1,3.5 4.7,4.9 7,6.9 0.4,0.3 3.2,-0.2 1.4,1.9 -0.9,1 -1.7,0.7 -2.5,-0.2 -2.2,-2.5 -5,-4.3 -6.7,-7.3 -0.8,-1.4 -1.6,-2.8 -4.5,-2.8 2.9,4.9 7.4,7.6 10.8,12.1 -5.1,-1.9 -7.8,-5.6 -11.3,-9.9 0,6.3 5.4,7.1 7.4,10.5 -4,1.5 -5.1,-3.3 -8.1,-4.7 -0.6,2.5 2.3,2.8 2.5,5.4 -2.5,-2.2 -6.3,-2.7 -3.9,-7.1 0.5,-0.9 0,-1.8 -0.6,-2.7 -2.2,-3 -0.6,-4.6 2.4,-5.4 0.4,-0.1 0.7,0 0.8,0.4 -0.1,-1 -0.7,0.1 -0.9,-0.2 0.2,-1 0.3,-1.9 0.6,-3.4 -2.1,0.9 -4,4.7 -5.5,-0.3 -2.2,6.1 -2.7,11.6 0.6,16.8 0.6,1 0.3,1.4 -0.3,2 -7.3,6.5 -10,15.8 -14,24.1 -5.3,10.9 -9.9,22.3 -14.9,33.4 -1.2,2.5 -1.1,5.7 -3.5,7.9 -0.3,-1.1 -0.5,-1.9 -0.8,-2.8 -8.3,7.3 -8.3,7.3 -14.2,5.9 12.9,-8.2 16.7,-21.3 20.8,-34.5 3.2,-10.5 5.5,-21.4 10.6,-31.3 1,-1.9 1.2,-3 3.2,-1.7 1.2,0.8 1.7,0.1 2.5,-0.4 1.5,-0.8 3.2,-2.5 4.4,0.8 0.5,1.3 2,0.6 4.1,-2 -1,-2.1 -2,2.5 -2.9,0.1 -0.5,-1.5 0.5,-1.7 1.8,-2.1 1.6,-0.4 0.8,-0.8 0,-2 -2.2,-3.2 -8.2,-4 -6.2,-10.1 -3.1,2.6 -1,5.3 -0.9,7.9 -3.8,-0.3 0.6,-7.6 -5.6,-6.5 0,-1.2 -0.1,-3 0.1,-4.6 0.1,-0.8 1.5,-1.9 0,-2.3 -1.2,-0.4 -2.2,0.8 -2.2,2.1 -0.1,2.5 0,4.9 -0.2,7.4 -1.2,-5.7 -6,-10.6 -2.1,-17.2 3.6,-6 8.8,-9.8 14.8,-14.3 -5.3,0.4 -8.2,3.9 -11.2,6.3 -3.7,3 -7,6.9 -9.2,11.3 -0.6,1.3 -3.6,4.4 1.1,5.3 1,0.2 0.6,1.8 0.1,3 -1.6,3.9 0.9,6.8 3.1,9.8 -0.5,-1.8 -1,-3.6 -1.5,-5.4 0.2,-0.1 0.4,-0.2 0.6,-0.2 1.1,2.1 2.3,4.2 3.4,6.4 -7.9,1 -13.8,-5.7 -12.7,-14.1 1.9,2.7 1,7.1 5.3,8.8 0.3,-2.8 -1.1,-4.9 -1.8,-7.1 -1.4,-4.6 0,-8.1 2.2,-12.1 1.8,-3.3 6.2,-4.5 6.4,-9.6 -3.1,2.6 -6.1,4.6 -7.5,8.1 -0.8,2 -2.1,3.9 -3.9,3.9 -1.5,0 -0.9,-2.5 -1.3,-3.8 -2.7,-8.3 0.7,-14.8 5.8,-20.9 1.3,-1.5 2.7,-3 4.3,-4.2 0.8,-0.6 0.5,-2.4 1.9,-2.1 0.7,0.2 1.5,1 1.7,1.7 0.4,1.7 -2,1.2 -2.3,2.5 3.6,1.5 14.1,-0.7 16.1,-3.7 1.1,-1.7 1.4,-3.9 -0.3,-5.4 -2.3,-2.1 -2,1 -2.8,1.7 -2.5,2.3 -4.7,2.2 -7.4,0.1 -3.3,-2.7 -0.6,-3.9 0.8,-5.8 1.4,-1.9 5.7,-2.8 2.5,-6.7 -0.7,-0.8 2.2,-1.3 3,-2.6 0.6,-0.9 1.4,-0.2 2,0.4 1.7,1.7 1.8,1.7 2.7,-0.1 1.5,-2.8 2.9,-5.7 4.4,-8.5 0.9,-1.8 1.2,-3.4 -1,-5.1 -0.6,2.2 0,4.6 -1.5,6.4 -1.4,1.6 -1.4,4 -4.1,6 1.6,-4.9 4.5,-8.9 2.3,-13.6 -1.9,-4.2 -6.4,-7.7 -10.7,-7.5 1.1,0.9 2.2,1.8 3.4,2.6 7.4,4.9 7,14.7 -0.8,19 -2.3,1.3 -4.9,2.4 -7.5,3 -4.6,1 -6.7,4.6 -8.9,8.1 -0.7,1.1 0.8,1.7 1,1.6 4.2,-2.8 6.9,1.5 9.2,3 5.9,3.9 5.9,4.4 12.1,0.9 -2.9,4.4 -7.1,5.2 -10.7,2 -3.4,-3 -7.9,-3.4 -12,-4.8 -1.6,-0.5 -2.2,2.4 -4.1,2.8 -1,0.2 -2.1,0.8 -2.7,0 -0.9,-1 0.3,-1.8 1,-2.4 3,-2.3 2.4,-7.2 6.6,-8.7 -9.5,-3.6 -13,5.7 -19.6,8.2 1.2,-1.3 -0.8,-5.4 3.6,-3.9 0.9,0.3 1.5,-0.7 1.9,-1.4 0.6,-0.9 -0.2,-1.5 -0.8,-2.1 -1.8,-1.5 -2.3,1.2 -3.9,1.2 2.8,-5 5.7,-9.7 8.3,-14.5 2.3,-4.3 3.1,-9.3 8.4,-11.7 1.1,-0.5 5.6,-4.1 -0.4,-6 -1.9,-0.6 -3.6,-2.6 -5.6,-3.7 -1.3,-0.8 -0.4,-3.5 -2.4,-4.2 0.6,-0.4 1.3,-1.2 1.9,-1.1 1.3,0.2 3.1,0.2 3,2.1 -0.2,3.4 3.2,3.7 4.6,5.7 0.5,0.8 1.3,1 2.1,0.4 1.1,-0.8 0.4,-1.4 0.2,-2.4 -0.8,-3.3 -3.5,-4.9 -6.6,-7 5.6,-0.3 7.4,3 8.4,6.8 0.7,2.6 2.3,4 4.5,5 1,-1.1 0.5,-1.8 -0.2,-2.3 -1.5,-1.3 -1.8,-3.2 -0.7,-4.3 0.9,-0.9 2.7,-1 4.4,-1.2 3.7,-0.5 8.7,1.9 10.8,-3.5 0.7,0 1.4,-0.1 2.5,-0.4 -1.3,-0.1 -2,0 -2.6,0.2 z"
   class="st0" />
		<path
   id="path35658"
   d="m 186.5,206.6 c 1.9,1.7 3.8,3.3 5.6,5.1 0.8,0.8 3.5,-0.6 2.7,1.7 -0.7,2 -2.1,-1.2 -3.6,0.1 1.4,1.3 2.9,2.6 4.5,4.2 -5.9,0.9 -11.6,-3.5 -18.6,0.4 7.4,-0.3 13.5,-0.1 19.8,1.4 -5.1,1.7 -9.7,-2 -14.5,0 4.7,1.4 9.7,0.8 14.4,2.9 -3.9,2.6 -8.1,3.1 -12.7,2.4 2.2,-3.4 5.8,-0.7 8.6,-2.3 -4.7,-1.8 -10,1.4 -14.5,-1.8 -4,3.8 1,8.5 -0.6,13.2 -1.4,-4.7 -6.8,-8.1 -2.2,-13.8 -5,5.9 -10.9,7.9 -15.3,4.9 -1.5,-1.1 -3.6,-2.7 -0.3,-5.1 -0.5,3.1 0.7,4.7 3.2,5.1 2.5,0.3 4.8,0.3 6.6,-2.2 2,-2.9 0.9,-8.8 7.3,-7.8 4,0.6 8.2,-0.8 12.2,1 0.2,0.1 0.6,-0.1 1.5,-0.2 -5.8,-3.9 -11.9,-1 -17.7,-2 2.2,-3.1 5.3,-1.2 7.8,-1.8 2.6,-0.7 5,1.7 8.4,0.6 -4.7,-3.1 -9.5,-0.5 -13.8,-1.9 2.5,-1.6 5.3,-1.9 8.1,-2.5 -2.1,-0.1 -4.2,-0.2 -6.5,-0.3 0.1,-0.6 0.3,-1.2 0.2,-1.6 -0.6,-1.7 4.6,-1.7 1.3,-4.2 0.8,-0.9 0.1,-3 2.9,-2.3 2.9,0.7 6,0.4 9.1,3.3 -3.2,-0.7 -5.6,-1.8 -8.8,-0.4 2.1,0.2 3.5,0.3 5.2,0.5 -1.4,1.4 -3.1,0.2 -4.6,1.3 1.8,1.1 4,-0.2 5.5,1.4 0.3,0.3 1.6,0.1 0.5,1 -0.3,0.3 -1.2,-0.2 -1.7,-0.3 -1.6,-0.1 -3.1,0 -3.7,-0.1 0.6,0 2.1,0.1 3.7,0.1 z"
   class="st0" />
		<path
   id="path35660"
   d="m 163.8,276.7 c 3.4,-3.1 7.5,-3.4 10.4,-6.2 7.2,-6.8 11.5,-15.3 15.4,-24 1.8,-3.9 3.3,-5.4 7.8,-2.2 -1.2,-3.3 -3.6,-2.9 -4.6,-3.5 -0.7,-6.9 4.9,-4.7 8.5,-5.6 -2.5,-1.7 -5.7,-0.6 -7.9,-3.9 2.9,0.6 4.9,2.3 7.3,1.8 0.7,-0.1 2.2,-0.9 1.7,1.5 -0.2,1.3 -0.3,2.2 -1.4,2.3 -1.8,0.2 -3.6,0.1 -5.9,0.1 1.8,2 4,0.3 5.4,1.4 -1.1,3.8 -3.8,-1 -5.3,1.3 4.5,0.9 3.5,3.1 1.8,6.3 -4.7,8.6 -9.9,16.9 -15.1,25.2 -0.6,1 -1.5,2.6 -2.4,1.6 -2.8,-3 -4.8,0.1 -5.7,1.2 -2.7,3.1 -5.8,3.4 -10,2.7 z"
   class="st0" />
		<path
   id="path35662"
   d="m 65.7,272.2 c 9.1,-10.7 13.5,-22.7 16.3,-35.4 1.6,-7.2 3.3,-14.4 5.3,-21.5 1,-3.4 4.8,-3.6 7.6,-5.4 0.2,3.5 -2,5.8 -2.1,9 -1.4,-1.2 -2.6,-2.2 -3.8,-3.2 -0.2,0.2 -0.4,0.3 -0.7,0.5 1.1,1.8 2.2,3.6 3.3,5.4 -0.8,0.6 -1.3,0.1 -1.8,-0.3 -0.6,-0.5 -1.1,-2 -2.2,-0.5 -0.9,1.3 0.4,2 1.1,2 2.9,0.1 1.9,1.1 1.4,3 -3.8,12.2 -7.6,24.4 -13,36 -1.9,4.1 -5.4,6.5 -8.2,9.7 -0.5,0.5 -1.5,0.4 -3.2,0.7 z"
   class="st0" />
		<path
   id="path35664"
   d="m 65.7,119 c 3.7,-2.4 4.9,-6.9 8.1,-9.8 -2.8,1.6 -5.7,2.5 -8.7,1.8 -2.8,-0.6 -6.2,-0.6 -6.7,-5.4 4.8,4.3 9.7,4.3 14.8,1.7 2.2,-1.1 3.2,0.7 4.6,2.1 -4.5,2.6 -7,7.7 -12.1,9.6 z"
   class="st0" />
		<path
   id="path35666"
   d="m 101,135.4 c -2,1.6 -3.1,4.6 -5.9,5 -1,0.1 -3.7,-0.4 -4,-2.6 -0.2,-1.9 5.5,-5.2 8.1,-4.6 0.9,0.1 1.7,0.8 1.8,2.2 z"
   class="st0" />
		<path
   id="path35668"
   d="m 70.5,150.8 c 0.6,-6.3 4.3,-10.5 8.6,-14.3 0.5,-0.4 1.8,-0.7 2.2,-0.3 1,0.8 -0.2,1.9 -0.5,2.3 -3.4,4.1 -8.2,7.1 -10.3,12.3 z"
   class="st0" />
		<path
   id="path35670"
   d="m 223.8,284 c 0.6,-3 3.4,-3.6 3.3,-6.1 -0.1,-1.4 1.5,-0.8 2.4,-0.9 1,-0.1 1.6,0.4 1.5,1.4 -0.1,0.9 0.5,1.9 -0.8,2.5 -2,0.9 -3.9,1.9 -6.4,3.1 z"
   class="st0" />
		<path
   id="path35672"
   d="m 64,273.9 c -3,3.8 -5.1,6.2 -8.7,6.8 2.8,-1.8 2.9,-6.8 8.7,-6.8 z"
   class="st0" />
		<path
   id="path35674"
   d="m 155.2,282.7 c 0.9,-1.6 2.1,-2.6 3.7,-3.1 1.3,-0.4 1.9,-3.5 3.4,-1.5 1.1,1.4 -1.3,2.6 -2.4,3.4 -1.1,0.8 -2.5,2 -4.7,1.2 z"
   class="st0" />
		<path
   id="path35676"
   d="m 64.9,283.2 c 1.1,-2.5 3.7,-2.1 4.2,-4.3 0.4,-1.7 1.9,-0.8 2.9,-0.9 0.8,-0.1 1.2,0.6 0.9,1.3 -0.4,0.9 -1.1,1.4 -2.2,1.7 -1.8,0.5 -3.5,1.3 -5.8,2.2 z"
   class="st0" />
		<path
   id="path35678"
   d="m 161.5,283.9 c 1.8,-2.3 3,-6 7.3,-4.7 -1.8,2.8 -5.2,2.6 -7.3,4.7 z"
   class="st0" />
		<path
   id="path35680"
   d="m 61.1,281.9 c 1.2,-1.7 2.2,-3.2 3.2,-4.7 0.6,-0.8 1.3,-1.5 2.2,-0.3 0.7,1 0.8,1.7 -0.7,2.1 -1.7,0.5 -2.1,3 -4.7,2.9 z"
   class="st0" />
		<path
   id="path35682"
   d="m 73.2,102.2 c -0.5,0.6 0.1,1.8 -1,1.4 -1.4,-0.6 -3.3,-0.8 -3.2,-3 0,-0.6 0,-1.6 0.9,-1.4 1.7,0.2 2.4,1.7 3.3,3 z"
   class="st0" />
		<path
   id="path35684"
   d="m 61.7,94.4 c 3,1.4 4.4,2.8 5.5,5.2 -3.7,-1.5 -3.7,-1.5 -5.5,-5.2 z"
   class="st0" />
		<path
   id="path35686"
   d="m 224.9,276.1 c -0.7,4.1 -0.8,4.2 -5.4,4.7 2,-1.7 3.5,-3.1 5.4,-4.7 z"
   class="st0" />
		<path
   id="path35688"
   d="m 80.3,104.2 c 2.4,1.4 3.3,3.1 2.4,5.5 -2.4,-1.1 -3.3,-2.8 -2.4,-5.5 z"
   class="st0" />
		<path
   id="path35690"
   d="m 76.9,106 c -1.1,-0.4 -1.9,-1.1 -1.9,-2.4 0,-0.9 0.2,-1.8 1.2,-1.5 1.1,0.3 1.9,1.2 1.7,2.6 0,0.6 0,1.3 -1,1.3 z"
   class="st0" />
		<path
   id="path35692"
   d="m 56.3,89.9 c 0.9,3.1 4.6,2.5 3.4,6 -1.5,-1.5 -3.6,-2.2 -3.4,-6 z"
   class="st0" />
		<path
   id="path35694"
   d="m 45.9,85.1 c 2,0.9 3.8,1.1 4.3,3.7 -2,-0.7 -3.7,-0.9 -4.3,-3.7 z"
   class="st0" />
		<path
   id="path35696"
   d="m 53.7,91.9 c -1.2,-1.1 -2.5,-1.6 -2.6,-3.2 0,-0.2 0.8,-0.8 1,-0.7 1.7,0.7 2.3,1.8 1.6,3.9 z"
   class="st0" />
		<path
   id="path35698"
   d="m 41,83 c 2,0.2 3.2,0.8 4.9,2.8 C 43.5,85.3 42.1,85.1 41,83 Z"
   class="st0" />
		<path
   id="path35700"
   d="m 86.1,121.7 c 2.5,0.6 4.5,0.1 7.3,-1.2 -2.8,4 -5.7,3.5 -8.5,2.4 -2.7,-1.1 -3.4,-4.7 -3.3,-6.4 0.1,-2.3 3.4,-3.3 6.2,-3.6 2.1,-0.2 6.5,2.3 5.4,-3.3 0,-0.1 0.6,-0.5 0.7,-0.5 0.9,0.3 1.8,0.6 2.6,1.1 1,0.7 0.3,1.5 -0.3,2 -3.6,2.8 -5.7,7.1 -10.1,9.5 z"
   class="st1" />
		<path
   id="path35702"
   d="m 98.2,228.2 c -0.9,5.6 -3.9,10.4 -5.7,15.7 -0.8,2.4 -1.7,5.3 -5.6,6.4 1.9,-4.4 3.1,-8.5 5.2,-12 1.7,-2.8 1.9,-6.1 3.6,-8.9 0.8,-1.3 1.3,-1.7 2.6,-1.1 z"
   class="st1" />
		<path
   id="path35704"
   d="m 239,238.6 c 0.2,-5.1 0.5,-9.1 -3.8,-12.1 6.6,0.9 7.1,5.2 3.8,12.1 z"
   class="st1" />
		<path
   id="path35706"
   d="m 98.3,228.3 c 0.2,-3 0.4,-6 3.5,-7.7 0.5,-0.3 0,-2 1.4,-0.9 0.6,0.4 0.8,0.9 0.1,1.5 -2.1,2 -2.3,5.5 -5.1,6.9 0,0.1 0.1,0.2 0.1,0.2 z"
   class="st1" />
		<path
   id="path35708"
   d="m 109.8,159.4 c -1.5,4.4 -6,4.4 -9.2,6.4 2.3,-3.1 6.6,-3.5 9.2,-6.4 z"
   class="st1" />
		<path
   id="path35710"
   d="m 191.7,190.6 c 2.1,1.9 2.6,3.8 2,6.2 -2.4,-1.4 -3.5,-3.1 -2,-6.2 z"
   class="st1" />
		<path
   id="path35712"
   d="m 78.4,132.6 c 3,-2.1 6.2,-2.4 10.7,0.3 -4.5,0 -7.5,-2.2 -10.7,-0.3 z"
   class="st1" />
		<path
   id="path35714"
   d="m 171.2,191.5 c -3.7,1.3 -5.6,-0.9 -8.4,-2.1 3.4,-0.6 5.5,1.1 8.4,2.1 z"
   class="st1" />
		<path
   id="path35716"
   d="m 128.1,103.6 c -2.9,0.9 -5,-1.8 -7.6,-0.8 2.6,-0.8 5.1,-1.7 7.6,0.8 z"
   class="st1" />
		<path
   id="path35718"
   d="m 156.6,189.1 c 3.6,-0.3 5.2,1.5 7.3,2.4 -3.1,1.7 -4.6,-1.1 -7.3,-2.4 z"
   class="st1" />
		<path
   id="path35720"
   d="m 152.2,189.4 c 3,-1.6 3.4,2.2 5.6,2 -2.7,1.4 -4.3,0.1 -5.6,-2 z"
   class="st1" />
		<path
   id="path35722"
   d="m 190,192.3 c -1.6,-0.3 -2.8,-1 -2.9,-2.6 0,-0.2 0.7,-0.7 1,-0.6 1.6,0.4 0.7,2.4 1.9,3.2 z"
   class="st1" />
		<path
   id="path35724"
   d="m 108.8,94.8 c 1.5,-0.9 2.8,-2.1 4.9,-1.6 -1.5,1.6 -3,2.4 -5,1.5 -0.1,-0.1 0.1,0.1 0.1,0.1 z"
   class="st1" />
		<path
   id="path35726"
   d="m 109,98.2 c 1.2,-2.6 2.8,-2.3 5.1,-1.8 -1.9,0.6 -3.2,1.1 -5.1,1.8 z"
   class="st1" />
		<path
   id="path35728"
   d="m 116.5,102 c 0.8,-2.4 2.4,-2.2 4.4,-1.5 -1.4,0.8 -3.1,0.4 -4.4,1.5 z"
   class="st1" />
		<path
   id="path35730"
   d="m 119.6,191.4 c 1.3,-0.5 2.6,-1 4.2,-1.6 -1,2.6 -2.4,2.6 -4.1,1.4 0,0.1 -0.1,0.2 -0.1,0.2 z"
   class="st1" />
		<path
   id="path35732"
   d="m 128.4,104.7 c -2.1,1.9 -3.5,0.8 -5.8,1.8 2.2,-2.2 3.7,-1.1 5.8,-1.8 z"
   class="st1" />
		<path
   id="path35734"
   d="m 186.5,206.6 c -2,0.7 -4,0.6 -7.1,-0.1 3.1,-0.5 5.1,-1 7,0.2 0,-0.1 0.1,-0.1 0.1,-0.1 z"
   class="st1" />
		<path
   id="path35736"
   d="m 85.3,115.2 c 1.5,0.3 1.5,1.8 2.1,2.8 0.6,0.9 -0.2,0.8 -0.8,1 -1.7,0.4 -1.5,-1.2 -2.1,-2 -0.7,-1 0.5,-1.2 0.8,-1.8 z"
   class="st0" />
	</g>
</g>
</svg>
