<?xml version="1.0" encoding="UTF-8" standalone="no"?>
<svg
   xmlns:dc="http://purl.org/dc/elements/1.1/"
   xmlns:cc="http://creativecommons.org/ns#"
   xmlns:rdf="http://www.w3.org/1999/02/22-rdf-syntax-ns#"
   xmlns:svg="http://www.w3.org/2000/svg"
   xmlns="http://www.w3.org/2000/svg"
   xmlns:sodipodi="http://sodipodi.sourceforge.net/DTD/sodipodi-0.dtd"
   xmlns:inkscape="http://www.inkscape.org/namespaces/inkscape"
   inkscape:version="1.0 (4035a4f, 2020-05-01)"
   height="297.05783"
   width="255.88934"
   sodipodi:docname="wolf-rampant.svg"
   xml:space="preserve"
   viewBox="0 0 255.88934 297.05783"
   y="0px"
   x="0px"
   id="Layer_1"
   version="1.1"><metadata
   id="metadata37279"><rdf:RDF><cc:Work
       rdf:about=""><dc:format>image/svg+xml</dc:format><dc:type
         rdf:resource="http://purl.org/dc/dcmitype/StillImage" /><dc:title></dc:title></cc:Work></rdf:RDF></metadata><defs
   id="defs37277" /><sodipodi:namedview
   inkscape:current-layer="Layer_1"
   inkscape:window-maximized="0"
   inkscape:window-y="25"
   inkscape:window-x="0"
   inkscape:cy="167.25516"
   inkscape:cx="124.88934"
   inkscape:zoom="2.52"
   fit-margin-bottom="0"
   fit-margin-right="0"
   fit-margin-left="0"
   fit-margin-top="0"
   showgrid="false"
   id="namedview37275"
   inkscape:window-height="480"
   inkscape:window-width="820"
   inkscape:pageshadow="2"
   inkscape:pageopacity="0"
   guidetolerance="10"
   gridtolerance="10"
   objecttolerance="10"
   borderopacity="1"
   bordercolor="#666666"
   pagecolor="#ffffff" />
<style
   id="style37062"
   type="text/css">
	.st0{fill:#010101;}
	.st1{fill:#FFFFFF;}
</style>
<g
   transform="translate(-25.110661,-32.744837)"
   id="g37272">
	<g
   id="g37270">
		<path
   id="path37064"
   d="m 91.1,158.5 c 0,-1.2 -0.1,-2.4 0,-3.5 0.4,-3.4 -1.6,-5.2 -5,-4.4 -1,0.2 -2.1,0.1 -3.1,0.2 -0.9,0.1 -1.6,-0.4 -1.9,-1.1 -0.5,-1.1 0.4,-1.7 1.2,-2 3.4,-1.5 2.6,-3.1 0.3,-5 -2.1,-1.8 -3.6,-4.4 -7.2,-3.8 -0.9,0.1 -4,-0.7 -1.3,-2.9 1.6,-1.3 1.1,-2.1 -0.1,-3.4 -5.3,-5.6 -9.7,-11.8 -13.2,-18.6 -2.1,-4.1 -7,-6.2 -7.9,-11.2 0,-0.3 -4.7,0.1 -7.2,0.5 -2.5,0.4 -6.1,1.7 -7,-0.8 -0.8,-2.4 1.8,-5.3 4,-7.2 1.3,-1.2 3.1,-0.8 5.4,-1.1 -5.5,-2.8 -7,-8.5 -11.8,-12.4 4.7,0.1 8.6,-0.4 13.5,1.4 -1.1,-1.5 -1.7,-1.9 -1.8,-2.5 -0.3,-1.4 -0.8,-3.2 0.2,-4.1 1.1,-1 3,-0.6 4.3,0.4 3.2,2.8 8.6,4.1 9.2,8.6 0.8,5.6 3.8,8 8.3,10.3 2.3,1.2 3.7,4.2 5.7,6.2 3.6,3.7 7.3,7.2 10.9,10.9 3.2,3.2 6.2,6.5 8.9,10.2 2.6,3.7 6.3,6.7 11.6,6.4 1.9,-0.1 3,-0.6 3.9,-2.7 3.6,-8.1 8.2,-15.3 17.2,-18.7 4.3,-1.7 9.1,-4 9.6,-9.9 -2.8,-1 -5.8,-2.3 -8.9,-3.2 -3.5,-0.9 -6.8,0.4 -10,1.7 -1.8,0.8 -3.7,2.8 -4.7,-1 -0.2,-0.8 -1.8,-1.1 -2.7,-1.6 -1.5,0.7 0.5,3.3 -2.1,3.1 -3,-0.2 -6.1,-0.8 -7.7,-3.4 -1.6,-2.6 1.4,-3.7 2.7,-5.7 -2.7,-1.1 -5.2,1 -7.8,0.5 -1.4,-0.3 -3.3,0.4 -3.6,-1.8 -0.3,-2 1.3,-2.5 2.7,-3.1 4,-1.7 8.2,-2.4 12.5,-3 0.6,-0.1 1.3,0.2 1.8,-0.6 -0.7,-1.6 -1.7,-2.5 -3.7,-2.5 -5.8,-0.1 -9.6,-4.1 -13,-7.9 -2.2,-2.4 0.4,-4 2.6,-4.6 4.6,-1.2 9.3,-2.2 14.1,-3.2 7.4,-1.5 14,-4.6 20.6,-8.2 4.6,-2.5 8.8,-4.7 12.6,-8.8 5.5,-6 14.3,-6.9 21.8,-9.7 0.8,-0.3 1.7,-0.5 2.5,-0.8 1.7,-0.7 3.9,-2.9 5,-1 1.1,1.9 0.6,5 -0.8,7 -1,1.3 -1.7,2.7 -2.8,4.4 5.9,-2.4 12,-3.5 16.4,-8.2 1.2,-1.3 3.1,-1 4.4,-0.3 1.4,0.7 0,2.1 -0.4,3 -1.4,2.8 -1.5,6.2 -3.9,8.8 -0.6,0.6 0.2,3.5 -1.5,4.7 -0.9,0.7 -2.1,0.4 -1.1,2.5 0.8,1.7 -1.8,3.4 -2.6,5.2 -1.3,2.8 -1.5,5.9 -0.2,8.4 2.9,5.8 3.3,12 3.8,18.2 0.6,8.7 2.4,17.3 2.5,26.1 0.1,5.5 -0.7,10.8 -2.6,15.8 -2.8,7.2 -1.4,13.9 1.8,20.2 7,14.1 16.3,27 21.3,42.1 1.6,5 6.5,7.4 8.9,11.9 2.7,5 5.3,10.1 8.5,14.7 4.6,6.5 10.7,11.7 19.2,12.1 4.4,0.2 10.6,-5.4 11,-9.8 0.7,-7.6 0.7,-15.2 -2.4,-22.4 -1.1,-2.5 -3.1,-4.7 -4.9,-6.8 -7.5,-9.1 -12.7,-19.5 -18.1,-29.9 -0.7,-1.3 -1,-3 -0.3,-3.7 2.1,-2 0.6,-3.3 -0.2,-5 -1.6,-3.3 -1.7,-6.2 -0.5,-10.1 1.3,-4.3 2.5,-8.6 4.6,-12.7 3.2,-5.9 11.6,-10.7 18.4,-10.5 1.7,0.1 2.4,1.3 3.7,1.8 3,1.2 3.3,1.1 3.7,-2 0.3,-2.5 2.1,-2.5 3.7,-1.8 3.3,1.5 3.6,5.6 0.4,7.4 -1.9,1.1 -2.1,1.6 -0.7,3.3 1.4,1.7 -1.2,8.5 -3.9,10 -1.8,1 -3,2.4 -4.3,3.8 -1,1.1 -2.5,2.4 -0.5,4.1 1,0.8 0.3,1.8 -0.1,2.8 -0.9,2.3 -1.4,4.7 -0.8,7.2 2.7,-0.9 5.3,-1.8 8.3,-1.1 0,1.7 -1.2,2.2 -2.4,3 -1.6,1 -3.2,2.1 -3,4.6 0.2,3.5 1.8,4.7 4.9,3.2 4.8,-2.2 5.4,-2.2 9.2,0.4 -2,1.9 -5,1.8 -6.8,3.8 0.1,0.2 0.1,0.5 0.2,0.5 4,2.6 4,2.6 -0.3,5 -2,1.1 -3.6,2.5 -1.5,5 3.2,-4.5 6,-4.9 12.2,-1.9 -0.9,2.6 -4.3,1.3 -5.6,4 -1.4,3 -1.3,4.9 1,7.1 10.6,10.3 11.1,22.9 7.9,36.2 -1.1,4.5 2.8,2.5 4.7,4.2 -6.7,2.5 -5.8,10.6 -10.9,14.6 -0.6,0.5 -1,1.5 -1.7,1.6 -3.6,0.8 -4.9,3.3 -5.7,6.5 -0.6,2.3 -2.1,2.4 -3,0.4 -1.6,-3.4 -4.5,-3.7 -7.5,-3.3 -12.5,1.5 -22.8,-4 -33.1,-10.1 -0.9,5.1 -5.6,9.4 -2.7,15.2 1.3,2.7 3.9,2.9 6.2,3.8 -0.7,1.8 -2.6,2.2 -4.2,3.2 2.2,1.3 4.1,0 5.9,-0.7 2.8,-1.1 3.7,-0.1 3.2,2.5 -0.4,2.2 -0.5,4.1 2.5,4.2 0.2,0 0.5,0.2 0.7,0.4 4.6,5.6 9.5,4.6 14.3,0 1.6,2.9 -0.5,4 -1.8,5.5 -0.8,0.9 -2.4,1.5 -0.8,3.1 4.6,4.6 0.4,9.1 -0.4,13.6 -0.1,0.8 -1.2,1.5 -1.2,2.7 -0.3,10.3 -5.6,19 -9.4,28.2 -1,2.4 -3.6,3.4 -5.9,3.7 -3.5,0.6 -6.6,1.6 -9.3,4 -1.6,1.4 -3.3,1.2 -3.4,-0.8 -0.2,-4.2 -2.2,-1.5 -3.8,-1.4 -1.7,0.1 -2.6,3.6 -4.4,1.5 -1.4,-1.7 -1,-4.1 0.1,-6.2 0.6,-1.1 1.4,-2.3 1.5,-3.5 0.5,-3.6 3.1,-4.8 6.1,-5.2 4.1,-0.6 5.8,-3.5 7.5,-6.8 2.4,-4.6 2.5,-9.7 3.7,-14.6 0.5,-2.1 -3,-5.3 -5.8,-5.3 -3.1,-0.1 -6.2,0.3 -9.2,0.6 -6.5,0.7 -11.6,-2.8 -16.7,-6.2 -3.7,-2.5 -6.2,-5.8 -8.4,-9.7 -2.2,-3.9 -6.5,-6.3 -9.2,-10 -1.6,-2.2 -2.6,-4.3 -2.3,-7.1 0.1,-1.2 0,-2.7 -1.8,-1.5 -1.3,0.8 -2.4,2.8 -3.8,0.9 -1.1,-1.6 -4,-3.3 -1,-6 -7.6,-1 -9.4,-0.2 -11.2,4.3 -1.2,0 -1.9,-1 -2.4,-1.8 -2.2,-3.9 -5.1,-2.5 -7.3,-0.7 -5,4.2 -9,9 -7.1,16.5 0.4,1.8 1.4,5.9 -3.4,3.5 -0.3,-0.1 -0.8,0 -1,0.2 -3,2.8 -2.5,9.4 0.8,12 0.4,0.4 1.4,0.1 1.2,1.5 -4.2,0.7 -8.1,0.2 -11.4,-3 -2.1,-2.1 -5.2,-3.4 -5.7,-6.8 -0.1,-0.9 -0.8,-0.8 -1.4,-0.9 -8.8,-1.5 -16.2,-6.2 -23.5,-11 -5,-3.3 -10.5,-5.6 -16,-7.7 -5.2,-2 -9.2,-4.3 -9.7,-10.7 -0.2,-2.4 -1.5,-5.1 -3.5,-7 -1.8,-1.7 -1.3,-3.3 1,-3.5 2.6,-0.3 2.5,-1.2 1.3,-2.9 -0.2,-0.3 -0.4,-0.7 -0.4,-1.1 0,-1.6 -3.3,-2.4 -1.3,-4.1 1.6,-1.4 3.8,-1 5.8,-0.1 1.7,0.8 3.5,1.6 5.3,2.1 2.9,0.9 3.4,3.4 3.8,5.7 0.8,4.6 4,7 7.8,8 7,1.7 13.8,3.9 20.2,7.2 1.7,0.9 2.2,-0.2 2.7,-1.5 2.1,-5.1 1.6,-10.8 3.3,-15.9 3.6,-10.7 10.1,-19.5 21.2,-22.8 5.9,-1.8 12.5,-1.1 18.6,1.3 3.6,1.4 7.2,2.9 11.3,3 4.6,0.2 7.9,-1.8 10.6,-5.1 -4.2,-6.3 -11.1,-9.1 -17.3,-12.8 -3.5,-2.1 -7.3,-3.4 -10.4,-6.3 -4.5,-4.3 -10.9,-5 -16.2,-8 -2.6,-1.5 -5.4,-2.7 -7.2,-6.6 -0.5,4.5 -1.6,7.1 -5.5,3.6 -0.1,-0.1 -0.9,0.4 -1.1,0.8 -1.2,2.4 -2.6,1.5 -3.3,-0.1 -1.3,-2.9 -2,-1.5 -3.1,0 -0.4,0.6 -1,1.6 -1.8,1.3 -2.5,-1.1 -2,0.8 -2.2,2 -0.5,2.2 -1.4,2.6 -3.1,0.9 -1,-1.1 -1.3,-3.9 -3.5,-2.5 -1.6,1 -3,2.8 -2.8,5.1 0,0.5 -0.1,1 -0.1,1.5 -0.6,0.2 -1.1,0.2 -1.5,-0.2 -4.8,-4.8 -4.7,-4.5 -11,-1.9 -8.9,3.7 -17.2,8.2 -25.1,13.8 -3.3,2.3 -7.4,3.4 -10.8,6 -2.3,1.8 -5.5,0.4 -8.3,0.7 -1.5,0.1 -3.1,-0.2 -4.5,0.8 -2.3,1.9 -4.5,4.2 -6.3,-0.5 -0.1,-0.4 -0.8,-0.4 -1.4,0 -1,0.7 -2.4,1 -3.1,-0.1 -0.6,-0.9 0.4,-2.2 0.6,-3.3 1.3,-7.2 7.1,-8.2 12.7,-9.4 3,-0.7 5.5,-2.1 7.5,-4.2 7,-7.1 15.4,-12 24.5,-15.9 6.8,-2.9 13.2,-6.8 19.8,-10.2 2.1,-1.1 4.4,-1.9 6.6,-2.9 0.5,-0.2 1.3,-0.5 0.9,-1.3 -0.4,-1 -1.1,-0.5 -1.8,-0.2 -1.7,0.5 -2.8,2.3 -5,2.1 z"
   class="st0" />
		<path
   id="path37066"
   d="m 226.1,230.2 c 0.2,5.3 5,11.6 10,13.3 2.5,0.9 5.1,1.8 7.5,3.7 -12.5,-0.9 -17.8,-9.6 -22.4,-19.3 -0.5,2.7 0.4,5.1 1.3,7.2 0.9,2.1 3.1,3.6 5.2,5.9 -4.2,-1.6 -4.2,-1.6 -8.5,-15.3 0.4,0.2 0.7,0.3 1,0.5 0.3,0.2 0.6,0.5 0.9,0.7 -1,-6.1 -7.7,-14.4 -12.2,-14.7 6.3,8.1 11.5,16.4 6.9,27.1 -1.8,-1.7 -1.1,-3.3 -0.8,-5.3 0.4,-2 0.9,-4.4 -0.5,-6.4 -1.1,-1.6 -1.4,-3.8 -4.1,-4.6 0.8,3.2 4,5.2 3.1,8.5 -1.1,0.2 -1.3,-1.8 -2.7,-1 0.5,2.2 3.7,4 0.9,6.6 -1,-0.2 -1.3,-1.8 -2.8,-1.8 0.6,2.2 1.2,4.4 0.8,6.5 2.5,0.8 0.8,-2.8 2.7,-1.9 1.6,0.7 2.1,2.5 2.1,4.3 0,1.8 0.3,3.7 -0.8,5.2 -0.8,1.2 -0.2,2.6 -0.5,3.6 -1.5,5.4 4,4.6 6,7.2 -1.6,0 -2.9,0 -4.4,0 2.3,4.6 6,4.9 11.6,2.5 -0.3,1.7 -1.4,2.3 -2.6,3.1 -1.1,0.8 -3,0.1 -3.6,2.4 4.2,-2.4 6.2,1 8.9,2.8 3.5,2.2 7.1,4.5 11.6,2.6 -1.1,1.9 -1.1,1.9 -3.1,3.2 0.2,1.1 1.3,0.3 1.7,0.8 0.9,1 3.1,1.9 2.5,3.1 -0.9,1.8 -2.4,0 -3.5,-0.5 -0.9,-0.4 -1.6,-0.7 -2.7,0.1 1.4,2.7 8.6,1 5.2,7.1 -2,-2.8 -5.3,-3.6 -8.4,-4.5 -3,-0.8 -6.2,-0.8 -9,-2.3 2.7,3.2 6.7,3.7 10.3,5.1 4.2,1.7 5.7,4.2 5.3,8.6 -0.8,7 -3.7,13.3 -6.5,19.7 -0.1,0.2 -0.3,0.4 -0.5,0.6 -4.2,8.4 -7.5,10.1 -17.3,8.7 0.7,-3.6 3.3,-5.4 6.3,-6.6 0.9,-0.3 1.6,-0.7 2.3,-1.3 0.3,-0.3 0.9,-0.7 0.3,-1.2 -0.3,-0.3 -0.6,-0.6 -1.2,-0.2 -2.9,1.7 -6.3,2.7 -8.6,5.5 -1.4,1.7 -3,2.3 -5.1,1.7 0.8,-4.4 0.9,-4.2 5.1,-5.4 6.7,-1.9 9.7,-7.4 10.9,-13.4 0.8,-4.2 2.3,-8.4 1.8,-12.8 1.3,-0.4 1.5,1.7 2.9,0.9 0,-0.2 0.2,-0.8 0.1,-0.9 -4.2,-2.6 -7.7,-5.9 -13.6,-4.7 -11.2,2.4 -21.5,-2.5 -28.2,-12.2 -2.8,-4.1 -6.7,-7.1 -9.7,-11 -3.4,-4.3 -4.7,-9.2 -2.5,-14.3 2.3,-5.4 5,-10.8 6.6,-16.4 1.4,-4.7 1.5,-9.8 2,-14.8 0.3,-3.1 -0.4,-6.2 1.2,-9.1 1.1,0.5 -0.1,2 1.2,2.7 1.8,-3.4 0.5,-6.7 0.3,-10.1 -1.4,1.9 -0.7,4.6 -3.2,5.7 -0.2,-0.4 -0.5,-1.1 -1,-1.8 -1.1,-1.7 3.3,-2.3 0.8,-4.3 -1.9,-1.5 -0.1,-3.7 -1.1,-5.6 -0.6,0.9 -1.1,1.8 -2,3.1 0,-2.4 0,-4.3 0,-6.1 -2.2,2.8 -3.7,5.7 -1.4,9.1 0.7,1 1.5,2.1 1.3,3.5 -0.2,1.2 1.9,2.5 0.2,3.4 -1.2,0.6 -1.9,-1.1 -2.6,-1.9 -6.3,-7.3 -14.7,-11.2 -23.1,-15.3 -4.1,-2 -8,-4.3 -7.6,-9.9 0.1,-0.8 -0.8,-1.7 -1.3,-2.9 -2.1,2 0.5,3.9 -0.3,5.5 -3.5,-2.7 -3,-6.6 -3,-10.4 -3.4,2.5 -0.9,5.9 -1.8,9.1 -2.4,-3.2 -0.8,-6.6 -1.5,-9.8 -2.2,0.6 -1.7,2.8 -2,4.1 -0.4,1.7 -2.4,1.5 -2.6,3 -1.1,-0.4 -1.4,-1.5 -1.6,-2.4 -0.3,-1.5 -2.7,-1.2 -2.4,-3.4 -0.7,1.2 -1.2,2.1 -1.9,3.1 0.1,-1.3 -1.8,-2.8 0.6,-3.6 3.8,-1.3 4.4,1.9 5.8,4.5 0.8,-2.4 0.4,-4.1 -1.3,-5.3 -2.2,-1.6 -1.2,-3.1 0.1,-4.4 2.1,-2.2 4.4,-4.1 6.3,-6.5 -4.3,1.2 -6.7,4.8 -9.8,7.5 -0.4,0.4 0,1.4 -0.9,1.3 -3,-0.4 -3,-0.4 -4.8,2.7 0,-3.2 1.7,-5.6 1.7,-8.5 -2.4,3.9 -4.7,7.8 -3.9,13.7 -1.6,-1.5 -2.7,-2.5 -3.7,-3.5 -1.1,0.8 -1.9,1.7 -2.4,3.2 -1.7,-3.1 -3.4,-5.2 -5.9,-0.8 -0.2,0.3 -0.6,0.7 -0.7,0.6 -4.2,-1.8 -3.5,1.8 -4.2,3.7 -3.1,-5.2 -5.4,-4.8 -9.5,1.8 -2.9,-4 -5.9,-3.8 -9.7,-0.9 -2.3,1.7 -5.5,2.5 -8.4,3.2 -7,1.5 -11.8,6.7 -17.7,10 -1.8,1 -3.3,4.1 -6.1,1.3 -0.5,-0.5 -0.7,0.6 -1,1.2 -3.4,6.9 -12,8 -17.1,2.1 4.3,-2.7 10.5,-2 13.3,-7.3 -3.9,1.8 -7.7,4 -12,4.7 -2,0.3 -2.7,1.9 -3.9,3 -0.9,0.8 -1.3,0.8 -2.1,0 -1,-0.9 -0.4,-1.3 0.1,-2.1 1.1,-1.6 2.8,-2 4.3,-2.3 6.4,-1 11,-4.6 15.7,-8.8 6.3,-5.6 13.7,-9.8 21.5,-13.4 6.5,-3 12.9,-6.3 19.3,-9.5 7.1,-3.5 14.8,-5.6 22,-9 1.2,-0.6 4.3,0.1 4.3,3.4 0,4.8 0.5,5 6,4.8 -1.2,-0.8 -2.2,-1.6 -3.3,-2 -1.5,-0.6 -1.5,-1.3 -0.6,-2.5 0.9,-1.3 2,-2 0.8,-4.4 -1.1,-2.2 1.5,-4.9 4.9,-5.4 -3.6,-0.2 -4,-1.7 -2.4,-4.2 2.4,-3.5 4.2,-7.4 7.8,-10 0.7,-0.5 1,-1.2 0.8,-2 3.9,-4 8.7,-3.6 13.3,-2.7 -3.2,-1.5 -7.1,-0.1 -10.8,-1 -3.4,-0.8 -0.9,2.9 -2.4,3.8 -0.8,0.4 -1.6,0.7 -2.4,1.1 -0.7,0.4 -1.2,1.8 -2.2,0.9 -0.8,-0.7 -1.2,-1.9 -1.7,-2.9 -0.4,-0.9 1.7,-0.5 0.8,-1.3 -0.8,-0.7 -1.7,0.1 -2.3,0.9 -0.5,0.6 -0.6,0.7 0.1,1.6 1.5,1.9 0.7,4.8 -0.3,6.3 -2.3,3.5 -3.5,7.5 -5.3,11.2 -0.8,1.6 -1.5,1.9 -2.7,1 -0.9,-0.7 -1.5,-1.6 -0.3,-3.1 2.8,-3.3 5.2,-6.8 7.5,-10.5 -3.7,1.5 -4.8,5.5 -7.8,8 -0.2,-4.2 3.4,-6.2 4.4,-9.7 -2.4,1.6 -4,4.3 -6.7,5.7 -0.2,-4.6 4.7,-6.5 5.8,-11.3 -1.7,1.5 -2.7,2.4 -3.7,3.3 -2,-7.3 2.7,-16 11.2,-20.4 6.1,-3.2 12.1,-6.4 17.5,-10.7 0.5,-0.4 1.6,-0.6 1,-1.5 -0.6,-1 -1.4,-1.1 -2.2,-0.2 -1,1.1 -2,2.2 -3,3.4 -0.1,-3.5 1.2,-5.2 4,-4.8 2,0.3 3.6,0.5 5.6,-0.6 1.8,-1.1 4.5,-0.2 6.8,0.9 -1.3,2.2 -4.3,3.4 -4.2,7.1 3.8,-2.2 5.7,-6.8 9.7,-8.1 3.8,-1.1 7.6,-2.3 11.9,-2.2 -0.7,2.7 -3.8,3.3 -4.9,5.7 6.3,-1.6 9.5,-6.2 8.8,-12 -0.1,-1.1 -0.2,-2.3 0.4,-3.4 2.6,-5 2.3,-8.4 -0.9,-13.1 -1.1,0.8 -1.5,1.7 -0.6,3 0.7,1 0.4,2.2 0.2,3.4 -2.1,-1.1 -1.1,-3.3 -1.7,-5.2 -3.2,1.6 -5.5,5.4 -9.9,3.2 2.3,2.9 6.5,3.4 7,8.2 -2.5,-3.2 -5.2,-3.7 -8.5,-2.2 3.1,2.1 1.7,5.1 1.5,7.9 -0.1,0.6 -0.2,1 -0.8,1.1 -5.4,0.3 -10.9,1.5 -15.7,-2.3 -1.8,-1.4 1,-2.4 0.2,-3.8 2.5,2.1 4,5.4 8.1,4.6 1.6,-0.3 2.5,-0.9 3.4,-2.1 -0.9,-0.4 -1.8,-0.9 -2.7,-1.3 -1.1,-0.5 -1.2,-3.4 -2.9,-1.8 -0.7,0.6 0.9,2.6 2.2,3.5 -6.7,-2.1 -10.2,-9.6 -17.8,-10.5 1.8,2.9 5.2,3.6 6.8,6 2.4,3.5 -2.6,5.2 -2.3,8.6 5.6,-3.1 9.7,1 14.7,3.3 -1.9,1.2 -3,0 -4,-0.6 -2,-1.3 -4.2,-0.9 -6.3,-1.2 -1.6,-0.3 -0.5,3.6 -2.9,1.6 -1.3,-1.2 -2.9,-2.1 -4.4,-3 -0.4,-0.2 -1,-0.1 -1.4,0.6 -0.2,1.4 2.2,0.8 2,2.4 -2.8,0.5 -5.6,-0.6 -7.9,-1.7 -5,-2.3 -9.7,-1.5 -14.4,0.6 -1.1,0.5 -1.7,1.2 -3.1,-0.3 -3,-3.3 -3.8,-3.1 -6.5,0.9 -0.5,0.8 -0.8,0.2 -1.1,0 -1.3,-0.7 -3.1,-0.7 -3.5,-2.6 -0.2,-0.9 0.4,-1.1 1.1,-1.6 4,-2.6 8.4,-1.7 12.5,-1.2 7.2,1 14.2,0.6 21.2,-0.5 1.5,-0.2 3.2,-1.2 3.6,-3.1 0.5,-2.1 -0.7,-3.4 -2.1,-4.7 -2.9,-2.7 -6.7,-2.2 -10.1,-2.9 -3.5,-0.7 -7.1,-1.4 -10.8,-0.9 -5.6,0.8 -10.8,-1.4 -16.2,-2.5 -1.5,-0.3 -3,-1.8 -3.9,-3.2 -0.3,-0.5 0.1,-3.4 2.5,-3.6 -1.9,0 -3.7,0 -6,0 3.2,-2.9 7,-2.2 10.3,-3.2 7.8,-2.5 15.9,-3.9 23,-8.4 7.3,-4.7 15.5,-6 24.1,-5.8 2.8,0.1 4.4,0.4 2.5,3.6 -0.7,1.1 -1.4,2.5 -0.5,4.2 0.6,-0.5 1.4,-0.9 1.7,-1.6 3.3,-8 11.3,-9.3 18,-12.3 3.5,-1.6 7.1,-3 10.6,-5.3 -1.7,2.8 -3.2,5.7 -4.7,8.5 -1.1,2 -0.5,5.8 -4.4,6.2 0.8,1.3 2.6,0 2.8,1.2 0.3,1.5 -1.3,1.7 -2.2,2.2 -1.9,1.1 -0.3,5.5 -4.4,4.8 0.7,0.4 1.3,0.9 2.1,1.1 3,0.6 1.7,2.4 0.4,3 -2.6,1.3 -0.1,2 0.1,2.9 -5.1,1.9 -9.9,4 -15.1,5.5 5.3,0.9 10.2,0 14.6,-3.1 2.2,-1.6 3.2,-1.4 4.1,1.7 1.2,4 1.5,8.1 1.8,12 0.7,8.1 1.7,16.1 2.6,24.1 0.7,6.7 -0.8,13 -3.3,19.1 -2.7,6.9 -1.6,13.2 1.2,19.6 4.6,10.4 12,19.4 16.5,29.8 1.7,3.9 3.4,7.9 5.2,11.7 1.9,4 4,7.6 7.4,10.8 3.6,3.4 6,8.5 7.9,13.2 2.6,6.5 7,11.1 12.8,14.5 3.5,2.1 6.8,4.7 11.7,4.2 6.1,-0.6 12.1,-4.7 13.6,-10.6 1.6,-6.3 0.4,-12.4 -0.6,-18.6 -1,-5.6 -4.6,-9.3 -7.5,-13.8 -5.6,-8.8 -11.8,-17.3 -16.2,-26.9 -0.3,-0.6 -0.7,-1.1 -0.7,-1.7 -0.1,-1.8 -0.8,-4.6 3.6,-1.7 -2.2,-4.7 -5.4,-7.8 -6.2,-12.3 2.7,1.1 4.3,3.2 6.7,3.8 0.7,-0.7 0.4,-1.3 -0.1,-1.7 -5.7,-5 -6.2,-8.3 -2.8,-14.9 3.4,-6.6 8.9,-10.3 15.8,-12.4 1.5,-0.4 2.7,0.5 4,1.1 3.6,1.7 6.9,0.9 9.3,-2.3 0.7,1.2 0.1,1.9 -0.8,2.7 -1.4,1.3 -5.2,0.9 -3,4.5 -1.4,0.8 -2.8,1.2 -4.4,1.1 -2.3,-0.2 -4.7,-0.3 -6.9,2.7 4.3,-1.3 7.9,-2.6 12.2,-1.7 -8.8,3.5 -14.3,9.9 -18.6,17.6 4.7,-6.1 10.8,-10.6 17.2,-14.9 -0.6,2.5 -0.6,2.5 -4.9,6.9 -2,2.1 -4.7,4 -2.1,7.4 0.8,1.1 -0.7,1.8 -1.2,1.9 -3.6,1.1 -5.1,3.9 -5.8,7.3 2,0.5 2.1,-1.6 2.5,-2.5 0.6,-1.6 1.9,-2 3.1,-2.6 0.7,1.5 0.1,2.6 -0.9,3.8 -2.1,2.5 -4.4,5.1 -3.2,9.4 0.5,-3.4 2.9,-5.1 4.1,-7.9 0.2,1.1 0.3,2 0.4,2.9 2.2,-1 4.3,-2 6.4,-3 -1.6,2.4 -4,4 -3.5,7.4 0.6,4.5 3,6.1 7,4.2 1.7,-0.8 3.1,-2.1 5.8,-2.1 -3.1,2.2 -6.3,3.3 -8.4,7 2.3,-0.8 4.3,-1.9 5.7,0.4 -5.7,1.9 -6.4,3.9 -3.4,8.9 1,1.6 -0.2,2.7 -0.6,3.8 -1.2,3.3 0.4,5.6 2.2,9.1 -0.6,-11.9 2,-16.8 8.4,-16.5 -2.4,1.2 -4.2,2.5 -5,5 -0.9,2.6 -1,4.7 1.3,6.5 3.9,3.2 5.8,7.5 7.7,12.1 2.5,6 0,11.1 -1.6,16.4 -0.4,1.1 -0.4,2.6 -1.3,3.7 3.4,-2.3 3.7,-6 4.6,-9.6 0.9,4.5 0.4,10.6 -0.4,13.4 -1.4,5.2 -6.8,5.6 -10.3,9.1 4.9,-0.6 7.7,-5.3 12.8,-4.7 -2.3,2.6 -5.8,2.3 -8.1,4.4 -2.2,2 -5.1,2.8 -8,4.6 5.1,0.2 7.8,-3.7 11.9,-5 1,3.8 -4,2.4 -4.3,5 0.6,0.9 1.4,-0.6 1.8,-0.2 0.7,0.6 0,1.2 -0.5,1.6 -2.1,1.9 -3.6,4.4 -6.6,5.2 -2.8,0.7 -1.8,3.2 -2.2,5.8 -1.4,-2.8 -4.9,-2.7 -5.7,-5.7 -0.1,-0.3 -0.6,-1 -1.2,-0.4 -4.1,3.9 -7.8,1.9 -11.6,-0.6 -2.2,-1.5 -4.6,-2.7 -6.9,-3.9 -4.2,-2.1 -7,-5.3 -8.8,-9.6 -0.2,-0.5 -0.1,-1.4 -1.1,-1.1 -0.1,-0.5 -0.3,-1 -0.5,-1.4 -0.5,-0.6 -0.2,-0.1 0,0.3 z"
   class="st1" />
		<path
   id="path37068"
   d="m 173,234.9 c 3.1,-3.7 0.9,-9.6 5.1,-13 1.2,2.9 -3.5,5.8 -0.3,8.8 1.1,-0.8 -0.2,-2.4 1.9,-3.2 -0.6,3.6 -1,6.8 -3.4,9.7 -1,-2.2 2.9,-3.9 0.4,-6 -2.5,3.4 -4.1,9.6 -4.2,13.6 -0.1,2.3 -0.4,5 -3,6.2 -0.6,0.3 -1.3,1.5 -2.3,0.5 -0.8,-0.8 -0.8,-1.6 -0.3,-2.5 0.6,-1 1.3,-1.9 2,-2.8 0.4,-0.5 1.2,-0.9 0.7,-1.6 -0.6,-0.7 -1.2,1.2 -2,-0.2 2.3,-2.3 4.6,-4.9 5.3,-9 -3.2,1.2 -2.5,5.1 -5.8,6.5 3.2,-8 5.9,-15.7 5.9,-24.5 -3.2,5 -2.4,10.5 -4,15.3 -1.4,4.2 -3.5,8 -5.4,12 -0.7,1.5 -1.4,0.4 -1.4,0 0,-2.5 -0.1,-2.5 -2,-0.7 -1.8,1.7 -4.8,1.8 -6.6,3.9 -0.3,0.3 -0.9,0 -1.1,-0.6 -0.4,-1 -1.1,-2.5 -2.3,-1.9 -2.8,1.2 -6.2,0 -8.6,2.3 -5.5,5.2 -9,11 -6.4,18.9 0.1,0.2 -0.1,0.5 -0.2,0.7 -2.2,-0.7 -2.7,-3 -5,-5.1 1.7,5 0.9,8.8 -1.5,12.4 -1.6,2.4 0.7,4.1 1.7,6.1 -5.6,-0.8 -10.2,-6.4 -9.3,-11.2 0.1,-0.6 0.3,-1.4 -0.3,-1.8 -0.7,-0.4 -1.6,-0.3 -2.1,0.4 -2,2.7 -3.9,1.4 -6.4,0.6 -9.1,-3.1 -16.5,-9.4 -25,-13.4 -4.2,-2 -8.6,-3.5 -12.7,-5.8 -3.5,-2 -4.6,-5.2 -5.2,-8.7 -0.4,-2.3 -0.1,-4.6 -0.1,-7.1 4,0.7 5.7,3.4 7,6.4 0.4,0.9 0.6,1.6 1.3,2.3 0.3,0.3 0.7,0.9 1.2,0.3 0.3,-0.3 0.7,-0.5 0.2,-1.2 -1.8,-2.9 -2.7,-6.3 -5.5,-8.6 -1.7,-1.4 -2.3,-3 -1.7,-5.1 4.5,0.8 4.5,0.8 5.3,5 0.8,4.1 5.2,7.9 9.5,8.8 8,1.7 15.7,4.8 22.9,8.7 1.9,1.1 3.1,3.6 4.5,5.6 1.3,1.7 2.8,2.9 5.5,2.9 -3.5,-4.8 -9.1,-8.5 -5.8,-16 1,2.8 3.5,3.7 5.1,5.4 0.5,0.6 1.6,0.6 2.1,0 0.5,-0.6 -0.1,-1.3 -0.7,-1.6 -6.5,-3.6 -6.4,-9.5 -4.6,-15.4 3.1,-9.8 8.3,-18.6 18.7,-22 6.9,-2.3 14.2,-0.8 21,1.9 0.5,0.2 0.9,0.4 1.4,0.5 5.5,1.8 5.6,1.8 3.8,7.1 -0.4,1.2 0.3,2.6 -0.7,3.7 1.2,-1 2.9,-1.8 2.7,-3.4 -0.3,-2.1 2.6,-2.9 1.8,-5.1 -0.2,-0.5 0.6,-0.7 1.1,-0.7 0.5,0 1,0.1 1.2,0.7 1.1,3.1 2.3,6.5 0.7,9.5 -1.8,3.3 -2.1,6.7 -2.3,10.3 -0.1,2.8 -3.4,4.5 -2.9,7.6 4.1,-3.6 4.3,-8.7 5.2,-13.4 0.2,-0.9 0.1,-1.7 0.7,-2.5 2.1,-2.8 2.1,-6.2 0.7,-9 -1.4,-2.9 0.2,-3.2 2.3,-3.6 0.8,0.8 -0.5,2.6 1.2,3.3 1.2,-1.7 0.6,-4.3 3,-6.2 -1.3,2.9 1.6,5.4 -1.6,8.3 4.5,-1.8 4.7,-2.2 3.4,-5 -0.5,-1 -0.8,-2.1 -1,-3.2 -0.2,-0.9 0.4,-1.5 1.1,-1.9 0.2,-0.1 0.9,0.7 1.2,1.2 0.2,0.3 -0.1,0.9 0.1,1.1 3.6,3.7 2.1,6.3 -1.9,8.3 -0.4,0.2 -1,0.7 -1.1,1.1 -1.2,4.8 -2.4,9.7 -3.5,14.5 0.5,0.4 0.9,0.5 1.3,0.6 z"
   class="st1" />
		<path
   id="path37070"
   d="m 105.8,131.8 c 2.5,0.6 4.5,-1.7 6,-0.4 1.8,1.6 -0.9,3.5 -0.8,5.1 0.1,2.4 -1.6,5.4 1.7,7.2 0.9,0.5 0.4,1.3 -0.2,1.9 -0.5,0.5 -1.3,1 -0.6,1.9 2.7,3.3 -0.1,4.1 -2.4,4.7 -1.7,0.4 -3,1.3 -4.6,1.9 -0.8,0.3 -1.7,1.1 -2.5,0.5 -3.8,-3.1 -6.6,-0.5 -9.7,1.8 0.3,-4.4 3.8,-4.9 6.8,-5.8 -2.4,-2 -5.3,2.3 -7.5,-0.9 1.8,-1.1 4.3,0.8 6.3,-2 -5.2,0.5 -9.9,1 -14.5,1.5 2.7,-3.7 7.5,-0.8 10.9,-3.6 -2.3,0 -4.4,0 -6.7,0 1.1,-1.8 2.7,-1.6 4.1,-1.9 -1.8,-2.2 -4.7,1.5 -6.8,-1.3 2.6,-0.2 4.9,0.1 6.8,-1.5 -3.1,-1.2 -7.1,1.5 -9.9,-2.4 1.7,-0.1 3.1,-0.2 4.4,-0.3 -3.6,-1.2 -7.4,-1.1 -11.5,-0.5 1.6,-2.1 3.6,-1.6 5.4,-1.9 -0.8,-1.1 -2.5,-0.3 -2.8,-1.9 1.4,-1.3 2.5,1.1 3.9,0.3 -0.5,-0.8 -1.3,-1.1 -2.3,-1.5 -2.1,-0.8 -4.3,-1.4 -5.7,-3.5 1.2,-0.9 2,1.2 3.2,0.4 0.6,-0.4 0.1,-0.6 -0.2,-0.7 -5.9,-1.1 -8.4,-5.7 -10.7,-10.4 -2.1,-4.3 -4.8,-8.3 -8.5,-11.6 1.2,-0.8 1.5,0 1.8,0.3 1,1 1.7,0.2 2.2,-0.5 0.9,-1.5 -0.8,-1.2 -1.3,-1.7 -1,-0.9 -2.3,-0.1 -3.4,-0.5 -0.9,-0.3 -1.5,-0.7 -0.6,-1.9 0.6,-0.8 3.7,0.6 1.8,-1.9 -1,-1.4 -2.9,-2.1 -4.8,-1.2 -0.1,0.1 -0.2,0.2 -0.3,0.3 -3,2.6 -5.7,2.5 -8.2,-0.7 C 44.2,98.6 43.6,98.4 42.9,98 46,94.7 51,97.2 54.1,94.2 53,92.5 50.7,92.9 49,92.4 c -1.7,-0.6 -2.6,-1.4 -2.2,-3 0.5,-2 1.3,-4.1 3.5,-5 0.8,-0.3 0.9,0.5 1.2,1.1 2.5,5.5 6.9,8.3 12.6,10 6.1,1.8 8.6,7.9 12.8,12 1.9,1.9 3.9,3.6 5.7,5.5 3.5,3.6 7.3,6.8 10,11.3 1.8,3 5.3,4.8 8.2,6.9 2.1,1.6 4.1,3.5 5.4,6 0.2,0.5 0.7,1.6 1.7,1 1,-0.6 0.8,-1.2 0.3,-2.3 -0.1,-1.6 -1.2,-2.3 -2.4,-4.1 z"
   class="st1" />
		<path
   id="path37072"
   d="m 162.9,47.1 c -6,5.4 -13,-1.3 -19.2,2.2 6.4,-8.7 16.4,-9.8 25.3,-13.2 -0.9,3.4 -0.9,3.5 -4.3,3.9 -1.5,0.2 -2.1,1 -3.1,2.4 2.1,-0.1 3.1,-2.7 5.2,-1.3 0,1.6 -1.8,1 -2.7,1.8 0.8,0.3 1.4,0.4 2.8,0.9 -1.9,0.2 -2.9,0.3 -5.1,0.4 1.9,0.4 2.8,0.6 3.6,0.8 0,0.4 0.1,0.8 0.1,1.1 -5.5,-1.1 -10.7,0.1 -16,1.3 4.6,1.5 9,0.7 13.4,-0.3 z"
   class="st1" />
		<path
   id="path37074"
   d="m 124.1,83.3 c 3.6,-0.6 7.3,1 11,2.2 1,0.4 1.7,0.5 1.5,1.7 -0.2,1.1 -1.2,0.9 -1.9,0.7 -5.4,-1 -10.7,-2.3 -16.3,-1.1 -1,0.2 -1.9,-0.9 -1.9,-1.6 0,-0.9 1,-1.8 2,-1.9 1.8,-0.1 3.5,0 5.6,0 z"
   class="st1" />
		<path
   id="path37076"
   d="m 96.1,86.9 c 4.2,-3.2 9.2,-3.7 14.1,-4.4 0.9,-0.1 1.9,0.6 1.8,1 -0.2,0.8 -1.1,1.4 -1.6,2.1 -0.9,1.1 -2.1,0.8 -3.2,0.8 -3.8,-0.3 -7.4,0.4 -11.1,0.5 z"
   class="st1" />
		<path
   id="path37078"
   d="m 61.3,91.8 c -3,-1.2 -5.4,-2.5 -6.7,-5.3 -0.7,-1.5 -0.4,-2.4 0.9,-3.2 1.1,-0.7 1.9,-0.5 2.8,0.5 2,2.2 2.8,4.8 3,8 z"
   class="st1" />
		<path
   id="path37080"
   d="m 136.2,84 c -5,-3.2 -10.5,-2.1 -15.8,-2.3 -0.9,0 -2.7,0.8 -2.6,-1.2 0.1,-2 1.8,-1 2.7,-1.1 4.6,-0.3 9,1.7 13.7,1.6 1.6,-0.1 1.6,1.7 2,3 z"
   class="st1" />
		<path
   id="path37082"
   d="m 41,82.9 c 2.7,0.6 4.3,1 5.9,1.4 -0.9,0.9 -0.2,3.3 -1.6,3.2 -2.1,0 -2.1,-2.7 -4.3,-4.6 z"
   class="st1" />
		<path
   id="path37084"
   d="m 49.7,77.6 c 2,0.5 2.5,2.4 4.2,2.7 0.3,0.1 1.3,0.6 0.6,1.3 -0.3,0.3 -1,0.8 -1.3,0.7 -1.7,-1 -4.3,-1.4 -3.5,-4.7 z"
   class="st1" />
		<path
   id="path37086"
   d="m 35.8,201.9 c -1.6,0.7 -2.7,1.6 -3.3,2.8 -0.4,-0.4 -1,-0.8 -1,-1.1 0.1,-1.6 1.6,-2.2 2.6,-3.1 0.1,0 0.9,0.7 1.7,1.4 z"
   class="st1" />
		<path
   id="path37088"
   d="m 111.8,79.6 c 1.3,0.2 3.1,-1.4 3.6,0.9 0.1,0.6 -0.1,1.7 -0.3,1.7 -1.8,0.2 -2.2,-1.6 -3.3,-2.6 z"
   class="st1" />
		<path
   id="path37090"
   d="m 40.3,102 c 0.6,-1 1.2,-1.9 1.7,-2.8 0.7,0.9 1.5,1.9 2.3,2.8 -1.2,0 -2.6,0 -4,0 z"
   class="st1" />
		<path
   id="path37092"
   d="m 27.2,202.6 c 0.4,-1.3 0.3,-3.1 2.1,-3.1 0.4,0 1.1,0.7 1.1,0.9 -0.3,1.8 -2.3,1.2 -3.2,2.2 z"
   class="st1" />
		<path
   id="path37094"
   d="m 112.9,84.7 c 1.8,0.9 1.8,2 2.4,2.9 -1.1,0.6 -2.2,0.2 -3.3,0.2 -0.3,-1.2 1.7,-1.4 0.9,-3.1 z"
   class="st1" />
		<path
   id="path37096"
   d="m 218,325.7 c -1.1,0.5 -2.2,1.1 -3.4,1.7 -0.6,-3.7 2.1,-1.7 3.4,-1.7 z"
   class="st1" />
		<path
   id="path37098"
   d="m 66.9,237.6 c -0.5,-1.1 -1,-2.2 -1.4,-3.4 0.4,-0.1 0.8,-0.3 1.1,-0.1 1.8,0.8 0.5,2.4 0.3,3.5 z"
   class="st1" />
		<path
   id="path37100"
   d="m 66.5,226.3 c 2.9,-0.4 3.7,0.6 3.2,3 -1,-0.9 -1.9,-1.8 -3.2,-3 z"
   class="st1" />
		<path
   id="path37102"
   d="m 206.6,325.7 c -0.2,-2.4 0.7,-3.2 2.9,-2.8 -1,1 -1.9,1.9 -2.9,2.8 z"
   class="st1" />
		<path
   id="path37104"
   d="m 120.7,88.1 c 1.8,0 3.5,0 5.3,0 0,0.1 0,0.3 0,0.4 -1.8,0 -3.6,0 -5.4,0 0,-0.1 0.1,-0.2 0.1,-0.4 z"
   class="st1" />
		<path
   id="path37106"
   d="m 169.5,54.3 c 2,1.5 3.3,-1.4 4.9,0.5 -1.3,2.5 -4.8,1 -6.6,3.6 1.7,-0.1 3.2,-0.2 4.4,-0.3 -0.4,4.8 -3.9,4 -7,4 0.2,2.4 2.4,1 3.3,2 -1.5,1 -4,-0.7 -4.9,1.3 -1.2,2.6 -3.2,0.6 -4.8,1.3 3.2,-2.4 3.2,-5.7 2.8,-9 -0.4,-3.4 1.2,-5.2 4.2,-5.9 3.8,-0.9 5.8,-5 9.9,-5.2 0.8,0 1.8,-0.8 2.3,0.2 0.4,0.6 -0.2,1.4 -0.5,2.1 -1.4,3.4 -4.3,4.8 -8,5.4 z"
   class="st0" />
		<path
   id="path37108"
   d="m 154.8,59.4 c -2.9,4.8 -7.2,3 -10.9,3.6 1.9,2.9 2.4,5.4 -1.5,7.1 -0.6,0.3 -1.3,0.6 -0.6,1.7 0.6,0.9 1.6,2.3 -0.6,2.8 -1.4,0.3 -1.7,-0.3 -2.5,-2 -0.4,-0.9 -1.7,-1.6 -2.8,-1.8 -1.6,-0.3 -2.9,-0.8 -4.2,-2.3 4.8,1 0.9,-4.2 4,-4.5 -2.4,-0.7 -4.9,0.3 -6.8,-1.7 1.6,-1.2 3.1,-2.3 5.2,-3.9 -0.5,1.7 -0.9,2.6 -1.2,3.7 7.4,0 14.5,-1.2 21.9,-2.7 z"
   class="st0" />
		<path
   id="path37110"
   d="m 132,131.2 c 0,-0.4 -0.2,-0.9 0,-1.1 1.1,-1.2 -1.7,-1.9 -0.4,-2.9 1.5,-1.1 2.7,-1 4.9,0 0.3,0.1 0.8,0.2 1.1,0.1 3.8,-1.9 6.9,1 10.4,1.6 -2.9,0 -5.9,-0.2 -8.8,0.1 -1.7,0.2 -4.5,-1.6 -4.8,2.1 0,0.1 -1.7,0.1 -2.6,0.1 0.1,-0.1 0.2,0 0.2,0 z"
   class="st0" />
		<path
   id="path37112"
   d="m 245.3,239.6 c 7.4,2.8 14.7,2.1 22.5,-0.3 -1.7,1.7 -11.3,4.9 -13.7,4.8 -0.1,-1.3 1.2,-0.2 1.4,-1 -2.9,-2.5 -7.5,0.3 -10.2,-3.5 z"
   class="st0" />
		<path
   id="path37114"
   d="m 182.2,260.6 c 1.3,5.7 9.5,5.3 9.5,12 -2.1,-4.9 -9.4,-5.2 -9.5,-12 z"
   class="st0" />
		<path
   id="path37116"
   d="m 208.1,251.5 c -0.5,-2.5 1.6,-5.7 -0.8,-8.3 -0.2,-0.3 -0.1,-1.1 0.5,-1.2 0.3,-0.1 0.9,0.1 1,0.4 1.1,2.5 3.9,4.5 2.9,7.9 -3,-3.7 -1.4,2.2 -3.6,1.2 z"
   class="st0" />
		<path
   id="path37118"
   d="m 147.4,170.8 c -2.6,0.8 -4.3,-0.6 -5.8,-2.2 -0.7,-0.7 -1.3,-2.1 -2.8,-0.7 -1.5,1.3 -1.3,0.5 -0.8,-0.8 0.4,-1 -1.5,-1.3 -1.2,-2.5 5.1,-0.8 6.2,5.4 10.6,6.2 z"
   class="st0" />
		<path
   id="path37120"
   d="m 159.9,135.4 c 2.6,-0.4 5.2,-0.3 7.6,-1.7 2.7,-1.5 1.8,3.2 4.2,2.5 -4,1.1 -7.8,-0.2 -11.8,-0.8 z"
   class="st0" />
		<path
   id="path37122"
   d="m 251.7,244.5 c -5.3,1 -9.4,-1.5 -13.4,-4.6 2.9,-2 3.8,2.2 6.4,2.2 2.3,0 4.1,3 7,2.4 z"
   class="st0" />
		<path
   id="path37124"
   d="m 167.3,104.9 c 3.7,-1.9 6.8,-4.2 9.2,-8.2 -0.3,5.2 -4.3,8.5 -9.2,8.2 z"
   class="st0" />
		<path
   id="path37126"
   d="m 116.5,166.6 c -1.1,4.3 -3.1,5.1 -11,4.1 2.1,-0.5 4.1,-1.9 5.9,-1.8 2.8,0.1 3.2,0.5 5.1,-2.3 z"
   class="st0" />
		<path
   id="path37128"
   d="m 251.5,167.8 c 2.1,3.6 0.1,7.2 1.7,10.3 -3.1,-2.7 -2.1,-6.2 -1.7,-10.3 z"
   class="st0" />
		<path
   id="path37130"
   d="m 154.6,106.3 c -1.6,1.8 -2.1,5.5 -6.1,2.6 2.2,-0.8 3,-3.9 6.1,-2.6 z"
   class="st0" />
		<path
   id="path37132"
   d="m 99.1,171.8 c -1.9,2 -3.6,4.8 -7.9,3.7 3.2,-1.5 5.5,-2.6 7.9,-3.7 z"
   class="st0" />
		<path
   id="path37134"
   d="m 155.5,118.6 c 2.1,-1.1 4.5,-0.6 7,-1.9 -2.2,3.1 -2.2,3.1 -7,1.9 z"
   class="st0" />
		<path
   id="path37136"
   d="m 138,110 c 1.7,-2.8 3.7,-4.9 7.1,-5.2 -2.4,1.8 -4.8,3.5 -7.1,5.2 z"
   class="st0" />
		<path
   id="path37138"
   d="m 206.9,255.1 c 2.1,3.1 4,5.2 6,7.2 -2.8,-0.6 -4.9,-3.1 -6,-7.2 z"
   class="st0" />
		<path
   id="path37140"
   d="m 164.1,86 c -3.2,2.8 -4.5,0.2 -6.7,-2.2 2.7,0.9 4.6,1.5 6.7,2.2 z"
   class="st0" />
		<path
   id="path37142"
   d="m 118.8,168.6 c 1.5,-1.4 0.4,-4.6 3.8,-5.4 -1,2.4 -1,4.7 -3.8,5.4 z"
   class="st0" />
		<path
   id="path37144"
   d="m 254.9,180.9 c 1.7,1.6 0.5,3.9 2.4,4.6 -0.1,0.3 -0.2,0.7 -0.4,0.9 -0.5,0.6 -0.8,0.1 -1.2,-0.2 -1.8,-1.3 -1.4,-3 -0.8,-5.3 z"
   class="st0" />
		<path
   id="path37146"
   d="m 173.9,106.1 c -0.4,3 -3,2.6 -4.8,3.6 0.9,-2.2 3.4,-2.2 4.8,-3.6 z"
   class="st0" />
		<path
   id="path37148"
   d="m 187,213.2 c -0.3,-2.8 2.4,-4.9 1.8,-7.8 0.4,2.9 1.3,5.7 -1.8,7.8 z"
   class="st0" />
		<path
   id="path37150"
   d="m 150.8,125.1 c -4,1.2 -6.4,-0.8 -9.2,-0.7 2.8,-0.2 5.5,-0.8 9.2,0.7 z"
   class="st0" />
		<path
   id="path37152"
   d="m 248.2,171.1 c -0.6,-2.7 -1.8,-5.4 0.8,-7.7 -1.4,2.5 -1.2,5.1 -0.8,7.7 z"
   class="st0" />
		<path
   id="path37154"
   d="m 174.8,126.5 c 1,0 1.2,0.5 1.1,1 -0.3,1.5 2.1,2.4 0.8,4 -0.2,0.3 -0.7,0.3 -0.9,-0.1 -0.6,-1.6 -2.1,-3.1 -1,-4.9 z"
   class="st0" />
		<path
   id="path37156"
   d="m 148.5,178.3 c 1.8,1.2 2.1,3 2.9,4.6 -3.9,0.2 -2.8,-2.4 -2.9,-4.6 z"
   class="st0" />
		<path
   id="path37158"
   d="m 179.8,259.7 c -4.2,-1.7 -1.2,-4.3 -1.1,-6.6 0.4,2.2 0.8,4.4 1.1,6.6 z"
   class="st0" />
		<path
   id="path37160"
   d="m 189.1,214 c -0.4,2.1 1.8,4.6 -1.3,6.7 0.8,-2.4 -0.5,-4.7 1.3,-6.7 z"
   class="st0" />
		<path
   id="path37162"
   d="m 176.9,188.9 c -0.7,2.3 -0.9,4.1 -2.5,5.8 0.2,-2.1 -1.1,-4.5 2.5,-5.8 z"
   class="st0" />
		<path
   id="path37164"
   d="m 153.9,80.3 c 3.5,-0.3 3.5,-0.3 5.9,1.9 -2.4,-0.1 -4.1,-0.7 -5.9,-1.9 z"
   class="st0" />
		<path
   id="path37166"
   d="m 177,126.5 c -0.4,-1.9 -0.4,-3.6 0,-5.5 1.8,1.9 1.8,3.5 0,5.5 z"
   class="st0" />
		<path
   id="path37168"
   d="m 178.9,116.4 c 2.1,1.3 3.6,2 3.1,4.5 -1.3,-1.1 -2.7,-1.8 -3.1,-4.5 z"
   class="st0" />
		<path
   id="path37170"
   d="m 121.1,121.8 c 3.3,2.8 0.5,3.5 -1.4,4.4 1.2,-1.1 1.3,-2.7 1.4,-4.4 z"
   class="st0" />
		<path
   id="path37172"
   d="m 89,176.1 c -1.9,1.6 -3.5,2.2 -6.2,2 2.3,-0.9 3.5,-2.5 6.2,-2 z"
   class="st0" />
		<path
   id="path37174"
   d="m 173.5,186.2 c -0.1,1.9 0.7,3.6 -1.3,4.5 -0.1,-1.6 -0.9,-3.3 1.3,-4.5 z"
   class="st0" />
		<path
   id="path37176"
   d="m 226.1,230.2 c -1.5,-0.9 -2.4,-2.2 -2.9,-4.2 2.2,0.9 3.5,1.9 2.8,4.3 0,0 0.1,-0.1 0.1,-0.1 z"
   class="st0" />
		<path
   id="path37178"
   d="m 266.4,198.7 c -0.5,-1.9 2.1,-2.2 1.2,-4 1.1,2.5 1.1,2.5 -1.2,4 z"
   class="st0" />
		<path
   id="path37180"
   d="m 237.5,294.1 c -0.9,-0.8 -1.5,-1.1 -1.5,-1.2 0.3,-1.6 -3.2,-2.3 -1.3,-3.6 1,-0.7 1.2,2 2.1,3 0.2,0.2 0.3,0.6 0.7,1.8 z"
   class="st0" />
		<path
   id="path37182"
   d="m 272.3,210.9 c 0.5,2.6 -0.9,3.6 -1.7,5.5 -0.9,-2.5 0.4,-3.7 1.7,-5.5 z"
   class="st0" />
		<path
   id="path37184"
   d="m 217.1,266.6 c -1.9,0.1 -4.1,1.3 -5.8,-0.8 2.2,-1 3.8,1.5 5.8,0.8 z"
   class="st0" />
		<path
   id="path37186"
   d="m 214.3,268.7 c 2,0 3.5,0 5.1,0 -1.6,-0.5 -3,2.9 -5.1,0 z"
   class="st0" />
		<path
   id="path37188"
   d="m 168,180.3 c 0,2 0,3.3 0,4.6 -1.6,-1.4 -1.6,-1.4 0,-4.6 z"
   class="st0" />
		<path
   id="path37190"
   d="m 173.5,142.7 c -1.4,0.2 -2.7,0.5 -4.4,-0.6 1.9,-1 3.2,-1.2 4.4,0.6 z"
   class="st0" />
		<path
   id="path37192"
   d="m 167.3,138.7 c 2,-0.6 3.9,-1.1 5.3,0.2 0.6,0.5 -0.4,1 -1.3,0.6 -1.2,-0.5 -2.5,-0.6 -4,-0.8 z"
   class="st0" />
		<path
   id="path37194"
   d="m 174.1,118.2 c 1.4,1.2 1.1,2.3 0.6,3.3 -0.1,0.1 -0.6,0.2 -0.7,0.1 -0.9,-0.9 -0.5,-1.9 0.1,-3.4 z"
   class="st0" />
		<path
   id="path37196"
   d="m 170.1,186.5 c 0.1,1.2 0.9,2.5 -0.4,3.4 -0.1,0.1 -0.6,-0.1 -0.6,-0.2 -0.8,-1.3 0.4,-2.2 1,-3.2 z"
   class="st0" />
		<path
   id="path37198"
   d="m 162.1,178.2 c -0.9,-1.9 0.9,-2.9 0.9,-4.3 0.3,1.4 0.9,3 -0.9,4.3 z"
   class="st0" />
		<path
   id="path37200"
   d="m 252.5,237.3 c 1.5,0 3,0 4.5,0 0,0.1 0,0.2 0,0.4 -1.5,0 -3,0 -4.5,0 0.1,-0.1 0.1,-0.3 0,-0.4 z"
   class="st0" />
		<path
   id="path37202"
   d="m 180.6,111.5 c 0.8,0.1 1.3,0.7 1.5,1.4 0.2,0.5 -0.3,1.1 -0.8,0.9 -0.5,-0.2 -1.1,-0.7 -1.4,-1.2 -0.2,-0.4 0,-1 0.7,-1.1 z"
   class="st0" />
		<path
   id="path37204"
   d="m 266.5,206 c 0.8,1.6 0.2,2.5 -1.5,3 -0.2,-1.5 1.9,-1.7 1.5,-3 z"
   class="st0" />
		<path
   id="path37206"
   d="m 268.6,227.6 c 1.1,-0.8 2,-1.4 3.1,-2.2 -0.2,2.2 -1.2,2.5 -3.1,2.2 z"
   class="st0" />
		<path
   id="path37208"
   d="m 234.1,298.9 c 0.8,0.4 2,0 2.2,1.1 0,0.2 -0.4,0.8 -0.6,0.8 -1.1,-0.1 -1.3,-1 -1.6,-1.9 z"
   class="st0" />
		<path
   id="path37210"
   d="m 242.2,150.6 c 0.3,-0.9 0.5,-1.8 0.9,-3.1 0.4,1.4 0.6,2.4 -0.9,3.1 z"
   class="st0" />
		<path
   id="path37212"
   d="m 246.6,134.8 c 0.7,-1.1 1.4,-1.6 2.6,-1.2 0.1,0.1 0.2,0.1 0.3,0.2 -0.9,0.4 -1.6,1.5 -2.9,1 z"
   class="st0" />
		<path
   id="path37214"
   d="m 264.1,199 c 0.3,1.1 1.2,2.3 -0.8,3 0.4,-1.2 0.6,-2.1 0.8,-3 z"
   class="st0" />
		<path
   id="path37216"
   d="m 259.7,236.9 c 1.4,-0.3 1.9,-1.4 3.1,-1.1 -0.3,1.4 -1.2,1.5 -3.1,1.1 z"
   class="st0" />
		<path
   id="path37218"
   d="m 271.4,204.1 c 0.5,1.7 0.4,2.7 0,4.1 -0.6,-1.5 -0.6,-2.6 0,-4.1 z"
   class="st0" />
		<path
   id="path37220"
   d="m 165.4,115.2 c -0.9,0.2 -1.8,0.5 -3.1,0.8 0.8,-2 2,-1.1 3.1,-0.8 z"
   class="st0" />
		<path
   id="path37222"
   d="m 157.5,77.4 c 1.1,-0.6 2.2,-0.5 3.4,-0.1 -1.3,0.7 -2.4,0.3 -3.4,0.1 z"
   class="st0" />
		<path
   id="path37224"
   d="m 152.8,222.1 c 2.8,8.4 -1.6,14.1 -6,19.8 0,-4.7 4.9,-7 5.3,-11.5 -1.7,-0.9 -1.9,1.8 -4,0.9 4.2,-1.9 2.4,-6.4 4.7,-9.2 z"
   class="st0" />
		<path
   id="path37226"
   d="m 163.5,227.9 c -0.4,3.8 -1.7,7.2 -3.2,10.6 -0.4,1 -0.9,1 -1.7,1 l 0.1,0.1 c 1.8,-3.5 1.4,-7.8 3.8,-11.1 0.4,-0.5 0.6,-0.7 1,-0.6 z"
   class="st0" />
		<path
   id="path37228"
   d="m 163.6,228 c -2.1,-3.5 1.7,-6.3 1.2,-9.6 1.2,3.4 0.4,6.5 -1.3,9.5 0,0 0.1,0.1 0.1,0.1 z"
   class="st0" />
		<path
   id="path37230"
   d="m 155.4,233.1 c 0.7,-3.3 -1.8,-7.3 2.7,-10.3 -2.2,3.5 0.4,7.5 -2.9,10.2 z"
   class="st0" />
		<path
   id="path37232"
   d="m 127.4,256.8 c 1.4,2.2 2.2,4 0,6.5 0,-2.4 0,-4.2 0,-6.5 z"
   class="st0" />
		<path
   id="path37234"
   d="m 131,252.6 c 0,2.3 0,3.9 0,5.7 -2.6,-1.8 -1.2,-3.4 0,-5.7 z"
   class="st0" />
		<path
   id="path37236"
   d="m 156.8,216.3 c -0.3,1.9 0.2,4.2 -2.4,5 1.5,-1.4 0.6,-3.8 2.4,-5 z"
   class="st0" />
		<path
   id="path37238"
   d="m 157.2,235 c -0.2,-2.6 0.8,-4.4 2.1,-7.1 -0.2,3 -0.2,5.1 -2.1,7.1 z"
   class="st0" />
		<path
   id="path37240"
   d="m 155.3,233 c 0,2.3 -1.3,3.7 -3.2,4.8 0.9,-1.7 1.5,-3.6 3.3,-4.7 0,0 -0.1,-0.1 -0.1,-0.1 z"
   class="st0" />
		<path
   id="path37242"
   d="m 145.3,230.5 c -0.5,2.1 -0.6,3.7 -3.3,4.7 1.1,-1.9 1.1,-3.5 3.3,-4.7 z"
   class="st0" />
		<path
   id="path37244"
   d="m 151.1,218.5 c 1,3.1 -0.7,3.7 -2.7,5.4 0.7,-2.6 2.6,-3.1 2.7,-5.4 z"
   class="st0" />
		<path
   id="path37246"
   d="m 144.1,239.8 c 0.4,1.5 1,3.1 -0.8,4.3 -1.1,-1.8 0.9,-2.8 0.8,-4.3 z"
   class="st0" />
		<path
   id="path37248"
   d="m 125.4,258.7 c 0,1.6 0,3.1 0,4.7 -0.1,0 -0.2,0 -0.3,0 0,-1.6 0,-3.1 0,-4.7 0.1,0 0.2,0 0.3,0 z"
   class="st0" />
		<path
   id="path37250"
   d="m 141.1,242 c 0.4,1.6 0.7,2.9 -1,3.7 -0.9,-1.6 0.4,-2.5 1,-3.7 z"
   class="st0" />
		<path
   id="path37252"
   d="m 156.1,241.7 c 0.4,1.3 0.3,2.4 -1.1,3.3 -0.7,-1.6 -0.1,-2.5 1.2,-3.1 z"
   class="st0" />
		<path
   id="path37254"
   d="m 156.2,241.8 c 0.7,-0.9 1.2,-2 2.5,-2.2 0,0 -0.1,-0.1 -0.1,-0.1 0.1,1.7 -0.7,2.6 -2.5,2.2 0,0 0.1,0.1 0.1,0.1 z"
   class="st0" />
		<path
   id="path37256"
   d="m 134.3,253.3 c -0.7,-0.6 -1.6,-1.1 -1.1,-2 0.2,-0.3 0.6,-0.4 0.9,-0.6 0.1,0.9 0.1,1.7 0.2,2.6 z"
   class="st0" />
		<path
   id="path37258"
   d="m 70.2,107 c 1.8,0.7 0.9,2.7 2,3.7 0,0 1.6,1.2 -0.1,1.6 -0.6,0.1 -1.4,0.2 -1.4,-0.8 0,-1.5 -1.5,-2.8 -0.5,-4.5 z"
   class="st0" />
		<path
   id="path37260"
   d="m 96,143.5 c 0.5,-1.3 1.4,-1.6 3,-1 -1.2,0.3 -1.7,1.5 -3,1 z"
   class="st0" />
		<path
   id="path37262"
   d="m 153.9,44.4 c 1.3,-0.4 2,-1.5 3.6,-1.1 -0.9,1 -1.7,1.8 -3.6,1.1 z"
   class="st0" />
		<path
   id="path37264"
   d="m 169.6,60.5 c -0.3,0.9 -1,0.8 -1.6,0.7 -0.6,-0.1 -0.9,-0.6 -0.7,-1 0.2,-0.3 0.8,-0.4 1.3,-0.5 0.7,-0.1 1,0.3 1,0.8 z"
   class="st1" />
		<path
   id="path37266"
   d="m 167.2,54.1 c -0.7,1 -0.3,2.2 -2.3,2.6 0.8,-1.1 0.3,-2.3 2.3,-2.6 z"
   class="st1" />
		<path
   id="path37268"
   d="m 141.8,63.9 c -2.3,0.1 -3,1.6 -3.1,3.6 -1.3,-0.8 -1.8,-1.8 -1,-3 1.1,-1.6 2.6,-0.6 4.1,-0.6 z"
   class="st1" />
	</g>
</g>
</svg>
