<?xml version="1.0" encoding="UTF-8" standalone="no"?>
<svg
   xmlns:dc="http://purl.org/dc/elements/1.1/"
   xmlns:cc="http://creativecommons.org/ns#"
   xmlns:rdf="http://www.w3.org/1999/02/22-rdf-syntax-ns#"
   xmlns:svg="http://www.w3.org/2000/svg"
   xmlns="http://www.w3.org/2000/svg"
   xmlns:sodipodi="http://sodipodi.sourceforge.net/DTD/sodipodi-0.dtd"
   xmlns:inkscape="http://www.inkscape.org/namespaces/inkscape"
   inkscape:version="1.0 (4035a4f, 2020-05-01)"
   height="228.81578"
   width="271.91541"
   sodipodi:docname="wolf-passant.svg"
   xml:space="preserve"
   viewBox="0 0 271.91541 228.81578"
   y="0px"
   x="0px"
   id="Layer_1"
   version="1.1"><metadata
   id="metadata36499"><rdf:RDF><cc:Work
       rdf:about=""><dc:format>image/svg+xml</dc:format><dc:type
         rdf:resource="http://purl.org/dc/dcmitype/StillImage" /><dc:title></dc:title></cc:Work></rdf:RDF></metadata><defs
   id="defs36497" /><sodipodi:namedview
   inkscape:current-layer="Layer_1"
   inkscape:window-maximized="0"
   inkscape:window-y="25"
   inkscape:window-x="0"
   inkscape:cy="115.39078"
   inkscape:cx="133.80809"
   inkscape:zoom="2.52"
   fit-margin-bottom="0"
   fit-margin-right="0"
   fit-margin-left="0"
   fit-margin-top="0"
   showgrid="false"
   id="namedview36495"
   inkscape:window-height="480"
   inkscape:window-width="820"
   inkscape:pageshadow="2"
   inkscape:pageopacity="0"
   guidetolerance="10"
   gridtolerance="10"
   objecttolerance="10"
   borderopacity="1"
   bordercolor="#666666"
   pagecolor="#ffffff" />
<style
   id="style36310"
   type="text/css">
	.st0{fill:#010101;}
	.st1{fill:#FFFFFF;}
</style>
<g
   transform="translate(-16.191915,-84.609218)"
   id="g36492">
	<g
   id="g36490">
		<path
   id="path36312"
   d="m 97.7,98.2 c 6.8,-2.9 13.3,-4 18.1,-9.1 1.2,-1.2 3.4,-1 4.7,-0.2 1.3,0.9 -0.1,2.4 -0.6,3.3 -1.5,2.9 -2.5,6.2 -3.8,9.2 -1.1,2.5 -0.8,5.4 -4.3,6.2 3.6,3.5 -1.1,5 -1.8,7.4 -1,3.1 -1.4,6.4 0,9.1 3.1,6.1 3.4,12.6 4.1,19.1 0.5,5 0.8,10 1,15 0.2,6.2 6,7.5 10.4,8.8 4.7,1.4 9.8,1.6 14.7,1.8 13.3,0.8 26.6,-0.8 39.9,-0.8 20.5,-0.1 40.3,3.6 59.3,11.5 8.1,3.3 13.4,0.9 18.5,-6.2 3.5,-4.9 0.2,-15 -5.5,-17 -4.2,-1.5 -8.6,-2.3 -13.2,-2.7 -6.4,-0.5 -12.6,-2.3 -18.3,-5.1 -6.8,-3.4 -14.3,-5.2 -19.8,-11.2 -6.8,-7.5 -7,-17.6 -0.2,-25.3 6.4,-7.3 17,-9.3 25.1,-1.6 1.6,1.5 3.8,2.2 5,5.1 -4.4,0.5 -9.6,-1.2 -11.8,4.4 -0.9,2.3 0.6,3.8 1.6,6.1 0.9,-2.4 1.4,-4.5 3.2,-5.8 1.4,-1 2.1,-3.6 4.3,-2.7 1.6,0.7 0.4,2.8 0.7,4.2 0.4,2.1 1.8,3.7 3.7,4 4.2,0.5 7.4,2.7 10.2,6 1,-3 0.9,-6.4 4.8,-6.8 2.7,-0.3 4.5,0.3 4.1,3.6 -0.5,3.6 1.4,5.2 4.7,5.7 6.5,1.1 10.9,5.4 15.3,9.8 1.4,1.4 1.7,1.9 3.8,1.4 4.1,-1.1 5.1,0.2 3.7,4.1 -0.6,1.7 -0.3,2.7 1.3,3.3 0.7,0.3 1.5,0.6 2.3,0.9 6.4,2.3 6.7,3.2 2,8 -1.2,1.2 -1.7,2.1 -1.2,4.2 1.3,5.7 0,11.1 -3.6,15.9 -4.2,5.6 -7.7,11.7 -15.3,13.6 -6.3,1.6 -11.9,-0.1 -17.6,-2.8 1.9,2.4 3,4.8 3.3,8 0.3,2.6 2.6,4.8 5.9,4.7 1,0 2.7,-1 3.1,1 0.3,1.5 -0.9,2.1 -2.2,2.6 -2.4,0.8 -2.5,1.6 -1.4,4.3 1.8,4.5 2.1,9.6 2.7,14.4 0.2,1.6 0.6,3 1.7,4.1 1.2,1.2 2.2,3.7 4.5,0.9 0.6,-0.7 2.4,-0.8 3,0.1 0.7,1 -0.2,2.1 -1.1,2.9 -5.3,5.1 -5.3,5.1 -2.4,10.4 2.2,4.2 8,7 12.6,5.3 3.9,-1.4 2.7,1.1 2.8,2.8 0,0.4 -0.4,1.2 -0.8,1.3 -6.4,2.1 -4.5,7.2 -4.2,11.6 0.1,1.7 -0.8,2.9 -1.5,4.2 -5.7,10.7 -11.2,21.5 -17.8,31.6 -1.9,2.9 -4.4,4 -7.3,4.5 -3,0.5 -5.8,1.6 -8.2,3.3 -3.8,2.6 -3.7,2.7 -5,-1.9 -0.2,-0.6 -0.6,-1.2 -1,-2 -1.8,1.1 -3.2,2.8 -5,4 -2.5,1.7 -2.9,0.3 -3.1,-1.6 -0.7,-4.9 3.6,-12 8.2,-13.8 2.1,-0.8 4,-2.4 5,-4.3 5,-10.4 8.2,-21.9 -3.7,-31.9 -6.2,-5.2 -12.8,-10 -19.1,-15 -1.2,-1 -1.6,-1.3 -2.6,0.4 -4.1,7.3 -3.1,13.5 3.5,18.2 3.1,2.2 0.4,4.3 -0.7,4.4 -3.3,0.1 -3.6,2.8 -4.8,4.6 -1.3,1.9 -2.6,3.5 -5,3.8 0.8,1.9 3.2,1.5 4.2,3.3 -2.2,1.4 -4.4,2.9 -7.2,2.3 -3.4,-0.8 -5.1,1.4 -7.1,3.6 -7.5,8 -16.2,14.5 -26,19.3 -2.3,1.1 -4.8,1.7 -6.5,3.9 -1.5,1.9 -3.8,1.9 -6.1,2 -4.3,0.1 -9.1,-1.4 -12.4,3 -0.5,0.7 -1.7,0.7 -2.3,0 -1.6,-1.9 -2.9,-3.1 -5.8,-2.4 -1.5,0.3 -1,-1.9 -0.6,-3.2 1.7,-6 5.2,-9.4 11.7,-10.2 8.7,-1.1 13.4,-8.2 19,-13.9 0.7,-0.7 1.2,-1.8 2,-2.6 3.7,-4 4.1,-8.4 1.9,-13.2 -3,-6.7 -4,-13.9 -5.1,-21 -0.9,-6 2.1,-11.7 5.9,-16.5 2.1,-2.7 4.9,-4.9 7.5,-7.4 -1.9,-1.1 -4.1,0.4 -5,-1.1 -1.1,-1.9 1.6,-2.6 2.1,-4.4 -3.6,-0.4 -6.5,0.5 -9.7,2.2 -12,6.7 -24.6,12.1 -38.5,13.7 -3,0.3 -5.8,1.5 -8.8,1.8 -3.7,0.4 -4.3,3.1 -4.4,5.9 -0.2,5.1 -1.6,9.5 -4.7,13.6 -2.4,3.2 -3.3,7.5 -4.3,11.3 -2.7,10.2 -7.8,19.4 -11.3,29.1 -1,2.8 -2.5,5.4 -3.7,8.2 -1.3,3.2 -4.1,4.5 -7,5 -3.7,0.6 -7.1,1.7 -10,4.3 -1.7,1.5 -3.6,1.2 -3.7,-0.9 -0.3,-4.6 -2.5,-1.5 -4.1,-1.4 -1.8,0.1 -2.8,3.9 -4.7,1.5 -1.5,-1.8 -1,-4.4 0.1,-6.7 0.8,-1.6 1.2,-3.3 2,-4.9 0.9,-1.8 1.7,-3.4 4.4,-3.8 5.7,-0.8 8.9,-4.3 10.6,-9.9 2.9,-9.6 4.3,-19.4 6,-29.2 1.4,-7.7 1.7,-15.6 3.1,-23.2 0.4,-2.1 0.2,-3.3 -2.8,-3.6 -4.8,-0.5 -9.5,-2.8 -14.3,0 -4.8,2.8 -9.4,6.3 -14.8,7.6 -6.8,1.7 -9.1,6.7 -11,12.4 -0.6,1.9 0.3,3.2 1.7,4.3 2.6,2.1 3.4,4.8 3.3,8.1 -0.1,4.2 -1.1,8.8 3.1,12 0.6,0.5 0.5,1.8 -0.3,2.2 -2.1,1.3 -2.6,2.9 -2.2,5.5 0.3,2.2 -1.9,1.3 -3.1,0.9 -5.8,-1.7 -9.9,-4.9 -10.3,-11.6 -0.2,-2.5 -1.1,-5 -2.6,-7.1 -4.9,-7 -3.7,-15.2 -4.9,-23 -1.3,-8.3 1.9,-13.9 9.4,-17.9 8.8,-4.7 15.5,-12.6 24.4,-17.3 2,-1 1.2,-2.3 0.4,-2.9 -3.7,-3 -2.5,-8.9 -6.9,-11.4 -0.4,-0.2 -0.2,-1.6 -0.3,-2.4 -0.2,-2.4 0.1,-4.7 -1.3,-7.2 -1.7,-3 0.9,-5.7 3.7,-8 -2.8,-1.3 -5.2,-0.3 -8.9,-1.5 6.6,-2 8.4,-7.2 11.7,-11.1 1.5,-1.7 1.6,-4 2.7,-5.8 0.7,-1.3 -0.5,-0.9 -0.9,-1.1 -6.1,-2.6 -12.2,-5 -18.8,-1.5 -2.3,1.2 -4.5,2.8 -6.2,-0.9 -0.3,-0.8 -1.5,-1.2 -2.3,-1.8 -1.6,0.7 0.3,4.2 -2.9,3.5 -3,-0.7 -6.2,-1 -7.8,-3.8 -1.5,-2.8 1.8,-3.9 3,-6.1 -3,-0.9 -5.7,1.1 -8.5,0.7 -1.7,-0.3 -3.5,0 -3.8,-2.1 -0.2,-1.8 1.3,-2.5 2.8,-3.1 4.9,-2.2 10.2,-2.9 15.6,-3.6 -0.4,-2.4 -1.8,-3.1 -4.1,-3.1 -6.3,-0.1 -10.1,-4.7 -14,-8.6 -1.8,-1.8 0,-4.1 3.5,-4.9 5.7,-1.3 11.4,-2.8 17,-4.1 7.2,-1.7 13.6,-4.6 19.7,-8.4 0.7,-0.4 1.2,-1 2.1,-1.1 4.5,-0.6 7.7,-2.7 9.8,-7 0.9,-1.9 3.6,-3.3 5.8,-4.4 8,-3.9 17,-5.6 25,-9.5 1.5,-0.7 2.7,-0.2 2.8,2.2 -0.1,4.5 -2.5,7.3 -4.9,11.1 z"
   class="st0" />
		<path
   id="path36314"
   d="m 230,129.1 c 0.1,-3.1 1.5,0 2.2,-0.5 0.5,1.7 1.9,2.7 3.2,3.8 1.4,-1.8 -2.1,-2.1 -0.9,-4.1 2.8,0.9 4.1,3.8 6.3,5.4 2.3,1.7 3,4.7 5.6,6.2 1.4,-1.7 -2.2,-2.1 -0.9,-4 2,2.5 4.6,4.4 6.1,7.3 0.1,-1.9 0.5,-3.3 -1.6,-5 -5,-3.9 -5.3,-7.3 -2,-11.4 1.2,0.6 1.3,1.6 1.2,2.8 -0.1,4.1 1.5,6.7 5.9,7.2 2.6,0.3 4.2,1.8 4.5,4.8 0.3,2.8 -3.5,1.8 -3.4,4.2 6,-1.6 6.6,-2.5 4.7,-6.7 2.8,2.4 6.1,4.4 8.1,7.2 2.6,3.6 4.6,5.5 8.2,-0.6 -2,7.3 -2,7.3 7.2,11.6 -4,5.1 -4,5.1 -10.6,0 -0.7,3 1.9,4.8 3.4,5.1 2.9,0.7 3.1,2.5 3.6,4.7 1.6,6.2 -2.2,13.1 -8.2,15.4 -4.2,1.6 -8.6,1.8 -13,2 4.2,2.3 8.6,1.2 12.9,0.9 -7,5.4 -14.7,3 -22.1,1.9 1.5,1.9 3.8,2.7 7.9,2.8 3,0 6.1,0 9.1,0.4 -4.4,3.4 -9,3.5 -14.3,1.6 -6,-2.1 -11.4,-5.7 -17.7,-7.1 -5.9,-1.4 -11.8,-2.4 -17.9,-2.1 2.8,1.9 6.2,1.9 9.3,2.1 9.2,0.7 15.4,5.5 20,13.2 1,1.7 -0.2,3.6 1.4,5 2,1.8 3.5,4.3 7.1,4 -4,2.3 -6.9,1.7 -8.7,-1.9 -1.6,-3.3 -4.7,-5.4 -6.5,-8.5 -0.6,-1 -1.8,-1.3 -2.5,-0.5 -1,1.1 0.3,1.9 1.1,2.1 2.5,0.9 3.4,3.4 4.6,5.1 2.1,3 4.1,5.3 7.5,7.1 1.9,1.1 3,4.8 3.3,7.4 0.4,4 1.7,7.8 2,11.8 0.2,3.2 3.6,4.2 6,6.4 -7,1.7 -11.3,-2 -15.5,-6.1 -0.8,-0.8 -1.3,-3.3 -2.9,-1.8 -1.8,1.6 1.4,1.4 1.8,2.9 0.4,1.7 2.7,2.9 4.5,4.1 3.5,2.2 7.3,3.7 9.3,8.1 3.3,7.3 8.8,11.7 18,9.7 -5.6,7.6 -11.8,3.5 -17.9,2.6 2.4,1.5 4.7,3.5 7.3,4.3 4.1,1.3 5,3.8 4.3,7.5 -0.3,-0.2 -0.5,-0.4 -0.7,-0.5 -1.1,-1.8 -1.8,-5.1 -4.3,-3.9 -1.7,0.8 1.7,2.3 2,4.2 0.3,1.9 2.1,3.5 0.2,5.4 -0.4,-0.8 -0.6,-1.8 -1.2,-2.5 -0.6,-0.7 -1.2,-2.2 -2.7,-1 -1.9,1.5 0.7,1.5 1,2.1 1.3,2.5 1.6,4.4 0.1,7.1 -3.9,6.8 -7.5,13.9 -11,21 -2.2,4.6 -6.4,5.7 -10.7,6.5 -2.3,0.4 -4.7,0.1 -7.4,0.1 1.1,-4.3 3.8,-6.5 7.6,-7.7 1.1,-0.3 2.7,-1.2 2.1,-2.4 -0.9,-1.9 -1.6,0.5 -2.4,0.6 -3.6,0.6 -6.2,2.9 -8.6,5.4 -1.6,1.8 -3.3,1.7 -5.5,1.2 1.2,-2.7 1.9,-5.1 5.7,-6.1 3.9,-1 6.7,-4.7 8.3,-8.7 3.2,-8.3 3,-16.6 -0.5,-24.8 -0.6,-1.4 -2,-2.4 -3.4,-4.1 2.4,0.2 3,2 4.3,2.9 0.7,0.5 1.3,2.1 2.3,1.1 1,-0.9 0.1,-2 -0.7,-2.9 -2.6,-2.8 -5.9,-4.6 -9.2,-6.1 -8,-3.6 -15,-8.7 -21,-14.9 -4.4,-4.5 -6.9,-9.7 -7.8,-16.2 -1.5,-10.8 -6.8,-19.9 -15.8,-26.4 -0.8,-0.6 -1.5,-1.2 -2.3,-1.8 -0.7,-0.6 -1.1,-1.7 -3.3,-1.4 4.1,7.2 8.5,13.8 13.8,19.9 -5.1,-2.8 -7.8,-8.3 -12.4,-11.5 -0.6,-2.8 -3.1,-4.1 -4.9,-5.7 -1.6,-1.4 -3.7,0.5 -5.7,0.6 -3.5,0.2 -3.5,1.1 -6.2,-1.6 -1.1,1.3 0.4,3.6 -1.4,4.3 -1.7,0.6 -3.2,-0.5 -4.4,-1.8 -1.3,-1.3 -1.9,-0.1 -2.6,0.7 -3.2,-1 -6.4,-1.5 -9.3,1.4 3.6,0.6 7.5,0.5 11,2.1 -0.1,-1 -2.4,-1.7 -0.6,-3.1 4.5,1.2 9.5,-0.7 13.9,2 1.8,1.1 4.1,-0.2 6.1,-0.4 1.6,-0.2 3.7,-1.3 4.2,1.6 -3.1,-0.5 -2.1,1.2 -1.2,2.5 1,1.3 2.3,2.4 3.4,3.7 -2.4,1.1 -3,-1.1 -4.3,-1.9 -1.8,-1 -3.8,-4.4 -5.8,-0.1 -0.2,0.3 -0.3,0.6 -0.5,0.3 -3.2,-4.2 -7.5,2.1 -10.8,-1.1 0,0 -0.2,0.2 -0.6,0.4 4.3,4 9.6,5.3 15,6.1 4.3,0.6 4.6,0.9 2.1,4.5 -1.9,2.8 -4.4,4.7 -8.4,3.8 2.4,-2.8 5.4,-4.6 8.8,-6.4 -2,-1.9 -4.5,-1.4 -6.3,-1.6 -5.6,-0.8 -10.7,-3.1 -15.9,-4.8 -0.5,-0.2 -1.1,-0.5 -1.6,-0.4 -1.2,0.1 -3,-0.7 -3.4,0.6 -0.5,1.8 1.5,1.9 3.1,2 -1,1.1 -2.7,0.5 -3.1,2 2.4,1.6 4.8,3.2 7.5,4.2 -0.3,1.8 -1.7,1.6 -2,1.2 -3,-2.7 -7.3,-0.8 -10.5,-3.1 -2,-1.5 -2.2,2.1 -4.1,2.5 -3.4,0.6 -6.6,2.2 -10.6,0.3 4,5.1 8.5,2.8 11.5,0.9 3,-2 5,-1.4 7.7,-0.5 1,0.3 2.2,0.2 4.3,0.3 -4.9,3.3 -8.6,6.9 -15.3,2.9 1.3,2.5 3.3,1.6 3.4,3.1 0.2,0.4 0.1,0.5 -0.4,0.6 -3.8,0.1 -7.3,-0.2 -10.3,-3.5 -2.1,-2.3 -5.2,-4.2 -9.3,-2.8 5.4,2.3 8.9,7.3 16,7.7 -4.9,2.2 -4.9,2.2 -17.6,-3.1 0.5,1.8 3,4.2 0.3,4.8 -2,0.4 -4.3,-1.7 -5.7,-4.2 2,-0.4 3.4,-1.4 5.2,-1.3 1.6,0.1 3.2,0 5.8,0 -3.5,-2.7 -7.1,-1.5 -9.9,-3.5 -2.9,-2.1 -1.8,-6.2 -5,-7.9 -0.3,3.3 0,6.4 2.2,9.1 0.3,0.4 1.4,0.8 0.5,1.6 -3.1,2.8 -1,4.5 2.7,6.1 -5,-0.2 -6.5,-2 -5.4,-5.1 0.2,-0.5 0.8,-0.9 0,-1.3 -4.2,-2.4 -5.7,-6.5 -6.9,-10.9 -2.7,7.4 2.2,12.2 6,18.3 -4.1,-2.3 -6.1,-5.8 -9.6,-7.7 1.8,2.8 3.5,5.5 5.3,8.4 -2.8,-0.1 -4.4,-0.8 -4.9,-3.6 -0.4,-1.9 -3.5,0.8 -4.2,-1.9 -1,2 0.1,3.5 1.1,4.3 1.9,1.6 5,2.4 1.4,5.5 -0.4,0.4 1.3,3.2 1.9,4.9 0.8,2.3 2.4,4.4 1.5,8.3 -1.5,-4.7 -2.6,-8.5 -6.7,-10.1 2.2,1.9 3.1,5.3 3.2,7.1 0.3,3.3 1.1,6.9 -0.8,10.8 -4.1,8.6 -6.2,18.2 -9.7,27.1 -2.9,7.4 -6.5,14.6 -9.9,21.9 -1.6,3.4 -5.3,3.2 -8.4,3.8 -2.2,0.4 -4.5,0.1 -6.9,0.1 0.7,-4.3 3.6,-6.3 7.1,-7.5 1.4,-0.5 3.1,-1.3 2.5,-2.4 -1,-2.1 -1.7,0.5 -2.8,0.7 -3.3,0.5 -5.8,2.5 -7.9,4.9 -1.6,1.8 -3.3,2.4 -5.7,1.5 0.8,-3.2 1.6,-5.4 6,-5.8 5,-0.4 9.3,-6.6 11,-12.1 3.5,-11.4 4.1,-23.4 6.6,-35 1.1,-5.1 1.2,-10.4 1.8,-15.6 0.1,-0.9 -0.5,-2.3 0.4,-2.7 1.3,-0.6 1.8,0.7 2.2,1.8 0.4,0.9 1.5,0.3 2.3,0.6 2.3,0.9 4.5,2.1 6.6,3.5 -2.2,-1.3 -4.2,-2.8 -6.7,-3.3 -0.6,-3 1.5,-2.3 2.7,-1.5 3.6,2.4 5.6,-1 8,-2.2 0.8,-0.4 -1.5,-2.3 -1.6,-4 0,-0.5 -1,-1.7 -2.2,-1.7 -0.2,0 -0.4,0.3 -0.7,0.4 2.7,2.6 -3,3.5 -1,6 -3.8,-3.4 -3.4,-8.4 -6.4,-13.6 -0.5,4.5 -0.4,7.9 -0.4,11.4 -1.1,-4.9 -4,-9.2 -4.6,-15.3 -2.6,3.7 0.3,7.4 -2.3,10.3 1.1,-4.2 -2,-7.5 -1.6,-11.8 -2.9,3.2 -0.1,6.6 -0.9,9.9 -2.3,-3.2 -3,-6.4 -1.5,-10 2.3,-5.4 0.9,-12 5.9,-16.6 1.3,-1.2 3,-2.3 4.2,-4.3 -1.3,0 -2.4,0 -3.5,0 0.7,-3.4 4.7,-3.1 6.1,-5.6 -1.7,1.3 -3.5,2.6 -5.5,3.6 -0.9,0.5 -1.3,0.9 -0.5,1.8 -5.9,3.7 -7.3,9.9 -8.2,16 -0.3,1.9 -0.7,3.4 -1.8,4.9 -1.7,2.4 -2.2,5.2 -1.6,8.3 -2.8,-1.3 -3,-2.7 -2.1,-5.3 1.6,-4.5 2.6,-9.3 5.5,-13.3 -6.6,3.1 -5.7,10 -8.1,15.3 -0.1,-3.9 1.9,-7.5 0.8,-11.8 -3.2,4 -1.8,9 -3.7,13 -0.3,0.6 2,2.5 3.2,3.6 1.1,1 2.4,1.9 4.4,3.4 -5.1,0.8 -8.6,2.1 -11.6,4.5 -1.6,-1.4 0.8,-2.5 -0.2,-4.5 -2.8,7.7 -9.3,9.4 -15.8,11.8 -2.4,0.9 -5,3.2 -5.9,6.7 -0.7,2.8 -1,6 -3.4,8.3 -1.3,1.2 0.2,1.1 1.1,1.6 6.3,3.1 8.3,12.7 3.6,17.2 -1.4,1.4 -2.3,1.6 -2.7,-0.6 -0.6,-3.4 -2.2,-6.4 -3.4,-9.5 -0.7,-1.8 -1.6,-3.3 -4.1,-2.7 2.7,3.3 4.2,7.1 5.3,10.9 0.7,2.3 1.5,4.3 3.4,5.9 0.7,0.6 1.5,1.1 0.4,2.2 -1.1,1.2 -1.6,0.6 -2.6,-0.1 -1.7,-1.2 -2,-3.1 -2.3,-4.7 -0.6,-3.1 -1.2,-6.2 -3.3,-8.6 -3.9,-4.5 -2.2,-10.3 -3.6,-15.3 -0.8,-3.2 -1,-6.5 -1,-9.9 0,-5.4 1.9,-9.4 6.7,-12.2 7.1,-4.1 13.4,-9.5 19.8,-14.6 2.4,-1.9 5.2,-3.3 8.2,-5.2 -0.8,4 2,6.5 3.2,9.8 -2.7,-9 3.3,-15.3 6.9,-22.3 -3.7,2.8 -6.6,6 -7.9,10.8 -1.8,-3.3 -0.3,-5.7 1.5,-7.7 1.8,-2 3.2,-4.2 4.1,-6.8 -3.8,2.7 -6.4,6.3 -8.6,10.2 -3.7,-2.9 -4.1,-10.6 -0.2,-13.5 -3.3,-1.2 -4,-0.3 -4.3,5.4 -2.8,-1.9 -3,-3.7 -1.7,-7.5 1.4,-4.1 4,-7.8 4.5,-12.2 0.2,-0.8 1,-1.2 1.1,-2.5 -0.2,1.2 -1.1,1.7 -1,2.6 -3.8,2.1 -3.6,7 -7.4,9.8 3,-8.8 7.7,-15.7 15.3,-20.7 -3.3,0.1 -5.3,2.4 -7.4,4.5 -2.1,2.1 -4.4,3.9 -7.5,5.7 3.7,-6.1 8.2,-10.5 13.6,-13.9 0.7,-0.4 2.2,-0.6 0.9,-1.9 -1,-1.1 -1.7,-0.3 -2.4,0.4 -1,1.1 -1.9,2.2 -3,3.3 -0.2,-3.7 1.2,-5.5 4.3,-5.1 2.2,0.3 3.8,0.6 6.1,-0.7 1.9,-1.1 4.9,-0.3 7.3,0.9 -1.2,2.5 -4.8,3.5 -4.1,7.5 3.7,-2.2 5.7,-7.1 10.1,-8.5 4.1,-1.3 8.2,-2.4 12.8,-2.4 -0.7,2.9 -4.1,3.5 -5.2,6.1 6.6,-1.6 10.2,-6.7 9.5,-12.9 -0.1,-1.2 -0.4,-2.5 0.4,-3.7 3.6,-5 1.6,-9.6 -0.7,-14.3 -3.3,2.2 0.9,4.8 -0.8,7 -2.2,-1.1 -1,-3.5 -1.8,-5.5 -3.2,2 -6,5.3 -11.3,3.1 3.2,3.5 7.7,4.1 8.2,9.2 -2.7,-3.4 -5.6,-4 -9.2,-2.4 3.3,2.3 1.9,5.5 1.6,8.5 -0.1,0.6 -0.2,1.1 -0.9,1.2 -5.8,0.3 -11.7,1.5 -16.9,-2.4 -2.3,-1.7 2.2,-2.5 0,-4.1 2.9,2.2 4.6,5.9 9,5 1.7,-0.3 2.7,-1 3.7,-2.3 -1,-0.5 -2,-1 -3,-1.4 -1.2,-0.5 -1.3,-3.7 -3.1,-2 -0.8,0.7 0.9,2.8 2.4,3.7 -7.1,-2.3 -10.9,-10.3 -19.2,-11.3 1.9,3.1 5.6,3.8 7.3,6.4 2.5,3.8 -2.8,5.6 -2.4,9.3 6.1,-3.3 10.5,1.1 15.8,3.6 -2,1.3 -3.2,0 -4.3,-0.7 -2.2,-1.4 -4.5,-1.1 -6.8,-1.3 -1.6,-0.2 -0.5,4 -3.1,1.6 -1.4,-1.3 -3.1,-2.2 -4.7,-3.2 -0.3,-0.2 -1,0.1 -1.4,0.2 -0.4,2 2.5,1 2,3 -2.9,0.6 -5.8,-0.7 -8.4,-1.9 -5.4,-2.5 -10.4,-1.7 -15.5,0.6 -1.2,0.6 -1.9,1.3 -3.3,-0.3 -3.2,-3.6 -4,-3.3 -7,0.9 -0.6,0.8 -0.9,0.2 -1.2,0 -1.4,-0.7 -3.3,-0.8 -3.8,-2.8 -0.2,-0.9 0.4,-1.2 1.2,-1.7 4.3,-2.8 9.1,-1.8 13.4,-1.2 7.7,1 15.3,0.6 22.8,-0.5 1.6,-0.2 3.4,-1.3 3.9,-3.3 0.5,-2.2 -0.7,-3.7 -2.2,-5 -3.1,-2.9 -7.2,-2.4 -10.9,-3.1 -3.8,-0.8 -7.7,-1.5 -11.6,-1 -6.1,0.9 -11.7,-1.5 -17.4,-2.7 -1.6,-0.3 -2.9,-2.2 -4.3,-3.4 1.4,-0.9 -0.4,-4.3 2.9,-4 -2,0 -4,0 -6.5,0 3.6,-3 7.7,-2.3 11.2,-3.4 8.2,-2.6 16.9,-4.1 24.3,-8.9 7.8,-5 16.4,-6.5 25.4,-6.4 3.3,0 5.6,0.3 3.4,4.3 -0.7,1.2 -1.2,2.5 -0.5,3.9 0.4,-0.2 0.9,-0.4 1,-0.7 4.6,-8.9 13.3,-11.4 21.8,-14.6 3.3,-1.2 7,-2.5 9.4,-5.6 1.1,1.3 -0.6,1.7 -0.6,2.4 -0.2,2.2 -5.2,2.1 -2.6,5.8 0.5,0.7 -3,2.1 -2.9,4.4 0.1,2.3 -2,2.8 -3.2,4 0.9,0.7 2.6,-0.5 2.9,0.9 0.4,1.3 -1.1,1.6 -2,2.2 -0.8,0.6 -1.8,1 -1.5,2.8 0.4,1.9 -2.2,1.7 -3.7,2.4 0.9,0.5 1.6,1.1 2.4,1.2 3,0.4 1.8,1.9 0.7,3 -1.2,1.2 -3.3,2.2 0.1,3.2 -5.6,2.2 -10.9,4.4 -16.5,6 5.7,0.9 11,0 15.8,-3.4 1.8,-1.2 3.3,-2.1 4.3,1.4 1.5,5.1 1.6,10.3 2.2,15.4 0.6,5.4 1.4,10.8 1.1,16.3 -0.2,3.4 2.4,5.5 5.1,7 3.8,2.2 8,3 12.4,3.5 10.9,1.3 21.8,0.5 32.8,0.7 7.9,0.2 15.7,-1.4 23.6,-0.9 7.6,0.5 15,1.9 22.5,2.9 12.1,1.7 23.1,7.2 34.9,9.6 5.2,1.1 12.9,-1.4 15.7,-5.7 3.6,-5.4 4.8,-10.9 1.3,-17.2 -2.5,-4.4 -6.3,-6 -10.5,-7.3 -6.9,-2.2 -14.4,-1.5 -21.2,-4.3 -8.9,-3.7 -18.7,-6.1 -25.4,-13.4 -8.3,-9 -3.3,-21.5 6.3,-26.3 0.3,-0.1 0.8,0.1 1.2,0.2 -8.1,7.1 -9.6,8.5 -4.7,16.5 -1.8,-9.7 3.1,-14.4 10.2,-17.5 -2.6,3.2 -6.6,5.1 -7.5,9.9 -0.9,4.5 -0.4,8.4 2.4,11.9 -0.6,-2.9 -0.3,-5.7 -0.3,-8.6 0,-4.9 3.3,-9.4 7.9,-10.9 0.6,-0.2 1.1,-0.9 1.7,0 0.8,1.2 -0.4,1.3 -0.9,1.8 -7.3,5.3 -8.6,9 -6.1,17 0.4,1.2 1.3,2 3,2.7 -1.1,-4 -2.7,-7.9 -1.9,-11.4 0.9,-3.6 3.4,-7.1 7.8,-8 -3.3,2.7 -6.9,5.3 -6.3,10 0.7,5.5 5.3,11.3 10.1,13.3 -0.5,-3 -4.6,-3.9 -3.9,-8.4 1.8,2.1 3.1,3.7 4.4,5.4 1.3,1.6 2.2,3.6 4.3,4.8 -0.5,-4 -3.8,-5.9 -5.8,-8.7 -1.9,-2.7 -2.2,-4.8 0.3,-7.2 1.2,2.6 0.9,5.9 4.1,7.2 0.4,2 2.5,2.9 3.2,4 -0.2,-1.3 -1.9,-2.3 -2.7,-4.1 z"
   class="st1" />
		<path
   id="path36316"
   d="m 216.6,265.2 c -4.1,0.7 -9.9,-3 -11.1,-7.6 -1.5,-6.1 -6.3,-8.9 -10.5,-12.4 -0.3,-0.2 -0.7,-0.2 -2.3,-0.6 3.4,4.5 7.9,6.6 10.4,10.9 -0.7,-0.1 -0.9,0 -1.1,-0.1 -1.5,-0.7 -2.3,-4 -4.4,-1.9 -0.8,0.9 1.7,2.8 2.9,3.7 3.6,2.7 5.3,6.9 8.5,9.9 1.6,1.5 0.8,4.2 -1.8,5.5 -1.4,-9 -14.9,-23.7 -23.1,-25 7.7,8.2 19.2,13.2 21.4,26.2 -3,-0.7 -3.7,-2.7 -4.4,-4.6 -1.4,-4 -3.4,-7.7 -6.4,-10.8 -0.5,-0.5 -1,-1.2 -1.7,-0.6 -0.3,0.3 -0.5,1.3 -0.3,1.5 5,4.2 5.6,11.1 9.6,15.9 1,1.2 2.4,2.2 3.6,3.3 -4,2.9 -7.4,-0.1 -8.1,-5.1 -0.6,-3.5 -1.5,-6.8 -4.7,-9 0.9,4.4 4.1,8.3 2.7,13.4 -0.8,-1.8 -2.7,-2.7 -2.3,-6 -1.4,3.3 -0.9,5.4 0.4,6.7 2.1,2.1 0.9,3.6 -0.4,4.8 -7.1,6.9 -14.8,13.1 -23.4,18.1 -0.5,0.3 -1.6,2.1 -2.7,0.2 -1.1,-2 -1.1,-0.8 -1.8,0.5 -3.6,7.4 -13,8.5 -18.4,2.2 4.6,-3 11.4,-2.1 14.3,-7.9 -4.2,2 -8.3,4.3 -12.9,5.1 -2,0.3 -2.7,1.9 -3.9,2.9 -0.9,0.8 -1.3,1.5 -2.5,0.3 -1.4,-1.4 0,-1.7 0.5,-2.5 1,-1.6 2.9,-2 4.3,-2.1 10.6,-1.5 16.6,-9.1 23,-16.3 0.4,-0.4 0.6,-1 1,-1.3 6.6,-4.7 5.6,-10.8 2.9,-17 -2.6,-6.1 -3.1,-12.6 -4.7,-19 -0.3,-1.1 -0.1,-2.3 0,-3.4 0.6,-5.5 2,-6.1 6.7,-3.3 6.3,3.7 13,6.9 18.4,12 1.1,1 2.2,0.8 3.5,0.4 -6.4,-7.8 -16.1,-10.8 -23.4,-17.2 4.9,0.3 8.3,3.7 12.3,5.9 1.5,0.9 2.9,2.1 4.2,3.3 0.8,0.7 1.4,0.8 2.1,0 1,-1.1 -0.1,-1.3 -0.6,-1.8 -4.4,-4 -9.5,-6.9 -14.8,-9.5 -0.8,-0.4 -3.4,-0.6 -2.1,-2 1.2,-1.3 2.4,-3.7 4.7,-3.3 1.5,0.3 3.1,1.1 4.4,2.1 6.1,4.6 12.8,8.6 17.7,14.7 0.8,1 1.5,1.7 2.8,1.2 -2.5,-4.6 -4.5,-6.3 -10.6,-11.5 -3.9,-3.4 -9,-5.1 -12.8,-9.5 8.3,2 13,8.6 19.7,12.3 -3.4,-6.4 -10.4,-9.2 -15.7,-14.7 4.4,0.7 6.8,3.3 9.3,5.7 0.6,0.6 1.1,2.4 2.4,1.2 1.3,-1.3 -0.6,-1.8 -1.2,-2.4 -1.1,-1.1 -2.4,-1.9 -3.4,-3.1 3.6,-0.1 9.4,4.9 9.9,7.7 -1.9,0.9 -2.5,-3.5 -4.1,-1.4 -0.9,1.3 1.8,2.5 2.9,3.8 2.1,2.4 5,4.2 6.8,7.4 -2.7,0.2 -2.9,-3.1 -5,-3.1 -0.5,0 0,-2.4 -1.1,-0.4 -0.3,0.5 -1.3,0.9 0.3,1.6 2.5,1.2 3.6,4.2 5.6,6 1.4,1.3 0.6,2.4 0,3.2 -1,1.2 -1.3,-0.5 -2,-0.8 -7.4,-3.4 -12.1,-10.4 -19.2,-14 -2.8,-1.5 -5.4,-5.5 -10,-2.4 6.8,1.2 11.2,6.1 16.2,9.7 4.7,3.3 9.6,6.7 13.3,11.2 0.8,1 3.3,2.6 -0.3,3.4 3.7,2.4 4.9,7.8 10.5,9.7 z"
   class="st1" />
		<path
   id="path36318"
   d="m 96.1,93.9 c -0.3,1.7 -2,1.1 -3,1.9 0.7,0.2 1.3,0.4 2,0.6 -0.9,1.4 -2.6,-0.1 -3.5,1 0.7,0.9 1.9,0.1 2.8,1.3 -5.9,-0.5 -11.5,0.7 -17.4,2.2 5.1,1.1 9.9,0.5 15.4,-0.9 -3.3,3.8 -6.8,3.4 -10.2,2.6 -2.8,-0.7 -5.6,-0.6 -8.3,-0.2 -1,0.1 -2.2,1.3 -2.7,-0.1 -0.3,-0.7 0.5,-2 1.7,-2.8 4.2,-2.9 8.5,-5.4 13.2,-7 4.1,-1.4 8.2,-2.5 12.4,-3.8 -0.5,2.9 -1.7,4.8 -5,4.2 -1.4,-0.3 -2,1.2 -2.9,2.1 1.5,1.1 1.8,-0.8 2.7,-1.1 0.9,-0.4 1.9,-0.3 2.8,0 z"
   class="st1" />
		<path
   id="path36320"
   d="m 48.2,142.7 c -1.3,0 -2.4,-0.3 -3.3,0.1 -1.7,0.7 -3,0 -3.1,-1.3 -0.1,-1.1 1.3,-2.2 2.9,-2.2 5.7,0 11.3,-0.4 16.6,2.4 0.9,0.5 2.4,0.1 2,1.8 -0.5,1.6 -1.9,1 -2.8,0.7 -4.1,-1 -8.3,-1.7 -12.3,-1.5 z"
   class="st1" />
		<path
   id="path36322"
   d="m 19.8,143.3 c 3.8,-3.7 8.8,-3.4 13.3,-4.8 1.2,-0.4 3.5,-0.6 3.6,1 0.1,1.4 -1.5,3.1 -3.3,3.1 -4.5,0.2 -9.1,-0.1 -13.6,0.7 z"
   class="st1" />
		<path
   id="path36324"
   d="m 63,140.1 c -5.5,-3.5 -11.6,-2.2 -17.4,-2.5 -0.9,0 -2.5,0.7 -2.4,-1.3 0,-1.9 1.6,-1.1 2.5,-1.2 5.1,-0.4 10,1.9 15.1,1.7 1.7,0 1.6,1.9 2.2,3.3 z"
   class="st1" />
		<path
   id="path36326"
   d="m 36.7,135.4 c 1.4,0.3 3.3,-1.5 3.8,1 0.1,0.6 -0.1,1.9 -0.3,1.9 -2,0.1 -2.4,-1.8 -3.5,-2.9 z"
   class="st1" />
		<path
   id="path36328"
   d="m 144.3,311.8 c -0.6,-0.6 -1.3,-1 -1.3,-1.4 -0.1,-1.8 1.6,-2.5 2.7,-3.4 0.6,-0.5 1.4,0.6 1.3,1.1 -0.3,1.6 -2.9,1.5 -2.7,3.7 z"
   class="st1" />
		<path
   id="path36330"
   d="m 51.7,275.6 c -0.6,0.6 -1,1.3 -1.4,1.3 -1.8,0.1 -2.5,-1.6 -3.4,-2.7 -0.5,-0.6 0.6,-1.4 1.1,-1.3 1.5,0.3 1.4,2.9 3.7,2.7 z"
   class="st1" />
		<path
   id="path36332"
   d="m 165.8,214.4 c 2.2,-3.4 4.3,-0.3 6.3,0 -2.1,0 -4.1,0 -6.3,0 z"
   class="st1" />
		<path
   id="path36334"
   d="m 48.8,281.8 c -1,-0.9 -3.4,-0.4 -3,-2.6 0.1,-0.4 1,-1.2 1.1,-1.1 1.2,0.8 1.7,2.1 1.9,3.7 z"
   class="st1" />
		<path
   id="path36336"
   d="m 138.2,309 c 0.5,-1.3 0.4,-3.2 2.3,-3.2 0.4,0 1.2,0.8 1.1,1 -0.3,1.8 -2.1,1.7 -3.4,2.2 z"
   class="st1" />
		<path
   id="path36338"
   d="m 37.8,140.8 c 1.9,1 1.9,2.2 2.5,3.2 -1.2,0.7 -2.4,0.3 -3.6,0.3 -0.1,-1.4 2,-1.6 1.1,-3.5 z"
   class="st1" />
		<path
   id="path36340"
   d="m 231.6,305.2 c -1.1,1.1 -2,2.1 -3.3,3.5 -0.2,-3 0.5,-4.1 3.3,-3.5 z"
   class="st1" />
		<path
   id="path36342"
   d="m 66.8,306 c -1.1,1.1 -2,2.1 -3.3,3.5 -0.2,-2.9 0.5,-4 3.3,-3.5 z"
   class="st1" />
		<path
   id="path36344"
   d="m 75.7,308.4 c -1.1,1.1 -2.3,1.8 -3.7,2 -0.1,-0.4 -0.3,-0.9 -0.1,-1.2 0.9,-2 2.6,-0.2 3.8,-0.8 z"
   class="st1" />
		<path
   id="path36346"
   d="m 240.5,307.8 c -1.2,0.8 -2.2,1.9 -3.7,1.7 -0.1,0 -0.2,-0.9 -0.1,-1.2 1,-1.7 2.5,-0.5 3.8,-0.5 z"
   class="st1" />
		<path
   id="path36348"
   d="m 46.2,144.6 c 1.9,0 3.8,0 5.7,0 0,0.1 0,0.3 0,0.4 -1.9,0 -3.9,0 -5.8,0 0,-0.2 0.1,-0.3 0.1,-0.4 z"
   class="st1" />
		<path
   id="path36350"
   d="m 162.3,210.3 c 1.8,0.4 3.3,0.8 5.7,1.4 -2.6,0.2 -4.3,1.1 -5.7,-1.4 z"
   class="st1" />
		<path
   id="path36352"
   d="m 98.8,108.2 c 2.1,1.6 3.6,-1.5 5.3,0.6 -1.7,2.3 -5,1.4 -7.6,3.8 2.4,-0.2 4,-0.3 5.2,-0.3 -0.4,5.1 -4.2,4.3 -7.5,4.3 0.3,2.4 2.4,1.3 3.8,2 -1.9,1.2 -4.4,-0.6 -5.4,1.6 -1.3,2.7 -3.4,0.9 -5.1,1.3 3.5,-2.5 3.4,-6.1 3,-9.6 -0.4,-3.6 1.3,-5.6 4.5,-6.3 4.1,-0.9 6.2,-5.4 10.7,-5.6 0.9,0 1.9,-0.9 2.5,0.2 0.4,0.7 -0.2,1.5 -0.6,2.3 -1.8,3.5 -4.8,5 -8.8,5.7 z"
   class="st0" />
		<path
   id="path36354"
   d="m 71.3,117.5 c 1.9,2.9 2.6,5.6 -1.3,7.5 -1.2,0.6 -1.4,1.3 -0.7,2.5 0.3,0.5 1.4,1.2 0.1,2.1 -1.3,0.9 -2.8,0.7 -4,0.3 -1.1,-0.4 -1.1,-1.2 0.2,-1.8 0.3,-0.2 -0.9,-0.9 -1.5,-1.4 -1.7,-1.1 -4.1,-0.8 -5.7,-3 5.2,0.8 0.3,-4.8 4.4,-4.9 -2.9,-0.8 -5.5,0.2 -7.7,-1.9 1.8,-1.3 3.5,-2.5 5.8,-4.2 -0.6,1.7 -1,2.6 -1.4,3.9 7.9,0.3 15.4,-1.5 23.4,-2.7 -3,5 -7.7,2.9 -11.6,3.6 z"
   class="st0" />
		<path
   id="path36356"
   d="m 187.9,202.1 c -2.3,-2.7 -4.5,0.1 -6.7,0.1 -0.8,0 -2.1,0.9 -2.7,0.4 -4.6,-3.5 -10.2,-1.7 -15.2,-3.3 -0.8,0.2 -1.2,-0.1 -1,-1 0.4,-1 -0.8,-2.7 0.9,-3.2 1.4,-0.4 2.1,0.6 2.7,2 0.6,1.5 2.3,1.7 3.8,2.3 -0.1,-2.5 -0.2,-4.6 -0.3,-7 3,1.3 3.6,5.4 7.4,5.6 -0.3,-1.5 -2.9,-2 -1.5,-3.3 1.5,-1.6 2.1,0.3 2.9,1.3 0.7,0.8 1.8,1.4 1.9,-0.4 0.1,-1.5 0.9,-1.5 1.9,-1.4 1.5,0.1 7.1,6 7,7.4 0,0.1 -0.7,0.2 -1.1,0.3 -0.1,0 0,0.2 0,0.2 z"
   class="st0" />
		<path
   id="path36358"
   d="m 162.2,198.4 c 0.3,0.3 0.7,0.7 1,1 0.2,1.8 2.3,1.4 2.9,2.6 0.3,0.6 1.7,0.8 0.5,1.9 -0.8,0.7 -1.3,0.6 -2.1,-0.1 -3,-2.4 -6.2,-2.5 -10,-2.1 -2.8,0.3 -3.3,-2.3 -3,-4.8 2,-0.3 1.2,2.2 2.7,2.1 0,-2 3.7,-4.2 5.2,-3 1,0.8 1.5,2 2.8,2.4 z"
   class="st0" />
		<path
   id="path36360"
   d="m 43.8,242.3 c -1.8,0.9 -3.3,2.1 -4.6,3.6 -0.5,0.5 -1,1.1 -1.7,0.5 -0.3,-0.3 -0.5,-1.3 -0.2,-1.5 2.6,-2.2 -0.1,-6.5 3.3,-8.4 0.1,-0.1 0,-0.5 0.1,-0.8 2.8,1.5 5.2,-0.3 7.7,-1 0.5,-0.1 0.5,0.8 -0.4,1.1 -1.7,0.5 -2.7,2.3 -4.6,2.5 -1.5,0.1 -1.6,1.6 -1.7,2.4 -0.4,1.5 1.5,0.3 2.1,1.6 z"
   class="st0" />
		<path
   id="path36362"
   d="m 254.6,229 c -4.7,-3 -7.6,-7.3 -12.8,-8.1 -0.9,-0.1 -0.9,-0.6 -0.1,-1.3 0.2,-0.2 1,0.1 0.6,-0.7 -0.3,-0.6 -0.7,-1.1 -1,-1.7 0.1,0 0.3,-0.1 0.4,-0.1 0.9,0.2 1.8,-0.4 2.8,0.9 1.8,2.1 4,4.7 6.2,5.5 2.8,1.1 3.3,2.6 3.9,5.5 z"
   class="st0" />
		<path
   id="path36364"
   d="m 259.1,275.6 c 0.8,1.5 0.1,2.7 -0.4,4 -0.3,0.7 -0.3,1.8 1.1,1.6 0.8,-0.1 1.7,-1.7 2.1,0.2 0.2,0.8 -0.8,1.3 -1.6,1.6 -3.1,1.4 -2.8,4.7 -4.1,7.2 -0.4,0.7 0.4,2.1 -1.3,2.1 -0.8,0 -1.5,-0.2 -1.8,-0.9 -0.6,-1.2 0.8,-1.6 1.3,-2.2 2.6,-3 1.6,-7 3.1,-10.3 0.7,-1.1 0.9,-2.2 1.6,-3.3 z"
   class="st0" />
		<path
   id="path36366"
   d="m 99,247 c 1.3,-0.7 3.4,0.3 3.7,-1.4 0.3,-1.3 -1.4,-2.3 -2.5,-2.9 -1.3,-0.7 -1.9,-1.5 -1,-2.5 1,-1.1 1.7,0.4 2.2,1 1.9,2.1 5.6,3.8 1.9,7.4 -1.2,1.2 2.7,3.4 -0.5,3.9 -2.7,0.4 -0.5,-3.2 -2.4,-3.9 -0.6,-0.3 -0.9,-1.1 -1.4,-1.6 z"
   class="st0" />
		<path
   id="path36368"
   d="m 245.2,209.3 c 5,2.3 5.4,7.7 8.4,11.4 -5,-2.3 -7.4,-6.3 -8.3,-11.5 z"
   class="st0" />
		<path
   id="path36370"
   d="m 82.6,164.1 c -2.1,4.2 -5.8,6.6 -10.6,8.8 6.3,-8.4 7,-9 10.6,-8.8 z"
   class="st0" />
		<path
   id="path36372"
   d="m 235.9,208.1 c 2.3,-0.1 8.4,5.1 8.3,7.1 0,0.3 -0.3,0.9 -0.5,1 -1.2,0.5 -2,-0.7 -3.1,-0.9 0.9,-4 -3.9,-3.7 -4.7,-6.4 -0.1,-0.2 0,-0.3 0,-0.8 z"
   class="st0" />
		<path
   id="path36374"
   d="m 245.3,209.2 c -4.1,0.2 -6.8,-2.5 -10.7,-5.2 3.6,-0.2 4.7,2.4 7,2.6 0.2,-2.5 -3.2,-2.7 -3,-5 l -0.1,0.1 c 4.1,0.9 4.4,5.2 6.7,7.6 0,0 0.1,-0.1 0.1,-0.1 z"
   class="st0" />
		<path
   id="path36376"
   d="m 267.9,150.5 c -0.1,2.2 -1.2,4.2 -0.9,6.5 0.1,0.7 -0.4,1.7 -1.5,1.3 -0.8,-0.3 -1.1,-0.9 -0.7,-2 1,-2.7 2.8,-5.6 -0.2,-8.3 -0.1,-0.1 0.3,-1 0.6,-1.4 0.8,-1 1.1,0.1 1.6,0.4 1.2,0.9 1.3,2.1 1.1,3.5 z"
   class="st0" />
		<path
   id="path36378"
   d="m 89.5,191.8 c -0.7,-0.1 -1.5,0 -2,-0.3 -0.5,-0.5 0.3,-0.9 0.6,-1.2 3.1,-2.2 6.1,-4.3 9.6,-6.6 -0.6,5.5 -6,5.2 -8.3,8.2 0,0 0.1,-0.1 0.1,-0.1 z"
   class="st0" />
		<path
   id="path36380"
   d="m 254.3,232.6 c -4,-3.6 -9.8,-5 -12,-10.5 4,3.4 8.8,6 12,10.5 z"
   class="st0" />
		<path
   id="path36382"
   d="m 256.1,246.4 c -3,-3.8 -7.4,-4.6 -8.9,-8.6 3.4,-0.2 8,3.7 8.9,8.6 z"
   class="st0" />
		<path
   id="path36384"
   d="m 106.7,173.8 c -2.2,-0.2 -3.9,1.6 -6.8,2.1 3.8,-4.9 9,-4.7 13.7,-7.6 -1.9,3.6 -5.9,2.8 -7,5.7 z"
   class="st0" />
		<path
   id="path36386"
   d="m 106.4,153.9 c -0.5,5.4 -4.4,8.7 -10.2,8.9 4.1,-2.2 7.3,-4.8 10.2,-8.9 z"
   class="st0" />
		<path
   id="path36388"
   d="m 220.9,234.3 c 1.7,3.2 6.1,4.6 6.6,9.5 -4.4,-2.4 -5.4,-6 -6.6,-9.5 z"
   class="st0" />
		<path
   id="path36390"
   d="m 213.2,223.6 c 3,3.3 2.7,6.9 4.4,10.6 -3.5,-2.3 -4.7,-5.5 -4.4,-10.6 z"
   class="st0" />
		<path
   id="path36392"
   d="m 74.1,186.9 c -1.1,2.8 -4,4.2 -5,7 -0.2,0.6 -1.3,0.5 -1.9,0.2 -0.9,-0.6 -0.2,-1.1 0.2,-1.7 1.5,-2.8 3.7,-4.6 6.7,-5.5 z"
   class="st0" />
		<path
   id="path36394"
   d="m 262.7,253.6 c -4.1,-0.8 -6.5,-3.7 -8.7,-6.9 3.1,2.1 7.1,2.9 8.6,7 z"
   class="st0" />
		<path
   id="path36396"
   d="m 106.6,173.9 c 3.7,-0.8 6.8,-3.5 10.9,-3.4 -4.1,1.9 -8.3,3.4 -11.7,6.6 -0.2,-0.3 -0.4,-0.6 -0.6,-0.9 0.5,-0.8 1.1,-1.6 1.6,-2.5 -0.1,0.1 -0.2,0.2 -0.2,0.2 z"
   class="st0" />
		<path
   id="path36398"
   d="m 276.9,176.8 c -1.9,4 -5.4,4.7 -9.5,4.3 3.1,-1.5 6.3,-2.9 9.5,-4.3 z"
   class="st0" />
		<path
   id="path36400"
   d="m 78.2,171.6 c -2,2.9 -5.2,4.2 -8.2,6.9 1,-5.2 5.1,-5.4 8.2,-6.9 z"
   class="st0" />
		<path
   id="path36402"
   d="m 75.2,181.1 c -1.2,3.8 -3.4,5.4 -6.6,6 1.9,-1.9 2.7,-4.9 6.6,-6 z"
   class="st0" />
		<path
   id="path36404"
   d="m 233.8,189.3 c -4.8,-0.5 -8.5,-2.3 -12.5,-2.2 4,0.1 8.1,-1.8 12.5,2.2 z"
   class="st0" />
		<path
   id="path36406"
   d="m 253.5,265.6 c -3.5,-1.6 -2.2,-5.1 -3.6,-8.1 3.8,2.1 2.7,5.4 3.6,8.1 z"
   class="st0" />
		<path
   id="path36408"
   d="m 208.4,216.5 c 1.4,2.7 3.2,5.3 2.7,9.9 -1.8,-3.9 -3.4,-6.5 -2.7,-9.9 z"
   class="st0" />
		<path
   id="path36410"
   d="m 95.3,235 c 4.2,-0.9 5.9,3.4 9.2,4.4 -3.5,-0.6 -6.4,-2.3 -9,-4.5 -0.1,0 -0.2,0.1 -0.2,0.1 z"
   class="st0" />
		<path
   id="path36412"
   d="m 254.2,266.1 c 1,-2.9 1.2,-5.5 -0.1,-8.4 3.8,2.8 3.8,5.4 0.1,8.4 z"
   class="st0" />
		<path
   id="path36414"
   d="m 268,177.8 c 4,-0.9 5.6,-4.1 9.5,-4.8 -2.7,2.8 -4.4,5.7 -9.5,4.8 z"
   class="st0" />
		<path
   id="path36416"
   d="m 270.5,157.6 c -0.4,1.2 -1.1,2 -1,3.2 0.1,1.3 -0.7,2 -2,2.1 -0.4,0 -1,-0.1 -1.1,-0.3 -0.6,-1.2 0.5,-1.7 1.2,-2.3 0.9,-0.8 1.3,-1.7 1.1,-2.9 -0.1,-0.8 0.4,-1.4 1.2,-1.1 0.4,0.1 0.5,0.9 0.6,1.3 z"
   class="st0" />
		<path
   id="path36418"
   d="m 273.9,167.3 c -0.7,1.4 -2.7,1.7 -3.3,3.4 -0.2,0.6 -1.3,1.2 -1.6,0.4 -1.3,-2.6 1.6,-3.7 2.6,-5.1 1.4,-2 0,1.4 1.2,1.2 0.4,-0.1 0.8,0.2 1.2,0.2 z"
   class="st0" />
		<path
   id="path36420"
   d="m 93.1,142.2 c -3.4,2.9 -4.9,0.2 -7.4,-2.2 2.9,0.9 4.9,1.5 7.4,2.2 z"
   class="st0" />
		<path
   id="path36422"
   d="m 261.5,277.9 c -0.3,-2.5 -0.6,-5 -0.9,-7.5 1.5,2.3 3,4.7 0.9,7.5 z"
   class="st0" />
		<path
   id="path36424"
   d="m 50.3,235.3 c 1.1,-3.1 2.8,-4.5 4.5,-6.3 0.4,3.2 -1.1,4.8 -4.5,6.3 z"
   class="st0" />
		<path
   id="path36426"
   d="m 249,262.5 c -1.4,-0.4 -1.9,-2 -2,-2.8 -0.2,-1.4 -3.2,-2.1 -1.2,-3.5 0.8,-0.5 1.8,1.9 2.6,3 0.6,0.9 1.6,2 0.6,3.3 z"
   class="st0" />
		<path
   id="path36428"
   d="m 258.7,257.7 c 0.8,2.3 2.1,4.7 0.4,7.1 -1.2,-1 0.1,-2.5 -0.8,-3.5 -0.9,-1.3 -0.7,-2.5 0.4,-3.6 z"
   class="st0" />
		<path
   id="path36430"
   d="m 97.9,167.1 c 1.9,-1.1 3.7,-2.2 6.4,-3.8 -1.2,3.9 -4,3.5 -5.7,4.9 -0.3,-0.4 -0.5,-0.7 -0.7,-1.1 z"
   class="st0" />
		<path
   id="path36432"
   d="m 230,129.1 c 2.2,2.1 4.4,4.2 6.6,6.3 -2.9,-1.4 -6.1,-2.6 -6.5,-6.4 0,0 -0.1,0.1 -0.1,0.1 z"
   class="st0" />
		<path
   id="path36434"
   d="m 76.3,204.1 c -1.4,-2.9 0.4,-4.3 2.9,-5.9 0.5,2.9 -3.3,3.4 -2.9,5.9 z"
   class="st0" />
		<path
   id="path36436"
   d="m 75.4,175.9 c -0.4,4.3 -2.5,5 -5.6,5.8 2,-2.1 3.5,-3.6 5.6,-5.8 z"
   class="st0" />
		<path
   id="path36438"
   d="m 237.2,193.1 c -2.9,-0.5 -5.6,-1.7 -8.5,-1.7 3.1,-0.9 6,-0.6 8.5,1.7 z"
   class="st0" />
		<path
   id="path36440"
   d="m 81.7,136.2 c 3,-0.6 4.8,-0.2 6.9,1.8 -2.9,0.4 -4.6,-0.8 -6.9,-1.8 z"
   class="st0" />
		<path
   id="path36442"
   d="m 206.2,178.9 c -1.7,0 -3.2,0 -5.5,0 2.3,-1.8 3.8,-2.5 5.5,0 z"
   class="st0" />
		<path
   id="path36444"
   d="m 114.2,174 c 1.8,-0.7 3.3,-2.3 5.5,-1.5 -1.4,2.1 -3.7,1 -5.5,1.5 z"
   class="st0" />
		<path
   id="path36446"
   d="m 100.1,171.4 c -0.5,-0.1 -1.2,0 -1.1,-0.8 0.1,-1.1 0.8,-1.7 1.9,-1.7 0.7,-0.1 1.5,0 1.3,1 -0.2,0.9 -1,1.6 -2.1,1.5 z"
   class="st0" />
		<path
   id="path36448"
   d="m 195.7,175.3 c 1.6,-0.3 3,-1.9 5,-1.1 -1.3,1.8 -3.1,1.6 -5,1.1 z"
   class="st0" />
		<path
   id="path36450"
   d="m 64.5,173.3 c -0.7,-2.8 2.2,-2.9 3.6,-4.2 -1.3,1.4 -2.5,2.7 -3.8,4.1 0,0 0.2,0.1 0.2,0.1 z"
   class="st0" />
		<path
   id="path36452"
   d="m 213.6,179.2 c -1.6,1.7 -3.4,1.6 -6.1,1.2 2.5,-0.6 4,-1.9 6.1,-1.2 z"
   class="st0" />
		<path
   id="path36454"
   d="m 271.4,173.2 c 1.3,-0.7 2,-2.2 3.7,-2.9 -0.3,2.6 -2.2,2.5 -3.7,2.9 z"
   class="st0" />
		<path
   id="path36456"
   d="m 275.9,169.7 c -0.8,-1.9 0.3,-2.8 0.9,-3.9 0.2,0.2 0.6,0.3 0.7,0.5 0.5,1.4 -0.4,2.4 -1.6,3.4 z"
   class="st0" />
		<path
   id="path36458"
   d="m 262.5,253.7 c 1.7,-0.8 2.9,0.1 4.6,1.1 -2.2,0.6 -3.3,-0.5 -4.5,-1.2 0.1,0 -0.1,0.1 -0.1,0.1 z"
   class="st0" />
		<path
   id="path36460"
   d="m 274.1,167.4 c -0.1,-1.1 -0.2,-2.1 -0.3,-3.5 2.8,1.3 1.6,2.3 0.2,3.4 -0.1,0 0.1,0.1 0.1,0.1 z"
   class="st0" />
		<path
   id="path36462"
   d="m 143.6,201 c 0,0.6 -0.4,0.9 -1,0.8 -0.5,-0.1 -1.3,-0.2 -1.4,-0.5 -0.3,-0.9 0.4,-1.1 1.2,-1.1 0.6,0 1.1,0 1.2,0.8 z"
   class="st0" />
		<path
   id="path36464"
   d="m 86,132.7 c 1,0 2.1,0 3.8,0 -1.8,1 -3,0.6 -3.8,0 z"
   class="st0" />
		<path
   id="path36466"
   d="m 102.3,255.8 c -0.2,1.1 -0.9,0.9 -1.5,0.9 -0.3,0 -0.9,0.1 -0.6,-0.6 0.3,-0.6 0.7,-1.2 1.5,-1 0.2,0.1 0.4,0.5 0.6,0.7 z"
   class="st0" />
		<path
   id="path36468"
   d="m 262,147.4 c -0.2,0.2 0.3,1.2 -0.6,0.8 -0.4,-0.2 -0.8,-0.7 -1,-1.2 -0.2,-0.6 0.2,-1 0.9,-0.9 0.7,0.1 0.7,0.7 0.7,1.3 z"
   class="st0" />
		<path
   id="path36470"
   d="m 257.8,139.3 c -0.2,0.8 -0.7,1 -1.2,0.7 -0.4,-0.2 -0.7,-0.7 -1.1,-1.1 0.4,-0.1 0.9,-0.4 1.3,-0.4 0.7,-0.1 0.9,0.3 1,0.8 z"
   class="st0" />
		<path
   id="path36472"
   d="m 238.6,201.6 c -0.9,0.2 -1.9,0.7 -2.6,-0.3 -0.1,-0.2 0.1,-1 0.3,-1 1.2,-0.4 1.6,0.7 2.2,1.4 0,0 0.1,-0.1 0.1,-0.1 z"
   class="st0" />
		<path
   id="path36474"
   d="m 181.9,247.6 c -2.4,-1.1 -4.8,-2.1 -7.1,-3.4 -0.5,-0.3 -1.7,-0.7 -1.1,-1.8 0.6,-1 1.3,-0.8 2.4,-0.4 2.7,1.1 4.1,3.6 5.8,5.6 z"
   class="st0" />
		<path
   id="path36476"
   d="m 179.9,254.6 c 1.3,2 2.4,3.6 3.3,5.3 0.3,0.6 0.6,1.7 -0.7,2 -0.8,0.2 -1.7,0.1 -1.7,-1.1 0.1,-2.1 -2.6,-3.4 -0.9,-6.2 z"
   class="st0" />
		<path
   id="path36478"
   d="m 183.6,253 c -3.2,1.2 -3.7,-2.2 -5.8,-2.4 -0.1,0 -0.2,-1 -0.1,-1 0.5,-0.2 1.2,-0.6 1.5,-0.3 1.4,1 2.7,2.2 4.4,3.7 z"
   class="st0" />
		<path
   id="path36480"
   d="m 177.9,266.2 c 1.6,0.6 3.1,1.3 2.9,3.3 0,0.3 -0.6,0.7 -0.8,0.7 -1.5,-0.7 -1.4,-2.6 -2.1,-4 z"
   class="st0" />
		<path
   id="path36482"
   d="m 82.1,97.5 c 1.2,-0.6 2.2,-1.7 4.1,-1.1 -1.5,0.8 -2.4,2.1 -4.1,1.1 z"
   class="st0" />
		<path
   id="path36484"
   d="m 98.8,115 c -0.3,0.9 -1.1,0.7 -1.7,0.6 -0.7,-0.1 -1,-0.7 -0.7,-1.1 0.2,-0.3 0.9,-0.4 1.4,-0.5 0.8,-0.1 1,0.3 1,1 z"
   class="st1" />
		<path
   id="path36486"
   d="m 93.8,110.7 c 0.8,-1.2 0.3,-2.5 2.5,-2.8 -0.7,1.1 -0.3,2.4 -2.5,2.8 z"
   class="st1" />
		<path
   id="path36488"
   d="m 69,118.7 c -2.7,-0.2 -3.1,1.7 -3.4,3.6 -1.4,-0.8 -1.8,-1.8 -1.2,-2.9 1.1,-1.9 2.9,-1.2 4.6,-0.7 z"
   class="st1" />
	</g>
</g>
</svg>
