<?xml version="1.0" encoding="UTF-8" standalone="no"?>
<svg
   xmlns:dc="http://purl.org/dc/elements/1.1/"
   xmlns:cc="http://creativecommons.org/ns#"
   xmlns:rdf="http://www.w3.org/1999/02/22-rdf-syntax-ns#"
   xmlns:svg="http://www.w3.org/2000/svg"
   xmlns="http://www.w3.org/2000/svg"
   xmlns:sodipodi="http://sodipodi.sourceforge.net/DTD/sodipodi-0.dtd"
   xmlns:inkscape="http://www.inkscape.org/namespaces/inkscape"
   inkscape:version="1.0 (4035a4f, 2020-05-01)"
   height="329.54501"
   width="240.11272"
   sodipodi:docname="bear-rampant.svg"
   xml:space="preserve"
   viewBox="0 0 240.11272 329.54501"
   y="0px"
   x="0px"
   id="Layer_1"
   version="1.1"><metadata
   id="metadata3999"><rdf:RDF><cc:Work
       rdf:about=""><dc:format>image/svg+xml</dc:format><dc:type
         rdf:resource="http://purl.org/dc/dcmitype/StillImage" /><dc:title></dc:title></cc:Work></rdf:RDF></metadata><defs
   id="defs3997" /><sodipodi:namedview
   inkscape:current-layer="Layer_1"
   inkscape:window-maximized="0"
   inkscape:window-y="25"
   inkscape:window-x="0"
   inkscape:cy="170.88076"
   inkscape:cx="123.38073"
   inkscape:zoom="2.52"
   fit-margin-bottom="0"
   fit-margin-right="0"
   fit-margin-left="0"
   fit-margin-top="0"
   showgrid="false"
   id="namedview3995"
   inkscape:window-height="480"
   inkscape:window-width="1411"
   inkscape:pageshadow="2"
   inkscape:pageopacity="0"
   guidetolerance="10"
   gridtolerance="10"
   objecttolerance="10"
   borderopacity="1"
   bordercolor="#666666"
   pagecolor="#ffffff" />
<style
   id="style3782"
   type="text/css">
	.st0{fill:#FFFFFF;}
  .st1{fill:#000000;}
</style>
<g
   transform="translate(-26.619274,-29.119241)"
   id="g3992">
	<g
   id="g3990">
		<path
   id="path3784"
   d="m 53.2,170.3 c -3.9,1.3 -5.6,3.6 -6.8,6.5 -0.7,1.8 -1.8,3.7 -3.9,2.9 -2,-0.7 -2.5,-2.7 -2.3,-4.9 0.1,-1.9 1.4,-3.3 2.1,-4.9 0.5,-1.2 0.8,-2.1 -0.2,-3 -1.2,-1.1 -2.1,-0.4 -3.3,0.3 -2.4,1.4 -3,4.1 -4.9,5.8 -0.8,0.7 -1.3,2.6 -3,1.3 -1.2,-1 -2.1,-1.8 -1.3,-3.9 1.3,-3.4 2.3,-6.7 5.1,-9.2 0.5,-0.4 0.6,-0.9 -0.3,-2.2 -1.5,1.8 -2.9,3.5 -4.3,5.1 -0.6,0.7 -1.3,1.5 -2.5,1.2 -1.5,-0.4 -0.8,-1.6 -0.9,-2.4 -0.4,-3.1 0.7,-5.6 3,-7.8 5.4,-5.3 11.9,-7.7 19.2,-8.4 4.7,-0.5 9.3,-1.3 13.4,-3.5 7.1,-3.8 14.9,-4.4 22.5,-5.8 8.6,-1.6 17.3,-3 25.9,-4.7 1.2,-0.3 2.5,-0.1 3.7,-0.5 -1.3,-3.9 -4.6,-7 -8.2,-7.5 -1.2,-0.1 -1.6,-1.1 -2.5,-1.4 -1,-0.3 -1.8,-1.9 -3.3,-0.7 -1.3,1.1 -2,2.4 -1.5,4 0.2,0.8 1.8,1.6 -0.1,2.2 -1.3,0.4 -1.4,-0.7 -2,-1.5 -2.7,-3.2 -3,-6.4 -0.4,-9.7 1.8,-2.3 1,-3.8 -0.9,-5.4 C 89.4,107.4 82.9,102.9 79,95.8 78.2,94.3 75.9,93.8 75,92.3 71.9,87.7 68,83.9 64.1,80 60.9,76.8 56.4,76.9 52.3,76.1 50,75.7 47.5,76 45.1,76 43.7,76 42,76.4 41.5,74.7 41,73 42.9,72.4 43.8,71.5 c 1.7,-1.9 4.8,-0.9 6.8,-3.1 -5,0.3 -9.3,-2.4 -14.1,-1.9 -0.8,0.1 -2.4,-0.8 -2.6,-1.5 -0.4,-1.3 1.2,-1.6 2.2,-2 3.9,-1.7 8.3,-1.8 11.9,-4.4 -2.4,-2.9 -4.9,-5 -9.2,-3.1 -1.2,0.6 -3.6,1 -4.6,-0.8 -1.2,-2 1.2,-2.5 2,-3.6 3.5,-4.8 8.7,-2.6 13.3,-3.2 C 49.2,45 47,44 44.8,42.8 43.3,42 41,40.9 41.8,38.9 c 0.8,-2.1 3.3,-1.4 4.9,-1 4.8,1.2 9,4.4 14.3,4.6 0.9,0 2.2,0.6 2.5,1.9 1,4.5 4.5,6.8 7.9,9.3 5.6,4.2 10.7,9.4 16.7,12.9 6.5,3.8 12.9,7.7 18.9,12.1 5.9,4.3 11.9,8.5 17.7,12.8 4.1,3 9.6,2.9 13.6,6.3 0.9,0.7 2.2,-0.3 2.5,-1.5 2.7,-9.1 10.9,-12.3 18.1,-16.1 5.5,-2.9 11.6,-4.7 17.4,-6.9 2.1,-0.8 3.5,-2 3.5,-4.4 0,-2.9 -2.2,-2.4 -3.9,-2.4 -1.2,0 -1.6,-1 -2.3,-1.6 -0.9,-0.9 -1.8,-2.2 -3,-2.1 -4.5,0.5 -8.4,-3.6 -13.1,-1.5 -0.9,0.4 -2.3,0.2 -3.4,0 -2.4,-0.4 -3.1,-1.7 -1.4,-3.7 1.5,-1.7 3.1,-3.1 5.3,-3.9 1.7,-0.6 2,-1.8 0.5,-3.1 -1.6,-1.5 -3.1,-3.1 -4.1,-5.2 -2,-4.3 -0.1,-7.5 4.8,-7.7 4.2,-0.1 8.5,-0.1 12.7,0 14.5,0.4 28.8,-2.8 43.3,-1.7 1.6,0.1 2.7,-0.5 3.8,-1.9 4.5,-5.7 15.5,-6.7 20.9,-2 2,1.7 1.3,3.4 -0.4,5 -2,1.8 -1.8,3.3 0.9,3.8 5.2,0.9 9.2,5.4 15,4.7 1,-0.1 2.7,1.5 3.2,2.6 0.7,1.7 -1.6,1.8 -2.4,2.8 -2.3,3 -6,4.5 -7.9,8.3 -1,1.9 -3.8,5 -7.4,4.8 -2.2,-0.1 -3.1,0.2 -2,2.8 3.1,7.9 -1.1,14.6 -4.1,21.4 -1.9,4.2 -4.5,8.1 -6.9,12.1 -1.1,1.8 -3.4,3.2 -1.4,5.8 0.2,0.2 0,1 -0.3,1.1 -5.9,4 -2.8,10 -1.6,14.1 2.5,9 4,17.9 4.7,27.1 0.6,7.9 3,15.6 4.5,23.4 2.3,12.5 9.5,22.5 15.9,32.9 4.3,6.9 6.6,14.6 8.4,22.5 2.1,9.2 4.8,18.3 5.7,27.7 0.6,6.4 -0.7,12.7 -2.6,18.8 -1.3,4.1 -1,7.2 3.1,9.4 1.9,1 3.3,7.5 1.8,8.8 -2.1,1.9 -4.6,3.2 -7.4,1.2 -6.4,-4.2 -13.4,-7.9 -15.7,-16.1 -0.8,-2.7 0,-5.5 -1.3,-8.3 -1.1,3.7 -2.5,7.3 -3.2,11.1 -0.9,4.4 -1,4.6 -4.7,2.2 -0.8,2.2 -0.7,4 1.2,5.5 1.1,0.9 2.4,1.9 1.7,3.5 -0.6,1.4 -2,1.4 -3.3,1.3 -2.2,-0.2 -3.2,0.2 -2,2.8 0.7,1.6 0.3,3.6 0.4,5.4 0.3,13.9 0.6,13.1 9.3,19.8 -0.6,1.4 -2.1,0.3 -2.9,0.9 -0.9,0.6 -1.9,1.3 -2.3,3.1 2.9,0 5.7,0 8.4,0 0.2,0.3 0.4,0.6 0.6,1 -4.4,1.6 -1.9,6.7 -5.4,8.8 -0.8,0.5 -1.3,1.8 -2.4,1.4 -5.3,-1.7 -9.3,1.8 -13.7,3.5 -7.8,3 -15.7,5.4 -23.7,7.6 -3.5,0.9 -5.5,4 -8.3,6 -1.5,1 -2.6,2.5 -3.9,3.9 -0.8,0.9 -1.8,1.6 -2.9,1 -1.1,-0.5 -1.2,-1.7 -1.3,-2.9 -0.1,-1.2 1,-3 -0.8,-3.7 -1.5,-0.6 -2.1,1.1 -3.1,1.7 -2.1,1.2 -3.8,2.8 -5.3,4.6 -1.1,1.2 -2.7,1.8 -3.7,1 -1.2,-0.9 -0.5,-2.4 0.2,-3.7 1.5,-2.9 2.7,-6 4,-8.9 0.4,-0.8 0.6,-1.8 -0.1,-2.3 -0.6,-0.4 -1.6,-0.2 -2.3,0.4 -1.2,1.1 -2.6,2 -3.9,3.1 -1.1,0.9 -2.1,2.2 -3.5,0.9 -1.5,-1.4 -1.2,-3 0.2,-4.4 0.7,-0.7 1.5,-1.2 1.6,-2.4 0,-0.4 0.8,-0.6 0,-1.2 -2.8,-2.1 -2.4,-4.9 1.3,-7 5.5,-3.1 11.3,-5.1 17.5,-1.8 1.4,0.7 2,-0.8 2.7,-1.5 3.3,-3.3 6.5,-6.9 11.2,-8.4 1.7,-0.6 0.6,-1 0.2,-1.5 -2.1,-2.3 -2.6,-5 -2.4,-8 0.2,-3.3 -2.5,-5.2 -4.4,-7.1 -4.5,-4.5 -7.8,-9.4 -8.4,-16 -0.2,-2.6 -3,-4 -3.6,-6.8 -0.5,-2.4 -1,-4.8 -0.2,-6.9 1.1,-2.9 0,-5.5 -1.3,-7.3 -1.3,-1.8 -3.6,0 -5.5,0.7 -2.7,0.9 -6.2,1.3 -8.6,-0.2 -3.4,-2.1 -4.2,0 -5.6,2 -0.8,1.2 -0.7,3.6 -2.4,3.4 -1.8,-0.2 -3,-2.4 -3.1,-4.1 -0.2,-2.9 -1.1,-3.2 -3.3,-1.8 -0.4,0.3 -1.2,0.3 -1.7,0.1 -5.4,-2.5 -9.7,1.2 -14.5,2.5 -1.3,0.4 -2.1,1.3 -2.8,2.4 -4.6,7.4 -11.4,7.9 -17.6,1.9 -4.3,-4.2 -9.1,-7.9 -13.6,-11.8 -0.5,-0.4 -1.3,-0.6 -1.7,-1.1 -6.4,-7.7 -15.8,-8.1 -24.7,-10.7 1.8,-4.6 6.1,-5 10.7,-5.4 -2.3,-3.5 -5.1,-5.5 -9.4,-5 -1.9,0.2 -4.4,0.4 -4.8,-1.9 -0.4,-2.5 2.4,-2.4 4.1,-3.2 3.7,-1.7 7.7,-0.2 11.5,-1 -2.3,-5.8 -8.5,-9.4 -13.9,-7.9 -1,0.3 -2,0.9 -2.6,-0.1 -0.6,-1.1 0.3,-2.1 1.1,-2.9 3.9,-3.6 10.2,-4.4 14.8,-1.7 0.4,0.3 0.9,0.4 1.6,0.6 0,-0.5 0.1,-0.9 -0.1,-1.2 -0.6,-1.4 -3.8,-1.2 -2.9,-2.9 0.9,-1.8 4,-1.2 5.3,-0.6 4.9,2.5 10.2,4.8 13.3,9.8 1.2,1.9 2,3.9 3.1,5.8 1.3,2 2.9,3.7 5.5,2 3.1,-2 5.9,0.1 8.8,0.5 1.2,0.2 2.1,1.3 2.8,-0.8 2.5,-7.9 8.8,-12.1 16,-14.7 8.8,-3.3 17.6,-6.7 27,-7.8 1.8,-0.2 3.6,-0.8 2.1,-3.9 -1.3,-2.8 -2.4,-5.4 -4.6,-7.7 -5.3,-5.5 -10.5,-11.2 -16.3,-17.4 -1.6,2 -2.6,3.3 -3.7,4.6 -0.7,0.9 -1.7,1 -2.6,0.4 -1.1,-0.7 -1.5,-1.9 -0.7,-2.9 5,-6.3 0.7,-10.8 -2.6,-15.7 -1.1,-1.6 -2.5,-2.9 -3.4,-4.7 -1.5,-2.6 -4,-0.1 -5.7,0.7 -2.2,1.1 -4,2.2 -6.6,1.2 -1.4,-0.5 -2.2,0.6 -2.4,3.1 -0.1,1.5 0.5,3.4 -1.4,4 -2,0.7 -2.9,-1.4 -4.1,-2.4 -0.6,-0.5 -1.1,-1.3 -1.4,-2 -0.8,-2.5 -1.7,-3.6 -4.8,-2.4 -2.7,1 -5.4,-1.4 -8.3,-1.8 -3.7,-0.6 -5.3,0.5 -4.4,4 0.3,1.2 0.8,2 -0.4,2.8 -1.4,0.9 -2.8,0.1 -3.2,-1.1 -2.2,-6 -7.3,-4.4 -11.7,-4.6 -2.8,-0.1 -5.5,-0.7 -8.3,-0.9 -6,-0.6 -8.4,0.2 -10.4,6 -1.1,3 -3.3,5.4 -4.3,8.3 -0.4,1.2 -1,2 -2.3,1.9 -1.3,-0.1 -1.5,-1.2 -2.1,-2.2 -2.1,-2.9 -0.2,-5.8 0.8,-9.4 z"
   class="st1" />
		<path
   id="path3786"
   d="m 144.3,254.2 c -4.7,1.3 -7.5,5.1 -11.5,9.1 0.2,-6.4 4.2,-8.7 7.6,-11.1 1.7,-1.2 3.8,-1.9 5.9,-2.8 5.7,-2.4 10.1,-6.8 15.1,-10.4 2.8,0.2 5.2,-1.5 8,-1.7 -2.7,0.3 -5.2,1.6 -7.9,1.8 -3.3,0.1 -6.4,1.8 -8.4,3.7 -3.9,3.7 -8.8,5.5 -13.1,8.3 -3.1,2 -6.2,3.9 -8.4,6.9 -0.8,1.1 -1.8,2.4 -1.3,3.8 1.7,5 -1.8,8.5 -3.5,12.4 -1.2,2.7 -7.4,2.8 -9,0.4 -0.7,-1.2 0.5,-1.2 1,-1.6 0.7,-0.6 2.2,-1.1 1.5,-2.3 -0.8,-1.6 -1.8,-0.4 -2.8,0 -4,1.8 -6.6,-0.6 -9.8,-3.1 1.5,-0.2 2.5,-0.3 3.4,-0.4 -6,-1.8 -10.1,-5.9 -14,-10.6 2.3,-1 3.5,1.2 5.9,1.5 -0.6,-3.4 -3.6,-3.2 -5.3,-3.3 -2.5,-0.1 -4.9,-0.9 -7.4,-1.2 -1.5,-0.1 -4,-0.7 -3.5,-3.2 0.4,-2.1 1.5,-3.7 4.3,-3.5 2.2,0.2 4.4,0.6 6.4,1.4 2,0.7 3.4,0.2 5.1,-1 -5.1,-1 -10,-2.1 -14.9,-2.7 -2.6,-0.3 -3,-2.1 -3.5,-3.9 -0.4,-1.4 0.3,-3.1 1.4,-3.6 1.7,-0.7 3.3,0 4.9,1.3 3.4,2.7 7.6,3.9 13.1,4.7 -5.2,-3.3 -10.1,-4.7 -14.2,-7.7 -2.2,-1.6 -2.4,-3.9 -3.3,-5.8 -0.6,-1.4 1.3,-2.3 2.4,-3.1 1.1,-0.9 1.6,0.6 2.1,1.2 5,6.4 11.6,10.1 19.4,12 1.8,0.4 3.5,0.5 6.2,0.5 -2.3,-0.8 -3.8,-1.3 -5.5,-2 1,-0.4 1.7,-0.8 2.5,-1 2.2,-0.4 4.6,0 6.1,1.5 1.3,1.4 -0.6,2.8 -1.4,4.1 -1.5,2.4 0.1,10.9 2.3,12.4 0.7,0.5 1.9,0.9 2.2,-0.7 0.9,-5.5 0.9,-5.6 4.2,-8.5 -2.4,-0.4 -2.4,-0.4 -5.3,2.5 -0.5,0.5 -1,1.3 -1.7,0.9 -0.9,-0.5 -0.6,-1.4 -0.3,-2.2 2.2,-5.7 4.4,-11.3 11.1,-13.2 1.2,-0.3 2.1,-1.5 3.2,-2.4 -2.2,-2.2 -3.2,0.8 -4.8,1 1.6,-4.7 2.4,-5.4 13.4,-10.1 5.8,-2.5 12,-0.2 18.3,-1.4 -1.7,-0.9 -3.1,-1.7 -4.6,-2.5 3.6,-3.2 6.9,1.5 10.6,0.4 1.3,-0.4 1,2 1.5,3 0.7,1.5 1.3,0.4 1.8,0.3 1.5,-0.3 0.2,-0.9 0,-1.3 -0.2,-0.5 -0.5,-1 -0.8,-1.4 -1.8,-2.1 0,-3.2 1.4,-3.8 1.9,-0.8 2.6,0.1 1.5,2 2.3,1.3 3.8,5 6.6,4 2.3,-0.8 3.8,-3.6 3.1,-6.7 -0.2,0.1 -0.5,0.2 -0.6,0.4 -0.9,1.5 -1.3,4.2 -2.7,4.1 -2,-0.2 -2.5,-2.9 -3.4,-4.7 -1.8,-3.8 -0.1,-8 -1.6,-11.9 -0.4,1.1 -2.2,1.9 -0.4,3.6 0.6,0.6 0.7,1.8 -0.2,2.2 -0.9,0.4 -1.6,0.2 -2.2,-1.1 -2,-4.7 -6.1,-8.5 -2.9,-14.8 1.1,-2.2 -0.1,-6.7 -0.7,-11.3 -2.6,5.5 0.3,11.5 -5.4,15.3 1.4,-7.1 1.2,-14 2.6,-21.9 -2.3,2.4 -2.9,4.3 -2.9,6.4 0,2.9 -1.1,3.7 -3.9,2.1 1.2,1.4 -0.7,3.8 2.1,4.6 0.9,0.2 1.1,1.3 0.9,2.2 -0.3,1.2 -1.3,0.8 -2.1,0.8 -0.9,0 -2.1,0.5 -2.1,-1.2 -0.1,-2.6 -1.8,-4.7 -1.3,-7.8 0.3,-2 -1.1,-5 -0.3,-7.6 0.3,-1 0.7,-2.5 1.4,-2.7 1.3,-0.4 1.5,1.1 2.2,2 0.5,0.7 0.2,2.3 1.7,2 1.2,-0.3 1.7,-1.4 1.4,-2.7 -0.4,-2.1 0.7,-4 0.9,-6.1 -1.8,-0.1 -1.4,1.2 -1.8,2.1 -0.4,0.9 -0.3,2.5 -1.8,2.4 -1,-0.1 -1.3,-1.2 -1.7,-2.1 -0.9,-1.9 -1.4,-3.8 0.1,-5.3 1.9,-1.8 4.3,-0.3 6,0.5 2.1,1.1 3.4,3.4 6,4.3 1.8,0.7 1.7,3.5 1.7,5.7 0,1.2 -1,3.5 0.8,3.6 2.4,0.1 0.8,-2.1 1,-3.3 0.6,-3.2 1.8,-6.3 1.4,-9.6 -1.4,-0.1 -1.4,1.1 -2,2 -0.8,-1.3 -1.5,-2.5 -2.2,-3.7 -1.6,-0.2 -1.4,1.4 -2.2,2.1 -2.9,-2.6 -2,-6.9 -4.6,-10.3 0,3 0,5.4 0,8.1 -3,-1.3 -4.5,-3 -4.2,-6.1 0.2,-2.2 0.1,-4.5 0,-6.8 0,-0.8 0.7,-2.3 -0.8,-2.4 -1.3,-0.1 -1.9,1.1 -1.7,2.4 0.3,1.7 -0.9,2.9 -1,4.4 0,0.7 -0.6,1.8 -1.6,1 -0.5,-0.4 -2.2,-0.9 -0.9,-2.1 1.5,-1.4 1,-3.1 0.8,-4.9 -4.4,1.2 -5.8,4.8 -7.4,8.3 -0.3,0.7 0.6,1.2 1.1,1.6 0.4,-0.5 1.2,-0.9 1.3,-1.4 0.1,-1.1 0.4,-2 1.3,-2.4 0.2,-0.1 0.9,0.6 1.1,1 0.5,1.2 -0.4,2.3 -1.1,2.9 -1.8,1.7 -3.4,3.4 -4.7,5.5 -2.3,3.6 -2.4,3.6 -1.8,6.8 -2.3,-2.6 -2.3,-2.6 -1.6,-5.8 0.3,-1.2 -0.3,-2.3 2,-1.8 1,0.2 1.8,-2.6 1.1,-4.5 -2.2,0.3 -3,2.3 -4.4,3.6 -1.4,1.2 -2.5,2.7 -3.8,4.2 -2.7,-4 0,-6.8 1.7,-10.1 -5.2,3.1 -8.9,8.9 -15.9,9.1 1.3,-2.6 4.8,-2.1 5.7,-5.2 -3,0.5 -5.4,2.5 -8.1,3.4 -3.8,1.3 -1.7,5.5 -3.8,7.5 -3.3,-3 -3,-5.7 0.5,-8.3 1.9,-1.4 2.1,-3.2 0.1,-5.2 -1.4,4.9 -4.9,6.9 -9.7,7.7 0.1,-0.7 0,-1.1 0.1,-1.3 0.8,-1.3 3,-2.6 1.6,-3.9 -2.1,-2 -2.8,1.1 -4.1,2 -1.6,1.2 -2.9,2.5 -5.4,2.1 1.4,-1.9 3,-3.4 4.9,-4.6 -7.2,0.3 -11.5,4.1 -12.1,10.9 -0.7,-6.8 -5,-6.4 -9.5,-5.1 -0.3,-1.1 -0.1,-1.6 0.3,-2 0.5,-0.6 1.6,-1.2 0.8,-2 -0.8,-0.8 -1.7,-0.3 -2.6,0.4 -1.4,1 -2.6,2.5 -4.5,2.7 -0.9,0.1 -2.9,0.4 -0.5,-1.2 0.2,-0.1 -0.7,-1.3 -1.6,-1.2 -0.8,0.1 -1.6,0.4 -2.3,0.8 -1.3,0.6 -2.8,1.5 -3.9,0.5 -1.5,-1.4 0.8,-2.4 1.2,-4.2 -4.8,2.2 -7.9,5.3 -10.3,9.3 -0.4,0.6 -0.3,2.9 -2.1,1.6 -1.1,-0.8 -2.3,-1.5 -1.2,-3.7 1.3,-2.8 3.4,-5 6.2,-8.1 -4.8,1.2 -6.4,4 -7.7,7.1 -1.1,2.4 -2.6,3.7 -5.6,2.7 -1.3,-0.5 -3.4,-0.7 -3.5,-1.6 -0.1,-1.4 1.4,-2.6 2.5,-3.8 2,-2 5.5,-2.1 7,-6.2 -4.1,2.6 -7.4,4.7 -10.7,6.9 -1,0.7 -1.7,1.8 -2.7,0.3 -1,-1.4 -3.4,-2.1 -3,-4.3 0.3,-1.4 1.9,-1.7 3.3,-1.8 3.4,-0.1 5.2,-2.7 7.6,-4.4 -3.2,0.9 -5.9,3.4 -9.5,2.6 -0.8,-0.2 -1.9,2 -2.5,-0.3 -0.4,-1.5 -0.2,-2.4 0.9,-3.5 3.3,-3.1 7.6,-3 11.6,-3.7 5.3,-0.8 10.5,-1.8 15.3,-4.3 6.8,-3.6 14.5,-3.8 21.9,-5.1 5.4,-0.9 10.9,-1.5 16.2,-2.8 5.1,-1.2 10.5,-1.3 15.3,-3.8 1,1.8 -2,2.1 -0.9,4.2 3.6,-5.2 9,-6.2 14.6,-7 1.1,-0.2 2.2,-1 3.3,-1.6 0.7,-0.4 1.3,-1.5 2,-0.3 0.4,0.6 -0.1,1.3 -0.6,2.1 -2.8,4.6 -6.7,7.9 -11.5,10.3 -1.5,0.7 0.7,2.1 -0.2,3.1 0.6,0.6 1.2,1.5 2.1,0.7 1,-1 2.2,-0.1 3.2,-0.9 -0.6,-1.3 -2.7,0.4 -2.9,-1.3 -0.2,-1.4 1.3,-1.5 2.2,-2.1 4.6,-2.7 7,-7.4 10.2,-11.3 1,-1.3 2.1,-3.4 -0.5,-4.5 -3.1,-1.3 -1.3,-3.4 -0.1,-3.8 3.8,-1.3 5.7,-5.7 10.3,-5.9 1.1,-0.1 1.9,-3.4 3.9,-4.5 -4.5,0.1 -8.5,2 -10.6,5.5 -1.4,2.3 -5.1,0.8 -5,4.1 -0.7,-0.4 -1.6,-0.6 -2.2,-1.2 -1.3,-1.1 -1,-7.1 0.2,-8.3 0.8,-0.8 1.8,-0.6 2.2,-0.1 0.7,0.8 2.6,1.2 1.5,2.9 -0.5,0.8 -0.6,1.5 -0.1,2.7 1.7,-2.6 2.5,-5.7 5.2,-7.6 -1.2,0 -2.4,-0.1 -3.6,0 -1.4,0.1 -3.2,2 -3.9,-0.1 -0.3,-0.8 1.7,-3.5 2.7,-3.5 4.1,-0.1 7.2,-3.3 11.5,-3.2 0,1.4 -2.2,2.1 -1.1,3.6 h -0.2 v -0.1 c 2.1,0.6 3,-1.9 4.9,-1.8 0.2,0 0.7,0.1 0.6,-0.7 -0.2,-3 -0.1,-3 2.4,-4.6 -5.7,0.9 -11.3,1.9 -17,2.8 8.1,-6.8 18.1,-9.2 27,-13.5 -0.9,-0.1 -2.1,-0.2 -3.5,-0.4 2.3,-1.7 4.5,-2.8 8.2,-2.2 -4.2,-2.2 -7.1,-2.8 -9.7,0.7 -1.2,1.7 -3.2,2.8 -5.4,2.4 -2.7,-0.5 -2.2,2.3 -3.6,3.1 -3.4,1.9 -6.9,3.6 -10.8,5.6 1.8,-5.3 6.7,-6.7 10.2,-9.4 3.3,-2.6 7.1,-4.6 10.7,-6.8 1.3,-0.7 2.6,-1.4 4.3,-0.6 2.2,1.1 2.5,0.8 2.4,-1.9 1.7,-0.3 1,1.8 2.1,2.1 1,0.3 0.4,2.2 1.8,2 1.4,-0.3 1.4,-1.3 0.8,-2.4 -0.1,-0.1 0.3,-0.7 0.6,-0.8 3.6,-1.5 4.9,-4.9 6.7,-7.9 0.8,-1.2 2.1,-1.5 3.5,-1.8 -6.9,-7 -7.4,-8.3 -3.5,-10.3 -1.5,-0.9 -3.5,-0.2 -4.3,-2.5 -0.5,-1.5 -2,-4.1 -4.5,-0.9 -1,1.3 -2.6,-0.8 -4,-1.1 -2.4,-0.5 -4.8,-0.9 -7.1,-1.9 -4.6,-1.9 -5,-2.7 -3.8,-9.8 -0.5,-0.6 -0.7,0.1 -0.9,0.2 -0.7,0.8 -1.6,1.2 -2.6,0.9 -0.2,-0.1 -0.5,-0.7 -0.5,-1 0.4,-1.2 1.4,-1.5 2.7,-1.5 8.5,0 17,0.4 25.5,-0.1 10.5,-0.5 20.9,-2.1 31.4,-1.6 4.9,0.2 9.6,2.3 11.6,5.5 -1.3,1.5 -3.3,-0.6 -5,0.5 3,2.4 6,1.9 8.4,0.3 6.2,-4 11.7,-1.9 17.3,1.3 1.1,0.6 2.1,1.2 3.2,1.8 0.6,0.3 1.9,-0.5 2,0.6 0,0.6 -0.1,2.1 -1.6,2 -2.1,-0.2 -1.8,2.3 -3.1,2.9 -3.5,1.8 -3.7,8.5 -9.6,6.2 -0.5,1.3 0.8,1.6 0.9,2.6 -2.4,0.5 -4.8,-0.1 -7,2.2 -1.5,1.5 -4.4,-1 -6.4,-2.4 -1.9,-1.3 -1.9,-4.1 -4.4,-4.7 -0.8,-0.2 -0.5,-2.9 -2.1,-1.1 -0.6,0.7 -0.9,1.8 -0.1,2.9 3.1,4.1 6.6,7.6 12.3,7.6 1.5,0 3.1,-0.7 4.5,1.1 -1.5,1.3 -3,2.1 -4.9,1 -1.3,-0.8 -1.8,0.1 -2.3,0.9 -0.5,0.8 0.1,1.1 0.9,1.3 8.1,2.2 8.1,2.2 3.3,9.9 -0.9,-2.8 1.4,-6.7 -4.1,-8.6 2,4 3.3,7.6 0.7,11 3.1,2.4 1,4.7 -0.2,7 -1.3,2.4 -2.3,5 -4,7 -1.3,1.5 -1.7,4.2 -3.5,4.6 -2.3,0.6 -1.3,-3.7 -4,-3.7 0.6,2.9 0.9,5.7 1.7,8.3 0.3,1 0.4,1.5 -0.3,2.1 -1.1,0.8 -1.5,-0.3 -1.7,-0.9 -0.5,-1.8 -2.3,-1.3 -2.6,-0.9 -0.8,0.8 0.2,1.6 0.8,2.4 1.9,3 1.4,6.8 2.6,10 2,5.8 0.2,11.6 -0.2,17.7 3.4,-2.6 1.8,-6.9 4,-9.7 1.8,6.5 2.8,12.9 3,19.4 0.2,6.5 1.9,12.7 3.5,19.3 -2.2,-1.1 -3.1,-2.8 -4.2,-4.3 -0.6,-0.8 -1.2,-3.1 -2.9,-1.7 -1,0.9 0.3,2 0.9,3 2.1,3.4 5.5,5.8 6.9,9.7 0.5,1.4 1.4,2.7 0.2,4.5 -1.3,-1.4 -2.5,-2.8 -3.8,-4.1 -0.5,-0.5 -1.1,-1.6 -2,-0.9 -0.7,0.6 -0.6,1.7 0.1,2.3 2.9,2.2 4,4.8 3,8.5 -0.5,2 2.1,3 2.8,4.8 1.1,-3.2 -1.1,-6.6 1,-9.8 2.4,2.8 2.8,6.6 4.6,9.7 5.8,10 12.3,19.7 16.3,30.6 3,7.9 3.9,16.4 6.5,24.5 0.2,0.5 0.2,1.4 -0.1,1.6 -3.4,2.6 -2.5,7.1 -5.2,10.9 4.7,-1.1 4.4,-5 6.4,-7.7 -0.8,4.7 3.8,9.1 -0.1,13.9 -0.7,0.8 -1,1.9 -1.4,2.9 -0.4,0.9 -1,2.1 0.4,2.4 1.6,0.4 0.4,-1.7 1.6,-2.1 0.8,3.4 -0.9,6.4 -1.7,9.5 -1.5,5.6 -0.9,8.2 3.9,11.1 2.3,1.4 1.7,3.1 0.8,4.5 -1.3,2 -3,0.2 -3.7,-0.6 -2.1,-2.3 -3.5,-5.2 -4.2,-8.3 -0.2,-1 -0.5,-2 -1.6,-1.6 -1.1,0.4 -0.7,1.3 -0.5,2.4 0.4,2.3 2.9,3.7 2.8,6.9 -3.7,-4.2 -6,-8.3 -4.3,-13.4 0.6,-1.8 -1.1,-2.8 -0.8,-4.5 -2.3,4.4 -2.9,8.6 0.3,12.9 -5.3,-3.9 -7.6,-13.2 -4.8,-18.4 3.7,-6.9 7,-13.9 7.7,-21.7 0.4,-3.7 -0.2,-7.6 -2.2,-11.1 -0.6,-1 -1.3,-1.2 -1.9,-0.9 -1.1,0.4 0,1.2 0.2,1.6 3.5,6.1 0.1,12.5 0.7,18.7 0,0.4 -0.5,1.2 -0.9,1.3 -1.5,0.5 -1.2,-1.4 -2.2,-1.9 -2.1,4.2 -2,9.2 -5,13.7 -0.6,-2.3 -0.3,-4.3 -2.4,-5.7 -1.5,7.5 -2.9,14.7 -4.4,22.1 -2.5,-1.7 -0.6,-4.3 -1.9,-7 -0.2,3.7 -4.9,3.4 -4.5,7.1 0.3,3 -1.4,6.8 4,8.3 -4.2,0.9 -7,0.1 -9.7,-3.3 -0.4,4 2.9,4.5 3.3,7 0.5,3.2 0.7,6.3 0.7,9.5 0,6.3 -0.1,12.6 6.5,16.2 0.3,0.2 1.9,1 0.1,1.4 -1,0.2 -1.3,2.6 -2.9,0.8 -3.6,-4.3 -8.6,-7.1 -11.4,-12.1 -0.6,-1 -1.3,-2.2 -2.9,-2.2 -1.6,2.8 0.6,5 2.1,6 3.3,2.3 5.8,5.2 8.1,8.4 2.9,4 6.6,6.4 12.3,4.8 -1.3,1.9 -2.8,0.7 -4.1,1.6 1.9,0.4 3.5,1.5 3,3.3 -0.4,1.6 -2.1,2.5 -4.1,2.3 -3.5,-0.5 -0.6,-3.3 -2.4,-4.9 -4.2,4.7 -10.6,6.7 -15.4,12 -0.9,-2.7 1.1,-3.7 0.5,-5.5 -2.4,2.8 -3.6,6.5 -7.8,6.9 -3.5,0.3 -6.8,1.6 -10.1,3.6 0.3,-4.4 5.6,-4.6 6,-8.8 -1.7,0.9 -3,1.8 -4.3,3.3 -2.9,3.3 -6.2,6.3 -9.3,9.5 -0.8,0.8 -1.5,0.8 -1.9,-0.1 -0.4,-0.9 -2.8,-1 -1.2,-2.8 1.9,-2.2 3.8,-4.5 6.4,-7.6 -4.6,1.7 -7,4.4 -9,7.5 -2,3.1 -4.4,3.3 -6,0.8 -1.7,-2.6 0.2,-3.5 1.9,-4.5 1.4,-0.9 3,-1.3 4.3,-2.3 1.2,-0.9 2.1,-2 3.1,-3.3 -2.7,1.4 -5.5,2.7 -8.1,4.3 -1.9,1.2 -3.9,1.2 -5,-0.2 -1,-1.3 -2.2,-3.3 -1.4,-5.2 0.8,-2 2.8,-1.8 4.7,-1.9 2.9,-0.2 5.2,2.6 8.2,1.5 -0.5,-2.1 -2.5,-1 -4.7,-2.5 5.9,1.3 7.6,-3 10.4,-5.2 4.7,-3.7 10,-5 16.7,-6.2 -5.7,-1.1 -10,-2.6 -10.3,-9.2 2.9,3.5 6.1,6.4 9.9,5.9 4.1,-0.6 6.6,3.7 11.1,2 -7.1,-3.1 -13.5,-6.5 -16.9,-13.7 1.3,-1.1 2.9,-0.2 4.4,-1 -3.5,-1.2 -6,-3.7 -9.5,-6.2 1.9,6.9 4.4,12.3 9.3,16.5 -3.5,-1.4 -6.5,-3.9 -7.9,-6.9 -1.7,-3.6 -4.2,-6.2 -6.8,-8.9 -3.3,-3.6 -6.3,-7.1 -6.6,-12.5 -0.1,-2.2 -2.4,-4.2 -3.1,-6.5 -1.9,-5.9 -0.2,-11.2 3.4,-16.1 -3.1,-1.9 -3.1,1.8 -5,2.8 -0.9,-7.4 2.5,-12.9 6.7,-18.7 -4,0.6 -4.3,4.3 -6.6,6.1 -1.8,-4.6 0.4,-8.6 2.7,-11.6 6.5,-8.3 12.9,-16.6 16.8,-27.4 0.9,3.2 -2,5.2 -0.5,8 3,-5.2 4.4,-10.3 3.4,-15.7 -4,5.9 -7.9,12 -10.9,18.2 -2,0.5 -4.7,-3.2 -5.1,1.7 0,0.4 -1.4,0.7 -2.1,1.1 -0.1,-0.8 -0.5,-1.8 -0.2,-2.5 0.7,-1.8 2.7,-2.6 4.2,-3.1 6.5,-2.4 7.6,-8.4 9.2,-13.8 0.5,-1.9 1,-4 1.2,-6.1 0.1,-1 1.3,-2.5 0.2,-2.9 -1.4,-0.6 -2.1,0.9 -2.1,2.3 0,0.3 -0.4,0.6 -0.9,1.3 -2.1,-4.4 0.6,-8.3 1,-13 -4,4.6 -4.2,11.5 -2,15.5 1.8,3.1 -0.3,6.4 -1.5,9.4 -0.4,1.1 -1.4,2 -2.1,3 -0.5,0.7 -0.4,2.6 -2.2,1.2 -1,-0.8 -0.8,-1.5 0,-2.4 1.9,-2.1 3,-4.1 1.1,-7.1 -0.9,-1.4 0.6,-3.4 0.8,-5.1 0.3,-1.9 -0.5,-3.3 -0.4,-5.4 -2.6,2.6 -1.2,5.4 -1.5,7.9 -0.3,2.3 -0.1,2.4 -2.7,2.2 -0.9,-0.1 -0.7,0.5 -0.8,0.9 -1.2,4.7 -5,8 -6.9,12.9 1.6,-0.7 2.8,-1.1 4.5,-1.8 -0.8,3 -0.9,5.7 -4,8.3 3.2,-5.2 -2.5,-5.2 -3.6,-7.9 0.8,2.6 1.6,5.2 2.4,7.8 -1.2,1.1 -2.7,0 -4,0.9 0.9,0.4 1.8,1.1 2.6,1 1.1,-0.2 2,-0.3 2.2,0.9 0.3,1.8 -1.3,0.9 -2.1,1.1 -1.7,0.4 -3.4,0.8 -5.1,1.5 2.4,0.1 4.8,0.2 8,0.4 -3.4,3.3 -7.5,1.8 -10.7,3.7 3.4,1.2 6.7,-1.8 10.3,0.2 -2.5,1.8 -5.9,0.7 -7.9,3.2 2.3,1.3 4.2,-1.1 6.4,-0.5 0.6,0.2 1.5,-0.3 1.8,0.6 0.3,1 -0.5,1.8 -1.3,1.9 -2.7,0.5 -5.1,1.8 -7.7,2.6 -9.4,2.9 -18.4,6.3 -25.1,14.1 -1.2,1.4 -3.9,1.6 -6.2,1.9 9.9,-7.1 19.2,-15.1 30.8,-19.6 -3.4,-1.3 -5.9,1.3 -8.5,2.3 -2.6,1.1 -5.5,2.6 -7.8,4.6 -2.5,2.1 -4.9,4.2 -8,5.2 -3.1,1 -5,3.8 -7.9,4.9 -2.6,1 -2,6.3 -7.1,5 3.2,-3.9 5.4,-7.9 9.6,-10.2 1.8,-1.2 3.3,-1.8 2.6,-3.3 2.2,-0.2 4,-1.6 6.2,-2.1 2.3,-1.4 4.7,-2.7 6.1,-5.2 1.8,-0.7 3.5,-1.7 5.2,-2.6 1.4,-0.4 2.6,-1.3 3.1,-1.5 -0.5,0.3 -1.9,1 -3.3,1.6 -1.7,0.8 -3.3,1.7 -5,2.5 -1.4,2.4 -3.9,3.7 -6.1,5.2 -2.3,0.4 -4,1.8 -6.2,2.1 z"
   class="st0" />
		<path
   id="path3788"
   d="m 92.3,106.9 c 1.2,-0.1 2.5,-0.1 4.5,-0.3 -3.1,-3.3 -3.5,-7 -3,-10.8 -2.7,0 -0.7,3.1 -3.2,2.8 -0.9,-2.1 0.5,-4.8 -0.8,-7.3 -1.6,3.3 -2.2,6.1 0.5,13.3 C 82,95.7 73.8,86.8 65.4,77.7 c 1.7,-0.7 2.7,-1.3 3.7,-1.4 1.4,-0.2 2.5,-0.4 2.8,1.9 0.3,2.2 1,4.7 4.1,5.9 -0.7,-4.3 -4,-7.8 -1.8,-12 0.3,-0.5 -0.8,-1.2 -1,-0.8 -3.5,4.7 -9.2,1.2 -13.3,3.7 -0.8,0.5 -1.7,0.8 -2.3,0.2 -1.4,-1.3 -5.1,0.1 -4.4,-3.6 0.7,-3.5 4.2,-5.8 7.4,-5 1.4,0.4 2.7,0.5 4.7,-0.2 -4.1,-1.8 -7.8,-1.4 -11.4,-0.7 -1.2,0.2 -2.5,0.4 -3.7,0.4 -2.2,0 -3.5,-1.8 -3.5,-3.5 0,-1.6 2,-1.6 3.5,-1.6 4.9,0.3 9.9,-1.2 14.6,1.5 -2.9,-3.9 -7.1,-3.5 -11,-4 -1.9,-0.2 -3.9,-0.5 -4.7,-2.1 -0.8,-1.7 1.2,-3.1 1.8,-4.7 0.3,-0.7 1.1,-1.4 2,-0.5 3.2,3 7.5,3.3 11.4,4.2 4.4,1 8.4,2.6 11.6,5.6 9.8,9.2 21.9,15 32.8,22.6 7.3,5.1 13.5,12 22.7,14.2 1.8,0.4 3.8,2.3 4.6,4.3 0.9,2.2 -1.2,3.4 -2,5.1 -1,2.2 -2.7,4.5 -1.8,7.3 0.6,2 -2,2.8 -2,4.5 0.1,1.6 -1,2.8 -0.6,4.7 0.2,0.9 0.3,3 -0.9,4.6 -1.7,-1.7 -4.8,-2.8 -0.9,-5.4 1,-0.6 0.7,-1.4 0.7,-2.2 0,-4.7 1.5,-9.2 2.1,-14.7 -1.4,2.3 -3,3.4 -3,5.8 0,1.8 0.1,4 -2,5.2 -0.6,0.4 -0.7,1.3 0.2,1.6 1.5,0.4 1.3,1.6 0.7,2.2 -0.9,1 -1.1,-0.6 -1.6,-0.8 -1.2,-0.4 -1.7,0.8 -1.3,1.6 0.4,0.8 0.8,1.4 0.6,2.3 -4,-0.7 -3.1,-3.7 -3.4,-6.4 -0.3,-2.8 -0.6,-5.1 0.7,-8 1.2,-2.9 0.7,-6.8 -1.4,-11.2 0.2,5.1 -2.8,6.4 -5.7,7.9 -2.3,1.1 -2.2,3.2 -1.6,6.3 0.9,-2.6 2.9,-3.3 4.1,-4.7 0.5,-0.6 1.1,-1.4 1.9,-0.3 0.5,0.7 1.8,1.6 1.2,2 -4.6,3.2 -0.8,7.5 -1.7,11.3 -1.1,-0.3 -0.9,-1.9 -2.6,-2 1.8,1.9 -0.1,5 2.3,6.3 1.6,0.9 1.9,2 0.8,2.8 -2.4,1.8 -0.5,-1.1 -1.4,-1.5 -3.1,-1.3 -3.1,-4.1 -3.1,-6.9 0,-1.1 0.3,-2.3 -1.2,-3.2 -1,2.7 -1.9,5.6 -5,6.5 -1.8,0.5 -2.8,-0.8 -3.8,-2.2 1.3,-0.4 2.6,-0.8 3.8,-1.3 2.8,-1.1 3.8,-4.7 1.8,-7 -0.3,-0.3 -1,-0.4 -1.5,-0.4 -0.7,0 -0.8,0.6 -0.8,1.2 -0.1,4.3 -3,6 -6.7,6.3 -2.3,0.2 -1.9,2.3 -3.5,3.6 0.4,-4.2 3,-6.9 5.1,-9.4 1.7,-2.2 3.4,-3.5 2,-6.6 -0.6,-1.4 -0.1,-3.3 -0.1,-6 -2.9,3.5 -1.1,6.8 -2,9.7 -2.4,-0.9 -2.1,-3.5 -2.9,-5.3 -0.9,-1.9 0.3,-4.3 -1.2,-6.2 -1,4.2 -1.3,8.4 1.3,12.8 -3.4,-0.7 -4.1,-4.1 -7.2,-4.1 -0.3,-0.3 -0.2,-0.6 -0.1,-1 z"
   class="st0" />
		<path
   id="path3790"
   d="m 173.2,254.3 c -0.1,3 -3.8,1.8 -4.6,4.3 2.4,0.8 4,-2 6.3,-1.6 1.1,0.2 2.7,-2.1 3.4,0 0.7,2 2.5,4.7 -0.1,6.5 -2.3,1.6 -5,2.6 -7.7,3.7 -0.9,0.4 -1.6,-0.4 -2,-1.1 -0.1,-0.2 0.5,-1.1 0.9,-1.1 3.6,-0.6 5.2,-4.4 9.5,-5 -3.5,-0.8 -5.9,0.3 -8.3,1.2 -3.4,1.2 -6.3,3.6 -10.1,4.2 -2.4,0.4 -3.9,2.4 -4.5,4.9 -1.2,-5.9 9.1,-15.4 17.2,-15.8 z"
   class="st0" />
		<path
   id="path3792"
   d="m 142.9,186 c 0.6,-4 4.6,-6.8 1.2,-10.5 3.4,-2.6 1.2,-6.9 3,-9.9 0,-0.1 0.4,-2.1 1.8,-1.3 0.9,0.5 0.9,1.4 0.8,2.2 -0.1,0.8 -0.6,1.5 -0.8,2.3 -0.1,0.5 0.1,1.3 0.4,1.5 0.9,0.5 1.2,-0.2 1.2,-1 0,-2 1.5,-1.5 2.4,-1.3 1.9,0.4 0.1,1.5 0.1,2.2 0.2,5.7 0.1,11.4 0.1,17.4 -7.2,-3.9 -1.2,-9.6 -2.8,-14.4 -1.8,4.6 -3.1,9.3 -7.4,12.8 z"
   class="st0" />
		<path
   id="path3794"
   d="m 237.2,34.4 c -1.3,3.1 -3.1,5.8 -6,7.5 -2.4,1.4 -3.1,-1.1 -4.5,-2 -1.2,-0.7 -2.4,-1.7 -3.6,-1.8 -4.2,-0.4 -2.4,-2.4 -1.1,-3.9 2.2,-2.7 12.8,-3.3 14.9,-1 0.2,0.3 0.2,0.8 0.3,1.2 z"
   class="st0" />
		<path
   id="path3796"
   d="m 178.6,248.4 c -1.2,2.4 -3.2,2.8 -4.9,3.4 -7.2,2.9 -14.5,5.7 -19.8,11.7 -1.6,1.8 -3.6,0.9 -6.3,1.4 8.9,-9.2 19.3,-13.6 31,-16.5 z"
   class="st0" />
		<path
   id="path3798"
   d="m 163.6,59 c 3.6,-2.6 7.1,-3.9 11.3,-1.4 1.4,0.8 2.6,1.7 3.4,2.9 0.9,1.4 0.4,2.9 -1,4 -1.5,1.4 -1.9,-0.4 -2.5,-0.9 -1.8,-2 -4,-2.8 -6.7,-2.5 -1.9,0.1 -3.5,-0.3 -4.5,-2.1 z"
   class="st0" />
		<path
   id="path3800"
   d="M 66.3,54.1 C 63.5,53.3 60.7,52.6 58,51.7 55.9,51 54.6,49.6 54.6,47.2 c 0,-1.6 0.9,-2.3 2.4,-2.3 2.3,0 4.3,0.4 5.3,2.9 1.1,2.2 0.7,5.4 4,6.3 z"
   class="st0" />
		<path
   id="path3802"
   d="m 103.7,235.6 c -3.7,-1.8 -5.9,-3.5 -7.7,-5.6 -0.9,-1.1 -1.9,-2.3 -0.1,-3.7 1.8,-1.5 2.9,-0.2 3.6,1 1.5,2.3 2.5,4.8 4.2,8.3 z"
   class="st0" />
		<path
   id="path3804"
   d="m 166.9,55.4 c -4.4,1.8 -7.8,5.2 -12.7,4.6 3.6,-4.6 8.4,-6.5 12.7,-4.6 z"
   class="st0" />
		<path
   id="path3806"
   d="m 73.6,224.6 c 3.6,-1.7 7.2,-4.1 10.8,-0.2 0.5,0.6 2.3,0.2 1.5,1.8 -0.6,1.1 -1.6,1.4 -2.9,1 -3.1,-1.1 -5.8,-3.2 -9.4,-2.6 z"
   class="st0" />
		<path
   id="path3808"
   d="m 154.9,157.6 c 2,0.6 2.6,2.2 2.3,3.5 -0.4,1.8 -3.3,2.4 -2.7,5 -0.4,0 -1,0.1 -1.2,-0.1 -0.9,-1 -1.9,-1.9 -1.2,-3.8 0.7,-1.8 1,-3.7 2.8,-4.6 z"
   class="st0" />
		<path
   id="path3810"
   d="m 47.5,53.6 c -3.9,-1.9 -7.5,-1 -11.1,0.4 2.1,-2.8 4.7,-4.6 8.4,-4 1.5,0.2 1.5,0.2 2.7,3.6 z"
   class="st0" />
		<path
   id="path3812"
   d="m 28.3,162.4 c 0.4,-4.3 2.6,-6.4 5.4,-8 0.7,-0.4 1.3,-1.2 1.6,0.4 0.1,0.8 1.6,1.5 -0.2,2.1 -2.7,0.9 -4.2,3.2 -6.8,5.5 z"
   class="st0" />
		<path
   id="path3814"
   d="m 177.2,346 c 2.2,3.7 1,5.9 -5.5,9.7 1.9,-3.5 3.6,-6.4 5.5,-9.7 z"
   class="st0" />
		<path
   id="path3816"
   d="m 165.7,345.5 c 1.5,-1.9 2.9,-3.8 4.4,-5.6 0.7,-0.9 1.6,-1.7 2.8,-1.2 0.8,0.3 0.5,1.1 0.6,1.8 0.1,1.3 -0.5,2.2 -1.8,2.4 -2.4,0.1 -3.8,1.7 -6,2.6 z"
   class="st0" />
		<path
   id="path3818"
   d="m 31.7,170.8 c 0.9,-2.1 1.8,-4.1 2.5,-6.3 0.5,-1.6 1.9,-1.8 3.1,-2.2 0.3,-0.1 1.3,0.7 1.5,1.3 0.7,1.9 -1.4,1.4 -2.1,2.2 -1.5,1.8 -3.1,3.5 -4.6,5.2 -0.1,0 -0.2,-0.1 -0.4,-0.2 z"
   class="st0" />
		<path
   id="path3820"
   d="m 73.4,238.9 c 2.4,-2.4 5.2,-2.3 8.1,-2.2 1.7,0.1 1.1,1.3 1.1,2.2 0,0.8 -0.4,1.6 -1.2,1 -2.4,-1.5 -5.2,0 -8,-1 z"
   class="st0" />
		<path
   id="path3822"
   d="m 49.8,169.9 c -3.6,1.5 -4.3,4.9 -6.3,7.1 -0.5,-1.7 0.9,-7 2,-7.9 1.5,-1.1 2.5,0.6 4.3,0.8 z"
   class="st0" />
		<path
   id="path3824"
   d="m 43.5,74.6 c 1.8,-2.4 4,-2.1 5.8,-2.9 1.5,-0.6 2.4,-0.4 2.5,0.8 0.1,0.8 -0.4,2.4 -2.2,2.1 -1.9,-0.2 -3.7,0 -6.1,0 z"
   class="st0" />
		<path
   id="path3826"
   d="m 85.8,247.8 c -1.4,6.2 -5.4,1.2 -8,2.1 2.4,-1.6 4.9,-2.4 8,-2.1 z"
   class="st0" />
		<path
   id="path3828"
   d="m 87.7,219.2 c 3.3,1.9 5.6,3.5 7.4,5.8 -2.5,1.4 -4.7,-0.2 -7.4,-5.8 z"
   class="st0" />
		<path
   id="path3830"
   d="m 54.1,178.6 c -1.2,-2.7 0.8,-5.2 0.6,-7.9 3.7,1.7 3.6,2.6 -0.6,7.9 z"
   class="st0" />
		<path
   id="path3832"
   d="m 44.9,40.8 c 3.5,-0.4 5.2,1.7 7.5,2.5 1.6,0.5 0,1.6 -0.3,2.3 -0.6,1.9 -1.2,0.1 -1.5,-0.2 -1.7,-1.4 -2.9,-3.3 -5.7,-4.6 z"
   class="st0" />
		<path
   id="path3834"
   d="m 131.7,125.3 c -0.3,-0.7 -0.6,-1 -0.6,-1.4 0,-0.8 0.1,-1.6 0.2,-2.4 1.2,0.2 2.3,-1.5 3.6,-0.2 0.7,0.7 1.5,1.2 0.4,2.2 -0.3,0.2 -0.4,0.6 -0.5,1 -1,-1.6 -2,-1.9 -3.1,0.8 z"
   class="st0" />
		<path
   id="path3836"
   d="m 166.4,337.5 c 1.2,-2.6 2.9,-3.4 4.7,-4 0.4,-0.2 1,-1.3 1.5,-0.1 0.1,0.4 -0.1,1.4 -0.3,1.5 -2,0.4 -3.3,2.6 -5.9,2.6 z"
   class="st0" />
		<path
   id="path3838"
   d="m 46.1,66.3 c -2.8,-0.9 -5.3,-1.2 -8.1,-1 3.5,-2.7 5.5,-2.5 8.1,1 z"
   class="st0" />
		<path
   id="path3840"
   d="m 186.6,348.9 c 4.9,3.2 -0.8,4.2 -0.8,6.3 -0.7,-2.2 -0.6,-4.3 0.8,-6.3 z"
   class="st0" />
		<path
   id="path3842"
   d="m 173.4,254.4 c 1.1,-1.9 3.2,-1.6 4.9,-2.3 0.1,0.4 0.4,0.9 0.3,1.1 -1.4,2 -3.4,1.3 -5.3,1.1 -0.1,0 0.1,0.1 0.1,0.1 z"
   class="st0" />
		<path
   id="path3844"
   d="m 174.9,332.2 c 2.4,-0.3 4.6,-0.7 7.2,0 -2.8,0.7 -5.1,0.3 -7.2,0 z"
   class="st0" />
		<path
   id="path3846"
   d="m 149.7,162.8 c -1,-0.4 -0.8,-1.1 -0.7,-1.7 0.1,-0.7 0.7,-1 1.1,-0.7 0.3,0.2 0.4,0.9 0.5,1.4 0,0.8 -0.5,1 -0.9,1 z"
   class="st0" />
		<path
   id="path3848"
   d="m 199.9,98.9 c 3.1,-2.1 5.1,-6 9.9,-5 -1.9,-1.4 -3.8,-2.8 -6.3,-1.3 -0.4,0.3 -0.7,0.7 -1.3,0.2 -2,-1.8 -3.9,-1.7 -5.9,0.2 -0.7,0.6 -1.8,0.7 -2.3,0 -0.6,-0.9 0.4,-1.5 1,-2 1.6,-1.1 3.4,-1.1 6.5,-1 -7.1,-4.1 -11.6,-8.7 -9.9,-17.1 1.7,5 1.6,10.3 6.3,13.2 0.8,0.5 1.3,1.8 2.4,1.4 2.8,-1.3 4.1,-0.2 4.6,2.5 0.2,1.3 1.3,0.9 2,1 2.4,0.3 5.1,-0.1 6.1,3.1 0.1,0.2 1.6,0.3 1.9,0 1.6,-1.8 4.5,-2.8 3.3,-6.5 -0.9,2.4 -2.5,3 -4.7,3.1 4.4,-1.5 3.4,-5.7 4.5,-9.1 3.7,5.9 3.7,8.9 -0.1,13.3 1.1,0.4 1.7,0.5 2.5,-0.9 1.6,-2.6 3.2,-5.1 4,-8 0.2,-0.8 0.6,-1.7 1.4,-1.5 0.7,0.2 1.3,0.9 0.9,2 -1.4,3.7 -3.1,7.3 -5.9,10.2 -2.1,2.2 -5,0.1 -7.2,1.4 -2.3,1.4 -4.5,-0.2 -6.7,0.4 -2.1,0.2 -4.3,1.4 -7,0.4 z"
   class="st1" />
		<path
   id="path3850"
   d="m 192,45.4 c 1.3,-0.9 1.6,-3 3.4,-1.1 4.2,4.5 10.1,4.4 15.5,5.6 1.6,0.3 3.3,0.1 4.9,1.8 -1.4,0 -2.5,0 -3.5,0 -2.3,0 -4.3,-0.3 -5.9,2.7 -2.3,4.4 -6.9,4.4 -9.8,0.3 -2,-2.8 -5.3,-2.3 -7.8,-4.6 1.7,-0.1 3.3,0.2 4.4,-0.4 1.5,-0.9 3,-0.3 4.5,-0.8 -1.5,-1.4 -3.2,-2.7 -5.7,-3.5 z"
   class="st1" />
		<path
   id="path3852"
   d="m 226.9,53.5 c 3.1,-1.5 5.5,-3.5 7.8,-5.7 2.3,-2.2 10.4,-1.2 12.2,1.4 0.6,0.9 0.4,1.9 -0.8,1.6 -5.9,-1.5 -10.7,1.7 -15.9,3.2 -1.1,0.3 -2.1,0.2 -3.3,-0.5 z"
   class="st1" />
		<path
   id="path3854"
   d="m 186.6,70.5 c 4.6,6 1.6,15.7 10.9,18.1 -4.8,0.2 -7.2,-2.8 -9.6,-5.7 -1.5,-1.9 -2.7,-4.1 -4.2,-6.1 -0.6,-0.8 -1.4,-1.5 -0.3,-2.4 1.4,-1.1 1.5,0.3 1.9,1 0.7,1.1 1.5,2.1 2.3,3.4 0.8,-2.8 -1.9,-4.7 -1,-8.3 z"
   class="st1" />
		<path
   id="path3856"
   d="m 173.1,231.7 c -6.6,2.5 -13.9,1.7 -19.1,7.1 -0.5,0.5 -1.3,0.8 -1.6,-0.2 -0.2,-0.6 -0.3,-1.6 0.5,-1.8 3.8,-1 6.4,-5 10.9,-4.4 1.3,0.2 3,0.6 2.4,-2.3 -0.4,-2 1.7,-0.6 2.1,-0.1 1.3,1.4 2.8,2.1 4.8,1.7 z"
   class="st1" />
		<path
   id="path3858"
   d="m 172.8,188.3 c 0.8,3.7 -0.2,7.6 1.5,11.2 0.2,0.5 0.2,1.6 -0.8,1.4 -0.6,-0.1 -1.2,-0.7 -1.5,-1.2 -1.9,-3.8 -0.9,-7.6 0.8,-11.4 z"
   class="st1" />
		<path
   id="path3860"
   d="m 185.6,61.5 c 4.1,-2.9 6.3,1.4 9.6,2.6 -2.4,-1.1 -3,3.1 -5.2,1.7 -1.7,-1 -2.9,-2.7 -4.4,-4.3 z"
   class="st1" />
		<path
   id="path3862"
   d="m 188.6,185.9 c 0.1,5 3.8,9.5 2.3,15.2 -1.9,-5.2 -2.1,-10.2 -2.3,-15.2 z"
   class="st1" />
		<path
   id="path3864"
   d="m 140.9,135.2 c -0.2,5 -2.8,10 -5.3,10.4 1.9,-3.4 2.2,-7.7 5.3,-10.4 z"
   class="st1" />
		<path
   id="path3866"
   d="m 245.7,225.3 c -2,0.7 0.4,4.1 -2.4,3.6 -2.4,-0.4 -0.9,-2.8 -1,-4.2 -0.1,-1 -1.3,-3.2 1.2,-3.2 2.6,0 0.3,3 2.2,3.8 z"
   class="st1" />
		<path
   id="path3868"
   d="m 222.6,317.8 c -4,1.4 -6.4,-1 -9.1,-2.5 -0.6,-0.3 -1.3,-1 -0.9,-1.7 0.5,-0.9 1.7,-0.8 2.1,-0.3 2,2.6 5.2,2.9 7.9,4.5 z"
   class="st1" />
		<path
   id="path3870"
   d="m 203,227.2 c 1.5,-3.2 1.3,-7.1 4.4,-10 0.2,4.4 -0.9,7.7 -4.4,10 z"
   class="st1" />
		<path
   id="path3872"
   d="m 142.6,238.9 c -3.2,3.1 -7.4,4.7 -11.1,7 3.2,-3.2 6.5,-6.2 11.2,-6.9 z"
   class="st1" />
		<path
   id="path3874"
   d="m 180.4,198.5 c 2.6,3.3 2.7,6.7 2.8,10.2 -2.5,-2.8 -3.1,-6.1 -2.8,-10.2 z"
   class="st1" />
		<path
   id="path3876"
   d="m 193,248.1 c -1.1,3.2 -2.2,6.4 -3.6,10.4 -0.7,-4 0.5,-7.9 3.6,-10.4 z"
   class="st1" />
		<path
   id="path3878"
   d="m 145.9,233.9 c 3.8,-1.5 7.7,-2.3 11.8,-2 -3.8,1.7 -7.7,2.3 -11.8,2 z"
   class="st1" />
		<path
   id="path3880"
   d="m 188.8,244.7 c 1.8,-3 2.6,-6.6 6.6,-9.5 -2.2,4.2 -3.2,7.6 -6.6,9.5 z"
   class="st1" />
		<path
   id="path3882"
   d="m 176.5,182.3 c -1.5,-3.3 -1.7,-6.5 0,-10.4 0,4 0,7.2 0,10.4 z"
   class="st1" />
		<path
   id="path3884"
   d="m 246.9,271.4 c -1.6,-3.9 1.5,-5.3 3.6,-7.8 0.4,3.8 -1.9,5.5 -3.6,7.8 z"
   class="st1" />
		<path
   id="path3886"
   d="m 206,297.6 c 1.6,2.5 3.8,3.8 6.1,5.4 -4.3,0.8 -5.8,-0.5 -6.1,-5.4 z"
   class="st1" />
		<path
   id="path3888"
   d="m 230.4,190.8 c 1.9,0.7 1.9,2.7 2.9,4.2 0.6,1 -0.5,1.6 -0.6,1.5 -1.4,-0.8 -2.8,-1.7 -3.1,-3.5 -0.1,-0.7 -0.5,-1.7 0.8,-2.2 z"
   class="st1" />
		<path
   id="path3890"
   d="m 176.8,195.1 c 0.6,2.5 2.2,4.8 1.3,8.1 -2.1,-2.7 -2.4,-5.2 -1.3,-8.1 z"
   class="st1" />
		<path
   id="path3892"
   d="m 150.9,252.3 c 0.5,-3.2 3.5,-3.9 5.4,-5.6 l -0.1,-0.1 c 0.9,4.5 -2.8,4.6 -5.4,5.6 z"
   class="st1" />
		<path
   id="path3894"
   d="m 194.3,74.6 c 0.8,2 2.4,3 3.5,4.4 0.5,0.6 0.7,1.7 -0.1,2.3 -0.7,0.5 -1.5,-0.2 -1.7,-0.8 -0.6,-1.9 -3.2,-3.1 -1.7,-5.9 z"
   class="st1" />
		<path
   id="path3896"
   d="m 188.9,53.7 c 1.2,2.6 2.9,3.9 4.4,5.3 0.5,0.5 1.9,0.4 1.2,1.6 -0.5,0.7 -2,0.7 -2.2,0 -0.8,-2.2 -3.7,-3.1 -3.4,-6.9 z"
   class="st1" />
		<path
   id="path3898"
   d="m 149.5,228.4 c 4.4,0 8.9,0 13.3,0 0,0.1 0,0.3 0,0.4 -4.5,0 -9,0 -13.5,0 0.1,-0.1 0.2,-0.3 0.2,-0.4 z"
   class="st1" />
		<path
   id="path3900"
   d="m 234.3,263.6 c -2.4,-2.4 -2.5,-4.3 -1.8,-7.4 1.4,2.6 2.2,4.5 1.8,7.4 z"
   class="st1" />
		<path
   id="path3902"
   d="m 125.4,135.1 c -0.6,-6 2.9,-1.5 5.1,-2.1 -0.9,1.1 -1.4,1.7 -1.9,2.3 -0.2,0.3 0.2,1.3 -0.8,0.8 -0.3,-0.2 -0.8,-0.8 -0.8,-0.9 0.4,-0.8 1.5,-1.7 -0.3,-2 -0.4,0 -0.9,1.1 -1.4,1.7 z"
   class="st1" />
		<path
   id="path3904"
   d="m 166.7,95 c -1.7,0 -3.1,-0.1 -4.4,0 -1,0.1 -1.6,-0.5 -2,-1.1 -0.1,-0.1 0.3,-0.7 0.6,-1 0.7,-0.6 2.1,-0.7 2.2,-0.2 0.2,2.2 2.4,0.8 3.6,2.3 z"
   class="st1" />
		<path
   id="path3906"
   d="m 243,237.4 c -1.2,-0.9 -1.6,-1.2 -1.6,-1.3 1,-1.6 -1.9,-3 -0.2,-4.5 0.2,-0.2 1,-0.2 1.2,0 1.3,1.7 0.5,3.4 0.6,5.8 z"
   class="st1" />
		<path
   id="path3908"
   d="m 161.4,239 c 3,-0.9 5.8,-3 10.3,-1.8 -4.2,0.4 -6.9,2.9 -10.3,1.8 -0.1,-0.1 0,0 0,0 z"
   class="st1" />
		<path
   id="path3910"
   d="m 201,59.4 c 2.7,0.1 4.4,-0.8 6.4,-1.1 -1.6,1.7 -2.9,3.9 -6.4,1.1 z"
   class="st1" />
		<path
   id="path3912"
   d="m 225.3,264.7 c 0.5,1.7 2.3,3 1,5.4 -1.6,-1.7 -2.4,-3.3 -1,-5.4 z"
   class="st1" />
		<path
   id="path3914"
   d="m 142.7,239 c 2.3,-1.3 4.5,-3.1 7.9,-2 -2.8,1.1 -5.1,2.4 -8,1.9 0,0 0.1,0.1 0.1,0.1 z"
   class="st1" />
		<path
   id="path3916"
   d="m 172.6,95.6 c -2,1.2 -4,2 -4.9,-1.4 1.8,0.2 3.2,1.3 4.9,1.4 z"
   class="st1" />
		<path
   id="path3918"
   d="m 237.9,259.6 c -0.9,-0.4 -1.6,-1 -1.6,-2.1 0,-1 0.7,-1.9 1.2,-1.8 1.2,0.2 1.4,1.4 1.3,2.5 0,0.6 0.1,1.4 -0.9,1.4 z"
   class="st1" />
		<path
   id="path3920"
   d="m 229.4,262.2 c -0.5,1.8 2,3.1 0.4,4.9 -0.3,0.3 -0.9,-0.1 -1.2,-0.7 -0.7,-1.5 -1.6,-3 0.8,-4.2 z"
   class="st1" />
		<path
   id="path3922"
   d="m 137.3,237.2 c 2.1,-0.8 3.6,-3.2 6.5,-2.8 -1.7,2.2 -4.3,2.1 -6.5,2.8 z"
   class="st1" />
		<path
   id="path3924"
   d="m 130.4,254.5 c -0.8,-3 1.8,-3.4 2.8,-4.8 0,2 -0.9,3.4 -2.8,4.8 z"
   class="st1" />
		<path
   id="path3926"
   d="m 158.8,175.8 c 2.2,2.6 0.2,4.3 -0.2,6.8 -0.5,-2.6 -0.6,-4.4 0.2,-6.8 z"
   class="st1" />
		<path
   id="path3928"
   d="m 216,295.2 c -0.8,-0.1 -1.7,-0.7 -1.6,-1.7 0,-0.5 0.7,-1 1.1,-1.6 0.7,0.8 1.7,1.5 2.1,2.4 0.3,0.9 -0.7,0.9 -1.6,0.9 z"
   class="st1" />
		<path
   id="path3930"
   d="m 168,104.9 c -0.6,0.1 -1.2,0.2 -1.8,0.4 -0.9,0.3 -1.3,2.1 -2.6,1.2 -0.3,-0.2 -0.4,-1.1 -0.2,-1.5 0.6,-1.3 1.9,-0.5 2.9,-0.7 0.5,-0.1 1.1,0 1.6,0 0,0.2 0.1,0.4 0.1,0.6 z"
   class="st1" />
		<path
   id="path3932"
   d="m 150.8,252.1 c -2.1,0.8 -3.8,3.3 -6.5,2 0,0 0.1,0.1 0,0 2,-1.4 3.9,-3 6.6,-1.9 0,0.1 -0.1,-0.1 -0.1,-0.1 z"
   class="st1" />
		<path
   id="path3934"
   d="m 156.3,246.7 c 1.6,-1 2.7,-3 5.1,-2.5 l -0.1,-0.1 c -0.8,2.7 -2.7,3.1 -5.1,2.5 0,0 0.1,0.1 0.1,0.1 z"
   class="st1" />
		<path
   id="path3936"
   d="m 143.7,226.4 c 2,-1.7 3.7,-1.9 5.6,-1.4 -1.4,1.8 -3.2,1.5 -5.6,1.4 z"
   class="st1" />
		<path
   id="path3938"
   d="m 161.4,244.1 c 1.9,-0.8 3.1,-3.2 6,-2 -2.1,0.9 -3.6,2.9 -6.1,1.9 0,0 0.1,0.1 0.1,0.1 z"
   class="st1" />
		<path
   id="path3940"
   d="m 215.1,298.7 c -0.3,1 -1,0.8 -1.6,0.7 -1,-0.2 -1.8,-0.8 -1.6,-1.9 0.1,-0.5 0.9,-0.8 1.2,-0.4 0.5,0.8 1.9,0.3 2,1.6 z"
   class="st1" />
		<path
   id="path3942"
   d="m 138.1,247.1 c 1.1,-2.3 3.2,-2.8 5.5,-3 l -0.1,-0.1 c -1.4,1.7 -3.3,2.7 -5.5,3 z"
   class="st1" />
		<path
   id="path3944"
   d="m 187.5,206.4 c 1.5,1.9 0.6,3.3 -1,4.6 -0.9,-1.8 0.2,-3.2 1,-4.6 z"
   class="st1" />
		<path
   id="path3946"
   d="m 221.8,272.9 c 2.2,1.8 2.2,3 0.2,4.6 0,-1.6 -0.1,-2.8 -0.2,-4.6 z"
   class="st1" />
		<path
   id="path3948"
   d="m 216.8,134.2 c -0.3,0.3 -0.7,0.7 -1,1.1 -0.5,-0.6 -1.1,-1.2 -1.5,-1.9 -0.2,-0.5 0.1,-1.2 0.8,-1 0.9,0.1 1.5,0.7 1.7,1.8 z"
   class="st1" />
		<path
   id="path3950"
   d="m 125.9,252.9 c 0.2,1.4 -0.5,1.6 -1.4,1.6 -0.6,0 -1.1,-0.3 -1,-0.9 0.2,-0.8 0.8,-1.4 1.7,-1.5 0.8,-0.2 0.6,0.6 0.7,0.8 z"
   class="st1" />
		<path
   id="path3952"
   d="m 156.7,224.2 c -2.2,0.9 -3.9,0.6 -5.6,0 1.7,0 3.4,0 5.6,0 z"
   class="st1" />
		<path
   id="path3954"
   d="m 138,247 c -0.8,0.9 -1.7,1.8 -2.7,2.8 -0.5,-2.9 0.7,-3.3 2.8,-2.7 0,0 -0.1,-0.1 -0.1,-0.1 z"
   class="st1" />
		<path
   id="path3956"
   d="m 220.2,286.3 c 0,0.6 0,1.2 -0.7,1.2 -1,0.1 -1,-0.7 -1,-1.4 0,-0.6 0.1,-1.1 0.9,-1 0.7,0.1 0.7,0.6 0.8,1.2 z"
   class="st1" />
		<path
   id="path3958"
   d="m 245.7,215 c -0.2,0.4 -0.3,1.1 -0.7,1.2 -0.9,0.3 -1.2,-0.4 -1.1,-1.2 0,-0.6 0.1,-1.1 0.7,-1.2 0.8,-0.1 0.9,0.5 1.1,1.2 z"
   class="st1" />
		<path
   id="path3960"
   d="m 141.6,153.3 c -1.9,-1 -2.8,-1.5 -3.8,-2 1.4,-0.5 2.6,-0.3 3.8,2 z"
   class="st1" />
		<path
   id="path3962"
   d="m 141.5,232.2 c 1.3,-2.1 2.1,-2.7 3.5,-2.2 -0.4,1.2 -1.5,1.3 -3.5,2.2 z"
   class="st1" />
		<path
   id="path3964"
   d="m 125.3,135 c -0.6,0.8 -1.2,1.7 -1.7,2.5 0,-1.3 -0.7,-3.3 1.9,-2.4 -0.1,0 -0.2,-0.1 -0.2,-0.1 z"
   class="st1" />
		<path
   id="path3966"
   d="m 143.6,244.1 c 1,-0.5 2,-1.1 3.4,-1.8 -0.7,2.5 -2.1,2.1 -3.5,1.7 0,0 0.1,0.1 0.1,0.1 z"
   class="st1" />
		<path
   id="path3968"
   d="m 150.7,104.4 c -0.7,0.8 -1.4,1.6 -2.2,2.3 -0.2,-1.8 0.4,-2.7 2.3,-2.2 0,0 -0.1,-0.1 -0.1,-0.1 z"
   class="st1" />
		<path
   id="path3970"
   d="m 112.8,95.1 c -1.8,1.8 -1.6,4.6 -3.7,6.9 0.1,-3.3 0.6,-5.8 3.7,-6.9 z"
   class="st1" />
		<path
   id="path3972"
   d="m 78.5,83.8 c 0.1,-2.3 -2.9,-4 -1.3,-6.7 1.6,2.1 2,4.3 1.3,6.7 z"
   class="st1" />
		<path
   id="path3974"
   d="m 127.2,105.2 c 0.7,-4.5 3.9,-1.9 6,-2.2 -1.9,0.8 -3.9,1.5 -6,2.2 z"
   class="st1" />
		<path
   id="path3976"
   d="m 124.3,112 c -0.2,2.2 -0.2,4.4 -1.5,6.4 -0.8,-2.5 0.4,-4.4 1.5,-6.4 z"
   class="st1" />
		<path
   id="path3978"
   d="m 107.8,109.7 c -0.7,-1.8 -0.8,-3.1 0.4,-5.6 0.9,2.5 1.4,3.9 -0.4,5.6 z"
   class="st1" />
		<path
   id="path3980"
   d="m 124.6,110.9 c -1.3,-1.8 0.8,-2.5 0.8,-3.7 0.7,1.4 1,2.7 -0.8,3.7 z"
   class="st1" />
		<path
   id="path3982"
   d="m 112.8,99.6 c 0.3,1.7 1.1,3.5 -1.5,4.7 0.8,-1.8 1.5,-3.3 1.5,-4.7 z"
   class="st1" />
		<path
   id="path3984"
   d="m 128.6,98.6 c -0.2,2.3 -0.9,2.9 -2.9,3.3 1.1,-1.2 1.7,-1.9 2.9,-3.3 z"
   class="st1" />
		<path
   id="path3986"
   d="m 203.1,55.1 c -2.7,1 -3.7,0.8 -4.8,-1.4 -0.4,-0.9 -2.1,-2.2 -0.3,-3.1 1.7,-0.9 3.8,-1.6 5.6,-0.5 1.6,1 1.9,2.5 0.5,4 -1.1,-1 -2.3,-1.9 -4.1,-1.4 1,1 2.4,1.2 3.1,2.4 z"
   class="st0" />
		<path
   id="path3988"
   d="m 203.1,55.1 c -0.3,0 -0.6,0 -0.8,0 -2,-0.1 -3,-1.3 -3.3,-3.1 -0.1,-0.4 -0.2,-1.1 0.8,-0.6 1.5,0.8 5.1,-1.7 4.3,2.7 -0.3,0.3 -0.7,0.7 -1,1 z"
   class="st1" />
	</g>
</g>
</svg>
