<?xml version="1.0" encoding="UTF-8" standalone="no"?>
<svg
   xmlns:dc="http://purl.org/dc/elements/1.1/"
   xmlns:cc="http://creativecommons.org/ns#"
   xmlns:rdf="http://www.w3.org/1999/02/22-rdf-syntax-ns#"
   xmlns:svg="http://www.w3.org/2000/svg"
   xmlns="http://www.w3.org/2000/svg"
   xmlns:sodipodi="http://sodipodi.sourceforge.net/DTD/sodipodi-0.dtd"
   xmlns:inkscape="http://www.inkscape.org/namespaces/inkscape"
   inkscape:version="1.0 (4035a4f, 2020-05-01)"
   height="271.07175"
   width="233.4545"
   sodipodi:docname="bear-head-couped.svg"
   xml:space="preserve"
   viewBox="0 0 233.4545 271.07175"
   y="0px"
   x="0px"
   id="Layer_1"
   version="1.1"><metadata
   id="metadata3219"><rdf:RDF><cc:Work
       rdf:about=""><dc:format>image/svg+xml</dc:format><dc:type
         rdf:resource="http://purl.org/dc/dcmitype/StillImage" /><dc:title></dc:title></cc:Work></rdf:RDF></metadata><defs
   id="defs3217" /><sodipodi:namedview
   inkscape:current-layer="Layer_1"
   inkscape:window-maximized="0"
   inkscape:window-y="25"
   inkscape:window-x="0"
   inkscape:cy="170.98258"
   inkscape:cx="106.32709"
   inkscape:zoom="2.52"
   fit-margin-bottom="0"
   fit-margin-right="0"
   fit-margin-left="0"
   fit-margin-top="0"
   showgrid="false"
   id="namedview3215"
   inkscape:window-height="480"
   inkscape:window-width="820"
   inkscape:pageshadow="2"
   inkscape:pageopacity="0"
   guidetolerance="10"
   gridtolerance="10"
   objecttolerance="10"
   borderopacity="1"
   bordercolor="#666666"
   pagecolor="#ffffff" />
<style
   id="style3046"
   type="text/css">
	.st0{fill:#FFFFFF;}
  .st1{fill:#000000;}
</style>
<g
   transform="translate(-43.672913,-29.017422)"
   id="g3212">
	<g
   id="g3210">
		<path
   id="path3048"
   d="m 259.1,231.4 c 1.5,5.2 1.3,9.7 -2.1,14.2 -6.7,8.8 -1.9,15.8 5.2,20.4 2,1.3 4.1,1.6 6.4,0 1.3,-1 3.2,-3.4 4.8,-1 1.4,2.2 1.6,5.3 -1.1,7.1 -2.5,1.7 -5.4,2.9 -8,4.3 0.7,1.9 4.6,2.8 1.8,6.1 -3.7,4.4 -7.5,2.2 -11.6,0.3 0.7,3.7 0.6,7.3 4.7,8.8 0.6,0.2 1,0.9 0.7,1.6 -0.4,1.1 -1.4,0.6 -2.1,0.7 -7.5,0.7 -14.8,-1.2 -22.3,-1 -3.8,0.1 -7.4,0.9 -10.9,2.1 -6.1,2 -12.6,1.4 -18.7,0.7 -6.1,-0.7 -12.2,-0.5 -18.3,-0.7 -6.2,-0.2 -12.3,0 -18.5,0 -3.4,0 -6.7,0.2 -10.1,1.4 -3.3,1.2 -6.9,1 -10.6,-0.2 -8.9,-3.1 -18,-2.9 -27.1,-1.2 -1,0.2 -2,-0.1 -2.7,0.9 -2.8,4.1 -6.9,4.1 -10.4,2 -5.6,-3.4 -12.9,0.1 -17.6,-4.2 -5.6,-5.2 -8.9,-3.5 -13.6,1.2 -4.7,4.8 -11.2,6 -18.7,4.7 7.3,-5.6 0.3,-11 0.5,-16.5 0.1,-1.7 -1.8,-0.9 -2.8,-1 -3,-0.2 -6,-0.1 -8.9,-0.5 -0.6,-0.1 -2.3,-0.3 -2.2,-2.1 0.1,-1.4 1.1,-1.4 1.9,-1.8 0.6,-0.3 1.2,-0.7 1.8,-0.8 7.9,-0.6 10.5,-6.7 13.7,-12.5 2.1,-3.8 4.8,-7.2 7.4,-11 -3,-1.2 -6.6,1 -9.2,-2 -0.6,-0.7 -1.7,-0.7 -1.6,-2.1 0.2,-1.6 1.3,-1.1 2.2,-1.2 9,-1.2 11.4,-4.9 12.9,-14.1 1,-6 3,-11.9 3.5,-18 0.4,-4.7 4.3,-7.1 7.2,-10.3 -3.2,-2 -6.8,-3.4 -9.2,-6.8 1.7,-1.2 3.3,-0.9 4.6,-0.7 7.7,0.9 12.1,-1.1 15.4,-8.4 4.6,-10.3 12.5,-15.3 23.6,-15.6 1.6,0 2.8,0 2.8,-2.3 0,-2.2 -0.6,-2.8 -2.8,-2.8 -9.8,0.1 -19.7,0.3 -29.5,0 -8.7,-0.3 -16.9,-2.6 -23.3,-9.1 -1.9,-1.9 -3.2,-1.3 -4.8,0 -0.4,0.3 -0.7,0.7 -1.1,1.1 -2.7,2.7 -5.7,4.9 -9.3,1.8 -2.4,-2 -1.6,-7.4 1.1,-10.7 5.2,-6.1 11.4,-10.5 19.6,-12.1 -7.6,-3.2 -15.9,-4 -20.8,-10.5 -3.3,-4.3 -6.8,-9 -7.3,-14.9 -0.3,-4.7 1.9,-7.2 6.2,-8.6 13.2,-4 26.4,-7.9 39.5,-12.3 18.2,-6.2 36.1,-13.3 52.6,-23.5 8.3,-5.1 17.6,-8.7 27.1,-11 6.4,-1.5 9.9,-5.2 11.9,-10.9 2.6,-7.4 8.9,-10.2 15.4,-12 5.7,-1.6 11.5,-2.7 16.7,-5.8 4.6,-2.7 8.6,-2.4 7.8,4.5 -0.6,5 0.5,10.2 -1,15.3 -0.3,1.2 -0.9,2.9 1.3,4.2 1.9,1.1 3,0.1 3.9,-0.5 5.6,-3.3 11.4,-5.1 18,-4.9 5.4,0.1 10.9,0.9 16.3,-0.8 2.2,-0.7 4.9,-0.3 6,2.2 1,2.2 0.6,4.5 -1.5,6.2 -2.3,1.9 -3.1,4.5 -3.1,7.4 0.1,4.2 -1.1,8.2 -2.6,11.8 -1.4,3.5 -1,4.3 2.2,5.8 4,1.9 6.3,5.4 6.4,10 0.1,3.8 0.2,7.7 0,11.5 -0.4,7.9 1.4,14.2 9.9,16.4 0.4,2.2 -1.8,2.4 -2.1,2.3 -7,-0.5 -5.5,4.4 -4.4,7.8 0.9,2.9 0.5,5.3 -0.3,8 -2.3,7.9 0.3,14.9 4.5,21.4 1.3,2 4.3,3.8 1.7,6.2 -2.2,2 -5.6,1.6 -8.3,0.2 -1.2,-0.6 -1.7,-2.4 -3.1,-4.4 -0.9,5.8 0.2,9.5 3,12.4 1.3,1.3 2.6,2.6 3.9,3.9 0.8,0.8 1.7,1.6 1.3,3 -0.5,1.7 -2,0.9 -2.9,0.9 -3.6,-0.2 -5,-0.3 -4.3,4.8 1.2,8.7 -1.6,17.4 -3.1,26 -1,5.9 -0.1,11 4.7,15.1 1.2,1 2.8,1.9 2.7,3.9 -0.1,2.1 0.3,4.2 -3.1,2.7 -2.3,-1.4 -4.9,-1.8 -7.8,-2.5 z"
   class="st1" />
		<path
   id="path3050"
   d="m 92.1,241.1 c -1.7,-0.6 -3,0.8 -5.1,0.8 2.3,-3 4.4,-5.7 8.4,-7.7 -4.3,-0.5 -6.3,1.3 -8.5,3.8 -5.7,6.5 -12,12.1 -21.3,13.6 0,-1 -0.1,-1.4 0,-1.4 8.2,-2.3 11.9,-7.9 12.5,-16.3 0.3,-3.6 1.4,-7.5 5.7,-9.5 1.3,-0.6 3.2,-1.8 3,-4.3 -3,-0.6 -2.8,4.1 -5.7,3.2 -0.7,-5.7 -0.2,-11.2 5.6,-14.6 6.3,-3.7 6.4,-3.6 9.7,3.1 1.2,-1.1 2.9,-1.8 2.5,-3.9 0.5,-0.5 1.2,-0.7 1.6,-1.2 -0.5,0.4 -1,0.8 -1.4,1.4 -3.1,-0.2 -3.5,-1.6 -2.1,-4.2 0.8,-1.6 3,-2.2 3,-4.9 -5.5,1.6 -10.4,8.6 -16.8,2 5.7,0.6 9.4,-2.3 13.1,-6 6,-6 14.6,-7.1 22.2,-10.1 0.4,-0.2 0.8,-0.3 2.1,-0.8 -8.1,-0.8 -13.7,4.3 -20.5,5.3 0.6,-3.3 4.4,-2.6 5.8,-5 -0.2,-0.8 -4.3,0 -1.2,-2.7 4.4,-3.7 9.6,-4.9 15.1,-5.9 -2.7,5.2 -8.6,4.8 -12.8,7.8 4.5,0.9 7.8,-1.8 11.4,-2.9 2.3,-0.7 4.2,-2.3 6.6,-3 1,-0.3 3.6,-0.2 2.8,-2.3 -0.7,-1.9 -2.1,1.4 -3.3,0.1 0.3,-1.9 1.5,-3.3 3.1,-4.4 2,3 4.9,5.9 -0.1,9.5 7,-1.5 5.2,-8.6 8.6,-12.1 2.5,10.3 -2.5,16.1 -11.7,20.2 11.6,0.1 13,-4.8 16.3,-18 2,1.5 3.5,3.5 5.2,4.7 3,2.2 5.5,6.7 11.4,4 2.1,-1 7,2.9 9.3,6.4 0.9,1.4 1.5,2.9 2.9,3.8 0.3,-0.5 0.7,-0.9 0.9,-1.4 0.9,-2.4 -1.5,-2.8 -2.5,-4 -1.4,-1.7 -3.2,-3.1 -4.4,-5.2 7.6,4.9 15.4,9.5 21.2,16.8 -1.6,-5.9 -6,-9 -10.6,-12 -1.3,-0.8 -3.8,-1.4 -1.2,-3.6 -1,-0.5 -0.3,-2.3 -2.1,-2.4 -2.9,-0.1 -5.5,-2.5 -8.7,-1.5 -1.4,0.4 -2.7,-0.7 -3.7,-1.7 -1,-1.1 -2,-2.4 -3.8,-1.5 -0.4,1.5 2.6,3 0.3,4.4 -2.1,1.3 -2.7,-1.2 -3.8,-2.2 -2.9,-2.6 -5.6,-5.2 -9.4,-6.7 -5.7,-2.2 -6.2,-5.1 -3,-11.7 1.7,4.6 6.3,5.6 9.2,8.7 -3.2,-1.4 -6.3,-2.8 -9.5,-4.3 7.1,6.9 17.1,7.2 25.2,11.6 -7.2,-6 -16.4,-9.1 -23.3,-16.7 10.2,0.2 14.6,8.3 21.6,12.6 -0.8,-3.7 -0.8,-3.7 3.7,-3.1 -2,-2.8 -2.2,-3.3 -3.7,-2.7 -3.4,1.4 -4.7,-0.1 -6.3,-2.9 -2.2,-3.7 -6.2,-6.2 -9.9,-7.6 -3,-1.1 -7.1,0.9 -10.2,2.7 -1.9,1.1 -5.2,1.1 -5.2,4.5 -0.4,-0.1 -0.8,-0.3 -1.2,-0.5 0.4,0.3 0.9,0.4 1.4,0.4 1.4,3.8 2,-1.8 3.7,1.1 0.4,2.9 -2.6,6.6 -2.7,11.3 -3,-11.6 -11.5,-16 -22.2,-17.5 3.8,1.8 7.7,3.5 11.4,5.4 4.1,2 5.9,6.8 3.8,9.7 -0.7,-6.4 -11.1,-13.3 -20.9,-13.3 5.7,3.6 12.4,3.8 16.8,9.7 -9.4,-1 -15.5,-9.6 -25.2,-8.9 2.3,3.1 6.4,2 8.6,4.5 -5.3,2.2 -9.2,-2.7 -14.6,-2.8 1.1,1.7 3.3,0.7 3.6,2.9 -3.1,-0.8 -6,1.7 -9.2,0.9 9.6,1.8 19.6,-0.1 29,3 -12.7,-0.3 -25.8,2.6 -37.9,-3.8 -2.1,-1.1 -5.4,-2.4 -4.9,-4.6 0.5,-2.1 3.9,-2.1 6.4,-2.3 11.9,-0.7 23.7,-1.4 35.3,-4.5 3,-0.8 6.3,-0.3 9.4,-0.4 1.7,-0.1 3.8,0.5 4.9,-0.3 4.4,-3.3 8,-1.3 11.8,1.1 0.9,0.6 2.6,1.4 3,1 5.5,-4.4 8.9,-0.1 12.7,2.8 1.1,0.9 2.5,2.2 3.7,2.2 4.8,-0.1 9.1,1.9 13.6,2.8 6,1.2 12.4,2.2 18.7,1.3 1.2,1.5 3.2,1.1 4.8,1.9 0.5,0.4 1.1,0.6 1.8,0.7 0.3,0.1 0.6,0.2 0.9,0.3 -0.3,-0.3 -0.7,-0.2 -1,-0.3 -0.5,-0.1 -0.9,-0.2 -1.4,-0.5 -1.5,-1.1 -3.7,-0.7 -5.2,-2 0.5,-2 3.4,-0.3 3.8,-2.7 -2.9,-1.5 -6,-3 -9.4,-4.6 -0.5,3.7 2.9,3.1 4.1,4.6 -4.8,1.2 -6,0.9 -10.5,-1.7 -3.1,-1.8 -4.1,-6.3 -9.1,-6.8 2.3,3 4,5.3 6.5,8.6 -7.8,-2.2 -11.8,-7.8 -16.8,-12.3 0.6,3.6 3.6,5.7 5.3,8.8 -5.5,0.9 -9.4,-2.3 -12,-6 -2,-2.7 -4.3,-4.3 -7.1,-5.5 -2.3,-1 -5.1,-1.1 -6.1,-4.1 0,-0.1 -1.5,-1.4 -2.3,-0.5 -0.3,0.4 -0.1,1.8 0.3,2.2 1.6,1.4 2.6,3.5 4.8,4.2 0.6,0.2 2,0.7 1,2.1 -0.7,1 -1.7,1 -2.7,0.7 -1.6,-0.4 -7.6,-8.7 -7.3,-10.2 0.2,-0.8 1.5,-2.3 1.7,-2.2 2.1,1 4.1,-2.1 6.2,0 2,2.1 3.9,4.5 7.6,4.3 -3.7,-3.2 -6.3,-7.7 -11.8,-6.9 -3.1,0.5 -5.2,-0.1 -8,-2.2 -4.3,-3.2 -9.1,0.1 -13.6,1.5 4.5,1.1 9.5,-0.6 13.3,3.4 0.7,0.7 1.6,1.2 1.3,2.1 -0.7,1.9 -2.1,0.1 -2.6,-0.1 -7.8,-3.1 -15.5,-2.1 -23.4,0.1 -7.7,2.1 -15.4,0 -23.1,-1 -1,-0.1 -2,-1.1 -3.2,-0.9 -6.5,1.3 -11.4,-2.9 -17,-4.8 -2.9,-1 -4.9,-3.4 -5.4,-5.9 -0.5,-2.5 2.7,-3.4 4.7,-4.2 2.6,-1.1 2,-3.1 2,-5 0,-1.1 -0.8,-1.9 -1.8,-2 -1.3,-0.2 -1,1 -1.1,1.7 -0.5,2.5 -3.1,3.1 -4.7,3.9 -2.3,1.1 -4.5,-1.1 -4.1,-3.4 0.5,-3.4 1.6,-7.4 5.6,-8.1 16.5,-3.2 31.6,-10.7 47.6,-15.1 17.8,-4.9 32.7,-15.5 49.1,-23.2 12,-5.7 24.7,-7.8 37.6,-10.1 6.5,-1.1 13.1,0.1 19.6,-1.4 1.2,-0.3 3.2,0.5 4.9,-0.8 1.1,3.4 -2.3,2.9 -3.2,4.7 0.3,1.2 3.3,0.1 2.7,2.5 -0.7,2.8 -3.2,1.7 -4.8,2.4 2.7,1.9 8.4,0.8 10.6,-2.9 3.5,-5.7 8.4,-9 14.4,-11.2 3.4,-1.2 6.8,-1.5 10.5,-1.5 4.4,0 8.8,-1.6 12.9,1.7 0.5,0.4 2.6,-0.9 3.8,-1.7 0.9,-0.5 1.6,-1.2 2.6,-0.1 0.6,0.6 1.2,1.2 0.6,2.1 -1,1.4 -1.6,1 -2.1,-0.4 -2,0.9 -2.7,2.8 -2.6,4.6 0.6,9.8 -13.5,12.8 -19.4,10 -0.7,-0.3 -1.2,-1 -2.1,-1.1 -1.6,-0.1 -3.8,1.9 -4.5,-1.8 -0.2,-1.1 -3.5,0.8 -5.4,1.1 -1,0.2 -2,0.9 -3.3,0.8 0.9,1.9 3.6,-0.1 3.6,1.9 0,2.5 -3,2 -4.2,3.5 1,0.9 2.5,1.9 1.7,3.7 -0.8,1.9 -3.4,2.7 -8.7,3.1 1.7,1.7 1.7,1.7 3.2,1.7 5.3,0 10.4,0.3 14.8,3.9 0.6,0.5 1.9,0.3 2.7,-0.6 1.1,-1.3 -0.2,-1.9 -0.8,-2.1 -1,-0.4 -1.8,-0.8 -2.1,-1.9 2.3,-1 4.3,1.7 6.6,0.6 l -0.1,-0.1 c 2.7,2.2 4.8,2.1 7.1,-0.9 1.3,-1.8 2.5,-3.8 5.2,-4.6 1.6,-0.5 3.9,-2.3 2.7,-5.1 -1.9,0.6 -2.6,3.9 -6.4,2.1 1.3,-0.8 2.2,-2 3.2,-2 2.3,-0.1 3.6,-4.7 5.1,-2.4 1.1,1.8 0,6.1 -2.5,8 -3.3,2.5 -6.4,5.2 -8.9,9 2.5,-0.1 5.1,1.2 6.5,-1.3 0.4,-0.8 -1.7,-0.2 -2.5,-1.2 2,0.1 3.6,-3.4 4.3,-2 2.2,4.2 8.6,4.9 8.6,10.6 0,3.2 -0.5,6.4 0.2,9.4 0.7,2.9 0.8,5.8 0.8,9.3 -5,-1.7 -7.7,-7.7 -13.5,-7.2 -1.8,0.3 -3.7,0.7 -5.6,0 1.9,1.2 3.8,0.2 5.6,-0.1 -0.1,0.3 -0.3,0.8 -0.2,0.9 7.7,4.3 14.2,10.1 20.3,16.5 -2.3,-0.1 -4.7,0.9 -6.6,-1.4 -5.2,-6.5 -12.8,-9 -20,-12 -3.7,-1.6 -5.5,-5.6 -9.9,-6.2 2.2,-3 5,-2 7.4,-2.3 -3.1,-4.8 -12.8,-6.6 -17.2,-3.1 3.9,0.6 7.8,-0.4 11.4,1.1 0.4,0.2 1,0 1,1.1 -0.9,0 -1.8,-0.1 -2.7,0 -1.8,0.2 -4,-2.7 -5,0.1 -0.4,1 2,3.7 3.7,4.5 6.3,3.1 11.3,8.6 18.6,10.2 -4,2.2 -8.9,-0.2 -12.9,2.8 6.4,0.4 11.4,6 18.6,3.9 -3.4,-1 -6.2,-2.7 -9.5,-3.1 3.3,0.1 7.8,-3.4 9.1,-1 3.3,6.1 12.6,8.9 10.1,18.4 -1.1,-2.1 -2.1,-4 -3.1,-6 -3.4,-6.8 -6.9,-8.5 -14.2,-6.6 -3.6,0.9 -7.2,-1.7 -11.4,0.4 6.1,0.2 11.4,2.1 17.2,2 4,-0.1 4.4,4.7 6.4,8.1 -3.9,-0.9 -5.5,-3.7 -7.7,-5.7 -1.1,-1 -2.4,-1.8 -3.4,-0.6 -0.9,1.1 0.9,1.8 1.4,2.7 2.8,5.3 9.3,5.3 13.1,9.3 0.6,0.6 1.1,1.3 1.1,1.9 0.2,4.1 -0.4,8.1 0.8,12.2 -2.9,-2.6 -7.4,-4.2 -3.5,-9.6 1.4,-1.9 -0.3,-4.1 -3,-5.4 -0.3,3.1 3.4,8.6 -4.1,6.6 1.9,5.4 7,7.9 10.5,11.7 2.3,2.6 3.6,6.4 7.3,7.7 0.7,0.2 1.4,1.2 0.6,2 -0.6,0.6 -1.6,0.6 -2.3,0.1 -3.3,-2.7 -7.2,-4.6 -9.5,-8.7 -2.2,-3.9 -5.5,-7.2 -11.2,-6.5 7.1,4.1 13.5,8.5 9.8,18 -1.3,-0.5 -2.5,-1.4 -2.5,-3.4 0.1,-6.5 -2.8,-9.3 -10.2,-8.9 2.8,2.5 7.5,1.7 8.2,6.8 -1.8,-1.5 -3.2,-2.7 -4.9,-4.2 2.9,9.4 10.6,14.2 17.5,21 -10.1,0.2 -13.9,-9.1 -21,-12.2 -0.3,0.4 -0.7,0.8 -1,1.2 3.4,3.4 6.7,7 10.3,10.2 3.9,3.6 5.5,7.9 5.1,14.5 -2.7,-3.9 -7,-5.1 -7,-10.1 0,-4.7 -4.6,-3.5 -6.8,-5.2 -3.5,-2.7 -9.9,-0.2 -11.1,-6.4 -0.2,-1.1 -0.9,-1.2 -1.8,-0.6 -5.7,3.9 -10.9,-0.2 -16.3,-1 -0.8,-0.1 -1.5,-0.4 -2.4,-0.1 1.9,2.9 4.6,3.8 7.8,3.7 6,-0.1 11.6,0.3 16.4,4.8 1.3,1.2 3.5,2 5.7,2.3 3.1,0.5 6.5,1.3 6.9,5.6 0.2,2.1 2.5,2.7 3.7,4.1 4,4.7 2.7,10.2 2.7,15.7 -1.3,-5.9 -3.2,-11.2 -10.4,-12.2 6.6,3.9 7.3,10.9 9.6,17.3 -1,0.3 -1.3,-0.5 -1.8,-1 -0.4,-0.5 -0.8,-1 -1.1,-1.6 -3.8,-8.6 -10.2,-14.3 -19.3,-16.9 -1.4,-0.4 -3,-0.9 -2.5,-2.3 0.6,-1.9 1.9,0.5 2.7,0.2 1.9,-1 4.5,-1 5.3,-3.5 0.9,-2.6 -1.6,-3.5 -2.9,-4.2 -5.4,-2.6 -10.3,-6.5 -17.2,-5.3 -6.8,1.2 -13.2,-1.6 -19.7,-3.6 4.2,4.2 9.8,4.4 15.1,5.7 0.6,0.2 1.3,0.1 2,0.1 -1.4,1.8 0.1,1.5 1.2,2.2 3.2,2.1 1.8,-1.6 2.8,-2 1.9,-0.8 3.7,0.2 5.6,0.6 4,0.8 6.9,3.1 9.9,5.6 -4.8,2.4 -7.4,-3.4 -11.7,-2.4 0.4,1.9 2.1,2.5 3.4,3.6 -2.3,1.4 -4.2,-2.2 -6.4,0 2.9,0.9 4.9,3.3 7.1,5.5 3.5,3.6 8.8,3.4 12.8,6.6 3.1,2.6 5.7,5.3 7.4,8.6 2.8,5.4 5.9,10.7 7.9,16.5 1.2,3.7 5,5.6 7.5,8.8 -6.4,-0.8 -10.1,-4 -12.1,-10.1 -1.5,-4.7 -3.1,-9.6 -7.8,-12.4 -0.4,-0.2 -1.2,-1.5 -1.9,-0.4 -0.3,0.4 -0.3,1.5 0.1,1.9 5.7,5.6 4.9,13.8 8.7,20.2 3.6,6.1 2,11.5 -2,17 -3.1,4.3 -3.2,9.8 -0.5,13.8 3.2,4.7 7.5,9.1 14.2,9.5 2.8,0.2 3.4,-3 5.9,-3.1 -0.8,3.7 -6,6.9 -9.8,5.8 -7.9,-2.2 -14.9,-5.5 -16.7,-14.7 -0.3,-1.3 -0.6,-2.2 -2.6,-1.4 -2.4,1 -0.7,1.7 -0.5,2.9 2.1,8.5 9.3,12 15.8,16.2 2.2,1.5 4,3.1 6,6.1 -6.4,-0.1 -10.9,-2.7 -15.1,-5.8 -4.8,-3.6 -7,-8.9 -9.7,-13.9 -0.5,-0.8 0.2,-4 -2.6,-2.3 -1.8,1.1 0,2.2 0.3,3.2 1.2,3.6 4.3,6.3 5.4,10.7 -5.8,-3.1 -9.6,-7.1 -11.1,-13.3 -0.6,-2.6 -0.8,-5.9 -4.7,-6.6 1.6,9.5 4.5,17.9 14.4,22.1 -3,1.4 -3,1.4 -12.4,-2.6 3.1,6.1 7.8,7.9 13.7,5.1 0.6,-0.3 1.2,-0.9 1.7,-0.3 0.4,0.4 0.6,1.5 0.3,1.8 -1.7,1.9 -0.7,3.1 1.7,3.7 -1.8,1.4 -3,-0.8 -4.1,0.7 2,1.2 3.5,3.2 6.2,3.4 1.4,-3.2 -3.3,-5.3 -1.4,-8.3 4.6,2.1 5.4,6.6 6.7,11.4 -13.3,-0.6 -20.6,-10.7 -30.2,-18.6 2.3,8.2 8.5,11.6 14,15.8 -5,1.3 -5.2,1.5 -14.3,-5.4 -4.8,-3.7 -9.1,-8.2 -12,-13.7 -0.4,-0.7 -0.2,-2.8 -2.1,-1.8 -1.3,0.7 -1.6,1.9 -1.1,3.4 1.1,3.3 4.1,5 6,7.6 3.3,4.5 6.7,9.3 12.8,11 -5.6,3 -6.6,2.7 -11,-2.5 -2.2,-2.5 -3.5,-5.9 -6.6,-7.6 -1.8,2.5 1.9,3.2 1.4,5.6 -3.6,-2.1 -5.4,-6.4 -9.6,-7.5 -0.9,2.4 0.6,3.6 1.9,4.3 3.6,1.9 5.5,5.6 9,7.5 0.7,0.4 2,0.7 1.1,2 -0.7,1 -2,1.3 -2.6,0.8 -4.1,-3.7 -10.1,-5.3 -12.7,-10.8 -1.4,-2.9 -3.6,-6.1 1.4,-8.1 0.6,-0.2 0.8,-1 0.3,-1.7 -8.7,2.8 -10.3,1.4 -14.5,-13.3 -2.7,5.1 -0.3,12.7 5.7,15.8 2.8,1.4 3.7,3.4 4,5.8 0.5,4.8 3.8,7.7 7.4,12.1 -9.9,-3.4 -14.5,-9.8 -16,-19.4 -2.1,5.2 -1.9,6.3 2.5,15.2 -6.3,-1.1 -6.4,-1.3 -11.8,-12.5 -2,4.7 -1.2,6.5 3.8,11.5 3.3,3.3 7.9,2.9 12.8,4.7 -7,1.3 -8.1,1.2 -13.7,-2.3 -3.9,-2.4 -6.5,-5.6 -8.3,-10.1 -1.9,-4.8 0.9,-9 0.1,-13.5 -6.7,6.5 -5.4,14.9 3.8,25 -4.3,0.3 -5,-0.5 -13,-14 -1.2,6.3 0.9,10.8 7.1,15.3 -6.2,1.7 -9.2,-4.5 -14.5,-6.3 0.8,3.8 2.9,5.5 5.3,7 -3,2.2 -8.3,2.2 -12.6,0 -3.8,-1.9 -7.6,-3.8 -11.7,-5.8 -0.5,2.6 1.4,3 2.7,4 -4.7,1.1 -7.8,-0.1 -10.2,-4.2 -2,-3.5 -6.1,-5.3 -7.9,-9.3 -2,-4.5 -2.2,-8.7 0.1,-13.2 -7.2,6.7 -5.5,12.1 7.6,26.3 -8.8,2 -19.9,-7.5 -19.4,-17 2.4,0.2 2.1,5.6 6.2,2.8 -7.4,-9 -2.3,-16.8 2.2,-25 -4.1,0.6 -4.4,5 -6.2,7.5 -1.6,2.3 -1.9,5.8 -2.3,8.8 -0.3,2.3 -0.5,4.3 -1.9,6.3 -2.5,3.7 -0.2,7.3 2.2,9.9 2.7,3 6.1,5.3 9.2,7.9 -4.4,4.9 -9.6,4.7 -16.1,-0.7 -0.3,-0.2 -0.5,-0.5 -0.7,-0.7 -1.8,-1.1 -2.9,-4.9 -5.4,-2.7 -2,1.8 1.9,3.2 2.4,5.6 -4.4,-1.2 -8.2,-2.8 -11,-6 -1.9,-2.2 -3.3,-2.7 -5.4,-0.1 -4.4,5.4 -10.2,8.8 -16.8,10.7 0.9,-3 0.7,-6.1 -0.7,-8.8 -2.3,-4.5 -2.1,-8.6 2.2,-11.3 3.8,-2.4 5.8,-6.1 9.1,-9.7 -4.9,0.1 -6.2,4.2 -8.7,6.3 -4.8,3.9 -9.8,6.2 -16.4,5.6 0.5,-0.7 0.9,-1.6 1.2,-1.6 8.3,0.7 11.1,-5.5 14.1,-11.3 4,-7.8 9.4,-14.4 16.3,-19.9 0.9,1.9 -0.9,2.4 -1.7,3.2 -1,1.1 -1.5,2.2 -0.6,3.5 2.4,3.6 1.8,6.6 -2.1,9.2 -1.3,0.9 -2.7,1.6 -4.3,2.5 2.4,0.6 4.4,0.8 6,-1.2 0.6,-0.8 1.3,-2.1 2.2,0.1 0.3,0.9 2.6,0.8 1,2.7 -1.2,1.5 -1.8,3.5 -3.1,4.9 -1.7,1.9 -1.9,4.2 -0.6,5.8 1.5,1.8 3.8,2.8 6.6,1.4 -5.1,-4 -4.4,-9.5 1.9,-13.9 2.2,-1.5 4,-3.1 5.7,-5.2 -2.9,-1.2 -3.9,1.6 -5.8,2.2 -1.4,0.5 -2.4,0.6 -3.6,-0.5 -1.3,-1.3 0,-2.2 0.5,-3 1.4,-2.3 2.9,-4.6 3,-7.9 -1.7,0.5 -2.5,2.7 -4.3,1.7 0.1,-6.2 5.3,-8.6 9.2,-11.9 0.5,-0.4 1,-0.8 1.5,-1.1 -1.2,1.6 -1.7,2 -2,2.5 z"
   class="st0" />
		<path
   id="path3052"
   d="m 107.1,148.7 c -5.3,0.9 -7.7,-1.5 -9.9,-4 -2.1,-2.4 -4.7,-2.4 -5.5,0.2 -2.6,8.5 -10,6.5 -15.4,6.8 -7.3,0.3 -13,3.3 -18.7,7.1 -1.2,0.8 -2.4,2.7 -4,1.2 -1.4,-1.2 -1,-2.9 0.1,-4.4 4.1,-5.8 8.7,-10.9 16,-12.6 1,-0.2 1.8,-0.5 2.7,-0.9 4,-2 7.1,-0.9 9,3.1 0.9,1.8 1.8,3.2 4,2.7 1.9,-0.4 3.1,-1.6 3.4,-3.7 0.4,-2.7 1.6,-3 4.5,-2.5 5.1,0.8 10.4,0.4 15.5,-1.3 5.8,-1.9 11.1,0.6 16.4,2.7 1.1,0.5 1.8,1.5 1.4,2.9 -0.3,1.5 -1.6,0.7 -2.4,1 -5.8,2.3 -12.5,-0.5 -17.1,1.7 z"
   class="st0" />
		<path
   id="path3054"
   d="m 195.9,51.9 c -6.3,-1.9 -10.6,2.1 -15.8,5.8 6.4,-15.1 7.3,-15.8 22.2,-19.8 5,-1.3 9.9,-3 14.8,-5 -1.4,1.2 -3,2.2 -4,3.7 -0.6,0.9 -4.5,2.5 0.1,3.8 0.5,0.1 -0.7,4.3 -2.6,5.2 -2.3,1.1 -3.2,3.7 -5.6,4.4 4.4,-0.4 6.5,-4.8 10.7,-5.5 0.3,3.4 -0.5,6.6 -3.1,9.4 -0.6,0.7 -1.5,1.9 -2.4,0.8 -1,-1.3 0.5,-1.5 1.4,-1.8 -1.4,-2.7 2.7,-2.9 2.1,-5.9 -6,5.1 -12,10.1 -20.4,7.5 0.4,-1 2.9,-0.6 2.3,-2.7 3.8,-0.9 6.1,-4.3 8.1,-5.3 -1.9,1.1 -4.4,3.9 -7.8,5.4 z"
   class="st0" />
		<path
   id="path3056"
   d="m 94.4,144.2 c 0.9,3.3 3.3,4.3 4.5,6.8 -2.5,-0.2 -5.2,1 -6.6,-0.6 -1.6,-1.8 1.7,-3.1 2.1,-6.2 z"
   class="st0" />
		<path
   id="path3058"
   d="m 235.2,73.2 c 3,-0.1 5.8,-0.3 8.6,-0.4 -1.4,3.3 -3.6,3.5 -8.6,0.4 z"
   class="st0" />
		<path
   id="path3060"
   d="m 82,142.1 c 2,-0.1 3.5,-0.4 5.1,0.4 -0.6,1.2 -1.1,2.4 -1.9,4.1 -1.2,-1.7 -2.1,-2.9 -3.2,-4.5 z"
   class="st0" />
		<path
   id="path3062"
   d="m 239.8,80.9 c 1.3,-1.3 2.1,-3.4 5.4,-2.5 -2.5,0.5 -3,3.4 -5.6,2.4 0.1,-0.1 0.2,0.1 0.2,0.1 z"
   class="st0" />
		<path
   id="path3064"
   d="m 134.1,103 c 3.1,-3.4 9.1,-1.2 11.1,-6.6 -5.4,-1 -10.4,-0.2 -15.5,1.5 5.1,-3.3 4.7,-11.2 11.8,-12.7 -0.1,3.5 -4.4,4.9 -4.3,9 2.6,-2.7 5.8,-3.9 7.1,-7.6 0.9,-2.7 3.7,-3 6.7,-2.1 -5.4,1 -4.6,6.7 -8.1,9.3 1.6,0.3 2.9,1 3.2,-1.3 0.3,-2.4 1.9,-4.1 3.7,-5.6 0.6,-0.5 1.9,-1.2 2,-0.4 0.3,5.8 3.4,1.4 5.3,1.7 2.9,0.4 5.8,1.5 7.5,4 3,4.2 7.3,4.4 11.5,3.7 2.2,-0.4 5.6,2.8 6.7,-1.7 5.1,4.3 3.7,-2 5.4,-3.2 1.5,-1.1 2.9,1 4.3,1.4 2.3,0.8 2.9,3.5 2.5,5.9 -0.2,1.1 -1.6,2.4 -2.6,1.7 -2.1,-1.8 -4,0.9 -6.1,-0.2 2.1,-1.4 4,-2.8 4.5,-6.7 -4.8,6.2 -10.4,7.6 -16.9,7 -3.4,-0.3 -6.3,-0.2 -8.9,3.2 -3.9,5 -10.2,5.3 -15,1.1 -2,-1.7 -4,-1.2 -6,-1.3 -3.2,-0.2 -6.4,-0.1 -9.9,-0.1 z"
   class="st1" />
		<path
   id="path3066"
   d="m 239.5,232.2 c 5.8,5.2 2.4,12.1 3.7,18.4 2.9,-4.6 4.7,-10.4 1.9,-14.3 -3.1,-4.4 -1.2,-9.4 -4.4,-13.9 -3.2,-4.6 -1.9,-5.5 -4.6,-7 5.2,-3.2 5.2,-3.2 -0.4,-7.5 -0.3,-0.3 -0.7,-0.7 -0.7,-1.1 0.1,-0.8 0.8,-1.1 1.4,-0.7 2.4,1.9 3.3,-0.4 4.2,-1.6 1.5,-2.2 -1.3,-2.4 -2.1,-3.5 -1.4,-1.9 -4.1,-2.1 -5.2,-4.4 6.2,-1.2 10.9,3.7 9.7,9.6 -1.1,5.2 -2.1,11.7 0.4,15.6 2.7,4.3 3.7,8.4 5,13 1.7,6.3 -0.9,11.8 -2.6,17.4 -0.3,1 -1.1,2 -2.6,1.5 -1.3,-0.4 -2.4,2 -4,0.7 -5.1,8.3 -5.7,0.6 -7.2,-2.2 -1.8,-3.5 -2.9,-7.4 -5.1,-10.8 5,3 6.6,8.4 9.3,13 1.8,-2.3 -0.2,-4.4 -0.4,-6.6 -0.2,-2.2 -0.1,-5.1 -1.4,-6.5 -1.9,-2.1 -1,-4.3 -1.8,-6.4 2.3,4.8 5.8,9.1 6.2,14.6 0.1,1 0.5,2.1 1.7,1.8 1.3,-0.3 0.4,-1.5 0.5,-2.2 1.3,-5.1 0,-9.8 -2.1,-14.3 -0.1,-0.5 -0.3,-1.7 0.6,-2.6 z"
   class="st1" />
		<path
   id="path3068"
   d="m 190.1,175.1 c -2.5,4.7 -5.7,1 -8.1,0.1 -1.8,-0.7 -3.8,-1.3 -6.7,-2.9 2.1,4.7 5.1,7.4 7.8,9.5 4.6,3.4 7.4,8.1 11.2,12.1 0.5,0.5 0.9,1.2 0.4,1.7 -0.8,0.7 -2.2,0.8 -2.7,-0.1 -3.8,-7.6 -13.1,-10.2 -16.5,-18.3 -1.1,-2.6 -3.9,-3.5 -6.4,-4.1 -2.5,-0.6 -4.5,-1.6 -6.1,-3.7 4,-2.2 5.9,4.1 9.8,2.2 0,-3.2 -4.4,-2.4 -4.5,-5.8 7.6,2.4 13.5,8.8 21.8,9.4 z"
   class="st1" />
		<path
   id="path3070"
   d="m 241.2,63.3 c 5.2,3.4 8.6,-3.2 14.1,-2.1 -3.2,2.5 -6.1,4.1 -9.5,4.7 -3.2,0.6 -6.5,2.2 -9.3,-1.6 -0.7,-0.9 -3.4,-0.4 -5.3,-0.8 3.6,-0.5 5,-3.9 7,-5.9 3.6,-3.8 7.5,-2.2 11.3,-2.5 1.8,-0.2 3,1.4 3.4,3 0.7,2.6 -1.9,1.6 -2.8,2.3 -2.6,2 -6.4,0.7 -8.9,2.9 z"
   class="st1" />
		<path
   id="path3072"
   d="m 190.3,175.3 c -0.7,-0.9 -1.4,-1.8 -2.2,-2.6 -1,-1 -1.9,-2.5 -0.6,-3.3 1.7,-1.1 1.2,1.3 2.1,1.8 5.6,3.1 11.6,5.1 17.7,6.8 2.1,0.6 4.1,0.9 5.6,2.6 -1.8,1 -3.7,1.9 -6,3.2 4.2,0.5 7,2.8 8.7,5.8 1.5,2.6 4.8,4.7 4.2,8.9 -4.7,-2.1 -3.9,-10.7 -11.8,-8.1 2.7,-1.7 3.3,-3.1 0.2,-4 -1.6,-0.5 -4.5,0.7 -4.7,-1.4 -0.2,-1.8 2.2,-3.4 5,-4.3 -7,-1 -11.8,-6.2 -18.4,-5.4 0,-0.2 0.2,0 0.2,0 z"
   class="st1" />
		<path
   id="path3074"
   d="m 220.5,186.8 c -1,2.3 0.8,2.8 1.5,3.7 3.2,4.1 4.2,11.8 1.9,16 -0.5,0.9 -1.2,1.8 -2.3,1.4 -0.3,-0.1 -0.7,-1.4 -0.5,-1.7 5.2,-7.2 -1,-12.4 -3.7,-17.9 -0.7,-1.5 1,-3.2 -1,-4 1.3,-0.2 2.5,-0.5 3.8,0.4 3,2.2 7.8,2.1 9.1,7.8 -3.4,-2.3 -6.1,-4 -8.8,-5.7 z"
   class="st1" />
		<path
   id="path3076"
   d="m 184,181.2 c 5.7,-5.6 10.6,0.1 15.7,0.2 0.4,0 1.4,1.6 1.2,1.8 -3.8,4.8 1.5,8.5 1.6,12.7 0,1.2 1.4,2.6 -0.8,3 -2.3,0.4 -1.8,-1.4 -1.7,-2.6 0.2,-2 -1.4,-2.8 -2.3,-4.1 -1.2,-1.8 -3,-4.1 -1.2,-6.2 3.6,-4 -1,-3.7 -2.2,-3.8 -3.2,-0.5 -6.4,-2.2 -10.3,-1 z"
   class="st1" />
		<path
   id="path3078"
   d="m 196.5,266 c -6.6,-0.2 -6.3,-5.7 -7.3,-9.4 -1.1,-4.1 2.3,-7.9 2,-12.7 1.6,2.2 0,4.4 1.7,6.3 1.4,-1.2 2.3,-2.6 2.2,-4.5 -0.1,-1.8 1,-2 2.2,-1.6 1.2,0.4 2.5,1.2 1.3,2.9 -0.7,1.1 -1.4,2.1 -2.2,3.2 -1.8,2.3 -6.3,2.1 -4.7,7.7 0.9,3.5 3.5,5 4.8,8.1 z"
   class="st1" />
		<path
   id="path3080"
   d="m 253.5,96.5 c -1.7,-1.1 -3.2,-3 -5.8,-2.7 -0.5,0.1 -2.2,-0.3 -2.3,-1.7 2.1,0 0,-2.9 2.2,-3.1 1.6,-0.1 1.4,1.2 1.9,1.7 3.1,2.7 7.2,3.9 10.2,7.3 -3.2,-0.5 -6,2.9 -8.5,1.4 -2.6,-1.5 -5.1,-2.5 -8.5,-2.6 4,-4.3 7.5,2.7 10.8,-0.3 z"
   class="st1" />
		<path
   id="path3082"
   d="m 210,214.2 c 6.9,-0.4 9.4,2.7 6.7,8.4 -1,2.2 -0.1,4.5 -1.5,6.6 -0.7,1 -0.7,2.1 -2.2,1.8 -1.5,-0.3 -0.9,-1.5 -1,-2.4 -0.1,-1.1 -0.5,-2.7 0.1,-3.4 3.9,-4.5 0.9,-7.7 -2.1,-11 z"
   class="st1" />
		<path
   id="path3084"
   d="m 221.4,160.5 c 4.9,2.1 10.6,-1.2 15.5,2.3 1.6,1.1 4.9,0.8 6.6,-1.8 0.4,-0.6 1.2,-1.5 2,-0.8 0.9,0.7 0.8,2 0.1,2.7 -1.7,1.7 -2.8,3.8 -6.5,2.4 -5.6,-2.2 -12.1,-1.8 -17.7,-4.8 z"
   class="st1" />
		<path
   id="path3086"
   d="m 160.5,113.1 c -2.7,0 -5.4,0 -8.9,0 3.3,3.1 6.7,3 10.3,2.9 -1.6,3.3 -4.2,-0.7 -5.6,1.9 0,0.8 1.4,0.9 2.3,1.6 -2.1,0.9 -3.2,0.3 -4.8,-1.2 -3.8,-3.5 -5.7,-8.4 -9.3,-12.3 5,3 9.6,6.9 16,7.1 z"
   class="st1" />
		<path
   id="path3088"
   d="m 250.3,190.9 c -3.5,0.4 -6.6,-0.5 -9.7,-3.9 3.4,0.9 6.2,1.2 8.2,-1.4 -0.8,-2.5 -4.4,-1.7 -5.6,-4.4 3.5,-0.4 6.4,-0.3 8,3.5 0.7,1.7 1.9,2.7 -1,3.5 -3.3,0.7 0.7,1.6 0.1,2.7 z"
   class="st1" />
		<path
   id="path3090"
   d="m 180.9,211.5 c 5.9,-0.5 11.5,3.6 12,8 0.1,0.8 0,1.9 -0.4,2.3 -0.7,0.6 -1.8,-0.1 -2,-0.9 -0.4,-2.5 -1.9,-4.1 -3.7,-5.5 -1.5,-1.2 -3.2,-2.2 -5.9,-3.9 z"
   class="st1" />
		<path
   id="path3092"
   d="m 214.3,254.9 c 3,5.9 3.6,12.3 8.9,16.3 -5.2,0.2 -9.5,-7.5 -8.9,-16.3 z"
   class="st1" />
		<path
   id="path3094"
   d="m 218.1,215.9 c 0.8,-6.1 -3.4,-9 -7,-12.4 4.6,0.7 7.5,3.6 9.4,7.6 1,1.9 0.8,2 -2.4,4.8 z"
   class="st1" />
		<path
   id="path3096"
   d="m 156.3,184.3 c 4.6,2 7.7,5.5 10.6,9.4 0.4,0.6 0.4,1.7 -0.4,2.2 -0.3,0.2 -1.2,0 -1.3,-0.3 -2.3,-4.4 -7,-6.7 -8.9,-11.3 z"
   class="st1" />
		<path
   id="path3098"
   d="m 160.5,126.7 c -7.1,-0.4 -13,-2.5 -15.4,-10.1 -0.2,-0.5 -1.3,-0.8 -0.4,-1.4 0.6,-0.4 2,-0.6 2.1,0.3 1.5,7.6 8.1,8.7 13.7,11.2 z"
   class="st1" />
		<path
   id="path3100"
   d="m 110.4,255 c -2.4,-5.7 3,-14 9,-14.7 -3.7,4.4 -9,7.8 -9,14.7 z"
   class="st1" />
		<path
   id="path3102"
   d="m 199.7,234 c 3.5,0.7 4.3,3.6 5.2,6.4 0.6,1.9 -0.8,3 -2.1,4.1 -0.7,0.6 -1.8,0.8 -2.2,0.1 -0.7,-1.1 1,-0.5 1.2,-1.3 0.9,-3.4 -2.5,-5.6 -2.1,-9.3 z"
   class="st1" />
		<path
   id="path3104"
   d="m 180.5,202.1 c 3.9,2.5 9.4,2.1 11.6,7.1 0.5,1.2 1.8,2.7 0.4,3.4 -1.9,1.1 -1.8,-1.5 -2.3,-2.3 -1.5,-2.5 -3.6,-4.5 -6.2,-5.3 -1.8,-0.4 -2.8,-1.3 -3.5,-2.9 z"
   class="st1" />
		<path
   id="path3106"
   d="m 138.2,284.8 c -5.1,0.2 -8.7,-1.5 -11.7,-4.8 -0.7,-0.8 -0.9,-2 -0.1,-2.7 1,-0.9 1.9,0.2 2.3,1 1.8,3.8 6.6,3.3 9.5,6.5 z"
   class="st1" />
		<path
   id="path3108"
   d="m 251.5,86.2 c 4.8,-1.9 6,2.9 8.7,4.8 1.8,1.2 1.2,3.5 -0.6,4.8 -2.8,-3.1 -2.7,-8.7 -8.1,-9.6 z"
   class="st1" />
		<path
   id="path3110"
   d="m 197.3,168.8 c -6.4,0.5 -11.5,-2.2 -17,-3.1 -0.7,-0.1 -1.5,-0.9 -1.3,-1.9 0.2,-1.1 1.6,-1.1 2,-0.7 4.5,4.1 10.7,3 16.3,5.7 z"
   class="st1" />
		<path
   id="path3112"
   d="m 248.8,227.4 c 4.1,4.8 3.3,10.1 2.8,15.3 -0.9,-5.1 -1.8,-10.2 -2.8,-15.3 z"
   class="st1" />
		<path
   id="path3114"
   d="m 188.4,232.1 c -3.1,-1.4 -2.5,-5.3 -5.2,-6.6 -0.4,-0.2 -0.2,-1.5 0.6,-1.4 0.8,0.1 1,-1.6 2.3,-0.2 2.1,2.4 4.1,4.5 2.3,8.2 z"
   class="st1" />
		<path
   id="path3116"
   d="m 234.9,154.5 c 5.4,-2.2 10.8,-1.9 13.8,-7.3 -0.3,5.4 -5.3,8 -13.8,7.3 z"
   class="st1" />
		<path
   id="path3118"
   d="m 71.8,282.9 c 0.5,5.1 -0.4,9 -3.9,12.1 0.6,-4 1.1,-8 3.9,-12.1 z"
   class="st1" />
		<path
   id="path3120"
   d="m 184.5,236.1 c 1.8,-0.2 2.8,1.3 3.2,2.4 0.5,1.5 0.2,3.2 0.1,4.9 0,0.2 -1.2,0.7 -1.7,0.5 -2.2,-0.6 -0.7,-2.5 -1.1,-3.7 -0.4,-1.3 -1.8,-2.5 -0.5,-4.1 z"
   class="st1" />
		<path
   id="path3122"
   d="m 261.8,107.8 c -2.8,-1.2 -3.5,-3.9 -5.3,-5.8 -1.2,-1.3 -0.1,-2.1 0.8,-2.7 1.4,-0.8 1.5,0.3 1.7,1.3 0.5,2.5 3.6,3.8 2.8,7.2 z"
   class="st1" />
		<path
   id="path3124"
   d="m 241.5,144.7 c 4.2,-1.6 7.6,-4.9 13.4,-6.1 -4.4,4.6 -9.3,4.6 -13.4,6.1 z"
   class="st1" />
		<path
   id="path3126"
   d="m 180.3,132.9 c -6.4,0.6 -10.6,-2.5 -14.8,-5.8 4.7,1.8 9.4,3.7 14.8,5.8 z"
   class="st1" />
		<path
   id="path3128"
   d="m 164.7,205.1 c 0,-3.6 -2.5,-5.5 -5.1,-7.8 5.6,0.5 7,2.6 5.1,7.8 z"
   class="st1" />
		<path
   id="path3130"
   d="m 218.5,165.4 c -4.5,1.3 -8,-0.1 -10.3,-3.9 3.6,0.8 6.4,3.9 10.3,3.9 z"
   class="st1" />
		<path
   id="path3132"
   d="m 156.6,234 c 1.4,2.7 -1.2,4.2 -1.7,6.4 -0.2,0.9 -1.4,0.8 -2.1,0.6 -1.1,-0.4 -0.8,-1.2 -0.2,-2 1.2,-1.7 1,-4.6 4,-5 z"
   class="st1" />
		<path
   id="path3134"
   d="m 99.4,214.2 c -2,3.1 -4.4,5.6 -8.7,6.6 1.7,-4.4 6.1,-4.3 8.7,-6.6 z"
   class="st1" />
		<path
   id="path3136"
   d="m 173.9,123.9 c 4.3,0.5 7.5,2.7 11.3,2.2 0.2,0 0.7,0.7 0.6,1 -0.1,0.3 -0.8,0.8 -1,0.7 -3.1,-2.1 -8,1 -10.9,-3.9 z"
   class="st1" />
		<path
   id="path3138"
   d="m 99.5,132.1 c 4.4,3 8.2,-1 12.2,-0.8 -3.9,3.6 -8,3.4 -12.2,0.8 z"
   class="st1" />
		<path
   id="path3140"
   d="m 249.5,102.5 c -2.7,3.5 -5.5,1.9 -8.3,-0.1 2.8,-3.2 5.5,0.3 8.3,0.1 -0.1,0 0,0 0,0 z"
   class="st1" />
		<path
   id="path3142"
   d="m 247,134.6 c 1.7,-2.4 2.8,-4.6 0,-8.3 6.4,5.1 6.3,5.3 0,8.3 z"
   class="st1" />
		<path
   id="path3144"
   d="m 163.9,217.1 c -0.4,-2.1 -2.1,-3.9 -1.1,-6 0.3,-0.5 1.9,-0.2 2.6,0.8 1.7,2.4 -0.5,3.5 -1.5,5.2 z"
   class="st1" />
		<path
   id="path3146"
   d="m 197.4,156 c 3.2,0.5 6.3,0.9 9.9,1.5 -2.7,1.7 -2.7,1.7 -9.9,-1.5 z"
   class="st1" />
		<path
   id="path3148"
   d="m 232.8,127.2 c 3.6,0 6.7,0 11.1,0 -4.4,1.2 -7.5,3.5 -11.1,0 z"
   class="st1" />
		<path
   id="path3150"
   d="m 212.9,151.3 c -3.3,2.9 -6.2,-0.5 -9.4,0 3.1,0 6.3,0 9.4,0 z"
   class="st1" />
		<path
   id="path3152"
   d="m 87.3,225.8 c 1,-4.4 4.5,-1.2 7,-3.6 -1.8,3.9 -4.1,4.1 -7,3.6 z"
   class="st1" />
		<path
   id="path3154"
   d="m 220.5,133 c 3.7,0.4 6.7,-1 9.6,1.6 -3.4,0.9 -6.1,0.2 -9.6,-1.6 z"
   class="st1" />
		<path
   id="path3156"
   d="m 187.7,123.6 c 2.7,-1.1 5.2,0 7.2,-1.5 0.4,-0.3 1.8,-0.4 2,0.7 0.3,1.5 -1.4,1.6 -2,1.6 -2.2,0 -4.3,-0.4 -7.2,-0.8 z"
   class="st1" />
		<path
   id="path3158"
   d="m 112.9,199.5 c 2.7,-0.9 5.5,-1.8 8.2,-2.7 -2.1,2.7 -5.1,2.8 -8.2,2.7 z"
   class="st1" />
		<path
   id="path3160"
   d="m 194,163 c 2.3,0 4.6,0 6.9,0 -0.1,0.5 -0.1,1 -0.2,1.6 -2.4,0.8 -4.7,1 -6.6,-1.7 z"
   class="st1" />
		<path
   id="path3162"
   d="m 223.7,97.6 c -3.2,1.2 -4.5,-0.6 -5.9,-2.8 1.9,-1.7 2.4,0.2 3.3,0.8 0.9,0.6 1.7,1.3 2.6,2 z"
   class="st1" />
		<path
   id="path3164"
   d="m 149,138.4 c 3.2,1.6 4,3.6 3.6,6.3 -0.4,-2.2 -3.5,-2.7 -3.6,-6.3 z"
   class="st1" />
		<path
   id="path3166"
   d="m 125.6,192.6 c 0.1,0.3 0.1,0.6 0.2,0.9 -1.8,0.2 -2.4,3.4 -4.8,2 -0.4,-0.2 -0.5,-0.7 -0.8,-1.1 1.7,-1 3.5,-1.4 5.5,-1.6 z"
   class="st1" />
		<path
   id="path3168"
   d="m 90,281.7 c -0.3,1.4 -1,2.4 -2.5,2.3 -0.4,0 -1.3,0.4 -1,-0.8 0.4,-1.6 1.5,-2.4 2.9,-2.7 0.9,-0.3 0.3,0.7 0.6,1.2 z"
   class="st1" />
		<path
   id="path3170"
   d="m 216,153.6 c 4.2,-0.8 6.9,-0.7 9.6,-0.1 -2.7,0.7 -5.4,0.6 -9.6,0.1 z"
   class="st1" />
		<path
   id="path3172"
   d="m 226.3,146.5 c 2.2,0.1 3.9,-2.1 6.6,-1.2 -1.9,2.7 -4.4,1.4 -6.6,1.2 z"
   class="st1" />
		<path
   id="path3174"
   d="m 221.4,181.6 c -2.9,0.6 -5.4,-0.1 -7.1,2.1 1.6,-3 1.6,-3 7.1,-2.1 z"
   class="st1" />
		<path
   id="path3176"
   d="m 118.7,154.6 c 3.1,-1.4 3.8,0.7 5.2,1.8 -2.6,1.8 -3.3,-0.9 -5.2,-1.8 z"
   class="st1" />
		<path
   id="path3178"
   d="m 130.3,159.7 c -2.5,1.1 -3.9,-0.4 -5.2,-2.3 2.7,-1.3 3.6,1.1 5,2.4 0.1,0 0.2,-0.1 0.2,-0.1 z"
   class="st1" />
		<path
   id="path3180"
   d="m 83.4,233 c -1.1,-2.2 0.5,-3.5 1.3,-4.9 0,-0.1 1.2,0.3 1.2,0.4 -0.2,1.8 -1.1,3.2 -2.5,4.5 z"
   class="st1" />
		<path
   id="path3182"
   d="m 92,247.2 c -1.2,1.5 -2.1,3.3 -4.8,2.5 1.1,-1.6 1.9,-3.1 4.8,-2.5 z"
   class="st1" />
		<path
   id="path3184"
   d="m 188.9,161.1 c 2.1,-0.3 3.8,0.2 5.1,1.9 0,0 0.1,-0.1 0.1,-0.2 -1.7,-0.6 -4.7,2.2 -5.1,-1.9 0,0 -0.1,0.2 -0.1,0.2 z"
   class="st1" />
		<path
   id="path3186"
   d="m 99.1,208.1 c 0.3,-3.1 2.3,-3.1 4.6,-2.7 -1.8,0.4 -2.4,3.2 -4.8,2.6 0,-0.1 0.2,0.1 0.2,0.1 z"
   class="st1" />
		<path
   id="path3188"
   d="m 130.5,105.9 c 3.3,-2.1 4.9,0.6 7.9,0.1 -3.2,2.1 -4.9,-0.5 -7.9,-0.1 z"
   class="st1" />
		<path
   id="path3190"
   d="m 168.3,82.3 c -2.4,-0.9 -4.1,-1.2 -5.6,-3.7 2.4,1 4.1,1.2 5.6,3.7 z"
   class="st1" />
		<path
   id="path3192"
   d="m 125.7,192.7 c 1.7,-1.3 4,-0.3 5.8,-1.4 -1.4,2.6 -3.7,1.7 -5.9,1.3 0,0 0.1,0.1 0.1,0.1 z"
   class="st1" />
		<path
   id="path3194"
   d="m 105.8,196.4 c 1.3,-2.7 3.1,-2.7 5.4,-3.8 -1.3,2.7 -3.2,2.7 -5.4,3.8 z"
   class="st1" />
		<path
   id="path3196"
   d="m 178.8,146.6 c -2.4,1.1 -3.5,-1.5 -5.4,-0.9 2.1,-1.4 3.7,-0.3 5.4,0.9 z"
   class="st1" />
		<path
   id="path3198"
   d="m 92.1,241.1 c -0.5,-2.9 2.4,-1.8 3.3,-3 -0.5,1.8 -1.3,3.2 -3.4,2.9 -0.1,-0.1 0.1,0.1 0.1,0.1 z"
   class="st1" />
		<path
   id="path3200"
   d="m 165.2,142.4 c 2.1,-1.2 3.1,0.6 4.6,1.1 -2,1.3 -3,-0.4 -4.6,-1.1 z"
   class="st1" />
		<path
   id="path3202"
   d="m 195.9,51.9 c 3,-3.9 7.8,-5.5 11.4,-9.6 -0.8,4.2 -7.6,9.4 -11.5,9.4 -0.1,0 0.1,0.2 0.1,0.2 z"
   class="st1" />
		<path
   id="path3204"
   d="m 188.2,48.5 c 0.4,-2.1 2.2,-2 3.5,-2.8 1.3,-0.9 2.7,-1.6 4.4,-2.6 -0.4,5.8 -5.5,3.4 -7.9,5.4 z"
   class="st1" />
		<path
   id="path3206"
   d="m 156.4,92 c 3.7,0 7.9,3.2 7.6,6.1 -0.5,4.2 -4.1,5.3 -7.4,5.8 -3.8,0.6 -6.5,-2.3 -6.6,-6 -0.1,-4.2 1.7,-5.9 6.4,-5.9 z"
   class="st0" />
		<path
   id="path3208"
   d="m 152.1,96.4 c 1.4,-0.3 3.5,4.4 3.8,-0.7 0.1,-2.2 1.5,-2.2 2.6,-1.4 1.2,0.8 4,0.6 3.1,3.4 -0.9,2.5 -2.7,4.1 -5.3,4.2 -2.5,0.2 -3.9,-1.8 -4.2,-5.5 z"
   class="st1" />
	</g>
</g>
</svg>
