<?xml version="1.0" encoding="UTF-8" standalone="no"?>
<svg
   xmlns:dc="http://purl.org/dc/elements/1.1/"
   xmlns:cc="http://creativecommons.org/ns#"
   xmlns:rdf="http://www.w3.org/1999/02/22-rdf-syntax-ns#"
   xmlns:svg="http://www.w3.org/2000/svg"
   xmlns="http://www.w3.org/2000/svg"
   xmlns:sodipodi="http://sodipodi.sourceforge.net/DTD/sodipodi-0.dtd"
   xmlns:inkscape="http://www.inkscape.org/namespaces/inkscape"
   inkscape:version="1.0 (4035a4f, 2020-05-01)"
   height="178.64877"
   width="269.84894"
   sodipodi:docname="bear-statant.svg"
   xml:space="preserve"
   viewBox="0 0 269.84894 178.64877"
   y="0px"
   x="0px"
   id="Layer_1"
   version="1.1"><metadata
   id="metadata4751"><rdf:RDF><cc:Work
       rdf:about=""><dc:format>image/svg+xml</dc:format><dc:type
         rdf:resource="http://purl.org/dc/dcmitype/StillImage" /><dc:title></dc:title></cc:Work></rdf:RDF></metadata><defs
   id="defs4749" /><sodipodi:namedview
   inkscape:current-layer="Layer_1"
   inkscape:window-maximized="0"
   inkscape:window-y="25"
   inkscape:window-x="0"
   inkscape:cy="126.95689"
   inkscape:cx="133.60414"
   inkscape:zoom="2.52"
   fit-margin-bottom="0"
   fit-margin-right="0"
   fit-margin-left="0"
   fit-margin-top="0"
   showgrid="false"
   id="namedview4747"
   inkscape:window-height="480"
   inkscape:window-width="820"
   inkscape:pageshadow="2"
   inkscape:pageopacity="0"
   guidetolerance="10"
   gridtolerance="10"
   objecttolerance="10"
   borderopacity="1"
   bordercolor="#666666"
   pagecolor="#ffffff" />
<style
   id="style4562"
   type="text/css">
  .st0{fill:#FFFFFF;}
  .st1{fill:#000000;}
</style>
<g
   transform="translate(-16.395855,-73.043114)"
   id="g4744">
	<g
   id="g4742">
		<path
   id="path4564"
   d="m 101.4,246.6 c -2.6,2.1 -4.9,4.1 -7.6,3 -2.3,-1 1,-2.9 -0.1,-4.4 -1.3,-0.3 -1.5,1.3 -2.4,1.6 -1.9,0.5 -3.8,2.2 -5.9,0.9 -2.7,-1.7 1.5,-2.8 0.2,-5.4 -3,5.6 -9.5,2.8 -13.2,6.6 -0.9,1 -2.7,1.5 -3.5,0.7 -1.5,-1.6 -0.4,-3.8 -0.4,-5.9 -1.8,0.6 -3.7,0.7 -5.3,2 -1.3,1.1 -3.2,1.2 -4.2,0.1 -0.8,-1 -0.2,-2.7 1.1,-3.7 2.3,-1.9 3.4,-5 5.4,-6.7 3.4,-2.8 8.1,-3.8 12.5,-3.4 5.6,0.6 9.5,-1.3 12.1,-6.1 0.5,-0.8 1.2,-1.8 1.2,-2.6 -0.6,-5.7 1.6,-11.1 1.8,-16.6 0.3,-7.8 1.8,-15.5 2.9,-23.2 0.1,-0.7 0.8,-1.7 0.4,-2.3 -5.1,-6.7 -6,-15.3 -9.6,-22.6 -4.2,-8.4 -11.2,-13.5 -20.8,-14.7 -3.4,-0.4 -6.9,-0.9 -10.2,-1.7 -6.1,-1.5 -10,3.2 -15,5 -2.2,0.8 -4.2,2.2 -6.4,2.7 -2.6,0.6 -3.7,1.8 -3.5,4.3 0.1,2.1 -1.2,3.4 -3,3.4 -1.8,0 -2.8,-1.3 -3,-3.4 -0.3,-4.2 -3.4,-9.5 -6.9,-12.4 -2.5,-2.1 -1.8,-3.8 0.2,-6 6.8,-7.8 14.7,-14.6 20.2,-23.5 2.5,-4 4.9,-8.1 8.6,-11.1 1.4,-1.1 0.9,-2.5 1,-3.9 0.2,-3.3 -0.4,-6.7 0.8,-10 1.6,-4.2 4,-7.5 8.3,-9.2 3.2,-1.2 6.2,-2.8 9.4,-4.2 3.6,-1.6 4.5,-1.1 4.5,2.7 -0.1,3.5 1.7,6.6 2,11 4.7,-7.7 12.3,-8.4 19.4,-10 4.3,-1 5.1,-0.2 5.1,4.2 0,0.9 -0.2,1.7 0,2.6 0.6,2.3 0.2,4.3 4.6,3.7 12.4,-1.6 25,-2.8 37.5,-1.9 3.4,0.2 6.8,1.2 10.1,2.2 10.7,3.4 21.7,5 32.8,6.4 9.8,1.3 19.1,0.2 28.6,-1.7 6.8,-1.3 13.6,1.2 20.3,1.9 9.5,0.9 17.9,5.2 26.5,8.4 10.3,3.8 17.3,11.8 21.3,22.1 1.4,3.7 2.5,7.5 4,11.2 2.7,6.5 1.4,13 0.6,19.6 -0.2,1.7 -0.7,3.1 0.6,4.7 1.3,1.6 2.9,3.8 0.9,5.5 -1.8,1.5 -4.4,2.5 -7,1.1 -3.1,-1.6 -6.2,-3.2 -7.1,-7.7 -0.6,2.2 -0.8,3.5 -0.1,4.8 1.3,2.4 1.9,4 -0.9,6.6 -3,2.9 0.2,6.8 1.6,10.1 0.8,1.8 5.8,3.9 -0.6,4.8 -0.2,0 -0.5,0.7 -0.4,1.1 1.6,7.5 0.2,15.4 2.3,22.8 1.4,5.1 3.5,10.1 4.9,15.2 1.5,5.5 0.4,10.4 -4.1,14.4 -2.4,2.2 -5.5,2.3 -8.1,2.5 -8.2,0.5 -16.2,3.2 -24.5,2.7 -2.5,-0.2 -3.6,1.8 -4.9,2.8 -3.2,2.6 -4.2,1.8 -4.3,-2.2 -1.9,0.9 -3.2,2.6 -5.2,2 -0.5,-0.1 -1.6,0 -1.6,-0.1 -0.5,-4.7 -3.4,-1.5 -5.2,-1.5 -3.3,0 -2.3,-1.8 -1.7,-3.5 0.2,-0.5 1.9,-0.9 0.1,-1.6 -0.7,-0.3 -0.9,-0.4 -1.7,0.3 -2.2,1.9 -4.9,3.5 -7.7,4.4 -1.4,0.4 -4.5,2.5 -5,-1.8 -0.2,-2.1 -1.7,-0.2 -2.3,0.1 -1.4,0.6 -3,0.9 -4,0.1 -1,-0.8 0.1,-2.3 0.1,-3.4 0.2,-3.8 2.3,-6.3 4.3,-9.2 3,-4.4 7.9,-2.9 11.9,-3.9 6.4,-1.6 8.5,-6.6 4.4,-12 -4,-5.3 -8,-10.6 -11.6,-16.2 -2.9,-4.6 -3.5,-10.1 -4.3,-15.3 -0.2,-1.2 0.2,-2.7 -1.2,-3.4 -1.4,-0.6 -1.9,0.9 -2.7,1.6 -1.8,1.5 -3.1,1.9 -5.3,0 -3.3,-3 -7.5,-4.4 -12.1,-4.3 -11.7,0 -23.3,0 -35,0.1 -1.4,0 -4.6,-1.3 -2.7,2.6 0.1,0.2 -0.4,0.7 -0.5,1.1 -2.2,4.6 -2.5,8.2 -1.3,13.9 1,4.5 0.4,9.4 -1,13.3 -3,8.3 -2.7,17.1 -5.5,25.3 -2.2,6.5 -5.6,9.7 -12.1,11.1 -6.1,1.3 -12.4,2.1 -17.4,5.6 -5.1,2.6 -4.1,-1 -4.4,-4.2 z"
   class="st1" />
		<path
   id="path4566"
   d="m 101.6,121.8 c -2.2,0.1 -3.6,1.9 -5.3,2.9 -0.8,0.5 -1.2,3.1 -2.7,1.3 -1.1,-1.3 1,-1.9 1.7,-2.7 2.8,-3.2 5.6,-6.4 8.6,-9.5 0.8,-0.9 1.5,-1.7 0.6,-3.5 -3.3,5.6 -8.2,9.5 -13,13.3 -1.7,1.4 -0.4,2.5 -0.1,3.7 1,3.8 -1.1,7 -4.8,6.2 -2.2,-0.5 -3.9,0.4 -6,0.3 3.3,2.3 6.6,4.2 10.8,2 -3.8,1.7 -7.2,3.7 -11.4,3.9 -2.7,0.1 -5.3,0.3 -8.1,1.1 -2.3,0.6 -6.9,-0.2 -8.8,-2.8 -1.5,-2 2.1,-2 3.3,-3.3 -4.3,-0.2 -8.4,-1.9 -12.3,0.6 -0.9,0.5 -1.9,-0.1 -2.7,-0.7 -1.8,-1.3 -3.3,-0.5 -4.8,0.6 -5.5,4.6 -12.3,6.5 -19,8.6 -2.3,0.7 -4.2,-1.5 -3.9,-4 0.1,-0.4 0.2,-1 0,-1.3 -2.8,-4.2 0.7,-6.2 3.1,-8.3 7.1,-6.1 11,-14.6 16.6,-21.8 5.7,-7.4 12.1,-14.3 20.9,-18.4 2.5,-1.2 4.4,-0.7 6.2,0.6 1.8,1.3 1.3,3.2 0.4,5 -0.5,1.1 -0.4,2.1 0.2,3.3 2,-0.9 2.9,-2 3,-4.2 0.3,-8.4 2,-10.8 10,-12.8 2.6,-0.7 5.1,-2 8,-2 1.8,0 2.5,0.4 2.4,2.4 -0.2,3.2 -0.2,6.2 -1.5,9.3 -0.5,1.3 -2.3,2.5 -1.9,4.2 1.5,1 2,-1 4.2,-1.4 -3.7,4.3 -6.7,7.9 -11.4,9.4 -0.8,0.3 -1.5,0.6 -2.3,0.9 -1.2,0.4 -1,1.4 -0.7,2 0.4,1 1.1,0.3 1.7,0 1.8,-0.9 3.7,-1.8 5.7,-2.8 0.1,1.4 0.1,2.6 0.2,3.9 3.1,-4.7 7.6,-8.7 8.4,-14.7 0.2,-1.5 0.4,-2.5 2.1,-2.1 1.8,0.3 2.9,-1.2 4.8,-1.4 -0.6,2.4 -3.6,1.7 -4.2,4 3.5,-0.3 5.6,-3.2 9,-4.4 -1.7,3.8 -4.8,6.2 -8,9.9 4.2,-1.6 5.9,-4.5 8.4,-6.3 4,-2.8 8,-4.5 13,-4.5 11.7,-0.2 22.9,1.2 34.1,4.7 7.7,2.4 15.9,3.6 24.1,4.1 4.2,0.3 8.4,0.5 12.6,0.7 6.5,0.4 12.7,-1.7 19,-2.4 2.2,-0.3 4.6,-0.6 6.8,-0.1 9.3,2.2 19,2.8 28,6.7 7.1,3.1 14.9,5.1 20.5,11 6.2,6.6 9.9,14.4 12.6,22.9 2.1,6.3 2.5,12.5 0.9,18.9 -0.6,2.3 -0.5,5 1.4,7.2 0.6,0.7 2.4,1.1 1.2,2.5 -1.2,1.4 -2.9,0.7 -4.4,0.6 -1.6,-0.1 -2,-1.5 -1.7,-2.9 0.5,-2.4 1.2,-4.7 2,-7.8 -3.8,2.2 -2.4,5.8 -4.3,7.9 -3.3,-4.9 0.6,-9.3 1.3,-14.5 -3.5,1.8 -3.7,4.9 -4.7,7.9 -1.5,-5.2 1.8,-9.5 1.7,-14.3 0,-2.1 0.2,-4.3 -0.4,-6.3 -0.9,-3 -2.4,-5.8 -2.6,-9.1 -0.1,-1.2 -1.1,-2.8 -2.1,-3.4 -2.8,-1.8 -4.8,-4.3 -7.2,-6.5 -1.6,-1.5 -3.3,-2.5 -5.9,-1.8 8.3,6 9.4,13.6 4.9,22.5 3.3,-0.9 3.3,-0.9 4.8,-13.2 3.6,2 4.7,7.2 2.2,10.5 -0.8,1 -2.2,2.3 -1.3,3.5 0.7,1.1 2,0.1 2.8,-0.7 0.5,-0.5 1,-0.6 1,0.2 0,0.6 1.1,0.9 0.4,1.7 -0.7,0.8 -2.1,1.3 -2,2.6 0.2,2 2.1,-0.7 2.4,0.7 0.2,1 0.1,2.3 -0.2,3.3 -1.8,5.2 -2.2,10.6 -2.3,16 -0.1,2.6 2.2,4.5 1.7,7 -3.9,0.5 -3,-4 -6.1,-4.5 6,5.4 1,14.6 8.1,19.8 -4.5,1.1 -5.4,-2.4 -7.3,-4.7 -0.2,2.3 -0.2,3 0.9,4.4 3.9,4.6 4,9.9 3.6,15.5 -0.3,4.4 -3.2,2.8 -5.8,2.2 1,3.8 9.3,1.1 6.2,7.9 -0.5,-0.2 -1,-0.4 -1.4,-0.7 -0.9,-0.9 -1.8,-1.5 -3,-0.8 -0.5,0.3 -0.3,1.1 0.2,1.4 1.1,0.6 1.5,3.1 3,1.9 1.6,-1.3 2,-0.2 2.1,0.7 0.5,2.9 1.9,5.3 3.2,8 -0.5,0 -0.7,0.1 -0.9,0.1 -1.5,-0.1 -0.7,-3.9 -2.8,-2.2 -1.6,1.3 1.3,1.8 1.7,3 1,3 4.1,4.9 4.4,8.3 0.4,5.5 -2.6,9.2 -8.3,10.1 -7.3,1.2 -14.7,2.4 -22.3,3.6 2,-4.3 6.6,-5.1 8.9,-8.5 -3.7,1.4 -6.8,3.9 -9.9,6.2 -0.8,0.6 -1.3,2.2 -2.4,1.6 -1.1,-0.5 -2.3,-1.7 -2.5,-2.7 -0.2,-1.5 1.8,-1.2 2.7,-1.9 0.9,-0.8 2.5,-0.7 3.1,-2.7 -3.6,0.9 -6.9,2 -9,4.8 -1.8,2.4 -3.5,0.2 -5.3,0.5 -1,0.2 -1.2,-0.7 -1,-1.4 0.5,-1.8 1.9,-2.3 3.6,-3 2.4,-0.9 5.1,-1.1 8,-3.6 -4.8,1.2 -8.6,1.9 -12.3,3.3 -2.1,0.8 -2.8,0.2 -3.4,-1.4 -0.9,-2.1 1.5,-2.1 2.1,-2.2 5.5,-0.4 11.1,0.3 16.3,-2.6 0.9,-0.5 2.6,1.6 4.3,2 1.7,0.5 3.2,0.3 4.9,0.3 -0.5,-2.2 -3.4,-2.6 -3.1,-5 0.6,-1.7 0,-2.6 -1.8,-2.8 -2.4,-3.9 -6.4,-7 -6,-12.4 0.2,-3.2 -3.3,-4.5 -4.5,-7.3 -1,-2.3 -1.7,-4.1 -0.3,-6.6 -2.9,-0.1 -2.8,1.9 -3.3,4.1 -2.3,-2.8 -5.6,-4.4 -3,-8.3 0.2,-0.3 0.1,-1.2 -0.2,-1.6 -0.4,-0.6 -0.9,-0.2 -1.4,0.1 -1.1,0.6 -1.7,3.2 -3.4,0.8 -1.5,-2 -1.3,-4.4 -0.3,-6.3 1.7,-3.3 3.5,-2.2 5,1.4 1,-3.3 -1.2,-5.5 -0.4,-7.9 -2.1,0.2 -1.5,1.9 -2,2.9 -3.8,-1.8 -3.5,-4.9 -2.9,-8.4 -1,1.7 -2.8,3.1 -1.5,5.3 0.2,0.3 0.4,0.8 0.3,1.2 -0.3,2 1,4.3 -1,6 -0.9,0.9 -1.7,0 -2.2,-0.5 -1.8,-1.7 -1.9,-4 -2,-6.3 0,-2.5 2.3,-0.7 3.2,-1.8 -2.9,-3.1 0,-6.5 -0.9,-10 -0.8,2.2 -1.6,4.4 -2.2,6.6 -0.2,0.9 -0.7,1.9 -1.4,1.8 -0.6,0 -1,-1.1 -1.3,-2 -1.6,-4.3 -0.3,-7.8 2.6,-11 0.7,-0.7 1.1,-1.8 1.5,-2.6 -1.2,-1.2 -1.7,1.2 -2.6,0.3 -0.5,-0.1 -0.5,-0.3 -0.3,-0.6 4.2,-4.4 8.2,-8.8 9.4,-15.3 0.4,-2.3 0.4,-4.3 -0.3,-6.5 -0.4,-1.2 -0.7,-2.5 -2,-2.1 -1.3,0.4 -0.8,2.1 -0.6,3 1.9,6.5 -0.4,11.5 -5.1,16 -3.2,3 -5.6,6.2 -5.4,11.2 0.1,2.8 -3.2,5.6 -0.5,9.1 -3.4,-2.5 -4.6,-5.8 -6.2,-8.8 1.1,-1.7 3.5,1.9 4.1,-1.4 -3,0.3 -5.1,-2.1 -8,-2.7 0,0.6 -0.1,0.9 -0.1,1.3 0.2,1.2 3,1.4 1.7,3.1 -1.7,2.1 -2.8,-0.5 -4.2,-0.9 -1.5,-0.4 -2,-2.8 -4.4,-1.3 2.2,2.2 4.2,4.2 7.6,4.7 4.5,0.6 4.1,5.6 6.6,8.2 -4,-1.1 -5.9,-6.4 -9.3,-6.5 -4.4,-0.1 -7.4,-3.5 -11.7,-3.6 3.2,5.2 11.5,2.4 13.3,9.6 -4.6,-0.9 -7.9,-5.8 -13.2,-4.1 1.9,1.8 5.1,1.4 6.7,3.7 0.5,0.7 2.2,1 0.8,2.5 -1.1,1.1 -1.5,0.8 -2.6,-0.1 -3.2,-2.6 -6.8,-4.2 -11.1,-3.9 -5.4,0.4 -10.5,-0.4 -15,-3.6 -0.8,-0.6 -1.2,-0.5 -1.6,0.2 -1.3,2.1 1,2.1 2,3.1 -2.5,0.5 -4.2,-1.1 -5.9,-2.1 -1.3,-0.7 -2.5,-3.1 -3.7,-1.6 -1.2,1.6 1.3,2.4 2.8,3.5 -3,1 -5.3,-0.8 -7.7,-1.3 -2.3,-0.5 -3.3,-4.6 -6.4,-2.2 1,1.9 3,2.3 5.4,3.8 -2.4,0 -4.1,0 -5.8,0 -2.1,0 -3.5,-3 -6.4,-1.1 -0.9,0.6 -3.6,-1.4 -4.8,-3.7 -3,-5.6 -5.6,-11.4 -8,-18.6 -1.3,3.4 -1.5,5.5 -0.4,7.4 2.9,5.4 4.6,11.5 9.1,16.1 0.9,1 1.8,2.4 0.9,4.5 -1.6,3.3 0.7,6.8 0.5,10.7 -1.4,-1.2 -2,-3.6 -4.4,-1.8 2.6,3.2 5.7,6.3 4.2,11.8 -0.3,-0.7 -0.4,-1.5 -0.9,-2 -0.7,-0.8 -0.7,-3.1 -2.1,-2.2 -1.4,0.9 -0.4,2.9 0.5,3.8 3.8,3.7 2.4,7.4 1,11.7 -1.5,4.5 -1.5,9.5 -2.5,14.2 -1.2,5.7 -2.6,11.2 -8.3,14.5 -2.5,1.5 -4.7,1.5 -7.1,0.7 -2.1,-0.7 -4.3,-0.6 -5.5,0.8 -2.6,3 -3.8,0.8 -5.5,-0.7 1.4,-2 4.4,-1.1 5.6,-3.4 -4.5,-2.2 -7.8,5.3 -12.7,1.4 1.8,-2.2 4.7,-1.9 6.8,-3.3 -4.1,-1 -7.3,0.1 -9.8,3.3 -0.7,0.9 -1.6,1.7 -2.5,2.3 -0.4,0.3 -1.4,-0.1 -1.9,-0.3 -0.4,-0.2 -1.1,-0.8 -0.4,-1.3 3,-2.1 3.8,-6.5 9.1,-6.1 8.6,0.6 11.7,-4.5 9.4,-13.1 -1.9,-7.1 -3.6,-14.2 -3.6,-21.6 0,-3.6 1.3,-7.2 0.8,-10.9 -0.1,-1.1 0.1,-2 1,-2.6 1.2,-0.8 1.7,0.5 2.4,1 0.7,0.5 1.2,2 2.3,0.8 0.6,-0.7 0.4,-1.5 -0.8,-2.3 -1.1,-0.6 -1.7,-2.3 -2.6,-3.8 3.1,-1.4 5.7,5.5 8.2,-0.3 -3.5,-3.5 -7.3,-7.7 -11.5,-11.4 -3.2,-2.9 -2.3,-6.3 -2.5,-9.7 -0.1,-0.9 0.6,-2.3 -0.5,-2.6 -1.4,-0.5 -1.6,1 -2.2,1.9 -1.8,3 -2.5,5.8 0.1,8.8 0.9,1 1.3,2.5 0.8,3.9 -6,-3.9 -5.5,-12.7 1.3,-27.6 -2.8,2.1 -5.7,4 -6.4,8.2 -0.6,3.5 -2.3,6.9 -3.8,11.3 -1.3,-13.8 7.9,-21.9 13.2,-31.8 -3.6,1.3 -7.9,6.2 -8.4,9.5 -0.1,0.7 -0.1,1.5 -0.5,2 -3.1,3.2 -6.5,6.1 -7.3,10.9 -1.1,-3.6 -0.3,-6.1 2.7,-8.5 1.5,-1.2 5.2,-2.4 2.9,-6.2 -0.6,-1 2,-1.2 2.5,-2.7 0.4,-1.3 1.9,-2.2 3.2,-3.6 -5.2,0.7 -6.8,5.6 -10.7,7.5 -0.5,0.2 -0.7,0.8 -0.4,1.5 0.7,1.2 1.7,-1 2.4,0.3 -1.6,3.1 -5.2,4.8 -6.3,8.3 -1.8,-2.9 -1.7,-2.9 0.9,-5.1 1.1,-1 3.2,-1.6 2,-3.9 -0.3,-0.6 -0.7,-1.2 -1.1,-0.9 -2.5,2.1 -6.1,-1.2 -8.5,1.8 -0.7,0.8 -1.6,-0.6 -2,-1.4 4.6,-2 9.9,-1.5 14.4,-3.9 2.1,-1.1 2,-2.4 1.7,-4.4 2,0.9 3.4,-0.3 5.1,-0.8 6.8,-2.2 9.6,-9.6 16.4,-11.5 -7.4,1 -11.5,7.8 -18.2,10 0,0.1 -0.1,-0.3 -0.1,-0.6 -0.2,-1.3 2.1,-3.1 0.3,-3.6 -2.4,-0.6 -1.7,2.2 -2.2,3.9 -2.1,-1.2 -1.6,-2.3 -0.4,-4 1.6,-2.2 4.7,-2.6 5.7,-5.3 l 0.2,-0.1 z"
   class="st0" />
		<path
   id="path4568"
   d="m 101.8,180 c -1,-0.4 -2.4,0 -2.5,-2 -0.1,-1.2 0.7,-4.4 -2.7,-2.9 -0.2,0.1 -1.2,-0.8 -0.9,-1.7 0.3,-0.8 1.6,-0.7 1.8,-0.5 2.2,2.7 6.3,3 7.7,6.6 0.7,1.8 -1.2,2.8 -1.4,4.3 -4.3,-1.4 -0.7,0.8 -0.7,1.4 -0.1,3 4.3,5.1 2.5,7.9 -1.2,1.9 -0.7,3.2 -0.6,5.2 -4,-1.6 -4.1,-5.8 -6.5,-8.4 -1.3,6.4 7,8.3 6.4,14.8 -3.2,-3.1 -3.9,-7.4 -7.7,-9.9 1.8,6.2 6.3,10.4 9.4,16.3 -4.8,-1.6 -4.1,-6.4 -7.6,-8.5 0.4,7.8 8,11.6 9.6,19.1 -2,-1.7 -3.6,-2.8 -4.4,-4.6 -0.5,-1.2 -1.4,-1 -2,-0.7 -1.2,0.7 -0.2,1.3 0.3,2 2.1,2.6 4.1,5.3 6.2,7.8 0.6,0.8 0.9,1.3 0.1,2.1 -1,1.1 -1.4,0 -1.9,-0.5 -1.2,-1.1 -2.4,-2.2 -4.2,-2.8 1,2.1 2.1,4.2 3.4,7 -7.1,-2 -11.4,1.2 -14.7,6.3 -0.8,1.3 -2.1,1.8 -3.4,1.7 -1.9,0 -4.1,0.3 -5,1.4 -3.2,3.6 -4.9,1.5 -7,-1.4 4,-1.2 7.2,-3.5 10.2,-6.3 4.9,-4.6 7.3,-9.5 8.2,-16.6 1.3,-10.4 1.1,-21.2 4.2,-31.3 2.6,1.8 2.5,6 6.1,7.3 -0.4,-4.1 -4,-6.5 -4.3,-10.7 -0.1,-2 0.9,-2 1.4,-2.9 0.2,-0.1 0.3,-0.2 0.3,-0.2 0,0.3 -0.1,0.4 -0.3,0.7 z"
   class="st0" />
		<path
   id="path4570"
   d="m 225.4,227.9 c -1.5,-1.2 -3.6,-1.9 -2.3,-4.3 4.8,3 11.1,4.3 14.3,2.7 -2.2,-0.8 -3.5,-2.6 -6.3,-1.5 -1.9,0.7 -4.5,-1 -5.3,-2.7 -4.7,-9.3 -10.7,-17.7 -16.2,-26.5 -1.5,-2.3 -2.3,-5.6 -1.9,-9.4 5.2,6.1 9.3,12.4 14.8,17.5 2.4,2.2 4.8,4.4 7.4,6.4 0.6,0.5 1.8,1.9 2.7,0.4 0.7,-1.2 -0.7,-1.2 -1.4,-1.8 -8.3,-6 -15.1,-13.5 -20.9,-21.8 -0.4,-0.6 -1.6,-1.4 -0.6,-2.8 3,3.4 6,6.7 8.9,10 0.6,0.7 0.6,2.1 1.9,1.2 1.6,-1.2 -1.2,-1.5 -0.5,-2.8 2.4,0.6 2.8,3.3 5.8,4.1 -2.4,1.1 -2.7,-0.9 -4.1,-0.5 0.2,3.6 4.3,4 5.7,6.6 1.1,2.1 3.6,3.4 5.4,5.2 0.7,0.7 1.4,0.9 2.3,0.7 0.3,-0.1 0.7,-0.6 0.6,-0.9 -0.2,-0.8 -0.8,-1.4 -1.7,-1.6 -3.5,-0.8 -4.6,-4.1 -6.6,-6.4 4.6,2.4 8.9,5.3 10.9,10.4 0.7,1.7 -0.3,2.5 -2,1.8 -0.9,-0.4 -1.7,-1 -2.8,-0.3 1.3,2.7 4.8,3 7.2,6.4 -15.1,-5.1 -23.2,-16.2 -31.2,-27.6 1.7,5.1 4.6,9.5 8.1,13.6 3.4,3.9 7.6,6.8 11.5,10.2 4.2,3.7 9.5,4.8 14.3,7.6 -3.6,0.9 -6.9,-0.2 -11.9,-2.6 -3.8,-1.9 -7,-4.4 -9.6,-7.8 3.6,9.4 8.6,10.7 18.4,13.7 0.8,0.3 2.1,-0.6 2.3,1.1 0.2,1.7 -1.3,1.9 -2.1,2.1 -3.2,0.7 -6.4,1.8 -9.8,0.8 -1.9,-0.6 -3.7,-0.4 -5.5,1 -3.1,2.4 -5.7,5.4 -9.3,7 -1.4,0.6 -2,3.2 -4.1,1 -0.6,-0.6 -2.4,0.7 -2.5,-1.3 -0.1,-1.7 1.2,-2.1 2.4,-2.5 4.6,-1.7 9,-3.9 13.7,-6.4 z"
   class="st0" />
		<path
   id="path4572"
   d="m 53.4,89.1 c 3.6,-0.7 6.7,-2.3 9.5,-4.4 1,-0.8 2,-1.3 3.2,-1.7 0.9,-0.3 1.7,-0.9 2.7,-0.3 -0.6,0.8 -0.3,2 -1.8,2.4 -6.7,1.9 -11.5,6.7 -16.2,11.9 -1.4,-9.3 1.4,-15.6 9.4,-18.2 1,-0.3 1.9,-1.2 2.9,-1.5 1.6,-0.4 3.5,-3 4.7,-1.3 1.6,2 -1.1,3.7 -2.3,5.1 -1.2,1.5 -3.2,2.9 -5,3.4 -2.9,0.8 -5,2.8 -7.1,4.6 z"
   class="st0" />
		<path
   id="path4574"
   d="m 220.6,226.2 c -1,3.3 -2.9,4.1 -4.9,4.7 -2.4,0.8 -5.1,1.2 -7.4,2.2 -1.9,0.9 -2.5,0 -3.1,-1.4 -1,-2.4 1.6,-2.2 2.2,-2.4 2.7,-0.4 5.5,-0.2 8.3,-0.9 1.5,-0.2 3,-0.6 4.9,-2.2 z"
   class="st0" />
		<path
   id="path4576"
   d="m 27.5,155.5 c -0.2,-4.1 -0.8,-7.5 2.1,-10.1 0.8,-0.7 1.8,-1.1 2.6,-0.3 0.8,0.8 -0.3,1.5 -0.8,2 -2.5,1.9 -1.6,5.4 -3.9,8.4 z"
   class="st0" />
		<path
   id="path4578"
   d="m 82.9,234.5 c -3.4,2.5 -3.4,2.5 -9.9,2.3 1.8,-2.6 1.8,-2.6 9.9,-2.3 z"
   class="st0" />
		<path
   id="path4580"
   d="m 198.9,241.4 c 1.6,-1.5 3.3,-3 4.9,-4.6 0.8,-0.8 1.8,-1.1 2.5,-0.3 0.7,0.8 0.3,1.8 -0.5,2.6 -1.8,1.7 -4.4,1.7 -6.9,2.3 z"
   class="st0" />
		<path
   id="path4582"
   d="m 219.1,243 c 1.7,-1.5 3.4,-2.9 5,-4.4 0.8,-0.8 1.8,-1.2 2.5,-0.6 1,0.9 0.4,2 -0.5,2.8 -1.9,1.7 -4.3,2 -7,2.2 z"
   class="st0" />
		<path
   id="path4584"
   d="m 69.8,247.2 c 0.7,-2.3 1.6,-3.6 2.9,-4.9 0.9,-0.9 1.7,-1.1 2,0.1 0.1,0.6 2.3,1.4 0.1,2.4 -1.5,0.6 -2.6,2.2 -5,2.4 z"
   class="st0" />
		<path
   id="path4586"
   d="m 45.6,139.4 c -2.3,3.2 -5.2,4.8 -8.5,5.4 -0.2,-0.4 -0.3,-0.7 -0.5,-1.1 2.9,-1.4 5.9,-2.9 9,-4.3 z"
   class="st0" />
		<path
   id="path4588"
   d="m 95.6,248.1 c 2.2,-6.8 3.2,-7.5 5.9,-4.7 -1.9,1.5 -3.7,2.9 -5.9,4.7 z"
   class="st0" />
		<path
   id="path4590"
   d="m 60.8,244.3 c 1.5,-1.5 2.9,-3.1 4.4,-4.6 0.5,-0.6 1.1,-1.4 2,-0.8 0.4,0.3 0.9,0.8 1,1.2 0.2,1 -0.7,1.8 -1.4,1.8 -2.2,0.2 -3.8,1.8 -6,2.4 z"
   class="st0" />
		<path
   id="path4592"
   d="m 104.3,247.9 c -0.6,-2 0.4,-3.6 1.7,-4.4 0.9,-0.6 2.4,0.4 3.2,1.6 -1.3,1.5 -3.2,1.9 -4.9,2.8 z"
   class="st0" />
		<path
   id="path4594"
   d="m 239.8,242.6 c -2.4,0.7 -3.3,3.3 -5.8,3.5 2.5,-5 3.5,-5.7 5.8,-3.5 z"
   class="st0" />
		<path
   id="path4596"
   d="m 87.1,246.5 c 1,-2.3 1.6,-4.4 4.1,-4.4 0.3,0 0.8,0.3 0.9,0.6 0.3,0.9 -1.2,2.2 -5,3.8 z"
   class="st0" />
		<path
   id="path4598"
   d="m 227.5,245.5 c 0.1,-3.9 0.5,-4.2 4.5,-4.1 -1,2.1 -3.7,1.9 -4.5,4.1 z"
   class="st0" />
		<path
   id="path4600"
   d="m 70.2,241.9 c -1.7,-6.2 3.4,-1.6 4.7,-2.9 -1.5,0.9 -2.9,1.8 -4.7,2.9 z"
   class="st0" />
		<path
   id="path4602"
   d="m 212,239.7 c -2.1,1.6 -3.7,2.7 -5.4,4 0,-3.5 1.7,-4.6 5.4,-4 z"
   class="st0" />
		<path
   id="path4604"
   d="m 248.4,223.2 c 0,-0.9 0.2,-2.1 1.3,-1.5 1.7,0.9 1.6,3 2,4.7 -0.5,-0.1 -1,-0.3 -1.5,-0.4 -0.6,-1 -1.2,-1.9 -1.8,-2.8 z"
   class="st1" />
		<path
   id="path4606"
   d="m 220.1,239.4 c 1,-2.5 1.6,-4 3.2,-4.7 0.2,-0.1 0.9,0.6 0.9,0.8 -0.6,1.5 -1.9,2.5 -4.1,3.9 z"
   class="st0" />
		<path
   id="path4608"
   d="m 199.6,237.1 c 1.2,-1.8 1.3,-3.7 3.4,-4 0.2,0 0.8,0.8 0.8,0.8 -1.1,1.1 -1.8,2.8 -4.2,3.2 z"
   class="st0" />
		<path
   id="path4610"
   d="m 66.7,236.7 c 1.5,-1.1 2.8,-2 4.7,-1.1 -1.2,1.1 -2.6,1.7 -4.7,1.1 z"
   class="st0" />
		<path
   id="path4612"
   d="m 19.9,136.9 c 0.6,0.7 1.1,1.2 1.3,1.7 0.1,0.2 -0.3,0.9 -0.5,0.9 -0.8,0.3 -1.3,-0.4 -1.7,-1 0,-0.2 0.5,-0.8 0.9,-1.6 z"
   class="st0" />
		<path
   id="path4614"
   d="m 66.1,106.9 c -1.3,1.7 -2.6,0.9 -3.6,1.4 -1.6,0.8 -3.8,0.7 -2.1,3.8 1.3,2.5 -0.2,6 -2.8,6.6 -2.6,0.6 -6.4,2.4 -8.5,-1.9 -0.6,-1.1 -2,-3.7 -4,-0.9 -0.7,0.9 -1.1,-0.3 -1.5,-0.6 -0.6,-0.5 -1.5,-1.1 -0.7,-2.1 0.5,-0.6 1.8,-1.6 1.8,-1.6 3,3 4.9,-0.6 7.2,-1.3 3,-0.9 5.7,-2.6 8.6,-3.8 1.8,-0.4 3.5,-0.4 5.6,0.4 z"
   class="st1" />
		<path
   id="path4616"
   d="m 86.8,95.4 c -2.3,1.2 -5.3,0.4 -4.6,4.1 0.2,0.9 -2.4,1.9 -3.8,-0.3 -3,-5.1 -0.4,-11.7 5.2,-13.4 1,-0.3 2.1,-0.9 2.9,-1.6 1.5,-1.2 2.4,-1.6 3.5,0.5 0.9,1.8 0.6,3.2 -1.3,3.5 -1.7,0.3 -2.4,1.4 -3.4,2.3 -2.1,1.9 -3.4,3.7 1.5,4.9 z"
   class="st1" />
		<path
   id="path4618"
   d="m 160.2,159.2 c -1.2,3.3 -3.2,5 -6.6,3.9 -2.1,-0.7 -4.1,-0.7 -6,0.4 -0.7,0.4 -1.8,1 -2.3,0.8 -3.1,-1.5 -5.8,0 -8.6,0.9 -0.5,0.1 -1,0 -2.1,-0.1 0.8,-0.8 1.2,-1.4 1.7,-1.8 2.3,-1.5 2.7,-3.1 0.5,-5.1 -0.7,-0.6 -1.8,-1.2 -0.7,-2.4 0.4,-0.4 1,-0.9 1.4,-0.8 1,0.2 1.5,1 1.6,2.2 0.2,3.1 3,3.6 5,4.8 0.2,0.1 0.4,0.3 0.6,0.4 0.5,-4.8 5.2,-0.2 6.6,-2.9 0.1,-0.2 1,-0.2 1.1,-0.1 2.7,3.8 5.1,1.8 7.8,-0.2 z"
   class="st1" />
		<path
   id="path4620"
   d="m 202.7,141.3 c 0.4,-2 -2.9,-3.8 -0.4,-4.9 2,-0.9 1.8,2.4 2.4,3.7 1.7,3.7 2.5,4.2 6.3,2.3 0.6,-0.3 1,-0.2 1.5,0.1 2.5,1.7 5.1,3.3 7.4,5.1 0.3,0.2 1.6,1.4 0.5,2.4 -1.1,1 -1.3,-0.3 -1.8,-0.7 -2.2,-1.7 -3.6,-5.2 -7.6,-2.3 -1.9,1.4 -3.7,-1.8 -5.8,-2.4 -2.8,-0.8 -5.2,-2.4 -7.2,-4.6 -0.5,-0.6 -1.5,-1.3 -0.3,-2 0.6,-0.3 1.6,-0.6 2,0.6 0.6,1.4 1.4,2.5 3,2.7 z"
   class="st1" />
		<path
   id="path4622"
   d="m 132.6,218.2 c -0.3,-1.9 -0.5,-3.6 -1.5,-5.2 -0.3,-0.5 -0.6,-1.8 -0.4,-1.9 3.6,-2.2 0.5,-3.9 -0.4,-5.6 -0.4,-0.8 -0.8,-1.6 -0.3,-2.3 0.7,-1.1 1.4,0.1 2.1,0.2 2.6,0.4 4,2.2 4.5,4.7 0.4,2.1 -2.6,1.9 -2.5,3.7 0.3,2.2 0,4 -1.5,6.4 z"
   class="st1" />
		<path
   id="path4624"
   d="m 133.6,180 c -5,1.5 -12,-1.5 -13.9,-5.7 -0.6,-1.2 -0.2,-2.2 0.9,-2.9 1.3,-0.7 1.9,0.4 2.2,1.2 0.7,1.5 1.4,3 2.6,4.1 1,0.9 1.9,2.3 2.9,-0.2 0.5,-1.3 1.7,-1.8 2.5,0.2 0.5,1.2 1.7,2 2.8,3.3 z"
   class="st1" />
		<path
   id="path4626"
   d="m 109.4,164.3 c 4,7.9 10.3,12.3 16.1,17.5 -5.2,0.2 -15.5,-10.6 -16.1,-17.5 z"
   class="st1" />
		<path
   id="path4628"
   d="m 261.1,166.9 c 0.1,3.8 0.4,6.8 -1.3,10 -1.8,3.4 2,5.8 3.8,8.6 -4,-0.4 -7.4,-4.8 -5.6,-8.6 1.3,-2.7 1.1,-5.3 1.7,-7.9 0.2,-0.7 0.8,-1.2 1.4,-2.1 z"
   class="st1" />
		<path
   id="path4630"
   d="m 137.7,100.7 c -1.2,-3.1 2.1,-1.4 2.7,-2.6 2,1.3 2.5,-0.5 3.8,-1.8 -2.2,0 -4,0 -5.8,0 l 0.1,0.1 c 3.6,-2 1.5,-3.5 10,0.9 -3.5,-0.1 -5.5,4.8 -9.7,2.4 -0.2,-0.1 -0.8,0.6 -1.3,0.9 z"
   class="st1" />
		<path
   id="path4632"
   d="m 263.8,230 c -4.8,1.5 -9.7,-2.1 -11,-8.3 3.9,3.2 6.4,7.2 11,8.3 z"
   class="st1" />
		<path
   id="path4634"
   d="m 55,131.5 c -1.3,0.7 -1.9,-0.3 -2,-1.2 -0.1,-1.6 2.3,-2.3 2.5,-2.2 2.1,1.7 3.6,0 5.1,-0.9 1,-0.6 1.6,-0.3 2.1,0.5 0.6,1.1 -0.4,1.5 -1.1,1.6 -2.3,0.3 -4.4,1.3 -6.6,2.2 z"
   class="st1" />
		<path
   id="path4636"
   d="m 132.6,189.1 c -4.2,0.2 -6.6,-3.8 -10.7,-3.4 2.8,-2 7.5,-0.5 10.7,3.4 z"
   class="st1" />
		<path
   id="path4638"
   d="m 188.1,101.5 c 1.5,-1.9 3.9,-2.4 5.8,-1.8 1.5,0.5 3.2,0.2 4.6,0.9 -3.3,2.6 -6.8,1.7 -10.4,0.8 z"
   class="st1" />
		<path
   id="path4640"
   d="m 95.4,112.1 c -1.5,1.1 -2.8,1.8 -3.6,2.8 -1.8,2.4 -3.1,1.5 -4.5,-0.2 -0.8,-0.9 -1.7,-2.2 -0.7,-2.8 1.2,-0.8 2.6,-0.3 1.6,1.7 1,0.5 2.2,2.1 3.1,0 0.6,-1.8 1.4,-2.6 4.1,-1.5 z"
   class="st1" />
		<path
   id="path4642"
   d="m 133,196.4 c -2.3,-1.9 -4.8,-2.6 -6,-5.2 -0.2,-0.5 -0.8,-0.9 -0.1,-1.4 0.3,-0.2 0.9,-0.5 0.9,-0.4 1.7,2.2 5.4,2.7 5.2,7 z"
   class="st1" />
		<path
   id="path4644"
   d="m 96.8,118.6 c -4.2,-2 -5.2,5.7 -10.1,1.2 4,1.5 5,-6.3 10.1,-1.2 z"
   class="st1" />
		<path
   id="path4646"
   d="m 230.7,140.6 c -0.2,-1.1 -0.3,-1.9 -0.6,-2.7 -0.3,-1.1 -1.3,-2.5 0.2,-2.9 1.5,-0.4 2,1.5 2.6,2.7 0.6,1.2 -0.8,2 -0.8,3.1 0.1,1.2 -0.6,1.5 -1.6,1.3 -1.7,-0.3 0.5,-1.2 0.2,-1.5 z"
   class="st1" />
		<path
   id="path4648"
   d="m 240.2,190.8 c -4,-1.5 -6,-3.6 -5,-8.6 1.9,3.2 3.3,5.6 5,8.6 z"
   class="st1" />
		<path
   id="path4650"
   d="m 266.3,227.4 c -3.2,2.2 -5,0.2 -6.7,-2.1 -0.4,-0.5 -0.4,-1.5 0.3,-1.9 0.8,-0.4 1,0.2 1.4,0.9 1,2.1 3,2.5 5,3.1 z"
   class="st1" />
		<path
   id="path4652"
   d="m 137.9,93.1 c -4,0.6 -6.9,3.6 -10.3,5.4 0.8,-2.8 5.7,-5.5 10.3,-5.4 z"
   class="st1" />
		<path
   id="path4654"
   d="m 132,91.5 c -3.8,-0.3 -6.4,2.2 -9.5,3.4 1.1,-2.7 6.6,-5 9.5,-3.4 z"
   class="st1" />
		<path
   id="path4656"
   d="m 241.8,183.2 c 1.7,0.6 1.6,3.4 3.8,3.8 -0.4,0.7 -1,1.5 -1.9,1.3 -1.9,-0.5 -2.5,-2.2 -3,-3.9 -0.1,-0.5 0.1,-1.2 1.1,-1.2 z"
   class="st1" />
		<path
   id="path4658"
   d="m 208.7,154.1 c 3.3,0.2 3.8,3.3 6.1,3.6 0.1,0 0.4,0.9 0.3,1.1 -0.4,0.7 -1.4,0.7 -1.8,0.4 -1.8,-1.2 -3.3,-2.6 -4.6,-5.1 z"
   class="st1" />
		<path
   id="path4660"
   d="m 258.1,185.9 c 2.5,1.5 5.2,2.8 5.4,6.3 -1.1,-2.6 -4.9,-3 -5.4,-6.3 z"
   class="st1" />
		<path
   id="path4662"
   d="m 132.7,202.9 c -1.5,-2 -2.6,-3.4 -3.7,-4.6 -0.6,-0.7 -1.1,-1.2 -0.1,-1.9 0.7,-0.5 1.5,-0.6 1.7,0.2 0.6,1.7 3.1,2.6 2.1,6.3 z"
   class="st1" />
		<path
   id="path4664"
   d="m 55.1,122.8 c -4.2,1.7 -5.9,-1 -7.7,-3.3 2.1,-0.8 2.4,0.9 3.3,2 0.9,0.9 2.8,-0.4 4.4,1.3 z"
   class="st1" />
		<path
   id="path4666"
   d="m 118,92 c -2.4,1.4 -4.9,2.8 -8.3,4.8 2.3,-3.7 5.4,-4.1 8.3,-4.8 z"
   class="st1" />
		<path
   id="path4668"
   d="m 259.7,194.6 c 0.2,-0.1 0.3,-0.2 0.4,-0.2 2.4,0 4.6,1.1 5.9,2.9 0.8,1.1 -0.4,1.6 -1.5,0.8 -1,-0.9 -1.9,-2 -3.3,-2.4 -0.4,-0.3 -0.9,-0.7 -1.5,-1.1 z"
   class="st1" />
		<path
   id="path4670"
   d="m 264.3,138.1 c -0.2,2.7 -1,5.1 -4.2,6.7 0.8,-3 3,-4.5 4.2,-6.7 z"
   class="st1" />
		<path
   id="path4672"
   d="m 119.8,93.8 c 1.5,-2.9 4,-4.3 7.4,-3.9 -2.5,1.3 -5,2.6 -7.5,3.8 z"
   class="st1" />
		<path
   id="path4674"
   d="m 212.4,162 c -2.7,0.4 -4.9,-0.3 -5.5,-3.3 1.8,1.1 3.6,2.2 5.5,3.3 z"
   class="st1" />
		<path
   id="path4676"
   d="m 235.7,106.3 c 2,-2.2 4.2,-1.7 6.7,-1.5 -1.9,2.7 -4.3,1.1 -6.7,1.5 z"
   class="st1" />
		<path
   id="path4678"
   d="m 123.4,106.2 c 1.7,-1.7 1.2,-4.8 4.6,-6.2 -1.1,2.9 -2.2,5 -4.6,6.2 z"
   class="st1" />
		<path
   id="path4680"
   d="m 264.5,224.3 c 2.1,0 3.9,0 6.5,0 -2.5,2.1 -4.3,2.2 -6.5,0 z"
   class="st1" />
		<path
   id="path4682"
   d="m 216.3,149.8 c 0.7,1.3 2.8,1.5 1.9,3.4 -0.6,1.3 -3.1,0.7 -2.6,0.3 1.5,-1.1 0.2,-2.4 0.7,-3.7 z"
   class="st1" />
		<path
   id="path4684"
   d="m 106.7,110.4 c 0.5,-0.6 0.8,-1.2 1.1,-1.2 1.6,0 2,-2.4 3.8,-1.8 0.2,0.1 0.3,0.7 0.2,0.7 -1.6,0.8 -2.5,3 -5.1,2.3 z"
   class="st1" />
		<path
   id="path4686"
   d="m 198.9,102.6 c 1.5,-1.7 3.2,-2.5 5.5,-2.2 -0.4,1.4 -1.9,0.4 -2.4,1.5 -0.6,1.1 -1.7,1.3 -3.1,0.7 z"
   class="st1" />
		<path
   id="path4688"
   d="m 132.2,224.1 c -1,-0.6 -2,-1.3 -2.3,-2.5 -0.2,-0.7 0.6,-1.1 1,-0.8 0.9,0.6 1.6,1.4 2.3,2.3 0.2,0.4 -0.2,1 -1,1 z"
   class="st1" />
		<path
   id="path4690"
   d="m 148,100.4 c 2.3,-2.4 2.3,-2.4 5.8,-2.4 -2,0.8 -3.9,1.6 -5.8,2.4 z"
   class="st1" />
		<path
   id="path4692"
   d="m 157.1,98.4 c 1.1,-1.6 2.4,-1.9 3.7,-2.2 0.1,0 0.5,0.8 0.4,1 -0.7,1.8 -2.3,1.6 -4.1,1.2 z"
   class="st1" />
		<path
   id="path4694"
   d="m 135.3,183 c -0.1,-1.3 -1.9,-2.4 -0.3,-3.8 0.3,-0.2 1,-0.4 1.1,-0.2 1.4,1.6 -0.6,2.6 -0.8,4 z"
   class="st1" />
		<path
   id="path4696"
   d="m 254.5,178.8 c -1.6,2.5 -3,1.7 -5,1.6 1.7,-2.1 3.2,-1.2 5,-1.6 z"
   class="st1" />
		<path
   id="path4698"
   d="m 137.6,100.6 c -1.6,0.8 -3.3,1.7 -4.9,2.5 -0.2,-0.4 -0.3,-0.8 -0.5,-1.2 1.8,-0.5 3.1,-2.1 5.5,-1.2 0,0 -0.1,-0.1 -0.1,-0.1 z"
   class="st1" />
		<path
   id="path4700"
   d="m 83.4,137.4 c -1.3,1.1 -2.6,1.8 -4.5,1.2 1.3,-1.5 2.7,-1.9 4.5,-1.2 z"
   class="st1" />
		<path
   id="path4702"
   d="m 138.5,96.3 c -1.8,0.2 -2.5,3.1 -5.3,2.1 1.9,-0.9 3,-3.1 5.4,-2 0,0 -0.1,-0.1 -0.1,-0.1 z"
   class="st1" />
		<path
   id="path4704"
   d="m 248.4,108.1 c -0.5,1.1 -1.4,0.7 -2.2,0.7 -0.8,0.1 -1.5,-0.4 -1.1,-1.2 0.4,-0.8 1.5,-0.5 2.3,-0.5 0.7,0.1 0.9,0.5 1,1 z"
   class="st1" />
		<path
   id="path4706"
   d="m 82.7,114.3 c -0.8,1 -1.3,2.3 -2.8,2.2 -0.2,0 -0.5,-0.8 -0.4,-1.1 0.7,-1.2 1.7,-1.8 3.2,-1.1 z"
   class="st1" />
		<path
   id="path4708"
   d="m 260.9,160.4 c -0.1,2 -1.6,2.8 -2.9,4.1 -0.4,-2.6 2.2,-2.8 2.9,-4.1 z"
   class="st1" />
		<path
   id="path4710"
   d="m 101.6,121.8 c -0.2,-1.5 0.4,-2.4 1.9,-2.6 0.2,0 0.5,0.4 0.5,0.5 -0.1,1.5 -1.1,2.1 -2.5,1.9 0,0.1 0.1,0.2 0.1,0.2 z"
   class="st1" />
		<path
   id="path4712"
   d="m 120.8,114.1 c -0.6,1.7 -2,2 -3.5,2.7 0.3,-2.5 2.5,-1.6 3.5,-2.7 z"
   class="st1" />
		<path
   id="path4714"
   d="m 188,101.4 c -0.1,0.1 -0.2,0.3 -0.3,0.3 -1.4,0 -2.5,1.6 -4,0.7 -0.1,-0.1 -0.1,-0.7 0,-0.8 1.4,-0.7 2.9,-0.5 4.3,-0.2 0.1,0.1 0,0 0,0 z"
   class="st1" />
		<path
   id="path4716"
   d="m 263.7,147.2 c 0.1,-1.2 0.6,-2.2 1.9,-2.3 0.2,0 0.8,0.5 0.7,0.7 -0.4,1.4 -1.2,2.2 -2.7,1.5 z"
   class="st1" />
		<path
   id="path4718"
   d="m 248.3,181.9 c -0.6,0.3 -1.1,0.7 -1.7,0.9 -1.2,0.3 -0.9,-1 -1.2,-1.5 -0.5,-0.9 0.6,-0.5 0.9,-0.6 1,-0.3 1.4,0.6 2,1.2 z"
   class="st1" />
		<path
   id="path4720"
   d="m 84.4,129.7 c -0.8,1.4 -1.7,1.7 -3,1.2 0.5,-1.5 1.5,-1.8 3,-1.2 z"
   class="st1" />
		<path
   id="path4722"
   d="m 119.7,93.7 c -1,0.8 -1.9,1.6 -3.2,2.6 0.2,-2.5 1,-3.4 3.3,-2.5 0,0 -0.1,-0.1 -0.1,-0.1 z"
   class="st1" />
		<path
   id="path4724"
   d="m 121.9,111.7 c -1,0.6 -1.7,1.5 -2.8,1.3 -0.2,0 -0.5,-0.9 -0.3,-1.1 0.8,-0.9 1.9,-0.4 3.1,-0.2 z"
   class="st1" />
		<path
   id="path4726"
   d="m 263.5,147.1 c 0.4,1.5 0.9,3.2 -2,2.7 0.2,-1.3 1.3,-1.9 2.1,-2.6 0.1,0 -0.1,-0.1 -0.1,-0.1 z"
   class="st1" />
		<path
   id="path4728"
   d="m 168.6,97.3 c -1,0.2 -1.5,1.9 -2.8,1 -0.2,-0.1 -0.3,-0.6 -0.2,-0.7 0.9,-1.2 2,-0.6 3,-0.3 z"
   class="st1" />
		<path
   id="path4730"
   d="m 210.8,101.5 c -1.1,1.7 -2.4,1.7 -4.7,0.8 2.1,0.1 3.1,-1.3 4.7,-0.8 z"
   class="st1" />
		<path
   id="path4732"
   d="m 146.1,92.4 c -0.8,0.1 -1.2,0.2 -1.7,0.2 -0.7,0 -1,-0.4 -0.9,-1 0.1,-0.6 0.7,-0.8 1.2,-0.5 0.4,0.3 0.8,0.7 1.4,1.3 z"
   class="st1" />
		<path
   id="path4734"
   d="m 264,151.9 c -0.4,2.3 -0.9,3.1 -2.8,3 0.8,-1 1.5,-1.7 2.8,-3 z"
   class="st1" />
		<path
   id="path4736"
   d="m 228,102.1 c 1.3,0 1.7,0.3 1.6,1 -0.1,0.7 -0.7,0.8 -1.2,0.7 -0.3,-0.1 -1.2,0.3 -0.9,-0.6 0.1,-0.6 0.5,-1 0.5,-1.1 z"
   class="st1" />
		<path
   id="path4738"
   d="m 101.8,180 c 0,-0.9 -2,-1.5 -0.6,-2.7 0.3,-0.3 1,-0.1 1.2,0.6 0.2,0.8 1.5,2 -0.7,1.9 0,0 0.1,0.2 0.1,0.2 z"
   class="st1" />
		<path
   id="path4740"
   d="m 55.6,117.2 c -2.5,0.5 -4.5,0.6 -4.3,-2.4 0.2,-2.9 2.5,-3.6 4.9,-4.1 0.3,-0.1 0.9,0.3 1,0.5 0.2,0.9 -0.6,0.9 -1.2,1.2 -2.8,1.1 -5,2.5 -0.4,4.8 z"
   class="st0" />
	</g>
</g>
</svg>
