<?xml version="1.0" encoding="UTF-8" standalone="no"?>
<svg
   xmlns:dc="http://purl.org/dc/elements/1.1/"
   xmlns:cc="http://creativecommons.org/ns#"
   xmlns:rdf="http://www.w3.org/1999/02/22-rdf-syntax-ns#"
   xmlns:svg="http://www.w3.org/2000/svg"
   xmlns="http://www.w3.org/2000/svg"
   xmlns:sodipodi="http://sodipodi.sourceforge.net/DTD/sodipodi-0.dtd"
   xmlns:inkscape="http://www.inkscape.org/namespaces/inkscape"
   inkscape:version="1.0 (4035a4f, 2020-05-01)"
   height="165.20348"
   width="266.02576"
   sodipodi:docname="boar-passant.svg"
   xml:space="preserve"
   viewBox="0 0 266.02576 165.20348"
   y="0px"
   x="0px"
   id="Layer_1"
   version="1.1"><metadata
   id="metadata7883"><rdf:RDF><cc:Work
       rdf:about=""><dc:format>image/svg+xml</dc:format><dc:type
         rdf:resource="http://purl.org/dc/dcmitype/StillImage" /><dc:title></dc:title></cc:Work></rdf:RDF></metadata><defs
   id="defs7881" /><sodipodi:namedview
   inkscape:current-layer="Layer_1"
   inkscape:window-maximized="0"
   inkscape:window-y="25"
   inkscape:window-x="0"
   inkscape:cy="94.029722"
   inkscape:cx="135.91611"
   inkscape:zoom="2.52"
   fit-margin-bottom="0"
   fit-margin-right="0"
   fit-margin-left="0"
   fit-margin-top="0"
   showgrid="false"
   id="namedview7879"
   inkscape:window-height="480"
   inkscape:window-width="820"
   inkscape:pageshadow="2"
   inkscape:pageopacity="0"
   guidetolerance="10"
   gridtolerance="10"
   objecttolerance="10"
   borderopacity="1"
   bordercolor="#666666"
   pagecolor="#ffffff" />
<style
   id="style7736"
   type="text/css">
  .st0{fill:#FFFFFF;}
  .st1{fill:#000000;}
</style>
<g
   transform="translate(-14.083887,-105.97028)"
   id="g7876">
	<g
   id="g7874">
		<path
   id="path7738"
   d="m 89.2,195.1 c -5.7,-2.5 -10.6,-4 -14.8,-6.6 -4.5,-2.8 -8.2,-2.7 -13.4,-1.4 -9.6,2.4 -19.8,2.1 -29.2,-2 -2.9,-1.3 -4.8,-4 -8.1,-0.6 -1,1 -3.7,1 -5.2,-0.8 -1.5,-1.8 -1.2,-3.7 -0.4,-5.7 1.3,-3.2 4.3,-4.8 6.8,-6.9 -7.2,-1 -11.1,-5.2 -10.8,-11.4 0.3,-4.8 5.5,-8.5 9.5,-6 2.2,1.4 3.8,1 5.6,0.4 5.1,-1.5 10.2,-3.2 15.2,-4.9 9.1,-3 12.6,-10.2 14.7,-18.9 2.1,-8.7 5.9,-16.3 15.3,-19.6 2,-0.7 4.2,-1.6 5.6,-3.1 3.2,-3.5 3.9,-0.6 4.8,1.6 1.7,4.1 2.1,8.4 1.5,13 6.1,-2.8 11.3,-6.4 16.3,-10.5 1.1,-0.9 2.5,-2.3 3.9,-1.6 1.2,0.6 1.8,2.3 1.5,3.9 -0.8,3.9 1,4.5 4.5,4.3 14,-0.9 27.8,1.1 41.6,3.2 19.2,2.9 37.3,9 55.2,16.1 12,4.7 22.5,11.8 32.3,20 4.5,3.8 5.9,9.8 8.6,14.8 2.5,4.8 7,6.9 11.1,9.6 1.5,1 2.5,-0.6 4.3,-0.9 -4.5,-3 -5.9,-6.9 -5.5,-11.9 0.3,-3.6 1.4,-6.2 4.6,-7.9 3.4,-1.8 6.1,0.1 8.4,1.9 5.2,4.1 6.3,11.4 2.6,17 -1,1.6 0.2,2.3 0.5,3.3 1.9,4.9 4.7,9.9 3.7,15 -1.1,5.3 -0.1,11.9 -6.6,15.2 -1.2,0.6 -2.2,0.9 -3.4,1 -1,0.1 -1.6,-0.5 -2,-1.2 -0.6,-0.9 0.3,-1.5 0.9,-2 2.9,-2.4 2.3,-3.8 -0.5,-6.1 -5,-4.1 -5,-7.2 -1.3,-12.9 1.3,-2 3.2,-3.8 2.1,-6.6 -7.8,3.9 -10.2,5.5 -22.4,-4.3 5.2,11.4 3.9,23.6 9.7,33.9 2.7,4.8 7,8.7 8.3,14.6 0.6,2.7 0.6,5.4 0.8,8 0.4,5.6 3.1,10.6 3.1,16.2 0,5.1 -3.4,7.7 -8.5,6.6 -1.2,-0.3 -1.3,0.8 -1.5,1.7 -1.3,4.9 -4.8,7.6 -9.6,8.5 -2.4,0.4 -4.8,-1 -7.6,-0.1 -2.1,0.7 -3.3,-2.5 -1.7,-4.6 3,-3.7 5,-7.9 8.6,-11.3 3.9,-3.7 3.4,-8.6 1.9,-13.3 -2.9,-9.3 -7.4,-17.7 -14.8,-24.1 -4.4,-3.8 -9.7,-6.6 -14.6,-9.9 -1.4,-1 -2.9,-1.9 -4.4,-3 0,1.9 -0.3,3.5 0.6,5.3 3.7,7.7 0,14.3 -3.9,20.5 -4.9,7.8 -10,15.5 -12.8,24.4 -1.3,4.1 -5.3,5.8 -9.5,4.2 -1.7,-0.6 -1,0.7 -1.4,1.1 -2.7,2.7 -5.4,5.3 -9.1,6.8 -4.2,1.6 -6.5,1 -8,-3.2 -0.6,-1.7 -1.2,-0.6 -2.1,-0.4 -1.6,0.4 -3.5,0.8 -4.4,-1 -0.9,-1.8 0.8,-2.7 1.8,-3.7 2.7,-2.9 5.7,-5.4 9.7,-6.3 3,-0.7 4.5,-3.1 6.3,-5.3 4.5,-5.6 8.5,-11.6 10.9,-18.2 2.9,-8 1,-16 -3.3,-23.2 -1.4,-2.4 -2.2,-6.2 -4.7,-6.6 -3.6,-0.5 -7.5,0.5 -11.1,1.6 -1.8,0.5 -3.1,2.6 -5.1,2.9 -1.3,0.2 -3.2,1 -3.6,-0.5 -1,-3.5 -3.3,-2.5 -5.2,-1.6 -1.5,0.6 -2.9,0.8 -4.4,0.7 -7.7,-0.3 -15.1,0.7 -22.4,3.3 -0.9,0.3 -1.5,0.4 -1.4,1.5 0.1,4.1 -1.3,7.9 -3.2,11.4 -0.6,1.1 0.5,1.9 0.8,2.6 1.4,2.7 1.6,4.5 -2.2,4.6 -1.2,0 -1.3,0.7 -1.3,1.6 0.3,3.7 -0.9,7.4 -0.7,11 0.2,5.5 -1.2,10.9 -0.9,16.4 0.1,2.9 -2.5,3.6 -3.9,5.2 -1.4,1.5 -2.7,3.8 -5.3,1.2 -0.9,-0.9 -0.5,0.7 -0.7,1.1 -3.7,7.2 -8.4,8.1 -15.1,3 -0.3,-0.2 -0.7,-0.3 -1.1,-0.4 -4.5,-1.3 -4.5,-1.7 -1.4,-5.4 2.8,-3.3 6.7,-5.3 9.6,-8.6 1.6,-1.9 2.3,-3.8 2.2,-6.3 -0.1,-6.1 0.1,-12.2 -0.1,-18.3 -0.1,-5.6 1.7,-11.2 0.5,-17.3 -8.1,3.9 -17.1,4.4 -25.3,7.7 -5.3,2.2 -6.7,7.8 -8.3,12.8 -0.6,1.7 -1.3,3.5 -1,5.5 0.3,2 0.5,4.4 -1.5,5.5 -2.1,1.2 -3.3,-1.3 -5,-2.2 0,1.7 -0.3,3.2 0.2,4.7 1.3,4.6 -0.4,8.1 -4.6,9.9 -0.6,0.2 -1.7,0.4 -1.9,0.1 -1.7,-2.3 -3.5,-2.4 -5.7,-0.7 -0.7,0.6 -1.6,-0.3 -2,-1 -0.3,-0.6 -0.4,-1.4 -0.2,-2 2.7,-7 2.7,-14.9 7.3,-21.3 4.1,-5.8 7.8,-11.8 9.3,-18.9 0.9,-4.4 3.7,-7.3 7.8,-9 2.7,-1.5 5.5,-3 9.6,-4.9 z"
   class="st1" />
		<path
   id="path7740"
   d="m 78.4,186.7 c -2.3,-1.3 -4.7,-2.3 -5.7,-5.2 -0.7,-1.9 -1.5,-1.7 -2.9,0.2 -0.1,0.2 -0.4,0.4 -0.6,0.5 -7,0.1 -13.1,5.2 -20.4,3.5 -4.2,-1 -8.6,-1 -12.8,-1.8 -1.9,-0.4 -4.7,-1.4 -4,-3.6 0.5,-1.5 3.3,-1.8 5.4,-0.5 1.9,1.2 3.9,1.6 6,-0.3 1,-0.9 2.7,-1.2 4.2,-1.2 5.9,-0.2 11.9,0.4 18.1,-1.2 -0.7,2.4 -3,2.8 -3.2,5 2.9,-0.8 5.4,-1.9 5.8,-5.1 0.4,-2.8 -1,-4.9 -3.5,-6.5 -0.6,1.7 1.3,2.6 0.9,4.1 -1.4,0.7 -1.8,-0.7 -2.6,-1.3 -3.4,-2.7 -5.4,-7.1 -10.2,-7.9 -0.7,-0.1 -1.1,-1 -1.2,-2 -0.6,-3.5 -3.6,-5 -6.1,-6.7 -1.1,-0.7 -3,-0.9 -4.2,0.5 -1.4,1.8 0.7,2.4 1.5,3.1 2.7,2.4 3.1,4.3 -0.5,6 -0.3,-0.3 -0.5,-0.5 -0.6,-0.7 -0.5,-1.4 0.8,-3.4 -0.7,-4.1 -2.2,-1 -2.6,1.4 -3.4,2.7 -2.1,3.6 -5.2,5.2 -9.2,5.9 0.5,-3.6 -1.6,-6.6 -2.4,-10 -0.3,-1.5 -0.6,-2.4 1.7,-3.1 7.7,-2.2 15.2,-4.9 22.7,-7.6 4,-1.4 6.5,-5.1 8.7,-8.1 5.7,-7.6 13.1,-12 21.8,-14.9 1.2,-0.4 2.4,-0.9 3.9,-1 -5.6,2.8 -9.6,7.3 -13.4,12.8 3.2,-1 4.6,-3.4 6.3,-5.2 1.8,-1.9 2.8,-4.8 6.2,-4.4 0.4,3.5 -1.9,7 -0.3,11.1 2.2,-5.8 1.5,-12.4 6.7,-16.9 4.6,-4 10.7,-5.7 15.5,-11.3 -0.8,4 1.2,7.4 -1.3,9.6 -4.3,3.6 -6.6,9.6 -13.2,11.4 3.7,-5.7 9.6,-8.4 13.4,-14.6 -5.9,2.4 -9.4,6.2 -13.3,9.6 -4.4,3.8 -5.3,8.5 -5.1,13.7 0.9,0.1 1.8,-0.8 1.6,-1.3 -2.1,-4 2.3,-3.8 3.6,-5.6 0.5,-0.8 0.9,0 1.2,0.3 0.6,0.6 -0.1,1 -0.4,1.3 -1,0.9 -2.9,0.6 -3.3,2.4 1.6,1.4 2,-1 3.1,-0.8 0.9,1.4 -1.3,1.6 -1.1,2.8 2.6,0.1 7,-3.3 7.1,-5.4 0,-0.6 -0.6,-1.5 -1,-1.6 -1.8,-0.4 -1,-1.1 -0.3,-1.7 0.3,-0.3 0.6,-0.6 0.9,-0.9 1.9,-2 3.8,-4.1 6,-6.5 0.9,4.1 -6.9,6.1 -1.3,10.2 -3,2.3 -4.6,5.8 -8.2,7.3 -1.4,0.6 -0.3,2.4 -1.5,4.5 3.7,-2.3 6.4,-4.1 9.1,-5.8 -1.8,3.6 -4.8,5.7 -8.5,7.1 5.5,0.9 12.6,-2.5 15.7,-7.4 -1.3,-0.3 -2,2.2 -3,1 -0.7,-0.8 -0.7,-2.4 0.4,-3.3 1.4,-1.2 -0.2,-2.4 0,-3.7 0.9,-5.2 2.8,-8.8 7.1,-12.5 -2.7,-0.8 -3.1,2.3 -5.1,2.8 -1.2,-3 -0.1,-3.9 3,-3.9 10.8,0 21.5,1.3 32.2,2.2 17.8,1.5 34.6,6.5 51.1,12.2 11.9,4.1 23.1,9.9 34.2,16.4 9.9,5.8 14.4,14.4 19.6,23.2 2.7,4.6 7.4,6.6 11.7,9.1 1.2,0.7 3.5,0.8 4.9,-1 0.7,-0.9 1.5,-0.5 2,0.2 0.9,1.4 -0.8,0.8 -1.1,1.3 -2.9,3.6 -8.1,2 -14.2,-1.6 -7.6,-4.3 -8.2,-12.7 -12.7,-18.9 -1.6,-2.1 -3.5,-3.8 -5.1,-5.8 -0.8,-1 -1.5,-0.9 -2.4,0 -0.8,0.9 -0.3,1.4 0.3,2.1 9.8,10.1 13,23.5 15.5,36.4 2.1,10.9 5.5,20.5 11.8,29.4 3.5,4.9 3.7,11.1 4.3,17 0.2,2.5 0.4,4.8 1.6,7 2.3,4.3 0.1,6.8 -3.3,8.9 -2.9,-3.1 -0.6,-5.6 1.6,-8.9 -4.3,1.6 -4.7,4.6 -5.7,7.3 -1.8,4.9 -3.4,10.2 -10.2,11.5 1.1,-2.2 2,-3.9 3,-5.6 0.2,-0.3 0.5,-0.8 0.8,-0.9 1,-0.3 2,2.6 2.6,0.4 0.5,-1.8 -2,-2.1 -3.3,-2.9 -0.6,-0.4 -1.4,-0.7 -2.1,-1.5 6.9,-4.7 5.5,-11.1 3.8,-17.9 -2.5,-10 -7.6,-18.4 -15.3,-25.1 -3.5,-3 -7.4,-5.3 -11.2,-7.9 -3.9,-2.7 -7.6,-5.6 -10.3,-9.7 -0.6,0.2 0.2,1.4 -0.6,2 -2.2,-2.9 -6.3,-4.2 -7.1,-8.4 -0.2,-1 -1.6,-1.4 -2.1,-1.1 -0.7,0.4 -0.4,1.5 0.2,2.2 0.3,0.3 0.6,0.6 0.9,0.9 0.5,0.6 1.6,1.1 0.8,2 -0.7,0.8 -1.7,0.4 -2.5,-0.4 -3.2,-2.9 -6.4,-5.7 -10.8,-6.7 -2.7,-0.6 -3.4,-3.9 -6,-4.8 -1.1,1 1.5,1.8 -0.2,3.1 -1.9,-5.2 -6.5,-7.6 -10.9,-11.2 0.7,2.5 0.6,4.3 3.1,5.8 3.1,1.8 4.2,5.9 7.7,7.6 1,0.5 1.8,1.2 3,1 1,-0.1 2.1,0.1 2.5,1 0.6,1.4 -2.9,-0.4 -1.7,2 0.2,0.3 -1.3,0 -1.8,-0.6 -3.2,-3.1 -8.7,-3.3 -10.4,-8 -1.3,-3.5 -4.3,-4 -7.2,-5.1 3.2,2.6 5.8,5.5 6.7,9.6 -3.4,1.4 -5.3,-2.6 -8.3,-3.2 1.7,2.7 3.9,4.6 7,5.1 0.9,0.2 1.8,0.9 2.6,1.6 0.4,0.3 0.4,0.9 0.6,1.4 -0.5,0.1 -1.1,0.4 -1.6,0.2 -2,-0.8 -4,-1.5 -5.9,-2.5 -0.9,-0.4 -1.7,-1 -2.7,-0.7 -7.6,2 -14.1,-3.6 -21.4,-3.5 -1.8,0 -2.8,-2.6 -5,-2.3 0,2.8 2.3,3.5 4.2,4 7.8,2.3 15.4,5.7 23.6,5.8 3.5,0.1 1.6,2.4 1.2,2.9 -0.9,1.2 -2.4,2.1 -3.8,2.9 -0.3,0.2 -1.5,-0.1 -1.5,-0.3 -0.2,-5.5 -4.4,-3.9 -7.2,-3.6 -3.6,0.3 -3.6,0.7 -5.9,-2.1 -0.6,-0.6 -1.4,-1 -1.8,-0.4 -1.3,1.9 -3.2,1.3 -5.1,1.5 0.9,1.5 3,1.2 3.7,2.8 -0.3,1.6 -1.4,-0.3 -2.4,0.3 -1.9,1.2 -4.6,2.9 -6.9,0.1 -1.4,-1.6 -2.9,-0.9 -4.5,0 1.2,1.4 2.2,0.5 3.6,0 -0.4,0.9 -0.5,1.4 -0.7,1.5 -1.7,0.4 -3.4,0.7 -5.1,1 -0.9,0.2 -2,1.3 -2,-0.9 0,-1 -1.4,-1.9 -0.5,-3 0.9,-1.1 1.5,0.8 2.5,0.5 0.4,-0.1 0.8,-0.1 1.2,-0.2 -1,-2.5 -4.3,-1.4 -5.5,-3.6 1.2,-0.9 2.1,0 3,0.5 1,0.5 2.4,1.7 3,-0.1 0.4,-1.3 -1.3,-1.1 -2,-1.6 -2.2,-1.5 -4.3,-3.2 -5.6,-6.5 4.2,1.2 6.3,4.1 9.3,5.6 -2,-4.5 -6.8,-5.6 -9.7,-8.8 0.2,-0.1 0.9,-0.3 1.6,-0.5 -1.7,-1.2 -3.3,-2.4 -6,-2.7 2,6.8 3,13.6 5.3,20.2 -1.4,-3 -5.1,-2.5 -7,-4.8 3.4,3.8 5.5,8.2 7.4,13.1 -4.3,-0.7 -4.9,-4 -6.3,-6.6 -0.4,-0.7 -1.2,-1.9 -1.4,-1.8 -1.1,0.4 -2.6,0.5 -2.7,2.1 -0.1,2 0.1,0.8 1.1,0.4 1.4,-0.6 8,9.5 7.5,11.2 -0.1,0.2 -0.4,0.4 -0.8,0.7 -1,-1.7 -1.7,-3.6 -3,-5 -1.1,-1.2 -1,-4 -4,-3 2.7,5.3 6.8,9.9 6.8,16.7 -3.2,-2.4 -2.9,-6.4 -5.4,-9.1 3.5,13.3 0.1,26.5 0.1,40.1 -3.3,-0.8 -2,-4.8 -4.6,-6.1 -1.1,1.5 1.6,5.2 -2.9,5.1 2.7,-0.1 3.3,2.4 5.2,3 0.9,0.3 0.1,0.8 -0.1,1.1 -0.6,0.7 -1.2,1.6 -2.4,1.3 -0.3,-0.1 -1,0.1 -0.6,-0.6 1.2,-2.4 -1.1,-3.5 -2.1,-3.3 -1.8,0.3 -2.2,2.4 -2.4,4.2 -0.4,4.3 -3.1,6.7 -6.7,6.4 -1.7,-0.1 -2.7,-1.1 -3.1,-2.3 -0.5,-1.5 1.4,-1.4 2.2,-1.8 1.8,-0.9 3.3,-3.4 5.8,-1.5 0.6,0.5 0.9,0.2 1,-0.5 0,-0.7 0,-1.3 -1,-1.4 -3.3,-0.4 -6.2,0.6 -8.7,2.6 -0.9,0.8 -1.6,2 -3.1,1.4 4.4,-6.8 4.4,-6.8 9,-5 0.3,-1.5 -1.1,-1.4 -1.9,-2 5.3,-3.4 6.8,-7.7 6,-14.2 -1.3,-11.3 0.2,-22.7 1.4,-34 0.2,-2.3 1.6,-0.4 2.5,-0.8 -3.1,-6.3 -11.5,-9.7 -9.1,-19.4 -2.4,2.1 -1.1,3.7 -2.2,4.9 -2.8,-3.5 -3.3,-7.3 -1.7,-11.4 -3.8,2.8 -2.8,6.6 -1.9,10.8 -1.3,-1.3 -1.6,-2.8 -3.1,-3.2 -1,2.3 0.2,4.2 1.5,6.6 -4.1,-0.9 -3,-5.8 -6.5,-6.4 -1.2,1.4 0.5,2 1,3.1 0.5,1 1.6,2 0.9,3.6 -2.6,-1.4 -5.7,-2.1 -4.7,-6.7 -5.2,6.3 -8.5,0.2 -12.4,-1.2 1.5,-2.6 -1.5,-3.4 -1.8,-4.6 0.9,1.7 2.9,3 2.1,5.3 z"
   class="st0" />
		<path
   id="path7742"
   d="m 198.9,218.9 c 0.9,0.6 1.4,1 2.2,1.6 0.3,-2.6 -4.1,-2.6 -1.7,-6 3,3.6 6.1,7.1 9.1,10.7 0.5,-0.5 1,-0.9 1.4,-1.4 -4.3,-4.2 -8.6,-8.5 -13.6,-13.5 7.2,1.7 9.5,7.9 14.8,11.8 -4.3,-9.4 -13.7,-12.4 -19.1,-19.8 3.2,0.1 4.9,3.1 8.1,3.2 -2.2,-3 -5.7,-3.8 -8,-6.4 3.7,-2.5 5.7,1 7.8,2.4 3.1,2.1 5.6,5.2 8.2,7.9 0.9,0.9 1.7,1.3 3.2,0.7 -4.3,-3.8 -7.6,-8.4 -12.2,-11.8 3.3,0.2 5.2,2.8 8,4.8 -0.3,-2.9 -3.2,-3.6 -4.1,-6.2 4.8,1.4 6.4,6 11,7.8 -3.3,1.5 -3.7,-2.1 -6.6,-1.3 3.9,3.5 7.5,6.8 7.8,12.1 -0.9,-0.8 -1.6,-2 -2.5,-2.2 -1,-0.2 0.1,-2.6 -1.6,-1.3 -1.2,0.9 0.2,1.8 0.5,2.4 0.7,1.4 1.9,2.6 2.9,3.9 0.3,0.4 1.3,0.7 0.4,1.6 -1.1,1.1 -1.4,-0.1 -1.8,-0.5 -2.4,-2.2 -3.8,-5.2 -5.9,-7.7 -1.7,-2 -3.4,-3.6 -6,-5.2 0.9,2.9 3,4.7 4.6,6.2 2.7,2.7 4.3,6.1 7.3,8.5 0.9,0.7 -1.3,6.7 -2.7,7.3 -2.2,0.9 -2.5,-1.2 -3.3,-2.5 -0.7,-1.1 -1.6,-2 -2.7,-2.8 0.4,3.4 3.1,5.4 5.2,7.7 -1,1.1 -1.7,2.9 -4.1,1.5 1.6,2.2 0.9,3.9 -0.4,5.7 -2.7,3.7 -4.4,7.9 -6.2,12.1 -1.1,2.4 -1.5,5.3 -4.6,6.2 -0.6,0.2 -1,1.1 -1.7,0.4 -0.5,-0.5 -0.5,-1.5 -0.1,-1.9 1.6,-1.3 1.2,-3.8 2.8,-5.1 -2.8,0.8 -4.7,2.9 -6,5.1 -2.6,4.2 -6.4,6.8 -10.1,9.6 -1,0.8 -2.7,2 -3.9,0.1 -1.3,-2 1.4,-3.8 1.6,-3.8 2.8,-0.2 4.1,-3.1 7.5,-3 -2.9,-1.5 -5.8,1.8 -7.7,-1.4 0,1.9 -1.9,1.9 -2.9,2.9 -1.2,1.3 -2.6,2.3 -4.3,1.9 2.8,-3.9 6.8,-6 11.4,-7.3 3.6,-1.1 4.6,-4.7 6.6,-7.4 4.2,-5.9 8.4,-11.7 10.7,-18.7 0.8,-2.9 0,-5.7 0.7,-8.9 z"
   class="st0" />
		<path
   id="path7744"
   d="m 86.2,207.7 c 3.8,-0.8 3.8,-4.5 5,-7 2.2,-4.6 4.9,-0.8 7.1,-0.7 2.2,0 1.4,2.3 0.6,3.9 -0.6,1.2 -1,2.6 -1.7,4.4 3.8,-1.6 3.1,-6.1 6.4,-7.5 0.2,1 0.3,2 0.6,3 0.1,0.6 1.6,1.6 0.7,1.5 -1.7,-0.1 -1.1,3.8 -3.3,1.7 -1.1,-1 -0.8,0.3 -1.1,0.7 -1.4,1.7 -3.5,1.8 -5.5,2.5 0.7,-2.7 1.5,-5.5 2.3,-8.4 -0.2,-0.1 -0.3,-0.2 -0.5,-0.3 -1.8,3.2 -3.6,6.4 -5.4,9.7 -1.7,-1.1 0.1,-2.2 -1,-4.4 -0.9,5.7 -4.8,6.6 -8.5,8.1 -1.6,0.6 -3,2.2 -3.8,4.2 -2.1,5.7 -6,11 -4.8,17.6 -5.3,-0.4 -2.3,-5.5 -4.8,-7.4 -0.8,4.5 -1.8,9.1 -2.5,13.7 -0.3,1.8 2.7,4 -0.6,5.7 -0.9,0.4 -1.4,1.3 -2.4,0.3 -0.7,-0.8 -0.8,-1.4 0,-2.1 3,-2.8 1.2,-4.3 -2.2,-5.9 3.3,4.9 -1.6,5.3 -3.3,7.5 0.3,-3.5 2.7,-6.3 3.2,-9.7 1,-5.9 5,-10.5 7.7,-15.6 2.1,-4 4,-8.1 5.5,-12.4 1.9,-5.2 5.1,-8.6 10.4,-10.2 0.5,-0.2 1,-0.6 1.5,-0.5 1.6,0.1 2.4,-3.3 4,-1.4 1.3,1.7 -2.1,1.4 -2.1,2.7 0,4.8 -5.6,5.1 -6.9,9.3 2.2,-0.5 3,-2.4 4.4,-3.6 1.5,-1.2 1.1,-0.1 1,0.7 -0.3,1.3 -0.4,2.6 -1.6,3.4 1.3,-0.8 1.6,-2.1 1.6,-3.5 z"
   class="st0" />
		<path
   id="path7746"
   d="m 278.3,199.3 c -0.7,-3.5 -3.1,-6.4 -3.5,-10.1 -0.8,4.7 1.7,8.8 2,13.3 -1.7,-3.9 -4,-7.7 -3,-12.5 -1.7,2.1 -2.1,3 -1.7,4.2 0.8,2.4 1.5,4.8 2.5,7.2 2.7,6.4 2.6,6.9 -3.5,11.5 3.8,-4.4 1.2,-7.1 -2,-10 -2.6,-2.3 -2.7,-5.3 -0.8,-8.1 4.4,-6.6 4.3,-10.1 -1.5,-15.7 -2.8,-2.7 -4.3,-5.3 -3.9,-9.3 0.3,-3.1 1.6,-5.5 4.1,-6.5 2.9,-1.1 5.3,0.8 7,3 2.1,2.7 2.5,5.9 2.3,9.3 -0.1,1.7 -1.3,3.2 -2.2,3 -1.5,-0.3 -1.7,-2.3 -1,-3.4 1.6,-2.8 0.3,-4.6 -1.6,-6.4 -1.6,-1.5 -3.1,-2.3 -4.9,-0.5 -1.8,1.8 -1.7,3.6 -0.1,5.5 3.2,4 7.3,7.3 8.8,12.4 1,4.2 3.1,8.3 3,13.1 z"
   class="st0" />
		<path
   id="path7748"
   d="m 78.3,118.4 c 1.5,-1.1 3.1,-2.1 4.8,-3.3 0.2,2.5 -3.4,2.9 -2.5,5.7 0.9,0.7 1.2,-1.4 2.2,-1.4 0.4,3.6 0.3,3.3 -2.5,4.9 -6.2,3.3 -13.9,3.9 -18.4,11.2 0.3,-12.9 6.9,-21.5 19.1,-25.5 0.4,-0.1 0.8,-1.1 1.2,-0.2 0.3,0.7 0.5,1.5 -0.7,1.9 -1.6,0.6 -3,1.4 -4.3,3.3 2.5,-0.1 3.4,-2.8 5.6,-2.3 -0.2,3 -5.1,2.3 -4.4,5.9 -0.3,0.1 -0.5,0.1 -0.4,0 0,-0.2 0.1,-0.2 0.3,-0.2 z"
   class="st0" />
		<path
   id="path7750"
   d="m 35.4,170.1 c 1.8,4.2 0.3,5.8 -4,6.6 -3,0.6 -5.6,2.9 -8.3,4.6 -0.8,0.5 -1.2,1.6 -2.4,0.6 -1,-0.9 -1,-1.8 -0.4,-2.9 1.8,-3.3 4.3,-5.9 8.2,-6.5 2.5,-0.5 4.6,-1.6 6.9,-2.4 z"
   class="st0" />
		<path
   id="path7752"
   d="m 42.7,157.7 c 4.6,1.9 7.2,3.9 7.2,8.2 0,2.8 -1.3,4.5 -3.8,5.5 -2.6,1 -3.1,-1.3 -4.4,-2.8 2.4,-0.6 4.4,-1.4 4.9,-4.1 0.5,-3 -1.9,-4.1 -3.9,-6.8 z"
   class="st0" />
		<path
   id="path7754"
   d="m 18.9,164.2 c 0.8,-0.9 2.3,1 2.6,-0.2 0.5,-1.8 -1.5,-3 -1.7,-4.8 -0.1,-1.4 -3.3,-0.4 -1.9,-2.7 0.5,-0.8 1.3,-0.8 2.1,-0.9 2.1,-0.2 2.5,1.5 3,2.8 1.3,3.3 2.4,6.7 3.5,10 -3.6,0.5 -5.4,-2.2 -7.5,-4.3 z"
   class="st0" />
		<path
   id="path7756"
   d="m 58.5,173.2 c -1.3,0 -2.6,0 -3.9,0 0,0.2 0,0.5 0,0.7 1.9,0 3.8,0 5.7,0 -5,-0.5 -10.3,4.2 -15.8,-0.5 3.5,-0.1 5.8,-1 7.1,-3.8 1,-2.1 2.5,-1.3 3.9,-0.1 -0.7,1 -2.2,-0.3 -2.7,1 1.5,0.1 3,0.2 4.4,0.4 0,0.1 0,0.3 0,0.4 -1.2,0.1 -2.3,0.2 -3.5,0.3 0,0.2 0,0.3 0,0.5 1.7,0.1 3.4,0.2 5,0.3 -0.1,0.3 -0.2,0.5 -0.2,0.8 z"
   class="st0" />
		<path
   id="path7758"
   d="m 39.8,164.5 c -0.1,8.3 2.1,8.8 4.9,12.6 -2.1,0 -4,0 -5.9,0 1.4,-4.2 -4.6,-9 1,-12.6 z"
   class="st0" />
		<path
   id="path7760"
   d="m 241.9,268.6 c 0.9,-3 2.4,-5.2 4.4,-7.3 1,-1.1 1.7,-0.3 2.4,0 1.3,0.6 -0.1,1.6 -0.2,1.8 -1.8,2.1 -3.4,4.5 -6.6,5.5 z"
   class="st0" />
		<path
   id="path7762"
   d="m 270.8,175.3 c -1.4,-1.3 -3.9,-1.9 -2.9,-4.4 0.5,-1.3 1.3,-0.6 2.2,-0.3 3.5,1.1 0.2,3.1 0.7,4.7 z"
   class="st0" />
		<path
   id="path7764"
   d="m 19,164.1 c -1.2,-1 -2.8,-1.8 -2.3,-3.9 0.1,-0.2 0.8,-0.5 1,-0.3 1.8,1 1.4,2.7 1.1,4.3 0.1,0 0.2,-0.1 0.2,-0.1 z"
   class="st0" />
		<path
   id="path7766"
   d="m 73.4,148.3 c -1.5,0.9 -2.4,1.4 -4.1,2.4 3,0 5.1,0 7.1,0 0.2,0.4 0.5,0.8 0.7,1.2 -7,-0.5 -4.2,9.3 -11.6,8.7 2.2,1.7 4,3.1 6.1,4.7 -8.1,-1.2 -11.7,-5.2 -10.7,-10.8 0.4,-2.1 -1,-1 -1.6,-1.4 -1,-0.5 -2.9,-0.3 -2.7,-1.9 0.3,-2.1 1,-4.3 3,-5.4 1.2,-0.7 2.6,0.2 2.7,1.6 0.1,1.5 2.6,-0.1 1.7,1.4 -0.4,0.7 -1.9,1.6 -3.2,0.6 -0.7,-0.6 -1.5,-0.7 -2.3,-0.2 -0.2,0.1 -0.1,0.7 -0.2,1.1 0.8,0.1 1.6,0.3 2.4,0.3 2.8,0.1 5.6,-0.2 8,-1.9 1.4,-0.9 2.7,-0.4 4.7,-0.4 z"
   class="st1" />
		<path
   id="path7768"
   d="m 73.1,171.4 c 3.6,-0.9 6.7,0.5 9.8,1.7 4.9,1.9 9.3,5.4 15,5 1.2,-0.1 1.8,1.1 2.4,2 0.1,0.2 -0.4,1.7 -1.5,0.8 -0.4,-0.4 -0.8,-0.8 -1.2,-1.1 -0.3,-0.2 -0.8,-0.5 -0.9,-0.4 -0.6,0.6 0.6,2.6 -1.6,1.9 -0.8,-0.3 -1,-1.7 -2.7,-1.2 1.4,1.6 2.3,3.4 2.8,5.6 -6.3,-6.6 -13.6,-11.3 -22.1,-14.3 z"
   class="st1" />
		<path
   id="path7770"
   d="m 85.5,187 c -3.4,0.8 -3.4,-2.2 -4.7,-3.5 -1.9,-2 -2.9,-4.7 -6,-6 -2.6,-1.1 -3.9,-0.6 -5.8,2 0.4,-3 4,-5.5 -1.7,-7.5 0.8,-0.2 1.6,-0.5 2.3,-0.7 1.2,1.3 2.1,3 3.6,3.9 3.4,2.3 9.9,8.3 12.3,11.8 z"
   class="st1" />
		<path
   id="path7772"
   d="m 109.6,175.8 c -2.1,-2.1 -4.3,0.3 -6.4,0.3 -4.8,0 -7.7,-3.2 -11.2,-5 -1.3,-0.7 -3.8,-1.1 -4.4,-3.3 l -0.1,0.1 c 2.5,-2 5.3,-1.4 6.8,0.5 1.4,1.8 3.3,2.6 4.7,4.2 1.7,1.9 3.8,3.2 6.7,1 2,-1.6 3.4,0.1 3.8,2.3 z"
   class="st1" />
		<path
   id="path7774"
   d="m 94.4,160 c 1.2,-1.4 1.9,-2.2 2.8,-3.1 -2.7,-1.1 -4.9,0.6 -7.3,1 1.6,-2.6 3.1,-3 12.9,-3.4 -1.8,1.5 -5.4,1.5 -3.5,4.9 1.6,-2.6 4.8,0.1 7.1,-3.1 -1.1,3.1 -1.1,3 -4.5,4.3 -2.5,0.9 -4.3,-1.8 -7.5,-0.6 z"
   class="st1" />
		<path
   id="path7776"
   d="m 33.5,180.7 c 9,2.8 17.9,0.8 26.8,0.3 -0.8,1.8 -1,1 -3.5,1.5 -4.2,0.8 -8.7,-0.5 -12.5,0.8 -4.5,1.5 -7.3,-1.3 -10.8,-2.6 z"
   class="st1" />
		<path
   id="path7778"
   d="m 140.9,194.8 c 2.2,0 3.7,0 5.2,0 0.6,0 1.1,0.3 1,0.9 -0.1,0.3 -0.7,0.7 -0.8,0.6 -1.6,-1.2 -3.5,-0.5 -5.1,-0.9 -0.8,-0.2 -1.6,-0.9 -1.3,-1.7 0.5,-1.4 1.3,-2.6 2.1,-3.9 0.1,-0.1 1.9,-0.9 1.6,1.1 -0.1,0.6 1.3,0.4 2.2,0 1.1,-0.5 2.6,-1.2 3.3,0.8 0.3,0.9 2.8,0.5 1.7,2.2 -1.1,1.8 -1.9,-0.4 -2.9,-0.6 -2.2,-0.3 -4.5,-1 -7,1.5 z"
   class="st1" />
		<path
   id="path7780"
   d="m 98.1,152.3 c -4.4,3.2 -9.5,-2.4 -13.8,1.9 2.7,-3.7 6.5,-3.2 10,-3.6 0.1,0.6 0,0.9 -0.5,0.9 -0.4,0 -0.7,0.2 -1.3,0.3 2,1.4 3.8,-0.4 5.6,0.5 z"
   class="st1" />
		<path
   id="path7782"
   d="m 96.9,176.7 c -4.9,-1.4 -8.4,-4 -12.5,-4.7 2.7,-2.4 7.4,-0.9 12.5,4.7 z"
   class="st1" />
		<path
   id="path7784"
   d="m 128.2,130.3 c 3.4,-3.6 7.2,-5.8 12.2,-5.7 -5.1,-0.2 -7,6.2 -12.2,5.7 z"
   class="st1" />
		<path
   id="path7786"
   d="m 85.5,189.3 c 4.7,-2 -1.6,-6.4 2.3,-8.5 0.5,1.6 2,2.4 2.8,3.7 1.6,2.3 -1.5,1.3 -1.6,2 0,2.2 -1.7,2.3 -3.5,2.8 z"
   class="st1" />
		<path
   id="path7788"
   d="m 65.2,138 c 3,-3.8 6.5,-6.5 11,-7.9 -4,2.2 -6.2,7 -11,7.9 z"
   class="st1" />
		<path
   id="path7790"
   d="m 130.5,122.6 c -2.4,3 -5.5,5.2 -7.5,8.3 0.2,-3.9 4,-7.9 7.5,-8.3 z"
   class="st1" />
		<path
   id="path7792"
   d="m 72.8,167.6 c 3.8,-0.2 7.5,0.5 12,2.8 -5,0.4 -8.4,-1.7 -12,-2.8 z"
   class="st1" />
		<path
   id="path7794"
   d="m 126,121.7 c -2.8,3.5 -6.1,6.4 -9,9.8 2.2,-3.9 4.9,-7.4 9,-9.8 z"
   class="st1" />
		<path
   id="path7796"
   d="m 113.6,143.4 c -1.2,3.3 -3.9,5 -6.9,6.2 2,-2.4 3.9,-4.9 6.9,-6.2 z"
   class="st1" />
		<path
   id="path7798"
   d="m 78.4,186.7 c -0.9,-3 -3.2,-5.1 -4.9,-7.6 3.1,1.1 4.6,4.1 7.2,5.9 -0.9,0.6 -1.6,1.1 -2.4,1.6 0,0 0.1,0.1 0.1,0.1 z"
   class="st1" />
		<path
   id="path7800"
   d="m 173.7,182.9 c -3.4,0.9 -5.2,-1.3 -7.1,-3.2 -0.3,-0.3 -0.7,-1 0,-1.4 0.3,-0.2 1,-0.1 1,0 1,2.9 4.5,2.1 6.1,4.6 z"
   class="st1" />
		<path
   id="path7802"
   d="m 244.1,195.4 c -3,-1.9 -6.1,-3.7 -9.3,-5.4 3.7,0.6 7,2.1 9.3,5.4 z"
   class="st1" />
		<path
   id="path7804"
   d="m 87.6,167.8 c -3.5,1 -5.2,-2.1 -8.3,-3.5 4.2,-0.9 5.5,2.7 8.2,3.6 0,0 0.1,-0.1 0.1,-0.1 z"
   class="st1" />
		<path
   id="path7806"
   d="m 98.7,170 c 1.9,-0.1 3.4,-0.5 4.8,0.3 -2,0.3 0.5,2.7 -1,2.7 -1.4,0 -3,-0.7 -3.8,-3 z"
   class="st1" />
		<path
   id="path7808"
   d="m 115,199.1 c 0.8,2.3 4.3,3.2 3.7,7 -2.6,-2.1 -3.2,-4.5 -3.7,-7 z"
   class="st1" />
		<path
   id="path7810"
   d="m 104.8,167.4 c -2.7,2.3 -5.4,1.3 -7.9,1.2 2.2,-1.4 4.8,-1.4 7.9,-1.2 z"
   class="st1" />
		<path
   id="path7812"
   d="m 100.6,165.2 c -1.3,1.6 -2.8,1.8 -4.3,0.6 -0.7,-0.6 -1,-1.8 -0.5,-2.1 2,-1.2 3,1.2 4.8,1.5 z"
   class="st1" />
		<path
   id="path7814"
   d="m 110.4,128.1 c 2.1,-2.2 3.8,-4.9 7.5,-4.5 -2.6,1.3 -4.3,4.2 -7.6,4.4 z"
   class="st1" />
		<path
   id="path7816"
   d="m 233.1,174.2 c 2.8,0.9 4.2,3.3 7,5.9 -3.8,-1.2 -5,-4 -7,-5.9 z"
   class="st1" />
		<path
   id="path7818"
   d="m 111.3,131.4 c 0.4,-2.9 3.3,-3 4.9,-4.5 -1.1,2.1 -2,4.5 -5,4.4 z"
   class="st1" />
		<path
   id="path7820"
   d="m 116.6,145.8 c -0.4,2.7 -2.8,3.4 -4.9,5.6 0.4,-3.6 3.4,-3.9 4.9,-5.6 z"
   class="st1" />
		<path
   id="path7822"
   d="m 45.4,180.2 c 3,-0.1 5.9,-2 10.1,-0.6 -4.1,-0.1 -7,1.6 -10.1,0.6 z"
   class="st1" />
		<path
   id="path7824"
   d="m 80.2,136.6 c -1.2,-3 0.9,-4.5 1.7,-6.8 1.2,3 -0.9,4.5 -1.7,6.8 z"
   class="st1" />
		<path
   id="path7826"
   d="m 239.5,201.6 c -1.4,-1.9 -2.7,-3.8 -3.5,-4.8 1.3,0.4 2.4,2.7 3.5,4.8 z"
   class="st1" />
		<path
   id="path7828"
   d="m 101,162.9 c 1.4,1.4 3.8,0.6 4.4,3.1 -1.4,-1 -4.3,0.9 -4.4,-3.1 z"
   class="st1" />
		<path
   id="path7830"
   d="m 89.9,164.4 c 3.3,-2.2 3.8,1.5 5.3,2.9 -1.8,-1 -3.5,-1.9 -5.3,-2.9 z"
   class="st1" />
		<path
   id="path7832"
   d="m 236.5,173.9 c -1.5,-1.5 -2.9,-3.1 -4.6,-4.9 2.8,0.5 3.7,2.6 4.6,4.9 z"
   class="st1" />
		<path
   id="path7834"
   d="m 111.2,131.3 c 0.6,2.5 -1.1,3.3 -3.3,4.7 0.6,-2.6 2.2,-3.5 3.4,-4.6 0,0 -0.1,-0.1 -0.1,-0.1 z"
   class="st1" />
		<path
   id="path7836"
   d="m 112,141.3 c -0.3,2.2 -2.3,2.9 -3.7,4 0.6,-2 1.7,-3.4 3.8,-3.9 z"
   class="st1" />
		<path
   id="path7838"
   d="m 118,150.8 c -0.2,-2.4 1.3,-3 2.9,-3.6 0.1,2.4 -3,1.4 -2.9,3.6 z"
   class="st1" />
		<path
   id="path7840"
   d="m 112.1,141.4 c 1.1,-1.3 2,-2.9 4,-3 -1.2,1.1 -1.6,3.5 -4.1,2.9 0,0 0.1,0.1 0.1,0.1 z"
   class="st1" />
		<path
   id="path7842"
   d="m 166.4,181.4 c -1.6,0.1 -3,0 -3.7,-2.5 1.6,1.1 2.6,1.8 3.7,2.5 z"
   class="st1" />
		<path
   id="path7844"
   d="m 103.7,149.3 c 1,-1.7 2.3,-2.4 2.5,-3.7 0.1,2.1 0.1,2.1 -2.5,3.7 z"
   class="st1" />
		<path
   id="path7846"
   d="m 109.5,175.9 c 1,-0.2 2.1,-0.9 2.7,0.5 0.2,0.4 0,1.4 -0.3,1.5 -1.9,0.6 -1.1,-1.8 -2.3,-2.1 0,0 -0.1,0.1 -0.1,0.1 z"
   class="st1" />
		<path
   id="path7848"
   d="m 241.2,197.1 c -2.1,0.2 -2.5,-1.1 -3.6,-2.2 2.1,-0.2 2.5,1.1 3.6,2.2 z"
   class="st1" />
		<path
   id="path7850"
   d="m 110.3,128 c 0.8,1.9 -0.9,2.5 -2,3.7 -0.4,-2.1 1.3,-2.6 2.2,-3.6 -0.1,0 -0.2,-0.1 -0.2,-0.1 z"
   class="st1" />
		<path
   id="path7852"
   d="m 108.4,189.7 c -0.6,-1.4 -0.3,-2.3 0.8,-3 1.1,1.2 0.5,2.1 -0.8,3 z"
   class="st1" />
		<path
   id="path7854"
   d="m 110,138.4 c 1.3,-1.4 1.9,-2.1 2.7,-3.1 0.6,2.2 -0.4,2.6 -2.7,3.1 z"
   class="st1" />
		<path
   id="path7856"
   d="m 91.1,162.3 c -0.9,-0.1 -1.8,-0.1 -2.7,-0.2 0.2,-0.3 0.3,-0.8 0.6,-1 0.9,-0.5 1.4,0.5 2.1,1.2 z"
   class="st1" />
		<path
   id="path7858"
   d="m 86.2,207.7 c 1.2,3.9 -1.1,4.9 -4.9,5.4 1.9,-2.1 4.3,-2.9 5,-5.3 0,0 -0.1,-0.1 -0.1,-0.1 z"
   class="st1" />
		<path
   id="path7860"
   d="m 80.2,207.9 c 0.3,-1.9 0.7,-3.7 2.8,-5.3 -0.1,2.6 -1,4.2 -2.8,5.3 z"
   class="st1" />
		<path
   id="path7862"
   d="m 74.5,125.3 c 0.5,-0.8 0.5,-0.9 0.6,-1 1.2,-1.1 2.4,-2.1 3.6,-3.1 0,0 0.8,0.7 0.8,0.8 -0.8,1.7 -2.4,2.3 -5,3.3 z"
   class="st1" />
		<path
   id="path7864"
   d="m 67.7,126 c 1.3,-1.6 2,-2.6 4.2,-3 -1.3,1.6 -2,2.5 -4.2,3 z"
   class="st1" />
		<path
   id="path7866"
   d="m 78.3,118.4 c -0.9,0.9 -1.4,2.3 -3.7,2.4 1.3,-1.4 1.7,-3 3.8,-2.3 0,0 -0.1,-0.1 -0.1,-0.1 z"
   class="st1" />
		<path
   id="path7868"
   d="m 76.1,116.4 c -1.3,1.3 -1.8,2.6 -3.4,2.6 0.3,-1.4 1.1,-2.1 3.4,-2.6 z"
   class="st1" />
		<path
   id="path7870"
   d="m 67.8,158 c -5.8,0.2 -6,0 -4.2,-3.9 0.7,1.7 1.8,2.8 4.2,3.9 z"
   class="st0" />
		<path
   id="path7872"
   d="m 68.2,153.2 c 0.7,0.1 1.9,-0.3 1.6,1.1 -0.2,0.7 -0.8,1.5 -1.7,1.3 -0.5,-0.1 -1.2,-0.8 -1.4,-1.3 -0.4,-1.4 0.8,-1 1.5,-1.1 z"
   class="st0" />
	</g>
</g>
</svg>
