<?xml version="1.0" encoding="UTF-8" standalone="no"?>
<svg
   xmlns:dc="http://purl.org/dc/elements/1.1/"
   xmlns:cc="http://creativecommons.org/ns#"
   xmlns:rdf="http://www.w3.org/1999/02/22-rdf-syntax-ns#"
   xmlns:svg="http://www.w3.org/2000/svg"
   xmlns="http://www.w3.org/2000/svg"
   xmlns:sodipodi="http://sodipodi.sourceforge.net/DTD/sodipodi-0.dtd"
   xmlns:inkscape="http://www.inkscape.org/namespaces/inkscape"
   inkscape:version="1.0 (4035a4f, 2020-05-01)"
   height="280.35867"
   width="224.20377"
   sodipodi:docname="boar-rampant.svg"
   xml:space="preserve"
   viewBox="0 0 224.20377 280.35867"
   y="0px"
   x="0px"
   id="Layer_1"
   version="1.1"><metadata
   id="metadata8667"><rdf:RDF><cc:Work
       rdf:about=""><dc:format>image/svg+xml</dc:format><dc:type
         rdf:resource="http://purl.org/dc/dcmitype/StillImage" /><dc:title></dc:title></cc:Work></rdf:RDF></metadata><defs
   id="defs8665" /><sodipodi:namedview
   inkscape:current-layer="Layer_1"
   inkscape:window-maximized="0"
   inkscape:window-y="25"
   inkscape:window-x="0"
   inkscape:cy="163.61442"
   inkscape:cx="109.8"
   inkscape:zoom="2.52"
   fit-margin-bottom="0"
   fit-margin-right="0"
   fit-margin-left="0"
   fit-margin-top="0"
   showgrid="false"
   id="namedview8663"
   inkscape:window-height="480"
   inkscape:window-width="820"
   inkscape:pageshadow="2"
   inkscape:pageopacity="0"
   guidetolerance="10"
   gridtolerance="10"
   objecttolerance="10"
   borderopacity="1"
   bordercolor="#666666"
   pagecolor="#ffffff" />
<style
   id="style8446"
   type="text/css">
  .st0{fill:#FFFFFF;}
  .st1{fill:#000000;}
</style>
<g
   transform="translate(-40.2,-36.385582)"
   id="g8660">
	<g
   id="g8658">
		<path
   id="path8448"
   d="m 240.3,281.1 c 3.4,-2.4 5.6,-4.2 7.1,-6.7 1,-1.7 1.1,-3.4 -0.8,-5.2 -5.2,-4.9 -5,-8.3 0.1,-13.5 1.3,-1.3 2.6,-2.8 3.8,-4.2 2.1,-2.5 1.2,-5 -0.2,-7.4 -1.6,-2.6 -4.3,-0.6 -5.3,0 -4.2,2.5 -8.1,0.5 -12,0.1 -6.4,-0.6 -12,-2.9 -16.5,-9.3 -0.2,4.1 -2.2,6.4 -2,9.6 0.1,2.6 0.6,4.8 2.9,6.1 2.9,1.7 -1.8,2.8 0.4,4.3 4,2 8.7,3.7 13.9,3.4 1.4,-0.1 2.1,1 2.7,1.9 0.7,1.2 -0.8,1.7 -1.4,2.4 -1.1,1.4 -2.8,1.6 -4.3,1.8 -1.8,0.3 -3.2,1 -3.2,2.6 0,1.9 1.1,3.6 3,4.3 0.8,0.3 2.1,-0.6 2.3,1.2 0.1,1.5 -0.7,2.4 -1.7,3.1 -1.3,0.8 -2.7,1.3 -4.3,1.1 -1.1,-0.2 -2,0.3 -2.4,1.4 -0.4,1.2 0.4,1.9 1.2,2.6 1,0.9 3.4,1.2 2.4,3.1 -0.9,1.6 -2.1,3.6 -4.5,3.6 -1.5,0 -1.9,0.4 -2.5,1.9 -0.9,2.2 -2.2,4.2 -4.4,5.7 -2.1,1.4 -3.7,3.4 -2.5,6.7 1.4,3.8 -2.2,9.5 -6.1,10.2 -2,0.4 -4.3,0.6 -3.6,-2.8 0.1,-0.7 0,-1.4 0,-2.9 -2.5,2.7 -4.8,4.4 -7.8,5.1 -1,0.2 -1.6,1.4 -2.2,2.4 -2.4,3.7 -6.8,4.1 -10,0.8 -1.3,-1.3 -2.3,0.2 -3.4,-0.2 -0.8,-0.3 -2.1,0 -2.5,-0.5 -0.7,-0.9 0.1,-2.1 0.7,-2.7 4.4,-4.7 7.1,-11.3 14.6,-12.2 2,-0.2 3.1,-1.2 3.9,-3.6 1.9,-5.7 2.1,-12 6.2,-16.8 0.8,-0.9 0.6,-1.2 -0.5,-1.8 -1.2,-0.7 -2.4,-2 -3.7,-1.3 -5.1,2.8 -9,-0.9 -13.3,-2.3 -1.4,-0.5 -2.8,-1.5 -4.1,-1.5 -2.1,0 -3,-0.9 -3.6,-2.6 -0.8,-2.4 -1.9,-2.7 -3.6,-0.7 -0.7,0.8 -1.5,2.1 -2.8,1.6 -1.9,-0.8 0.3,-1.8 0.1,-2.8 -0.2,-1.2 -0.5,-2.2 -1.2,-3.3 -3,-4.8 -7.5,-6.9 -12.8,-8.7 1.5,-0.7 3,-1.4 4.5,-2 0.9,-0.3 1.8,-0.7 1.6,-1.7 -0.2,-1.1 -1.2,-0.6 -1.9,-0.6 -1.8,0 -3.6,-0.1 -5.3,0.3 -0.4,0.1 -2.4,0 -1.6,1.8 0.4,1 1.5,2.1 -0.5,2.5 -1.5,0.3 -2.4,-0.6 -3.2,-1.6 -0.3,-0.4 -0.2,-1 -0.3,-1.4 -0.7,-2.8 -1.3,-3.1 -4.5,-1.6 -4.7,2.2 -3.4,4.3 -1.4,7.4 -2.6,0.8 -4.8,0.4 -6.1,-1.6 -1.4,-2.2 -1.9,-0.6 -2.4,0.4 -0.5,1 -0.6,2.1 -0.8,3.2 -0.3,1.5 -0.7,3.4 -2.1,3.6 -1.5,0.2 -3,-1.5 -3.1,-2.8 -0.6,-5.3 -5.9,-7.9 -7,-12.8 -0.4,-1.7 -1.9,-1.8 -3,-2.5 -2.3,-1.4 -4.9,-2.2 -7,-4.2 -1.5,-1.5 -2,-3 -1.3,-4.7 0.3,-0.9 0.9,-2.1 0.3,-2.4 -4.1,-1.8 -4.7,-6 -6.8,-9.2 -1.8,-2.8 -5,-3.3 -7.8,-3.9 -2.7,-0.6 -4.1,-2.4 -5.7,-4.2 -1.5,-1.6 -0.8,-2.3 0.9,-2.8 0.7,-0.2 1.9,0.5 2,-1 0.1,-1.2 -0.7,-2 -1.6,-2.4 -2.3,-1.2 -3.9,-3 -5.2,-5.3 -1,-1.8 -2.8,-3.5 1.1,-4.6 2.1,-0.6 0.9,-3.3 0.7,-4.9 -0.1,-0.8 -0.8,-1.8 -0.1,-2.4 0.7,-0.6 1.6,0 2.4,0.5 4.3,2.9 8.9,5.1 13.7,6.9 2.5,0.9 4.1,3 5,5.3 1.9,4.9 5.3,8.7 8.4,12.6 2.6,3.3 8.5,2.8 10.9,-0.6 7.2,-10.6 18.6,-15.3 31.8,-9.7 0.4,0.2 1,0 1.9,0 -3.3,-4 -5.7,-8.1 -9.8,-11.1 -1.5,-1.1 -4,-3.5 -1.7,-6.3 0.2,-0.2 0.3,-0.4 0.4,-0.6 -1.6,-0.6 -3.5,-0.7 -4.4,-2.4 -1,-2.1 -2.1,-2.4 -3.7,-0.8 -0.9,0.8 -1.9,0.9 -2.7,0 -1.8,-2.1 -4.3,-3.7 -5.5,-6.3 -0.7,-1.6 -1.3,-2.8 -3.5,-1.6 -1.3,0.7 -2.4,-0.7 -2.2,-2.2 0.2,-2 -0.4,-3.8 -1.6,-5.2 -2.2,-2.8 -1.8,-5.4 -0.1,-8.2 -1.6,-0.7 -2.8,-0.4 -3.8,0.9 -1.3,1.7 -3.3,2.7 -4.9,4 -2,1.7 -4.1,2.3 -6.2,0 -1,-1.1 -2.2,-0.9 -3.2,-0.6 -7.9,2.3 -16,3.9 -23.5,7.4 -1.2,0.6 -2.3,1.2 -2.7,2.4 -1.7,5.1 -6.3,6.1 -10.6,6.8 -3.4,0.5 -3.2,-2.6 -3.3,-5.1 -1.8,1 -2.7,2.5 -3.6,4 -2.3,4.1 -10,6.8 -14.2,5 -0.2,-0.1 -0.6,-0.2 -0.6,-0.4 -0.8,-5.4 -5,-2.8 -7.8,-3.2 -1.2,-0.2 -2.2,-0.5 -3.5,-1.3 5.4,-5.2 10.1,-11.2 17.9,-13.3 3.1,-0.9 5.9,-2.7 8.1,-5 4.6,-4.8 9.5,-9 15.9,-11.5 7.2,-2.8 12.7,-8.4 19.4,-12.2 1.6,-0.9 1,-1.7 0.5,-2.4 -1.2,-1.5 -2.5,-3.2 -4.1,-4 -4,-2 -4.3,-5.8 -3.1,-8.7 1.1,-2.7 0.1,-4.2 -1.2,-5.7 -4.2,-4.8 -6.7,-10.5 -9.1,-16.3 -1.6,-3.7 -2.9,-7.2 -8,-8.2 -4.1,-0.9 -6.7,-5.2 -9.4,-8.5 -1.5,-1.9 0.2,-3.9 2.9,-4.1 2,-0.2 4.9,1.3 5.9,-1.2 1,-2.4 -1.9,-3.8 -3.4,-4.9 -4.9,-3.7 -6.5,-8.4 -5.6,-14.2 0.2,-1.1 -0.3,-2.4 0.9,-3.1 1.5,-0.9 1.8,0.9 2.8,1.3 1.1,0.5 2,1.3 3.4,2.4 -1.4,-3.8 -1,-7.3 -0.5,-10.9 4.2,4.5 9.3,8.1 10.3,14.8 0.8,5.4 3.8,9.5 8.5,12.5 3.9,2.4 6.8,5.9 9.6,9.5 5.4,7.2 9.1,15.6 16.5,21.3 1.8,1.4 2.8,0.9 4.4,0.1 2,-1 3.2,-3.1 5.4,-4 1.6,-0.6 -0.4,-1.1 -0.5,-1.7 -0.3,-1.4 -1.9,-2.9 -0.5,-4.1 1,-1 2.4,0.3 3.3,0.9 4.7,3.1 8.5,-0.4 12.5,-1.7 0.4,-0.1 0.7,-0.3 1.2,-0.4 -1.6,-2.3 -4.1,-2.8 -6.5,-3.7 -6.1,-2.1 -12.7,-3.6 -15.5,-10.5 -0.6,-1.5 -1.6,-0.8 -2.5,-0.9 -2.4,-0.4 -5.3,-0.9 -5,-3.8 0.3,-2.4 2,-4.6 5.4,-4.7 3.8,-0.1 7.1,1.2 10.5,2.1 1.2,0.3 2.3,0.2 3.4,0.3 1.6,0.1 1.5,-1.5 1.9,-2.4 0.5,-1.1 -0.7,-1.1 -1.4,-1.5 -2.4,-1.5 -5.1,-0.2 -7.7,-1.3 -4.9,-2 -8.4,-6.3 -8.4,-11.5 0,-1.4 0,-2.8 0,-4.2 0,-3.2 2,-5.6 4.5,-6.4 2.6,-0.8 6.1,-1.4 7.9,2.4 0.6,1.2 1.7,1.2 2.9,1.2 7.8,0 15.6,0.1 23.4,1.3 6.8,1.1 13.4,-2.5 20.1,-3 9.4,-0.8 14.8,-7.1 20.7,-13.1 2.7,-2.8 5.6,-4.7 9.8,-4.5 6.2,0.3 6.2,0.3 8.2,6.5 0.7,2.3 0.6,4.6 1.3,6.9 0.7,2.7 0.2,5.5 -2.3,7.8 9,-0.8 15.8,4.6 23.5,7.1 1.7,0.5 3.1,1 3.4,2.9 0.4,1.9 -1.1,2.9 -2.2,3.7 -6.4,4.3 -12.8,8.8 -20.8,9.7 -2,0.2 -2.2,1 -1.4,2.6 1.8,3.6 2.5,7.5 2.3,11.5 -0.2,6 1.9,11.7 2.1,17.7 0,1.1 0.1,2.3 0.1,3.4 0,12.9 0,25.8 0,38.7 0,16.4 2.6,32.7 1.4,49 -0.4,6.1 0.2,12 0.1,18 0,3.3 0.8,6.4 1.7,9.5 1.4,5.2 6.2,5.9 10.3,7.3 2.8,1 5.8,1.4 8.7,-0.2 1.1,-0.6 2.1,-0.8 0.8,-2.6 -1.5,-1.9 -2.7,-4.1 -3.5,-6.4 -1.5,-4 0.4,-10.8 3.9,-12.8 3.8,-2.2 10.4,-0.6 13.2,3 4,5.4 3.7,13.4 -1.4,18 -1.8,1.6 -3.1,2.9 -0.3,4.9 5.9,4.4 4.5,11.7 6.5,17.6 0.7,2.1 1.8,4.9 0.5,6.6 -3.9,5 -5.1,12.5 -12.1,14.5 -3.6,0.5 -7.1,-0.2 -11.4,-0.2 z"
   class="st1" />
		<path
   id="path8450"
   d="m 204.7,250.8 c 3.1,-0.8 4.6,-3.9 7.6,-5.7 -0.3,4.7 -3.5,7.3 -6,9.8 -1.7,1.7 -0.6,-1.3 -1.3,-1.9 -1.2,0.5 -1.3,2.5 -3.1,2.4 -0.5,0 -1.9,0.9 -1.3,2.1 0.4,0.9 1.4,1 2.3,0.5 3.4,-1.8 7.3,-2.9 9.1,-6.8 0.5,-1 0.9,-1.9 2.1,-1.3 0.9,0.4 2,1.2 1.9,2.1 -0.1,0.8 -0.2,2.7 -2.1,1.6 -0.1,-0.1 -0.8,0.4 -0.7,0.6 0.2,1.2 1.1,2 2.2,2.4 3.2,1.1 6.5,2.2 9.8,3.1 1.9,0.5 3.8,1.4 6.5,0.4 -3.4,3.5 -6.4,3.2 -9.9,1.2 1.4,1.7 2,3.2 1.4,5.5 -0.7,2.5 1.8,5.2 5,6.5 -4.9,2.9 -7.7,2.6 -11.9,-1 1.5,4.2 4.2,7.6 7.1,10.9 -3.2,3.5 -4.3,3.4 -6.4,-0.7 -0.6,-1.2 -0.8,-2.6 -2.1,-3.4 -0.5,3.7 4.6,7.3 0.3,11.2 -1.5,-0.9 0.2,-1.9 -0.2,-2.7 -0.7,-0.3 -1.3,0 -1.3,0.5 -1.1,5.4 -6.5,9.9 -3.7,16.3 0.5,1.1 -3.4,4.9 -4.7,5 -0.3,0 -0.4,0.2 -0.5,-0.2 -0.1,-0.6 -0.2,-1.2 0.3,-1.8 1.1,-1.2 3.1,-1.1 4.1,-2.8 -1.8,-0.8 -3.3,-0.1 -5,0.5 -0.1,-2.2 -0.2,-4.2 -0.3,-6.1 -2.3,6.8 -6.6,10.4 -14,9.4 0.3,1 3,1.1 1.5,2.8 -1.6,1.9 -3.2,4.2 -6.6,2.6 3,-2.4 3.1,-6.8 6.6,-8.7 0.4,-0.2 0.7,-0.9 0.2,-1.3 -0.3,-0.3 -1.1,-0.4 -1.4,-0.3 -1.3,0.8 -2.3,1.8 -3,3.2 -1.5,3 -4.3,4.3 -8.4,5.3 2,-2.3 4.2,-3.3 5.1,-5.4 0.2,0.6 0.3,1.2 0.5,1.8 1,-1 1.4,-1.8 0.9,-3.6 -0.5,-1.7 2.8,-2.8 4.2,-2.8 7.1,0.1 9.3,-4.7 10.4,-10.2 1.2,-6.2 4.3,-11.5 7.1,-16.9 0.3,-0.6 1.3,-0.9 0.3,-1.8 -0.9,-0.7 -1.1,0.2 -1.4,0.6 -1.1,1.6 -1.7,0.6 -2.9,-0.1 -3,-1.8 -5.2,-4.5 -7.7,-7.1 -0.9,2.7 0.6,4.2 1.8,5.9 -4,1.1 -4.6,0.5 -5.6,-5.9 -2.2,0.9 -0.4,2.2 -0.4,3.2 -0.1,1.2 1.6,2.1 0.6,3.5 -3.3,-1.7 -4.5,-4.8 -5.3,-8.1 -3.1,2.1 0.2,3.8 0.1,5.6 -2.2,-1.1 -2.2,-1.1 -5.7,-7.8 -2.9,1.6 0.9,4 -0.7,5.7 -2.2,-2.5 -2.5,-3.3 -3,-8.8 -1.4,2.1 -2.8,4.1 -4.4,6.4 -1.3,-2.4 -1.4,-5.1 -0.5,-6.7 1.7,-3.1 0.1,-4.9 -1.7,-7.8 0.2,3.1 1,5.7 -1.5,7.8 0.9,-8 -6.4,-1.4 -8.2,-4.8 6.3,-1.3 10.4,-5.3 10.3,-10.3 -0.9,1.4 -1.9,2.6 -3.2,3.4 -2.2,-8.8 0.8,-16.4 5.8,-23.1 2.2,-2.9 3.7,-6.2 5.9,-9.1 0.2,-0.2 0.1,-0.9 -0.1,-1 -0.7,-0.4 -1.3,0 -1.6,0.6 -1.5,4 -4.2,0.6 -4.9,0.1 -3.7,-3.3 -7,-7.1 -10.4,-10.7 -0.8,-0.8 -1.8,-1.6 -1,-2.9 0.2,-0.4 1,-0.9 1.1,-0.8 1,0.9 2.6,0.3 3.4,2 1.5,3 3,6 5.9,8.2 2.8,2.1 4.2,1.1 5.8,-0.9 1.9,0.5 -1.3,2.5 0.7,2.6 1.9,0.2 2,-1.7 2,-2.9 0,-3.8 2.8,-7.3 1.2,-11.5 -1.5,1.8 -1.2,4 -1.8,5.9 -0.3,0.9 0.1,2 -0.7,2.8 -0.5,0.5 0.5,2 -1.2,1.8 0.7,-2 -2.2,-0.8 -2,-2.4 0.1,-0.3 -0.1,-1.3 0.5,-0.8 0.7,0.6 1.2,1.7 1.6,0.1 0.2,-0.9 1,-2.6 -1,-3.1 -2,-0.5 -2.1,-2 -2.1,-3.8 0,-1.4 0.7,-2.4 1,-3.6 1.1,0.4 1.9,0.9 0.9,2.2 -0.3,0.4 -0.3,1 -0.6,1.3 -1.7,2 0.9,1.2 1.2,1.5 1.3,1.2 0.6,-0.6 0.6,-0.7 -0.2,-1.2 0.8,-1.8 1.4,-2.6 -0.7,-0.5 3.1,-2.7 -0.8,-2.1 -0.7,0.1 -0.6,-0.9 -0.1,-1.4 3.6,-4 0.8,-9.2 2.4,-13.6 -1,3.2 -3,5.7 -4.6,8.6 1.8,0.5 1.6,-2.2 2.4,-1.4 2.1,2 -0.9,3.5 -0.8,5.5 -0.9,-2 -3.3,-1.7 -4.5,-3.5 1.6,2.9 2.3,5.6 -0.6,7.7 -1.8,-4.3 -3.4,-9.1 -3.2,-14.5 -1.6,1.6 -1.9,2.8 -1.3,4.8 1.5,5 2.4,9.9 -0.7,14.6 -3.2,-7.4 -9.7,-13.5 -8,-22.8 -1.9,2.5 -1.9,4.3 -0.1,10.4 -1.7,-1.2 -1.7,-1.2 -2.9,-6.4 -0.4,-1.7 -0.8,-2.4 -1.4,-2 -1,0.6 -1.3,1.6 -0.6,2.6 0.6,0.8 0.3,1.7 0.5,2.6 0.2,0.9 1.8,2 0.1,2.5 -1.3,0.4 -2.1,-1.3 -2.3,-2.4 -0.3,-2.3 -0.1,-4.7 -0.5,-7 -2.8,2.3 1.6,5.7 -1.4,7.8 -3.2,-4.7 -0.7,-10 -1.4,-15.6 -3.3,3.4 -0.3,7.5 -2,10.9 -1.9,-1.9 -3.6,-3.7 -1.6,-6.7 1.6,-2.4 -0.8,-5.2 0.7,-7.7 -5.2,4.2 -1.8,10.5 -4.2,16 -0.7,-4.1 -3.5,-7.2 -1.9,-11.2 0.2,-0.5 0.1,-1.1 -0.5,-1.2 -0.9,-0.1 -1.6,0.5 -1.6,1.2 -0.1,1.7 0,3.5 0,6 -1.8,-2.1 -3.1,-4.2 -2.2,-5.8 1.3,-2.4 -0.5,-3.4 -1.1,-5 -0.5,-1.6 -2.1,0.4 -2.8,-0.7 -0.2,0.8 -0.8,1.4 0,2.5 1.5,2.2 1.3,4.6 -0.9,7.5 0.3,-3.6 -0.2,-6.4 -1.9,-8.8 -1.3,-1.9 0.4,-3.4 1.2,-3.8 3,-1.4 3.6,-4.4 4.2,-6.6 0.8,-3.2 2.6,-5.7 3.7,-8.8 -5,2.7 -4.6,10.4 -11,11.8 1.1,-6 6.3,-10.2 7.3,-16.4 -5.9,7.8 -8.3,18.4 -18.7,23.3 1.1,-4.9 8.1,-5.9 6.8,-11.8 -1.8,4.1 -5.3,6.6 -8.3,9.4 -1.5,1.5 -2.2,-0.9 -3.1,-1.7 -0.9,-0.7 -1.6,-1 -1.9,0.1 -0.7,2.5 -3.2,3.1 -5.9,1.3 -0.5,-0.4 -0.9,-0.9 -1.7,-1.5 -0.9,4.4 -4.4,5.1 -7.8,5.8 -0.5,-1.3 1.1,-1.5 1.1,-2.5 -1.1,-0.8 -2,0.3 -2.3,0.6 -3.3,3.6 -8.8,3.6 -11.9,7.5 -1.3,1.7 -3,-0.5 -4.6,0.3 1,1.8 3.2,1.2 4.3,2.4 -1.3,2.3 -3.9,2.9 -6.1,3.8 -1.8,0.8 -2.5,-0.7 -1.9,-2.3 0.6,-1.4 1.7,-2.7 2.7,-4.1 -4.5,-0.4 -8.5,1.2 -10.2,4.9 -2.6,5.5 -6.7,5.9 -11.9,5.6 0.9,-2.9 2.4,-5.4 5,-5.8 1.6,-0.2 2.2,2.3 2.1,4.2 2.1,-1.2 3.2,-2.7 0.7,-3.9 -3,-1.5 -2,-3.2 -0.9,-5.2 0.5,-0.8 1.4,-1.6 0.5,-2.8 -1.1,0.6 -2.1,1.6 -2.8,2.8 -0.5,1 -0.8,1.9 -2.5,1.1 -1.8,-0.9 -2.9,1.2 -3.3,2.3 -1.3,3.5 -3.8,3.8 -7.3,3.4 3.8,-4.4 8.1,-7.8 13.4,-9.9 4.2,-1.7 8.2,-3.7 11.1,-7.2 4.4,-5.3 10.4,-8.5 16.6,-11 4.7,-1.9 8.3,-5.2 12.5,-7.7 3.1,-1.9 6.2,-3.5 9.5,-4.7 2.8,-1 5.4,-2.3 7,-5.3 0.9,1.9 -0.5,4.1 2.1,5.6 1.5,0.9 -1.4,2.1 -2.5,3.2 1.9,0.2 3.6,0.5 5.3,0.6 0.9,0.1 2,-1.9 2.7,-0.2 0.4,0.9 -1.3,1.5 -2,2.2 -1.5,1.7 -3.8,2.2 -5,4.4 4,-1.9 8.1,-3.9 12.1,-5.8 l 0.2,-0.1 -0.1,0.2 c -1.5,-1 -5.8,-0.3 -2.7,-4.6 -0.6,0.3 -1.3,0.7 -2.2,1.2 0.6,-2.5 1.1,-4.8 1.7,-7.3 -3.9,1.5 -0.7,7.7 -6.4,8.3 2.2,-2.5 3.1,-4.8 2.3,-7.5 -2.2,0.3 -0.5,2.8 -2,3.6 -1.7,-3.8 -0.6,-8.9 2.7,-12.4 1.9,-2 4,-3.8 5.4,-6.2 0.4,0 0.7,-0.2 1.1,-0.1 -0.2,-0.1 -0.4,0 -0.6,0.1 -0.5,0.2 0.1,0 -0.3,0.2 -3.5,1.3 -6.6,3.2 -9.1,5.9 -1,1.1 -2.1,1.5 -3.7,1.6 2.5,-2.3 2.8,-5.8 5.4,-8 0.4,-0.3 2.9,-1.3 -0.2,-1.8 -1.3,-0.2 0.2,-1.2 0.5,-1.4 2.1,-1.3 4.1,-2.7 6.6,-3.1 1.2,-0.2 2.3,-0.6 3.1,-1.8 -1.7,-0.9 -3,1.2 -4.5,0 2,-1.8 4.1,-3.5 6.8,-4.3 2.5,-0.7 5,-1.4 7.4,-2.4 -3.5,-0.1 -7.4,1.3 -9.9,-2.4 6.6,4.2 13,-2.9 19.7,-0.3 -1.4,1.2 -3.6,-0.4 -4.2,1.8 2.6,1.2 4.7,-2 7.9,-0.8 -3.1,2.1 -6.4,2.3 -9.3,3.7 2.8,0.5 14.5,-3.3 16.3,-5.3 -3,-2.8 -7.5,-1.6 -10.7,-4.1 -6.5,-5.2 -15.7,-5.1 -22.1,-10.7 -0.7,-0.6 -1.4,-0.9 -1.6,-2.6 2.4,2.1 4.7,1.8 7,1.8 0.8,0 1.8,-0.4 2.5,0.6 3.4,4.8 8.8,3.7 13.5,4.9 3.3,0.9 7.6,0 9.8,4.2 0.4,0.7 2.8,1.7 4.6,0.8 -1.2,-0.6 -2.3,-1.1 -3.9,-1.8 2.8,-0.2 4.9,-0.9 6.9,-2 1.4,-0.8 2.2,-0.5 3.3,0.4 1.3,1.2 0,1.6 -0.4,2.3 -0.4,0.7 -0.6,1.6 0.3,2 0.8,0.3 1.3,-0.5 1.7,-1.2 2,-2.9 0.4,-5.6 -1.5,-7.3 -5.1,-5 -9.2,-11.2 -16.2,-14 -1.1,-0.5 -1.3,-0.7 -0.4,-1.9 2.1,-2.8 3.1,-6.3 0.7,-9.2 -3,-3.7 -4.2,-5.4 -10.1,-4.3 0.2,1.9 1.8,2.7 2.9,3.7 2.7,2.5 1.9,5.2 0.7,7.9 -0.4,0.9 -1.2,1.4 -2.2,1.1 -1.2,-0.5 0.2,-1.1 0.1,-1.7 -0.1,-1.4 -1.1,-2 -2,-2.6 -0.8,-0.5 -1.6,0 -2.4,0.6 -1.2,1 -2,3.3 -3.7,2.9 -3.7,-0.9 -7.8,-0.1 -11.1,-2.5 -1.8,-1.3 -2.8,-2.5 -0.4,-4.5 2.5,-2.1 5.1,-4.2 6.4,-7.4 0.6,-1.6 2,-0.8 2.9,-0.8 8.5,-0.5 16.9,1.2 25.3,1.4 7.7,0.2 15.2,-2 22.5,-4.2 8.1,-2.5 16.3,-2.2 24.5,-0.9 1.9,0.3 3.8,1.2 4.8,3.2 -4.8,2.6 -10.1,4 -15.7,4.2 5.8,2.8 10.8,2 16.3,-0.8 3.1,-1.6 7.6,-1.2 11.4,0.3 4.3,1.8 8.6,3.5 12.9,5.3 0.8,0.3 1.8,0.7 2.1,1.3 0.4,1 -0.7,1.6 -1.4,2 -6.7,5 -13.9,8.9 -22.4,9.5 -3.3,0.2 -6.5,-1.5 -9.1,-3.5 -1.5,-1.1 -2.7,-2.4 -4.7,-1.4 0.8,2.9 2.2,5.6 5.1,7.4 -1.8,1.6 -2.1,-0.6 -3.1,-0.6 -1.4,2.4 1.7,2.1 2.1,3.7 0.6,2.3 -0.3,2.7 -2.5,2.2 1.5,2.7 2.8,5 4.4,7.8 -2.4,-0.2 -2.2,-2.5 -3.9,-2.8 -0.8,0.4 -0.5,1.3 -0.3,1.9 1.1,4.3 -2.8,5.7 -4.8,8.1 -1.2,1.4 -4.9,-0.5 -5.8,-2.7 -1.4,0.5 -1.2,2.1 -2,2.8 -0.7,0.6 -1.4,3.6 -3.1,0.6 -0.4,-0.7 -1.1,-0.1 -1.6,0.3 -1.1,0.9 -2.2,1.6 -3.6,1.7 -0.2,-0.4 -0.4,-1.3 -0.8,-1.1 -5,1.5 -9.9,-1.3 -15,-0.4 -0.4,0.1 -0.9,0.2 -0.7,0.1 3.2,0 6.9,-1 10.4,1.4 1.9,1.4 4.1,-0.5 6.2,-0.1 0,0.6 -0.2,1.5 0.6,1.5 3.2,0 5.6,2.9 9,2.3 -0.2,-1.3 -5.7,-1.7 -0.7,-3.9 1.3,-0.6 1.4,-0.6 1.9,0.8 0.8,2 3.3,1.6 4.6,0 1.4,-1.8 2.9,-3.5 5.1,-4.4 0.6,-0.2 1.3,-0.5 1.5,-1 2,-4.2 3.3,-1.9 4.8,0.4 0.9,1.4 1.8,2.9 4.4,3.9 -1.6,-2.5 -2.7,-4.4 -4,-6.2 -1.2,-1.6 -2,-9 -1,-10.6 0.6,-1 1.3,-0.9 2,0 1.4,1.6 3.1,2.9 4.3,4.7 0.2,-4.8 -3.7,-7.6 -6.2,-11.8 4.4,1.4 6.4,4.3 7.2,7.7 0.7,2.7 1.3,5.6 0.9,8.5 -0.3,2.7 0,5.3 1.6,7.5 1.3,1.8 1,3.8 -0.3,4.8 -3.6,2.7 -1.4,5 0,7.6 0.5,0.9 1.5,1.8 0.7,3.3 -0.8,-0.7 -1,-2.3 -2.7,-1.9 0.8,3.5 2.8,6.6 4.2,9.8 0.4,0.9 0.6,2 0.1,2.5 -0.7,0.6 -0.4,-1.1 -1.4,-1 -0.9,0.2 -1.6,-0.1 -1.2,1.4 1.3,6 1.3,12 1.3,18.4 -1.5,-1.3 -1.3,-3.4 -3.1,-3.8 -0.1,-0.1 -0.3,-0.2 -0.4,-0.3 -1.2,-1.4 -1.9,-3.2 -3.6,-4.3 -0.2,0 -0.3,0 -0.5,-0.1 -2.8,0.6 -1.5,2 -0.9,3.6 0.7,1.9 2.4,3.6 1.4,6 l 0.1,-0.1 c -0.4,0 -0.7,0 -1.1,0 0.9,2.3 0.8,5.4 2.9,6.6 3.5,2 3.6,5.6 5.1,8.5 0.7,1.4 3,2.9 1.3,5.3 -1.9,-4 -4,-7.8 -7.5,-10.8 -0.4,6.1 7,8.4 6.3,15.1 -1,-2.6 -3.6,-3.2 -3.7,-5.7 0,-0.8 -0.6,-0.8 -1.1,-0.6 -0.2,0.1 -0.5,0.7 -0.4,0.9 0.9,1.8 0.5,3.7 0.9,5.5 0.1,0.4 1.1,1.1 1.3,1 3.7,-1.6 3.1,1.6 2.9,3.1 -0.2,2.3 2.2,3.7 1.4,6.3 -1.8,-2 -3,-4.4 -5.5,-5.7 -1,2.7 1.2,4.3 1.2,6.3 1.6,-0.2 2.5,0.2 3.2,2 1.5,4 2.4,8 2.1,12.3 -1.1,-0.3 -0.8,-1.7 -2.3,-1.7 0.7,2.9 1.3,5.7 2,8.7 -1.5,0.7 -1.8,-1.7 -3.1,-1.3 -2,2.3 6.1,3.2 0.7,6.3 -0.5,-3.5 -3.4,-5.8 -3.9,-9.1 -0.4,5.2 2.8,9.2 4.9,13.5 0.6,1.2 1.1,2.2 1,3.5 -0.5,4.3 1.1,8.3 2.2,12.4 0.9,3.4 2.9,5.2 6,6.5 9.4,3.9 18.1,2.4 25.7,-3.9 5.2,-4.3 3.6,-12.3 -2.3,-14.9 -2.2,-1 -5.9,1.9 -6.3,4.9 -0.4,2.9 1,5.3 2.6,7.6 0.6,0.9 2.4,2.3 0.5,3.4 -2.1,1.3 -2.1,-1.1 -2.7,-2 -1,-1.8 -1.7,-3.8 -2.6,-5.7 -1.9,-3.7 0,-6.5 2.3,-9 1.9,-2.1 4.4,-2.7 7.1,-1.4 3.4,1.5 5.4,4 5.9,7.7 1.2,9.5 -5.5,14.8 -13.7,16.8 -8.3,2 -16.5,0.7 -23.1,-5.6 -0.4,-0.4 -1,-0.7 -1.5,-1.1 -4.4,-3 -5.2,-8.8 -1.9,-12.9 0.7,-0.8 1.8,-1.9 1.1,-2.5 -3.1,-2.8 -1.9,-7.4 -5.2,-10.3 0,4.1 2.1,7.8 1.3,12.4 -0.7,-1.8 -1.4,-2.8 -3,-3.2 3.1,2.7 0.6,6.5 2.3,9.5 0.3,0.6 -0.1,0.7 -0.8,0.5 -2.2,-0.7 -1.3,0.4 -0.9,1.5 1.1,2.7 1.1,5.6 0.9,8.9 -2.8,-2.7 -4.4,-2.6 -4.7,1.7 -0.1,1.7 -1.8,3.3 -2.5,5.1 1.9,-1.1 2.8,-3 3.9,-4.8 0.4,3.1 -1.5,5.2 -3.4,7.2 -1.4,0.9 -2.9,1.1 -2.8,2.6 -3.9,0.3 -7.4,2.2 -10.9,3.9 3.5,-1.8 7,-3.3 10.9,-3.9 z"
   class="st0" />
		<path
   id="path8452"
   d="m 138.9,217.2 c -2.6,3.5 -3.9,7.9 -3.1,11.7 1.7,8.7 -1.2,15.8 -5.7,22.6 -0.4,0.7 -1.7,1.3 -2.5,1.2 -1,-0.2 -0.4,-1.7 -1.1,-2.6 -0.6,-0.8 0.5,-1.4 1.3,-1.9 4.8,-2.4 5.5,-4.2 3.1,-9 -1.7,-3.3 -0.2,-6.5 -0.3,-9.8 -1.1,3.7 -3.4,7.2 -0.5,11.2 2.1,3 1.2,4.4 -2.6,6 -1.1,-1.4 0.9,-1.7 0.9,-2.8 -0.2,-0.1 -0.6,-0.3 -0.7,-0.2 -1.6,1.9 -3.3,1.6 -5.3,0.4 -1.5,-1 -3.3,-1.6 -5,-2.2 -5.2,-1.9 -5.5,-3.7 -1.9,-8 -2.3,-1.1 -3.7,-3.3 -6.2,-4 -1.7,-0.5 -1.8,-2.4 -1.8,-3.4 -0.2,-3.2 -2.3,-4.5 -4.7,-5.7 -5,-2.6 -5.2,-3.9 -1.2,-7.4 -0.7,-0.3 -1.3,-0.2 -2.1,0 -2.2,0.6 -4.3,1.1 -3.2,-2.7 0.6,-1.9 0,-4.1 1.5,-5.9 1.5,0.4 2.7,1.4 4,2.3 -0.9,-1.6 -2.5,-1.8 -4.1,-2.2 1.3,-1.6 -2.7,-1 -1.2,-3.2 1.8,-2.7 3.8,-1.1 5.2,-0.4 3,1.3 4.8,3.9 6.3,7 2.6,5.3 6,10.2 10.9,13.8 1.1,0.8 2.4,1.2 3.7,1.1 -1,4.2 0.5,8.4 -0.5,12.6 1.1,-4.2 2.2,-8.4 3.5,-13.5 3.1,7.7 -1.4,14 -0.8,20.9 2.8,-5.3 3.1,-10.9 3.4,-16.1 0.3,-4.5 2.4,-7.3 4.9,-10.4 0.1,-0.1 0.4,-0.1 0.6,-0.2 0.1,4.1 -3.7,7.3 -2.7,11.8 2.8,-6.2 4,-13.1 9.5,-17.7 0.6,-0.5 0.9,-1.6 1.9,-1.1 1.5,0.7 0.1,1.4 -0.1,2.1 -2.9,10.8 -5,21.6 -0.3,32.4 0.4,1 -0.4,2.3 1.5,3.3 -3.5,-13.4 -3.4,-26.2 2.7,-38.5 1.4,3.9 -3.5,7.1 -1.3,11.1 1.8,-2.2 2.2,-5 2.7,-7.7 0.5,-3.1 2.5,-4.7 5.4,-4.2 1.7,0.3 1.6,1.7 1.5,3 -1.3,9.3 -1.9,18.6 -1.4,27.9 0.1,2.9 0.6,5.9 2.1,8.6 1.6,-1.9 1.7,-2.1 1,-2.9 -1.8,-1.9 -1.7,-4.1 -1.7,-6.3 0,-7.7 -0.2,-15.3 0.7,-22.9 0.3,-2.1 1.3,-3.5 2.4,-5.5 1.3,2.1 0.2,3.9 1,5.6 1.1,-0.8 -0.2,-2.7 1.9,-3.3 0.1,0.9 0.2,1.8 0.2,2.6 -0.2,8 -0.5,15.9 -0.8,23.9 -0.1,2.5 0.8,4.4 2.8,6.8 -2.2,-10.9 -1.1,-21.1 -0.5,-31.3 0.1,-1.5 0.7,-1.6 1.9,-1.6 2,0.1 2.7,2.1 2.6,3.1 -0.5,3.7 0.5,7.5 -0.5,11.2 -0.4,1.7 -0.2,1.8 1.9,4.2 0.3,0.4 0.4,0.8 -0.1,1.3 -3.2,3.6 -5.8,7.4 -3.6,12.5 0.1,0.3 0.1,0.7 0,1 -0.3,0.6 -0.7,1.2 -1.1,2 -2.4,-2.4 -4.1,-5 -4.2,-8.9 -1.7,4.7 -1.7,4.7 0.8,9 -0.5,0.9 -1.3,0.4 -2,0.5 -3,0.4 -4.7,0 -5.7,-3.8 -2.2,-8.6 -2.6,-17.2 -1.6,-25.9 0.3,-2.5 1.1,-4.9 1.6,-7.3 0.2,-0.8 0.7,-1.8 -0.7,-2 -1.6,-0.4 -0.8,0.9 -1,1.5 -2.5,7.3 -1.9,15 -1.7,22.4 0.2,5.4 -0.4,11.3 3.2,16.2 0.4,0.6 -0.4,2 -0.9,4.2 -0.2,-4.6 -2.9,-7 -3.7,-10.6 -0.8,-3.6 -2.2,-7 -2,-10.9 0.2,-3.7 0,-7.4 0,-11.3 -2.9,2.3 -2.1,5.9 -1.9,8.1 0.3,4.6 0.1,9.4 2.2,13.8 1.4,3 0.7,3.7 -2.9,4.9 -1.3,0.5 -2.9,1.7 -2.8,3.7 0.1,1.4 0,2.8 0,4.4 -2.2,-1.3 -3.7,-2.5 -1.5,-4.7 2.8,-2.8 -0.1,-5.9 0.9,-8.9 -1.7,0.4 -2.1,1.6 -1.6,2.5 1.8,3.3 0,5.5 -2.2,7.5 -2.4,2.2 -4.2,4.6 -4,8.5 -2,-2.2 -2.6,-4.1 -1.1,-6.4 3,-4.8 5.5,-9.9 7.1,-15.3 0.8,-2.6 0.7,-5.9 -0.1,-8.5 -0.8,-2.5 -0.6,-4.8 0.3,-6.9 1,-2.3 0.2,-4.5 0.8,-6.7 0,-0.2 0.1,-0.4 0.3,-0.5 -0.3,0.2 0.2,0.6 0,0.8 z"
   class="st0" />
		<path
   id="path8454"
   d="m 112.5,121.4 c -4.5,0 -8.9,-1.1 -12.8,-3 -3.7,-1.8 -7.5,-3.9 -9.6,-7.8 -0.5,-0.9 -2.4,-1.6 -0.1,-2.7 0.5,-0.2 -0.4,-1 -0.8,-1.3 -2.4,-1.6 -3.6,-4.1 -4.8,-6.9 1.9,0.3 2.5,1.6 3.3,2.7 0.1,-2.5 -3.6,-7 -7.5,-7.7 -3,-0.6 -3.4,-2.2 -3.6,-4.5 -0.1,-0.6 0,-1.4 -0.3,-1.8 -0.5,-0.7 -0.5,-2.3 -2,-1.6 -1.3,0.6 0.1,1.4 0.1,2.1 0.1,1.2 1,2.3 0.4,3.8 -2.3,-1.7 -4.2,-3.8 -6.1,-6 4.3,-1.4 11,-1 12.9,0.6 1.1,-0.6 1,-2.3 2.5,-2.6 -3.1,-1.3 -6,-2.5 -7.1,-6.2 -0.8,-2.8 -5.7,-4.7 -1,-8 -2.4,-2 -4.1,2.9 -6.3,-0.1 -1.7,-2.3 -0.2,-4.7 -1.3,-7.7 3.9,2.5 5.8,6.5 10,6.9 -0.1,-0.9 -0.3,-1.9 -0.3,-2.8 -0.1,-1.1 1.1,-1 1.6,-1.2 1,-0.3 0.5,0.8 0.6,1.2 2,7.2 6.3,12.4 12.4,16.9 6.6,4.9 10.6,12.4 15,19.4 2.3,3.7 4.8,7.2 8.5,9.6 0.7,0.5 0.6,0.6 -1.4,2.2 1.9,0 3.4,0 5.7,0 -2.7,2.6 -5.1,3.3 -8.1,2 -4,-1.7 -8.2,-3 -12.5,-4 3.3,3 8.2,2.7 11.6,5.6 -5.7,0 -10.2,-3.2 -15,-5.4 -1,-0.5 0.4,-3.4 -2.2,-3.6 -0.7,-0.1 -0.9,-1.8 -2,-0.6 -0.8,0.9 -0.6,1.7 0.1,2.7 2.5,3 6.2,4.1 9.4,5.9 3.5,1.7 7.3,2.1 10.7,3.9 z"
   class="st0" />
		<path
   id="path8456"
   d="m 246.2,280 c 4,-4.1 5.4,-8 3,-12.9 -1.2,-2.4 -0.1,-5.5 1.9,-8.3 -3.3,1.7 -3.3,1.7 -4,7.6 -2.7,-3.3 -2.3,-6.3 1.1,-8.9 3.2,-2.5 6.7,-5 6.1,-10 -0.3,-2.3 -2.5,-3.6 -2.9,-6.4 4.1,3.3 7.8,6.1 7.4,11.6 -0.3,3.6 1.9,6.3 2.7,9.5 0.3,1.1 1,2.4 -0.3,2.9 -1.1,0.4 -1.2,-1.3 -1.9,-1.8 -1.2,-1 -1.1,-3.3 -3.3,-3.3 -0.4,1.8 0.8,3.3 1.6,4.3 2.5,2.9 1.4,5.3 -0.3,7.8 -2.5,3.6 -5.4,7 -11.1,7.9 z"
   class="st0" />
		<path
   id="path8458"
   d="m 112.7,134.9 c -0.9,3.9 -3.7,4.5 -6.4,5.3 -1.2,0.4 -1.7,-0.4 -2.1,-1.1 -1.7,-3.1 -3.4,-6.1 -6.2,-8.3 -0.7,-0.6 -1,-1.3 -0.6,-2 0.7,-1.4 2.4,-0.1 3.4,-0.9 -0.9,-1 -2.1,-0.1 -3,-0.6 2.3,-4.8 6.7,-1.3 10.9,-2.7 -2.9,0 -4.6,-1 -6.3,-1.8 -0.3,-0.2 -0.7,-0.7 -0.9,-0.6 -6.1,2.9 -5.4,-4.4 -8.8,-5.6 5.9,3.5 12.4,5.5 19.2,7 -1.1,1.5 -2.9,1.3 -3.7,2.8 3.9,0.8 -0.4,1.6 0,2.3 1.5,1.2 2.4,-0.5 4,-1.4 -2.1,4.7 -7.1,4.2 -9.9,7.2 4,0.6 7.3,0.3 10.1,-2.5 -0.8,3.4 -4.7,3.1 -5.8,6.4 2,-1.3 3.8,-2.3 6.1,-3.5 z"
   class="st0" />
		<path
   id="path8460"
   d="m 191.3,51 c 3.5,-5 7.1,-8.6 11.2,-11.7 2.5,-1.9 5.2,-1.9 7.8,-1.4 2.1,0.4 2.7,3 1.2,4.6 -5.2,5.8 -12.2,7.5 -20.2,8.5 z"
   class="st0" />
		<path
   id="path8462"
   d="m 156.5,87.4 c 1.8,0 3.6,0 5.5,0 -0.8,1.6 -2.4,0 -3.2,1.4 1.4,0.1 2.7,0.2 4,0.3 -0.2,1.2 -1.5,0.1 -1.7,1.2 0.4,0.9 2.5,-0.6 2.1,0.9 -0.2,1 -1.2,2.4 -2.9,2.4 -2.1,0 -3.8,-1 -5.7,-1.5 -3.5,-0.8 -6.8,-2 -10.3,-2.9 -3.4,-0.9 -3.3,-3 -3.5,-5.7 6.1,2.7 12.3,1.2 18,2.8 -0.2,1.1 -1.8,-0.3 -2.3,1.1 z"
   class="st0" />
		<path
   id="path8464"
   d="m 129.3,85.2 c -2.9,-0.3 -6.5,-3.1 -10.8,-2.4 -0.7,0.1 -1.5,-0.8 -1.2,-1.5 0.4,-1 1.1,-2 2.4,-2.1 2.9,-0.2 5.7,0.2 8.4,1.2 1.1,0.4 2.3,1 3.5,1 1.6,0 2.5,0.1 2.5,2.2 -0.1,2.2 -1.4,1.6 -2.6,1.7 -0.3,-0.1 -0.7,-0.1 -2.2,-0.1 z"
   class="st0" />
		<path
   id="path8466"
   d="m 122.6,59.9 c -0.7,0.4 -1.4,0.8 -2.2,1.3 -0.5,-2.1 0.5,-3.7 1.2,-5.4 0.8,-2.1 2.1,-3.6 4.5,-2.6 2.1,0.8 3.1,4.5 1.6,6.3 -1.5,1.9 -3.3,3.5 -5,5.2 -0.5,0.5 -0.9,1.9 -2,0.6 -0.7,-0.8 -0.6,-1.6 0,-2.4 0.7,-1 2.2,-1.4 1.8,-3.1 l 0.2,-0.1 c 0,0 -0.1,0.2 -0.1,0.2 z"
   class="st0" />
		<path
   id="path8468"
   d="m 251.5,233.8 c -1.2,-2.3 -2.7,-4.1 -3.5,-6.5 -1,-2.7 0.3,-5 1.8,-5.5 2.1,-0.7 4,1.8 4.4,3.7 0.6,2.9 0.3,6 -2.7,8.3 z"
   class="st0" />
		<path
   id="path8470"
   d="m 211.7,48.3 c 0.6,-0.5 1.2,-0.9 2.1,-1.5 -0.4,3.4 -3.1,3 -5,3.8 1.2,0 2.4,0 3.6,0 0.7,0 1.2,-1.3 1.9,-0.4 0.5,0.7 0.5,1.8 0,2.5 -0.6,0.7 -1.4,2.2 -2.3,1.6 -2.7,-1.8 -6,-1.7 -8.9,-3.4 3.1,-2.6 7.1,-3.4 9.6,-6.4 1,1.8 -1.7,2 -1,3.8 z"
   class="st0" />
		<path
   id="path8472"
   d="m 154.4,83.4 c -2.9,-0.9 -5.8,-0.6 -8.6,-0.5 -1.6,0 -2.9,-0.5 -4.2,-1.3 -0.9,-0.6 -0.7,-1.6 -0.6,-2.4 0.1,-1.2 1,-0.8 1.7,-0.9 4.8,-0.5 8.6,1.4 11.7,5.1 z"
   class="st0" />
		<path
   id="path8474"
   d="m 145.5,62.3 c 4.7,1.3 6.9,4.3 6.2,8 -0.7,3.8 -4.9,6.6 -9.9,5.9 3,-1.1 6,-1.8 7.2,-5.5 1.3,-3.9 -1.4,-5.8 -3.5,-8.4 z"
   class="st0" />
		<path
   id="path8476"
   d="m 142.3,70.9 c -3.4,6.5 -5.4,12.3 -1.9,18.8 -6.1,-2.6 -5.2,-12.9 1.9,-18.8 z"
   class="st0" />
		<path
   id="path8478"
   d="m 154.9,192.8 c 3.4,-0.1 3.8,2.7 4.9,4.5 0.3,0.5 -1,1.6 -1.9,1.9 -0.7,0.3 -4.6,-4.4 -4.5,-5.5 0.2,-0.9 0.7,-1.6 1.5,-0.9 z"
   class="st0" />
		<path
   id="path8480"
   d="m 88.4,202.5 c 2,2 8.7,0 5.5,6.5 -2.6,-1.4 -5,-3 -5.5,-6.5 z"
   class="st0" />
		<path
   id="path8482"
   d="m 215.2,144.9 c 0,1.5 1.6,2.9 0.2,5 -1.5,-3.5 -4.5,-5.8 -4.7,-9.6 0,0 -0.1,0.1 -0.1,0.1 3,0.1 3.2,3 4.7,4.6 z"
   class="st0" />
		<path
   id="path8484"
   d="m 74.5,56.5 c 1.4,2.9 3.6,4.1 5.2,6.3 -1.5,-0.4 -1.9,2.1 -3.2,1 -2.1,-1.7 -2.4,-4.1 -2,-7.3 z"
   class="st0" />
		<path
   id="path8486"
   d="m 211.2,149.8 c 0.7,0 2,-0.3 2.1,-0.1 1.6,3.2 5.5,5.2 4.8,9.9 -1.9,-3.9 -4.2,-7.1 -6.8,-10 0,0.1 -0.1,0.2 -0.1,0.2 z"
   class="st0" />
		<path
   id="path8488"
   d="m 91.2,195.8 c 1.4,2.1 3.7,2.3 4.1,4.3 0.1,0.4 -1,1.8 -2.3,1.4 -2.6,-0.9 -1.7,-3.1 -1.8,-5.7 z"
   class="st0" />
		<path
   id="path8490"
   d="m 92.4,215.7 c 2.6,-0.6 4.2,-0.4 4.8,1.7 0.1,0.5 -0.1,1.7 -0.2,1.7 -2.2,-0.1 -2.7,-2.2 -4.6,-3.4 z"
   class="st0" />
		<path
   id="path8492"
   d="m 171.3,204.8 c 0.6,1.4 0.1,2.2 -0.8,2.8 -0.1,0.1 -0.8,-0.4 -0.8,-0.6 -0.2,-1.2 0.8,-1.5 1.6,-2.2 z"
   class="st0" />
		<path
   id="path8494"
   d="m 234.8,68.3 c -6.1,-0.2 -11.4,0.5 -17.1,-0.7 2.3,2.4 5.7,1.5 8.3,3.8 -4.8,-0.3 -8.9,0.3 -12.8,2.2 -1.1,0.6 -2.5,0.1 -3.4,-1.1 -0.9,-1.2 -1.9,-2.3 -3.8,-2.3 3.4,-0.9 5,-3.4 6.7,-5.9 2.5,-3.6 6.5,-2.7 9.4,-1.9 4.1,1.2 8.5,2.2 12.7,5.9 z"
   class="st1" />
		<path
   id="path8496"
   d="m 172.1,67.1 c -1.3,-1 -3.2,0.5 -4.7,-1.5 7.8,-0.9 15.1,0.2 22.5,1.4 -1.4,2 -3,1.3 -4.8,0.9 -1.4,-0.3 -4.6,-2 -2.9,2.2 0.6,1.5 -0.6,2.6 -1.8,3.4 -1.8,1.1 -4.1,1.8 -5.6,0.5 -2.6,-2 -5.7,-2.8 -8.3,-4.5 1.1,-2.7 4.5,0.3 5.6,-2.4 z"
   class="st1" />
		<path
   id="path8498"
   d="m 181.6,104.2 c -2.7,1.8 -4.8,2.8 -8.1,-0.1 -2.1,-1.8 -6.3,-0.9 -9.5,-0.2 -1.1,0.2 -2.1,0.6 -3.6,-0.4 4.1,-1.5 8,-2.3 11.7,-1.2 3.8,1.1 7.1,0.2 10.6,-1 1.1,1.6 -1.2,1.9 -1.2,3.1 0,0 0.1,-0.2 0.1,-0.2 z"
   class="st1" />
		<path
   id="path8500"
   d="m 138,160.6 c 1,-3 0.8,-6.2 4.2,-8.5 2.3,-1.6 3.3,-5 4.9,-7.7 1.2,3.2 -3.4,11.5 -9.1,16.2 z"
   class="st1" />
		<path
   id="path8502"
   d="m 154.1,139 c -1.5,2 -1.9,4.7 -3.5,6.7 -1.7,2.2 0.7,4.3 0.4,6.8 1.3,-0.8 0,-2.5 1.3,-3 l -0.1,-0.1 c 0.4,3.9 0.3,7.7 -0.7,11.5 -0.7,-1.7 -2.2,-3.3 -0.7,-5.3 -1.8,-0.5 -1.3,-2 -1.6,-3.3 -1.5,-5.2 1.3,-9.1 4,-13.1 0.1,-0.2 0.6,-0.1 1,-0.1 z"
   class="st1" />
		<path
   id="path8504"
   d="m 177.2,179.6 c 1.9,4.5 -2.6,6 -4.8,8.8 0.8,-6.8 1.7,-13.7 2.5,-20.5 0.3,0 0.7,0.1 1,0.1 -0.6,5.3 -1.2,10.5 -1.9,16 2.6,-0.6 0.8,-4 3.2,-4.4 z"
   class="st1" />
		<path
   id="path8506"
   d="m 105.5,164.8 c 1.1,-5 6.8,-7 7.6,-12.3 0.8,2.1 -0.4,3.6 -1.3,5.7 3.4,-1.5 4.9,-4.5 7.3,-6.1 -0.5,2.5 -3.7,6.8 -6.2,7.3 -3.4,0.6 -5.6,2.5 -7.4,5.4 z"
   class="st1" />
		<path
   id="path8508"
   d="m 208,232.1 c -1.3,-1.5 3.7,-2.9 -0.6,-3.8 -0.4,-0.1 -0.4,-0.4 -0.1,-0.8 3.1,-3.4 0.8,-8.2 3.3,-11.8 -1.5,5.4 3.2,11.6 -2.6,16.4 z"
   class="st1" />
		<path
   id="path8510"
   d="m 165.2,177.7 c 0.9,6.1 1.8,11.8 2.7,17.9 -2.4,-2.6 -4.2,-14.6 -2.7,-17.9 z"
   class="st1" />
		<path
   id="path8512"
   d="m 216.2,260.2 c 3.1,1.8 6.2,3.6 6,7.8 0,1.1 -0.2,2.1 -1.3,2.4 -1,0.3 -1.5,-0.8 -2.1,-1.4 -0.4,-0.4 -0.7,-1 -0.9,-1.6 -0.3,-0.9 -2.7,-1.3 -1.3,-2.4 1.3,-0.9 1.8,1 2.5,2 0.5,0.6 0.3,2.6 1.8,1.7 1,-0.6 -0.1,-1.7 -0.3,-2.6 -0.5,-2.7 -3.1,-3.8 -4.4,-5.9 z"
   class="st1" />
		<path
   id="path8514"
   d="m 204.7,250.8 c -2.1,1.7 -4.8,1.8 -7.1,2.9 -2.2,1 -4.3,2.1 -6.8,3.4 1.4,-3.7 9.7,-7.1 13.9,-6.3 0.1,0.1 0,0 0,0 z"
   class="st1" />
		<path
   id="path8516"
   d="m 156.9,152.1 c 0.3,5.1 -0.6,9.2 -1.6,13.2 -2.4,-4.4 0,-8.3 1.6,-13.2 z"
   class="st1" />
		<path
   id="path8518"
   d="m 194.9,57.4 c 4.3,-1.1 8.4,-2.7 13.8,-1.9 -5.1,1.2 -9.2,3.4 -13.8,1.9 z"
   class="st1" />
		<path
   id="path8520"
   d="m 161.5,179.4 c 0.8,0 0.9,0.5 0.9,1 0,3 0.9,5.8 1.5,8.7 0.1,0.6 0.2,1.4 -0.4,1.7 -0.8,0.3 -1.6,-0.4 -1.7,-1.1 -0.4,-3.2 -0.6,-6.3 -0.9,-9.5 0,-0.3 0.4,-0.6 0.6,-0.8 z"
   class="st1" />
		<path
   id="path8522"
   d="m 147.4,154.3 c -4.5,2.2 -5.2,7.8 -9.5,10.2 3,-3.7 4.2,-8.8 9.5,-10.2 z"
   class="st1" />
		<path
   id="path8524"
   d="m 172.1,166.6 c -0.1,5.4 -2,10.6 -1.5,16.1 -0.3,-5.5 -1.5,-11 1.5,-16.1 z"
   class="st1" />
		<path
   id="path8526"
   d="m 190.1,204.7 c -1.2,-2.5 -0.3,-5.4 -1.6,-7.8 -0.1,-0.3 0.1,-1 0.4,-1.2 0.4,-0.3 0.7,0.3 1.1,0.6 3.6,2.8 -0.6,5.5 0.1,8.4 z"
   class="st1" />
		<path
   id="path8528"
   d="m 170.6,72.1 c 0,3.2 0.8,5.6 4,7.3 -3.8,0.6 -4.6,-2 -5.8,-3.7 -1.1,-1.6 0.5,-2.4 1.8,-3.6 z"
   class="st1" />
		<path
   id="path8530"
   d="m 156.6,136.1 c -1.7,-2.9 2.8,-2.6 2.4,-4.9 0.5,0 1.2,0.1 1,0.7 -1.1,2.5 -1,5.6 -3.4,7.8 -0.8,-1.6 1.5,-2.6 0,-3.6 z"
   class="st1" />
		<path
   id="path8532"
   d="m 158.7,147.1 c -0.2,-3.4 -0.7,-5.9 0.9,-8.2 0.3,-0.5 0.9,-1.1 1.5,-0.7 0.7,0.5 0.3,1 -0.1,1.6 -1.3,1.8 -0.6,4.4 -2.3,7.3 z"
   class="st1" />
		<path
   id="path8534"
   d="m 159.1,159.9 c 0,2.8 1.1,5.7 -1.9,8.8 -0.1,-3.7 0.5,-6.3 1.9,-8.8 z"
   class="st1" />
		<path
   id="path8536"
   d="m 211.9,110.9 c -0.9,-2.5 -3.8,-4.1 -3.3,-7.7 2.6,2.3 3.8,4.6 3.3,7.7 z"
   class="st1" />
		<path
   id="path8538"
   d="m 126.2,140.9 c 1.1,-2.6 1.4,-5.5 5.4,-5.1 -1.9,1.7 -2.4,4.4 -5.4,5.1 z"
   class="st1" />
		<path
   id="path8540"
   d="m 97.2,163.2 c 1.2,-1.5 2.3,-2.8 4.7,-2.4 1,0.2 2.3,-1.7 3.4,-2.6 -0.7,3.1 -2.2,4 -8.2,4.9 z"
   class="st1" />
		<path
   id="path8542"
   d="m 183.3,186.6 c 0.3,3 1.4,6.2 -1.7,9.1 0.6,-3.4 1.2,-6.2 1.7,-9.1 z"
   class="st1" />
		<path
   id="path8544"
   d="m 160.5,171.5 c -0.8,-3.6 0.4,-5.8 1.3,-8.1 -0.1,2.5 0.2,5.1 -1.3,8.1 z"
   class="st1" />
		<path
   id="path8546"
   d="m 167.2,177.9 c -1.6,-2.7 -0.5,-4.5 -0.2,-6.3 0.1,-0.7 0.7,-0.8 1.1,-0.5 0.3,0.2 0.5,0.9 0.4,1.3 -0.3,1.6 -0.7,3.1 -1.3,5.5 z"
   class="st1" />
		<path
   id="path8548"
   d="m 195.7,245.4 c 3.8,1.1 5,-2 6.9,-4.1 -0.2,4.5 -1.2,5.1 -6.9,4.1 z"
   class="st1" />
		<path
   id="path8550"
   d="m 190,112 c 0,-1 0,-1.6 0.9,-1.6 1.9,0.1 2.7,1.6 3.6,2.9 0.3,0.4 -0.3,1.1 -0.8,0.8 -1.3,-0.6 -2.6,-1.4 -3.7,-2.1 z"
   class="st1" />
		<path
   id="path8552"
   d="m 163.4,175.8 c -0.2,-3.3 -0.4,-5.9 0.1,-8.8 1.2,1.8 1.2,1.8 -0.1,8.8 z"
   class="st1" />
		<path
   id="path8554"
   d="m 214.3,257.8 c -1.3,2.1 -3.1,2.4 -5.7,1.6 1.9,-1.9 4.2,-0.3 5.7,-1.6 z"
   class="st1" />
		<path
   id="path8556"
   d="m 215.3,145 c -2.1,-1 -2.2,-4 -4.7,-4.6 0.2,-0.7 0.3,-2.5 1.2,-1.2 1.4,1.7 3.5,3.2 3.5,5.8 z"
   class="st1" />
		<path
   id="path8558"
   d="m 199.1,85.9 c -2,-1.8 -4.1,-2.5 -3.6,-5.3 1.7,1.2 2.9,2.4 3.6,5.3 z"
   class="st1" />
		<path
   id="path8560"
   d="m 177.3,179.7 c -0.4,-2.4 -0.9,-4.8 0.7,-7.6 1.1,3.1 -0.3,5.2 -0.7,7.6 -0.1,-0.1 0,0 0,0 z"
   class="st1" />
		<path
   id="path8562"
   d="m 142.8,165.8 c 0.9,2.3 0,4.3 -0.7,6.4 -2.1,-2.5 1.1,-4.2 0.7,-6.4 z"
   class="st1" />
		<path
   id="path8564"
   d="m 165.9,64.4 c 2.2,-1.6 3.9,-3 6.5,-2.8 -2,1.5 -3.7,2.6 -6.5,2.8 z"
   class="st1" />
		<path
   id="path8566"
   d="m 172.2,101.1 c -0.4,-1 -0.7,-1.3 -0.6,-1.4 0.9,-1.1 0.4,-2.8 1.7,-3.6 0.1,-0.1 0.9,0.3 0.9,0.5 0,1.6 -1,2.7 -2,4.5 z"
   class="st1" />
		<path
   id="path8568"
   d="m 119.2,156.6 c -1.3,1.6 -2.4,3.6 -4.2,4.3 1.2,-1.3 2.7,-2.8 4.2,-4.3 z"
   class="st1" />
		<path
   id="path8570"
   d="m 189.5,92.2 c 1.6,-0.5 2,0.4 2.3,1.4 0.3,1.2 -0.7,0.6 -1.1,0.7 -1.1,0.3 -1.4,-0.5 -1.8,-1.3 -0.6,-1.3 0.5,-0.7 0.6,-0.8 z"
   class="st1" />
		<path
   id="path8572"
   d="m 119.4,154.9 c 1,-1.2 1.9,-2.5 3,-3.8 0.7,2.7 -1.5,3 -3,3.8 z"
   class="st1" />
		<path
   id="path8574"
   d="m 113,164.5 c 0.1,-1.3 -2.3,-1.4 -1.3,-2.9 0.3,-0.4 0.8,-0.9 1.2,-0.5 1,1 0.4,2.3 0.1,3.4 z"
   class="st1" />
		<path
   id="path8576"
   d="m 175.2,101 c 1.3,-1.9 1.7,-3.4 3,-4.3 0.7,2.3 -0.7,3 -3,4.3 z"
   class="st1" />
		<path
   id="path8578"
   d="m 154.2,145.9 c -1.1,0.9 1.5,3.9 -2,3.4 0,0 0.1,0.1 0.1,0.1 0.3,-1.3 -0.2,-3.1 1.9,-3.5 z"
   class="st1" />
		<path
   id="path8580"
   d="m 184.4,200.4 c 0.1,0.4 0.2,0.7 0.2,1.1 -0.1,1.1 0.6,2.4 -0.5,3.1 -0.7,0.5 -1.3,-0.2 -0.8,-1.2 0.3,-0.5 0.4,-1.1 0.5,-1.7 0.1,-0.6 0,-1.1 0.6,-1.3 z"
   class="st1" />
		<path
   id="path8582"
   d="m 126.3,121.8 c 0.8,-1.3 2.2,-1.7 3.8,-2.4 -0.9,2.2 -2,2.9 -3.9,2.3 0,0 0.1,0.1 0.1,0.1 z"
   class="st1" />
		<path
   id="path8584"
   d="m 129.7,117.6 c 1.4,-1.6 1.4,-1.6 4.3,-2.4 -1.1,1.7 -2.8,2 -4.4,2.3 z"
   class="st1" />
		<path
   id="path8586"
   d="m 169.4,126.4 c 0.9,-1.6 2.3,-1.5 3.4,-2.1 -0.6,1.5 -1.4,2.6 -3.4,2.1 z"
   class="st1" />
		<path
   id="path8588"
   d="m 138.8,167 c 0.6,-1.1 0.6,-2.3 1.8,-2.8 0.6,0.6 0.5,1.3 0.1,1.9 -0.3,0.5 -0.7,1.1 -1.9,0.9 z"
   class="st1" />
		<path
   id="path8590"
   d="m 210.1,121 c 1.9,0.5 2.4,1.4 1.9,3.1 -1.4,-0.6 -1.6,-1.7 -1.9,-3.1 z"
   class="st1" />
		<path
   id="path8592"
   d="m 163.7,146.6 c 0.2,1 0.6,2 -0.3,2.8 -0.1,0.1 -0.9,-0.2 -0.9,-0.4 -0.2,-0.8 -0.2,-1.7 1.2,-2.4 z"
   class="st1" />
		<path
   id="path8594"
   d="m 123.4,155.8 c 0,-1.4 0,-3 2.1,-3.3 -0.8,1.3 -1.4,2.3 -2.1,3.3 z"
   class="st1" />
		<path
   id="path8596"
   d="m 211.4,115 c -3.3,0.3 -1.9,-1.6 -2.5,-3.7 1.2,1.8 1.8,2.7 2.5,3.7 z"
   class="st1" />
		<path
   id="path8598"
   d="m 193.3,117.3 c 0.6,0 1.4,0 1.2,0.9 -0.1,0.5 -0.7,0.9 -1.1,1.3 -0.3,-0.4 -0.8,-0.7 -1,-1.1 -0.3,-0.8 0.2,-1 0.9,-1.1 z"
   class="st1" />
		<path
   id="path8600"
   d="m 198.1,199.4 c 0.4,2.4 0.9,4 -1,5.3 0.2,-1.6 0.5,-2.9 1,-5.3 z"
   class="st1" />
		<path
   id="path8602"
   d="m 214.8,198.4 c -0.6,-0.8 0.1,-2 -1.1,-2.6 0.5,-0.2 0.8,-0.4 1,-0.3 1.6,0.9 1.9,1.8 0.1,2.9 z"
   class="st1" />
		<path
   id="path8604"
   d="m 186.3,176.5 c 0,-1.4 0,-2.9 0,-4.3 0.1,0 0.3,0 0.4,0 0,1.5 0,3.1 0,4.6 -0.2,-0.1 -0.3,-0.2 -0.4,-0.3 z"
   class="st1" />
		<path
   id="path8606"
   d="m 154.2,139.1 c -0.6,-2.1 -0.4,-3.6 2.4,-3 0,0 -0.1,-0.1 0,0 -1.3,0.6 -1.7,1.9 -2.4,2.9 -0.1,0 0,0.1 0,0.1 z"
   class="st1" />
		<path
   id="path8608"
   d="m 142.9,106.2 c -0.8,0.3 -1.3,1.6 -2.4,1 -0.1,-0.1 -0.3,-0.5 -0.2,-0.7 0.6,-1.2 1.6,-0.5 2.6,-0.3 z"
   class="st1" />
		<path
   id="path8610"
   d="m 190.8,184.8 c -0.1,1.1 -0.2,2.2 -0.4,3.3 -0.4,-1.2 -0.7,-2.3 0.4,-3.3 z"
   class="st1" />
		<path
   id="path8612"
   d="m 141.5,137.8 c 0.2,0.8 0.6,1.7 -0.2,2.4 -0.2,0.1 -0.8,-0.1 -0.9,-0.2 -0.4,-1.1 0.6,-1.5 1.2,-2 z"
   class="st1" />
		<path
   id="path8614"
   d="m 141.6,137.9 c 0.8,-0.5 0.5,-1.9 2.4,-2.3 -0.8,1.2 -0.2,3 -2.5,2.2 0,0 0.1,0.1 0.1,0.1 z"
   class="st1" />
		<path
   id="path8616"
   d="m 97.1,163.1 c 0.7,1.6 -0.4,2.1 -1.3,2.6 -0.3,-0.2 -0.5,-0.4 -0.8,-0.7 0.8,-0.6 1.5,-1.2 2.3,-1.8 -0.1,0 -0.2,-0.1 -0.2,-0.1 z"
   class="st1" />
		<path
   id="path8618"
   d="m 177.6,106.9 c -0.7,1.5 -1.7,1.2 -3.2,0.9 1.5,-0.4 2.3,-0.6 3.2,-0.9 z"
   class="st1" />
		<path
   id="path8620"
   d="m 194.7,109.4 c -0.7,0.1 -1.1,0.2 -1.5,0.2 -0.6,0 -0.9,-0.3 -0.8,-0.9 0.1,-0.6 0.5,-0.8 1,-0.5 0.4,0.3 0.7,0.7 1.3,1.2 z"
   class="st1" />
		<path
   id="path8622"
   d="m 127.4,146.7 c -0.2,-0.8 -0.6,-1.7 0.2,-2.4 0.1,-0.1 0.9,0.1 0.9,0.2 0.4,1.1 -0.6,1.5 -1.2,2.1 0,0 0.1,0.1 0.1,0.1 z"
   class="st1" />
		<path
   id="path8624"
   d="m 129.6,117.5 c -0.9,0.5 -1.8,1 -3.1,1.7 0.7,-2.3 2,-1.9 3.1,-1.7 0.1,0.1 0,0 0,0 z"
   class="st1" />
		<path
   id="path8626"
   d="m 185.9,199.2 c -1.9,-1.2 -0.4,-1.9 -0.3,-3 0.8,1.1 0.5,2 0.3,3 z"
   class="st1" />
		<path
   id="path8628"
   d="m 167,177.9 c 0.7,0.1 0.9,0.6 0.6,1.1 -0.2,0.4 -0.7,0.7 -1,1 -0.1,-0.4 -0.3,-0.8 -0.4,-1.2 0,-0.7 0.3,-0.9 0.8,-0.9 z"
   class="st1" />
		<path
   id="path8630"
   d="m 154.3,146 c -0.4,-1.2 -0.5,-2.3 0.8,-3.3 -0.3,1.1 -0.6,2.1 -0.8,3.3 -0.1,-0.1 0,0 0,0 z"
   class="st1" />
		<path
   id="path8632"
   d="m 158.4,238.1 c -1,-5.4 -1.8,-10.7 -0.8,-16.2 -0.5,5.5 3.2,10.7 0.8,16.2 z"
   class="st1" />
		<path
   id="path8634"
   d="m 163.2,225.7 c 0,-3.5 0,-7.1 0,-10.6 0,-0.9 0.6,-1.8 1.1,-1.8 0.9,0.1 1.6,1 1.2,2 -1.4,3.4 -0.6,7.1 -2.3,10.4 z"
   class="st1" />
		<path
   id="path8636"
   d="m 97.8,204.9 c 2.2,-0.8 4,0.5 5.9,1.1 0.4,1.5 -1.3,0.8 -1.4,1.8 -0.2,2.4 -1.7,1.5 -1.7,0.3 -0.1,-2 -2.2,-1.9 -2.7,-3.2 0,-0.1 -0.1,0 -0.1,0 z"
   class="st1" />
		<path
   id="path8638"
   d="m 113.8,237.4 c 5.3,2.1 5.3,2.1 7.7,0.5 -1.5,3.8 -3.6,3.8 -7.7,-0.5 z"
   class="st1" />
		<path
   id="path8640"
   d="m 163.3,237.1 c 0,-3.2 0,-6.5 0,-9.7 0.1,0 0.3,0 0.4,0 0,3.2 0,6.5 0,9.7 -0.1,0 -0.3,0 -0.4,0 z"
   class="st1" />
		<path
   id="path8642"
   d="m 117.2,236.8 c 0.2,-1.9 1.2,-3 2,-4.4 0.8,2 0,3.3 -2,4.4 z"
   class="st1" />
		<path
   id="path8644"
   d="m 158.5,215.8 c 0,2.1 0,3.4 0,4.7 -1.3,-1.3 -1.3,-1.3 0,-4.7 z"
   class="st1" />
		<path
   id="path8646"
   d="m 138.9,217.2 c -0.7,-1.3 0.5,-2.1 0.9,-3.2 0.9,1.6 -0.1,2.3 -1,3.1 0,0 0.1,0.1 0.1,0.1 z"
   class="st1" />
		<path
   id="path8648"
   d="m 112.9,115 c -4.2,-1.4 -8.5,-2 -12.4,-3.5 -4.4,-1.7 -8.1,-4.9 -9.4,-10 -0.6,-2.6 -3.5,-3 -5.1,-4.8 -0.3,-0.4 -1.2,-0.4 -0.8,-1.8 3.3,2.2 6.4,4.3 9.5,6.5 -0.4,1.1 -1.9,0 -2,1.2 -0.2,1.1 1,0.8 1.5,1.3 1.8,1.9 4.4,2 7.2,3.2 -1.6,0.2 -2.7,0.3 -4.5,0.4 5.2,4 11.5,3.8 16,7.5 z"
   class="st1" />
		<path
   id="path8650"
   d="m 100.6,129.3 c 0.7,-0.5 1.4,-1 2,-1.6 1.2,-1.3 2.4,-1.7 4,-0.7 0.4,0.3 0.8,1 0.2,1.1 -1.6,0.3 -2,2.7 -4.1,1.9 -0.7,-0.3 -1.4,-0.5 -2.1,-0.7 z"
   class="st1" />
		<path
   id="path8652"
   d="m 207.1,43.2 c -2.3,1.1 -3.8,2.8 -6.4,1.9 2,-1.1 3.7,-2.1 6.4,-1.9 z"
   class="st1" />
		<path
   id="path8654"
   d="m 122.6,59.9 c -0.2,-1.3 0.3,-2.2 1.7,-2.3 0.1,0 0.5,0.3 0.5,0.5 -0.1,1.4 -1,1.9 -2.3,1.7 0,0 0.1,0.1 0.1,0.1 z"
   class="st1" />
		<path
   id="path8656"
   d="m 177.4,67.7 c -0.4,1.1 -3,0.9 -1.6,2.9 0.4,0.6 0.6,1.2 -0.3,1.4 -0.7,0.2 -1.2,-0.4 -1.4,-1 -1.1,-1.9 0.2,-3.3 3.3,-3.3 z"
   class="st0" />
	</g>
</g>
</svg>
