<?xml version="1.0" encoding="UTF-8" standalone="no"?>
<svg
   xmlns:dc="http://purl.org/dc/elements/1.1/"
   xmlns:cc="http://creativecommons.org/ns#"
   xmlns:rdf="http://www.w3.org/1999/02/22-rdf-syntax-ns#"
   xmlns:svg="http://www.w3.org/2000/svg"
   xmlns="http://www.w3.org/2000/svg"
   xmlns:sodipodi="http://sodipodi.sourceforge.net/DTD/sodipodi-0.dtd"
   xmlns:inkscape="http://www.inkscape.org/namespaces/inkscape"
   inkscape:version="1.0 (4035a4f, 2020-05-01)"
   height="154.54376"
   width="256.25354"
   sodipodi:docname="bugle-horn.svg"
   xml:space="preserve"
   viewBox="0 0 256.25354 154.54376"
   y="0px"
   x="0px"
   id="Layer_1"
   version="1.1"><metadata
   id="metadata9317"><rdf:RDF><cc:Work
       rdf:about=""><dc:format>image/svg+xml</dc:format><dc:type
         rdf:resource="http://purl.org/dc/dcmitype/StillImage" /><dc:title></dc:title></cc:Work></rdf:RDF></metadata><defs
   id="defs9315" /><sodipodi:namedview
   inkscape:current-layer="Layer_1"
   inkscape:window-maximized="0"
   inkscape:window-y="25"
   inkscape:window-x="0"
   inkscape:cy="122.94259"
   inkscape:cx="131.18417"
   inkscape:zoom="2.52"
   fit-margin-bottom="0"
   fit-margin-right="0"
   fit-margin-left="0"
   fit-margin-top="0"
   showgrid="false"
   id="namedview9313"
   inkscape:window-height="480"
   inkscape:window-width="820"
   inkscape:pageshadow="2"
   inkscape:pageopacity="0"
   guidetolerance="10"
   gridtolerance="10"
   objecttolerance="10"
   borderopacity="1"
   bordercolor="#666666"
   pagecolor="#ffffff" />
<style
   id="style9230"
   type="text/css">
  .st0{fill:#FFFFFF;}
  .st1{fill:#000000;}
</style>
<g
   transform="translate(-18.815826,-77.05741)"
   id="g9310">
	<g
   id="g9308">
		<path
   id="path9232"
   d="m 231.8,77.2 c 9,-0.7 18.5,1.2 27.8,5.2 7.7,3.3 12.9,9.1 14.8,17 0.9,4 1.3,8.5 -1.5,12.6 -4,6.1 -7.9,12.3 -9.9,19.4 -1.1,3.8 -2.4,7.2 0.1,11.2 2.1,3.3 -0.2,7.3 -2.9,8.4 -4.4,1.8 -4.8,5.6 -5.9,8.8 -4,10.6 -9.8,19.9 -17.6,28 -4.2,4.3 -7.7,9 -11.1,14 -3.7,5.3 -7.5,12.3 -16.5,11.2 -3.7,-0.5 -6.9,2.6 -10.2,4.1 -12.5,5.6 -25.7,8.3 -39.1,10.5 -5.8,1 -11.8,-0.3 -17.6,2.9 -2.7,1.5 -8.8,1.5 -11.2,-0.2 -8,-5.5 -17.6,-5.2 -25.9,-8.8 -13.3,-5.7 -26.5,-11.6 -37.1,-21.9 -1,-1 -2,-1.3 -3.3,-1.4 -4.8,-0.4 -8.6,-2.3 -10.7,-7.1 -0.5,-1.1 -1.6,-2.1 -2.6,-2.8 -1.6,-1.2 -2.2,-3.1 -1.4,-4.5 1.4,-2.3 0.2,-3.6 -1,-5.2 -9,-11.6 -13.9,-24.9 -17.5,-38.9 -1,-4.1 -1.7,-8.2 -2.1,-12.2 -0.6,-6.6 -3.3,-11.8 -7.4,-16.7 -5.2,-6.3 -3.7,-15.6 2.1,-20.2 9.8,-7.8 26.6,-7.6 36.7,-0.1 5.9,4.3 7.3,14.3 2.6,19.9 -2.9,3.5 -4.6,7.5 -6.9,11.3 -3.1,5.1 -1.5,10.5 0.2,15.3 3.4,9.6 9,18.1 16.1,25.6 0.9,0.9 1.7,1.9 3.3,1.3 1.8,-0.8 0.5,-2 0.3,-2.8 -1.8,-7.3 1.5,-15.2 8.1,-19.2 5.7,-3.4 13.6,-2.3 19.3,2.7 5.2,4.6 8.8,12.5 3.6,19.7 -3.3,4.6 -7.9,7.5 -13.7,8.3 -0.9,0.1 -2.4,-0.8 -2.7,1.1 -0.2,1.4 0.9,2.2 1.7,2.7 3.6,2.4 7.8,3.5 11.9,4.6 4.7,1.2 9.5,2.2 14.5,1.9 1.9,-0.1 3.7,0 4.9,-1.8 0.2,-0.3 0.6,-0.6 1,-0.7 1.5,-0.6 14.3,0.7 15.4,1.9 1.4,1.5 2.9,1.5 4.7,1.4 5.1,-0.4 9.7,-2.2 14.1,-4.4 0.7,-0.4 1.3,-1 1.3,-2.1 0,-1.7 -1.4,-1 -2.1,-1.4 -5.2,-2.2 -10.4,-4.6 -12.9,-10.2 -3.4,-7.6 0.2,-14 6.2,-18.8 5.4,-4.4 11.8,-5.2 17.9,-1.6 6.3,3.7 9.4,9.6 8.9,17.1 -0.1,0.8 -0.6,1.5 0.3,2.1 0.6,0.4 1.1,0.2 1.5,-0.2 5.4,-5.6 9.9,-11.9 11,-19.6 0.5,-4.2 -1,-8.2 3.1,-12.1 2.5,-2.4 0.2,-7.6 -0.7,-11.4 -0.5,-2.4 -1.7,-4.6 -3.1,-6.7 -7.9,-11.4 -5.1,-21.8 5.9,-29.1 10.3,-6.7 15.7,-8.1 35.3,-8.1 z"
   class="st1" />
		<path
   id="path9234"
   d="m 230.8,80.6 c 8.4,-0.4 17.3,0.9 25.9,4.3 9.4,3.7 16.4,13.3 12.5,24.3 -1.8,5.3 -6,9.8 -11.7,11.7 -12.3,4.1 -24.8,5.2 -37.8,2.9 -8.4,-1.5 -16.2,-3.3 -22.8,-8.9 -8.9,-7.5 -10.1,-18.6 0,-25.7 10.6,-7.4 16.3,-8.6 33.9,-8.6 z"
   class="st0" />
		<path
   id="path9236"
   d="m 172.8,193.3 c 3.6,7.8 9.8,12.9 16.7,17.6 -4.6,-0.7 -8.3,-3.2 -11.8,-5.9 -2,-1.6 -4.1,-3.3 -5.1,-5.8 -0.5,-1.2 -1.3,-1.2 -1.9,-0.9 -1.1,0.6 0.1,1.7 0.3,1.9 3.3,3.8 6.2,8.1 10.7,10.7 1,0.6 2,1.1 2.5,2.1 0.4,0.8 -0.7,0.4 -1.1,0.7 -1.5,1.7 -2.9,0 -3.5,-0.7 -2.4,-2.6 -5.4,-3.7 -9,-5 1.2,4.5 5.9,4.8 7.1,8.3 -1.7,0.3 -2.9,-0.3 -9.8,-4.5 -3.6,-2.2 -4.2,-6.3 -6.3,-9.6 -1.3,3.1 0.7,8.5 4.1,11.4 1,0.8 2,1.6 2.9,2.5 0.6,0.6 2,1.2 0.6,2.2 -0.9,0.6 -1.6,0.8 -2.7,-0.5 -2.7,-3.2 -5.7,-6.2 -7.6,-10 -0.7,-1.5 -1.9,-2.4 -3.6,-3.8 0.8,6.2 3.4,10.7 7.8,14.4 -5.1,0.7 -5.3,0.8 -7.5,-3.4 -1.6,-2.9 -3.6,-5.7 -4.1,-9.6 -1.8,3.9 -0.1,10.8 3,13.6 -3.5,0.9 -3.8,0.3 -6.1,-4.3 -1.4,-2.7 -0.9,-5.9 -2.9,-9.2 -1,5.5 0,9.8 1.9,14 -2,0.9 -3.3,0.1 -3.8,-1.8 -2.5,-9.2 -3.2,-18.5 -2.8,-28 0.1,-2.1 1.3,-2.3 3.1,-2.6 6.7,-1.1 13.5,-1.8 19,-6.2 1.5,-1.1 2.1,-0.2 2.7,0.7 6.8,9.3 16.3,15.6 25,22.7 0.3,0.3 0.8,0.4 1,0.7 0.6,1.2 3.7,1.2 2,3.2 -1,1.3 -2.7,0.2 -4,-0.8 -5.7,-4.5 -12,-8.4 -16.8,-14.1 z"
   class="st0" />
		<path
   id="path9238"
   d="m 192.5,152.7 c 3,5 7.6,5.6 12.4,5 1.5,-0.2 1.9,0.1 2.7,1.2 3.4,4.7 10.8,6.2 15.2,0.8 2.9,5.4 4.5,8.1 13.8,4 0.5,-0.2 0.9,-0.7 1.3,-0.1 2.3,3.2 5.8,2.8 9.8,3 -6.3,9.6 -12.8,18.2 -20.8,25.6 -1.7,1.6 -3.8,2.1 -6.2,1.3 -9.9,-3.1 -18.7,-8.1 -26.5,-15.1 -3.3,-3 -7.1,-5.4 -10.3,-8.7 -1.7,-1.8 -2.2,-3.2 0.1,-5 4.1,-3 6,-7.6 8.5,-12 z"
   class="st0" />
		<path
   id="path9240"
   d="m 117.1,201.2 c -0.5,4.6 -4.1,7.9 -0.7,11.9 0.2,0.3 -0.5,1.4 -0.8,2.1 -0.5,-0.4 -1.1,-0.8 -1.5,-1.3 -3.8,-4.2 -1.9,-8.3 -0.1,-12.6 -2.8,2.5 -4.9,5.5 -4.7,9.4 0.1,1.1 1.7,2.5 -0.4,2.9 -1.9,0.3 -3.3,-1.2 -3.2,-3.1 0.1,-1.9 1.3,-3.7 1.5,-5.5 0.1,-1.3 2,-2.4 0.5,-4 -1.8,2.5 -3.4,5 -3.8,8.1 -0.1,0.7 0.5,1.8 -0.8,2.1 -1.2,0.3 -1.8,-0.5 -2.6,-1.2 -0.8,-0.8 -1,-1.4 -0.4,-2.5 1.4,-2.5 2.6,-5.1 3.1,-8.6 -2.4,2.8 -4.3,5.2 -5.4,8.1 -0.8,2.3 -2.3,1.3 -3.7,0.8 -2.7,-1.1 0.2,-1.8 0.3,-2.7 0.3,-3.2 5.3,-4.1 3.9,-8.6 -2.1,2.4 -4,4.7 -6,6.8 -0.6,0.6 -0.3,2.9 -2.1,1.5 -1.2,-0.9 -1.3,-2 -0.3,-3.3 1.3,-1.5 2.6,-3 3.5,-4.7 0.6,-1 1.9,-2.5 -0.3,-3.4 -1.5,2.7 -4,4.7 -6.2,6.8 -1,0.9 -2,1 -3,0 -1.3,-1.3 0.4,-1.7 0.9,-2.2 1.7,-1.8 3.7,-3.3 2.3,-6.3 -1.9,1.3 -4,2.7 -6,4.1 -0.8,0.6 -1.5,1.3 -2.5,0.2 -1,-1.1 0.3,-2.3 0.5,-2.4 2.2,-1 2.1,-3.3 3.7,-5.6 -3.4,2.1 -6,3.8 -9.5,5.9 1.4,-4.5 4.8,-5.8 6.9,-8.1 1.7,-1.9 4,-3.5 5.8,-5.5 1.5,-1.7 2.3,-2.2 4.7,-1 9.2,4.9 19.1,7.6 29.8,7 -2.6,12.3 -0.3,24.1 1.8,36 -5.2,-1 -11.1,-2.6 -16.9,-4.7 C 92.1,212.8 80,206 69.8,195.9 c -0.7,-0.7 -1.8,-0.8 -0.8,-2 0.8,-1 1.5,-0.9 2.4,0 3.9,3.9 8.1,7.5 12.9,10.3 6.1,3.6 11.6,8.2 18.8,10 3.5,0.9 7.1,2.6 10.7,4.1 2.1,0.9 4.7,1.4 6,0 1.1,-1.3 0.2,-3.8 -1.1,-5.4 -2.6,-3.4 -0.1,-7.3 -1.6,-11.7 z"
   class="st0" />
		<path
   id="path9242"
   d="m 34.6,136.3 c 5.7,1.3 11.1,1.6 16.4,-0.1 2.4,-0.7 1.8,1.3 2.2,2.2 4.3,9.9 9.5,19.3 17.9,26.4 0.5,0.4 1.2,0.7 1.8,1.1 -4.9,5.2 -9.9,10.2 -16.5,13.4 -2.3,1.1 -2.7,0.4 -3.8,-1.1 -8.8,-12.5 -14.1,-26.6 -18,-41.9 z"
   class="st0" />
		<path
   id="path9244"
   d="m 261.9,122.9 c -1.9,5.5 -3.8,10.9 -5.8,16.2 -0.2,0.6 -0.2,1.6 -1.2,1.5 -5.5,-0.2 -10.6,2.8 -16.6,1.2 -4.9,-1.4 -10.4,-0.1 -15.6,-1.1 -7.1,-1.3 -14.3,-1.9 -21,-4.7 -2.2,-0.9 -3.7,-2.2 -3.5,-5.1 0.2,-3.5 0.4,-7 -1,-10.1 21.4,8.5 42.7,9.8 64.7,2.1 z"
   class="st0" />
		<path
   id="path9246"
   d="m 43.7,115.9 c -7.1,0 -12.8,-1.4 -17.7,-5.2 -6.3,-4.8 -5.8,-13.9 -0.1,-18 9.9,-7.2 23.6,-7.3 33.3,0 6.3,4.7 5.8,13.3 0.1,17.9 -4.7,3.8 -10.5,5.3 -15.6,5.3 z"
   class="st0" />
		<path
   id="path9248"
   d="m 225.5,155.3 c -2.2,0.6 -3.5,1.7 -4.8,3 -4,4 -7.7,3.4 -10.4,-1.7 -1.3,-2.4 -2.2,-4.6 -5.6,-2.1 -3.7,2.7 -6.1,-0.4 -8.6,-2.7 -2.4,-2.1 -0.2,-3.7 0.5,-5.5 0.6,-1.6 1.4,-1.3 2.6,-0.9 9.3,3.3 18.8,5.4 28.8,5.9 8,0.4 16,1.3 23.9,-0.1 0.8,-0.2 1.9,0.1 1.2,1.4 -1.8,3.7 -2.2,8 -5.6,10.9 -2.9,2.5 -6.4,1.6 -8,-1.9 -0.5,-1.2 -0.7,-4.4 -3.3,-1.5 -1.8,2 -3.6,4.1 -6.8,2.8 -2.7,-1.2 -3.4,-2.4 -3.9,-7.6 z"
   class="st0" />
		<path
   id="path9250"
   d="m 210.6,210.2 c -5.8,-1.3 -11.3,-3.6 -16.2,-7 -5.9,-4 -10.9,-9.1 -16.7,-13.3 -4.3,-3.1 -7.1,-7.7 -10.3,-11.8 -0.7,-0.9 -1.7,-2.1 0,-3.1 1.6,-1 3.4,-1.7 4.9,0.2 2.7,3.2 5.6,6.2 8.9,8.9 7.7,6.4 15.5,12.6 24,18 2.6,1.7 5.8,1.7 8.6,3 0.9,0.4 2.4,-0.8 2.6,1.2 0.1,1.4 -0.9,2.2 -1.8,2.7 -1.2,0.7 -2.4,1.8 -4,1.2 z"
   class="st0" />
		<path
   id="path9252"
   d="m 223.2,198.3 c 0.1,3.2 -3.1,5.1 -6.1,4.6 -9.6,-1.5 -16.9,-7.3 -24.1,-13.1 -4.9,-4 -9.7,-8.2 -14.6,-12.2 -1.9,-1.6 -2.3,-4.1 -3.9,-5.9 -0.8,-0.9 0.5,-2 1.3,-2.8 0.9,-1 1.6,-0.8 2.5,0.1 3.5,3.3 6.8,6.7 10.6,9.7 8.1,6.4 16.2,13.1 26.4,16.2 2,0.6 4,1.2 6,1.6 1.1,0.3 1.8,0.8 1.9,1.8 z"
   class="st0" />
		<path
   id="path9254"
   d="m 79.1,159.6 c -0.4,-6.1 0.8,-11.4 6,-14.5 6,-3.6 12,-2.2 17.5,1.7 3.8,2.7 4.9,11.2 2.2,16.1 -2,3.7 -10.1,7.3 -13.8,6.1 -0.6,-0.2 -1.4,-0.7 -1.5,-1.3 -0.3,-1.2 0.6,-1.7 1.6,-2.1 3,-1.3 5.9,-2.8 7.6,-5.7 2.3,-4.1 0.6,-8.2 -3.3,-10.7 -3.1,-2 -8.1,0.5 -10.5,4.1 -1.6,2.2 -1.8,5.7 -5.8,6.3 z"
   class="st0" />
		<path
   id="path9256"
   d="m 174.9,163 c -2.3,-0.3 -3.2,-1.7 -4.1,-3.3 -0.9,-1.7 -1.3,-3.7 -2.9,-5 -4.8,-3.9 -9.3,-3.7 -12.3,0.8 -2.6,3.9 -0.6,8.9 3.7,11.8 1,0.7 2.2,1.2 3.3,1.7 1.2,0.4 2.3,0.9 2,2.2 -0.3,1.2 -1.6,1.3 -2.8,1.3 -5.6,0.2 -14.1,-3.6 -14.1,-11.6 0,-8.4 4.3,-13.1 12.6,-14.1 9.8,-1.2 15.7,6.2 14.6,16.2 z"
   class="st0" />
		<path
   id="path9258"
   d="m 241.4,149.3 c -14.3,-1.1 -28.6,-1.6 -42.2,-6.9 -0.1,0 -0.3,0 -0.4,0 -1.7,-1.3 -5.5,-1.5 -4.5,-4.4 1.3,-3.7 3.8,-0.3 5.4,0.3 11.5,4 23.2,6 35.3,6.9 7.3,0.5 14.5,1 21.6,-1 0.8,-0.2 2.5,-0.9 2.6,1 0.1,1.3 -0.6,2.2 -2,2.3 -5.2,0.5 -10.3,2.5 -15.8,1.8 z"
   class="st0" />
		<path
   id="path9260"
   d="m 129.6,201 c -0.8,6.9 0.3,15.2 4,23.2 0.6,1.3 0.4,2.3 -0.8,2.9 -1.5,0.7 -2.9,-0.3 -3.5,-1.3 -2.3,-4 -4.8,-8.2 -4.8,-13 0,-4.4 -0.9,-8.6 -1.6,-12.8 -0.9,-5 0.5,-9.9 2.5,-14.6 0.4,-1 1.1,-2 2.2,-1.5 0.9,0.5 2.3,0.7 2.2,2.6 -0.3,4.2 -0.2,8.5 -0.2,14.5 z"
   class="st0" />
		<path
   id="path9262"
   d="m 133.1,199.1 c 0,-3.6 0,-7.1 0,-10.7 0,-2.2 1,-3.8 3.1,-3.7 2.8,0.1 1.3,2 1.3,3.6 -0.3,8.5 -0.2,16.9 1.9,25.2 0.9,3.5 1,7.1 3,10.3 0.7,1.2 0.4,3 -1.2,3.6 -1.3,0.5 -2.1,-0.4 -3,-1.6 -3.5,-5.2 -4.3,-11.2 -5,-17.2 -0.4,-3.2 -0.1,-6.4 -0.1,-9.5 z"
   class="st0" />
		<path
   id="path9264"
   d="m 57.2,188.1 c -2,-0.8 -4.3,-1.4 -4.7,-3.4 -0.4,-2.2 2.1,-1.9 3.4,-2.3 8.3,-2.8 14.8,-7.9 19.6,-15.2 0.9,-1.4 1.9,-2.2 3.4,-1.2 1.2,0.9 2.1,1.8 1,3.8 -2.3,4.2 -5,8 -9.2,10.6 -3.9,2.4 -7.2,5.6 -11.8,6.7 -0.6,0.2 -1.1,0.7 -1.7,1 z"
   class="st0" />
		<path
   id="path9266"
   d="m 88.3,172.9 c -6.7,8.3 -15,14.8 -23.5,21 -1.6,1.2 -6.5,-0.3 -7.1,-2.1 -0.3,-1 0.2,-1.1 1,-1.3 6.1,-2.2 11.2,-6.3 16.6,-9.7 2.7,-1.7 4.6,-4.5 6.3,-7.3 2.8,-4.8 2.7,-4.8 6.7,-0.6 z"
   class="st0" />
		<path
   id="path9268"
   d="m 202.5,210.6 c -10.1,6.7 -21.2,9.6 -32.7,11.7 -7,1.3 -14,2.6 -21.2,2.5 -0.9,0 -2.5,0.8 -2.6,-1.1 -0.2,-2 1.4,-1.3 2.4,-1.4 10,-1.2 20.1,-1.7 29.9,-3.7 6.7,-1.3 13.3,-4.2 19.2,-8.1 2,-1.4 3.2,-0.9 5,0.1 z"
   class="st0" />
		<path
   id="path9270"
   d="m 57.3,114.8 c -3.1,5.4 -10.2,9.8 -15.3,8.6 -5.2,-1.2 -12.2,0 -13.5,-8.3 9.6,4.6 19.1,4.5 28.8,-0.3 z"
   class="st0" />
		<path
   id="path9272"
   d="m 32.7,124 c 6.3,0.6 12.4,2.9 18.4,-0.7 0.6,4.6 -1,6.4 -6.8,7.1 -3.2,0.4 -6.3,-0.6 -9.4,-1.5 -3,-0.8 -2.2,-3 -2.2,-4.9 z"
   class="st0" />
		<path
   id="path9274"
   d="m 162.4,154.5 c 1.6,0.1 6.4,4.7 5.6,5.5 -1.7,1.8 -3.6,3.5 -5.8,4.6 -1.4,0.7 -5.3,-3.9 -5.1,-5.7 0.2,-1.8 3.4,-4.5 5.3,-4.4 z"
   class="st0" />
		<path
   id="path9276"
   d="m 97,155.3 c -0.1,3.4 -2.9,4.4 -4.9,6 -0.4,0.3 -6.1,-4.1 -6.2,-4.7 -0.1,-1.3 4.3,-5.7 5.8,-5.5 2.8,0.2 4.4,2 5.3,4.2 z"
   class="st0" />
		<path
   id="path9278"
   d="m 33.7,130.8 c 5.3,1.1 10.7,2.4 16.1,0 1.3,-0.6 1.8,0.1 2.4,0.9 0.5,0.8 -0.2,1.3 -0.7,1.8 -2.8,2.6 -14.6,2.4 -17.4,-0.2 -0.7,-0.8 -0.8,-1.5 -0.4,-2.5 z"
   class="st0" />
		<path
   id="path9280"
   d="m 83.8,166.4 c -0.3,-2.2 -1.6,-4.6 1,-5.9 1.1,-0.6 2.5,0.2 2.7,1.4 0.4,2.7 -2.1,3.3 -3.7,4.5 z"
   class="st0" />
		<path
   id="path9282"
   d="m 170.4,169.8 c -1.7,-1.3 -4.4,-1.9 -3.7,-4.6 0.3,-1.2 1.7,-1.8 2.8,-1.2 2.4,1.4 1,3.8 0.9,5.8 z"
   class="st0" />
		<path
   id="path9284"
   d="m 229.6,86.6 c 8.7,-0.2 16.2,1.4 23,5.1 4.2,2.2 8,5.6 7.3,10.8 -0.7,5.6 -5.2,8.9 -10.2,10.7 -12.4,4.5 -24.9,5.1 -37.5,0.3 -2.5,-1 -4.8,-2.1 -6.8,-3.8 -9,-7.7 -3.5,-15 5.5,-19.4 2.8,-1.4 6,-2.1 9.1,-2.6 3.6,-0.8 7,-1.7 9.6,-1.1 z"
   class="st1" />
		<path
   id="path9286"
   d="m 170.7,206.6 c -0.6,0.3 -1.6,1 -1.7,1 -1.3,-1.8 -3.3,-3.3 -3.3,-5.8 0,-1 0.9,-1.3 1.4,-0.6 1.3,1.6 2.4,3.5 3.6,5.4 z"
   class="st1" />
		<path
   id="path9288"
   d="m 243.4,167.4 c -3.3,3.1 -4.1,7.6 -7,10.8 -2.4,2.6 -4.3,5.8 -6.9,8.4 -5.8,5.7 -7,6.2 -14.3,3 -5.8,-2.6 -11,-6.3 -15.8,-10.5 -0.2,-0.1 -0.1,-0.5 -0.1,-1 2.4,-0.6 4.3,1.2 5.3,2.4 3.7,4.6 9,5.4 14.1,6.6 1.7,0.4 3.6,0.5 5.3,1 1.5,0.4 2.1,-0.7 2.2,-1.8 0.1,-1.4 -1.1,-0.6 -1.8,-0.7 -7.1,-1.2 -13.3,-4.4 -19,-8.5 -1.1,-0.8 -4.1,-0.2 -3.5,-3.4 3.3,0.1 5.2,3.1 7.9,4.4 5.8,2.8 11.9,3.4 17.9,4.8 1.3,0.3 3,0 3.1,-1.5 0.1,-1.9 -1.7,-0.9 -2.6,-1 -8.2,-1.4 -15.6,-4.4 -21.8,-10.1 3.4,1.2 6.8,2.5 10.2,3.9 5.2,2.1 10.5,2.8 15.9,3.6 1.1,0.2 2.2,-0.1 2.5,-1.2 0.2,-0.8 -0.8,-1.2 -1.7,-1.4 -1.1,-0.3 -2.7,1.1 -3.2,-1 -0.2,-0.8 0.1,-1.7 0.8,-1.8 1.5,-0.1 2.8,-2.4 4.5,-0.8 1.2,1.1 2.2,1.6 3,0 1,-1.9 -1.2,-1.5 -1.8,-2 -1.3,-1 -2.9,-1.5 -4.6,-2.3 4,-2.5 7.5,2.7 11.4,0.1 z"
   class="st1" />
		<path
   id="path9290"
   d="m 209,164.9 c 5.3,3.7 11.7,4.1 17.3,6.5 0.9,0.4 2.5,0.1 2,1.8 -0.5,1.6 -1.6,0.8 -2.7,0.4 -5.1,-1.8 -10.1,-3.9 -15,-6.3 -1.3,-0.5 -0.8,-1.7 -1.6,-2.4 z"
   class="st1" />
		<path
   id="path9292"
   d="m 219.8,164.8 c 4.2,0 6.7,3.1 10.3,3.2 -1.4,1.1 -2.7,3.5 -4.3,0.1 -0.3,-0.7 -0.9,-1 -1.3,-0.7 -3.3,2.6 -3.3,-1.1 -4.7,-2.6 z"
   class="st1" />
		<path
   id="path9294"
   d="m 46.6,156.8 c -2.9,-0.6 -3.8,-3.1 -4.5,-5.5 -1.3,-4.2 -2.3,-8.4 -3.5,-13 2.2,0.8 3.1,3.8 5.8,2.7 0.4,-0.2 0.8,1.3 0.3,1.3 -3.1,0.2 -2,2.8 -1.6,3.7 0.9,2 2.3,-0.4 3.6,-0.2 0.4,0.1 0.7,0.2 1.1,0.2 -0.3,2.4 -5.2,1.3 -3.7,4.5 1.3,2.8 4.1,0.9 6.9,0.3 -1.9,2.2 -6,2.1 -4.5,6 z"
   class="st1" />
		<path
   id="path9296"
   d="m 64,169.2 c 0.5,2.4 -0.4,2.8 -1.5,3.3 -1.9,0.7 -3.5,1.4 -4.3,3.7 -0.5,1.7 -1.8,2.2 -3.4,-0.1 -1.1,-1.6 -2.6,-2.9 -3.4,-4.8 -0.8,-1.9 1,-2.9 1.3,-2.8 2.8,1.1 3.6,-1.3 5.1,-2.6 0.4,-0.4 0.7,-1.4 1.6,-0.7 1.2,0.8 0.3,1.4 -0.3,1.9 -0.7,0.6 -0.5,1.7 -1.8,2.1 -2.5,0.8 -1.9,2.8 -1,4.7 1.5,-3.5 5.5,-1.8 7.7,-4.7 z"
   class="st1" />
		<path
   id="path9298"
   d="m 46.5,156.9 c 4.6,0.3 -0.8,4.7 1.4,5 -0.5,-1 -4.1,-1.9 -1.2,-5.1 -0.1,0 -0.2,0.1 -0.2,0.1 z"
   class="st1" />
		<path
   id="path9300"
   d="m 51.6,164.4 c 0,-1.2 -0.1,-1.4 0,-1.4 1.3,-1.3 2.9,-1.8 4.5,-2.3 0.1,0 0.6,0.7 0.5,0.9 -0.9,2 -3.2,1.3 -5,2.8 z"
   class="st1" />
		<path
   id="path9302"
   d="m 256.2,134 c -5,7.3 -28.1,7.9 -39.2,1.1 3.8,-0.5 6.6,1.2 9.5,1.5 3.3,0.3 6.4,0.9 9.9,0 3.1,-0.8 6.5,0 9.8,-0.2 3.3,-0.2 6.1,-2.5 10,-2.4 z"
   class="st1" />
		<path
   id="path9304"
   d="m 257.6,128.3 c -6.1,7 -32.1,7.4 -40,1.1 13.6,3.8 26.2,1.5 40,-1.1 z"
   class="st1" />
		<path
   id="path9306"
   d="m 42.4,109.8 c -3.5,-0.4 -7.1,-0.5 -10,-3.2 -4.5,-4.3 -4.7,-5.9 0,-9.8 5.4,-4.5 14,-4.5 19.3,-0.7 2,1.4 4.9,3.1 4,6.4 -0.9,3.1 -3.5,5.2 -6.4,6.2 -2.1,0.7 -4.4,1.7 -6.9,1.1 z"
   class="st1" />
	</g>
</g>
</svg>
