<?xml version="1.0" encoding="UTF-8" standalone="no"?>
<svg
   xmlns:dc="http://purl.org/dc/elements/1.1/"
   xmlns:cc="http://creativecommons.org/ns#"
   xmlns:rdf="http://www.w3.org/1999/02/22-rdf-syntax-ns#"
   xmlns:svg="http://www.w3.org/2000/svg"
   xmlns="http://www.w3.org/2000/svg"
   xmlns:sodipodi="http://sodipodi.sourceforge.net/DTD/sodipodi-0.dtd"
   xmlns:inkscape="http://www.inkscape.org/namespaces/inkscape"
   inkscape:version="1.0 (4035a4f, 2020-05-01)"
   height="303.92938"
   width="241.61142"
   sodipodi:docname="bull-rampant.svg"
   xml:space="preserve"
   viewBox="0 0 241.61142 303.92938"
   y="0px"
   x="0px"
   id="Layer_1"
   version="1.1"><metadata
   id="metadata10701"><rdf:RDF><cc:Work
       rdf:about=""><dc:format>image/svg+xml</dc:format><dc:type
         rdf:resource="http://purl.org/dc/dcmitype/StillImage" /><dc:title></dc:title></cc:Work></rdf:RDF></metadata><defs
   id="defs10699" /><sodipodi:namedview
   inkscape:current-layer="Layer_1"
   inkscape:window-maximized="0"
   inkscape:window-y="25"
   inkscape:window-x="0"
   inkscape:cy="166.85718"
   inkscape:cx="124.9"
   inkscape:zoom="2.52"
   fit-margin-bottom="0"
   fit-margin-right="0"
   fit-margin-left="0"
   fit-margin-top="0"
   showgrid="false"
   id="namedview10697"
   inkscape:window-height="480"
   inkscape:window-width="820"
   inkscape:pageshadow="2"
   inkscape:pageopacity="0"
   guidetolerance="10"
   gridtolerance="10"
   objecttolerance="10"
   borderopacity="1"
   bordercolor="#666666"
   pagecolor="#ffffff" />
<style
   id="style10528"
   type="text/css">
  .st0{fill:#FFFFFF;}
  .st1{fill:#000000;}
</style>
<g
   transform="translate(-25.1,-33.142818)"
   id="g10694">
	<g
   id="g10692">
		<path
   id="path10530"
   d="m 177.9,44 c 9,-0.7 14.9,4.1 21.3,7.6 0.8,0.4 2.1,1.2 1.4,2.5 -0.5,1.1 -1.7,0.9 -2.8,1.1 -5.1,0.7 -9.7,-1.1 -14.4,-2.7 -3.8,-1.3 -3.6,-1 -3.6,2.8 0,3.6 1.8,6.2 3.4,8.9 3.4,5.8 3.7,12.2 4.8,18.6 1.4,8.4 3.4,16.8 2.3,25.4 -1,7.4 -1,14.9 -0.5,22.2 0.8,11.7 0.7,23.5 2.5,35 1.6,10.7 5.1,21.2 9.6,31.2 4.7,10.5 8.2,21.5 13.3,31.9 2.3,4.7 1.9,10.1 3.3,15 2,6.6 4.2,13 11.2,16.6 7.7,3.9 17.4,-1.3 20.9,-6.8 4.8,-7.6 5.2,-15.4 4,-23.9 -1.6,-11.1 -7.6,-19.8 -14,-28.4 -4.9,-6.6 -8,-14 -10.2,-21.9 -2,-7.4 1.1,-13.4 4.7,-19.2 1.5,-2.4 1.7,-5.5 3.9,-7.5 0.4,-0.4 0.4,-1.3 -0.1,-1.8 -3.9,-4.2 -1.6,-8.1 0.9,-11.5 4.8,-6.5 10.9,-11.6 18.5,-14.6 1.8,-0.7 3,-0.7 4.2,1.3 1.2,2.1 0.4,3.2 -1.1,4.3 -3.9,3 -4.9,6 -2.3,10.1 2.2,3.6 3.4,7.6 3.8,11.6 0.4,3.2 0.9,6.5 1,9.8 0.2,4.6 -2.2,8 -5.7,10.4 -3.5,2.3 -6.4,5.2 -9.2,8.2 -2.2,2.4 -2.7,4.9 -0.7,8.1 2.4,3.8 4.3,7.9 5.7,12.2 0.9,2.6 2.5,5.1 3.8,7 4.6,6.4 6.1,13.9 8,21.1 1.9,7.1 0.7,14.9 -2.4,21.9 -2.4,5.3 -4.4,10.7 -8.9,15 -4.1,3.8 -9,5.9 -13.9,6.4 -7.6,0.8 -15.4,1.3 -22.4,-3.7 -2.4,-1.7 -4.3,-3.7 -6.7,-6.1 -0.4,3.1 -2.5,4.8 -4.1,7 -3.7,4.9 -1.6,13.7 4.3,17.3 2.7,1.6 3.2,3.9 2.3,5.9 -1.5,3.2 -3.3,6.5 -6.9,8.1 -5.6,2.6 -10.3,6.4 -15,10.2 -4.1,3.4 -9.1,5.4 -13,9.3 -2.4,2.4 -3.9,5.5 -6.4,7.7 -1.4,1.2 -2.8,2 -4.2,0.7 -3.5,-3.4 -5.7,-0.9 -7.6,1.6 -1.2,1.6 -2.1,3.7 -3.9,4.5 -4.8,2.1 -9.9,3.1 -15.2,2.5 -0.6,-0.1 -1.2,-0.1 -1.1,-0.8 0,-0.5 0.4,-1 0.8,-1.3 1.1,-0.7 2.4,-1.1 2.9,-2.7 -2.9,0 -5.6,0 -8.3,0 -0.4,-1.9 0.9,-2.8 2,-3.2 4.8,-1.7 8.1,-5.7 12.3,-8.2 2.8,-1.6 5.8,-3 8.8,-4.5 5.5,-2.6 8.6,-8 13.6,-11.2 3.2,-2.1 6.3,-4.5 9.3,-7 1.1,-0.9 3,-1.8 2.5,-3.7 -0.4,-1.7 -1.7,-2.6 -3.5,-3.2 -7.2,-2.4 -14,-6.3 -17.9,-12.6 -4.6,-7.5 -10.2,-14.5 -12.9,-23.1 -0.2,-0.7 0.2,-2 -1,-1.8 -6,0.8 -11.9,-2 -18,-0.2 -7.6,2.2 -12,7.2 -14.6,14.2 -2.1,5.7 -4.2,7 -9.9,5.1 -10.6,-3.4 -21.2,-6.9 -31.8,-10.4 -2.4,-0.8 -5.8,-1.4 -3.1,-5.4 0.3,-0.4 0.7,-0.8 -0.2,-1 -2.9,-0.7 -5.7,-2.5 -8.7,-1.5 -4.7,1.5 -9,0.6 -13.3,-1.1 -3.2,-1.3 -4.3,-3.5 -2.6,-6.6 0.8,-1.6 -0.2,-2.4 -0.9,-2.7 -1.7,-0.8 -2.6,-2.5 -2.2,-3.7 0.5,-1.9 2.7,-1.2 4.2,-1.2 13,0.3 25.2,4 37.2,8.3 3.7,1.3 7.5,2.9 11.6,2.8 3.7,-0.1 5.2,-1.9 4.4,-5.5 -2.1,-9.3 0,-17 7,-23.8 4.6,-4.5 8.5,-9.5 15.2,-11 3.4,-0.8 6.8,-0.2 10.2,-0.5 0.6,-0.1 1.4,0.3 1.8,-0.4 0.4,-1 -0.4,-1.5 -1.1,-1.8 -2.8,-1.4 -4.5,-4.2 -7.6,-5.5 -1.7,-0.7 -2.9,-2.6 -3.1,-4.8 3.4,-0.5 6.7,-0.9 9.7,-1.3 -7.4,-2.8 -13.3,-8.3 -19.3,-13.5 -3.1,-2.7 -6,-5.8 -8,-9.4 -0.8,-1.4 -1.5,-0.7 -2.5,-0.5 -7.3,1.4 -12.9,6.2 -19.3,9.3 -4.6,2.3 -9.5,3.7 -14,6.3 -4.5,2.6 -9.5,4.7 -13.5,8.1 -2.8,2.4 -5.2,3.6 -7.9,0 -0.2,0.4 -0.5,0.6 -0.5,0.7 1.6,8.3 -4.2,11.7 -10.1,15.1 -0.3,0.2 -0.8,0.1 -1.1,0.4 -1.4,1.4 -2.9,3.3 -5,1.4 -2.1,-1.9 0.9,-3.4 0.9,-5.6 -2.7,1 -5.4,0.8 -8.1,-0.8 1.9,-4.1 6.1,-6.5 8.4,-10.3 1.3,-2.1 3.3,-3.8 4.5,-6.2 2.6,-5.2 7,-8.6 12.3,-10.6 6.9,-2.5 11.1,-8.5 16.9,-12.4 5,-3.4 10.1,-6.8 14.7,-10.8 1.9,-1.6 1.8,-3.1 1.6,-4.7 -0.2,-2.1 -2.1,-0.9 -3.2,-1 -5,-0.4 -6.1,-4.3 -8,-7.9 C 66.1,131 62.3,117.7 55.2,105.9 52,100.5 49.4,94.8 45.4,89.8 44,88.1 43.9,86.2 45.9,84.3 c 2.9,-2.8 1.9,-5.7 -2.1,-6.8 -3.6,-1 -6.5,-4.6 -6.6,-8.2 0,-2 0,-4 0,-6 0,-5.8 0.9,-6.5 6.3,-4.5 0,-0.1 0.1,-0.3 0.1,-0.4 0.3,-2.5 -1.1,-6.1 2.1,-7 3.3,-0.9 4.3,2.9 5.7,5 3.7,5.3 5.2,11.6 7.4,17.6 2.1,5.5 5,10.6 9.2,14.6 5.7,5.5 10.4,11.7 14,18.7 4.3,8.3 9.8,11.5 18,3.8 3,-2.8 6.1,-5.5 9,-8.3 1.6,-1.5 3,-3.1 3.5,-5.5 0.3,-1.8 1.6,-3.5 3.2,-4.3 4.9,-2.3 5.2,-6.5 4.6,-11 -0.7,-5 -0.6,-10.3 -5.5,-13.6 -2.2,-1.5 -4.9,-2.2 -6.8,-4.4 -1.9,-2.2 -3,-10.4 -1.6,-13.8 1.7,-4 5.2,-5.4 9.1,-5.5 8.4,-0.1 16.8,-0.7 25.2,-1.7 3.8,-0.4 7.4,-2.4 10.1,-4.3 4.5,-3.2 8.5,-1.1 12.7,-0.8 1.5,0.1 2.6,0.4 3.9,-0.7 6.4,-4.9 13.3,-5.1 20.5,-2 1.7,0.7 3.3,1.5 4.8,2.4 0.9,0.6 2.3,1.3 1.8,2.7 -0.4,1.1 -1.6,1.1 -2.8,1.1 -2.9,-0.1 -5.9,0 -8.8,0 -1.4,0.1 -3,0.7 -5,2.6 z"
   class="st1" />
		<path
   id="path10532"
   d="m 146.4,92.9 c 2.1,0.2 4.1,1.6 6.3,0 0.7,-0.6 1.9,-0.9 1.6,-1.9 -0.4,-1.1 -1.4,-0.5 -2.3,-0.2 -1.1,0.3 -2.3,0.3 -4,0.4 2.1,-3.2 5.3,-2.4 7.2,-3.2 -1.8,-2.6 1.3,-3.2 1.8,-4.9 3,2.6 5.9,5 8.6,7.7 1.6,1.6 2.8,1.5 4.3,-0.1 4.3,-4.4 3.3,-9.5 1.9,-14.6 -0.2,-0.7 -0.5,-1.4 -0.8,-2.1 v 0 c 5.6,1.4 6.9,-3.4 9.4,-6.6 1.4,2 1.2,1.9 0,4.3 -1.3,2.6 -2.7,5.4 -3.2,8.2 -0.3,1.7 -1.1,3 -2.4,4.8 3.3,-0.9 4.2,-1.8 5.4,-5.3 0.8,-2.4 0.7,-5.1 3.1,-7 1.5,10.4 3.6,20.6 4.1,31.1 0.2,3.5 -0.3,6.7 -2.4,9.6 -0.5,0.7 -1.1,1.5 -0.7,2.5 1.4,0.5 1.1,-1.2 2.3,-1.7 0,1.4 0,2.6 0,3.9 -0.2,13.1 -0.3,26.3 0.9,39.4 0.8,9.1 3.3,17.9 6.2,26.6 4.6,13.6 10.6,26.6 16,39.9 3.2,7.9 6.6,15.8 5.1,24.8 0,-7.8 -5.7,-13 -8.7,-19.4 0.5,3.2 -0.5,6.4 2.1,9.4 1.1,1.3 0.1,4.4 -0.2,6.7 -0.3,2.3 -0.4,2.3 1.8,1.9 0.3,-0.1 0.6,-0.6 0.7,0 0.1,0.8 0.2,1.9 -0.2,2.3 -1.7,1.3 -2.1,3.3 -2.9,5 -0.4,1 -1.7,2.2 -0.3,3.1 0.9,0.6 2.3,0.3 3.2,-0.7 0.5,-0.5 1,-2.2 2,-0.9 1,1.3 -0.5,1.5 -1.4,1.8 -5,1.9 -7.5,6.1 -10.4,10.2 -1.7,2.3 -5.3,2.5 -7.7,2.4 -1.8,-0.1 -2.7,0.3 -3.8,1.3 -3.3,2.9 -5.9,2.8 -8.9,-0.5 -0.8,-0.9 -1.4,-1.8 -2.5,-1.3 -1.4,0.6 -0.5,2.1 -0.7,3.2 -0.2,1.3 0.6,1.5 1.7,1.5 1.5,0 3.3,-0.6 3.3,2 0,0.1 0.9,0.4 1.4,0.4 4.1,-0.2 8.4,0.6 11.8,-2.8 -0.9,4.9 -5.4,3.9 -8.6,5.3 3.3,1.6 6.6,0.3 9.6,-0.5 7.3,-2 6.5,-0.4 8.6,4 1.1,2.2 2.4,4 4.2,5.6 3.2,2.7 3.5,4.4 0.1,7 -4,3.2 -8.5,5.7 -12.8,8.6 -7.5,5.1 -15.5,9.6 -21.7,16.4 -1.2,1.3 -2.6,2.5 -3.4,5.4 -0.9,-4.2 -2.2,-5.7 -5.2,-3.4 -2.2,1.7 -5.1,2.1 -6.8,4.9 -1,1.5 -2.6,-0.7 -4,-1.3 -2,-0.9 -1.8,-2.3 -1,-3.4 0.7,-1 1.6,-2.1 2.9,-2.5 5.8,-1.9 10,-5.8 14.5,-9.8 3.6,-3.3 7.4,-6.5 11.5,-9.3 3.4,-2.3 5.7,-5.2 6.1,-9.5 3.8,3.8 7.3,3.3 11.9,-0.1 -2.4,0.1 -4.8,1.5 -5.9,-1.9 -0.3,-0.8 -3.9,-0.3 -5.9,-0.6 -10.3,-1.5 -19,-5.9 -23.6,-15.7 -2,-4.3 -5.2,-7.5 -7.4,-11.7 -4.3,-8.5 -0.4,-15 3.5,-21.9 2.3,-4.1 6.1,-6.2 10,-8.4 0.2,1.4 -1.1,1.6 -1.4,2.4 -1.2,2.3 -4,3.9 -2.7,6.9 -0.8,-2.8 1.5,-4.7 2.6,-7 1.3,0.3 2.9,0.8 2.6,-1.4 -0.4,-3.4 0.5,-6.5 2.5,-9.1 1.8,-2.5 -1.7,-5.7 1.7,-7.4 -0.9,-1.5 -2.2,-0.5 -3,-1.1 0.1,-1.6 1.5,-2.6 2.1,-3.9 -1,-2 -2.1,1 -3,-0.2 0.4,-0.9 0.4,-5.4 0,-7.9 -1.5,0.9 -0.9,3 -2.2,3.8 -1.7,-3 1.5,-5.5 1.1,-8.4 -2.5,0.1 -2.2,2.4 -3.7,3.9 0.2,-3 -0.8,-5.2 -2.8,-7.3 -1.5,3 0.2,5.7 0.9,8 2,6.6 6.1,12.8 3,20.1 -0.4,1 1.4,2.7 -1.2,3 0.5,-4.3 -2.3,-8.3 -1.2,-12.7 0.1,-0.3 -0.7,-1.2 -0.8,-1.1 -1.3,0.4 -1.3,1.7 -1.4,3.3 -2.4,-2.6 -1.4,-4.9 -0.6,-7.2 -2.1,-0.9 -1.4,1.7 -2.6,1.7 -0.4,0.3 -0.4,0.1 -0.6,-0.2 -0.3,-0.9 -0.1,-1.8 -1.2,-2.8 -1.6,-1.5 -4,-3.1 -3.7,-6.2 0.2,-2.2 -0.1,-2.2 -2.5,-2.1 -0.8,0 -1.6,-1.9 -1.2,-3.3 0.3,-1.1 1.5,-2.3 -0.6,-2.6 -1.9,-0.2 -1.1,1.4 -1.2,2.3 -0.2,2.9 0.3,5.2 2.7,7.5 4,3.9 6.4,9 9,13.8 1,2 0.8,4.7 2.6,6.7 0.6,0.7 0.1,1.8 -1.3,1.7 -5.3,-0.6 -3.1,3.4 -3.6,5.8 -0.1,0.4 0.1,0.9 -0.6,1.8 -8.3,-12.4 -16.7,-24.5 -30.3,-32 3.9,-0.6 3.8,-0.4 8.3,2 2.2,1.2 4.3,2.3 5.1,5.3 1.1,-3.4 -0.4,-6.2 -3,-7.5 -1.8,-0.9 -2.1,-3 -2.5,-4.8 -0.2,-1.2 -0.1,-2.4 0,-3.6 0,-1.2 -0.5,-2.4 -1.6,-2.2 -1.8,0.4 0,1.3 0,2 0,1.1 -0.9,2.1 -1.6,1.7 -0.8,-0.5 -1.6,-2.6 -1.4,-2.8 3.1,-2.6 -0.4,-4.3 -0.7,-6.4 0.7,2.9 -2.1,4.7 -2.5,7.3 2.2,-6.2 -3.6,-11.1 -2.1,-17.2 -2.7,4.4 -2.2,8.8 -0.6,13.3 -3.6,-5.3 -4.1,-11.1 -2.8,-17.2 0.1,-0.7 0.2,-0.8 -0.5,-0.9 -1,-0.1 -1.3,0.4 -1.6,1.3 -1,3.7 -1.2,7.4 0.1,11.1 0.2,0.6 1.1,0.9 0.6,1.7 -0.1,0.2 -0.9,-0.2 -1.3,-0.1 -1.6,0.5 -0.8,-0.8 -0.9,-1.3 -0.2,-0.6 -0.2,-1.3 -0.3,-1.9 -0.8,1.1 -1.2,1.5 -1.3,-0.4 -0.4,-4.9 1.3,-9.2 3.3,-13.5 0.7,-1.5 1.3,-1 2.5,0.1 4.7,4.4 7.7,9.8 9.5,15.9 0.4,1.3 1.3,1.9 3,1.3 -2.8,-3.9 -1.5,-8.6 -3,-12.8 -0.7,-2 -1.2,-3.5 -4.2,-1.8 0.6,-1.9 1,-3.3 1.6,-5.1 -4.2,2.2 -6.7,1.2 -6.3,-4.9 -2.7,3.3 -5.1,5.6 -6.9,8.4 -1.8,2.8 -2.9,6 -4.3,9 -3.1,-4.5 -3.1,-6.2 0,-14.4 0,2.8 0,5 0,7.2 1.6,-0.5 0.3,-2.1 1.3,-2.6 0.8,0.3 -0.2,1.7 1.1,1.7 0.5,-2.7 -0.7,-5.6 1.2,-8.1 0.9,0.7 0.5,1.6 0.3,2.4 -0.1,0.7 -1.3,1.5 -0.1,1.9 1,0.4 1.8,-0.6 1.8,-1.5 0.1,-3.8 2.5,-7.1 2.7,-10.8 0,-0.7 1.1,-1.4 -0.2,-1.8 -0.8,-0.3 -1.8,-0.1 -2.1,0.8 -1.7,4.6 -6.2,6.9 -8.8,10.7 -0.8,1.1 -3.2,2.8 -5.5,1 -0.4,-0.3 -0.5,-0.6 -0.4,-0.8 0.2,-0.3 0.6,-0.5 0.9,-0.6 1.7,-0.1 3.4,-0.2 4,-2.3 2.7,-3.5 5.2,-7.2 7.3,-11.6 -3.2,3.8 -4.9,8 -7.2,11.8 -3.9,-0.1 -7.5,0.3 -10,4.3 -0.5,-1.6 0.9,-2.7 -0.2,-3.7 -1.9,-0.4 -1.6,2.1 -2.6,2.3 -2.6,-0.5 2.9,-4.7 -2.4,-3.7 -0.6,0.1 0.6,-1.2 0.5,-1.9 -0.1,-1 3.1,-3.1 -1.1,-3 -1.1,0 0,-2.5 -0.7,-3.9 -0.9,0.3 -0.8,1.8 -2,1.8 -1.3,-3.7 1.5,-5.5 3.5,-7.7 4.1,-4.5 10.1,-6 14.8,-9.7 2.3,-1.8 5.3,-0.2 8,-1.1 -0.5,-2.1 -2.3,-0.6 -3.1,-1.9 4.1,-1.2 8.1,-1.4 12.3,-0.2 -0.6,-2.3 -2.1,-2.4 -3.9,-2.4 -2.5,0 -5.1,0 -7.6,0 -1.9,0 -3.7,0 -4.5,2.2 -0.2,0.6 -0.8,0.9 -1.6,1 -6.4,1 -10.5,5.9 -15.6,9.1 -1.1,0.7 -0.7,2.4 -2.7,2.7 1,-3.7 3.3,-6.3 6.4,-7.7 3.2,-1.4 5.6,-4.1 9.1,-5 0.8,-0.2 1.6,-0.8 1.4,-1.7 -0.4,-1.2 -1.4,-0.6 -2.3,-0.3 -6.1,2 -10.6,6.2 -15,10.4 -1.4,-4.3 0.2,-6.3 4.7,-7.5 3.6,-0.9 6.8,-3.2 11.1,-5.4 -6.5,-0.9 -9.7,5.1 -15.2,4.5 1.5,-2.5 4.4,-3.2 6.1,-5.4 -2.4,-0.5 -3.7,1.4 -5.6,2.5 0.7,-2.8 0.7,-2.8 5.2,-4.3 2.4,-0.8 4.7,-1.7 7.4,-2.7 -3,-1.3 -5.2,0.4 -7.5,0.3 -0.6,0 -1.1,1.1 -1.6,0.2 -0.2,-0.4 -0.1,-1.2 0.1,-1.5 2,-1.9 4.1,-3.7 6.2,-5.5 0.3,-0.3 0.6,0 0.9,0.1 4.7,2.2 5,2.2 10.2,1.5 -2.7,-0.5 -5.1,-0.9 -7.7,-1.4 1,-1 3.3,-0.6 2.9,-2.4 -0.3,-1.3 -2,-0.1 -2.8,-0.9 3.6,-3.6 7.9,-2 12.1,-1.3 -0.9,-2.5 -4.4,-1.7 -5.4,-4.7 1.6,0.3 2.6,2.4 3.5,1.4 3.4,-3.7 7.4,1.4 10.7,-1.3 -3.7,-0.7 -7.3,-2.1 -11.3,-2.3 6.6,-3.1 13.1,-1.1 20.5,1.6 -4.4,-6.2 -10.1,-3.3 -14.4,-4.9 1.1,-1.3 1.5,-1.4 3.8,-0.7 1.7,0.5 3.3,1 4.6,-0.5 -4,-3.4 -8,-2.9 -12.3,0.8 2.8,-4.9 5.1,-6.3 11.1,-6.9 0.2,0 0.4,0.1 0.6,0.1 5.7,1.1 11.4,1.5 17.1,0.7 0.3,-0.3 0.5,-0.3 0.7,-0.2 z"
   class="st0" />
		<path
   id="path10534"
   d="m 128.1,92.1 c -0.5,-1.7 -2.2,-0.3 -3,-1.2 2.2,-1.5 4.7,-1.6 7.9,-1.1 -2.9,-2 -5.3,-2.3 -8.1,-0.8 0.3,-1.3 0.8,-1.7 1.6,-1.8 0.7,0 1.3,0 2,0 1.6,0.1 2.3,-0.4 1.5,-2 2.6,0.2 4.6,2.6 7.5,2 -2.8,0.6 -4.8,-1.9 -7.4,-2 -0.6,-0.1 -1.3,-0.3 -1.9,-0.4 -1.5,-0.3 -2.2,-0.9 -1.5,-2.6 0.2,-0.5 1.2,-1.3 0.3,-2 -1.5,-1.3 -2.4,-2 -0.1,-3.8 1.4,-1 -0.4,-3.2 -1.9,-3.1 -1.4,0.1 -1.5,-0.8 -2,-1.3 -0.4,-0.3 -1.6,-0.6 -0.8,-1.7 0.8,-1.1 1.2,0 1.8,0.3 4.6,2.2 9.4,4 13.8,6.6 1.1,0.7 2.8,0.4 4.3,0.5 -0.6,-1.9 -2.1,-2.2 -3.5,-2.9 -5.7,-2.9 -11.9,-4.9 -16.8,-9.3 -2.2,-2 -5.3,-1.8 -8.1,-2.2 -2.7,-0.4 -4.2,-1.8 -4.1,-4.6 0,-1.5 0,-2.9 0,-4.4 0.2,-4 3.3,-7.1 7.2,-7.1 8.6,0 17.4,0.4 25.7,-2.5 4.4,-1.5 9.2,-2.4 13.2,-5 1.1,-0.7 2.1,-0.6 3.3,-0.3 2.5,0.8 5,1.6 7.6,1.3 -0.1,2.1 -0.2,4.2 -3.5,3.4 2.3,0.6 4.3,0.9 6.4,1.9 -4.6,1.2 -7,5 -10,7.9 -0.6,0.6 -1.7,2.4 -0.5,4.2 0.8,1.3 1.1,0.3 1.6,0.3 2.2,0.1 2,-1.5 2.7,-3 1.6,-3.8 4.5,-6.4 8.4,-8.2 6.2,-2.9 11.8,-1.3 17.4,1.5 2.6,1.3 5.5,2.1 7.7,4.6 -3.6,1.4 -6.6,-0.3 -9.4,-1.6 -5.3,-2.5 -10.7,-1 -15.8,0 -3.1,0.6 -5.2,3.8 -6.5,7 -0.3,0.8 -0.8,1.9 0.6,2.1 0.8,0.1 2.1,0.7 2.4,-1.1 0.1,-1.1 0.8,-2.2 1.5,-3.1 1.6,-1.8 3.5,-4.1 6.3,-2.4 1.7,1 1.2,6.7 -0.1,8.3 -2.2,2.7 -5.7,4.3 -6.9,7.9 0.2,0.8 -0.1,1.1 -0.9,0.9 -2.7,-2.3 -2.6,-3.9 1,-5.4 4.5,-1.9 5.4,-5.9 5.5,-10.7 -2.2,2.5 -2.6,5.7 -4.8,7.6 -2,1.8 -4.1,3.5 -6.1,0.1 -0.7,-1.1 -1.5,-1.4 -3,-2.2 1.5,4.9 1.9,9.4 5.9,12.8 5.1,4.3 5.2,9.3 1.2,15.3 -2.5,-3.6 -6.7,-4.8 -9.7,-8.2 -2.5,-2.9 -1.8,-5.1 -1.6,-7.7 0.1,-1.2 1.1,-2.4 1.1,-3.6 0,-1.2 1.1,-3.2 -1,-3.6 -2,-0.4 -2.1,1.5 -2.3,2.9 -1.6,-0.5 -2,-2 -3.7,-4 0,2.7 -1.2,4.5 1.5,5.5 0.4,0.1 0.9,0.2 1.1,0.4 0.8,0.9 0.8,2.3 0.3,3 -2,3.1 2,7.9 -3,9.9 -0.3,0.1 -0.4,0.4 -1,0.2 -4.2,-1.8 -9.8,1.3 -12.9,-4 -0.4,-0.7 -0.9,-1.4 -2.3,-1 2.8,6 8.8,4.8 14.2,6.6 -5.1,0 -3,7.3 -5.8,6.7 3.4,-0.5 5.7,-6.5 10.7,-8.4 -0.3,1.9 -1.8,2.8 -3.3,3.7 -2.1,1.3 -4.2,2.6 -3.9,5.6 0,0 0.1,-0.1 0.1,-0.1 -2.3,1.4 -4.9,1.8 -7.3,0.7 -3.7,-1.6 -7.8,0.9 -11.3,-1.5 z"
   class="st0" />
		<path
   id="path10536"
   d="m 134.7,239.9 c -2.6,-8.6 -8.1,-15.4 -12,-23 7.2,7.3 11,16.8 16,25.4 -2.8,-10.4 -8.8,-19.1 -14.1,-28.6 2.8,-0.3 5.3,-0.2 7.5,-1.5 1.7,-1 2.4,0.6 2.8,1.3 3.1,5.9 8,10.7 10.1,17.4 2.1,-2.8 -1.8,-4.5 -0.6,-7.1 2.8,2.8 5.2,7.6 4,9.7 -2,3.5 0.8,6.2 -0.6,9.3 -5,-10.3 -7.7,-21.7 -16.4,-29.6 7.4,11.5 13.2,23.6 15.9,37.1 -2.5,-4 -3.1,-8.7 -5.4,-12.9 -2.2,-4.2 -3.4,-9.2 -6.4,-13 -2.7,-3.5 -3.1,-9 -8.5,-10.3 7.7,10.5 13.6,21.8 17,35.2 -2.7,-1.3 -1.7,-4 -3.5,-4.8 -0.6,-0.2 0.2,-2.2 -1.3,-1 -0.5,0.4 -1,1.1 -0.3,1.7 1.3,1.1 1.6,2.3 1.1,3.9 -1.5,-0.7 -1,-3.9 -2.9,-3.2 -2.1,0.8 1.4,1.7 0.3,3.6 -7.1,-4 -7.8,-13.3 -14.1,-17.8 3.4,4.9 5.5,10.5 8.7,15.4 0.4,0.6 0.8,1.4 0.6,2 -0.1,0.4 -1.2,0.9 -1.6,0.8 -0.7,-0.2 -0.9,-1.1 -1.2,-1.8 -3.2,-8.3 -8,-15.6 -13.7,-22.4 -0.8,-1 -0.9,-0.9 -4.3,-1 4.2,3 6,7.1 9,10.4 2.4,2.6 2.4,6.1 3.5,9.3 0.4,1.3 0.7,2.7 1.1,4.1 0.7,-0.5 1.3,3.6 2.2,0.1 0.1,-0.3 0.6,-0.7 0.6,-0.2 0,0.7 1.3,1.2 0.4,2 -1.1,0.8 -2.3,1.6 -3.9,2.6 -0.6,-3.1 -0.3,-6.3 -2.5,-8.7 -1.5,3.2 2.4,6.8 -0.9,10.3 -0.1,-1.1 -0.1,-1.7 -0.2,-2.4 -0.1,-0.7 0.4,-1.9 -0.9,-1.7 -1.3,0.2 -0.5,1 -0.2,1.7 1.4,3.6 -2.3,5.3 -3.2,8 -0.5,1.4 -1.5,3 -2.1,4.5 -1.9,5.4 -4.1,6.7 -9.3,4.6 -8.9,-3.7 -17.9,-7.1 -27.2,-9.6 -1,-0.3 -2.6,-0.6 -2.7,-2 -0.1,-1.5 1.2,-1.6 2.4,-1.9 1.7,-0.5 1.6,-1.6 0,-2.2 -1.7,-0.7 -3.3,-1.3 -3.8,-3.3 -2,0.5 -0.7,2.2 -1.7,3.2 -1.4,-4.5 -5.8,-1.7 -8.3,-3.6 -1.8,-1.4 -2.4,-4 -5.1,-4.5 -0.7,-0.1 0.1,-0.8 0.2,-1.2 0.3,-1.7 1.7,-1.2 2.5,-1 3.3,0.9 6.6,2.2 9.9,2.9 8,1.8 15.5,5.5 23.6,7 2.7,0.5 5.2,0.8 7.4,-1.1 0.9,-0.8 1.5,-0.9 2.1,0.2 0.4,0.8 0.4,2.2 1.9,1.5 1.5,-0.8 0,-1.8 -0.1,-2.7 0,-0.4 0.1,-0.8 0.1,-1.5 2.1,1.1 1.8,3.8 3.6,4.8 0.6,0.4 0.7,2 2,0.9 1,-0.8 0,-1.7 -0.3,-2 -2.1,-2.4 -2.1,-5.9 -5.4,-7.7 -1.9,-1.1 -1.6,-4.7 -2.2,-7 -0.6,-2.5 0.8,-5.8 2,-8.4 1.6,-3.4 4,-1.9 5.6,0.1 1.3,1.6 2.9,2.2 4.9,3.9 -1,-3.8 -3.5,-5.5 -5.6,-7.2 -1.2,-1 -1.4,-2.2 -0.7,-2.4 1.2,-0.4 1.6,-2.9 3.7,-1.3 2.5,1.9 5,3.8 6.7,6.5 0.4,0.6 1.1,1 2.3,2.2 -0.6,-4.2 -2.8,-6.1 -5,-8.1 -3.2,-2.9 -3.5,-4.9 -0.9,-6.3 0.5,-0.3 1.2,-0.9 2.3,0.4 4.9,5.8 9,12 12.5,18.7 0.5,1.2 0.5,2.8 2.6,3.3 z"
   class="st0" />
		<path
   id="path10538"
   d="m 249.5,132.9 c 2.9,-2.8 6.5,-4.6 10.2,-6.3 -0.7,2.3 -2.9,3.1 -4,5.2 -2.6,4.7 -0.1,8.6 1.7,12.3 1.1,2.2 1,2.9 -0.2,5.1 -2.3,4.1 -4,8.5 -8.6,10.8 -0.6,0.3 -1.1,1.1 -0.3,1.6 0.7,0.4 1.6,0.4 2.1,-0.3 2,-2.7 5.1,-4.3 6.7,-7.4 0.7,-1.3 1.6,-2.6 2.8,-3.6 -1.6,4.6 -3.7,8.9 -8.1,11.5 -7.7,4.7 -11.4,11.7 -11.9,20.5 0,0.8 0.4,1.2 1.3,1.7 1.5,-4.1 0.8,-8.9 3.5,-12.6 0.7,-1 1.3,-1.9 2.3,-2.8 4.6,-4 9.4,-7.9 12.4,-13.4 1,1.7 1,1.7 -2.6,8.7 1.6,1.3 2.5,-0.7 3.7,-0.9 1.3,3.3 -1.5,4.5 -3.2,6.1 -3.2,3 -7.3,5.1 -10.3,8.5 -3.5,4 -3.7,6.2 -1.6,11.2 3.4,8 7.8,15.6 11.4,23.4 3.8,8.4 7.4,17.2 6.3,26.9 -0.9,7.5 -2.8,14.7 -7.8,20.5 -2.9,3.4 -3.1,3.2 -7.3,1 2.8,-2.8 5.5,-5.6 7.1,-9.3 3.1,-7 4.7,-14.1 3.1,-22.1 -2.4,-11.9 -8.5,-21.8 -15.5,-31.1 -5.6,-7.5 -8.4,-15.9 -9.8,-24.8 -0.4,-2.8 1.2,-6 2.5,-8.8 1.6,-3.5 3.7,-6.7 5.8,-9.9 1,-1.5 1.6,-2.7 0.5,-4.2 -2.6,-3.5 -1.1,-6.6 1,-10.6 0.6,3.7 3.1,5.9 3.4,9 -0.2,1.9 -1.1,3.5 -1.9,5.1 -0.1,0.5 0.5,0.4 0.5,0.3 -0.3,-2 1.8,-3.4 1.3,-5.4 2,-2.1 1.4,-4.3 0.2,-6.6 -1.1,-2.1 1.1,-8.2 3.4,-9.2 0.7,3.6 -1.1,7.4 0.7,10.4 -0.6,-2.8 -1.5,-6.1 0.3,-9.4 0.6,-1.1 -0.9,-0.5 -1.1,-1.1 z"
   class="st0" />
		<path
   id="path10540"
   d="m 83.1,131.8 c 0.5,-3.2 3.3,-4.9 5.5,-7.7 -4,1.1 -6.6,3.3 -8.2,6.2 -1.6,2.9 -2.6,6.2 -5.1,8.5 2.1,-6.2 4.3,-12.2 10.6,-16.1 -1.9,-0.7 -2.8,0.9 -4.3,0.8 0.3,-2.8 3.3,-1.5 4.2,-3.1 -3.6,-2 -4.3,-1.6 -5.8,2.8 -1.5,4.4 -3.2,8.6 -6.8,11.8 -1.7,-1.7 -2.4,-2.9 0.5,-4 2.3,-0.9 5.2,-8.4 5.2,-12.1 -2.7,1.3 -3,4.2 -4.5,6.1 -1,1.2 -1.8,2.6 -2.9,3.7 -0.3,0.4 0.2,2.1 -1.2,1.1 -0.8,-0.5 -1.1,-1.3 -0.2,-2 1.8,-1.3 2.2,-3.5 3.5,-5.1 0.4,-0.5 1.1,-1 0.6,-1.6 -0.6,-0.7 -1.5,-0.5 -2.2,0 -1.9,1.2 -1.8,3.7 -3.6,5.1 -1.5,-7 -15.4,-33.3 -20.2,-38.5 4.7,-4 4.9,-6 0.5,-11.3 -2,-2.4 -2.8,-4.6 -0.2,-6.9 1.5,-1.4 0.3,-2.6 -0.1,-3.8 -1.2,-3.6 -2.7,-7 -1.9,-11.1 2.6,1.2 3.1,3.9 4.7,5.7 2.9,3.3 -1.5,4.1 -1.8,6.8 4.1,-2.8 4.3,1 4.7,2.9 2.2,10.4 9,17.9 15.5,25.6 3.8,4.5 7.6,8.9 10,14.2 1.9,4.2 4.9,7.2 9.2,8.4 2.7,0.8 2.2,2 1.4,3.6 -3,6.6 -5.4,13.2 -3.2,20.6 0.2,0.7 0.1,1.6 0,2.4 -0.1,1.1 0.5,2.7 -1.6,2.3 -1.4,-0.3 -2.1,-1.5 -1.4,-2.7 0.8,-1.5 1.2,-3.9 0.1,-4.1 -2.4,-0.5 -1.5,2.5 -2.5,3.7 -0.5,0.6 0.4,1.8 -1,2.5 -1.2,-2.2 -2.2,-3.9 0,-6.4 1.6,-1.9 2.2,-4.6 3.8,-6.7 1.2,-1.7 -0.1,-2 -1.5,-1.7 z"
   class="st0" />
		<path
   id="path10542"
   d="m 104.2,165.7 c 1.5,4.1 -2.4,4.5 -4.3,5.3 -12.2,5.2 -23.6,12 -35.9,16.6 -3.2,1.2 -6,3.3 -8.3,5.5 -2.5,2.4 -4.2,1.2 -6.2,-0.1 -0.5,-0.3 -0.8,-1.1 -1.8,-0.9 -1.5,3.1 -1.2,6.6 -1.9,10 -0.4,2 -1.1,1.1 -2.1,1.2 -1.5,0.1 -2.9,-0.4 -4.1,-0.9 -2.5,-1 -3.1,-3.4 -1.1,-5.1 3.2,-2.7 3.2,-7.4 7,-10 1.7,-1.2 3.8,-3 5.4,-3.6 10.5,-4.1 17.3,-13.2 26.6,-18.9 3.6,-2.2 6.3,-5.4 9.8,-7.7 1.5,-1 1.9,-2.2 3.6,0.6 1.8,3.1 4.5,7 9.4,6.3 0.6,-0.1 1.4,-0.1 1.4,0.9 0,0.4 0,0.9 -0.2,1.1 -0.9,0.8 -1.3,-0.1 -1.9,-0.6 -0.8,-0.7 -1.2,-1.2 -2,0.3 -2.3,4.2 -7,4.9 -11.1,6 -1.9,0.5 -3.3,2.1 -5.3,2.1 -0.1,0 -0.3,0.9 -0.3,1.4 0.1,0.6 0.7,1 1.1,0.5 3.1,-3.1 8.2,-1.2 11.2,-4.1 3.1,-2.8 8.6,-1.3 11,-5.9 z"
   class="st0" />
		<path
   id="path10544"
   d="m 232.6,269.3 c -10.3,1 -16,-5.1 -13.7,-15.1 1.6,5.7 2.2,11.6 8.5,13.8 -1.9,-1.9 -3.2,-4.2 -4.4,-7.1 5.5,1.5 10.2,3.6 15.1,7.1 0.1,-1.7 -2.2,-3.3 0.8,-3.5 3.2,-0.2 5.8,-3.6 9.6,-2.2 1.2,0.4 3,0.3 2.3,2.1 -0.5,1.3 -2,2.4 -3.8,1.5 -1.7,-0.9 -3.3,-1.6 -5.2,-0.9 0.8,1.1 2.1,1.3 3.4,1.6 -1.6,2.6 -3.9,-0.3 -5.7,0.8 0.2,0.9 1.2,0.3 1.5,0.7 0.7,1 -0.7,0.9 -0.9,0.9 -3.3,1.1 -5.5,-1.4 -7.8,-2.9 -1.5,-1 -2.7,-2.4 -5,-2.6 0.4,3.1 4.1,3.4 5.3,5.8 z"
   class="st0" />
		<path
   id="path10546"
   d="m 191.6,40 c -2.7,0 -5.3,0.1 -8,0 -3.1,-0.2 -5.7,0.4 -7.7,2.9 -0.2,0.2 -0.4,0.4 -0.6,0.5 -2.5,1 -5.4,2.9 -7.5,0.5 -1.8,-2 1.6,-3.3 2.5,-4.9 2,-3.3 9.3,-5.1 13.2,-3.7 2.8,1 5.5,2.5 8.2,3.8 0,0.4 0,0.6 -0.1,0.9 z"
   class="st0" />
		<path
   id="path10548"
   d="m 43.6,74.4 c -3.6,-4 -3.8,-8.5 -3.5,-13.1 5.8,3.7 6.6,6.5 3.5,13.1 z"
   class="st0" />
		<path
   id="path10550"
   d="m 146.3,335.2 c 2.1,-2.7 4.8,-4.2 5.7,-7 0.4,-1.2 1.3,-1.2 1.8,-0.9 1.3,0.9 3.1,1.4 3.5,3.2 0.2,1.1 -0.7,1.2 -1.6,1.5 -3,1 -5.5,3.3 -9.4,3.2 z"
   class="st0" />
		<path
   id="path10552"
   d="m 61,252.6 c -4,0.4 -7.5,0.2 -10.6,-2.5 4.7,-2.4 7.7,-1.8 10.6,2.5 z"
   class="st0" />
		<path
   id="path10554"
   d="m 48.1,241.3 c 2.7,0.7 4.8,1.3 6.9,1.8 0.8,0.2 2,-0.3 1.9,1.3 -0.1,1.5 -1.1,2 -2.4,2 -2.4,0 -4.8,-1.8 -6.4,-5.1 z"
   class="st0" />
		<path
   id="path10556"
   d="m 151.3,326 c -1.7,4 -5.8,2.9 -9,4.7 2.1,-3.4 5.5,-5.1 9,-4.7 z"
   class="st0" />
		<path
   id="path10558"
   d="m 29.6,205.9 c 1.8,-1.5 3.2,-2.5 4.4,-3.6 1.1,-1 2.1,-1.2 3,0 0.9,1.2 -0.5,1.5 -1,2 -1.4,1.6 -3.1,2.5 -6.4,1.6 z"
   class="st0" />
		<path
   id="path10560"
   d="m 167.9,71.2 c 0.3,-0.3 0.6,-0.6 0.9,-0.9 4.1,-1.3 5.8,-5.5 9.1,-7.6 -0.4,1.8 -7.6,9.6 -9.1,9.7 -0.2,0 -0.6,-0.8 -0.9,-1.2 z"
   class="st0" />
		<path
   id="path10562"
   d="m 170.8,73.9 c -0.4,-0.9 -0.7,-1.3 0.6,-2.1 2.5,-1.6 5.3,-3 6.5,-6.1 0.2,-0.4 0.6,-1.3 1.5,-0.5 0.8,0.7 0.2,1 -0.2,1.5 -2.2,3.3 -5.5,5 -8.4,7.2 0,0.1 0,0 0,0 z"
   class="st0" />
		<path
   id="path10564"
   d="m 37.1,210.2 c 0.6,-4 2.5,-5.4 6.5,-5.2 -1.4,2.7 -4.8,2.9 -6.5,5.2 z"
   class="st0" />
		<path
   id="path10566"
   d="m 82.9,131.7 c -0.3,4.2 -3.8,6.5 -5.9,9.6 1,-3.8 3.6,-6.5 6,-9.5 0.1,0 -0.1,-0.1 -0.1,-0.1 z"
   class="st0" />
		<path
   id="path10568"
   d="m 171.3,224 c 0.9,-0.1 1.6,0 1.4,1 -0.1,0.4 -0.6,1.1 -1,1.1 -0.9,0.1 -0.6,-0.9 -0.9,-1.3 -0.5,-0.8 0.3,-0.6 0.5,-0.8 z"
   class="st0" />
		<path
   id="path10570"
   d="m 189.2,303.9 c 3,-2.7 7.1,-3.2 10,-6.5 1.6,-1.7 4.6,-1.6 6.7,-3.5 1.7,-1.6 2.3,-1.9 -0.3,-2.8 -2,-0.7 -2.7,-2.5 -2.9,-4.6 1.6,1.8 3.5,2.8 5.8,3.4 1.3,0.3 1.3,1.6 0.7,3 -0.8,2 -2.4,3 -4.1,4 -4.5,2.7 -8.6,5.9 -13.7,7.5 -0.6,0.2 -1.1,0.7 -1.7,0.2 -0.3,-0.4 -0.5,-0.8 -0.5,-0.7 z"
   class="st1" />
		<path
   id="path10572"
   d="m 109.9,158.7 c 0.4,-4.4 3.3,-7.5 5.4,-11.1 0.5,-0.9 1.4,-1.5 1.8,-2.5 0.1,-0.2 1,-0.3 1.5,-0.2 0.6,0.1 0.9,0.7 0.5,1.2 -3.4,4 -4.1,9.9 -9.3,12.5 0,0 0.1,0.1 0.1,0.1 z"
   class="st1" />
		<path
   id="path10574"
   d="m 141.5,125.6 c -3,3.8 -3,3.8 -18.6,0.3 6.7,-1 12.6,2.9 18.6,-0.3 z"
   class="st1" />
		<path
   id="path10576"
   d="m 175.3,271.9 c -0.3,0.4 -0.5,0.8 -0.7,0.9 -0.5,0.1 -1.1,0.1 -1.5,-0.1 -2.1,-1 -6.1,-7.9 -5.8,-10.2 0.1,-0.9 0.8,-1.7 1.5,-1.5 1.1,0.4 1.6,1.6 1.6,2.8 -0.1,3.1 0.6,5.7 3.8,7 0.4,0.1 0.7,0.6 1.1,1.1 z"
   class="st1" />
		<path
   id="path10578"
   d="m 148.9,193.6 c -1.4,-3.9 -3.3,-7.6 -3.3,-11.8 0,-1.3 0.4,-2.8 1.8,-2.4 1.4,0.3 0.3,1.6 0.1,2.6 -0.5,2.8 1.9,4.9 1.9,7.7 0,1.3 0.3,2.6 -0.5,3.9 z"
   class="st1" />
		<path
   id="path10580"
   d="m 127.9,91.9 c 4.6,0.2 9.2,-0.4 13.7,1.5 1.3,0.5 3.2,-0.4 4.8,-0.7 -2.5,2.7 -5.7,1.8 -8.7,1.3 -1.6,-0.3 -3.3,-0.8 -4.5,-0.2 -2.6,1.4 -4,0.3 -5.3,-1.9 z"
   class="st1" />
		<path
   id="path10582"
   d="m 166.5,245.8 c -3.8,4.4 -2.9,9.9 -3.5,15.6 -3,-5.1 -0.6,-15.2 3.5,-15.6 z"
   class="st1" />
		<path
   id="path10584"
   d="m 157.9,225.3 c -0.7,-3.8 -0.7,-7.5 -4.2,-9.7 -0.6,-0.4 -1.2,-1.1 -0.5,-2 1.3,-1.6 1.2,0.4 1.7,0.7 3.6,2 5.2,8.2 3,11 z"
   class="st1" />
		<path
   id="path10586"
   d="m 112.6,145.8 c -2,2.8 -0.8,8.3 -6.5,7.9 -0.7,0 -1.5,0.5 -1.8,-0.5 -0.2,-0.7 0.6,-1.3 1.2,-1.2 2.9,0.3 3.6,-1.6 4.1,-3.7 0.3,-1.6 1.5,-2.2 3,-2.5 z"
   class="st1" />
		<path
   id="path10588"
   d="m 106.4,149.6 c -1,-3.4 1.9,-8.8 4.7,-9.6 0.4,-0.1 1,0.2 1.5,0.3 -0.3,0.6 -0.4,1.4 -0.8,1.7 -2.6,2 -4.2,4.6 -5.4,7.6 z"
   class="st1" />
		<path
   id="path10590"
   d="m 176.9,229.5 c -0.7,0.5 -1.4,1 -2.4,1.6 -0.4,-3.6 1,-6.5 2.4,-9.5 0.9,2.7 1.3,5.4 -0.1,8 z"
   class="st1" />
		<path
   id="path10592"
   d="m 105.7,143.3 c -1,-3.9 2.5,-7.3 8.8,-8 -4.1,2.3 -7.3,4.2 -8.8,8 z"
   class="st1" />
		<path
   id="path10594"
   d="m 166.6,94 c 3.6,-0.6 5.6,-4.1 8.9,-5.3 -3.7,5.5 -4.2,5.8 -8.9,5.3 z"
   class="st1" />
		<path
   id="path10596"
   d="m 170.2,233.4 c 0.8,1.5 -0.5,2.1 -1.3,3 -0.7,0.8 -1.8,1.6 0.2,2.2 0.5,0.1 0.7,1.1 0.2,1.2 -1.9,0.5 -2.3,2.7 -3.9,3.3 -0.5,0.2 -0.8,-1 -0.5,-1.2 2.8,-2.2 1.5,-7 5.4,-8.4 0,0 -0.1,-0.1 -0.1,-0.1 z"
   class="st1" />
		<path
   id="path10598"
   d="m 153.4,212.6 c -1,-3.8 -4.1,-5.7 -3.7,-9.2 2.8,2.9 3.8,5.3 3.7,9.2 z"
   class="st1" />
		<path
   id="path10600"
   d="m 145.6,96.6 c 2.4,-1.5 4.3,-2.8 6.8,-2.1 -1.6,2.4 -1.6,2.4 -6.8,2.1 z"
   class="st1" />
		<path
   id="path10602"
   d="m 98.7,118.8 c 2.6,-1.4 5.1,-3.4 8.7,-0.7 -3.2,0.7 -6,-0.3 -8.7,0.7 z"
   class="st1" />
		<path
   id="path10604"
   d="m 143.2,176.5 c -0.1,-1.2 0.1,-2.8 1.4,-2.7 2.1,0.2 0.2,1.4 0.2,2.2 0,0.3 -0.1,0.6 0,0.8 0.3,1 1.6,2.4 -0.3,2.8 -0.8,0 -1.4,-1.8 -1.3,-3.1 z"
   class="st1" />
		<path
   id="path10606"
   d="m 176.8,229.6 c 0.9,0 2.1,-0.3 1.4,1.3 -0.7,1.9 -1.4,3.9 -3.6,4.8 -0.8,-2.7 2.6,-3.8 2.3,-6.3 0,0.1 -0.1,0.2 -0.1,0.2 z"
   class="st1" />
		<path
   id="path10608"
   d="m 135.8,99.6 c 3.6,-1.2 6,1.1 9.3,1.4 -3.8,1.7 -6.1,-0.7 -9.3,-1.4 z"
   class="st1" />
		<path
   id="path10610"
   d="m 140.4,104.8 c -3.2,-2.1 -6,-2.5 -7.5,-5 2.2,1.5 5.5,1.1 7.5,5 z"
   class="st1" />
		<path
   id="path10612"
   d="m 172.5,137.3 c 2.1,-1.6 4.1,-2.1 5.4,-4.5 -0.3,3.8 -1.5,4.7 -5.4,4.5 z"
   class="st1" />
		<path
   id="path10614"
   d="m 140.7,97.8 c 2.9,-0.7 5.1,1.3 7.6,0.8 -2.4,0.5 -5,2.3 -7.6,-0.8 z"
   class="st1" />
		<path
   id="path10616"
   d="m 180.6,99.4 c 0.5,-0.1 1.7,-0.1 1.5,0.2 -1.5,1.8 -2.6,4.5 -5.9,3.3 1.9,-0.9 3.2,-2.3 4.6,-3.6 z"
   class="st1" />
		<path
   id="path10618"
   d="m 146,210.5 c -1.6,-2.2 -2.5,-3.6 -1.6,-5.7 1.2,1.5 2.4,2.8 1.6,5.7 z"
   class="st1" />
		<path
   id="path10620"
   d="m 179.3,95.8 c 0.8,-1.5 2.5,-2.2 2.9,-3.9 0.4,3.6 0.4,3.6 -2.9,3.9 z"
   class="st1" />
		<path
   id="path10622"
   d="m 175.4,126.7 c -3.3,1.1 -5.5,-0.3 -8.2,-0.7 3,-1.2 5.2,0.5 8.2,0.7 z"
   class="st1" />
		<path
   id="path10624"
   d="m 172,106.8 c 1.9,-0.8 4.1,-0.2 5,-2.4 0.2,-0.6 0.9,-0.4 1.2,0 0.4,0.5 0.1,1 -0.4,1.3 -1.6,1.3 -3.4,2 -5.8,1.1 z"
   class="st1" />
		<path
   id="path10626"
   d="m 173.5,109 c -0.9,1.3 -1.6,2.5 -3.2,2.2 -0.7,-0.1 -0.8,-0.6 -0.6,-1.2 0.8,-1.5 2.1,-1.3 3.8,-1 z"
   class="st1" />
		<path
   id="path10628"
   d="m 179.5,123.5 c -1.7,0.4 -3.2,2.3 -5.3,0.7 1.7,-1.8 3.6,-0.6 5.3,-0.7 z"
   class="st1" />
		<path
   id="path10630"
   d="m 164.1,135.3 c 2.3,-1.6 3.7,-0.5 5.7,0.3 -2.1,0.5 -3.5,0.7 -5.7,-0.3 z"
   class="st1" />
		<path
   id="path10632"
   d="m 180.4,120.4 c 1.5,-0.4 2,-2.7 4,-1.9 -1.4,2.1 -1.4,2.1 -4,1.9 z"
   class="st1" />
		<path
   id="path10634"
   d="m 180.7,99.3 c -0.6,-0.2 -1.6,0.1 -1.4,-0.9 0.3,-1.4 1.3,-1.9 2.8,-1.5 0.2,1.2 -1.4,1.4 -1.5,2.5 0,0 0.1,-0.1 0.1,-0.1 z"
   class="st1" />
		<path
   id="path10636"
   d="m 157.8,129.9 c 1.9,-0.7 3.1,0.1 4.5,0.9 -1.9,0.9 -3.2,0.1 -4.5,-0.9 z"
   class="st1" />
		<path
   id="path10638"
   d="m 167.5,128.6 c -1.5,0 -3.1,0 -4.6,0 0,-0.1 0,-0.2 0,-0.4 1.5,0 3,0 4.6,0 0,0.2 0,0.3 0,0.4 z"
   class="st1" />
		<path
   id="path10640"
   d="m 133.4,96.3 c -1.6,0.5 -3.2,1.1 -4.7,-1.1 1.8,0.3 3.1,1.4 4.7,1.1 z"
   class="st1" />
		<path
   id="path10642"
   d="m 175.2,88.1 c 0,-1.4 0.6,-2.4 1.8,-2.5 0.2,0 0.5,0.8 0.5,0.8 -0.7,0.7 -1.5,1.2 -2.3,1.7 z"
   class="st1" />
		<path
   id="path10644"
   d="m 165.5,113.4 c -1,1.4 -2.3,1 -3.9,0.8 1.4,-1 2.8,-0.1 3.9,-0.8 z"
   class="st1" />
		<path
   id="path10646"
   d="m 138.2,185.6 c 0.9,0 1,0.4 1,1 0,0.4 0.2,1.2 -0.5,1.1 -0.6,-0.1 -1.1,-0.6 -1,-1.4 0,-0.3 0.4,-0.5 0.5,-0.7 z"
   class="st1" />
		<path
   id="path10648"
   d="m 157.5,55.2 c -4.6,0.1 -6.4,-4.2 -10.9,-6.3 2.6,3.7 2.2,7.5 4.8,10 0.7,0.7 1.4,2 2.2,0.2 0.4,-0.9 1.3,-0.9 1.4,-0.4 0.1,0.7 1.3,1.2 0.4,2.3 -1.4,1.6 -4,2 -4.5,1 -1.3,-2.8 -3.1,-1.4 -4.7,-1.3 -3.3,0.2 -5.7,-1.7 -6.1,-5 -0.1,-0.5 0.1,-1.2 -0.1,-1.6 -0.6,-1 -1.4,-1.9 -2.1,-2.8 0.4,-0.1 1,-0.1 1.1,-0.3 2.4,-4.6 5.6,-6.9 10.4,-3 2.6,2.3 6.6,3.1 8.1,7.2 z"
   class="st1" />
		<path
   id="path10650"
   d="m 164.4,81.7 c -0.7,0.5 -1.8,1.2 -1.8,0.1 0,-3 -2.7,-4.5 -3.6,-7.1 -0.4,-1.1 0.1,-1.7 0.6,-1.7 2.7,-0.1 5.1,0.7 7.2,2.8 1.9,1.8 1.1,3.2 0.2,4.8 -0.6,1 -0.9,2.9 -2.6,1.1 z"
   class="st1" />
		<path
   id="path10652"
   d="m 116.7,51.1 c 1.4,0 2.9,-0.1 3.3,1.6 0.4,1.6 -0.9,2.1 -2.1,2.8 -1,0.6 -3,0 -2.8,2.4 0.1,0.8 -1.6,0.6 -2.4,0.4 -0.9,-0.2 -1.9,-1.1 -1.3,-2 1.2,-2.2 2.4,-4.7 5.3,-5.2 z"
   class="st1" />
		<path
   id="path10654"
   d="m 137.9,54.6 c -0.2,3.1 2.6,5.5 1.3,8.8 -0.2,0.6 0,1.3 -1,1.4 -0.9,0.1 -1.5,-0.2 -1.6,-1.2 -0.1,-1.6 -3.5,-3.1 -0.1,-5 0.6,-0.3 0.2,-2.5 0.3,-3.8 0.4,-0.1 0.8,-0.2 1.1,-0.2 z"
   class="st1" />
		<path
   id="path10656"
   d="m 129.2,78.5 c 2,3.1 4.9,4.7 8.5,5.4 -5.4,0.4 -8.1,-1.3 -8.5,-5.4 z"
   class="st1" />
		<path
   id="path10658"
   d="m 130.1,85.2 c 3.5,-1.4 5.7,2 8.8,2.3 -3.5,1.3 -6.4,0 -8.8,-2.3 -0.1,0 0,0 0,0 z"
   class="st1" />
		<path
   id="path10660"
   d="m 131.1,51.8 c 1.9,0.5 3.6,-0.6 4.8,0.9 0.1,0.1 -0.1,0.5 -0.2,0.7 -1.2,-0.8 -3.2,1 -4.6,-1.6 z"
   class="st1" />
		<path
   id="path10662"
   d="m 149.5,80.3 c -1.4,1 -2.6,1.8 -4.4,1 1.1,-1.1 2.4,-1.6 4.4,-1 z"
   class="st1" />
		<path
   id="path10664"
   d="m 138.7,89.9 c 1.4,-0.3 2.8,-0.7 4.5,-1.1 -1.2,2.2 -2.8,1.5 -4.5,1.1 z"
   class="st1" />
		<path
   id="path10666"
   d="m 129.6,90.8 c 1.7,-0.6 3.1,-0.5 4.9,0 -1.9,0.6 -3.2,0.5 -4.9,0 z"
   class="st1" />
		<path
   id="path10668"
   d="m 84.8,258.7 c 3.3,-0.6 4.9,1 6.3,1.9 3.3,2.1 6.7,2.1 10.2,1.8 2,-0.2 3.2,1.3 4.3,2.3 1.9,1.8 3,1.5 3.9,-0.7 0.6,-1.3 1.7,-2.2 2.7,-1.5 1.7,1.3 -0.6,1.8 -1,2.7 -1.5,3.5 -4.1,3.6 -7,1.8 -3.2,-2 -7.1,-2.2 -10.4,-3.8 -2.7,-1.4 -5.4,-2.7 -9,-4.5 z"
   class="st1" />
		<path
   id="path10670"
   d="m 135.9,245.3 c -3.6,-0.8 -4.6,-4.1 -6.1,-6.6 -3.7,-6.3 -7.1,-12.7 -12.5,-17.8 -0.5,-0.5 -0.9,-1.2 -0.1,-1.6 0.9,-0.4 1.8,-0.1 2.4,0.8 2.1,2.9 4.6,5.6 6.3,8.8 3.2,5.6 6.5,11 10,16.4 z"
   class="st1" />
		<path
   id="path10672"
   d="m 249.5,132.9 c 0.9,-0.3 1.9,-0.5 3.8,-1.1 -4.5,4.4 -2.6,8.8 -1.7,13 0.2,0.9 0.8,2 -0.2,2.3 -1.5,0.4 -0.8,-1.2 -1.1,-1.9 -2.1,-4 -1.9,-8.2 -0.6,-12.4 0,-0.1 -0.2,0.1 -0.2,0.1 z"
   class="st1" />
		<path
   id="path10674"
   d="m 246.1,148.5 c 1.2,3.4 -1.5,5.2 -3.4,7.3 1.2,-2.4 2.3,-4.8 3.5,-7.2 0,0 -0.1,-0.1 -0.1,-0.1 z"
   class="st1" />
		<path
   id="path10676"
   d="m 246.7,156.6 c -0.9,-1.8 1.1,-3.2 0.7,-5 -0.1,-0.4 0.5,-1.3 1.3,-0.9 0.6,0.3 0.5,0.8 0.4,1.5 -0.3,2 -1.6,3 -2.4,4.4 z"
   class="st1" />
		<path
   id="path10678"
   d="m 241.3,162.5 c 1,-1.1 2,-2.2 2.9,-3.3 -0.4,1.5 -1.3,2.7 -2.9,3.3 z"
   class="st1" />
		<path
   id="path10680"
   d="m 64.3,98.1 c -1.8,2.6 -2.2,4.4 0.2,6.1 2.3,1.6 1.3,-2.2 3.3,-1.6 -0.3,1.6 -0.4,3.4 1,4.8 0.3,0.3 1.1,0.8 0.3,1.6 -1,1 -1.3,-0.1 -1.8,-0.5 -1.7,-1.2 -3.5,-2.2 -5.1,-3.5 -2.6,-2.2 -2,-5.2 2.1,-6.9 z"
   class="st1" />
		<path
   id="path10682"
   d="m 74.7,113.7 c -1.3,2.7 -2.5,5.6 -6,7.7 0.4,-4.4 3.7,-5.7 6,-7.7 z"
   class="st1" />
		<path
   id="path10684"
   d="m 71.6,110.5 c 0,1.9 -1.5,4.5 -4.2,7.7 0.3,-4.3 1.2,-6 4.2,-7.7 z"
   class="st1" />
		<path
   id="path10686"
   d="m 73.9,176.7 c -4.7,-0.5 -6.4,5.4 -11.5,3.8 3.7,-1.6 5.6,-7.1 11.5,-3.8 z"
   class="st1" />
		<path
   id="path10688"
   d="m 78.7,171.5 c -0.9,2.6 -2.2,3.6 -4.1,5 0.5,-2.5 1.4,-3.8 4.1,-5 z"
   class="st1" />
		<path
   id="path10690"
   d="m 145.6,54.2 c -0.1,0.8 -0.5,1.1 -1,0.9 -0.4,-0.2 -1,-0.6 -1,-1 -0.1,-0.7 0.7,-0.4 1.1,-0.5 0.4,0 0.9,0.1 0.9,0.6 z"
   class="st0" />
	</g>
</g>
</svg>
