<?xml version="1.0" encoding="UTF-8" standalone="no"?>
<svg
   xmlns:dc="http://purl.org/dc/elements/1.1/"
   xmlns:cc="http://creativecommons.org/ns#"
   xmlns:rdf="http://www.w3.org/1999/02/22-rdf-syntax-ns#"
   xmlns:svg="http://www.w3.org/2000/svg"
   xmlns="http://www.w3.org/2000/svg"
   xmlns:sodipodi="http://sodipodi.sourceforge.net/DTD/sodipodi-0.dtd"
   xmlns:inkscape="http://www.inkscape.org/namespaces/inkscape"
   inkscape:version="1.0 (4035a4f, 2020-05-01)"
   height="230.33395"
   width="253.9565"
   sodipodi:docname="bull-passant.svg"
   xml:space="preserve"
   viewBox="0 0 253.9565 230.33395"
   y="0px"
   x="0px"
   id="Layer_1"
   version="1.1"><metadata
   id="metadata9965"><rdf:RDF><cc:Work
       rdf:about=""><dc:format>image/svg+xml</dc:format><dc:type
         rdf:resource="http://purl.org/dc/dcmitype/StillImage" /><dc:title></dc:title></cc:Work></rdf:RDF></metadata><defs
   id="defs9963" /><sodipodi:namedview
   inkscape:current-layer="Layer_1"
   inkscape:window-maximized="0"
   inkscape:window-y="25"
   inkscape:window-x="0"
   inkscape:cy="150.2"
   inkscape:cx="130.70831"
   inkscape:zoom="2.52"
   fit-margin-bottom="0"
   fit-margin-right="0"
   fit-margin-left="0"
   fit-margin-top="0"
   showgrid="false"
   id="namedview9961"
   inkscape:window-height="480"
   inkscape:window-width="820"
   inkscape:pageshadow="2"
   inkscape:pageopacity="0"
   guidetolerance="10"
   gridtolerance="10"
   objecttolerance="10"
   borderopacity="1"
   bordercolor="#666666"
   pagecolor="#ffffff" />
<style
   id="style9880"
   type="text/css">
  .st0{fill:#FFFFFF;}
  .st1{fill:#000000;}
</style>
<g
   transform="translate(-19.291695,-49.8)"
   id="g9958">
	<g
   id="g9956">
		<path
   id="path9882"
   d="m 223.3,63.5 c 2.2,-4.5 4,-8.6 3.5,-13.7 8.5,6.5 14,16.2 9.4,25.2 -1.6,3.2 -4.6,5.2 -7.2,7.6 -1.9,1.8 -2.6,3.2 -0.8,5.4 0.8,1 1.3,2.2 1.7,3.4 0.3,0.9 1.7,2.1 0,2.9 -1.2,0.6 -2.5,2.2 -4.1,0.6 -1.1,-1 -2.1,-2.8 -3.8,-1.1 -1.6,1.5 -2.5,3.2 -1.9,5.8 1.3,5.2 5.7,6.8 9.3,9.3 8.6,5.9 18.8,8.7 27.3,14.7 6.7,4.7 14.2,9.1 15.7,18.1 1.6,9.2 1.6,16.9 -6,21.3 -3.6,2.1 -7.2,3.8 -11.3,1.1 -0.6,6.4 0.3,12.6 -0.8,18.9 -1,5.5 -2.5,10.8 -4.2,16.1 -3.1,9.5 -1,17.9 6.1,24.3 5.3,4.8 3.6,10.4 3.2,15.5 -0.5,6.4 -0.3,12.7 -0.5,19.1 -0.1,2.6 0.1,5.3 -3.5,5.8 -1.2,0.2 -1.3,1.6 -1.7,2.4 -3.6,6.9 -8.8,9.4 -16.2,7.4 -1.7,-0.4 -3.3,-0.4 -5,-0.6 -1.1,-0.1 -2.5,0.3 -3.2,-0.9 -0.8,-1.5 0.8,-2 1.5,-2.8 3.2,-3.8 7.7,-6.1 10.7,-10.1 4.8,-6.4 4.4,-20 -0.5,-27.2 -0.6,-0.9 -1.4,-1.8 -2,-2.8 -3.4,-5.5 -8.7,-5.1 -14.1,-4.9 -1.3,0.1 -1.1,0.9 -1.5,1.7 -3.4,8.4 -6.3,16.9 -7.9,25.8 -0.8,4.5 -1.8,9.5 -5.9,12.9 -1.6,1.3 -3.4,1.9 -4.5,0.9 -2.5,-2.2 -2.3,0.4 -2.6,1.3 -2.1,5.7 -9.8,8 -14.2,4.1 -1,-0.9 -1.6,-1.2 -2.9,-0.5 -1.5,0.7 -3.4,0.4 -4.4,-1.3 -1.2,-1.9 0.9,-2.4 1.6,-3.3 3,-3.2 5.8,-7.1 9.5,-9.2 3.4,-1.9 5.6,-4.4 7.7,-7.3 5.8,-8.3 8,-17.5 6.1,-27.6 -0.7,-3.8 -0.9,-7.7 -1.1,-11.5 -0.2,-4.4 -6.1,-9.4 -10.4,-8.6 -7,1.3 -13.9,3.3 -20.7,5.6 -2.9,1 -5.4,1.5 -6.8,-2.4 -0.7,-1.9 -2.9,-1 -4.4,-0.6 -10.7,3.1 -21.4,6.6 -32.2,9.2 -4,0.9 -5.3,2.9 -5.5,6.1 -0.6,8.1 -2.5,15.9 -2.6,24.1 -0.1,7.3 -1.4,14.5 -2.2,21.8 -0.1,1.4 -0.8,2 -2.2,2.1 -2.7,0.2 -4.7,0.2 -4.3,4.5 0.6,5.4 -8.5,9.7 -14.2,7.4 -1.7,-0.7 -3.3,-2 -5.4,-1.9 -0.5,0 -2.1,-0.3 -2.2,-1.7 0,-1.1 0.6,-1.6 1.4,-2.1 3.9,-2.1 6.8,-5.4 10.1,-8.2 3.3,-2.7 3,-7.3 4.2,-11.1 2,-6.7 1,-13.2 -0.8,-19.7 -1.4,-4.9 -1.4,-10.1 -2.3,-15.1 -0.6,-3.4 -1.7,-5.5 -5.6,-4.8 -2.2,0.4 -4.1,-0.4 -6.1,-1.7 -3.1,-2.1 -6.7,-0.2 -9.7,0.4 -6.2,1.2 -12.3,1.5 -18.5,1.3 -2.8,-0.1 -3.4,0.8 -3.4,3.5 0,3.9 1.7,7.1 3.3,10.4 1,1.9 1.3,3.2 -1,4.4 -2.2,1.1 -2.1,4.5 0.3,5 6.1,1.3 4.7,6.6 6.1,10.3 0.1,0.3 0,0.8 0,1.2 0.2,1.8 -0.2,3.4 -1.8,4.4 -1.7,1 -2.4,-1.1 -3.7,-1.3 -0.2,0.2 -0.5,0.2 -0.6,0.4 -0.9,1.8 0,4.8 -3.1,5 -3.2,0.2 -2,-2.9 -2.8,-4.5 -3.6,-7.3 -6.4,-15 -8.9,-22.7 -1.2,-3.7 0.4,-8 -1,-11.9 -0.2,-0.5 -0.1,-1 -0.3,-1.5 -2.5,-7.2 -1.3,-9.9 5.8,-12.4 5.2,-1.8 9.2,-5.8 14.2,-7.9 1.4,-0.6 2.8,-1.1 4.1,-1.9 1.5,-0.9 4.7,-0.1 4.2,-2.8 -0.5,-2.5 -0.4,-5.4 -3.6,-7 -4.6,-2.2 -9,-3.9 -14.2,-3.6 -8.2,0.4 -16.4,-0.1 -24.5,0.8 -5.1,0.6 -8.9,-2.6 -12.6,-5.3 -2.5,-1.8 -1.7,-4.5 -0.2,-6.2 4.1,-4.6 5.6,-10.4 8.2,-15.7 0.8,-1.7 0.9,-3.6 1,-5.6 0.1,-3.9 -0.9,-8 1.4,-11.7 1,-1.7 -0.7,-3.2 -2,-4.2 -8,-5.9 -6.6,-15.5 -2.3,-23.4 1.1,-2 2.7,-3.7 4.7,-2.9 2.3,0.8 1.6,3.6 1.1,5.2 -1.5,4.8 -0.4,9 2.2,13.3 1.9,-5.1 2.2,-10.7 6.6,-14.5 1.6,-1.4 3.5,-2.7 5,-1.5 1.2,0.9 0.7,3.3 -0.2,5 -0.8,1.5 -1.3,3.3 -1.8,4.9 -0.7,2.2 -1.1,4.4 0.5,5.7 1.5,1.2 4.3,0.2 5.7,-0.6 4.6,-3 10,-3.7 14.8,-4 8.3,-0.6 16.8,-1.3 25.1,0.9 4.3,1.1 9,0.3 13.5,1.1 8.4,1.4 16.9,2.4 25.4,3.6 11.1,1.6 21.2,6.3 32,8.9 17.6,4.3 35.3,7.9 53.6,6.4 14.2,-1.2 26.8,3.6 38.3,11.4 2.4,1.7 4.2,1.2 5.8,-0.3 1.8,-1.7 4.2,-3 3.4,-6.6 -1.9,-8.4 -8.3,-12.1 -15,-15.7 -7.5,-4 -15.2,-7.6 -22.3,-12.2 -8.7,-5.7 -16.8,-12.5 -19.5,-23.2 -2.2,-8.7 -1,-17 5.6,-23.8 2,-2.1 4.4,-3.7 1.7,-7 -0.8,-1 -0.6,-2.9 0.8,-4.2 1.3,-1.2 2.2,-0.5 3.5,-0.1 2,0.3 4.2,0.9 5.8,3 z"
   class="st1" />
		<path
   id="path9884"
   d="m 52.5,131 c -3.5,2.2 -4.7,-1.1 -7.7,-3.1 3.9,0 6.4,-1.3 9.1,-2.3 3.5,-1.2 7.3,-2.2 10.9,-2.4 10.5,-0.6 20.8,0.5 31.2,2.1 5.7,0.9 11.5,1 17.2,1.7 10.7,1.2 21.3,3 31.6,6.4 13.5,4.5 27.4,8 41.5,10.2 11,1.6 22.1,0.2 33.1,0.8 10.2,0.6 19.8,3.3 28.6,8.9 3.9,2.5 8.1,5.6 13.4,2.3 4.2,-2.6 5.2,-6.4 3.7,-11 -2.9,-9.2 -10.2,-13.5 -17.9,-17.6 -7.4,-3.9 -15.3,-6.9 -22.1,-11.7 -9.5,-6.8 -17.8,-15 -17.2,-28.2 0.2,-4.7 1.2,-9.2 5,-12.8 3.5,-3.4 6.6,-7.2 1.7,-12.3 2.9,1.1 6.9,0.6 7,4 0.1,2.3 -2.4,4.7 -3.9,7.4 4.3,-1.4 9.2,-9.2 11.6,-17.8 2,1.6 2.4,3.2 1,5.4 -1.3,2.1 -2.7,4.3 -4,6.5 -1.2,2.1 -2.6,4 -3.9,6.1 5.3,-2.5 7.3,-7.7 10.1,-12.3 2.3,3.4 1.7,3.8 -2.3,7.8 -5.2,5.2 -10.9,10 -15.5,15.8 -2.4,3.1 -0.7,6.5 -1.9,9.6 -0.1,0.1 0.8,0.9 1,0.8 0.5,-0.3 1.2,-0.8 1,-1.5 -1.7,-6.1 2.4,-9.6 6.1,-13.3 4.6,-4.6 9.2,-9.2 14.3,-14.3 0.1,4.2 -1.3,7.2 -3.5,9.8 -2.6,3 -5.6,5.6 -9.1,7.7 -2.1,1.3 -4,3.3 -2.9,6.9 1.2,-2 1.6,-3.9 3.6,-5 -0.1,3.3 4,4 4.1,7.8 -2,-1.1 -3.1,-3.8 -5.7,-2.6 -2,0.9 -4,2.3 -4.3,4.1 -0.7,3.9 -0.3,7.9 2.7,11.2 4.9,5.3 11.5,7.8 17.7,10.9 10.2,5 20.3,10.3 27.8,19.1 4.4,5.3 6.3,11.8 4.1,18.9 -1.6,5 -8.5,8.1 -13.5,6.2 -1.6,-0.6 -3.2,-1.5 -4.9,-1.9 -1.8,-0.4 -1.9,-3 -3.8,-3.1 -0.8,1.5 0.3,1.8 0.8,2.5 6,7.7 4.7,16.4 3.1,25 -1.1,5.8 -3.3,11.3 -5,17 -2.8,9.5 0.9,17.6 6.8,24.9 1.8,2.2 5.1,3.5 3.8,7.5 -1.9,-1.3 -3.1,-3.6 -5.7,-3.7 0.5,2.1 2.7,2.4 3.5,3.9 1.1,2.1 1.8,4.3 1.7,6.9 -0.4,6.7 0.6,13.5 -1.2,20.3 -0.6,-0.9 -1.1,-1.8 -1.7,-2.7 -1.1,7.8 -6.2,13.3 -12.2,12.9 2.7,-2.7 5,-5.3 5.5,-9.1 -4.8,2.7 -6,10 -13.5,9.2 3.1,-2.1 5.3,-4.6 7.6,-6.9 2.7,-2.7 4.8,-5.4 5.4,-9.7 2.4,-16.1 -0.8,-25.7 -14.4,-35.2 -6.2,-4.4 -10.6,-10 -15.7,-15.2 -5.8,-5.9 -8.4,-13.4 -11.7,-20.6 -0.7,-1.5 -1.2,-3 -0.7,-4.5 1.9,-5.9 -3.3,-9.7 -4.1,-14.8 -2.8,1 -2.7,-3.1 -5.7,-2.9 2.1,3 -0.5,6.2 1.4,9.2 0.6,-0.9 1.1,-1.8 2.1,-3.5 -0.5,3.4 1.2,5.5 0.7,8.3 1,-0.6 1.6,-1 2.2,-1.4 0.9,1.2 -2.8,4.1 1.5,4.1 -1,5.4 1.5,12.8 7.2,21.3 -1.6,0.4 -2.6,0.2 -3.8,-1.3 -1.7,-2.2 -4.1,-3.9 -6.1,-5.9 -3.6,-3.5 -7.6,-2.1 -11.4,-0.9 -1.5,0.4 -2.3,0.1 -3.5,-0.3 -0.7,-0.2 -1.5,-1.6 -2.3,-0.3 -0.5,0.8 0.3,1.6 0.8,2.4 2.7,4.2 6.6,6.1 11.7,6.4 -8.7,0.6 -16.6,3.8 -25.2,7.1 1.1,-2.9 3.7,-2.4 4.6,-4.3 -4.1,-1.8 -8.3,-1.6 -12.3,-0.6 -7.1,1.7 -14,4 -21,6 -3.6,1 -5.7,-1.6 -8.3,-3.2 -1,-0.6 -1.6,-2.2 -3.3,-1.6 0.6,2.6 3.7,2.8 4.9,4.8 -4.6,0.8 -10.9,-5.2 -10.6,-10.2 1.4,2.4 6.1,4.3 8.9,3.8 3,-0.5 6.1,-0.7 9.2,-1 1.5,-0.1 3.1,0.1 4.3,-1.5 -3,0 -5.8,-0.6 -8.5,-1.7 -0.7,-0.3 -1.1,-0.5 -2,0.1 -4.2,2.8 -7.1,2 -10.7,-2.7 3.7,-1 7.4,-0.1 11,-0.8 0.8,-0.2 2.2,0.1 2.3,-0.8 0.1,-0.7 -1.3,-2.2 -2.1,-1.9 -2.4,1 -5.1,-0.7 -7.4,1.2 -1.3,1 -3.2,-0.2 -3.6,-1.1 -1.4,-2.8 -2.6,-1.6 -4.1,-0.1 -1,-1.7 -0.7,-4.1 -4.2,-5.2 2.7,4.3 2.3,8.6 3.6,12.6 -0.8,-2.4 -3.5,-1.7 -4.8,-3.2 -0.5,-0.6 -0.6,0.3 -0.6,0.5 0,0.5 0.1,1.1 0.4,1.4 3.9,4.4 3.8,4.3 0.8,9.6 -0.6,1.1 -3.7,3.6 1.1,4 3.6,0.3 -0.4,3.9 1.6,5.3 -3.7,3.8 0.2,7.3 0.8,11.1 -0.3,-6.8 3.1,-13.2 1.3,-20.3 -0.9,0.8 -1.7,1.5 -2.7,2.4 -0.3,-2.5 1.8,-3.5 2.4,-5.2 0.2,0.1 0.4,0.2 0.5,0.3 4,5.3 2.1,11 0.9,16.6 -0.5,2.4 0.1,4.8 -0.5,7.3 -0.6,3 -1.6,5.1 -4,7.2 -3,2.5 -2,7 -3.8,10.6 5.9,-1.1 2.6,-7.2 6.2,-9.2 0.8,4.8 0.8,4.8 -1.7,8.7 -0.3,0.5 -0.9,1.2 -0.8,1.7 0.3,1.1 -1.6,2.4 -0.1,3 1.9,0.8 1,-1.7 2.2,-2.6 0.4,5.9 -1,11.4 -1.5,16.9 -0.1,1.2 -0.9,1.3 -1.6,1 -2.1,-0.7 0.8,-1.9 -0.3,-2.9 -3.3,1.9 -4.3,6.4 -8.2,7.7 3.6,4.5 3.1,5.2 -4.7,7.8 -0.2,-3.2 3.8,-5 2.8,-8.3 -3.8,1.5 -4.9,7 -10.9,6.7 3.4,-2.9 5.8,-5.6 8.8,-7.3 3.1,-1.8 4.5,-4.3 5.1,-7.6 0.9,-4.5 2,-8.9 2.6,-13.4 0.4,-2.5 0.2,-5.1 -0.7,-7.6 -2.3,-7.1 -1.8,-14.7 -3.2,-21.9 -0.2,-1 -0.4,-2 -0.6,-3 -0.4,-2.1 -1.5,-4.6 2.9,-6.4 -6,-0.2 -7.4,-3.5 -8.5,-7.1 -0.1,-0.4 -0.2,-0.8 0,-1.2 1.1,-2.9 1.1,-2.9 -0.6,-5.9 -0.2,0.2 -0.6,0.3 -0.6,0.5 0,1.5 1.3,4.1 -0.7,4.2 -2.2,0.2 -2.2,-2.6 -2.1,-4.5 0,-0.5 0.1,-1.1 -0.6,-1.3 -2.4,3.6 -2.1,4 -0.1,7.6 1.3,2.3 3.8,3.7 4.6,6.4 0.2,0.7 2.6,0.9 1.1,2.3 -1.1,1 -2.9,1.8 -4,-0.2 -1.4,-2.7 -5.1,-4.2 -4.4,-8.1 -0.7,4.1 -0.7,4.1 4.1,9.9 -4.3,0.7 -5.6,-1.7 -6.1,-5.2 -0.4,-2.9 -1.2,-5.5 -4.4,-6.6 -0.6,-0.2 -1,-0.8 -1,-1.5 0,-2.2 -0.4,-3.9 -2.1,-5.7 -1.6,-1.7 -0.2,-4.9 0.1,-6.8 0.6,-3.4 -1.3,-5 -2.7,-8.4 -0.2,8 -0.2,14.8 2.3,21.3 0.2,0.6 0.4,1.3 0.8,1.7 0.9,0.7 2.4,1.3 1.2,2.5 -1.2,1.2 -2.7,-0.1 -3.5,-1 -4.7,-4.9 -5.3,-12.1 -3,-18.6 0.4,-1.2 0.5,-2.2 0.5,-3.9 -1.4,1.9 -2.5,3.4 -3.5,4.9 -2,-4.5 -9.2,-6 -7.5,-12.7 -4.2,0.8 -5.8,4 -3.9,8 -1,0.6 -1.1,-0.2 -1.6,-0.8 -0.8,-1 -1.8,-3.8 -3.3,0 -1,2.6 -6.9,1.3 -8.4,-1.9 -0.6,-1.3 -1.3,-3 -2.6,-2.3 -1.5,0.8 0.3,2.2 0.5,3.4 0.1,0.5 0.5,0.9 0.8,1.4 -2.3,1.3 -3.7,-0.1 -5.4,-1.1 0.1,-1.5 2.1,-1.9 2.1,-3.4 -3.5,-1.6 -6.2,-1.5 -6.4,3.3 -2.1,-1.9 -1.6,-5.2 -4.5,-6.9 0.9,2.1 -0.2,4.1 1.3,5.8 0.5,0.5 0.6,1.9 -0.2,2 -2.2,0.1 -3.9,2.7 -6.1,1.6 -2.7,-1.3 -5.4,-2.9 -7.8,-4.7 -1.1,-0.8 -1,-2.7 0,-3.8 5.4,-5.9 7.5,-13.4 9.4,-20.8 0.8,-3.1 2,-5.1 4.6,-7 1.2,-0.9 3.5,-2.5 2.3,-5.4 -2.4,2 -4.8,3.7 -6.5,6.8 -0.3,-5 2.4,-8.5 3.4,-13.3 3.3,7 8.9,9.9 15.8,9.7 2.6,0 5.2,0 7.8,0.1 2.4,0.1 4.7,0.2 6.9,-1.5 3.1,-2.4 6.8,-2.7 10.6,-2.4 3.8,0.3 4.7,2 2.5,5 -4.7,6.4 -7.1,6.9 -13.5,3.8 -2.1,-1 -3.8,-1.2 -5.5,0.4 -1.1,1 -2,1.5 -3.3,0.3 -0.6,-0.5 -0.8,-1.8 -2,-1.2 -1.5,0.6 0.8,1.8 -0.4,2.5 -1.8,-0.5 -0.8,-2.4 -1.6,-3.6 -1.5,4.5 -0.7,5.3 3.8,4.7 2.2,-0.3 4.5,-0.6 6.7,-0.4 0.9,0.1 2.8,-0.1 2.9,1.3 0,1 -1.1,2.2 -2,2.9 -1.4,1 -2.8,1.8 -2,4.2 3,-1.9 5.1,-4.4 7.1,-7.4 1.2,3 -1.9,3.5 -2.5,5.5 4.6,0.9 7.2,-5.7 12.3,-3.7 0.2,-0.5 0.5,-1.7 -0.3,-2.4 -1.4,-1.2 -0.6,-1.8 0.2,-2.7 2.2,-2.2 5,-4.7 3.8,-7.8 -1.3,-3.5 -5.3,-3.1 -8.5,-2.9 -2.3,0.1 -4.8,-1.9 -7.1,0.6 -1,1.1 -2.1,-0.6 -2.8,-1.7 -0.3,-0.5 -0.8,-0.8 -1.3,-0.4 -0.2,0.2 -0.3,0.7 -0.3,1 0.3,2.1 0.3,2.1 -3.5,2.7 2.2,-3.3 1.9,-6.2 -1.3,-9.2 4.4,-0.4 6.8,2.2 9.3,3.8 1.1,0.8 1.4,0.6 2,0 0.8,-0.8 0.3,-1.6 -0.3,-1.9 -2.5,-1.2 -4.7,-3 -7.2,-4.2 -1.7,-0.9 -4.2,-0.4 -5.3,1.9 -0.8,1.5 -1.7,2 -3.2,1 -1.1,-0.3 -2,-0.5 -2.1,0.6 z"
   class="st0" />
		<path
   id="path9886"
   d="m 86.7,209.2 c -4.1,1.5 -7.9,-1.6 -11.8,-9 -2.2,2 -2.1,1.9 0.3,5.9 1.3,2.1 3.9,2.8 4.4,5.8 -4.3,0.1 -7.2,-3.3 -11,-4.9 0.5,3 4,3 5,5.7 -4.5,-0.8 -9.6,2.3 -12.4,-3.9 -0.8,1.5 -0.1,1.8 0.2,2.2 0.3,0.4 0.7,0.8 0.9,1 0.2,0.6 0.1,0.7 -0.3,0.7 -3.9,0.5 -5.5,4.5 -3.8,9.3 0.6,1.6 1.2,3.3 2.1,4.8 1.4,2.3 1.9,4 -1.2,5.6 -1.8,0.9 -0.2,6.3 2.2,7.5 1.1,0.6 3.4,1.1 3.4,1.3 -0.9,3.7 4.6,5.7 2.3,9.6 -1.2,-2.3 -4.4,-3.4 -4.4,-6.7 0,-1 -1,-1 -1.3,-0.5 -0.7,1.1 -2.6,2.2 -1.1,3.8 1.8,1.9 1,3.8 0.3,6 -1.8,-4.6 -3.7,-9.2 -5.7,-13.7 -2.4,-5.5 -3.9,-11.3 -3.2,-17.5 0.3,-2.6 -1.3,-4.9 -1.7,-7.4 -0.7,-3.8 0.4,-5.7 3.8,-7.2 4.6,-2 8.9,-4.6 12.9,-7.6 1.1,-0.9 2.7,-2.1 4.1,-0.1 0.5,0.6 1,1.2 1.8,0.2 0.5,-0.7 1.5,-1.1 0.3,-2 -0.7,-0.5 -0.6,-0.9 0,-1.5 0.6,-0.5 0.9,0 1.2,0.3 2.1,2.1 4.4,3.9 6.2,6.3 1.9,2.3 2.2,5.9 6.5,6 z"
   class="st0" />
		<path
   id="path9888"
   d="m 204.3,257.9 c 2.8,-0.7 2.9,2.8 5.1,2.9 -1.6,0.8 -3,3.2 -4.9,-0.1 -1,-1.6 -3.1,-1.6 -3.8,1.1 -0.4,1.3 -1,2.6 -1.3,3.9 -0.7,3.7 -3.9,3.9 -6.6,4.9 -0.9,0.3 -1.5,-0.4 -1.9,-1 -0.6,-0.9 0.4,-1.4 0.8,-1.9 2.1,-2.5 5.3,-4.1 5.7,-8 -3.9,3.3 -7.2,7.5 -12.7,8.4 3.7,-3.4 6.2,-8 11.2,-10.2 2.1,-0.9 3,-3.2 4.4,-4.9 5.4,-6.5 9,-13.6 8.5,-22.4 -0.2,-2.7 0,-5.5 0.3,-8.5 1.3,4.6 5.5,7.1 7.3,11.4 1.2,-4.5 -3.3,-6.3 -4.9,-10.5 1.6,1.3 2.4,2 4.1,3.4 -1.6,-4.8 -6,-6.4 -6.9,-10.6 2.3,0.9 3.9,2.5 5.9,3.7 -1.1,-5.2 -10.3,-5.6 -7.1,-12.9 4.2,1.1 6.6,4.9 9.9,7.7 0.7,0.6 1.5,1.2 2.5,1.6 3.6,1.7 8.2,1.4 10.7,5.3 -3.5,0.9 -9.1,-1.6 -12,-3.7 -3.4,-2.5 -6,-6.2 -10.9,-7.9 1.4,2.7 3.5,3.7 5.2,4.8 4.4,3 2.8,7.6 3.5,11.5 0.1,0.4 -0.7,1.1 -0.6,1.3 5.2,6.5 -1.4,11.8 -1.9,17.7 -0.3,3.7 -1.4,7.4 -2.9,10.9 -0.7,1.8 -1.2,3 -3.1,1 -1.2,-1.2 -2.3,0.4 -3.6,1.1 z"
   class="st0" />
		<path
   id="path9890"
   d="m 45.2,111.4 c -0.9,2.5 -1.2,4.2 -2,5.5 -3.1,4.5 -1,8.9 0.4,13.1 1,2.9 5.8,4.2 9.6,3 2.6,-0.8 5.5,-1.2 6.2,1.5 0.4,1.4 -1.6,4.1 -4.2,5.1 -5.3,2 -9.5,-0.3 -13.2,-3.5 -3.9,-3.2 -4.8,-7.7 -4.1,-12.5 0.6,-4.5 2.5,-8.5 7.3,-12.2 z"
   class="st0" />
		<path
   id="path9892"
   d="m 30.9,110.1 c -1.6,6 -1.8,11 1.1,15.6 0.3,0.5 0.5,1.4 0.9,1.6 4.5,1.9 1.4,4.3 0.8,6.7 -10.2,-7.1 -9.5,-15.9 -2.8,-23.9 z"
   class="st0" />
		<path
   id="path9894"
   d="m 52.5,131 c -0.4,-0.1 -1.3,0.2 -1.2,-0.5 0,-0.6 0.5,-1.6 1,-1.8 1,-0.4 1.5,0.6 1.9,1.4 -0.4,0.7 -1,0.8 -1.7,0.9 z"
   class="st1" />
		<path
   id="path9896"
   d="m 38,156.4 c 2.1,1.6 4.6,2 6.9,2.9 1.9,0.8 5,0.2 5,3.7 -1.2,0.5 -2.3,0 -3.5,-0.6 -2.8,-1.2 -5.3,-2.8 -8.4,-3.5 -2.7,-0.7 -3.8,-3.9 -3.3,-6.2 0.6,-2.8 0.9,-6.6 5,-7.7 0.8,3.3 -4,4.3 -2.6,7.7 1.5,-1.7 2.5,-4.2 5.5,-3.7 2.5,0.4 4,1.9 5.3,4.6 1.2,-2.2 0.4,-3.5 -0.8,-4.5 -0.6,-0.5 -1.9,-0.5 -1,-1.8 1.1,-1.6 2.9,0.2 2.9,0.3 0.5,1.8 1.8,3.6 1.1,5.5 -0.7,1.7 -2.2,2 -4.1,2.3 -2.6,0.4 -5.3,0.8 -8,1 z"
   class="st1" />
		<path
   id="path9898"
   d="m 86.8,127.9 c 2.3,-0.7 5,1.2 7.2,-0.8 0.1,-0.1 1,0.3 1.2,0.7 0.8,1.1 -0.5,0.7 -0.8,1 -1.3,1.3 -1.8,3.3 -0.2,4 3.9,1.7 2.7,5.6 2.8,7.9 0.1,3.8 -0.4,7.8 -0.4,11.8 0,1.2 -0.6,2 -1.8,2.1 -2.6,0.1 0.2,-1.3 -0.5,-2 -1.6,-1.5 0.1,-3.4 -0.2,-4.7 -0.3,-1.7 -0.6,-3.4 -0.4,-5.1 0.5,-4.8 -3.3,-8.2 -4,-12.5 -0.5,-2.6 -3.3,0.3 -2.9,-2.4 z"
   class="st1" />
		<path
   id="path9900"
   d="m 93.2,162.2 c -0.7,5.3 -2.9,10.2 -2,15 0.9,4.8 -0.5,9.9 2.5,14.4 1.4,2.2 0.3,5.3 0.4,8.2 -5.9,-8.3 -6.7,-33.4 -0.9,-37.6 z"
   class="st1" />
		<path
   id="path9902"
   d="m 80.1,161 c -0.6,5.2 -5.4,7.5 -7.1,11.7 -2.7,-2.1 -2.3,-4 -0.2,-6.3 -3,0.1 -4.9,1.6 -7.4,2.4 0.6,-2 2.7,-2 3.5,-3.2 0.5,-0.7 2.8,0.1 1.3,-2.5 -0.9,-1.5 2,-1.1 2.5,-0.6 1.5,1.2 2.2,0.8 2.6,-0.7 0.3,-1 1,-1.5 1.7,-2.1 0.4,-0.4 0.7,-1.6 1.7,-0.6 0.9,1 -0.1,1.4 -0.6,1.6 -0.9,0.3 -1.6,0.7 -1.8,1.7 -0.1,0.4 0,0.8 0.2,2 0.6,-2.4 1.9,-3 3.6,-3.4 z"
   class="st1" />
		<path
   id="path9904"
   d="m 249.2,179.4 c -1,-10.8 -4.3,-20.3 -13.1,-27.3 2.3,-1.7 5.5,1.3 6,2.1 4.5,7.4 9.5,14.9 8,24.3 0,0.3 -0.5,0.5 -0.9,0.9 z"
   class="st1" />
		<path
   id="path9906"
   d="m 70.1,145.1 c -1.1,0 -2.7,0.3 -3,-1 -0.3,-1.2 1,-2 2.1,-2.7 2.1,-1.2 4.2,-2.1 6.8,-1.9 1.8,0.1 2.6,1.1 2.9,2.5 0.3,1.6 -1.2,1.3 -2.2,1.6 -2.2,0.7 -4.3,1.6 -6.6,1.5 z"
   class="st1" />
		<path
   id="path9908"
   d="m 181,194.3 c -1.4,-0.6 -2.8,-1.3 -4.9,-2.2 1.8,3.1 5.3,2.8 6.6,5.3 -5.6,-0.3 -8.3,-4.1 -10.5,-8.4 -0.2,-0.5 -0.6,-0.9 -0.1,-1.3 0.3,-0.2 0.9,-0.4 1.1,-0.2 2.8,2 5.6,4.1 8.3,6.1 -0.1,0.3 -0.3,0.5 -0.5,0.7 z"
   class="st1" />
		<path
   id="path9910"
   d="m 158.2,186.8 c 5.2,-0.9 6.3,4.4 10.3,6.6 -6.4,1.3 -7.9,-3.4 -10.3,-6.6 z"
   class="st1" />
		<path
   id="path9912"
   d="m 105.3,197.7 c 3.4,2.2 5.4,0.7 7.3,-2.4 0.4,2.3 1.1,4.2 -0.4,4.9 -2.1,1 -4.4,2.7 -6.7,1.8 -2.2,-0.8 0.9,-2.7 -0.2,-4.3 z"
   class="st1" />
		<path
   id="path9914"
   d="m 166.7,187.7 c 3.8,1.4 6,4.6 7.9,8 -3.2,0.5 -7.7,-4.1 -7.9,-8 z"
   class="st1" />
		<path
   id="path9916"
   d="m 65.1,170.7 c -0.2,1 -0.8,1.4 -1.4,1.8 -2.4,1.7 -5,3.4 -7.1,5.5 -1.1,1.1 -1.4,0.7 -2,0 -1,-1 -0.2,-1.8 0.6,-2.1 2.9,-1.4 5.7,-2.8 7.7,-5.4 0.2,-0.3 0.9,-0.3 1.4,-0.3 0.3,0.1 0.6,0.4 0.8,0.5 z"
   class="st1" />
		<path
   id="path9918"
   d="m 75.7,173.3 c -1,2 -2,3.5 0.4,4.7 0.9,0.4 0.7,1.9 0,2.6 -1,0.9 -1.3,-0.5 -1.8,-0.9 -0.5,-0.3 -0.6,-1.1 -1,-1.5 -1.1,-0.9 -2.5,-1.8 -2,-3.3 0.6,-1.8 2.5,-1.1 4.4,-1.6 z"
   class="st1" />
		<path
   id="path9920"
   d="m 76.9,125.4 c 2.7,2 5,3.6 7.2,5.3 0.3,0.3 0.6,0.9 0.6,1.3 -0.1,0.6 -1,0.7 -1.2,0.5 -2.1,-2.3 -6.4,-2.5 -6.6,-7.1 z"
   class="st1" />
		<path
   id="path9922"
   d="m 245.5,190.8 c 0.5,4.6 -1.2,7.2 -4.1,9.2 0.4,-3.3 2.8,-5.6 4.1,-9.2 z"
   class="st1" />
		<path
   id="path9924"
   d="m 61.8,165.9 c 2.4,-0.7 2.4,-3.1 3.8,-4.4 0.7,-0.7 1.6,-1.1 2.4,-0.4 0.8,0.7 -0.2,1.2 -0.6,1.8 -1.3,1.8 -2.1,4.3 -5.6,3 z"
   class="st1" />
		<path
   id="path9926"
   d="m 76,156.4 c -0.7,1.3 -2.7,1.4 -2.3,3.2 -0.9,0.1 -0.1,2 -1.5,1.5 -0.8,-0.3 -1.8,-0.5 -2.1,-1.5 -0.6,-1.5 1.1,-1.4 1.5,-1.6 1.5,-0.3 2.2,-2.7 4.4,-1.6 z"
   class="st1" />
		<path
   id="path9928"
   d="m 30.6,174.1 c 0,1.5 -0.6,2.3 -2,2.4 -0.7,0 -1.5,-0.7 -1,-1 1.3,-0.9 -0.2,-2.9 1.4,-3.2 0.9,-0.1 2,0.5 1.6,1.8 z"
   class="st1" />
		<path
   id="path9930"
   d="m 159.3,191.2 c -2.8,0.6 -3.8,-1.3 -4.5,-3 -0.5,-1.1 1.9,-0.9 3,0.6 0.3,0.4 0.5,0.9 0.7,1.3 0.2,0.3 0.4,0.6 0.8,1.1 z"
   class="st1" />
		<path
   id="path9932"
   d="m 79.8,173.4 c -0.7,-0.8 -0.4,-1.2 -0.1,-1.6 0.8,-1.2 -0.3,-3.3 1.8,-3.8 0.2,-0.1 0.6,0.3 0.9,0.5 -1.4,1.3 0.2,4.2 -2.6,4.9 z"
   class="st1" />
		<path
   id="path9934"
   d="m 109.4,210.4 c 1.1,-1.9 1.5,-3.3 3.3,-3.1 0.4,0 1.1,0.9 1,1 -0.9,1.1 -2.1,1.6 -4.3,2.1 z"
   class="st1" />
		<path
   id="path9936"
   d="m 57.5,169.8 c 0.8,-1.8 2.8,-0.9 4.1,-2.5 -0.9,3 -0.9,3 -4.1,2.5 z"
   class="st1" />
		<path
   id="path9938"
   d="m 149.6,191.3 c 1.3,-0.9 1.5,-2.4 2.8,-1.7 0.3,0.2 0.7,1 0.6,1.2 -0.8,1.1 -1.9,0.4 -3.4,0.5 z"
   class="st1" />
		<path
   id="path9940"
   d="m 142,191.6 c -0.6,0.8 -0.9,1.9 -2.1,1.1 -0.3,-0.2 -1,-0.9 -0.6,-1 0.8,-0.4 1.7,-0.1 2.7,-0.1 z"
   class="st1" />
		<path
   id="path9942"
   d="m 79.2,167.6 c -1,0.5 -0.4,1.9 -1.6,1.7 -0.2,0 -0.6,-0.5 -0.6,-0.7 0.2,-0.8 0.6,-1.4 1.5,-1.5 0.2,0 0.5,0.3 0.7,0.5 z"
   class="st1" />
		<path
   id="path9944"
   d="m 57,126.7 c -1.1,0.4 -2.2,0.7 -3.4,1.1 0.6,-2.1 2,-1.4 3.4,-1.1 z"
   class="st1" />
		<path
   id="path9946"
   d="m 144.4,190.8 c 1.5,-0.3 2.1,0.7 3.1,1 -1.4,0.8 -2.2,0.2 -3.1,-1 z"
   class="st1" />
		<path
   id="path9948"
   d="m 85.4,158.4 c -0.8,0 -1.5,0 -1.4,-0.9 0,-0.2 0.5,-0.6 0.7,-0.6 0.7,0 1.1,0.5 1.3,1.1 0.1,0.1 -0.4,0.3 -0.6,0.4 z"
   class="st1" />
		<path
   id="path9950"
   d="m 68.1,200 c 1.4,3 4.5,4.8 5.8,8.1 -3.1,-1.3 -4.8,-3.5 -5.8,-8.1 z"
   class="st1" />
		<path
   id="path9952"
   d="m 210.4,228.5 c 3.8,3.2 5.6,6.3 3.4,10.6 -1.9,-1.6 -0.9,-3.3 -0.5,-5.1 0.4,-2 -2.9,-2.4 -2.9,-5.5 z"
   class="st1" />
		<path
   id="path9954"
   d="m 43.8,151.6 c -1.1,1.9 -2.4,2.6 -4.3,1.9 0.8,-1.9 2.2,-2.6 4.3,-1.9 z"
   class="st0" />
	</g>
</g>
</svg>
