<?xml version="1.0" encoding="UTF-8" standalone="no"?>
<svg
   xmlns:dc="http://purl.org/dc/elements/1.1/"
   xmlns:cc="http://creativecommons.org/ns#"
   xmlns:rdf="http://www.w3.org/1999/02/22-rdf-syntax-ns#"
   xmlns:svg="http://www.w3.org/2000/svg"
   xmlns="http://www.w3.org/2000/svg"
   xmlns:sodipodi="http://sodipodi.sourceforge.net/DTD/sodipodi-0.dtd"
   xmlns:inkscape="http://www.inkscape.org/namespaces/inkscape"
   inkscape:version="1.0 (4035a4f, 2020-05-01)"
   height="238.45407"
   width="197.87502"
   sodipodi:docname="cock.svg"
   xml:space="preserve"
   viewBox="0 0 197.87502 238.45407"
   y="0px"
   x="0px"
   id="Layer_1"
   version="1.1"><metadata
   id="metadata12253"><rdf:RDF><cc:Work
       rdf:about=""><dc:format>image/svg+xml</dc:format><dc:type
         rdf:resource="http://purl.org/dc/dcmitype/StillImage" /><dc:title></dc:title></cc:Work></rdf:RDF></metadata><defs
   id="defs12251" /><sodipodi:namedview
   inkscape:current-layer="Layer_1"
   inkscape:window-maximized="0"
   inkscape:window-y="25"
   inkscape:window-x="0"
   inkscape:cy="133.93504"
   inkscape:cx="87.620919"
   inkscape:zoom="2.52"
   fit-margin-bottom="0"
   fit-margin-right="0"
   fit-margin-left="0"
   fit-margin-top="0"
   showgrid="false"
   id="namedview12249"
   inkscape:window-height="480"
   inkscape:window-width="820"
   inkscape:pageshadow="2"
   inkscape:pageopacity="0"
   guidetolerance="10"
   gridtolerance="10"
   objecttolerance="10"
   borderopacity="1"
   bordercolor="#666666"
   pagecolor="#ffffff" />
<style
   id="style12130"
   type="text/css">
  .st0{fill:#FFFFFF;}
  .st1{fill:#000000;}
</style>
<g
   transform="translate(-62.379081,-66.06496)"
   id="g12246">
	<g
   id="g12244">
		<path
   id="path12132"
   d="m 147.3,267.3 c -2.7,-1.3 -4.5,-2.9 -7.7,0.8 -2.3,2.6 -8.2,1.4 -12.4,0.4 -4.4,-1.1 -7.8,-0.5 -11.2,2.8 -3,3 -6.6,5.2 -9.3,8.8 -1.9,2.6 -6.1,3.7 -8,7.3 -0.8,1.5 -1.7,0 -1.8,-1.3 -0.3,-5.2 -0.7,-10.4 6.1,-12.8 -7,0.8 -13.9,0.4 -18.5,6.5 -0.5,0.7 -1.2,1.5 -2,1.1 -1.1,-0.5 -1.6,-1.5 -1.6,-2.8 -0.1,-3 6,-9.7 9.4,-10.1 1.1,-0.1 2.3,0.6 3.4,-1 -3,0 -5.8,0 -8.7,0 2.1,-4.8 8.5,-7.5 13,-5.3 5.1,2.4 10.4,1.1 15.6,1.2 2.5,0 4.2,-2.7 5.4,-4.7 4.3,-7 8.3,-14.1 11.2,-21.8 0.7,-2 0.6,-3.1 -0.8,-4.3 -5.3,-4.8 -8.7,-10.9 -11.6,-17.2 -1,-2.1 -2.5,-3.1 -4.7,-4.3 -13.8,-7.7 -24,-18.9 -30.3,-33.5 -1.9,-4.4 -3.4,-9 -5.1,-13.5 -3.9,-10.5 -2.2,-20.9 0.3,-31.3 0.7,-2.8 0.8,-5.8 1.8,-8.5 1.6,-4.5 3.8,-8.3 -4.3,-8 -4.3,0.1 -5.4,-7.6 -2,-12 1.2,-1.5 2.7,-2.5 3.4,-4.7 1.7,-6 1.3,-6.8 -4.9,-7 -1.5,0 -2.8,-0.4 -4.2,-0.9 -1.9,-0.8 -5.2,-0.6 -5.4,-2.3 -0.3,-2.1 2.7,-3.4 4.3,-5 0.9,-0.9 2.2,-1.2 3.4,-1.8 3.5,-1.6 7.4,-2.2 7.5,-7.9 0,-3 3.1,-5.7 7.2,-5.1 2.2,0.3 4.3,0 5.7,-2.1 0.3,-0.4 0.8,-0.9 1.2,-0.8 5.7,1 11.6,-1.4 17.1,0.9 1.6,0.7 3.1,1 4.7,1 1.7,-0.1 3.8,-0.3 4.2,1.7 0.4,2 1,4.3 -1,6 -2.8,2.4 -4.9,6 -8.7,7.2 -2.6,0.8 -1.7,2.5 -1,3.6 8.9,13.9 13.7,29.7 20.8,44.4 3.5,7.1 8.8,12.9 15.4,16.7 9.9,5.7 18.9,12.8 28.9,19.6 -3.1,-10.6 -2.5,-20.8 -2.2,-31 0.4,-18.6 8.6,-33.1 23.5,-44.3 13.7,-10.2 29,-12 44.9,-8.8 8.2,1.7 12.9,8.7 16,15.9 3.4,7.8 5.3,16 4.6,24.7 -0.4,4.7 -1.5,9.3 0.7,14.2 1.2,2.7 0.6,6.7 -0.6,10.1 -1.6,4.4 -0.8,8.7 0.2,13.6 2.1,9.8 1.3,20.3 -6.9,28.1 -2.1,2 -2.2,3.7 -1.5,6.3 1.7,6.6 1.7,13.3 0,19.9 -1.4,5.2 -4.9,8.8 -10,10.3 -2.5,0.7 -3.5,2.4 -3.7,4.2 -0.8,5.6 -3.7,10.3 -6.3,15.1 -2.1,3.9 -4.8,4.5 -8.1,1.7 -1.4,-1.2 -2.2,-1.5 -3.7,-0.2 -1.6,1.5 -4.3,1.7 -5.3,0.1 -2.3,-3.7 -7.3,-3.9 -9.4,-8 -0.4,2.6 -1.4,4.8 -2.6,6.9 -0.6,0.9 -1.1,3.4 -2.9,0.9 -0.2,-0.2 -0.4,-0.4 -0.6,-0.7 -0.1,0.5 -0.3,0.9 -0.4,1.4 -1.5,5.4 -6.1,7.2 -10.6,9.1 -2.1,0.9 -2.4,-0.5 -2.5,-2.3 -0.1,-3.2 0.8,-6.6 -0.9,-9.7 -0.3,-0.5 -0.2,-1.5 -0.6,-1.8 -5.5,-3.7 -9,-9 -12,-16.1 -0.8,4.9 -1.1,8.2 2.6,10.5 -2.6,2.1 -6.6,3.3 -3.2,7.7 0.6,0.7 0.1,1.8 -1.4,1.9 -3.3,0.4 -5,2.8 -5.8,5.7 -1.6,5.8 -5.4,10.5 -7,16.3 -1.5,5.1 0.8,4.9 4.2,4.9 2.3,0 3.9,-1.6 5.8,-2.3 5.7,-2.2 11.8,1.6 11.3,7.1 -0.1,1.2 -0.3,2.9 -1.7,2.1 -5.7,-3.2 -11.4,-1.2 -17.2,-0.9 -7.4,0.4 -14.2,7 -14,14.3 0.1,4.7 -4,6.6 -6,9.8 -1,1.6 -2.5,-0.9 -3,-2.1 -2.4,-5.4 -0.8,-10.1 2.8,-14.3 0.3,-0.4 0.6,-0.8 0.9,-1.2 0,0 -0.2,-0.2 -0.5,-0.4 -4.6,2.4 -9.6,4.3 -13.8,7.3 -2.8,2.1 -7,0.8 -9,4.3 -0.4,0.8 -1.1,-0.1 -1.6,-0.9 -0.9,-1.7 -1.5,-3.2 -0.2,-5 2.2,-2.9 5.5,-3.9 8.8,-4.8 1.1,-0.3 2.3,0 3.1,-1.3 -1.3,-1.3 -2.6,-2.3 -4.5,-0.7 -0.4,0.3 -0.8,0.6 -1.3,0.6 -3.3,0.2 -6.1,3.5 -9.7,1.9 -0.2,-0.1 -0.3,-1.5 0,-1.9 3,-3.1 5.2,-7.3 10.3,-7.7 4.7,-0.4 9.4,0.3 14.2,-0.7 6.1,-1.3 9.3,-4.9 11.5,-10.1 1.4,-4.1 3.1,-8.1 4.8,-12 3.6,-8.4 3.5,-13.3 -0.5,-22 -1.7,1.2 -2.1,3.3 -3.1,4.9 -2.2,3.4 -4.8,6.5 -9.2,7 -2.9,0.3 -3,1.7 -2.3,4.1 1.7,5.8 1.6,5.8 -4.7,6.5 -2.5,0.3 -4.2,2 -3.9,4.3 0.3,2.6 2.8,1.7 4.5,1.5 1.8,-0.2 3.4,-1.3 5.1,-1.9 5.6,-1.5 10.2,2.4 9.8,7.9 z"
   class="st1" />
		<path
   id="path12134"
   d="m 125.9,162.1 c -0.2,0.6 0.9,2.6 -1.2,1 -2.1,-1.6 -3.4,-4.3 -6.1,-5.3 -0.4,0.4 -0.8,0.8 -1.2,1.3 2.8,2.1 5.6,4.2 8.4,6.4 -0.4,0.4 -0.7,0.8 -1.1,1.2 -2.7,-1.1 -5,-2.7 -7.2,-4.5 -1.4,1 0.7,1.9 0,2.5 -0.8,0.8 -1.4,-0.2 -2,-0.7 -3.3,-2.8 -6.3,-5.7 -8.2,-9.6 0.2,4.8 3.9,7.6 7.3,11.5 -7.7,-2.7 -9.2,-9.7 -13.4,-15.4 -0.2,6.7 7,10.7 4.4,17.4 -3.4,-3.1 -6.8,-6 -8,-11.2 -1.9,5.5 3.3,7.2 4.1,11.1 -3.2,0.2 -4.2,-2.4 -5.8,-4.4 -1.7,-2.1 -0.7,-5.5 -3.4,-7.2 -1.6,1.9 1.6,3.6 0,5.7 -2.4,-2.7 -2.3,-6.5 -4.4,-9.4 2,5.4 -1.5,10.8 0.9,16.3 -2.6,-1.5 -2.6,-1.5 -3.2,-19.5 -0.7,0.6 -1.3,1.2 -1.9,1.8 -0.9,-2.7 -0.9,-2.7 -0.3,-5.6 -0.6,2.7 -0.6,2.7 0.5,5.5 -3.2,5.7 -2.2,11.1 0.7,16.5 1.1,2 2.1,4.4 4.6,3.4 2.9,-1.2 1.5,-3.8 0.6,-5.9 -0.3,-0.7 -1.4,-1.1 -0.8,-2.2 3,0.5 5.5,2.1 7.3,4.5 2.7,3.6 6.7,1.5 10,2.5 1.9,0.5 1.1,-3.2 1.7,-5.4 2.9,2.6 5.9,5.4 9.8,1.9 0.9,-0.8 1.7,-0.6 2.9,0.2 1.7,1.2 3.6,3 6,0.5 1.3,-1.4 1.8,0.6 2.5,1.2 1.4,1.4 3.2,1.7 4.4,0.5 1,-1 -0.4,-2.2 -1,-3.4 -1.6,-3.2 -5.5,-7.1 2,-8.4 1.2,-0.2 1.9,-1.7 0.4,-3.1 -1.1,-1.1 -2.7,-2 -3.2,-4.2 1.8,0.2 3.3,2 3.9,1.8 2.1,-0.6 4.6,5.1 6.4,-0.4 0.3,-0.8 1.9,0.2 2.7,0.7 8.8,5.2 17.1,11.1 24.8,17.8 13.1,11.2 22.9,25.2 32.9,39.1 1.1,1.5 1.6,3.4 2.6,5.6 -3.7,-1.4 -3.3,-6.2 -7.7,-7 4.3,7.9 11.2,13.7 11.5,23.6 -2.5,-4.3 -2.9,-8.6 -6.7,-11.2 2.5,6.1 5.1,12.2 7.9,19.1 -7.6,-6.3 -8.3,-16.1 -15,-22 2.2,6.6 7.3,11.9 7.8,19.8 -3.1,-4.8 -3.2,-10.6 -7.9,-13.8 2.9,6.2 5.3,12.5 7.4,20.4 -5.7,-5.6 -4.1,-13.7 -9.9,-17.7 4.2,6 3,14.1 8.2,19.6 -6.1,-3.6 -5.2,-11.4 -10.4,-16.8 1.1,8.7 9.5,15.5 1.9,23.7 0.4,-9.5 -1.4,-18 -9.3,-24.5 4.5,8.7 10.1,17.3 3.9,27.4 1.7,-9.2 -2.5,-16.5 -7.3,-24.2 -1.5,2.9 1.7,4.1 0.7,6.9 -3.1,-5.5 -7,-10.1 -6.5,-16.4 0.4,-5.1 -2,-9.7 -3,-14.6 3,0.3 1.1,3.8 4.1,4.4 -0.9,-4.6 -2.1,-8.7 -6.4,-10.7 -8.6,-4.1 -12.7,-12.3 -17.5,-19.6 -2.1,-3.2 -4.9,-5 -7.5,-7.4 1.1,2.8 4.2,4.3 4.3,8 -4.1,-0.6 -4,-4.9 -6.4,-6.9 -0.3,5.1 1.9,8.2 6.3,8.9 3.2,0.5 3.3,4.1 7.1,5.6 -8.3,1.6 -11.5,-5 -17.3,-7.5 1.9,4.4 6.3,5.1 9.2,9.5 -10.9,-4.6 -20.7,-8.5 -28.6,-15.8 -0.4,1 -0.8,2.8 0.6,3.5 3.6,1.8 5.6,6.3 10.4,5.8 1.6,-0.2 2.7,0.6 3.9,1.5 5.6,4.4 12,7.2 18.7,9.7 0.9,0.2 1.6,0.7 2.7,0.9 -1.1,-0.2 -1.9,-0.8 -2.8,-0.8 0.2,-2.2 -2,-1.4 -2.9,-2.4 -0.5,-0.6 -2,-0.7 -1.2,-2 0.6,-0.9 1.2,-1.1 2.5,-0.5 4.3,2 8.1,4.5 10.6,8.7 1.6,2.7 1.7,6.5 6.1,7.4 1.6,0.3 1.3,3.8 1.1,6 -0.2,2.5 -2.4,1.5 -3.4,1.4 -6.5,-1 -12.9,-2.7 -19.1,-4.9 -10.7,-3.8 -20.6,-8.9 -30.1,-14.9 -2,-1.3 -3.3,-3 -5.5,-4.7 3.5,-0.8 6.1,0.1 8.7,1.5 8.7,4.7 17.2,9.8 26.1,14 6.9,3.2 14,6.5 22.3,6.1 -1.5,-3.3 -4.2,-1.5 -6.2,-2.1 -10.7,-3 -21,-7.1 -30.1,-13.7 -1.2,-0.8 -2.6,-0.8 -1.6,-2.9 1.5,-3.2 3.5,-0.8 4.3,-0.1 7.6,5.6 16.7,8 25.2,11.7 0.4,0.2 0.9,-0.1 2.2,-0.2 -15.8,-7.5 -31.9,-13.1 -44.4,-25.2 -0.7,4.6 4.1,5.4 6.1,8.2 0.7,1 2,1.6 3.2,2.2 1,0.5 2.6,0.7 2.1,2 -0.6,1.7 -2.6,1.6 -3.9,1 -3.3,-1.6 -6.6,-3.2 -8.8,-6.3 -0.5,-0.8 -1.1,-1.8 -2.4,-1.3 -1.4,1.7 1.6,2.1 1.1,3.8 -3.1,0 -5.1,-1.5 -6.9,-4.5 3,-0.7 5.7,-1.5 7.1,-4 0.2,-0.3 -0.5,-2.5 -2.2,-3.2 -0.9,1.6 -0.8,3.9 -2.5,5.1 -2.5,1.8 -2.7,-2.2 -4.8,-2 -1,1.4 2,2.4 0.4,4 -3.7,-4.6 -6.9,-9.8 -12,-13.9 -1.1,6.4 -1,6.7 3,10.3 1.2,-2 -2.3,-2.3 -1.4,-4.4 2.8,0.9 3.7,3.8 5.2,5.8 6.2,8 13.4,14.7 22.5,19.2 3.7,1.8 6.4,4 6.6,8.5 -3.1,0 -2.9,-3.6 -5,-4.6 -1.6,6.4 6.3,6.7 7.9,11.8 -6.8,-3.9 -11.8,-8.2 -12.1,-16.5 -0.5,0.3 -0.9,0.6 -1.4,0.9 0,1.8 0,3.5 0,5.5 -2.7,-2.2 -2.8,-2.3 -1.6,-5 0.5,-1.1 -0.3,-1.5 -0.5,-2 -0.7,-1.5 -1.2,0.1 -1.6,0.4 -0.6,0.5 -1.2,1.3 -1.2,2 0.1,1.9 2.2,4 -0.5,5.6 -0.9,-1.6 -2,-3.2 -2.5,-4.9 -0.7,-2.7 -2.4,-2.5 -5.2,-1.6 2.4,-2.6 4.2,-3.2 6.8,-1.1 -0.8,-1.9 -2,-3.2 -1.9,-5.4 -2,2.1 -3.5,5.9 -5.1,0 -0.9,-3.2 -5.4,-4.7 -6.5,-8.5 -0.1,1.1 -0.3,2.2 -0.4,3.3 -2.1,0.6 -1.1,-3.2 -4,-2.2 1.7,4.2 5.2,5.7 9.1,7 -4.4,3.3 -6.1,-0.8 -8,-2.9 -7.9,-8.7 -11.4,-19.7 -14.7,-30.5 -3,-9.7 -1.3,-19.7 1.1,-29.5 0.6,-2.7 1,-5.4 1.8,-8 1.1,-3.4 1.8,-7 5.8,-9 2.7,-1.4 4.5,-4.3 4.1,-7.8 -0.2,-1.4 0.2,-2.2 1.7,-3 6,-3 6.6,-5.8 3.4,-12.3 -0.7,-1.4 -1.5,-2.4 -2.8,-3.1 0.1,4.6 5.6,9.4 -0.7,14 -1.3,-3.6 -0.4,-6.2 1.7,-8.6 -3.4,-0.1 -4,2 -4.3,4.3 -0.2,1.1 -0.1,2.3 0,3.5 0.2,2.4 -1,3.8 -3,4.5 -1.4,0.5 -3,0.1 -3.9,-1.4 -1.3,-2 -1.2,-4.5 0.6,-5.5 1.8,-0.9 0.9,-5.7 4.7,-3.2 0.2,-0.4 0.5,-0.8 0.6,-1.2 0.2,-1.3 -0.4,-1.7 -1.7,-1.7 -2.8,0 -4.1,-1.5 -4.3,-4.9 3,2.4 5.8,3 7.7,-0.4 1.2,-2.1 0.2,-4.2 -1.7,-5.1 -4.2,-2 -5.6,1.6 -7.5,4.2 -0.9,-0.8 -1.9,-1.7 -3,-2.7 -1.5,3.1 2.1,3.8 2.5,5.8 0.4,2.3 -1.7,3.7 -2.5,6.7 -0.8,-9 -8.7,-3.2 -11.9,-7.1 4.6,-1.5 8.7,0.5 12.9,1.4 -3.8,-5.2 -9.4,-1.5 -14.2,-3.2 2.4,-2.8 6,-4.1 9.2,-4.4 5.5,-0.5 10.9,-1.3 15.3,-3.9 -1.6,-1.2 -1.6,-1.2 -5.6,0.1 -1.8,0.6 -3.7,1.3 -5,-0.2 -1,-1.1 -1.8,-2.9 -1,-4.6 0.9,-1.9 2.5,-3 4.8,-2.7 3.2,0.4 5.9,-0.6 8.8,-2.1 3.2,-1.7 7.1,-0.3 10.6,-0.4 3,0 6.5,1.7 9.9,1.5 1.7,-0.1 1.9,0.9 1.7,2.2 -0.6,3.1 -6,8.1 -9.1,7.3 -3.4,-0.8 -5.6,1.5 -9.7,1.8 11.1,6.4 14.5,17.1 18.5,27.2 2.8,7 6.6,13.5 8.4,20.9 1.4,5.8 5.4,10 9.7,13.8 2.3,2.1 4.6,4.2 6.3,7.1 -6.2,-1.4 -10.6,-5.5 -14.8,-9.9 2.4,5 3.8,10.5 8.4,14.4 -2.8,1 -4.1,-1.5 -5.1,-3 -1.2,-1.8 -2.5,-3.2 -4.7,-5.3 1.3,4.8 5.3,7.5 5.4,13.1 -3.7,-5.7 -5.7,-11.2 -9.6,-15.4 -0.4,0.2 -0.7,0.4 -1.1,0.6 4.3,7.3 8.7,14.7 13.1,22.2 -3.4,0.2 -2.7,-4.9 -5.9,-4.6 -1,-2.8 -3.5,-4.8 -4.7,-7.4 1.1,1.9 3.2,4 4.7,6.5 z"
   class="st0" />
		<path
   id="path12136"
   d="m 207.8,151.8 c -0.5,-0.1 -2.2,0.5 -1.2,-0.7 1.2,-1.7 3.2,-2.7 4.4,-4.5 -3.4,0.3 -6,2.7 -6.7,5 -1.8,5.9 -7.1,10 -7.5,16.5 -0.2,2.3 -2.1,4.3 -4.5,5.7 0.8,-6.9 1.3,-13.6 4.6,-19.8 2.7,-5 6.9,-8.2 11.1,-11.5 0.7,-0.6 1.8,-0.8 2.3,-0.2 0.7,1 -2.3,0.6 -1.1,2.2 3.1,0 4.2,-3.2 6.7,-4.1 2,-0.7 1.8,-1 4.5,0.4 0.6,0.3 1.7,0.3 2.3,-0.1 6.8,-3.9 13.7,-1.1 18.8,2.1 4,2.6 8.2,6.1 11.6,10 0.2,0.2 0.7,0.6 0.6,0.7 -2.7,5.2 2.6,8.4 3.3,12.7 0.1,0.9 1.2,1.8 -0.2,2.4 -1.3,0.4 -1.4,-0.8 -1.9,-1.6 -2.1,-3.5 -2.9,-8 -8.1,-10.5 4.8,8.3 9.4,15.7 9.2,25.9 -2.5,-3.4 -2.6,-6.9 -5.3,-9.4 -2.5,-2.2 -4.7,-5.5 -3.8,-9.6 -2.4,0 -1.6,2.9 -3.8,3.3 0,-2.7 0,-5.4 0,-8.8 -2.4,2.3 -4.1,3.2 -4.3,-0.7 0,-0.7 -0.8,-1.4 -1.3,-2 -0.8,-1 -2,-1.7 -3,-0.9 -1.1,0.9 1.5,1.4 0.8,2.7 -4.9,-1.7 -9.7,-2.5 -15,-1.2 -6.5,1.5 -9.4,7.1 -13.7,10.8 -3.9,3.4 -3,4.4 -7.4,4.9 0.3,0.9 2.7,0.9 1.3,2.4 -3,3.2 -6.3,5.8 -11.4,4.3 2,1.4 0.7,3.4 1.1,4.9 3,-0.8 5.6,-7 8.3,-0.1 0.2,0.4 1.7,0.1 2.6,-0.7 6.2,-5.3 12.6,-6.3 19.1,-0.4 0.3,0.3 0.9,0.2 1.4,0.2 0.3,0 0.6,-0.2 0.9,-0.3 -2.6,-2.9 -2.6,-2.9 -21.3,-3.9 3.1,-1.1 5.5,-1.8 7.7,-2.9 0.8,-0.4 3.4,-1.3 0.6,-2.9 -1.3,-0.8 0.1,-1.3 0.5,-1.7 3.3,-4 6.6,-8.1 10,-12 2,-2.2 4.7,-1.1 7,-1 1.5,0.1 2.9,1.1 4.8,1.1 2.1,-0.1 2.8,4 1.3,5.9 -1.5,1.8 -4.3,2.1 -5.5,5.4 2.9,-1.7 5.1,-3.1 7.1,-5 2.5,-2.4 5,-1.7 5.8,1.8 0.3,1 0.5,2.5 1.3,2.4 5,-0.4 4.5,5 7.4,6.9 1.4,0.9 -0.4,2.5 -1.2,3.7 -0.6,1 -3.5,1.4 -1.4,3.1 1.2,1 1.9,-1.1 2.8,-1.7 0.5,-0.3 1,-0.9 1.5,-1.4 0.4,2.6 -2.6,8.2 -4.6,8.4 -1.3,0.1 -1.7,-1.3 -2.5,-2 2.8,-2.8 0.2,-2.8 -1.7,-3.8 -1.4,-0.7 -2.8,-2.1 0.2,-3.3 1.6,-0.6 2.8,-2 5,-3.7 -3.3,0.7 -6.1,-0.6 -8.4,1.8 0.8,-1.3 1.6,-2.7 2.4,-4 0.5,-0.8 2.3,-1.6 0.5,-2.6 -1,-0.6 -2.3,-2 -3.8,-0.1 -1.1,1.4 -2.8,2.3 -4,3.4 -2,1.9 -3.3,1.3 -5.3,0.1 2.9,-2.4 6.3,-4.3 8.4,-8.7 -3.1,2 -5.3,3.8 -7.8,5 -0.7,0.4 -2.2,1.8 -3.3,0 -1,-1.6 0.5,-2 1.1,-2.8 0.4,-0.5 0.9,-1 1.1,-1.8 -3.4,1.3 -5.4,5.1 -9.7,5.3 1.1,-2.3 2.7,-4.2 4.1,-6.2 1.4,-2.1 3.2,-3.7 4.3,-6.1 -6.3,3.6 -9.1,11.1 -15.4,15 5.1,-0.4 10.1,-1 14.8,1.7 4.3,2.6 10.3,2.3 13,7.7 -1.9,1.6 -3.5,-1.9 -5.4,-0.2 3.4,2.3 7.8,3.3 10.5,6.7 1,1.3 2.8,2.5 -0.7,2.4 -1.3,0 -1.5,0.5 0.1,1.9 7.1,6.2 4.8,14.1 4,21.7 -0.1,0.9 -0.2,1.6 -0.9,2.2 -2.4,1.9 -3.2,6.9 -6.2,6.1 -2.2,-0.6 -0.8,-5.3 -0.8,-8.2 0,-3.8 0.1,-7.6 -2.3,-10.8 -1.2,-1.7 -0.8,-3.4 -0.5,-5.9 2.4,4 6.1,6.7 5,11.7 -0.1,0.4 0.8,1 1.2,1.4 0.5,-0.9 1.2,-1.6 1,-2.8 -0.7,-4.7 -3.1,-8.4 -6,-11.9 -7.6,-9.2 -17.3,-13.4 -29.2,-13 -3.5,0.1 -7.1,-2.4 -10.6,0.5 -0.3,0.2 -1.5,-0.8 -2.7,-1.4 0.5,2.5 0.5,4.8 -1.6,6.4 -2.3,-2.2 2.4,-5.2 -1,-7.4 -0.6,2.2 -1.8,4.1 -1.5,6.5 -2.1,-0.5 -2,-1.8 -1.7,-3.4 0.3,-1.6 -0.7,-2.5 -2.2,-1.9 -0.6,0.2 -0.9,0.2 -1.1,-0.1 -1,-2.3 1.4,-3.9 1.5,-6.1 0,-0.5 0.9,-2.2 2.8,-1.6 3.2,1 6.3,-2.4 6.4,-3.6 0.5,-8.4 5.9,-14 10,-20.3 5,-1.3 8.8,-5.7 12.1,-5.4 -3,-0.2 -6.9,3.6 -11.7,5.4 z"
   class="st0" />
		<path
   id="path12138"
   d="m 189.3,113.3 c -5,3.1 -5.4,9 -8.1,13.5 -1,1.6 -1.7,3.7 -2.8,6.5 -0.8,-4.5 0.5,-8.4 -2.3,-12.2 -0.8,10 3,19.7 -0.7,28.7 -2.5,-4.3 2.4,-9.7 -0.9,-14.6 -1.6,2.4 1,5.8 -2.5,7.7 1,-6.8 2,-13.3 2.9,-19.8 0.3,-2.3 -0.6,-5.4 3.4,-5.2 -0.5,-2.6 2.3,-4 2.5,-6.2 0.3,-2.7 1.3,-5.2 3,-7 12.1,-12.9 26.1,-21.9 44.9,-20.8 8.2,0.5 12.4,2.4 19,9.5 -1.2,1.6 -2.1,-1.2 -3.2,-0.3 -0.2,2.8 2.9,1.1 3.7,2.6 0.9,1.6 3.6,1.1 3.7,3.6 -1.1,1 -2.3,-1.6 -3.4,0.2 1.4,1.5 4.9,2.6 2.1,6.5 1.5,2.3 5.6,4 5.3,8.3 -0.3,3.8 2.1,7.3 0.7,11.2 -1,-1.1 -2,-2.2 -3.8,-4.3 2.2,6.9 0.2,12.1 -2.6,17.3 1.9,-9.1 -3.8,-15.8 -6.4,-23.5 -1.4,1 -0.4,2.4 -1.2,3.4 -4.1,-3.6 1,-10 -4,-13.4 0.4,2.3 2.5,4.5 -0.3,6.6 -2.7,-8.8 -5.7,-10.7 -14.5,-9.7 -1.8,0.2 -3.8,-0.7 -5.7,-0.9 -2,-0.2 -4,-0.2 -5.6,1.4 0.6,1.4 2.5,-0.3 3.1,1.2 -9.6,0.6 -15.7,6.1 -20.1,14.3 -3.2,5.9 -6.9,11.6 -10.2,17.5 -2,3.6 -3.9,7.3 -2.3,11.7 0.1,0.4 0,1 -0.2,1.4 -0.1,0.2 -0.5,0.3 -0.8,0.4 -1.6,-4.8 -1.6,-4.8 3.9,-18.6 -3.7,2.7 -4.7,6.1 -5.7,9.2 -1.4,4.1 -0.9,8.4 -1.2,12.7 -0.1,1.8 2.1,5.4 -2.6,5.1 0,1.1 -0.5,2.5 0,3.2 1,1.7 0.8,3.3 0.4,5.2 -1.9,-4.1 -3.8,-7.9 1.1,-11.1 0.4,-0.2 0.3,-1.3 0.2,-1.9 -1.2,-14.1 4.1,-26.3 10.9,-38.1 0.2,-0.4 0.2,-1 0.3,-1.4 1.5,-3.2 3,-6.5 4.9,-8 -1.9,1.6 -3.8,4.6 -4.9,8.1 z"
   class="st0" />
		<path
   id="path12140"
   d="m 243.3,136.5 c 0.4,1.3 2.9,2.3 1.2,4.3 -3.9,-2.6 -0.9,-9.5 -7.1,-10.8 0,2 3.1,2.5 2.1,6.2 -1.9,-2.4 -3,-4.1 -4.4,-5.7 -1.3,-1.5 -3.1,-2.9 -5.1,-2.5 -5.6,1.1 -11.8,0 -16.8,3.9 -0.5,0.4 -1.3,0.5 -1.6,1 -6.8,9.7 -18.4,16.2 -20.3,29.3 -0.3,1.8 -0.4,3.6 -1.1,5.2 -3.1,-12.7 1.8,-23.3 9.9,-33 -6.5,4.4 -12.4,15.6 -13.1,24.2 -0.2,2.8 -1.3,5.6 -0.1,8.5 0.6,1.5 -0.2,2.9 -1.5,3.9 -1.5,1.2 -2.7,2.6 -2.7,4.9 -3.1,-2.4 -1.5,-4.8 -0.3,-6.8 2.6,-4 3.5,-7.9 1.1,-12.3 -0.9,-1.6 -1.8,-3.7 1.8,-3.1 0.9,0.1 0.9,-1.1 0.7,-1.5 -2.3,-4.6 1.2,-8.7 1.2,-13.1 0,-3.2 0,-7.5 5,-8.3 0.3,0 0.6,-0.6 0.8,-1 4.6,-8 8.6,-11 17.5,-12.8 -0.3,2.1 -2.2,2.7 -4.1,3.7 1.6,1.3 2.7,0.3 3.2,-0.1 10.2,-6.8 25.2,-5.6 34.3,2.7 2.7,2.5 2.7,6.1 4,9.1 0.6,1.5 0.1,3.4 -1,4.6 -1.4,1.6 -1.8,-2 -3.6,-0.5 z"
   class="st0" />
		<path
   id="path12142"
   d="m 238.2,215.3 c -2.3,-2.3 -2.6,-5.3 -6.2,-5.4 2.2,3.5 5.4,5.8 5.1,9.9 -0.1,1.4 0.4,3.4 -1.4,3.9 -1,0.3 -0.7,-2.4 -3.1,-2.2 4.9,8.4 0.3,15.2 -3.5,22.3 -0.7,1.4 -1.4,2.5 -2.9,3 -0.2,0.1 -0.9,-0.6 -1,-1 -0.5,-1.7 -0.2,-3 1,-4.5 3,-3.7 7.2,-7 6.6,-13.8 -1.7,4.6 -2.9,8.3 -6.5,10.5 -0.7,-5.8 5.5,-8.9 5.7,-14.8 -2.8,1.2 -1.6,4.3 -5.1,6.4 6.1,-10.2 -2.9,-15.7 -5.4,-23.4 -4.3,-0.5 -9.3,-1.9 -14.2,-4.1 -2.1,-1 -4.7,-2.4 -4.1,-4.9 0.8,-3.8 -0.7,-3.5 -3.1,-2.7 -0.3,0.1 -0.6,0.4 -0.9,0.5 -2.1,0.8 -4,-0.7 -4.8,-1.7 -1,-1.2 1.2,-2.5 2.3,-3.1 0.8,-0.4 1.7,-1.9 3,-0.9 -0.2,1.8 -3,2.1 -2.5,4.6 2.7,1 7,-9.8 8,1.1 3,-2.1 1.6,-3.9 -0.5,-5.8 1.2,-0.1 1.8,-0.1 2.4,-0.2 1.9,-0.3 4.2,0.3 4.6,1.8 0.5,1.8 -1.8,2.9 -3.2,4 -1.4,1 -3.4,1.1 -4.5,3.1 4.2,0.2 6.6,-2.6 9.3,-4.8 1.4,-1.1 1.9,-1.8 4.2,-0.6 4.3,2.2 8.2,5.1 12.1,7.9 4.7,3.3 7.9,8.1 8.6,14.9 z"
   class="st0" />
		<path
   id="path12144"
   d="m 147.3,267.3 c -1.3,-6.2 -5.2,-8.3 -10.7,-5.6 -0.8,0.4 -1.8,0.7 -2.7,0.8 -2.7,0.5 -6.4,1.9 -7.6,-1.1 -1.4,-3.3 2.2,-5.3 4.3,-7.6 1.2,-1.3 1.7,0.1 2.3,0.6 1.2,0.9 2.7,1 3.6,0.2 1,-0.9 0.6,-2.4 0,-3.7 -0.7,-1.3 -1.6,-2.5 -1.8,-3.9 -0.3,-1.6 0.2,-3.9 2.2,-3.5 5.9,1.2 8.1,-2.8 10.6,-6.6 1.4,-2.1 2.5,-4.4 3.8,-6.8 6.7,11.8 5,25.9 -4.2,37 0.1,0.1 0.2,0.2 0.2,0.2 z"
   class="st0" />
		<path
   id="path12146"
   d="m 141.5,209.9 c 6.4,2.5 12.6,5 19.3,6.3 -1,1.3 -3.2,0.4 -3.6,2.3 2.4,2.1 7.5,-1.4 8.8,3.9 -1.1,0.4 -1.4,-0.5 -2,-0.9 -0.5,-0.4 -1,-0.9 -1.5,-1.4 -2.6,4 -2.2,5.1 2.9,8.1 1.2,0.7 0.7,2.6 -0.6,3.9 -1.1,1.1 0,2.7 0.8,2.7 2.3,0 3.1,2.2 5,2.7 -2.1,1.5 -3,-0.7 -5.1,-1.5 2.4,3.1 -0.2,7 3.4,9.6 -5.3,1.1 -7.4,-3.5 -8.4,-5.9 -4.2,-9 -10.3,-16.3 -16.9,-23.5 -1.4,-1.6 -3.5,-3 -2.1,-6.3 z"
   class="st0" />
		<path
   id="path12148"
   d="m 124.8,290.8 c 0.7,-2.9 2.8,-3.2 4.6,-3.8 12.5,-4.5 19,-14.3 23.6,-25.9 1.6,-4 3.5,-7.9 5,-11.9 0.6,-1.7 1.7,-1.4 2.6,-0.9 1.9,1 2,2.9 1.1,4.3 -3.3,5.4 -5,11.4 -7.6,17 -2,4.4 -0.6,6.1 4.3,6.4 2.1,0.1 4.4,-0.3 5.6,-1.3 4,-3.2 4.7,-1.2 4.9,2.7 -5,-1.7 -9.8,0.5 -14.6,0.9 -6.1,0.5 -10.8,6.6 -11.2,13.1 -0.3,4.8 -0.3,4.8 -6.4,3.9 3.5,-5.6 7.3,-10.9 9.6,-18 -3.8,4.6 -15.8,11.9 -21.5,13.5 z"
   class="st0" />
		<path
   id="path12150"
   d="m 133.4,233.8 c 1.7,1.9 3.1,3.4 4.4,4.9 -3.8,3.9 -8.4,7.8 -3.2,14.2 -1.3,-1.2 -2.6,-2.3 -3.9,-3.5 -1.9,2.9 -3.9,5.6 -5.6,8.6 -2.6,4.4 -1,6.9 4.2,7.2 2.4,0.1 4.4,-0.9 6.6,-1.4 1.8,-0.4 2.5,0.8 2.7,1.8 0.2,1 -0.9,1.6 -2,1.5 -2.6,-0.3 -5.2,0.1 -7.8,-0.5 -4.7,-1.2 -9.5,-0.9 -12.9,3.3 -1.2,1.5 -2.7,2.6 -4.4,3 -3.6,1 -5.2,3.5 -5.9,7.3 -0.2,-3.4 -2.6,-2.6 -4.7,-2.3 2.5,-4.3 7.6,-4.8 10.8,-9.4 -7,3.5 -14,2.1 -20.1,4.8 -2.5,1.1 -1.9,-1.3 -2.2,-1.8 -0.8,-1.4 0.7,-1.5 1.6,-1.4 4.6,0.4 9.2,-0.8 13.7,-1.2 7.5,-0.8 13.6,-4.8 17.3,-11.6 3.7,-6.7 8.1,-13.1 10.7,-20.4 0.2,-0.9 0.3,-1.7 0.7,-3.1 z"
   class="st0" />
		<path
   id="path12152"
   d="m 214.8,208.8 c -0.3,-1.7 -1.8,-1.6 -3.2,-3.3 5,1.6 8.4,3.3 9.2,8.6 -3.1,-1.1 -5.2,-3.8 -8.8,-4.1 12.8,11.3 12.9,11.5 12.8,18.4 -2.7,-6.8 -6.5,-10.6 -13.6,-12.8 4.3,3.9 8.9,5.4 10.4,10.3 1.4,4.6 2.5,9.1 0,14.1 -0.9,-3.2 0.1,-6 -0.8,-8.8 -1.2,-3.7 -3,-7.2 -6.3,-9 -4.9,-2.6 -6.6,-7 -8.1,-11.8 1.4,-2 3.1,1.7 5.1,-0.5 -5.8,-2.8 -11.3,-6 -12.7,-12.9 3.6,6 8.4,10.7 16,11.8 z"
   class="st0" />
		<path
   id="path12154"
   d="m 199.3,117.8 c 4.4,-6.8 9.9,-11.5 18.4,-11.8 3.6,-0.2 7,-0.8 8.7,3.8 0.8,2.3 1.1,2.8 -1.7,3.4 -5.6,1.4 -11.3,0.5 -17,1.7 -3.1,0.5 -5.7,1.6 -8.4,2.9 z"
   class="st0" />
		<path
   id="path12156"
   d="m 84,113.2 c 0.7,-1.7 1.2,-2.8 1.8,-4.2 -2.3,0.4 -3.2,1.7 -3.8,3.2 -1.1,2.4 -3,2.3 -4.9,1.4 -2.1,-0.9 -3.7,-2.7 -2.9,-4.9 0.9,-2.3 1.2,-5.1 3.4,-6.8 2.4,-2 4.4,-4.4 5.3,-7.4 0.4,-1.4 1.2,-2.9 2.6,-2.1 1.3,0.7 0.4,2.3 -0.4,3.4 -0.4,0.5 -0.5,1.2 -0.9,1.7 -1.8,1.9 -3.1,4.7 -1.9,6.7 1.3,2.3 4.6,3.3 7.2,2.6 2.4,-0.6 1.8,1.1 1.5,1.5 -1.8,2 -3.2,4.6 -7,4.9 z"
   class="st0" />
		<path
   id="path12158"
   d="m 139.1,219 c 5.6,3.2 8.1,12.1 5.4,17.7 -0.6,-1.9 -1.3,-3 -2.4,-0.3 -0.6,1.4 0.7,3.3 -1.4,4.9 -0.9,-3.3 -1.6,-6.4 -4.5,-8.9 3.4,-0.8 3.7,1.9 5.4,2.3 2,-4.7 -5.5,-11.9 -12.7,-12.1 0.6,2.6 4.4,0.1 4.7,2.9 0,0.2 -1.5,0.6 -2.3,0.8 0.5,1.9 3.2,1.3 3.5,3.3 -3.2,-0.8 -8.9,-7.1 -8.7,-9.6 0,-0.4 0.1,-0.6 0.8,-0.7 1.4,-0.1 1.4,-0.4 0.6,-2.5 3.1,6.6 11.4,4.3 15.2,10.8 0.6,-4.2 -2.4,-5.8 -3.6,-8.6 z"
   class="st0" />
		<path
   id="path12160"
   d="m 234.7,201.7 c -3.3,-3.8 -10.3,-4.2 -10.4,-11.7 -1.6,-0.9 -1.9,2.5 -4,1.7 0.5,-0.8 1,-1.6 1.5,-2.5 -6.2,1.5 -11,-4.8 -17.2,-2.3 8.4,-2 16.1,0.6 23.8,3.2 1.9,0.6 1.4,1.7 0.2,2.9 -0.4,0.4 -2.3,0.9 -0.7,1.9 0.5,0.3 1.4,1.7 2.4,0.3 0.3,-0.5 0.7,-1.6 1.8,-0.6 0.9,0.9 0.4,1.3 -0.2,1.9 -0.4,0.5 -1.6,1.6 0.2,1.3 3.6,-0.3 2.6,2 2.6,3.9 z"
   class="st0" />
		<path
   id="path12162"
   d="m 255.9,137 c 2.5,4.4 0.7,8.7 0.1,12.9 -0.2,1.6 -1.2,0.3 -1.7,0.1 -4.6,-1.8 -5.1,-4.6 -1.8,-8 1.3,-1.4 2.1,-3.2 3.4,-5 z"
   class="st0" />
		<path
   id="path12164"
   d="m 217.5,136.7 c 1.9,-4.8 5.3,-6.7 10.1,-5.7 1.5,0.3 2.4,1 2.4,2.5 0,1.3 -0.8,2.1 -2,2.4 -0.3,0.1 -0.7,0.1 -1,0 -3.3,-0.4 -6.2,2.2 -9.5,0.8 z"
   class="st0" />
		<path
   id="path12166"
   d="m 139.8,278.9 c -3.2,1.8 -6.4,3.6 -9.5,5.4 -1.2,0.7 -1.4,0.8 -2.5,-0.6 -1.2,-1.7 -3.6,-2.8 -6,-1 -0.4,0.3 -1,1.8 -1.6,0.5 -0.4,-0.8 -1.5,-1.5 -0.9,-2.6 0.5,-0.9 1.4,-0.5 2.2,-0.5 6,-0.3 12.3,0.9 18.3,-1.2 z"
   class="st0" />
		<path
   id="path12168"
   d="m 109.7,264.9 c -7,3.6 -12.2,2.8 -14.7,-2.1 4.5,2.1 8.9,2.5 14.7,2.1 z"
   class="st0" />
		<path
   id="path12170"
   d="m 116.6,295.8 c -0.5,-4.6 2.8,-5.5 6.1,-6.6 1.5,5.5 -5.9,2.7 -6.1,6.6 z"
   class="st0" />
		<path
   id="path12172"
   d="m 233.5,110.4 c 3,1.2 2,4.8 4.2,6.3 -3.5,-0.7 -8,-0.7 -4.2,-6.3 z"
   class="st0" />
		<path
   id="path12174"
   d="m 140.2,216.1 c -4.2,-2.3 -4.8,-6.4 -7.6,-9.6 3.3,1.1 4.9,3 7.6,9.6 z"
   class="st0" />
		<path
   id="path12176"
   d="m 215.4,238.5 c -0.2,-3.4 -3,-5.6 -3.4,-8.8 -0.1,-0.8 0.1,-1.6 0.2,-3 2.1,4.1 4.8,7.3 3.2,11.8 z"
   class="st0" />
		<path
   id="path12178"
   d="m 184,179.2 c 0.6,-3.9 2.6,-6.3 5.8,-8.1 -0.5,3.2 -1.7,4.8 -5.8,8.1 z"
   class="st0" />
		<path
   id="path12180"
   d="m 229.8,114.8 c -1,-3.6 -1.8,-6.5 -2.7,-9.7 3.7,2.4 5.1,5.1 2.7,9.7 z"
   class="st0" />
		<path
   id="path12182"
   d="m 238.8,137.6 c -2.2,0.3 -4.6,1.3 -5.7,-1.3 -0.4,-0.9 0.5,-1.8 1.2,-1.9 2.8,-0.7 2.8,2.3 4.5,3.2 z"
   class="st0" />
		<path
   id="path12184"
   d="m 217.2,133.2 c -1.8,2.2 -2.2,5.6 -6.3,4.5 2.1,-1.6 2.8,-4.5 6.3,-4.5 z"
   class="st0" />
		<path
   id="path12186"
   d="m 83.6,278.7 c -1.2,-4.2 1.2,-5.4 4.3,-6.4 0.1,3.5 -6,2.2 -4.3,6.4 z"
   class="st0" />
		<path
   id="path12188"
   d="m 138.5,301.9 c -0.3,-1.6 -2.7,-2.6 -0.5,-4.4 0.8,-0.6 1.6,-0.7 2.1,0.1 1,1.8 -0.2,3 -1.6,4.3 z"
   class="st0" />
		<path
   id="path12190"
   d="m 88.1,266 c 1.1,-2.1 2.8,-2.5 4.5,-2.8 0,0 0.6,1.3 0.3,1.7 -1.1,2 -3,0.7 -4.8,1.1 z"
   class="st0" />
		<path
   id="path12192"
   d="m 113.4,285.7 c 1.5,-0.9 1.3,-4.2 4.1,-2.9 0.4,0.2 1.2,0.5 1.2,0.6 -1,2.5 -3.7,1.1 -5.3,2.3 z"
   class="st0" />
		<path
   id="path12194"
   d="m 175.9,278 c -1.6,-1.1 -2.7,-2.4 -4.5,-2 -1.1,0.2 -1.4,-0.3 -0.7,-1.3 0.4,-0.6 0.4,-2.3 1.6,-0.7 1.1,1.2 3.7,0.9 3.6,4 z"
   class="st0" />
		<path
   id="path12196"
   d="m 99.1,282.3 c -0.6,-2.7 0.2,-4.1 4,-2.9 -1.5,1.1 -2.8,2 -4,2.9 z"
   class="st0" />
		<path
   id="path12198"
   d="m 142.9,263.6 c -1.7,0.8 -2.8,0.3 -3.6,-1 1.5,-1.3 2.5,-0.6 3.6,1 z"
   class="st0" />
		<path
   id="path12200"
   d="m 246.9,139.3 c 1.1,1.8 2.1,2.4 1.5,3.7 -0.2,0.3 -0.8,0.5 -1.2,0.7 0,-1.1 -0.1,-2.1 -0.3,-4.4 z"
   class="st0" />
		<path
   id="path12202"
   d="m 87.5,85.9 c -0.4,-0.3 -0.9,-0.6 -1.1,-1 -0.5,-1.1 0.6,-1.3 1.1,-1.7 0.3,-0.2 1.4,-0.5 1.1,0.6 -0.2,0.7 -0.7,1.3 -1.1,2.1 z"
   class="st0" />
		<path
   id="path12204"
   d="m 180,218.5 c 0,-2.7 0,-4.4 0,-6.1 -2.6,1.1 -2.9,0.5 -5.8,-11.2 1.5,0.9 2.4,1.8 2.9,3.6 0.5,2.1 1.2,4.2 3,5.9 2.7,2.5 2.5,2.7 -0.1,7.8 z"
   class="st1" />
		<path
   id="path12206"
   d="m 182.3,197.3 c -0.1,-2.4 -2.8,-4.1 -2.1,-6.9 2.2,0.5 1.9,2.7 2.9,3.8 0.8,0.9 0.4,2.6 2.3,2.8 5.2,0.5 3.1,4.1 3.8,7.2 -2.9,-0.7 -1.9,-2.2 -2.2,-3.1 -0.2,-0.6 -0.3,-1.1 -0.4,-1.7 -3.4,3 -2.8,-1.9 -4.4,-2.3 z"
   class="st1" />
		<path
   id="path12208"
   d="m 182.1,197.1 c -0.2,1.1 -0.9,3 -1.8,1.3 -2,-3.7 -5.3,-6.3 -8.2,-10.9 6,1.8 6.3,7.6 10.2,9.7 0,0.1 -0.2,-0.1 -0.2,-0.1 z"
   class="st1" />
		<path
   id="path12210"
   d="m 125.9,162.1 c -3.7,-2.7 -5.5,-6.9 -7.4,-10.9 2.9,3.4 6.5,6.2 7.3,11 -0.1,0.1 0.1,-0.1 0.1,-0.1 z"
   class="st1" />
		<path
   id="path12212"
   d="m 84.1,150.9 c -1.9,0.4 -2.1,-0.7 -2.1,-2.2 0,-2.7 0.4,-5.4 2.6,-7.7 1.3,3.7 -1.4,6.8 -0.6,10.1 -0.1,0 0.1,-0.2 0.1,-0.2 z"
   class="st1" />
		<path
   id="path12214"
   d="m 136.3,184.3 c -2.4,-1.9 -4.9,-3.9 -7.3,-5.9 -0.5,-0.4 -1,-0.8 -0.3,-1.5 0.8,-0.9 1.2,-0.5 1.9,0.1 2.2,2.1 4.5,4.2 6.7,6.3 -0.4,0.3 -0.7,0.6 -1,1 z"
   class="st1" />
		<path
   id="path12216"
   d="m 83.9,133.1 c 0.8,0 2.3,-0.2 1.9,0.7 -0.9,2.4 -0.9,5.4 -3.6,7.1 -1.1,-3.2 2.6,-5 1.8,-7.9 z"
   class="st1" />
		<path
   id="path12218"
   d="m 84.1,132.9 c -0.6,-0.3 -2,1 -1.4,-1.2 0.6,-2.3 0.6,-4.8 3.1,-6.9 0.6,3.3 -1.8,5.6 -1.9,8.2 0,0.1 0.2,-0.1 0.2,-0.1 z"
   class="st1" />
		<path
   id="path12220"
   d="m 111,169.4 c 1.9,2.6 3.3,4.3 4.6,6.1 -3.5,0 -3.7,-0.1 -4.6,-6.1 z"
   class="st1" />
		<path
   id="path12222"
   d="m 176.2,182.3 c -1.3,-0.4 -1.8,-0.5 -1.8,-0.6 -0.2,-1.7 -2.4,-2.3 -2.2,-4.1 0,-0.2 0.9,-0.6 1.2,-0.5 1.7,1 2.1,2.7 2.8,5.2 z"
   class="st1" />
		<path
   id="path12224"
   d="m 151.7,195.3 c 2.6,-1.2 4.2,0.9 6.1,2 -2.2,-0.1 -4.5,0 -5.9,-2.2 -0.1,0.1 -0.2,0.2 -0.2,0.2 z"
   class="st1" />
		<path
   id="path12226"
   d="m 194.2,214.1 c -1.6,-0.7 -0.5,-1.6 -0.2,-1.9 1.2,-1.5 -2.5,-2.7 -0.2,-4.1 0.2,-0.1 0.8,0.1 0.8,0.2 0.4,2 1,4 -0.4,5.8 z"
   class="st1" />
		<path
   id="path12228"
   d="m 190.1,207.1 c 0,-2.2 0,-3.8 0,-5.8 1.6,1.9 3.2,3.4 0,5.8 z"
   class="st1" />
		<path
   id="path12230"
   d="m 185,221.8 c -0.3,1.3 -1,2 -2,2.2 -0.9,0.2 -1.2,-0.7 -1,-1.2 0.4,-0.8 1.1,-1.5 1.7,-2.3 0.6,0.4 1,0.9 1.3,1.3 z"
   class="st1" />
		<path
   id="path12232"
   d="m 207.8,151.8 c 5.8,-4.9 14.3,-7.5 18.3,-5 -6.1,-0.2 -11.1,1.3 -15.6,4.8 -0.6,0.5 -1.9,0 -2.9,0 0.1,0.1 0.2,0.2 0.2,0.2 z"
   class="st1" />
		<path
   id="path12234"
   d="m 196.3,163.6 c -0.5,-5.7 4.1,-9.1 6.4,-14.8 0,6.9 -4.8,10.1 -6.4,14.8 z"
   class="st1" />
		<path
   id="path12236"
   d="m 243.4,215.7 c 4.2,-3.9 1.3,-8.7 1.6,-13.4 3.4,4.7 2.7,11 -1.6,13.4 z"
   class="st1" />
		<path
   id="path12238"
   d="m 189.3,113.3 c 0,-5.9 4.8,-8.5 8.6,-11.9 -3,3.9 -6,7.7 -8.7,11.7 0,0.1 0.1,0.2 0.1,0.2 z"
   class="st1" />
		<path
   id="path12240"
   d="m 204.9,128.9 c 0.3,1.9 -0.6,2.9 -2.7,3.1 0.7,-1.6 1.5,-2.6 2.9,-3 z"
   class="st1" />
		<path
   id="path12242"
   d="m 205.1,129.1 c -0.2,-1.3 0,-2.3 1.6,-2 0.3,0.1 0.9,0.5 0.9,0.5 -0.5,1.2 -1.4,1.6 -2.7,1.3 0,0 0.2,0.2 0.2,0.2 z"
   class="st1" />
	</g>
</g>
</svg>
