<?xml version="1.0" encoding="UTF-8" standalone="no"?>
<svg
   xmlns:dc="http://purl.org/dc/elements/1.1/"
   xmlns:cc="http://creativecommons.org/ns#"
   xmlns:rdf="http://www.w3.org/1999/02/22-rdf-syntax-ns#"
   xmlns:svg="http://www.w3.org/2000/svg"
   xmlns="http://www.w3.org/2000/svg"
   xmlns:sodipodi="http://sodipodi.sourceforge.net/DTD/sodipodi-0.dtd"
   xmlns:inkscape="http://www.inkscape.org/namespaces/inkscape"
   inkscape:version="1.0 (4035a4f, 2020-05-01)"
   height="332.53961"
   width="251.84483"
   sodipodi:docname="cockatrice.svg"
   xml:space="preserve"
   viewBox="0 0 251.84483 332.53961"
   y="0px"
   x="0px"
   id="Layer_1"
   version="1.1"><metadata
   id="metadata13213"><rdf:RDF><cc:Work
       rdf:about=""><dc:format>image/svg+xml</dc:format><dc:type
         rdf:resource="http://purl.org/dc/dcmitype/StillImage" /><dc:title></dc:title></cc:Work></rdf:RDF></metadata><defs
   id="defs13211" /><sodipodi:namedview
   inkscape:current-layer="Layer_1"
   inkscape:window-maximized="0"
   inkscape:window-y="25"
   inkscape:window-x="0"
   inkscape:cy="177.82911"
   inkscape:cx="125.32034"
   inkscape:zoom="2.52"
   fit-margin-bottom="0"
   fit-margin-right="0"
   fit-margin-left="0"
   fit-margin-top="0"
   showgrid="false"
   id="namedview13209"
   inkscape:window-height="480"
   inkscape:window-width="820"
   inkscape:pageshadow="2"
   inkscape:pageopacity="0"
   guidetolerance="10"
   gridtolerance="10"
   objecttolerance="10"
   borderopacity="1"
   bordercolor="#666666"
   pagecolor="#ffffff" />
<style
   id="style12816"
   type="text/css">
  .st0{fill:#FFFFFF;}
  .st1{fill:#000000;}
</style>
<g
   transform="translate(-24.679663,-22.170893)"
   id="g13206">
	<g
   id="g13204">
		<path
   id="path12818"
   d="m 45.9,105.1 c -3.2,-1.1 -5.4,-3.2 -6.8,-6.3 -1.5,-3.4 -1.2,-6.3 1.5,-8.9 1.5,-1.5 3.1,-3.1 4.6,-4.6 1,-1 1.5,-1.4 0.5,-3.3 -1.4,-2.7 1.4,-4.9 3.4,-6.5 1.4,-1.2 2.6,-2.4 3.6,-3.9 2.5,-3.5 1.6,-5.7 -2.9,-5.7 -5.7,-0.1 -10.6,-2.3 -15.8,-4 -1.7,-0.6 -2.9,-0.6 -4.3,0.6 -1.4,1.3 -3.1,2.3 -4.8,3.5 -1.2,-6 2.6,-13.3 9,-15.2 6.3,-1.9 7.3,-6.2 7.8,-11.4 0.7,-7.5 4.1,-10.5 11.5,-9.4 1.4,0.2 1.8,-0.6 2.5,-1.2 1.5,-1.4 2.9,-2.8 4.3,-4.3 2.3,-2.4 4.4,-3.9 6.5,0.4 0.8,1.6 2.3,2.5 4.2,1 0.9,-0.7 1.9,-1.2 2.9,-1.7 5.4,-3 6.5,-2.6 9.3,3.3 2.2,-1.9 4.9,-2.9 7.6,-3.9 2.8,-1 5.4,-0.3 6.8,2 1.6,2.6 3.8,4 6.4,5.2 1.2,0.6 2.3,1 2.4,2.6 0.1,1.9 -1.1,3 -2.5,3.7 -2.5,1.2 -5.2,2 -7.6,3.4 -1.7,1 -3,2.1 -3.8,3.8 -0.7,1.5 -2.5,3.1 -1.5,4.5 1,1.4 2.8,0 4.3,-0.3 1.2,-0.2 2.4,-0.2 3.7,0.6 1.2,0.7 2.4,1.4 2.8,2.4 0.2,0.6 -1.3,1.7 -2.4,2.2 -2.1,1 -3.2,2.3 -1.9,5.1 0.6,1.2 0.8,3 1.2,4.4 0.8,2.9 1.4,6.4 5.9,5.3 0.3,-0.1 0.8,0.3 1.1,0.5 1.4,0.8 3.9,0.9 4,2.7 0,2 -2.5,1.9 -3.9,2.2 -4.6,0.8 -6.3,3.2 -5.4,7.8 0.3,1.5 0.2,3.2 0,4.8 -0.3,3.1 0.2,5.5 3.8,6.3 2.1,0.4 3.9,1.9 3.9,4 0,2.5 -2.5,2.8 -4.4,2.9 -1.5,0.1 -1.4,0.9 -1.5,2 -0.5,4.6 0.6,9.1 1.1,13.6 0.3,3.2 4.6,2.8 6.3,5.4 1.6,-8.5 3.5,-16.4 3.2,-24.7 -0.2,-4.3 -0.6,-7.9 -4.3,-10.5 -2.1,-1.5 -2.4,-2.9 -0.5,-5.3 3.8,-4.9 8.7,-8.2 14.1,-11 7.5,-3.8 15.4,-6.5 22.9,-10.2 12.8,-6.4 26.6,-9.8 39.9,-14.9 14.3,-5.5 29,-9.6 43.3,-15.1 5,-1.9 10.3,-3.7 16,-3.2 2.1,0.2 3.9,0.6 5.7,2.3 -4.3,3.1 -9.5,3.6 -14.2,5.5 -4.2,1.7 -8.1,3.7 -11.7,6.4 -1.9,1.4 -2.6,3.5 -1.7,5.2 0.9,1.6 2.7,0.2 4.2,-0.2 11.5,-3.2 23,-6.6 34.7,-9.4 3.2,-0.8 6.8,-0.6 10.2,-1 2.3,-0.3 4.7,-0.1 5.3,2.4 0.7,2.5 -1.7,3.4 -3.5,4.1 -5.5,2.3 -10,5.7 -13.3,10.7 -3,4.5 -4.7,9.6 -6.7,14.6 -2.5,6 -2.7,12.2 -4.4,18.3 -2.7,9.8 0.1,16.7 8.9,22.3 0.9,0.6 2,1.1 2.7,1.9 1.4,1.7 1.4,4.4 -0.8,4.4 -10.3,-0.2 -12.5,8.6 -16.7,14.8 -4.2,6.1 -5.1,13.8 -8,20.5 -3,6.9 -2,14.1 -4,21 -1,3.3 0.5,6.5 1.8,9.4 1.6,3.6 0.6,6.7 -1.2,9.6 -1.3,2.2 -3.9,2.3 -4.8,0 -1.9,-4.6 -6.1,-5.5 -9.7,-6.2 -5,-0.9 -9.9,-2.4 -15.1,-2.1 -10.2,0.6 -20,2.6 -29.8,5.2 -3.9,1 -7.8,1.9 -11.8,3.6 5.2,2.8 9.9,1.7 14.6,0.2 1.6,-0.5 3.8,-1.1 5.2,0.7 1.5,1.8 -0.7,2.7 -1.3,4 -0.9,1.8 -1.5,3.1 1.1,4.8 3.7,2.4 6.8,5.7 10,8.7 1.5,1.4 2.4,2.8 4.5,0.4 1.6,-1.7 4.2,-2.9 6.9,-2.4 0.9,0.1 2.2,-0.6 2.5,0.8 0.2,0.9 0.2,1.8 -0.5,2.8 -4.8,7.2 -4.6,8 1.4,14.1 1.7,1.7 3.6,3.4 5.2,5.3 2,2.5 4.3,3.5 7.5,3.1 3.6,-0.6 6,0.3 4.6,4.8 4,-1.5 7.1,-3.7 9.3,-7.3 -3.5,-0.6 -7.1,0.6 -10.5,-1 -1.6,-0.8 -3.5,-1.3 -4.8,-2.4 -1.3,-1.1 -3.7,-2.1 -3.1,-4.2 0.5,-1.8 2.7,-1 4.2,-1.3 13.5,-2.1 20.8,-11.9 27.6,-22.3 3.1,-4.8 5.3,-10.1 7.3,-15.4 1,-2.6 2.1,-6.7 5.4,-6.1 3.2,0.6 2.2,4.5 2.1,7.2 -0.3,7.1 -1.8,14 -2.8,20.9 -1,7.2 -3.1,14.2 -3.5,21.7 -0.3,6.3 0,12.3 1,18.4 0.3,1.9 1.1,3.1 2.3,4.3 1.9,2 3.3,4.5 1.6,6.8 -1.7,2.2 -4.6,2.5 -7.4,1.2 -5.7,-2.7 -9.4,-7 -10.3,-13.4 -0.2,-1.4 -0.8,-2.8 -1.4,-4.8 -3.6,5.4 -8.6,8.1 -13.5,11.1 -2,1.2 -3.3,2.8 -1.9,5.3 1.2,2.2 1.9,4.6 2.3,7.2 0.6,4.7 5.4,5.9 8,8.9 2.8,3.3 2.9,4.4 -1.3,5.9 -2,0.7 -2.7,1.4 -2.5,3.4 0.6,8 -0.5,15.8 -2.5,23.6 -0.3,1.3 0.4,2.2 0.9,3.2 1.3,2.6 1.1,5.2 -0.1,7.7 -1,2.1 -2,4.2 -4.3,1 -0.6,-0.9 -1,-0.8 -2.2,0.6 -2.4,2.8 -4,6.1 -6.1,9 -4.2,5.8 -10.2,8.6 -16.1,11.8 -12.1,6.5 -24,5.3 -35.9,-0.2 -8.6,-4 -12.5,-11.9 -15.1,-20.3 -5.1,-16.3 1.1,-29.6 11.9,-41.5 4.7,-5.2 10.1,-9.6 16,-13.4 0.4,-0.2 1.8,0.2 1,-1.1 -1.3,-2 -0.9,-5.6 -4,-5.9 -4,-0.4 -7.4,-1.1 -9.7,-4.9 -0.4,-0.6 -2.4,-0.2 -3.7,-0.4 -4.9,-0.7 -10.1,-0.7 -11.8,-7.2 -0.5,-2.1 -3.2,-2.4 -5.5,-2.4 -2.2,0 -3.2,1.2 -3.9,3.2 -1.7,4.7 -2.6,9.4 -2.6,14.4 -0.1,14.7 -2.6,29.3 -2.8,44.1 -0.1,4.3 0.3,9.1 -1.4,13.5 -0.7,1.8 0.2,3.8 1.6,5 1.3,1.1 2,-0.9 3,-1.3 3.4,-1.3 9.6,1.2 12.2,5.4 1.5,2.4 0.2,9.3 -2.3,10.9 -1.8,1.2 -3.1,0.1 -3.3,-1.8 -0.6,-4.6 -4.2,-4.6 -7,-3.7 -4.5,1.5 -8.8,0.2 -13,-0.4 -1.8,-0.3 -2.5,-0.3 -3,1.3 -1.3,3.8 -3.9,7 -5.2,10.9 -0.7,2.4 -2.4,5.4 -6.3,4.4 -1.8,-0.4 -3.3,1.7 -3.6,4.5 -0.2,1.7 0.7,4.4 -2.1,4.2 -2.4,-0.2 -4.3,-2.3 -4.8,-4.8 -0.7,-3.4 1.2,-6.8 0,-10.4 -0.5,-1.5 1.4,-2 2.5,-2.4 7.2,-2.5 6.6,-3.6 10.3,-8.7 -6.2,3.8 -13.4,5.6 -19.7,9.3 -1.7,1 -3.6,0.9 -5.3,0.2 -3.9,-1.8 -6.8,-0.1 -7,4.1 -0.1,1.6 0.6,3.7 -1.9,4.1 -2.2,0.4 -2.4,-1.7 -3.1,-2.9 -2,-3.7 -0.1,-9.2 3.8,-11.7 0.2,-0.1 0.7,0 0.8,-0.2 4.1,-5.7 9.5,-6.1 16.2,-5.5 4.5,0.4 9.1,-3.3 12.3,-7.3 0.5,-0.6 0.8,-1.2 0.1,-1.8 -0.6,-0.6 -1.1,-1.2 -2.2,-0.5 -1.5,1 -3.1,0.8 -4.2,-0.7 -1.6,-2.4 -3.2,-1 -4.6,0.1 -3.9,3 -8.3,3.5 -12.8,2.4 -5.2,-1.3 -9.6,1 -14.3,2.2 -0.8,0.2 -0.4,1.3 -0.7,1.9 -1.1,2.4 -2.3,4.3 -5.6,4.3 -2.3,0 -4.9,0.9 -5.9,3.9 -0.4,1 -1.5,2.4 -3,1.9 -1.5,-0.5 -1.7,-2 -1.8,-3.4 -0.4,-4.5 3.3,-7.2 4.5,-11 0.2,-0.5 0.5,-0.9 0.9,-1.6 -2.2,-0.8 -3.2,1.2 -4.7,1.7 -2.6,0.8 -4.4,0.1 -5.6,-1.4 -2.9,-3.6 -4.7,-1.2 -6.6,0.9 -1.1,1.2 -1.5,4.1 -3.9,2.4 -1.9,-1.3 -1.1,-3.3 -0.4,-5.4 1.5,-4.1 4.1,-6.6 8.5,-7.3 0.7,-0.1 1.7,0.3 1.9,-0.5 1.5,-5.8 7.2,-6.6 11.2,-9.3 3.2,-2.1 5.4,0.3 7.5,2 6.5,5.2 11.8,5 16.1,-1.9 2,-3.2 2.1,-7.7 2.5,-11.6 0.4,-3.7 0.1,-7.5 0.1,-11.3 0,-2.3 0.1,-4.5 1.3,-6.6 1.3,-2.2 1.8,-4.6 -0.1,-7 -1.6,-1.9 -1.8,-4.5 -1.1,-6.5 0.9,-2.6 -0.1,-4.8 -1.2,-6.5 -2,-2.9 -3.2,-5.6 -1.6,-9 0.2,-0.3 0.2,-1.1 0,-1.3 -5,-4.3 -4.2,-11.6 -8.7,-16.2 -1,-1 -1.2,-1.9 -3.4,-1.4 -3.8,0.9 -7.2,-0.7 -8.9,-4.7 -1,-2.4 -2.7,-4 -5,-5.1 -8.2,-4 -9.6,-6.7 -8.6,-15.9 0.2,-2 -0.3,-3.2 -2.1,-4.4 -3.5,-2.5 -8.6,-3.7 -8.3,-9.6 0.1,-2 0.6,-3.8 2.1,-4.9 2.2,-1.7 2.2,-3 0,-4.8 -5.8,-4.7 -8.1,-10.7 -2.3,-18.9 1,-1.5 0.4,-1.4 -0.5,-2.2 -4.1,-3.4 -5.5,-11.8 -0.4,-15.3 1.3,-0.9 2,-2 1.1,-3.8 -1.8,-3.6 -1,-6.9 1.9,-9.6 1.8,-1.6 3.3,-2.9 1.8,-6 -1.7,-3.6 1.8,-5.7 4.2,-7.8 0,-0.7 1.2,-0.7 1.7,-1.9 z"
   class="st1" />
		<path
   id="path12820"
   d="m 96.3,265.4 c 0.2,1.2 -0.4,2.2 -0.6,3.3 -0.4,2 -1.1,4.8 2.9,3.9 1.9,-0.4 1.4,1.3 1.2,1.9 -1.5,4.5 -1.7,9.3 -2.9,14.3 -0.8,-2.5 0.1,-5.3 -2.5,-7.3 -1.1,2.7 0.2,5 0.5,7.2 0.5,5.4 -1.2,10 -3.8,14.4 -1.4,2.5 -0.5,4 1.3,5.5 2,1.7 4.2,1.6 6.2,0.2 1.2,-0.9 2.6,-2.8 3.6,-2 1.4,1.1 2,3.3 2.8,5.1 0.5,1.2 -0.8,1.7 -1.4,2.4 -1,1.2 -1.8,0.5 -2.5,-0.3 -1.9,-2.3 -3.4,-1.7 -5.9,-0.3 -3.8,2.3 -7.9,3.5 -12.8,2.3 -5.9,-1.4 -11.2,1.6 -16.5,3.9 -0.7,0.3 -0.5,1.3 -0.9,1.8 -0.6,0.9 -0.1,3.3 -2.3,2.5 -2.3,-0.8 -3.7,-2.5 -3.6,-5.1 0,-1.9 1.2,-2.6 2.8,-2.3 4.2,0.6 6.6,-2.7 9.7,-4.4 0.7,-0.4 2.1,-1.2 1,-2.3 -0.6,-0.6 -1.6,-0.4 -2.3,0.3 -3.9,3.2 -8.2,4.4 -13,2.4 -1.7,-0.7 -2.7,-0.2 -3.3,1.4 -0.7,1.8 -3,3 -3.9,2.2 -1.8,-1.6 -2.6,-4.2 -1.3,-6.7 1.1,-2.2 2.5,-1.5 4.3,-0.7 8.1,3.5 21.8,0.5 26.9,-5.8 4,-5 5.5,-11.5 6.1,-17.9 0.6,-6.6 -1.3,-13.4 2.5,-19.7 0.8,-1.4 -0.1,-3.3 -0.9,-4.9 -2.9,-5.9 -2.7,-6.3 3.2,-8.4 0.4,-0.1 0.6,-0.6 1.3,-1.2 -5,-0.3 -5.8,-5.4 -9.2,-7.5 -1.4,-0.8 -0.1,-2.5 0.6,-3.4 1,-1.2 1.3,0.8 2.1,0.9 2.3,0.1 1.7,2.6 3.5,4.6 -0.4,-2.4 -0.1,-4 -1.4,-4.8 -6.9,-3.9 -7.3,-11.6 -10.5,-17.6 -0.2,-0.4 -0.2,-0.8 -0.4,-1.2 -3.3,-5.3 -3.3,-5.3 -0.7,-10.8 -0.8,-1.1 -2.1,0 -3.5,-1.4 4.8,-0.8 5,-6 9.1,-8 2.2,-1.1 2.9,-5.2 4.1,-7.9 0.1,-0.3 -0.1,-1.1 -0.3,-1.1 -4.3,-1 -4.1,-5.7 -7,-8.5 -0.3,2.5 -2.6,4.4 -1.1,6.8 0.4,0.7 1.1,-0.9 2,-1 1.2,1.1 -1,4.1 2.4,4.3 1.2,0.1 0.2,6.1 -1.5,6.6 -2.1,0.6 -4.1,2.8 -6.6,1 -0.4,-0.3 -1.2,-0.2 -1.7,0 -3.7,1.2 -7.3,2.3 -9.9,-2.6 -1.3,3.3 1.7,2.9 1.9,4.4 -4.1,1.4 -7.8,-0.3 -9.4,-4.5 -0.4,-1.1 -0.6,-1.9 -1.8,-1.6 -1.5,0.4 -0.9,1.5 -0.6,2.4 1.9,5.7 6.1,7.5 12,5.7 1.7,-0.5 3.7,-0.5 5.6,-0.3 1.8,0.2 3.2,-0.9 5.6,-1.1 -2.1,3.7 -5.2,5.3 -8.5,5.3 -5.6,0 -10.9,-1.6 -15.6,-5.1 -4.5,-3.3 -3.8,-7.5 -2.6,-11.8 0.7,-2.3 -0.2,-4 -1.7,-4.5 -4.7,-1.5 -2.3,-3.1 -0.4,-4.9 0.3,-0.3 0.5,-0.7 1,-1.4 -2.8,0.4 -3.7,2.6 -5.1,4.2 -3.3,-2.9 2.3,-5.3 0.3,-8.2 -1,1.7 -2.4,3.3 -2.3,5.7 -2.3,-1.1 -3.4,-2.8 -2.2,-4.9 1.4,-2.5 2.8,-5 6.4,-5.5 5.6,-0.9 11.4,1.3 16.8,-1.6 1.9,-1 4.2,-1.6 6.1,-2.7 1.4,-0.9 3.4,2.5 4.2,-0.7 0.5,-2 -1.6,-4.1 -1.4,-5 0.8,-3.1 0.5,-5.8 -0.7,-8.7 -1.1,1.9 -2.1,3.6 -2.4,6 -0.4,3.2 -3.3,4.9 -6.1,5.8 -3.5,1.1 -7.2,1.6 -10.9,2.4 -3.3,-0.3 -6.5,-0.7 -9.3,-4.5 2.5,4.5 6,4.2 9.4,4.4 -0.4,1.9 1.2,1.3 1.8,1.2 5.7,-1.4 12.3,-0.9 16.3,-6.8 0.4,2.2 0.1,2.8 -2.4,4.2 -7.5,4.3 -15.6,4.6 -23.8,2.6 -5.3,-1.3 -8.8,-8.8 -6.7,-13.7 1.3,-3 3.1,-5 7.1,-3.6 5.8,2.1 11.7,0.8 17.4,-1.1 1.1,-0.4 2.3,-1.7 2.9,-1.4 1.4,0.6 2.2,-2.5 3.6,-0.1 1.2,1.9 0.2,2.8 -0.9,4.1 3.5,0.6 3.8,-1.3 3.2,-3.8 -0.3,-1 -1.5,-1.9 -1,-2.9 1.4,-3 1.6,-6.1 1.1,-9.2 -0.4,-3 -1.7,-5.9 -1.8,-9.4 -2.4,1.5 -5.5,1.1 -7.4,4.7 2.3,-0.6 3.9,-1 5.5,-1.4 1.4,3 -1.3,3.8 -3.2,5.1 1.4,1.5 3.3,-2.1 4.2,0.6 0.7,2 -0.8,3.2 -2.1,4.4 -4,3.9 -3.9,6.1 -9.4,2.7 2.8,4.8 3.9,4.6 11.2,-1.6 1,1.7 -0.3,3.7 -1.1,3.9 -3.6,0.9 -6.3,4.1 -10.5,3.8 -5.4,-0.5 -10.9,0.8 -16,-2.6 -2.9,-1.9 -5.7,-5.8 -5,-9.3 0.7,-3.6 3.6,-5.5 7.3,-4.6 6.3,1.6 12.5,1 19.6,-0.6 -2.7,-1.7 -4.8,-1.4 -6.7,-0.9 -4.8,1.3 -9.2,0.7 -13.5,-1.8 -2.3,-1.3 -4.2,-2.6 -2.6,-5.9 2.4,-4.9 4.4,-6.6 7.7,-5.3 6.3,2.4 12.4,2.5 18.3,-1.1 0.9,-0.6 2.2,-1.8 3.3,0 0.9,1.4 0.1,2.3 -0.8,3.4 -5.1,5.9 -10.6,10.6 -20,6.3 5,5.2 12.3,3.6 20.8,-3.5 1.3,1 -1.9,2.7 0.1,3.1 1.5,0.3 2.9,-1.4 2.7,-3.1 -0.3,-2.9 1.2,-6 -1,-8.7 -1.2,-1.5 1,-2 1.3,-3.1 0.4,-1.3 2,-2.3 3.1,-3.6 -2,-0.9 -3.6,-0.4 -4.5,1.3 -3.4,6.2 -8.7,6.5 -14.7,4.7 -1.6,-0.5 -3.1,-0.3 -5.3,0 3.5,1 6.5,1.9 9.4,2.7 -4.9,2.5 -9.4,-0.4 -13.9,-1.6 -3.1,-0.8 -3.3,-5.5 -0.4,-7.5 3.7,-2.4 7.1,-5.2 12.3,-2.3 4.2,2.3 8,-1.1 11.8,-2.8 0.9,2.8 -1.5,3.4 -2.7,4.6 4,0.5 6.2,-1.8 5.1,-5.6 -0.4,-1.3 -0.6,-2.2 0.5,-3 2.9,-2.2 4.9,-4.7 2.1,-8.6 1.9,-0.5 2.5,2 3.7,0.9 0.8,-0.7 0,-1.8 -0.3,-2.7 -0.5,-1.6 -0.6,-3.3 0.3,-5 2.2,-4.5 2,-8.8 -2.1,-12.3 2.2,-1.6 5.3,-0.6 7.5,-3.8 -3.3,1 -5.8,1.7 -8.7,2.5 1.3,-4.1 5.8,-4.8 7.6,-9.5 -4.1,2.9 -7.4,4.7 -9.6,8.2 -2.7,-0.9 -2.8,-5 -6.4,-5.9 0.3,2.5 1.6,4.2 3.1,5.4 2.9,2.3 4.3,5.8 7.1,8.1 2.9,2.4 -0.9,4.8 0.6,7.6 -2.5,-1.7 -3.1,-5 -6.6,-4.2 0.9,1 1.9,1.7 2.4,2.7 1,2.3 3.1,4.2 0.3,7.2 -2.2,2.4 -2.4,6.4 -4.4,9.3 -2.7,3.8 -7.4,6.1 -10.5,4.9 -1.7,-0.6 -2.8,-1.5 -1.2,-3.4 1.4,-1.6 3.7,-4.4 2.1,-5.4 -3,-1.9 -2.7,2.3 -3.9,3.8 -3.1,3.7 -6.2,4.5 -9.4,1.5 -4,-3.8 -5.3,-7 -1.3,-11.1 3.3,-3.3 7.1,-5.6 11,-7.8 2.4,-1.4 4.4,-3.1 6.3,-4.9 2.6,-2.5 2.8,-6.6 0.4,-9.1 -0.4,-0.4 -1,-0.8 -1.4,-0.7 -1,0.1 -0.7,1.1 -0.7,1.7 0.7,5.7 -4.2,12 -9.7,12.5 -0.3,0 -0.7,-0.2 -1,-0.4 -0.7,-0.5 -0.2,-0.8 0.1,-1.3 1.9,-3.2 4.9,-5.6 7.5,-8.3 3.5,-3.6 2.7,-6.8 -2.4,-7.5 -5,-0.7 -10,-1.5 -14.8,-2.9 -0.9,-0.3 -1.7,-0.3 -1.9,-1.8 4.3,0 8.6,0 12.8,0 4,0 7.9,0 11.7,1.5 -3.7,-2.6 -7.2,-5 -12.3,-3.5 -2.7,0.8 -5.7,0.4 -8.6,0.3 -5.1,-0.1 -10,0.8 -14.2,4 2.5,-5.5 6.5,-9.5 12.1,-11.4 3.5,-1.2 7,1.4 10.6,1.6 2.1,0.1 4.1,0.4 6.9,0.4 -3.6,-2 -6.8,-2.6 -10.2,-2.5 -1.2,0 -2.6,0.1 -2.8,-1.2 -0.2,-1.2 1.3,-1.5 2.2,-1.7 3.4,-0.6 5.6,-3.4 8.7,-4.8 4.2,-2 8.2,-1.7 12.3,-1.3 5.3,0.5 8.4,0.1 10.7,-3.1 -3.8,2 -7.2,1.9 -10.8,1.1 -4.3,-1 -8.7,-0.4 -12.4,2.5 -0.9,0.7 -1.7,1.1 -2.8,0.5 0.5,-1 2.6,-0.8 2.1,-2.6 0.6,0 1.1,-0.4 1.6,-0.6 -0.5,0.1 -0.9,0.5 -1.4,0.7 -1.8,0.6 -3.6,1 -4.5,3.3 -0.9,2.2 -2.8,3.6 -5.8,3.6 0.7,-4 0.6,-8.1 2.9,-11.6 1.4,-2.2 3.6,-4 6.1,-2.8 3.5,1.7 4.9,-0.5 6.8,-2.4 0.9,-0.9 1.9,-1.8 2.7,-2.8 1.5,-1.7 2.5,-2.8 4.2,0.1 1.4,2.5 3.6,3.3 6.4,0.9 1.1,-1 2.6,-1.8 4.3,-2.4 2,-0.6 3,-0.8 4.1,1.2 1.2,2.2 2.4,3.3 5.3,1.2 6.4,-4.5 6.6,-4.2 11.9,1.6 1.1,1.2 2.6,1.7 3.9,2.4 0.8,0.4 1.4,1.4 2.1,2.1 -0.9,0.7 -1.3,1.9 -2.6,2.1 -6.9,1.2 -11.1,5.3 -12.9,12.1 -1,1.4 -1,1.4 -1.1,3.3 0.9,-0.1 1.1,-1.2 2,-1.3 5.1,5.5 6.7,12.6 9.3,19.2 0.8,2.1 -0.7,3.8 -0.7,5.8 -0.3,12.8 1.6,25.3 2.7,38 0.6,7.2 1.2,14.5 1.7,21.7 0.3,5.1 2.7,9.2 6.5,12.3 3.3,2.7 1.5,4.3 -0.5,6.2 -1.4,1.4 -3.3,2.3 -5.2,2.5 -5.7,0.6 -10.5,3 -14.4,7.1 -0.7,0.7 -1.4,0.9 -2.6,0.6 0.2,-2.3 1.7,-4.1 3.1,-5.4 3.2,-2.9 1.1,-4.6 -1,-6.2 -3.2,-2.6 -6.6,-1.7 -8.4,1.9 2,0.5 3.5,-2.8 5.7,-0.7 0.6,0.5 1.7,0.7 1.5,1.7 -0.1,0.6 -0.9,1.1 -1.7,1 -0.9,-0.1 -1.7,0 -2.6,0 -1,-0.1 -1.6,0.6 -2.1,1.3 -0.2,0.2 0,1 0.2,1.1 0.8,0.4 1.6,0.3 2.4,-0.3 0.5,-0.5 0.9,-1.6 1.9,-0.5 0.9,1.1 0.8,2.1 -0.2,3 -1.5,1.5 -4.1,3.5 -2.4,5.2 1.6,1.7 5.1,1.1 7.2,-0.6 5.2,-4.2 11.7,-5.6 17.5,-8.5 4,-1.9 6.4,-5.6 8.5,-9.5 3.5,-6.7 6.9,-13.4 7.9,-21 0.9,-6.3 2.2,-12.6 2.1,-19 0,-2.3 -1.4,-3.9 -2.1,-5.9 -1,-2.6 -1.3,-5.5 1.5,-6.8 7.4,-3.3 13,-9.1 20.1,-12.8 9.1,-4.8 18.3,-9.3 27.9,-13.1 9.6,-3.7 18.5,-9.2 28.3,-12.3 14.9,-4.8 29.1,-11.8 44.8,-14.5 7.8,-1.3 15.3,-4.4 23.3,-5.3 1.4,-0.2 2.7,-0.8 3.2,0.6 0.6,1.5 -1.3,1.7 -2.1,1.9 -9.1,2.5 -13.8,9.2 -17.3,17.3 -0.9,2 -1.5,4.2 -2.3,6.2 -3.4,8.6 -5.5,17.6 -6.3,26.8 -0.8,9 2,16.7 11.2,20.6 0.5,0.2 0.9,0.6 1.3,1.4 -4.4,-0.4 -8.5,0.7 -13.3,-1 -8.1,-2.8 -16.2,-5.6 -24.9,-6.9 -8.7,-1.3 -17.6,-1.8 -26.3,-3.6 -4.7,-1 -9.7,-1 -14.5,-1.1 -8.7,-0.2 -17.4,0 -26.1,-0.5 9.3,-4 19.2,-0.7 29.8,-3.4 -9.8,-2.1 -18.7,-0.6 -27.5,-0.6 7.9,-5.1 17.4,-1.8 25.7,-5.1 -7.4,-2 -14.6,2.8 -21.7,0.6 8.4,-3.1 17.5,-5.2 26.7,-6.7 -9.2,-0.9 -17.8,2 -26.7,3.9 4.2,-3.3 9,-5.2 14,-6.3 5.2,-1.1 10.6,-0.7 15.8,-2.2 -6.8,-0.9 -13.5,-0.6 -19.9,2.1 -1.4,0.6 -3.8,1.9 -4.2,0.5 -0.7,-2.2 2.2,-2.6 3.7,-3 8.6,-2 16.9,-4.7 24.7,-8.7 4.8,-2.4 9.4,-5.1 14.5,-7.2 4.9,-2 9.9,-3.1 15.1,-3.3 1,0 1.7,-0.3 2,-1.4 -1.2,-1 -2.9,0.2 -4.4,-0.7 6.7,-1.8 13.2,-3.9 20.2,-4.2 -1.1,-1.4 -2.7,-0.2 -3.7,-1 4.1,-2.4 9.3,-2 13.1,-5.3 -2.4,-1.6 -4.7,0.1 -6.7,0.6 -7.9,2.1 -15.7,4.7 -23.5,7.3 -13.7,4.5 -26.6,10.9 -39.8,16.7 -6.6,2.9 -13.4,5.4 -19.5,9.5 -0.8,0.5 -1.1,1 -1.6,1.6 -2.6,3.8 -5.9,6.4 -10.9,5.4 -1.3,-0.2 -2.7,-0.1 -3.4,1.2 -0.5,0.9 0.4,1.6 0.8,2.3 0.9,1.7 2,0.4 3.2,0.1 1,-0.3 2.2,-0.1 3.3,0.2 -3.1,0.7 -6,2.6 -9.3,0.6 -0.5,-0.3 -1.5,-0.2 -1.6,0.8 -0.1,0.9 0.1,1.3 1.1,1.8 2,1.1 3.9,2.3 6.4,1.9 -2.6,0.6 -5.1,1 -7.5,-0.2 -0.9,-0.4 -2.6,-0.4 -3,0.9 -0.4,1.5 1,1.5 2.1,1.7 1.2,0.3 2.4,0.7 3.5,1.4 0.4,0.2 1.6,-0.2 1.2,1 -1.3,-0.6 -0.9,2.5 -2.3,1.2 -2.2,-2.2 -2.8,0 -4,1.1 1.1,1 3,-0.3 3.7,1.5 -0.3,1.1 -1.7,1.6 -2.2,1 -2.1,-2.5 -2.6,1.3 -4.1,0.9 1.7,0.4 0.4,2.9 2.3,3.2 0.6,0.1 1.1,0.8 2.1,1.5 -3.6,0.2 -4.9,-2.6 -7,-4 -1.2,3 0.5,4.7 2.3,6.4 1.6,1.5 4.1,3.1 -0.1,4.9 -1,0.5 -2.3,2.6 -0.9,4.6 1.1,1.6 1.9,3.4 2.8,5.1 1.2,2.2 2,4.2 -1.9,4 -1,-0.1 -1.4,0.3 -1.9,1.2 -3.4,5.8 -7.6,11.4 -6,18.8 0,0.2 -0.2,0.4 -0.4,0.6 -4.8,-2.4 -5.8,-1.9 -7.3,3.7 -0.3,1.2 -0.6,1.5 -1.8,1.7 -3.2,0.7 -4.9,2.1 -1.5,4.9 1.1,0.9 0.1,3.1 2,3.5 1.6,-1.6 -2.2,-4 0.1,-4.7 2.3,-0.7 1.9,3 3.5,4 0.1,0.1 0.3,0 0.6,0 0.1,-0.3 0.3,-0.7 0.5,-1 1.1,-1.5 -3.1,-2.4 -0.6,-3.7 1,-0.5 0.8,2.6 3.6,3.1 -3.7,-5.4 1.5,-7.4 3.1,-10.8 1,-2 1.4,-4.3 2.2,-6.8 3,4.2 2.4,9.3 4.4,13.9 1.3,-6.6 -0.2,-12.1 -4.1,-16.9 -1,-1.3 -0.3,-1.9 0,-3 0.3,-1 1.1,-0.8 1.5,-1.2 1.4,-1.6 1.6,-5 4.1,-4.7 2.3,0.3 3.6,3.3 4.6,5.3 5.4,11.1 9.5,22.7 9.8,35.2 0.1,5.1 -2.3,10 -1.6,15.4 -0.6,-0.3 -1.2,-0.4 -1.3,-0.6 -0.7,-4.2 -3.6,-6.4 -7.3,-6.8 -4.6,-0.5 -9.4,-1 -13.4,2.2 -1.5,1.2 -3.1,2.3 -4.8,3.5 -0.5,-7.4 -1.6,-10.4 -5.3,-13 0.6,4.6 4,8.3 3.1,13.6 -1.7,-3.4 -3.1,-6.2 -4.6,-9.1 -3.3,-6.2 -13.7,-9.2 -19.5,-5.4 -1.2,0.8 -2.1,1.6 -3.1,0.1 -1,-1.5 0.3,-2.7 0.9,-3.8 0.3,-0.5 1.6,-0.9 2.3,-0.7 5.1,1.3 8.9,-2.1 13.2,-3.3 -0.1,0.6 0.3,1 0.6,1.5 0,-0.2 -0.2,-0.4 -0.4,-0.6 -0.2,-0.2 -0.3,-0.5 -0.4,-0.8 0.6,-1.6 2.3,-2.4 2.9,-4.1 1,-2.9 0.7,-3.7 -2.8,-5 -0.6,0.8 0.1,1.3 0.5,1.8 1.4,1.9 2.1,2.8 -1.4,2.7 -2.4,-0.1 -4.5,2.2 -6.9,3.2 -2.3,0.9 -4.3,1.5 -6.7,1.7 -2.3,0.2 -7.8,8.1 -7.3,10.5 0.4,2 2.4,2.2 4.1,1.9 2.7,-0.5 5.2,-1.5 5.4,2.8 0.1,1.8 1.6,1.2 2.5,0.6 1.2,-0.8 1.8,-2.2 4.4,-2.5 -2.8,-0.8 -4.6,1.2 -6.1,-2.2 -1.5,-3.4 0.7,-3.1 1.9,-3.4 4,-1 11.7,2.7 13.7,6.4 1.2,2.2 2.9,4 3.6,6.6 1.1,4.1 4.2,4.8 7.2,1.7 4.4,-4.7 9.5,-5.7 15.7,-4.4 4.6,0.9 5.8,3.7 6.6,7.5 0.6,2.9 2.2,3.9 4.9,2 1.6,-1.1 3.7,-1.4 4.9,-3.2 0.8,-1.2 2.1,-1.2 3.1,-0.9 6.1,2.4 12.2,4.6 17.3,9 11.9,10.3 22.6,21.8 33.6,32.9 3.3,3.3 4.1,9.4 4.6,14.6 0.3,3.9 3.4,7.2 2.7,11.4 0,0.2 0.6,0.6 0.9,0.6 0.7,-0.1 0.7,-0.7 0.7,-1.3 0,-1.2 -1.6,-2.2 -0.4,-3.8 2.2,3.8 3.5,7.8 4.3,12 1.3,7.1 3.7,14 3,21.3 -1.4,15.7 -6.4,30.1 -18.4,40.8 -6,5.4 -13.6,8.3 -22,9.4 -8.7,1.2 -16.4,-0.6 -23.7,-4.9 -7.7,-4.5 -11.5,-12 -13,-20.4 -3,-16.4 3.8,-29.1 16.2,-39.6 3.8,-3.3 8.2,-5.7 11.6,-9.5 0.3,0.3 0.5,0.6 0.8,0.9 -3.2,3.1 -6.5,6.1 -9.7,9.2 0.3,0.3 0.5,0.6 0.8,0.9 3.9,-3.3 7.7,-6.9 12.3,-9.3 -2,3.4 -4.9,5.8 -8.4,8.8 5.5,-0.9 7.9,-5.8 13.2,-7.1 -2.5,3.5 -5.8,4.6 -8.3,7.1 3.9,0.6 5.4,-3.5 9.4,-3.9 -3,2.8 -6,4.5 -8.4,7 -8.3,8.5 -11.3,18.7 -10.4,30.2 0.6,7.3 7.3,13.8 14.8,14.8 -2.7,2.8 -4.8,6.2 -9.2,2.6 -1.3,-1 -2.9,0.4 -4.4,0.6 -0.1,-1.4 1.9,-1.7 1.2,-3 -0.2,-0.3 -1.1,-0.5 -1.5,-0.4 -1.8,0.5 -0.2,2.4 -1.4,3.3 -2.6,-2.3 -0.9,-4.9 -0.5,-7.5 -2.2,-0.5 -1.7,2.6 -3.4,2.5 -1.5,-2.2 -0.4,-5.2 -2.8,-6.8 -0.1,0.2 -0.3,1 0,1.6 1.7,3.2 0.9,5.3 -3,6.2 2.1,-0.7 3.6,-2.6 5.9,-1.1 -1.5,2.4 0.1,5.4 -1.3,7.8 -0.5,0.9 -1,2.2 0.2,2.5 0.7,0.2 2.1,-0.7 2.7,-1.4 0.4,-0.5 0.2,-1.6 0.3,-2.9 0.8,1.8 1.7,2.8 3.2,3.1 2,0.4 3.2,1.3 2.8,3.7 -0.2,1.1 0.6,1.9 1.8,2 0.5,0.1 1.5,-0.2 1.5,-0.4 0.1,-0.7 0.1,-1.4 -0.6,-2.2 -0.8,-0.9 -0.5,-2 1.3,-2.6 6.5,-2.4 11.7,-6.8 16.3,-11.9 5.4,6.8 11.3,6.8 17.1,-0.3 -2.8,1.1 -5.3,1.9 -7.6,3 -1.6,0.8 -3.5,1.3 -4.1,-0.4 -1,-2.4 -4.3,-3.7 -3.4,-7 0.9,-3.2 1.5,-6.5 2.3,-9.7 3.2,3.7 8.6,4.9 13.5,3 2.7,-1.1 5.4,-7.1 4.9,-11.2 -1.6,1.7 -2.5,3.6 -3,5.6 -0.7,2.8 -2.3,4.8 -5.1,4.7 -3,-0.1 -6.2,-0.5 -8,-3.5 -2.4,-4.1 -3,-6.1 -3.4,-11.9 2.9,2.6 6.3,3.4 9.4,2.3 3.1,-1.1 6.2,-2.1 8.9,-4.5 2.2,-1.9 4.2,-4 6.3,-5.9 0.5,-0.5 1.1,-1.9 1,-2.1 -0.9,-0.8 -1.8,-0.4 -2.6,0.4 -1.9,2 -3.9,4 -5.9,5.9 -1.5,1.3 -3.3,2.2 -5.1,3 -5.2,2.3 -9.9,0.3 -12.1,-5.1 -0.9,-2.2 -1.9,-4.3 -3,-6.7 4.7,1.2 9.1,1.3 12.7,-0.6 4.6,-2.4 3,-7.5 2.9,-11.7 -0.4,2.3 -3.8,3.7 -1.9,7 0.4,0.7 -0.9,2.5 -2.4,3.2 -2.9,1.3 -5.8,0.9 -9.9,0.7 3.1,-1.1 5.6,-1.1 7.8,-2.9 -1.7,-0.5 -2.7,-0.6 -4,0.3 -2,1.4 -5,1.6 -6.1,-0.2 -1.3,-2.4 -2.3,-5.9 1.9,-7.4 0.6,-0.2 1.1,-0.2 1.1,-1 0.8,-0.8 1.9,-1.3 2.8,-2 3.8,-3.4 3.8,-3.4 7.6,0.4 -0.5,-2.4 -2.6,-3.6 -2.8,-5.9 -2.2,3 -4.8,5.4 -7.5,7.6 -1.9,0 -3.8,-0.1 -5.6,-0.1 -5,0 -8.4,-2.3 -10.4,-6.8 -0.9,-1.9 -0.6,-3.3 1.4,-3.6 5.7,-0.7 8.8,-5 12.3,-8.7 2.1,-2.2 0.7,-5.9 -2.5,-7.7 2.1,5.2 0.8,8.2 -5.5,12.3 -4.6,3 -13,2.8 -16.1,-0.3 -1.8,-1.8 -1.6,-2.5 0.7,-3.6 3.9,-1.9 7.4,-4.5 9.3,-8.9 0.8,-1.9 3.9,-1.8 4.3,-4.8 -3.5,-0.1 -4.7,2.3 -6.2,4.7 -2.5,4.1 -6.6,6.5 -10.6,8.8 -1.1,0.6 -2.7,0.7 -4.9,-1 8.9,-1.6 14,-6.1 14.7,-14.8 -1.4,0.5 -1.1,2.3 -2.1,3 -1.3,0.9 -1.2,2.2 -1.5,3.4 -1.4,4.5 -6,4.1 -9.1,6 -0.6,0.4 -1.7,0.1 -2.3,0.9 -1.3,1.9 -2.6,3.8 -5.2,1.6 -1.5,-1.2 -3.6,-1.4 -4.3,-4 -1,-3.6 -4.8,-3.9 -7.8,-4.5 -3.6,-0.7 -6,-1.7 -3.7,-6.5 -1.8,0.8 -3.4,0.9 -2.3,3 0.4,0.7 0.7,1.5 -0.4,1.6 -1,0.2 -1,-0.8 -1,-1.5 0,-1.8 0.4,-3.9 -2.8,-3.3 -0.9,0.2 -0.8,-0.6 0.2,-2.7 2.5,-5.2 5.1,-10.4 1.7,-16.3 -0.6,-1 -0.8,-2.4 -2.1,-2.1 -1.1,0.3 -0.8,2 -0.5,2.7 3.2,6 0.8,11.4 -1.3,16.9 -0.3,0.7 0.8,0.4 1.5,3.2 0.8,3.1 3.5,6 2,9.7 -2.1,5.4 -2.6,11 -2.4,16.7 0.4,13.9 -2.3,27.7 -2.1,41.7 0.1,4.4 0.1,9.3 -1.3,13.9 -0.8,2.5 -0.6,5.5 2.3,7.3 2.4,1.5 4.6,0.7 6.6,-1.4 -0.9,2.6 -2.9,4.8 0.7,6.7 -2.4,1.2 -4.5,0.1 -6.6,1.1 -1.5,0.7 -2.5,-1.2 -3.2,-2.6 -0.6,-1.4 -1.6,-1.7 -2.3,-0.1 -0.4,0.8 1,3.4 -1.5,1.8 -0.8,-0.5 -5.6,0.2 -2.4,-3.5 0.6,-0.7 -0.1,-1.4 -0.7,-1.7 -1.3,-0.7 -1.8,0.8 -2.1,1.3 -2,3.8 -3.6,7.8 -5.8,11.5 -0.8,1.3 -1.9,2.6 -2,4.1 -0.3,3.8 -2.2,3.5 -4.7,2.2 -2.2,-1.2 -4.7,0.1 -8.1,-1.2 2.5,-1.2 4.1,-2.2 5.8,-2.8 6.5,-2.4 7.3,-9.1 10.8,-13.8 0.2,-0.3 -0.1,-1.4 -0.3,-1.5 -1.2,-0.4 -2.5,0.5 -2.9,1.1 -2.1,3.2 -5.4,4.7 -8.6,6.4 -5.1,2.7 -11.1,3.7 -16.3,7.4 -0.6,-2.7 -0.8,-5.3 -3,-6.9 -0.6,-0.4 -0.8,-0.9 -0.2,-1.7 1.5,-1.8 3.6,-2.1 5,-1 3.2,2.5 6.7,1.1 8.9,-0.1 3.9,-2.3 7.9,-4.6 11.4,-7.7 3.3,-3 5.1,-7.7 8.1,-9.8 4.8,-3.5 4.9,-7.2 4.8,-12.4 -1.3,3.4 -2.4,6.3 -3.6,9.4 -2.4,-2.2 -1.8,-5.1 -1.4,-7.5 0.5,-2.8 0.7,-5.6 0.7,-8.5 0,-0.8 -0.3,-1.8 1,-2 1.5,-0.2 1.6,0.7 1.7,1.8 0.1,0.8 0.6,1.6 0.8,2.4 0.2,1.3 1.3,1.1 2,0.9 0.9,-0.3 0.6,-1 0.2,-1.7 -2.3,-4.1 -0.9,-8.3 0.2,-12.2 0.6,-2.1 -2.3,-3.9 0.1,-5.9 -1.3,1.5 -5.8,0.7 -2.8,4.8 1.3,1.7 0.1,4.4 -0.7,6.6 -0.5,1.4 -1.7,0.9 -2.5,0.4 -1.5,-1.1 -2.8,-3 -1.5,-4.4 2.3,-2.4 2.5,-3.3 -0.7,-5 -2.4,-1.2 -1.3,-5.1 1.5,-5.8 1.4,-0.3 2.9,-0.1 3.3,-2.6 -6.5,3.2 -7.1,-3 -8.3,-5.9 -2,-4.9 4,-4.5 6.7,-6.7 -0.7,-0.3 -1.2,-0.6 -1.4,-0.5 -3.6,2.2 -6.1,1.3 -8.4,-2.2 -1.8,-2.8 -4.4,-5.2 -1.3,-8.8 0.3,-0.3 0.5,-4.1 -1.7,-5.7 -2.1,-1.5 -3.8,-3.4 -6.8,-6 6.2,0.2 10.8,-0.6 14.1,-4.4 -4.6,2.3 -9.3,3.8 -14.4,1.1 1.8,0 3.5,0 5.3,0 -3.7,-1.6 -7.2,-3.1 -5,-8.2 4.2,-1.1 8,-2.9 9.3,-5.4 -1.2,2.6 -5.2,4 -9.2,5.5 -3.6,1.8 -4,4.5 -1.7,7.8 -1.9,0 -3.9,1 -4.9,-1.1 -1.2,-2.8 0.6,-4.8 2.9,-6.6 -3.2,-1.7 -6.3,0.3 -8.7,-1.6 -2.4,-1.9 -2.4,-4.9 -3.5,-7.5 -1.8,0.6 -2.6,1.8 -1.3,3.5 1.2,1.6 -0.6,2.5 -1,2.5 -1.4,0 -3.2,0.1 -4,-1.3 -1,-1.6 0.4,-1.5 1.4,-1.6 0.5,0 0.8,-0.3 0.4,-0.8 -0.3,-0.3 -0.7,-0.8 -0.9,-0.8 -1.5,0.1 -2.5,1 -2.4,2.6 0.2,3.2 3.2,5.2 6.2,4.3 4.8,-1.4 8.1,2.1 7.9,8.5 -1.9,-1.4 -3.6,-2.8 -5.5,-4 -0.5,-0.3 -1.4,-1.4 -2,-0.5 -0.6,0.9 -0.1,1.6 1.1,2.2 2.4,1.3 4.6,3.2 6.9,4.8 0.8,0.5 2.6,0.5 1.6,2 -0.9,1.3 -2.5,1.5 -3.5,0 -0.6,-0.8 -1,-1.6 -2.4,-2 0.8,2.3 1.9,3.9 3.9,4.5 1.2,0.3 2.6,0.1 1.3,1.9 -0.7,0.9 -1.4,2.2 -2.9,0.5 -1.1,-1.2 -2.7,-2 -4,-2.9 1.2,3.7 4.1,5.3 8.3,4.1 -0.6,2.6 1.5,5.8 -1.6,7.8 1.4,0.6 1.9,2.3 1.7,4.6 -0.4,6.7 -0.7,13.4 -0.8,20.1 0,1.7 -1.4,2.5 -1.7,3.8 -0.2,0.8 -0.9,2.4 1,2.7 1.6,0.2 1.2,-1 1.6,-1.9 1.2,-3.1 1.8,-6.2 1.7,-9.5 0,-1.4 0.5,-1.8 1.8,-1.6 z"
   class="st0" />
		<path
   id="path12822"
   d="m 151.2,132.7 c -0.8,-5.5 -5.8,-7.9 -8.5,-12.2 8,6.2 17.6,9.3 26.1,14.6 10,6.2 19.5,13 29.3,19.5 7.3,4.9 14.1,11.2 17.8,19.8 0.6,1.3 1.3,3.1 2.9,2.3 1.9,-0.9 0.7,-2.5 0.1,-3.9 -3.2,-6.8 -8.6,-12.1 -14.4,-16.4 -14.4,-10.9 -28.8,-21.9 -45.5,-29.3 -7.6,-3.4 -14.8,-7.2 -20.5,-13.4 2.8,-1.4 5,1.6 7.8,1.6 0,-2.2 -2.3,-1.5 -2.8,-3.2 1.3,-1.1 3.2,0.3 4.6,-0.7 -0.6,-1.1 -1.9,0 -3.5,-1.7 11.1,1.5 19.8,7.1 29.7,9.1 -3.9,-1.8 -7.7,-3.7 -11.7,-5.2 -5,-1.9 -10,-4.2 -15.4,-5.2 -0.5,-0.1 -1.2,0.1 -1.4,-0.7 -0.2,-0.7 0.4,-0.8 0.9,-1.1 2.5,-1.6 -1.8,-0.3 -0.2,-1.8 4.2,1 8.8,2.8 13.9,1.4 -4.8,-1.4 -9.5,-1.7 -14.7,-2.5 1.5,-1.7 3.1,-2.4 5.1,-2.4 8.4,0 16.8,-0.4 25.2,0.1 11.5,0.6 22.9,1.9 34.5,3.2 -3.9,-0.1 -7.7,0.6 -11.4,1.7 4.3,-0.2 8.4,0.6 12.8,-0.5 4.1,-1.1 8.4,0.4 13.7,1.2 -4.6,0.7 -8.3,-0.3 -11.7,2 3.9,0.7 7.7,-0.8 11.6,-0.6 3.2,0.2 6,0.8 8.8,2 3,1.4 3,1.5 0.3,3.8 2.7,0.8 4.5,-2.8 7.2,-1.3 -0.5,1.2 -1,2.4 -1.5,3.6 2.1,-1.7 4.3,-2.5 7.2,-2.6 -4.1,7.9 -10,14.6 -12.7,22.9 -2.6,8.1 -5.5,16.2 -7.3,24.6 -1.9,8.7 1.1,17.1 1,25.7 -1.6,-4.1 -4.9,-5.8 -8.4,-6.7 -7,-1.9 -14.1,-3.1 -21.4,-2.7 -10,0.6 -19.7,2.5 -29.3,5.4 -6.8,2.1 -13,4.8 -17.9,11 -1.3,-4.8 0.5,-8 1.3,-11.3 2.7,-12.2 -1.3,-23.4 -5.7,-34.4 -2.1,-5.4 -4.7,-10.7 -8.1,-15.6 -0.7,-1 -0.1,-2.8 0.3,-4.5 3.4,8.2 8.3,15.5 13.9,22.3 -1.3,-4.8 -4.1,-8.6 -7.5,-12.3 2,1.5 4.4,2.2 5.7,4.6 -0.1,-4.6 -5.4,-6 -6.4,-10.2 2.1,0 2.4,1.9 4.6,1.6 -3.4,-3.4 -6.8,-6.9 -10.3,-10.2 -0.9,-0.9 -3.2,-0.9 -1.7,-2.9 1.4,-1.9 2.4,0.6 2.9,1 3.9,3.3 8.1,6 10.7,10.5 z"
   class="st0" />
		<path
   id="path12824"
   d="m 116.1,130.6 c 3.4,-1.6 3.1,-5.6 5.7,-8.8 -1.8,9.4 -5.3,17.2 -10.2,24.5 -3.5,-3.4 -7.7,-6.3 -7.4,-12.1 0.1,-1 -0.3,-2 0.7,-2.8 5,-3.5 5.4,-9.3 7,-14.4 2.3,-7.4 2.9,-15 2.8,-22.7 -0.1,-3.9 -0.8,-7.1 -3.9,-9.4 -3.3,-2.4 -1.5,-4.4 0.6,-5.9 4,-2.9 7.6,-6.2 12.3,-8.1 7.7,-3.2 15.4,-6.5 23,-10 12.7,-5.8 26,-9.7 39,-14.6 15.5,-5.8 31.4,-10.4 46.8,-16.4 3.1,-1.2 6.4,-3 10.3,-2.3 -21.4,10.8 -44,18 -66.3,25.8 0.1,0.4 0.3,0.8 0.4,1.2 14.3,-5 28.6,-10.1 43,-15.1 -0.9,3.2 -2.1,3.7 -7.6,5.4 -6.5,1.9 -13.3,2.8 -19.5,6 -0.6,0.3 -1,0.5 -0.7,1.2 -11.7,3.8 -23,8.7 -29.9,11.4 6.8,-2.9 18.2,-7.3 29.7,-11.5 8.8,-2 17.5,-4.7 26,-7.6 0.7,-0.2 1,-0.2 2.7,0.7 -16.5,7 -33.8,9.4 -48.2,19.1 13.7,-6 27.5,-11.7 42.4,-14.3 -3.8,1.2 -7.7,2.4 -11.4,3.8 -17.7,6.5 -35.1,14 -52.3,21.7 -7.7,3.4 -14.1,9 -21.1,13.6 -2.3,1.5 -4.8,2.9 -7.1,4.4 -2.1,1.4 -3.1,3.5 -3.1,5.9 0,9.9 -0.8,13.4 -5.7,23 -0.8,1.5 0.2,3.4 -1.2,4.8 4.7,-5.7 5.5,-13.1 9.4,-20.3 0.1,8.2 -1.2,14.9 -5,20.9 -0.7,1 -0.9,2 -1.1,3.1 -0.9,1.7 -1.9,3.2 -3.3,4.4 -0.1,0.2 -0.3,0.3 -0.6,0.2 0.5,0.4 0.5,-0.3 0.8,-0.3 1.3,-1.4 2.5,-2.7 3,-4.5 z"
   class="st0" />
		<path
   id="path12826"
   d="m 238.5,225.9 c -8.9,3.1 -18.4,1.7 -23.1,-3.9 12.5,0.9 19.1,-7.7 25.8,-15.7 6.6,-7.8 10.3,-17.3 14.6,-27.7 0.9,8.5 -0.7,15.6 -2.1,22.6 -1.5,7.7 -3.5,15.3 -4,23.2 -0.4,7 -1,13.7 1,20.6 0.7,2.5 1.6,4.8 3.3,6.7 0.8,0.9 1.7,1.9 0.9,2.9 -0.7,0.9 -2.1,0.6 -3.2,0 -4.2,-2.4 -7.5,-5.9 -8.4,-10.5 -0.9,-4.5 -2.6,-9 -2,-13.8 -1.5,0 -2.2,1 -2.5,2 -2.5,7.5 -8.5,11.7 -14.5,15.7 -0.9,0.6 -2.2,1.5 -3.7,-0.1 -1.8,-1.9 -3,-4.1 -3.1,-6.5 -0.1,-1 1.6,-2.2 3.4,-2 2.4,0.2 4.2,-1.9 5.4,-3 3.9,-3.8 8.1,-7 12.2,-10.5 z"
   class="st0" />
		<path
   id="path12828"
   d="m 180.3,310.1 c -1.3,-1.1 -2.2,-2.1 -3.3,-2.7 -1.6,-0.9 -4.5,-0.2 -4.9,-2.3 -0.5,-2.9 -0.5,-6.1 0.1,-9 1.9,-8.1 5.6,-15.1 12.3,-20.5 2.9,-2.4 3.9,-0.8 4.4,1.3 1.9,8.9 5.8,17.5 4.6,26.8 -0.5,4.3 -1.2,8.7 -2.9,12.5 -1.1,2.6 -3.8,5.3 -7.5,4.7 -4,-0.6 -6.7,-3.4 -9.2,-6.3 -0.9,-1 0.3,-1.3 1.1,-1.6 1.6,-0.8 3.1,-1.7 5.3,-2.9 z"
   class="st0" />
		<path
   id="path12830"
   d="m 112.7,311.3 c -1.5,-4.2 -6.1,-4 -9,-6.4 -1.9,-1.5 -4.4,0.3 -5.8,2.1 -1.6,2 -2.8,0.2 -4,-0.3 -1.5,-0.7 -0.7,-1.7 -0.1,-2.8 3.7,-7.1 5.1,-14.9 7,-22.5 1.8,-7.2 2.4,-14.8 5.8,-21.6 0.6,-1.2 0.2,-2.8 0.4,-4.5 1.8,0.8 2.7,1.9 2.5,3.9 -0.4,2.6 0.4,5 1.7,7.2 1.5,2.5 1.7,5 2.1,7.9 0.5,4.2 0.7,8.8 2.7,12.8 0.8,1.6 0.8,3.3 0.4,4.6 -2.1,6.3 0.9,13.3 -3.7,19.6 z"
   class="st0" />
		<path
   id="path12832"
   d="m 97.1,247.3 c -1.5,-3.8 0.4,-7.9 -2.4,-10.9 -0.6,-0.7 0.5,-1.9 1.6,-2.1 0.8,-0.2 1.4,0 1.9,1.1 1.3,2.6 2.9,5.1 4.6,7.5 1.1,1.4 -0.2,2.3 -0.6,3 -1,1.9 -2.8,3.5 0.5,4.8 0.3,0.1 0.6,0.9 0.5,1.1 -0.3,0.5 -0.9,0.9 -1.4,1.4 -1.7,-2.7 -3.7,2.4 -5.2,-0.1 -0.6,-1 -1,-2.9 1.2,-3.4 0.4,-0.1 0.7,-0.5 0.9,-0.9 1.1,-1.2 1.9,-2.5 1.9,-4.1 0,-0.3 -0.6,-0.8 -0.7,-0.8 -1.5,0.4 -1.2,2.3 -2.8,3.4 z"
   class="st0" />
		<path
   id="path12834"
   d="m 74.1,304.5 c -3.5,2.1 -6.5,2.5 -9.5,3.3 -2.1,0.5 -4.1,0.3 -5.6,-1.6 -1.7,-2.1 -0.5,-4.1 0.1,-6 0.6,-1.8 2.1,-1.1 2.9,0 3,3.8 7,4.7 12.1,4.3 z"
   class="st0" />
		<path
   id="path12836"
   d="m 96.4,265.5 c -0.2,-1.3 -0.5,-2.7 -0.8,-4.5 3.3,4.1 3.5,-0.1 5,-1.1 -1.3,-1.3 -2,1.2 -3.1,0.2 -1.1,-1 -2,-2.3 -1.8,-3.6 0.3,-2 1.9,-0.5 3,-0.6 5.1,-0.7 5.6,0 4,4.8 -0.4,1.2 -1,2.4 -1,3.6 0,1.4 -0.8,2.4 -1.2,3.6 -1.6,-0.3 -2.1,-2.8 -4.2,-2.4 0,-0.1 0.1,0 0.1,0 z"
   class="st0" />
		<path
   id="path12838"
   d="m 141.3,321.6 c 2.1,1.7 3.9,3.3 5.1,5.6 1.1,2.3 -0.7,3.6 -1.5,5.3 -0.4,0.9 -1.1,0 -1.1,-0.1 0,-3.1 -3,-4.3 -4.3,-6.6 -1.4,-2.6 1,-2.7 1.8,-4.2 z"
   class="st0" />
		<path
   id="path12840"
   d="m 73.5,211.3 c -5.5,7.8 -7.6,9 -12.6,0.3 4.1,1.2 8,1.2 12.6,-0.3 z"
   class="st0" />
		<path
   id="path12842"
   d="m 76.3,343.8 c -2,-5.3 -0.9,-9.4 2.6,-11 1.6,-0.8 3.3,-1 4.1,0.7 0.9,2.1 -1.5,2 -2.5,2.2 -3.9,1.2 -4.3,4.2 -4.2,8.1 z"
   class="st0" />
		<path
   id="path12844"
   d="m 36.4,318.4 c 0.6,-5.2 3,-7.6 6.4,-9.3 1,-0.5 1.9,-0.3 2.7,0.5 0.7,0.7 0.6,1.6 0.5,2.4 -0.4,2.1 -1.3,-0.1 -2.1,0.2 -2.9,1.1 -5.5,2.4 -7.5,6.2 z"
   class="st0" />
		<path
   id="path12846"
   d="m 106,343.1 c -1,3.3 -4.8,5.1 -4.4,9.6 -3.4,-6.3 -1.7,-9.6 4.4,-9.6 z"
   class="st0" />
		<path
   id="path12848"
   d="m 196.7,214.8 c -1,-1.4 -3.6,-1.7 -2.7,-4 0.7,-2 3.8,-3.4 6.7,-3.1 -1.9,2.2 -3.6,4.3 -4,7.1 z"
   class="st0" />
		<path
   id="path12850"
   d="m 56.7,321.2 c 1,1.3 2,2.5 3,3.8 -3.1,0.2 -4.1,3.1 -6.6,4.5 -0.9,-3.9 2.8,-5.5 3.6,-8.3 z"
   class="st0" />
		<path
   id="path12852"
   d="m 48.7,305.9 c 1.6,-2 3.2,-3.8 5.5,-4.7 1,-0.4 2.1,-0.3 2.6,0.8 0.2,0.6 -0.4,2.1 -0.5,2.1 -2.7,-0.4 -4.5,3 -7.6,1.8 z"
   class="st0" />
		<path
   id="path12854"
   d="m 107.6,308 c 1,1.4 2,2.8 3,4.2 0.3,0.5 0.7,0.9 1,1.3 0,0 -0.3,0.4 -0.4,0.4 -1.2,0 -0.8,2.2 -2.4,1.8 -1.1,-0.3 -1.8,-0.8 -1.9,-1.9 -0.2,-1.7 0.2,-3.4 -0.6,-5 0.4,-0.2 0.9,-0.5 1.3,-0.8 z"
   class="st0" />
		<path
   id="path12856"
   d="m 175.6,197.4 c -2.1,-2.2 -5.4,-2.8 -5,-4.5 0.5,-2.3 3.9,-1 6.2,-2.8 -0.3,2.7 -2,4.3 -1.2,7.3 z"
   class="st0" />
		<path
   id="path12858"
   d="m 102.7,119.1 c 1.8,1.2 5,0.8 4.9,3.9 0,1.3 -1.1,1.9 -2.5,1.8 -0.8,0 -1.9,0.2 -1.8,-1.2 0.2,-1.5 -0.2,-3 -0.6,-4.5 z"
   class="st0" />
		<path
   id="path12860"
   d="m 88.6,50.2 c 0.1,0.9 -0.2,1.8 -1,2.1 -1,0.5 -0.5,2.7 -2.1,1.9 -0.9,-0.5 -0.6,-1.7 0.2,-2.6 0.4,-0.5 0.3,-1 -0.1,-1.5 -0.5,-0.7 -1.8,-1.1 -0.5,-2.2 1.1,-1.1 1.7,0.4 2.6,0.4 0.3,0.6 0.6,1.3 0.9,1.9 z"
   class="st1" />
		<path
   id="path12862"
   d="m 106.7,71.4 c -1.7,0.6 -3.4,1.1 -5.1,1.7 -0.9,0.4 -1.7,0.8 -1.8,-0.6 -0.1,-0.8 -0.7,-2.3 0.8,-2.4 2.1,0.1 4.4,-0.8 6.1,1.3 z"
   class="st0" />
		<path
   id="path12864"
   d="m 227.8,270.2 c 1.4,1.4 2.8,2.9 4.1,4.3 -3.8,1.5 -4.5,0.8 -4.1,-4.3 z"
   class="st0" />
		<path
   id="path12866"
   d="m 100.9,93.4 c 2.1,0.8 3.8,1.4 4.7,3.2 -1.4,1 -3,2 -4.4,1.1 -1.2,-0.7 -0.5,-2.6 -0.3,-4.3 z"
   class="st0" />
		<path
   id="path12868"
   d="m 98.8,51.3 c -4.1,2.8 -4.1,2.8 -6.8,-0.3 2.4,0.5 4.3,-2.4 6.8,0.3 z"
   class="st0" />
		<path
   id="path12870"
   d="m 225.3,314.7 c -1.7,-2.2 -1.8,-4.2 -0.2,-6.3 2.2,1.9 1.7,4 0.2,6.3 z"
   class="st0" />
		<path
   id="path12872"
   d="m 218.1,234.6 c -0.8,1.9 -1.8,2.8 -3.4,1.9 -0.5,-0.3 -0.9,-1.7 -0.8,-1.8 1.2,-0.9 2.6,-0.6 4.2,-0.1 z"
   class="st0" />
		<path
   id="path12874"
   d="m 173.4,308.9 c 1.4,-0.2 2.4,0.3 2.5,1.3 0,0.3 -1.3,1 -2,1.2 -1,0.2 -1.7,-0.6 -1.8,-1.4 -0.4,-1.5 0.9,-1 1.3,-1.1 z"
   class="st0" />
		<path
   id="path12876"
   d="m 97.8,268.1 c 0.6,0 1.3,0.1 1.1,0.9 -0.2,0.6 -0.7,1.2 -1.2,1.6 -0.5,0.4 -1.1,0.2 -1.2,-0.5 -0.2,-1.1 0.7,-1.5 1.3,-2 z"
   class="st0" />
		<path
   id="path12878"
   d="m 106.8,125.2 c -0.1,2.5 -1.5,2.9 -2.2,4 -1.3,-2.8 0.9,-2.5 2.2,-4 z"
   class="st0" />
		<path
   id="path12880"
   d="m 191.9,332.4 c 5.8,-0.3 8.4,-5.4 12.9,-7.5 -1.4,1.5 -2.7,2.9 -4.5,4.8 11.2,-4.6 19.6,-23.5 21.1,-39.7 -3.2,1 -5.3,4.2 -9,4 0.1,-2.5 2,-3.6 3.5,-5.2 0.2,0.9 0.4,1.6 0.5,2.2 1.2,0.5 5.9,-5.6 6.2,-8.6 2.4,3.7 1.6,7.3 1.2,10.4 -1.4,11.3 -6.2,21.4 -13,30.4 -4.1,5.4 -9.9,8.8 -16.6,10.6 -0.8,0.4 -1.5,-0.1 -2.3,-1.4 z"
   class="st1" />
		<path
   id="path12882"
   d="m 51.4,192.2 c 6.5,-2.5 13.2,-3.4 19.6,-5.3 -8,1.8 -16,1.9 -23.8,-1 0.8,-0.6 2.1,-0.3 2.9,-1.4 1.8,-2.4 3.1,-2 3.2,1 0,0.8 0.3,1 0.9,0.9 5.2,-1.9 10.9,0.8 16,-1.7 2.3,-1.1 3.7,-3 4.4,-5.4 0.3,-1.1 0.7,-3.5 -1.9,-1.7 -0.5,-1.5 -1.4,-2.9 -1.5,-4.4 -0.1,-0.9 1.1,-1.9 1.8,-2.7 0.2,-0.3 0.8,-0.5 1.1,-0.4 0.3,0.1 0.6,0.8 0.5,0.9 -1.7,2.4 0.4,3.1 1.8,4.2 2.3,2 2,4.4 1.2,7.2 -2.2,7.2 -8.5,7.9 -14.3,9.2 -3.8,0.8 -7.6,1.5 -11.9,0.6 z"
   class="st1" />
		<path
   id="path12884"
   d="m 129.2,223.6 c 2.5,4 -0.6,5.9 -2.6,7.9 -1.4,1.5 -2.9,3.1 -5,4.1 -1.8,0.8 -3.1,2.8 -2.5,5.6 2.9,-3.1 6.5,-4.8 10.2,-7.5 -0.1,2.8 -2.1,3.2 -3.1,3.7 -4.5,2.1 -5.3,5.7 -4.7,9.9 0.8,5.2 1.9,10.5 3.1,15.6 1,3.8 -0.6,6.3 -4.1,9.4 2.4,-5 1,-8.9 0.6,-12.9 -0.5,-4.2 -1.7,-8.2 -2.2,-12.4 -0.7,-5.6 -0.9,-5.9 -6.1,-4.2 -3.6,1.2 -3.6,1.2 -4.2,-2.4 4.2,2 7.7,1.1 9.2,-3.3 1.2,-3.3 4.7,-2.9 6.5,-5.2 2.2,-2.5 4.3,-4.9 4.9,-8.3 z"
   class="st1" />
		<path
   id="path12886"
   d="m 84.5,64.8 c 1.4,-4 3.8,-3.9 5.7,-4.1 2.2,-0.2 1.9,2.3 2.3,3.5 3,10.3 2.6,20.8 1.5,31.3 -0.3,2.8 -1,5.6 -1.1,8.4 -0.1,3.6 -1.8,4.8 -5.4,4.1 4.9,-4.5 4.3,-10.1 3.7,-15.8 -0.3,-2.8 0.8,-5.5 1,-8.4 0.2,-3.7 1.1,-7 -2.3,-9.6 -0.8,-0.6 0.2,-0.9 0.5,-1.2 1.4,-2.1 0.9,-4.5 0.5,-6.6 -0.5,-3.1 -2.5,-4.3 -6.4,-1.6 z"
   class="st1" />
		<path
   id="path12888"
   d="m 72.4,50.8 c 0.5,-0.7 1.1,-1.5 2,-2.7 0,2.8 0,5 -1.1,7.2 -0.3,-0.8 -0.5,-1.6 -0.8,-2.4 -3.6,4.7 -7.6,5.5 -12.8,2.5 -3.1,-1.8 -3.6,-5.3 -1.1,-7.9 3.6,-3.6 9.2,-4.8 13.8,3.3 z"
   class="st1" />
		<path
   id="path12890"
   d="m 79.5,307.9 c 0.4,-1 0.4,-1.9 1.5,-2.7 4.3,-3 6.5,-7.4 6.6,-12.6 0,-3.8 3.5,-6.7 2.7,-10.6 -0.1,-0.7 0.5,-1 1.1,-0.7 0.6,0.3 1.4,0.6 1,1.5 -2.3,6.3 -1.7,13.4 -5.9,19.4 -1.9,2.7 -4.6,3.7 -7,5.7 z"
   class="st1" />
		<path
   id="path12892"
   d="m 149.2,238.4 c 8.7,-1.5 9.8,-8.7 11.9,-15.4 4.3,3.6 0.3,6.6 -0.9,9.4 -2.2,4.9 -6.8,7.3 -11,6 z"
   class="st1" />
		<path
   id="path12894"
   d="m 194.5,265.5 c 0,-0.4 -0.2,-1.1 0,-1.3 3.6,-2.2 5.4,-5.9 7.8,-9.8 1.3,2.8 0.6,6 3.3,7.6 0.3,0.2 1.1,2.8 -1,3.5 -0.4,0.1 -0.7,0.3 -1,0.5 1.9,-3 -3.6,-2.7 -1.9,-5.6 -2.9,1.6 -3.6,5.4 -7.3,4.9 0,0.1 0.1,0.2 0.1,0.2 z"
   class="st1" />
		<path
   id="path12896"
   d="m 164.2,320.9 c -2.2,0.2 -4.6,0.3 -5.2,3.1 -0.2,1.1 -0.6,1.7 -1.6,0.9 -0.6,-0.4 -1.7,-1.2 -0.7,-2 2.9,-2.4 5.2,-4.7 3.8,-9 -0.4,-1.1 1.2,-2.4 2.6,-3.2 -1.2,3.7 2.9,6.7 1.1,10.3 -0.2,0.1 0,-0.1 0,-0.1 z"
   class="st1" />
		<path
   id="path12898"
   d="m 150,215.1 c 1.9,6.1 -3.8,14.9 -10.4,16.5 4.4,-5.1 8.2,-9.9 10.4,-16.5 z"
   class="st1" />
		<path
   id="path12900"
   d="m 95.7,96.6 c 2.6,10.3 1.6,14 -5.5,17.5 4.6,-5 5.4,-11.1 5.5,-17.5 z"
   class="st1" />
		<path
   id="path12902"
   d="m 86.3,213.3 c 3.7,4.1 7.7,6.1 13.1,2.8 1.8,-1.1 3.2,-1.8 2.4,-4.2 2.7,2 2.3,5.4 -1.3,6.2 -3.7,0.8 -7.7,0.6 -11.5,0 -1.4,-0.1 -3.8,-1.9 -2.7,-4.8 z"
   class="st1" />
		<path
   id="path12904"
   d="m 54.5,149.3 c -4.7,-1.1 -10,2.1 -13.6,-3.1 -0.6,-0.9 -1.3,-1.8 -1.7,-2.8 -0.3,-0.6 -0.3,-1.6 0.3,-1.9 0.7,-0.4 1.5,0.2 1.7,0.9 2.1,5.2 6.9,5 11.2,5.9 0.7,0.1 1.5,-0.3 2.1,1 z"
   class="st1" />
		<path
   id="path12906"
   d="m 222.7,281.5 c 0.9,-6.6 -2.9,-12.6 -2.2,-19.1 2.1,6.2 4.9,12.4 2.2,19.1 z"
   class="st1" />
		<path
   id="path12908"
   d="m 84.9,171.5 c 0.4,2.5 -0.2,4.4 1,6.1 0.5,0.7 0.3,2 -1.3,1.9 -1.8,-0.2 -5.3,-5.7 -4.5,-7.3 0.3,-0.6 1,-1.2 1.5,-1.3 1.4,-0.1 0.1,0.9 0.3,1.3 1,1.9 1.9,0.3 3,-0.7 z"
   class="st1" />
		<path
   id="path12910"
   d="m 189,326.5 c -0.7,1.4 -3.4,0.7 -3.2,3 0.1,1.3 1.8,2.9 5.6,4.9 -3,0.6 -6,-0.4 -7.3,-2.5 -0.9,-1.4 -0.9,-2.8 0,-4.2 1,-1.7 2.1,-1.9 4.9,-1.2 z"
   class="st1" />
		<path
   id="path12912"
   d="m 131.4,224.1 c -0.4,-4.1 -3.4,-6 -4.7,-8.9 -0.8,-1.7 -1.6,-3.4 0,-5.1 0.4,-0.5 -0.8,-2.1 1,-1.4 0.6,0.2 1.2,1.1 0.5,1.7 -2.3,2.1 -0.3,3.3 0.8,4.7 1.9,2.4 3.9,4.7 2.4,9 z"
   class="st1" />
		<path
   id="path12914"
   d="m 99.7,221 c 0.6,-1.5 2.2,-2 3.4,-2.3 3.5,-1 5.4,-3.5 6.2,-6.7 0.3,-1.2 0.9,-1.3 1.8,-1.2 1.1,0.1 0.9,0.8 0.6,1.6 -1.6,3.8 -7,9.5 -12.1,8.6 0,-0.1 0.1,0 0.1,0 z"
   class="st1" />
		<path
   id="path12916"
   d="m 50.7,168.7 c -4.1,1.3 -7.7,0.8 -10.3,-3.1 -0.5,-0.7 -2.1,-1.3 -1,-2.4 0.8,-0.8 1.9,-0.4 2.6,0.6 2.1,3 5.4,3.8 8.6,5 0,0 0.1,-0.1 0.1,-0.1 z"
   class="st1" />
		<path
   id="path12918"
   d="m 89.9,126.7 c 3,-0.5 4.3,4.6 7.3,-0.3 -0.5,3.9 -1.5,6.2 -4.3,7.9 0.5,-3.1 -1.5,-5 -3,-7.6 z"
   class="st1" />
		<path
   id="path12920"
   d="m 86.6,211.7 c -5.5,-1.1 -1,-4 -1.7,-5.9 -1.1,-3.2 3.1,-0.4 3.5,-2.5 -0.9,2.7 -1.5,5.4 -1.8,8.4 z"
   class="st1" />
		<path
   id="path12922"
   d="m 63.5,70.2 c 4,3.9 3.4,7.8 -2,13.9 1.1,-4.8 5.6,-8.7 2,-13.9 z"
   class="st1" />
		<path
   id="path12924"
   d="m 95.1,196.1 c 1.2,0.3 1.7,1.8 1.1,3.1 -0.5,1.2 0,3.9 -2,3.5 -2.8,-0.5 -0.9,-3.2 -1.3,-4.9 -0.2,-1 0,-2.1 2.2,-1.7 z"
   class="st1" />
		<path
   id="path12926"
   d="m 142.2,222 c -1.7,-4.2 1.1,-6 2.4,-8.6 3.5,4 -1,5.4 -2.4,8.6 z"
   class="st1" />
		<path
   id="path12928"
   d="m 86.2,119.6 c 4.2,4.7 6.2,-4.9 10.1,-1.2 -2.1,2.1 -5.2,1.9 -7.3,4.2 -1.1,1.3 -2.5,-1 -2.8,-3 z"
   class="st1" />
		<path
   id="path12930"
   d="m 213.4,245.6 c -0.4,1.6 -2.6,1.2 -4.3,1.6 -0.6,0.1 -1.9,-0.1 -1.5,-0.7 1.2,-1.6 2.7,-3.2 4.4,-4.2 0.8,-0.5 1.7,1.1 1.4,3.3 z"
   class="st1" />
		<path
   id="path12932"
   d="m 72.3,133.1 c 1.5,2.8 2,6.2 6.5,2.1 -1.4,3.1 -2.7,5.5 -4.5,4.9 -2.8,-0.8 -2.4,-3.7 -2,-7 z"
   class="st1" />
		<path
   id="path12934"
   d="m 113.8,232.7 c 2.7,-1.7 4.6,-3.1 5.6,-5.4 0.3,-0.7 1,-1.1 1.8,-0.8 0.2,0.1 0.4,0.8 0.3,1.2 -0.1,2.5 -4.1,5.5 -7.7,5 z"
   class="st1" />
		<path
   id="path12936"
   d="m 183.7,247.2 c -2.6,4.1 -6.8,3.5 -10.5,4.3 -0.6,0.1 -1.3,-0.1 -1.1,-0.8 0.1,-0.5 0.7,-1.3 0.9,-1.3 3.9,1.5 7.3,-0.3 10.7,-2.2 z"
   class="st1" />
		<path
   id="path12938"
   d="m 215,277.9 c 1,4.7 -1.8,6.5 -4.4,8.3 -0.3,-3.5 2.6,-5.2 4.4,-8.3 z"
   class="st1" />
		<path
   id="path12940"
   d="m 192.5,261 c -5.2,3.7 -7.9,3.1 -10.3,-2 3.5,1.9 6.4,4.7 10.3,2 z"
   class="st1" />
		<path
   id="path12942"
   d="m 81.5,98.9 c -0.2,2.5 -1.5,3.6 -3.5,4.1 -1.1,0.3 -2,-0.4 -2.4,-1.3 -0.3,-0.8 -0.2,-1.6 0.5,-2.3 0.8,-0.8 1.5,-1 2.1,0 1.3,2 2.2,-0.4 3.3,-0.5 z"
   class="st1" />
		<path
   id="path12944"
   d="m 150.8,233.9 c -0.6,2.6 -2.7,3 -4.7,2.7 -1.3,-0.2 -3.6,-0.6 -3.2,-2.3 0.5,-2.2 2.3,-0.5 3.4,-0.1 1.7,0.7 3.1,-0.6 4.7,-0.3 z"
   class="st1" />
		<path
   id="path12946"
   d="m 82.7,38.2 c 1.1,-5.3 5.9,-6.6 9.8,-8.7 -3.2,3 -7,5.3 -9.9,8.6 z"
   class="st1" />
		<path
   id="path12948"
   d="m 214.6,253.8 c -1.4,1 0.1,4.1 -3.2,3.9 -1.8,-0.1 -2,-1.8 -2,-2.7 -0.1,-1.3 1,-0.7 1.8,-0.3 1.7,0.8 1.4,-0.5 1.6,-1.5 0.1,-0.7 0.7,-0.9 1.2,-0.7 0.2,0.1 0.3,0.7 0.6,1.3 z"
   class="st1" />
		<path
   id="path12950"
   d="m 214.1,311 c -3,2.3 -6.2,3.3 -10.6,1.8 3.9,-1.7 7.5,-0.8 10.6,-1.8 z"
   class="st1" />
		<path
   id="path12952"
   d="m 84.1,116.7 c -1.8,1.4 -3.2,4.4 -5.7,0.9 -0.6,-0.9 -0.4,-1.9 0.5,-2.6 1.1,-0.8 1.6,0.4 1.7,0.9 0.7,2.9 2.3,-0.7 3.5,0.8 z"
   class="st1" />
		<path
   id="path12954"
   d="m 199.7,313.5 c 3.4,2.7 6.5,4.4 10,1.3 -3.5,4.1 -8,3.7 -10,-1.3 z"
   class="st1" />
		<path
   id="path12956"
   d="m 131.9,237.5 c 0,1 -5.3,6.2 -6,6.1 -0.2,0 -0.6,-0.2 -0.7,-0.3 -0.1,-0.4 0,-1 0.1,-1.1 2.4,-0.9 3.5,-3 4.9,-5 0.2,-0.3 0.7,-0.5 1.1,-0.4 0.3,0.1 0.5,0.6 0.6,0.7 z"
   class="st1" />
		<path
   id="path12958"
   d="m 87,201 c 0.9,-2.1 0.7,-4.2 0.7,-6.5 1,0.7 2.7,0.2 2.5,1.7 -0.4,1.8 -0.2,4.2 -3.2,4.8 z"
   class="st1" />
		<path
   id="path12960"
   d="m 200.9,234.9 c 0.5,0.7 1.3,1.2 1.3,1.6 -0.2,1.5 -1.2,2.5 -2.7,2.8 -1.3,0.2 -2.4,-0.6 -2.3,-1.8 0.2,-2 3,-0.4 3.7,-2.6 z"
   class="st1" />
		<path
   id="path12962"
   d="m 157.8,304.2 c 1.3,-1.7 -2.5,-3 -0.3,-4.8 0.5,-0.4 1,-1.3 1.7,-0.9 0.8,0.4 0.6,1.1 0.1,1.7 -1,1.3 1.5,2.8 -0.3,4.1 -0.4,0.3 0.3,2 -1,1.8 -1.6,-0.3 -0.6,-1.2 -0.2,-1.9 z"
   class="st1" />
		<path
   id="path12964"
   d="m 88.4,41 c -1.3,3.4 -4.8,4.3 -7.2,6.5 0.4,-4.3 5.3,-3.8 7.2,-6.5 z"
   class="st1" />
		<path
   id="path12966"
   d="m 88.1,37.1 c -1.8,3 -4.4,5 -7.7,5.9 1.6,-3.2 5.2,-3.7 7.7,-5.9 z"
   class="st1" />
		<path
   id="path12968"
   d="m 95.1,187.5 c -1.4,1.3 -2.3,3.4 -4.2,2.2 -1.4,-0.8 -0.5,-2.6 -0.4,-4.4 1.5,1.2 2.7,2.6 4.6,2.2 z"
   class="st1" />
		<path
   id="path12970"
   d="m 199.5,325.4 c -3.7,3.4 -4.6,3.2 -8,-1.7 2.9,0.9 5.1,3.4 8,1.7 z"
   class="st1" />
		<path
   id="path12972"
   d="m 85.5,94.4 c 0.8,1.6 3.8,-0.4 3.7,2.2 0,1.2 -1.8,1.8 -2.6,1.7 -2.2,-0.3 -1.4,-2.1 -1.1,-3.9 z"
   class="st1" />
		<path
   id="path12974"
   d="m 99.6,204.1 c 1.6,-2.4 0.8,-4.3 1.2,-6 3.7,2.6 3.6,3.8 -1.2,6 z"
   class="st1" />
		<path
   id="path12976"
   d="m 83.4,145.9 c 2,-0.1 4.1,-1.2 6,0.7 0.3,0.3 0.3,0.9 0.5,1.4 -2.2,-0.3 -4.4,-0.6 -6.6,-0.9 0,-0.4 0.1,-0.8 0.1,-1.2 z"
   class="st1" />
		<path
   id="path12978"
   d="m 96.5,148.7 c -0.9,0.4 -2.1,1.4 -2.8,1.2 -1.2,-0.4 -2.7,-1.2 -2.3,-3 0.1,-0.5 1.5,-1.2 1.5,-1.1 1,1 1.6,2.5 3.6,2.9 z"
   class="st1" />
		<path
   id="path12980"
   d="m 131,200.2 c -1.2,2.9 -3.3,2.8 -5.4,2.7 -1,0 -1.6,-0.4 -1.5,-1.5 0.1,-1.2 0.8,-1.4 1.7,-0.8 1.7,1.3 3.1,0.2 5.2,-0.4 z"
   class="st1" />
		<path
   id="path12982"
   d="m 66.8,75.6 c 2.7,3.6 2.3,6.7 -1.1,8.6 1.6,-3 3.3,-5.6 1.1,-8.6 z"
   class="st1" />
		<path
   id="path12984"
   d="m 87.5,130.2 c -1.3,2.6 -3.4,2.9 -5.9,2.1 1,-4.2 4.3,-0.3 5.9,-2.1 z"
   class="st1" />
		<path
   id="path12986"
   d="m 81.1,86.6 c 1.1,1.2 2.6,1.9 3,3.4 0.2,1 -0.9,0.7 -1.5,0.9 -2.4,0.5 -1.6,-1.7 -2.3,-2.6 -0.6,-0.8 0.5,-1.1 0.8,-1.7 z"
   class="st1" />
		<path
   id="path12988"
   d="m 171.9,219.7 c -0.9,1 -1.5,2.4 -3.2,2.3 -0.9,0 -1.5,-0.6 -1.7,-1.4 1.6,-0.2 2.1,-2.3 4,-2.1 0.6,0.1 0.9,0.4 0.9,1.2 z"
   class="st1" />
		<path
   id="path12990"
   d="m 91.2,77.4 c -1.8,1.4 -2.1,3.4 -4.2,2.8 -0.6,-0.2 -1.3,-1 -1,-1.7 0.9,-1.9 2.6,-1.6 5.2,-1.1 z"
   class="st1" />
		<path
   id="path12992"
   d="m 212.5,273.4 c 0.5,2.8 -0.6,4.5 -2.6,5.9 0.3,-2.2 -0.2,-4.6 2.6,-5.9 z"
   class="st1" />
		<path
   id="path12994"
   d="m 152.9,197.8 c 2,0 3.3,1.4 4.9,2 -2.8,2.1 -3.1,2 -4.9,-2 z"
   class="st1" />
		<path
   id="path12996"
   d="m 197.1,252.4 c -0.1,-2.2 0.3,-4 2,-5.1 0.4,-0.2 1.4,-0.1 1.3,0.5 -0.3,1.9 -1.3,3.4 -3.3,4.6 z"
   class="st1" />
		<path
   id="path12998"
   d="m 97.8,110.9 c 0.8,3 -0.6,4.3 -3,5.6 -0.1,-2.8 1.3,-4.1 3,-5.6 z"
   class="st1" />
		<path
   id="path13000"
   d="m 78.1,127.9 c 0.2,1.3 -0.7,1.2 -1.6,1.3 -1.5,0.2 -2,-0.5 -1.9,-1.9 0.1,-0.8 0.1,-2 1.3,-1.4 0.8,0.4 2.4,0.3 2.2,2 z"
   class="st1" />
		<path
   id="path13002"
   d="m 100,135.7 c 1.3,3.3 3,6 -1.5,8.4 1.8,-2.8 1.1,-5.3 1.5,-8.4 z"
   class="st1" />
		<path
   id="path13004"
   d="m 110.2,194.7 c -1.4,-0.1 -2.9,1.4 -3.8,-0.5 1.4,-0.7 -1.1,-2.2 0.4,-2.6 2.5,-0.5 1.5,2.8 3.4,3.1 z"
   class="st1" />
		<path
   id="path13006"
   d="m 156.3,205.8 c -2.5,3.1 -4,0.3 -6.1,-0.4 2.4,-1.8 4,0.5 6.1,0.4 z"
   class="st1" />
		<path
   id="path13008"
   d="m 90.2,68.9 c -0.7,1.7 -1.4,3.1 -3.4,2.9 -1.1,-0.1 -1,-1 -0.8,-1.6 0.8,-2.1 3,-0.1 4.2,-1.3 z"
   class="st1" />
		<path
   id="path13010"
   d="m 198.4,228 c 0.9,0.4 2.3,-1.7 2.1,0.7 -0.1,1.1 -0.7,2.1 -1.8,1.9 -1.1,-0.1 -2.3,-1.2 -2.2,-2.2 0.2,-1 1.3,-1.5 1.9,-0.4 z"
   class="st1" />
		<path
   id="path13012"
   d="m 217.9,264.6 c -0.8,0.7 -0.5,2.4 -1.8,2.4 -0.8,0 -1.9,-1 -2.2,-1.8 -0.3,-1.1 0.5,-1.5 1.7,-1 0.7,0.3 1.8,-1.4 2.3,0.4 z"
   class="st1" />
		<path
   id="path13014"
   d="m 108.5,184 c -1.5,0.6 -3,1.4 -4.2,0 -0.2,-0.3 -0.1,-1.3 0.2,-1.5 1.8,-1.2 2.7,0.7 4,1.5 z"
   class="st1" />
		<path
   id="path13016"
   d="m 166.1,211.6 c 0.5,0.5 1.3,1.1 1.2,1.3 -0.6,1.2 -0.6,2.9 -2.4,3.1 -0.6,0.1 -1.6,0.3 -1.6,-0.8 0,-1.9 2.7,-1.6 2.8,-3.6 z"
   class="st1" />
		<path
   id="path13018"
   d="m 96.9,138.1 c -1.2,1.6 -0.8,4.6 -4.2,4.5 1.4,-1.7 1.6,-4.1 4.2,-4.5 z"
   class="st1" />
		<path
   id="path13020"
   d="m 188.8,229 c -0.8,0.7 -1.7,1.5 -1.8,1.4 -0.9,-0.8 -2.7,-0.5 -2.7,-2.1 0,-0.5 0.8,-1.3 1.6,-1 1,0.4 1.8,1 2.9,1.7 z"
   class="st1" />
		<path
   id="path13022"
   d="m 91.2,165.6 c -0.3,3.7 -1.7,4.2 -4.6,2.3 1.6,-0.8 2.9,-1.4 4.6,-2.3 z"
   class="st1" />
		<path
   id="path13024"
   d="m 86.6,104.4 c 0.1,0.1 0.2,0.3 0.2,0.4 -0.6,1.6 -1.8,2.9 -3.4,3.5 -1.1,0.4 -1.2,-1.9 0.2,-2.4 0.8,-0.3 1.5,-0.6 2.2,-1.1 0.1,-0.3 0.3,-1 0.8,-0.4 z"
   class="st1" />
		<path
   id="path13026"
   d="m 93.9,127.1 c -0.2,-3.4 1.1,-5.1 3.3,-6.8 -0.4,2.6 -1.5,4.3 -3.3,6.8 z"
   class="st1" />
		<path
   id="path13028"
   d="m 85,140.4 c -0.9,1.8 -1.8,3 -3.7,2.5 -0.3,-0.1 -0.6,-1.1 -0.4,-1.5 0.8,-1.9 2.5,-0.6 4.1,-1 z"
   class="st1" />
		<path
   id="path13030"
   d="m 158.4,197.6 c -0.7,-1.1 -1.4,-2 -1.9,-3 -0.1,-0.1 1,-1.2 1.6,-1.1 1.2,0 1.7,1.3 2.5,2.1 -0.6,0.4 -1.1,0.9 -2.2,2 z"
   class="st1" />
		<path
   id="path13032"
   d="m 197.5,254.7 c 2.3,-1.1 1.8,-3.7 4.1,-4 0.2,0 0.6,0.8 0.6,0.8 -1.3,1.2 -1.1,4 -4.7,3.2 z"
   class="st1" />
		<path
   id="path13034"
   d="m 105.2,148.6 c -1.8,1.5 -3.2,2.5 -5.2,2.2 1.1,-2.3 2.6,-3 5.2,-2.2 z"
   class="st1" />
		<path
   id="path13036"
   d="m 133.5,194.5 c -1.4,0.7 -2.7,2.6 -4.4,0.7 -0.3,-0.3 -0.4,-0.6 -0.1,-1 1.7,-2.1 2.9,0.9 4.5,0.3 z"
   class="st1" />
		<path
   id="path13038"
   d="m 176.4,213 c 0.8,1.9 3.2,0.2 3.1,2.4 0,0.5 -1,1.4 -1.4,1.3 -1.5,-0.1 -2,-1.2 -1.7,-3.7 z"
   class="st1" />
		<path
   id="path13040"
   d="m 140.4,214.2 c 0.3,2.1 0.9,3.9 -1,5.1 -0.2,0.1 -1.1,-0.1 -1.1,-0.3 -0.2,-1.8 1.2,-3 2.1,-4.8 z"
   class="st1" />
		<path
   id="path13042"
   d="m 74.9,146.7 c 1.4,0.4 1.5,3.4 3.9,1.9 -0.7,0.7 -1.4,1.4 -2,2.1 -1.1,-1 -2.6,-1.8 -1.9,-4 z"
   class="st1" />
		<path
   id="path13044"
   d="m 161.5,307.6 c -0.4,1.2 -0.8,2.4 -1.2,3.7 -3.6,-2.3 -1.1,-3.1 1.2,-3.7 z"
   class="st1" />
		<path
   id="path13046"
   d="m 138.1,197.9 c 1.5,-1.4 3.2,-1 5,-0.8 -1.6,2.3 -3.3,1.3 -5,0.8 z"
   class="st1" />
		<path
   id="path13048"
   d="m 112,204.6 c 0.9,0.4 1.7,0.8 1.7,1.8 0,0.9 -0.7,1.5 -1.6,1.6 -1,0.1 -0.9,-0.8 -0.9,-1.5 -0.1,-0.7 -0.3,-1.6 0.8,-1.9 z"
   class="st1" />
		<path
   id="path13050"
   d="m 106.3,202.1 c 2.7,2.4 0.7,3.6 -1.2,5.4 0.4,-2 0.8,-3.6 1.2,-5.4 z"
   class="st1" />
		<path
   id="path13052"
   d="m 133.2,187.6 c 1.4,0.1 2.9,-1.2 3.8,0.5 0.3,0.6 -0.5,0.7 -0.9,1 -1.9,1.3 -2.1,-0.6 -2.9,-1.5 z"
   class="st1" />
		<path
   id="path13054"
   d="m 111,226.6 c -1,1.4 -1.8,2.8 -3.7,2.2 -0.2,-0.1 -0.5,-1 -0.4,-1 1.1,-0.6 2.1,-1.8 4.1,-1.2 z"
   class="st1" />
		<path
   id="path13056"
   d="m 144.1,191.5 c 0,0.7 -0.4,0.9 -1,1 -1.2,0.1 -1.9,-0.5 -2.3,-1.4 -0.4,-0.9 0.3,-1.2 1.1,-1.2 1.2,0 1.7,0.7 2.2,1.6 z"
   class="st1" />
		<path
   id="path13058"
   d="m 164.2,230.7 c -0.9,0 -1.2,-0.7 -0.9,-1.1 0.6,-0.9 1.5,-1.7 2.4,-2.2 0.5,-0.3 1.2,0.2 1,0.9 -0.5,1.1 -1.4,1.9 -2.5,2.4 z"
   class="st1" />
		<path
   id="path13060"
   d="m 213.6,308.2 c -0.8,0.9 -1.3,2.2 -2.7,2.3 -0.7,0.1 -1,-0.7 -0.6,-1.1 0.7,-0.8 1.5,-1.6 2.4,-2.2 0.5,-0.3 0.8,0.4 0.9,1 z"
   class="st1" />
		<path
   id="path13062"
   d="m 182.5,209 c 0.7,0.4 1.6,0.8 1.5,1.7 -0.1,0.6 -0.9,1.5 -1.2,1.5 -0.7,-0.1 -1.4,-0.8 -1.3,-1.8 0,-0.7 -0.1,-1.4 1,-1.4 z"
   class="st1" />
		<path
   id="path13064"
   d="m 184.4,235.1 c 0.9,1 2.7,1.2 2,3.2 -0.1,0.3 -0.6,0.6 -0.9,0.8 -0.8,-1.2 -2,-2.2 -1.1,-4 z"
   class="st1" />
		<path
   id="path13066"
   d="m 147.9,210.7 c -0.7,0 -1.2,-0.2 -1.1,-0.9 0.3,-1 1,-1.6 2.1,-1.6 0.6,0 1.2,0 1.2,0.7 0,1.4 -1.7,0.9 -2.2,1.8 z"
   class="st1" />
		<path
   id="path13068"
   d="m 97.8,278.3 c -2.3,0.5 -3.3,-0.4 -3,-3.2 1.1,1.2 2,2.2 3,3.2 z"
   class="st1" />
		<path
   id="path13070"
   d="m 119,204.8 c 1.1,2.3 1.3,3.7 -0.6,5 -0.4,-1.5 -0.7,-2.9 0.6,-5 z"
   class="st1" />
		<path
   id="path13072"
   d="m 194.8,244.2 c 0.8,2.3 0.8,3.7 -0.8,4.6 -0.2,0.1 -1,-0.1 -1.1,-0.2 -0.4,-1.9 1.9,-2.2 1.9,-4.4 z"
   class="st1" />
		<path
   id="path13074"
   d="m 186.6,221.4 c 2.4,-0.6 3.2,0.3 3.6,2.1 -2,0.5 -2.4,-1 -3.6,-2.1 z"
   class="st1" />
		<path
   id="path13076"
   d="m 171.4,225.9 c 0.6,0.2 1.5,-1.9 3,-0.8 0.1,0.1 0,0.9 -0.2,1.2 -1.3,1.6 -2.4,-0.5 -2.8,-0.4 z"
   class="st1" />
		<path
   id="path13078"
   d="m 205.7,233.9 c -0.8,0.4 -1.5,1.1 -2.1,1 -0.5,-0.1 -1.1,-0.9 -1.2,-1.5 -0.2,-0.8 0.6,-1.6 1.4,-1.5 0.4,0 0.8,0.8 1.9,2 z"
   class="st1" />
		<path
   id="path13080"
   d="m 155,317.5 c -0.9,0 -1.4,-0.3 -1.2,-1 0.2,-0.9 0.8,-1.5 1.7,-1.6 0.8,-0.1 0.8,0.6 0.8,1.2 0.1,1.2 -0.5,1.5 -1.3,1.4 z"
   class="st1" />
		<path
   id="path13082"
   d="m 90.1,109.2 c -0.5,0.5 -0.5,0.7 -0.6,0.7 -1.4,0.2 -2.8,0.4 -4.2,0.5 0,0 -0.2,-0.6 -0.1,-0.7 1.4,-1.1 3.1,-0.3 4.9,-0.5 z"
   class="st1" />
		<path
   id="path13084"
   d="m 188,93.9 c 1.4,-0.2 2.8,-1.2 3.8,0.3 0.1,0.1 -0.1,0.6 -0.2,0.7 -1.6,1.2 -2.4,-0.6 -3.6,-1 z"
   class="st1" />
		<path
   id="path13086"
   d="m 181.9,94 c 1.4,-0.2 2.8,-1.1 3.8,0.3 0.1,0.1 -0.1,0.6 -0.2,0.7 -1.6,1.1 -2.4,-0.7 -3.6,-1 z"
   class="st1" />
		<path
   id="path13088"
   d="m 90.2,84.9 c -0.8,1.8 -2.1,1.9 -3.2,2.2 -0.1,-0.4 -0.3,-0.9 -0.2,-1.2 0.5,-2.1 2.1,-0.6 3.4,-1 z"
   class="st1" />
		<path
   id="path13090"
   d="m 147.8,202.9 c -1.8,2.3 -3,2.1 -4.7,0.2 1.7,-0.1 2.9,-0.1 4.7,-0.2 z"
   class="st1" />
		<path
   id="path13092"
   d="m 173.8,209 c -0.2,0 -0.9,0.1 -1,-0.7 -0.1,-1 0.7,-1.5 1.4,-1.8 0.6,-0.2 1,0.2 1.1,0.9 0.1,0.8 0.1,1.7 -1.5,1.6 z"
   class="st1" />
		<path
   id="path13094"
   d="m 113.7,189.1 c 0,0.8 -0.7,0.8 -1.2,0.8 -1.2,0.1 -1.4,-0.5 -1.4,-1.5 0,-0.6 0.3,-1.2 1,-1 0.8,0.2 1.4,0.8 1.6,1.7 z"
   class="st1" />
		<path
   id="path13096"
   d="m 122.2,210.7 c -0.4,1.2 1.3,4.2 -2.2,3.3 0.8,-1.2 1.5,-2.3 2.2,-3.3 z"
   class="st1" />
		<path
   id="path13098"
   d="m 52.8,39.6 c 1.1,-1.4 2.2,-2.8 4.1,-3.2 -1.2,1.3 -1.6,3.7 -4.2,3 0,0.1 0.1,0.2 0.1,0.2 z"
   class="st1" />
		<path
   id="path13100"
   d="m 109.5,168.1 c 0.2,0.2 0.5,0.3 0.7,0.5 0.9,0.7 2.6,0.7 2.5,2.4 0,0.2 -0.6,0.4 -0.9,0.6 -0.6,-1.3 -3.1,-1.4 -2.3,-3.7 0.1,0 0,0.2 0,0.2 z"
   class="st1" />
		<path
   id="path13102"
   d="m 192.1,219.3 c 2.7,0.4 3.4,1.5 4,2.8 0.1,0.1 -0.5,0.8 -0.7,0.8 -1.4,-0.6 -1.4,-2.2 -3.3,-3.6 z"
   class="st1" />
		<path
   id="path13104"
   d="m 157.2,223.9 c -0.1,-0.2 -0.8,-0.9 -0.7,-1.4 0.1,-0.5 0.9,-1 1.5,-1.2 0.7,-0.2 0.9,0.4 0.9,1 0,0.7 -0.1,1.4 -1.7,1.6 z"
   class="st1" />
		<path
   id="path13106"
   d="m 74.3,110.7 c 1,-2.1 1.7,-3.3 3.9,-1.1 -1.4,0.4 -2.4,0.7 -3.9,1.1 z"
   class="st1" />
		<path
   id="path13108"
   d="m 219.9,273.7 c -0.6,0.4 -1.1,1.1 -1.5,1 -0.7,-0.1 -1.4,-0.6 -2.1,-1 0.5,-0.4 1,-1.2 1.5,-1.2 0.6,0 1.2,0.6 2.1,1.2 z"
   class="st1" />
		<path
   id="path13110"
   d="M 204.7,96.4 C 204,98 203,98 202,97.8 c -0.2,0 -0.5,-0.9 -0.4,-1 0.8,-1.1 1.9,-0.6 3.1,-0.4 z"
   class="st1" />
		<path
   id="path13112"
   d="m 195.5,94.6 c 1.2,-0.2 2.3,-0.6 3.2,0.3 0.1,0.1 -0.1,0.9 -0.3,1 -1.2,0.5 -2.1,0.3 -2.9,-1.3 z"
   class="st1" />
		<path
   id="path13114"
   d="m 150.9,234.1 c 0.8,-1 1.5,-2.1 2.8,-2.5 0.4,2.6 -0.8,3 -2.9,2.4 0,-0.1 0.1,0.1 0.1,0.1 z"
   class="st1" />
		<path
   id="path13116"
   d="m 157.4,297.7 c 0.4,-3.6 2.4,-1.5 3.8,-1.4 -1.2,0.4 -2.3,0.8 -3.8,1.4 z"
   class="st1" />
		<path
   id="path13118"
   d="m 206.8,234.6 c 2.3,1.1 1.3,2.9 1.3,4.5 -0.8,-1.5 -0.5,-3.1 -1.3,-4.5 z"
   class="st1" />
		<path
   id="path13120"
   d="m 143.4,210.7 c -0.7,0 -1.2,-0.4 -0.9,-1 0.2,-0.6 0.8,-1.2 1.3,-1.5 0.5,-0.3 1.2,0 1.1,0.7 0,1 -0.8,1.5 -1.5,1.8 z"
   class="st1" />
		<path
   id="path13122"
   d="m 188.8,214.1 c 0.5,0.7 1,1.2 1.3,1.8 0.1,0.2 -0.3,0.8 -0.6,0.9 -0.9,0.2 -1.3,-0.5 -1.7,-1.1 -0.1,-0.2 0.5,-0.9 1,-1.6 z"
   class="st1" />
		<path
   id="path13124"
   d="m 160.3,204.9 c 1.8,-0.3 2.8,-0.6 3.6,0.1 0.2,0.1 0,1 -0.2,1.1 -1.2,0.6 -1.8,-0.7 -3.4,-1.2 z"
   class="st1" />
		<path
   id="path13126"
   d="m 232.5,102.7 c -1.4,0.8 -2.5,0.3 -3.2,-1.1 1.5,-0.7 2.5,-0.2 3.2,1.1 z"
   class="st1" />
		<path
   id="path13128"
   d="m 82.6,38.1 c -0.9,1 -1.5,2.4 -3.8,2.5 1.3,-1.5 1.8,-3.1 3.9,-2.4 0,0 -0.1,-0.1 -0.1,-0.1 z"
   class="st1" />
		<path
   id="path13130"
   d="m 169,199.4 c 0.2,0.1 1,0.3 1.1,0.6 0.3,0.9 -0.4,1.2 -1.2,1.2 -0.6,0 -1.1,-0.1 -1.2,-0.8 -0.2,-0.7 0.3,-0.9 1.3,-1 z"
   class="st1" />
		<path
   id="path13132"
   d="m 210.7,97 c 1,0 1.4,0.6 1.7,1.2 0,0 -0.5,0.5 -0.8,0.5 -0.6,0 -1.5,0.2 -1.4,-0.9 0,-0.3 0.3,-0.5 0.5,-0.8 z"
   class="st1" />
		<path
   id="path13134"
   d="m 152.8,221.6 c 0.1,-0.9 0.2,-1.9 0.2,-2.8 0.3,0.2 0.8,0.3 1,0.6 0.6,1 -0.5,1.5 -1.2,2.2 z"
   class="st1" />
		<path
   id="path13136"
   d="m 88.4,57.1 c 0.2,0.1 0.7,0.4 0.7,0.4 -0.3,0.6 -0.7,1.3 -1.5,1.2 -0.3,0 -0.7,-0.4 -0.8,-0.7 0,-0.9 0.7,-0.9 1.6,-0.9 z"
   class="st1" />
		<path
   id="path13138"
   d="m 84.9,56.6 c -0.6,0.8 -1,1.4 -1.8,1.2 -0.2,-0.1 -0.6,-0.6 -0.5,-0.9 0.1,-1 1,-0.7 1.6,-0.7 0.2,0.1 0.4,0.3 0.7,0.4 z"
   class="st1" />
		<path
   id="path13140"
   d="m 74.5,42.9 c 1.4,-0.7 2.2,-1.2 3,-1.6 0.2,0.3 0.5,0.6 0.4,0.7 -0.7,1.1 -1.7,1.4 -3.4,0.9 z"
   class="st1" />
		<path
   id="path13142"
   d="m 159,242.3 c -0.7,0.6 -1,1.1 -1.5,1.3 -0.6,0.3 -1.1,0.1 -1.2,-0.6 -0.1,-0.7 0.3,-1 0.9,-1 0.5,0 1,0.2 1.8,0.3 z"
   class="st1" />
		<path
   id="path13144"
   d="m 116.9,199.4 c -1.6,0.9 -2.1,1.8 -3.2,1.3 -0.3,-0.1 -0.4,-0.7 -0.6,-1 0.9,-0.1 1.9,-0.2 3.8,-0.3 z"
   class="st1" />
		<path
   id="path13146"
   d="m 225.7,100.6 c -0.2,0.2 -0.4,0.6 -0.7,0.7 -0.8,0.2 -1.3,-0.4 -1.6,-1.1 -0.3,-0.6 0.4,-0.5 0.7,-0.6 0.7,0 1.4,-0.1 1.6,1 z"
   class="st1" />
		<path
   id="path13148"
   d="m 160.2,122.1 c -4.6,-1.2 -8.6,-3.8 -12.4,-6.6 4.7,1.1 8.6,3.7 12.4,6.6 z"
   class="st1" />
		<path
   id="path13150"
   d="m 162.2,118.9 c -4,-0.7 -7.3,-2.9 -10.6,-5.1 4,0.7 7.8,1.7 10.5,5.2 z"
   class="st1" />
		<path
   id="path13152"
   d="m 162.1,119 c 2.5,-0.4 3.9,1.1 5.9,3.3 -3,-0.6 -4.6,-1.7 -5.8,-3.5 0,0.1 -0.1,0.2 -0.1,0.2 z"
   class="st1" />
		<path
   id="path13154"
   d="m 154.7,141.8 c -1.7,-1.8 -3.4,-2.5 -3.8,-5.4 1.7,1.8 3.3,2.5 3.8,5.4 z"
   class="st1" />
		<path
   id="path13156"
   d="m 176.3,130.3 c 1.8,-0.7 2.8,-0.1 3.3,1.3 0.1,0.2 -0.4,0.9 -0.6,0.9 -1.3,0 -1.8,-1.2 -2.7,-2.2 z"
   class="st1" />
		<path
   id="path13158"
   d="m 190.1,139 c 0,0.7 -0.1,1.5 -1.1,1.3 -0.5,-0.2 -0.9,-0.9 -1.4,-1.3 0.4,-0.4 0.8,-0.9 1.2,-1.1 1.1,-0.3 1.3,0.4 1.3,1.1 z"
   class="st1" />
		<path
   id="path13160"
   d="m 172.5,129.8 c -1.5,-0.8 -1.6,-1.8 -1.3,-3.1 1.6,0.6 1.8,1.6 1.3,3.1 z"
   class="st1" />
		<path
   id="path13162"
   d="m 182.7,136.9 c -0.5,-0.7 -1.4,-1 -1.2,-1.9 0.1,-0.3 0.7,-0.7 0.8,-0.6 0.5,0.3 1,0.8 1.5,1.3 -0.3,0.4 -0.7,0.8 -1.1,1.2 z"
   class="st1" />
		<path
   id="path13164"
   d="m 192,52 c -4.2,3.7 -9.8,4.4 -14.8,6.3 -7.5,2.8 -14.6,6.5 -22.5,8.8 -0.6,-1.3 0.5,-1.7 1.6,-2.1 10.7,-4.2 21.4,-8.4 32,-12.6 1.3,-0.5 2.5,-0.4 3.8,-0.2 0,-0.1 -0.1,-0.2 -0.1,-0.2 z"
   class="st1" />
		<path
   id="path13166"
   d="m 175,54.6 c -7.2,4.1 -14.9,6.8 -22.7,9.2 7.1,-4.1 14.9,-6.7 22.7,-9.2 z"
   class="st1" />
		<path
   id="path13168"
   d="m 133.3,72.3 c -0.7,3.6 -4.1,4.6 -6.4,6.8 -2.7,2.6 -5.7,4.9 -7.8,8 2.4,-7.2 8.7,-10.6 14.2,-14.8 z"
   class="st1" />
		<path
   id="path13170"
   d="m 146.3,74.9 c -0.4,3.4 -3.9,2.9 -5.8,4.3 -4.6,3.5 -9.4,6.7 -14.3,9.7 5.8,-6 12.8,-10.3 20.1,-14 z"
   class="st1" />
		<path
   id="path13172"
   d="m 129.6,80.8 c -0.4,-0.9 -0.4,-1.8 0.5,-2.3 3.6,-1.7 6.2,-5.3 10.4,-5.9 l -0.1,-0.1 c -3,3.6 -7,5.8 -10.9,8.2 z"
   class="st1" />
		<path
   id="path13174"
   d="m 150.4,72.9 c 3.7,-4 7.4,-6 12.3,-6.2 -4.8,1.9 -8,5.1 -12.4,6.1 z"
   class="st1" />
		<path
   id="path13176"
   d="m 125.4,83.9 c -1.9,2.9 -3.8,5.9 -5.7,8.8 -0.1,-4.1 2.8,-6.4 5.7,-8.8 z"
   class="st1" />
		<path
   id="path13178"
   d="m 140.5,72.6 c 2.2,-2.9 5.5,-3.7 8.6,-4.9 -2.6,2.1 -4.8,5.1 -8.7,4.8 0,0 0.1,0.1 0.1,0.1 z"
   class="st1" />
		<path
   id="path13180"
   d="m 138.3,70.4 c 1.1,-3.4 4.5,-3.8 6.9,-5.5 -1.8,2.5 -4,4.5 -7,5.3 z"
   class="st1" />
		<path
   id="path13182"
   d="m 121.8,78.1 c 0.3,-3.5 3,-4.5 5.7,-5.5 l -0.1,-0.1 c -0.8,3 -3.5,4.1 -5.7,5.5 z"
   class="st1" />
		<path
   id="path13184"
   d="m 118.8,80.4 c 0.1,0.7 0.3,1.7 -0.4,1.9 -1.8,0.5 -0.1,3.8 -2.8,3.4 -0.2,0 -1.2,-0.2 -0.6,-0.6 1.9,-1.1 0.5,-5 3.9,-4.6 z"
   class="st1" />
		<path
   id="path13186"
   d="m 116.1,130.6 c 0.2,2.3 -0.9,3.9 -3.1,4.8 l 0.1,0.1 c 0.1,-2.2 1.5,-3.5 3.1,-4.8 0,0 -0.1,-0.1 -0.1,-0.1 z"
   class="st1" />
		<path
   id="path13188"
   d="m 138.2,70.2 c -1.3,1.6 -2.7,2.8 -4.9,2.1 0,0 0.1,0.1 0,0.1 1.6,-0.9 2.8,-2.6 4.9,-2 0.1,0 0,-0.2 0,-0.2 z"
   class="st1" />
		<path
   id="path13190"
   d="m 129.5,80.6 c -0.9,1 -1.5,2.4 -3.8,2.5 1.3,-1.5 1.8,-3.1 3.9,-2.4 0,0.1 -0.1,-0.1 -0.1,-0.1 z"
   class="st1" />
		<path
   id="path13192"
   d="m 150.3,72.8 c -1.2,1 -1.7,3.2 -4,2.1 0,0 0.1,0.1 0,0.1 1.4,-0.5 1.9,-3 4.1,-2 0,-0.1 -0.1,-0.2 -0.1,-0.2 z"
   class="st1" />
		<path
   id="path13194"
   d="m 127.5,72.6 c 0.8,-1.1 1.6,-2.2 3.2,-2.3 -0.7,1.3 -1.2,2.9 -3.3,2.2 0,0 0.1,0.1 0.1,0.1 z"
   class="st1" />
		<path
   id="path13196"
   d="m 113,135.3 c -1,0.6 -0.6,2.2 -2.7,2.6 0.9,-1.4 0.2,-3.4 2.8,-2.5 0,0.1 -0.1,-0.1 -0.1,-0.1 z"
   class="st1" />
		<path
   id="path13198"
   d="m 121.6,78 c -0.8,1 -1.4,2.2 -2.8,2.4 0,0 0.1,0.1 0.1,0.1 0,-1.9 0.8,-2.9 2.8,-2.4 0.1,0 -0.1,-0.1 -0.1,-0.1 z"
   class="st1" />
		<path
   id="path13200"
   d="m 220.7,244.3 c 0.8,-1 1.3,-2.3 2.9,-2.2 0.2,0 0.5,0.8 0.4,1.1 -0.8,1.2 -1.8,1.8 -3.3,1.1 z"
   class="st1" />
		<path
   id="path13202"
   d="m 58.8,53.3 c 0.6,-4.5 3,-5.8 5.7,-5.6 2.4,0.2 5,1.3 4.9,5.3 -3.5,-3.7 -6.8,-3.7 -10.6,0.3 z"
   class="st0" />
	</g>
</g>
</svg>
