<?xml version="1.0" encoding="UTF-8" standalone="no"?>
<svg
   xmlns:dc="http://purl.org/dc/elements/1.1/"
   xmlns:cc="http://creativecommons.org/ns#"
   xmlns:rdf="http://www.w3.org/1999/02/22-rdf-syntax-ns#"
   xmlns:svg="http://www.w3.org/2000/svg"
   xmlns="http://www.w3.org/2000/svg"
   xmlns:sodipodi="http://sodipodi.sourceforge.net/DTD/sodipodi-0.dtd"
   xmlns:inkscape="http://www.inkscape.org/namespaces/inkscape"
   inkscape:version="1.0 (4035a4f, 2020-05-01)"
   height="246.67374"
   width="225.97298"
   sodipodi:docname="double-headed-eagle-displayed.svg"
   xml:space="preserve"
   viewBox="0 0 225.97298 246.67374"
   y="0px"
   x="0px"
   id="Layer_1"
   version="1.1"><metadata
   id="metadata14631"><rdf:RDF><cc:Work
       rdf:about=""><dc:format>image/svg+xml</dc:format><dc:type
         rdf:resource="http://purl.org/dc/dcmitype/StillImage" /><dc:title></dc:title></cc:Work></rdf:RDF></metadata><defs
   id="defs14629" /><sodipodi:namedview
   inkscape:current-layer="Layer_1"
   inkscape:window-maximized="0"
   inkscape:window-y="25"
   inkscape:window-x="0"
   inkscape:cy="163.54583"
   inkscape:cx="110.36304"
   inkscape:zoom="2.52"
   fit-margin-bottom="0"
   fit-margin-right="0"
   fit-margin-left="0"
   fit-margin-top="0"
   showgrid="false"
   id="namedview14627"
   inkscape:window-height="480"
   inkscape:window-width="820"
   inkscape:pageshadow="2"
   inkscape:pageopacity="0"
   guidetolerance="10"
   gridtolerance="10"
   objecttolerance="10"
   borderopacity="1"
   bordercolor="#666666"
   pagecolor="#ffffff" />
<style
   id="style14470"
   type="text/css">
  .st0{fill:#FFFFFF;}
  .st1{fill:#000000;}
</style>
<g
   transform="translate(-39.636957,-36.454169)"
   id="g14624">
	<g
   id="g14622">
		<path
   id="path14472"
   d="m 135.5,273.2 c -3.6,5.2 -8.8,6.6 -10,2.6 -1.1,-3.5 -2.5,-6.9 -2.6,-10.8 -0.3,-11.2 2,-22 4.3,-32.8 2.4,-11.2 7.1,-21.6 10,-32.6 0.8,-3.1 -0.7,-4.7 -2.3,-4.8 -2,-0.2 -3.9,1.7 -3.9,4.3 0,0.8 0,1.7 0.2,2.5 0.3,1.2 3,1.7 1.1,3.6 -1.5,1.5 -3.4,1.1 -5.1,0.5 -1,-0.4 -2,-1 -2.7,-0.3 -4.8,3.9 -11.7,4.8 -16.1,11.6 6.8,-3.1 12.8,-5.3 16.5,2.2 1.3,2.7 -2.2,6.7 -6.2,7.9 -0.6,-1.4 1.2,-1.6 1.2,-2.6 0,-0.6 -0.4,-1.3 -0.8,-1.6 -1.4,-1 -1.1,0.6 -1.3,1.1 -0.7,2.7 -2.9,2.7 -4.7,2.2 -5.2,-1.4 -10.7,-0.4 -15.9,-3.2 -0.1,1.2 -0.5,2.1 -0.2,2.8 1.9,4.4 1,6.9 -3.7,9.1 -4.2,1.9 -2.8,5.4 0.7,7.8 -6,3.1 -7.3,2.8 -8.9,-3.6 -1,-4 -4.1,-7.7 -2.4,-12.7 -2.5,0.8 -5.1,0.4 -7.2,2.1 -5,3.8 -6.3,3.6 -10.1,-1.8 -2,1.2 -1.2,3.2 -1.3,5 0,0.9 2.2,1.9 0.1,2.7 -1,0.4 -2.2,0.3 -3.3,-0.5 -4.4,-3 -3.3,-10.2 1.5,-13.5 4.2,-2.9 8.9,-1.1 13.2,-2.1 -2,-6.1 -10.8,-1 -12,-7.7 -1.1,-0.1 -1.3,0.5 -1.7,1 -1,1.4 -0.9,4 -3.3,3.7 -1,-0.1 -2.2,-1.6 -2.6,-2.8 -0.7,-2.1 -0.1,-4.4 1.5,-5.9 4.9,-4.6 13.6,-3.9 18.4,1.3 5.2,5.8 11.3,6.1 18.1,1 1.6,-1.2 2.9,-2.6 4.6,-3.5 3,-1.6 4.5,-2.6 0.6,-5.3 -2.9,-1.9 -0.8,-3.1 1.6,-3.6 3.6,-0.7 6.6,-2.4 8.9,-5.5 -7.2,-1.1 -7.7,-2 -5.7,-11.5 -3.5,2.6 -6.7,4.9 -9.8,7.3 -3.9,3.2 -8.3,5 -13.4,4.7 -6,-0.3 -8.3,-4.1 -6,-9.6 0.8,-2 2,-3.7 3.4,-5.3 1.3,-1.4 2.2,-3.2 3.5,-4.9 -3.6,-0.3 -6,2.1 -8.8,3.4 -5.9,2.6 -11.4,6 -18.3,5.5 -5.9,-0.4 -8.8,-5.1 -5.6,-10.2 3.4,-5.3 7.7,-10 12.7,-13.7 2.7,-2 4.6,-4.5 7,-6.8 -5.9,0.9 -11.5,2.2 -17.4,1.7 -1.8,-0.1 -3.5,-0.3 -5.2,-0.8 -2.6,-0.7 -4.6,-1.7 -5.1,-4.3 -0.6,-3 0.6,-5.7 3,-7.3 2.9,-2 5.6,-4.3 9,-5.6 1.8,-0.7 3.7,-1.4 4.7,-3.6 -5.2,-1.3 -9.6,-4.3 -13.9,-7.2 -5.8,-3.9 -4.8,-8.9 1.6,-12.4 4.5,-2.4 9.2,-1.6 14.1,-1.9 C 59,106 56.8,105.4 55,104.6 49.4,102.2 44.5,98.9 41.2,93.5 38.1,88.3 39.6,84.1 45.8,82.2 42,78.6 40.4,74.1 40.9,69 c 0.3,-3.5 -1.1,-6.7 -1.2,-10.2 -0.1,-4.5 1.2,-7.2 5.8,-7.4 -1,-1.9 -1.7,-3.7 -2.7,-5.3 -2,-3.1 -0.7,-5.7 1.2,-8 1.9,-2.3 4.4,-1.7 6.8,-1.1 4.1,1 7.5,3.4 10.9,5.8 4.4,3.2 9.2,5.9 14.3,9.1 0,-2.8 0,-4.9 0,-7.4 3.5,1 4.8,4.1 6.2,6.2 3.3,5 7.9,8.5 12.5,11.7 9.7,6.8 14.1,15.8 14.3,27.3 0.1,6.9 0.3,13.7 -2.6,20.3 -1.6,3.6 1.1,6.4 3.3,8.6 1.9,1.9 4.6,4.4 8.2,1.7 -1.5,-2.2 -4.8,-4 -3.4,-7.2 1,-2.2 3.4,-3.4 6.4,-3.3 -0.8,1.6 -2.5,2.9 0,4.3 3.7,2 5.8,-0.1 8.1,-2.8 -1.1,-0.5 -2.3,-0.9 -3.3,-1.6 -2.2,-1.4 -2,-2.7 0.3,-4 1.8,-1 4.8,-1.1 3.9,-4.7 -3.5,2 -6,0.2 -8.5,-1.8 0.6,-1.9 2.5,-1.2 3.7,-1.9 1.3,-0.9 3.2,-1.1 3.1,-3.3 -0.1,-1.9 -0.8,-3.3 -2.4,-4.3 -4.3,-2.7 -7.9,-6.8 -13.1,-7.8 -2,-0.4 -3.2,-2 -4.1,-3.4 -0.9,-1.4 -1.1,-3.5 0.5,-5 1.9,-1.8 2.6,0.4 3.5,1.2 2,2 4.8,1.7 7.4,2.6 -2.7,-2.5 -5.5,-5 -8.2,-7.5 -1.1,-1 -2.5,-2.5 -1,-3.7 1.3,-1.1 2.2,0.9 3,1.8 4.7,5.3 11.1,8.8 16,13.9 0.5,0.6 1,1.2 1.9,0.2 1,-1.1 -0.1,-1.4 -0.5,-1.9 -1.6,-1.7 -3,-4 -5,-4.8 -5.7,-2.5 -9.8,-6 -12,-11.9 -1,-2.8 -3.2,-1.5 -4,0.3 -1.7,3.9 -3.3,1.6 -4.4,0 -1.8,-2.6 0.7,-8.2 3.9,-8.8 10.2,-2 19.6,-1.5 27.7,6.3 2.6,2.5 6,4.8 10.3,4.8 2.6,0 3.7,1.7 1.2,3.7 -2.4,1.9 -1.4,3.2 0.4,4.7 2,1.6 2.8,3.5 1.3,6 -0.4,0.6 -0.5,1.7 -0.2,2.4 2.3,5.5 0,11.3 1.7,16.9 0.9,3 1,6.6 -0.9,9.6 -0.6,1 -0.6,1.8 0.4,2.3 0.9,0.5 1.9,0.5 2.8,-0.2 0.7,-0.7 1.4,-1.4 0.4,-2.5 -2.6,-3 -1.5,-6.5 -1,-9.9 0.3,-2.4 1.6,-4.6 -0.3,-7.1 -0.9,-1.2 0.3,-2.8 0.9,-4.1 1.4,-2.9 1.9,-5.9 -0.3,-8.7 -2,-2.4 0.3,-3.5 1.6,-4.9 1.5,-1.6 3.9,-2.9 0.6,-5.1 -1.8,-1.2 -0.3,-2.9 0.7,-2.9 7.4,0.1 11.9,-5.6 17.3,-9 4.8,-3 9.4,-3.6 14.5,-3.1 2.2,0.2 4.4,0.8 6.7,1 3.5,0.2 6.4,5.8 4.6,8.7 -1,1.5 -2.5,3.8 -4.4,0.2 -1.2,-2.2 -3,-3.1 -4.4,0.5 -1.9,5.1 -5.8,8.3 -10.7,10.7 -2.9,1.4 -5.6,3.6 -6.6,7 3.7,1 4.4,-2.9 6.6,-4.3 4.3,-2.8 8.5,-6.3 11.9,-10.3 0.6,-0.7 1.2,-1.7 3,-1.1 -1,5.8 -6.8,7.4 -10.4,11.7 3.2,-0.7 5.7,-1.4 7.9,-3 1,-0.7 1.6,-3.2 3.5,-1.4 1.7,1.6 1.4,3.7 0.3,5.4 -0.7,1.2 -2,2.5 -3.3,2.9 -4.8,1.3 -8.5,4.2 -12.4,7.1 -2.1,1.5 -3.9,2.9 -3.6,5.6 0.3,2.7 2.7,2.9 4.7,3.4 0.9,0.2 1.4,0.7 1.9,1.4 -2,1.5 -3.9,3.3 -6.8,2.6 -0.6,-0.1 -1.3,-1.6 -1.8,-0.2 -0.3,0.7 -0.2,1.7 0.5,2.3 0.4,0.3 0.8,0.6 1.2,0.9 1.4,0.9 4,0.9 4,3 0,2.3 -2.9,2.2 -4.5,3.4 1.8,3 4.1,4.8 7.8,3 2.4,-1.2 1.3,-2.7 -0.1,-4.3 3.4,-0.3 5.7,1.2 6.8,3.6 0.9,1.9 -0.9,3.6 -2.1,5.1 -0.5,0.6 -2.1,1.1 -0.9,2 0.7,0.5 1.5,1.5 3,0.9 4.8,-1.8 9.6,-7.4 7.3,-13.2 -4.2,-10.6 -2.2,-21.5 0.2,-32.3 0.4,-1.9 1.9,-3.8 3.2,-5.3 8.3,-9.2 19.8,-15.1 26.3,-27.1 1.7,3.1 0.7,5.5 1.3,7.9 6.1,-3.6 12.4,-6.8 17.8,-11.4 2.6,-2.2 5.6,-3.2 8.9,-3.4 5.2,-0.3 8.3,3.6 6.8,8.6 -0.4,1.5 -1.3,2.9 -1.7,4.5 -0.2,0.6 -1.6,1.6 -0.2,1.8 5.9,1 4.5,5.7 4,9 -1.2,7.3 1.1,15.7 -5.7,21.6 6.2,1.8 7.4,7 4.1,12 -3.2,4.9 -7.6,7.9 -12.6,10.3 -2,1 -4.1,1.7 -5.6,3.9 4.4,0.8 8.5,-0.4 12.4,1.2 3.4,1.5 7,3 7.4,6.9 0.3,3.7 -2.7,6 -5.9,7.7 -3.8,2 -7.3,4.8 -11.9,5.7 3.1,4.4 8.6,5 12.4,8.3 3,2.6 5.4,5 4.2,8.9 -1.2,3.8 -4.9,4.3 -8.3,4.5 -6.4,0.4 -12.7,0.1 -18.9,-2.2 -0.3,0.4 -0.6,0.8 -0.9,1.3 2.3,2 4.4,4.2 6.9,5.9 5.5,3.6 9.3,8.7 13.2,13.8 1.7,2.1 2,5 0.6,7.4 -1.3,2.1 -3.4,3 -6.2,3.1 -7.7,0.5 -13.6,-3.7 -20,-6.5 -2.2,-0.9 -4,-2.7 -7.2,-2.6 1.9,2.5 3.7,4.5 5.2,6.7 2.1,3.1 4.6,6.6 2.2,10.3 -2.6,4 -7.1,3.5 -11.2,2.5 -6.5,-1.6 -10.9,-6.8 -16.2,-10.2 -0.5,-0.3 -1,-0.8 -1.7,-1.3 1.3,10.5 1.2,10.7 -6,11.1 2,3.4 5.2,5 8.7,5.7 1.4,0.3 2.7,0.4 3.1,1.9 0.3,1.3 -1.1,2.2 -1.9,2.6 -3.4,1.7 -1.8,2.4 0.3,3.6 2.1,1.2 3.8,3 5.8,4.5 7.4,5.5 13.3,4.5 19,-2.9 2.2,-3 5.5,-3.2 8.5,-2.5 3.7,0.9 8.3,0.8 10.2,5.2 0.5,1.1 0.6,2.7 0.2,3.9 -0.4,1.1 -1.6,2.3 -2.7,2.6 -1.2,0.4 -1.8,-0.9 -2.2,-2.1 -0.3,-1 -1.1,-1.8 -2.1,-3.5 -1.4,7.5 -10.2,2.6 -12.5,8.8 3,0 5.8,-0.2 8.6,0.1 4.4,0.4 7.3,3.2 8.7,7.2 0.9,2.5 1,5.1 -1.5,7.3 -1.4,1.2 -2.9,2.1 -4.4,1.4 -2,-0.9 0.6,-2.1 0.3,-3.3 -0.3,-1.4 0.6,-3.1 -1.5,-4.2 -1.2,1.5 -2.4,3.1 -4.5,4.1 -3.2,1.6 -3.8,-1.7 -5.7,-2.5 -2.1,-0.9 -4.4,-1.5 -6.6,-2.2 -0.2,6.3 -1.7,12 -4.4,17 -1.5,2.8 -4.7,1 -7,-0.1 4,-5.3 4,-6.5 -1.9,-9.4 -3.2,-1.6 -2.7,-3.7 -2,-6.1 0.9,-2.8 1.7,-4.7 -2.8,-3.3 -4,1.3 -8.2,1.6 -12.4,2 -1.5,0.1 -3.8,1.3 -4.6,-1.5 0,-0.1 0.1,-2.9 -1.9,-1.6 -1.4,1 -0.6,1.9 0.3,2.8 0.3,0.3 0.4,0.7 1,1.6 -4.6,-0.9 -7.7,-4 -6.8,-7.3 2.5,-9 9.4,-5.8 16.3,-3.2 -4.6,-6.6 -11.3,-7.7 -16.2,-11.5 -1.5,-1.2 -2.9,1.2 -4.6,0.9 -2.4,-0.4 -5.3,0 -2.5,-3.9 1.9,-2.5 0.6,-4.8 -1.4,-6.9 -1.8,-2 -2.3,0.3 -3.4,0.6 -1.6,0.4 -1.1,1 -0.9,2.4 0.9,5.3 2.9,10.2 4.6,15.2 5.5,16.6 10.3,33.4 10,51.2 -0.1,3.9 -1.9,7.2 -2.5,10.8 -0.3,2.1 -2.8,3.3 -5.2,2.2 -2,-1 -4.3,-1.8 -4.7,-4.7 -2.5,3.1 -1.6,8.5 -6.7,8.9 -3.6,0.3 -3.8,-3.5 -5.4,-5.5 -4.7,4.7 -5.4,4.7 -10,-0.1 -1.8,2 -1.9,6 -5.7,5.6 -5.5,-1.7 -4.7,-6.7 -6.9,-9.9 z"
   class="st1" />
		<path
   id="path14474"
   d="m 167.9,193.6 c -4.1,-9.1 -8.9,-17.9 -7.7,-29.6 -3.5,6.6 -1.5,13.8 -7.7,17.7 -6.1,-3.7 -4.2,-11.1 -7.7,-17.5 1.2,11.4 -3.5,20.2 -7.7,29.3 -1.2,-0.3 -1.5,-1.6 -0.8,-3 0.7,-1.4 1.7,-2.8 2.8,-4 0.9,-1 1.5,-2.2 0.6,-3 -1.3,-1.2 -2,0.5 -2.7,1.2 -0.8,0.8 -1.4,1.8 -1.8,2.8 -0.6,1.3 -0.7,3.3 -2.6,0.9 0,0 -1,0.6 -1,0.6 1.6,3 -1.2,4.3 -2.1,6.4 -1.1,2.6 -0.8,5.7 0.3,8.8 -4.8,-3.4 -4.8,-3.8 0.2,-12.6 -2,0.3 -4.7,3.8 -7.3,9.2 -2.2,-0.6 -0.7,-1.9 -0.7,-3 0.1,-1.1 0,-2.3 0,-3.8 -1.6,1.6 -2.1,3.1 -2.2,4.7 -0.6,7.2 -6.3,8.8 -11.7,10.9 -1.8,0.7 -3.3,1.9 -5,3 0.8,0.8 2.5,2 2.4,2.3 -1.1,2.1 -2.3,1 -3.4,-0.2 -0.7,-0.8 -1.1,0 -1.5,0.4 -0.8,1 0.3,1.6 0.8,1.8 4.2,1.8 8.7,2.1 12.8,0.1 3.9,-2 6.2,-0.4 8.5,2.4 0.7,0.9 0.1,1.5 -0.5,2.1 -1.4,1.2 -0.9,-0.5 -1.3,-0.9 -1.3,-1.2 -2.3,-3.4 -4.4,-2.1 -1.9,1.2 -4,2.7 -1.6,6.1 -3.6,-5.7 -8.5,-0.4 -12.3,-2.4 -0.7,-0.4 -1.6,-0.2 -2.4,-0.4 -1.4,-0.2 -2.5,-2.7 -4.2,-1 -1.9,1.8 -2.6,4.4 -1.7,6.8 1,2.4 1.2,3 -1.9,3.8 -4.6,1.1 -3,5.8 -3.6,10.5 -1.6,-4.1 -3.2,-6.8 -0.4,-9.8 1.1,-1.1 0.6,-2.1 -0.6,-1.8 -5.3,1.3 -2.2,-1.9 -1.7,-3.3 0.7,-1.8 1.9,-3.4 2.9,-5 1,-1.7 1.8,-3.3 -0.6,-4.6 -1,2.6 -1.9,7.2 -4.5,6.4 -3,-1 -5.2,2.9 -7.7,0.2 -1.2,-1.3 -1.7,0 -2.1,0.7 -0.9,1.5 -1.7,3 -2.4,4.5 -2.4,-1.1 -1.4,-3.2 -2.1,-4.6 -0.7,-1.4 -1.6,-2.7 -2.7,-4.5 15.8,1.1 26.6,-8.3 37.8,-16.6 0.8,-0.6 0.9,-1.5 2.1,-0.9 1.3,0.7 1.6,3.3 3.9,2.2 2.4,-1.1 4.5,-2.7 5.5,-5.3 0.4,-1.1 1,-2.1 1.1,-3.3 -2.3,2.3 -4.3,4.8 -7.2,7 -0.8,-4.8 -5.3,-2.9 -7.7,-4.1 17.2,-11.1 24.3,-29.1 32.5,-46.1 -1.9,-2.1 -2.5,2.1 -4.1,0.3 -0.7,-0.8 -0.5,-3 0.9,-6.5 -0.8,-0.9 -1.4,-0.3 -2.1,0.2 -0.5,0.4 -1,0.7 -1.7,1.2 -0.4,-4.2 1.2,-7.9 1.9,-11.5 -2,-1 -2.3,1.4 -3.8,1.2 -0.7,-2.6 1.7,-4.6 1.6,-7.3 -2.2,-0.9 -2.3,1.6 -3.7,2.4 -0.3,-3.9 -0.6,-7.5 3.1,-10.4 -1.1,-0.2 -1.5,-0.3 -2,-0.3 -1.7,0 -2.5,4.1 -4,1.8 -1.4,-2.1 0.7,-4.2 3.3,-4.9 0.4,-0.1 0.7,-0.4 1.5,-0.8 -3.6,-0.3 -7.2,0.6 -9.4,-2.9 -0.7,-1 -0.9,-1.7 0,-2.5 1.8,-1.5 1.2,0.7 1.6,1.1 2.8,2.9 5.5,3.1 8.7,0.6 2.8,-2.3 6.2,-4 7,-8.1 -2,-1.1 -2.3,1.1 -3.5,1.3 -1.2,0.3 -2.5,0.8 -3.8,-0.9 3.1,-1.4 6.7,-2.6 5.6,-7.2 -1.5,-6.3 -5.3,3.9 -6.4,-1.3 6,-3.7 6,-7.9 0,-12.5 -3.7,-2.7 -6.9,-5.7 -11.8,-6.4 -1.8,-0.3 -3.4,-1.7 -4.6,-4.4 6.3,3 11.8,5.7 17.4,8.4 2.5,1.2 4.9,1 6.5,-1.5 1.5,-2.3 -0.4,-4 -1.6,-5.6 -0.9,-1.2 -1.9,-2.5 -3.2,-3.1 -5.6,-2.4 -10.4,-5.4 -13.2,-11.3 -2,-4.1 -5.2,-3.9 -8.2,0.2 -0.4,-3.9 1.7,-5.5 4.2,-6.2 4.5,-1.3 11.4,4.2 11.6,8.8 0.2,4.8 4.6,7.5 8.9,5 2.2,-1.3 4,-2.1 5,0.9 0.5,1.4 1.6,1.5 2.2,1.1 1.2,-0.9 -0.1,-2.3 -0.5,-2.6 -4.3,-3.2 -8.5,-6.6 -13.2,-8.9 -2.7,-1.3 -4.5,-3.5 -7,-4.8 5.8,-1.1 10.1,2.1 14.4,4.9 4.3,2.8 8.4,6 13.4,6.8 -4.2,4.4 0.9,6.4 2.6,9.2 -1.5,1.6 -2.8,-0.7 -5,-0.3 2.8,2.2 6.1,3.8 3.4,7.7 -0.4,0.6 0.7,2.1 0.8,3.1 0.1,1.5 3.1,2 1.6,3.6 -1.5,1.6 -2.9,-0.6 -4.6,-1.2 4.9,4.5 4.7,10.2 5.1,15.8 0.1,1.4 0,2.6 -1.2,3.6 -1.3,1 -2.4,1.9 -0.3,3.3 2.6,1.7 5.2,1.6 7.8,0.1 1.6,-0.9 1.2,-1.7 0.2,-3.3 -2.8,-4.2 -1.6,-13.1 1.9,-16.8 0.7,-0.7 1.6,-1.2 1.6,-2.5 -1.5,-0.6 -1.7,1.3 -2.7,1.3 -0.6,0 -1.4,0.2 -1.9,-0.1 -1,-0.7 -0.1,-1.4 0.2,-2.1 1.1,-2.4 2.6,-4.5 1.4,-7.5 -1.1,-2.8 2.4,-2.9 4,-4.7 -2.2,-0.7 -3.8,1.5 -5.8,0.1 1.6,-2.8 5.3,-4.3 5.5,-8 0,-0.3 -1.6,-0.7 -2.8,-1.2 10.8,-1.5 17.1,-12.5 29.5,-12.5 -5.8,4.9 -11.9,7.6 -17.3,11.4 -1.1,0.7 -2.2,1.4 -3.2,2.2 -1,0.8 -2,2.8 -1.5,3.1 1.8,1.4 2.2,-0.5 3.1,-1.7 0.8,-1 1.3,-2.1 3.3,-0.8 5.5,3.6 9.7,1.2 10.1,-5.3 0.2,-2.9 6.1,-7.8 9.6,-7.9 4,-0.2 5.9,1.9 6.4,6 -4.6,-3.7 -7.6,-3.7 -9.5,1.1 -1.9,4.8 -5.5,6.9 -9.7,8.8 -2.9,1.3 -5.3,3.2 -6.9,6 -0.7,1.2 -1.8,2.5 -0.5,4 1.1,1.3 2.4,2.1 4.2,2.1 1.5,0 2.7,-0.6 3.6,-1.2 4.8,-3 10.3,-4.8 15.6,-7.5 -0.6,2.8 -2.8,4.2 -5.1,4.5 -5.9,0.6 -9.4,4.9 -13.4,8.3 -3.6,3 -2,7.6 2.9,10.2 -0.7,1.2 -1.9,0.7 -2.8,0.5 -1.2,-0.3 -2.4,-2.3 -3.6,-0.5 -1.3,1.8 -1,3.9 0.4,5.7 1.2,1.4 2.5,2.5 5.4,1.9 -3.4,4 -5.2,0.5 -7.3,-0.1 0.3,3.7 3.9,8.7 7.9,9.9 2.8,0.9 6,0.9 7.4,-2.8 0.4,-1.1 0.8,-0.6 1.3,-0.2 0.6,0.6 0.9,1.2 0.3,2.1 -2.2,3.7 -5.8,3 -9.7,3.2 4.2,1.7 6.6,4.1 5.9,8.4 -3.3,0.2 -3.2,-4.4 -6.9,-4.6 2.6,4.1 5.4,7.8 3.7,12.6 -1.1,-0.8 -1.2,-2.8 -3.3,-2.5 -0.9,2.6 3.1,4.4 1,7.6 -0.9,0.3 -1.4,-2.6 -3,-1.4 0.1,3.7 2,7.3 1.6,11.2 -1.5,0.3 -1.9,-2 -3.5,-1.4 -1.3,1.4 0.4,2.4 0.8,3.4 0.7,1.5 1.3,3 -0.3,3.8 -1.7,0.8 -1.7,-1.2 -2.3,-2.1 -0.4,-0.7 -1,-1.3 -2.8,-1.1 8.3,17.6 15.2,35.7 32.6,46.6 -2.2,1.5 -7,-0.9 -7.6,4.4 -2.6,-2.6 -5.2,-4.5 -7,-7.2 0.6,3.6 2,6.4 5.5,8.1 1,0.5 2,1.7 2.9,0.2 2.2,-3.6 3.9,-1 5.8,0.3 5.5,3.6 10.1,8.5 16.3,11.3 6.2,2.8 12.6,4.1 19.4,4.4 -0.6,1.1 -1.2,2.2 -1.7,3.4 -1.4,3.9 -2.6,8.5 -5.4,0.6 -0.1,-0.4 -0.7,-0.7 -1.1,-1 -2.1,4.4 -5,-0.4 -7.9,0.5 -3.4,1 -4,-3.6 -5.1,-6.4 -2.8,1.4 -1.3,3.3 -0.5,5 0.8,1.7 2,3.3 3,5 1.1,1.9 2.8,4 -1.7,2.9 -1.1,-0.3 -1.9,0.6 -0.8,1.7 3,2.9 1.2,5.7 0.1,9.2 -1.5,-2.8 0.7,-6.3 -1.7,-7.6 -4.5,-2.4 -4.5,-6 -4.5,-10.3 0,-2.1 -1.6,-4.1 -4.8,-2.2 -2.8,1.6 -6.2,2.8 -9.4,0.7 -3.2,-2.1 -3.2,3 -6,2 1.9,-2.4 0.5,-4.1 -1.6,-5.4 -2.2,-1.3 -3.2,0.9 -4.5,2 -0.4,0.4 0.2,2.1 -1.2,1.1 -0.9,-0.6 -1.3,-1.4 -0.4,-2.5 2.2,-2.6 4.5,-3.9 8.1,-2.1 3.7,1.9 7.8,1.9 11.8,0.3 1,-0.4 2.7,-0.6 1.9,-2.1 -0.9,-1.8 -1.7,-0.1 -2.5,0.5 -1.1,0.9 -2.2,0.3 -2.4,-0.6 -0.4,-1.5 2,-1 2.2,-2.1 -2.8,-4.1 -7.8,-4.5 -11.6,-6.4 -5.3,-2.7 -3.5,-7.2 -5.6,-10.4 -0.4,-0.5 -0.7,-1.1 -1,-1.6 -1.7,1.9 0.7,4.3 -0.7,6.7 -2.3,-3.6 -4.5,-7 -6.7,-10.3 -0.8,3.2 1.4,4.9 2.3,7.1 1.2,3.1 -0.4,4.7 -2.7,6.6 0.2,-4.5 1.8,-8.9 -2.6,-11.9 -0.5,-0.3 -1,-0.7 0.1,-1.7 1.3,-1.1 0.8,-1.8 -1.2,-1.3 -1.2,0.3 -1.4,-0.6 -1.7,-1.1 -0.7,-1.1 -0.9,-2.5 -1.7,-3.4 -0.8,-0.9 -1.6,-2.8 -3,-1.7 -1.2,0.9 -0.2,2.3 0.8,3.4 2.4,2.2 4.8,4.1 2.3,7.1 z"
   class="st0" />
		<path
   id="path14476"
   d="m 214.7,91.7 c 1.7,2.7 3.5,4.2 6.4,1.4 1.9,-1.9 3.6,-0.3 5.1,0.7 2,1.4 0.1,2.8 -0.4,3.8 -1.7,3.8 -5.4,4.6 -8.6,2.1 -2.4,-1.8 -5.5,-2.2 -7.7,-4.5 0.1,2 0,4 2.8,3.9 2,-0.1 3.1,1.4 3.7,2.8 0.8,2 -1.1,2.8 -2.7,3.7 1.7,0.7 3,0.5 4.4,-0.6 4.1,-3.2 4.8,-2.9 7.4,2.4 -2.4,1 -4.8,2.1 -7.7,1.9 3.2,1.9 7.2,-0.9 10.1,2.6 1.6,1.9 1.6,2.7 -0.1,4.3 -3.5,3.3 -8.1,3.8 -10.7,0.9 -0.5,-0.6 -1.4,-0.8 -1.1,-2.3 1.3,-6.1 -4.7,-8.4 -6.7,-12.9 0.2,4.5 4.6,7.2 5.1,11.8 -2.9,0.9 -3.1,-3 -5.5,-2.5 -0.5,3.6 2.5,4.9 4.7,6.4 4.8,3.4 4.9,4.1 0,7.3 -1.1,0.7 -2.4,1 -1.9,3.4 2,-1.4 4.1,-2.3 5.5,-3.8 1.4,-1.6 2.7,-1 3.7,-0.4 1.8,1.1 4.8,1.7 4.4,4.6 -0.3,2.6 -2.9,3.3 -5,4.2 -4.5,1.9 -8.6,1.3 -11.9,-2.5 -2.1,-2.4 -5.6,-1.9 -7.6,-4.4 -1.4,2.3 3.4,3.1 0.7,5.2 -1.7,1.3 -2,-2 -3.7,-1.2 -1.1,0.9 -0.2,1.6 0.5,2.3 0.6,0.6 1.1,1 0.2,1.9 -1.4,1.3 -4.2,-1.9 -5.1,1.6 -0.1,0.4 -2.2,-4.9 -3.8,-0.2 -1.8,-1.1 -1.7,-3 -1.2,-4.5 0.8,-2.5 1.5,-4.5 -0.8,-6.7 -0.8,-0.7 -1.1,-2.5 1.3,-2.4 9.4,0.7 14.7,-5.9 11.8,-15.2 -2.6,-8.6 -3.3,-17.2 -1.1,-25.9 2.4,-9.6 9.8,-15.2 17,-20.7 4,-3 6.7,-6.9 10.5,-10 -3.4,8 -9.6,13.4 -17,18.1 2.9,1.2 5.6,-4.1 7.8,-0.1 1.5,2.8 -1.7,3.7 -3.3,5.1 0.2,0.1 0.5,0.4 0.7,0.4 2,0 4.2,-2.3 6.1,0.7 1.5,2.3 0.9,4.3 -0.2,6.4 -1.3,2.5 -3.5,4 -6.3,3.9 -2.8,-0.1 -4.8,-1.6 -3.3,-4.7 1.6,-3.3 -0.1,-4.8 -3.5,-6.9 1.1,2.5 3.7,4.6 0.1,5.9 -0.2,0.1 0.2,3.4 1.5,5 1.6,1.9 6.4,3.5 1.2,7 -1,0.7 1.2,3.3 1.9,3.5 2.4,0.7 0.5,-2.5 2.1,-2.9 z"
   class="st0" />
		<path
   id="path14478"
   d="m 90.2,91.8 c 1.5,0.6 -0.2,2.9 1.7,3.2 1.5,0.2 0.9,-1.5 1.7,-2 2.5,-1.9 -0.4,-2 -1,-2.7 -1.4,-1.9 -0.4,-3.2 1,-4.2 1.9,-1.5 3,-3.3 3.6,-5.6 0.1,-0.5 1,-0.9 -0.1,-1.4 -3.4,-1.3 -1.6,-3.1 0.5,-5.1 -4.6,0.7 -5.4,2.9 -4.1,5.9 0.6,1.5 1.2,3.1 -0.1,4 -1.5,1 -3.5,2.1 -5.5,0.6 -1,-0.8 -2.3,-1.3 -3.1,-2.2 -1.9,-2.3 -2.7,-5.2 -1.4,-7.8 1.7,-3.4 4.7,0.1 7.1,-0.4 -0.4,-2.4 -5.3,-1.4 -3.8,-5 0.8,-1.9 2.4,-1.8 8.2,-0.4 -6.8,-3.8 -11.7,-9.8 -16.7,-15.4 -0.5,-0.5 -0.1,-1.9 -0.1,-4.4 4.8,8.4 12,12.4 17.9,17.7 11.2,10.1 13,22.7 9.6,36.6 -0.6,2.5 -1.3,5 -1.6,7.6 -0.6,6.7 2.3,9.4 9.4,12.2 2.2,0.9 3.5,-1.2 5.9,-1.5 -1.9,2.8 -3,5.4 -1.4,8.5 0.8,1.6 0,2.1 -2.2,1.6 -0.2,0 -0.5,0.2 -0.8,0.3 -1.1,0.5 -0.6,2.7 -2.6,2.4 -2.6,-0.5 1,-1.8 -0.4,-2.5 -0.3,-0.1 -0.4,-0.4 -0.7,0 -1.1,0.9 -2.2,2.7 -3.5,0.5 -1,-1.5 2.2,-1.9 1.1,-3.7 -1.6,-1.7 -2.3,3.1 -4.2,0.8 -1.8,-2.2 2.4,-2.6 1.4,-4.4 -6.2,0.9 -9.8,6.2 -15.2,8.6 -3.8,1.6 -6.2,-0.7 -8.9,-2 -1.6,-0.8 -3,-2.6 -1,-4.4 1.9,-1.7 3.9,-4.2 6.8,-2.5 2.9,1.7 5,4.8 9.4,3.4 -1.4,-0.7 -2.5,-1.1 -3.5,-1.8 -6.6,-4.3 -7.7,-4.9 -0.5,-9.1 2.4,-1.4 3.2,-3.1 3.7,-5.7 -2.4,-0.1 -2.9,2.8 -5.3,3.1 -0.4,-5.1 4.5,-7.5 5.3,-11.7 -3,1.2 -8.1,8.5 -7.5,11.5 0.7,3.6 -1.5,4.5 -4,5.1 -3,0.6 -9.3,-2.7 -8.9,-4.6 0.4,-2.3 2.1,-4.1 4.7,-4.3 2.1,-0.2 4.3,0 6.6,-0.5 -2.4,-0.6 -4.9,-1.2 -7.4,-1.8 2.2,-5.8 2.6,-6 7.7,-2.4 1.3,0.9 2.4,0.7 4.1,0.4 -1.5,-1.1 -3.6,-1.9 -2.7,-3.9 0.6,-1.5 1.7,-3 3.7,-2.8 3,0.2 2.2,-2.3 3,-3.8 -2.3,2.3 -5.7,2.4 -7.9,4.5 -1.9,1.8 -3.8,1.5 -5.9,0.8 -2.5,-0.8 -3,-3.3 -3.8,-5.2 -0.8,-1.8 3.2,-3.8 5.3,-2.4 3,2 5.1,1.9 6.9,-1.3 z"
   class="st0" />
		<path
   id="path14480"
   d="m 146.3,208.5 c 1.2,2.9 -0.7,7 4.3,7.9 0.3,0.1 0.4,2.5 0.4,3.8 0,14 0,28 0.1,42 0,1.3 -1.4,3.9 1.5,3.8 2.7,-0.1 1.3,-2.6 1.3,-4 0.1,-14 0.1,-28 0.1,-42 0,-1.8 -0.4,-3.4 2.3,-4.4 2.4,-0.9 1.6,-4.6 2,-7.1 2.7,13.9 4.4,27.6 1.9,41.9 -1.3,7.3 -2.1,14.7 -4.3,21.8 -0.1,0.5 0,1 -0.2,1.5 -0.9,1.6 -1.6,4 -3.2,4.1 -1.9,0 -2.9,-2.5 -3.4,-4.2 -3.1,-10.4 -4.1,-21.2 -5.5,-32 -1.3,-11.6 1.9,-22.2 2.7,-33.1 z"
   class="st0" />
		<path
   id="path14482"
   d="m 76.8,160.3 c 6,-4 11.9,-7.9 18,-12 0.1,0.6 0,1.3 0.2,1.8 0.8,2 2.8,4.6 2.2,5.7 -1.4,2.4 -3.8,4.4 -6.3,6.2 -9.6,6.9 -20.9,10.2 -31.5,15.2 -3.3,1.5 -6,0.9 -7.9,-1.4 -1.8,-2.2 0.1,-4.5 1.6,-6.5 8.2,-10.9 18.8,-18.8 30.4,-25.5 1.8,-1.1 1.3,0.5 1.7,1 1.6,1.6 2.9,3.5 6,3.5 -5.2,4 -10.6,6.9 -14.4,12 z"
   class="st0" />
		<path
   id="path14484"
   d="m 213.9,148.6 c 0.7,-0.3 1.1,-0.6 1.4,-0.5 3.3,0.6 3.5,-6.7 7.9,-3 2.7,2.3 6.7,2.9 9.1,5.2 6.7,6.2 14.5,11.3 19.6,19.2 1.3,2 3.4,4.3 1.3,6.5 -1.9,2.1 -4.5,2.6 -7.6,1.3 -11.8,-5 -23.7,-9.6 -34.4,-16.8 -1.4,-0.9 -4.5,-2 -1.6,-5.2 1.1,-1.2 0.4,-4.1 0.5,-7 6.3,4.1 12.1,7.9 17.9,11.8 -3.6,-4.9 -8.9,-7.9 -14.1,-11.5 z"
   class="st0" />
		<path
   id="path14486"
   d="m 87.5,136.4 c -6.4,10 -16.7,10.1 -26.4,11.6 -4.3,0.7 -8.5,1.6 -12.9,0.1 -4.3,-1.4 -5.4,-3.5 -2.7,-7 1.8,-2.3 4.5,-3.7 6.9,-5.2 3,-1.9 7.3,-2.2 8.9,-6.4 0.1,-0.4 1.4,-0.5 2.2,-0.5 3.1,-0.1 6.2,0 9.2,-0.9 1.6,-0.5 3.4,-0.5 4.9,1.8 1.9,2.9 1.4,3.4 -1.6,4.2 -4.3,1.2 -8.4,2.8 -13.8,4.6 9.5,0.7 16.8,-8.5 25.3,-2.3 z"
   class="st0" />
		<path
   id="path14488"
   d="m 217.3,136.4 c 8.8,-6.1 16.1,2.9 25.3,2.3 -5.1,-1.8 -9.3,-3.4 -13.5,-4.7 -1.5,-0.4 -3.6,-0.8 -2.9,-2.3 0.7,-1.4 1.3,-4.5 3.7,-3.7 5.2,1.8 11.5,-1.5 16.1,4.1 2.3,2.8 6.5,3.9 9.9,5.8 1.7,1 3,2.4 4.1,4.1 2,3.3 0.4,4.7 -2.5,5.9 -5,2 -10,0.5 -14.9,-0.1 -4.2,-0.5 -8.4,-0.9 -12.4,-2.1 -5.2,-1.3 -9.5,-4.5 -12.9,-9.3 z"
   class="st0" />
		<path
   id="path14490"
   d="m 251.5,45 c -9.4,7.2 -19.6,12.6 -30.5,17.3 2,-2.2 3.6,-5.3 6.1,-6.6 9.2,-4.8 17.1,-11.5 26.2,-16.3 1.4,-0.7 3.1,-2.7 4.8,-0.8 1.4,1.6 2.3,3.3 1.2,6.1 -4.2,10.5 -11.5,17.5 -21.3,22.3 -3.6,1.7 -7.3,3.2 -11,4.6 -4.5,1.7 -6.8,0.4 -7,-4 -0.1,-2.4 2,-2.7 3.7,-3.6 9.9,-5.2 20.3,-10 27.8,-19 z"
   class="st0" />
		<path
   id="path14492"
   d="M 84.6,62.7 C 72.6,58.1 63,51.7 53.5,44.9 c 4.6,6.6 11.4,10.1 18,13.9 3.9,2.2 7.9,4.1 12,6.1 1.1,0.5 3,0.8 1.7,2.2 -1.7,1.8 -1.1,7 -4.8,5.4 -11.5,-4.7 -23.5,-8.7 -30.5,-20.2 -1.6,-2.6 -2.6,-5.5 -4.3,-8.1 -1.5,-2.3 0.2,-3.7 1,-5.3 1.2,-2.1 2.7,-0.3 3.8,0.2 8.4,3.4 15.2,9.6 23.1,13.9 4,2.2 7.6,4.9 11.1,9.7 z"
   class="st0" />
		<path
   id="path14494"
   d="m 108.7,156.7 c -7,6.6 -12.6,13.9 -18.9,21.3 1.1,-0.2 1.7,-0.1 1.9,-0.3 5.8,-6.1 11.6,-12.2 17.2,-18.5 1,-1.2 1,-2.7 2.9,-1 1.3,1.2 3,1.5 1.6,4 -4.1,7.5 -9.1,14.1 -16.4,18.7 -4.2,2.6 -7.8,6.1 -12.8,7.6 -2.4,0.7 -4.4,0.3 -5.8,-1 -1.5,-1.4 -1.5,-3.5 -0.4,-5.7 3.2,-6.6 8.1,-11.9 13.6,-16.4 2.4,-2 4.6,-4.2 6.9,-6.3 3.6,-3.5 3.5,-3.6 10.2,-2.4 z"
   class="st0" />
		<path
   id="path14496"
   d="m 214.7,177.7 c -5,-6.8 -10.9,-12.9 -17.4,-18.9 5.3,-2 8.1,0.5 11.5,3.1 6.5,4.8 12.3,10.1 16.6,17 1.6,2.6 3.8,5.2 1.5,8.3 -2.5,3.4 -6.1,2 -8.7,0.5 -11.2,-6.4 -21.6,-13.7 -26.8,-26.1 2.9,-2.3 4.6,-1 7.4,1.5 4.8,4.3 8.9,9.1 13.3,13.7 0.7,0.5 1.2,1.7 2.6,0.9 z"
   class="st0" />
		<path
   id="path14498"
   d="m 220.1,121.1 c 3.8,0.4 6.8,-1.6 9.3,-3.5 2.9,-2.2 5.9,-2.2 8.4,-1.5 6.1,1.8 11.4,0.5 17.6,-3.1 -3.9,-0.3 -6.5,1.2 -9.2,1.7 -3.2,0.6 -6.5,-0.6 -9.7,-0.7 -3.9,-0.1 -5.3,-2.6 -7.6,-5.1 7.9,1.8 15.3,-0.1 22.7,0.9 2.3,0.3 4.4,0.4 6.5,1.6 4.9,2.7 5.2,5.8 0.6,9.2 -11.6,8.6 -27,8 -37.9,1.5 -0.3,0 -0.3,-0.4 -0.7,-1 z"
   class="st0" />
		<path
   id="path14500"
   d="m 50.5,113.2 c 5.2,3.5 10.5,4.9 16.6,3 2.5,-0.8 5.5,-0.8 8.4,1.4 2.5,1.9 5.5,4 9.6,3.3 -6.2,7.1 -27.2,8 -34.1,2.4 -2.2,-1.8 -4.9,-2.5 -6.7,-5.2 -2.1,-3.2 -0.9,-4.6 1.4,-5.9 2.3,-1.4 4.9,-2.1 7.8,-2.3 7.4,-0.6 14.8,0.7 23,-0.9 -8.1,8.9 -17.2,5.6 -26,4.2 z"
   class="st0" />
		<path
   id="path14502"
   d="m 238.7,105 c 1.6,0 3.2,0 6.3,0 -4.9,1.7 -8.3,3.2 -12.3,3.1 -2.8,-0.1 -4.3,-0.7 -6,-3.4 -2.7,-4.2 -1.2,-4.7 2.6,-4.7 8.5,-0.2 19.9,-4.5 27.4,-10.8 -8.9,3.5 -17.4,8.2 -27.2,9 0,-2.5 1.5,-3.6 3.2,-4 8,-2.1 15.3,-5.9 22.4,-9.8 3.2,-1.7 5.2,0 7.1,1.5 2.2,1.7 0.5,4 -0.5,5.8 -3.8,7 -10.7,9.5 -17.8,11.3 -1.8,0.3 -3.6,1 -5.2,2 z"
   class="st0" />
		<path
   id="path14504"
   d="m 75.5,98.3 c -9.9,-1 -18.3,-5.7 -27.2,-9 8,5.9 16.7,10 26.8,10.7 1.8,0.1 5.3,-0.4 4.6,1.9 -0.6,2.1 -1.1,5.9 -5,6.1 -4.7,0.3 -9,-0.6 -13.6,-2.8 2.1,-0.2 3.9,-0.3 5.6,-0.4 -5.6,-1.8 -11.3,-3.3 -16.5,-6.1 -3.9,-2.1 -5.8,-5.6 -7.8,-9 -0.7,-1.3 -0.9,-3.2 0.7,-4 1.8,-0.9 3.3,-3 5.8,-1.7 7.9,3.9 15.7,8.1 24.2,10.6 1.5,0.4 2.4,1.4 2.4,3.7 z"
   class="st0" />
		<path
   id="path14506"
   d="m 225.3,75.6 c 4,-3.8 9.5,-5 14.3,-7.4 5,-2.5 9.5,-5.5 13.3,-9.6 1.7,-1.7 3.6,-3.3 5.7,-4.6 2.3,-1.5 4.1,-0.7 4.3,1.9 0.3,4.1 -0.2,7.8 -3.4,11.2 -8.4,9.1 -18.8,13.9 -30.8,15.8 -2.1,0.3 -4.9,0.1 -5.5,-1.9 -0.5,-2 1.7,-3.4 3.8,-4.1 9.4,-3.3 18.8,-6.5 26.7,-12.9 1.6,-1.3 3.3,-2.4 4,-4.7 -9.7,7.5 -20.7,12.5 -32.4,16.3 z"
   class="st0" />
		<path
   id="path14508"
   d="m 162.6,203 c 1.5,7 3.2,13.9 4.3,21 1.5,9 3.7,17.9 3.1,27.2 -0.6,8.8 -2.1,17.3 -5,25.6 -0.4,1.2 -0.9,2.3 -2.2,2.1 -0.9,-0.1 -1.4,-1.1 -1.8,-2.1 -1.1,-2.8 -1.5,-5.9 -0.9,-8.7 2.9,-12.2 3.4,-24.6 3.8,-37 0.3,-7.3 -1.6,-14.5 -2.7,-21.8 -0.4,-2 -0.6,-4.1 1.4,-6.3 z"
   class="st0" />
		<path
   id="path14510"
   d="m 143.5,203.1 c 1.6,4.8 0.1,9.7 -0.9,14.1 -2.5,12 -0.5,23.7 -0.1,35.6 0.3,7.7 4.7,15.2 1.6,23.1 -0.5,1.2 -0.5,2.9 -2,3 -1.6,0.1 -1.7,-1.4 -2.2,-2.7 -5.8,-15.9 -6.3,-32 -2.3,-48.4 1.9,-7.7 3,-15.5 4.4,-23.3 0.1,-0.7 0.2,-1.4 1.5,-1.4 z"
   class="st0" />
		<path
   id="path14512"
   d="m 79.9,75.2 c -11.8,-3.4 -23,-8 -32.8,-15.6 4.6,5.7 10.6,9.5 17.2,12.4 4.7,2.1 9.6,3.6 14.4,5.3 1.8,0.7 3.4,2.2 3.1,3.7 -0.4,1.7 -2.6,2.2 -4.4,2 C 64.6,81.3 53.3,76.7 45,66.4 c -2.1,-2.6 -1.9,-6 -2.8,-9.1 -0.2,-0.9 0.8,-2.6 1.7,-3.1 1.4,-0.8 3,0.5 4,1.3 3.5,2.7 6.6,6 10.1,8.5 6.7,4.7 14.6,7.4 21.9,11.2 z"
   class="st0" />
		<path
   id="path14514"
   d="m 139.6,200.6 c 0.5,6.8 -1.5,13.4 -3,20 -3.5,15.1 -5.4,30.1 -1.8,45.4 0.8,3.3 -1.4,6.3 -3.9,8.5 -1.8,1.6 -2.4,-0.3 -2.9,-1.8 -2.4,-6.5 -2.7,-13.3 -1.9,-19.9 1.6,-13.3 4.9,-26.2 8.9,-39 1.4,-4.4 3.6,-8.6 4.6,-13.2 z"
   class="st0" />
		<path
   id="path14516"
   d="m 165,200.4 c 0.9,2.9 2.1,5.4 3,8 4.7,13.4 8.1,27 10.1,41.1 1.1,7.6 1.2,14.8 -1,22.2 -0.4,1.3 -0.4,2.9 -1.8,3.1 -1.7,0.3 -2.4,-1.4 -3.3,-2.6 -3.1,-4.2 -1.2,-8.6 -0.7,-13 1,-7.6 0.9,-15.1 0,-22.6 -1.4,-10.9 -4.2,-21.5 -6.3,-32.3 -0.2,-1.2 0,-2.5 0,-3.9 z"
   class="st0" />
		<path
   id="path14518"
   d="m 158,179.9 c -0.8,6.5 7.2,8.6 7,15.9 -1.9,-2.8 -3.2,-4.6 -4.6,-6.7 -1.2,3.2 3.2,5.4 1.3,8.5 -1.1,-0.8 -1,-2.9 -3.6,-2.4 2.9,2.5 2.8,4.5 -0.6,6 -0.9,0.4 -1.5,1.2 -0.9,2.8 1.6,3.9 -1.7,1.7 -3,2.1 -0.7,2.7 5.2,4.4 1.2,7.2 -0.7,0.5 -3.5,1.4 -4.9,-0.2 -2.7,-3.2 2.1,-4.2 1.7,-7 -0.7,-0.7 -5.3,2 -2.8,-2.7 0.7,-1.2 -0.4,-2.1 -1.2,-2.4 -3.7,-1.4 -3.1,-3.6 -0.6,-6 -2.6,-0.4 -2.5,1.8 -3.6,2.5 -1.7,-3.2 2.3,-5.3 1.4,-8.6 -1.5,2.1 -2.8,3.9 -4.8,6.7 -0.1,-7.3 7.7,-9.4 7,-15.9 5.4,5.5 3.2,12.2 4.3,18.1 0.2,0.9 -0.6,1.9 0.9,1.9 1.7,0.1 1.1,-0.7 1.4,-2 1.1,-5.7 -1,-12.4 4.4,-17.8 z"
   class="st0" />
		<path
   id="path14520"
   d="m 43.9,69.7 c 9,8.8 19.5,13.3 31.2,15.3 2.8,0.5 3.6,3.2 3.2,4.8 -0.5,1.8 -2.5,3.4 -5.3,2.3 C 66.2,89.4 59.2,87 52.8,83.4 47.6,80.4 44.7,76.2 43.9,69.7 Z"
   class="st0" />
		<path
   id="path14522"
   d="m 261,69.8 c 0.2,7 -3.9,10.5 -8.7,13.4 -6.2,3.8 -13.1,5.9 -19.7,8.7 -2.9,1.2 -5.2,0 -5.9,-2.2 -0.6,-2 1.3,-4.1 3.7,-4.7 2.6,-0.7 5.3,-1.2 8,-1.8 8.7,-2 15.6,-7.1 22.6,-13.4 z"
   class="st0" />
		<path
   id="path14524"
   d="m 193.6,182.3 c 1.2,-4.1 -2.9,-5 -3.6,-7.6 -0.3,-1.2 -1.8,-2.2 -2.5,-3.5 -0.6,-1.2 -2.7,-2 -0.6,-3.6 1.3,-1 3,-1.1 4.1,0 4.7,4.9 7,11.1 8.8,17.4 0.7,2.3 -3.9,4.1 -6,2.1 -5,-4.7 -9.2,-10 -12.4,-16.2 -0.5,-1 -0.8,-2.1 0,-2.7 1,-0.7 1.8,0.4 2.4,1.2 3.2,4.1 6.3,8.2 9.8,12.9 z"
   class="st0" />
		<path
   id="path14526"
   d="m 111.6,181.9 c 3.2,-4.1 6.3,-8.2 9.5,-12.3 0.6,-0.8 1.2,-2 2.3,-1.5 1.3,0.7 0.7,1.9 0.2,2.9 -3.1,6 -7.2,11.2 -12,15.9 -1.6,1.5 -3.2,1.4 -4.8,0.2 -1.5,-1.1 -1.5,-2.1 -0.9,-4.1 1.5,-4.6 3.5,-8.9 6.1,-13 1.5,-2.4 3.3,-4.2 5.9,-2.6 3.3,2.1 -0.5,3.8 -1.3,5.1 -1.7,3.1 -4.8,5.4 -5,9.4 z"
   class="st0" />
		<path
   id="path14528"
   d="m 127.7,156.1 c -5.7,-0.1 0.2,-5.5 -3.4,-7 -0.2,1.2 -0.4,2.3 -0.6,3.7 -2.3,-3 -3.5,-6.5 -7.7,-7.1 -1.8,-0.3 -1.1,-2.5 -0.5,-3.7 0.9,-1.7 2,-0.6 2.5,0.4 1,1.8 3.8,1.7 4.1,4.4 0.2,1.7 1.1,0.3 1.5,-0.1 0.5,-0.6 2,-1.1 0.6,-2.2 -1.5,-1.2 -2.9,-2.8 -4.7,-3.4 -2.3,-0.7 -0.9,-3 -2.3,-3.8 2.5,-3 2.7,-6.9 4.1,-10.6 -1.1,7.4 5.1,12.8 4.9,19.9 -0.1,2.5 1.7,5 2.6,7.6 0.5,1.6 0.8,3.3 -0.3,4.7 -0.8,1.1 -2,1.2 -3.1,0.6 -0.9,-0.5 -1.6,-1.3 -1.3,-2.5 0.7,-2.2 2.5,1.6 3.6,-0.9 z"
   class="st0" />
		<path
   id="path14530"
   d="m 182.2,154.9 c -0.1,-1.3 -0.3,-2.4 -0.4,-3.7 -3.7,1.4 2.1,7 -3.6,7.1 0.9,2.2 3.2,-1.3 3.7,1.2 0.3,1.6 -0.8,2.5 -2.4,2.5 -2.6,0 -2.8,-2 -2.5,-3.9 0.6,-4.8 2.7,-9.1 3.6,-13.9 0.9,-5 4.5,-9.5 4.1,-15.4 0.9,4 3,7.4 3.6,11.2 0.4,2.8 -2.6,3.8 -4.7,5.2 -1.2,0.7 -3.8,1.7 -1,3.8 0.6,0.5 1.4,1.4 1.4,-0.3 0.1,-2.5 3,-2.2 3.9,-4 0.3,-0.6 0.9,-2 2.2,-1.2 0.8,0.5 1.1,1.2 0.9,2.1 -0.1,0.9 0.4,2.1 -1.1,2.2 -4.3,0.4 -5.3,4.3 -7.7,7.1 z"
   class="st0" />
		<path
   id="path14532"
   d="m 93.1,146 c -2.7,0.1 -5.2,-0.7 -5.6,-2.3 -0.5,-1.7 0,-4 1.9,-5.7 3.5,-3 9.5,-4 13.7,-2 1.6,0.7 0.9,1.8 0.5,2.9 -1.2,3.8 -7.9,7.1 -10.5,7.1 z"
   class="st0" />
		<path
   id="path14534"
   d="m 217.3,142.4 c 0,2.5 -6.2,5.7 -9.1,4.2 -1.6,-0.8 -3,-2 -4.2,-3.2 -1.2,-1.1 -2.2,-2.7 -1.9,-4.3 0.4,-2.3 2.4,-0.7 3.7,-1.2 3.1,-1.1 6.3,-4 9.5,-0.2 1.2,1.4 2.6,2.5 2,4.7 z"
   class="st0" />
		<path
   id="path14536"
   d="m 204,156.2 c -5.5,-0.4 -7.3,-4.3 -9.9,-7.1 -0.5,-0.5 -0.4,-2.2 1.1,-2.1 2.2,0.1 4,-1.1 6,-1.6 2.8,-0.7 3.7,2.5 5.6,3.9 1.6,1.1 1.7,2.9 0.8,4.4 -1,1.6 -2.3,3.1 -3.6,2.5 z"
   class="st0" />
		<path
   id="path14538"
   d="m 103,154 c -3,0.2 -4.8,-1 -4.9,-4.1 -0.1,-1.8 5.5,-7.5 6.3,-6.7 2.2,2.3 6.5,0 7.6,3.5 0.4,2 -6.5,7.3 -9,7.3 z"
   class="st0" />
		<path
   id="path14540"
   d="m 83.9,214.9 c -2.3,1.2 -4.7,2.6 -6.6,0.7 -2.6,-2.7 -4.9,-5.5 -10,-3.2 1.2,-2.3 2.1,-3.5 2.5,-4.9 0.6,-2.2 1.8,-1.9 2.6,-0.5 2.6,4.5 7.7,4.9 11.5,7.9 z"
   class="st0" />
		<path
   id="path14542"
   d="m 237.6,212.4 c -5.1,-2.3 -7.2,0.9 -10,3.3 -1.9,1.6 -4.3,0.1 -6.9,-0.5 4.3,-3.3 9.4,-3.9 12,-8.3 0.6,-1 1.7,-1.8 2.4,0.3 0.5,1.5 1.3,2.9 2.5,5.2 z"
   class="st0" />
		<path
   id="path14544"
   d="m 122.5,153.7 c -4.4,2.6 -8.3,5.5 -11.3,-0.4 2,-1.3 2.7,-5.1 5.9,-4.7 2.5,0.4 1.3,5.2 5.4,5.1 z"
   class="st0" />
		<path
   id="path14546"
   d="m 183.7,156.5 c 0.9,-2 3.1,-1.7 3.4,-3.8 0.3,-2.4 2.5,-2.8 3.9,-1.6 1.4,1.2 3.9,2.8 3.2,4.8 -0.5,1.5 -2.1,3.9 -4.9,2.8 -1.8,-0.7 -3.5,-1.4 -5.6,-2.2 z"
   class="st0" />
		<path
   id="path14548"
   d="m 115.3,136 c -1.4,2.5 -0.9,5.3 -4.1,6.5 -1.9,0.8 -3.2,0.2 -4.4,-0.7 -1.7,-1.2 -0.9,-3.4 -0.6,-4.9 0.3,-1.7 2.2,-0.8 3.3,-0.9 1.8,-0.1 3.5,0 5.8,0 z"
   class="st0" />
		<path
   id="path14550"
   d="m 190.8,137.5 c 3.3,1.9 7.4,-2.2 9.1,2.7 0.8,2.3 -0.3,4.4 -2.7,4.6 -4.3,0.5 -5.4,-2.8 -6.4,-7.3 z"
   class="st0" />
		<path
   id="path14552"
   d="m 214.8,91.8 c 1.1,-3.3 2.4,-6.3 6.5,-7 1.3,-0.2 2.3,-1.1 3.3,0.3 0.9,1.3 0.5,2.5 -0.7,3.4 -2.7,2.1 -5.6,3.6 -9.2,3.1 0,0.1 0.1,0.2 0.1,0.2 z"
   class="st0" />
		<path
   id="path14554"
   d="m 90.4,91.6 c -1.7,0.9 -3.1,-0.1 -4.6,-0.6 -2.7,-0.8 -5.4,-1.6 -5.7,-4.9 -0.2,-1.5 1.3,-1.3 2.1,-1.1 2.8,0.8 6.9,-0.3 6.9,4.7 0,0.7 0.8,1.3 1.2,2 -0.1,0.1 0.1,-0.1 0.1,-0.1 z"
   class="st0" />
		<path
   id="path14556"
   d="m 121.9,157.3 c -1.9,2.5 6.1,6.8 -1.8,8.2 -1.7,0.3 -3.3,0.7 -3.7,-0.8 -1.2,-4.4 2.7,-5.5 5.5,-7.4 z"
   class="st0" />
		<path
   id="path14558"
   d="m 209.9,134.3 c -3,0.8 -5.6,4.9 -8.5,1.3 -1.7,-2.1 0.9,-3.7 2.3,-4.6 4,-2.7 3.4,3.3 6.2,3.3 z"
   class="st0" />
		<path
   id="path14560"
   d="m 94.8,132.5 c 3.8,-0.9 3.8,-5.7 7.6,-3.6 1.4,0.8 4.1,2.7 2.3,4.6 -2.7,2.8 -5.6,-0.2 -9.9,-1 z"
   class="st0" />
		<path
   id="path14562"
   d="m 179.7,165 c 3.4,-0.4 4.9,-2.2 4.4,-5.9 2.4,1.6 6.2,2.7 5.4,5.3 -1,2.9 -4.4,0.6 -6.8,0.6 -1.1,0 -2.1,0 -3,0 z"
   class="st0" />
		<path
   id="path14564"
   d="m 246.5,211.9 c -1.3,-4.7 -7.4,-2.5 -9.2,-6.4 6.4,-0.1 9,1.6 9.2,6.4 z"
   class="st0" />
		<path
   id="path14566"
   d="m 68.1,204.7 c -2.2,4.7 -8.2,2.4 -9.7,6.9 0.3,-5.8 5.1,-5.5 9.7,-6.9 z"
   class="st0" />
		<path
   id="path14568"
   d="m 242.8,231.7 c 0.9,-5 -0.9,-7.2 -5.3,-8.1 1.9,-0.6 1.9,-3.7 4.2,-1.5 2.5,2.5 4.2,5.1 1.1,9.6 z"
   class="st0" />
		<path
   id="path14570"
   d="m 67.5,223.7 c -4.7,0.8 -6.2,3.2 -5.3,8 -3,-4.5 -1.4,-7 1,-9.5 2.3,-2.3 2.4,0.7 4.3,1.5 z"
   class="st0" />
		<path
   id="path14572"
   d="m 174,67.3 c 2.7,-0.2 4.7,-1 4.1,-4.2 3.5,1.8 1.2,3.6 0.3,4.9 -1.1,1.7 -2.7,1.4 -4.4,-0.7 z"
   class="st0" />
		<path
   id="path14574"
   d="m 126.7,63 c 0.2,2.6 1.1,4.5 4.1,4.1 -1,2.1 -2.6,2.7 -3.8,1.3 -1,-1.3 -3.5,-3 -0.3,-5.4 z"
   class="st0" />
		<path
   id="path14576"
   d="m 169.4,124.3 c 0.7,0.5 1.5,1 2.3,1.4 1.3,-2.5 -0.6,-4.7 -0.7,-7.3 3.5,4.7 4.1,6.4 1.9,8.1 -2.5,2 -2.7,5.4 -5.1,7.2 -0.6,0.5 -1.6,0.3 -1.6,-0.3 -0.1,-1.4 0.2,-2.8 0.3,-4.3 6.4,1.7 1.3,-3.5 2.9,-4.8 z"
   class="st1" />
		<path
   id="path14578"
   d="m 134,117.7 c -0.1,3.3 -2,5.5 -0.7,8 0.8,-0.5 1.5,-1 2.3,-1.4 1.5,1.4 -3.3,6.4 2.9,5 -0.9,1.5 0.5,3 0.4,4.8 -7,-4 -9,-10.4 -4.9,-16.4 z"
   class="st1" />
		<path
   id="path14580"
   d="m 137.8,180.4 c -2.9,5.2 -8.2,7.6 -12.6,11.1 3.1,-4.8 6.9,-9 12.6,-11.1 z"
   class="st1" />
		<path
   id="path14582"
   d="m 167.2,180.4 c 5.8,2 9.5,6.2 12.7,11 -4.5,-3.4 -9.8,-5.8 -12.7,-11 z"
   class="st1" />
		<path
   id="path14584"
   d="m 172.7,167.7 c 1.1,2.5 -3.4,3.6 -0.4,6.8 -3.2,-1.3 -2.7,-3.8 -4.5,-5.2 5.1,0.9 1.4,-2.5 2.5,-3.9 1.8,-0.4 1.2,2.3 2.6,2.4 z"
   class="st1" />
		<path
   id="path14586"
   d="m 134.5,165.3 c 2.7,0.3 -3.5,4.9 2.4,3.9 -0.9,1.8 -1.6,3.3 -2.4,4.9 -0.3,-3.1 -4.6,-6.2 0,-8.8 z"
   class="st1" />
		<path
   id="path14588"
   d="m 158.4,142.9 c -1.5,-0.8 -3.4,-1.1 -3.8,-3 -0.1,-0.5 0.5,-1.1 0.8,-1.7 1.8,0.9 2.6,2.6 3,4.7 z"
   class="st1" />
		<path
   id="path14590"
   d="m 146.9,143.1 c -0.4,-0.3 -0.7,-0.5 -0.6,-0.5 0.9,-1.7 1.4,-3.6 3.4,-4.3 0.1,0 0.9,1.2 0.7,1.6 -0.6,1.8 -2.3,2.3 -3.5,3.2 z"
   class="st1" />
		<path
   id="path14592"
   d="m 172.8,116.4 c -1.7,-0.7 -4,-0.6 -5.2,-3.2 2.8,0.1 4.4,0.9 5.2,3.2 z"
   class="st1" />
		<path
   id="path14594"
   d="m 131.7,117.1 c 0.9,-3.1 2.9,-3.4 4.6,-4 0.1,0 0.7,0.9 0.6,1 -1.1,1.5 -3,1.8 -5.2,3 z"
   class="st1" />
		<path
   id="path14596"
   d="m 159.2,135 c 2,1.3 2.1,3 3.7,5.6 -2.9,-1.9 -4.4,-2.9 -3.7,-5.6 z"
   class="st1" />
		<path
   id="path14598"
   d="m 145.7,135 c 0.9,2.9 -1,3.7 -2.5,5.1 -0.1,-2.3 0.9,-3.7 2.5,-5.1 z"
   class="st1" />
		<path
   id="path14600"
   d="m 164.7,138.9 c -1.3,-1.9 -2.3,-3.5 -1.3,-5.6 1.2,1.5 2.1,3.1 1.3,5.6 z"
   class="st1" />
		<path
   id="path14602"
   d="m 141.6,133.2 c 0.9,2.4 -0.1,3.8 -1.1,5.5 -1.3,-2.2 0.1,-3.8 1.1,-5.5 z"
   class="st1" />
		<path
   id="path14604"
   d="m 172.8,87.6 c -1.6,0.9 -2.8,0.3 -3.7,-1.2 1.7,-0.9 2.9,-0.3 3.7,1.2 z"
   class="st1" />
		<path
   id="path14606"
   d="m 135.9,86.4 c -1.2,1.8 -2.4,2 -3.7,1.2 0.8,-1.6 2,-2 3.7,-1.2 z"
   class="st1" />
		<path
   id="path14608"
   d="m 172.9,167.9 c 0.3,-0.8 -0.3,-2.5 0.6,-2.5 1.2,0 1.9,1.5 1.4,2.6 -0.8,1.6 -1.4,-0.5 -2.2,-0.3 0,0 0.2,0.2 0.2,0.2 z"
   class="st1" />
		<path
   id="path14610"
   d="m 170.1,177.6 c -1.5,-1.5 -2.2,-2.3 -3.2,-3.4 2.3,-0.3 2.9,0.7 3.2,3.4 z"
   class="st1" />
		<path
   id="path14612"
   d="m 138.6,173.9 c -1.5,1.5 -2.3,2.2 -3.4,3.2 -0.3,-2.3 0.7,-2.9 3.4,-3.2 z"
   class="st1" />
		<path
   id="path14614"
   d="m 205.4,123 c 0,-2.1 4.5,-1.9 1.7,-4.7 -0.1,-0.1 0.4,-1.1 0.5,-1.1 0.6,0.1 1.2,0.3 1.7,0.7 1.2,1 1,2.5 0.5,3.7 -0.8,1.9 -2.7,1.3 -4.4,1.4 z"
   class="st1" />
		<path
   id="path14616"
   d="m 192.4,126.6 c 1.2,2.5 -0.2,3.7 -1,5.1 -0.4,-0.3 -0.9,-0.6 -1.1,-1 -1,-2.3 1.7,-2.2 2.1,-4.1 z"
   class="st1" />
		<path
   id="path14618"
   d="m 99.4,122.8 c -3,0.8 -4.9,-0.3 -4.3,-3.9 0.1,-0.9 1,-2 2,-1.8 1.7,0.4 0.6,1.3 0.2,2.2 -1.3,2.6 3.2,1.1 2.1,3.5 z"
   class="st1" />
		<path
   id="path14620"
   d="m 113.4,125.1 c 1,1.1 3.2,1.4 2.3,3.7 -0.2,0.4 -0.7,0.6 -1.1,1 -0.9,-1.5 -2.2,-2.7 -1.2,-4.7 z"
   class="st1" />
	</g>
</g>
</svg>
