<?xml version="1.0" encoding="UTF-8" standalone="no"?>
<svg
   xmlns:dc="http://purl.org/dc/elements/1.1/"
   xmlns:cc="http://creativecommons.org/ns#"
   xmlns:rdf="http://www.w3.org/1999/02/22-rdf-syntax-ns#"
   xmlns:svg="http://www.w3.org/2000/svg"
   xmlns="http://www.w3.org/2000/svg"
   xmlns:sodipodi="http://sodipodi.sourceforge.net/DTD/sodipodi-0.dtd"
   xmlns:inkscape="http://www.inkscape.org/namespaces/inkscape"
   inkscape:version="1.0 (4035a4f, 2020-05-01)"
   height="313.79715"
   width="268.03232"
   sodipodi:docname="dragon-rampant.svg"
   xml:space="preserve"
   viewBox="0 0 268.03232 313.79715"
   y="0px"
   x="0px"
   id="Layer_1"
   version="1.1"><metadata
   id="metadata15477"><rdf:RDF><cc:Work
       rdf:about=""><dc:format>image/svg+xml</dc:format><dc:type
         rdf:resource="http://purl.org/dc/dcmitype/StillImage" /><dc:title></dc:title></cc:Work></rdf:RDF></metadata><defs
   id="defs15475" /><sodipodi:namedview
   inkscape:current-layer="Layer_1"
   inkscape:window-maximized="0"
   inkscape:window-y="25"
   inkscape:window-x="0"
   inkscape:cy="182.9"
   inkscape:cx="135.23231"
   inkscape:zoom="2.52"
   fit-margin-bottom="0"
   fit-margin-right="0"
   fit-margin-left="0"
   fit-margin-top="0"
   showgrid="false"
   id="namedview15473"
   inkscape:window-height="480"
   inkscape:window-width="820"
   inkscape:pageshadow="2"
   inkscape:pageopacity="0"
   guidetolerance="10"
   gridtolerance="10"
   objecttolerance="10"
   borderopacity="1"
   bordercolor="#666666"
   pagecolor="#ffffff" />
<style
   id="style15194"
   type="text/css">
  .st0{fill:#FFFFFF;}
  .st1{fill:#000000;}
</style>
<g
   transform="translate(-14.767689,-17.1)"
   id="g15470">
	<g
   id="g15468">
		<path
   id="path15196"
   d="m 249.6,204.9 c -2.9,1.9 -4.3,4.5 -5.5,7.2 -0.7,1.6 -1.7,2.8 -3.6,2.5 -2.4,-0.4 -1.2,-2.4 -1.2,-3.6 0,-6.5 -0.7,-13 2.3,-19.2 4.2,-8.7 9.6,-16.4 17.7,-21.9 3.7,-2.5 7.6,-4.9 10.6,-8.3 0.7,-0.8 1.4,-1.8 2.7,-1.4 1.5,0.5 0.7,1.8 0.8,2.8 0.2,2.6 -0.7,4.7 -1.9,7.1 -2.8,5.8 -7,11 -8,17.7 -1.1,7.3 1.2,12.4 7.7,15.3 0.7,0.3 1.5,0.6 2,1.3 -2.9,4.5 -7.1,4.2 -11.7,3.3 -1.5,3.4 0.7,6.6 1.6,9.7 3.2,11.1 4.2,22.5 2.7,33.7 -1.7,12.5 -8.9,21.9 -20.8,27.5 -7.5,3.6 -15,3.4 -22.5,1.7 -8.4,-1.8 -14.6,-7.5 -18.1,-15.3 -2.9,-6.4 -3.6,-13.5 -4.4,-20.6 -1,-8.7 -1.7,-17.5 -3.3,-26.6 -1.7,8 -5,14.6 -9.8,20.7 -3,3.8 -6.5,8.4 -3,14.3 1.9,3.2 2.8,7 4.5,10.4 2.5,5.2 5.3,6.4 11,5.1 1.1,-0.2 1.7,0.1 1.7,1.4 0,3.1 -1.3,5.4 -4.3,5.7 -3.3,0.4 -6.8,0.1 -10.1,-0.2 -0.9,-0.1 -1.6,-1.1 -1.9,0.5 -0.5,3 -3.2,4.2 -5.1,6.2 -6.6,7 -12.8,14.3 -19,21.4 2.1,1.9 4.8,-1.7 7.1,-3.4 2.7,-1.9 4.5,-2.2 7,-0.1 1.4,1.1 3.2,1.7 4.9,2.5 2.4,1.2 4,3.1 4.3,5.8 0.1,1.1 0.2,2.2 -1,2.9 -1.2,0.7 -1.9,-0.1 -2.9,-0.6 -1.9,-0.9 -4.5,-4.4 -5.4,1.3 -0.5,3 -3.9,3.7 -6.2,1.5 -2,-2 -4.4,-0.7 -6.5,-1.3 -3.2,-0.9 -6.5,-1.1 -9.8,-1.3 -3.2,-0.2 -4.9,1.5 -4.8,4.7 0,3.5 -0.7,6 -5,6.8 -2.7,0.5 -1.7,3.5 -1,5.5 0.3,0.9 1.3,1.6 2.4,2.7 -3.5,0.9 -6.6,1.1 -8.6,-1.7 -3.9,-5.5 -4.2,-11.2 -0.1,-17.1 -5.7,-1.5 -8.9,2.2 -12,5.3 -3,3 -5,3.5 -7.1,-0.2 -1,-1.7 -1.6,-1.4 -3.1,-0.7 -3.5,1.4 -3.6,4.9 -5.1,7.5 -4.1,-3.3 -3.2,-9 0.6,-12.9 5.8,-5.9 12.9,-5.2 19.9,-5.8 1.6,-0.1 3.2,0 5.4,0 -4.4,-2.6 -9,-2.1 -13.2,-3.2 -3,-0.8 -5.5,-1.7 -3.1,-5.6 0.8,-1.3 -0.7,-2 -1.8,-1.7 -1.5,0.5 -3,1.2 -4.1,2.2 -1.2,1 -2.7,1.6 -3.5,0.7 -1,-1.2 -0.6,-2.9 0.5,-4.4 4.7,-6.2 15.7,-5.3 19.4,-1.3 3.2,3.4 7.2,4.8 11.3,5.9 4.3,1.2 7.7,-1 10.1,-4.1 4.1,-5.1 8.7,-9.6 12.7,-14.8 4.2,-5.5 4.5,-10.2 -0.5,-15.3 -2.1,-2.1 -3.8,-4.5 -3.6,-7.7 0.2,-2.5 -2,-3.3 -3.2,-4.8 -2.3,-2.6 -4.1,-5.1 -0.9,-8.2 1.6,-1.6 -0.5,-2 -1.1,-2.6 -3.2,-3.8 -2.9,-7.9 0.9,-10.3 -0.4,-1.3 -1.8,-1.8 -2.3,-3.2 -0.6,-1.5 -0.1,-4.4 -1.5,-4.4 -2.9,0 -4.1,-3.3 -7.2,-2.8 -4.6,0.6 -8.6,3 -9.9,7.9 -3.2,11.9 -3.1,23.3 6.2,32.9 0.8,0.8 1.6,1.7 1,2.8 -0.5,0.9 -1.8,0.6 -2.6,0.4 -7.3,-2 -14.3,-4.1 -21,-8.3 -6.6,-4.2 -13.5,-8.4 -21.8,-10.5 1,3.8 2.8,6.4 5.8,8.3 3.4,2.2 4.5,7.8 2.5,11.8 -1.7,3.4 -6.1,5 -10,3.5 -0.9,-0.3 -2,-1.3 -2.2,-2.1 -0.3,-1.3 1.4,-1.3 2.2,-1.7 1.3,-0.8 1.4,-0.6 2.6,-2.3 -3.7,0.1 -5.2,-1.8 -6.3,-5.1 -1.6,-4.5 -3.3,-9.1 -6.7,-12.8 -1.4,-1.5 -2.6,-2.7 -4.2,-0.6 -1.9,2.4 -5,3.5 -6.6,6.4 -1.6,2.8 -4.9,2.8 -6.3,0.1 -1.8,-3.6 -3.7,-1.9 -5.4,-0.3 -1.1,1 -1.6,2.7 -2.5,3.9 -0.5,0.7 0.4,2.2 -1.1,2.3 -1.3,0 -1.5,-1.3 -1.9,-2.2 -0.9,-2.2 -0.9,-4.4 -0.1,-6.6 1.4,-3.8 9.1,-9 13.2,-8.9 3,0.1 5.7,-0.2 8.1,-2.1 -3.6,-4.1 -8.7,-4.3 -13.6,-5.3 -3,-0.6 -5.6,-1.5 -3.1,-5.5 0.9,-1.4 -0.6,-2.1 -1.7,-1.7 -1.5,0.5 -3,1.2 -4.2,2.1 -1.2,1 -2.7,1.7 -3.5,0.7 -1,-1.2 -0.7,-2.9 0.4,-4.3 5,-6.5 17.4,-5.8 21.6,0.9 1.3,2.1 2.8,3.3 5.2,3.8 1.1,0.2 2.4,1.7 3,0.2 0.4,-0.9 -0.4,-2.9 -1.8,-3.2 -3.5,-0.8 -4.3,-3 -4.7,-6.4 -0.5,-3.6 -3.6,-3.8 -6.8,-2.7 2.2,-5.8 4.2,-6.7 9.6,-5.1 3.1,0.9 5.7,2.7 8.4,4.2 1.4,0.8 2.2,2.4 2,4.1 -0.4,3 0.9,5.8 0.9,8.7 0,0.8 -0.1,1.4 1.1,1.7 7.1,1.8 14.1,3.8 21.3,5.6 -3.3,-2.6 -5.6,-5.4 -5.5,-10 0.1,-2.9 -1.6,-5.7 -3.7,-8 -2.1,-2.3 -2.6,-4.9 -1,-7.7 1,-1.7 1.1,-3.6 0.7,-5.4 -1.6,-7.1 1,-12.7 7.6,-15 1.8,-0.6 2,-1.9 2.5,-3.1 1.3,-2.9 3.8,-4 6.5,-4.3 2.6,-0.3 5.2,0 7.6,-1.6 2.7,-1.8 5.9,-1.2 8.3,0.3 4.1,2.6 8.4,1.9 12.9,1.8 -4.2,-0.3 -7,-2.4 -8.7,-6.2 -0.9,-2 -3.3,-0.3 -4.8,-1.9 -4.8,-5 -11.7,-6.6 -17.5,-10.2 -6.3,-3.9 -13.1,-2.7 -19,0.3 -10.6,5.5 -20.8,12.1 -31.1,18.2 -0.9,0.5 -2.5,0.9 -1.8,2.4 0.7,1.3 2.1,0.9 3.2,0.5 1.5,-0.5 3.1,-0.9 4.3,-1.8 4,-2.9 8,-4.2 13,-2.1 2.4,1 3.5,2.4 3.9,4.4 0.5,2.3 0.4,4.8 -1.6,6.7 -0.5,0.5 -1.3,0.5 -1.9,0.2 -0.9,-0.5 -0.4,-1.1 0,-1.6 0.7,-1 -0.1,-1.5 -0.6,-2 -0.9,-0.8 -1.4,0.2 -2,0.6 -0.9,0.6 -1.9,1.5 -2.7,1.4 -7.6,-0.6 -15.1,1.7 -22.8,0.6 0,2.1 1.4,3.7 2.2,5.4 1.3,2.9 2,5.6 -0.6,8.5 -2.3,2.5 -0.2,4.9 1.5,7.2 -2.7,1 -4.6,0 -6.4,-1.7 -1.5,-1.5 -2.9,-3.1 -4.8,-4.1 -2.1,-1.1 -2.1,-3.3 -1.5,-5 1.1,-2.9 0.4,-5.8 0.8,-9.5 -4.8,5 -10.9,7.4 -14.6,12.7 -1.6,2.3 -3.6,2 -5.3,-0.1 -2.5,-3 -5,-2.8 -7,0.7 -0.9,1.6 -1.5,3.3 -2.2,4.9 -4,-3.2 -3.7,-9.2 0.5,-12.5 4,-3.2 7.7,-6.4 13.5,-5.5 1.6,0.3 3.6,-0.9 5.1,-2.9 1.8,-2.4 0.1,-3 -0.9,-4.2 -1.7,-2 -1.9,0.1 -2.7,0.9 -2.2,2.4 -5.9,1.8 -6.5,-1.6 -0.9,-5.6 -3.3,-1.7 -5.2,-1.3 -1,0.2 -0.9,2.6 -2.7,1.2 -1.2,-1 -1.4,-2.2 -1.2,-3.6 0.4,-2.4 1.9,-4.1 3.8,-5.3 2.2,-1.4 4.7,-2.1 6.9,-3.7 1.2,-0.9 3,-0.9 4.4,0.5 2.3,2.2 5.2,3.5 7.6,5.8 3.4,3.3 6.1,2.8 9.9,-0.6 3.8,-3.4 7,-7.6 12.5,-8.7 0.8,-0.1 1.1,-1 1.4,-1.8 0.3,-0.9 0.9,-2.2 1.4,-2.3 6.3,-0.5 7,-8.3 12.6,-9.7 0.6,-0.1 1.2,-1.5 1.2,-2.3 0.1,-1.3 0.9,-1.9 1.6,-2.7 1,-1 3.8,-0.3 3.2,-2.2 -0.6,-2.1 -2.6,-4 -4.7,-4.7 -2.3,-0.8 -5,-0.9 -7.5,-0.9 -4.1,0 -5.3,1.9 -3.5,5.6 0.5,1 0.3,1.5 -0.4,2 -1.1,1 -1.9,0.2 -2.2,-0.6 -0.7,-1.7 -2.2,-3.1 -1.9,-5.1 1.5,-9.5 -2.7,-17.6 -6.9,-25.5 -3.8,-7 -6.5,-14.3 -6.9,-22.3 0,-0.9 -0.6,-1.7 -1.2,-3.2 -0.5,3 -1.4,5.2 -0.5,7.9 1.2,3.8 -6.7,11.6 -10.7,11 -3.7,-0.5 -5.5,-3.3 -5.1,-7.9 0.9,-0.7 1.4,0.4 2.1,0.5 1.8,0.5 3.6,1.3 4.7,-1 1.1,-2.2 -0.6,-3 -1.9,-4 -2.1,-1.7 -2.8,-3.3 -0.6,-5.7 3.4,-3.8 3.8,-8.9 6.6,-13.9 -2.7,0.9 -3.8,2.1 -4.7,3.8 -0.7,1.3 -1.7,2.5 -3.5,2.2 -1.8,-0.3 -3.4,-1.7 -3.5,-3 -0.5,-5.3 -3.2,-2.2 -5.2,-1.5 -1.1,0.4 -1.4,2.7 -3.1,1.6 -1.7,-1.1 -1.1,-3.1 -0.8,-4.5 0.6,-2.1 2,-3.8 4.2,-5 2.1,-1.1 4.3,-1.9 6.2,-3.4 1.4,-1.1 3.3,-1.1 4.7,0.5 1.1,1.3 2.3,1.8 3.8,1.2 -1.1,-4 -4.3,-7 -4.9,-11.3 -0.3,-1.7 -1.1,-3 -2.7,-4.1 -3.4,-2.2 -3.4,-5 0.1,-6.8 3.1,-1.6 1,-3.2 0.3,-4.4 -1.1,-1.9 -3.4,-2.3 -5.3,-3.3 -0.5,-0.3 -1.5,0.2 -1.5,-0.8 -0.1,-0.8 0.6,-1.1 1.1,-1.5 3.3,-2.3 8.7,-0.6 11.8,2.6 4.1,4.2 5.1,9.2 5.6,14.6 0.1,1.2 0.7,2.4 1.2,3.9 1.2,-1.4 2.1,-2.7 3.2,-3.8 1.1,-1.1 1.8,-1.8 0.4,-3.6 -1.8,-2.4 0.6,-4.7 2.1,-6.1 4.1,-4.1 4.3,-4.4 -0.5,-7.8 -0.3,-0.2 -0.4,-0.6 -0.6,-0.9 5.6,-1.3 6.4,-0.6 9.2,3.8 2.1,3.3 1,7 2.1,10.4 0.6,1.7 -1.1,3.7 -2.7,4.5 -3.1,1.6 -4.9,4 -5.3,7.5 -0.5,4.3 0.5,8.2 3.1,11.6 6.7,8.6 11.2,18.2 14.8,28.4 1.8,5 4.7,9.4 8.2,13.3 0.6,0.7 1.1,1 2.2,0.5 2,-0.9 0.1,-1.7 0,-2.1 -1.7,-5 0.2,-9.8 5.1,-12.3 1.7,-0.9 3.7,-1.4 3.4,-4 0,-0.3 0.4,-0.6 0.6,-1 1.3,-2.8 11,-13.5 13.9,-14.4 3.6,-1.2 5.5,-4.1 8,-6.5 -8.1,-3.5 -16.3,-4.5 -24.8,-4.6 -3.5,-0.1 -7.4,-0.7 -10.4,-3.1 -1.5,-1.2 -3.2,-2.7 -1.7,-4.7 1.3,-1.7 3.2,-1.4 5,-0.2 2.4,1.7 5.2,1.7 8,1.6 1.1,0 2.1,0.1 2.1,-1.6 0,-1.6 -0.8,-1.8 -2,-1.7 -5.1,0.4 -10.1,-0.8 -15,-1.7 -3.4,-0.6 -5.8,-2.7 -7.7,-5.5 -1.1,-1.6 -0.6,-2.9 0.7,-4.3 1.6,-1.7 2.9,-0.1 3.7,0.6 5.5,5 12,6.4 19.1,5.9 -0.1,-3.3 -1.9,-4.3 -5,-4.9 -4.3,-0.8 -8.2,-2.5 -11.2,-6.2 -1.3,-1.6 -1.6,-3.1 -1,-4.8 0.6,-1.8 2.3,-2.7 3.9,-3.5 1,-0.5 1.9,0.3 2.3,1.2 0.9,2.3 2.7,3 4.8,2.7 8.5,-0.9 17,-2 25.6,-1.6 0.5,0 1.3,-0.3 1.3,-0.6 0.4,-5.3 4.6,-2.9 6.3,-2.3 7.3,2.8 14.8,2.9 22.4,2.4 2.2,-0.1 3.1,-2.4 3.9,-4.1 2.3,-5.1 4.8,-10.1 9.9,-12.9 2.7,-1.5 5.4,-3.4 8.7,-2.8 0.4,0.9 -0.2,1.3 -0.5,1.9 -2.4,4.8 -1.6,6.6 3.3,8 1.1,0.3 1.3,-0.6 1.8,-1 5.2,-3.8 10.9,-5.2 17.3,-3.9 -0.4,1.8 -2.2,2.1 -3.4,2.9 -4.5,2.7 -5.4,6.5 -2.3,10.7 0.5,0.7 1.1,1.5 1.5,2.3 0.5,1.2 1.9,2.3 1.2,3.6 -0.7,1.2 -2.2,0.4 -3.3,0.6 -1.3,0.2 -2.6,-0.2 -3.9,0.4 -2,1 -3.1,1.9 -1.6,4.2 1.1,1.7 2,3.7 1.8,6 -0.1,1.7 -0.6,2.9 -1.9,3.7 -1.5,0.9 -2,-0.9 -2.8,-1.6 -0.9,-0.7 -1.7,-1.6 -3.3,-3 0.3,3.3 -1.4,5.5 -0.2,8.1 0.2,0.4 0.2,1.4 0,1.6 -4.8,2.5 -1.2,6.8 -2.2,10.4 20.8,-24.1 44.7,-44 74,-58.3 -0.4,3 -1.9,3.9 -3.1,4.8 -3.5,2.7 -4.1,7 -5.8,10.6 -0.9,2 0.1,4.2 2.4,5.7 2.7,1.7 4.8,3.2 8.2,1.1 11.5,-7 23.3,-13.5 35.9,-18.4 2.2,-0.8 4.1,-0.6 6.4,-0.2 -5.9,3.3 -9.1,8.9 -12.7,14 -6.7,9.5 -10.5,20.2 -11.7,31.7 -0.7,6.9 1.1,10.9 8.3,14.8 1.3,0.7 2.6,1.5 4.2,2.3 -3.1,2.6 -6.8,3.3 -9.8,5.5 -4.7,3.5 -7,8.5 -9.9,13.1 -3.7,5.8 -5.1,12.6 -6.9,19.3 -1.7,6.5 0,11.6 4.3,16.4 0.7,0.8 1.7,1.4 2.2,2.3 0.4,0.8 0.6,1.9 -0.1,2.6 -0.6,0.6 -1.4,0.1 -2.2,-0.2 -7.3,-2.9 -7.7,-2.1 -13,4.3 -5.4,6.5 -8.2,13.9 -10.6,21.7 -1.8,6.1 -1.2,12.2 -1.4,18.3 0,1.4 0.1,2.7 -0.1,4.1 -0.1,0.8 -0.6,1.5 -1.5,1.6 -1,0.2 -0.9,-0.8 -1.1,-1.3 -2.9,-8.4 -9.2,-13.3 -17.1,-16.5 -2,-0.8 -3.7,-3.3 -5.9,-1.9 -0.5,0.3 0.9,3.7 1.4,5.7 0.5,1.6 1.2,3.2 1.4,4.9 0.3,3.9 1.9,6.6 5.9,7.7 3.5,0.9 2.3,2.7 0.3,3.8 -2.4,1.4 -1.8,2.5 -0.8,4.5 4.2,8.7 6.4,17.9 6.9,27.7 0.2,3.7 0.7,7.4 0.7,11.2 0,1.8 0.9,2.9 2.9,3.5 3.1,0.8 3.9,2.8 1,5 -3.2,2.5 -1.8,5.6 -1.1,8.5 1.6,6.2 5.6,10.6 10.9,14 2.1,1.4 4.7,0.4 7.1,0.6 1.8,0.1 3.5,-0.1 5.3,0 2.2,0.1 3.1,-0.7 3.2,-3 0.2,-3.1 0.9,-6 5.4,-4.4 1.5,0.5 3.4,0.1 4.3,-1.8 4.9,-10.2 6.7,-21 3.7,-32 -3.5,-7.3 -6.1,-15.2 -6.7,-23.8 z"
   class="st1" />
		<path
   id="path15198"
   d="m 176.4,196.7 c -0.3,-3 1.1,-6.1 -1,-8.9 -0.5,-0.7 0.1,-1.2 3.4,-2.5 -4.3,0.6 -6,-1.7 -7.2,-3.9 -1.4,-2.8 -5.5,-3.8 -5.1,-7.7 -4.5,0.7 -2.4,-2.6 -2.4,-4.2 -5,4.7 -10.5,8.2 -17.4,9.3 -1.5,0.2 -2.9,-0.3 -4.2,-1 -2.6,-1.4 -4.6,-3.1 -3,-6.5 2.5,-5.5 5.2,-7.1 9.2,-5.4 -1.1,0.8 0,1.7 -0.1,2.6 0.1,-0.9 -0.8,-1.8 0,-2.7 1.6,1.8 7,1.5 3.5,6.3 -0.1,0.2 0.9,1.2 1.9,1.1 0.8,-0.1 0.6,-0.3 0.7,-1.1 0.4,-5 -1.3,-7.5 -7,-9.2 -2.5,-0.8 -7,1.6 -8.7,4.8 -1.5,2.8 -2.9,5.2 -6.6,3 -3.3,-1.9 -3.7,-3.8 -1.5,-7.5 1.8,-3 5,-3.8 7.7,-2.4 1.7,0.9 4.1,0.2 5.7,1.9 -1.4,-4.3 -6.6,-4.7 -7.9,-9.1 -0.8,2.3 -1.7,4 -3.9,4.9 -1.5,0.7 -3.3,2 -3.8,3.5 -1.3,4.1 -3.5,3.2 -6.4,2.3 -1.7,-0.5 -3.1,-1 -3.6,-2.6 -0.7,-2.1 1,-3.3 2.3,-4.3 3.3,-2.6 7.1,-1.7 10.7,-0.9 0.6,0.1 1.2,0.3 2.2,0.5 -0.9,-2.5 -2.7,-4 -4.5,-6 -0.5,1.6 0.3,5.4 -2.9,2.1 -1.6,-1.6 -2.3,0.8 -3.4,1.2 -2.5,1 -4.8,2.6 -6.2,4.8 -1.1,1.7 -2.3,1.2 -3.3,0.9 -1.5,-0.5 -1.8,-1.6 -1.1,-3.2 2.1,-5.2 5.7,-8.2 10.5,-5.6 0.6,0.3 1.3,1.4 2,0.2 0.3,-0.4 0,-1.3 -0.2,-1.9 -1.4,-3.2 0,-6.9 3.3,-8.4 1.3,-0.6 2.8,-1.1 3.5,-3.1 -3.9,1 -7.5,1.3 -9,5.8 -0.5,1.4 -0.2,4.4 -2.5,3.8 -2.2,-0.6 1,-2.6 -0.4,-4.7 -2.4,4 -6.4,6.5 -8.3,10.6 -1.8,3.9 -4.4,6.4 -9,5.7 -4.8,-0.8 -8.3,1.9 -12.1,4.1 -9.2,5.5 -18.5,10.9 -27.7,16.3 -2.1,1.2 -2.8,4.2 -5.7,4.3 5.9,4.4 11.3,1.9 16.3,-1.2 2.3,-1.4 2.6,-0.8 3.1,1.2 0.4,1.5 0.9,3 1.4,4.6 -5,0.3 -10,-0.3 -14.9,0.8 -3.9,0.9 -6.6,-1.8 -9.5,-4.6 -1.4,5.4 -0.3,9.8 2.4,13.7 2,2.8 1.3,4.2 -1.8,3.9 -2.1,-0.2 -3.6,3.2 -5.7,0.8 -1.5,-1.8 0.6,-3.7 0.5,-5.7 -0.3,-3.4 0.6,-7 -2.3,-10.3 -4.3,5.9 -11.2,9.2 -15.8,15 -0.5,0.6 -1,1.5 -1.9,0.9 -0.6,-0.4 -1.2,-0.9 -1,-2 0.4,-3.8 0.4,-3.8 -2.6,-5.9 1.5,-2 3.7,-1.7 5.7,-1.7 3,0 5.2,-0.9 7.4,-3.4 3.5,-3.9 7.2,-7.7 11.7,-10.9 3.2,-2.2 6.4,-4.8 9.3,-7.5 1,-1 1.9,-1.6 3.2,-1.7 2,-0.3 3.4,-0.7 3.5,-3.2 0.1,-1.9 1.7,-3.3 3.8,-3.2 2.5,0 4.2,-0.8 4.2,-3.6 0,-0.7 0.3,-1.3 0.9,-1.7 2.9,-1.9 5.2,-4.3 7.5,-6.9 1.8,-2.1 4.8,-3.1 5.9,-6.4 0.5,-1.6 2.7,-3 4.6,-2.4 2.9,0.8 4.1,3.1 3.9,6.2 3.3,-2 3.4,-4 -0.2,-6.7 -3.6,-2.7 -2.7,-5.2 -0.7,-8 1.8,-2.6 3.7,-4.9 6.4,-7 3.8,-2.9 6.5,-1.2 9.7,-0.5 1.2,0.3 2.2,1.5 2.2,-1 0,-1 1.5,-1.2 2.7,-0.6 2.2,1 4.3,0.8 6.6,-0.9 -6.4,-0.3 -12.3,-0.7 -18.7,-1 0.7,-1 1.1,-1.5 1.5,-2.1 -0.7,-0.6 -1.3,-0.3 -1.5,0.2 -1.4,2.4 -2.7,0.7 -4,-0.1 -1.1,-0.7 -0.5,-1.6 0.2,-1.7 3.5,-0.4 4.4,-3.6 6.2,-5.8 2.9,-3.6 4.4,-8.3 8.2,-11.3 1.4,-1.1 2.6,-2.2 4.5,-1.9 0.2,-1.8 -2.8,-1.3 -2.1,-3.4 0.8,-2.1 2.2,-1 3.5,-0.8 0.3,0.1 1.1,-0.6 1.2,-1 1.4,-6.2 5.4,-11.4 10.1,-12.4 3,-0.7 6.2,-1.1 8.5,2.1 0.7,1 1.9,1.2 2.8,0.3 1.4,-1.2 3.1,-2.4 2.3,-4.7 -0.5,-1.2 -1.3,-2.3 -2.1,-3.6 3.4,-1 6.1,2.7 9.7,1 C 151.8,75.9 152,73 150,71 c -0.8,-0.7 -1.6,-1.3 -2.5,-0.8 -1.3,0.9 0,1.6 0.6,2.1 1.1,1 1.7,2.3 2.5,4.8 -1.8,-2 -3.3,-2.3 -5,-2.2 -4.3,0.3 -4.9,1.2 -2.4,4.5 1.4,1.9 0.8,2.9 -0.6,4.4 -1.1,-2.2 -2.5,-3.7 -5.1,-3.2 -2.1,0.4 -3.1,-1.1 -4.5,-2 -0.6,-0.5 -0.1,-2.3 -1.5,-1.5 -0.7,0.4 -1.8,1.1 -1.5,2.2 0.9,3.4 -1,2.3 -2.5,1.7 -11,-5 -22.2,-9.1 -34.6,-9.5 -3.8,-0.1 -8,0.2 -11.5,-2.2 -1.2,-0.8 -2.4,-1.4 -2.8,-4 6.4,4.8 13.1,2.5 19.4,3.1 6.8,0.7 13.4,2.1 19.5,5.6 4.6,2.6 6.4,2.1 8.7,-1.5 2.2,-3.4 1.7,-8.4 -1.7,-10.6 -4.7,-3 -9.9,-5.4 -15.7,-5.6 -2.8,-0.1 -5.7,0 -8.5,0 -0.7,0 -1.4,0.2 -2,0 -6,-2.5 -12.2,-4.4 -18.2,-6.8 -1.8,-0.7 -4.5,-3.4 -3.6,-7.2 4.9,3.7 10.2,2.8 15.6,2 1.7,-0.3 4.3,-1.6 5.7,1.2 0.2,0.5 1.2,0.4 1.8,0 4,-2.4 8.6,-0.7 12.8,-2.1 2.2,-0.7 3.9,1.6 5.7,2.1 3.7,1 1.2,2.8 1.2,4.5 0,2.6 2,4 4.1,5.4 2.4,1.6 4.8,1.5 7.1,0.2 1.8,-1 3.1,-2.2 4.9,0.2 1.5,2 3.2,0.2 3.8,-1.1 1.2,-2.4 -0.3,-3.8 -2.4,-5 -1.1,2.1 1.6,2.4 1.1,3.9 -1.7,1.2 -2.5,-0.3 -3.6,-1.2 -2.6,-2.3 -4.6,-5.3 -7.7,-7 -2.4,-1.3 -4.4,-2.7 -7.7,-1.5 -2,0.8 -3.3,-3 -5.8,-3.5 5.7,0.5 11,2.9 16.7,3 5.6,0.1 11.4,-0.6 16.3,3.4 -0.1,1.4 -1.8,0.2 -2.1,1 -0.5,1.1 -1.8,2.2 -0.8,3.6 0.8,1.3 2.1,1.2 3.3,0.8 1.1,-0.4 2.1,-1.1 3,-1.9 6.3,-5.9 12.5,-11.9 18.7,-17.9 2.6,-2.5 5.7,-4.1 9.5,-4.6 -0.2,1.8 -1.7,2.5 -2.3,3.8 -2,3.7 -2.5,7 1.1,9.9 0.8,0.7 1.8,1.4 1.4,2.7 -0.5,1.5 -1.8,0.9 -2.7,0.8 -1.6,-0.1 -2.9,0.4 -4.2,0.9 -2.7,1.1 -3.9,2.6 -1.8,5.5 1.5,2.1 3,4.3 2,7.3 -0.4,-0.3 -0.9,-0.5 -1,-0.8 -0.8,-2 -2.5,-4 -4.1,-3.5 -2.1,0.7 -3,3.2 -2.7,5.7 0.2,1.7 -0.6,3.4 0.8,5.2 -2.6,-0.1 -2.9,-2.1 -3.2,-3.3 -0.7,-3.1 -2.7,-3.3 -5.2,-3.1 -2.2,0.2 -4.1,2.7 -6.6,0.9 -0.1,0 -0.9,0.9 -1.2,1.4 -0.1,0.1 0.4,0.9 0.5,0.8 3.5,-0.9 3.3,3 3.1,3.7 -0.7,2.3 -3.3,0.8 -5,1.5 0.6,2 2.2,1.3 3.5,1.4 1.5,0.1 2.9,-0.3 4.1,1.5 0.8,1.2 2.7,1.1 2.7,-1.3 0,-2.5 0,-4.9 0,-8.3 5.5,5.7 4.5,11.9 3.9,17.6 -0.8,8.2 -3.7,16 -8.8,22.8 -1.7,2.3 -3.4,4.8 -5.4,6.8 -2.3,2.4 -3.4,5.3 -4.3,8.3 -0.8,2.7 1.1,4.2 3.1,5.5 1.5,0.9 3.2,1.7 4.8,2.8 -3.5,0.2 -6.2,1.4 -7.9,4.3 -0.8,1.3 -1.4,2.8 -0.1,4.9 3.1,-8 10.1,-7.1 16.1,-7.9 2.8,-0.4 5.7,0.2 8.5,-0.2 9.2,-1.4 14.8,-10.8 14.6,-18.4 -0.2,-9.8 3.9,-18.1 10.2,-25.8 C 200.7,70 212,61.6 223.3,53.1 234,45 245.8,38.8 257.6,32.6 c 4.6,-2.4 9.5,-4.3 14.5,-6.1 -3.6,5.1 -6.7,10.4 -9.6,15.8 -3.6,6.9 -7.4,13.7 -7.2,21.8 0,1.8 -0.9,3.3 -0.9,5.1 -0.1,5 0.6,9.5 5.7,13.4 -10.6,-0.6 -20,1.3 -29.2,3.3 -5.6,1.2 -11,3.3 -16.1,5.9 -3.9,2 -8.2,3.4 -11.8,6 -0.2,0.1 -0.7,0.2 -0.7,0.2 -1.7,-5.3 -3.4,0.8 -5.4,-0.2 0.2,-2.8 3,-3.4 4.7,-4.5 2.1,-1.4 0.2,-3.5 1.6,-4.6 -0.7,-0.8 -1.3,1.4 -2,-0.1 1.4,-2.5 4.3,-3.3 6.7,-4.7 -0.3,-1 -1.8,-0.1 -1.8,-0.8 0,-0.6 0.8,-1.6 1.4,-1.7 2.8,-0.5 4.1,-2.3 4.9,-4.9 0.7,-2.4 1.9,-4.6 4.9,-5 1.3,-0.2 2.3,-1.2 3,-2.4 -2.8,-1.7 -3.3,3.2 -6.1,1.9 0.6,-2.1 2.3,-3.2 4.2,-3.8 1.1,-0.3 2.1,-0.5 1.6,-2 1.4,0.3 2.5,-0.4 3.6,-1.2 1.2,-0.8 2.3,-1.7 3.7,-2.2 -1.4,0.4 -2.5,1.4 -3.7,2.2 -1.1,0.7 -2.2,1.5 -3.6,1.3 -0.5,0.1 -1.2,0.5 -1.5,0.3 -1,-0.7 0.2,-1.1 0.5,-1.3 3.6,-3.1 7.7,-5.5 11.9,-7.4 4.8,-2.1 9.5,-4.4 13.4,-7.7 1.4,-1.2 4.3,-0.4 4.3,-3.3 1.1,0 1.8,-1.1 2.1,-1.1 -0.3,0 -1,0.9 -2,1.2 -3.3,0.9 -6.3,2.3 -9,4.4 -0.2,-0.3 -0.4,-0.6 -0.6,-1 9.5,-6.2 19.1,-12.5 28.6,-18.7 -0.2,-0.3 -0.4,-0.6 -0.6,-0.9 -2.7,1.4 -5.6,2.6 -8.1,4.3 -13.9,9.1 -28.1,17.9 -41.4,27.8 -7.4,5.5 -13.5,12.9 -19.9,19.7 -3.4,3.6 -6.8,7.4 -7.2,12.8 -0.3,4.1 -0.4,8.1 -0.1,12.2 0.1,1.9 3.7,2.4 2.9,5.2 -1.7,0.9 -2,-1.8 -3.6,-1.2 -1.1,1.8 0.5,3.2 1,4.7 0.5,1.6 -0.5,2.5 -1.1,2.4 -5.1,-1.1 -2.7,3.2 -2.4,4.1 1.2,3.9 0,4.5 -3.4,3.4 -1.5,-0.5 -2,0.6 -1.5,1.8 0.5,1.2 1.3,2.4 2.1,3.8 -2.2,-0.1 -3.6,-2.3 -6.1,-1.3 0.8,1.3 2.2,2.6 1,4.5 -1.2,-1.9 -3.2,-1.6 -5,-1.5 -1.7,0.1 -3.4,0.9 -5.2,-0.3 -0.4,-0.3 -3.2,-0.5 -1.9,2 0.4,0.8 0.3,1.5 0,2.5 -3.5,-2.1 -6.8,-4.1 -10.1,-6.2 -0.8,-0.5 -1.5,-0.7 -2.2,-0.3 -0.6,0.4 -0.5,1.3 -0.2,1.8 2.4,4 2.5,8.7 4.7,14.1 0,-4.5 0,-7.8 0,-11.4 1.6,0.6 3.4,0.6 3.3,2.3 -0.4,5.7 5.5,9.2 5,15.1 2.7,-2.1 0.7,-4.9 1.9,-7.3 0.5,2.7 1,5.2 1.5,7.9 2.6,-5.7 -0.7,-11.2 -0.2,-16.9 2.5,0.1 2.1,2.7 3.3,3.5 2.5,1.6 1.8,-2.3 3.4,-2.5 4.5,7.7 7,16 7.2,25.9 1.9,-4 1.7,-9.5 0,-15 -0.9,-3 -1.5,-6.1 -2.8,-8.9 -0.9,-1.9 -0.3,-2.9 0.8,-4.8 0,3.1 1.7,5.1 2.6,7.5 0.1,-2.5 2.7,-3.5 2.9,-6 0.1,-1.2 3.3,-0.8 3.7,0.7 0.8,2.6 3.2,4.5 3.2,7.5 0,1.3 1.2,2.3 3.2,2.6 -2.3,-7.3 -7,-13.5 -7.6,-21.2 13.3,16.8 20.4,36.4 25.9,57 -4.6,-4.4 -10.2,-6.9 -15.8,-9.4 -8.3,-3.7 -16.9,-5.8 -26.1,-3.8 -2.2,0.5 -3.4,-0.1 -3.3,-2.9 0.2,-3.1 1.9,-6.2 0.1,-9.3 -0.6,-1 0.3,-3 -2.1,-2.7 -2.4,0.3 -0.7,2 -1.2,2.9 -0.2,0.3 -0.2,0.8 -0.4,1.8 -3.8,-3.1 -8.2,-4.6 -12.6,-5.2 -4.5,-0.6 -9.2,-0.1 -13.7,0.3 6.8,3.5 14.9,2.2 20.8,7.5 l -0.2,0.1 0.1,-0.2 c 6.5,1 6.5,5.8 5.9,10.7 4.1,-0.5 7.7,-0.9 11.4,-1.5 3.5,-0.5 5.6,1.7 6.2,4.4 0.9,3.8 2.6,7.3 3.8,11 0.1,0.2 0.4,0.6 0.3,0.6 -1.8,1.5 -2.1,2.9 0.2,4.1 -2.3,1.6 1.2,3.7 -0.4,5.4 -0.6,0.6 -0.6,1.6 0.1,2.2 0.8,0.7 -0.4,2.6 1.4,2.4 1.2,-0.1 1.1,-1.6 1.5,-2.5 3.4,-6.5 -0.6,-11.9 -2.9,-17.2 -1.3,-2.9 0.9,-6.2 -1.7,-8.8 -0.6,-0.6 0.8,-0.6 1.3,-0.6 3,-0.4 4,1.9 4.7,4 1.3,3.7 2.8,7.4 3.2,11.3 0.5,4.4 2.6,6.6 6.5,7.7 -0.3,0.9 -1,1.1 -1.6,1.5 -1.5,1.1 -2.9,1.5 -1,4.6 4.1,6.3 6.1,13.8 6.9,21.4 0.7,6.5 1.8,12.9 1.7,19.5 0,3.2 3,3.6 5.4,4.3 -3.6,4.4 -3.3,13.9 0.2,18.9 4.8,6.9 11.2,10.1 19.6,9.3 4.9,-0.4 8.2,-2.6 9.6,-6.9 0.2,-0.7 0.3,-1.3 1.2,-1.2 8.3,1 8.6,-6 10.9,-11 4.7,-10.1 2.9,-20.6 -0.1,-30.4 -2.2,-7.1 -4.1,-13.9 -4.9,-21.3 -0.4,-3.6 -1.5,-6.8 -0.5,-10.6 -2.6,6.5 -4.3,13.3 -9.3,18 -1.3,-7.1 -0.1,-11.1 3.8,-20.2 3.6,-8.3 10,-13.8 16.9,-18.8 2.7,-2 5.2,-4.1 7.6,-6.5 0.7,0.8 0.7,1.5 0.2,2.2 -3.8,4.6 -6.2,10.1 -8.5,15.5 -2.4,5.8 -2.9,12 0.6,17.8 1.5,2.5 3.2,4.6 6.6,4.5 -3.7,4.4 -8.2,2.1 -12.6,-6.5 -1.7,1.2 -1.3,2.5 -0.7,4.1 2.5,7.5 3.8,15.2 5.4,22.8 1.5,6.8 1.5,13.7 2,20.6 0.6,7.8 -2.1,14.9 -7.2,21.1 -5.7,6.9 -13,10.8 -21.6,12.6 -4,0.9 -8,-0.5 -11.8,-1.4 -9.1,-2.3 -14.5,-9.3 -17.6,-17.4 -1.7,-4.3 -2.3,-9.3 -2.8,-14.1 -1.3,-13.3 -1.8,-26.8 -6.9,-39.7 -1.8,1.1 -1,2.7 -1,3.9 0,7.4 -1.4,14.4 -5,20.9 -0.8,1.5 -1.7,3 -3.1,4.1 -4,3 -4.7,7.8 -6.5,11.9 -0.3,0.8 -0.4,2 0,2.8 2.8,6.9 4.5,14.4 10.5,19.5 2.1,1.8 4.9,2.6 7.8,2.5 -6.5,4.6 -12.7,0.5 -19,-1.2 4,3.5 4,5.5 0,8.4 -0.6,0.5 -1.2,1.1 -1.8,1.7 -6.7,6.4 -13.5,12.8 -20.1,19.4 -1.7,1.8 -3.6,1.3 -5.6,1.6 6.2,4.7 11.3,4.3 19.3,-1.7 1,1 0.6,2.1 0.3,3.2 -0.7,2.2 -1.2,4.4 0.5,6.4 0.7,0.8 0.7,1.3 0,2 -0.7,0.7 -1.6,0.9 -2.2,0.5 -6.5,-3.6 -13.6,-3.2 -20.6,-3.1 -3.3,0.1 -4.1,2.8 -4.2,5.7 -0.2,5 -0.4,5.1 -5,3.5 -0.2,-0.1 -0.5,-0.3 -0.7,-0.3 -8.5,1.2 -2.1,-2.9 -1.5,-4.5 1,-2.6 3.5,-4.3 5.4,-6.4 -1.6,-1.4 -3,0 -3.7,0.7 -1.6,1.5 -3.2,2.3 -5.4,2 -5.6,-0.8 -10,1.2 -13.2,5.8 -0.3,0.4 -0.7,0.8 -1.7,0.5 -0.5,-2.1 0.7,-5.4 -2.9,-6.4 -0.6,-0.2 -0.6,-0.8 -0.3,-1.3 0.5,-0.7 1.1,-1 2,-1.1 5.1,-0.2 10.2,-0.6 15.3,-0.7 2.2,-0.1 4,-0.5 5.9,-1.8 9.5,-6.6 17.2,-14.8 24.1,-24 3.3,-4.5 6.4,-9.7 13.1,-9.9 1.9,-0.1 3.4,-1.2 5.1,-2.2 -2.3,-0.7 -4.3,-0.2 -6.2,0.8 -4.5,2.3 -6.9,1.3 -8.7,-3.3 4.3,-1.9 8.6,3.4 13.3,-0.3 -1.2,0 -2.1,0.1 -3,0 -0.6,-0.1 -1.2,-0.5 -1.8,-0.8 -1.3,-0.6 2.8,-2.4 -0.5,-2.4 -1.3,0 -2.6,1.2 -4,1.5 -4.1,0.8 -7.6,-1.9 -10.2,-7.8 4.3,-1.4 8.6,3.8 12.6,-0.1 -1.3,-0.1 -2.7,-0.2 -4.1,-0.2 -0.3,-2.3 4.2,-0.8 2.6,-3.3 -0.6,-1 -2.9,0.6 -4.5,1 -4.4,1.2 -11.8,-2.9 -12.2,-7.3 -0.3,-2.5 1.7,-3.9 3.9,-3.3 4.1,1.2 7.7,-0.3 11.7,-1.4 -1.7,-2 -1.1,-5.9 -5.5,-5.1 0,1.5 1.8,1.8 2.1,3.4 -2.9,1.4 -5.8,1.7 -9.2,0.6 -3.8,-1.2 -3.9,-4.4 -4.5,-7.2 -0.4,-1.7 1.4,-1.9 2.8,-1.9 3.3,0 6.5,0 9.8,0 0.5,0 1,-0.1 1.5,-0.3 0.3,-0.1 0.2,-0.4 -0.2,-0.5 0.4,-3.5 0,-4 -2,-2.6 -3.9,2.7 -6.7,2.3 -9.6,-1.2 -2.4,-3 -1.7,-7 1.2,-10 2.2,-2.1 4.4,-0.3 5.9,0.2 4,1.5 6.1,-0.5 8.3,-2.9 1.3,-1.5 2.4,-3.3 4,-5.5 -2.4,0.2 -3.1,1.3 -3.8,2.6 -1.8,3 -4.6,4.6 -8.1,3.8 -1.7,-0.3 -3.6,-1 -4,-3.1 -0.6,-3.6 0.7,-6.7 3.6,-8.8 2.8,-2 6.4,-2.2 9.6,-3.4 1.3,-0.5 2.1,0.7 2.3,2.1 0.2,1.4 -0.5,2.5 -0.9,3.9 3.6,-2.3 3.8,-2.4 2.1,-6 -0.8,-1.8 -0.4,-2.7 1.2,-3.5 0.1,0.2 0.3,0.3 0.5,0.5 -0.3,-0.7 -0.5,-0.8 -0.7,-1 z"
   class="st0" />
		<path
   id="path15200"
   d="m 116.9,252.7 c -1.3,-1.1 -3.1,-1 -4,-2.7 -0.7,-1.3 -0.9,-3 -2.4,-3.8 -1.9,1.1 1,2.2 -0.7,3.5 -1.1,-5.1 -5.9,-4 -9.2,-5.8 -3.2,-1.7 -7.7,-1.1 -9.6,-5.2 -0.2,-0.5 -0.5,-0.3 -0.9,-0.1 -1.1,0.8 -0.5,1.4 -0.1,2.4 2.3,5.5 3.7,11.6 10.5,14.4 -2,0.8 -3.6,0.9 -4.3,1.7 -3.2,4.1 -4.1,0.7 -5,-1.5 -2.2,-5.2 -4.1,-10.5 -8.3,-14.6 -1.7,-1.7 1.2,-2.6 0.4,-4.9 -4.7,5.2 -11.3,7.8 -15.6,14.4 -0.2,-4.4 -0.3,-7.9 -5,-9.6 6.7,-1.8 14.3,0.4 17,-7 -7,0.4 -11.8,-7.3 -19.7,-5.7 2.5,-2.9 7.9,-1.3 6.8,-7.3 3.9,6.5 9.1,8 16,8.7 8.3,0.9 16.3,4.4 24.5,6.5 2.4,0.6 4.9,1.2 7.6,0.5 4.1,-1 5.8,0.3 7.8,5 1.8,-1.9 0.5,-3.6 -0.3,-4.9 -1.3,-2.1 -3.2,-2.9 -5.8,-2.7 -1.2,0.1 -3,1.5 -3.2,0.6 -0.9,-4.1 -6.6,-3.9 -6.9,-8.4 -0.2,-2.7 1.8,-2.4 3.4,-2.7 3.3,-0.7 3.3,-0.8 2.1,-4.9 -0.4,2.7 -1.5,3.5 -3.7,3.3 -2.2,-0.2 -2.3,-1.5 -2.9,-3.1 -0.5,-1.3 -1.6,-2.4 -2.6,-3.5 -1.5,-1.7 -2.3,-3.5 -2,-5.8 0.3,-2.3 0.9,-3.7 3.5,-1.8 1.4,1.1 3.2,1.3 5,1.1 1.5,-0.2 2.6,0.3 3.1,1.9 0.3,0.9 1.1,1.5 0,2.4 -1.1,0.9 -1.2,-0.5 -1.8,-0.7 -0.6,-0.2 -1.2,-0.3 -2.5,-0.6 1,1.6 2.5,3 2.2,3.8 -0.7,2.1 1.1,2.8 1.8,2.8 1.4,-0.1 1.5,-1.8 1.8,-3 1.5,-5.3 3.1,-10.6 6.4,-15.1 2.1,-2.9 5.8,-3.6 8.6,-5.8 2.4,-1.9 4.3,-3.7 5.5,-6.5 2.6,-6.1 7.6,-6.9 12.8,-2.4 5.3,4.6 7.1,10.3 6.4,17.3 -2.5,-3.7 -2.5,-8 -3.7,-12.7 -2.3,4.4 0,7.9 0,11.4 0,3.4 2.7,6.5 2,11.1 -0.8,-2.3 -0.4,-4.5 -3.1,-4.2 0,2.9 0,5.9 0,8.8 -0.4,0.1 -0.9,0.2 -1.3,0.3 -0.3,-6.3 -0.5,-12.7 -3.3,-18.4 -1.9,2.1 -1.8,4 0.7,8.6 2.2,4.2 2,6.1 -1.7,8.6 0,-8.3 -3.7,-16 -0.5,-24.9 -2.1,2.2 -2.1,2.2 -2.4,5.1 -0.8,-1.6 -0.3,-3.4 -1.7,-4.5 -1.7,8.5 4.9,16.2 1.9,24.8 -0.9,-4.8 -1.5,-9.7 -2.7,-14.6 -3.1,3 -0.6,6.1 -0.2,8.8 0.3,2.1 -0.3,3.8 -0.6,5.6 -0.2,1.5 -1.3,2.6 -2.9,0.7 -0.4,-0.5 -0.7,-1.6 -1.7,-0.8 -0.7,0.6 -1,1.2 -0.3,2 2.8,3.3 -0.8,4.2 -2.4,4.6 -1.8,0.5 -3.3,1.6 -5.2,2 1.9,2 3.7,-1.2 5.4,0.3 -0.7,1.7 -1.4,3.5 -2.5,6 -1.2,-4.8 -6.7,-1.6 -8.1,-6.1 -0.9,3.3 -0.6,4.7 0.8,4.3 3.7,-1.1 4.5,1.9 6.2,3.8 -0.2,0.7 -0.8,0.4 -1.3,0.4 -0.7,0.1 -0.7,-0.5 -1,-1 -0.3,-0.5 -0.5,-1.8 -1.5,-0.8 -0.2,0.2 -1.6,1.5 0.3,2 0.6,0.2 0.7,2.1 1.6,2 4.4,-0.2 3.8,2.9 3.6,5.5 -0.6,7 2.5,12.7 6.2,18.1 -6.1,-0.5 -9.5,-5.5 -13.9,-8.8 -0.2,2.4 1.9,3.1 2.9,5.1 -4,-1.4 -5.3,-5 -7.7,-7.4 -0.9,1.9 2,2.2 1.4,4.1 z"
   class="st0" />
		<path
   id="path15202"
   d="m 76,136.2 c -0.5,2.2 2.2,1.5 2.6,2.9 -5.1,1.7 -9.4,-2.5 -9.8,-9.5 -0.5,1.7 -1.3,3.7 -0.3,5.3 1.8,2.9 1.7,4.7 -1.7,6 -0.6,0.2 -0.9,1.1 -1.4,1.7 -1.1,-2.4 0.2,-4.5 0.6,-6.6 1,-5.7 -2.5,-9.8 -4.7,-14.3 -3.8,-7.9 -7.5,-15.8 -9.6,-24.3 -0.8,-3.2 -1.3,-6.4 -2.5,-9.8 -3.7,4 -4.4,8.5 -3,13.5 -0.2,0 -0.5,0 -0.6,-0.1 -2.3,-2.1 -6.5,-1.9 -7.5,-4.6 -1,-2.7 2.9,-4.7 3.5,-7.7 0.5,-2.5 1.6,-4.9 2.7,-7.3 0.9,-2 2.1,-1.9 3.6,-2.2 -3.4,-2.6 -7.8,-1.9 -10.7,1.7 -0.8,1 -1.3,2.5 -2.9,1.4 -1.5,-1.1 -0.5,-1.8 0.2,-2.9 1,-1.7 0.8,-3.7 0.2,-5.4 -0.5,-1.2 -0.6,-2.2 0,-3.8 2.4,2.9 5.5,3.2 8.7,2.6 0.7,-0.1 2,-0.3 2.1,-1.4 0,-0.5 -0.6,-1.1 -1.1,-1.5 -1.8,-1.7 -2.9,-5.9 -3.9,-8.8 -0.7,-2.1 -1.8,-4.6 -3.9,-6 -1,-0.7 -1.8,-1.4 -2.7,-2.9 3,-0.8 6.8,0.5 7.6,-4.2 1.4,4.1 0.4,7.8 2.3,11.2 1.1,1.9 2,4 3.3,5.7 6.6,8.3 12.7,17.1 17.9,26.4 2.1,3.8 3.1,8.3 4.9,12.3 0.8,1.8 -0.9,3.1 -2.9,3.5 -0.8,0.1 -1.8,0.5 -1.4,1.4 0.5,1.5 1.3,0.1 2,0 2.5,-0.2 4.7,0.2 6,3 1.1,2.3 3.2,4.2 -0.1,6.5 -1.1,0.7 -2.5,1.6 -2.3,3.5 1.1,-2.6 5.6,0.2 5.6,-3.9 1.7,1.5 3.5,2.4 1.9,5.2 -0.7,1.2 -0.1,3.9 1.5,5.3 2.7,2.5 0.4,3.2 -1.3,4.2 -1,0.5 -3.1,-1.1 -3,1.4 0.1,2.2 3,-2 2.5,2 -0.2,0.4 -1.6,-0.2 -2.4,0.5 -0.6,0 -1,-0.4 -1.4,-0.8 0.2,0.6 0.7,0.8 1.4,0.8 z"
   class="st0" />
		<path
   id="path15204"
   d="m 240.9,134.9 c -9.5,-9.6 -21.7,-15.3 -31.9,-23.5 0,0 1.2,-0.1 1.2,-0.4 0.1,-1.9 -1.9,-1 -2.6,-1.8 0.4,-1.4 1.8,-1 2.8,-1.6 -1.6,-1.5 -3.1,0.8 -4.8,-0.1 1.2,-1.9 3.5,-1.2 4.7,-2.5 -2,-0.2 1.8,-3.9 -2.5,-2.8 15.4,-10.5 41.4,-17.6 52.7,-15.7 -7.8,5.8 -12.9,13.5 -16.4,21.8 -3.3,8.2 -6.3,17 -3.2,26.6 z"
   class="st0" />
		<path
   id="path15206"
   d="m 216.6,33.4 c 2.6,-4.1 7.5,-4.7 11,-7.5 0.4,-0.3 1,-0.4 2.3,-1 -4.5,7.4 -7,14.4 3.9,17.8 -14.8,10.8 -29.6,20.3 -41.7,33.1 -3.7,3.9 -7.4,7.9 -9.8,12.9 -1.9,4.1 -6.4,6.2 -8.5,10.2 3.4,0.8 2.9,-3.9 5.6,-4.4 0.7,1 0.1,1.8 -0.5,2.6 l -0.9,8.3 c 0.6,2 -1.5,2 -2.3,2.7 -1.2,1 -2.8,1.5 -5.1,2.5 3.3,0.7 5,-1.1 7.4,-2.2 -0.3,2.3 -0.7,3.6 -2.9,3.8 -0.5,0.1 -2.1,0.2 -1.9,1.5 0.1,1.2 1.7,0.1 2.1,1.2 -1.3,1.7 -3.3,1.9 -5.3,2.1 0.3,0.4 0.3,0.7 0.5,0.9 1,1 2.8,-1.6 3.2,0.4 0.3,1.5 -1.5,2.3 -2.9,2.8 -2,0.7 -4,1.2 -5.9,1.9 -0.1,0 -0.2,0.1 -0.3,0.2 -1.2,-2.6 -2.1,-1.6 -3.9,-0.3 -1.9,1.4 -4.3,-0.1 -6.5,-0.5 -1,-0.2 -1.8,-0.7 -3,-1.1 6,-2 9,-5.9 8.1,-10.9 -0.2,-0.9 -0.3,-2.2 0.2,-2.8 0.6,-0.7 1.5,-2.1 2.9,-1.1 0.6,0.4 1.5,1.1 0.6,1.9 -2.2,2.1 -1.5,3.2 1.1,4 0.2,0.1 0,1.3 0,1.9 l 0.1,-0.1 c -1.3,0.1 -2.4,0.7 -3.7,1.8 1.3,0.9 3.7,0.7 2.8,3 1.9,-0.4 3.8,-0.9 5.6,-1.3 -0.8,-2.7 2.1,-2.4 3.3,-4 -2.6,0.4 -3.5,0.8 -2.1,-2.6 1.1,-2.8 1.9,-4.4 4.7,-5.1 0.8,-0.2 1.3,-0.9 1.7,-2.5 -2.3,1.8 -4.4,2.6 -7.2,3.4 1.8,-3.5 6.2,-3.3 7,-7.5 -2,1.8 -3.3,0.7 -4.7,-0.2 1,-1.3 0.4,-3.1 2.3,-4.5 3,-2.3 6.2,-4.8 7.7,-8.7 -2.9,2.7 -5.9,5.4 -8.8,8 4.1,-6.6 9.5,-12 15,-17.4 -4.7,4.7 -9.4,9.5 -14.1,14.2 -0.6,-0.5 -1.1,-1.1 -1.7,-1.6 6.4,-6.8 12.8,-13.7 19.2,-20.5 -0.2,-0.2 -0.3,-0.3 -0.5,-0.5 -4,4 -8,8.1 -12,12.1 -0.4,-0.4 -0.8,-0.8 -1.2,-1.1 8.5,-7.8 15,-17.3 23.2,-25.4 -4.3,2.1 -7.4,5.7 -10.1,9.2 -3.4,4.5 -7.7,8.1 -11.3,12.5 -3.2,3.9 -5.4,8.4 -8.5,12.3 -0.9,1.2 -1.7,2.6 -2.9,1.8 -1.2,-0.7 -0.6,-2.3 0.2,-3.6 2.6,-4.3 5.7,-8.2 9,-12 4.8,-5.7 9.3,-11.7 14.6,-16.9 5.1,-5 10,-10.2 15.6,-14.6 4.1,-3.2 8,-6.7 12.1,-10.2 -1.4,-0.8 -2,0.9 -3.1,0.6 z"
   class="st0" />
		<path
   id="path15208"
   d="m 219.5,170.7 c -4.2,-17.8 -12.2,-33.5 -21.6,-48.7 7.2,7.9 16.4,13.7 22.5,22.1 -0.1,-6.5 -0.4,-6.2 -5.9,-10.3 -3.3,-2.4 -6,-5.9 -8.7,-9 -2.8,-3.2 -4.9,-7 -8.9,-9 6.2,0.6 11.2,3.7 16.6,6 8.9,3.7 15.9,10.6 24.5,14.8 2.1,1 2.1,2.5 0.1,3.7 -5.2,3.3 -8.1,8.6 -11.7,13.4 -2.5,3.3 -3.4,7.3 -4.2,11.3 -0.3,2 -0.9,3.7 -2.7,5.7 z"
   class="st0" />
		<path
   id="path15210"
   d="m 216.5,33.3 c -7,5.3 -13.4,11.2 -19.9,17 -6.8,6.1 -12.9,12.9 -18.3,20.2 -4.1,5.5 -9.2,10.2 -12.3,16.5 -1,2 -1.9,-0.3 -3,-0.2 -1.5,0.2 -1.2,-1.2 -0.8,-2 1.5,-3 2.5,-6.1 5,-8.7 7.5,-7.8 15,-15.5 22.6,-23.1 7.6,-7.6 16.6,-13.4 25.4,-19.5 0.3,-0.2 1,0 1.5,0 -0.1,-0.1 -0.2,-0.2 -0.2,-0.2 z"
   class="st0" />
		<path
   id="path15212"
   d="m 106.2,109.9 c -1.7,4.7 -4.9,5.8 -9.3,3.7 0.7,2 2.5,1.8 3.6,2.9 -2.1,1.9 -3.2,-1.1 -4.8,-1.1 -0.7,1.7 2.7,1.7 1.3,3.5 -1.2,1.5 -2.4,0 -3.6,-0.2 -0.1,0 -0.3,0 -0.4,0 -3.7,-0.7 -7.4,-1.6 -8.3,-6 -0.6,-2.8 2.9,-6.9 7,-8.5 0.7,-0.3 1.4,-1.2 2.4,0 3.1,3.6 7.9,4.1 12.1,5.7 z"
   class="st0" />
		<path
   id="path15214"
   d="m 143.5,41.9 c 4.7,-6.8 6.5,-15.7 15.7,-18.5 -2.7,4.2 -1.1,7.5 4,8.3 -0.5,3.8 -3.6,5.6 -6.1,7.9 -0.5,0.4 -1.1,0.7 -1.6,1.1 -5.5,4.9 -5.7,4.9 -12,1.2 z"
   class="st0" />
		<path
   id="path15216"
   d="m 103.7,102.5 c 2.4,0.8 3.9,1.6 5.6,2 -1.6,0.1 -3.2,0.2 -5.3,0.3 1.6,1 3.5,1.1 3.9,3.6 -4.5,-2.5 -9.9,-1.7 -13.1,-6.5 -1.6,-2.4 -1,-4.1 0.2,-5.5 1.6,-1.7 3.5,-4.2 6.4,-2.7 3.6,1.8 7.1,3.2 11.3,3 0.9,-0.1 2.4,0.3 2.7,1.7 0.2,1.3 -0.8,2 -1.6,2.6 -2.8,2.2 -6.2,0.9 -10.1,1.5 z"
   class="st0" />
		<path
   id="path15218"
   d="m 90.6,126.9 c 0.4,1.1 1.5,0.3 2.1,1 0.8,0.9 3.1,0.7 2.2,2.6 -0.7,1.6 -2.3,2.6 -4,1.8 -2.9,-1.4 -5.7,-3.2 -8.5,-4.9 -1.8,-1.2 -1.4,-3.3 -0.9,-4.8 0.7,-2.1 2.8,-4 4.7,-3.8 4,0.5 7.8,1.9 11.6,3.2 1,0.3 2.9,1.3 1.8,2.8 -0.8,1 -1.3,3.3 -4,2.2 -1.3,-0.7 -3.3,-0.1 -5,-0.1 z"
   class="st0" />
		<path
   id="path15220"
   d="m 114.7,205 c -2,1.6 -3.3,1.4 -4.7,-0.3 -0.4,-0.5 -1,-2.2 -2,-1 -1.4,1.7 1.4,0.8 1.4,1.8 0,0.4 0.6,0.8 1.1,1.3 -6.5,0.7 -10.6,-4.7 -8.2,-10.5 0.4,-0.8 0.7,-1.7 0.9,-2.6 0.5,-1.8 1.8,-3.3 3.5,-3.5 2.2,-0.3 1.9,1.9 2.3,3.4 0.7,2.3 2.4,3.6 4.6,4.6 3.5,1.6 3.5,1.7 2.2,5.6 -0.8,0.2 -1.2,-0.7 -1.7,-0.8 -1.1,-0.2 -0.8,-2.8 -2.1,-1.6 -0.9,0.8 0,2.3 1.5,2.7 0.5,0.2 0.8,0.6 1.2,0.9 z"
   class="st0" />
		<path
   id="path15222"
   d="m 191.6,119.5 c 15.5,18.8 25.2,40 28.3,64.2 -5.8,-23 -14.5,-44.7 -28.3,-64.2 z"
   class="st0" />
		<path
   id="path15224"
   d="m 125.4,194.2 c -2,0 -4.8,-6.1 -3.9,-8.7 2,-5.9 6.9,-7.4 11.9,-3.5 0.3,0.2 0.7,0.4 0.8,0.7 0.7,2.6 -6.1,11.5 -8.8,11.5 z"
   class="st0" />
		<path
   id="path15226"
   d="m 107.6,92.9 c 1.5,0.6 3,1.1 4.6,1.7 -1.8,0.6 -3.1,0.2 -4.7,-0.3 -2.6,-0.9 -5.5,-1.7 -5.5,-4.7 0,-3 5.7,-5.3 9,-4.6 3.8,0.8 7.3,3 11.8,2.6 -2.3,4.4 -6.1,2.9 -9.7,3.5 1.6,1.1 3.6,1 4.7,2.9 -3.6,0.8 -6.6,-2.8 -10.2,-1.1 z"
   class="st0" />
		<path
   id="path15228"
   d="m 110.6,189.3 c 1,-2.1 1,-5.6 4.7,-6.9 1.5,-0.5 3.1,-0.8 4.3,-0.3 2,0.8 -0.3,2.1 -0.2,3.4 0.2,2.8 0.5,5.5 1.6,8 0.8,2 -0.5,4.5 -2.6,4.6 -3.4,0.1 -7.8,-4.5 -7.8,-8.8 z"
   class="st0" />
		<path
   id="path15230"
   d="m 157,111.3 c 0.1,3.7 -1.6,5.8 -4.6,7.4 -2.3,1.2 -4.2,0.6 -5.9,-0.6 -1.7,-1.2 -0.4,-2.8 -0.3,-4.3 0.3,-4.6 4.2,-6.6 6.2,-9.9 0.8,-1.2 2.3,-1.2 2.5,0 0.3,2.8 2.5,4.9 2.1,7.4 z"
   class="st0" />
		<path
   id="path15232"
   d="m 263.8,84.2 c -8.6,-0.6 -17.1,0.7 -25.3,2.8 -6.9,1.8 -13.7,4.1 -20.2,7.1 -4.2,1.9 -8.2,4.4 -12.6,6 -3,1.1 -5.6,3.6 -8.1,5.9 -1.8,1.7 -2.8,1.6 -4.1,-0.3 7,-3.8 13.8,-7.8 20.7,-11.6 7.8,-4.4 16.1,-6.9 24.6,-8.6 8.2,-1.8 16.6,-2.6 25,-1.3 z"
   class="st0" />
		<path
   id="path15234"
   d="m 92.5,139.9 c -2.5,0.8 -4.5,1.6 -6.1,3.2 -1.7,1.8 -3.2,0 -3.9,-1.2 -1.9,-3.4 -1.6,-7.3 0.9,-9.9 2,-2 4.3,2 7,1.7 0.7,-0.1 2.3,1.5 1.5,2.8 -0.5,0.8 -2.2,0.1 -2.9,1.2 0.4,1.5 2,0.8 3.5,2.2 z"
   class="st0" />
		<path
   id="path15236"
   d="m 125.7,291.7 c 3.9,6.7 10,7.5 16.9,7.5 -2.2,1.5 -3.7,2.8 -5.5,3.7 -1.1,0.5 -16.8,-4 -18.3,-5 1.2,-0.5 2.1,-1.1 3.1,-1.1 1.3,0 1.9,-0.7 2.8,-1.4 1,-1 0.2,-2.3 1,-3.7 z"
   class="st0" />
		<path
   id="path15238"
   d="m 29,171.8 c 5.2,3 9.1,5.9 12.4,9.5 2.2,2.3 -1.6,2.4 -1.9,4 -2.7,-2.2 -4.8,-6.2 -8.3,-1 -0.6,0.9 -3,-0.6 -2.6,-1.2 2.7,-3.6 1,-7.2 0.4,-11.3 z"
   class="st0" />
		<path
   id="path15240"
   d="m 158.1,184.4 c -1.6,0.4 -3.1,-0.3 -4.4,-1.2 -2.1,-1.6 -2.9,-3.4 0.4,-4.6 1.2,-0.5 2.3,-1.2 3.5,-1.8 1.7,-0.8 3.4,-2.4 5.4,-0.4 1.3,1.3 2.2,2.7 2,4.6 -0.4,2.7 -3,2.6 -4.8,3.5 -0.5,0.2 -1.3,-0.1 -2.1,-0.1 z"
   class="st0" />
		<path
   id="path15242"
   d="m 162.1,192.1 c -1.8,-0.2 -4,-0.3 -4.1,-2.3 -0.1,-1.8 0.7,-3.8 3.5,-3.8 1.3,0 2.8,-0.8 4,-1.4 2.9,-1.6 4.7,-0.9 6.3,2 0.9,1.7 0.3,2.3 -0.9,2.7 -2.8,1 -5.8,1.8 -8.8,2.8 z"
   class="st0" />
		<path
   id="path15244"
   d="m 166,104.7 c -1.8,0.4 -3.7,-0.5 -5.5,0.8 -0.6,0.4 -1.9,0.5 -2.6,-0.4 -0.2,-0.3 -0.2,-1.3 0.1,-1.5 0.8,-0.6 1.6,-1.5 2.7,-1.1 2.7,1.1 4.2,0.6 4.3,-2.6 0,-0.1 1,-0.9 0.2,-1.1 -1.6,-0.3 -2.7,-2.5 -4.7,-1.4 -2.3,1.2 0.9,0.5 0.5,1.4 -0.3,0.8 -0.6,1.5 -1.3,1.8 -1.3,0.6 -2.4,-0.4 -3.2,-1 -0.9,-0.6 0.1,-1.4 0.7,-1.9 1.1,-0.8 2.8,-0.8 3.4,-1.9 -3.8,-3.1 1.9,-4.8 0.9,-7.3 1.5,1.2 3,2.5 0.6,4.1 -1.4,0.9 -0.7,1.9 -0.2,2.6 0.9,1.4 1.5,0 2.2,-0.4 2.3,-1.6 3.4,1.5 3.3,1.8 -1.7,2.8 0.9,4.3 1.5,6.3 -1,0.7 -3.3,-0.7 -3.1,1.9 z"
   class="st0" />
		<path
   id="path15246"
   d="m 234,132.1 c -10.3,-9.4 -24,-12.8 -35.3,-20.4 13.6,3.7 24.8,11.4 35.3,20.4 z"
   class="st0" />
		<path
   id="path15248"
   d="m 122.5,86.1 c -2.1,-0.7 -4.4,-0.6 -6.6,-1.1 -1.5,-0.3 -3.8,-1.3 -3.5,-3.2 0.3,-1.8 2.4,-3.1 4.2,-3 2.7,0.1 5.5,0.5 7.6,2.6 0.7,0.7 2.5,1.3 1.6,2.8 -0.7,1.1 -1.6,2.2 -3.3,1.9 z"
   class="st0" />
		<path
   id="path15250"
   d="m 53.4,48.7 c 1.7,2.1 2.7,5.6 6.9,3.6 -3.8,4.4 -9.8,7.5 -8,14.9 -5,-3.5 -5.3,-5.2 -1.9,-9.2 1.7,-2.1 5.1,-3.6 1.7,-7.1 -0.6,-0.6 0.3,-1.7 1.3,-2.2 z"
   class="st0" />
		<path
   id="path15252"
   d="m 165.2,198.3 c -1.3,-0.2 -2.5,0.3 -3.4,-0.5 -0.7,-0.7 -1.8,-1.3 -1.6,-2.6 0.2,-1.2 1,-1.6 2.2,-1.8 2.9,-0.5 5.9,-1.1 8.8,-1.8 0.8,-0.2 1.5,-1.4 2.1,0.3 0.3,1 1.1,1.6 0,2.7 -2.3,2.5 -5.2,3.4 -8.1,3.7 z"
   class="st0" />
		<path
   id="path15254"
   d="m 98,61.4 c 8.7,-0.1 16.5,2.3 24.1,6.2 1.5,0.8 1.5,1.9 2,3 0.5,1 -0.6,1.3 -1.1,1.8 -0.7,1 -1.2,0 -1.5,-0.4 -4,-5.8 -10.6,-6.6 -16.5,-8.7 -2.3,-0.8 -4.7,-1.3 -7,-1.9 z"
   class="st0" />
		<path
   id="path15256"
   d="m 74.8,218.1 c 3.4,1.2 6.2,0.7 8.5,-1.8 2.4,2.9 0.4,6.5 2.1,9.4 0.3,0.5 0.3,1.5 -0.5,1.7 -0.9,0.2 -2.3,0.5 -2.6,-0.3 -1.6,-3.7 -5.3,-5.6 -7.5,-9 z"
   class="st0" />
		<path
   id="path15258"
   d="m 68.6,53.5 c 7.4,6.8 16.5,7 26.3,6.4 -5.6,4.3 -23.1,-0.1 -26.3,-6.4 z"
   class="st0" />
		<path
   id="path15260"
   d="m 97.2,59.1 c 3.6,-2.7 18.8,-0.2 22.3,3.8 -7.6,-0.6 -14.5,-5.1 -22.3,-3.8 z"
   class="st0" />
		<path
   id="path15262"
   d="m 109.2,295.4 c 3.7,-4.8 8.9,-6.5 12.3,-4.3 0.9,0.6 2.8,1.3 1.8,2.9 -1.1,1.7 -2.3,1 -3.6,-0.1 -2.8,-2.3 -5,-1.9 -10.5,1.5 z"
   class="st0" />
		<path
   id="path15264"
   d="m 50.7,224.9 c 4,-5 8.5,-6.6 11.9,-4.6 1.1,0.7 3,1.4 2,3.1 -1,1.7 -2.3,0.9 -3.6,-0.3 -2.3,-2 -4.7,-1.9 -7.2,-0.2 -1,0.7 -2.1,1.3 -3.1,2 z"
   class="st0" />
		<path
   id="path15266"
   d="m 101.4,257.8 c 0.6,6.2 -1.6,8.9 -7.8,8.6 2.5,-1.7 5.1,-3 3.6,-6.5 -0.4,-0.8 0,-0.9 4.2,-2.1 z"
   class="st0" />
		<path
   id="path15268"
   d="m 69.8,211.7 c 5.3,-2.6 8.1,2.3 12.2,3 -5.6,5 -7.9,-1.7 -12.2,-3 z"
   class="st0" />
		<path
   id="path15270"
   d="m 33.6,105.8 c 5.6,1.4 6.8,0.6 7.2,-4.9 1.2,0.5 2.3,1 3.5,1.6 -4.5,7.8 -6.7,8.4 -10.7,3.3 z"
   class="st0" />
		<path
   id="path15272"
   d="m 97.9,63.6 c 5.2,0.8 10.2,2.7 15.7,5.2 -13.3,-1.2 -15.9,-2.1 -15.7,-5.2 z"
   class="st0" />
		<path
   id="path15274"
   d="m 55.7,39.1 c 2.4,1.3 5.2,7.7 4.4,9.8 -0.5,1.1 -1.4,1.8 -2.5,1.3 -1.4,-0.6 -2.2,-1.8 -1.7,-3.3 1.4,-4.2 1.5,-5.1 -0.2,-7.8 z"
   class="st0" />
		<path
   id="path15276"
   d="m 79,187.3 c 0.3,-2.6 -0.8,-4.5 -1.9,-6.4 7.9,2.4 8.1,2.5 8.2,6.9 -1.9,-2.3 -3.9,-2.1 -6.3,-0.5 z"
   class="st0" />
		<path
   id="path15278"
   d="m 23.9,80.2 c 0.7,-4.5 4,-5.5 6.5,-6.9 1.7,-0.9 1.7,1.4 2.1,2.4 0.4,1.2 0.1,2.3 -1.7,2.2 -2.4,-0.1 -4.8,-0.5 -6.9,2.3 z"
   class="st0" />
		<path
   id="path15280"
   d="m 106.9,319.2 c -0.3,-3.3 3.5,-8.8 6.3,-9.1 1.6,-0.2 2.3,1.7 3.7,3.3 -4.7,0.2 -8.6,1 -10,5.8 z"
   class="st0" />
		<path
   id="path15282"
   d="m 16.6,206.2 c -0.3,-4 3.8,-10.1 6.5,-10 1.5,0 2.2,1.8 3.6,3.6 -5.1,-0.3 -8.7,1 -10.1,6.4 z"
   class="st0" />
		<path
   id="path15284"
   d="m 55.7,251.7 c -0.3,-3.3 3.6,-8.9 6.3,-9.1 1.7,-0.1 2.2,1.8 4.1,3.4 -5.2,0.1 -9.1,0.9 -10.4,5.7 z"
   class="st0" />
		<path
   id="path15286"
   d="m 30.3,39.9 c 4,-0.3 10.3,4 10.1,6.5 -0.1,1.4 -1.7,2.4 -3.6,3.3 C 37,45 35.7,41.4 30.3,39.9 Z"
   class="st0" />
		<path
   id="path15288"
   d="m 181.6,309 c -1.8,-2.3 -4.2,-1.7 -6.4,-1.8 -0.7,0 -1.6,0.4 -1.9,-0.8 -0.3,-1.5 0.4,-2.7 1.1,-3.7 0.6,-0.9 1.4,0.2 2,0.5 2.2,1.4 4.9,2.3 5.2,5.8 z"
   class="st0" />
		<path
   id="path15290"
   d="m 18.8,182 c 0.5,-4 3.2,-4.9 5.2,-6.2 0.5,-0.4 1.6,-2 2.6,-0.6 0.6,0.9 1.2,2 1,3.3 -0.3,1.8 -1.7,1.1 -2.6,1 -2.2,-0.2 -4.2,0.3 -6.2,2.5 z"
   class="st0" />
		<path
   id="path15292"
   d="m 138.4,328.4 c -2,-1.7 -3.6,-3.5 -3.4,-6.5 0.2,-2.5 2.4,-2.1 3.4,-2.2 1.1,-0.1 0.6,1.4 0.2,2.4 -0.7,2 -0.4,4.1 -0.2,6.3 z"
   class="st0" />
		<path
   id="path15294"
   d="m 127.1,48.4 c -0.8,1.4 -3.8,0.7 -2.5,2.9 1.8,3 4.1,0.5 6.2,0.4 -1.7,2.6 -4.2,2.2 -6.5,1.1 -2,-1 -2.2,-3.3 -1.1,-4.9 1.3,-2.1 2.5,-0.1 3.9,0.5 z"
   class="st0" />
		<path
   id="path15296"
   d="m 165.9,104.8 c 2.9,1.1 1.8,4 2.2,6 0.2,1 -1.8,-0.5 -2.9,-0.5 -1.4,0 -1,-1.5 -0.5,-2.1 1,-1 1.5,-2.1 1.4,-3.5 -0.1,0 -0.2,0.1 -0.2,0.1 z"
   class="st0" />
		<path
   id="path15298"
   d="m 51.5,204.8 c 3.1,-1.5 3.1,-1.5 2.9,4 -1.1,-1.5 -2.1,-2.9 -2.9,-4 z"
   class="st0" />
		<path
   id="path15300"
   d="m 96.1,61.7 c -0.4,1.8 0.7,3.5 -0.9,4.7 -0.4,0.3 -1.4,0.3 -1.6,-0.6 -0.4,-1.8 0.3,-3.1 2.5,-4.1 z"
   class="st0" />
		<path
   id="path15302"
   d="m 92.3,56.1 c 1.1,0.6 2.8,-0.1 3.1,1.6 0.1,0.3 0,1.5 -0.9,1.5 -1.8,-0.1 -1.6,-2 -2.2,-3.1 z"
   class="st0" />
		<path
   id="path15304"
   d="m 164.2,114.5 c 1,0.1 2.6,-0.8 2.5,1.4 0,0.6 -0.3,0.9 -1,1 -2.2,0.1 -1.3,-1.5 -1.4,-2.5 0.1,0 -0.1,0.1 -0.1,0.1 z"
   class="st0" />
		<path
   id="path15306"
   d="m 157.2,49.6 c 0.8,1.1 1.7,2.1 2.2,3.3 0.4,0.8 2.6,0.4 1.3,2.2 -0.8,1 -1.7,1 -2.9,0.6 -0.9,-0.2 -2,0.4 -2.9,0.2 -1.4,-0.3 -3,-0.7 -3.6,-2.2 -0.7,-1.8 1,-1.5 1.9,-2.1 0.7,-0.5 1.2,-1.8 1.2,-2.8 0,-1.6 0.9,-2.7 2,-3.3 4.8,-2.3 7.5,-6.7 11,-10.3 1.3,-1.3 2.6,-2.6 5,-3 -0.8,2.6 -0.9,5 -1,7.5 0,3.2 -3.4,4 -5.6,5.6 -0.4,0.3 -1.3,0.2 -1.4,0.5 -2.2,4.9 -2.4,5 -7.2,3.8 z"
   class="st1" />
		<path
   id="path15308"
   d="m 200.8,214.2 c -1.2,-3.8 -3.2,-7.6 -1.6,-11.7 5.9,9 8.7,18.5 6,29.5 -4.7,-7.3 -1.7,-15.5 -4.2,-22.8 0,1.7 -0.1,3.3 -0.2,5 z"
   class="st1" />
		<path
   id="path15310"
   d="m 135.4,62.3 c -6,-2.7 -13.5,-3.5 -17.8,-8.6 -3.1,-3.7 -6.2,-4.7 -10.2,-5.1 -2.5,-0.3 -5,-0.3 -7.1,-2.3 3.5,0.5 6.9,1.5 10.4,1.5 4.5,-0.1 6.8,2.2 9.1,5.5 1.5,2.1 3.7,3.6 6.7,3.5 4,-0.1 6.3,3 8.9,5.5 z"
   class="st1" />
		<path
   id="path15312"
   d="m 125.8,75.5 c 9,-2.3 5,-7.9 2.9,-13.4 5.6,4.3 6.7,8 4.1,11.8 -2,3.1 -3.5,3.5 -7,1.6 z"
   class="st1" />
		<path
   id="path15314"
   d="m 153.6,147.3 c 1.2,-6.3 -3.7,-10.6 -4.2,-16.7 7,7.7 8.8,12.8 4.2,16.7 z"
   class="st1" />
		<path
   id="path15316"
   d="m 136.9,140.1 c 0.5,3.9 -0.7,8 2.6,11.1 0.6,0.6 0.7,1.7 0,2.2 -0.8,0.6 -1.5,-0.3 -1.9,-1 -2,-3 -4.1,-6 -1.2,-9.7 0.5,-0.7 0.4,-1.8 0.5,-2.6 z"
   class="st1" />
		<path
   id="path15318"
   d="m 105.9,156.5 c 0.1,-2.6 5.9,-9.8 9.2,-11 -3.4,3.8 -4.4,8.8 -9.2,11 z"
   class="st1" />
		<path
   id="path15320"
   d="m 134.5,125.6 c -2.6,-0.3 -5.8,2.2 -8.1,-2.7 4.8,3 8.3,-1.6 12.4,-0.1 -0.7,2 -3.9,0.6 -4.4,3 z"
   class="st1" />
		<path
   id="path15322"
   d="m 208.3,236.9 c -0.2,3.2 0,6.4 -1.4,10.2 -2.4,-4.3 -3,-7.5 1.4,-10.2 z"
   class="st1" />
		<path
   id="path15324"
   d="m 94.4,152 c 3.2,-0.3 4.5,-3.3 6.7,-4.8 0.4,-0.3 0.7,-1.3 1.5,-0.5 0.7,0.6 1,1.2 0.2,2 -2.2,2.6 -4.8,4.4 -8.4,3.3 z"
   class="st1" />
		<path
   id="path15326"
   d="m 187.7,219 c 4.5,-3.1 3.9,-7.2 2.5,-11.5 3.8,5.6 5.4,5.4 -2.5,11.5 z"
   class="st1" />
		<path
   id="path15328"
   d="m 169.7,219.7 c -1.2,4.7 -1.2,4.7 -5.1,4.4 0.2,-1.8 1.9,-1.1 2.8,-1.8 -1.2,-0.7 -2.4,-1.5 -4.4,-2.6 2.7,0 4.6,0 6.7,0 z"
   class="st1" />
		<path
   id="path15330"
   d="m 108.4,116.8 c 2.6,3.9 4.9,1.4 7.2,-0.6 0.6,3.5 -2,4.9 -3.2,5 -1.9,0.2 -3.5,-1.7 -4,-4.4 z"
   class="st1" />
		<path
   id="path15332"
   d="m 134.3,125.8 c 1.1,0.9 2.3,-1.9 3,-0.1 0.7,1.7 -0.5,2.2 -2.2,2.4 -0.8,0.1 -1.4,2 -2,3.1 -1.6,-2.6 -1.5,-2.9 1.4,-5.5 0,-0.1 -0.2,0.1 -0.2,0.1 z"
   class="st1" />
		<path
   id="path15334"
   d="m 89.5,155.2 c -2.1,0.7 -3,3.2 -5.3,3.5 -0.7,0.1 -1.1,0.3 -1.6,-0.3 -0.4,-0.5 0,-0.7 0.2,-0.9 2,-1.3 3.5,-4.1 6.7,-2.3 z"
   class="st1" />
		<path
   id="path15336"
   d="m 175,260.1 c -1,1.3 -2.3,0.4 -3.2,1 -0.8,0.5 -1.2,2 -2.6,1 -0.3,-0.2 -0.8,-0.8 -0.7,-0.9 0.7,-1.3 2,-1.2 3.2,-1.2 0.3,0 0.5,-0.4 0.9,-0.8 -1.1,-0.8 -2,0.7 -2.5,0.2 -0.5,-0.4 -0.6,-0.5 -0.7,-0.6 0.7,-0.4 1.3,-1 2,-1.1 2.1,-0.4 2.7,1.3 3.6,2.4 z"
   class="st1" />
		<path
   id="path15338"
   d="m 134.5,73.3 c 1.3,-2.8 2,-4.7 3,-6.4 0.5,-0.8 1.3,-1.9 2.5,-0.6 1.4,1.6 -0.9,0.7 -1.1,1.7 -0.3,2.1 -1.7,3.7 -4.4,5.3 z"
   class="st1" />
		<path
   id="path15340"
   d="m 141.4,151.4 c -2.3,-2.9 -3.8,-5.3 -2.2,-8.5 0.1,-0.3 0.5,-0.6 0.8,-0.6 0.3,0 0.7,0.6 0.7,0.6 -2.1,2.8 1.1,5.1 0.7,8.5 z"
   class="st1" />
		<path
   id="path15342"
   d="m 137,114.1 c -3.3,3.6 -5.7,3.7 -7.7,0.6 2.4,-0.5 4.8,0.9 7.7,-0.6 z"
   class="st1" />
		<path
   id="path15344"
   d="m 119.9,114.6 c 1.9,0 3.9,0 6,0 -2,4.8 -4,0.4 -6,0 z"
   class="st1" />
		<path
   id="path15346"
   d="m 175.9,243.3 c 1.8,2.8 2.5,5 2.1,8 -1.5,-2.6 -2.5,-4.6 -2.1,-8 z"
   class="st1" />
		<path
   id="path15348"
   d="m 135.8,109.7 c 0.2,-0.8 0.8,-1.8 1.4,-1.4 0.8,0.7 2.5,-0.3 2.6,1.2 0,1 -0.8,1.6 -1.9,1.6 -1.1,0.2 -1.7,-0.5 -2.1,-1.4 z"
   class="st1" />
		<path
   id="path15350"
   d="m 223.9,63.5 c 0.8,-3.2 3.4,-3.3 6.1,-3 -2.1,1 -4.2,1.9 -6.2,2.9 z"
   class="st1" />
		<path
   id="path15352"
   d="m 129.1,120.4 c -1,2.8 -3.1,0.1 -4.4,1.2 -0.2,-0.5 -0.4,-0.9 0.1,-1.4 1.7,-1.9 2.9,-0.1 4.3,0.2 z"
   class="st1" />
		<path
   id="path15354"
   d="m 149.4,82.7 c 0.4,-0.9 0.6,-1.4 0.6,-1.4 1.4,0.1 2.5,-1.6 4,-0.8 0.8,0.4 -0.1,0.9 -0.3,1.2 -0.9,2.1 -2.6,0.7 -4.3,1 z"
   class="st1" />
		<path
   id="path15356"
   d="m 213.4,85.2 c -1.2,2.6 -3.6,3.6 -6.4,3.7 2.1,-1.3 4.2,-2.5 6.4,-3.7 z"
   class="st1" />
		<path
   id="path15358"
   d="m 163.5,246.1 c 1.9,-2.1 3.8,-1.6 6.8,-0.7 -2.9,1.2 -4.7,0.8 -6.8,0.7 z"
   class="st1" />
		<path
   id="path15360"
   d="m 105.7,150.9 c 0.1,1.4 -0.6,1 -1.1,1.3 -2,1 -1.1,-1.4 -1.9,-1.4 0.6,-0.6 1.1,-1.3 1.7,-1.9 0.5,0.8 1,1.6 1.3,2 z"
   class="st1" />
		<path
   id="path15362"
   d="m 141.8,145.8 c 0.5,2 3,3.2 3,5.9 -1.6,-1.9 -3.3,-3.3 -3,-5.9 z"
   class="st1" />
		<path
   id="path15364"
   d="m 148.8,165.7 c 0.1,1.9 1.3,3.2 2.8,5.2 -3.2,-0.8 -3.6,-2.8 -4.1,-4.7 -0.1,-0.5 0.9,-0.3 1.4,-0.3 0,-0.1 -0.1,-0.2 -0.1,-0.2 z"
   class="st1" />
		<path
   id="path15366"
   d="m 76.7,163.5 c -0.3,-2.6 1.2,-3.3 3.3,-3.3 -1.5,0.7 -0.7,3.9 -3.5,3.1 z"
   class="st1" />
		<path
   id="path15368"
   d="m 175.7,182.3 c 1.8,0 2.4,-2.8 4.8,-1.6 -1.3,1.3 -2.1,3.8 -4.8,1.6 z"
   class="st1" />
		<path
   id="path15370"
   d="m 131.7,110.8 c -1.5,1.7 -2.6,1.6 -3.7,0.3 -0.3,-0.4 -0.6,-1 0,-1.3 1.5,-0.7 2.4,0.6 3.7,1 z"
   class="st1" />
		<path
   id="path15372"
   d="m 248.8,45.2 c 1.4,-1.8 3.2,-2.7 5.9,-2.1 -2.1,1.1 -3.8,2.2 -6,1.9 0,0.1 0.1,0.2 0.1,0.2 z"
   class="st1" />
		<path
   id="path15374"
   d="m 177.9,145.9 c -1.4,-1 -2.4,-2.3 -2.1,-4.4 1.9,1 2.2,2.6 2.1,4.4 z"
   class="st1" />
		<path
   id="path15376"
   d="m 162,168.1 c -1.2,-1.3 -1.2,-2.6 -0.4,-4.2 1.8,1.4 0.8,2.8 0.4,4.2 z"
   class="st1" />
		<path
   id="path15378"
   d="m 150.5,92.5 c -1.5,0 -3.1,0 -4.9,0 2.2,-1.7 3.9,-1.6 4.7,0.1 z"
   class="st1" />
		<path
   id="path15380"
   d="m 135.8,105.4 c -1.3,1.2 -2.6,1.1 -4.4,0.3 1.6,-1.5 3,-0.9 4.4,-0.3 z"
   class="st1" />
		<path
   id="path15382"
   d="m 169.3,234.2 c -2.3,2.8 -3.8,0.2 -5.5,0 1.7,0 3.4,0 5.5,0 z"
   class="st1" />
		<path
   id="path15384"
   d="m 183.8,234 c -0.8,0 -0.7,-0.6 -0.8,-1.1 -0.1,-1.1 0.5,-1.3 1.4,-1.3 0.6,0 1.1,0.2 1,0.9 -0.2,0.8 -0.7,1.4 -1.6,1.5 z"
   class="st1" />
		<path
   id="path15386"
   d="m 208,247.2 c 0.1,1.4 0.7,2.7 -0.3,3.8 -0.1,0.1 -0.9,-0.1 -1,-0.3 -0.4,-1.4 0.5,-2.4 1.3,-3.5 z"
   class="st1" />
		<path
   id="path15388"
   d="m 169.1,248.9 c -1,1.9 -2.4,1.3 -3.8,1.3 0.8,-2 2.2,-1.6 3.8,-1.3 z"
   class="st1" />
		<path
   id="path15390"
   d="m 148.5,86.6 c 1.5,-0.7 2.6,-1.1 3.6,0 0.1,0.1 0,0.6 -0.1,0.7 -1.2,0.5 -2.2,0.7 -3.5,-0.7 z"
   class="st1" />
		<path
   id="path15392"
   d="m 157.8,71.5 c -1.8,1.9 -2.8,1.6 -3.9,1.2 -0.1,-0.1 -0.2,-0.6 -0.1,-0.7 1,-1.2 2.1,-0.4 4,-0.5 z"
   class="st1" />
		<path
   id="path15394"
   d="m 183.8,225.1 c -0.1,0.8 -0.7,1.3 -1.4,1.5 -0.6,0.2 -1.1,-0.3 -0.9,-0.8 0.2,-0.6 0.7,-1.1 1.2,-1.4 0.4,-0.3 1,-0.1 1.1,0.7 z"
   class="st1" />
		<path
   id="path15396"
   d="m 146.4,158.5 c -0.3,0.7 -0.7,1.4 -1.6,1.4 -0.7,0.1 -1,-0.6 -0.7,-1 0.3,-0.5 0.8,-1 1.4,-1.3 0.4,-0.1 0.9,0.2 0.9,0.9 z"
   class="st1" />
		<path
   id="path15398"
   d="m 142.7,95.8 c 0.6,0.9 1.9,0.4 2,1.6 0,0.2 -0.5,0.8 -0.6,0.8 -0.8,-0.3 -1.6,-0.7 -2.4,-1 0.3,-0.5 0.6,-0.9 1,-1.4 z"
   class="st1" />
		<path
   id="path15400"
   d="m 150.4,92.6 c 1.1,-0.2 1.8,0 1.7,1.4 -0.1,0.6 -0.4,1.1 -1,0.9 -1.2,-0.5 -0.5,-1.6 -0.6,-2.4 0,0 -0.1,0.1 -0.1,0.1 z"
   class="st1" />
		<path
   id="path15402"
   d="m 176.4,196.7 c 0.9,0.3 1.8,-1.1 2.4,-0.3 0.5,0.8 -0.5,1.6 -1.2,1.7 -1.3,0.3 -1,-0.8 -1,-1.6 -0.1,0.1 -0.2,0.2 -0.2,0.2 z"
   class="st1" />
		<path
   id="path15404"
   d="m 184.9,223.4 c -0.6,-1.4 -0.3,-2.3 1,-2.9 0.7,1.1 0.4,2 -1,2.9 z"
   class="st1" />
		<path
   id="path15406"
   d="m 71.5,169.2 c -0.3,0.8 -1,0.7 -1.6,0.6 -0.6,-0.1 -0.9,-0.6 -0.6,-1.1 0.2,-0.3 0.9,-0.4 1.4,-0.5 0.6,-0.1 0.8,0.4 0.8,1 z"
   class="st1" />
		<path
   id="path15408"
   d="m 76.6,163.4 c -0.6,0.8 -1.2,1.7 -2.2,2 -0.1,-0.4 -0.4,-0.9 -0.3,-1.3 0.5,-1.5 1.7,-0.7 2.6,-0.6 0,0 -0.1,-0.1 -0.1,-0.1 z"
   class="st1" />
		<path
   id="path15410"
   d="m 118.5,121.9 c 1.3,0 2.5,0 3.8,0 0,0.1 0,0.3 0,0.4 -1.3,0 -2.7,0 -4,0 0.1,-0.1 0.1,-0.2 0.2,-0.4 z"
   class="st1" />
		<path
   id="path15412"
   d="m 94.2,147 c -1.3,-0.9 -2,-1.6 -0.9,-2.5 0.2,-0.2 0.6,-0.2 0.9,-0.4 0,0.9 0,1.8 0,2.9 z"
   class="st1" />
		<path
   id="path15414"
   d="m 177.2,238.6 c -1.4,0.6 -2.3,0.3 -2.9,-0.8 1.2,-1 2,-0.5 2.9,0.8 z"
   class="st1" />
		<path
   id="path15416"
   d="m 205.5,92.5 c -1.3,1.2 -1.9,1.8 -2.7,2.6 -0.4,-1.9 0.4,-2.4 2.7,-2.6 z"
   class="st1" />
		<path
   id="path15418"
   d="m 142.1,101.8 c 0.3,0.5 -0.4,0.4 -0.6,0.5 -0.6,0 -1.4,0.3 -1.5,-0.6 0,-0.3 0.3,-0.8 0.5,-0.8 0.7,-0.3 1.1,0.2 1.6,0.9 z"
   class="st1" />
		<path
   id="path15420"
   d="m 134,94.2 c 0.5,0.1 1.1,0.1 1,0.9 -0.1,0.7 -0.5,0.9 -1,0.7 -0.4,-0.2 -1,-0.6 -1,-1 -0.1,-0.9 0.6,-0.5 1,-0.6 z"
   class="st1" />
		<path
   id="path15422"
   d="m 181.8,235.7 c 0.2,0.2 1.2,-0.3 0.8,0.6 -0.2,0.4 -0.7,0.8 -1.1,0.9 -0.6,0.2 -1,-0.2 -0.9,-0.9 0.1,-0.6 0.6,-0.6 1.2,-0.6 z"
   class="st1" />
		<path
   id="path15424"
   d="m 162.4,160.6 c 0.3,0.9 0.6,1.8 -0.2,2.6 -0.2,0.1 -0.9,-0.1 -1,-0.3 -0.4,-1.2 0.7,-1.6 1.3,-2.2 0,0 -0.1,-0.1 -0.1,-0.1 z"
   class="st1" />
		<path
   id="path15426"
   d="m 223.8,63.4 c -0.9,1.4 -2.2,2 -3.8,1.1 0,0 0,0 0,0 1.3,-0.1 2.3,-1.8 3.9,-1 0,0 -0.1,-0.1 -0.1,-0.1 z"
   class="st1" />
		<path
   id="path15428"
   d="m 132.4,200.1 c 1.1,3.8 4.2,7.3 2.4,11.6 -0.6,-4.1 -2.2,-7.6 -4.6,-10.8 -0.3,-0.4 -1.4,-1.2 -0.4,-2 2.3,-1.7 2.5,-4.5 3.7,-6.9 1.1,0.9 0,2.4 1.1,3.1 0.4,0.3 0.9,0.9 0.8,1.1 -0.3,0.6 -1,-0.1 -1.3,0 -1.5,0.4 -0.9,1.3 -0.3,2.1 0.7,1 1.8,0.4 2.6,0.9 0.8,0.6 0.5,1.1 0.2,1.9 -0.6,1.7 -1.1,0.3 -1.5,0 -0.6,-0.3 -1,-1.4 -2.7,-1 z"
   class="st1" />
		<path
   id="path15430"
   d="m 148.7,206.8 c -1.5,-6.8 -5.9,-13.1 -3.2,-20.6 1.2,6.8 3.8,13.4 3.2,20.6 z"
   class="st1" />
		<path
   id="path15432"
   d="m 121.9,245 c -1,0.6 -1.3,0.7 -1.6,1 -0.8,0.7 -1.7,1.9 -2.5,0.4 -0.8,-1.6 1.3,-1.3 1.9,-2 0.9,-1.1 6.6,1.6 7.1,3.3 0.1,0.3 -0.2,1 -0.3,1 -0.6,0 -1.5,0.2 -1.9,-0.2 -1.1,-1.2 -1.9,-2.4 -2.7,-3.5 z"
   class="st1" />
		<path
   id="path15434"
   d="m 129.6,212.1 c -1.8,3.3 -3.8,6.2 0.3,8.6 -1.6,0.7 -3.6,0.5 -3.6,-1 0.1,-2.6 -0.9,-6 3.3,-7.6 z"
   class="st1" />
		<path
   id="path15436"
   d="m 73.9,121.6 c 0.1,1.2 0.1,2 0.1,2.7 0.1,1 -2.1,1.1 -1,2.5 1.2,1.5 0.7,-1.5 1.7,-0.7 0.7,0.6 1,1.2 0.9,2.1 0,0.8 -0.1,1.9 -1,2 -1.3,0.2 -0.3,-1.3 -0.8,-1.5 -1.3,-0.5 -4,0.5 -2.9,-2.5 0.7,-1.5 1.8,-2.8 3,-4.6 z"
   class="st1" />
		<path
   id="path15438"
   d="m 68.1,122.6 c 0.5,-3.1 0.9,-4.8 3.5,-6.1 -0.9,2.3 -1.5,3.9 -3.5,6.1 z"
   class="st1" />
		<path
   id="path15440"
   d="m 76,136.2 c -3.4,0.1 -3.2,-1.4 -1.7,-3.9 1,1.4 0,3.2 1.6,4 -0.1,0 0.1,-0.1 0.1,-0.1 z"
   class="st1" />
		<path
   id="path15442"
   d="m 61.6,95.4 c -0.5,0.8 -0.9,1.3 -1.7,1.1 -0.2,-0.1 -0.5,-0.6 -0.5,-0.8 0.1,-0.9 0.9,-0.7 1.5,-0.7 0.3,0 0.5,0.3 0.7,0.4 z"
   class="st1" />
		<path
   id="path15444"
   d="m 219,100.2 c -2.5,0.8 -4.7,1.5 -6.8,2.2 1.8,-1.6 3.7,-3 6.8,-2.2 z"
   class="st1" />
		<path
   id="path15446"
   d="m 222.2,99.6 c 0.7,-1.4 1.6,-1.6 2.7,-1.2 0.2,0.1 0.4,0.8 0.3,1 -0.8,0.8 -1.8,0.5 -3,0.2 z"
   class="st1" />
		<path
   id="path15448"
   d="m 216.5,104.1 c -1.5,0.9 -2.7,0.5 -4.8,0.7 2.1,-1.2 3.2,-0.8 4.8,-0.7 z"
   class="st1" />
		<path
   id="path15450"
   d="m 201.9,53 c 3.3,-5.2 8.2,-8.5 13.5,-11.3 -4.5,3.8 -8.6,8 -13.5,11.3 z"
   class="st1" />
		<path
   id="path15452"
   d="m 202,58.4 c -2.7,3.7 -5.9,7 -10.7,10.1 3,-5.1 7.5,-6.9 10.7,-10.1 z"
   class="st1" />
		<path
   id="path15454"
   d="m 197.1,68.3 c 2.7,-4.4 6.9,-7.3 11.1,-10.1 l -0.1,-0.1 c -2.6,4.5 -6.9,7.2 -11.1,10.1 z"
   class="st1" />
		<path
   id="path15456"
   d="m 208.1,58.3 c 0.7,-0.7 1.4,-1.5 2.1,-2.2 0.2,1.8 -0.4,2.6 -2.2,2.1 0,-0.1 0.1,0.1 0.1,0.1 z"
   class="st1" />
		<path
   id="path15458"
   d="m 188.6,75.4 c 0.4,-2.1 1.6,-1.7 2.7,-2.4 -0.4,2.1 -1.6,1.7 -2.7,2.4 z"
   class="st1" />
		<path
   id="path15460"
   d="m 194.3,70.5 c -0.1,1.3 -1.1,1.8 -2.3,2.5 0.1,-1.8 0.9,-2.4 2.4,-2.3 z"
   class="st1" />
		<path
   id="path15462"
   d="m 196.9,68.2 c -0.8,0.9 -1.3,2.1 -2.7,2.3 0,0 0.1,0.1 0.1,0.1 0,-1.8 0.7,-2.7 2.6,-2.3 0.2,0 0,-0.1 0,-0.1 z"
   class="st1" />
		<path
   id="path15464"
   d="m 150.7,37.7 c 0.9,-1.3 1.8,-2.6 2.8,-3.8 0.7,-0.9 1.7,-1.1 2.4,-0.4 0.8,0.8 -0.2,1.5 -0.8,1.9 -1.3,1 -2.7,1.9 -4,2.8 -0.1,-0.2 -0.3,-0.3 -0.4,-0.5 z"
   class="st1" />
		<path
   id="path15466"
   d="m 152.9,29.9 c -0.3,2 -0.2,4.2 -2.3,5.7 0.1,-2.4 2,-3.7 2.3,-5.7 z"
   class="st1" />
	</g>
</g>
</svg>
