<?xml version="1.0" encoding="UTF-8" standalone="no"?>
<svg
   xmlns:dc="http://purl.org/dc/elements/1.1/"
   xmlns:cc="http://creativecommons.org/ns#"
   xmlns:rdf="http://www.w3.org/1999/02/22-rdf-syntax-ns#"
   xmlns:svg="http://www.w3.org/2000/svg"
   xmlns="http://www.w3.org/2000/svg"
   xmlns:sodipodi="http://sodipodi.sourceforge.net/DTD/sodipodi-0.dtd"
   xmlns:inkscape="http://www.inkscape.org/namespaces/inkscape"
   inkscape:version="1.0 (4035a4f, 2020-05-01)"
   height="283.78366"
   width="252.75305"
   sodipodi:docname="gryphon-segreant.svg"
   xml:space="preserve"
   viewBox="0 0 252.75305 283.78366"
   y="0px"
   x="0px"
   id="Layer_1"
   version="1.1"><metadata
   id="metadata17755"><rdf:RDF><cc:Work
       rdf:about=""><dc:format>image/svg+xml</dc:format><dc:type
         rdf:resource="http://purl.org/dc/dcmitype/StillImage" /><dc:title></dc:title></cc:Work></rdf:RDF></metadata><defs
   id="defs17753" /><sodipodi:namedview
   inkscape:current-layer="Layer_1"
   inkscape:window-maximized="0"
   inkscape:window-y="25"
   inkscape:window-x="0"
   inkscape:cy="169.7741"
   inkscape:cx="126.22596"
   inkscape:zoom="2.52"
   fit-margin-bottom="0"
   fit-margin-right="0"
   fit-margin-left="0"
   fit-margin-top="0"
   showgrid="false"
   id="namedview17751"
   inkscape:window-height="480"
   inkscape:window-width="820"
   inkscape:pageshadow="2"
   inkscape:pageopacity="0"
   guidetolerance="10"
   gridtolerance="10"
   objecttolerance="10"
   borderopacity="1"
   bordercolor="#666666"
   pagecolor="#ffffff" />
<style
   id="style17472"
   type="text/css">
	.st0{fill:#010101;}
	.st1{fill:#0A0A0A;}
	.st2{fill:#FDFDFD;}
	.st3{fill:#FCFCFC;}
	.st4{fill:#FBFBFB;}
	.st5{fill:#060606;}
	.st6{fill:#F8F8F8;}
	.st7{fill:#8A8A8A;}
	.st8{fill:#494949;}
	.st9{fill:#747474;}
	.st10{fill:#A6A6A6;}
	.st11{fill:#CECECE;}
	.st12{fill:#303030;}
	.st13{fill:#5B5B5B;}
	.st14{fill:#020202;}
	.st15{fill:#030303;}
	.st16{fill:#050505;}
	.st17{fill:#070707;}
	.st18{fill:#040404;}
	.st19{fill:#090909;}
	.st20{fill:#080808;}
	.st21{fill:#0B0B0B;}
	.st22{fill:#0C0C0C;}
	.st23{fill:#464646;}
	.st24{fill:#111111;}
	.st25{fill:#404040;}
	.st26{fill:#2A2A2A;}
</style>
<g
   transform="translate(-23.774039,-30.2259)"
   id="g17748">
	<g
   id="g17746">
		<path
   id="path17474"
   d="m 103.1,180.5 c -1,-0.7 -1.8,-1.3 -2.7,-1.8 -1,-0.7 -2.2,-0.7 -3.3,-0.4 -3.6,1 -5.2,0 -5.9,-3.6 0,-0.1 -0.1,-0.2 -0.2,-0.4 -0.7,0.5 -1.4,1 -2.1,1.4 -2.1,1.3 -3.3,1 -4.4,-1.3 -0.3,-0.7 -0.6,-1.4 -0.9,-2.1 -0.5,-1.5 -1.5,-2.2 -3,-2.2 -3.3,0 -6.3,-0.7 -9.1,-2.6 -1.8,-1.2 -3.1,-2.9 -4.5,-4.4 -0.6,-0.7 -0.5,-1.5 -0.2,-2.3 0.4,-0.9 0,-1.3 -0.8,-1.6 -1.4,-0.4 -2.7,-1.2 -4,-2 -1.9,-1 -2.2,-2.3 -1.1,-4.2 0.9,-1.7 0.8,-2.2 -0.9,-3.1 -1.7,-0.9 -3.1,-2.3 -4.4,-3.7 -0.4,-0.5 -0.4,-0.8 0.1,-1.1 0.8,-0.7 1.7,-1 2.7,-1.3 1.4,-0.4 1.4,-0.4 0.8,-1.8 -1.8,-4.1 -4.6,-7.3 -8.2,-9.9 -0.4,-0.2 -0.9,-0.3 -0.7,-1.1 0.2,-0.6 0.7,-0.5 1.2,-0.5 1.4,0 2.8,0 4.2,0.1 1.5,0.1 2.2,-0.8 1.7,-2.2 -0.3,-0.8 -0.9,-1.4 -1.6,-1.8 -2.1,-1.2 -2.2,-2.1 -0.4,-3.7 0.8,-0.8 0.9,-1.5 0.3,-2.4 -0.8,-1.2 -1.4,-2.5 -1.8,-3.9 -0.4,-1.2 -0.3,-2.4 0.5,-3.4 1.1,-1.5 1.4,-3.1 1,-4.8 -0.8,-3 -0.8,-6.1 -1.1,-9.2 -1.3,3.4 -2.9,6.6 -2.9,10.3 0,4.9 -3.7,9 -8.6,9.5 -1.5,0.2 -3,0.2 -4.5,0 -2.8,-0.5 -4.6,-2.2 -5.8,-4.7 -0.8,-1.7 -0.4,-2.3 1.4,-2.3 1.6,-0.1 3.3,0 4.9,-0.2 1.5,-0.2 2.5,-1 3.3,-2.3 -0.1,-0.1 -0.1,-0.1 -0.2,-0.2 -2.8,-0.9 -3.7,-1.8 -3.8,-3.8 -0.1,-2.9 0.9,-4.7 3.4,-5.7 0.6,-0.3 1,-0.7 1.3,-1.3 1.9,-3.9 3.8,-7.7 5.7,-11.6 0.1,-0.2 0.3,-0.5 0.4,-0.7 0.2,-0.3 0.8,-0.6 0.4,-1.1 -0.4,-0.5 -0.9,-0.7 -1.6,-0.4 -1.2,0.5 -2.4,1.1 -3.7,1.4 -2.3,0.4 -3.7,-0.2 -4.8,-2.3 C 38.7,82.8 38.4,81.6 38,80.5 37.7,79.4 37,79 35.8,78.8 33.9,78.5 32.1,78 30.2,77.5 29.5,77.3 29,76.8 28.9,75.9 c 0,-0.8 0.4,-1.4 1.1,-1.8 1,-0.6 2.1,-0.6 3.3,-0.6 4.2,0.2 8.2,-0.2 12,-2.2 0.9,-0.5 1.7,-0.2 2.4,0.5 0.5,0.5 0.9,1.1 1.8,1.3 1.2,-4 1.4,-8.1 0.4,-12.2 -0.1,-0.5 -0.3,-1.1 -0.4,-1.6 -0.4,-2.9 0.6,-4.6 3.6,-6 1.1,-0.5 0.9,-0.8 0.2,-1.5 -1.8,-1.9 -4.2,-2 -6.5,-2.4 -1.1,-0.2 -2.3,-0.4 -3.4,-0.5 -0.6,-0.1 -0.7,-0.2 -0.5,-0.8 0.9,-2.6 2.8,-3.9 5.4,-4.2 1.2,0.1 2.4,0.1 3.7,0.1 2.5,0 4.6,1 6.2,3 2.4,2.9 4,6.2 4.6,10 0.4,2.6 -0.2,5.1 -1.5,7.4 -0.9,1.5 -0.9,1.6 -0.6,3.6 3.1,-2.8 6.3,-5.4 8.5,-9 1,-1.6 2.1,-2.9 4.1,-3.4 1.5,-0.4 1.9,-1.4 1.1,-2.7 -0.4,-0.8 -1,-1.5 -1.5,-2.3 -0.4,-0.5 -0.8,-1 -1.1,-1.6 -0.6,-1.2 -0.5,-1.4 0.8,-1.5 4.9,-0.4 8.5,1.8 9.6,6.2 0.3,1.3 0.4,2.6 0.2,3.9 -0.4,3 -1.4,5.9 -3,8.5 -1.6,2.6 -4.1,3.8 -7.1,3.7 -2.2,-0.1 -3.7,0.9 -4.8,2.6 -2.8,4.1 -3.6,8.6 -3,13.5 0.5,4.5 2.1,8.8 3.1,13.3 0.5,2.3 0.6,4.7 1.6,6.9 0.3,0.7 0.7,1.4 1.5,1.6 1.6,0.4 2.2,1.5 2.2,3 0,1.3 0.4,2.5 1,3.7 1.5,3.3 2.3,6.7 1.6,10.5 -0.5,2.3 1.1,3.9 2.6,5.4 1,1 2.1,1.9 3.2,2.9 1.8,-2.8 3.5,-5.6 5.2,-8.4 0.3,-0.5 -0.1,-0.6 -0.4,-0.7 -0.7,-0.3 -1.5,-0.2 -2.3,-0.2 -0.4,0 -1,0 -1.1,-0.5 -0.2,-0.4 0.3,-0.6 0.6,-0.8 2.6,-3 5.1,-5.9 7.7,-8.8 0.5,-0.6 0.5,-0.8 0,-1.4 -1.5,-1.5 -2.8,-3.2 -4.3,-4.7 -0.2,0 0.2,0.2 0.5,0.2 4.3,0.1 8.4,-0.4 12.1,-2.7 1.7,-1 3.1,-2.4 4.4,-3.9 0.4,-0.5 0.6,-0.8 -0.2,-1.2 -0.8,-0.4 -1.9,-0.7 -1.7,-2 0.2,-1.2 1.3,-1.4 2.3,-1.6 1.4,-0.3 2.8,-0.5 4.2,-0.8 0.3,-0.1 0.6,-0.1 0.8,-0.2 1.5,-0.4 2.1,-1.1 1.9,-2 -0.2,-1 -1,-1.5 -2.6,-1.3 -1.7,0.2 -3.3,0.7 -5,0.4 -4.1,-0.6 -6.4,-3.7 -5.9,-7.8 0.1,-0.9 0.3,-1.8 0.7,-2.7 0.4,0.6 0.7,1.2 1.1,1.8 1.3,1.8 3,2.5 5.2,2.4 1.9,-0.1 3.6,-0.6 5.6,-1 -5.3,-3 -10.2,-6.2 -16,-7.4 2.8,-1 5.7,-2.3 8.4,-0.1 4.2,3.3 9.2,4.7 14.3,5.6 1.3,0.2 2.5,0.4 3.7,1 1.4,0.7 2.9,0.1 4.3,0.6 0.6,0.2 0.8,-0.5 0.7,-1 -0.1,-0.4 -0.4,-0.7 -0.7,-0.9 -2.6,-1.5 -5.2,-2.7 -8.3,-2.1 -5.2,0.9 -9.5,-0.9 -13.2,-4.5 -1.3,-1.2 -2.5,-2.6 -3.8,-3.8 -1.4,-1.4 -2.4,-1.4 -3.9,-0.2 -1.1,0.9 -2.2,2 -3.2,3 -1.1,1 -1.5,1.1 -2.7,0.3 -2.3,-1.5 -3,-3.7 -2,-6.7 0.8,-2.4 2.5,-4.2 4.3,-5.8 4.2,-3.5 9.1,-5.7 13.8,-8.3 2.4,-1.3 5,-1.8 7.7,-1.9 3.9,-0.1 7.5,0.8 11.1,2 0.9,0.3 1.8,0.7 2.7,0.8 1.7,0.3 2.9,-0.4 3.6,-1.9 3.4,-8.7 10.2,-13.2 18.9,-15.2 3.3,-0.8 6.4,-1.9 9.6,-3.1 1,-0.4 2.2,-1.1 3.2,-0.2 1,1 0.4,2.2 0.1,3.3 -0.5,1.6 -0.8,3.2 -1.5,4.8 -0.5,1.2 -1.2,2.4 -2.3,3.2 0.5,0.2 0.9,0.1 1.4,-0.1 4.4,-1.1 8.3,-3.2 12.1,-5.5 0.9,-0.5 1.8,-1.1 2.8,-1.4 0.9,-0.3 1.7,-0.3 2.3,0.5 0.6,0.8 0.2,1.5 -0.2,2.2 -2.6,3.8 -3.7,8.1 -5,12.4 -1.2,3.9 -2.6,7.7 -5.4,10.8 -3.5,3.9 -7.9,6.2 -12.7,7.8 -3.7,1.3 -4,1.9 -2.2,5.3 1.1,2.2 2,4.4 2.5,6.8 0.2,0.8 0.4,0.9 0.9,0.3 6.7,-7.5 15.3,-12.6 23.8,-17.6 9.6,-5.6 18,-12.8 25.7,-20.8 1.3,-1.4 2.7,-2.8 3.9,-4.2 0.4,-0.4 0.8,-0.8 1.2,-1.1 0.9,-0.6 1.8,-0.5 2.6,0.2 0.8,0.8 0.5,1.7 -0.1,2.3 -2.4,2.5 -3.9,5.7 -6,8.3 -0.2,0.2 -0.3,0.5 -0.5,0.7 0.5,0.3 0.9,-0.1 1.2,-0.3 2.3,-1.2 4.3,-2.8 6.3,-4.3 3.6,-2.8 7.5,-5 11.1,-7.7 3.4,-2.7 6.7,-5.5 9.5,-8.7 1.2,-1.3 2.7,-2.1 4.4,-2.4 2.7,-0.5 4.6,1.6 4,4.2 -0.3,1.1 -0.8,2 -1.5,2.9 -4.1,5.6 -8.3,11.3 -12.4,16.9 -1.6,2.2 -3,4.5 -4.5,6.8 0.4,0.3 0.6,-0.1 0.8,-0.2 4.8,-3.5 9.4,-7.2 13.5,-11.5 0.5,-0.5 0.9,-1 1.3,-1.6 1.2,-1.4 2.6,-1.3 3.6,0.3 0.6,0.9 0.5,1.8 0.5,2.8 0,0.7 0,1.4 0,2 0.1,0 0.2,0.1 0.2,0 4.3,-4.8 9.2,-8.8 13.9,-13.2 2.2,-2.1 4.4,-4.3 6.9,-6.2 0.5,-0.3 0.9,-0.6 1.4,-1 1.1,-0.8 2.3,-1.1 3.6,-0.4 1.4,0.8 1.8,2 1.7,3.5 -0.2,2.6 -0.8,5.1 -1.7,7.6 -2.9,7.6 -7.3,14.2 -12.8,20.1 -0.7,0.7 -1.3,1.5 -2.2,2.5 1.5,-0.5 2.5,-1.2 3.6,-1.9 2.2,-1.5 4.1,-3.4 6,-5.3 1.9,-1.9 4.1,-2.3 6.6,-1.8 1.8,0.3 2.5,1.4 2.1,3.2 -0.6,3.3 -2.3,6 -4.4,8.5 -4.5,5.3 -9.5,10.1 -14.5,15 -1.3,1.3 -2.6,2.7 -3.9,4 1.4,-0.1 2.6,-0.6 3.6,-1.5 2.8,-2.5 6,-2 9.2,-1 1.2,0.4 1.4,1.5 1.2,2.6 -0.2,1 -0.6,1.8 -1.1,2.6 -6.1,10.7 -14.5,18.9 -25.4,24.8 -3.6,1.9 -7.1,4.1 -10.9,5.8 1.5,0 3,0 4.5,0 3.3,0 6.6,0 9.8,0 2.3,0 4.3,0.7 6,2.3 2,2 2.3,4.5 0.9,7 -0.7,1.2 -1.6,2.1 -2.7,2.8 -4.7,3 -9.6,5.5 -15.3,6.2 -1.7,0.2 -3.4,0 -4.9,1.3 1.3,1 2.7,1.5 4.2,2 2.5,0.7 4.9,1.6 7.3,2.7 3,1.3 5.1,3.5 6.2,6.6 0.9,2.6 0,4.3 -2.4,5.4 -1.8,0.8 -3.8,1 -5.7,1.1 -3.5,0.4 -7.1,0.3 -10.7,0.4 -0.3,0 -0.6,0 -1.2,0.1 1.1,0.8 1.9,1.5 2.8,2.2 1.6,1.3 3.2,2.5 4.6,4 0.4,0.4 0.7,0.9 1,1.3 1.7,2.6 1.3,5 -1.4,6.5 -4.5,2.5 -9.3,3.5 -14.4,2.1 -2.6,-0.8 -5.3,-1.3 -8,-2 -0.4,-0.1 -0.8,-0.2 -1.3,-0.1 1.8,1.8 3.8,3.5 4.8,6 1.4,3.5 0.7,6 -2.4,8.1 -1.3,0.9 -2.7,1.5 -4.2,2 -0.7,0.2 -1.1,0.6 -0.3,1.2 5.7,4.5 9.7,10.6 13.8,16.5 2.9,4.2 5.9,8.3 9.8,11.6 3,2.6 6.4,4.3 10.4,4.7 5.9,0.6 10.8,-1.5 14.8,-5.8 1.4,-1.5 2.5,-3.3 3.5,-5.1 0.9,-1.7 0.7,-3.3 -0.4,-4.9 -0.9,-1.4 -2.1,-2.5 -3.3,-3.6 -1.9,-1.6 -5.1,-1.3 -6.8,0.5 -0.7,0.8 -0.5,1.8 0.5,2.1 0.5,0.2 1.2,0.1 1.3,0.7 0.1,0.6 -0.6,0.9 -1.1,1.2 -2.1,1.5 -4.1,1.1 -5.6,-0.9 -2.7,-3.5 -0.8,-8.3 3.7,-9.7 1.1,-0.3 2.3,-0.4 3.4,-0.5 2,-0.2 2.4,-0.9 1.4,-2.6 -1.7,-3.2 -3.4,-6.4 -4,-9.9 -2.3,-14.3 0.4,-27.1 10.6,-37.9 4.2,-4.4 7.8,-9.2 9.8,-15 1,-2.9 1.4,-5.9 1.3,-9 -0.1,-2.6 -1.3,-4 -3.8,-4.2 -1.1,-0.1 -1.9,0.1 -2.6,1.1 -1.2,1.7 -2.9,2 -4.2,1 -1.4,-1.1 -1.6,-3.6 -0.4,-4.9 2.3,-2.5 5.2,-3.6 8.5,-3.7 1.6,0 3.1,0 4.6,0.3 2.4,0.6 3.5,2.1 3.4,4.6 -0.1,0.8 0,1.1 1,1.2 1.3,0.1 2,0.8 2.3,2.4 0.7,4.7 0.8,9.3 -0.3,13.9 -0.4,1.6 -0.8,3.1 -1.3,4.6 -0.4,1 -0.4,2 -0.1,3.1 0.6,1.8 0.4,3.4 -0.5,5.1 -0.5,0.9 -0.9,2 -1.3,2.9 -0.8,1.7 -1.8,3.2 -3.4,4.3 -0.6,0.4 -0.7,0.8 -0.3,1.5 0.6,0.9 1.2,1.8 2.1,2.4 0.8,0.6 1.2,1.3 1.1,2.4 -0.1,0.7 -0.3,1.2 -1.1,1 -0.5,-0.1 -0.6,0.1 -0.6,0.6 0,0.4 -0.2,0.7 -0.5,0.9 -0.5,0.3 -0.3,0.5 0,0.9 0.6,0.7 0.6,1.6 -0.2,2.1 -0.7,0.4 -0.6,0.8 -0.6,1.4 0,0.8 -0.3,1.6 0.1,2.4 0,0.1 0,0.2 0,0.2 -0.7,1 -1.8,1.2 -2.8,1.4 -0.8,0.2 -1.3,-0.2 -1.7,-0.8 -0.3,-0.6 -0.5,-1.2 -0.8,-1.8 -0.7,-1.4 -1.6,-1.7 -2.9,-0.6 -3,2.5 -4.6,5.7 -4.2,9.7 0.1,1.4 0.4,2.8 0.8,4.1 1.8,6.5 3.9,12.9 6.1,19.2 1.3,3.9 1.9,7.9 1.2,12 -0.5,2.4 -1.4,4.6 -3,6.6 -0.4,0.5 -0.3,0.7 0.2,1 1.2,0.7 2.3,1.4 3.4,2.2 3.2,2.2 3.8,6.9 1.3,9.8 -1.5,1.7 -3.5,2.6 -5.8,2.8 -0.6,0 -1.1,0 -1.6,-0.2 -0.4,-0.2 -0.9,-0.4 -1,-1 -0.1,-0.5 0.4,-0.7 0.8,-0.9 0.7,-0.4 1.1,-1 1.5,-1.7 0.4,-0.8 0.8,-1.7 1.6,-2.3 -1.1,-0.9 -2.3,-0.9 -3.5,-1 -3.6,-0.2 -7,0.3 -10.3,1.7 -8.6,3.6 -16.7,2.1 -24.6,-2.3 -4.8,-2.7 -8.5,-6.4 -10.8,-11.5 -0.7,1.9 -0.1,4.7 1.5,6.4 1.5,1.7 3.6,2.7 5.6,3.9 -0.4,0.6 -1,1 -1.5,1.3 -1.7,0.8 -3.5,1.2 -5.3,1.5 -0.5,0.1 -1.2,-0.2 -1.4,0.5 -0.2,0.7 -0.2,1.4 0.4,2 1.7,1.6 3.7,2.6 6.2,2.2 1.4,-0.2 2.7,-0.7 4,-1.3 0.7,-0.3 0.9,-0.1 0.9,0.6 0.1,1 -0.5,1.7 -1.1,2.4 -1,1.3 -1,1.4 0.1,2.6 2.5,2.9 5.9,4.2 9.6,5.1 2.1,0.5 4.2,0.7 6.3,0.3 0.5,-0.1 1,0 1.2,0.5 0.3,0.6 0.1,1.1 -0.5,1.5 -1.8,1.1 -3.5,2.4 -5.5,3.2 -0.2,0.1 -0.5,0.2 -0.7,0.3 -1.8,0.8 -2,1.8 -0.5,3 1.8,1.4 3.6,2.8 5.4,4.2 1.3,1 2.8,1.9 4.2,2.7 1,0.6 1.9,0.7 2.9,-0.1 0.4,-0.3 0.9,-0.7 1.4,-0.4 0.5,0.3 0.4,1 0.3,1.6 -0.2,0.9 -0.8,1.5 -1.7,1.7 -3.4,0.6 -6.6,1.8 -10.2,1.3 -1.7,-0.3 -2.3,0.3 -2.1,2.1 0.1,1.2 -0.2,2.2 -0.9,3.3 -2.5,3.5 -1.6,7 2.2,9 1.6,0.9 3.2,1.7 4.7,2.5 -3.6,2.3 -7.6,3.2 -11.8,3.2 -0.3,0 -0.6,0 -0.8,0.1 -3.2,0.3 -4,1.8 -2.7,4.7 0.8,1.8 1.6,3.5 1.8,5.4 0.1,1.3 0,2.5 -0.6,3.6 -1.2,2.2 -2.8,4 -5,5.4 -1,0.6 -2.1,0.9 -3.2,0.8 -0.5,0 -1.1,0.2 -1.3,-0.5 -0.2,-0.5 0.1,-1 0.6,-1.4 0.8,-0.7 1.2,-1.6 1.5,-2.5 0.4,-1.1 0.1,-1.8 -1.1,-2.1 -0.8,-0.2 -1.6,-0.3 -2.3,-0.5 -1.3,-0.3 -2.2,-0.9 -2.4,-2.3 -0.2,-1.4 -0.8,-1.7 -2.1,-1.1 -0.7,0.3 -1.3,0.5 -2,0.7 -1,0.2 -1.3,0.8 -0.6,1.5 1.8,2 0.9,4.2 -0.9,5.3 -3.4,2.1 -4.6,5.4 -5.1,9 -0.1,0.9 -0.3,1.8 -0.5,2.7 -0.2,1 -0.8,1.7 -1.8,1.8 -1,0.1 -1.5,-0.6 -1.8,-1.4 -0.3,-0.6 -0.6,-1.1 -0.9,-1.7 -0.4,-0.7 -0.7,-1.5 -0.5,-2.4 0.4,-2.7 -0.5,-4.5 -3.2,-5.1 -3,-0.7 -3.9,-2.7 -2.8,-5.7 0,-0.1 0,-0.2 0.1,-0.4 -1.8,-0.7 -3.5,-0.2 -4.9,0.9 -1,0.8 -1.9,1.7 -2.9,2.6 -3,2.6 -5.7,2.1 -7.7,-1.3 -1.3,-2.3 -1.6,-2.3 -3.6,-0.5 -1.3,1.2 -2.1,2.7 -2.3,4.5 -0.2,2 -1.4,3.2 -3.1,3.5 -1.3,0.2 -2.4,-0.4 -2.7,-1.8 -1.1,-4.6 -0.5,-7.8 3.5,-11 1.8,-1.4 3.9,-2.4 5.6,-3.9 1,-0.9 2,-1.8 2.9,-2.8 0.6,-0.7 0.4,-1 -0.3,-1.4 -3.1,-1.8 -6.4,-1.2 -9.5,1.7 -0.6,0.5 -1.1,1.2 -1.8,1.6 -0.8,0.5 -1.5,0.3 -2,-0.5 -1,-1.7 -0.6,-3.9 0.8,-5.5 3,-3.2 6.6,-5.2 11,-5.7 2.3,-0.3 4.5,-0.8 6.6,-2 1.2,-0.8 2.3,-0.1 3.3,0.7 1.4,1.2 2.5,2.5 3.8,3.8 1.5,1.6 3.3,2.6 5.6,2.4 1.2,-0.1 1.8,-0.6 2,-1.8 0.6,-3.2 1.4,-6.3 2.6,-9.3 0.7,-1.9 1.6,-3.8 2.6,-5.5 0.6,-0.9 0.5,-1.6 -0.4,-2.2 -1,-0.7 -2,-1.5 -3,-2.2 -1.1,-0.7 -2.4,-1.2 -3.6,-0.8 -2.4,0.8 -4.6,0.1 -6.7,-1 -0.9,-0.4 -1.7,-0.5 -2.5,0.2 -0.6,0.6 -0.7,1.1 -0.1,1.7 0.1,0.1 0.2,0.2 0.3,0.4 1.1,1.8 2.1,3.6 1.2,5.7 -0.9,2 -2.9,2.6 -4.9,3.1 1.9,-3.6 1.8,-4.1 -1.3,-6.8 -1.1,-1 -2,-2 -2.8,-3.3 -0.9,-1.5 -1.7,-1.9 -3.5,-1.5 -1.4,0.3 -2.8,0.8 -4.3,0.6 -3.3,-0.4 -6.7,-3.2 -7.4,-6.2 -0.5,-1.9 0.5,-3.4 1.4,-4.9 0.4,-0.6 1.1,-0.6 1.9,-0.3 0.7,0.3 0.7,0.6 0.4,1.2 -0.9,1.5 -0.7,2.4 0.7,3.5 3,2.2 6.2,1.8 8.5,-1.1 1,-1.3 1.1,-2.8 0.8,-4.3 -0.4,-1.8 -1.1,-3.5 -1.9,-5.2 -1.3,-2.6 -2.7,-5.1 -3.4,-7.9 -0.1,-0.3 -0.1,-0.6 -0.6,-0.5 -1.4,0.4 -2.8,0.6 -4.2,1 -3.4,1 -6.3,2.9 -8.6,5.6 -1.2,1.4 -1.5,2.9 -0.7,4.6 0.5,1 0.8,2 -0.1,2.9 -0.7,0.7 -2.1,0.4 -3.2,-0.5 -0.5,-0.4 -1.1,-0.9 -1.6,-1.2 -1,-0.7 -1.8,-1.6 -2.3,-2.8 -1.4,-3.1 -3.7,-3.8 -6.6,-2 -5.3,3.4 -8.1,10.7 -6.3,16.7 0.9,2.9 2.7,5 5.4,6.5 0.8,0.5 2,0.8 1.9,2.1 -0.2,1.3 -1.4,1.4 -2.4,1.6 -2.3,0.6 -4.5,0.1 -6.5,-1.2 -0.5,-0.3 -0.9,-0.6 -1.4,-1 -0.8,-0.6 -1.4,-0.5 -1.8,0.5 -1.1,2.8 -2.8,5.1 -5.4,6.7 -0.7,0.5 -0.9,1.3 -0.4,2 0.8,1.2 1.5,2.5 3,3 0.4,0.1 1,0.3 0.9,0.8 -0.1,0.5 -0.7,0.4 -1.1,0.5 -3.2,0.8 -5.9,-0.1 -8.2,-2.5 -1.5,-1.6 -3,-3.3 -3.5,-5.5 -0.2,-0.9 -0.8,-1.1 -1.6,-0.7 -1.7,0.9 -3,1.8 -2.7,4 0.1,0.7 -0.3,1.3 -1,1.6 -0.7,0.3 -1.5,0.3 -2,-0.3 -1.1,-1.3 -2.6,-2.3 -3.4,-3.9 -0.3,-0.6 -0.7,-1.1 -1.5,-0.9 -0.8,0.2 -1.1,0.8 -1.2,1.5 -0.1,1.1 -0.1,2.2 0,3.2 0.1,2.8 -1.1,5.2 -3,7.1 -1.9,2 -4.4,1.7 -6.9,1.2 0,0 -0.1,0 -0.1,0 -0.6,-0.2 -1.5,0 -1.6,-0.7 -0.1,-0.7 0.5,-1.3 1,-1.8 0.4,-0.4 0.8,-0.8 1.3,-1 1.4,-0.8 1.8,-2 1.6,-3.5 -0.1,-0.6 -0.2,-1.2 -0.2,-1.8 -0.1,-1.3 -0.5,-1.7 -1.8,-1.4 -1,0.2 -2,0.3 -3,0.2 -2,-0.1 -3.1,-1.2 -3.4,-3.1 0,-0.2 -0.1,-0.5 -0.1,-0.7 -0.1,-0.9 -0.1,-1.9 -1.1,-2.2 -1.1,-0.4 -2,0.1 -2.9,0.7 -0.6,0.4 -0.7,1 -0.6,1.7 0.6,3.9 -0.5,5.9 -4,7.4 -2.4,1 -2.7,2.2 -1.2,4.3 0.5,0.7 1,1.4 1.9,1.7 0.5,0.1 1,0.3 1,0.9 0,0.6 -0.4,1.1 -1,1.3 -1.6,0.4 -3.1,0.6 -4.7,-0.1 -3.6,-1.5 -7.3,-6.2 -6.6,-10.2 0.3,-1.5 -0.2,-2.9 -1.7,-3.8 -0.9,-0.6 -0.8,-1.3 -0.1,-2 2.1,-2.3 4.2,-4.7 6.3,-7 0.3,-0.4 0.7,-0.8 0.8,-1.3 0.2,-1 -0.3,-1.6 -1.3,-1.5 -4,0.5 -7.6,-0.3 -10.9,-2.6 -0.8,-0.5 -1.6,-0.5 -2.3,0.2 -0.3,0.3 -0.6,0.6 -1,0.9 -1.1,0.9 -2,1 -3.2,0.2 -0.8,-0.6 -1.6,-1.3 -2.1,-2.2 -0.6,-1.1 -1,-1.1 -1.8,-0.2 -0.3,0.3 -0.5,0.5 -0.8,0.8 -1.3,1.4 -1.3,2.4 -0.3,4 0.5,0.7 1.3,1.5 0.4,2.4 -0.8,0.9 -1.9,0.7 -2.9,0.3 -2.9,-1.4 -4.3,-3.9 -4,-7.4 0.4,-4.8 2.6,-7.6 7.3,-8.6 1.4,-0.3 2.4,-0.9 3.4,-1.6 2.6,-1.8 5.3,-1.8 8,-0.3 1.1,0.6 2.2,1.3 3,2.2 1.6,1.7 3.6,2.2 5.8,2 0.6,0 1.2,0 2,0 -0.6,-1 -1.3,-1.6 -1.9,-2.2 -2.3,-2.4 -4.5,-5 -6.3,-7.8 -1,-1.5 -1.5,-3 0.1,-4.5 0.2,-0.2 0.4,-0.4 0.2,-0.7 -0.6,-1.3 -3,-1.7 -4,-0.7 -0.9,1 -1.9,1.8 -3.4,1.6 -1.6,-0.2 -2.1,-1.2 -1.3,-2.6 2.2,-4.1 6.1,-5.8 10.3,-6.9 0.6,-0.2 1.3,0.1 1.8,0.5 3.5,2.4 6.4,5.2 8.8,8.8 0.6,0.8 0.7,1.6 0.1,2.5 -0.5,0.8 -0.5,1.8 0.1,2.6 0.9,1.3 1.8,2.5 3,3.6 1.9,1.9 4.3,2.2 6.7,1.2 4.4,-1.7 8.9,-2.8 13.6,-3.1 1.5,-0.1 2.3,-1.1 3,-2.3 1.3,-2.3 1.6,-4.8 1.7,-7.4 0,-2 0,-4 0.4,-6 0.2,-1 -0.4,-0.6 -0.8,-0.5 -3.2,0.5 -6.3,0.6 -9.4,-0.4 -2.3,-0.7 -4.2,-1.8 -5.6,-4 2,-0.2 3.9,-0.4 5.7,-0.5 1.9,-0.2 3.9,-0.6 5.8,-1.1 2.5,-0.6 3.7,-2.7 4.7,-4.8 0.3,-0.7 -0.2,-1.2 -0.7,-1.6 -1,-0.6 -1.9,-1.2 -2.6,-2.1 -1.6,-1.7 -1.9,-3.6 -0.6,-5.7 1.8,-3 4.6,-3.9 7.8,-3.9 0.5,0 1,0 1.6,0.1 0.3,0 0.7,-0.2 0.8,0.3 0.1,0.4 0.1,0.8 -0.3,1.1 -0.4,0.3 -0.9,0.4 -1.4,0.7 -2,1.1 -2.4,2.5 -1.1,4.4 0.9,1.3 2.3,1.8 3.8,1.9 4,0.3 7.7,-0.7 11.1,-2.8 7.1,-4.4 14.9,-5.2 22.9,-4.5 5.8,0.5 11.4,2.4 17.1,3.5 0.5,0.1 1.1,0.2 1.6,0.4 1.3,0.3 2.5,0.5 3.8,-0.5 1,-0.8 2.4,-0.7 3.6,-0.3 1.6,0.6 3.1,1.2 4.7,1.8 0.9,0.4 1.4,0.1 1.6,-0.8 0.2,-0.9 -0.4,-1.4 -1.1,-1.3 -2.8,0.5 -4.4,-1.2 -6.2,-2.9 -2.9,-2.7 -6.6,-3.9 -10.5,-4.6 -6.1,-1.1 -12.2,-1.5 -18.3,-2.1 -6,-0.7 -12,-1.5 -17.9,-3 -1.3,-0.3 -2.3,-0.2 -3.2,0.8 -1.1,1.3 -2.7,1.8 -4.4,0.2 -0.6,-0.6 -1,-0.4 -1.5,0.3 -2.7,4 -7,5.6 -11.6,4.5 -0.9,-0.2 -1.2,-0.5 -1,-1.5 0.4,-1.5 -0.1,-1.9 -1.5,-1.4 -1.2,0.4 -2.4,0.3 -3.6,0.4 -3.1,0.2 -6.1,0.7 -9.2,0.1 -0.4,-0.1 -0.7,-0.1 -1,-0.2 -1.8,-0.8 -3.6,-1 -5.5,-0.4 -0.2,0.1 -0.5,0.1 -0.7,0 -2.4,-0.9 -4.7,-0.5 -7.1,-0.1 -1.3,0.2 -2.6,0.3 -4,0 0.6,2.1 1.9,3.4 3.8,4.1 2.2,0.8 4.5,1.4 6.8,1.9 1.2,0.2 2,0.8 2.4,2 0.4,1.6 1.2,3.1 1.6,4.8 0.5,2.5 -0.2,4.6 -2.1,6.3 -1.9,1.7 -4,2.7 -6.6,2.6 -1.2,0 -2.3,0.1 -3.5,0.2 -0.7,0 -1.4,-0.1 -2,-0.4 -1.2,-0.6 -1.4,-2 -0.3,-2.9 0.5,-0.5 1.2,-0.8 1.9,-1 1.7,-0.6 3,-1.8 4.1,-3.3 -0.9,-0.1 -1.6,0.5 -2.2,0.9 -1.3,0.7 -2,0.7 -3.1,-0.4 -0.6,-0.6 -1,-1.2 -1.3,-2 -0.8,-1.9 -2,-3.6 -3,-5.5 -0.7,-1.3 -1.8,-2.3 -3.1,-3.1 -3.6,-2.3 -7.5,-1.6 -10,1.9 -0.9,1.2 -1.4,2.6 -2.1,3.9 -1.4,2.5 -2.9,3 -5.6,2 -1.5,-0.6 -2.4,-0.1 -3.2,1.7 -0.7,1.4 -0.3,2.7 1,3.4 0.4,0.2 0.9,0.3 1.3,0.5 0.8,0.4 1.5,0.8 1.9,1.9 -2.2,-0.1 -4.3,0.1 -6.5,-0.1 -4.4,-0.3 -6.6,-6.7 -4.1,-9.8 1.2,-1.5 2.1,-3.1 2.6,-4.9 0.5,-1.9 2.2,-2.9 4.5,-2.9 3,0 5.4,-1.2 7.3,-3.4 0.7,-0.8 0.5,-1.1 -0.4,-1.4 -1.3,-0.5 -2.6,-0.6 -4,-0.9 -1.1,-0.2 -2.3,-0.4 -3.1,-1.2 -1,-1 -1.9,-0.7 -2.6,0.1 -2,2.4 -4.3,1.4 -5.8,-1 -0.9,-1.3 -1.1,-1.4 -2.2,-0.4 -1.9,1.8 -2.1,2.8 -0.6,5 0.4,0.6 0.8,1.2 0.4,1.9 -0.5,0.7 -1.2,0.8 -2,0.7 -2,-0.2 -4.5,-2.8 -5,-5.1 -1,-4.2 1.4,-8.7 5.6,-10.5 2.4,-1 4.8,-2 7.2,-3.3 2.4,-1.3 5,-0.6 7.1,1.7 1.9,2.1 4,4 6.8,5 0.5,0.2 1.1,0.3 1.7,0.5 0.1,-0.7 -0.2,-1.3 -0.4,-1.9 -1.2,-3.5 -3.3,-6.4 -5.5,-9.3 -0.2,-0.3 -0.5,-0.6 -0.7,-1 -1.1,-1.6 -1,-2.7 0.3,-4.1 0.7,-0.7 0.6,-1.1 -0.2,-1.7 -1.8,-1.2 -2.1,-1.2 -3.7,0.3 -0.7,0.7 -1.5,1.3 -2.5,1.5 -0.8,0.1 -1.5,0 -2,-0.7 -0.5,-0.7 -0.5,-1.4 -0.1,-2 1.9,-2.9 4.3,-5.2 7.7,-6.1 2.9,-0.8 5.4,0.2 7.7,2 1.9,1.5 3.5,3.4 4.8,5.4 1,1.5 1.2,3.2 0.3,4.8 -3.1,5.3 1.4,12.6 8.4,12.6 2.7,0 5.3,-0.3 8,-0.9 1.4,-0.3 1.8,-1 1.3,-2.4 -0.2,-0.6 -0.5,-1.2 -0.8,-1.7 -0.4,-0.8 -1,-1.7 -0.2,-2.5 0.9,-0.8 1.7,-0.2 2.5,0.3 2.2,1.4 4.6,2.4 7.2,2.9 4.1,0.9 8.1,0.5 12.2,-0.1 1.6,-0.3 3.2,-0.4 4.9,-0.4 0.3,-0.8 0.8,-0.8 1.5,-1.1 z"
   class="st1" />
		<path
   id="path17476"
   d="m 273.8,165 c 0.4,2.6 -0.4,4.7 -2.3,6.3 -2.9,2.5 -6.4,3 -10.1,2.9 2.1,-1.4 3.9,-3.4 6.8,-2.9 1.3,0.2 2,-0.5 2.3,-1.8 0.3,-2 1.8,-3.1 3.3,-4.5 z"
   class="st0" />
		<path
   id="path17478"
   d="m 271.5,164.9 c -0.4,-1 -0.6,-1.8 -0.1,-2.6 0.2,-0.4 0.6,-1 1.2,-0.5 0.6,0.4 0.7,1 0.2,1.5 -0.4,0.4 -0.9,0.7 -1.3,1.6 z"
   class="st1" />
		<path
   id="path17480"
   d="m 185.6,134.8 c 2,0.1 3.9,0.3 5.9,0 0.6,-0.1 1.2,-0.1 1.6,0.5 0.4,0.7 0.2,1.3 -0.2,1.9 -1.9,2.8 -7,3 -9.2,0.4 -1.2,-1.4 -1.2,-1.4 -2.9,-0.6 -1.6,0.8 -3.4,1.1 -5.1,1.6 -1,0.3 -2,0.7 -3.1,1.3 1.4,0.6 2.7,0.4 3.9,0 1.1,-0.4 2.2,-0.8 3.3,-1.1 1,-0.3 2.4,0.6 2.5,1.6 0.1,0.9 -1.1,1.5 -1.9,1 -0.8,-0.5 -1.6,-0.6 -2.6,0 1.4,0.7 2,2 2.6,3.3 0.2,0.3 0.3,0.6 0.5,0.9 0.5,0.7 0.8,0.7 1.3,-0.1 2,-3.4 5,-5.1 8.9,-5.3 2.7,-0.1 5.3,0.3 8.2,0.4 -1.3,-1.8 -3.2,-1.9 -5,-2.3 0.1,-0.5 0.4,-0.7 0.7,-1 0.6,-0.7 0.9,-1.5 0.4,-2.4 -0.3,-0.5 -0.2,-0.8 0.4,-0.9 3.4,-0.5 6.7,-1.8 10.1,-2.3 1.4,-0.2 2.9,-0.2 4.3,-0.1 2.4,0.1 8.5,-1 10.8,-2 -2.2,-0.4 -4.2,-0.2 -6.2,0.2 -1.8,0.3 -3.6,0.8 -5.4,0.7 -0.5,0 -1,0 -1.4,-0.1 -1.9,-0.3 -2,-0.4 -1,-2 0.3,-0.6 0.6,-1.1 0.9,-1.7 0.9,-1.6 2.2,-2.6 4.1,-2.9 7.7,-1.3 15.5,-1.9 23.4,-2.1 2.3,0 4.5,-0.3 6.8,0 1.8,0.2 3.3,0.9 4,2.8 0.7,1.9 0.4,3.6 -1,5.1 -1.4,1.5 -3,2.7 -5,3.2 -3.5,1 -6.9,2.4 -10.4,3.6 -4.4,1.6 -9,2.2 -13.8,2.1 -3.9,-0.1 -7.8,0 -11.8,0 -1.9,0 -3.3,0.7 -4.2,2.6 -1.1,2.5 -3.3,4.3 -5.1,6.6 1.6,-0.6 3,-1.1 4.6,-1.3 3.3,-0.5 6.6,-0.1 9.9,-0.3 1.3,-0.1 2.7,-0.2 4,-0.7 -4.5,0 -9.1,0 -13.8,0 1.3,-2.5 3,-4.1 5.5,-4.8 3.1,-0.9 6.3,-0.9 9.5,-0.6 7,0.6 13.6,3 20.1,5.6 2,0.8 3.7,1.9 5,3.6 0.9,1.1 1.4,2.4 0.7,3.8 -0.6,1.3 -1.8,1.5 -3.1,1.6 -2.9,0.1 -5.8,0.8 -8.6,1.4 -3.6,0.7 -7.1,0.1 -10.6,-0.4 -7.5,-1.2 -14.8,-3 -21.8,-6.3 -0.6,-0.3 -1.2,-0.6 -1.7,-0.9 -1.4,-0.7 -2.7,-1 -4.2,-0.2 -1.4,0.7 -3,0.5 -4.5,0.1 -1,-0.3 -2,-0.6 -3,-0.9 -1.3,-0.4 -2.5,-0.3 -3.7,0.5 -3,2.1 -6.1,1.5 -9.2,0 -0.5,-0.2 -0.5,-0.5 -0.2,-0.9 0.2,-0.3 0.3,-0.6 0.4,-0.8 0.9,-2 0.5,-3.2 -1.5,-4.3 0.2,1.2 0.6,2.4 0.2,3.7 -0.3,1 -1,1.5 -2.1,1.4 -2.9,-0.3 -3,-0.2 -3.4,2.9 3.5,-1.8 6.1,-1.2 8.7,1.8 0.9,1 0.9,1.8 -0.1,3 -0.4,0.5 -0.8,0.9 -1.2,1.3 -0.4,0.4 -0.7,0.8 -1.2,1.4 0.9,0 1.4,-0.5 1.9,-0.7 0.7,-0.3 1.4,-0.3 2,0.3 1.4,1.3 2.8,2.4 4.3,3.6 1.6,1.2 1.5,2.9 0,4.3 -2.5,2.3 -5.4,2.3 -7.7,-0.2 -2.2,-2.4 -3.6,-5.5 -5.1,-8.3 -0.4,-0.7 -0.8,-1.4 -1.1,-2.1 -0.6,-2.1 -2.4,-3.1 -4.1,-4.1 -1.2,-0.7 -2.4,-0.5 -3.6,0.9 -0.8,1 -1.4,1.2 -2.6,0.4 -1.2,-0.8 -2.5,-0.4 -3.7,0.3 -1.1,0.6 -2.1,1.4 -3.7,1.5 1.8,0.5 3.3,0.8 4.8,0 0.7,-0.4 1.4,-0.1 1.9,0.5 1.3,1.4 1.7,2.8 1.1,3.9 -0.9,1.6 -3.3,2.8 -4.9,2.4 -1.6,-0.4 -2.9,-1.2 -3.6,-2.7 -0.4,-0.8 -0.8,-1 -1.6,-0.5 -0.4,0.3 -0.9,0.5 -1.4,0.7 -1.1,0.6 -1.5,1.4 -1.2,2.7 0.6,-0.1 1,-0.5 1.5,-0.8 0.9,-0.6 1.6,-0.4 2.3,0.4 2.3,2.8 7.5,2.7 9.7,-0.2 0.8,-1.1 1,-2.3 0.9,-3.6 -0.2,-1.7 -0.2,-1.8 1.5,-2.2 0.4,-0.1 0.8,-0.2 1.1,-0.3 1.1,-0.3 4.2,2.4 4.1,3.5 -0.1,1 -0.8,1.7 -1.5,2.3 -0.3,0.2 -0.7,0.4 -0.9,0.9 3.3,-0.9 5.1,0.9 6.5,3.5 0.5,0.9 0.9,1.9 1.3,2.8 0.6,1.7 0.6,3.4 -0.4,5.3 1,-0.5 1.5,-1.2 2,-1.7 0.5,-0.6 0.8,-0.5 1.2,0.1 1.8,2.4 3.6,4.8 5.7,7 1.3,1.4 2.7,2.7 4.3,3.8 0.5,0.4 1,0.8 1.5,1.2 1.2,1.3 1.1,2.6 -0.3,3.7 -2.4,1.9 -5.2,2.3 -8.1,2 -6.1,-0.6 -10.9,-3.6 -14.8,-8.2 -1.1,-1.3 -1.6,-2.9 -1.6,-4.5 0,-1.5 0.6,-2.2 2.1,-2.5 3,-0.6 5.3,0.6 6.7,3.3 1.3,2.6 3.2,3.8 5.8,3.6 -0.7,-1.1 -1.3,-2.1 -2.3,-2.7 -1.2,-0.7 -2,-1.6 -2.5,-2.8 -0.7,-1.5 -1.7,-2.4 -3.4,-2.7 -2.8,-0.5 -3.6,-1.8 -3.3,-4.5 0.1,-1 -0.3,-1.6 -1.2,-2.1 -0.4,1.6 -0.8,3.3 -1.3,4.8 -0.9,2.6 -3.4,3.5 -5.8,2.1 -1.3,-0.8 -1.9,-2.2 -1.5,-3.7 0.1,-0.3 0.4,-0.7 0,-1 -0.4,-0.3 -0.9,-0.3 -1.4,-0.1 -0.4,0.2 -0.6,0.5 -0.5,1 0.2,0.8 0,1.5 -0.3,2.2 -0.3,0.8 -0.2,1.4 0.8,1.8 1.9,0.8 3.5,2.1 5.4,2.7 1.3,0.4 1.6,2.2 0.7,3.5 -0.6,0.9 -1.3,1.7 -2,2.5 -0.7,0.9 -1.6,1 -2.7,0.6 -3.2,-1.2 -4.3,-3 -3.9,-6.3 0.3,-2 -0.4,-3.3 -2.2,-4.2 -1,-0.5 -1.9,-1.2 -2.6,-2 -0.8,-0.9 -1.7,-1.8 -3.1,-1.9 -0.6,0 -0.5,-0.4 -0.3,-0.8 0.3,-0.6 0.8,-1.3 0.1,-1.8 -0.7,-0.6 -1.3,-0.1 -2,0.2 -0.9,0.6 -1.8,1.1 -1.6,2.5 0.4,2 0.9,2.7 2.6,2.9 1.3,0.2 2.6,0.4 3.8,0.9 2.4,1 3.1,2.8 1.9,5.1 -0.3,0.7 -0.8,1.3 -1.2,1.9 -0.1,0.2 -0.2,0.5 -0.1,0.8 0.2,0.3 0.4,0.1 0.7,0 1.3,-0.3 2.2,0.2 3,1.2 0.3,0.5 0.7,0.9 1.1,1.4 1.4,1.6 3.1,2 5.1,1.3 1.3,-0.4 2.6,-0.8 3.7,-1.6 0.7,-0.5 1.3,-0.5 1.9,0.2 2,2.5 4.8,4.1 7.7,5.3 2.5,1.1 4.8,2.8 7.5,3.3 2.6,0.5 5.2,0.4 7.8,-0.6 1.5,-0.6 2.8,-1.4 3.7,-2.9 0.3,-0.4 0.6,-0.9 0.9,-1.2 1,-1 2,-1.3 3.1,-0.4 2.5,2 5.4,2.8 8.3,3.8 4.2,1.4 7.4,4.3 10.4,7.5 4.7,4.9 8.8,10.2 12.5,15.9 1.5,2.2 3.2,4.3 5,6.3 8.4,9.1 24.8,8.1 32,-1.9 1.8,-2.6 3,-5.4 2.2,-8.5 -1.3,-5.2 -4.8,-7.2 -9.8,-7.1 -0.9,0 -1.7,0.1 -2.6,0.4 -2,0.6 -2.6,1.6 -2.3,3.7 0.1,0.6 0.3,1.1 0.2,1.8 -0.7,-0.5 -1.3,-1 -1.9,-1.6 -0.7,-0.8 -0.7,-1.6 -0.2,-2.4 2.1,-3.1 5,-5.3 9.2,-3.7 0.1,0.1 0.3,0.1 0.5,0.2 0.8,0.1 1.7,0.4 2.2,-0.3 0.3,-0.4 -0.3,-1.1 -0.5,-1.6 -1.8,-4.3 -3.7,-8.6 -4.7,-13.3 -2.4,-12.4 0.1,-23.7 7.2,-34 2.4,-3.5 5.3,-6.5 7.8,-9.9 3.7,-4.9 6,-10.3 5.9,-16.6 0,-1.2 -0.1,-2.4 -0.3,-3.6 -0.6,-4 -5.6,-5.8 -8,-3.2 -0.5,0.6 -1.3,1 -2.1,0.2 -0.7,-0.8 -0.5,-1.6 0.1,-2.3 0.7,-0.8 1.6,-1.1 2.7,-1.2 2.4,-0.1 4.6,0.3 6.8,1.3 2.1,1 3.2,2.9 3.6,5 1.1,5.9 1.3,11.9 0.1,17.9 -0.7,3.4 -2.7,6.1 -5.6,8.1 -0.2,0.2 -0.4,0.3 -0.7,0.5 0.8,0.8 1.6,0.7 2.4,0.1 0.1,0 0.1,-0.1 0.2,-0.2 0.5,-0.4 1.1,-1.2 1.7,-0.6 0.5,0.4 0.3,1.3 0.1,2 -0.1,0.5 -0.5,1 -0.9,1.3 -2.3,1.6 -4.2,3.8 -7.1,4.4 -1,0.2 -2.1,2.9 -1.8,3.9 0.2,0.6 0.7,0.6 1.3,0.6 1.4,-0.1 2.9,-0.1 4.3,0.3 1,0.3 1.9,0.8 2.7,1.8 -0.9,0 -1.5,0.3 -1.8,1 -0.3,0.6 -0.6,0.1 -0.9,0 -2.9,-1.4 -6.1,-0.4 -7.9,2.5 1.1,-0.3 2.1,-0.6 3.1,-0.8 2.1,-0.4 3.8,0.3 5.1,2.1 0.3,0.4 0.5,0.7 0.8,1 0.3,0.5 0.3,1 0,1.4 -0.4,0.4 -0.9,0.3 -1.3,0 -0.3,-0.2 -0.6,-0.5 -0.9,-0.8 -1.4,-1.4 -2.9,-1.7 -4.6,-0.8 -2.8,1.4 -5.4,3 -6,6.4 -0.5,2.8 -0.4,5.6 -0.1,8.5 0.8,6.6 3,12.8 5.3,19 1.5,4.1 2.4,8.3 2.3,12.6 -0.1,3.5 -1.4,6.4 -4.3,8.4 -0.8,0.6 -1.2,1.2 -1.3,2.2 1.4,-0.2 2.7,-0.5 4,-0.1 2.4,0.6 4.7,3.2 5,5.6 0.2,1.7 -0.9,3.3 -2.6,3.8 0.3,-0.8 0.7,-1.5 0.9,-2.3 0.4,-1.5 -0.2,-2.5 -1.7,-2.7 -5.2,-0.7 -10.4,-1.1 -15.4,1 -9.5,4 -17.8,1.3 -25.5,-4.6 -4.3,-3.3 -6.8,-8 -8.3,-13.1 -1.2,-4.2 -3.4,-7.6 -7.1,-10 -1.3,-0.9 -2.3,-2.2 -3.5,-3.3 -0.7,-0.6 -1.5,-1.2 -2.4,-1.6 -0.2,-0.1 -0.6,-0.3 -0.8,-0.1 -0.3,0.2 -0.2,0.6 -0.1,0.9 0.1,0.4 0.3,0.6 0.6,0.9 2.2,2.1 4.3,4.1 6.7,6 2.9,2.3 3.9,5.4 4.1,9 0.1,1.9 0,3.8 0,5.8 0,3.8 1.2,6.9 5,8.5 -3.3,1.9 -7.7,-0.1 -8.6,-3.9 -0.5,-2.4 -0.3,-4.8 -0.2,-7.2 0,-1.7 -0.1,-3.4 -1.3,-4.7 -0.4,-0.4 -0.8,-1.1 -1.5,-0.6 -0.6,0.5 -0.4,1.1 0.1,1.6 1.2,1.5 1.3,3.2 1.1,5 -0.3,2.1 -0.2,4.2 0.2,6.2 0.4,2.1 1.4,3.9 2.9,5.4 1.9,1.8 1.9,3.7 0.2,5.6 -0.4,0.5 -0.8,0.6 -1.3,0.1 -0.3,-0.3 -0.6,-0.6 -0.9,-0.9 -0.4,-0.3 -0.7,-0.7 -1.2,-0.7 -0.5,0 -1.1,-0.1 -1.3,0.3 -0.2,0.3 0.4,0.6 0.6,0.9 1.6,1.6 3.5,1.7 5.5,1.1 1.4,-0.4 2.6,-0.2 3.8,0.3 1.6,0.6 3.3,1.2 5.4,0.8 -1.9,1.4 -3.8,1.7 -5.6,2.2 -0.2,0.2 -0.4,0.3 -0.5,0.3 0.1,0 0.4,0 0.7,0.1 2.9,0.2 5.4,1.5 7.9,3 1.7,1 3.3,2.1 5.1,2.9 2.2,1 4.4,1.5 6.9,1.2 0.2,0 0.5,-0.2 0.6,0.1 0.1,0.3 -0.1,0.4 -0.3,0.6 -1.5,1.5 -3.3,2.3 -5.3,2.8 -1.4,0.4 -2.8,0.5 -4.3,1.3 3.3,1 5.6,2.9 7.9,5 2.2,2 4.5,4.1 7.5,5.2 -2.1,1.2 -4.1,1.4 -6.3,0.8 -1.8,-0.5 -3.5,-1.3 -5.2,-2.1 -1.6,-0.8 -3.3,-1.5 -5.1,-1.5 0.1,1.4 1,2 2.1,2.4 0.9,0.3 1.8,0.6 2.6,1.2 1.5,1.2 2,2.6 1.5,4.5 -2.7,-2.5 -6.6,-2.8 -9.4,-5.2 0,1.8 1.1,3.3 2.8,4 0.7,0.3 1.5,0.4 2.3,0.7 2.2,0.9 3.1,2.5 2.9,4.8 -0.1,1 -0.2,2 -0.2,3 0,2.9 1.5,5 4.2,6.1 0.3,0.1 0.7,0.3 1,0.4 0.4,0.2 0.7,0.4 0.6,0.9 -0.1,0.4 -0.5,0.2 -0.8,0.3 -4.1,0.1 -5.8,-0.9 -7.2,-4.8 -0.5,-1.3 -0.9,-2.7 -1.4,-4.1 -0.6,-1.5 -1.8,-2.1 -3.2,-1.9 1.6,1.4 1.9,3.3 2.1,5.2 0.3,2.5 0.9,4.9 3.5,6.2 -1.6,0.2 -2.7,-0.2 -3.8,-1.5 -0.8,-0.9 -1.5,-1.8 -2.3,-2.7 -0.3,-0.4 -0.8,-0.7 -1.4,-0.8 0.7,1.6 1.1,3.3 2.4,4.6 0.9,0.9 0.7,1.7 -0.3,2.5 -1.4,1.1 -2.7,1.1 -4,0 -0.4,-0.3 -0.7,-0.7 -0.7,-1.3 0,-0.3 0.1,-0.7 -0.3,-0.8 -0.4,-0.1 -0.8,0.1 -1.1,0.4 -0.3,0.3 -0.4,0.6 -0.2,1 0.2,0.5 0.6,0.9 1.1,1.3 0.9,0.7 1.8,1.3 2.7,2 2.3,1.7 3.6,3.9 3.8,6.9 -0.7,-0.2 -1.2,-0.4 -1.8,-0.5 -1.3,-0.3 -2.4,0 -3.3,0.9 -0.3,0.3 -0.5,0.5 -0.8,0.8 -0.6,0.5 -1.2,0.8 -2,0.5 -0.7,-0.3 -1.1,-0.9 -1.1,-1.7 -0.1,-1 0,-1.9 -0.2,-2.9 -0.3,-1.6 -1.2,-2.7 -2.6,-3.6 -0.2,-0.1 -0.5,-0.4 -0.7,-0.2 -0.2,0.2 -0.2,0.5 -0.2,0.8 0,0.7 0.5,1.1 0.9,1.6 0.5,0.6 0.4,1.1 -0.3,1.6 -2.5,1.6 -5.1,2.4 -7.8,0.5 -0.2,-0.1 -0.4,-0.2 -0.7,-0.1 0.6,2.1 1.3,4.2 2.6,6.1 0.4,0.6 0.4,1.3 -0.1,1.9 -0.7,1 -1.3,1 -2,0 -1.1,-1.6 -2.8,-1.6 -4.5,-1.4 -1,0.1 -2,0.5 -2.9,1 -1.4,0.7 -1.6,1.3 -0.9,2.7 0.2,0.4 0.4,0.8 0.6,1.1 -0.3,0.2 -0.4,0.1 -0.6,0 -3.4,-1.3 -3.9,-2.5 -2,-5.6 1,-1.6 2.2,-3.1 3.8,-4.1 0.5,-0.3 0.6,-0.6 0.3,-1.1 -0.4,-0.6 -0.9,-1.2 -1.7,-0.9 -0.6,0.2 -1,0.7 -1.4,1.1 -1.7,2.2 -4,3.5 -6.8,3.7 -3,0.3 -5.5,1.5 -6.8,4.4 -0.2,0.5 -0.7,0.7 -1.3,0.6 -0.8,-0.1 -1.4,-0.5 -1.7,-1.2 -0.3,-0.6 0.1,-1 0.4,-1.4 2.4,-2.6 2.4,-2.7 -0.2,-5.2 -0.3,-0.2 -0.5,-0.5 -0.7,-0.8 -1.5,-1.6 -1.4,-2.1 0.4,-3.4 0.7,-0.5 1.2,-0.1 1.8,0.1 4.8,2.2 10.4,1.2 14.3,-2.3 2.2,-2.1 3.3,-4.7 3.8,-7.7 0.6,-3.4 1.4,-6.7 3,-9.8 0.8,-1.4 1.7,-2.7 2.8,-3.9 0.9,-1 0.8,-1.2 -0.4,-1.7 -4,-1.5 -6.6,-4.3 -7.6,-8.5 -0.1,-0.4 -0.2,-0.9 -0.7,-1 0.3,-0.7 0.9,-0.3 1.3,-0.2 2.2,0.6 4.3,1.5 6.4,2.5 1.7,0.8 3.3,1.6 4.9,2.5 0.3,0.2 0.6,0.4 1,0.5 0.4,0.2 0.9,0.4 1.1,-0.1 0.3,-0.5 -0.2,-0.8 -0.6,-1 -2.2,-1.2 -4.3,-2.6 -6.6,-3.6 -2.5,-1.1 -5,-1.2 -7.6,-0.8 -0.5,-0.2 -0.9,-0.7 -1.2,-1.2 -0.2,-0.4 -0.4,-0.8 -0.7,-1.1 -0.4,-0.7 -0.8,-1.3 -1.7,-0.7 -1,0.7 -0.3,1.3 0.2,1.9 0.8,0.9 1.8,1.7 2.3,2.9 0.1,0.3 0.3,0.7 0.4,1 0.4,0.9 0.2,1.8 -0.5,2.5 -0.7,0.7 -1.5,0.8 -2.4,0.5 -1.9,-0.7 -3.8,-1.5 -5.9,-1.5 -0.5,0 -1,0 -1.6,0 0,-0.9 0.6,-1.5 0.9,-2.3 0.1,-0.4 0.4,-0.8 0.1,-1.1 -0.3,-0.3 -0.6,0.2 -0.9,0.3 -2.7,1.7 -3.4,3.7 -2.1,6.6 0.4,1 1,1.9 1.4,2.9 0.2,0.4 0.6,0.7 0.3,1.3 -1.9,-1.6 -3.9,-3.1 -5.1,-5.3 -1.3,-2.4 -0.9,-4.8 0.2,-7.2 -0.6,0 -0.8,0.5 -1,0.7 -0.5,0.6 -1,1.2 -1.4,1.8 -1.6,2.1 -3.6,2.9 -6.2,2.4 -2.6,-0.5 -5.2,-1 -6.7,-3.6 0,-0.1 -0.2,-0.2 0,-0.3 0.5,-0.1 0.7,0.4 1,0.7 2.3,2.2 5,2.2 7.8,1.2 2.7,-1 4.4,-2.9 4.5,-5.9 0.2,-3.4 -0.5,-6.6 -2.3,-9.5 -1.3,-2.1 -2.4,-4.2 -2.8,-6.7 -0.5,-3.7 0.4,-7.1 1.9,-10.3 0.7,-1.5 1.6,-3 2.4,-4.5 1,-1.7 2.3,-2.7 4.4,-2.7 1.3,0 1.7,-0.5 1.4,-1.9 -0.1,-0.4 -0.3,-0.8 -0.3,-1.2 0.1,-2.6 -1,-4.8 -2.3,-6.9 -1.2,-1.9 -2.1,-3.9 -2.3,-6.1 -0.1,-1 0,-1.9 0.2,-2.8 -0.1,-0.1 -0.2,-0.1 -0.2,-0.1 -2,0.6 -2.2,0.5 -2.8,-1.6 -0.2,-0.8 -0.4,-1.6 -1.4,-1.8 -0.6,-0.1 -0.2,-0.4 -0.2,-0.7 0.1,-0.5 0.7,-1 -0.2,-1.4 -0.7,-0.3 -1.7,0.3 -1.9,1.1 -0.1,0.5 0.1,1 0.4,1.5 0.2,0.3 0.4,0.5 0.1,0.8 -0.2,0.2 -0.4,0.3 -0.6,0.2 -0.3,-0.1 -0.6,-0.3 -0.6,-0.7 0,-0.2 0,-0.4 0,-0.6 0,-1.9 -0.5,-2.3 -2.2,-1.6 -0.6,0.3 -1.6,0 -1.7,1.1 -0.1,1.2 0.6,1.8 1.6,2.3 4.3,2.3 6.6,6.3 9.3,10.1 -1.3,-0.4 -2.6,-0.6 -3.3,-2 -0.8,-1.5 -2,-2.5 -3.5,-3.2 -7.9,-3.7 -16.2,-5.8 -25,-5.3 -0.5,0 -1,0.1 -1.6,0 -0.9,0 -1.5,-0.5 -1.8,-1.3 -0.3,-0.6 -0.4,-1.1 0.6,-1.1 1.2,0.1 2.3,0 3.5,0 0,0 0.1,0 0.2,-0.1 -1.6,-1 -3.1,-2 -4.6,-3.1 -1.5,-1 -2.7,-2.4 -3.6,-4.1 -1.9,2.9 1,5.1 0.8,7.8 -5.1,-2.8 -9.2,-6.8 -13.9,-10 0.3,4 1.6,7.3 5.5,9 -1.3,0.1 -2.5,-0.2 -3.6,-0.6 -1.2,-0.4 -2.4,-0.9 -3.6,-1.4 -3.9,-1.7 -4.8,-5.6 -2.2,-9 0.4,-0.6 0.8,-1.2 1.2,-1.8 0.1,-0.2 0.2,-0.5 0.3,-1 -1.4,0.5 -2.7,0.9 -4,1.4 -0.9,0.4 -1.4,1 -0.9,2.1 0.4,1.1 0.2,2.1 -0.4,3.1 -0.3,0.4 -0.5,0.8 -0.8,1.2 -0.5,0.8 -0.5,1.5 0.5,1.9 1.1,0.5 2.1,1.2 3,2 1,0.8 0.9,1.6 -0.2,2.8 -0.9,0.9 -1.3,1 -2.3,0 -0.2,-0.2 -0.4,-0.4 -0.6,-0.6 -1,-0.9 -1.8,-0.8 -2.5,0.5 -0.2,0.3 -0.3,0.7 -0.5,1.1 -1.6,3 -4.9,4.6 -8.3,3.9 -0.6,-0.1 -0.5,-0.4 -0.4,-0.7 0.2,-1.1 0.7,-2 1.3,-2.9 0.9,-1.4 2,-2.7 2.7,-4.2 0.4,-0.9 0.7,-1.8 0.6,-3 -1.4,0.5 -2.2,1.5 -2.9,2.6 -1.2,1.8 -2.7,3.2 -4.6,4.3 -1.4,0.8 -2.9,0.7 -4.4,0.1 3.1,-0.7 4.1,-3.8 6.2,-5.7 -0.5,-0.3 -0.9,-0.5 -1.3,0.1 -1.3,1.9 -3.3,3 -5.4,3.9 -2.4,1 -4.9,1.8 -7.1,3.4 -1.1,0.8 -2.8,0 -3.1,-1.4 -0.1,-0.5 0.2,-0.9 0.5,-1.1 0.7,-0.5 1.2,-1.2 2.1,-1.5 0.5,-0.1 0.8,-0.5 0.8,-1 -0.1,-0.6 -0.7,-0.4 -1.1,-0.4 -0.9,-0.1 -1.9,-0.1 -2.9,-0.2 0.3,-0.5 0.7,-0.7 1.1,-1 1.6,-1 1.6,-2.8 -0.1,-3.8 -0.5,-0.3 -1,-0.5 -1.6,-0.5 -0.8,0 -1.6,-0.2 -2.3,-0.5 -0.5,-0.2 -1,-0.4 -1.6,-0.4 -2.4,0.2 -3,-0.3 -3.1,-2.9 1.1,0.3 2.1,0.8 3.1,1.3 1.4,0.7 2.9,1.1 4.5,1 3.2,-0.1 6.4,0.4 9.6,0 2.5,-0.3 5,-0.4 7.5,-0.2 2.4,0.2 3.5,-0.9 3.8,-3.5 0.1,-0.7 0.3,-1.1 1,-1.4 0.6,-0.3 1.3,-0.7 0.8,-1.6 -0.5,-0.9 -1.2,-0.6 -1.9,-0.3 -0.6,0.3 -1.1,0.6 -1.7,0.9 -0.7,0.4 -1.3,0.5 -1.9,-0.2 -0.6,-0.8 -0.7,-1.5 -0.1,-2.3 1,-1.3 2,-2.6 2.9,-3.9 0.2,-0.2 0.3,-0.5 0.5,-0.7 -0.8,-0.2 -1.4,0.1 -1.9,0.6 -0.6,0.5 -1.2,1.1 -1.8,1.6 -0.9,0.7 -1.3,0.5 -1.6,-0.6 -0.6,-2.3 -0.6,-4.6 -0.1,-6.9 0.9,-4.5 3.3,-8.1 6.6,-11.1 1.6,-1.5 3.3,-2.8 4.5,-4.6 0.1,-0.2 0.4,-0.3 0.2,-0.7 -0.8,0 -1.4,0.4 -1.9,0.9 -0.8,0.8 -1.7,1.4 -2.7,2 -7,4.1 -11,13 -9.3,20.7 0.2,0.8 0.6,1.6 1,2.3 0.5,0.8 0.2,1.4 -0.6,1.7 -0.1,0 -0.1,0.1 -0.2,0.1 -3.3,1.1 -4,0.7 -4.8,-2.7 -0.5,-2 -0.3,-3.9 0.5,-5.8 2.9,-6.4 6.8,-12.2 10.6,-18 0.2,-0.4 0.5,-0.7 0.7,-1.1 -1.2,-0.1 -2.7,0.7 -3.9,1.9 -1.2,1.2 -1.9,2.8 -2.6,4.3 -0.7,1.5 -1.3,3 -2.6,4.3 0.1,-1.8 0.6,-3.2 1.3,-4.5 1.3,-2.4 2.7,-4.8 4,-7.2 0.4,-0.8 0.8,-1.5 1,-2.6 -1.4,0.8 -2.4,1.8 -3.3,2.8 -2.9,3.2 -4.5,7 -4.7,11.3 -0.2,2.7 -1,5.2 -2.4,7.6 -1.4,2.4 -2.9,4.8 -3.3,7.6 -0.1,0.6 -0.5,1 -1.1,0.9 -0.8,-0.1 -1.4,-0.6 -1.5,-1.4 -0.3,-4.6 -0.6,-9.3 2.9,-13.1 1.8,-2 3.2,-4.4 4.8,-6.6 -1.2,-0.5 -1.9,-0.2 -2.4,0.8 -0.2,0.4 -0.2,1.2 -1,0.9 -0.8,-0.3 -0.4,-0.9 -0.4,-1.5 0.2,-3.1 1.5,-5.9 3.3,-8.5 -1.9,0.6 -2.9,2.3 -4.4,3.4 0.7,-2.4 2.4,-4.3 2.4,-6.9 -3.1,1.8 -4.3,5.8 -2.7,9 0.4,0.7 0.3,1.3 0.1,2 -0.9,3 -2.4,5.8 -3.5,8.8 -0.7,1.8 -1.1,3.7 -0.8,5.6 0.1,0.6 0,1.1 -0.7,1.1 -0.7,0 -1.4,-0.3 -1.3,-1.1 0.3,-2.3 -0.2,-4.6 -0.3,-6.9 -0.1,-3.8 1.3,-7.3 2.3,-10.8 1.1,-3.9 3,-7.3 6.2,-10 1.6,-1.4 1.8,-3.3 0.8,-5.6 -0.5,0.9 -0.9,1.7 -1.4,2.5 -1.1,1.9 -2.2,3.8 -3.9,5.3 -2.1,2 -4.6,2.8 -7.5,3 0.7,-1 1.4,-1.9 2,-2.8 2.1,-3.1 3.4,-6.6 5,-9.9 1.3,-2.8 3,-5.4 5,-7.9 1.7,-2.2 4.1,-3.1 6.6,-3.9 2.1,-0.6 4.2,-1 6.2,-2.1 -0.7,-0.6 -1.4,-0.5 -2.1,-0.5 -0.4,0 -0.9,0.1 -1.1,-0.2 -0.2,-0.4 0.3,-0.7 0.5,-1 0.5,-0.5 0.9,-1 0.2,-1.8 -2.9,4.2 -7.9,4.5 -11.8,6.7 -0.3,-0.4 0,-0.6 0.2,-0.8 1.4,-1.8 2.7,-3.7 4.3,-5.3 1.8,-1.8 4,-3 6.5,-3.5 2.7,-0.6 5.4,-1.3 8.2,-1.9 0.3,-0.1 0.7,-0.2 1,-0.4 0.3,-0.2 0.7,-0.4 0.1,-0.8 -0.6,-0.4 -0.6,-1.1 -0.6,-1.8 0,-0.9 -0.5,-1 -1.1,-0.6 -0.3,0.2 -0.6,0.3 -0.8,0.6 -1.4,1.9 -3.4,2.4 -5.5,2.7 -1.5,0.2 -3.1,0.5 -4.5,1.1 -1.4,0.6 -2.9,0.1 -4.2,-1.3 1.5,-0.1 3,-0.3 4.5,-0.7 3.3,-0.9 5.9,-2.8 8.3,-5.3 1.5,-1.6 3.4,-2.8 5.7,-3.1 1.2,-0.2 2.3,0.1 3.4,0.5 0.2,0.1 0.4,0.1 0.4,0.4 0,0.3 -0.3,0.4 -0.5,0.4 -0.5,-0.1 -1,-0.1 -0.9,0.6 0.1,0.8 0.7,0.9 1.3,0.8 1.9,-0.4 3.5,-1.5 5.1,-2.7 -1.4,-1.1 -3,-1.5 -4.6,-1.5 -1.9,0 -3.8,0.1 -5.8,0.1 -1.3,0 -2.5,-0.2 -3.8,-0.9 5.4,-1.1 10.7,-2.2 15.9,-3.2 3.4,-0.7 6.8,0.1 9.5,2.5 0.2,0.2 0.3,0.5 0.7,0.3 0.3,-0.2 0.5,-0.5 0.4,-0.8 -0.1,-0.9 0.4,-1.4 1.2,-1.7 0.8,-0.3 1.3,-1 1,-1.8 -0.3,-1 -0.7,-2 -1.8,-2.4 -0.4,-0.1 -0.8,0 -1.1,0.4 -0.3,0.3 -0.5,0.6 -0.7,0.9 -1.3,1.9 -2.3,2 -3.9,0.3 -0.7,-0.8 -1.5,-1.1 -2.5,-1.2 -4,-0.5 -8,-0.5 -12,-0.6 -2.2,0 -4.4,-0.1 -6.6,-0.1 -2.8,0 -4.5,-1.3 -5.6,-3.8 0.3,-0.2 0.4,0 0.5,0.1 2.4,1.7 5.1,1.9 7.8,0.9 3.4,-1.3 6.6,-1.5 10.1,0 2,0.9 4.4,0.7 6.6,0.5 1.9,-0.3 3.1,-1.7 3.6,-3.6 0.4,-1.7 -0.6,-2.7 -1.8,-3.7 -1.9,-1.5 -4.1,-2 -6.4,-2 -2,0 -4.1,0.2 -6.1,0.1 -4,-0.2 -7,-2.1 -9.4,-5.3 -0.5,-0.6 -0.9,-1.2 -1.3,-1.9 -3.3,-4.4 -7.3,-3.3 -10.2,-0.4 -0.2,0.2 -0.3,0.4 -0.4,0.6 -0.5,0.6 -0.9,1.4 -1.8,0.9 -1,-0.5 -1.2,-1.3 -1,-2.3 0.3,-1.5 1.1,-2.7 2,-3.9 1.8,-2.2 4.2,-3.6 6.7,-4.7 0.9,-0.4 1.9,-0.8 2.8,-1.2 0.8,-0.4 1.4,-0.2 1.9,0.4 1.8,2.1 4.1,3.2 6.8,3.8 0.8,0.2 1.1,0.3 0.9,1.4 -0.5,2.5 0.4,4.6 2.3,6.3 1.2,1.1 2.8,1.7 4.3,2.3 2.4,0.9 4.8,1.7 7.1,2.9 1.7,1 3.3,2.1 4.5,3.7 1.2,1.6 1.2,2.9 0.1,4.5 -0.2,0.3 -0.4,0.5 -0.6,0.8 -0.2,0.4 -0.3,0.8 0.1,1.1 0.3,0.3 0.6,-0.1 0.8,-0.3 2.9,-2 2.8,-6 -0.2,-8.4 -2.3,-1.8 -4.7,-3.3 -7.3,-4.6 -0.6,-0.3 -1.2,-0.5 -1.8,-0.8 0.6,-0.5 1.1,-0.9 1.6,-1.3 1.4,-1.1 2,-2.7 2.4,-4.4 0,-0.2 0,-0.3 -0.2,-0.3 -0.1,-0.1 -0.1,-0.1 -0.1,-0.2 0,-0.1 0,-0.1 0.1,-0.1 0.8,0 1.4,0.4 2.1,0.7 2,0.8 4.1,1.1 6.2,1.4 -2.7,-1.9 -5.7,-3.1 -8.8,-4 -3.7,-1.1 -7.5,-1.4 -11.3,-2.2 -2.9,-0.6 -5.6,-1.8 -7.6,-4 -0.9,-0.9 -0.8,-1.2 0.2,-1.9 1.3,-0.9 2.8,-1 4.3,-1.3 5.7,-1 11.2,-0.3 16.7,1.1 3.8,0.9 7.6,2 11.3,3 2.8,0.8 3.1,1.9 1,3.8 -1.5,1.4 -2.8,3 -4,4.6 -0.4,0.6 -0.3,0.9 0.1,1.3 0.5,0.4 0.9,0.3 1.3,-0.2 0.8,-1 1.7,-1.9 2.7,-2.8 2.1,-1.9 3.8,-4.1 5.4,-6.4 3.4,-5.3 8.1,-8.8 14,-11 3.7,-1.4 7.4,-2.9 11,-4.3 2,-0.8 3.8,-1.9 5.7,-3 0.3,0.6 -0.1,0.9 -0.3,1.3 -2.1,3.8 -3.6,7.7 -4.7,11.8 -1.8,6.4 -6.1,10.7 -11.8,13.9 -4.2,2.3 -8.7,3.6 -13.2,5 -1.4,0.4 -2.7,1.2 -4.2,1.2 -0.4,0 -0.8,0.2 -0.9,0.7 -0.1,0.6 0.1,1.2 0.7,1.6 1.1,0.7 2.3,1.4 3.7,1.2 1.4,-0.2 2.4,-0.1 2.9,1.5 0.1,0.4 0.5,0.8 1,0.8 0.6,0 0.9,-0.4 1.1,-0.8 0.5,-1 0.3,-2.1 -0.3,-3 -0.6,-0.8 -1.4,-0.5 -2.2,-0.3 -0.5,0.1 -1.1,0.4 -1.7,-0.1 1,-0.6 2.1,-0.9 3.1,-1 0.7,-0.1 1.2,0.4 1.5,1 2.1,4.1 4.2,8.2 4.7,12.8 0.1,1.2 0,2.4 -0.1,3.6 -0.1,0.6 -0.3,0.8 -0.9,0.5 -1,-0.6 -1.7,-1.5 -2.2,-2.5 -0.5,-1.1 -1,-2.2 -1.9,-3.2 -0.3,1.9 0.1,3.6 0.8,5.3 0.7,1.6 1.7,3 2.8,4.3 2,2.5 2,4 0.1,6.9 -2,-5.4 -5.1,-9.4 -11.2,-10.1 0.7,0.5 1.3,1.1 2,1.6 2.1,1.6 3.1,3.6 3,6.3 -0.1,1.6 -0.1,3.2 0.2,4.8 0.2,1 0.7,1.9 1.1,2.9 -2.1,0 -3.8,-1.4 -4.2,-3.7 -0.2,-0.9 -0.2,-1.8 -0.3,-2.7 -0.2,-2 -1.6,-3.5 -3.3,-3.7 0.1,0.5 0.6,0.9 0.9,1.3 1.1,1.5 0.8,3.2 -0.6,4.3 -0.4,0.3 -0.9,0.4 -1.3,0.1 -0.3,-0.2 -0.7,-0.4 -1.1,-0.5 -0.4,-0.1 -0.8,0 -0.4,0.6 0.8,1.2 1.1,2.7 1.4,4.1 0.9,3.7 1.1,4 5,6.4 -2.1,0.2 -3.9,0.3 -5.7,-0.7 -1.6,-0.9 -2.9,-2.4 -4.4,-3.7 -0.1,0.9 0.3,1.6 0.4,2.2 0.4,1.8 0.3,2 -1.5,2 -0.2,0 -0.4,0 -0.9,0 2.5,2.9 4.8,5.7 8.3,7.2 -3.9,0.7 -7.6,-0.2 -11.2,-1.2 0.1,1.7 0.9,2.4 2.7,2.2 0.6,-0.1 1.3,-0.1 1.9,0.1 0.6,0.2 1,0.5 1,1.1 0,2.7 1,5.1 1.8,7.5 0.6,1.8 0.8,3.6 0.8,5.4 0,5.4 1.9,7.6 7.3,8.3 0.2,0 0.5,0.1 0.8,0.1 -0.6,1.2 -1.5,1.8 -2.5,2.3 -1.4,0.7 -1.5,1.7 -0.4,2.6 0.6,0.5 1.2,0.5 1.7,-0.1 3.3,-3.8 7.8,-5.8 12.1,-7.9 3,-1.4 5.8,-3 8.2,-5.3 3.4,-3.2 4.7,-7.3 5.3,-11.8 0.6,-4.4 0.6,-8.9 1.4,-13.2 1.3,-6.7 3.5,-13 8.2,-18.2 2.7,-3 6.1,-5.1 9.4,-7.4 8.3,-5.7 16.9,-10.7 25.2,-16.3 8.7,-5.9 17.4,-11.8 25,-19.1 0.8,-0.8 1.7,-1.6 2.5,-2.4 0.2,1.8 -1.1,4.9 -2.8,6.8 -1.8,2.1 -3.8,4 -6,5.7 -7.5,5.6 -15,11.2 -22.5,16.7 -2.9,2.1 -6.1,3.6 -9.7,4.1 -1.2,0.2 -1.5,1.3 -2.2,2.1 -0.3,0.7 -1,0.5 -1.5,0.7 -0.8,0.3 -1.6,0.6 -2.1,1.5 1.5,0.2 2.1,-1.1 3,-1.7 0.3,-0.2 0.8,-0.1 1.1,-0.3 1.3,-0.2 2.4,-0.9 3.5,-1.5 1.5,-0.9 3.2,-1.2 4.9,-1.2 0.5,0 0.8,0.2 1.1,0.6 0.3,0.5 -0.1,0.7 -0.4,1 -0.2,0.1 -0.3,0.3 -0.4,0.4 -2,3.7 -5.2,6.4 -8.1,9.3 -0.1,0.1 -0.2,0.3 -0.4,0.5 v 0 c -2.5,0.4 -4.9,1.6 -7.5,1.9 -0.4,0 -1,0.2 -1.2,-0.2 -0.2,-0.4 -0.2,-0.9 0.2,-1.4 0.9,-1.4 0.4,-2.3 -1.3,-2.3 -0.5,0 -1,0 -1.5,0.2 -0.4,0.1 -0.6,0.4 -0.3,0.7 1.1,1.3 -0.2,2.2 -0.7,3.1 -0.2,0.4 -0.7,0.6 -1.1,0.9 -0.5,0.5 -1.1,0.9 -0.5,1.7 0.5,0.7 1.2,0.7 1.9,0.2 1,-0.6 1.9,-1.1 2.9,-1.6 1,-0.5 1.9,-0.5 2.9,-0.4 1.1,0.1 1.5,1.2 0.8,2.3 -0.9,1.5 -1.8,3 -3.5,3.9 -1.3,0.7 -2.2,1.6 -2.4,3.4 1.5,-0.8 3,-1.5 4.4,-2.2 1.6,-0.8 2.9,-0.3 4.2,0.7 0.6,0.4 0.8,0.9 0.2,1.6 -0.8,1.1 -0.4,3.3 0.8,3.9 0.4,0.2 0.6,-0.3 0.8,-0.5 2.2,-2.1 4.5,-3.9 7.6,-4.6 2,-0.5 3.5,-0.1 4.5,1.4 0.9,1.2 0.9,1.9 0,3.2 -2,2.8 -4.5,5.1 -7.9,6.1 -1.6,0.5 -3.2,1.2 -4.7,2 -4,2 -7.5,1.3 -10.7,-1.8 -0.5,-0.5 -0.3,-0.7 0.1,-1 1.1,-0.8 2.5,-1.1 3.8,-1.4 0.9,-0.2 1.8,-0.4 2.6,-0.8 1.1,-0.4 2,-1.1 2.5,-2.6 -2.6,1.6 -5.3,1.8 -7.9,2.6 -1.1,0.3 -2.1,1 -3.1,1.5 -1.3,0.7 -1.9,0.6 -2.7,-0.6 0,-0.1 -0.1,-0.1 -0.1,-0.2 -1.7,-2.5 -1.7,-2.6 0.9,-4 1.4,-0.7 2,-2.3 1.5,-3.9 -0.5,-1.6 -1.5,-2.1 -3.6,-1.8 0.5,0.6 0.9,1.1 1.3,1.7 0.8,1.2 0.6,1.9 -0.6,2.7 -0.6,0.4 -1.3,0.7 -1.9,1.1 -1.2,0.8 -1.4,1.8 -0.8,3.1 0.3,0.6 0.7,1.1 1,1.6 0.8,1.1 1.1,2.3 0.4,3.6 -0.7,1.3 -1.8,2 -3.3,2.1 -0.3,0 -0.6,0 -1,0 -0.5,0 -1.1,-0.1 -1.1,0.6 0,0.6 0.6,0.7 1,0.8 1.3,0.4 2.4,-0.1 3.4,-0.8 1.2,-0.8 2.3,-1.8 3.6,-2.4 2.3,-1 4.4,-0.5 5.8,1.6 0.2,0.3 0.4,0.5 -0.1,0.7 -1.3,0.6 -2,1.8 -2.9,2.8 -0.9,1 -1.9,1.7 -3.2,1.9 -1.1,0.1 -1.5,1.1 -1.8,1.9 -0.5,1.2 -1.2,1.9 -2.8,1.4 0.8,1 1.8,1.4 2.7,1.7 1.2,0.5 1.2,0.7 0.7,1.9 -0.4,0.9 -0.2,1.8 0.1,2.7 0.2,0.5 0.8,0.5 1.3,0.4 0.5,-0.1 0.5,-0.4 0.5,-0.8 -0.1,-1.3 0.8,-2.2 1.7,-2.6 1.2,-0.5 1.6,-1.4 1.9,-2.5 -0.6,-0.5 -1.3,-0.3 -1.9,0 -1,0.5 -1.6,-0.1 -2.2,-0.7 -0.1,-0.1 -0.2,-0.3 -0.2,-0.4 0.1,-1.2 1.9,-2.1 2.9,-1.4 0.5,0.3 1,0.7 1.5,1 0.4,0.3 0.7,0.4 1.1,0.1 0.4,-0.4 0.6,-0.7 0.3,-1.2 -1.3,-2.7 -1,-3.5 1.8,-4.5 2.1,-0.8 4.3,-1.2 6.3,-2.2 0.8,-0.4 1.6,-0.3 2.5,-0.1 2.2,0.5 4.2,1.4 5.8,3.1 1.4,1.5 1.4,3 0.1,4.5 -1.9,2.3 -4.4,3.6 -7.4,4 -3.6,0.4 -7.1,1.6 -10.7,2.2 -0.4,0.1 -0.9,0.1 -1.3,0.2 0.9,0.1 1.3,0.1 1.5,0.2 z"
   class="st2" />
		<path
   id="path17482"
   d="m 92.4,223.2 c 3.5,-0.6 6.9,-1.5 10,-3.5 1.2,-0.8 2.4,-1.6 3.2,-2.7 1.2,-1.6 2.8,-2.4 4.7,-2.9 0.7,-0.2 1.4,-0.5 2.1,-0.8 -1.6,-0.3 -3.2,-0.4 -4.7,0 -2.7,0.7 -4.8,-0.3 -6.5,-2.4 -1.1,-1.4 -1.1,-2.6 -0.1,-4.1 0.2,-0.3 0.4,-0.6 0.7,-0.8 0.6,-0.7 1.2,-1.4 1.8,-2.1 0.1,0.1 0.2,0.2 0.4,0.2 0,0.3 0,0.7 -0.1,1 -1,4.4 1.3,6.3 5,7 4.1,0.8 8,0.1 11.7,-1.9 2.8,-1.5 5.5,-3.1 8.5,-4.1 3.5,-1.2 6.9,-0.8 10,1.2 6.2,4 10.8,9.5 14,16.2 0.7,1.5 1.7,2.9 2.6,4.3 1.1,1.7 1.9,3.5 2.3,5.5 0.2,1.1 -0.1,1.9 -1.1,2.4 -0.8,0.5 -1.6,1 -2.4,1.5 -2,1.2 -2.9,2.9 -2.9,5.1 0,1 -0.1,1.9 -0.2,3.1 -1.8,-1.3 -3.4,-2.5 -3.3,-4.8 0,-2 1.3,-3.7 2.1,-5.6 -1.4,0.4 -2.5,1.1 -3.6,2 -0.6,0.5 -1.1,1 -1.8,1.4 -0.8,0.6 -1.7,0.4 -2.4,-0.3 -0.7,-0.7 -0.6,-1.5 -0.2,-2.2 0.3,-0.6 0.7,-1 1.1,-1.5 -1.5,-1 -3.2,-0.5 -3.8,1.2 -0.2,0.5 -0.3,1 -0.3,1.5 -0.2,1.8 -1,3.1 -2.5,4.2 -2,1.4 -3.7,3.1 -5,5.1 -2.9,4.5 -2.7,9.4 0.4,13.9 1.2,1.8 2.7,3.3 4.3,4.6 0.4,0.3 0.7,0.6 1,1.2 -2.3,0.3 -4.2,-0.4 -5.8,-1.9 -2.6,-2.4 -3.6,-5.6 -4.1,-8.9 -0.1,-0.5 -0.2,-1.1 -0.3,-1.7 -1.2,0.9 -1.6,1.9 -1.3,3.2 0.2,0.8 0.5,1.5 0.8,2.3 0.9,2.2 0.8,4.4 -0.2,6.5 -1,2 -2.5,3.7 -3.7,5.6 -0.4,0.6 -0.9,0.6 -1.4,0.2 -0.6,-0.4 -0.9,-1.1 -0.4,-1.7 1.2,-1.4 1.9,-3.3 3.1,-4.7 0.6,-0.7 0.6,-1.4 -0.2,-1.9 -0.4,-0.3 -0.9,-0.3 -1.1,0.2 -1.1,2 -2.4,3.8 -3,5.9 -0.7,2.2 -0.4,4.2 1,6.1 0.2,0.3 0.6,0.5 0.4,0.9 -5.3,-2.2 -6.6,-9.5 -2.4,-13.4 0.3,-0.3 0.6,-0.6 0.9,-0.8 2.5,-1.3 2.9,-3.4 2.2,-5.9 -0.6,-0.7 -0.2,0.4 -0.4,0.2 -0.3,1.2 -1.1,2 -2,2.7 -0.9,0.7 -1.9,1.4 -2.7,2.1 -0.9,0.8 -1.4,1.7 -1.6,2.9 -0.2,1.6 -1.2,2.8 -2.3,3.8 -0.9,0.7 -1.7,1.4 -2.6,2.1 -1.2,1 -2.3,2.2 -2.9,3.8 -2.3,-1.5 -2.3,-3.1 -0.1,-4.5 1.5,-0.9 2.1,-2.4 2.8,-3.8 0.3,-0.6 -0.1,-1.1 -0.6,-1.4 -0.6,-0.3 -1,-0.1 -1.3,0.4 -0.6,1 -1.4,1.9 -2.2,2.7 -1.9,1.8 -3.7,2 -5.9,0.5 -1.7,-1.1 -3.2,-2.6 -4.5,-4.1 -0.5,-0.6 -1.1,-1.2 -1.6,-1.8 -0.8,1.4 -0.7,2.4 0.4,3.4 1.1,1 2.3,1.9 3.6,2.5 1.1,0.6 1.9,1.4 2.2,2.7 0.1,0.5 0,0.9 -0.6,0.7 -3.1,-0.5 -6.2,0 -9.2,0.9 -2.6,0.7 -3.6,-0.1 -4,-2.7 -0.1,-1 -0.2,-2 -0.3,-3 -0.1,-0.7 -0.5,-1 -1.2,-0.7 -0.6,0.2 -1.1,0.4 -1.7,0.6 -2,0.6 -3.1,-0.2 -3.2,-2.2 -0.1,-0.9 0,-1.9 -0.9,-2.8 -0.4,3.5 -0.8,6.9 -1.2,10.2 -0.1,0.6 -0.1,1.2 -0.2,1.8 -0.2,1.6 -0.5,1.8 -2,1.2 -1.4,-0.5 -2.7,-1.2 -4,-1.8 -1.3,-0.6 -2.6,-0.8 -4,-0.3 -0.8,0.3 -1.4,-0.1 -1.8,-0.7 -0.5,-0.7 0.3,-0.8 0.6,-1.2 1.9,-2.5 3.8,-4.9 5.7,-7.4 0.7,-1 1.4,-1.9 2.2,-2.9 0.7,-0.8 0.3,-1.1 -0.5,-1.4 -0.1,0 -0.2,0 -0.4,0 -1.8,-0.2 -1.8,-0.2 -0.7,-1.7 0.2,-0.4 0.5,-0.7 0,-1.2 -0.8,1 -1.9,1.5 -2.6,2.5 -0.2,0.3 -0.5,0.7 -1,0.6 -0.4,-0.1 -0.5,-0.6 -0.6,-1 -0.4,-1.4 -0.4,-1.4 -1.4,-0.5 -1.3,1.1 -2.6,1.3 -4.2,0.4 -1.1,-0.7 -2.2,-1.5 -3.3,-2.1 -2.1,-1.2 -2.9,-1 -4.6,0.8 -0.4,0.5 -0.9,1 -1.6,0.6 -1,-0.4 -1.4,-1.4 -0.6,-2.2 1.8,-1.9 1.1,-4.1 0.7,-6.2 -0.1,-0.5 -0.7,-1 0,-1.3 0.8,-0.4 1.5,-1.5 2.7,-0.7 1,0.7 2,1.4 2.9,2.1 5.4,4.5 11.2,5 17.4,1.9 7,-3.5 14.4,-5.4 22.2,-6.5 1.9,-0.3 2.1,-0.1 2.6,1.7 0.5,1.8 1.3,3.5 1.4,5.4 0,1.3 1.1,1.8 2.7,1.9 0.8,0.2 0.8,0.2 1,-0.3 -0.2,-0.2 -0.3,-0.4 -0.5,-0.5 -0.7,-0.5 -1.1,-1.2 -0.7,-1.9 0.3,-0.7 1,-0.3 1.6,-0.2 0.5,0.1 1,0.2 1.5,-0.3 -0.9,-0.7 -1.8,-1.3 -2.6,-2 -2.3,-2 -2.9,-4.5 -2.3,-7.4 0.4,-1.9 1.3,-3.7 2.1,-5.5 0.3,-0.8 0.6,-0.6 1.1,-0.1 2.1,2.1 4.2,4.1 6.6,5.7 1.6,1.1 3.4,1.9 5.3,2.3 0.3,0.1 0.6,0.3 0.8,-0.1 0.2,-0.3 0,-0.7 -0.2,-1 -0.3,-0.4 -0.8,-0.5 -1.2,-0.7 -3.6,-1.2 -4.8,-3.6 -3.4,-7.2 0,-0.1 0.1,-0.1 0.1,-0.2 0.2,-0.7 0.8,-1.4 0,-1.9 -0.9,-0.6 -1.2,0.3 -1.7,0.8 -0.5,0.5 -1,1 -1.4,1.4 -0.7,0.7 -1.4,1 -2.3,0.4 -1,-0.7 -1.4,-1.7 -0.9,-2.7 0.7,-1.3 1.5,-2.5 2.6,-3.6 0.8,-0.7 1.7,-1.4 1.8,-2.6 -1.8,-0.1 -3,0.9 -4.1,2.1 -0.8,0.8 -1.5,1.7 -2.4,2.3 -0.5,0.3 -1.2,0.8 -1.6,0.5 -0.5,-0.3 -0.1,-1.1 0,-1.6 0.5,-2.3 1.9,-3.9 4,-5 0.6,-0.3 1.2,-0.5 1.8,-0.8 -1.2,-1 -2.6,-1.1 -3.9,-0.7 -0.6,0.2 -1.3,0.4 -1.9,0.8 -2.7,1.8 -5.6,1.8 -8.6,1.1 -1,-0.3 -2.1,-0.4 -3.2,-0.6 -1.1,-0.5 -0.6,-0.3 -0.5,-0.4 z"
   class="st2" />
		<path
   id="path17484"
   d="m 147.8,139.6 c 0,1 0.8,1.3 1.5,1.7 1.6,0.8 1.7,1.3 0.4,2.5 -1.2,1.3 -2.8,1.5 -4.4,1.3 -2.1,-0.3 -3.8,-1.3 -5.2,-3 -0.5,-0.7 -1,-1.4 -0.9,-2.3 0.1,-3.9 -1.2,-7.5 -2.3,-11.1 -0.4,-1.2 -0.8,-2.4 -0.9,-3.8 1.6,0 3.2,0 4.7,0 1,0 1.9,-0.2 2,-1.4 0.1,-0.9 -0.7,-2.2 -1.6,-2.2 -3.4,0 -4.8,-2.5 -6.4,-4.9 2.1,0.3 3.9,1.2 5.9,1.5 1.5,0.3 3,0.2 4.3,-0.7 1.2,-0.8 1.2,-1.5 0,-2.4 -0.4,-0.3 -0.8,-0.6 -1.2,-0.7 -3.3,-1.1 -3.8,-5.3 -2.4,-7.7 0.9,0.9 1.2,2.2 1.8,3.2 1,1.6 2.7,2.4 4.5,2.1 1.6,-0.3 2.3,-1.6 1.4,-2.9 -1.2,-1.8 -1.5,-3.7 -1.4,-5.8 0,-1.2 0.1,-2.4 -0.1,-3.7 0.9,0.6 1.3,1.5 1.6,2.4 0.5,1.4 1.2,2.6 2.2,3.7 1,1.2 2.1,1 3,-0.3 1.1,-1.7 1.1,-3.5 0.8,-5.3 -0.4,-2.8 -0.6,-5.6 0.6,-8.2 0.4,-1 0.3,-2 0.3,-3 0.3,-0.1 0.4,0.1 0.5,0.2 1.7,1.3 2.3,1.3 3.9,-0.1 0.4,-0.4 0.9,-0.7 1.4,-0.9 0.7,-0.2 1.3,-0.2 1.8,0.2 0.6,0.5 0.3,1.1 0.1,1.6 -0.1,0.3 -0.3,0.7 -0.1,1 1.8,-0.4 2.7,-2.1 1.9,-3.7 -0.4,-0.9 -1.2,-1 -2,-0.9 -1.7,0.2 -3,0.9 -4.3,1.9 -0.8,0.7 -1.6,0.4 -2,-0.5 -0.2,-0.4 -0.2,-0.7 0.2,-1 1.7,-1.1 2.9,-2.9 4.4,-4.2 4.9,-4.6 10.4,-8.4 16.1,-11.8 9.5,-5.5 18.1,-12.2 25.9,-20 1.1,-1.1 2.2,-2.2 3.4,-3.3 0.2,-0.2 0.4,-0.6 1,-0.5 -1.3,2.5 -2.8,4.9 -4.5,7.1 -2.5,3.2 -5.3,5.9 -8.7,8.2 -4,2.7 -7.6,5.8 -11.9,8 -1.3,0.7 -2.6,1.2 -3.9,1.8 2.8,2.1 2.8,2.6 -0.1,4.4 0.9,0.4 1.7,0.2 2.6,-0.1 1.2,-0.4 2.3,-0.9 3.6,-1 0.5,0 1,0 1.5,0.2 0.8,0.3 1.1,1 1.2,1.8 0,0.8 -0.6,0.9 -1.2,1.1 -0.4,0.1 -0.8,0.3 -1,0.8 -0.5,1 -1.4,1.4 -2.4,1.5 -1.2,0.1 -2.2,0.6 -3.3,1 -0.3,0.1 -0.7,0.3 -0.6,0.8 0.1,0.4 0.3,0.6 0.8,0.7 0.7,0.1 1.2,-0.2 1.7,-0.7 1.6,-1.4 3.5,-1.4 5.2,-0.3 1.2,0.8 1.2,1.9 -0.1,2.6 -0.8,0.5 -1.4,1.2 -2,1.9 -1.3,1.2 -2.4,1.5 -3.7,0.4 -1.9,-1.5 -3.7,-1.2 -5.6,-0.1 -0.7,0.4 -1.4,0.8 -2.1,1.2 -0.4,0.2 -0.7,0.5 -0.7,1 0,0.9 -0.6,0.8 -1.2,0.6 -0.9,-0.4 -2.2,-3.4 -1.9,-4.4 0.2,-0.6 0.7,-0.8 1.2,-0.9 1.5,-0.5 3,-1 4.4,-1.8 3.1,-1.8 2.9,-4.8 1.8,-7.3 -0.3,-0.8 -1,-1.1 -1.9,-1 -1.2,0.2 -2.3,0.7 -3.6,1.5 1.5,0.2 2.6,0.3 4,0.5 -1.8,2.8 -4.1,4.3 -7.7,3.5 0.6,0.7 1.2,0.8 1.6,0.9 0.9,0.2 1.1,0.7 0.8,1.5 -0.4,1.2 -1.1,2.3 -2.4,2.9 -1.3,0.6 -1.4,0.9 -0.4,2 0.8,0.8 1.1,1.7 0.4,2.7 -0.3,0.4 -0.2,0.7 0.2,1 0.7,0.6 1.6,0.9 2.5,0.7 1,-0.2 1.8,0.1 2.2,1.2 0.3,0.9 0.1,1.5 -0.7,1.9 -0.1,0.1 -0.3,0.1 -0.4,0.2 -0.3,0.3 -1,0.4 -0.7,0.9 0.3,0.4 0.8,0.2 1.2,-0.1 0.1,0 0.1,-0.1 0.2,-0.1 0.5,-0.3 1,-0.6 1.6,-0.2 0.2,0.2 0.2,0.3 0.1,0.5 -0.3,0.6 -0.8,0.9 -1.4,1 -0.8,0.1 -1.9,-0.2 -2.3,0.2 -0.6,0.6 0.5,1.3 0.6,2.1 0.2,1.2 0,2.3 -0.4,3.4 -2.3,6 -3,12.4 -3.8,18.7 -0.3,2.6 -0.6,5.2 -0.9,7.9 -0.1,1.1 -0.6,2.2 -1.4,3 -0.8,0.8 -1.7,1.1 -3,0.5 1.6,-0.7 2.5,-2.1 3.3,-3.5 0.2,-0.4 0.4,-0.9 0.3,-1.4 -0.3,-1.7 -1.8,-2.4 -3.1,-3.1 -1,-0.6 -1.9,0.1 -2.7,0.8 -0.3,0.3 -0.6,0.7 -0.9,1.1 -0.4,0.5 -0.8,0.9 -1.5,0.8 -0.7,-0.9 -0.2,-1.7 0.2,-2.6 0.1,-0.3 0.4,-0.5 0.6,-0.7 1.5,-1.6 1.4,-2.9 -0.2,-4.4 -1.7,-1.5 -3.2,-1.4 -4.5,0.2 -0.7,0.8 -1.3,1.8 -1.9,2.6 -0.2,0.3 -0.5,0.7 -1,0.6 -0.5,-0.1 -0.7,-0.5 -0.8,-0.9 -0.3,-1.4 0,-2.7 0.8,-3.9 0.5,-0.8 1.3,-1.6 0.7,-2.6 -0.6,-1.3 -1.6,-2.2 -3,-2.6 -0.4,-0.1 -0.9,-0.1 -1.2,0.3 -0.2,0.2 -0.4,0.5 -0.2,0.8 0.1,0.3 0.4,0.3 0.6,0.2 0.6,-0.1 1.2,-0.1 1.7,0.3 1,0.7 1.3,1.9 0.6,2.9 -0.7,1 -1.5,2.1 -2.7,2.6 -0.2,0.1 -0.5,0.2 -0.5,0.7 0.8,0.3 1.7,0.3 2.3,1 0.5,0.7 0.9,1.4 1.4,2.1 0.8,1.2 0.9,1.1 1.6,-0.1 0.7,-1.3 1.7,-2.5 2.6,-3.7 0.6,-0.8 1.4,-0.7 2.2,-0.3 1,0.6 1.4,1.6 1.1,2.5 -0.5,1.3 -1.4,2.2 -2.6,2.9 -1,0.5 -1.9,1 -2.9,1.5 -0.4,0.2 -0.7,0.4 -1,0.6 -0.4,0.4 -0.4,0.8 -0.2,1.2 0.1,0.2 0.2,0.6 0.5,0.6 0.4,0 0.5,-0.5 0.7,-0.7 0.3,-0.4 0.5,-0.8 0.8,-1.2 1.2,-1.5 2.8,-1.5 4.1,0.1 0.3,1.5 -0.5,2.8 -0.7,4.3 0,0.2 -0.1,0.5 0.3,0.3 1.2,-1.7 2.7,-3.1 3.7,-5 0.5,-1 1.2,-1 2.6,-0.2 0.9,0.5 1.3,1.2 0.7,2.1 -0.5,0.8 -0.8,1.7 -1.6,2.3 -0.6,0.5 -1.3,0.9 -2.2,0.4 -0.2,-0.2 -0.4,-0.6 -0.8,-0.2 -0.3,0.3 -0.4,0.7 -0.1,1.1 0.3,0.4 0.6,0.6 1,0.8 0.4,0.2 0.7,0.3 1.1,0.5 1.4,0.6 1.8,1.2 1.4,2.1 -0.6,1.4 -1.6,1.9 -3,1.5 -4.9,-1.2 -9.2,-3.5 -13.1,-7.2 0.3,1.3 0.9,2 1.5,2.7 1.5,1.7 3.5,2.8 5.5,3.8 1.3,0.6 2.6,1.3 4,1.9 0.9,0.4 0.8,0.7 0.2,1.3 -1.5,1.5 -3.3,1.8 -5.3,1.2 -1.3,-0.4 -2.5,-1.1 -3.7,-1.5 -0.7,0 -1.2,-0.4 -1.7,-0.9 -0.6,-0.6 -1.2,-1.2 -2.1,-1.3 0.6,1.3 1.8,2.1 3.2,2.5 z"
   class="st2" />
		<path
   id="path17486"
   d="m 198.9,94.6 c 0.3,0.3 0.7,0.1 1,0 3,-0.8 5.4,-2.4 7,-5.2 0.3,-0.4 0.5,-0.9 0.9,-1.3 1.3,-1.4 2.1,-2.9 2.3,-4.9 0.3,-2.4 1.9,-4 3.8,-5.2 6.3,-4 12.1,-8.6 18.3,-12.6 6.9,-4.5 12.6,-10.4 18.7,-15.9 5.2,-4.7 10.3,-9.5 15.5,-14.3 0.7,-0.7 1.5,-1.7 2.7,-1 1.2,0.7 0.8,1.9 0.5,2.9 -2,8.1 -5.9,15.2 -11.2,21.6 -7.4,9.1 -16.1,16.7 -25.3,24 -4.2,3.4 -8.4,6.8 -13,9.7 -2.1,1.3 -4.3,2.5 -6.4,3.7 -2.2,1.2 -4.3,1.1 -6.2,-0.5 -1.2,-1 -2.5,-0.3 -3.8,-0.2 1.6,0.4 3.1,1 4.1,2.4 0.5,0.6 0.5,1 0,1.6 -1,1.1 -1.8,2.3 -2.7,3.5 -1,1.2 -2.3,2.1 -3.8,2.6 -0.3,0.1 -0.6,0.2 -0.9,0.4 -1.5,0.8 -1.5,0.8 -2.1,-0.7 -0.1,-0.3 -0.2,-0.4 -0.5,-0.5 -0.3,-0.1 -0.5,-0.3 -0.7,-0.4 -2.8,-2.2 -2.8,-3.5 0,-5.6 0.8,-0.6 1.1,-1.2 1.1,-2.1 0,-1 0.2,-1.5 0.7,-2 0,0 0,0 0,0 z"
   class="st2" />
		<path
   id="path17488"
   d="m 53.2,88.5 c -0.1,-0.6 -0.1,-1.2 -0.3,-1.7 -0.8,-3.5 -3.1,-4.9 -6.6,-3.9 -0.9,0.3 -1.8,0.7 -2.7,0.9 -1.7,0.5 -2.6,0.1 -3.3,-1.4 -1,-2.1 -0.9,-3 0.7,-4.1 1.1,-0.7 1.6,-1.9 2.4,-2.8 1.6,-1.8 2.3,-2 4.2,-0.4 2.1,1.6 4.1,3.3 6.1,5 0.7,0.6 1.2,1 1.8,0 0.6,-0.9 0,-1.4 -0.7,-1.8 -1.7,-0.9 -3.1,-2.1 -3.4,-4.1 -0.3,-1.6 0,-3.1 0.3,-4.6 0.3,-1.6 0.6,-3.2 0.2,-4.9 -0.1,-0.6 0.1,-1.1 0.7,-1.4 0.3,-0.2 0.6,-0.3 0.9,-0.6 1.1,-0.8 1.1,-1.6 0,-2.4 -0.5,-0.4 -1,-0.6 -1.5,-1 -1.1,-0.9 -1.2,-2.1 -0.4,-3.1 0.8,-1 1.8,-1 2.9,0 1.5,1.3 1.7,1.3 3.3,0 0.7,-0.6 1.5,-0.9 2.4,-0.4 0.9,0.5 1.2,1.3 1,2.3 -0.2,1.5 -0.8,2.9 -1.4,4.2 -1,2.3 -1.2,4.6 -0.9,7 0.1,0.8 0.7,0.9 1.3,0.8 0.4,0 0.9,-0.2 1.1,-0.6 1.9,-2.4 4.5,-4.2 6.8,-6.2 1.7,-1.5 3.1,-3.1 4.1,-5.3 0.1,0.8 0.2,1.5 0.4,2.2 0.4,1.7 1.3,2.8 3,3.5 0.6,0.2 1.7,0.1 1.6,1.2 -0.1,0.9 -1.3,2.2 -2.2,2.3 -0.7,0.1 -1.4,0 -2,0.1 -3.7,0.3 -6.7,1.7 -8.6,5 -1.2,2 -1.8,4.2 -2.2,6.5 -1,5.9 0,11.6 1.5,17.3 1.2,4.3 2.6,8.5 3.6,12.9 0.3,1.3 0.3,2.6 -0.4,3.8 -0.6,1 -0.5,2.2 -0.5,3.3 0,1.2 0.1,2.3 -0.3,3.6 -1.4,-1.2 -2.8,-2.3 -3.7,-4 -0.9,-1.8 -1.2,-1.9 -3.1,-1.2 -0.8,0.3 -1.2,-0.1 -1.7,-0.5 -0.9,-1 -1.3,-2.2 -1.3,-3.5 0.3,-5.4 -0.9,-10.6 -2.9,-15.9 -3,4.9 -5.2,9.9 -4.7,15.9 -1,-0.5 -1.8,-1 -2.6,-1.4 -1.4,-0.8 -2.9,-1.5 -4.5,-1.9 -1,-0.2 -1.9,-0.6 -2.2,-1.8 -0.3,-1.2 0.2,-2.1 1.3,-2.8 1.1,-0.6 1.7,0 2.2,0.9 0.4,0.7 1.1,0.9 1.6,1.4 0.3,0.3 0.6,0.1 0.8,-0.2 0.4,-0.5 0.5,-1 0.3,-1.6 -0.2,-0.9 -0.6,-1.6 -1.1,-2.4 -0.5,-0.8 -0.7,-1.6 -0.2,-2.5 1.9,-3.5 3.5,-7.1 5.6,-10.4 0.9,-1.3 0.9,-1.3 1.9,-0.2 0.5,0.4 0.8,0.8 1.4,0.9 z"
   class="st2" />
		<path
   id="path17490"
   d="m 210.4,101.6 c -0.8,0.7 -1.6,0.3 -2.6,0 1.1,-1.6 2.5,-2.5 4.1,-3.3 2.6,-1.2 5.1,-2.5 7.6,-4 8.4,-5.1 16.1,-11.3 23.4,-17.8 1.7,-1.5 3.3,-3 5,-4.5 0.8,-0.7 1.7,-1.3 2.7,-1.8 6.1,-2.6 11.3,-6.6 16.2,-11.1 0.3,-0.3 0.6,-0.6 1,-0.9 0.7,-0.6 1.4,-0.8 2.2,-0.2 0.8,0.5 1.2,1.2 1,2.2 -0.2,0.9 -0.7,1.6 -1.2,2.3 -7.7,11.1 -16.8,20.7 -27.7,28.7 -7.9,5.8 -15.8,11.6 -24.5,16.3 -1.4,0.8 -2.8,1.5 -4.3,2.2 -0.1,0.1 -0.2,0.1 -0.4,0.1 0.2,-1.3 0.2,-2.5 -0.7,-3.6 -0.8,-1 -2,-1.4 -3.1,-1.9 -0.6,-0.3 -1.7,-0.3 -1.6,-0.9 0.1,-0.7 1.1,-0.5 1.8,-0.6 0.7,0 1.3,-0.3 1.1,-1.2 0.5,-0.1 1,0 1.5,0 1.4,-0.1 2.4,-1 3.1,-2.1 -1.1,0.3 -2.1,0.8 -3.1,1.5 -0.5,0.2 -0.9,0.5 -1.5,0.6 z"
   class="st2" />
		<path
   id="path17492"
   d="m 216.6,113.4 c -1.3,-0.1 -2.4,0.5 -3.5,0.6 -1.1,0.2 -2.3,0.2 -3.5,-0.3 3,-1.3 5.7,-2.9 8.6,-4.1 7.7,-3.4 14.4,-8.5 21.2,-13.3 4,-2.9 8.3,-5.4 13,-7 1.9,-0.7 3.6,-1.9 5.3,-3 1.5,-1 2.7,-0.9 3.7,0.1 0.6,0.6 0.7,1.2 0.3,1.8 -2.2,3.2 -4,6.7 -6.4,9.8 -7,8.9 -16.1,14.9 -26.5,19.1 -6.5,2.6 -13.3,4.3 -20,6.5 -1,0.3 -1.7,0.6 -2.1,-0.7 -0.4,-1 -1.6,-1.4 -2.5,-1.9 -0.9,-0.5 -1.8,-0.9 -2.5,-1.8 3.4,-1 6.5,-2.9 10,-3.3 1,-0.1 2.1,-0.1 3,-0.5 0.7,-0.6 1.4,-1.1 1.9,-2 z"
   class="st2" />
		<path
   id="path17494"
   d="m 239.7,30.8 c 0.8,2.6 0.3,4.8 -1.4,6.8 -3.6,4.2 -6.9,8.6 -10.1,13.1 -1.7,2.4 -3.5,4.8 -5,7.3 -3.6,6 -8.7,10.5 -14.6,14.3 -4.7,3 -9.4,6 -13.9,9.3 -0.5,0.4 -1,0.8 -1.5,1.2 -1.1,0.8 -2,0.8 -2.8,-0.2 -1,-1.2 -1.7,-2.5 -1,-4 0.2,-0.5 0,-0.8 -0.2,-1.1 -0.8,-1.9 -0.4,-3.2 1.4,-4.1 2.7,-1.4 5.3,-2.9 8.4,-3.2 0.8,-0.1 1.9,-0.3 2.3,0.2 0.4,0.6 -0.2,1.6 -0.6,2.3 -0.7,1.3 -1.9,2.2 -3.2,2.8 -1.3,0.6 -2.6,1.2 -4.1,1.9 4.6,0.5 8.2,-1.7 9.1,-5.6 0.1,-0.6 0.2,-1.3 0.2,-1.9 -0.1,-1.2 0.5,-1.8 1.5,-2.1 0.6,-0.2 1.3,-0.5 1.4,-1.5 -2.1,0.7 -4.2,1.3 -6.1,2.5 -0.7,0.4 -1.4,0.7 -2.1,0.2 -1.5,-1 -1.5,-2.1 0.1,-2.9 0.1,-0.1 0.2,-0.2 0.5,-0.4 -1.8,-0.8 -3.6,1.6 -5.4,-0.2 2.5,-1.7 4.9,-3.4 7.4,-5.1 9.6,-6.6 19.5,-12.8 28.6,-20.1 4,-2.9 7.6,-6 11.1,-9.5 z"
   class="st2" />
		<path
   id="path17496"
   d="m 61.4,118 c 1.9,0.6 2.9,2.1 3.6,3.9 0.6,1.6 1.3,3.1 3.5,3.4 -1.8,-5.5 -0.2,-10.6 1.7,-16 1,3.7 2.3,6.9 3.1,10.4 0.8,4 0.3,7.7 -1.9,11.1 -0.2,0.2 -0.3,0.1 -0.5,0 -0.7,-1 -1.4,-1.9 -2.1,-2.9 -0.6,-0.9 -1.4,-1.4 -2.7,-0.9 3.7,4.2 6,9.3 10.7,12.5 0.6,0.4 0.9,1 0.5,1.8 -0.5,0.9 -1.2,0.8 -1.9,0.1 -2.2,-2.3 -4.6,-4.4 -6.6,-7.2 -0.1,1.1 0.2,1.7 0.6,2.3 1.2,2.3 2.7,4.3 5.2,5.4 1.3,0.5 1.4,1.1 0.7,2.2 -0.3,0.5 -0.3,0.7 0.2,1.1 1.7,1.3 3.3,2.2 5.5,1.1 1.1,-0.5 1.6,0 1.3,1.1 -0.4,1.4 -0.6,2.9 -1,4.3 -0.6,2.2 -1.9,2.8 -4,1.8 -0.8,-0.4 -1.6,-0.6 -2.5,-0.3 0.2,0.5 0.7,0.3 1,0.4 2.1,0.4 3.3,1.6 3.7,3.7 0.4,2.1 0.3,4.3 0.7,6.4 0.1,0.6 -0.2,1.3 -0.3,2 -0.1,0.4 -0.1,0.9 0,1.3 0.3,1.1 0,1.4 -1.1,1.3 -0.7,-0.1 -1.3,-0.3 -2,-0.5 -2.4,-0.9 -4.5,-2.2 -6.5,-3.8 -0.6,-0.5 -1.2,-1.1 -1.6,-1.9 -0.5,-1.3 0,-2.2 1.5,-2.3 1.9,-0.1 3.8,0.5 5.6,1 0.4,0.1 0.8,0.3 1.1,0.3 0.5,0 0.9,-0.3 0.9,-0.8 0.1,-0.5 -0.4,-0.4 -0.8,-0.5 -2.6,-0.9 -5.3,-1 -8,-1.6 -1.8,-0.4 -3.5,-1.1 -5,-2.1 -0.4,-0.2 -0.8,-0.6 -1.1,-0.9 -0.5,-0.5 -0.6,-1 -0.4,-1.6 0.3,-0.6 0.8,-0.9 1.4,-0.9 1.3,0 2.6,0.2 3.9,-0.1 0.1,-0.4 -0.3,-0.4 -0.5,-0.5 -1.2,-0.5 -2.3,-1 -3.5,-1.5 -1.1,-0.5 -2.2,-1.2 -3,-2.1 -0.5,-0.7 -1.1,-1.2 -1.9,-1.6 -1,-0.5 -1,-1.3 0,-1.9 0.9,-0.6 1.9,-0.9 3.1,-0.4 1,0.5 2,0.3 3.1,0.4 0.8,0 1.6,0 2.3,0.4 -2.2,3.6 -1.7,4.7 2.9,6.5 0.2,-0.8 -0.4,-1 -1,-1.3 -1.7,-0.9 -2,-1.6 -1.4,-3 0.9,-1.8 2.7,-2.6 4.1,-1.9 0.9,0.5 1.4,1.6 1.1,2.9 -0.1,0.4 -0.2,0.7 -0.3,1 -0.1,0.6 0.2,1.2 0.7,1.4 0.5,0.2 0.6,-0.6 0.7,-0.9 0.9,-1.9 0.7,-3.8 -1.1,-5 -4.1,-2.8 -6.6,-6.9 -8.9,-11.1 -0.5,-0.9 -1.2,-1.6 -1.6,-2.7 -0.2,-0.5 -0.9,-1 -1.1,-0.2 -0.7,2.1 -1.8,4.1 -1.8,6.4 1.3,-0.2 1.3,-0.2 2.4,-3.7 2.5,3.4 4.2,7.3 7.2,10.2 -0.1,0.2 -0.2,0.3 -0.2,0.3 -1.8,-0.4 -3.7,-0.4 -5.6,-0.7 -1.9,-0.3 -2.3,-1.2 -1.6,-3 0.2,-0.4 0.5,-0.8 0.7,-1.2 0.2,-0.3 0.5,-0.7 0.2,-1.1 -0.2,-0.2 -0.4,-0.6 -0.7,-0.5 -0.4,0.2 -0.9,0.4 -1,0.9 0,0.1 0,0.2 -0.1,0.2 -0.1,0.5 0.1,1.3 -0.4,1.4 -0.6,0.1 -1,-0.6 -1.3,-1.1 -0.7,-1 -1.3,-2.1 -1.9,-3.2 -0.8,-1.6 -1.9,-2.9 -3.7,-3.6 1,-0.1 2.1,-0.2 3.1,-0.4 2,-0.3 2.6,-1.4 1.9,-3.4 -0.6,-1.5 -1.7,-2.5 -3,-3.3 -0.3,-0.2 -0.7,-0.4 -0.9,-0.5 -0.2,-0.2 -0.1,-0.2 0,-0.3 3,-0.9 3.5,-2.1 1.8,-4.8 -0.8,-1.4 -1.8,-2.7 -1.5,-4.4 0.1,-0.5 0.2,-0.9 0.4,-1.5 1.3,1.3 1.8,3 3.3,3.9 1,0.4 1.8,0 2.6,0.3 z"
   class="st2" />
		<path
   id="path17498"
   d="m 200.7,159.4 c -2.2,-0.5 -4.1,-1 -5.9,-1.9 -2,-1 -3.5,-2.4 -4.3,-4.5 -0.1,-0.2 -0.2,-0.4 -0.3,-0.5 -0.3,-0.5 -1.1,-1 -0.4,-1.7 0.9,-0.9 1.9,-1.1 2.9,-0.5 2.8,1.9 5.9,2.9 9.1,3.7 3.5,0.9 7.1,1.4 10.6,2.6 4.9,1.6 9.7,3.5 13.9,6.8 1.1,0.9 2.2,1.8 3,3.1 1.3,2.2 0.8,3.9 -1.6,4.8 -3.8,1.5 -7.8,2 -11.8,1 -5.2,-1.3 -10.5,-1.9 -15.4,-4.3 -2.7,-1.3 -5.4,-2.5 -8.2,-3.6 -1.4,-0.6 -2.3,-1.8 -3.3,-2.9 -0.2,-0.2 -0.1,-0.4 0,-0.6 0.8,-1.6 2.8,-2.7 4.6,-2.4 1.7,0.3 3.3,0.8 5,1.2 0.6,0.1 1.3,0.1 2.1,-0.3 z"
   class="st2" />
		<path
   id="path17500"
   d="m 64.2,194.2 c 1.4,4.7 4.7,7.2 9,8.5 1.9,0.6 3.7,1.1 5.6,1.7 -3.1,0.8 -6.1,1.9 -7.9,4.9 -0.6,-0.5 -0.9,-1.2 -1.3,-1.8 -1.3,-2.2 -2.5,-4.4 -4.1,-6.4 -1.5,-1.9 -3.3,-3.4 -5.6,-4.4 -1.9,-0.8 -3.8,-0.7 -5.6,0.4 -3.1,2 -6.1,4.1 -7.4,7.9 -0.6,1.7 -2.1,1.7 -3.2,0.2 -0.1,-0.1 -0.1,-0.2 -0.2,-0.3 -1,-2.1 -2.6,-3.1 -4.9,-2.6 0.5,-2.1 1.7,-3.3 4,-3.3 3.1,0 5.4,-1.3 7.5,-3.4 1,-1 2.2,-1.9 3.5,-2.6 -1.8,-1.3 -3.7,-2.3 -5.8,-2.4 -1.9,-0.1 -3.5,-0.8 -5.1,-1.9 -2.2,-1.6 -3.3,-1.5 -5.2,0.5 -0.6,0.6 -1.1,0.9 -1.8,0.3 -0.7,-0.6 -1,-1.3 -0.3,-2.2 1.8,-1.9 1.1,-4 0.5,-6.1 -0.3,-0.9 -0.1,-1.2 0.6,-1.5 1.3,-0.6 2.4,-0.4 3.5,0.3 1.2,0.8 2.1,1.9 3.1,3 2.5,2.5 5.4,3.8 9,3.7 6.1,-0.2 12.2,0.1 18.2,-0.1 3,-0.1 6,-0.6 8.9,-1.1 0.5,-0.1 1,-0.1 1.5,-0.1 1.2,0 2,0.7 1.9,2 -0.1,2.3 -1.1,4.3 -2,6.3 -0.3,0.8 -1.2,1.1 -2,0.7 -2.5,-1.3 -5.1,-0.9 -7.7,-0.3 -2.1,0.6 -4.3,1 -6.7,0.1 z"
   class="st2" />
		<path
   id="path17502"
   d="m 184.3,170.5 c 0.2,-0.6 -0.3,-0.7 -0.5,-1 -0.7,-0.7 -1.4,-1.4 -2,-2.1 -1.2,-1.4 -1.4,-3 -0.6,-4.7 0.2,-0.4 0.4,-0.8 0.1,-1.2 -0.6,-0.8 0,-0.9 0.6,-1 1,-0.2 2,0.1 2.8,0.7 5.4,4.2 11.4,7.5 17.4,10.7 3.1,1.7 5.5,4.2 6.8,7.6 0.9,2.3 0.5,3.7 -1.4,5.3 -3.3,2.8 -7,3 -10.8,1.5 -5.7,-2.4 -11.2,-5.3 -16.2,-9 -2,-1.4 -3.4,-3.4 -4.8,-5.3 -0.6,-0.8 -1.2,-1.7 -1.8,-2.5 -1,-1.3 -0.9,-1.5 0.7,-1.8 1.7,-0.4 3.3,0.1 4.9,0.8 1.4,0.7 2.8,1.5 4.3,2 0.2,0 0.4,0 0.5,0 z"
   class="st2" />
		<path
   id="path17504"
   d="m 160.7,211.5 c 0.1,-0.7 -0.2,-1.3 -0.6,-1.9 -0.4,-0.5 -0.7,-0.9 -0.7,-1.8 5,2.8 8.1,7.1 10.2,12.2 0.5,-1.6 0,-3.7 -1.4,-5.8 -1.1,-1.7 -2.5,-3.2 -3.5,-5 0.5,-0.2 0.8,0.2 1.2,0.4 1.2,0.5 2.3,0.5 3.1,-0.6 0.3,-0.4 0.8,-0.8 1.3,-0.4 0.5,0.4 1.5,0.4 1.3,1.6 -0.2,1.6 -0.1,1.6 -1.7,1.5 -0.7,-0.1 -0.9,0.2 -0.6,0.8 0.1,0.3 0.3,0.6 0.4,0.8 2,3.4 1.9,6.2 -0.5,9.2 -1.2,1.5 -1.9,2.9 -1.7,4.9 0.3,2.3 -1.4,3.5 -2.9,4.8 -0.7,0.6 -2,0.2 -2.2,-0.8 -1.8,-6.5 -5.9,-11.9 -9,-17.8 -0.5,-1 -1.3,-1.5 -2.5,-1.7 1.7,3.3 3.8,6.3 5.6,9.4 2.4,4 4.1,8.3 4.2,13.2 -1.2,-1.4 -2,-2.9 -2.6,-4.5 -1.8,-4.9 -4.5,-9.3 -7.7,-13.5 -2.7,-3.5 -5.8,-6.7 -9.2,-9.5 -0.5,-0.4 -0.9,-0.8 -1.5,-1 -0.4,-0.2 -0.9,-0.3 -0.7,-0.9 0.2,-0.5 0.6,-0.8 1.2,-0.8 0.5,0 0.9,0.2 1.1,0.6 1.1,1.4 2.6,2.4 4,3.3 1.1,0.7 2.2,1.5 2.9,2.6 0.4,0.6 1,0.6 1.7,0.6 -1,-3 -4.2,-3.6 -5.9,-5.9 1.5,-0.5 2.8,-0.3 4,0.5 1,0.7 1.8,1.6 2.7,2.4 1.4,1.3 3,2.1 5.1,2.1 -1.1,-2.2 -3.9,-2.3 -5.2,-4.4 2.1,0.1 3.8,1 5.3,2.1 1.2,0.9 2.4,1.8 3.7,2.7 0.4,0.5 0.6,1 1.1,0.6 1.5,1.4 2.5,3.2 3.4,5.1 0.9,1.7 1.6,3.3 2.7,4.9 -1.4,-3.8 -2,-7.9 -6.1,-10 z"
   class="st2" />
		<path
   id="path17506"
   d="m 140.7,59.4 c -0.5,0 -0.9,-0.1 -1.2,-0.4 -1.3,-1 -2.8,-1.3 -4.3,-1.7 -2.5,-0.7 -3.1,-1.9 -1.8,-4.1 1.3,-2.3 2.6,-4.5 4.2,-6.5 2,-2.5 4.7,-4.2 7.8,-5.1 3.9,-1.2 7.8,-2.6 11.6,-4.1 1,-0.4 2.1,-0.4 3.2,-0.3 0.4,0 0.8,0.1 0.5,0.6 -1.8,4.5 -3.6,8.9 -7.7,11.9 -0.3,0.2 -0.6,0.5 -0.9,0.6 -3.7,1.6 -6.2,4.5 -8.6,7.4 -0.7,0.9 -1.5,1.7 -2.8,1.7 z"
   class="st2" />
		<path
   id="path17508"
   d="m 182.7,149.6 c 0.8,-0.1 1.5,0.2 2.1,0.6 1.9,1.4 3.4,3 4.6,5 0.4,0.7 1,1.4 0.2,2.3 -0.9,1.1 -1.5,2.4 -3.2,2.2 -2,-0.3 -4,-0.4 -5.9,-0.8 -2.2,-0.6 -4,-1.8 -5.4,-3.6 -0.8,-1.1 -0.6,-2.3 0.6,-3.2 2.1,-1.7 4.5,-2.4 7,-2.5 z"
   class="st2" />
		<path
   id="path17510"
   d="m 67.9,240 c -0.5,-0.2 -1,0 -1.5,0.1 -1.7,0.3 -2.9,-0.4 -3.6,-1.9 -0.3,-0.6 0,-1 0.4,-1.4 0.4,-0.4 0.8,-0.3 1.3,0 1.9,1.4 3,1.4 4.8,-0.1 0.3,-0.2 0.6,-0.5 1,-0.7 0.5,-0.3 1,-0.3 1.4,0.1 0.4,0.4 0.2,0.8 0.1,1.2 -0.9,2 -0.5,3.9 1,5.4 1.4,1.4 2.7,3.1 4.5,4.1 0.4,0.3 0.4,0.4 0.1,0.7 -2.2,2 -4.7,2.8 -7.1,-0.1 -1,-1.3 -2.3,-2.3 -3.4,-3.6 -1.4,-1.5 -1.3,-2 0.4,-3.2 0.1,-0.1 0.5,-0.2 0.6,-0.6 z"
   class="st2" />
		<path
   id="path17512"
   d="m 190.7,283.4 c -1.8,2 -3.7,3.4 -6.2,3.7 -4,0.5 -6.9,-1.7 -7.5,-5.7 -0.2,-1.3 -0.3,-2.6 0.2,-3.8 0.5,-1.5 1.8,-1.8 3,-0.7 1.2,1.1 2.5,2.3 3.6,3.5 1.5,1.8 3.4,2.8 5.8,2.9 0.2,0 0.6,0 1.1,0.1 z"
   class="st2" />
		<path
   id="path17514"
   d="m 55.9,185.5 c -1.2,0 -2.2,-0.4 -2.7,-1.6 -1.2,-2.6 -2.4,-5.2 -2.1,-8.2 0.1,-1.2 -0.8,-1.6 -1.7,-1.7 -1.2,-0.1 -2,-0.8 -2.7,-1.7 -0.6,-0.8 -0.4,-1.5 0.3,-2 0.3,-0.2 0.5,-0.3 0.8,0 1.6,1.6 3.3,1.2 5,0.1 0.3,-0.2 0.6,-0.4 0.9,-0.6 0.4,-0.2 0.7,-0.6 1.2,-0.3 0.4,0.3 0.5,0.8 0.5,1.3 -0.1,0.4 -0.2,0.8 -0.3,1.1 -0.5,1.5 -1,3 -1,4.5 -0.1,2.6 1,4.6 2.9,6.3 0.6,0.5 1.4,0.9 1,1.8 -0.4,1 -1.3,0.9 -2.1,1 z"
   class="st2" />
		<path
   id="path17516"
   d="m 156.7,127.4 c -0.2,-0.1 -0.4,-0.2 -0.6,-0.4 -1.6,-1 -2.4,-0.8 -3.5,0.8 -0.5,0.7 -0.8,1.6 -1.5,2.2 -0.4,-0.2 -0.5,-0.7 -0.7,-1.1 -0.6,-0.9 -0.3,-1.6 0.6,-2 1.1,-0.6 2.2,-1.1 3.3,-1.7 1.2,-0.6 2.1,-1.4 2.7,-2.6 0.4,-1 0.1,-1.8 -1,-2.5 -0.9,-0.5 -1.5,-0.2 -2,0.6 -0.8,1.5 -2.3,2.6 -2.6,4.4 -0.1,0.6 -0.5,0.3 -0.8,0.1 -0.7,-0.5 -1.1,-1.3 -1.6,-2.1 -0.7,-1.3 -1.7,-2.3 -3.4,-1.8 -0.1,-0.7 0.2,-1.2 0.8,-1.4 1.3,-0.4 2,-1.6 2.8,-2.5 0.6,-0.7 0.5,-1.4 0,-2.1 -0.5,-0.7 -1.1,-1 -2,-0.8 -0.4,0.1 -1,0.7 -1.2,-0.3 -0.1,-0.7 0,-1.3 0.9,-1.5 0.7,-0.2 1.4,0 1.9,0.4 0.8,0.5 1.5,1.3 2.1,2.1 0.7,1 0.3,1.9 -0.3,2.7 -0.8,1 -1.4,2 -1.2,3.3 0,0.2 0,0.4 0.1,0.6 0.1,0.4 0.1,1 0.6,1.1 0.5,0.1 0.8,-0.5 1,-0.9 0.6,-1.1 1.3,-2.1 2.2,-3 1.1,-1.1 2.2,-1.2 3.5,-0.4 0.9,0.5 1.6,1.2 2.1,2.1 0.7,1.2 0.5,2.2 -0.6,3.1 -1.1,0.9 -1.5,2 -1.3,3.4 -0.1,0.2 -0.2,0.2 -0.3,0.2 z"
   class="st0" />
		<path
   id="path17518"
   d="m 162.9,301.6 c 0,-0.7 0.2,-1.3 0.5,-1.9 1.6,-3.2 3.9,-5.7 6.9,-7.6 2.5,-1.6 4.5,-0.9 5.6,1.8 0.3,0.6 0.3,0.9 -0.5,0.9 -0.9,0 -1.9,0.2 -2.8,0.4 -3.6,0.8 -6,2.8 -7,6.4 0,0.2 -0.1,0.3 -0.1,0.5 -0.1,1 -0.7,1.9 -1.4,1.7 -0.9,-0.2 -1.3,-1.2 -1.2,-2.2 z"
   class="st2" />
		<path
   id="path17520"
   d="m 56.3,232.1 c 2.3,-2.4 4.8,-4.2 8.2,-3.5 2.4,0.5 3.8,2.2 4.5,4.5 0.2,0.7 -1,2.5 -1.9,2.9 -0.9,0.4 -1.4,-0.3 -1.9,-0.8 -0.9,-1 -1.8,-2 -3,-2.8 -1.7,-1 -3.4,-1.4 -5.2,-0.3 -0.1,0.1 -0.3,0.2 -0.7,0 z"
   class="st2" />
		<path
   id="path17522"
   d="m 33.9,113.7 c 0.5,-0.2 0.9,0.1 1.4,0.2 3.3,0.7 5.7,-0.2 7.6,-2.9 1,-1.5 1.2,-1.5 2.5,-0.4 0.1,0.1 0.1,0.1 0.2,0.1 2,1.5 2.1,2 0.3,3.9 -3.7,4.4 -9.6,2.8 -12,-0.9 z"
   class="st2" />
		<path
   id="path17524"
   d="m 39.3,166.5 c 1.6,-2.8 6.3,-5 9.1,-4.3 1,0.2 1.8,0.9 2.4,1.6 0.7,0.8 1.3,1.6 1.9,2.4 0.5,0.7 0.5,1.4 -0.3,1.9 -0.2,0.1 -0.5,0.3 -0.7,0.5 -1.2,1.2 -1.8,1.2 -3,0 -0.2,-0.2 -0.4,-0.5 -0.6,-0.7 -2.1,-2.9 -5.2,-3.5 -8.3,-1.6 -0.1,0 -0.2,0.1 -0.5,0.2 z"
   class="st2" />
		<path
   id="path17526"
   d="m 75.1,49.1 c 4.7,2.5 5.9,7.2 4.4,11.4 -0.4,1.1 -1.4,1.5 -2.8,1.3 -1.2,-0.2 -1.7,-0.9 -1.7,-2.1 0,-0.8 0,-1.6 0.1,-2.4 0.6,-2.7 1.4,-5.4 0,-8.2 z"
   class="st2" />
		<path
   id="path17528"
   d="m 70.8,130.7 c 0.2,0 0.3,0 0.5,0 1.2,0.3 1.5,-0.4 2.2,-1.8 0.2,-0.4 0.2,-0.9 0.3,-1.5 0.3,0.7 0.6,1.3 0.9,1.9 0.9,1.9 2.3,3.4 4.1,4.4 2,1.2 1.9,3.9 -0.1,5.1 -0.7,0.4 -1.3,0.1 -1.7,-0.4 -2.2,-2.6 -4.5,-4.9 -6.2,-7.7 z"
   class="st2" />
		<path
   id="path17530"
   d="m 69.7,216.2 c 1.5,-0.9 2.7,-1.5 3.8,-2.3 1.7,-1.2 2.6,-2.8 2.3,-4.9 -0.2,-1.2 0.3,-1.8 1.4,-2.1 1,-0.3 1.8,-0.2 2.4,0.9 1,1.6 1,3.1 -0.2,4.8 -1.7,2.3 -3.9,3.7 -6.9,3.6 -0.7,0 -1.6,0 -2.8,0 z"
   class="st2" />
		<path
   id="path17532"
   d="m 43.9,260.8 c -2.8,-4 -0.8,-10.2 3.6,-11.4 1.3,-0.4 2.6,0 3.3,1 0.6,0.8 0.5,1.5 -0.4,2 -0.4,0.3 -0.9,0.5 -1.4,0.7 -3.4,1.3 -5.2,3.7 -5.1,7.4 0.1,0.1 0,0.2 0,0.3 z"
   class="st3" />
		<path
   id="path17534"
   d="m 185,74 c -0.5,-0.1 -1.6,0.5 -1.9,-0.6 -0.2,-1 0.7,-1.3 1.3,-1.8 2.1,-1.5 4.2,-2.9 6.4,-4.2 1.5,-0.9 3,-0.5 4,0.9 0.4,0.5 0.4,0.9 -0.2,1.1 -2.2,0.6 -3.8,2.1 -5.5,3.5 -1.1,0.9 -2.4,1.3 -4.1,1.1 z"
   class="st2" />
		<path
   id="path17536"
   d="m 27,194 c -2.1,-3.9 -1.6,-7.9 1.1,-10.4 1.3,-1.1 2.7,-1.9 4.5,-1.2 0.8,0.3 1.5,0.8 1.6,1.8 0.1,1 -0.8,1.2 -1.5,1.5 -0.9,0.4 -1.7,0.8 -2.5,1.3 -2.4,1.6 -3.3,3.9 -3.2,7 z"
   class="st2" />
		<path
   id="path17538"
   d="m 161.8,286.8 c 0.3,-2.1 1.4,-3.7 2.9,-5 2.1,-2 4.5,-3.5 7.5,-3.3 0.3,0 0.7,0 0.9,0.2 0.7,0.3 1.6,0.5 1.4,1.5 -0.2,1.5 -0.8,2.2 -2.1,2.2 -1.3,0 -2.6,-0.1 -3.9,0.2 -2.7,0.4 -5,1.9 -6.7,4.2 z"
   class="st3" />
		<path
   id="path17540"
   d="m 73.5,284.9 c -0.9,-0.6 -1.6,-1.2 -2.4,-1.6 -2.4,-1.4 -3.2,-3.8 -4,-6.3 -0.3,-1.1 0.1,-1.9 1,-2.6 0.8,-0.7 1.7,-0.7 2.7,-0.3 0.2,0.1 0.4,0.2 0.6,0.3 1.9,1.1 1.9,1.1 0.7,2.8 -0.9,1.2 -1,2.5 -0.4,3.8 0.3,0.6 0.6,1.2 0.9,1.8 0.3,0.7 0.8,1.2 0.9,2.1 z"
   class="st2" />
		<path
   id="path17542"
   d="m 196.1,302.7 c 0.1,-0.8 0.2,-1.8 0,-2.8 -0.1,-0.4 0,-0.7 0.3,-1 0.7,-0.6 3.4,-0.6 4.1,0 0.5,0.4 0.6,1.1 0.3,1.5 -1.8,2.4 -1.6,5.3 -2.3,7.9 -0.1,0.2 -0.1,0.5 -0.2,0.7 -0.1,0.4 -0.4,0.9 -0.9,0.8 -0.6,0 -0.3,-0.6 -0.3,-0.9 -0.4,-2 -1,-3.9 -1,-6.2 z"
   class="st3" />
		<path
   id="path17544"
   d="m 92.2,282.8 c 2.1,-1.2 2.5,-3 2.2,-5 -0.2,-1.2 -0.3,-2.4 0,-3.6 0.3,-1.4 1.2,-2 2.6,-1.8 1.3,0.2 2.1,1.1 2.1,2.4 -0.2,3.3 -4,7.9 -6.9,8 z"
   class="st3" />
		<path
   id="path17546"
   d="m 46.7,46.9 c 2,-1.2 3.9,-1.2 5.8,-0.7 2.8,0.8 5,2.3 6,5.2 0.3,0.7 0.4,1.5 -0.3,2.1 -0.8,0.7 -1.4,0.7 -2.1,-0.2 C 55.5,52.4 54.8,51.5 54.3,50.5 53,48.2 51,47.1 48.4,47 c -0.5,0 -1,0 -1.7,-0.1 z"
   class="st3" />
		<path
   id="path17548"
   d="m 124.1,67.1 c 0,0.1 0,0.2 0,0.3 -0.9,1.2 -1.8,2.4 -2.9,3.3 -2.6,2 -7.1,0.5 -7.9,-2.7 -0.3,-1.4 0.1,-2.2 1.4,-2.6 1.1,-0.4 2.9,0.3 3.3,1.2 0.3,0.6 -0.3,0.7 -0.7,0.9 -1.2,0.6 -1.2,0.6 -0.3,1.6 1.4,1.5 2.7,1.4 3.8,-0.3 0.8,-1.1 1.6,-2.3 3.3,-1.7 z"
   class="st2" />
		<path
   id="path17550"
   d="m 38.4,213.2 c -2,-0.9 -3,-2.4 -2.8,-4.4 0.2,-2.2 0.9,-4.2 3.2,-5.1 1.2,-0.5 2.9,0.3 3.4,1.5 0.1,0.3 0.1,0.5 -0.2,0.7 -0.3,0.1 -0.5,0.3 -0.7,0.4 -3,1.9 -3.6,3.3 -2.9,6.9 z"
   class="st3" />
		<path
   id="path17552"
   d="m 193.7,252.2 c 1.5,-0.9 3.1,-0.6 4.7,-0.4 2.2,0.3 4.1,1.3 6,2.4 1.2,0.7 2.4,1.4 3.6,2 0.7,0.4 1.4,0.7 1,1.6 -0.5,1 -1.2,0.5 -1.8,0.1 -3.9,-2.1 -7.8,-4.1 -12.1,-5.4 -0.4,-0.1 -0.8,-0.6 -1.2,-0.1 -0.1,-0.1 -0.1,-0.1 -0.2,-0.2 z"
   class="st0" />
		<path
   id="path17554"
   d="m 174.2,90.2 c -0.1,-0.9 0.5,-1.6 1.5,-1.9 0.6,-0.2 1.2,-0.3 1.9,-0.3 0.9,0 1.7,0 2.2,0.9 0.5,0.9 0.2,1.7 -0.2,2.5 -0.7,1.3 -2.1,1.8 -3.1,2.8 -0.3,0.3 -0.5,0 -0.7,-0.2 -1.2,-1 -1.5,-2.2 -1.6,-3.8 z"
   class="st2" />
		<path
   id="path17556"
   d="m 31.5,74.8 c 2.5,0 5,0 7.5,0 0.5,0 1.2,-0.2 1.3,0.6 0.1,0.7 -0.2,1.2 -0.8,1.5 -0.8,0.4 -1.6,0.2 -2.5,0.2 -2.1,0 -4,-0.8 -5.5,-2.3 z"
   class="st3" />
		<path
   id="path17558"
   d="m 218.4,299.8 c 0,-1.3 0,-2.4 0,-3.5 0.1,-1.6 1.8,-2.8 3.3,-2.4 0.5,0.1 0.6,0.5 0.6,1 -0.1,0.9 -0.6,1.6 -1.1,2.3 -0.8,1 -1.7,1.7 -2.8,2.6 z"
   class="st4" />
		<path
   id="path17560"
   d="m 147.8,139.6 c -1.6,-0.1 -1.6,-0.1 -4.3,-2.8 1.1,-0.1 1.8,0.2 2.8,1.1 0.5,0.5 1,1.1 1.7,1.4 0,0.2 -0.1,0.2 -0.2,0.3 z"
   class="st5" />
		<path
   id="path17562"
   d="m 172.3,82.2 c -0.1,-0.8 0.2,-1.3 1.1,-1.2 0.4,0 0.9,-0.1 0.9,0.5 0,0.7 -0.8,1.9 -1.3,1.9 -0.5,0 -0.7,-0.2 -0.7,-1.2 z"
   class="st6" />
		<path
   id="path17564"
   d="m 198.7,85.6 c -0.3,0.1 -0.7,0.3 -1,0.4 -0.4,0 -0.8,0.2 -1.2,-0.2 0.5,-0.3 1.2,0 1.7,-0.5 0.1,0.3 0.4,0.2 0.5,0.3 z"
   class="st7" />
		<path
   id="path17566"
   d="m 61.4,118 c -0.8,-0.2 -1.6,0.1 -2.4,-0.2 0.8,0 1.7,-0.2 2.4,0.2 z"
   class="st0" />
		<path
   id="path17568"
   d="m 214.3,237.5 c -0.4,0 -0.8,0 -1.5,0.1 0.6,-0.3 0.9,-0.5 1.3,-0.5 0.1,0.1 0.2,0.2 0.2,0.4 z"
   class="st8" />
		<path
   id="path17570"
   d="m 121.2,256.3 c 0,-0.3 0,-0.7 0,-1.1 0.4,0.2 0.5,0.5 0.4,0.8 -0.1,0.1 -0.2,0.2 -0.4,0.3 z"
   class="st9" />
		<path
   id="path17572"
   d="m 185.6,134.8 c -0.3,0.1 -0.8,0.2 -0.8,-0.2 0,-0.3 0.4,-0.2 0.6,-0.2 0,0.1 0.1,0.2 0.2,0.4 z"
   class="st10" />
		<path
   id="path17574"
   d="m 92.4,223.2 c -0.2,0.1 -0.3,0.3 -0.5,0.4 -0.2,0 -0.5,0.1 -0.7,-0.1 0.4,-0.3 0.8,-0.4 1.2,-0.3 z"
   class="st11" />
		<path
   id="path17576"
   d="m 105.6,252.8 c 0.3,0.2 0.4,0.5 -0.1,0.5 -0.3,0 -0.6,0.1 -0.9,-0.2 0.3,-0.1 0.8,0.1 1,-0.3 z"
   class="st12" />
		<path
   id="path17578"
   d="m 156.2,131.9 c -0.1,0.2 -0.2,0.4 -0.3,0.7 -0.3,-0.4 -0.2,-0.6 0,-0.9 0.1,0 0.2,0.1 0.3,0.2 z"
   class="st13" />
		<path
   id="path17580"
   d="m 147.1,67.1 c 1.2,-3.7 3,-7 5.1,-10.2 0.4,-0.7 1,-1.3 1.4,-1.9 1.4,-2.2 3.2,-3.6 5.8,-3.9 1.8,-0.3 3.4,-1.3 5,-2.1 0.9,-0.4 1.7,-0.9 2.6,-1.1 0.9,-0.2 1.3,0.2 1.3,1.1 0,0.8 -0.4,1.4 -1.2,1.8 -3.6,1.9 -6.2,4.6 -7.9,8.3 -1.3,2.8 -3.4,4.1 -6.6,3.5 -0.4,-0.1 -0.8,-0.2 -1.1,0.3 -0.3,0.4 0,0.8 0.2,1.1 0.2,0.3 0.5,0.6 1,0.4 0.6,-0.2 1.2,-0.3 1.4,0.6 0.2,0.8 -0.4,1.4 -1,1.3 -1.9,-0.2 -3.6,0.6 -5.4,0.9 -0.2,0 -0.4,-0.1 -0.6,-0.1 z"
   class="st1" />
		<path
   id="path17582"
   d="m 132.5,153.9 c 0.8,1 0.6,1.8 0.2,2.7 -0.4,0.8 -0.8,1.7 -1.1,2.5 -0.5,1.6 -0.2,2.5 1.3,3.3 0.3,0.2 0.7,0.3 1.1,0.5 0.3,0.2 0.9,0.1 0.9,0.6 -0.1,0.4 -0.5,0.7 -0.9,0.9 -0.5,0.2 -1,0.2 -1.5,0 -2.4,-1 -4.8,-2 -7,-3.4 -1.7,-1.1 -2.1,-2.5 -1.1,-4.3 0.3,-0.6 0.7,-1.3 1.1,-1.9 0.2,-0.3 0.5,-0.6 0.9,-0.5 0.4,0.1 0.8,0.2 1,0.6 0.1,0.4 -0.3,0.6 -0.5,0.8 -1,0.8 -0.9,2 0.1,3 1.5,1.4 2.2,1.3 3,-0.5 0.5,-1.4 1.5,-2.8 2.5,-4.3 z"
   class="st0" />
		<path
   id="path17584"
   d="m 138.6,146.4 c -1,0.6 -2.1,0.7 -3.1,1.1 -1.9,0.7 -2.7,1.8 -2.7,3.8 0,0.8 0.2,1.6 -1.1,1.5 -1.2,-0.1 -2,-0.7 -2,-1.8 0,-0.9 0.4,-1.7 1,-2.4 2,-2 4.5,-2.9 7.4,-2.6 0.1,0 0.2,0 0.2,0.1 0.2,0.1 0.2,0.2 0.3,0.3 z"
   class="st0" />
		<path
   id="path17586"
   d="m 91.3,126.4 c 0.2,0.7 0.1,1.2 0,1.7 -0.1,0.4 -0.4,0.9 0.1,1.2 0.4,0.4 1,0.3 1.5,0.1 0.5,-0.2 1,-0.6 1.5,-0.9 0.2,-0.1 0.4,-0.3 0.9,-0.2 -0.9,1.1 -1.5,2.2 -2.5,3.1 -1.2,1 -2.6,0.8 -4,0.7 -0.7,0 -1,-1.3 -0.4,-2 0.8,-1.3 1.8,-2.4 2.9,-3.7 z"
   class="st14" />
		<path
   id="path17588"
   d="m 126.4,169 c 0.8,4.5 -1.2,6.6 -6.4,6.8 2.1,-0.5 2.9,-2.2 3.8,-3.9 0.6,-1.3 1.3,-2.4 2.6,-2.9 z"
   class="st15" />
		<path
   id="path17590"
   d="m 108.2,179.7 c 0,-0.4 0,-0.9 0.3,-1.3 0.5,-0.9 1.4,-1.1 2.2,-0.4 1,0.8 1.3,2 1.8,3 0.2,0.4 0,0.7 -0.4,0.9 -1,0.4 -2,0.4 -3,0 -0.9,-0.5 -0.9,-1.3 -0.9,-2.2 z"
   class="st0" />
		<path
   id="path17592"
   d="m 151.2,192.3 c -1.4,0 -4.5,-2 -4.9,-3.3 -0.2,-0.5 0.2,-0.7 0.5,-1 0.3,-0.2 0.6,-0.5 0.9,0 0.7,0.9 1.7,1.2 2.6,1.5 0.7,0.3 1.4,0.6 1.7,1.4 0.4,0.9 0.1,1.4 -0.8,1.4 z"
   class="st14" />
		<path
   id="path17594"
   d="m 202.4,202.1 c 2.9,0.6 6.2,3.7 5.8,9.4 -1.7,-3.6 -3,-7 -5.8,-9.4 z"
   class="st16" />
		<path
   id="path17596"
   d="m 98.9,137.5 c -0.8,0.1 -1.3,0 -1.4,-0.5 -0.2,-0.7 -0.1,-1.4 0.5,-1.8 0.9,-0.6 2,-0.8 3.1,-0.9 0.5,0 0.8,0.3 0.9,0.8 0.1,0.7 0,1.3 -0.6,1.7 -0.9,0.5 -1.9,0.5 -2.5,0.7 z"
   class="st14" />
		<path
   id="path17598"
   d="m 222.5,254.1 c -0.4,-1 -1.2,-1.3 -2.1,-1.7 -0.8,-0.3 -1.6,-0.6 -2.1,-1.3 -0.4,-0.5 -0.4,-0.8 0.3,-1 1,-0.2 1.8,0 2.6,0.5 0.9,0.5 1.5,1.3 2.3,1.9 0.4,0.4 0.7,0.8 0.4,1.4 -0.2,0.5 -0.7,0.9 -1.3,0.7 -0.1,-0.1 0,-0.3 -0.1,-0.5 z"
   class="st15" />
		<path
   id="path17600"
   d="m 123.6,138.6 c 0.9,-0.9 1.7,-0.4 2.6,0 0.9,0.5 1.7,1.2 1.8,2.2 0.1,0.6 -0.4,1 -1,1.2 -0.8,0.2 -1.5,-0.1 -1.9,-0.9 -0.5,-0.9 -0.7,-1.9 -1.5,-2.5 z"
   class="st14" />
		<path
   id="path17602"
   d="m 138.5,91.1 c -1,0 -1.7,-0.2 -2.3,-0.6 -0.3,-0.2 -0.8,-0.3 -0.7,-0.7 0.1,-0.5 0.6,-0.7 1,-0.9 0.9,-0.2 1.8,0 2.7,0.3 0.7,0.2 1.4,0.3 2.1,0 0.2,-0.1 0.5,-0.5 0.7,0 0.2,0.5 0,0.9 -0.5,1 -1,0.5 -2.1,0.8 -3,0.9 z"
   class="st15" />
		<path
   id="path17604"
   d="m 137.7,173.6 c 2.1,4.5 2.1,4.5 4.2,5 0,0 -0.1,0.1 -0.1,0.1 -3.4,0.9 -4.2,0.4 -4.2,-3.2 0,-0.5 0.1,-1.1 0.1,-1.9 z"
   class="st17" />
		<path
   id="path17606"
   d="m 157.9,190.5 c 1,0.3 2,0.2 2.9,0.1 1.6,-0.2 2.3,0.1 2.9,1.3 -2.2,0.8 -4.4,0.3 -5.8,-1.4 z"
   class="st18" />
		<path
   id="path17608"
   d="m 143.9,81.4 c 2.5,-0.1 2.9,0.3 2.9,2.4 0,0.5 0.1,1.1 0.1,1.7 -2.3,-0.4 -1,-3.1 -3,-4.1 z"
   class="st19" />
		<path
   id="path17610"
   d="m 193.9,190.7 c 1.3,-0.2 2.5,0 3.5,1 0.5,0.5 0.4,0.9 -0.2,1.1 -1.3,0.6 -3.1,-0.7 -3.3,-2.1 z"
   class="st16" />
		<path
   id="path17612"
   d="m 111.6,172.6 c 0.5,0.7 1.1,1.2 1.3,2 0.1,0.6 0,1.2 -0.6,1.4 -0.4,0.2 -0.9,0.2 -1.3,-0.2 -0.5,-0.5 -0.7,-1 -0.3,-1.6 0.2,-0.5 0.5,-1 0.9,-1.6 z"
   class="st15" />
		<path
   id="path17614"
   d="m 95.1,66.4 c 0,0.8 -1.6,2.4 -2.4,2.3 -0.7,-0.1 -1,-0.4 -0.5,-1 0.5,-0.8 1.2,-1.3 2,-1.8 0.7,-0.5 0.8,0 0.9,0.5 z"
   class="st16" />
		<path
   id="path17616"
   d="m 201.9,227.4 c -0.3,-0.8 -0.5,-1.5 -0.3,-2.3 0.2,-0.5 0.4,-1.1 1,-1 0.5,0 0.9,0.5 1.1,1 0.2,0.5 0.1,1 -0.4,1.4 -0.4,0.2 -0.8,0.5 -1.4,0.9 z"
   class="st18" />
		<path
   id="path17618"
   d="m 222.5,254.1 c 0.2,0.2 0.2,0.4 0.2,0.6 -0.6,0.9 0.1,1.5 0.6,2.1 -0.5,0.2 -0.5,0.2 -3.7,-1.6 0.8,-0.6 0.8,-0.6 2.1,-0.5 0.6,0.1 1,0.1 0.8,-0.6 z"
   class="st18" />
		<path
   id="path17620"
   d="m 105.4,162.1 c 0.8,-0.1 1.3,0.3 1.3,1.2 0,0.8 -0.4,1.1 -1.2,1.1 -0.9,0 -1.2,-0.4 -1.2,-1.2 0.1,-0.8 0.4,-1.2 1.1,-1.1 z"
   class="st14" />
		<path
   id="path17622"
   d="m 196.5,85.8 c 0.4,0.2 0.8,-0.1 1.2,0.2 -0.7,0.8 -1.3,1.7 -2.5,1.9 -0.4,0.1 -0.9,0.1 -1.3,-0.2 0.7,-0.9 1.5,-1.7 2.6,-1.9 z"
   class="st20" />
		<path
   id="path17624"
   d="m 142.5,85.5 c -0.8,0.9 -1.7,1.3 -2.8,0.9 -0.3,-0.1 -0.6,-0.2 -0.7,-0.6 0,-0.5 0.4,-0.7 0.7,-0.8 1.1,-0.3 1.9,-0.1 2.8,0.5 z"
   class="st20" />
		<path
   id="path17626"
   d="m 127.3,153.3 c -0.5,-0.9 -0.9,-1.8 -0.5,-2.8 0.1,-0.3 0.3,-0.7 0.8,-0.7 0.5,0 0.5,0.4 0.6,0.7 0.4,1.2 0,2 -0.9,2.8 z"
   class="st20" />
		<path
   id="path17628"
   d="m 95.4,146.3 c 0,-1.3 0.8,-2.3 1.9,-2.6 0.4,-0.1 0.6,0 0.8,0.3 0.2,0.3 0,0.6 -0.2,0.8 -0.7,0.8 -1.7,0.9 -2.5,1.5 z"
   class="st1" />
		<path
   id="path17630"
   d="m 90.4,160.5 c 0.1,1.5 -1.8,2.4 -1.2,4.1 -2,-1.3 -0.8,-3 1.2,-4.1 z"
   class="st19" />
		<path
   id="path17632"
   d="m 126,98.9 c -0.2,0.5 0,1.3 -0.8,1.4 -0.7,0.1 -0.9,-0.6 -0.9,-1.2 0,-0.7 0.4,-1.5 1,-1.5 0.8,0 0.6,0.9 0.7,1.3 z"
   class="st21" />
		<path
   id="path17634"
   d="m 230.6,147.2 c -2.5,0 -5.1,0 -7.6,0 0.5,-0.5 5.6,-0.6 7.6,0 z"
   class="st0" />
		<path
   id="path17636"
   d="m 193.9,190.7 c -1.8,0.3 -1.7,-1.2 -2.1,-2.2 1.6,-0.1 2.1,0.5 2.1,2.2 0,0 0,0 0,0 z"
   class="st1" />
		<path
   id="path17638"
   d="m 115.9,142.5 c 0,-0.7 0,-1.2 0.8,-1.2 0.8,0 0.8,0.6 0.8,1.2 0,0.5 0,1.1 -0.8,1.1 -0.8,-0.1 -0.8,-0.6 -0.8,-1.1 z"
   class="st5" />
		<path
   id="path17640"
   d="m 105,143.4 c -0.6,0 -1.1,0 -1.5,0 -0.4,0 -0.9,0.1 -1.1,-0.3 -0.2,-0.3 0.1,-0.6 0.4,-0.8 0.4,-0.3 0.9,-0.6 1.4,-0.2 0.3,0.4 0.6,0.7 0.8,1.3 z"
   class="st22" />
		<path
   id="path17642"
   d="m 109.8,114.6 c 0,0.6 -0.1,1.1 -0.8,1.2 -0.6,0.1 -0.9,-0.4 -0.8,-0.9 0.1,-0.5 0,-1.2 0.8,-1.2 0.8,-0.1 0.7,0.5 0.8,0.9 z"
   class="st22" />
		<path
   id="path17644"
   d="m 104.3,122.2 c -0.6,0.5 -0.8,1.5 -1.8,1.2 -0.5,-0.1 -0.6,-0.7 -0.3,-1.1 0.6,-0.9 1.4,-0.1 2.1,-0.1 z"
   class="st15" />
		<path
   id="path17646"
   d="m 152,233.7 c 1.5,-1.4 1.3,-2.8 0.8,-4.3 -2.2,-5.6 -5.8,-10.1 -10.3,-14.1 -2.2,-2 -4.5,-3.8 -6.8,-5.7 -0.8,-0.6 -1.5,-1.3 -2.2,-2.1 0.4,-0.3 0.7,0 1,0.1 10,4.8 17,12.3 20.4,22.9 0.1,0.3 0.2,0.5 0.2,0.8 0.3,1.3 0,1.9 -1.3,2.1 -0.5,0.3 -1,0.3 -1.8,0.3 z"
   class="st1" />
		<path
   id="path17648"
   d="m 143.7,229.6 c 1,0.3 1.1,1.2 1.4,1.8 0.4,1 0.7,1.1 1.6,0.4 1.9,-1.6 2.1,-3.9 0.6,-5.9 -0.3,-0.3 -0.6,-0.7 -0.9,-1 1.6,0.2 2.4,0.8 2.7,2.3 0.4,1.7 0.1,3.3 -0.7,4.9 -0.6,1.1 -1.5,1.6 -2.7,1.7 -1.3,0.1 -1.9,-0.5 -2,-1.8 0,-0.4 0,-0.8 0,-1.2 0,-0.3 0,-0.7 0,-1.2 z"
   class="st14" />
		<path
   id="path17650"
   d="m 119.2,215.1 c 2,0.6 3.7,-0.4 5.6,-0.5 -1.3,2 -1.3,2 0.8,3.6 -2,0.7 -3.3,0.1 -6.4,-3.1 z"
   class="st15" />
		<path
   id="path17652"
   d="m 110.5,222.5 c -0.5,-1 -1,-1.6 -0.3,-2.6 0.8,-1.2 1.7,-2.2 3.1,-2.3 0.8,-0.1 1.1,0.4 0.8,1.2 -0.3,0.7 -0.9,1.1 -1.5,1.4 -0.9,0.6 -1.7,1.2 -2.1,2.3 z"
   class="st15" />
		<path
   id="path17654"
   d="m 140.8,215.4 c -2.7,-0.2 -4.1,-2.5 -6.2,-3.5 2.5,0.2 4.6,1.2 6.2,3.5 z"
   class="st17" />
		<path
   id="path17656"
   d="m 127,215.5 c 1.9,-0.3 3,0.1 3.4,1.3 0.2,0.4 0.3,0.8 0,1.1 -0.3,0.4 -0.7,0 -1,-0.1 -1.4,-0.5 -2,-1.2 -2.4,-2.3 z"
   class="st15" />
		<path
   id="path17658"
   d="m 139.1,219.8 c -1.5,-1 -2.4,-2.4 -3.2,-4 1.4,0.9 3.1,1.4 3.5,3.2 0.1,0.3 0.4,0.8 -0.3,0.8 z"
   class="st20" />
		<path
   id="path17660"
   d="m 116.5,218.6 c 0.9,-0.1 1.5,-0.1 2.1,-0.2 0.4,0 0.8,0 1.2,0.1 0.6,0.1 1.3,0.5 1.2,1.1 -0.1,0.5 -0.9,0.4 -1.3,0.4 -1.2,0 -2.1,-0.6 -3.2,-1.4 z"
   class="st20" />
		<path
   id="path17662"
   d="m 130,214.2 c 1.5,-0.3 2.4,0.3 3.2,1.2 -1.3,0.8 -1.9,0.6 -3.2,-1.2 z"
   class="st1" />
		<path
   id="path17664"
   d="m 139.9,220.1 c 0.9,-0.3 1.6,0 1.9,0.9 0.2,0.4 0.5,0.9 -0.2,1.2 -0.6,0.2 -1,0 -1.2,-0.6 -0.2,-0.4 -0.4,-0.9 -0.6,-1.3 0,-0.1 0,-0.2 0.1,-0.2 0,0 0,0 0,0 z"
   class="st5" />
		<path
   id="path17666"
   d="m 139.9,220.1 c 0,0.1 0,0.1 0,0.2 -0.3,0 -0.6,-0.1 -0.8,-0.4 0.4,-0.2 0.2,-0.5 0.3,-0.8 0.4,0.2 0.1,0.7 0.5,1 z"
   class="st23" />
		<path
   id="path17668"
   d="m 163.3,98.5 c 1.1,0.6 2.3,0.2 3.5,0.3 0.6,0 1.3,-0.1 1.8,0.5 0.2,0.2 0.6,0.5 0.4,0.9 -0.2,0.3 -0.6,0.2 -1,0.1 -0.5,-0.2 -0.9,-0.6 -1.4,-0.5 -0.3,0 -0.8,0 -0.4,0.5 1.6,2.2 0.6,3.9 -0.9,5.5 -0.1,0.1 -0.2,0.3 -0.4,0.5 0.6,0.2 1.1,0.3 1.6,0.5 1,0.4 1.3,1.1 0.6,2.1 -0.3,0.5 -0.7,0.9 -1.1,1.3 -1.8,2 -2.1,4 -0.8,6.4 1.6,3.1 0.5,5.3 -3,5.9 -0.4,0.1 -0.7,0.1 -1.5,0.1 0.6,-0.5 1,-0.7 1.3,-1 0.6,-0.5 1.3,-1 1.7,-1.7 0.8,-1.4 0.3,-2.6 -1.1,-3.1 -0.6,-0.2 -1,0.2 -1.4,0.6 -0.3,0.4 -0.7,1.1 -1.3,0.4 -0.5,-0.6 -0.4,-1.2 0.2,-1.8 0.7,-0.6 1.6,-0.8 2.7,-1 -2.3,-1.9 -4,-4.3 -6.6,-5.6 -0.5,-0.2 -0.9,-0.5 -1.4,-0.5 -0.4,0 -0.7,-0.1 -0.8,-0.5 -0.1,-0.5 0.2,-0.9 0.6,-1.2 0.4,-0.3 0.6,0.1 0.9,0.3 0.1,0.1 0.3,0.3 0.4,0.4 2.2,2 2.9,1.2 4.5,-1 0.5,-0.8 -0.2,-1.1 -0.8,-1.2 -1.7,-0.4 -2.6,-1.4 -3.1,-3 -0.1,-0.3 -0.6,-0.8 -0.1,-1 0.4,-0.2 1,-0.2 1.4,0.2 0.4,0.4 0.7,0.9 1.1,1.5 0.7,-1.3 1.5,-2.4 2.2,-3.7 0.3,-0.5 -0.3,-0.6 -0.5,-0.7 -1.3,-0.6 -2.6,-1.2 -3.4,-2.6 1.3,-0.4 1.9,-1.4 2.5,-2.4 1,-1.7 2.1,-2.2 3.8,-1.7 1.3,0.3 2.9,2.2 3,3.5 0,0.6 -0.3,1.1 -0.7,1.5 -0.9,0.4 -1.7,0.8 -2.5,1.2 -0.3,-0.8 0.2,-1.5 0.5,-2.2 0.3,-0.8 0.4,-1.5 -0.5,-2 -0.7,-0.4 -1.6,-0.2 -2.2,0.6 -0.1,0.2 -0.2,0.3 -0.3,0.5 -0.7,1.2 -0.7,1.1 0.4,1.9 0.6,0.5 1.4,0.7 2.1,1.2 z"
   class="st1" />
		<path
   id="path17670"
   d="m 153.9,117.3 c 0.3,-0.8 0.8,-1.3 1.2,-1.9 0.5,-0.6 0.7,-1.2 0.3,-2 -0.4,-0.7 -1,-1 -1.8,-1 -0.4,0 -0.7,0 -1.1,0.1 -1.5,0.2 -2.3,-0.4 -2.5,-1.8 -0.2,-0.8 -0.2,-1.7 0.2,-2.9 0.6,2.6 2.3,2.6 4.1,2.9 2.8,0.4 4,3.3 2.5,5.7 -0.6,0.9 -1.7,1 -2.9,0.9 z"
   class="st0" />
		<path
   id="path17672"
   d="m 163.3,98.5 c -0.8,0.2 -1.3,-0.4 -1.9,-0.7 -0.3,-0.2 -0.5,-0.5 -0.8,-0.5 -1.4,-0.1 -1,-0.7 -0.5,-1.4 0.3,-0.5 0.6,-1 1,-1.5 0.7,-0.8 1.6,-0.8 2.5,-0.3 0.8,0.5 1,1.2 0.6,2 -0.4,0.8 -0.7,1.7 -0.9,2.4 0,0.1 0,0 0,0 z"
   class="st3" />
		<path
   id="path17674"
   d="m 143.9,128.6 c 1.2,4.7 -0.7,8.4 -4.2,8.5 2.9,-2.1 2.8,-5.6 4.2,-8.5 z"
   class="st15" />
		<path
   id="path17676"
   d="m 144,122.9 c 0.3,-0.1 0.5,-0.1 0.7,-0.1 0.6,-0.1 1.4,-0.5 1.8,0.3 0.5,0.8 0.5,1.8 0,2.6 -0.6,1 -1.6,1.5 -2.7,2.1 0.1,-0.8 0.6,-1.2 1,-1.7 1.4,-1.6 1.4,-1.8 -0.5,-2.8 0,-0.1 -0.1,-0.2 -0.3,-0.4 z"
   class="st17" />
		<path
   id="path17678"
   d="m 164.9,83.1 c -0.3,0 -0.4,-0.3 -0.3,-0.6 0.3,-0.7 0.6,-1.4 1.5,-1.5 0.3,0 0.6,0.1 0.5,0.5 0,0.5 -1.2,1.7 -1.7,1.6 z"
   class="st22" />
		<path
   id="path17680"
   d="m 234.7,69.5 c 0.2,0.7 0.2,1.3 -0.6,1.5 -1.8,0.6 -3,2 -4.3,3.3 -1.1,1.1 -2.3,1.9 -3.9,2 v 0 c -0.2,-0.5 0.3,-0.7 0.5,-0.9 2.3,-2.4 5,-4.2 7.7,-5.9 0.3,-0.1 0.5,-0.1 0.6,0 z"
   class="st14" />
		<path
   id="path17682"
   d="m 213.5,85.8 c 0.7,-2.5 2.8,-3.4 5,-4.3 -0.9,2.3 -3.4,2.8 -5,4.3 z"
   class="st17" />
		<path
   id="path17684"
   d="m 222.9,79 c 0,-1.7 0.8,-2.4 3.1,-2.7 0,0 0,0 0,0 -0.1,0 -0.2,0 -0.2,0.1 0,2 -1.4,2.4 -2.9,2.6 0,0 -0.1,-0.1 -0.1,-0.1 0,0 0,0.1 0.1,0.1 z"
   class="st16" />
		<path
   id="path17686"
   d="m 213.1,85.8 c -0.4,0.5 -0.8,0.9 -1.2,1.3 -0.3,0.3 -0.6,0.6 -1,0.8 -0.4,0.2 -1,0.3 -1.3,-0.1 -0.3,-0.4 0.2,-0.7 0.5,-1 0.9,-1.1 1.7,-1.4 3,-1 z"
   class="st17" />
		<path
   id="path17688"
   d="m 234.7,69.5 c -0.2,0 -0.4,0 -0.5,0 0.7,-0.8 2.2,-0.7 2.5,-2.1 0.1,-0.3 0.7,-0.3 0.9,0 0.4,0.3 0.3,0.8 0.1,1.2 -0.4,0.6 -1,1 -1.8,1 -0.4,0 -0.8,-0.1 -1.2,-0.1 z"
   class="st16" />
		<path
   id="path17690"
   d="m 222.9,79 c -0.8,0.1 -0.9,1 -1.4,1.3 -0.4,0.3 -0.8,0.8 -1.3,0.6 -0.3,-0.1 -0.2,-0.6 -0.2,-0.9 0.1,-0.6 0.3,-1.2 1,-1.4 0.6,-0.1 1.2,0.3 1.9,0.4 0,0 0,0 0,0 z"
   class="st21" />
		<path
   id="path17692"
   d="m 210.4,101.6 c 1.3,-0.8 2.5,-1.7 3.9,-2.3 0.4,-0.2 0.9,-0.6 1.2,-0.3 0.4,0.4 -0.3,0.7 -0.5,1 -1.3,1.8 -2.5,2.1 -4.6,1.6 0,0 0,0 0,0 z"
   class="st17" />
		<path
   id="path17694"
   d="m 226.9,92.6 c 1.2,-1.7 1.7,-2.1 2.9,-2.4 -0.3,1.6 -1,2.2 -2.9,2.4 z"
   class="st22" />
		<path
   id="path17696"
   d="m 238.8,84.3 c 1.3,-1 2.5,-1.8 3.7,-2.6 -0.1,1.8 -1.4,2.7 -3.7,2.6 z"
   class="st22" />
		<path
   id="path17698"
   d="m 234.3,88 c 0.5,-1.6 1.5,-2.4 3.2,-2.4 -1,1 -1.6,2.2 -3.2,2.4 z"
   class="st22" />
		<path
   id="path17700"
   d="m 216.3,98.5 c 0.5,-0.7 1,-1.5 2,-1.1 0.3,0.1 0.5,0.5 0.3,0.9 -0.7,0.9 -1.5,0.5 -2.3,0.2 z"
   class="st20" />
		<path
   id="path17702"
   d="m 222.7,96 c -1.1,0.5 -2,0.9 -3,1.4 0.2,-1.6 0.9,-2 3,-1.4 z"
   class="st24" />
		<path
   id="path17704"
   d="m 216.9,113.3 c 2.6,-2.1 5.3,-3.4 8.4,-4.1 -2.4,2 -4.6,4.3 -8.4,4.1 z"
   class="st18" />
		<path
   id="path17706"
   d="m 230.2,106.5 c -0.3,1.6 -0.8,2 -2.9,1.9 0.5,-1.4 1.6,-1.8 2.9,-1.9 z"
   class="st20" />
		<path
   id="path17708"
   d="m 221.9,51.9 c -1.8,2.7 -3.7,5.2 -6.9,6.9 1.7,-3.2 4.3,-5 6.9,-6.9 z"
   class="st16" />
		<path
   id="path17710"
   d="m 214.5,59 c -1.3,2 -4.1,4.6 -5.6,5.1 2,-3.1 3.7,-5.2 5.6,-5.1 z"
   class="st16" />
		<path
   id="path17712"
   d="m 199.5,64.4 c 1.1,-0.3 1.8,-0.6 2.5,-1.1 0.1,-0.1 0.3,-0.2 0.4,-0.2 0.7,-0.2 1.7,-0.5 2,0.3 0.2,0.7 -0.7,0.9 -1.3,1.1 -1.1,0.5 -2.2,0.3 -3.6,-0.1 z"
   class="st17" />
		<path
   id="path17714"
   d="m 67.4,133 c -1.9,-0.7 -2.9,-2.2 -6.6,-9.8 -0.6,0.6 -0.5,1.4 -0.8,2.1 -0.2,0.5 -0.4,1 -1.1,0.7 -0.7,-0.3 -0.8,-0.8 -0.4,-1.3 1.5,-1.9 1.5,-4.2 2.5,-6.5 1.3,5.3 4.2,9.8 6.4,14.8 z"
   class="st0" />
		<path
   id="path17716"
   d="m 74.7,164 c 0.8,0 1.4,0.5 2.1,0.6 0.4,0.1 0.2,0.4 0.1,0.7 -0.3,0.4 -0.6,0.8 -1.2,0.6 -0.8,-0.2 -1.7,-0.4 -2,-1.1 -0.3,-0.7 0.6,-0.7 1,-0.8 z"
   class="st17" />
		<path
   id="path17718"
   d="m 76.1,147.2 c 0.9,0.3 1.8,0.7 2.2,1.5 0.3,0.5 0.4,1.1 -0.2,1.5 -0.6,0.4 -0.9,-0.2 -1.1,-0.5 -0.6,-0.7 -0.9,-1.5 -0.9,-2.5 z"
   class="st16" />
		<path
   id="path17720"
   d="m 72.5,152.4 c -0.1,0.3 -0.1,0.7 -0.3,1 -0.2,0.5 -0.6,0.9 -1.2,0.8 -0.5,-0.1 -0.2,-0.7 -0.3,-1 0,-0.4 0,-0.7 -0.6,-0.9 0.8,-0.2 1.5,-0.4 2,-0.9 0.8,0.1 0.4,0.6 0.4,1 z"
   class="st16" />
		<path
   id="path17722"
   d="m 72.5,152.4 c -0.2,-0.3 0.1,-0.8 -0.3,-1 0.2,-0.1 0.3,-0.8 0.5,-0.1 0.1,0.3 0.1,0.7 -0.2,1.1 z"
   class="st25" />
		<path
   id="path17724"
   d="m 206.5,162.5 c -2,-0.3 -3.6,-1.3 -5.2,-2.8 2.3,0 3.8,1 5.2,2.4 0.2,0.2 0.1,0.3 0,0.4 z"
   class="st20" />
		<path
   id="path17726"
   d="m 206.5,162.5 c 1.9,-1 3.4,-0.2 5.1,1 -1.9,0.4 -3.4,-0.7 -5.1,-1 0,0 0,0 0,0 z"
   class="st1" />
		<path
   id="path17728"
   d="m 184.6,170.7 c 1.1,-0.4 2,-0.1 2.7,0.4 3.6,2.3 7.1,4.7 10.7,7.1 0.3,0.2 0.6,0.3 0.3,0.8 -0.3,0.5 -0.5,0.3 -0.8,0.1 -4.1,-2.6 -8.3,-5.3 -12.4,-7.9 -0.2,-0.1 -0.3,-0.3 -0.5,-0.5 z"
   class="st15" />
		<path
   id="path17730"
   d="m 158.2,213.3 c 3.8,4.5 6.1,9.7 7.4,15.4 -2.9,-4.9 -5,-10.2 -7.7,-15.2 -0.1,-0.2 0,-0.3 0.3,-0.2 z"
   class="st15" />
		<path
   id="path17732"
   d="m 160.7,211.5 c 1.1,-0.1 1.8,0.6 2.4,1.3 1.8,2.2 3.9,6.9 4.2,9.6 -1,-1.1 -1.7,-2.3 -2.3,-3.5 -1.3,-2.5 -2.4,-5 -4.3,-7.2 -0.1,0 0,-0.1 0,-0.2 0,0 0,0 0,0 z"
   class="st14" />
		<path
   id="path17734"
   d="m 158.2,213.3 c -0.1,0.1 -0.2,0.2 -0.3,0.3 -0.3,-0.3 -0.5,-0.6 -0.6,-1 0.6,0 0.7,0.4 0.9,0.7 z"
   class="st26" />
		<path
   id="path17736"
   d="m 147.6,48.9 c -0.3,2.4 -1.5,4.1 -2.6,5.8 -0.9,-1.1 -0.9,-2.3 0,-3.3 0.4,-0.4 0.8,-0.8 1.2,-1.2 0.5,-0.3 0.9,-0.7 1.4,-1.3 z"
   class="st16" />
		<path
   id="path17738"
   d="m 158.2,40.4 c -1.2,0.9 -2,2 -2.8,3.1 -0.1,0.2 -0.3,0.4 -0.6,0.4 -0.3,-0.1 -0.2,-0.4 -0.3,-0.6 -0.3,-2.4 0.7,-3.3 3.7,-2.9 z"
   class="st18" />
		<path
   id="path17740"
   d="m 151.8,44.8 c 0.7,2.4 0.3,3.3 -2.1,4.2 0.7,-1.5 1.4,-2.8 2.1,-4.2 z"
   class="st17" />
		<path
   id="path17742"
   d="m 163.1,100.5 c 1.2,0 2.2,1.3 1.8,2.5 -0.2,0.7 -0.6,1.4 -1.2,1.9 -1.1,1.1 -2.2,1.1 -3.4,0.1 -0.1,-0.1 -0.3,-0.3 -0.3,-0.5 -0.3,-1.4 1.7,-4 3.1,-4 z"
   class="st3" />
		<path
   id="path17744"
   d="m 159.1,111 c 0.6,-0.8 1.1,-1.6 1.5,-2.4 0.5,-1 1.2,-1.3 2.2,-0.9 1.1,0.5 1.7,1.4 1.2,2.5 -0.6,1.7 -1.8,3.2 -3.9,1.3 -0.2,-0.3 -0.6,-0.4 -1,-0.5 z"
   class="st3" />
	</g>
</g>
</svg>
