<?xml version="1.0" encoding="UTF-8" standalone="no"?>
<svg
   xmlns:dc="http://purl.org/dc/elements/1.1/"
   xmlns:cc="http://creativecommons.org/ns#"
   xmlns:rdf="http://www.w3.org/1999/02/22-rdf-syntax-ns#"
   xmlns:svg="http://www.w3.org/2000/svg"
   xmlns="http://www.w3.org/2000/svg"
   xmlns:sodipodi="http://sodipodi.sourceforge.net/DTD/sodipodi-0.dtd"
   xmlns:inkscape="http://www.inkscape.org/namespaces/inkscape"
   inkscape:version="1.0 (4035a4f, 2020-05-01)"
   height="244.56476"
   width="164.69191"
   sodipodi:docname="hare-salient.svg"
   xml:space="preserve"
   viewBox="0 0 164.69191 244.56476"
   y="0px"
   x="0px"
   id="Layer_1"
   version="1.1"><metadata
   id="metadata18445"><rdf:RDF><cc:Work
       rdf:about=""><dc:format>image/svg+xml</dc:format><dc:type
         rdf:resource="http://purl.org/dc/dcmitype/StillImage" /><dc:title></dc:title></cc:Work></rdf:RDF></metadata><defs
   id="defs18443" /><sodipodi:namedview
   inkscape:current-layer="Layer_1"
   inkscape:window-maximized="0"
   inkscape:window-y="25"
   inkscape:window-x="0"
   inkscape:cy="155.52325"
   inkscape:cx="82.539222"
   inkscape:zoom="2.52"
   fit-margin-bottom="0"
   fit-margin-right="0"
   fit-margin-left="0"
   fit-margin-top="0"
   showgrid="false"
   id="namedview18441"
   inkscape:window-height="480"
   inkscape:window-width="820"
   inkscape:pageshadow="2"
   inkscape:pageopacity="0"
   guidetolerance="10"
   gridtolerance="10"
   objecttolerance="10"
   borderopacity="1"
   bordercolor="#666666"
   pagecolor="#ffffff" />
<style
   id="style18318"
   type="text/css">
  .st0{fill:#FFFFFF;}
  .st1{fill:#000000;}
</style>
<g
   transform="translate(-67.460778,-44.476751)"
   id="g18438">
	<g
   id="g18436">
		<path
   id="path18320"
   d="m 195.1,245.7 c 5,4.7 10.2,9.3 17.6,10.3 1.3,0.2 2.1,0.9 2.3,2.2 0.2,1.1 -0.3,2 -1.2,2.5 -7.9,4.6 -15.6,9.8 -23.6,13.7 -6.6,3.2 -13.5,6.3 -20.4,9.3 -3,1.3 -5.9,3.1 -9,4.2 -6.3,2.3 -12.4,0.9 -18.1,-2.2 -4,-2.2 0.8,-3.4 1,-5.4 -3.5,-1.5 -6.9,0.8 -10.3,0.8 -3.9,0.1 -6.4,-2 -9.3,-3.7 -1.2,-0.7 -1.5,-2.3 -0.1,-2.7 3.2,-0.9 5.5,-4.1 9.3,-3.8 7.9,0.6 14.9,-2.1 21.8,-5.4 3.5,-1.7 7,-3.2 11.1,-5 -5.4,-4.3 -10,-9.1 -13.9,-14.7 -7.8,-11.1 -3.9,-20.1 6.4,-25.1 5.2,-2.5 10.3,-10.3 9.3,-14.9 -1,-4.7 -4.4,-8.2 -7.4,-11.8 -5.8,-7.1 -14.4,-10.4 -21.4,-16.1 -4.5,-3.6 -9.3,-6.8 -14.7,-9.1 -4.3,-1.8 -7.9,-4.6 -9.9,-9 -1,-2.2 -2.4,-2.3 -4.3,-1.8 -9.1,2.2 -10.4,1 -13.5,-8 C 94,142 89.1,134.9 85.3,127.4 79.9,116.8 73.1,107 69.2,95.7 66.8,88.8 66.9,81.2 69.4,74 c 0.3,-0.9 0.5,-2.6 2.6,-2.3 5.2,0.9 8.9,6.1 8.1,11.3 -0.8,4.8 0.9,9.2 3.2,13 4.4,7.1 7.6,14.9 13.5,22.1 0.1,-2 0.6,-3.6 0.2,-4.7 -2.2,-5 -2.3,-10.6 -2.6,-15.7 C 93.8,87.4 90.8,77.3 91.2,67 c 0.2,-5.7 0.1,-11.5 3.6,-16.8 1.8,-2.7 3,-2.5 4.8,-1.2 3.3,2.3 5.1,5.5 3.2,9.4 -1.8,3.8 -0.3,7.4 0.3,11 1.6,9.9 2.3,19.9 5,29.6 0.4,1.5 1.2,3 1.9,4.9 6.2,-5.3 12.4,-9.8 19.8,-12.2 1,-0.3 1.7,-0.9 0.9,-1.6 -1.8,-1.5 -0.2,-5 -3.7,-5.5 -10.8,-1.4 -14.7,-8.9 -9.8,-18.4 1.4,-2.7 3.1,-5.1 5.4,-7.3 -0.8,1.8 -1.5,3.6 -2.3,5.5 3,1.1 2.5,-5.7 6.1,-2.8 3.4,-4.4 10.5,-1.1 13.5,-6.3 0.2,-0.3 1.1,-0.6 1.2,-0.5 3.8,3.8 9.1,-0.4 13.1,2.6 1.3,1 2,-0.7 2.8,-1.3 7.3,-5 15,-9.4 23.9,-10.9 8.2,-1.4 16.6,-0.3 24.9,-0.5 1.2,0 2,1 2.1,2.3 0.1,1.4 0,3.1 -1.4,3.4 -3.9,0.8 -4.9,4.4 -7.6,6.8 4.8,1.9 9.4,3.9 14.5,3.4 1.6,-0.2 3,0.2 3.4,2 0.3,1.5 -0.5,2.4 -2,3 -8.2,3.1 -15.5,8.3 -24.3,10.2 -6.7,1.5 -12.9,0.2 -19.5,-1.1 -0.1,2.9 -0.2,5.6 0.5,8.6 1.3,6.1 -1.8,11.7 -3.4,17.4 -2.3,8.2 -2.3,16.1 2,23.6 5.6,9.6 12.5,18.3 19.6,26.7 10.2,12.1 17.1,26 23.2,40.4 2.6,6.2 3.9,12.6 5.6,18.9 0.5,2 0.6,4.2 -0.3,6.3 -1,2.2 -0.3,4.4 0.1,6.6 2,-5.5 1.8,-11.1 0.8,-16.7 -0.3,-1.5 -0.6,-3 -0.3,-4.3 0.5,-2.7 1.8,-4.3 5.1,-2.7 4,1.9 6.2,4.9 7.4,9 2.6,8.9 -0.9,19.3 -8.4,24.4 -1,0.7 -1.9,0.8 -2.8,0.6 -9.5,-1.5 -15.8,4.5 -22.5,9.6 -0.5,1.1 -1.4,1.8 -2.5,2.6 z"
   class="st1" />
		<path
   id="path18322"
   d="m 206.9,211.9 c -0.5,5.2 -4.7,8 -8.5,12.3 5.5,-1.7 6.8,-6.5 11,-9.8 -1.7,4.8 -4.8,7.3 -8.2,11.2 5.5,-1.7 6.6,-6 9.5,-8.6 0.6,5.6 -5.9,6.8 -6.4,11.5 -2.3,0.2 -0.4,-2.6 -2.2,-2.5 -2,0.1 -0.7,1.9 -1.4,2.7 -1.1,1.1 -0.9,3.2 -3.2,3.3 -2.8,0.2 -2.6,2.7 -4.3,5.5 6.1,-2.7 9.5,-7.2 15.9,-9.6 -5.1,6 -11,8.8 -16.7,12.5 0.2,-1.3 0.2,-2.2 0.3,-3 -3.2,1 -6.3,1.9 -9.6,2.9 2.5,2.7 6.7,-2.7 8.6,2.7 -5.3,-2.2 -10.6,0.3 -15.7,-1.5 1.2,2.3 3.2,1.8 4.7,1.5 3.1,-0.7 4.7,2.2 7.2,2.6 0.1,0 0.3,0.2 0.3,0.4 0.2,1.4 -2,3.2 -0.4,3.9 1.2,0.5 3.5,-1.6 5,-0.3 1.7,1.6 2.8,3.8 5.7,3.7 -0.6,1.7 -2.3,0.1 -3,1.3 4.2,4 10.3,2.7 15.2,5.1 -5,5.4 -14,4.4 -17.8,11.5 -2.1,-1.5 0.9,-2.3 -0.4,-3.8 -4.5,4.1 -10.1,7.1 -15.6,9.1 -9.1,3.3 -16.1,12.8 -27.2,9.3 10.8,-6.8 21.5,-14 33.8,-19 4.7,-1.9 9.1,-1.7 13.6,-2.4 2.7,-0.4 3.9,-2.3 6,-3.3 -4.7,1.1 -9.3,1.1 -13.9,1.2 -2.2,0 -3.6,-0.5 -5.3,-2.2 -1.4,-1.4 -4.6,-0.6 -7,-1.7 -1,-0.5 -2.1,-0.8 -2.9,-1.6 -0.5,-0.6 -1.4,-1.2 -0.8,-2.1 0.6,-0.8 1.7,-0.7 2.3,-0.2 3.5,2.8 8.9,1.2 12,5.3 0.5,0.7 3.5,-0.5 5.4,-0.8 -1.5,-3 -4.3,-1 -6.4,-2 0.6,-1.4 2.5,0 3.3,-1.5 -3.5,0.1 -6.6,-0.9 -10.3,-1.7 1.9,-2.6 5.3,-0.1 6.5,-3.5 -1.7,1.4 -3.1,-2.7 -5.1,0.9 -0.6,1.2 -3.6,-0.5 -5.2,-1.6 -0.7,-0.5 -1.3,-1.8 -2.5,-0.8 -2.3,1.9 -2.1,1.7 -4.7,-0.3 -3,-2.3 -5.5,-5 -7.8,-7.9 -5.3,-6.9 -2.7,-17.5 5.2,-21.2 2.6,-1.2 4.4,-3.6 6.1,-5.7 1.1,-1.4 2.7,-2.8 3,-4.9 0.3,-2.2 3.7,1.6 3.7,-2.2 -0.6,4 -0.8,7.7 -3.8,10.6 4.7,0.9 4.8,-3.1 5.6,-5.1 0.9,-2.2 1.9,-5.6 -0.7,-7.6 -1.3,-1 -1.3,-1.6 -0.9,-3 1,-4 -2.5,-6.8 -3.2,-10.4 -0.3,-1.7 -0.3,-3.5 -1,-5.6 -1.9,1.7 -3.9,2.7 -2.3,6 1.1,2.2 1,5 0.2,7.7 -2,-5.6 -2.3,-11.1 -0.7,-16.6 0,-0.2 2,-4.4 -2,-1.8 -1.4,1 -1,-1.6 -0.9,-1.7 2.6,-3.2 -1.3,-5 -1.5,-7.5 0,-0.3 -1.5,0.2 -1.1,-0.9 0.4,-1.2 1.4,-3.1 -0.5,-3 -2.4,0.1 -1.9,2.5 -1.8,4.3 0.5,5.7 4,10.9 3.4,16.9 1.1,-4.5 -5.2,-6.2 -3.5,-10.9 -1.5,2.6 -1.5,2.6 -2.2,5.1 -0.4,-2.4 -0.8,-4.8 -1.4,-8.1 -0.6,5.1 -1.3,9.3 3.5,12.7 -4.9,-0.8 -4.7,-5 -6.7,-7.5 -2.5,1.7 1.3,3.5 -0.7,4.9 -2.6,-2.5 -0.4,-7.2 -3.9,-9.3 -2.8,2.4 -1.3,4.7 1,7.2 -3.2,-0.2 -4.5,-3.5 -4.2,-4 2.5,-3.3 -2.8,-4.8 -1.5,-7.7 0,-0.1 -0.7,-0.7 -1,-0.7 -0.8,0 -1.1,0.7 -0.7,1.4 0.5,0.9 1.1,1.6 0.7,2.8 -1.7,-0.7 -2.9,-2.2 -3.7,-3.8 -0.7,-1.4 -0.6,-3 -2.8,-1 -0.5,0.5 -1.8,-2.3 -2.3,-3.6 -0.4,-1.2 -0.4,-2.9 -2,-2.3 -1.8,0.6 -0.9,2 -0.2,3.2 0.5,0.8 0.8,1.7 1.2,2.7 -4.2,0.2 -4.4,-0.1 -3.3,-3.2 0.8,-2.1 -0.8,-4 -1.3,-6 -1.2,0.9 -3.7,0.5 -2.7,3.6 -1.7,-2.8 1.2,-5.5 -0.7,-7.6 -1.7,-1.9 -1.8,-4 -1.9,-6.3 0,-0.7 -2,-1.7 -2.1,-0.4 -0.2,2.2 -3.7,4 -0.3,6.7 2.8,2.2 1.4,6 2.3,9.5 -4.2,-2.5 0,-8.6 -6.3,-10.2 2,2.8 2.6,5.3 1.7,8.1 -0.6,-0.9 -1.3,-1.5 -1.5,-2.3 -0.5,-2.2 -0.3,-6.3 -2.4,-6 -2.3,0.4 -4.5,-0.7 -6.4,-0.1 -3.9,1.3 -6.5,1.2 -7.5,-3.4 -0.3,-1.4 -2.6,-0.8 -2.7,-2.7 1,-0.1 2.1,-0.3 3.8,-0.5 -3,-1.8 -6.2,-2.2 -8.6,-5.4 2.4,0.4 4.2,1.1 6.5,0.2 -8.3,-2.1 -11.2,-9.1 -14.7,-15.2 -5.5,-9.4 -8.8,-19.9 -15.8,-28.4 -0.5,-0.6 -1,-1.4 -1.1,-2.1 -0.6,-6.5 -1.1,-13 -1,-19.7 1.9,4.1 5.2,7.1 5.9,12 0.8,5.5 4.6,10.2 7.4,15 4.1,6.9 7.9,14 13.1,20.1 3.3,3.9 4.4,8.3 5.6,13.1 0.7,2.9 2.2,5.8 4.6,8.4 3.1,3.3 5.6,3.6 8.7,0.7 -1.6,-1.8 -4,2.4 -5.1,-0.5 -0.9,-2.4 3,-1.3 3,-3.7 -1,-1.5 -1.9,1.6 -3.4,0.3 1.2,-1.5 2.5,-3 4.4,-3.9 -2.3,-0.2 -2.3,-0.2 -4.6,1.3 0.1,-2.9 3.1,-3.5 3.7,-5.8 0.1,-1.1 -4.9,2.3 -1.7,-1.7 0.6,-0.7 1.2,-1.4 2.7,-3 -4.2,1.5 -5.6,4.1 -7.7,5.9 4,-7.8 8.9,-14.5 19.8,-15.7 -6.2,-1.7 -10.3,1 -14.6,3 -0.5,-1.7 0.9,-2.2 1.6,-2.9 1.1,-1 4.1,-1.4 0.4,-3.3 -1,-0.5 0.4,-1.6 1.1,-2.3 1.4,-1.5 3.3,-1.9 5.2,-2.5 -0.2,-0.2 -0.3,-0.5 -0.4,-0.6 -1.7,-0.8 -4.6,1.1 -4.8,-0.3 -0.5,-2.9 3.1,-2.4 4.7,-3.8 0.4,-0.3 1.3,0.1 1.7,-0.7 -4.6,-1.7 -7.9,3.3 -13.1,2.4 5,-3.8 8.2,-8.6 13.9,-11 2.9,-1.2 5.5,-0.6 8.3,-0.8 1,-0.1 1.9,-0.5 1.9,-1.6 0,-0.3 -1.4,-0.5 -3.2,-1 2.9,-0.1 4.1,-1.5 5.2,-2.3 2.6,-0.4 -3,4.6 2.1,2.2 -0.4,0.9 2.3,1.6 -0.1,3 -2,1.1 -4.3,-0.1 -6.3,1.3 4.5,1.1 8.7,0.3 12.5,-1.1 1.5,-0.6 2.9,-2.7 4.4,-4.1 0.7,-0.6 1.7,-0.8 2.5,0.1 -2.6,1.3 0.3,1.7 0.5,2.6 0.3,1.6 1.3,0.6 2.2,0.2 1.4,-0.6 2,-0.7 0.2,-1.7 -0.5,-0.3 1.1,-1.1 1.7,-1.7 2.8,-2.7 7.2,-4.4 6.9,-9.5 -2.4,0.1 -1.8,2.6 -3.2,3.3 -0.7,0.4 -6.3,1.7 -7.2,1.5 -0.5,-0.1 -0.8,-0.4 -1.3,0.5 -2.6,4.5 -5,4.9 -10.3,2.9 -6.1,-2.2 -8.6,-6.3 -8.6,-12.7 0,-2.7 -3.3,-3.8 -5,-6 -1,2.6 1.9,2.9 2.1,4.9 -2.7,0 -5.4,0.3 -8.1,-0.1 -1.7,-0.2 -3.2,-1.8 -3.4,-3.6 -0.2,-1.6 2.1,-1.2 2.8,-2.2 1.1,-1.6 4.6,0.3 4.5,-3 -1.6,0.6 -3.2,1.3 -4.9,1.9 -0.1,0 -0.2,-0.2 -0.7,-0.6 3.1,-5.1 8.2,-7.3 13.4,-9.3 7,-2.6 14,-6 21.7,-2.1 0.7,0.3 1.7,0 2.2,0.9 3.6,5.6 8.8,2.8 12.7,1.5 11.6,-3.8 23,-5.4 34.7,-0.4 2.8,1.2 5.8,1.5 9,1.4 -5.7,2.8 -10.2,7.2 -16.3,9 -6.1,1.7 -12.4,3.2 -18.6,2.5 -3.8,-0.5 -7.2,-3.2 -11.5,-2.8 -3.3,0.3 -4.9,0.9 -2.2,3.8 3.3,3.5 1.2,6.6 -0.1,9.8 -0.3,0.8 -1.6,1.4 -0.4,2.6 2.5,-0.5 1.6,-3.7 4.8,-5.1 -0.9,11.3 -4.8,21.3 -6.6,31.7 -0.2,1.5 2.4,-1.9 2.2,1.2 -0.3,7.2 4.6,12.1 8,17.6 7.2,11.6 16.5,21.8 24.6,32.7 5.6,7.6 8.1,16.7 12.2,25 2.6,5.3 4.8,10.7 5.9,16.7 0.7,3.6 0.8,6.9 0.2,10.3 -0.3,1.7 -0.8,3.1 -0.1,5 1.3,3.1 -3.7,2.6 -3.4,5.4 -0.8,-0.3 -1.5,-0.9 -1.4,-1.8 0,-0.6 0.2,-1.3 0.5,-1.8 4.4,-6.2 2.7,-11.7 -1.6,-17.1 -0.1,-0.2 -0.3,-0.3 -0.4,-0.5 0.1,-2.3 -1.6,-4.2 -1.4,-6.5 0.8,-1.2 1.2,-3.1 -0.4,-3.2 -2.3,-0.2 -1.6,2.8 -3.1,4.5 1.5,-1.5 0.8,-4.4 3.3,-4 1.1,0.2 0.8,1.6 0.3,2.5 -0.9,1.3 -0.1,3 -1,4.3 1,0.5 -3.5,2 0.5,2.3 1.3,0.1 0.7,1.9 0.2,3 -0.7,1.5 -2.4,2.3 -3,3.8 -0.4,0.6 0.7,0.6 0.1,0.2 -0.1,-0.1 -0.1,-0.2 0.1,-0.5 0.5,-0.9 1.1,-1.6 2.1,-2 0.6,-0.3 0.8,-0.2 1,-0.2 z"
   class="st0" />
		<path
   id="path18324"
   d="m 184.5,54.3 c 1.6,0.6 2.3,0.8 3.1,1.1 -0.4,0.3 -0.6,0.6 -0.7,0.5 -7.4,-1.1 -14,1.9 -20.7,4.1 -2.8,0.9 -5.3,1.3 -8.2,-0.7 7.6,-6.8 16.5,-11 26.6,-12.3 5.6,-0.7 11.3,-0.1 17,-0.1 0.9,0 2.1,-0.5 2.3,1 0.1,0.6 -0.1,1.6 -0.4,1.7 -0.8,0.3 -1.8,0.6 -2.5,-0.7 -0.9,-1.7 -1.8,0.1 -2.6,0.2 -1,0.4 -11.9,5.1 -13.9,5.2 z"
   class="st0" />
		<path
   id="path18326"
   d="m 130.1,277.5 c 1.8,-1 3.6,-1.9 6,-3.2 -3.5,-1.1 -5.8,3.2 -9.3,0.9 7.9,-3.6 16.8,-2.1 24.4,-6 6.8,-3.5 14.3,-6.2 22.8,-7.7 -1.7,2.5 -4.1,0.3 -5.2,2.9 2.1,1.3 4.6,0.1 7,0.9 -2.3,1.8 -5.2,0.5 -7.1,1.8 -2.5,1.7 -2.3,2.1 -5,1.2 -1.2,-0.4 -2.2,-0.3 -3.3,-0.1 0.1,1.5 1.9,0.1 2.1,1.4 -2.2,1.2 -5.3,-1 -7.2,1.6 0.5,1.3 1.6,0.6 2.4,0.7 1.1,0.2 2,0.7 1.9,1.7 0,0.5 -1.2,1.1 -1.9,1.2 -6.7,1.1 -13.1,4.6 -20.3,2.2 -2.1,-0.6 -4.5,4.1 -7.3,0.5 z"
   class="st0" />
		<path
   id="path18328"
   d="m 97.1,52.1 c 3.9,5.9 0.5,12.4 2.2,17.9 1.8,5.7 2.9,11.3 2.6,17.1 -0.1,3.1 0.6,6.9 -3.8,8.6 0.6,-1.7 -0.2,-3 -0.8,-4.5 -1.6,-3.9 -2.2,-8.5 -2.2,-12.8 0.1,-5.3 -3.3,-10.9 0,-15.8 2.3,-3.3 0.1,-7.3 2,-10.5 z"
   class="st0" />
		<path
   id="path18330"
   d="m 215,231.7 c 0.3,-2.2 1.6,-3.4 2.8,-3.8 5.9,-2.3 4.8,-8.4 7.2,-12.5 -3.6,-2.4 -0.9,-6.4 -2.3,-9.3 -0.7,-1.5 -1.5,-3.4 0.5,-4 2,-0.6 3,1.3 3.9,3 3.1,6 2.6,12.3 2,18.7 -0.1,1 -0.7,1.4 -1.3,1.9 -5.8,4.5 -5.8,4.5 -12.8,6 z"
   class="st0" />
		<path
   id="path18332"
   d="m 154.4,231.1 c -1,4.2 1.7,7.1 3.3,10.6 1.7,3.7 6.4,5.4 6.3,10.2 -8.6,-4.1 -14.5,-17.2 -9.6,-20.8 z"
   class="st0" />
		<path
   id="path18334"
   d="m 106.9,129 c -0.5,-0.3 -1.7,0.6 -1.5,-1 0.2,-1.1 3.2,-3.1 -0.9,-3.2 -0.5,0 -0.9,-1.3 -0.2,-1.5 2.7,-0.7 1.8,-4.1 4.5,-5.1 0.7,3.4 -1.8,6.5 -0.8,9.7 0.3,1 -0.1,1.4 -1.1,1.1 z"
   class="st0" />
		<path
   id="path18336"
   d="m 153.7,280.1 c -1.4,2 -3.1,3.1 -5.7,2.9 1.4,-2.9 4.1,-1.5 5.7,-2.9 z"
   class="st0" />
		<path
   id="path18338"
   d="m 123.1,81.3 c 1.9,-0.4 3.5,-0.8 4.6,1.2 -1.7,0.9 -3.2,0.9 -4.6,-1.2 z"
   class="st0" />
		<path
   id="path18340"
   d="m 110.8,115.7 c -0.4,0.3 -0.9,0.7 -1.5,1.1 -0.4,-0.6 -1.1,-1.2 -1.2,-1.9 -0.1,-0.9 0.8,-0.8 1.4,-0.8 0.8,-0.1 1.6,0 1.3,1.6 z"
   class="st0" />
		<path
   id="path18342"
   d="m 101.1,100.4 c -0.1,-2.7 1.5,-3.2 2.9,-4.7 0,2.6 -1.6,3.1 -2.9,4.7 z"
   class="st0" />
		<path
   id="path18344"
   d="m 208.9,207.9 c 0.2,1.8 0.3,3.5 -2,4 0,0 0.2,0.1 0.2,0.1 -0.8,-2.1 -0.5,-3.6 2,-4 z"
   class="st0" />
		<path
   id="path18346"
   d="m 106.9,129 c 0.4,-0.4 0.8,-0.8 1.2,-1.2 0.6,0.2 1.2,0.3 1.7,0.5 -0.8,0.8 -1.6,1.6 -2.4,2.4 -0.2,-0.5 -0.3,-1.1 -0.5,-1.7 z"
   class="st0" />
		<path
   id="path18348"
   d="m 184.6,68.4 c -1,-0.1 -2.2,-0.6 -2.8,-0.2 -1.4,1 1.8,0.9 0.7,1.5 -1.9,1.2 -3.3,-1.3 -5.5,-1.2 0.3,2.3 3.5,1.8 3.5,4.7 -4.9,-2.1 -8.8,-7.5 -15.2,-5.4 13.8,-1.9 27,-9.9 41.5,-2.8 -2.6,0.4 -5.2,0.5 -7.5,-0.4 -1.2,-0.4 -2.2,-0.4 -3.3,-0.5 -1.1,-0.1 -2.2,0.3 -2.4,1.3 -0.3,1.5 2.2,-0.1 2.1,1.2 -3.5,2.7 -8.2,-3.6 -11.1,1.8 z"
   class="st1" />
		<path
   id="path18350"
   d="m 139.4,141.2 c 0.8,4 3,7.1 -0.6,10.1 5.2,2.7 3.2,-4.7 6.9,-4.2 -1.8,4.3 2.3,8.5 -0.1,13 -3.3,-0.9 -3.7,-3 -2.2,-6.4 -3.3,1.5 -5.9,2.6 -8.4,3.9 -1.2,0.6 -2.1,0.6 -3.1,-0.2 -1.1,-0.9 -0.2,-1.3 0.2,-2 2.2,-4.5 4.5,-9 7.3,-14.2 z"
   class="st1" />
		<path
   id="path18352"
   d="m 143.1,61.4 c -1.1,0.8 -1.9,1.5 -3,2.3 0.6,0.1 1.1,0.4 1.4,0.3 3.9,-0.9 7,1.4 9.1,3.6 1.5,1.6 -0.9,4.7 -2.9,5.9 -2.1,1.3 -4.7,0.8 -7,-0.5 -2.7,-1.6 -2.7,-5 -4.8,-7.1 2.6,-1.2 2.8,-5.8 7.2,-4.5 z"
   class="st1" />
		<path
   id="path18354"
   d="m 209.1,208.1 c -1.2,1.1 -2.3,2.2 -2,4 -3.2,0.7 -2,5.5 -6,6 0.6,-4.4 5.1,-6.5 6,-10.9 -2.5,0.5 -1.9,4.2 -5.1,3.6 1.9,-3.2 2.9,-6.7 5.4,-9.5 l -0.1,-0.1 c 3.3,1.5 1.6,4.4 1.8,6.9 z"
   class="st1" />
		<path
   id="path18356"
   d="m 162.7,91.3 c 3.2,3.2 0.2,5.3 -1.7,7.1 -2.1,1.9 -4.7,3.2 -7.4,4.8 -0.3,-3.8 2.6,-5.4 4.7,-6.8 2.2,-1.4 3.6,-3 4.5,-5.3 z"
   class="st1" />
		<path
   id="path18358"
   d="m 153.6,166.7 c -4.5,1.5 -4.9,-2.6 -6.5,-4.8 -0.6,-0.7 0,-2.1 1.1,-2.4 1.4,-0.3 0.4,1.4 0.9,1.5 2.7,1 3.4,3.5 4.5,5.7 z"
   class="st1" />
		<path
   id="path18360"
   d="m 207.3,201.3 c -0.2,-1 -0.4,-1.9 -0.6,-3 -2.3,2.1 -1.4,5.9 -4.9,7.8 1.3,-4.1 2.5,-7.6 3.7,-11.1 0.8,2.1 5.9,3.1 1.7,6.2 0,0 0.1,0.1 0.1,0.1 z"
   class="st1" />
		<path
   id="path18362"
   d="m 188.3,200.4 c -2.5,-3.3 -3.1,-6 -1.8,-9 1.4,0.1 -0.4,2.3 2.5,2.7 3,0.4 -0.7,3.5 -0.7,6.3 z"
   class="st1" />
		<path
   id="path18364"
   d="m 197.5,180.6 c 0.5,-3.1 -2.3,-5.5 -1.9,-8.5 2.2,2.5 4.7,4.9 1.9,8.5 z"
   class="st1" />
		<path
   id="path18366"
   d="m 201.5,199.8 c -0.9,-1.3 -0.5,-2.4 0.6,-3.4 0.8,-0.8 1.9,-1.7 -0.1,-2.4 -1.5,-0.6 -1,-1.4 -0.2,-2.1 0.2,-0.2 1,-0.9 0.9,-0.4 -0.1,1.5 2.3,1 1.8,2.6 -0.8,2 -0.9,4.4 -3,5.7 z"
   class="st1" />
		<path
   id="path18368"
   d="m 139.6,85.9 c 2.1,3.6 6.2,1.6 10.1,3.2 -7,1.4 -7,1.4 -10.1,-3.2 z"
   class="st1" />
		<path
   id="path18370"
   d="m 134.2,74.8 c 3.7,0.6 6.3,2.3 8.2,5.4 -2.8,-1.8 -5.5,-3.6 -8.2,-5.4 z"
   class="st1" />
		<path
   id="path18372"
   d="m 170.2,244.3 c 3.8,-1.2 6.9,1.4 10.4,1.2 -3.5,0.3 -7.1,1.5 -10.4,-1.2 z"
   class="st1" />
		<path
   id="path18374"
   d="m 114.1,151.5 c 1.8,-1.1 3.6,-2.2 5.8,-3.6 -2.1,4.9 -2.8,5.3 -5.8,3.6 z"
   class="st1" />
		<path
   id="path18376"
   d="m 135.3,83.1 c 2,1.4 2.4,3.6 3.5,5.7 -3.1,-1.5 -3.3,-1.7 -3.5,-5.7 z"
   class="st1" />
		<path
   id="path18378"
   d="m 199.9,187.1 c -4.5,-1.8 1,-4.1 -0.4,-6 3,2 -0.5,4.1 0.2,6.2 z"
   class="st1" />
		<path
   id="path18380"
   d="m 158.9,171.9 c 0,2.3 0.8,4.1 -1.1,5.8 -1.2,-2.1 -1.4,-3.9 1.1,-5.8 z"
   class="st1" />
		<path
   id="path18382"
   d="m 190.5,203.6 c -1.1,0.3 -2.9,1.4 -2.2,-1.2 0.4,-1.4 1.4,-2.7 2.2,-4 1.6,1.7 -0.6,3.4 0,5.2 z"
   class="st1" />
		<path
   id="path18384"
   d="m 199.8,187.3 c 0.8,0.1 2.5,-2.5 2.2,0.7 -0.2,1.8 -2.4,2.3 -2.5,5.6 -1.6,-3.5 1.2,-4.6 0.5,-6.4 -0.1,-0.1 -0.2,0.1 -0.2,0.1 z"
   class="st1" />
		<path
   id="path18386"
   d="m 155.9,105.2 c 0.5,-2.6 2.3,-3.6 4.8,-3.6 -1.5,1.2 -3.1,2.4 -4.8,3.6 z"
   class="st1" />
		<path
   id="path18388"
   d="m 188,225 c 0.8,-1.1 1.6,-2.3 2.4,-3.4 1.4,2.5 0.4,3.8 -1.5,4.4 -0.3,-0.4 -0.6,-0.7 -0.9,-1 z"
   class="st1" />
		<path
   id="path18390"
   d="m 154.4,113.9 c -0.9,2.5 -2.6,3.8 -6.3,4 2.7,-1.7 4.5,-2.9 6.3,-4 z"
   class="st1" />
		<path
   id="path18392"
   d="m 190.4,207.2 c 1.3,3.9 -0.9,4.7 -3.4,6.9 0.8,-3.3 3.3,-3.9 3.4,-6.9 z"
   class="st1" />
		<path
   id="path18394"
   d="m 133.9,117.5 c -3.7,0.7 -6.1,0.7 -9.7,0 3.6,-0.7 6,-0.7 9.7,0 z"
   class="st1" />
		<path
   id="path18396"
   d="m 119.4,104.5 c 3.1,-0.4 4.8,-2.3 7.4,-1 -2.2,0.6 -4,2.1 -7.4,1 z"
   class="st1" />
		<path
   id="path18398"
   d="m 184.5,68.4 c 2.7,-0.8 5.3,-0.5 8,0.1 -2.6,0.5 -5.3,1.1 -7.9,-0.2 0,0.1 -0.1,0.1 -0.1,0.1 z"
   class="st1" />
		<path
   id="path18400"
   d="m 190.8,214.8 c 0.3,2.2 -0.7,3.2 -1.7,4.1 -0.1,0.1 -1,-0.4 -1,-0.7 0,-1.6 1.5,-2 2.7,-3.4 z"
   class="st1" />
		<path
   id="path18402"
   d="m 190.4,203.6 c 1.4,2.9 -1.1,3.3 -3.1,4 1,-1.3 2.1,-2.7 3.1,-4 0.1,0 0,0 0,0 z"
   class="st1" />
		<path
   id="path18404"
   d="m 128.4,101.3 c 2,0 3.9,0 5.9,0 0,0.1 0,0.3 0,0.4 -2,0 -3.9,0 -5.9,0 0.1,-0.2 0.1,-0.3 0,-0.4 z"
   class="st1" />
		<path
   id="path18406"
   d="m 172.8,233.4 c -1,2 -2.6,1.8 -4.3,1.5 1.2,-1.2 2.2,-2.4 4.3,-1.5 z"
   class="st1" />
		<path
   id="path18408"
   d="m 150.8,113.4 c -1.2,2 -2.8,1.7 -4.7,1.3 1.6,-0.9 2.7,-2.4 4.7,-1.3 z"
   class="st1" />
		<path
   id="path18410"
   d="m 190,167 c 0.9,0.1 0.9,0.7 1,1.4 0,0.9 -0.2,1.7 -1.3,1.5 -0.7,-0.1 -0.8,-0.9 -0.7,-1.6 0.1,-0.6 0.2,-1.2 1,-1.3 z"
   class="st1" />
		<path
   id="path18412"
   d="m 126.3,71.7 c 2.9,0.6 3.7,1.7 4.6,3.3 -2.2,-0.1 -2.8,-1.4 -4.6,-3.3 z"
   class="st1" />
		<path
   id="path18414"
   d="m 167.4,230.2 c 1.7,0 3.4,0 6.2,0 -2.8,1.1 -4.5,0.8 -6.2,0 z"
   class="st1" />
		<path
   id="path18416"
   d="m 130.2,114.6 c 1.4,-0.8 2.4,-2.1 4.5,-1.3 -1.4,1 -2.4,2.3 -4.5,1.3 z"
   class="st1" />
		<path
   id="path18418"
   d="m 154.9,123 c 0.3,-2.7 1.9,-2 3.3,-3 -0.6,2.6 -2,2.1 -3.3,3 z"
   class="st1" />
		<path
   id="path18420"
   d="m 154.4,84.4 c -2,0.7 -3.2,1 -5.6,-1.1 2.5,0.5 3.7,0.8 5.6,1.1 z"
   class="st1" />
		<path
   id="path18422"
   d="m 162.8,91.1 c -0.5,-0.1 -1.3,-0.2 -1.3,-0.3 0.2,-1.9 1.4,-2 3.2,-1.6 -0.4,1.1 -2,0.9 -2,2.1 0,0 0.1,-0.2 0.1,-0.2 z"
   class="st1" />
		<path
   id="path18424"
   d="m 146.7,61.4 c 2.3,-0.4 3.6,-0.8 5,0.2 -1.5,0.6 -2.8,0.6 -5,-0.2 z"
   class="st1" />
		<path
   id="path18426"
   d="m 169.7,225.6 c 1.7,-0.4 2.4,-1.8 3.9,-1.5 -0.3,1.9 -1.5,2.1 -3.9,1.5 z"
   class="st1" />
		<path
   id="path18428"
   d="m 171.1,221.5 c 1.3,-0.7 2.2,-1.2 3.1,-1.7 0.2,0.4 0.5,0.7 0.5,0.8 -0.8,1.3 -1.8,1.8 -3.6,0.9 z"
   class="st1" />
		<path
   id="path18430"
   d="m 184,54.4 c -2.1,0.8 -3.8,0.7 -6.1,0.1 2.3,-0.8 4,-0.6 6.1,-0.1 z"
   class="st1" />
		<path
   id="path18432"
   d="m 151,272.8 c -0.1,1 -0.7,1.4 -1.3,1.1 -0.5,-0.2 -1.2,-0.8 -1.3,-1.3 -0.1,-0.9 0.8,-0.5 1.3,-0.6 0.7,0 1.3,0.2 1.3,0.8 z"
   class="st1" />
		<path
   id="path18434"
   d="m 144.2,65 c 0.7,1 2.6,0.4 2.7,2.1 0,0.9 -0.9,1 -1.4,0.8 -1.1,-0.4 -2.1,-1 -3.2,-1.5 0.4,-0.7 0.9,-1.3 1.9,-1.4 z"
   class="st0" />
	</g>
</g>
</svg>
