<?xml version="1.0" encoding="UTF-8" standalone="no"?>
<svg
   xmlns:dc="http://purl.org/dc/elements/1.1/"
   xmlns:cc="http://creativecommons.org/ns#"
   xmlns:rdf="http://www.w3.org/1999/02/22-rdf-syntax-ns#"
   xmlns:svg="http://www.w3.org/2000/svg"
   xmlns="http://www.w3.org/2000/svg"
   xmlns:sodipodi="http://sodipodi.sourceforge.net/DTD/sodipodi-0.dtd"
   xmlns:inkscape="http://www.inkscape.org/namespaces/inkscape"
   inkscape:version="1.0 (4035a4f, 2020-05-01)"
   height="104.22296"
   width="189.98288"
   sodipodi:docname="hare2.svg"
   xml:space="preserve"
   viewBox="0 0 189.98288 104.22296"
   y="0px"
   x="0px"
   id="Layer_1"
   version="1.1"><metadata
   id="metadata942"><rdf:RDF><cc:Work
       rdf:about=""><dc:format>image/svg+xml</dc:format><dc:type
         rdf:resource="http://purl.org/dc/dcmitype/StillImage" /><dc:title></dc:title></cc:Work></rdf:RDF></metadata><defs
   id="defs940" /><sodipodi:namedview
   inkscape:current-layer="Layer_1"
   inkscape:window-maximized="0"
   inkscape:window-y="25"
   inkscape:window-x="0"
   inkscape:cy="112.35116"
   inkscape:cx="88.039141"
   inkscape:zoom="2.2266667"
   fit-margin-bottom="0"
   fit-margin-right="0"
   fit-margin-left="0"
   fit-margin-top="0"
   showgrid="false"
   id="namedview938"
   inkscape:window-height="1254"
   inkscape:window-width="1797"
   inkscape:pageshadow="2"
   inkscape:pageopacity="0"
   guidetolerance="10"
   gridtolerance="10"
   objecttolerance="10"
   borderopacity="1"
   bordercolor="#666666"
   pagecolor="#ffffff" />
<style
   id="style833"
   type="text/css">
  .st0{fill:#FFFFFF;}
  .st1{fill:#000000;}
</style>
<g
   transform="translate(-61.960859,-87.648838)"
   id="g935">
	<g
   id="g933">
		<path
   id="path835"
   d="m 94.8,185 c -2.6,0 -4.6,-0.1 -6.6,0 -1.5,0.1 -2.7,-0.4 -3.1,-1.8 -0.5,-1.5 0.5,-2.5 1.6,-3.4 4,-3.3 8.4,-5.8 14.2,-5.2 -3.3,-1.3 -5.6,-3.6 -8,-5.6 -1.6,-1.4 -3.1,-1.4 -4.7,0.3 -4.9,5.1 -11.4,4.3 -17.2,3.3 -3,-0.5 -6.7,-4.4 -6.7,-7.9 0.1,-7 -2.7,-13.5 -2.3,-20.5 0.2,-3.9 1.7,-7.7 1.4,-11.7 1.6,7.6 -2.6,15.6 2.4,23.3 2.9,-8.1 -0.8,-16.9 4,-24.3 1,4.7 -1.7,9.1 -1.9,14.3 4.8,-5.7 3.4,-12.9 6.6,-18.9 1.2,3.5 -1.4,5.9 -1.4,9.4 4.5,-6.1 9.7,-10.6 15.5,-14.6 6.6,-4.5 8.6,-12.4 12.9,-18.7 4,-5.9 8.6,-11.6 15.4,-14.4 2.4,-1 5.5,-1.7 7.4,0.5 1.9,2.3 -0.2,4.4 -1.5,6.5 -2.2,3.8 -4.1,7.8 -5.4,12.4 4.9,-3.3 9.8,-6.5 14.7,-9.8 1.1,-0.7 2.1,-1.5 3.3,-2.1 1.7,-0.8 3.5,-2.2 5.5,-0.7 1.9,1.5 0.8,3.7 1,5.6 0.1,0.9 -1.6,1.6 -0.5,2.5 0.8,0.7 1.8,0.2 2.7,-0.3 13.3,-6.9 27.2,-5.8 41.4,-3.5 16.3,2.7 29.2,10.9 40.3,22.5 6.4,6.7 9.8,15 12,23.8 0.7,2.9 3,5.5 2.3,8.9 -0.2,0.7 0.7,1.2 1.4,0.9 4.8,-1.9 5.8,0.8 8.3,4.6 3.7,5.7 1.8,10.1 0.3,15.1 -2.8,9.6 -12.1,11.6 -19.6,10 -2,-0.4 -2.8,0 -3.6,1.1 -3.6,5.4 -8.5,5.2 -14.4,4.7 -10.5,-0.8 -21.2,-1.4 -31.7,0.4 -5.4,0.9 -12.8,-1.8 -15.7,-6.6 -1.2,-2 -9.5,-1.9 -11,0.5 -2.5,3.8 -5.8,4.4 -9.9,4.4 -14.9,-0.2 -29.8,1.6 -44.7,1 -4.3,-0.1 -6.8,-1 -4.7,-6 z"
   class="st1" />
		<path
   id="path837"
   d="m 122,138.9 c 2.3,-4.6 3.7,-10 10.1,-11.2 -4.1,-0.1 -6.6,2.5 -10.2,5.1 2.1,-5.4 7.1,-5.3 10,-8.4 -2.3,-0.9 -3.6,1.8 -7.2,1.2 7.4,-2.7 9.9,-9.6 16.1,-11.7 -0.9,-2.2 -2,0.4 -2.7,-0.5 -0.6,-0.9 0.5,-1.4 0.9,-2 3.4,-5.3 9.6,-5 14.6,-7 7.1,-2.8 14.8,-4 22.5,-3.4 0.7,0 1.3,0 2,0.1 1.7,0.2 -2.7,2 0.5,1.9 1.3,0 2.7,0 4,0 2.6,0 5.2,-0.3 7.7,0.9 1.1,0.5 3.5,-0.7 2.2,2.2 -0.5,1.1 0.8,0.8 1.1,0.7 4.1,-2.6 7.6,0.6 11,1.6 2.3,0.7 4.1,3.6 5.8,5.7 1.4,1.7 4,0.4 5.2,2.4 -0.3,1.2 -1.9,-0.2 -2.3,1.3 4.7,0.2 5.8,4.7 8.4,7.6 -1.1,2 -2.4,-1.9 -3.7,0.5 3.6,0.3 5.3,3.7 8.5,5.1 3.5,1.4 7.1,11.8 5.7,15.3 -0.5,1.3 0.1,2.2 1.4,2.3 0.5,0 1,-0.8 1.8,-0.4 -2,2 1.7,4.3 -0.1,6.6 0.8,-0.5 1.5,-1 2.3,-1.6 0.7,1.5 -0.5,1.9 -1.1,2.6 -1.1,1.3 -3.6,-2.7 -4.1,1 -0.9,-0.5 -1.8,-1.2 -1.5,-2.2 0.6,-1.9 2,-3.9 -1.1,-5 -0.3,-0.1 -1.3,-1 -0.4,-1.5 2.9,-1.8 -0.8,-2.8 -0.5,-4.5 1.3,-0.8 1.6,1.3 3.2,1 -1.8,-4.4 -2.7,-9.1 -6.9,-12.5 -1.4,4.1 4.5,5.1 3.2,9 -1.9,-2.5 -3.7,-4.8 -5.6,-7.4 -0.6,3 -0.4,4.8 2.4,6.4 2.9,1.6 0.8,5.4 2.4,8.1 0.5,0.9 0,3.1 1.3,4.4 0.6,0.6 1.4,1.6 0.9,2.1 -3.6,3.4 0.1,7.4 -1.3,11.4 -0.9,-2.1 -0.4,-4.4 -2.3,-5.7 -1.2,3.9 1.3,8.1 -1.7,11.6 -0.1,0.1 -0.3,0.2 -0.3,0.3 0.3,4.7 0.3,4.7 -2.9,8.5 -0.9,-3.3 0.2,-6.3 1.5,-9.3 0.2,-0.5 0.6,-1.8 -0.4,-2 -0.7,-0.2 -0.3,1.6 -1.4,1.4 -1.7,0 -0.8,1.4 -1.2,2.2 -2.1,1.6 -2.6,7.3 -7,2.5 -0.6,-0.6 -1.1,-0.3 -1.7,-0.4 -2.4,-0.3 -2.5,-0.4 -1,-2.2 1,-1.2 -0.2,-1.3 -0.6,-1.8 -1.1,-1.4 -2.7,-2.2 -3.2,-4.4 -1,2.1 0.5,4 -0.1,5 -1.3,1.9 1.9,3 -0.1,4.9 -1.4,-1.8 -3.1,-2.7 -3,-6.2 0.1,-2.6 -1.3,-6.2 -3.8,-8.5 -2.9,-2.6 0.2,-5.8 -0.8,-9 -2.9,2.3 -1.4,5.2 -1.5,7.7 l 0.1,-0.1 c -1,0.3 -1.4,1.2 -1.9,2.3 -0.9,-2.7 -2,-4.9 -1.8,-7.6 -0.9,2.2 -0.8,4.3 -0.5,6.4 l 0.1,-0.1 c -1.3,-1.4 -3.5,-2.1 -3.4,-4.6 0.1,-1.7 -0.2,-1.8 -2.2,-1.8 -1.8,0 -2.2,-2.9 -1.5,-5 1.7,1.1 1.2,5.8 5,2.8 0.6,-0.4 1.6,-1.8 -0.3,-1.4 -2.2,0.5 -1.8,0.3 -0.9,-1.3 2.7,-5.5 -0.6,-13.9 -6.7,-17.3 0.3,1.9 2.7,2.4 2.7,4.7 -3,-1.4 -5.5,-3 -6.8,-5.9 -1.9,1.1 -0.9,1.9 -0.3,2.6 2.2,2.6 6,4.4 3.9,8.8 0,0.1 0.1,0.3 0.2,0.5 1.4,3 1.4,3 -2.3,3.7 -1.3,2.3 7.3,2.2 1.1,6.1 -1,0.6 2.4,3.5 3,6.1 0.3,1.6 1,-2.1 3.1,-1.3 0.7,5.2 -0.1,10.9 0.9,16.5 -3.5,-5.3 -1.1,-13.3 -8.6,-16.8 0.1,3.2 4.2,5.1 2.6,8.6 -1.7,-1.2 -1.4,-4.2 -4,-4.7 -1,4.8 5.8,6.1 4.9,10.9 -1.2,-4.1 -5.6,-4.3 -8.1,-6.6 1.3,2.1 2.8,4.1 5.2,5.4 -2.7,0.7 -4.1,1.7 -0.8,3.4 1.2,0.6 2.7,1.2 1.7,2.8 -2.8,4.8 1.5,4.1 3.5,4.1 7.2,0.2 14.3,0.1 21.5,-0.1 2.7,-0.1 5.5,0.3 8.3,-0.1 2.1,-0.3 5.5,0.9 5,4.1 -0.5,3.3 -4,3.3 -6.3,3 -11.2,-1.4 -22.3,-1.3 -33.4,0.5 -2.5,0.4 -2.3,0 -3.9,-2.2 -0.5,-0.8 -3.2,-2.5 -5.1,-1.7 -1.2,0.5 -1.3,-0.3 -2.4,-1.2 4.8,-0.1 10.4,-0.6 10.3,-5.4 -0.1,-3.1 -3.4,-7.6 -8.7,-7.8 0.2,2.4 3.2,1.7 3.5,4 -4.2,-0.8 -7.1,-3.5 -10.5,-6.4 1,4 4.6,6.8 9.2,7.5 0.9,0.1 2.1,-0.5 2.4,0.9 0.1,0.5 0,1 -0.1,1.5 -0.8,-0.2 -1.7,-0.5 -2.5,-0.6 -3,-0.4 -5.5,-3.4 -9.1,-1 -1.2,0.8 -3.1,-1.4 -3.1,-2.5 0,-4.1 -1.7,-7.9 -2,-11.8 -0.3,-3.5 -2.5,-5.2 -4.3,-7.5 1.3,-0.8 0.6,-1.5 -0.2,-2.2 -0.5,-0.5 -1.1,-0.8 -1.5,-1.3 0.4,0.8 1.5,1 2,1.8 0.4,0.7 0.4,1.3 -0.1,1.9 -0.6,0.1 -1.2,0.2 -1.9,0.3 3.4,1.8 1.2,6 4.1,8.9 -4.1,-1.3 -6.3,-4 -8.8,-6.4 1.2,5.5 5.7,9.6 5.4,16.7 -1.2,-3 -2,-4.8 -2.7,-6.7 0.2,4.4 2.1,8.4 0,12.7 -0.4,0.8 -0.1,0.9 2.5,2 -5.3,3.6 -10.5,6.5 -17.5,3.9 -1.7,-0.6 -5,1.5 -7.9,0.9 -8,-1.5 -15.7,2.8 -24,1.5 1.5,-1.9 4.6,-1.7 5.2,-4.4 -2.6,-1.6 -3.6,1.6 -5.5,2.2 -1.3,0.4 -2.4,2.4 -3.7,0.9 -0.9,-1 -2.3,-2.6 -0.9,-4.4 0.7,-0.9 1,-2.1 0.2,-2.7 -1.7,-1.3 -1.4,1 -2.1,1.4 -2,1.2 -4,0.1 -5.9,-0.3 -1.2,-0.2 -0.4,-1.1 0,-1.7 1.6,-2.1 3.4,-3.3 6.3,-3 2.9,0.4 6,0.1 8.9,0.6 0.7,0.1 2.9,-0.4 2.9,2.4 0,1.9 3,2.9 4.9,2 6.1,-2.7 12.7,-1.8 19.1,-2.9 1.2,-0.2 2,0.1 3.1,1.6 2.6,3.5 5.2,0 7.4,-2.3 1,2.1 -1.1,2.2 -0.6,3.7 3,-0.5 4,-3.9 7.1,-4.5 1.7,-0.3 -0.9,-3 -0.7,-4.8 0.1,-0.7 -0.8,-0.8 -1.5,-0.4 -2.3,1.2 -0.5,2.7 -0.3,4.1 -0.4,0.1 -0.8,0.3 -0.9,0.2 -2.2,-2.5 -6,2.5 -6.8,-0.5 -0.7,-2.8 -1.7,-4.4 -4,-5.8 -0.9,1.7 1.2,2.1 1.3,3.4 -1.9,1.5 -2.9,-0.7 -4.2,-1.4 -1.4,1.5 1.6,2.4 0.1,3.6 -1.9,-0.7 -2.4,-3.5 -5,-3.5 -0.4,-1.2 0.2,-2.5 -0.3,-3.9 -0.3,1.4 0,2.6 0.5,3.7 0,1.6 2.2,2.7 0.8,4.5 -4.6,-2.1 -2.5,-8.5 -7.5,-11 1,3.3 2.1,6.1 2.8,9 0.2,0.9 0.7,2.5 -0.7,3 -1,0.4 -1.8,-0.4 -1.8,-1.5 0,-0.4 1.4,-0.8 1.4,-1 -0.3,-1.4 -0.4,-3.5 -1.3,-3.9 -2.6,-1.2 -2,-3.9 -3.2,-5.6 -0.4,-0.6 -2.8,-2.1 -3.4,-2.3 -1.2,-0.4 -1.5,0.5 -1.8,1.1 -0.5,0.9 0.4,2 0.9,1.9 5.2,-0.7 2.4,4.6 5.1,5.7 -2.5,-0.1 -2.3,-2.2 -3.2,-3.4 -0.9,-1.3 -2.5,-0.7 -3.7,-1.3 -0.8,1.5 -0.1,2.7 1.1,3.3 1.2,0.6 2.4,0.9 2.5,2.7 -1.4,0.4 -1.7,-1.1 -2.6,-1.4 -4.5,-1.7 -4.6,-1.8 -3.9,-3 1.1,-1.9 -0.3,-4.8 2.8,-6.1 2.2,-0.9 3.1,-4.5 7.1,-2.8 -1.1,-3 -3.9,-3 -4.9,-4.8 3.3,-1.9 4.8,1.6 7.3,2.9 0.3,-2.5 -1.5,-3.9 -1.9,-6.4 1.5,1 2.4,1.7 3.5,2.4 0.9,-1.9 -2.1,-2.2 -0.9,-4.1 0.7,0.5 1.4,1 2.1,1.6 1.7,-1.3 -1.4,-2.1 -0.1,-3.4 1.7,0.2 2,2.8 4.1,2.6 -2.7,-4.2 -2.7,-4.2 -8.7,-1.6 -0.5,-2 1.8,-2.5 2,-3.7 -0.8,0.7 -1.6,1.8 -2.7,2.6 -0.7,0.5 0.9,0.3 0.9,1 -1,2.7 -3.6,3 -5.8,3.8 -1,-0.6 -2.1,-2.3 -3.1,0 -1.8,1.2 -1.9,1.3 -0.3,2.3 1.7,1.1 1,3 2.2,4.6 -4,0.1 -7.5,1.7 -11.5,1.7 2.5,-0.1 4.1,1.6 6,2.6 0.7,0.4 1.4,0.6 1.1,2.1 -0.3,1.9 -1.6,2.9 -2.6,4.1 -0.8,0.9 -0.6,-0.4 -0.9,-0.7 -1.8,-2.3 2,-2.5 1.6,-4.3 -2.6,-0.9 -4.8,0.2 -7.2,1.6 1.1,-3 0.3,-4.1 -2.5,-3.1 -2.1,0.7 -3.3,-1.1 -5.2,-0.8 -4.4,0.5 -4.8,0.5 -5.7,-3.4 -0.8,-3.6 -2.2,-2.1 -3.9,-1 2.9,2.6 4.5,5.7 2.4,9.3 -1.7,2.9 -8.1,4.1 -10.6,2.6 -2.4,-1.5 -2.7,-2.8 -1.4,-6.3 -1.8,-0.2 -3.5,-0.4 -5.9,1 3.6,-11.4 5,-22.7 12.3,-32 3.7,-4.7 9.1,-6.8 13.8,-10 1.4,-1 0.2,1.5 0.8,1.6 1.9,0.3 3.6,-0.2 5.6,-1 1.7,-0.7 0.9,-3.8 2.4,-2.6 1.9,1.5 -0.2,2.6 -1.6,3.4 -0.3,0.2 -1,0.4 -0.5,1.1 0.5,0.7 1.1,1.2 2,1.2 2,0 3.2,-1.6 3.8,-2.9 4.8,-9.2 13.2,-14.3 21.8,-19.1 3,-1.7 6,-3.3 8.3,-5.9 0.8,-0.9 1.9,-1.6 3,-1 1.1,0.5 0.6,1.8 0.6,2.7 -0.2,5 -2.6,9.2 -5,13.3 -3.4,5.9 -10.5,7.1 -15,11.8 -0.4,0.4 -1.6,0.1 -3.3,0.1 1.8,-1.1 2.9,-1.8 4,-2.5 -1.5,-1.8 -2.8,1 -4.7,0.1 0.8,-1.6 0.4,-3.6 3.2,-4.1 1.9,-0.4 4.3,0.3 5.7,-1.9 -1.6,-1.8 -2.8,2.3 -4.4,-0.2 2,-2 4.2,-4 7.1,-5.3 4.7,-2 8,-5.5 9.8,-11.2 -6.1,3.7 -10.4,8.4 -16.3,10.8 -3.4,1.4 -4.4,5.4 -6,8.6 -0.3,0.7 -0.1,1.8 -0.9,2.1 -3.7,1.5 -2.2,4 -1.1,6.1 0.6,1.1 0.7,1.6 -0.2,2.3 -1.8,1.2 -2.5,3.3 -0.7,4.3 1.7,0.9 3.8,2.5 6.2,1.3 1.1,-0.6 2.2,-1.3 3.8,-2.3 -0.9,2.3 -0.1,4.2 0.1,6.1 0.4,0.3 0.9,0.3 1.2,0 0.5,-0.9 -0.1,-1.2 -0.3,-1.5 z"
   class="st0" />
		<path
   id="path839"
   d="m 96.3,119.7 c 1.8,-1.1 1.7,-4.8 5.1,-3.8 0.4,-2 1.7,-4 2.1,-5.6 2.9,-10.2 2.5,-10.3 8.5,-15.7 0.7,-0.6 1.4,-1.2 2.4,-1.7 2.2,-1.1 4.3,-4.5 6.7,-2.2 2.6,2.5 -1.3,4.6 -2.1,6.9 -0.5,1.4 -1.4,2.5 -1.8,3.9 -2.1,8.2 -7.1,13.3 -15.3,15.6 -2,0.6 -3.4,2.6 -5.6,2.6 z"
   class="st0" />
		<path
   id="path841"
   d="m 240,173.2 c 0.4,-4.9 0.7,-9.1 1,-13.4 0.1,-1.2 0.4,-1.8 1.7,-1.8 1.1,0.1 1.8,0 2.4,1.6 2,5.2 1.2,7.9 -5.1,13.6 z"
   class="st0" />
		<path
   id="path843"
   d="m 229.6,167.6 c 2.9,-2.6 0.3,-6.3 1.8,-9.4 0.5,1.4 1.4,2.7 1.4,4.1 0,3.1 0.1,5.8 3,7.9 3.2,2.3 0.9,5 -0.7,8.1 -0.1,-3.1 1.1,-5.8 -1.2,-8.5 0.8,3.5 -2.3,5.9 -1,9 -1.2,0.4 -2.3,0.8 -4,1.4 4.9,-7.2 4.7,-11.2 0.7,-12.6 z"
   class="st0" />
		<path
   id="path845"
   d="m 248.7,164.8 c 0.4,5.4 -6.8,15.1 -12.2,15.9 4.2,-5.3 9.1,-10.1 12.2,-15.9 z"
   class="st0" />
		<path
   id="path847"
   d="m 197.2,160.8 c 4.1,3.9 2.8,9.1 3.5,14.2 -5.4,-4 -2.2,-9.7 -3.4,-14.4 0,0 -0.1,0.2 -0.1,0.2 z"
   class="st0" />
		<path
   id="path849"
   d="m 193.2,161.8 c 3.3,2.9 3.1,6 0.4,9.1 -1.6,-0.4 -1.4,-2.1 -2.3,-3 1,-0.7 -4.5,-4.1 1.2,-3.1 0.1,0 0.5,-2 0.8,-3.1 0.1,-0.1 -0.1,0.1 -0.1,0.1 z"
   class="st0" />
		<path
   id="path851"
   d="m 229.5,167.5 c 2.5,5.9 2.7,6.4 -4.5,13.1 2.9,-3.9 4.1,-8.3 4.5,-13.1 0.1,0.1 0,0 0,0 z"
   class="st0" />
		<path
   id="path853"
   d="m 111,152.9 c 0.1,-1.2 -2.1,-0.6 -1.5,-1.7 0.8,-1.5 2.4,-1.4 3.8,-1.1 1.6,0.4 1.6,1.6 0.8,2.8 -1.1,1.4 -2.1,1.4 -3.1,0 z"
   class="st1" />
		<path
   id="path855"
   d="m 151,163.5 c 4.8,2.6 5.7,5.4 4.2,9.3 0.3,-3.3 -1.4,-5.8 -4.2,-9.3 z"
   class="st0" />
		<path
   id="path857"
   d="m 219.9,173 c -1.2,-0.5 -0.9,-1.6 -0.8,-2.4 0.1,-0.9 -0.8,-2.7 1.1,-2.5 1.6,0.1 0.6,1.8 0.9,2.8 -0.1,0.9 -0.3,1.7 -1.2,2.1 z"
   class="st1" />
		<path
   id="path859"
   d="m 122,138.9 c 0.8,0.1 1.6,0.2 2.4,0.3 -2.7,2.2 -2.7,2.2 -3.3,0.8 0.4,-0.4 0.7,-0.7 0.9,-1.1 z"
   class="st1" />
		<path
   id="path861"
   d="m 103.6,135.8 c -1,0.4 -2.2,1.3 -2.9,1 -2.6,-1 -2.4,0.3 -2.3,2.2 0.3,3.5 -1.7,5.8 -4.8,6.7 -3,0.9 -6.5,-0.1 -9.3,2.2 -0.2,0.2 -1.3,-0.3 -1.6,-0.7 -1.2,-1.4 0.5,-0.9 0.9,-1.3 0.4,-0.3 1,-0.7 1,-1 1.2,-10.9 9.2,-10 16.9,-9.8 0.6,0 1.3,0 1.9,0 0.1,0.2 0.1,0.4 0.2,0.7 z"
   class="st1" />
		<path
   id="path863"
   d="m 119.9,149.1 c -1.4,-1 -2.5,2.2 -3.8,0.2 -0.3,-0.5 0.2,-1.5 0.3,-2.3 4.4,2.3 4.1,-5 8.1,-3.9 -1.7,2.1 -3.2,4.1 -4.8,6.1 0,0.1 0.2,-0.1 0.2,-0.1 z"
   class="st1" />
		<path
   id="path865"
   d="m 221.5,151.9 c -0.8,-2.9 -1.6,-5.8 -2.7,-9.7 4.2,3.1 3,6.7 2.7,9.7 z"
   class="st1" />
		<path
   id="path867"
   d="m 127.8,172.2 c -2.7,-1 -1.1,-3.9 -2.5,-5.5 -0.1,-0.1 0.6,-1 1,-1.4 0.1,-0.1 0.8,0.3 1,0.6 1.8,2 2.4,4.2 0.3,6.4 0.1,0 0.2,-0.1 0.2,-0.1 z"
   class="st1" />
		<path
   id="path869"
   d="m 171.8,131.5 c -3.6,0 -3,-4.2 -5.9,-4.9 4.6,-1.3 4.1,3.1 5.9,4.9 z"
   class="st1" />
		<path
   id="path871"
   d="m 194.4,134.8 c -2.3,-1.8 -2.9,-4.7 -5.1,-6.5 3.3,0.9 5,3.1 5.1,6.5 z"
   class="st1" />
		<path
   id="path873"
   d="m 175.8,131 c -1.6,-1.4 -3.4,-2.3 -4,-5.6 2.8,1.4 4.6,2.3 4,5.6 z"
   class="st1" />
		<path
   id="path875"
   d="m 109,181 c -2.6,1.2 -4,1 -4.7,2.2 -0.5,0.8 -1.2,1 -2.1,0.4 0.7,-1 0.7,-1.7 -0.8,-1.8 0.1,-1.3 1.1,-0.8 1.8,-0.8 1.4,-0.1 2.9,0 5.8,0 z"
   class="st1" />
		<path
   id="path877"
   d="m 198.7,136.9 c -0.4,-0.7 -0.8,-1.2 -1,-1.7 -0.5,-1.2 -1.8,-2.2 -1.5,-3.8 0,-0.2 0.9,-0.5 1.2,-0.4 1.7,0.9 1.7,2.6 1.5,4.2 0.1,0.5 -0.1,1 -0.2,1.7 z"
   class="st1" />
		<path
   id="path879"
   d="m 154.3,152.7 c -2.5,0.1 -4.4,-0.6 -5,-3.3 2,0.6 4.2,1 4.9,3.4 z"
   class="st1" />
		<path
   id="path881"
   d="m 217,172.2 c -1.2,-3 -1.4,-4.6 0,-6.9 1.4,2.3 1.2,4 0,6.9 z"
   class="st1" />
		<path
   id="path883"
   d="m 166.6,132.9 c -1.2,-1.2 -2.8,-1.9 -3.2,-3.7 0,-0.2 1.2,-0.9 1.3,-0.8 1.3,1.1 3.1,2.1 1.9,4.5 z"
   class="st1" />
		<path
   id="path885"
   d="m 154.4,131.4 c 3,-0.7 3.6,1.3 5.1,3.1 -3.8,1.2 -2.8,-3.3 -5.1,-3.1 z"
   class="st1" />
		<path
   id="path887"
   d="m 135,168.2 c -0.4,1.1 -1.3,0.9 -2,0.8 -1.1,-0.3 -2.1,-1 -1.9,-2.3 0.1,-0.6 1,-0.9 1.5,-0.3 0.7,0.7 2.4,0.2 2.4,1.8 z"
   class="st1" />
		<path
   id="path889"
   d="m 87.7,148.7 c 2.2,-0.4 4.9,-1.8 7.5,1 -2.9,-0.3 -5.2,-0.7 -7.5,-1 z"
   class="st1" />
		<path
   id="path891"
   d="m 193.7,149.4 c -0.2,-0.3 -0.4,-0.5 -0.6,-0.7 -1.4,-1.3 -1.3,-2.7 -0.7,-4.3 0.1,-0.2 0.7,-0.3 0.9,-0.1 1.5,1.1 0.5,2.6 0.7,3.9 0.1,0.4 -0.2,0.9 -0.4,1.4 z"
   class="st1" />
		<path
   id="path893"
   d="m 158.2,129.4 c 2.3,0 3.4,1.5 4.7,2.7 0.1,0.1 -0.3,0.8 -0.4,0.8 -2.3,-0.1 -2.8,-2.4 -4.3,-3.5 z"
   class="st1" />
		<path
   id="path895"
   d="m 138.1,147 c 1,0.3 1.8,1 1.9,2.3 0,0.8 -0.1,2 -1.1,1.5 -0.8,-0.4 -1.4,-1.5 -1.8,-2.5 -0.3,-0.5 0,-1.2 1,-1.3 z"
   class="st1" />
		<path
   id="path897"
   d="m 179.2,123.8 c 1.9,-1.6 3.1,0.2 4.5,0.6 -0.2,0.3 -0.3,0.7 -0.5,0.8 -1.9,1.2 -2.5,-1.1 -4,-1.4 z"
   class="st1" />
		<path
   id="path899"
   d="m 180.3,130.8 c -1.1,-1.1 -2.1,-2.3 -3.3,-3.5 3.5,-1.1 3.1,1.6 3.3,3.5 z"
   class="st1" />
		<path
   id="path901"
   d="m 165.1,153.2 c -1.9,2.4 -3.4,2.4 -5,0 1.6,0 3,0 5,0 z"
   class="st1" />
		<path
   id="path903"
   d="m 193.6,149.5 c 0.7,-0.4 1.4,-0.7 2.1,-1.1 0,1.4 0.1,2.8 0,4.3 0,0.1 -1,0.4 -1.2,0.2 -1.2,-0.9 0.3,-1.6 0.1,-2.5 -0.1,-0.4 -0.6,-0.7 -1,-1 0.1,0 0,0.1 0,0.1 z"
   class="st1" />
		<path
   id="path905"
   d="m 135.6,149.1 c 0.2,0.8 -0.3,1.3 -0.9,1.4 -1.2,0.2 -1.6,-0.8 -1.7,-1.7 -0.1,-0.7 -0.3,-1.7 1,-1.8 1.5,0 0.7,1.7 1.6,2.1 z"
   class="st1" />
		<path
   id="path907"
   d="m 220.1,165.1 c 0.4,-2.1 0.8,-4 1.1,-5.8 0.2,0 0.3,0.1 0.9,0.2 0.4,2 0.4,3.9 -2,5.6 z"
   class="st1" />
		<path
   id="path909"
   d="m 184.8,119.9 c 2,1.1 3.1,2.2 4.2,4.2 -2.4,-0.6 -3.6,-1.7 -4.2,-4.2 z"
   class="st1" />
		<path
   id="path911"
   d="m 143.3,167.2 c 1.1,0.8 2.4,1.3 2.2,2.8 0,0.3 -0.9,0.9 -1.1,0.9 -1.2,-0.8 -1.8,-1.9 -1.1,-3.7 z"
   class="st1" />
		<path
   id="path913"
   d="m 92.4,131.8 c 1.3,-2.5 3.2,-1.8 5.9,-1.4 -2.3,0.9 -4.2,0.5 -5.9,1.4 z"
   class="st1" />
		<path
   id="path915"
   d="m 171.2,112.5 c -2.7,0.7 -4.7,0.7 -7.4,0 2.7,-0.7 4.7,-0.7 7.4,0 z"
   class="st1" />
		<path
   id="path917"
   d="m 211,139.6 c 0,0.6 -0.1,1.4 -1,1.3 -1.2,0 -1,-1 -1,-1.8 0,-0.8 0.4,-1.2 1.2,-1.1 0.8,0.2 0.8,0.9 0.8,1.6 z"
   class="st1" />
		<path
   id="path919"
   d="m 151.1,135.9 c 1.9,0.3 2.8,1 2.8,2.3 0,0.2 -0.8,0.8 -1,0.7 -1.3,-0.5 -1.1,-1.8 -1.8,-3 z"
   class="st1" />
		<path
   id="path921"
   d="m 203.1,136.7 c -2.2,0.5 -2.7,-0.6 -3.1,-1.7 -0.1,-0.2 0.5,-0.9 0.8,-0.9 1.9,0.1 0.9,1.9 2.3,2.6 z"
   class="st1" />
		<path
   id="path923"
   d="m 129.3,146.8 c 0.7,1.5 2.5,0.5 2.6,2.3 0,0.3 -0.7,0.8 -0.9,0.8 -1.1,-0.3 -2.2,-0.8 -1.7,-3.1 z"
   class="st1" />
		<path
   id="path925"
   d="m 154.1,155.1 c 0.1,-0.8 0.1,-1.6 0.2,-2.4 0,0 -0.1,0.2 -0.1,0.1 1.2,0.1 2.2,0.5 2.6,1.8 -0.9,0.1 -1.9,0.2 -2.8,0.3 -0.1,0 0.1,0.2 0.1,0.2 z"
   class="st1" />
		<path
   id="path927"
   d="m 138.7,168.3 c 1.7,1.5 2.6,2.3 3.7,3.3 -2.6,0.7 -3.1,-0.5 -3.7,-3.3 z"
   class="st1" />
		<path
   id="path929"
   d="m 95.2,138.7 c -2.4,-0.4 -3.6,3.2 -5.9,0.9 -0.5,-0.6 -0.3,-1.2 0.3,-1.7 1.8,-1.5 3.5,-1.3 5.6,0.8 z"
   class="st0" />
		<path
   id="path931"
   d="m 94,143.4 c -2.8,2.2 -4.3,0.6 -6.7,-1.5 2.8,0.6 4.6,1 6.7,1.5 z"
   class="st0" />
	</g>
</g>
</svg>
