<?xml version="1.0" encoding="UTF-8" standalone="no"?>
<svg
   xmlns:dc="http://purl.org/dc/elements/1.1/"
   xmlns:cc="http://creativecommons.org/ns#"
   xmlns:rdf="http://www.w3.org/1999/02/22-rdf-syntax-ns#"
   xmlns:svg="http://www.w3.org/2000/svg"
   xmlns="http://www.w3.org/2000/svg"
   xmlns:sodipodi="http://sodipodi.sourceforge.net/DTD/sodipodi-0.dtd"
   xmlns:inkscape="http://www.inkscape.org/namespaces/inkscape"
   inkscape:version="1.0 (4035a4f, 2020-05-01)"
   height="242.51924"
   width="179.10379"
   sodipodi:docname="heron.svg"
   xml:space="preserve"
   viewBox="0 0 179.10379 242.51924"
   y="0px"
   x="0px"
   id="Layer_1"
   version="1.1"><metadata
   id="metadata19821"><rdf:RDF><cc:Work
       rdf:about=""><dc:format>image/svg+xml</dc:format><dc:type
         rdf:resource="http://purl.org/dc/dcmitype/StillImage" /><dc:title></dc:title></cc:Work></rdf:RDF></metadata><defs
   id="defs19819" /><sodipodi:namedview
   inkscape:current-layer="Layer_1"
   inkscape:window-maximized="0"
   inkscape:window-y="25"
   inkscape:window-x="0"
   inkscape:cy="137.13296"
   inkscape:cx="92.3"
   inkscape:zoom="2.52"
   fit-margin-bottom="0"
   fit-margin-right="0"
   fit-margin-left="0"
   fit-margin-top="0"
   showgrid="false"
   id="namedview19817"
   inkscape:window-height="480"
   inkscape:window-width="820"
   inkscape:pageshadow="2"
   inkscape:pageopacity="0"
   guidetolerance="10"
   gridtolerance="10"
   objecttolerance="10"
   borderopacity="1"
   bordercolor="#666666"
   pagecolor="#ffffff" />
<style
   id="style19680"
   type="text/css">
  .st0{fill:#FFFFFF;}
  .st1{fill:#000000;}
</style>
<g
   transform="translate(-57.7,-62.867042)"
   id="g19814">
	<g
   id="g19812">
		<path
   id="path19682"
   d="m 133.5,273 c 5,-1.6 9.1,-4.9 13.5,-0.5 1.6,1.6 2.4,3.3 1.8,5.3 -0.7,2.5 -3.1,1.1 -4.6,1.2 -7.3,0.2 -14.7,-0.6 -19.2,7.3 -1.7,2.9 -5.2,4.6 -6.7,7.8 -0.3,0.7 -1.2,1.4 -2,0.7 -0.9,-0.8 -2.2,-1.5 -2.4,-3 -0.4,-2.7 0.6,-5.1 1.9,-7.7 -1.6,0 -3.5,-0.6 -4.2,0.1 -3.9,3.6 -8.5,0.7 -12.7,1.8 -0.7,0.2 -1.8,0.4 -2,-0.8 -0.1,-1.1 -0.1,-2.2 0.5,-3.3 1.1,-2 3.7,-1.3 4.9,-2.9 -0.5,-1.9 -2.3,-0.1 -3.1,-1.5 2.9,-3.8 5.7,-6.5 11.8,-4.6 8.3,2.5 16.5,-2.5 20.4,-12.3 4.8,-12 11.3,-23.4 14.5,-36.1 2.2,-8.6 0.1,-16.4 -3.5,-24.8 -1.5,2.8 0.7,6.6 -2.4,7 -2.2,0.3 -1.3,-3.6 -2.5,-5.4 -2.2,-3.2 -4,-6.6 -7.6,-9.2 -0.2,2.5 -0.3,4.7 -0.4,6.7 -1.3,0.4 -2.1,-0.2 -2.4,-0.9 -4.2,-12 -14.9,-17.9 -24.2,-24.6 C 95.6,168 90,161.5 86,153.7 c -5.8,-11.3 -1.9,-32.3 6.4,-42 5.8,-6.7 12.9,-12.3 18,-19.6 0.9,-1.3 2.1,-2.3 0.9,-3.9 -1.2,-1.6 -2.9,-1.4 -4.5,-0.6 -9.6,4.5 -19.6,8.5 -27.2,16.2 -5.4,5.5 -10.7,11.2 -17.7,14.7 -0.9,0.5 -1.4,2.1 -2.9,1.3 -1.3,-0.8 -1.3,-2.2 -1.3,-3.5 0.2,-4.2 1.7,-7.9 4.4,-11 C 68,98.4 71,89.7 76,82.5 85.6,69.1 99,61.1 116,63.2 c 8.7,1 16.7,5.5 22.9,11.6 4.2,4.1 8.3,6 14,5.2 3.5,-0.4 6.8,0.2 9.5,4.6 -5.9,-4.3 -11.9,-1.6 -17.3,-2.8 -5.7,-1.3 -7.6,-8.4 -14.8,-10.2 4.1,3.6 5,7.8 8.4,10.6 3.4,2.7 6.9,4 11.2,3.8 7,-0.2 11.2,4.4 10.9,12.5 -2.4,-8.1 -6.8,-11.1 -14.6,-10.8 -7.3,0.3 -11.1,-5.8 -14.8,-11.6 -0.5,2.8 1,4.5 2.6,6.3 1.4,1.6 2.6,3.4 4.2,5.4 -3.6,0.1 -3.5,-3.5 -6,-4.9 1.6,15.6 -8.2,25.3 -17,35.4 -3.7,4.2 -6.2,9 -8.6,14 -1.3,2.7 0.1,5.1 2.5,6.7 2.3,1.5 4.3,1.5 6.5,-0.7 2.1,-2.2 3.3,-4.8 4.6,-7.4 6,-11.9 16.4,-16.9 29.1,-17.8 9.2,-0.6 18.1,0.4 26.9,3.8 4.5,1.8 8.3,4.2 11.9,7.2 14.9,12.4 29.1,25.5 37.7,43.3 4.1,8.5 5.4,18.1 10,26.5 1.2,2.2 1.8,6.5 -1,8.8 -3.7,3 -8,1.2 -12.1,0.6 -1.3,1 0.2,1.7 0.4,2.5 0.9,3.4 2.6,7.3 -0.5,10.1 -2.9,2.7 -6.9,1.5 -10.4,0.7 -6.8,-1.4 -11.5,-6.4 -16.6,-10.5 -3.9,-3.2 -8,-5.4 -13.3,-5 -2.1,0.2 -2.9,0.9 -1.9,2.7 3,5.1 0.6,11 2.6,16.3 0.2,0.6 -0.2,1.5 0.1,2 6.3,9.2 0.3,17.8 -1.9,26.3 -2.7,10.3 -6.7,20.3 -10.1,30.4 2,1.2 3.8,0.3 5.2,-0.6 3,-2 4.8,-0.5 6.8,1.6 1.1,1.2 1.2,2.4 0.8,3.7 -0.4,1.5 -1.9,0.7 -3,0.8 -4.6,0.8 -9.2,1.6 -13.8,2.5 -3.3,0.6 -5.6,2.7 -6.6,5.8 -1.6,4.6 -5.4,7.6 -7.8,11.6 -0.5,0.8 -1.4,1.8 -2.4,0.7 -1.8,-2 -5.1,-3.3 -4.1,-6.8 0.5,-1.6 1.7,-3.1 2.8,-5 -5.5,0.4 -10.3,3.4 -15.7,2.1 -1.4,-0.3 -3.7,1.3 -4.1,-1.2 -0.3,-2 1,-3.6 3,-4.4 1.2,-0.5 2.3,-1.1 4.1,-2.1 -2.1,-0.2 -3.6,-0.4 -5.4,-0.5 2.5,-5.8 7.7,-5.6 11.8,-4.6 10.7,2.8 20.8,-2.6 24.4,-14.1 3.3,-10.7 7.3,-21.4 7.9,-32.8 0.6,-10.6 -2.1,-20.9 -7.4,-30.2 -2,-3.4 -6.4,-4 -10,-5 -1.5,4.3 -0.2,8.6 0.8,12.3 1.5,5.2 0.5,9.9 -1.6,14.1 -7.5,15.1 -14.3,30.7 -23.3,46.3 z"
   class="st1" />
		<path
   id="path19684"
   d="m 220.3,180.3 c 5.3,3 8,8.1 10.6,13.6 -3.3,-0.4 -6.5,-0.8 -9.6,-1.2 -5.4,-0.8 -10.5,-2.7 -15.6,-4.3 -1.3,-0.9 -2.7,-1.3 -4.2,-1.7 -0.7,-0.1 0.1,0.9 0,0.3 1.5,0 2.8,0.5 4,1.3 5.2,1.8 10.5,3.7 16,4.3 1.9,2.5 4.7,2.2 7.3,2.4 1.8,0.1 4.4,-0.2 4,2.3 -0.4,1.9 -2.4,-0.1 -3.6,-0.1 -7,-0.1 -13.4,-3.5 -20.4,-3.7 6.6,2.6 13.3,4.9 20.5,5.7 1.3,0.1 3.6,-1.1 3.6,1.1 0,2.1 -2.4,2.2 -3.9,1.8 -4.9,-1.3 -9.7,-3.3 -14.7,-4.3 -14,-2.7 -26.7,-9 -39.5,-14.9 -2.3,-1.1 -6.6,-0.2 -6.1,-5.4 0.2,-1.8 -3.5,-1.8 -5.4,-3.4 -0.2,2.7 2.1,3 2.9,5.6 -8.6,-5.1 -17.9,-7.3 -23.1,-16.3 -3.1,-5.3 -6.3,-10.4 -8.1,-16.3 -0.6,-2 -0.8,-3.8 -0.8,-5.7 -0.1,-2.8 0,-5 4.1,-3.3 1.8,0.8 4.3,0.1 7.6,0.1 -4.2,-3.1 -8.3,-2.4 -11.5,-2.2 -1.7,0.1 -2.2,4.7 -2.6,7.7 -0.5,3.9 3.1,7.3 0.7,11 3,0.5 2.3,3.9 4.1,5.5 2.7,2.4 5.1,4.9 5.9,8.7 0.2,0.8 1.7,1.3 2.7,1.9 4.1,2.5 8.6,4.5 11.9,8 1.7,1.8 3.4,0.5 5.1,1.2 5.2,2.1 7.5,7.1 11.7,10.2 1,-2.5 -2,-2.7 -2.4,-5.1 10.6,5.3 22.5,7.4 30.4,17.1 -0.1,-3.2 -3.4,-4.1 -4.6,-7.1 5.3,1.6 6.6,7.4 12.7,9.8 -2.5,-2.7 -4,-4.4 -5.9,-6.5 2.3,0.4 4.1,0.6 5.8,1.2 1.6,0.5 2,3.2 4.4,2.6 1.3,0.2 2.1,1.2 2.9,2.1 0,1.9 1.4,3 2.7,3.9 2.7,2.1 1.3,4.2 -0.1,6 -1.8,2.4 -3.2,0.5 -4.9,-0.7 -4.3,-3 -7.7,-7 -11.9,-10.2 1,3.1 2.9,5.5 5.3,7.5 -1.7,1.2 -2.3,-0.3 -3,-1 -2.8,-2.7 -5.9,-5.1 -8.1,-8.2 -4.3,-6 -11.1,-7.9 -17.1,-11.2 -2.9,-1.7 -4.6,0.3 -4,5.1 -1.7,-1.6 -3.1,-2.8 -4.4,-4.1 1.5,4.2 5.8,6.6 6.3,11.3 -1.8,0.5 -1.9,-2.3 -3.6,-2 -0.1,0.3 -0.3,0.8 -0.2,1 5,8.3 4.2,18.4 8.6,26.9 0.6,1.1 0.4,2.2 0.1,3.4 -4.8,15.4 -8.3,31.3 -15.1,46.1 -1.4,3 -0.4,3.5 2.2,3.3 1.5,-0.1 3.1,0.3 4.4,-0.2 1.4,-0.5 2.7,-1.3 3.1,0.5 0.3,1.4 -1.7,0.5 -2.5,1.2 -1.8,1.5 -4.6,1.1 -6.6,1.2 -5.9,0.3 -9,3.5 -10.8,8.4 -1.5,4.1 -3.7,6.6 -9.9,4 3.7,-2.9 7.5,-5.7 11.2,-8.6 -0.4,-0.4 -0.7,-0.9 -1.1,-1.3 -5.5,2.9 -11.2,5.2 -17.3,6 -2,0.3 -2,0.4 -4.6,-2.4 11,1.9 18.5,-4.9 26.6,-9.3 5,-2.8 6.7,-9.5 8.1,-14.9 2.3,-8.7 5.5,-17.1 6.7,-26.1 1.4,-10.3 -0.5,-19.6 -4.1,-28.9 -2.3,-5.9 -4.2,-12 -9.3,-16.2 -0.8,-0.7 -1.4,-2.7 -2.7,-1.6 -1.5,1.3 -0.4,2.8 1,3.8 0.3,0.2 0.5,0.7 1.1,1.7 -4,-1.4 -5.3,-5.2 -8.8,-6.6 0.4,2.5 2.6,3.1 3.3,4.7 -3.8,-0.5 -5.3,-1.8 -9.6,-8 -0.3,-0.4 -0.3,-1.2 -0.5,-1.3 -1.4,-0.3 -1.1,-3.3 -2.6,-2.4 -2.5,1.6 0.4,2.5 1,3.8 1.4,2.8 3.9,4.7 5.4,7.6 -5.4,-6 -11.4,-11 -19.2,-13.6 3.3,3.5 6.6,6.9 9.9,10.4 l 0.1,-0.1 c -2.4,1 -3.1,-1.3 -4.4,-2.4 -3.5,-3 -6.1,-7.1 -11.3,-9.6 3.7,7.6 12.9,10 13.8,19.9 -4.6,-9.2 -12,-14 -18.4,-21.4 1.1,5.6 7.3,8 5.9,13.7 -3.3,-7.3 -8.9,-12 -14.8,-16.3 -7.8,-5.7 -16.1,-10.7 -21.5,-19.3 -5.5,-8.9 -6.4,-18 -4.3,-27.9 1.9,-8.9 7,-15.8 13.2,-22.1 1.7,0.7 -0.8,2.1 0.3,2.6 1.1,0.5 2,-0.6 2.2,-1.5 0.9,-4.4 4.8,-6.5 7.1,-9.8 0.9,-1.2 2.2,-2.1 3,-3.3 4.4,-7 2.7,-9.9 -5.6,-10.3 -2.8,-0.1 -4.9,0.4 -7.2,2 C 90,93.8 79,99.4 71.2,109.2 c -1.5,1.9 -3.8,3.1 -6,4.3 2.5,-6.5 8.7,-9.9 12.1,-15.6 -6.1,5.9 -13.4,10.6 -17,18.8 2.8,-11.1 9.2,-19.4 18.4,-25.9 -5.4,0.7 -4,-2 -2.2,-5 7.2,-12.1 18.5,-18.6 31.8,-20.5 6.2,-0.9 13.2,1.3 18,6.6 0.5,0.6 2,0.9 1,2.2 -1.1,1.4 -1.6,-0.6 -2.2,-0.4 -2.4,0.6 -3.2,-1.9 -5.4,-2.8 0.8,2 0.1,3.7 2.9,4.5 4.1,1.2 7.5,9.9 6.2,14.9 -0.6,2.5 -1.5,4.8 -2.5,7.9 -0.8,-4 1.8,-7.4 0,-11.1 -1.6,6 -2.7,11.9 -4.7,17.4 -2.1,5.7 -6.9,9.7 -10.8,14.4 -4.9,5.8 -9.2,12.2 -8.9,20.4 0,1.1 -0.3,2.4 0.9,3.2 1.5,0.9 2.5,4.2 4.2,2.7 1.6,-1.4 -1.6,-2.4 -2.3,-3.8 -0.3,-0.6 -0.9,-1 -0.5,-2 2.1,1.3 4.3,2.3 6.3,3.8 3.5,2.6 8.5,0 8.6,-1.3 0.4,-4.7 3.7,-7.7 5.4,-11.6 3.8,-8.7 11.1,-12.7 20.4,-14.3 10.1,-1.8 19.6,-0.5 29.1,3 6.6,2.5 11.5,7 17.1,11.4 -1.5,0.9 -2.7,1.5 -3.9,2.2 2.2,1.8 4.6,-0.6 6.2,0 2.1,0.7 3.5,3.4 5.2,5.2 -1.3,0.5 -2.6,1.5 -3.4,2.9 1.1,1.1 1.7,0.1 2.3,-0.6 1,-1.1 2,-1.3 2.8,0 1.1,1.7 -1,0.9 -1.4,1.5 -1.4,2 1.6,3.7 0.1,5.5 1.5,-0.9 0.3,2.9 2.1,1.3 0.9,-0.9 3,-1.6 1.1,-3.5 -0.7,-0.7 -1.6,-1.3 -0.3,-2.2 1.1,-0.8 1.5,0.4 1.8,0.9 1.4,1.9 5.6,3 2.3,6.7 -0.1,0.1 0.6,1.2 1.1,1.4 1.2,0.6 0.6,-0.6 0.8,-1 1.2,-2.6 1.6,0.3 2.4,0.4 2.2,0.3 1.1,1.1 0.3,2 -0.4,0.4 -1.6,-0.1 -1.3,0.9 0.2,0.6 0.7,1.6 1.8,0.7 0.8,-0.7 1.5,-0.2 2.1,0.4 6.1,6.1 8.2,14.2 11.8,21.7 -4.9,-6 -6.8,-13.6 -12.2,-19.7 -0.9,1.4 1.6,4.4 -1.9,4.2 0.1,0.9 0,2.4 0.4,2.6 4.6,2.1 6.6,4.2 8.1,9.2 -4,-5.8 -11.7,-6.5 -16,-11.8 -1.9,-2.3 -3.6,1.2 -5.3,-0.3 -0.8,-0.2 -1.7,-0.3 -2.8,-0.6 1.1,0.3 2,0.5 2.9,0.5 5.8,5.1 11.6,10.3 17.6,15.3 1.7,1.4 3.3,2.7 4.5,4.5 -2.3,0.1 -4.6,0 -7.2,0.6 1.8,2.1 4.6,2.4 6.3,4.3 -1.4,-1.4 -3.5,-1.9 -4.8,-3.9 1.8,-1.9 4,-0.7 5.7,-1.4 z"
   class="st0" />
		<path
   id="path19686"
   d="m 142.1,192.9 c 4.5,4.3 9.5,8.3 11.9,14.4 -2.6,-1.4 -3.1,-4.5 -6.5,-6.6 1.9,4.4 3,8.2 5.1,11.3 1.8,2.6 4.1,4.3 0.4,6.9 -0.3,0.2 0.1,1.2 0.1,1.9 1.3,-0.5 0.7,-2.5 3.1,-2.3 -7.9,19.2 -16.8,37.8 -26.8,56.1 4.2,1.5 8.2,-0.1 12.2,-2.5 -0.4,3 -5.8,6.7 -9.4,5.7 -3.1,-0.9 -4.1,0.2 -5.5,2.5 -1.5,2.5 -3.6,4.7 -5.6,6.8 -0.5,0.6 -1,2.6 -2.5,1 -1.1,-1.2 -1,-2.4 0.2,-3.5 2.4,-2.3 4.9,-4.5 7,-7.5 -5.6,6.2 -13.9,3.6 -20.4,6.7 -0.6,-1.6 -0.7,-3.2 0,-4.8 10,2.2 19.7,-1.2 24.7,-10.9 7.2,-13.8 14.4,-27.7 19.2,-42.5 2.9,-9 1,-18.7 -4.2,-27.2 -1.1,-1.8 -3.5,-3.1 -2.9,-5.8 0.1,0.1 -0.1,0.3 -0.1,0.3 z"
   class="st0" />
		<path
   id="path19688"
   d="m 123.6,273.6 c -4.9,5.2 -10.4,2.1 -14.8,4.2 -0.3,0.1 -1.7,-2.2 -2.8,-3.7 5.8,1.5 11.2,1.3 17.6,-0.5 z"
   class="st0" />
		<path
   id="path19690"
   d="m 149.2,285.3 c -3,2.8 -6.2,1.6 -9.1,1.3 -0.5,0 -1.4,-1.1 -1,-1.9 0.2,-0.4 1.3,-0.8 1.6,-0.6 2.5,1.5 5.4,0.5 8.5,1.2 z"
   class="st0" />
		<path
   id="path19692"
   d="m 216.8,204 c -1.4,0 -2.4,-0.8 -2.9,-2.1 0,-0.9 -1.5,-1.4 -0.4,-3 1.1,1.9 3.8,2.2 3.3,5.1 z"
   class="st0" />
		<path
   id="path19694"
   d="m 148.1,299.1 c 1.7,0 3.2,0 4.7,0 -1.6,3.3 -3,3 -4.7,0 z"
   class="st0" />
		<path
   id="path19696"
   d="m 147,275.9 c 0,1 -0.7,1.3 -1.2,1 -0.7,-0.3 -1.3,-1 -1.6,-1.7 -0.3,-0.6 0.1,-1.3 1,-1.2 0.9,0.3 1.5,1 1.8,1.9 z"
   class="st0" />
		<path
   id="path19698"
   d="m 134.2,285.7 c 0.9,-1.8 2.1,-1.9 3.6,-1.5 -0.7,1.8 -1.9,2.1 -3.6,1.5 z"
   class="st0" />
		<path
   id="path19700"
   d="m 116.2,288.1 c 1,0.7 2.4,1.1 1.4,2.6 -0.3,0.5 -1.1,1.3 -1.3,0.8 -0.3,-1 -0.1,-2.2 -0.1,-3.4 z"
   class="st0" />
		<path
   id="path19702"
   d="m 132,292.8 c 1.1,-1.6 1.9,-2.4 3.1,-1.1 0.3,0.3 0.3,0.7 0.4,1.1 -1.1,0 -2.2,0 -3.5,0 z"
   class="st0" />
		<path
   id="path19704"
   d="m 177.3,278.7 c 2.9,0.6 3.7,1.7 4.6,3.3 -2.2,-0.1 -2.8,-1.4 -4.6,-3.3 z"
   class="st0" />
		<path
   id="path19706"
   d="m 184.3,173.5 c 6.9,3.5 13.7,7.1 20.7,9.9 7,2.8 13.7,6.9 21.4,7.4 -16.1,-0.8 -28.7,-10.1 -42.1,-17.3 z"
   class="st1" />
		<path
   id="path19708"
   d="m 93.4,83.2 c -4.2,6 -8.7,4.2 -13,0.2 4.2,-4.9 5.9,-4.9 13,-0.2 z"
   class="st1" />
		<path
   id="path19710"
   d="m 98.8,69 c 6.1,-0.3 11.3,-3.3 17.1,-1.2 1.9,0.7 1.1,2.6 2.7,2.9 -1.2,0.6 -2,0 -3.1,-0.5 -3.9,-1.8 -7.9,-0.4 -11.8,0.6 -2.3,0.6 -2.3,0.8 -4.9,-1.8 z"
   class="st1" />
		<path
   id="path19712"
   d="m 220.3,180.3 c -1.3,1.4 -3.2,0.2 -5.2,1.1 2.6,1.4 5,2.7 7.4,4 -1.5,1.6 -2.9,2.2 -4.7,0 -1.6,-1.9 -4,-2.5 -6.2,-3.5 -0.7,-0.3 -1.6,-0.8 -1.3,-1.7 0.3,-0.6 1.1,-1.6 1.9,-1.1 2.5,1.8 5.5,0.1 8.1,1.2 0.1,0.1 0,0 0,0 z"
   class="st1" />
		<path
   id="path19714"
   d="m 127.2,131 c 1.5,-5.2 6,-6.5 9.8,-8.5 0.9,-0.5 1.1,0.3 1.5,0.6 0.5,0.5 0,1 -0.3,1.1 -4.5,0.7 -6.1,6.1 -11,6.8 z"
   class="st1" />
		<path
   id="path19716"
   d="m 194.9,175.1 c 6.9,1.8 12.6,6 18.5,9.7 -6.5,-2.5 -13.1,-4.9 -18.3,-9.9 z"
   class="st1" />
		<path
   id="path19718"
   d="m 186.3,183.7 c 6.5,1.6 12,5.7 18.4,7.7 -5.3,0.1 -9.6,-3.1 -14.3,-4.8 -1.3,-0.5 -4.5,0.4 -4,-3 z"
   class="st1" />
		<path
   id="path19720"
   d="m 214.7,177.4 c -5.9,-0.3 -11.3,-1.7 -15.4,-6.3 4.9,2.6 10.4,3.7 15.4,6.3 z"
   class="st1" />
		<path
   id="path19722"
   d="M 84.6,93.1 C 83.7,91.6 87,91 85,89.5 c -2.1,-1.6 -3.2,0.3 -5.2,1.8 0.6,-2.1 1,-3.5 1.5,-5.3 3.3,3.4 7.3,3.2 11.4,2.4 -2.6,1.6 -5.3,3.1 -8.1,4.7 z"
   class="st1" />
		<path
   id="path19724"
   d="m 194.2,146.2 c -5.5,-1.3 -4.1,-4.9 -3.8,-7.8 0.1,-0.7 1.8,-1.9 2.5,-1.7 1.3,0.3 1.7,2.3 0.9,2.8 -3.4,2.2 -0.2,4.1 0.4,6.7 z"
   class="st1" />
		<path
   id="path19726"
   d="m 221.4,192.6 c -5.9,0 -11.5,-0.8 -16,-5 l -0.1,0.1 c 5.3,1.7 10.7,3.3 16,5 0,0 0.1,-0.1 0.1,-0.1 z"
   class="st1" />
		<path
   id="path19728"
   d="m 147,130.3 c -3.4,-1.6 -5.6,0.4 -8,1.2 -0.7,0.2 -1.8,0.8 -1.4,-0.3 0.3,-0.8 -1.1,-2.2 0.4,-2.2 2.8,0.1 5.9,-2.8 9,1.3 z"
   class="st1" />
		<path
   id="path19730"
   d="m 89.2,133.2 c -0.1,-1 -0.3,-1.5 -0.2,-1.6 1.6,-1.1 0.2,-4.3 3,-4.5 0.9,-0.1 0.8,0.8 0.9,1.4 0.3,2.6 -1.2,3.8 -3.7,4.7 z"
   class="st1" />
		<path
   id="path19732"
   d="m 180.7,126.5 c 2,-0.4 2.5,-0.5 2.6,-0.5 1,1.8 4,1.3 4.3,3.8 0,0.3 -0.7,0.9 -1,0.9 -2.8,0.1 -3.2,-2.5 -5.9,-4.2 z"
   class="st1" />
		<path
   id="path19734"
   d="m 96.9,75 c -3.4,-2.6 -4.9,1.4 -7.5,1.6 2.1,-4.6 3.8,-5 7.5,-1.6 z"
   class="st1" />
		<path
   id="path19736"
   d="m 105.8,84 c -2.4,-4.9 4.8,-1.3 4,-4.9 2.2,0.7 2.9,2.3 0.4,2.7 -2,0.2 -2.7,2.4 -4.4,2.2 z"
   class="st1" />
		<path
   id="path19738"
   d="m 188.8,171.2 c -2.4,0.4 -2.8,-3.8 -5.6,-2.5 -0.1,-0.6 -0.2,-1.3 -0.1,-1.9 0.1,-0.3 0.7,-0.5 1,-0.7 0.7,1.4 3.6,0.4 3.3,1.7 -0.6,1.9 2.3,2 1.3,3.6 z"
   class="st1" />
		<path
   id="path19740"
   d="m 158.9,189.4 c -3.3,4.1 -3,-3.4 -5.6,-1.7 -0.4,-1.9 0.8,-3 1.9,-1.7 1.1,1.4 2.7,2.1 3.7,3.4 z"
   class="st1" />
		<path
   id="path19742"
   d="m 186.4,183.6 c -3.9,1.3 -6,-2.4 -10,-3.1 4.8,-1.6 6.8,2.3 9.8,3.2 0.1,0 0.2,-0.1 0.2,-0.1 z"
   class="st1" />
		<path
   id="path19744"
   d="m 138.2,174.8 c 2.7,0.6 3.8,2.8 5.3,4.3 0.3,0.3 -0.2,2 -0.8,2.3 -0.8,0.4 -1.5,-0.2 -1.3,-1.5 0.4,-2.3 -2.7,-2.6 -3.2,-5.1 z"
   class="st1" />
		<path
   id="path19746"
   d="m 122.7,136.5 c 1.2,-1.7 2.2,-3.2 3.5,-5 0.7,4.1 0.4,4.4 -3.5,5 z"
   class="st1" />
		<path
   id="path19748"
   d="m 198.1,184.5 c -3.5,1.4 -5.3,-1.1 -8.2,-1.8 3.5,-1.7 5.3,0.9 8.2,1.8 z"
   class="st1" />
		<path
   id="path19750"
   d="m 114.9,173.4 c 4.3,-1.6 3.8,3 7,4.4 -4.2,-0.1 -4.9,-2.9 -7,-4.4 z"
   class="st1" />
		<path
   id="path19752"
   d="m 151.7,180.9 c -1.7,-2.5 -3.3,-4.8 -5.2,-7.7 3.7,2.3 4.8,4.2 5.2,7.7 z"
   class="st1" />
		<path
   id="path19754"
   d="m 94.7,118.2 c 0.1,0.4 0.3,0.8 0.2,1 -1.2,1.4 -0.4,4 -2.6,4.8 -0.3,0.1 -1.2,-0.4 -1.2,-0.5 0.5,-2.3 1.5,-4.2 3.6,-5.3 z"
   class="st1" />
		<path
   id="path19756"
   d="m 89.2,134.9 c 3,2 -0.5,5.4 2.5,6.8 -2.7,-1.5 -2.7,-1.5 -2.5,-6.8 z"
   class="st1" />
		<path
   id="path19758"
   d="m 89.5,146.3 c 4.1,1 1.5,4.5 2.6,6.7 -1.6,-2 -1.2,-4.7 -2.6,-6.7 z"
   class="st1" />
		<path
   id="path19760"
   d="m 129.2,175 c -1.1,0 -1.7,-0.6 -1.8,-1.7 1.7,0 0.5,-2.2 1.6,-2.2 1.2,0 1.9,1 2,2.3 0.1,1.4 -0.6,1.7 -1.8,1.6 z"
   class="st1" />
		<path
   id="path19762"
   d="m 188.7,171.3 c 3.1,-0.3 5,1.2 6.2,3.8 0,0 0.1,-0.1 0.1,-0.1 -2.8,-0.1 -4.6,-1.8 -6.2,-3.8 0,0 -0.1,0.1 -0.1,0.1 z"
   class="st1" />
		<path
   id="path19764"
   d="m 171.3,177.5 c 0.8,0.4 2,-2.7 3.9,-0.7 0.6,0.6 0.5,0.9 0,1.5 -1.9,1.9 -3.1,-1.2 -3.9,-0.8 z"
   class="st1" />
		<path
   id="path19766"
   d="m 198.4,160.6 c -2.7,1 -4.7,0.3 -6.9,-3.4 3,1.6 4.9,2.6 6.8,3.5 0,0 0.1,-0.1 0.1,-0.1 z"
   class="st1" />
		<path
   id="path19768"
   d="m 164.9,184.2 c 2.8,1.9 4.4,3.1 5.4,5.8 -1.9,-2 -3.3,-3.5 -5.4,-5.8 z"
   class="st1" />
		<path
   id="path19770"
   d="m 180.2,175.5 c -3.2,1.5 -4,-1.7 -6.4,-2 2.9,-1.1 4.3,0.5 6.4,2 z"
   class="st1" />
		<path
   id="path19772"
   d="m 186.7,164.6 c 2.9,-1.5 3.9,0.6 5.4,2.2 -2.4,0.2 -3.6,-1.2 -5.4,-2.2 z"
   class="st1" />
		<path
   id="path19774"
   d="m 195.8,165.2 c -0.2,0 -0.3,-0.1 -0.5,-0.1 -1.3,-0.9 -2.7,-1.8 -4,-2.8 0.3,-0.3 0.9,-1 1,-1 1.5,1 3.3,1.8 3.3,4 z"
   class="st1" />
		<path
   id="path19776"
   d="m 122.7,163.8 c 1.4,0.8 2.9,1.6 4.5,2.6 -2.9,1.5 -3.8,-0.6 -4.5,-2.6 z"
   class="st1" />
		<path
   id="path19778"
   d="m 170,193.6 c -1.6,-1.2 -3,-2.3 -4.4,-3.5 0.3,-0.3 0.6,-0.6 1,-0.9 1.2,1.4 3,2.1 3.4,4.4 z"
   class="st1" />
		<path
   id="path19780"
   d="m 119.2,172.8 c 2.2,-0.1 4.2,0.1 5,3.3 -2,-1.4 -3.5,-2.4 -5,-3.3 z"
   class="st1" />
		<path
   id="path19782"
   d="m 204.7,151.8 c -1,-0.7 -2.2,-1.2 -2.3,-2.6 0,-0.3 0.7,-1.3 1.4,-0.8 1.3,0.8 1.5,2 0.9,3.4 z"
   class="st1" />
		<path
   id="path19784"
   d="m 157.5,139.8 c -1.1,-1.1 -2.2,-2.3 -3.5,-3.7 2.6,0 3.1,1.8 3.5,3.7 z"
   class="st1" />
		<path
   id="path19786"
   d="m 147.8,178.5 c -2.1,0.7 -2.4,-1.3 -3.9,-1.9 2.6,-1.5 2.5,1.6 3.9,1.9 z"
   class="st1" />
		<path
   id="path19788"
   d="m 207.7,160.9 c -1.6,-0.9 -2,-2 -1.4,-3.6 1.7,0.6 2,1.8 1.4,3.6 z"
   class="st1" />
		<path
   id="path19790"
   d="m 123.9,157.7 c -2,0.6 -3.1,0.2 -3.6,-1.3 1.5,-0.9 2.7,-0.4 3.6,1.3 z"
   class="st1" />
		<path
   id="path19792"
   d="m 197.2,155.4 c 0.8,0.9 2.6,0 2.7,1.8 0,0.3 -0.7,0.8 -0.9,0.8 -1.3,-0.3 -1.8,-1.2 -1.8,-2.6 z"
   class="st1" />
		<path
   id="path19794"
   d="m 205.4,187.6 c -2,1 -3.5,0 -5.2,-1.3 2.3,-0.8 3.6,0.7 5.1,1.4 0,0 0.1,-0.1 0.1,-0.1 z"
   class="st1" />
		<path
   id="path19796"
   d="m 147,137.5 c 2.1,-0.7 3.8,-0.7 6.1,0 -2.3,0.7 -4,0.7 -6.1,0 z"
   class="st1" />
		<path
   id="path19798"
   d="m 215.2,205.8 c -2.6,0.4 -3,-1.4 -4.3,-2.4 2.3,-0.8 2.8,1.2 4.3,2.4 z"
   class="st1" />
		<path
   id="path19800"
   d="m 98.7,117.9 c 0.2,-1.4 0.2,-2.9 2.3,-3.9 0,2 -1.1,3 -2.3,3.9 z"
   class="st1" />
		<path
   id="path19802"
   d="m 224.6,186.3 c 0.1,0.3 0.5,0.7 0.3,0.9 -0.4,0.6 -1,1.1 -1.5,1.6 -0.4,-0.5 -0.8,-0.9 -1.2,-1.4 0.7,-0.4 1.5,-0.7 2.4,-1.1 z"
   class="st1" />
		<path
   id="path19804"
   d="m 163.1,190.2 c 1.4,0.5 2.2,1.3 2.7,2.7 -2,0 -2.8,-0.7 -2.7,-2.7 z"
   class="st1" />
		<path
   id="path19806"
   d="m 97.8,112.9 c 0.2,2.3 -0.7,2.9 -2.2,3.1 -0.4,-1.7 1.1,-2 2.2,-3.1 z"
   class="st1" />
		<path
   id="path19808"
   d="m 195.7,165.3 c 1.8,-1 2.7,0.7 4.2,1.2 -2.1,1.2 -3,-0.1 -4.1,-1.3 0,0 -0.1,0.1 -0.1,0.1 z"
   class="st1" />
		<path
   id="path19810"
   d="m 172.2,175.5 c -2.4,0.9 -3.3,0.1 -4.1,-1.1 1.7,-1.1 2.4,0.9 4.1,1.1 z"
   class="st1" />
	</g>
</g>
</svg>
