<?xml version="1.0" encoding="UTF-8" standalone="no"?>
<svg
   xmlns:dc="http://purl.org/dc/elements/1.1/"
   xmlns:cc="http://creativecommons.org/ns#"
   xmlns:rdf="http://www.w3.org/1999/02/22-rdf-syntax-ns#"
   xmlns:svg="http://www.w3.org/2000/svg"
   xmlns="http://www.w3.org/2000/svg"
   xmlns:sodipodi="http://sodipodi.sourceforge.net/DTD/sodipodi-0.dtd"
   xmlns:inkscape="http://www.inkscape.org/namespaces/inkscape"
   inkscape:version="1.0 (4035a4f, 2020-05-01)"
   height="216.67935"
   width="241.14075"
   sodipodi:docname="horse-passant.svg"
   xml:space="preserve"
   viewBox="0 0 241.14075 216.67935"
   y="0px"
   x="0px"
   id="Layer_1"
   version="1.1"><metadata
   id="metadata20553"><rdf:RDF><cc:Work
       rdf:about=""><dc:format>image/svg+xml</dc:format><dc:type
         rdf:resource="http://purl.org/dc/dcmitype/StillImage" /><dc:title></dc:title></cc:Work></rdf:RDF></metadata><defs
   id="defs20551" /><sodipodi:namedview
   inkscape:current-layer="Layer_1"
   inkscape:window-maximized="0"
   inkscape:window-y="25"
   inkscape:window-x="0"
   inkscape:cy="136.27115"
   inkscape:cx="121.39533"
   inkscape:zoom="2.52"
   fit-margin-bottom="0"
   fit-margin-right="0"
   fit-margin-left="0"
   fit-margin-top="0"
   showgrid="false"
   id="namedview20549"
   inkscape:window-height="480"
   inkscape:window-width="820"
   inkscape:pageshadow="2"
   inkscape:pageopacity="0"
   guidetolerance="10"
   gridtolerance="10"
   objecttolerance="10"
   borderopacity="1"
   bordercolor="#666666"
   pagecolor="#ffffff" />
<style
   id="style20384"
   type="text/css">
  .st0{fill:#FFFFFF;}
  .st1{fill:#000000;}
</style>
<g
   transform="translate(-28.604671,-63.728854)"
   id="g20546">
	<g
   id="g20544">
		<path
   id="path20386"
   d="m 58.2,279.4 c 4.6,-4.6 8.2,-9 13.3,-12.2 5.7,-3.6 7.7,-10.3 9.7,-16.5 3.5,-10.8 6,-21.9 8.1,-33 0.9,-4.6 0.7,-9.4 1.1,-14.2 0.1,-1.4 -0.5,-1.8 -1.8,-1.4 -10.7,3.3 -21.7,3.7 -32.8,3.7 -1.8,0 -3.3,0.7 -5,1.2 -1.2,0.3 -2,1.4 -2,2.3 -0.2,4.5 -1.8,8.7 -1.8,13.2 0,3.9 0.5,8.2 -2.6,11.6 -1,1.2 1,6.2 2.8,6.5 5,1.1 5.7,5 5.9,9 0.1,2.5 1.6,6.1 -1,7.4 -2.8,1.4 -4.1,-2.4 -6,-4 -5.4,-4.6 -7.9,-11.1 -11,-17.2 -0.5,-0.9 -0.4,-2.3 -0.1,-3.3 2.4,-8.2 3.5,-16.5 2.9,-25 -0.6,-8.3 3.6,-11.1 10,-12.9 7.6,-2.1 15,-5 22.5,-7.5 2.3,-0.8 1.8,-1.7 1.4,-3.2 -1.2,-4.9 -3.6,-9.8 -2.6,-14.8 1.8,-8.4 -1.8,-16.2 -1.6,-24.3 0.2,-7.2 1.5,-14.4 1.5,-21.6 0,-3.4 -1.1,-6.2 -4.2,-7.4 -2,-0.8 -4.7,0.1 -6.3,1.6 -3.4,3.3 -7.2,6.4 -8.8,11.3 -0.8,2.6 -3.1,4.9 -6.6,2.8 -0.7,-0.4 -1.2,-0.9 -1.8,0.5 -0.5,1.1 -1.7,1.8 -2.6,2.7 -0.8,0.9 -1.7,1.8 -2.9,1.2 -1,-0.4 -1.3,-1.5 -1.1,-2.6 0.4,-2.2 -0.6,-2.9 -2.7,-2.6 -2,0.3 -2.4,-0.8 -2.7,-2.7 -1,-5.2 1.5,-8.9 4.8,-12.2 3.3,-3.3 4.2,-7.7 5.8,-11.7 1.2,-3.1 -0.7,-4.9 -5.2,-4.5 2.9,-1.1 4.3,-2.4 5.2,-4.7 -4.9,1 -7.3,-2.9 -10.6,-5 -0.5,-0.3 -1,-0.9 -0.4,-1.5 0.9,-0.9 1.4,1 2.6,0.2 -2.3,-3.5 -5.3,-7.2 -0.2,-11.8 -0.1,3.1 1.4,4.7 3,6.1 0.7,0.6 1.4,1 2,0.6 0.9,-0.6 -0.1,-1.3 -0.3,-1.8 -1.3,-3.3 -0.5,-6.7 -0.5,-10 0,-1.9 1.6,-0.7 1.9,0 1.1,2.1 3.2,3.1 4.5,5.3 0.9,-1.9 1.9,-3.5 2.5,-5.2 0.5,-1.3 1.2,-2.5 2.4,-2.5 1,0 1.8,1.2 2.2,2.3 1,2.6 1.5,3.6 4.5,0.8 4.5,-4.1 10.9,-4.3 16.9,-4.8 1.3,-0.1 4.5,1.8 3.3,-2.6 -0.4,-1.4 3.4,-1.8 4.2,-0.4 2.1,3.7 5.2,3.6 8.7,4.2 3.4,0.6 6.5,2.6 9.6,4.3 2.7,1.4 4.4,0.7 5,-2 1,-3.8 2.3,-2.4 3.9,-0.5 2.8,3.3 0.9,5.9 -1.6,8.3 3.6,1 5.8,-0.3 7.2,-3.4 0.3,-0.5 0.2,-1.7 1.2,-1.6 1,0.1 1.1,1 1.6,1.8 2.3,4.2 0.3,7.1 -3,9.6 3.7,1.5 3.7,1.3 7.7,0.2 2.3,-0.6 2.5,1.5 2,2.8 -1.8,4.2 0.3,7.4 2.7,10.4 1.3,1.7 2.8,3.1 3.6,-0.5 0.2,-1 1,-1.9 1.5,-2.9 3.4,3.6 3.2,6.8 -0.9,11 4.5,2.7 5.1,7 4.6,11.7 -0.3,3.3 0.6,6.3 1.5,9.4 0.6,2 1.8,3.1 3.8,2.6 1.1,-0.2 2,-0.9 1,-2.5 -0.4,-0.6 -2.4,0.1 -1.2,-1.4 1,-1.1 2,-0.6 2.9,0.3 1.8,1.8 0.8,5.9 -2,7.5 -0.7,0.4 -1.5,0.8 -2.4,0.8 -1.4,0.1 -3.9,-1 -4,1.2 0,2.3 1.4,5 4,5.5 5.3,1 10.7,1.8 16.1,2.3 9.9,0.9 19.5,-0.9 29.1,-3.1 6.2,-1.4 12.6,-1.1 18.7,-0.4 8.8,0.9 17,4.3 24.8,8.4 1.5,0.8 3.1,2.2 4.7,0.7 1.7,-1.6 2.1,-4 1.2,-5.9 -2.7,-5.5 -1.3,-10.5 1.3,-15.5 2.4,-4.6 11.4,-8.5 16.5,-7.2 2.1,0.5 4.3,0.7 6.3,1.7 1.6,0.8 2.9,-0.1 3.9,-1.5 0.4,-0.6 0.5,-1.2 -0.4,-1.4 -0.6,-0.1 -1.8,1.3 -1.5,-0.6 0.2,-1.4 1.2,-1.9 2.4,-1.7 1.5,0.3 3,0.7 3.7,2.5 0.8,2 1.4,3.9 -0.3,5.5 -1.2,1.1 -1,2 -0.4,3.1 4,7.2 5.8,14.9 5.1,23.1 -0.3,3.9 -1.4,7.5 -2.8,11.3 -1.9,5.2 -2.2,10.9 1.3,16.2 -2.5,1.8 -5.1,3.1 -8.2,1 -0.4,-0.3 -0.8,-0.7 -1.3,-0.3 -0.6,0.5 -0.5,1.2 -0.2,1.7 1.1,1.7 1.6,3.7 3.6,5 7.1,4.7 10.7,11.4 10.7,20.1 -0.1,7.9 0.9,16 -3,23.4 -1.4,2.6 -1.9,4.9 0.8,7.2 -5.5,0.3 -6.7,-0.7 -7.1,-5.6 -2.4,0.6 -4.7,1 -6.6,-1.4 -1.6,-2.2 -0.6,-3.9 0.4,-5.8 0.4,-0.7 0.5,-1.8 1.7,-1.4 1.5,0.5 -0.4,1.3 0.1,2 0.3,0.4 -0.1,1.2 0.5,1.7 2.9,-2 3.6,-6.2 1.5,-9.7 -1.7,-2.9 -4.3,-5.1 -6.7,-7.5 -0.3,-0.3 -0.7,-0.7 -0.9,-0.6 -4.3,1.8 -6.6,-2.4 -9.9,-3.3 -0.6,-0.2 -1.3,-1.3 -2.2,-0.2 -0.9,1.1 0.1,1.5 0.5,2.2 1.9,3.4 4.6,6.2 8,7.6 4.6,1.9 5.4,5.2 4.7,9.3 -1.5,8.8 -1.6,17.7 -1.4,26.6 0.1,3.5 -0.2,6.9 0.6,10.5 1,4.7 -1,7.7 -5.9,9.2 -2.8,0.9 -4.7,2.5 -6.2,4.9 -2.4,3.7 -11.7,6.2 -15.3,4.2 -1.1,-0.6 -0.8,-1.7 0,-2.4 3.5,-3.1 6.1,-7.3 10.7,-9.3 2.1,-0.9 3.4,-2.4 4.2,-4.8 2.5,-8.3 2.5,-16.6 1.2,-25.1 -0.3,-1.9 0.1,-3.8 -0.2,-5.7 -1.1,-6.6 -4.6,-11 -11,-13.8 -5.9,-2.6 -11.3,-6.3 -16.5,-10.1 -3.1,-2.3 -4.8,-1.5 -5,2.4 -0.2,4 0.9,8 2.6,11.4 2,3.9 0.8,6.8 -1,9.9 -6.6,11.2 -13.1,22.5 -17.9,34.7 -0.9,2.3 -2.2,4.1 -4.8,4.5 -4.2,0.7 -7.6,2.8 -10.3,6 -1.6,1.8 -3.5,2.6 -5.9,2.4 -2.8,-0.2 -5.6,0 -8.3,-0.1 -0.9,0 -2.3,0.7 -2.7,-0.5 -0.4,-1.2 0.8,-1.6 1.8,-1.9 0.1,0 0.2,-0.1 0.3,-0.2 3.9,-5.5 10,-8.3 15.5,-11.7 3.5,-2.1 5.9,-5.1 7.9,-8.7 3.4,-6.2 6.8,-12.3 8.5,-19.3 0.6,-2.6 2.3,-4.7 2.3,-7.7 0,-3.2 -0.6,-5.7 -3.3,-7.4 -9.5,-6.4 -13.6,-15.7 -15.2,-26.7 -0.3,-2.4 -0.9,-4.4 -5.1,-3.5 -11.9,2.4 -23.3,6.1 -35,9.1 -6.4,1.6 -12.8,2.6 -19.4,1.2 -5.1,-1.1 -6.5,0.4 -8.7,5.1 -4.9,10.6 -8.2,21.8 -12.3,32.7 -2.2,5.8 -2.9,12.1 -5.2,17.8 -2.3,5.5 -3.2,12.5 -11.1,13.6 -1.8,0.3 -2.7,1.9 -3.1,3.7 -0.7,3.1 -2.3,4.6 -5.8,4.4 -3.6,-0.6 -7.7,-0.3 -12.3,-0.3 z"
   class="st1" />
		<path
   id="path20388"
   d="m 126,122.3 c 0.8,3.9 0.2,8.2 3.4,11.5 -2.1,3.5 2.4,4.4 2.9,7.1 0.3,1.9 2.8,2.6 4.8,2.9 -1.3,2.9 -2.7,2.4 -4.1,0.2 -0.5,-0.8 -0.9,-2.2 -1.9,-1.7 -1.2,0.5 -0.3,1.6 0.1,2.5 0.3,0.6 0.1,1.5 0.1,2.3 -3.7,-2.1 -3.7,-2.1 -3.4,-10.2 -1.1,3.3 -2.9,6.1 -5.4,8.5 -6.1,6 -12.4,5.6 -16.9,-1.6 -1.8,-2.9 -3.8,-4.1 -7,-2.4 0.8,-3.9 1.9,-4.5 5.7,-3.2 2.6,0.9 4.8,1.4 6.3,-2 0.4,-0.9 1.3,-2.8 3.4,-2.1 1.3,0.4 0.5,-0.6 0.4,-1 -1.3,-5 -3,-10 -3.5,-15.1 -0.2,-2.5 -1.3,-4.3 -2.2,-6.3 -0.3,-0.6 -1.3,-1.2 -0.5,-1.9 0.5,-0.4 1.8,-0.5 2.1,-0.2 3.1,2.8 6.8,0.8 10.5,1.6 -1.6,-1.9 -3.2,-1.9 -5,-1.5 -3.1,0.6 -8.6,-1.7 -10.1,-4.3 -0.3,-0.5 -1,-1.1 -0.5,-1.9 0.6,-1.1 1.3,-0.1 1.9,0 3.4,0.7 3.4,0.8 6.5,-0.5 -1.9,-0.9 -4.2,0.6 -6.1,-0.9 -0.4,-0.3 -1.4,-0.1 -1.7,-0.4 -0.5,-0.6 0.2,-1 0.8,-1.3 0.7,-0.4 -0.1,-0.5 -0.3,-0.6 -1.7,-1 -2.6,1.9 -4.3,1 -0.7,1.4 1,1.1 1.3,1.8 4.1,8.9 6.8,18.1 9.1,27.6 0.8,3.2 -2.4,4.7 -3.8,6.9 -1.1,1.8 -2.5,-0.1 -3.4,-0.4 -3.2,-1.1 -5.7,-0.5 -7.6,2.1 -2.9,3.8 -3.2,7.9 -1.2,10.5 0.9,1.2 2.1,1.8 3.8,1 -3.1,-1.3 -2.3,-3.9 -1.9,-6 0.2,-1.2 1.5,-2.6 2.8,-2.7 1.1,-0.1 2,0.9 2.7,2.1 5.4,9.5 12.3,10.4 20.2,2.7 0.6,-0.6 1.2,-1.2 2,-1.9 1.2,2.3 2,4.6 4.6,5.7 1.4,0.6 2.3,0.1 2.3,-0.8 -0.1,-3.5 2.6,-2 3.5,-1.6 1.7,0.8 3.2,0.5 4.7,0.5 0.2,-1.6 -2.8,-1.3 -1.8,-3.1 0.7,-1.4 2.3,-0.7 3.4,-0.6 7.1,0.9 14.3,0.4 21.4,0.8 6,0.3 11.5,-1.7 17.2,-2.5 6.6,-0.9 13.1,-0.7 19.7,0 9.2,1 17.3,4.9 25.4,8.9 0.2,0.1 0.3,0.4 0.5,0.7 -0.9,1 -1.4,-0.3 -2.1,-0.4 -0.7,0 -1.4,-0.3 -2.3,-0.5 0.6,2.3 3.1,1.6 4.3,2.7 2.4,2.2 3.8,5 4.8,7.9 2.8,8.1 3.3,16.4 0.5,24.6 -0.8,2.5 -0.5,5.4 -2.6,7.5 -0.4,0.4 -0.3,1.7 0.3,2.5 4.7,5.9 7.9,12.9 13.9,17.7 0.5,0.4 0.8,1.1 1.4,1.3 5.3,1.5 5.2,5.7 4.7,9.8 -0.1,1.2 1.6,4 -2,3.4 -0.2,0 -0.9,1.8 -0.9,1.8 3.5,1.8 -0.8,4.3 0.6,6.5 1.9,2.9 0.6,6.3 0.8,9.5 0.4,5.1 -0.5,10.3 0.7,15.4 0.6,2.4 -0.6,4.7 -2.7,5.7 -2.6,1.2 -5.2,2.1 -7.2,4.3 -1.1,1.2 -2.2,0 -3.2,-0.9 -1.2,-1.2 -0.2,-1.9 0.5,-2.4 5.5,-3.6 6.1,-9.5 6.4,-15.2 0.4,-8.4 0,-16.7 -1.4,-25 -0.7,-4 -2.1,-7.3 -5.8,-9.2 -8.4,-4.2 -15.9,-10.2 -24.3,-14.1 -10.5,-4.9 -14.7,-12.8 -16.3,-23.2 -0.4,-2.9 -1.2,-5.7 -2.1,-8.6 0.8,3.8 -2,7 -1.6,11 -3.7,-2 -7.4,-1.3 -11.1,-0.4 0.9,2.4 3.3,0.6 4.8,1.8 1.3,1 3.4,-0.7 5,1.5 0.6,0.9 2.5,-1 2.8,-2.5 0.2,-1 0,-2 0,-3.6 2.2,3.4 -1.6,7.4 2.7,9.4 -1.7,1.3 -2.3,0.3 -2.6,-0.4 -0.5,-1 -0.3,-1.4 -1,0 -1.1,2.4 -3.3,1.9 -4.9,0.9 -5.6,-3.5 -11,-2.5 -17.2,-1 -13.3,3.2 -26.3,7.4 -39.7,10.1 -5.4,1.1 -11.3,-0.3 -18.1,-0.6 2.8,-1.1 4.5,-1.6 2.2,-3.7 -1.3,-1.2 -0.9,-3.5 -2.4,-4.8 2.5,-0.6 1.4,-2.9 2,-4.4 1.6,-3.8 2.8,-7.7 8.3,-5.1 0.4,0.2 1,0 1.5,0 0.2,0 0.4,-0.2 1.1,-0.6 -3.1,0.2 -5.3,-1.1 -7,-2.8 -1.9,-2 -2.5,-0.5 -3,0.9 -0.7,2.1 -1.7,4 -2.9,5.8 -2.2,3.5 -3.3,7.4 -1.7,11.4 0.7,1.7 0.4,3.2 0.8,5.6 -1,-1.6 -1.5,-2.4 -2.1,-3.4 -0.4,5.8 -3.6,10.4 -5.8,15.3 -3.4,7.7 -5.4,15.8 -8.2,23.7 -2.8,8 -5.5,16.1 -8.2,24.2 -0.4,1.2 -0.7,2.3 -1,3.5 -0.3,1.4 -0.8,2.9 -3.1,3.1 -2.5,0.2 -5,1.2 -6.7,3.4 -1.6,2.1 -2.5,0.2 -3.5,-0.6 -1.9,-1.6 0.2,-2.3 0.9,-2.6 4.9,-2.8 6.8,-7.8 8.7,-12.5 4.3,-10.8 6.5,-22.2 8.8,-33.5 1,-4.8 0.9,-9.8 1.9,-14.7 0.3,-1.6 -0.4,-3.3 0.7,-4.7 0.2,-0.2 0.2,-0.9 0,-1.1 -3,-4.3 1.3,-8.6 0.1,-12.9 -0.2,-0.7 0,-1.5 -0.3,-2.3 -0.4,2.2 -3.4,3.8 -0.9,6.6 -1.6,-1.4 -1.6,-1.4 -2,-7.5 -4.1,1.1 -0.4,4.3 -1.6,6.2 -2.7,-3.2 0.7,-7.7 -2.5,-10.6 -1.3,2.5 -0.9,5.3 -0.3,8.2 -2.3,-3.2 -1.4,-6.6 -1,-10 -1.7,1.9 -1.5,4.4 -1.6,6.6 -0.2,3.6 1.1,6.7 4.6,8.6 0.7,0.4 0.7,2 0,2.7 -0.6,0.6 -1.9,1.5 -2.3,1.2 -0.8,-0.5 -1.4,-1.7 0.3,-2.2 -2.1,-0.2 0,-4.2 -3.4,-3.8 -0.6,0.1 -1.8,-3 -3.5,-4.1 1.3,-1.8 2.4,0.8 3.6,-0.4 -0.1,-0.4 -0.3,-1 -0.5,-1.6 -0.5,-1.1 -1.3,-2 -2.4,-2.5 -0.1,2.2 -3,1 -3.4,2.7 -0.4,1.6 1.2,1.8 1.8,2.7 1.9,2.8 3.6,5.8 4.8,8.9 0.7,1.9 -2.1,2.7 -2.8,4.4 -1.2,-1.4 -3.6,1.7 -4.8,-1.6 -0.8,-2.1 -3.7,-3.3 -5.9,-5.1 0.4,3 3.1,3.8 4.4,5.7 -1.5,1.1 -1.9,-1.5 -3.3,-0.8 -1.5,1 1.4,1.3 0.7,1.6 -2.7,1.2 -3.5,-1.7 -5.3,-2.7 -0.9,1.8 1.5,2 1.7,3.6 -3.2,-0.2 -6.2,0.3 -9.4,-0.5 -3.5,-0.9 -6.4,1.8 -9.5,3.1 -2.9,1.2 -2.1,4.8 -2.7,7.3 -1,4.5 -1,9.2 -0.9,13.8 0,2.1 0.7,4.2 -2.1,5.8 -1.9,1.1 0.6,7.8 3.2,9.3 1.1,0.6 2.1,1.2 3.4,1.8 -0.9,1.7 -3.2,1.5 -4.3,2.9 -0.7,0.9 -1.1,-0.1 -1.3,-0.5 -2.9,-3.7 -5.4,-7.8 -6,-12.4 -0.4,-3.5 0.7,-7.3 1.4,-10.8 1.2,-5.7 1.2,-11.4 1.3,-17.1 0.1,-5.3 1.9,-7.9 6.8,-9.6 7.6,-2.5 15.3,-4.9 22.8,-7.7 2,-0.7 2.2,-0.3 2.5,1.4 0.2,1.7 1.7,3.3 0,5.1 -0.6,0.6 0,1.1 0.4,1.6 0.5,0.5 1.3,0.7 1.5,0 0.6,-2.3 1.9,-1.4 2.9,-0.8 1.7,1.1 0.5,1.9 -0.3,2.9 -0.6,0.7 -0.3,1.7 -0.1,2.7 0.6,-1 2.1,0.1 2.4,-1.3 0.8,-4 0.7,-4.6 -1.7,-6.1 -1.8,-1.1 -1.9,-3.3 -2.8,-4.5 -2,-2.8 1.9,-5.2 -0.7,-7.7 -2.4,-2.3 -1.1,-6.1 -2.3,-9.1 -1.5,-3.7 0.2,-7.5 1.2,-11.3 4,2.7 0.6,7.4 3.2,10.2 2.5,-5.2 -0.2,-9.2 -2.5,-13.8 -2.6,-5.1 -4.3,-10.4 -3.4,-16.8 1,-7.5 2.4,-15.3 0.4,-23.1 -0.4,-1.5 -1.4,-2.7 -2.1,-3.9 1.6,-1.4 4.1,-1.3 5.1,-3.5 0.3,-0.8 0.9,-0.2 1.1,0 3.2,3.3 3,-0.5 4,-1.9 -0.7,-0.9 -1.3,0.4 -1.8,0.2 0.8,-4.8 0.3,-9.5 0.4,-14.2 0,-1 -0.6,-1 -1.4,-0.2 -0.2,0.2 -0.2,0.5 -0.2,0.7 -0.2,-0.3 -0.5,-0.7 -0.7,-1 -1.4,-1.4 -2,-3.3 -2.9,-5.1 -0.3,-0.5 -1.4,-1.1 -1.8,-0.9 -0.8,0.3 0,0.9 0.2,1.5 0.2,0.7 -0.2,0.9 -1.9,0.8 8.9,5.8 7.9,18.6 -2,22.3 -1.4,-0.3 1.1,-2.1 -0.6,-2 -1.4,0 -2.7,1.1 -4.1,1.2 -2.9,0.2 1.2,2.1 -1.4,2.4 -0.9,0 -0.7,-1.8 -1.7,-2.4 -0.7,-0.4 -1.3,-0.9 -1.9,0 -1,1.4 0.5,0.7 0.9,1 1.5,1.1 0.6,2 -0.3,2.9 -3.7,3.4 -7.7,6.5 -9,11.8 -0.3,1.1 -1.5,2.5 -3,2.6 -0.9,0.1 -1.1,-1.2 -1.6,-1.8 -1.4,-1.7 0.4,-2.2 1,-3 1.2,-1.7 2.5,-3.3 3.8,-5 -4.2,-1.2 -9.7,1.2 -12.8,5.7 -0.8,1.2 -1.2,3.1 -3,2.4 -1.7,-0.7 0,-2.6 -0.3,-3.5 -1.4,-4.1 1.8,-5.8 3.5,-8.5 3.3,-5.1 5.8,-10.6 6.6,-16.8 0.7,-5.2 2.7,-10.2 7.5,-13.7 -2.1,-0.1 -6.1,2 -6.3,4.1 -0.4,3.1 -2.7,2.8 -4.3,2.9 -2.2,0.1 -4.8,0.2 -6.1,-2.7 3.4,0.8 3.7,0.6 6.7,-2 -8.3,-1.2 -9,-1.6 -9.7,-6.8 4.1,5.1 8.6,4.1 13.5,2.2 0.8,-0.3 0.7,-0.6 0.8,-1.1 0.3,-1.6 -0.9,-4.4 2.7,-3.4 0.2,0.1 0.5,-1.2 0.1,-1.7 -1.8,-2.3 -1.9,-2.2 -0.4,-5.4 5.4,3.8 3,11.5 7.7,16.4 1,-5.2 -4.5,-9.7 0.3,-14.2 0.4,1.9 -1.1,3.5 -0.6,5.4 0.2,0.6 0.1,1.4 1,1.1 0.7,-0.2 0.3,-0.7 0.3,-1.2 0,-2.7 0.8,-5.1 2.8,-7 0.7,-0.7 1.5,-1.1 2.3,-0.6 0.6,0.4 -1.1,1.2 0.1,1.9 1.6,-1.2 2.8,-3.3 5.7,-3.5 -1.4,1.8 -2.9,3.1 -3.6,4.7 -0.6,1.4 -3.4,2.6 -0.6,5.1 0.8,-2.9 1.8,-5.4 4,-7.4 1.8,-1.7 3.5,-3.2 6.1,-3.3 4.4,-0.1 4.5,-0.3 3.2,-4.2 3.5,2.6 3.5,2.6 -1.4,9 4.7,-4.3 9.8,-4.3 15.4,-2 -3,1.2 -6.2,2.2 -7.9,5.2 -0.3,0.6 -2.1,1.8 -0.3,2.6 1.4,0.6 1.2,-0.9 1.7,-1.6 1.1,-1.5 1.4,-5.4 4.9,-2.2 0.3,0.3 2.4,-1 3.3,-1.9 1,-1 1.7,-1 2.9,-0.3 5,2.7 5.7,2.1 8.9,-2.8 0.6,1.4 2,2.7 0.1,4.2 -2,1.6 -3.8,3.5 -6.7,2.7 -1.1,-0.3 -2.3,-0.6 -3.4,-0.9 0,0.3 -0.2,0.7 -0.1,1 0.8,1.4 2.3,1.1 3.4,1 2.6,-0.2 5,0.5 7.4,1 2.7,0.6 4.7,0 6.5,-1.9 0.4,-0.4 0.6,-1.5 1.6,-0.7 1,0.8 0.4,1.4 0,2.2 -1.6,3.1 -5.4,4.8 -9.1,3.8 -0.6,-0.2 -1,-0.6 -1.7,0.3 1.2,1.8 3.1,0.5 4.6,1.1 2.5,1.1 4.8,3 7.6,3.2 0.6,0.1 1.3,0.1 1.8,0.3 0.9,0.4 2.1,-2.1 2.5,0.1 0.2,1.2 -1.4,1.4 -2.6,1.5 -0.8,0.1 -1.5,0.6 -2.5,1 1.2,0.7 2.6,0.1 3.6,1.1 0.3,0.3 0.9,0.4 0.8,1 -0.2,1.7 4.4,7.7 6.3,8.2 1.9,0.4 2.9,-0.1 4.7,-2.7 0.7,4.3 0.3,4.5 -7.4,5.2 3.1,2.1 6.1,3.7 7.5,7.1 -1.2,-0.8 -2.3,-1.9 -3.7,-2.5 -2.6,-1.1 -0.6,2.7 -1.9,2.4 3.1,-0.4 5.7,1.5 6.5,5.8 -1.9,-1.7 -3.4,-3.2 -4.9,-4.6 -0.2,0.1 -0.3,0.2 -0.5,0.3 0.8,1.3 1.4,2.9 2.5,3.7 3,2.2 3.5,5.6 4.3,8.7 1.4,5.6 1.3,5.6 6.6,6.4 -5.1,1.9 -9.5,-0.9 -10.3,-6.5 -0.2,-1.2 0.1,-2.6 -1.6,-2.9 l -0.1,-0.2 z"
   class="st0" />
		<path
   id="path20390"
   d="m 244.9,202 c 1.6,1.8 2.9,3.1 4.4,4.7 -4.6,0.2 -7.2,-5.6 -12.1,-3.5 -0.4,-1.1 1.3,-1.9 1,-3.4 -1.6,-0.4 -1.9,1 -2.4,1.9 -2,-2.4 -1.7,-4.5 1.1,-6.2 -1.4,0.1 -2.2,1.9 -3.4,1 -1.1,-0.8 -0.5,-2.2 -0.3,-3.5 0.6,-2.9 1.3,-5.7 1.7,-8.7 0.5,-3.9 1.6,-7.5 4.4,-10.7 -1.3,0.5 -2.2,2 -3.2,1.1 -0.8,-0.7 0.4,-1.7 1,-2.5 2.9,-3.4 5.9,-6.8 8.7,-10.2 4,-4.9 2.3,-11 -0.8,-13 -2.7,-1.7 -4,-0.1 -5,1.7 -1.4,2.5 -3.4,3.7 -6,4.4 -2.4,0.6 -4.9,-1.2 -3.7,-2.8 4.5,-6 0.7,-12.1 1.2,-18.2 0,-0.3 0.1,-0.6 0.2,-1.2 2.7,2.2 1.2,5.8 3.1,8.5 1,-2.6 -0.2,-4.7 -0.5,-6.8 -0.9,-7.5 1.2,-10.6 8.6,-12.5 3,-0.8 5.7,0 8.5,0.7 0.7,0.2 1.5,-0.1 2.1,0.6 1.2,1.2 -0.6,0.9 -0.6,1.4 1,0.1 1.7,2 2.8,0.8 1.6,-1.8 4.5,-2.4 4.6,-5.8 1.5,2.1 2.6,3.5 -0.3,4.8 -2.2,1 -1.1,2.8 -0.3,4.1 1.3,1.8 2.5,3.6 3,6.3 -1.5,-0.1 -2.1,-2.4 -3.7,-1 1.3,1.4 2.9,2.7 4,4.3 1.1,1.7 2.8,3.3 1.6,5.7 -2.1,-1.6 -2.5,-4.9 -6.1,-5.6 7,8.9 6.2,18.1 1.8,27.6 -0.6,0 -0.9,-1.5 -3,-2.1 3.8,4.4 3.5,9.4 5,13.9 -3.3,1 -5.6,-0.6 -5.3,-4.1 0,-0.3 0.2,-0.8 0,-1 -0.7,-1.1 -0.7,-1.8 0.1,-2.7 -3.3,0.6 -5.9,4.9 -4.1,7.5 1.1,1.6 -1.1,2.7 0.2,4.4 1.9,2.4 3.7,4.6 6.2,6.4 4.5,3.3 7,8.3 8.1,13.9 -4.2,-7.3 -12.3,-11.6 -15.4,-20.2 -2.3,3.2 -0.3,5.6 1.1,7.9 0.9,1.6 2.7,2.5 4.2,3.6 4.1,3.1 5.3,8.6 9.4,11.9 0.6,0.5 0.8,1.8 0.9,2.7 0.1,7.4 1.2,15 -3,21.8 -0.9,1.4 -0.5,2.9 -1,4.5 -2.3,-3.1 0.4,-5.9 0.1,-9 -1.4,1.5 -2.4,3.1 -4.2,4 -1.9,0.9 -3,0.4 -4.3,-0.9 -0.5,-0.5 -0.8,-1.4 -0.4,-1.7 1,-1 0.6,0.7 1.3,0.8 2.6,0.5 6.2,-4 5.4,-7 -0.9,-3.3 -2,-6.7 -4.4,-9.4 3.2,-0.7 4.8,2 5.6,3.5 1.1,2 0.9,4.9 2.1,7.3 2.3,-6.2 -2.4,-11 -6.6,-13.1 -4.1,-2 -8.7,-3 -11.6,-7 0,-0.1 -0.8,0.1 -1.8,0.1 z"
   class="st0" />
		<path
   id="path20392"
   d="m 181.8,197.7 c 0.4,-0.9 0.7,-1.8 -0.8,-1.8 -1.7,0 -1.2,-1.3 -1.1,-2.2 0.1,-1.5 1.2,-0.8 2,-0.7 2.4,0.3 4.3,2.1 6.8,2 -2.5,0.1 -4.4,-1.9 -6.9,-1.9 0.7,-2 -2.2,-0.2 -1.8,-2.3 7.5,2.7 15.8,3.5 21,11 -2.4,0 -3.2,-3 -5.6,-2.8 1.5,3.4 6.3,3.3 7.1,7.1 1.4,-0.1 0.5,-1.2 1.2,-1.7 0.1,1.2 2.2,1.6 1.3,2.9 -1.6,2.1 -2.8,-1.5 -4.6,-0.6 1.6,2.6 5.9,3.6 3.9,8.6 -2.5,-6.6 -8.1,-8.6 -13.5,-10.9 2.1,3.4 7.7,3.1 8.8,6.7 1.3,4.2 4.8,5.1 7.6,7.7 -1.2,0.7 -2.1,-1 -3.1,-0.3 4.8,4.6 4.8,10.3 0.8,15.4 -1.9,2.4 -3.3,5.3 -4.6,8.1 -3.8,8.5 -9.9,16 -12.3,25.2 -0.3,1 -1.9,1.7 -3.1,2.2 -2.3,1 -4.9,1 -7.1,2.8 -1.3,1.1 -2.9,0 -3.8,-1.4 -1,-1.5 0.6,-2.1 1.3,-2.6 10.3,-7.6 16,-18.1 19.5,-30 0.4,-1.2 0.8,-2.3 1.5,-3.3 3,-4.6 1.3,-8.9 -1,-13.1 -0.6,-1.1 -0.6,-2.9 -2.9,-2.6 2.2,-1.2 3.4,0.8 5.4,1 -2,-3.9 -6.4,-2.4 -8.6,-5.1 0.6,-0.6 1.2,-0.1 2,0.2 0.7,0.3 1.8,1.6 2.4,0.3 0.7,-1.6 -1.4,-1.8 -2,-1.9 -3.4,-0.3 -5.3,-3.2 -8.1,-4.5 3.6,-0.2 6.4,1.8 9.4,3.3 -1,-1.9 -2.5,-3 -4.5,-3.7 -1.9,-0.7 -3.7,-1.7 -5.6,-2.6 2.2,-1.3 3.6,0.9 5.8,1.1 -1.8,-2.9 -5,-3.3 -7.4,-5 1.8,-0.9 3.2,1.3 4.9,0.2 -1.6,-1.4 -3.9,-1.2 -5.4,-2.6 -0.5,-0.5 -1.3,-0.6 -1.1,-1.5 0.5,-1.5 1.5,-0.9 2.2,-0.7 0.7,0.1 1.4,0 1.7,0.2 -0.3,0 -1,-0.3 -1.7,-0.2 z"
   class="st0" />
		<path
   id="path20394"
   d="m 235.4,168.9 c 0.1,-3.1 -1.2,-6.9 -3.1,-10.7 3.9,-1.2 7.2,-3.5 9.8,-6.7 1.5,-1.8 2.3,-1.2 3,0.8 1.4,4.1 1,7.7 -2.4,10.7 -2.5,2.1 -5.1,4.2 -7.3,5.9 z"
   class="st0" />
		<path
   id="path20396"
   d="m 171.9,270.3 c 0.2,0.2 1.1,1.1 1.9,2 0.6,0.7 2,1.1 1,2.7 -0.8,1.3 -1.3,2.2 -3,2.1 -2.5,-0.1 -5,0 -7.3,0 2.4,-2.2 4.8,-4.4 7.4,-6.8 z"
   class="st0" />
		<path
   id="path20398"
   d="m 62.8,277.8 c 1.4,-1.5 2.6,-2.4 3.2,-3.5 1.7,-3.5 3.8,-3.7 6.3,-1.1 0.7,0.7 2.6,0.4 1.9,2.1 -0.6,1.4 -1.7,2.4 -3.2,2.5 -2.6,0.1 -5.1,0 -8.2,0 z"
   class="st0" />
		<path
   id="path20400"
   d="m 226.5,277.8 c 2.4,-2.5 4.7,-4.9 7.1,-7.3 0.2,0.2 0.8,0.6 0.8,0.9 0,1.5 2.9,2 1.7,3.4 -1.3,1.7 -3.1,3.2 -5.6,3 -1.4,-0.1 -2.7,0 -4,0 z"
   class="st0" />
		<path
   id="path20402"
   d="m 46.5,121.8 c -4.3,3.3 -6.2,8.1 -9.3,12.3 -1.2,-4.1 4.8,-12 9.3,-12.3 z"
   class="st0" />
		<path
   id="path20404"
   d="m 50.9,254.4 c -2.6,-1.6 -3.7,-4.1 -6.1,-5 1.5,-1.5 3.2,-4.2 4.9,-3 2.6,1.7 0.6,5 1.2,8 z"
   class="st0" />
		<path
   id="path20406"
   d="m 38,75.6 c 2.4,0 1.6,3.9 4.4,3.1 0,1.3 0.6,2.8 -0.7,3.8 -1.3,1 -1.8,-0.3 -2.3,-0.9 -1.6,-1.7 -1.6,-3.8 -1.4,-6 z"
   class="st0" />
		<path
   id="path20408"
   d="m 116.9,136.3 c -5.1,1 -0.1,2.7 -1.4,4 0.4,0 1,0.2 1,0.1 1.3,-3.2 5.3,-4.7 5.6,-8.5 0.1,-0.9 0.1,-1.7 -0.8,-2.4 -0.5,-0.4 -1,-0.8 -0.5,-1.6 0.1,-0.2 0.5,-0.3 0.7,-0.2 0.8,0.2 1.3,0.7 1.4,1.5 0.1,1.6 0,3.3 0.1,4.9 0,0.8 -1.3,1.7 0.1,2.2 1.3,0.5 1.1,-1.2 1.8,-1.6 -0.1,5.2 -4.2,10.9 -8.8,11.8 2.6,-2 4.9,-3.8 5.5,-7.1 0.2,-0.9 0.1,-1.3 -0.6,-1.7 -0.5,0.9 -2.4,-0.1 -2.2,1.3 0.3,3.3 -2.5,2.4 -4,2.9 -1.9,0.6 -3.3,-1.2 -4.2,-2.7 -0.6,-0.9 3.1,-3.1 6.3,-2.9 z"
   class="st1" />
		<path
   id="path20410"
   d="m 56.9,96.7 c -1.6,4.5 -6.4,4.5 -9,7.3 -0.1,0.1 -0.8,-0.2 -0.9,-0.4 -1,-2.2 -2.2,-4.4 -2.2,-6.8 -0.1,-2 2,-1.8 3.7,-3.2 -0.6,1.6 -0.9,2.5 -1.5,4.2 3.3,-3 6.5,-1.5 9.9,-1.1 z"
   class="st1" />
		<path
   id="path20412"
   d="m 91.9,90.3 c 1.3,0.3 2.6,0.8 3.5,1.9 2.3,2.8 5.1,4.4 8.9,3.3 -0.1,0.6 -0.1,0.8 -0.2,1 -2.1,-0.7 -2.6,3 -3.5,2.1 -2.8,-2.8 -7,-4.3 -8.6,-8.3 z"
   class="st1" />
		<path
   id="path20414"
   d="m 89.8,242.7 c -1.2,-4.2 1.3,-7.5 2.5,-11.3 1.2,2.2 1.1,2.5 -2.5,11.3 z"
   class="st1" />
		<path
   id="path20416"
   d="m 117.9,135.9 c -1.3,-2.8 -0.2,-6.3 -3.3,-9.1 4.3,1.7 5.5,5.6 3.3,9.1 z"
   class="st1" />
		<path
   id="path20418"
   d="m 247.5,227 c -0.2,-1.9 0.5,-3.8 -1.3,-5.4 -0.5,-0.5 -1.1,-1.3 -0.7,-2.2 0.3,-0.6 0.8,-0.6 1.5,-0.2 0.9,0.5 2.2,0.9 1.8,1.9 -0.6,2 -0.6,4 -1.3,5.9 z"
   class="st1" />
		<path
   id="path20420"
   d="m 68.7,83.2 c -0.9,0.2 -1.2,0.4 -1.6,0.4 -2.3,0 -4.5,0 -7.1,0 5.7,-2.2 5.7,-2.2 8.7,-0.4 z"
   class="st1" />
		<path
   id="path20422"
   d="m 128.2,192.9 c -1.9,3.6 -5.2,0.4 -7.2,2.1 -0.1,-0.3 -0.4,-0.8 -0.3,-1 0.4,-0.5 0.9,-1.1 1.4,-1.1 1.9,-0.1 3.8,0 6.1,0 z"
   class="st1" />
		<path
   id="path20424"
   d="m 104.7,196.4 c -0.2,3.1 -0.4,6.1 -0.7,9.9 -2.3,-4.1 -0.8,-7 0.7,-9.9 z"
   class="st1" />
		<path
   id="path20426"
   d="m 81.7,183.6 c -0.5,-3.5 0.6,-6.3 3.2,-8.7 -1.5,2.8 -2.1,5.8 -3.2,8.7 z"
   class="st1" />
		<path
   id="path20428"
   d="m 113.9,192 c 2.1,0.3 3.8,0.6 4.4,2.2 0.4,1 -1,1.2 -1.4,1.2 -2,0.1 -2.2,-1.8 -3,-3.4 z"
   class="st1" />
		<path
   id="path20430"
   d="m 118.4,186.7 c 1.9,0.4 3.4,0.5 5.3,-0.1 -2.8,2.9 -2.8,2.9 -5.3,0.1 z"
   class="st1" />
		<path
   id="path20432"
   d="m 191.7,177.5 c -2.1,-2.2 -1,-4.7 -1.1,-7.1 0.3,2.4 1.9,4.5 1.1,7.1 z"
   class="st1" />
		<path
   id="path20434"
   d="m 78.7,175 c -0.6,-2.5 -0.8,-5 0.7,-7.6 1,2.7 -1.5,5 -0.7,7.6 z"
   class="st1" />
		<path
   id="path20436"
   d="m 84.3,156.5 c -0.6,-2.7 0.9,-3.9 3.3,-4.3 l -0.1,-0.1 c -0.9,1.6 -1.3,3.5 -3.3,4.2 z"
   class="st1" />
		<path
   id="path20438"
   d="m 87.6,152.2 c -2.1,-2.4 1.2,-3 1.5,-4.6 0.6,1.9 -0.5,3.2 -1.5,4.6 -0.1,0 0,0 0,0 z"
   class="st1" />
		<path
   id="path20440"
   d="m 173.7,185.2 c -1.8,0 -3.4,0.7 -5,-0.8 1.9,-1.3 3.3,-0.5 5,0.8 z"
   class="st1" />
		<path
   id="path20442"
   d="m 107.6,192.7 c 0.1,2.3 -0.4,4 -2,5.6 -0.1,-2.2 0.5,-3.9 2,-5.6 z"
   class="st1" />
		<path
   id="path20444"
   d="m 92,90.2 c -2.2,0.3 -3.4,-1 -5.1,-2.9 2.5,0.5 3.9,1.5 4.9,3 0.1,0 0.2,-0.1 0.2,-0.1 z"
   class="st1" />
		<path
   id="path20446"
   d="m 78.5,177.3 c 0.3,1.6 1.7,2.8 0.9,4.5 -1.3,-1.4 -1.3,-1.4 -0.9,-4.5 z"
   class="st1" />
		<path
   id="path20448"
   d="m 97,162.3 c 1.4,-0.9 2.9,-1.8 4.3,-2.6 -0.7,1.9 -2.3,2.6 -4.3,2.6 z"
   class="st1" />
		<path
   id="path20450"
   d="m 113.7,122 c 2.1,-0.9 3.6,-0.2 4.5,0.8 0.5,0.6 -0.5,1.4 -1.2,0.7 -0.8,-0.8 -1.8,-1.2 -3.3,-1.5 z"
   class="st1" />
		<path
   id="path20452"
   d="m 98.6,195.2 c 0.1,0 0.3,0 0.3,0.1 0.5,1.4 1.1,2.7 0.9,4.2 0,0.1 -0.6,0.2 -0.6,0.1 -1.1,-1.4 -0.4,-3 -0.5,-4.5 z"
   class="st1" />
		<path
   id="path20454"
   d="m 36.4,121.6 c -0.3,0.8 -0.7,1.3 -1.5,1.4 -0.7,0.1 -0.7,-0.6 -0.7,-1 -0.1,-1 0.4,-1.3 1.3,-1.2 0.5,0 0.9,0.2 0.9,0.8 z"
   class="st1" />
		<path
   id="path20456"
   d="m 187.2,168.5 c 1.8,1 2.1,2.3 2.4,3.5 0,0 -0.6,0.2 -0.9,0.4 -0.5,-1.2 -0.9,-2.4 -1.5,-3.9 z"
   class="st1" />
		<path
   id="path20458"
   d="m 82.1,159.6 c -0.1,1.4 -0.4,2.6 -1.5,3.6 -0.1,0.1 -0.9,-0.4 -0.8,-0.4 0.5,-1.2 1,-2.6 2.4,-3.1 z"
   class="st1" />
		<path
   id="path20460"
   d="m 123.8,120.3 c -1.7,-0.8 -3.1,-0.8 -4.1,-2.9 1.7,0.9 3.1,0.9 4.1,2.9 z"
   class="st1" />
		<path
   id="path20462"
   d="m 101.1,196.8 c 1.4,0.6 1.6,1.5 1.1,2.6 -0.1,0.2 -0.8,0.3 -0.9,0.2 -0.7,-0.8 -0.4,-1.7 -0.2,-2.8 z"
   class="st1" />
		<path
   id="path20464"
   d="m 124.2,117 c 2.1,-0.1 2.4,1.2 3.6,2.2 -2.1,0.1 -2.5,-1.1 -3.6,-2.2 z"
   class="st1" />
		<path
   id="path20466"
   d="m 78.9,112.9 c -0.5,1.4 -1.1,2 -1.9,2.3 -0.1,-0.4 -0.4,-0.8 -0.3,-1.2 0.2,-1.5 1.3,-0.4 2.2,-1.1 z"
   class="st1" />
		<path
   id="path20468"
   d="m 95,103.9 c 1.7,1.8 0.2,2.7 0,3.7 0,-1.1 0,-2.2 0,-3.7 z"
   class="st1" />
		<path
   id="path20470"
   d="m 77.8,81.2 c 0.3,-0.8 -0.1,-1.9 1,-2.1 0.2,0 0.7,0.3 0.7,0.5 0.1,1.1 -0.8,1.4 -1.7,1.6 z"
   class="st1" />
		<path
   id="path20472"
   d="m 95.4,187.7 c 0.5,1.5 0.1,2.3 -1,2.8 -0.7,-1.3 -0.3,-2.2 1,-2.8 z"
   class="st1" />
		<path
   id="path20474"
   d="m 82.2,159.7 c -0.6,-2 0.8,-2.5 2.1,-3.2 0,0 -0.1,-0.1 -0.1,-0.1 0.3,1.7 -1.2,2.3 -2.1,3.2 0,0 0.1,0.1 0.1,0.1 z"
   class="st1" />
		<path
   id="path20476"
   d="m 98.7,195.1 c -1,0.2 -1.7,-0.1 -2,-1 0,-0.1 0.4,-0.4 0.7,-0.4 1.3,-0.2 1.4,0.6 1.2,1.5 0,0 0.1,-0.1 0.1,-0.1 z"
   class="st1" />
		<path
   id="path20478"
   d="m 126,122.3 c -1,0.2 -1.7,0 -1.5,-1.2 0,-0.3 0.4,-0.7 0.4,-0.7 0.9,0.4 1.2,1.1 1,2 0,0 0.1,-0.1 0.1,-0.1 z"
   class="st1" />
		<path
   id="path20480"
   d="m 134.8,177.7 c 0.5,0.1 1,0.1 0.9,0.8 0,0.6 -0.5,0.9 -1,0.6 -0.4,-0.2 -0.9,-0.6 -1,-1 0.1,-0.6 0.8,-0.3 1.1,-0.4 z"
   class="st1" />
		<path
   id="path20482"
   d="m 99.6,128.9 c 0.2,-0.9 0.9,-1.4 1.6,-1.8 0.4,-0.2 0.5,0.4 0.4,0.7 -0.4,0.7 -0.8,1.6 -2,1.1 z"
   class="st1" />
		<path
   id="path20484"
   d="m 70.3,108.6 c -1.2,1.1 -1.8,1.7 -2.5,2.4 -0.4,-1.7 0.4,-2.2 2.5,-2.4 z"
   class="st1" />
		<path
   id="path20486"
   d="m 47.9,200.8 c 1.4,-1.1 1.6,1.1 2.7,0.5 -1.3,1.3 -2,0.4 -2.7,-0.5 z"
   class="st1" />
		<path
   id="path20488"
   d="m 259.6,201.9 c 5.6,2.9 8.4,8.7 6,13.4 -1.5,-5.4 -5.2,-8.5 -9.7,-10.1 -3.2,-1.2 -5.1,-3.4 -7.4,-5.4 -1.2,-1.1 -1.4,-2.1 -0.8,-3.9 3,6.2 9.3,7.4 14.7,11 -1,-1.9 -1.9,-3.5 -2.7,-5 z"
   class="st1" />
		<path
   id="path20490"
   d="m 243.3,179.5 c 0.5,1.1 0.5,2.3 0.1,3.2 -2.6,5.6 -0.9,11 1,16.3 0.2,0.7 1.9,1.6 -0.2,2.2 -0.8,0.2 -1.3,1.2 -2.3,0.2 -1.1,-1.2 -0.3,-1.5 0.6,-2.1 0.6,-0.4 0.1,-1.3 -0.1,-2 -3.6,-10.5 -1.7,-10.3 0.9,-17.8 z"
   class="st1" />
		<path
   id="path20492"
   d="m 239.8,144.9 c -2.5,3.4 -5.2,5.2 -7,7.9 0.8,-5.5 0.8,-5.5 7,-7.9 z"
   class="st1" />
		<path
   id="path20494"
   d="m 238.9,179.5 c -0.4,4.4 -0.8,8.8 -0.9,13.3 -2,-3.1 -1.6,-7.2 0.9,-13.3 z"
   class="st1" />
		<path
   id="path20496"
   d="m 241.6,145.2 c 5.5,-4.8 9.6,-1.7 12.1,3 -4,-4 -7.4,-6.2 -12.1,-3 z"
   class="st1" />
		<path
   id="path20498"
   d="m 247.9,174.4 c 0.1,3.3 -2.8,5.8 -2.4,9.3 0.1,0.9 -0.5,1.8 -0.9,2.7 -0.2,-4.3 0,-8.5 3.4,-11.8 z"
   class="st1" />
		<path
   id="path20500"
   d="m 258.9,153 c 2.2,3.9 -2.1,6.4 -1.9,9.8 0,0.1 -0.7,0.4 -0.9,0.3 -0.5,-0.2 -0.4,-0.7 -0.3,-1.2 0.9,-3 3.4,-5.4 3.1,-8.9 z"
   class="st1" />
		<path
   id="path20502"
   d="m 247.8,186.9 c 2,2.4 2,5.4 2.7,8.2 -1.5,-2.5 -2.4,-5.3 -2.7,-8.2 z"
   class="st1" />
		<path
   id="path20504"
   d="m 250,131.9 c 2.7,-0.4 5.6,-1.2 8,1.7 -2.9,0.2 -5.1,-2.4 -8,-1.7 z"
   class="st1" />
		<path
   id="path20506"
   d="m 250.3,152.7 c -0.6,-0.4 -0.8,-0.5 -1,-0.7 -1.1,-1 -1.9,-2.4 -2.4,-3.8 0,-0.1 0.5,-0.5 0.8,-0.7 1.1,1.5 2.8,2.7 2.6,5.2 z"
   class="st1" />
		<path
   id="path20508"
   d="m 249.1,162.4 c 1.3,-3 2.2,-5.1 3,-7 0.6,2.4 0.2,3.4 -3,7 z"
   class="st1" />
		<path
   id="path20510"
   d="m 248,174.5 c 1.4,-1.2 1.1,-3.7 3.5,-4.2 -1.7,1 -0.4,4.3 -3.6,4.1 0,0 0.1,0.1 0.1,0.1 z"
   class="st1" />
		<path
   id="path20512"
   d="m 242.7,174.7 c 0.6,-2.5 0.6,-2.5 3.1,-4.6 -0.3,2.3 -2.4,3 -3.1,4.6 z"
   class="st1" />
		<path
   id="path20514"
   d="m 251.4,163.4 c -0.7,2.6 -1.4,4 -3.2,5.2 0.2,-2 1.4,-3.2 3.2,-5.2 z"
   class="st1" />
		<path
   id="path20516"
   d="m 252,198 c 3,-1.2 3.1,0.3 3.3,1.6 -1.5,0.4 -1.5,-1.3 -3.3,-1.6 z"
   class="st1" />
		<path
   id="path20518"
   d="m 259.7,201.7 c -1.5,0.5 -2.2,-0.2 -1.9,-2.1 0.6,0.7 1.2,1.5 1.8,2.2 0,0.1 0.1,-0.1 0.1,-0.1 z"
   class="st1" />
		<path
   id="path20520"
   d="m 181.8,193.2 c 3.1,-0.2 5.8,1.4 8.6,2.3 0.5,0.2 1.1,0.8 0.7,1.5 -0.3,0.5 -0.9,0.6 -1.2,0.1 -2,-2.7 -5.7,-2 -8,-4.1 0,0.1 -0.1,0.2 -0.1,0.2 z"
   class="st1" />
		<path
   id="path20522"
   d="m 195.3,208.8 c 0.7,1.5 2.9,1.2 3.4,3 0.2,0.6 -0.6,1.1 -0.8,0.8 -1,-1.2 -3.1,-1.2 -3.6,-2.9 -0.2,-0.7 0.4,-0.8 1,-0.9 z"
   class="st1" />
		<path
   id="path20524"
   d="m 202.4,227.2 c -2.5,-1 0,-3.2 -1.1,-4.6 4.3,0.9 0.7,3.2 1,4.7 z"
   class="st1" />
		<path
   id="path20526"
   d="m 181.8,197.7 c 2,-1 3.2,0.8 5.5,0.6 -3,3 -3.8,-0.3 -5.5,-0.6 0.1,-0.1 0,0 0,0 z"
   class="st1" />
		<path
   id="path20528"
   d="m 202.3,227.3 c 3.4,-0.2 2.7,2 2.5,3.9 -0.8,-1.3 -1.3,-2.8 -2.4,-4 0,0 -0.1,0.1 -0.1,0.1 z"
   class="st1" />
		<path
   id="path20530"
   d="m 203.3,217.8 c -1.8,0.3 -2.9,-0.2 -3.7,-1.4 -0.1,-0.1 0.2,-0.5 0.3,-0.6 1.7,-0.6 2.4,0.7 3.4,2 z"
   class="st1" />
		<path
   id="path20532"
   d="m 192.7,201.6 c -2.2,1.4 -2.7,-1.3 -4.5,-1.3 2.3,-1.5 2.8,1.2 4.5,1.3 z"
   class="st1" />
		<path
   id="path20534"
   d="m 204.2,226 c 1.8,-0.2 2.5,0.7 2.7,2.4 -1,-0.8 -1.9,-1.6 -2.7,-2.4 z"
   class="st1" />
		<path
   id="path20536"
   d="m 197.4,204.1 c 1.1,0.2 2,0.7 2.2,2.6 -1,-1.1 -3,-0.6 -2.1,-2.7 z"
   class="st1" />
		<path
   id="path20538"
   d="m 190.2,206.4 c 1.3,0.9 2.1,1.4 3,2 -1.8,0.9 -2.3,-0.1 -3,-2 z"
   class="st1" />
		<path
   id="path20540"
   d="m 197.5,204 c -1.3,0.5 -2.4,0.5 -3.1,-0.9 1.5,-0.9 2.2,0 3,1 0,0 0.1,-0.1 0.1,-0.1 z"
   class="st1" />
		<path
   id="path20542"
   d="m 48.6,100.8 c 0.3,-3.9 0.9,-4.2 4.4,-2.6 -1.4,1 -2.5,2.3 -4.4,2.6 z"
   class="st0" />
	</g>
</g>
</svg>
