<?xml version="1.0" encoding="UTF-8" standalone="no"?>
<svg
   xmlns:dc="http://purl.org/dc/elements/1.1/"
   xmlns:cc="http://creativecommons.org/ns#"
   xmlns:rdf="http://www.w3.org/1999/02/22-rdf-syntax-ns#"
   xmlns:svg="http://www.w3.org/2000/svg"
   xmlns="http://www.w3.org/2000/svg"
   xmlns:sodipodi="http://sodipodi.sourceforge.net/DTD/sodipodi-0.dtd"
   xmlns:inkscape="http://www.inkscape.org/namespaces/inkscape"
   inkscape:version="1.0 (4035a4f, 2020-05-01)"
   height="186.90529"
   width="250.43672"
   sodipodi:docname="leopard-passant.svg"
   xml:space="preserve"
   viewBox="0 0 250.43672 186.90529"
   y="0px"
   x="0px"
   id="Layer_1"
   version="1.1"><metadata
   id="metadata22173"><rdf:RDF><cc:Work
       rdf:about=""><dc:format>image/svg+xml</dc:format><dc:type
         rdf:resource="http://purl.org/dc/dcmitype/StillImage" /><dc:title></dc:title></cc:Work></rdf:RDF></metadata><defs
   id="defs22171" /><sodipodi:namedview
   inkscape:current-layer="Layer_1"
   inkscape:window-maximized="0"
   inkscape:window-y="25"
   inkscape:window-x="0"
   inkscape:cy="121.32636"
   inkscape:cx="125.46784"
   inkscape:zoom="2.52"
   fit-margin-bottom="0"
   fit-margin-right="0"
   fit-margin-left="0"
   fit-margin-top="0"
   showgrid="false"
   id="namedview22169"
   inkscape:window-height="480"
   inkscape:window-width="820"
   inkscape:pageshadow="2"
   inkscape:pageopacity="0"
   guidetolerance="10"
   gridtolerance="10"
   objecttolerance="10"
   borderopacity="1"
   bordercolor="#666666"
   pagecolor="#ffffff" />
<style
   id="style21922"
   type="text/css">
	.st0{fill:#010101;}
	.st1{fill:#FFFFFF;}
</style>
<g
   transform="translate(-24.532159,-78.673641)"
   id="g22166">
	<g
   id="g22164">
		<path
   id="path21924"
   d="m 201.3,241.3 c 0.5,4 -1.9,5.1 -5.1,6.4 -3,1.2 -5.7,2.4 -9,2.2 -1.3,0 -2.5,0.7 -2.5,2.7 0.1,2.3 -0.4,4.6 -0.7,6.9 -0.5,3.5 -7.5,6.2 -10.2,4 -1.2,-1 -0.8,-1.8 0.2,-2.5 2.9,-1.9 1.8,-3.3 -0.4,-4.9 -1.2,-0.8 -2,-2 -3.2,-3.2 -2.4,2.1 -4.2,4.7 -7.8,5 -1.3,0.1 -2.7,2 -3.5,3.4 -0.6,1 -0.4,2.9 -2.2,2.3 -1.6,-0.5 -3.5,-1.3 -3.5,-3.6 0,-1.3 0,-2.6 0,-4.1 -2.3,0.8 -4.1,1.2 -6.2,0.3 -1.6,-0.7 -3.9,-0.6 -5.2,1.4 -0.6,0.9 -1.5,1 -2.4,0.6 -0.9,-0.5 -1.2,-1.3 -1.1,-2.3 0.1,-0.9 0,-1.7 0.7,-2.5 3.2,-3.6 6.4,-7.3 9.6,-10.9 3.7,-4.2 6.2,-5.2 10.1,-1 0.5,0.6 1.2,0.7 1.7,0.1 3.4,-4.6 9,-8.2 7.8,-15.1 -0.4,-2.2 -1.8,-4.1 -1.3,-6.6 0.2,-0.9 0,-1.8 0.5,-2.8 0.4,-0.9 2.2,-2.4 -0.9,-2.8 -1.2,-0.2 -0.8,-2.5 -0.2,-3.7 0.8,-1.7 1.7,-3.3 2.6,-5 0.2,-0.4 0.9,-1.1 0.8,-1.2 -3.3,-4.4 1.1,-3.8 3.1,-5.1 2.4,-1.6 2.8,-5 5.5,-6.6 0.4,-0.3 1.3,-0.7 1.6,-1.3 0.6,-1.1 3.2,-1 2.3,-3 -0.8,-1.7 -2.7,-2.4 -4.6,-2.1 -10.3,1.6 -20.7,3.1 -30,7.7 -12.3,6.1 -25,7.7 -38.4,5.6 -0.5,-0.1 -1,0.1 -1.4,0.2 0.3,4.1 3.2,3.8 6.5,3.7 -1.4,3.2 -4,4.2 -6.7,4.6 -2.1,0.3 -3.2,0.7 -3.1,3 0.1,2.3 -1.2,4.3 -2.5,5.8 -2.3,2.9 -2.6,4.3 2,4.1 -1.5,3.1 -2.7,5.8 -6.5,5.3 -1.6,-0.2 -1.8,0.8 -1.6,1.9 0.7,3 -0.8,5.3 -2.6,7.2 -3.7,3.8 -6.3,8.6 -11,11.4 -0.6,0.3 -1.2,0.6 -0.8,1.8 1.1,2.9 -0.5,5.8 -0.6,8.8 -0.1,2.3 -2.3,3.5 -4.1,4.1 -1.9,0.6 -4.2,0.9 -6,-0.3 -1.7,-1.1 -0.2,-2.1 0.6,-2.7 2,-1.6 2.3,-2.7 -0.3,-4.1 -1.3,-0.7 -2.4,-2 -3,-3.7 -1.5,3.6 -3.4,6.7 -6.8,8.5 -1.1,0.6 -2,1.7 -2.7,2.8 -0.7,1 -0.1,3.3 -2.3,2.5 -1.8,-0.6 -3.7,-1.5 -3.4,-4.1 0.1,-1 0,-2.1 0,-3.5 -1.8,0.4 -3.3,1 -4.9,0.8 -2.5,-0.3 -4.1,0.4 -3.8,3.3 0.1,1 -0.4,1.8 -1.4,2.1 -0.9,0.2 -1.3,-0.7 -1.9,-1.2 -2.7,-2.6 -2.4,-5.5 0,-9.3 -3.6,2.1 -6.3,3.2 -9.5,2.8 -1.2,-0.2 -2.1,0.5 -2.2,1.7 -0.1,1.3 -0.1,3.2 -1.7,2.8 -1.4,-0.3 -2.8,-1.6 -3.1,-3.6 -0.3,-2.5 0.4,-4.7 2,-6.3 3.3,-3.4 6.9,-6.7 10.6,-9.7 1.6,-1.3 4.2,-1.1 5.6,-0.3 3.9,2.2 4.8,-0.7 6.3,-2.9 4.3,-6.8 5.8,-14.7 8.7,-22.1 2.5,-6.4 3.9,-12.9 3.9,-19.7 0,-2.1 -0.5,-3.7 -2.1,-5.1 -3.4,-2.9 -6,-6.4 -6.5,-10.9 -0.2,-2.4 -1.8,-1.4 -2.9,-1.4 -1.1,-0.1 -2.2,-0.2 -2.6,-1.3 -0.4,-1.1 0.7,-1.5 1.3,-2.2 1.3,-1.5 3.2,-2.5 1.7,-5.1 -2.5,-4.5 0.8,-7.1 3.8,-9.8 -1.3,-1.3 -2.8,-1.5 -4.7,-1.4 1.5,-2.2 5.1,-2.3 4.8,-4.4 -0.6,-4.9 4.3,-7 4.7,-11.2 0.2,-1.8 2,-1.3 2.9,-2 0.9,-0.6 2.2,-1.8 2.1,-2.6 -0.2,-1.4 -1.8,-1.1 -2.9,-1 -2.3,0 -4.5,0 -6.6,-1.5 -2,-1.5 -2.7,1.1 -3.2,2 -3.1,4.7 -4.4,-1 -6.5,-1.3 -2,-0.3 0.5,-2 1.2,-3 0.9,-1.4 3.1,-2.2 1.4,-4.5 -0.5,-0.7 0.6,-1.5 1.5,-1.9 1.5,-0.6 2.7,-1.6 4.4,-2 -4.2,-0.1 -8.1,-1 -11.9,-2.2 -0.6,-0.2 -2.1,-0.2 -1.8,-1.5 0.1,-0.8 1,-1 1.6,-1.5 3.3,-2.4 7,-1.1 10.7,-1.6 -0.1,-2.2 -2.1,-3.1 -3.3,-4.4 -2.5,-2.5 -4.7,-5.1 -4.4,-9 0,-0.1 0,-0.3 0,-0.4 -1.2,-2.3 -4.6,-4.7 -0.5,-7 2.3,-1.3 4.5,-2.6 7,-3.7 5.2,-2.2 10.8,-3.4 16,-5.8 2,-0.9 3,-2.3 4.2,-3.7 1.2,-1.3 2.5,-2.6 4.1,-3.4 5.3,-2.7 5.4,-2.8 8.3,2.4 1.5,2.7 2.9,3.4 5.5,1.3 1.6,-1.2 3.4,-2.1 5.2,-3 3.9,-1.9 6.9,-0.3 6.6,4 -0.3,4.5 1.8,9.4 -2.1,13.4 -0.6,0.6 0.1,1.1 0.5,1.6 5,6.6 5.7,14.4 6.4,22.3 0.5,5.9 2.1,11.7 3.9,17.4 0.2,0.5 0.5,1.1 0.9,1.2 7.2,2.3 13.8,7 21.8,5.8 9.3,-1.4 18.8,-1.8 28.1,-2.1 21.2,-0.6 42,2.6 62,10.1 4.1,1.5 8.5,2.5 12.9,3 5.2,0.5 9.9,-1.5 14,-4.9 8.6,-7.2 12.1,-16.3 12,-27.5 0,-6.3 -3.1,-10.4 -7.5,-13.5 -4.1,-2.9 -9,-4.8 -14.3,-4.3 -1.6,0.1 -3,0.6 -4.3,1.3 -2.6,1.5 -2.8,3.2 -0.5,4.8 1.2,0.8 3.5,1.5 2.6,3.1 -1.1,2 -2.9,4.2 -5.9,3.4 -1.9,-0.5 -3.9,-1.2 -5.7,-2.1 -7.4,-3.6 -5.1,-10.9 0.1,-15.3 7,-6 14.7,-7.3 24,-4.2 9.9,3.3 17,9.1 21.7,17.7 4.4,8 4.4,17.2 1.8,25.8 -3.3,11 -10,20 -19.5,26.8 -2.5,1.8 -5.4,2.1 -8.1,3 -3.6,1.2 -4.3,2.3 -2.7,5.9 0.4,0.9 0.9,1.8 1.2,2.8 0.2,0.6 0.6,1.3 0.4,1.8 -1.5,5.4 -0.1,7.2 5.9,7.7 0.4,0 0.8,0.1 1.1,0.2 -1.6,3.5 -1.8,3.6 -6.8,3.9 6.4,3.9 5.9,10.4 7.6,15.9 2.1,7 8,11.3 15.1,11.4 1,0 2.3,-0.6 2.9,0.5 0.6,1.1 -0.3,1.9 -1,2.7 -1.5,1.7 -1.1,3.9 -1.2,5.9 -0.2,6.2 -1.7,12 -5.9,16.9 -0.3,0.3 -1.5,0.5 -0.3,1.6 3.7,3.3 1,7.4 0.2,10.7 -0.7,3.1 -4.6,3.7 -7.9,3.4 -1,-0.1 -1.9,-0.2 -2.4,-1 -0.6,-1.1 0.4,-1.7 1.1,-2.2 4,-2.9 -0.2,-3.8 -1.4,-5 -2.2,-2.4 -2.2,0.7 -3.2,1.6 -1.1,1 -1.8,2.4 -3.6,2.8 -1.8,0.4 -3,2 -3.9,3.5 -0.6,1 -0.4,3 -2.1,2.5 -1.7,-0.6 -3.9,-1.4 -3.5,-3.9 0.6,-3.7 -0.4,-5.2 -4.3,-3.8 -0.9,0.3 -2,0 -3,-0.4 -1.8,-0.6 -3.8,-1 -5.3,0.9 -0.7,0.9 -1.6,1.5 -2.7,1 -1.3,-0.6 -1.3,-1.9 -1.1,-3.1 0.1,-0.9 0.3,-1.9 0.8,-2.5 5.2,-5.6 9.6,-12.6 18.7,-12.4 1.9,0 1.7,-1.5 2.5,-2.4 0.9,-1.1 0.3,-1.7 -0.5,-2.5 -3,-3 -6.6,-5.3 -10,-7.7 -5.7,-4.1 -10.7,-8.8 -13.8,-15.3 -0.3,-0.6 -0.8,-1.1 -0.8,-1.7 0,-2.8 -1.5,-4.7 -3.4,-6.4 -0.4,-0.4 -7.8,7.3 -7.6,8.2 0.2,0.8 0.7,1.6 1.3,2.3 2,2.1 0.7,4.5 0.8,6.8 0,0.6 -0.5,0.7 -1.1,0.8 -2.8,0.5 -4.2,3.4 -3.5,7.9 0.5,2.9 2,5.6 5.4,4.9 2.5,-0.5 1.8,1.2 1.6,1.8 -0.9,2 -2.2,3.8 -4.6,4.2 -1.2,-0.1 -2.2,-0.2 -3.3,-0.9 z"
   class="st0" />
		<path
   id="path21926"
   d="m 109.2,143.7 c 2.5,0.7 5.1,1.3 7.6,2 -0.6,1 -1.7,0.1 -2.9,0.9 1.7,0.1 2,2.6 4.2,1.5 0.7,-0.3 0.5,0.9 0.4,1 -1.3,1.5 -0.4,3.5 -1.3,5.1 -1.3,2.6 -2.1,5.3 -5.1,1.3 -0.8,-1.1 -2,0.2 -3.5,0.4 1.8,2.3 3.3,4.5 6,4.2 2.7,-0.3 3.9,-2.6 4.6,-5.1 0.6,-2.3 0.6,-5.6 2.1,-6.7 1.5,-1.1 4.6,0 7,0.1 0.8,0 1.6,0 3,0 -4,3.4 -3.9,6.8 -0.6,10.1 1.2,-0.9 1.3,-1.8 0.6,-3.3 -1.5,-3.2 1.8,-7.2 5.2,-6.8 0.8,0.1 1.4,0 1.7,1.1 0.7,2.5 2.6,1.6 3.4,0.4 1.2,-1.6 2.8,-2.3 4.4,-2.2 4.8,0.3 9.5,-1.2 14.3,-0.9 6.4,0.4 12.8,0.7 19.2,1 0.1,0.2 0.1,0.3 0.1,0.4 0.3,1.6 -3.3,3.3 -0.1,4.4 0.6,0.2 2.1,-3.4 3.7,-4 1.9,-0.7 4.6,-0.7 6.5,0.1 2.8,1.1 6.3,0.8 8.2,3.9 0.5,0.9 2.3,0.8 2.9,0.3 2.6,-2 5,-0.5 7.4,0.2 3.9,1.1 7.7,2.5 11.4,3.9 0.9,0.3 2.1,0.8 2.4,1.5 1.3,2.6 2.8,2.5 4.6,0.6 1.4,-1.4 2.7,0.1 3.9,0.3 8.1,1.9 14.9,0 20.6,-6 2.8,-3 6.4,-5.3 8.1,-9.3 0.3,-0.8 1.5,-1.5 2.4,-1.8 3.2,-0.8 3.8,-1.7 0.6,-3.6 -1,-0.6 0.1,-4.2 1.4,-4.6 0.6,-0.2 1.3,-0.2 1.8,-0.5 0.9,-0.5 2.2,-0.6 2.2,-1.8 0,-1.3 -1.2,-1.7 -2.1,-1.9 -2.7,-0.4 -2.7,-2.1 -2.5,-4.2 0.1,-1 0,-2.1 0,-3.1 0,-4.5 0,-4.5 2.3,-7 -5.2,0.6 -5.8,0.1 -8,-5.6 -0.2,-0.6 -0.2,-1.9 -1.5,-1.9 -2.1,-0.1 -0.3,1.2 -0.6,1.6 -0.9,1.3 -1.1,-0.2 -1.5,-0.5 -4.7,-3 -9.7,-4.7 -15.4,-4.3 -2.3,0.2 -4.2,1 -5.9,2.3 -2.8,2.1 -2.8,4.4 -0.4,7.2 0.6,0.7 2.5,1 1.5,2.6 -0.8,1.2 -2.3,0.9 -3.2,0.5 -2.9,-1 -5.9,-2.4 -6.8,-5.6 -0.7,-2.7 1.1,-4.8 3,-6.6 5.9,-5.7 12.4,-7.6 20.8,-5.2 9.9,2.7 16.7,8.5 21.8,16.8 1.6,2.6 2.5,5.2 -1.3,6.9 -0.7,0.3 -2.1,1.1 -1,2.4 0.8,1 1.9,1.3 2.7,0.4 1.7,-1.8 1.4,-0.3 1.8,0.8 1.8,5.9 0.1,11.4 -2.1,16.7 -1.8,4.4 -3.6,9.3 -9.1,10.8 -2.3,0.6 -4.7,0.7 -6.7,2.4 2.5,1.5 4.8,-1.1 7.3,-0.2 -2.5,2.1 -4.9,4 -8.5,2.3 -1.5,-0.7 -3.2,0.5 -4.6,1.9 2.1,0.5 4,1 5.9,1.4 -0.1,0.2 -0.3,0.4 -0.4,0.5 -3.5,1.5 -6.7,1.6 -9.3,-1.8 -0.4,-0.5 -1,-0.7 -1.4,-1.1 -0.1,0.2 -0.2,0.5 -0.3,0.7 -0.6,0.8 -0.7,1.6 0.4,2.1 1.2,0.5 2.8,1.1 2.3,2.4 -0.6,1.5 -2.8,1.3 -3.8,0.6 -2.1,-1.6 -3.7,1.2 -6.1,0.5 1.8,-1.9 3.2,-3.4 4.5,-4.8 -0.7,-0.5 -1.2,0.3 -1.7,0.8 -1.6,1.9 -3.5,2.2 -5.4,0.6 -1.9,-1.6 -3.4,-0.3 -5,0.4 -0.9,0.4 -0.5,1.1 -0.2,1.9 0.6,1.7 1.2,0.3 1.4,0 1.6,-2.2 2.6,-0.8 4,0.4 2.3,2.1 4,4.8 6.9,6.3 0.4,0.2 0.3,1.1 0.5,1.7 -0.3,0.3 -0.6,0.5 -0.9,0.8 -1,-1.2 -2,-2.5 -3,-3.7 -0.7,-0.8 -1.3,-0.6 -1.9,0.1 -0.9,1.1 0.3,1.3 0.7,1.6 3.1,2.1 5.7,4.7 7.8,8.6 -4.1,-1.3 -6.1,-5.7 -11.6,-5.3 6.1,3.3 8.7,8.3 11.6,13 0.9,1.4 3.1,2 4.8,3 -2.9,1.7 -5.2,-2.1 -8.4,-0.8 2.1,2.1 3.9,4.1 6,5.9 2.9,2.4 3.2,5.9 4.3,9.1 0.5,1.4 -1.5,1 -1.6,1.7 -0.2,1.7 -3.6,2.4 -1.5,4.4 1.8,1.7 2.2,-1.5 3.7,-1.5 2.1,7.2 9.2,12.1 18.1,12.4 -0.8,1.6 -2.1,3 -1.2,5.1 -5.2,-3.5 -12.1,-2.3 -16.7,-8.1 0.4,4.4 3.4,5.4 5.7,6 13.5,3.4 12.4,5.1 7.1,16.9 -0.1,0.1 0,0.3 -0.1,0.4 -1.6,2.8 -3.3,5.4 -6.9,1 0,3.3 2.1,4.2 3.6,5.3 0.9,0.7 1.9,1.3 2.5,2.3 0.3,0.5 -0.1,1.8 -0.3,1.6 -2.7,-2 -5.9,1.7 -7.4,0.1 -1.6,-1.7 -4.7,-3.2 -4.4,-6.7 -1.2,2.8 -2.3,5.6 -3.5,8.3 -0.6,1.4 -1.4,2.1 -2.9,0.7 -1.7,-1.5 -3.7,-0.7 -6.1,-0.1 2.4,-4.2 7.1,-6 7.6,-11 -2.7,2.9 -5.5,5.8 -8.3,8.6 -0.8,0.8 -1.4,2 -2.8,1.7 -1.3,-0.3 -2.5,1.7 -3.6,0.5 -1,-1.1 0.6,-2.2 1,-3.3 0.6,-1.7 -0.2,-3.2 -0.8,-5.6 8.7,3.6 10.5,-2.9 13.2,-8.2 0.8,-1.6 -0.2,-2.3 -1.1,-3.3 -3.1,-3.4 -6.8,-6.4 -10.6,-8.9 -7.2,-4.7 -12.3,-10.3 -14.3,-19.3 -1.3,-6.2 -6.6,-10.9 -11.1,-15.6 -3.8,-3.9 -9.2,-5.6 -12.7,-10 -1.7,-2.1 -2.3,-5 -4.6,-6.7 -1.9,-1.5 -3.7,-4 -6.2,-2.3 -0.6,0.4 2.2,3.2 4.1,4.4 0.2,0.1 0.2,0.4 0.4,1 -5.8,-0.8 -10.6,-5.6 -16.8,-3.2 0.8,1.9 3.1,0.9 4.6,1.8 1.5,1 3.6,1.1 5.3,1.9 0.8,0.4 1.8,0.4 2.5,0.9 0.7,0.5 2.1,1 1.4,2.1 -0.7,1.3 -1.8,1.1 -2.9,0.1 -4.5,-3.9 -9.9,-4.9 -15.7,-4.8 -0.4,0 -0.8,0.2 -1.1,0.3 -0.1,0 -0.1,0.2 -0.2,0.8 5.2,1.5 11.1,1.6 15.6,5.5 -3.4,0.6 -3.3,0.5 -9.4,-2.4 -3.1,-1.5 -6.4,-2.4 -10.3,-1.5 2.3,2.6 5.7,1.6 7.9,3.5 0.6,0.5 1.9,0.5 1.4,1.6 -0.6,1.3 -1.4,0.7 -2.5,0 -3.6,-2.2 -7.4,-3.9 -11.9,-3.9 2.3,2.7 6.5,1.9 8.5,5.6 -2.9,-1.1 -5.5,2 -7.9,-0.2 -1.8,-1.7 -3,-4.1 -6.3,-3.7 1.1,1.2 2,2.2 3.2,3.6 -6.9,0.5 -13.3,2.9 -20,2.5 -2.6,-0.1 -5.5,0 -2,-3.6 0.3,-0.3 1,-0.9 0.1,-1 -0.8,-0.2 -1.5,-1.6 -2.4,-0.6 -0.7,0.9 -3.1,1.7 -1.8,3 1.2,1.3 -1.6,4.5 3,4.4 3.8,-0.1 8.6,1 11.3,-0.3 4.5,-2.3 8.6,-1.2 12.9,-1.5 -5.6,0.8 -9.7,7 -16.3,4.4 -1,-0.4 -2.3,-0.2 -2.7,0.9 -0.3,1 1.1,1.2 1.7,1.7 -4.9,1.7 -6.6,1.7 -11.6,0 -2.3,-0.8 -2.8,-0.4 -2.9,2.6 -2.3,-4.1 -6.1,-2.6 -9.4,-3.6 4.6,-1.2 9.3,-2.5 14.6,-3.9 -1.9,-1.1 -3.8,-1.3 -4.3,-3.3 -0.2,-0.7 -1.1,-2.4 -2.7,-1.1 -1.5,1.3 -0.1,2 0.6,2.8 0.3,0.4 0.6,0.7 1.1,1.3 -2.2,0.2 -4,0.5 -5.5,-0.6 -2.5,-1.7 -4.3,-0.8 -5.8,1.7 -2,-2 -3.7,-3.9 -5.7,-5.7 -1.9,-1.8 -3.3,0 -4.7,1 -1.6,1.2 -3.1,3.2 -4.3,-0.3 -0.2,-0.7 -0.8,-0.7 -1.2,-0.3 -0.8,0.8 -2,1.3 -1.8,2.8 0.2,1.4 0.9,0.2 1.3,0.3 4.8,1.3 4.8,1.3 9.2,-1.8 3,5.5 -1.2,13.4 5.6,17.7 -3.4,1.9 -5.1,0.8 -7.1,-4.8 -1.5,2 -1.8,3.8 0.4,5.7 2,1.7 -1.2,3.5 0.3,5.4 -2,0.3 -2.1,-2.1 -4.1,-1.7 1.5,2.7 3.4,5.5 0.2,8.1 -0.6,-0.6 0.1,-2.3 -1.7,-2.5 -0.5,3.7 0.6,6.2 4.6,7.2 -1.9,1.3 -3.6,3.2 -5.8,1.2 -1.5,-1.4 -1.5,-4 -3.5,-5.5 -0.9,4.6 4.1,8.5 1.2,13.4 -1.1,-1.7 -2.2,-3.1 -3.7,-4 -0.3,0.2 -0.6,0.5 -0.6,0.5 3.4,5.1 3.4,5.1 -1.2,10.3 -1.6,1.9 -3.5,3.6 -5.3,5.3 -1.6,1.6 -3.4,2.8 -5.7,1.2 -0.6,-0.4 -1.3,-0.9 -1.9,0.1 -0.4,0.9 0.5,1 0.8,1.4 1,1.2 2.1,2.2 3.6,2.9 0.8,0.4 1,1.3 0.7,2 -0.5,1.2 -1.2,0.3 -1.8,0.1 -0.7,-0.2 -1.8,-0.5 -2.3,-0.2 -4.8,3.3 -5.5,-1.6 -7.5,-3.7 -0.4,-0.4 -0.4,-1.2 -1.3,-1.6 -1.7,2.5 -1.4,5.9 -3.4,8.3 -1.1,1.4 -1.5,2.1 -3.1,0.7 -1.6,-1.4 -3.6,-0.5 -5.5,-0.2 0.3,-3.7 5.6,-3.5 6.3,-8.4 -2.7,3.5 -6.3,4.2 -8.3,7 -0.9,1.3 -2.3,2.2 -3.8,2.4 -1,0.2 -3,0.8 -1.7,-1.8 0.8,-1.6 0.1,-3.3 -0.6,-4.8 11.1,-0.3 17.4,-7.5 19.8,-18.3 1.7,-7.8 4.8,-15.4 7.4,-23 0.6,-1.7 0,-3.6 1.3,-5.1 0.7,-0.8 0.3,-3.2 2.9,-1.3 1.5,1.1 2.6,-1.3 3.7,-2.8 0.5,2 0.9,3.9 1.3,5.7 2.4,-1.8 1.7,-5.8 -2.2,-11.3 -0.8,2.4 -0.6,5 -2.2,6.9 -2.2,-3.7 -4,-7.3 -1.8,-11.5 0.4,-0.9 0.1,-1.2 -0.4,-1.5 -0.6,-0.4 -0.8,0.4 -1.1,0.7 -1.8,1.8 -2.1,4 -1.6,7.2 -5.8,-11.5 -1.9,-21.3 11.3,-30.6 -8.9,-0.7 -21.9,19.7 -14.5,30.9 -2.7,0.2 -4.5,-1.5 -5.2,-3.2 -0.8,-1.9 -2.8,-3.5 -2,-6 0.7,-2 1.9,-3.8 1.4,-6.3 -3.3,2 -2.6,5.7 -3.7,7.5 -1.4,-1.3 -3,-2.7 -4.5,-4.1 0.9,-0.5 1,1.4 2,0.9 0.3,-1.8 -0.4,-3.8 1.1,-5.6 -2.7,-0.7 -2.3,1.9 -3.6,2.5 -3.6,-3.8 1.8,-6.4 1.6,-9.9 -3.4,0.6 -3.4,6.8 -8.3,4.4 3.5,-1.6 3.5,-4.4 2.1,-7.4 -2,-4.5 3.1,-5.5 4.2,-8.4 0.3,-0.8 1.7,-1.1 2.7,-1.6 -0.3,-0.3 -0.6,-0.6 -0.8,-1 -1.1,-0.1 -2.3,-0.1 -3.5,-0.2 2.8,-2.2 3.1,-3.5 3.3,-7.3 0.1,-1.5 1.3,-2.9 3,-3.7 0.9,-0.4 2.9,-0.4 2,-2.5 0.4,-0.1 0.8,0 1.2,-0.2 0,0 -0.2,0 -0.4,0.1 -0.2,0.1 -0.5,0.1 -0.7,0.2 -0.6,0.4 -1.2,1.2 -1.8,0.1 -0.5,-0.8 0.4,-1.4 0.8,-1.4 1.7,0.1 2.7,-1.1 3.5,-2.2 2,-2.7 3.7,-5.4 7.7,-2.2 0.7,0.6 3.7,-1.2 5.3,-2.3 0.9,-0.6 1.1,-1.4 2,-0.2 2.9,3.6 5.2,0.2 7.1,-1.2 0.8,-0.6 1.2,-1.6 2.6,-1.6 2,-0.1 3.4,-1.7 4.8,-3 1.3,1.4 -1.1,1.7 -0.7,3.5 5,-4.5 6.6,-9.7 6.5,-15.9 -3.2,2.3 -2,6.1 -3.7,9.2 -0.1,-1.9 -0.2,-3.6 -0.3,-5.3 -2.4,2.6 0.1,8.1 -5.4,8.5 0.9,-2.7 -1.4,-0.3 -1.8,-1.1 -1.3,-2.5 -4.2,-3.3 -5.9,-5.4 -0.3,-0.4 0.1,0.1 -0.4,-0.2 3,1.9 4.5,5.6 8.2,6.6 -0.4,1.1 -1.1,1.8 -2.3,1.6 -1.8,-0.3 -2.8,0.9 -4,1.9 -0.9,0.8 -1.3,2.9 -3.3,1.6 -1.7,-1.1 -1.3,-2.5 -1.2,-4.3 -2,2.1 -4,4.2 -6.2,6.6 -0.3,-3.1 1.9,-4.7 3.4,-7.5 -2.7,0.9 -4.2,2 -4.5,4.3 -0.1,0.7 -0.7,1.5 -1.6,1.4 -0.9,-0.1 -0.6,-1 -0.7,-1.6 -0.2,-1.4 -0.7,-2.7 -2,-3.7 -1.3,1.6 2.7,5.3 -2.4,5.2 0.3,-0.9 0.6,-1.8 1,-3.1 -2.8,1.2 -4.6,4.4 -8.1,3 0.8,-0.9 3.1,-0.4 2.6,-2.5 -2.1,0 -4.4,3.9 -6.4,-0.6 -0.3,-0.7 -2.7,0.9 -4,1.8 -1.1,0.7 -1,4.5 -3.5,1.2 0,0 -0.8,0.6 -1.3,0.3 2.4,-5.2 6.6,-6.7 12,-6.2 2.8,0.3 5.9,0.5 9,-1.5 -3.5,0 -6.6,0.1 -9.6,0 -2.9,-0.2 -5.7,0.3 -9.2,2 1.9,-2.4 3.7,-2.8 5.6,-2.8 4.5,0.1 8.9,0 13.4,0 1.4,0 2.8,-0.4 3.3,-1.4 0.4,-0.8 -0.5,-2.2 -1.4,-2.9 -1.7,-1.4 -2.8,-3.4 -4.9,-4.4 -0.8,-0.4 -1.9,-1.1 -2,-1.8 -0.6,-4.9 -3.1,-2.1 -5,-1.2 -3.1,1.4 -8.6,-1.3 -10.9,-5.5 -1.1,-2 -3.4,-4.3 0.3,-6.3 1,-0.5 0.8,-2.3 0.4,-2.9 -2.5,-3.4 0.4,-4.1 2.4,-4.9 6,-2.3 12.1,-4.1 18.1,-6.4 4.6,-1.8 8.8,0.1 13.1,0.9 1.7,0.3 -0.6,2.2 0.7,3 1,0.2 1.5,-0.5 1.9,-1.4 2.1,-4.9 6.7,-6.5 11,-8.8 2.5,-1.3 3,0.3 3.1,1.9 0.2,3.5 0.4,7.1 0,10.6 -0.3,3.1 -3.2,4.3 -5.6,5.7 -0.9,0.5 -2.8,0.6 -1.9,2.7 0.5,0.4 0.8,-0.3 1.1,-0.4 5.2,-2.4 6.6,-2 8.7,3.4 2.1,5.4 2.7,11.1 3.4,16.7 1,7.1 1.8,14.3 5.5,20.7 -0.4,0.4 -0.9,0.7 -0.9,1.4 -0.1,-0.6 -0.1,-1.3 0.3,-1.7 z"
   class="st1" />
		<path
   id="path21928"
   d="m 186.1,206.7 c -0.3,-2.4 -3.2,-0.8 -3.5,-3.1 6.7,0.9 12.2,5.7 19.8,6 -2.8,-3.7 -6.9,-3.6 -10.1,-5.1 -3.3,-1.6 -7.1,-3.4 -10.4,-3 -3.5,0.5 -7,0.2 -10.5,0.6 2.8,-1.7 6.1,-1.5 9.1,-1.7 4.3,-0.4 8.1,0.8 12.1,2.8 2.4,1.2 5.9,1.2 9.3,2.1 -2.3,-2.6 -8.3,-5.6 -12.6,-6 -3.8,-0.3 -7.2,-3.1 -11.3,-1.4 2.8,-0.9 5,-3.4 8.5,-0.4 1.5,1.3 5.1,0.5 7.4,2.1 0.2,0.1 0.9,-0.3 1.3,-0.6 1.2,-1.1 -1.4,-1.3 -0.5,-2.4 1.8,0.1 1.8,1.7 2.4,2.9 1.2,2.4 3.3,3.3 5.8,3.7 0.4,0.1 0.9,-0.4 1.3,-0.7 -0.3,-0.2 -0.8,-0.3 -0.9,-0.5 -0.1,-1.4 1.2,-0.8 1.4,-0.6 1.2,0.9 3.2,2.4 3.1,2.8 -0.8,1.9 -2.7,-1.2 -3.8,0.7 0.5,0.6 2.2,0.6 1.8,2.6 -1.3,-0.9 -2.4,-2.2 -4,-1.4 2.2,1.8 3,3.9 0.7,6.1 -1.7,1.6 -1.5,2.5 0.7,3.3 0.6,0.2 1,0.8 1.4,1.3 1,1.2 1.1,3 0.2,3.9 -0.9,0.8 -2.4,0.3 -3.4,-0.8 -0.7,-0.8 -1.7,-1.5 -2.7,-2.5 -0.3,0.7 -0.6,1.2 -0.5,1.3 3.4,3.1 2.6,7 2.3,10.8 -0.4,4.4 0.9,7.6 5.9,9 -5.1,3.1 -6.7,-1.9 -9.7,-3.4 -0.5,3.5 5.8,7.1 -0.1,10.2 -1,-0.7 -0.5,-1.6 -0.7,-2.3 -0.3,-1.1 -1.2,-2.5 -2.2,-2.1 -1.8,0.8 0.5,1.5 0.4,2.2 -0.4,1.5 0,3.5 -1.8,4.3 -2.1,0.9 -1.6,-1.2 -2.2,-2.1 -0.7,-1.1 -2.2,-1.5 -2.2,-3.3 -1.7,1.2 -2,2.2 -0.7,3.6 0.5,0.5 1.2,1 0.5,1.9 -0.7,0.8 -1.5,1.1 -2.4,0.7 -1.5,-0.6 -3,-1.3 -4.5,-2 -0.7,-0.3 -1.3,-1.8 -2.1,-0.4 -0.5,0.8 0,2 0.9,2.3 1.9,0.6 2.9,2.2 3.5,3.8 0.3,0.8 1.6,3.8 -1.8,2.1 -0.5,-0.3 -1.3,-0.2 -1.9,-0.1 -5.9,0.6 -6.7,-0.1 -7.2,-6.5 -1.8,2 -3.6,3.5 -5,5.6 -1.2,1.9 -3,3.9 -5.7,1.4 -1.1,-1 -2.7,-0.9 -4,-0.1 -1.2,0.7 -1.9,0 -2.1,-0.8 -0.6,-1.7 0.9,-1 1.6,-1.2 4.2,-1.1 6.9,-3.9 9.2,-8.1 -3.5,1.7 -5.5,5.2 -8.8,5.6 -3.8,0.5 -3.3,5.9 -7.7,5.5 1,-3.2 3.2,-6.4 0.1,-10.1 2.6,0 5.3,-0.1 7.9,0 1.5,0 3.1,0.1 4,-0.9 4.6,-5 9.2,-9.9 9.2,-17.3 0,-2.3 -1,-4.4 -1.2,-6.7 -0.4,-3.5 1.1,-3.2 3.3,-3.4 -0.6,-1.3 -2,-0.2 -2.6,-1 1.4,-2.3 4.6,1.3 5.9,-1.9 -1.6,-0.4 -3.4,0.6 -4.9,-0.3 -1.1,-0.7 -3.8,0.1 -3.3,-1.5 0.5,-1.6 1.6,-4 4.4,-3.9 9.2,0.3 18.4,0.3 26.6,5.5 0.3,0.2 1,0 2.1,-0.1 -9,-6.8 -19.1,-6.9 -30,-6.9 5.3,-3.4 10.1,-1.8 14.9,-0.1 z"
   class="st1" />
		<path
   id="path21930"
   d="m 62.9,193.5 c 2.5,3.1 4.9,4.5 7.6,5.4 2.8,0.9 3.6,2.3 2,5 -0.4,0.7 -0.2,1.6 -0.3,2.4 -3.4,-0.7 -5.4,-3.4 -8,-5.2 0.9,3 2.7,5 5.4,6.4 1.3,0.7 2.5,1.2 1.5,3.4 -0.7,1.8 -1.4,3.8 -2,5.7 -0.3,1 -0.3,3 -2.1,2.5 -1.5,-0.4 -2.6,-1.7 -3.2,-3.1 -0.2,-0.4 0.1,-1.2 0.3,-1.4 1,-0.5 1.5,0.7 2.4,0.8 0.6,0.1 0.5,2.3 1.7,0.9 0.7,-0.8 -0.5,-1.5 -1.3,-1.9 -1.4,-0.7 -3,-2.8 -4.3,-1.3 -1.1,1.3 -1.1,3.7 0.8,5.2 1.3,1.1 1.5,2.9 3.8,3.4 1.8,0.4 -2,1.8 -0.2,3.3 -1.5,-0.9 -1.9,-2.9 -3.7,-2.8 -0.2,0.3 -0.3,0.4 -0.3,0.5 0.4,2.1 3.4,3.3 2.8,5.5 -1.3,4.7 -2.9,9.5 -5.7,13.5 -1.3,1.9 -3.5,1.9 -5.9,1 -4.3,-1.7 -6.5,-0.4 -7.8,4.2 -0.7,2.4 -2.8,2.8 -4.5,3.7 -2.2,1.1 -4.7,1.6 -7,2.8 -0.9,0.5 -3.6,1.2 -2,-2 0.5,-0.9 0.2,-2.2 -0.2,-3.4 -1,-2.9 -0.1,-3.7 3,-3 6.1,1.4 11.5,-1.1 14.7,-6.7 5.9,-10.5 9,-22.1 12.4,-33.6 0.9,-3 0.1,-6.7 0.1,-11.2 z"
   class="st1" />
		<path
   id="path21932"
   d="m 67.6,124.9 c -2.4,0 -4.3,0.1 -6.3,0 -2.2,-0.1 -3.3,-1.4 -3.1,-3.6 0.2,-1.7 0.8,-2.9 3,-1.7 2.3,1.4 4.7,2.5 6.4,5.3 z"
   class="st1" />
		<path
   id="path21934"
   d="m 140.5,256.1 c 0.9,-4.4 5.4,-5.7 6.7,-9.6 1.2,1.6 2.7,2.9 1.9,4.6 -0.8,1.6 -1.8,3.5 -4.3,2.8 -1.9,-0.6 -2.4,1.6 -4.3,2.2 z"
   class="st1" />
		<path
   id="path21936"
   d="m 220.7,257.4 c 0.4,-4.1 3.2,-5.2 4.9,-7.1 0.7,-0.8 0.6,-3 2.3,-2.3 1.6,0.7 0.9,2.6 0.7,3.9 -0.1,1.2 -0.4,3 -2.4,2.6 -2.3,-0.4 -3.6,0.9 -5.5,2.9 z"
   class="st1" />
		<path
   id="path21938"
   d="m 42.7,120.6 c 4.6,-2.3 10.3,-1.6 12.5,1.6 -4.5,1 -8.5,-0.1 -12.5,-1.6 z"
   class="st1" />
		<path
   id="path21940"
   d="m 27.6,258.8 c -2,-3.6 -0.8,-8.5 2.2,-9.9 1.4,-0.7 1.8,0.5 1.7,1.5 -0.2,1.4 -0.9,2.7 -2,3.6 -1.5,1 -2.2,2.4 -1.9,4.8 z"
   class="st1" />
		<path
   id="path21942"
   d="m 42.2,260.6 c -3,-3.4 -2.7,-4.6 2.9,-9.6 0.7,3.3 0.8,3.4 -1.7,5.4 -1.5,1.2 -0.4,2.9 -1.2,4.2 z"
   class="st1" />
		<path
   id="path21944"
   d="m 175.3,262.3 c 1.3,-2 3.6,-2.9 3.2,-5.5 -0.1,-0.7 0.7,-1.5 1.6,-1.4 0.8,0.1 1.3,0.7 1.5,1.5 0.8,3.2 -1.7,5.4 -6.3,5.4 z"
   class="st1" />
		<path
   id="path21946"
   d="m 253.9,261.5 c 1.4,-2 3.6,-2.9 3.2,-5.5 -0.1,-0.6 0.7,-1.5 1.6,-1.3 0.8,0.1 1.2,0.8 1.4,1.6 0.8,3 -1.7,5.2 -6.2,5.2 z"
   class="st1" />
		<path
   id="path21948"
   d="m 72.5,259.8 c 1.1,-1.8 3.6,-2.8 3.1,-5.5 -0.1,-0.6 0.8,-1.4 1.7,-1.2 0.7,0.2 1.2,0.8 1.4,1.7 0.6,3.1 -1.9,5.2 -6.2,5 z"
   class="st1" />
		<path
   id="path21950"
   d="m 80.5,82.2 c -2.5,0.3 -2,4.8 -5.7,4 1.1,-1.2 2,-2.3 3.3,-3.8 -2.9,0.4 -3.6,3.3 -5.8,4 0.9,-2.7 4.3,-5.8 6.8,-6.2 2,-0.3 0.8,1.4 1.4,2.1 z"
   class="st1" />
		<path
   id="path21952"
   d="m 238.5,263.1 c -2.2,-2.2 -2.7,-5.1 -1.1,-5.2 1.5,-0.1 3.3,-1.9 4.3,-0.6 1.1,1.4 -1.1,2.3 -2,3.1 -0.9,0.8 -0.4,2 -1.2,2.7 z"
   class="st1" />
		<path
   id="path21954"
   d="m 56.4,262.3 c -2.1,-1 -2.7,-2.8 -2,-4.6 0.6,-1.6 2.8,-0.5 4,-1.5 0.2,-0.2 1.1,0.1 1.3,0.4 0.3,0.5 -0.1,0.9 -0.5,1.3 -1.2,1.3 -2.9,2.3 -2.8,4.4 z"
   class="st1" />
		<path
   id="path21956"
   d="m 157,261.5 c -2.1,-1.1 -2.7,-2.9 -2,-4.6 0.6,-1.5 2.8,-0.5 4,-1.5 0.2,-0.2 1,0.1 1.3,0.4 0.3,0.5 -0.1,0.9 -0.5,1.3 -1.2,1.4 -3,2.3 -2.8,4.4 z"
   class="st1" />
		<path
   id="path21958"
   d="m 231.1,246 c 2,-3.3 4.7,-3.5 8,-2.9 -1.6,4.1 -5,2.5 -8,2.9 z"
   class="st1" />
		<path
   id="path21960"
   d="m 48.1,247 c 2,-3.3 2,-3.3 7.3,-1.6 -3.6,2.3 -3.6,2.3 -7.3,1.6 z"
   class="st1" />
		<path
   id="path21962"
   d="m 43.1,242.3 c -0.2,0.3 -0.2,0.4 -0.3,0.5 -1.8,1.4 -3.7,2.3 -5.9,1.1 -0.9,-0.5 -0.3,-1 0.1,-1.5 2.1,-2.2 4.1,-1.1 6.1,-0.1 z"
   class="st1" />
		<path
   id="path21964"
   d="m 80.4,82.3 c 1.3,1.7 1.7,4 3.8,5.1 -2.3,2.4 -3.7,-2.6 -5.8,-0.1 -0.3,-2.2 2.1,-3.1 2,-5 0.1,-0.1 0,0 0,0 z"
   class="st1" />
		<path
   id="path21966"
   d="m 150.7,243.5 c 1.4,-1.1 2.4,-1.8 3,-2.3 0.7,0.4 1.7,1.1 3.5,2.3 -2.7,0 -4.3,0 -6.5,0 z"
   class="st1" />
		<path
   id="path21968"
   d="m 53.4,117 c 1.6,0.3 3.2,-0.7 3.9,0.7 0.4,0.9 0.5,2.4 -1,3 -0.8,-1 -1.6,-2 -2.9,-3.7 z"
   class="st1" />
		<path
   id="path21970"
   d="m 57.1,122.2 c 0.1,1.1 1.1,2.5 -0.4,3.5 -0.3,0.2 -1.1,0 -1.1,-0.1 -0.3,-1.4 0.9,-2.2 1.5,-3.4 z"
   class="st1" />
		<path
   id="path21972"
   d="m 62.9,99.1 c 2.4,0.3 4.1,-1.5 6.1,-2.9 -2.1,-0.8 -3.8,-0.3 -5.1,1.5 -0.6,0.8 -1.3,0.8 -1.9,0 -1.3,-1.4 0.5,-0.9 0.8,-1.2 1.5,-1.7 3.2,-3.2 5,-4.9 0.6,1.5 -0.6,1.6 -0.5,2.6 5,0.3 10.1,0.6 15.4,1 -1.5,2.4 -3.6,1 -5.4,1.8 0.8,1.9 2.8,1.7 3.7,2.2 -5.8,5.9 -12.1,4.4 -18.1,-0.1 z"
   class="st0" />
		<path
   id="path21974"
   d="m 65.6,158.9 c -1,0.8 -2.3,1.5 -3.3,2.5 -1.1,1.1 -1,1.2 0.8,2.1 0.9,0.4 0.7,0.9 0.3,1.5 -0.6,0.8 -1.5,1.5 -1.9,2.4 -0.4,0.8 -0.9,2.1 -0.6,2.8 0.7,1.3 1.6,-1.2 2.6,-0.1 -0.5,2.1 -3.4,3.7 -1.4,6.3 0.3,0.3 0,1.1 -0.7,1.1 -0.8,0.1 -1.3,-0.5 -1.5,-1.1 -0.5,-1.7 -0.7,-3.6 -0.8,-5.3 -0.4,-5.8 0.7,-11.5 0.9,-17.3 0.1,-2 3.5,-3.5 6.5,-3.8 -1.3,2.2 -3.4,3 -5.6,4.2 2.1,0.8 3,-1 4.9,-1 -0.4,0.9 -0.3,2 -1.3,2.2 -1.5,0.3 -3.1,0.9 -2.7,2.3 0.5,1.8 2.3,-0.7 3.8,1.2 z"
   class="st0" />
		<path
   id="path21976"
   d="m 92.8,94.7 c -1.4,-0.8 -1.9,1 -3,0.1 1.7,-1 1.8,-2.2 0.1,-3.4 -1.5,0.2 -1,4.2 -3.2,2.4 -2.2,-1.8 0.5,-3.2 1.5,-4.6 0.5,-0.7 1.3,-1.3 1.9,-2 1.5,-1.6 3.4,-3.2 5.3,-2.2 2,1 1.8,3.8 1.2,5.7 -0.8,2.8 -1.7,6 -6.4,6 1.2,-0.9 1.8,-1.4 2.6,-2 z"
   class="st0" />
		<path
   id="path21978"
   d="m 85,205.7 c 3.8,-4.6 1,-11.8 6.9,-16 -0.5,4.8 -4.5,8.4 -2.1,12.9 2.3,-1.7 5,-3.7 6.3,-7.3 1.8,3.8 -1,5.2 -2.5,7.1 1.8,1.6 3.9,2.4 6.1,3 -1.9,2.7 -4.1,0.7 -5.4,-0.1 -2.7,-1.7 -4.8,-1.3 -7.1,0.2 -0.5,0.4 -1.1,0.4 -2.2,0.2 z"
   class="st0" />
		<path
   id="path21980"
   d="m 207.4,171.4 c -2.2,0.8 -3.8,1.4 -5.4,1.9 -2.5,0.7 -2.5,3 -3,4.8 -0.3,1 0.6,1.8 1.5,1.9 2,0.1 4.2,0.6 5.4,-1.6 0.7,-1.3 2.6,-1.9 2.4,-3.8 -0.1,-0.9 0.9,-1 1.4,-0.7 1.6,0.7 -0.2,1 -0.3,1.5 -0.2,2.9 -2.1,4.9 -4.2,6.1 -1.7,1 -4.3,2.3 -6.3,0 -1.3,-1.5 -3.1,-2.5 -2.2,-5.2 1,-3.2 3.2,-4.7 6.1,-5.4 1.2,-0.6 2.6,-0.8 4.6,0.5 z"
   class="st0" />
		<path
   id="path21982"
   d="M 91.1,144.1 C 88.7,142 86.5,140 88,136.2 c 0.7,-1.9 2.3,-2.9 3.7,-2.4 1.9,0.8 5.3,1.1 4.1,4.9 -2.1,-0.2 -3.1,-5.2 -6.1,-1.6 -1.4,1.6 0.4,3.1 1.1,3.8 2.7,2.6 4.4,-0.2 6.3,-1.8 0.2,2.9 -2.2,5.2 -8.9,8.5 -0.1,-2.1 1.7,-2.6 2.9,-3.5 z"
   class="st0" />
		<path
   id="path21984"
   d="m 97.1,155.2 c 1,-3.2 4,-3.3 4.7,-5.4 -2.3,-0.9 -2.4,-1 -5.1,0.7 -0.9,0.5 -1.5,0.4 -1.9,-0.4 -0.4,-0.8 -1.5,-1.6 -0.6,-2.5 0.4,-0.5 0.5,-1.6 2,-0.9 3.4,1.6 6,0.7 7,-3.4 0.5,-2 1.6,-2.6 3,-0.7 0.2,0.3 0.3,0.6 0.4,0.9 -4.2,0.9 -1.2,4.6 -2.5,6.8 -1.6,2.9 -4.4,2.6 -7,4.9 z"
   class="st0" />
		<path
   id="path21986"
   d="m 225.6,173.7 c -2.3,0.6 -3.1,2.4 -4,4.1 -1.1,2.1 0.3,3.3 1.6,3.9 1.2,0.5 2.5,-0.4 3.1,-1.8 0.7,-1.6 1.6,-3.1 2.3,-4.7 0.4,-1.1 1.3,-0.9 1.9,-0.6 1.1,0.6 0,1.2 -0.3,1.8 -0.7,1.6 -2,2.8 -2.5,4.6 -0.9,3.3 -4.8,3.8 -7.3,1.3 -2.1,-2.2 -1.3,-4.7 -0.4,-6.7 1,-1.9 2.9,-3.5 5.6,-1.9 z"
   class="st0" />
		<path
   id="path21988"
   d="m 98.1,159.8 c 0.4,1.2 -0.2,1.8 -0.7,2.6 -0.9,1.4 -1.4,2.8 0.3,4.2 1.8,1.6 2.9,1 4.4,-0.3 1.1,-1 1.9,-3 4.2,-1.7 -1.7,3.9 -5.2,5.4 -8.8,5.6 -2,0.1 -3.4,-2.8 -3.6,-4.8 -0.6,-2.9 1.1,-4.9 4.2,-5.6 z"
   class="st0" />
		<path
   id="path21990"
   d="m 164.5,148.9 c -2.3,0.9 -5.1,-0.4 -5.4,2.4 -0.2,1.4 -0.1,3.6 2.1,3.9 2.5,0.4 2.7,-2.2 3.8,-3.7 2.9,3.4 -0.4,5.9 -1.9,6.7 -2,1.1 -4.2,-1.5 -5.8,-3.2 -1.6,-1.6 -0.9,-3.9 0.2,-5.5 1.7,-2.5 4.1,-2.5 7,-0.6 z"
   class="st0" />
		<path
   id="path21992"
   d="m 128,162.9 c 0.6,4.1 -2.1,6.7 -4.9,7.9 -1.3,0.6 -4.8,1.2 -6.8,-1.4 -2,-2.7 -1.2,-6.4 2.1,-7.6 0.7,-0.3 1.1,-0.5 1.5,0.2 0.6,0.8 0.4,1.1 -0.5,1.7 -1.4,0.8 -3,2.4 -1.6,3.8 1.4,1.4 3.6,3.1 5.8,0.5 0.7,-0.8 1.9,-0.9 2.4,-2.3 0.2,-1 0.4,-2.5 2,-2.8 z"
   class="st0" />
		<path
   id="path21994"
   d="m 170.4,162.7 c 0.6,4.2 -2,6.8 -4.8,8 -1.4,0.5 -4.8,1.4 -6.8,-1.3 -2.1,-2.8 -1.3,-6.3 2,-7.7 0.9,-0.4 1.4,-0.3 1.8,0.4 0.4,0.7 0,1 -0.6,1.4 -1.5,0.9 -3.3,2.5 -1.4,4.1 1.5,1.3 3.3,2.4 5.9,0.1 1.5,-1.5 1.7,-3.8 3.9,-5 z"
   class="st0" />
		<path
   id="path21996"
   d="m 235.9,187.2 c -1.9,1.2 -5,-0.5 -5.4,2.6 -0.2,1.6 -0.2,3.4 2.1,3.8 2.8,0.5 2.5,-2.5 4.1,-3.6 1.9,2.8 0.2,4.9 -1.9,6 -2.7,1.5 -4.7,-0.9 -6.1,-2.6 -1.3,-1.5 -1.1,-3.8 0.3,-5.5 2,-2.4 4.2,-2.2 6.9,-0.7 z"
   class="st0" />
		<path
   id="path21998"
   d="m 141.7,171.6 c -2.3,0.9 -5.1,-0.4 -5.4,2.4 -0.2,1.3 -0.1,3.5 2.1,3.9 2.6,0.4 2.7,-2.2 3.8,-3.7 2.8,3.4 -0.3,5.6 -1.8,6.8 -1.7,1.3 -4.2,-1.2 -5.1,-2.6 -1,-1.5 -2.5,-3.9 -0.6,-6.1 1.9,-2.4 4.1,-2.4 7,-0.7 z"
   class="st0" />
		<path
   id="path22000"
   d="m 78.5,175.2 c 1.2,2.2 1.6,4.6 3.7,4.5 1.2,-0.1 2,-1.3 2.4,-3.1 0.8,-4.3 -3.6,-1.8 -4.4,-3.9 2.7,-1.3 5.2,-0.9 6.5,1.7 0.6,1.3 1.5,3.5 0,5 -1.6,1.6 -3.4,3.8 -5.9,2.8 -2.4,-1.1 -3.7,-3.3 -2.3,-7 z"
   class="st0" />
		<path
   id="path22002"
   d="m 141.1,160 c 1.8,1.3 1.5,4.4 4.3,3.7 1.7,-0.4 2.4,-1.9 2.3,-3.5 -0.4,-3.3 -3.3,-2 -5.6,-2.6 2.3,-1.8 4.3,-1.8 6.3,-0.3 2.1,1.6 2.1,4.1 1.2,5.9 -1.1,2.1 -3.8,3.7 -6.1,3.1 -2.3,-0.7 -3.6,-3.1 -2.4,-6.3 z"
   class="st0" />
		<path
   id="path22004"
   d="m 84.8,214.5 c 1.9,3.6 0.3,5.6 -1.8,6.7 -2.5,1.3 -4.3,-1 -5.9,-2.5 -1.6,-1.6 -1.5,-3.7 0,-5.5 1.9,-2.4 4.2,-2.5 7.2,-0.7 -2.6,0.7 -5.7,0 -6.3,2.8 -0.3,1.3 1.4,3.4 3.2,3.7 2.6,0.4 2.7,-2.1 3.6,-4.5 z"
   class="st0" />
		<path
   id="path22006"
   d="m 112.3,172.8 c -2.1,1.2 -4.3,1.9 -3.6,4.4 0.4,1.2 1.3,2.4 2.5,2.4 2.2,0.1 2.5,-2.3 3.7,-3.9 1.5,2.5 0.6,4.1 -1.2,5.7 -2.5,2.3 -4,-0.3 -5.7,-1.1 -2.8,-1.2 -1.9,-4 -1.3,-5.8 0.5,-1.6 2.3,-3.4 5.6,-1.7 z"
   class="st0" />
		<path
   id="path22008"
   d="m 177.5,165.1 c -0.4,-1.6 1.3,-3.2 3,-3.7 2.5,-0.8 5.1,0.4 6.9,2.1 1.5,1.4 0.2,3.1 -1,4.3 -0.1,0.1 0,0.3 -0.1,0.4 -0.7,0.8 -0.7,3 -2.4,2.1 -1,-0.5 0.9,-2.1 0.7,-2.6 -0.6,-1.3 2.7,-2.6 -0.3,-3.7 -1.7,-0.6 -2.9,-0.8 -4.1,0.6 -0.2,0.3 -1.2,0.8 -0.4,1.1 1.7,0.7 1.2,1.5 0.2,2.2 -0.4,0.3 -1.3,0.5 -1.8,0.3 -0.9,-0.6 -0.4,-1.6 -0.7,-3.1 z"
   class="st0" />
		<path
   id="path22010"
   d="m 82.5,230.8 c -0.7,-1.2 -1,-1.9 0,-2.1 0.4,-0.1 1.1,0.3 1.2,0.7 1.2,2.5 -0.3,4.2 -1.8,5.8 -2.2,2.3 -4.7,3.1 -6.8,0.2 -1.3,-1.7 -2.1,-3.9 0,-5.9 0.5,-0.5 1,-1.1 1.6,-0.8 0.6,0.3 0.7,1.4 0.3,1.7 -1.8,1.4 -0.7,2.7 0,3.9 0.5,0.9 1.8,1 2.4,0.2 1,-1.3 3.4,-1.9 3.1,-3.7 z"
   class="st0" />
		<path
   id="path22012"
   d="m 241.8,200.9 c -4.4,2.2 -4.6,3.4 -1.8,5.7 1.2,0.9 2.1,1.6 2.9,-0.3 0.3,-0.7 1,-1.9 2,-0.8 0.6,0.7 0.1,1.7 -0.6,2.4 -1.7,1.6 -3.5,2.6 -5.7,1.1 -2.3,-1.6 -3.7,-3.9 -2.7,-6.6 1,-2.4 3.2,-2.5 5.9,-1.5 z"
   class="st0" />
		<path
   id="path22014"
   d="m 96.8,111.1 c -0.4,-4 -3.1,-4.8 -5.5,-6.1 0.9,-1.1 3.1,-2.1 3.2,-1.8 1,2.8 4.9,4.2 4.2,7.4 -0.4,1.8 0.1,3.6 -0.7,5.6 -1.4,-3.4 -4.3,-5.5 -6.9,-8.3 2.6,-0.2 3.8,1.6 5.7,3.2 z"
   class="st0" />
		<path
   id="path22016"
   d="m 206.6,161.3 c -2.8,-2 -5.6,-2.8 -8.5,-0.6 -0.9,0.7 -1.4,0.3 -1.9,-0.3 -0.7,-0.8 0.2,-1.2 0.6,-1.4 3.1,-1.8 9.3,-1.3 11.9,0.8 0.9,0.7 1.7,1.3 0.5,2.5 -1.2,1.2 -2.9,3 -4.1,2.2 -2.1,-1.7 0.5,-2.2 1.5,-3.2 z"
   class="st0" />
		<path
   id="path22018"
   d="m 91.3,129.6 c -1.9,0.8 -3.1,0.8 -4.2,-1.6 -0.8,-1.8 -3.1,-2.9 -4.7,-4.4 -1,-0.9 -2,-1.7 -0.7,-4 1.8,4.1 6.8,4.6 8.3,8.9 0.7,-0.9 1.1,-2.5 3.3,-1.7 -1.2,0.8 -2.5,1.3 -2.3,2.9 0.2,0 0.3,-0.1 0.3,-0.1 z"
   class="st0" />
		<path
   id="path22020"
   d="m 74.9,121 c 1.1,-0.2 1.7,0.5 2.1,1.3 1.6,2.9 3.7,5.4 7,6.5 0.9,0.3 1.9,0.9 1.5,1.9 -0.4,1 -1.4,0.4 -2.3,0.1 -4,-1.6 -6.5,-4.9 -8.9,-8.2 -0.7,-1 -0.4,-1.5 0.6,-1.6 z"
   class="st0" />
		<path
   id="path22022"
   d="m 253,231.7 c 1.7,1.2 2.9,2.4 4.7,1.3 -0.1,-3.1 -5.3,-2.6 -4.6,-6.4 1.6,0.9 3.3,1.4 4.6,2.5 1.1,0.9 3,1.8 2.3,3.7 -0.5,1.3 -1.6,2.9 -3.4,2.9 -2,-0.1 -3.2,-1.4 -3.6,-4 z"
   class="st0" />
		<path
   id="path22024"
   d="m 232.5,173.2 c -5.2,-1.3 -8.9,-4.9 -12.9,-8 5,1.5 9.8,3.4 12.9,8 z"
   class="st0" />
		<path
   id="path22026"
   d="m 220.8,189.4 c 1.6,3.2 0.1,4.1 -1.6,5.3 -1.8,1.3 -3.6,1.3 -5.4,0.5 -1.4,-0.5 -1.7,-1.8 -0.8,-3 0.9,-1.2 2.3,-2.5 3.8,-1.7 1.7,0.9 -0.2,1.1 -0.6,1.5 -0.5,0.5 -1.1,1 -0.7,1.6 0.5,0.7 1.5,0.6 2.1,0.1 1.2,-1 2.4,-2.1 3.2,-4.3 z"
   class="st0" />
		<path
   id="path22028"
   d="m 97.3,155.9 c -3.8,4.5 -9.9,4.3 -14.6,7 3.8,-4.5 10,-4.1 14.6,-7 z"
   class="st0" />
		<path
   id="path22030"
   d="m 140.8,154.1 c -2.1,1.9 -1.6,5.6 -5.2,6.4 -1.5,0.3 -2.2,-0.2 -2.6,-1.1 -0.5,-0.9 0.2,-1.4 1.3,-1.7 1.7,-0.5 2.8,-2 3.6,-3.7 0.4,-0.9 1.4,-1.1 2.3,-0.9 0.2,0.2 0.4,0.7 0.6,1 z"
   class="st0" />
		<path
   id="path22032"
   d="m 254.9,152.9 c 3.2,-3 9.5,-2.1 9.2,-9.5 1.8,3.6 0.8,5.6 -1.4,7.8 -2.3,2.3 -5.4,0 -7.8,1.7 z"
   class="st0" />
		<path
   id="path22034"
   d="m 192.3,152.4 c -1.7,3.5 -7.3,4.3 -9.5,1.7 -0.8,-1 -0.7,-1.9 0.2,-2.7 1,-1 1.3,-0.4 1.9,0.6 1,1.8 2.7,2.1 4.4,0.9 1,-0.7 1.9,-0.3 3,-0.5 z"
   class="st0" />
		<path
   id="path22036"
   d="m 225.4,210.3 c -1.9,2.3 3.1,2.7 0.7,4.8 -0.3,0.3 -0.7,1 -1.2,0.6 -1.5,-1.2 -3.6,-2.1 -3.2,-4.6 0.2,-1.2 0.1,-3.1 2.2,-2.9 1.2,0.2 2.1,1 1.5,2.1 z"
   class="st0" />
		<path
   id="path22038"
   d="m 227.9,197.7 c -2.5,1.8 -2.6,5.2 -4.9,7.1 -0.9,0.7 -1.6,0 -1.3,-0.9 0.7,-2.6 1.4,-5.1 3.7,-6.9 0.6,-0.5 1.1,-0.7 1.7,-0.2 0.3,0.2 0.5,0.5 0.8,0.9 z"
   class="st0" />
		<path
   id="path22040"
   d="m 99.6,179.1 c -1.2,0 -2.4,0.2 -2,-1.2 0.6,-1.9 1.8,-3.4 4,-3.5 0.9,0 1.7,0.2 1.4,1.2 -0.6,1.9 -1,4 -3.4,3.5 z"
   class="st0" />
		<path
   id="path22042"
   d="m 216,166.9 c 0.1,1.3 -0.7,2.1 -1.3,3 -0.7,1.2 -1.8,1.7 -3.3,1.4 -0.9,-0.1 -1,-0.8 -0.8,-1.4 0.4,-1.3 0.9,-3 2.4,-2.8 1.1,0.1 2,-1 3,-0.2 z"
   class="st0" />
		<path
   id="path22044"
   d="m 232.6,213.2 c 0.1,1.4 -0.1,2.7 -1.8,2.8 -1.4,0.1 -2,-0.8 -2.1,-2.2 -0.1,-1.7 1,-2.9 2.3,-3.1 1.4,-0.2 1.7,1.3 1.6,2.5 z"
   class="st0" />
		<path
   id="path22046"
   d="m 91.4,112.7 c 2.4,1.7 4.9,3.1 5.1,5.4 0.1,1.4 -2.1,3.1 -4.4,3.3 0,-1.7 3.5,-1.2 1.8,-3.9 -0.9,-1.3 -2.8,-2.1 -2.5,-4.8 z"
   class="st0" />
		<path
   id="path22048"
   d="m 242,217.5 c -0.3,2.2 -2.4,1.6 -3.6,2.3 -0.9,0.6 -1.8,-0.6 -1.8,-1.8 0,-1.7 1.3,-2 2.7,-2 1.2,0 2.3,0.2 2.7,1.5 z"
   class="st0" />
		<path
   id="path22050"
   d="m 77.1,120 c -4.5,0.7 -6.8,-2.1 -9.7,-3 -0.5,-0.1 -0.7,-0.8 -0.3,-1.2 0.5,-0.5 1.2,-0.4 1.8,-0.1 2.4,1.2 4.8,2.5 8.2,4.3 z"
   class="st0" />
		<path
   id="path22052"
   d="m 223.5,161.5 c -4.1,2.6 -6,-3 -9.3,-2 3.4,-1.4 6,0.8 9.3,2 z"
   class="st0" />
		<path
   id="path22054"
   d="m 65.5,101.2 c 2.4,3.2 5.6,3.6 9.4,3.3 -1.9,2.3 -3.9,1.9 -5.8,1 -1.6,-0.8 -4.3,-0.9 -3.6,-4.3 z"
   class="st0" />
		<path
   id="path22056"
   d="m 73.1,154.6 c -0.8,1.5 -0.7,3.8 -3,4 -0.9,0.1 -2,-1 -1.6,-1.6 1,-1.4 2.3,-2.7 3.8,-3.7 0.6,-0.4 0.8,0.6 0.8,1.3 z"
   class="st0" />
		<path
   id="path22058"
   d="m 237.2,186.5 c -1.9,-1.2 -4,-1.9 -5.9,-2.9 -0.6,-0.3 -1.2,-0.8 -0.9,-1.5 0.4,-0.9 1.3,-0.7 2,-0.4 2.2,1 3.7,2.7 4.8,4.8 z"
   class="st0" />
		<path
   id="path22060"
   d="m 80,138.4 c -3.2,1.8 -4.4,4.7 -6.5,7 -0.1,-4.6 1.6,-6.5 6.5,-7 z"
   class="st0" />
		<path
   id="path22062"
   d="m 76,107.7 c -3.4,3 -6,3 -10.5,-0.3 4.1,0.9 7.3,1.8 10.5,0.3 z"
   class="st0" />
		<path
   id="path22064"
   d="m 262.6,238.6 c -0.5,-2.5 2.1,-5.2 -0.6,-7.4 0.2,-0.2 0.3,-0.4 0.5,-0.6 0.8,-0.4 1.1,0.4 1.5,0.8 2.3,2.8 -0.2,4.9 -1.4,7.2 z"
   class="st0" />
		<path
   id="path22066"
   d="m 213.6,186.8 c 1.2,0.4 2.8,-0.3 2.5,1.1 -0.4,1.6 -2.2,1.9 -3.7,2.2 -0.7,0.1 -1.7,0.2 -1.7,-1 0,-2.3 2.3,-1.2 2.9,-2.3 z"
   class="st0" />
		<path
   id="path22068"
   d="m 102.9,128.6 c -0.7,3.3 -3.7,4.7 -5.6,7 -0.1,0.1 -0.6,-0.2 -0.8,-0.4 -0.9,-0.7 0,-1.2 0.4,-1.4 2.4,-1.3 3.9,-3.5 6,-5.2 z"
   class="st0" />
		<path
   id="path22070"
   d="m 88.7,158.9 c -2.3,-0.8 -3.8,1 -5,-0.6 -0.3,-0.4 0.4,-2.2 1.7,-2.6 2.4,-0.7 2,1.5 3.3,3.2 z"
   class="st0" />
		<path
   id="path22072"
   d="m 252.5,240.2 c 1.6,-2.7 -0.9,-3.9 -1.8,-5.6 -0.2,-0.5 -1,-0.8 -0.2,-1.5 0.8,-0.8 1.2,0 1.5,0.4 1.7,2.1 2.8,4.2 0.5,6.7 z"
   class="st0" />
		<path
   id="path22074"
   d="m 244.4,228 c -0.5,1.1 -1.5,1.8 -2.5,1.3 -0.8,-0.4 -2.4,-0.3 -2.1,-1.7 0.2,-1.1 1.3,-1.8 2.4,-1.3 0.8,0.5 2.1,0.4 2.2,1.7 z"
   class="st0" />
		<path
   id="path22076"
   d="m 113.8,151.1 c -1.1,2.1 -2.9,2.5 -4.8,1.9 -0.7,-0.2 0.1,-0.8 0.3,-1.1 1.2,-2 2.8,-1.5 4.5,-0.8 z"
   class="st0" />
		<path
   id="path22078"
   d="m 94,182.4 c -0.2,1.7 -0.2,3.4 -2.2,3.8 -0.7,0.1 -1.4,0 -1.3,-0.9 0.1,-2.1 2.2,-2 3.5,-2.9 z"
   class="st0" />
		<path
   id="path22080"
   d="m 72.6,161.8 c -1.5,1.9 -1.4,4.2 -4.1,5.1 0.7,-2.4 0.1,-4.9 4.1,-5.1 z"
   class="st0" />
		<path
   id="path22082"
   d="m 74.8,165 c -0.5,0 -1.1,-0.4 -0.8,-0.9 0.8,-1.3 1.6,-2.7 3.3,-3 0.3,0 0.7,0.7 1.1,1 -1.5,0.6 -1.4,3.1 -3.6,2.9 z"
   class="st0" />
		<path
   id="path22084"
   d="m 104.5,160.9 c 0.2,1.3 -0.2,1.7 -1.2,1.7 -1.9,0.1 -0.3,-3 -2.4,-2.7 0.3,-0.7 0.7,-1.2 1.6,-1.3 2,0 1,2.1 2,2.3 z"
   class="st0" />
		<path
   id="path22086"
   d="m 99.8,199.1 c -1.8,-1.8 1,-3.7 -0.7,-5.1 0.3,-0.2 0.6,-0.7 0.7,-0.6 0.4,0.1 1,0.4 1.2,0.8 1,1.8 0.1,3.2 -1.2,4.9 z"
   class="st0" />
		<path
   id="path22088"
   d="m 88.3,111.9 c -1.4,0.7 -1.7,3.1 -3.5,1.4 -0.4,-0.4 -1.6,-0.7 -0.9,-1.7 1.2,-1.9 2.5,-0.2 4.4,0.3 z"
   class="st0" />
		<path
   id="path22090"
   d="m 79.2,113.9 c 1,0.1 1.7,0.7 1.7,1.4 0,1.3 -1.1,2 -2.1,2.4 -0.7,0.3 -1.5,-0.8 -1.4,-0.9 0.4,-1 1.2,-1.9 1.8,-2.9 z"
   class="st0" />
		<path
   id="path22092"
   d="m 109.2,143.7 c 0.5,1.8 0.8,3.4 -2.2,4 0,-1.9 -0.8,-3.8 2.3,-3.9 0,0 -0.1,-0.1 -0.1,-0.1 z"
   class="st0" />
		<path
   id="path22094"
   d="m 68.4,171.1 c 0.1,1.3 -0.2,2.4 -1.7,2.5 -0.4,0 -1.2,-1.1 -1.2,-1.1 0.6,-0.9 0.6,-2.4 2,-2.6 0.9,-0.3 0.9,0.5 0.9,1.2 z"
   class="st0" />
		<path
   id="path22096"
   d="m 237.5,226.3 c -0.9,0 -0.8,-0.7 -0.9,-1.3 -0.1,-1.1 0.2,-2.1 1.3,-2.5 1.2,-0.4 1,0.7 1.1,1.4 0,1.1 -0.4,1.9 -1.5,2.4 z"
   class="st0" />
		<path
   id="path22098"
   d="m 199.6,162.7 c -0.3,0.9 -0.9,1.5 -1.9,1.5 -0.9,0 -1.7,-0.5 -1.7,-1.1 0,-0.9 0.9,-1.3 1.9,-1.2 0.6,0 1.6,-0.4 1.7,0.8 z"
   class="st0" />
		<path
   id="path22100"
   d="m 88.4,150.8 c 0.4,0.5 1.1,0.9 1.1,1.2 -0.1,1.7 -1.9,1.6 -2.8,2.7 -0.2,0.3 -1,-0.1 -0.9,-0.8 0.2,-1.5 2.5,-1.2 2.6,-3.1 z"
   class="st0" />
		<path
   id="path22102"
   d="m 119.6,183.6 c -0.3,2.6 -2.3,2.6 -3.1,3.8 -0.3,-0.4 -0.9,-0.8 -0.8,-1.2 0.2,-2.1 2.4,-1.2 3.9,-2.6 z"
   class="st0" />
		<path
   id="path22104"
   d="m 89.7,117.2 c -0.2,0.5 1.5,1.3 -0.3,1.5 -1.1,0.1 -1.9,-0.6 -2,-1.5 -0.1,-1 0.7,-1.6 1.8,-1.7 2.1,-0.1 0.1,1.2 0.5,1.7 z"
   class="st0" />
		<path
   id="path22106"
   d="m 80.1,153.4 c -1,1.3 -1.7,2.5 -3.3,2.1 -0.6,-0.1 -0.7,-0.7 -0.4,-1.2 0.9,-1.4 2.2,-1.2 3.7,-0.9 z"
   class="st0" />
		<path
   id="path22108"
   d="m 173.2,171.8 c 2.4,-2.6 3.3,-0.4 4.3,1.3 -1.3,-0.6 -2.6,-1.4 -4.3,-1.3 z"
   class="st0" />
		<path
   id="path22110"
   d="m 94.2,125.3 c -1,-1.3 -3,1.4 -3.7,-0.9 -0.1,-0.2 0.2,-0.8 0.4,-0.9 1.5,-0.3 2.9,-0.3 3.3,1.8 z"
   class="st0" />
		<path
   id="path22112"
   d="m 77,147.1 c -0.5,1 -1.2,1.6 -2.4,1.3 -0.3,-0.1 -0.7,-0.5 -0.6,-0.7 0.2,-1.2 1.4,-1.1 2.2,-1.5 0.6,-0.3 0.8,0.4 0.8,0.9 z"
   class="st0" />
		<path
   id="path22114"
   d="m 91.3,120.9 c -0.2,0.6 0.2,1.5 -0.8,1.6 -1.1,0.1 -0.9,-1.1 -1.3,-1.7 -0.4,-0.7 0.4,-1.1 0.9,-1.3 1.4,-0.3 1,0.9 1.2,1.4 z"
   class="st0" />
		<path
   id="path22116"
   d="m 101.9,132.8 c 1.1,0.1 1.6,0.7 1.8,1.4 0.2,0.8 -0.4,0.9 -1.1,1 -0.9,0.1 -1.4,-0.6 -1.8,-1.2 -0.1,-0.2 0.8,-0.9 1.1,-1.2 z"
   class="st0" />
		<path
   id="path22118"
   d="m 92.1,213 c 0.9,-1 -0.6,-2.3 0.9,-2.9 0.5,-0.2 1.3,0.5 1.9,0.8 -0.5,0.9 -1.1,1.9 -2.8,2.1 z"
   class="st0" />
		<path
   id="path22120"
   d="m 90,211.8 c 0.2,-1.1 -1.8,-2.1 -0.3,-3.3 0.3,-0.2 0.9,-0.3 1.1,-0.2 1.1,1.4 -0.2,2.3 -0.8,3.5 z"
   class="st0" />
		<path
   id="path22122"
   d="m 54.1,170.7 c 0.5,-2 1.4,-3.1 1.2,-4.6 0.6,1.6 1.2,3.1 -1.2,4.6 z"
   class="st0" />
		<path
   id="path22124"
   d="m 81.8,144.4 c 0,1.1 0,1.7 -0.9,1.7 -0.4,0 -1.3,0.2 -1.1,-0.4 0.2,-0.6 0.2,-1.6 1.1,-1.8 0.7,-0.2 0.8,0.3 0.9,0.5 z"
   class="st0" />
		<path
   id="path22126"
   d="m 62.8,143.7 c 0.1,-0.1 0.2,-0.3 0.2,-0.3 1.4,0.2 1.6,-1.9 3,-1.5 0.3,0.1 0.4,0.6 0.6,0.9 -1.3,0.4 -2.4,1.5 -3.9,0.8 0,0 0.1,0.1 0.1,0.1 z"
   class="st0" />
		<path
   id="path22128"
   d="m 84.8,99 c 0.8,0 1,0.6 0.8,1 -0.3,0.5 -0.8,1 -1.3,1.3 -0.4,0.2 -1.1,-0.1 -0.9,-0.8 0.2,-0.8 0.7,-1.3 1.4,-1.5 z"
   class="st0" />
		<path
   id="path22130"
   d="m 247.7,229.2 c 0.7,-1.4 1.6,-1.7 2.7,-1.1 0.2,0.1 0.3,0.8 0.1,1 -0.8,0.6 -1.7,0.3 -2.8,0.1 z"
   class="st0" />
		<path
   id="path22132"
   d="m 74,183.9 c -0.5,-1.7 1,-1.8 1.9,-2.1 0.5,-0.2 0.4,0.7 0.4,1.1 -0.3,1.6 -1.5,0.7 -2.4,0.9 z"
   class="st0" />
		<path
   id="path22134"
   d="m 231.8,161.4 c 1.8,-0.7 3.6,0.5 3.5,0.8 -0.4,1.8 -1.3,0.6 -2,0 -0.3,-0.3 -0.8,-0.4 -1.5,-0.8 z"
   class="st0" />
		<path
   id="path22136"
   d="m 73.9,183.8 c 0.2,1.1 -0.1,1.9 -1.3,2.1 -0.2,0 -0.8,-0.5 -0.7,-0.7 0.2,-1.2 1.1,-1.4 2.1,-1.3 0,0 -0.1,-0.1 -0.1,-0.1 z"
   class="st0" />
		<path
   id="path22138"
   d="m 66.6,188.4 c -1.4,-0.7 -1.5,-1.6 -1.2,-2.8 1.5,0.6 1.7,1.5 1.2,2.8 z"
   class="st0" />
		<path
   id="path22140"
   d="m 86,116.2 c -1.1,1 -0.7,2.2 -1.8,2.4 -0.2,0 -0.8,-0.4 -0.8,-0.6 0.1,-1 0.7,-1.6 2.6,-1.8 z"
   class="st0" />
		<path
   id="path22142"
   d="m 81.2,109.2 c 0.1,0.2 0.5,0.4 0.5,0.7 0.1,0.9 -0.6,0.9 -1.2,0.9 -0.3,0 -0.6,-0.2 -0.8,-0.4 0.3,-0.6 0.6,-1.1 1.5,-1.2 z"
   class="st0" />
		<path
   id="path22144"
   d="m 83.2,140.9 c -0.5,0.8 -0.8,1.3 -1.5,1.2 -0.2,0 -0.6,-0.4 -0.6,-0.7 -0.1,-0.7 0.4,-0.8 0.9,-0.8 0.4,0.1 0.8,0.2 1.2,0.3 z"
   class="st0" />
		<path
   id="path22146"
   d="m 196.9,215 c -8.5,-2.3 -17.5,-3 -26.3,-4.4 9.2,-1.4 17.8,0.7 26.3,4.4 z"
   class="st0" />
		<path
   id="path22148"
   d="m 179.2,214.2 c 14.6,2.7 17.9,4.4 18.8,9.7 -2.7,-1.9 -4.4,-4.7 -7.7,-5.5 -2,-0.5 -3.7,-1.6 -6,-0.8 -1.2,0.4 -3.5,0.8 -3.2,-2.1 0,-0.5 -1.7,0.3 -1.9,-1.3 z"
   class="st0" />
		<path
   id="path22150"
   d="m 181.6,233.6 c -5.2,3.7 -8.1,3.8 -10.3,0.8 -0.5,-0.7 -1,-1.2 -0.3,-2 0.5,-0.5 1,-0.8 1.7,-0.7 1.7,0.2 0.1,1 0.3,1.5 0.5,1.5 1.4,1.9 3,1.4 1.7,-0.5 3.3,-1.7 5.6,-1 z"
   class="st0" />
		<path
   id="path22152"
   d="m 187.6,220.7 c 3.2,1.6 6.4,3.2 9.6,4.8 -4.2,0.5 -7.3,-1.5 -10.2,-3.7 0.1,-0.4 0.3,-0.8 0.6,-1.1 z"
   class="st0" />
		<path
   id="path22154"
   d="m 179.2,218.6 c -3.1,0.8 -5.9,2 -8.2,4 -0.5,-3.4 3.7,-5.6 8.2,-4 z"
   class="st0" />
		<path
   id="path22156"
   d="m 194.3,233.7 c -0.2,0.5 -0.4,1.1 -0.5,1.1 -0.5,0 -0.9,-0.2 -1.4,-0.5 -0.8,-0.5 -0.5,-1.4 -0.7,-2.1 -0.5,-1.4 -3,-1.9 -2,-4.1 0,0 0.6,0.2 0.9,0.3 2,1.3 2.7,3.4 3.7,5.3 z"
   class="st0" />
		<path
   id="path22158"
   d="m 191.3,239.5 c -1.6,-1.1 -2.3,-2.5 -1.6,-4.4 2,0.9 1.1,2.9 1.6,4.4 z"
   class="st0" />
		<path
   id="path22160"
   d="m 70,212.7 c -4.2,0.1 -6.3,-2.3 -5.9,-7.1 1.4,3.1 3,5.6 5.9,7.1 z"
   class="st0" />
		<path
   id="path22162"
   d="m 72.8,102.1 c -1.5,-0.7 -3.5,-0.6 -3.6,-2.8 0,-1.3 1.2,-1.9 2.1,-2.6 0.2,-0.2 0.9,-0.2 1.1,0 0.9,1 -0.5,0.6 -0.7,1 -0.8,1.7 0.4,2.9 1.1,4.4 z"
   class="st1" />
	</g>
</g>
</svg>
