<?xml version="1.0" encoding="UTF-8" standalone="no"?>
<svg
   xmlns:dc="http://purl.org/dc/elements/1.1/"
   xmlns:cc="http://creativecommons.org/ns#"
   xmlns:rdf="http://www.w3.org/1999/02/22-rdf-syntax-ns#"
   xmlns:svg="http://www.w3.org/2000/svg"
   xmlns="http://www.w3.org/2000/svg"
   xmlns:sodipodi="http://sodipodi.sourceforge.net/DTD/sodipodi-0.dtd"
   xmlns:inkscape="http://www.inkscape.org/namespaces/inkscape"
   inkscape:version="1.0 (4035a4f, 2020-05-01)"
   height="164.45142"
   width="150.726"
   sodipodi:docname="lions-head-erased.svg"
   xml:space="preserve"
   viewBox="0 0 150.726 164.45142"
   y="0px"
   x="0px"
   id="Layer_1"
   version="1.1"><metadata
   id="metadata24373"><rdf:RDF><cc:Work
       rdf:about=""><dc:format>image/svg+xml</dc:format><dc:type
         rdf:resource="http://purl.org/dc/dcmitype/StillImage" /><dc:title></dc:title></cc:Work></rdf:RDF></metadata><defs
   id="defs24371" /><sodipodi:namedview
   inkscape:current-layer="Layer_1"
   inkscape:window-maximized="0"
   inkscape:window-y="25"
   inkscape:window-x="0"
   inkscape:cy="131.9804"
   inkscape:cx="76.1"
   inkscape:zoom="2.52"
   fit-margin-bottom="0"
   fit-margin-right="0"
   fit-margin-left="0"
   fit-margin-top="0"
   showgrid="false"
   id="namedview24369"
   inkscape:window-height="480"
   inkscape:window-width="820"
   inkscape:pageshadow="2"
   inkscape:pageopacity="0"
   guidetolerance="10"
   gridtolerance="10"
   objecttolerance="10"
   borderopacity="1"
   bordercolor="#666666"
   pagecolor="#ffffff" />
<style
   id="style24324"
   type="text/css">
  .st0{fill:#FFFFFF;}
  .st1{fill:#000000;}
</style>
<g
   transform="translate(-73.9,-68.019604)"
   id="g24366">
	<g
   id="g24364">
		<path
   id="path24326"
   d="m 102.5,221.1 c -4.5,5 -10.1,5 -15.7,2.8 -7.6,-3.1 -12.9,-8.3 -12.9,-17.4 2.4,0 2.3,2.2 3,3.3 2.1,3.5 5,5.8 9.2,5.1 2.2,-0.4 4,-1.2 4.1,-4.7 0.2,-7.7 3.9,-13.9 10.9,-17.8 1,-0.6 2.2,-0.7 2.8,-1.9 -9.8,-7.7 -10.2,-10.1 -2.3,-15.7 0.8,3.9 2.3,7 6.9,7.3 2.5,0.1 3.9,-1.7 5.5,-2.8 3.9,-2.5 9.5,-4.5 6.1,-11.2 -0.4,-0.8 0,-1.9 0.1,-3 2.9,0 3.5,3 5.6,3.9 1.6,0.7 3.5,2.1 5,0.5 1.2,-1.3 2.1,-3.4 0.3,-5.3 -0.3,-0.3 -0.4,-0.9 -0.6,-1.3 -1,-1.9 -2.6,-5.2 -4.3,-4.1 -3,2.2 -9.9,-1 -9.1,6.3 0.2,1.6 -0.6,2.1 -2,1.9 -7.2,-1.2 -12.2,-8.8 -10.3,-16.1 0.3,-1.3 0.1,-2.1 -0.3,-3.2 -2.2,-5.3 -1,-7.1 4.9,-7.7 0.6,-0.1 1.2,-0.3 1.9,-1 -3.3,-1.5 -7,-1.1 -10.5,-1.8 -4.3,-0.9 -7.8,-2.9 -11.2,-5.2 -2.7,-1.8 -2.9,-4.5 -2.2,-7 0.4,-1.5 0.8,-3.8 3.2,-3.9 2.2,-0.1 2.2,1.7 2.8,3.3 1.4,3.1 4.2,4.6 7.7,4.7 3.5,0.1 7,0 11,0 -2.4,-3.8 -3.3,-8.2 -8.1,-10 -3.1,-1.2 -3.5,-4.9 -4.5,-7.8 -0.8,-2.4 -1.4,-5 -2.6,-7.2 -1.7,-3.1 -0.8,-6.1 2.6,-7 15.4,-3.7 30.5,-8.8 45.8,-12.8 6.2,-1.6 12.7,-2 18.7,-4.6 1.5,-0.7 3.5,-1.1 3.4,-3.6 -0.1,-2 -1,-2.7 -2.9,-3.2 -2.3,-0.7 -0.6,-1.9 0.3,-2.6 4.3,-3.5 9.9,-3 14.9,1.7 3.7,3.4 3.5,7.3 1,11.5 -0.9,1.4 -2.1,2.5 -3,4.1 5.4,3.3 10.7,5.7 16.7,1.3 -0.5,-1.9 -4,-1.6 -2.7,-4.1 0.7,-1.4 1.8,-3.2 3.8,-2.6 2.7,0.8 5.6,2.3 5.9,5.2 0.5,4.7 1.1,9.7 -3.7,13 -1.7,1.2 -2.5,2.7 -0.9,4.3 3.8,3.8 5.5,8.7 7.6,13.4 3,6.6 6.4,11.9 15.1,9.7 -2.4,5.6 -2.9,5.8 -13.6,6.4 1.2,3 2.6,5.9 3.6,8.9 1,3.1 3,6.5 -1.2,9 -0.8,0.4 -0.3,0.7 -0.1,1.1 1.9,3.9 3.5,8 6.9,11.1 1.8,1.6 2.9,0.1 3.8,-0.4 1.9,-1.2 3.4,-3 5.4,-4.8 0.5,4.2 0.9,7.9 -2.6,10.7 2.9,6.7 -3.2,7.1 -6.5,8.1 -3.4,1 -7.4,0.8 -11.6,-0.7 3.7,6.5 5.3,13.2 6,20.3 0.4,4.2 5.5,6.7 9.4,4.8 1.3,-0.6 2.5,-1.4 3.8,-2 1.1,4.6 -1.3,8.5 -5.8,8.9 -3.4,0.3 -6.9,0.6 -10.2,-0.9 -2.7,-1.2 -5,-2.8 -8.4,-1.1 -2.9,1.4 -4.4,-2.2 -6.3,-3.8 -1.3,-1.1 -2.3,-2.6 -3.5,-4 -2.9,6.1 2.2,12.3 12.8,15.3 -4.3,4.2 -9.2,4.4 -14.4,2.4 -8.1,-3 -10.9,-6.5 -12.2,-15.6 -2.7,5.5 -5.6,10.1 -7.2,15 -1.2,3.7 1.1,6.6 4.9,7.7 1.6,0.5 4.1,0.4 3.8,2.7 -0.4,2.6 -2.9,1 -4.5,1.3 -6,1.3 -10,-1.7 -12.9,-6.7 -1.2,6.3 -4.2,9.4 -9.5,9.6 1.9,-1.9 3,-4.2 1.8,-6.1 -1.8,-2.8 -5.2,-4.1 -8.2,-4.5 -5,-0.7 -7.8,-3.1 -8.9,-7.9 -4.6,2.2 -8.5,6 -7.7,10.9 0.9,5.5 6.4,6.3 11.6,5.8 -4.4,5 -13.1,3.7 -19.3,-1.2 -1.3,-1 -2,-1.6 -4.1,-1 -6,1.2 -8.6,-0.4 -12.1,-6 z"
   class="st1" />
		<path
   id="path24328"
   d="m 194.8,179.7 c -1.5,5.5 1,9.1 1.6,12.9 0.5,3.1 1.8,6.2 3,9.1 0.4,1.1 0.7,1.7 -0.1,2.6 -0.9,0.9 -1.5,0.6 -2.6,0.1 -2.8,-1.2 -4.3,-3.4 -5.6,-5.9 -1.1,-2.3 -1.5,-6 -4.7,-1.8 -2.2,-4.7 2.4,-9.2 -0.5,-13.7 -0.6,-1 -0.9,-2.1 -3,-1.8 2.6,3.2 1.5,6.4 1.2,9.9 -0.8,9.8 -1.3,19.8 10.9,24.3 -5.9,0.3 -10.6,-1.6 -14.9,-4.9 -5.3,-4 -2.4,-10.1 -3.5,-15.7 -2.8,2.3 -4.2,5.2 -5.7,7.9 -1.8,3.2 -3.4,6.6 -5,9.9 -2.4,5 -1.3,9.2 3.5,12.6 -5.8,1.1 -11.4,-5.7 -9.1,-11.3 1.6,-3.9 3.8,-7.6 5.3,-11.6 -7.3,6.3 -8.3,15.9 -12.2,24.1 -0.2,-3.9 -1.1,-7.4 -3,-10.8 -1.5,-2.7 -0.2,-5.4 1.8,-7.6 1.8,-1.9 3.9,-3.6 6.8,-6.3 -10.3,4.7 -13.5,8.1 -9.2,18.6 -8,-4.5 -8,-4.6 -3,-17.3 -5.4,3.7 -7.6,8.4 -4.4,14.9 -6.5,-2.2 -7.6,-4.6 -5,-9.9 1.1,-2.3 2.6,-4.5 3.4,-6.9 0.5,-1.5 1,-3.7 -1.3,-5 -1.2,6.9 -4.5,12.3 -10.5,16.3 -6.5,4.4 -6.7,10.6 -1.3,17 -10,-0.4 -12,-9 -4.9,-21 -4.8,1.7 -6.9,4.9 -6.8,10.5 0,2.6 0.5,5.4 -3.3,5.9 -3.7,0.5 -6.2,-1.6 -8.4,-4.2 -0.9,-1.1 0.3,-1.7 0.8,-2.5 0.9,-1.3 2.9,-1.8 2.7,-5 -4.9,3.3 -7.7,9 -13.4,9.6 -5.8,0.6 -10.3,-2.5 -14.6,-6.5 14.9,2 22,-6.2 26.5,-18.4 -4.6,4.2 -6.3,11.5 -13.4,13.7 1.4,-18.7 17.2,-20.7 30.1,-26.1 -3.6,0.6 -6.9,0.8 -10.3,1.9 -5,1.7 -9.6,0.1 -13.4,-3.7 -1.4,-1.3 -1.5,-2.2 -0.1,-3.6 2.4,-2.5 2.2,0.8 2.6,1.3 3,3.5 6.7,3.1 10.3,1.8 2.2,-0.8 4.6,-1.9 6.3,-3.5 3.8,-3.6 7.8,-5.8 13.3,-5 -3.8,-0.9 -8,-0.6 -10.1,-5.7 2.1,1.2 3.6,2.4 5.2,2.8 6,1.6 10.3,-1.4 11.1,-7.6 0.2,-1.7 -0.7,-4 1.3,-4.9 2.4,-1.1 1.8,2 3.2,2.9 2.3,1.4 3.2,1.9 10.3,1.8 -3.7,-4.1 -1.5,-4.2 2.4,-5.2 5.5,-1.4 10.8,-3.9 16.4,-5.3 2.8,-0.7 5.6,-4.1 5.4,-8.1 -0.1,-2.3 0.3,-3.3 3.1,-3.5 4.8,-0.3 6.8,-3.4 5.7,-8.6 -2,1.2 -3.8,2.7 -6.3,0.9 -1.5,-1.1 -2.2,-0.8 -1.2,-3.2 1.9,-4.2 -1.6,-7.4 -4.1,-10.6 6.7,-1.9 8.8,-5.4 8.8,-14.1 0,-6.8 -3.6,-10.2 -8.7,-12 -2.2,-0.8 -4.1,0.4 -5.8,1.8 -2,1.7 -4,3.4 -6.2,5.3 3,1.4 3.9,-0.8 5.1,-1.5 6.5,-4 11.2,-2.6 13.4,4.7 2.3,7.4 -4,14.2 -11.6,12.6 -1.5,-0.3 -3.2,0 -6.3,0 6.8,3.1 13,5.2 13.5,13.1 -3.5,-1 -3.5,-6.7 -8.6,-5.9 5.6,4.5 5.8,14.6 16.6,12.5 -5.2,6.1 -9.6,1.6 -14.5,-0.3 1.6,3.8 5.9,4.8 5.1,8.9 -0.5,2.3 -1.6,4.1 -3.5,5.5 -1.5,-2.4 1.6,-6.6 -3.8,-7.5 1.5,3 1.2,5.7 -0.1,8.4 -1.1,-0.4 -0.3,-1.5 -1.1,-2.4 -0.4,2.4 -3.1,2.5 -4.2,4.7 -0.2,-1.4 -0.4,-2.6 -0.7,-4.8 -2.1,5.3 -4.8,8.5 -11.8,7.4 7.7,-2.7 5.1,-9.7 8.2,-13.9 0.5,-0.6 -0.3,-1.9 -0.4,-2.8 -0.4,-2.6 -4.3,-4.5 -1.6,-7.8 0.2,-0.2 -0.9,-1.7 -1.6,-2.2 -1.4,-1 -4,-1.2 -1.4,-3.7 0.5,-0.5 -0.5,-1.6 -1.3,-1.8 -3.5,-1.4 -6.6,-4.4 -11,-3 -0.4,1.2 1,0.7 1.3,1.2 0.3,0.4 1.2,0.4 1.8,0.6 2.9,1 3.3,1.5 4.7,4.8 0.4,0.8 1.3,1.8 2.1,2 1.6,0.2 2,2.3 2,2.4 -1.9,3.8 1.3,5.8 2.7,8.5 2.1,4.2 -1.2,2.9 -3.6,3.1 2.4,2.2 2.8,4.8 2.3,7.7 -2.4,-1.6 -2.3,0.8 -2.9,1.9 -1,1.7 -1.6,3.7 -2.9,4.9 -1.5,1.3 -0.5,2.5 -0.6,4.1 -4.9,-3 -6.3,-6.9 -4.7,-12.2 -2.6,2.6 -2.3,7.4 -7.3,7.7 -1.4,-0.7 0.3,-2.7 -1.2,-3.8 -2.2,0 -4.5,4.6 -6.9,0.2 -0.3,-0.5 -1.4,0 -1.6,0.6 -1.4,4.5 -6.5,1.9 -8.9,4.7 -0.7,0.8 -1.2,-0.3 -1.5,-0.6 -0.6,-0.7 -0.7,-1.5 0.5,-1.9 1.4,-0.5 1.9,-2.3 1.3,-2.7 -1.2,-1 -2.4,0.3 -3.3,1.3 -1.4,1.6 -1.5,3.2 0,4.8 1,1 1.6,2 0.6,3.5 -3.5,-3.5 -3.8,-7.8 -3.5,-12.5 -2,2.8 -2,2.8 -0.4,11.5 -4.8,-6 -6.5,-9.9 -0.8,-16.5 -1.5,-0.5 -3.8,-0.2 -3.6,-2.4 0.2,-2.2 2.4,-2.1 3.9,-1.8 8.4,1.6 17.1,2.3 23.9,8.3 0.6,0.5 1.1,1 1.6,0.4 2.4,-3 6.3,-3.2 9.2,-5.1 2.3,-1.5 2.8,-3.8 1.9,-6.1 -2.8,-7.4 -7.4,-12.8 -15.3,-15.6 -6,-2.1 -12.3,-2.7 -18.4,-3.8 -6.8,-1.3 -11.4,-5.9 -12,-12.5 -0.1,-1.3 0.7,-1.8 1.4,-2.5 0.8,-0.9 2.4,-1.9 2.3,-2.5 -1.3,-5.8 3.4,-5.2 6.5,-6.1 11.7,-3.5 23.3,-7.1 35.1,-10 5.6,-1.4 11.5,-1.8 17,-3.6 6.8,-2.2 7.6,-4.3 4.5,-10.4 -0.7,-1.3 -0.2,-1.9 0.6,-2.2 1.6,-0.6 3.4,-0.7 4.4,1.1 1.5,2.8 2.6,5.7 0.6,10 3.6,-3.4 2.7,-6.2 1.4,-9.6 3.9,1 5.1,3.6 5.2,6.5 0.1,4.5 -4.1,7.5 -10.3,7.9 6.2,4.4 14.7,7.3 20.2,6.8 5.1,-0.5 7,-3.6 4.7,-7.8 4.3,0.8 5.6,3 4.5,7.8 -1.5,6.5 -4.3,7.6 -14.1,5.3 1.4,4.5 7.4,3.3 8.8,7.6 -1.8,0.3 -3.3,-1.8 -5.1,-0.5 2,3.5 8.1,2.3 9.6,7.9 -2.6,-1.8 -4.1,-4.2 -7.3,-3.7 7.1,4.7 9.7,13 15.6,18.5 2.3,2.1 5,2 8.3,2 -7.7,3.5 -12.7,2.6 -18.3,-3 -1.8,2.5 0.4,3.7 1.8,4.8 4,3.5 6.8,7.8 8.8,12.7 0.7,1.7 1.4,3.2 0.2,4.5 -1.9,1.9 -2.1,-1.1 -3.3,-1.5 -2.4,-0.7 -3.7,-3 -6.1,-4.1 5.1,6.3 8,13.8 12.4,20.3 3.1,4.5 5.8,4.3 11.2,0.6 -1.3,3.7 -4.9,5.3 -9.7,5.8 -4.6,0.4 -7.5,-3.2 -12.4,-4.7 5.2,6.9 11.1,7.6 17.6,5.9 1,-0.3 2.3,-0.7 2.7,0.1 0.6,1.3 -0.6,1.9 -1.7,2.5 -6,3.7 -13.1,2.5 -20.8,-3.7 -0.4,1 -0.5,1.8 0.2,2.8 4.7,6.3 7.6,13.1 8.7,21.1 1.3,8.7 1.8,10 12.2,11.1 -6.9,4.9 -16.2,-0.5 -18.5,-9.3 -1.3,-5.6 -2.1,-11 -5.1,-16.9 z"
   class="st0" />
		<path
   id="path24330"
   d="m 124.3,130 c 3.7,0.2 8.5,1.6 13.2,3.3 2.7,1 3.3,4.2 4.4,6.7 0.8,1.8 -0.8,2.3 -2.2,2 -6.7,-1.6 -13.4,-3.4 -20.2,-4.3 -1.5,-0.2 -2.1,-2.4 -2.3,-4 -0.2,-1.2 4.1,-3.7 7.1,-3.7 z"
   class="st0" />
		<path
   id="path24332"
   d="m 112.5,131.4 c -1.2,5 -4.2,5.2 -8.8,3.8 -4,-1.2 -8.1,-2.1 -11.7,-4.2 -2.7,-1.6 -4,-3.7 -1.8,-7 4.8,11.5 14.9,5 22.3,7.4 z"
   class="st0" />
		<path
   id="path24334"
   d="m 119.2,123.2 c 5,2.2 10.7,2 16.2,6.4 -5.8,-0.4 -10,-2 -14.4,-1.7 -1.9,0.2 -2,-0.2 -1.8,-4.7 z"
   class="st0" />
		<path
   id="path24336"
   d="m 116.8,129.9 c -2.7,-1.7 -4,-3.8 -4.9,-6.2 4.5,-1.2 5.6,-2.6 4.9,6.2 z"
   class="st0" />
		<path
   id="path24338"
   d="m 119.2,140.8 c -7,-1.6 -7.5,-2.4 -4.7,-8 0.7,3.3 2.2,5.7 4.7,8 z"
   class="st0" />
		<path
   id="path24340"
   d="m 156.2,96.8 c -1.2,4.8 -3.5,6.8 -7.9,6.2 -2.1,-0.3 -4.2,-0.2 -5.7,1.9 -2.4,3.3 -5.7,2.7 -8.2,0.6 -2.4,-2.1 -5,-1.3 -7.5,-1.5 -0.6,0 -1.9,-0.4 -1.2,1.1 0.4,0.9 0.6,1.6 -0.6,1.8 -1.3,0.2 -1.1,-1 -1.3,-1.7 -0.7,-2.2 1.4,-3.3 2.4,-4.6 1.1,-1.6 1.5,0.3 2.2,1 1,0.9 2.4,0.5 4.4,-0.3 -2.7,-1.6 -4.4,-3.2 -4.1,-6.1 0.1,0 0.5,-0.3 0.6,-0.2 1,1.2 2.5,3.8 2.9,3.4 1.6,-1.6 3.7,-2 5.5,-2.9 1.9,-1 1.8,-1.4 2.7,-0.7 1.5,1.3 2.7,3 4.4,4 4.1,2.4 4.2,2.3 11.4,-2 z"
   class="st1" />
		<path
   id="path24342"
   d="m 179,105.7 c -2.2,0.7 -1.2,-3.1 -3.1,-1.9 -1.6,1 0.1,2.7 0.4,3.9 1,4.4 0.1,6.1 -4.9,7.3 0.3,-0.9 0.4,-1.9 0.9,-2.5 2,-2.3 0.1,-4.1 -1,-5.6 -1.3,-1.8 -2.9,-0.7 -4.1,0.6 -0.5,0.5 -1.1,0.9 -1.7,0.3 -0.7,-0.8 -0.3,-1.2 0.6,-1.8 0.9,-0.5 1.3,-1.6 2,-2.5 4.8,-5.6 7.9,-5.1 10.9,2.2 z"
   class="st1" />
		<path
   id="path24344"
   d="m 147.4,153.5 c -1.1,-2.4 0.9,-3.7 2,-5.5 1.8,2.9 -1.4,3.7 -2,5.5 z"
   class="st1" />
		<path
   id="path24346"
   d="m 135.8,111.8 c -2.4,0.5 -3.4,-0.3 -3.9,-2.4 1.7,0.5 3.3,0.6 3.9,2.4 z"
   class="st1" />
		<path
   id="path24348"
   d="m 132.8,107.9 c -1.7,0.2 -3,0.5 -2.8,-1.4 0,-0.4 0.3,-0.7 0.5,-1.1 1.1,0.4 1.8,1.2 2.3,2.5 z"
   class="st1" />
		<path
   id="path24350"
   d="m 147.4,153.4 c -2.1,1.4 -2.8,0 -3.9,-2.7 1.8,1.3 2.9,2 3.9,2.7 0,0.1 0,0 0,0 z"
   class="st1" />
		<path
   id="path24352"
   d="m 141.4,110.4 c -2,0.7 -3.2,1 -5.6,-1.1 2.5,0.5 3.7,0.8 5.6,1.1 z"
   class="st1" />
		<path
   id="path24354"
   d="m 135.1,100 c 0.8,-2.8 3.5,-2.2 5.5,-2.8 0.6,-0.2 0.3,1.7 0.5,2.6 0.6,1.6 -0.5,1.2 -1.3,1.1 -1.3,-0.8 -2.8,-0.2 -4.2,-0.5 -0.2,-0.1 -0.4,-0.2 -0.5,-0.4 z"
   class="st0" />
		<path
   id="path24356"
   d="m 140,99.9 c 0.4,0.7 0.7,0.7 1.1,0 1.3,1.4 1.6,2.7 -0.1,4 -0.2,-0.1 -0.4,-0.2 -0.6,-0.3 -1,-1.1 -3.7,-2.1 -0.4,-3.7 z"
   class="st0" />
		<path
   id="path24358"
   d="m 141,103.9 c -1.6,1.8 -3.2,1.8 -4.9,0 0.2,-0.2 0.4,-0.3 0.6,-0.5 1.6,-0.7 3.1,-0.6 4.4,0.7 z"
   class="st0" />
		<path
   id="path24360"
   d="m 136.1,103.9 c -3.8,-0.4 -2,-2.2 -1,-3.9 0,0 -0.1,-0.1 -0.1,-0.1 1.1,1.2 1.9,2.5 1,4.1 z"
   class="st0" />
		<path
   id="path24362"
   d="m 135.9,104.1 c -0.8,-1.3 -1,-2.7 -1,-4.1 1.7,0.8 3.3,-2.6 5,0 -3.3,2.4 3.1,2.2 1.1,4.2 -1.6,-0.1 -3.3,-0.1 -5.1,-0.1 z"
   class="st1" />
	</g>
</g>
</svg>
