<?xml version="1.0" encoding="UTF-8" standalone="no"?>
<svg
   xmlns:dc="http://purl.org/dc/elements/1.1/"
   xmlns:cc="http://creativecommons.org/ns#"
   xmlns:rdf="http://www.w3.org/1999/02/22-rdf-syntax-ns#"
   xmlns:svg="http://www.w3.org/2000/svg"
   xmlns="http://www.w3.org/2000/svg"
   xmlns:sodipodi="http://sodipodi.sourceforge.net/DTD/sodipodi-0.dtd"
   xmlns:inkscape="http://www.inkscape.org/namespaces/inkscape"
   inkscape:version="1.0 (4035a4f, 2020-05-01)"
   height="208.67471"
   width="266.72784"
   sodipodi:docname="lion-passant.svg"
   xml:space="preserve"
   viewBox="0 0 266.72784 208.67471"
   y="0px"
   x="0px"
   id="Layer_1"
   version="1.1"><metadata
   id="metadata22821"><rdf:RDF><cc:Work
       rdf:about=""><dc:format>image/svg+xml</dc:format><dc:type
         rdf:resource="http://purl.org/dc/dcmitype/StillImage" /><dc:title></dc:title></cc:Work></rdf:RDF></metadata><defs
   id="defs22819" /><sodipodi:namedview
   inkscape:current-layer="Layer_1"
   inkscape:window-maximized="0"
   inkscape:window-y="25"
   inkscape:window-x="0"
   inkscape:cy="157.78097"
   inkscape:cx="131.06803"
   inkscape:zoom="2.52"
   fit-margin-bottom="0"
   fit-margin-right="0"
   fit-margin-left="0"
   fit-margin-top="0"
   showgrid="false"
   id="namedview22817"
   inkscape:window-height="480"
   inkscape:window-width="820"
   inkscape:pageshadow="2"
   inkscape:pageopacity="0"
   guidetolerance="10"
   gridtolerance="10"
   objecttolerance="10"
   borderopacity="1"
   bordercolor="#666666"
   pagecolor="#ffffff" />
<style
   id="style22736"
   type="text/css">
  .st0{fill:#FFFFFF;}
  .st1{fill:#000000;}
</style>
<g
   transform="translate(-18.931966,-42.21903)"
   id="g22814">
	<g
   id="g22812">
		<path
   id="path22738"
   d="m 210.5,208.8 c -2.9,2.7 -3.1,5.3 0.2,7 3.3,1.7 4.2,-1.6 5.6,-3.7 1.4,8.5 -3.7,9 -10.5,8.7 -0.8,0 -1.6,-1.7 -2.4,-0.2 -0.5,1 0.5,1.8 0.8,2.6 0.2,0.5 0.8,0.9 1.2,1.4 0.5,0.5 1.2,0.9 0.7,1.8 -0.4,0.6 -1,1.1 -1.8,0.9 -0.5,-0.1 -1,0 -1.4,-0.2 -1.5,-0.7 -3.6,-2.6 -4.4,-2.2 -2.6,1.6 -4.7,4.1 -7,6.2 -1.6,1.4 1.4,2.8 1.7,4.6 -4.6,1.6 -6.3,-1.9 -8.3,-4.8 -1.9,1.7 -3.3,4 -6.5,2.6 -1,-0.4 -2.2,1.2 -2,2.8 0.3,2.4 -1.8,4.1 -3.1,2.5 -2.8,-3.4 -6.5,-2.2 -10.1,-3.4 0.2,1.9 1.6,3.6 0,5.4 -1.3,1.6 -2.8,2.1 -4.8,1.9 -1.3,-0.1 -1.7,1.1 -2.5,1.8 1,1.4 2.6,1.6 4.3,2.2 -2.1,1.7 -4.3,2.1 -6.6,1.8 -2.8,-0.4 -4.3,-2.8 -3.4,-5.5 0.5,-1.4 0,-1.7 -0.7,-2.8 -1.7,-2.8 -3.1,-3.1 -6.1,-2 -2.5,1 -4.8,-0.5 -5.9,-3.5 -3,1.8 -3.2,4.1 -2.1,6.9 0.2,0.5 1,0.9 0.4,1.6 -0.6,0.6 -1.3,0.3 -2,0 -4.4,-1.8 -4.6,-6.9 -2.3,-10.5 0.6,-0.9 1.2,-2 2.2,-2.7 -1.8,-1 -3.2,1.4 -4.8,0.2 1.5,-6 7.1,-7.1 11.7,-9.2 1.8,-0.8 4.2,-0.2 6,1.4 3.8,3.2 5.7,3.1 9.2,-0.6 4.8,-5.1 10.2,-9.3 16.6,-12.2 -0.1,-0.2 -0.3,-0.4 -0.4,-0.6 -3.6,-4.6 -6.5,-2.1 -9.9,0.6 -3.9,3 -6.5,2.3 -8.4,-1.6 5,1.1 7.1,-0.4 9.3,-6.7 -3.8,-0.6 -7.9,-0.7 -9.3,-5.2 -0.8,-2.5 0.5,-4.9 2.3,-6.4 1.7,-1.5 4.1,-1.8 6.3,-0.2 -1.2,1 -3.1,1.5 -2.8,3.4 0.1,1 1,1.9 1.9,2.1 1.9,0.5 3.9,-0.7 4.7,-1.9 4.3,-6.7 11.1,-9.8 17.8,-13.1 1.7,-0.9 2.8,-2.2 3.7,-3.2 -4.3,-4.4 -8,-1.1 -12,0.8 -10.1,4.7 -19,11.5 -29.3,15.6 -5.3,2.1 -10.2,5.2 -16.2,6 1.4,2.8 1.5,6.5 5.6,6.9 2.6,0.3 3.4,-1.9 4.6,-4 1.5,2.5 0.6,4.3 -0.8,5.9 -3.3,4 -5.5,4.3 -13.1,1.9 0.4,0.6 0.7,0.9 1,1.2 1.3,1.2 3,2.6 1.7,4.2 -0.9,1.1 -3.2,0.8 -4.8,0 -1.7,-0.8 -3.6,-1.3 -4.6,-3.4 -1.5,2.7 -3.2,5 -4.1,7.5 -0.9,2.4 1.4,4.6 4.8,5.4 -4.5,2.9 -8.2,1.4 -12.4,-5.3 -2.7,1.6 -4.2,4.5 -6.9,6.1 -0.7,0.4 -1.4,1.9 -0.6,3.5 1.4,2.8 -0.8,3.3 -2.6,2.6 -2.9,-1.1 -6.2,-2.3 -6,-6.8 -2.2,1.2 -3.5,2.8 -4.8,4.4 -0.7,0.9 -1.6,2.2 0.2,3.3 0.6,0.4 1.6,0.9 0.8,2 -0.7,1 -1.6,0.9 -2.6,0.8 -0.2,0 -0.5,-0.1 -0.7,-0.2 -2.5,-1 -4.8,-4.6 -7.6,-0.5 -2.7,-1 -4.5,1.1 -6.6,2 -0.7,0.3 -1.3,0.4 -1.3,1.4 0,1 2.3,2.5 -0.2,3.1 -1.9,0.4 -4.1,0.5 -5.5,-1.6 -0.9,-1.4 -1.5,-3.5 -4.2,-2.4 0.7,1.7 2.1,3.6 0.9,5.5 -1.1,1.9 -3,2.7 -5.3,2.3 -1.1,-0.2 -1.9,0.9 -2.1,1.7 -0.3,0.9 0.9,1.1 1.7,1.4 0.8,0.3 1.5,0.6 2.4,1 -2.7,1.8 -5.4,2.5 -8.3,0.9 -0.9,-0.5 -2.3,-1.4 -1.9,-2.4 2,-4.1 -2.4,-5.9 -2.5,-9.5 -1.8,0.9 -1.7,2.5 -2.6,3.5 -2.2,2.4 -4.7,2.5 -6.5,-0.1 -0.7,-1 -0.9,-2 -2.2,-1 -1,0.8 -2.9,0.9 -1.9,3.1 0.6,1.3 1,2.7 1.5,4.2 -2.8,0 -5.5,0.7 -7.3,-2.6 -2.9,-5.4 1,-8.3 3.8,-11.6 -0.8,-0.5 -1.2,-0.1 -1.6,0.3 -0.8,0.8 -1.7,2.2 -3,1.4 -1,-0.7 -0.6,-2.4 -0.3,-3.4 1,-4.3 9.5,-10.5 13.9,-10.3 0.2,0 0.5,-0.1 0.7,0 6.6,4 10.8,-0.8 14.9,-4.6 3.5,-3.3 7.7,-5.5 11.7,-9.2 -2.3,0 -4,0 -5.7,0 -0.3,-1.8 2,-1.9 1.6,-3.7 -3.6,-0.2 -7,-1.6 -10.5,-2.6 -1.5,-0.4 -2.9,-0.7 -4.2,-0.4 -3,0.7 -3.7,3 -2.1,6 -5.4,-1 -5.8,-6.1 -0.8,-11.8 -1.5,-0.4 -3.7,0 -4.1,-1.8 -0.3,-1.5 0.8,-3 2.1,-3.9 2.6,-1.8 3.1,-3.8 1,-6.4 -0.4,-0.5 -0.3,-1.4 -0.6,-2 -0.8,-1.2 0.3,-3.4 -1.7,-3.6 -1.7,-0.1 -3,1.2 -3.6,2.9 -0.2,0.6 -0.4,1.2 -0.9,1.4 -1.2,-7.5 0.1,-9.8 5.6,-11.3 -3.6,-4.7 -6.6,-5.7 -10.4,-3.4 -1,-2.8 0.1,-5 2.2,-6.5 3.1,-2.3 0.2,-4.3 -0.3,-6.1 -0.7,-2.7 -2.6,-0.4 -4.1,0.4 -0.8,-3.4 0,-5.7 3,-6.9 1.5,-0.6 1.6,-1.3 0.9,-2.7 -1.6,-2.8 -2.8,-5.7 -1.4,-9.1 0.5,-1.1 0.6,-2.6 -1.8,-2.9 -2.7,-0.4 -3.6,-3.1 -4.3,-5.8 -2.9,1 -3.6,3.2 -3.5,6 -4,-3.5 -3.8,-6.8 0.5,-9.7 1.7,-1.1 3.2,-2.5 4.7,-3.9 3,-2.7 5.2,-2.6 7.3,0.8 0.7,1.1 1.3,2 2.5,2.5 0,-4 -2.8,-6.4 -4.7,-9.3 -2.3,-3.6 -1.8,-5.1 2.1,-6.5 -3.5,-4 -4.2,-4 -6.4,1 -0.2,0.5 -0.4,0.8 -1,0.8 -0.9,0.1 -1.7,-0.3 -1.7,-1 -0.2,-1.8 -0.9,-3.7 0.7,-5.5 3.6,-4.1 9.3,-4.6 12.8,-0.4 1.8,2.1 5.3,2 6.2,5.2 1.3,-0.2 1.7,-1.8 3.1,-2.1 0.5,-0.1 2.3,-0.3 1.7,-1.7 -0.4,-1 -1.4,-1.2 -2.5,-1.1 -1,0.2 -2,0.4 -3.1,0.6 1.5,-3.9 4.3,-6 7.5,-4.9 3,1 4.4,3.4 4.9,6.8 0.6,3.9 0.3,7.3 -2.4,10.5 -2.1,2.5 -1.8,5.5 -0.8,8.5 3.2,9.8 6.4,19.6 9.7,29.4 0.8,2.5 6.2,5 8.4,3.9 0.5,-0.2 0.9,-0.8 1,-1.3 0.2,-0.6 -0.5,-0.6 -0.9,-0.8 -0.6,-0.2 -1.1,-0.5 -1.6,-0.8 -1.9,-1.2 -4.7,-2.2 -3.8,-4.9 0.8,-2.5 2.5,-5 6.1,-4.4 0.4,1.5 -3.3,2 -1.1,4 1.7,1.6 3.6,1.6 5.8,1.1 2.4,-0.6 3.7,-2.6 5.5,-3.9 2.3,-1.8 4.8,-2.9 7.6,-4.5 -0.7,-0.6 -2.3,-0.9 -1.9,-1.8 1.5,-3.8 -1.4,-5.1 -3.6,-6.9 -1,-0.9 -2.1,-2.2 -1.4,-3.8 0.7,-1.5 2.3,-0.9 3.6,-1 0.8,-0.1 2,0.5 2.1,-1.2 0.1,-1.5 -0.7,-1.6 -1.9,-1.8 -5,-1 -9.9,-2.3 -13.6,-6.2 -4.5,-4.7 -3.6,-10 2.6,-12.7 1.3,2.3 -0.7,5.2 1.5,7.4 3.1,3.1 7,3.7 11,4.2 0.6,0.1 1.7,0.3 1.7,-0.7 0,-1.8 0.7,-3.8 -1.2,-5.4 -4.7,-3.9 -4.6,-9.1 -3,-14.4 0.7,-2.5 2.3,-4.1 5.3,-3.7 1.9,0.2 3.9,0.2 5.8,0 11.2,-0.8 22.1,0.3 32.5,5.3 1.5,0.7 3.7,2.2 3.4,-1.7 -0.1,-1.4 1.6,-1.8 3,-0.7 3,2.4 2.5,5.2 -2,8.1 1.6,1.5 3.2,2.8 4.7,4.2 1.1,1.1 2.1,1.5 3.4,0.2 0.6,-0.6 1.3,-2.3 2.5,-0.8 1,1.2 0.9,2.7 0.1,4 -0.8,1.3 -2.8,1.9 -2.3,3.8 0.7,2.6 1.1,5.3 2.5,7.7 0.2,0.4 0.6,0.8 1,1 1.2,0.5 2.3,2.1 3.8,0.8 1.7,-1.5 0.1,-2.5 -0.7,-3.7 1.9,-0.8 2.9,0.5 3.4,1.8 0.7,1.6 0,3.4 -1.1,4.7 -0.8,0.9 -2,2 -2.9,1.9 -3.5,-0.5 -2.6,1.9 -2.4,3.5 0.4,2.8 -1.8,5.2 -0.8,8.1 0.7,2.1 1.2,3.5 3.9,3.3 3.1,-0.3 6.3,0 9.5,-0.1 9.4,-0.4 18.7,0.5 28,0.9 12.1,0.5 24,3.1 35.8,5.8 5.6,1.3 11.4,1 17,2.2 5.3,1.2 10.4,0.8 15.5,-0.8 4.6,-1.5 7.4,-4.8 6.6,-7.6 -1.4,-4.9 -6.3,-7.6 -11.3,-6 -1.5,0.5 -3.2,0.8 -4.4,2.1 -1.6,1.7 -2,3.2 -0.4,5.2 1.6,2.1 3.1,0.8 4.7,0.1 0.8,-0.3 0.9,-2.6 2.3,-1.1 1.5,1.5 -0.5,2.1 -1.2,2.8 -3.3,3.1 -6.6,3.1 -9.7,0.1 -4.7,-4.5 -5.2,-9.1 -1.8,-13.5 3.8,-4.9 8.9,-5.1 14.4,-5 -2.7,-1.2 -5.1,-3.5 -8.6,-1.9 -1.9,0.9 -4,1.4 -6,2 -4.8,1.4 -9.9,-2.1 -9.4,-6.4 0.1,-1 0.4,-1.7 1.2,-2.1 0.6,-0.3 1.6,-0.3 1.9,0.5 1.5,3.6 3.6,2.3 6.1,1.1 1,-0.5 2.1,-0.8 3.7,-1.5 -2.7,-1.3 -5.3,-1.2 -7.7,-1.6 -14.4,-2.3 -28.9,-1.8 -43.3,-2.4 -9.3,-0.4 -18.8,-2.5 -26.4,-8.1 -11.2,-8.3 -16.6,-22.2 -9.3,-36 2.5,-4.8 7.2,-7.8 11.8,-10.7 1.4,-0.9 3.6,-1.9 2,-4.4 -0.3,-0.5 -0.4,-1.5 -1.4,-0.9 -0.5,0.3 -1,0.9 -0.6,1.5 0.4,0.6 1.1,1.2 0,1.7 -0.7,0.3 -1.4,-0.1 -2,-0.6 -2.4,-2.1 -1.4,-5.5 2,-7.1 0.5,-0.2 1.1,-0.3 1.7,-0.5 -5.7,-1.2 -6.8,-0.5 -9.5,4.4 -1.2,2.2 -1.5,5 -4.7,6.3 1.2,-3.2 1.9,-6 2.2,-9.1 0.3,-3.7 3.4,-5.6 6.5,-6.9 7,-2.8 18.6,3.3 20.4,10.5 0.6,2.7 -0.5,5.3 -1.6,8.3 8.7,-2.8 17,-3.9 25.7,-3.9 3.3,0 6.2,-1.4 7.5,-5 1.3,-3.3 1.1,-6.6 -0.6,-9.6 -1.7,-3 -8.4,-2.9 -10.6,-0.2 -0.7,0.9 -0.6,1.6 -0.2,2.6 0.8,2.2 2.7,2.8 4.4,3.8 -4,0.6 -7.4,-1.8 -7.7,-5.5 -0.2,-2.6 4,-6.3 7.5,-6.6 12.4,-1 16.4,7.4 15,17.6 -0.4,3 -3.3,4.8 -5.8,6.6 -0.7,0.5 -1.3,1 -2.1,1.7 2,1.5 4.3,1.9 6.3,2.8 2.3,1 3.7,0 4.8,-1.5 1.6,-2 -1.7,-1.7 -1.7,-3.1 1.9,-1.5 2.9,0 4.2,1 1.7,1.3 0.7,2.6 0.1,3.8 -4.7,9.8 -15.8,13.6 -25.6,8.8 -2,-1 -4,-1.7 -6.6,-2.7 2.4,3.4 4.6,6.2 4.6,10.2 -0.1,3.5 -1.6,5.8 -4.6,7.4 -4.2,2.3 -8.5,3.8 -13.3,3.1 -3.2,-0.4 -5.8,-1.9 -7.3,-4.9 -0.7,-1.4 -0.7,-2.5 0.6,-3.9 0.7,2.3 1.6,4.1 3.9,4.5 3,0.4 5.3,-1.6 5.3,-4.8 0,-5.2 -4.7,-8.3 -9.8,-7.1 -5.1,1.2 -7.8,4.7 -9.6,9.1 -1.1,2.5 1.4,9.2 3.9,10.9 5.8,4.1 12.4,5.6 19.4,5.8 7.6,0.2 15.1,0.1 22.7,0 6.6,0 13.1,0.2 19.6,2.1 1.7,0.5 3.6,0.1 5.6,0.1 -0.9,-2.8 -2.7,-5.1 -3.4,-7.9 -2.9,-10.9 6.2,-20.6 18.5,-18.3 3.4,0.6 5.6,5.2 4.1,8.3 -0.5,1 -1.4,2.3 -2.8,1.8 -1.8,-0.6 0.1,-1.5 0.1,-2.3 -0.1,-2.4 -2.8,-4 -5.4,-2.9 -6.4,2.6 -8,9.2 -2.9,14.1 3.7,3.7 7.8,7 12,10.3 9.8,7.7 16.1,17.6 16,30.5 -0.1,10.7 -11.4,22.4 -22,22.1 -2.5,-0.1 -5.1,0.7 -7.6,-0.6 1.8,2.7 4.1,4.3 7.4,4.2 0.7,0 1.7,0.2 1.9,-0.6 0.3,-1.1 0.4,-2.4 1.9,-1.3 1.3,1 1.2,2.2 0.3,3.5 -0.1,0.2 -0.4,0.3 -0.5,0.6 -0.5,1.3 -4.1,1.6 -1.3,3.9 2.4,1.9 4.7,1.6 6.5,-0.7 1.6,3.2 0.7,5.6 -3.2,8.2 6.3,6.8 9.9,7.3 13.7,1.8 1.1,2.7 1.1,2.7 -2.3,9.5 4.4,-1.6 9,-1.8 11.3,-6.7 2.6,4.4 1.6,8.1 -3.7,13.5 3,1.7 4.6,4.1 4.3,7.6 -0.2,2.1 0.3,3.9 3,2.5 0.5,-0.3 1.1,-0.3 1.2,0.2 0.1,0.5 0.1,1.3 -0.2,1.7 -1.3,1.8 -3,2.7 -5.3,2.3 -1.2,-0.2 -2.5,0.4 -4.2,-1.3 1.7,3.7 -0.1,8 4.6,8.8 -1.7,3.9 -6.8,-0.3 -8.4,3.9 0.6,1.3 3.5,1.2 2.6,3.4 -0.7,1.7 -2.3,2.1 -4.2,2 -2.8,-0.2 -1.5,2.1 -1.4,3.2 0.1,1.6 1.5,4.1 0.2,4.6 -2,0.8 -3.6,2.5 -5.9,2.5 -0.4,0 -0.7,0 -1.1,0 -1.3,-0.1 -2.3,0.9 -2.5,1.7 -0.3,1.1 1.3,1.1 2,1.6 0.6,0.4 1.3,0.4 2.2,0.7 -2.8,1.9 -5.5,2.6 -8.4,1 -0.8,-0.5 -2.1,-1.3 -1.8,-2.1 1.5,-3.8 -2.2,-6.5 -1.7,-10 -1.8,0.6 -2.1,2.2 -2.8,3.5 -1.6,2.8 -4.5,4 -7.3,2.3 -1.4,-0.8 -1.8,-0.3 -2.5,0.5 -1.1,1.2 0.1,1.8 0.8,2.3 1,0.8 2.1,1.3 3.1,2.3 -3.2,0.6 -6.4,1.4 -9,-1.5 -3.1,-3.6 -0.2,-6.6 1.1,-10 -1.8,-0.9 -4.2,0.4 -5.7,-1.7 -0.4,-0.6 -1.5,0.6 -1.9,1.2 -0.8,1.1 -1.7,2.2 -0.6,3.8 0.3,0.5 1.6,1.3 0.3,2.1 -0.8,0.4 -1.5,-0.1 -2.2,-0.7 -3.1,-2.6 -3.4,-6.4 -0.6,-9.4 2.5,-2.8 6.3,-3.9 9,-6.4 0.9,-0.8 2.9,-0.3 4.4,0.4 1.6,0.7 3.1,1.6 5.3,1.3 4.3,-0.6 6.5,-2.6 6.6,-7 0,-1.2 0.9,-2.4 1.4,-3.6 1.8,-4.2 0.6,-6.2 -3.7,-8.2 -3.1,-1.4 -5.6,-1.6 -8.5,0.2 -2.4,1.5 -4.8,0.6 -7.4,-0.7 2.2,7.6 -1.5,12.4 -7.3,16.4 -1.6,1.1 -3,1.5 -4.6,0.6 -1.7,-1 -1.7,-2.6 -1.2,-4.4 1.7,0.4 0.4,4.4 3.8,2.8 3.9,-1.9 6.6,-6.3 5.2,-9.5 -1.4,-3.3 -3.2,-6.5 -4.6,-9.9 -0.6,-1.3 -0.8,-1 -1.6,-0.3 -0.7,0.6 -1.5,1.1 -2.3,1.6 -1.8,1.1 -4,1.9 -5.7,0.7 -1.9,-1.3 -4.1,-3 -2.7,-6.2 2,1.3 4,2.2 6.4,0.8 3.9,-2.4 4.5,-5.8 1.3,-9.1 -2.3,-2.3 -4.6,-4.6 -7.1,-6.8 1.4,3 -0.1,7.3 4.1,9 -2.5,3.2 -4.7,2 -6.8,-0.3 -1,2 -1.8,4.1 -3,5.8 -2.2,3.1 -1.7,5.6 1.3,7.8 0.5,0.4 0.8,0.9 1.4,1.4 -1.2,0.5 -2.3,0.9 -3.4,1.3 0.3,3.2 3.2,0.1 5.4,1.3 z"
   class="st1" />
		<path
   id="path22740"
   d="m 151.2,157.2 c -1.3,-0.1 -1.1,0.7 -1.4,1.2 -1.6,2.9 -6.5,3.5 -8.7,1.1 -0.7,-0.8 -1,-1.4 0.5,-1.7 3.2,-0.6 2.8,-1.8 0.8,-3.7 -2.2,-2.1 -2.2,-5 -2.4,-7.9 1.5,2.5 3.4,2 5.9,1.8 7.6,-0.8 15.3,-0.7 22.9,0 1.9,0.2 3.8,0.4 5.7,0.4 10,-0.2 19.8,1.6 29.6,2.8 10,1.2 19.7,4.6 29.9,4.7 3.6,0.1 7.2,1.4 10.9,1.4 4.5,0 8.6,-1.2 12.6,-3 4.7,-2.1 6.7,-6.8 5.5,-9.5 -2.7,-6.5 -8.5,-8 -12.6,-7.1 -1.7,0.4 -3.4,0.9 -4.8,1.9 -3.9,2.5 -4.3,5.2 -1.3,10 -3.3,-2.2 -5.6,-4.3 -5.1,-8 0.5,-4 2.7,-6.9 6.4,-8.4 5.5,-2.3 13,0.7 17,6.4 0.3,0.4 0.5,0.7 1,0.7 0.9,-0.7 0.3,-1.2 -0.2,-1.8 -4.8,-5.1 -8.2,-12.2 -16.8,-12.1 -2.9,0 -5.4,1.4 -8,2.4 -3.4,1.4 -6.5,-0.4 -7.4,-4.8 3.1,3.3 6.1,2.7 9.4,0.9 3.7,-2.1 7.6,-3.7 11.4,0 0.9,-1.5 -0.2,-1.8 -1,-2.2 -4.8,-2.9 -10.1,-3.6 -15.5,-4.4 -14.1,-2 -28.4,-1.9 -42.6,-2.4 -8.5,-0.3 -17,-2.4 -24.8,-6.4 -7.2,-3.7 -15.1,-17.5 -12.7,-27.9 1.8,-7.7 6.6,-12.1 12.7,-15.8 1.3,-0.8 2.3,-1.7 3.1,-2.9 1.5,-2.1 0.6,-4 -0.8,-5.8 -1.5,-1.9 -2.8,-0.5 -4.2,0.2 1.7,-3 4.2,-3.2 6.8,-1.7 2,1.2 3,3.2 3.1,5.6 0.1,2.5 -2.7,3.5 -3.1,5.8 2.7,-1.1 4.6,-3.6 4.6,-6.1 0.1,-4.3 -3.2,-7 -6.6,-9.1 -3.1,-1.9 -7.9,-0.8 -11.5,2.4 0.6,-3.3 3.2,-4.1 5.3,-5 6.2,-2.4 16.6,3.3 18.1,9.8 0.7,2.8 -2.3,7.7 -5.1,8.9 -4.5,1.8 -9.2,3.3 -12.5,7.1 -3.3,3.9 -6.8,7.8 -5.5,14.1 1.8,-9.1 6.5,-15.4 14.9,-18.5 3.1,-1.1 6.3,-1.9 9.4,-2.8 8.4,-2.3 16.9,-4 25.7,-3.8 4.3,0.1 8.2,-4.5 8.2,-8.8 0,-1.2 0,-2.4 0,-3.7 -0.2,-4.7 -2.8,-7.2 -7.4,-7.3 -0.8,0 -1.6,-0.1 -3.4,-0.2 6.8,-1.2 12.6,1.3 14.2,6.1 1.4,4.3 1.8,8.4 -1.5,12.4 -3.2,3.9 -8,3 -11.9,4.7 6.7,-0.3 11.3,6.8 18.3,4.9 -1.8,3.1 -1.8,3 -5.2,2.1 -3.6,-1 -6.8,-3.5 -11.3,-2.8 4.5,1.9 8.8,3.3 13.1,4.5 -3.4,2.9 -8.8,2.6 -12.9,-0.6 -2.5,-2 -4.7,-2.6 -8.5,-2.3 5.7,1.6 9.5,5.5 15.9,6.7 -10,1.5 -17.2,-5.9 -27.1,-4.6 5,1.5 7.2,4.6 8.9,8.3 2.2,4.7 1.3,7.3 -3.7,9.5 1.7,-6.3 0.8,-9.4 -3.6,-12.1 3.5,3.5 3.4,7.6 1.8,11.7 -0.8,2.1 -2.8,3.5 -6.1,3.6 2.2,-1.4 4,-2.5 3.1,-4.9 -1.3,1.3 -2.2,2.8 -3.6,4.1 -2.1,1.8 -3.6,0 -5.4,-0.3 2.4,-0.1 5.1,-0.5 5.9,-2.7 0.8,-2.2 0.7,-4.8 0.3,-7.2 -0.7,-4 -7,-7 -11.8,-5.7 -11.3,3.3 -13.7,12.7 -8.2,21.4 2.6,4.1 7.9,5.8 12.8,7 4.5,1.1 9.2,1.7 13.9,1.5 15,-0.7 29.9,0.6 44.8,2.3 4,0.5 7.6,3 11.2,4.9 4.9,2.5 8.9,6.3 13.5,9.3 -1.2,-2.6 -3.3,-4.6 -5.5,-6.1 -4.8,-3.3 -9.9,-6.4 -15,-9.3 -5.5,-3.2 -8.3,-10.7 -6.6,-16.9 1.6,-5.8 8.3,-10 14.8,-9 2.1,0.3 4.1,1.1 4.4,4.1 -2.9,-3.1 -6.1,-3.1 -9.5,-1.9 -3.4,1.1 -4.8,3.8 -5.1,7 -0.6,5.6 2.5,9.3 6.5,12.8 6.3,5.5 13.9,9.8 18.2,17.2 3.9,6.7 7.3,13.6 5.3,22.1 -3,12.6 -15.2,20.5 -28.9,15.8 -4.4,-1.5 -8.8,-3.2 -13.7,-1.5 2.9,0.9 5.9,1.6 8.7,2.8 2.5,1 5.1,2 6.9,4.2 2.3,2.7 5.6,3.3 9.4,3.1 -3.7,3.8 -6.9,1.6 -10.3,0.3 5.1,2.9 9.5,7 16.2,7.2 -1.9,3.9 -5.6,3.1 -8.8,3.8 4.4,0.8 7.3,3.9 10.6,6.4 2.3,1.7 4.8,1 7.6,1.3 -1.2,3.5 -4.3,4.1 -6.9,5.3 7.4,1.5 12.8,0.3 17.5,-3.7 0.1,3.9 -2.1,6.4 -7.6,8.8 1.3,1.8 3.7,2 5.1,3.7 1.5,1.8 2.5,3.5 2,6.1 -1.7,-0.8 -2.5,-2.3 -3.5,-3.7 -0.3,-0.4 -0.6,-1.5 -1.6,-0.8 -1,0.7 0,1.1 0.3,1.6 1.6,2.9 4,4.9 7,6.4 -4.3,1.2 -6.9,-1.6 -10.2,-3.3 3.4,3.8 3,8.7 4.6,13 -3.3,-0.4 -2.9,-4.8 -6.3,-5.9 0.6,3 5.7,5.4 0.4,8 -1.4,-0.6 -1.6,-2.4 -2.9,-3.5 -1.2,3.3 1.7,4.1 2.9,5.9 0.5,0.8 2.4,1 1.3,2.4 -0.9,1.1 -2.1,0.8 -3.2,0.1 -1.2,-0.7 -2.5,-1.2 -4.2,-1.5 2.6,2.9 3.1,6.3 3.2,10 -1.3,-3.9 -4.8,-6.4 -5.6,-11.4 -0.8,4.4 -0.8,4.4 1.9,8.4 0.6,0.9 1.3,1.7 1.2,2.9 -0.1,0.9 -0.2,1.7 -1,2.2 -1.4,0.7 -1.2,-0.7 -1.6,-1.3 -1.7,-2.1 -3.6,-3.1 -6.2,-1.5 -0.7,0.4 -1.6,1.4 -2.5,0.1 -0.7,-0.9 -0.4,-1.6 0.1,-2.6 0.4,-0.9 1,-1.6 1.7,-2.3 1.7,-1.6 2.5,-3.4 1.8,-6.8 -1.2,5.5 -6.4,6 -8.8,9.4 -1.2,1.7 -2.2,-2.3 -3.3,-0.1 -0.7,1.5 1.9,1.9 1.2,3.4 -0.4,0.8 -1.2,1 -2.2,1 -1.3,0 -2.2,-0.9 -2.5,-1.8 -1,-3.9 -1,-3.9 -4.6,-5.2 1.8,-0.5 3.5,-0.9 5.2,-1.5 4.7,-1.7 7.4,-5.1 8.4,-9.9 0.9,-4.2 2.5,-8 4.4,-11.8 0.3,-0.5 1.3,-1.2 0.4,-2.1 -0.9,-0.9 -1.4,-0.2 -2.1,0.3 -1.6,1.3 -1.4,-0.9 -2.3,-1.2 1.2,-1 3.2,-0.9 3.7,-3.5 -3.3,1.4 -6.1,2.6 -9.3,0.4 -1.2,-0.8 -1.4,-1.1 -1.2,-2.6 0.6,-3.8 -2.3,-6.9 -6.2,-7 1.2,1.5 3.8,2.1 3.3,4.4 -0.3,1.5 -1.9,2.2 -3.3,2.6 -2.4,0.6 -4.1,-0.7 -5.4,-2.6 -0.6,-0.9 -0.6,-2.4 -2.1,-2.9 -0.5,3 1,5.2 3.2,6.5 3.3,2 6.3,0.5 9.3,-2.7 -0.8,4.2 -3.5,5.9 -6.3,6.2 -4.6,0.5 -7.1,-3.1 -9.9,-6.5 -0.3,5.4 6.6,9.4 2.4,15 -0.4,-6.5 -6.2,-11.5 -4.4,-19.4 -8.2,9 -9.5,9.6 -12.5,5.9 3,0.3 5.4,-0.5 7.5,-2.8 2.4,-2.7 2.8,-6.7 0.4,-9.3 -3.7,-3.9 -7.4,-7.7 -10.3,-12.4 -3.1,-4.9 -9.2,-5.3 -14,-7.7 -4.6,-2.3 -9.7,-1.3 -14.7,-1.5 1.7,1.3 1.7,1.3 9.5,1.6 -7.7,2.7 -14.1,6.4 -20.7,9.7 -7.9,4 -15.4,8.7 -23.3,12.6 -4.2,2.1 -8.6,5.1 -13.8,2.4 -0.9,-0.4 -1.9,0 -2.6,1.1 1.4,0.6 2.7,1.2 4.1,1.8 -2,2.8 -3.7,0.3 -5.4,-0.2 -0.5,-0.1 -1,-0.9 -1.5,-0.3 -0.3,0.3 -0.3,1 -0.2,1.4 0.6,2 1.4,4 2,6 1.1,3.6 3.6,5.1 7.4,4.9 -4.4,3.9 -9.3,2.2 -12.7,-4.1 -0.8,5.1 -0.6,5.7 3.1,10.6 -4.1,-0.7 -6.1,-4 -9.4,-6.8 1.4,6.3 -6.5,9.9 -2.4,17 -6.2,-3.7 -5.5,-8.6 -5,-13.6 -2,5 -4.6,9.3 -8.7,12.6 -2.9,2.4 -3.3,3.1 -2.5,6.7 -6.6,-2.3 -6.8,-3.4 -2.2,-12 -4.1,3.8 -7.6,6.9 -11.1,10.1 -1.6,1.5 -0.7,3.2 -0.6,4.9 -5.2,-1.1 -2.8,-4.2 -1.4,-7.5 -3.1,2.2 -4.9,4.7 -6.4,7.3 -1.9,-0.5 -0.9,-2.2 -1.5,-3.4 -1.7,1.7 -2.7,4.3 -5.2,5.1 -1,-1.6 0.2,-2.3 0.9,-3.3 0.4,-0.5 0.4,-1.3 -0.1,-1.7 -0.8,-0.6 -1.4,0.1 -1.7,0.7 -0.7,1.7 -2,3.2 -1.7,5.3 0.2,1.3 0,2.6 0,4.2 -3.9,-1.7 -4.4,-4.2 -2.8,-7.6 -2.4,0.3 -3.8,4.3 -6.6,1.2 -0.3,-0.3 -1.9,1.9 -1.5,3.5 0.2,0.9 1.1,1.6 1.3,2.5 0.2,1.2 0.6,2.9 -0.9,3.6 -1.7,0.8 -1.4,-1.2 -2,-1.8 -1.7,-1.6 -3.2,-2.3 -5.4,-1 -0.8,0.5 -2.1,1.7 -3,-0.1 -0.9,-1.7 0.4,-2.7 1.5,-3.2 2.2,-0.9 3.8,-2.5 5.4,-4.1 0.7,-0.7 1.5,-1.7 0.6,-2.5 -0.9,-0.9 -1.5,0.4 -2,0.9 -2,2.4 -4.4,3.8 -7.6,4.1 -2.1,0.2 -4,1.5 -4.7,3.8 -0.3,1.2 -1,2.1 -2.3,1.8 -1.1,-0.3 -1.6,-1.6 -1.5,-2.5 0.4,-2.6 -1,-4.1 -2.7,-5.5 -1,-0.9 -1.3,-1.8 -0.6,-3.1 0.7,-1.3 1.8,-2.1 2.7,-1.7 5.9,2.3 9.9,-1.2 13.5,-4.8 5.9,-6 12.8,-10.9 19.4,-15.9 3.5,-2.7 8.1,-4.1 11.5,-8.8 -0.1,3.7 -1.4,5.6 -3.2,7.1 4.5,0.4 9,-4.2 9.2,-9.5 6.3,6 10.6,12.1 4.6,16.2 3.4,0.3 7.6,-3 8.5,-6.7 0.1,-0.6 0.2,-1.2 0.3,-1.7 0.7,-3 1.6,-4 5.5,-3.4 4.9,0.7 10.2,2.5 15.5,-0.2 2.6,-1.4 4.2,-2.9 4.4,-5.9 0.1,-1.2 -0.3,-2.8 0.3,-3.5 1.3,-1.4 1.3,-3.9 2.9,-4.3 1.5,-0.4 2.2,2 3.3,3 3.6,3.1 9.6,2.4 13,-1.6 -1.1,-0.6 -1.8,0.6 -2.9,0.6 -3,-0.2 -3.9,-1.2 -3.6,-4.3 0.3,-2.8 0.1,-5.6 0.1,-8.8 4.8,1.9 9.2,2.2 12.4,-3 -2.2,-0.1 -4.2,2.3 -6.4,0.6 -0.7,-0.6 -1.8,-0.7 -2.4,-1.4 -0.9,-0.9 -2.6,-1.6 -1.9,-3.2 0.5,-1.2 1.9,-0.5 2.9,-0.6 5.5,0 9.2,-4.8 8.5,-10.5 z"
   class="st0" />
		<path
   id="path22742"
   d="m 79,161.8 c -2.8,0.8 -3.5,2.4 -4.7,3.3 -4.9,3.5 -10.1,5.7 -16.2,3.6 -2,-0.7 -3.6,-2 -3,-5.2 1.1,3.5 3,4.9 6.2,4.6 3,-0.3 5.5,-1.4 7,-3.8 1.9,-3 4.9,-5 6.7,-8 0.9,-1.5 2.9,0 4.1,-1.4 -1.4,-1.5 -3.1,-0.8 -4.6,-0.8 -2.6,0 -4.6,-1.1 -6.5,-2.6 -0.8,-0.6 -1.2,-1.3 -0.2,-2.1 1.3,-1 0.8,0.6 1.2,0.9 3.2,2.8 8.6,2.7 12,-0.2 1.7,-1.5 3.5,-2.9 5.3,-4.2 4.2,-2.8 8.6,-3.1 13.6,-1.4 4.3,1.5 8.9,1.4 13.4,1.3 2.6,0 5,-1.4 6.2,-4.1 3.6,3.2 5.9,3 9,-0.7 -1.8,-0.3 -4.3,-1 -3.9,-2.7 0.6,-2.4 2.6,-4.4 0.8,-7 1.4,-0.7 2.8,-1.3 4.1,-2.1 5,-2.7 8.3,-8.1 7.9,-12.7 -0.3,-3.3 -2.8,-4.5 -5.2,-4.9 -2,-0.3 -4.9,-1.6 -6.5,1.8 5.5,-1.3 9.1,0 10.1,3.5 0.6,2 -1.9,7.4 -4,9.1 -3.5,2.8 -7.2,4.9 -12.4,1.4 1.3,2.7 3.8,2.7 4.2,4.8 0.2,0.9 1.5,1.6 0.7,2.6 -0.9,1.1 -2,0.2 -3,-0.5 0.8,2.9 1.5,5.7 4.1,7.6 -3.4,1.5 -4.5,-1.7 -6.8,-3.3 -0.1,3.1 -2.1,4.5 -4.6,5.5 -0.7,0.3 -1.5,0.6 -2,0.1 -0.6,-0.8 0.3,-1.2 0.7,-1.8 0.5,-0.6 1.5,-0.9 1,-2.3 -1.7,0.2 -2,2.3 -3.5,2.8 -1.2,0.4 -2,2.3 -3.5,0.8 -1.3,-1.2 1.1,-2 0.6,-3.3 -1.6,0.1 -2.6,1.2 -3.6,2.3 -0.8,0.9 -1.7,1.5 -2.8,0.7 -1.3,-1 0.1,-1.8 0.4,-2.6 0.3,-0.9 0.7,-1.7 1.4,-3.1 -2.5,1.5 -3.6,3.4 -4.4,5.7 -0.9,-2.1 -0.9,-2.1 2,-5.6 -3.1,0.7 -4.1,5.3 -7.9,3.4 0.3,-0.3 0.6,-0.7 0.8,-1.1 0.5,-1 3,-1.6 1.4,-3 -1.7,-1.4 -1.5,1.3 -2.3,1.9 -0.8,0.6 -1.6,1.5 -2.5,1 -1,-0.7 -0.1,-1.6 0.1,-2.5 0.4,-1.2 1.3,-1.6 2.1,-2.2 -2.9,-0.9 -5.6,-2 -7.4,-5.3 3.8,-0.2 6.9,0.9 9.9,2.5 3.1,1.6 6.2,2.9 9.8,2.5 3.1,-0.4 5.3,-2.4 5.4,-5.5 0.2,-6.2 -1.9,-11.2 -8.9,-13.2 -4.5,-1.3 -8.5,-3.3 -11.9,-6.7 -2.4,-2.4 -2.6,-5.7 -1.6,-8 0.7,-1.6 3.3,-3.6 6.6,-3.1 -1.1,-0.7 -1.6,-1.2 -2.3,-1.4 -0.7,-0.2 -1.1,-0.6 -0.8,-1.2 0.1,-0.3 0.9,-0.4 1.3,-0.3 5.6,1.5 11.3,0.5 17,0.6 5.2,0.1 10.1,1.2 14.7,3.5 2.4,1.2 4.8,1.9 7.5,1.7 1.1,-0.1 1.7,-0.7 2.5,-1.1 0.5,-0.3 0,-2.2 1.4,-0.9 1.1,1 0.6,1.8 -0.3,2.7 -0.7,0.7 -1.4,0.7 -2.3,0.8 -1,0.1 -2.3,-0.5 -3,1.1 2.8,1.1 4.8,3.5 6.8,5.7 2,2.2 4.1,3.2 6.8,0.7 -1.2,2.6 -2.6,4.6 -5.9,2.8 2.9,2.3 2.7,5.7 3.7,8.5 1.2,3.4 2.8,6.4 7.2,6.2 -2.2,2.5 -4.2,0.5 -6.4,0.2 -0.4,2.9 3.3,5 1.5,9.1 -0.8,-1.5 -1.4,-2.7 -2,-3.9 -0.3,0.2 -0.6,0.5 -0.9,0.7 1.1,4.2 3.2,8.3 3.5,13.4 -2.2,-2 -3.6,-3.9 -4.6,-6.1 -2.5,3.5 -1.4,10.4 2.3,14.9 -4.2,-0.3 -6.1,-2.7 -6.5,-8.1 -1.7,2.3 -1.9,3 -0.5,5.3 2.9,4.9 5.5,10.6 13,9.4 -2.8,3.7 -2.8,3.7 -11.1,3.8 1.1,4.2 3.5,6.8 8.1,8.4 -2.7,1.1 -4.6,-0.6 -6.5,-1.7 -1.2,-0.7 -2.2,-1.9 -3.5,-2.3 -0.8,-0.3 -1.3,-2.4 -2.5,-0.9 -1.3,1.7 0.6,1.8 1.5,2.4 2.3,1.6 3.4,5.6 3,10.7 -1.7,-1 -1.4,-2.9 -2.1,-4.3 -0.6,-1.3 -0.8,-3.6 -3.4,-2.7 3.2,4.2 2.7,10.3 7.8,13.6 -7.5,0.6 -8.1,-6.8 -12.5,-10.1 2.3,4.2 0,6.7 -2.7,9.4 -0.5,-1.8 -0.2,-3.3 0.9,-5.3 -3.4,1.8 -3.2,4.6 -2.2,6.4 1.5,3 1.2,5.1 -1,7.3 -1.3,1.3 -2.5,1.2 -4.2,0.5 -3.2,-1.3 -4.9,-3.2 -4.6,-6.7 0,-0.4 0.1,-0.7 0.1,-1.3 1.2,2 1.8,4.3 4.6,4.2 1,0 1.9,-0.6 1.8,-1.4 -0.2,-2.1 -1.2,-3.9 -3.2,-5.7 -0.7,2.6 1.4,3.8 1.4,5.8 -2.8,-1 -2.8,-3.6 -3.5,-5.6 -4.4,3.4 -3.9,6.4 2.2,12.4 -6.7,0.3 -10,-6 -7.2,-13.9 -4.3,1.3 -4,7.8 0.6,13.2 -3.1,0.5 -3.1,0.5 -6.9,-6.1 -0.3,2.1 -0.5,4 1.5,5.7 -2.9,-0.4 -4.9,-1.4 -6,-3.5 -0.9,-1.8 -1.5,-3.8 -2.5,-6.1 -1.5,3.8 0.8,6.2 2,8.9 1.8,3.8 1.1,7.8 -2.6,11.2 0.9,-5.1 -1.4,-8.4 -4.4,-11.7 -3.5,-4 -2.9,-8.8 1.6,-14 -2.3,0.2 -3.4,1.9 -4.2,3.2 -1.9,3 -2.7,6.5 -3.1,10 -0.2,2.2 -0.8,3.6 -2.7,4.8 -1.4,-2.8 0.9,-5.5 0.1,-8.7 -2.1,5.8 -7.4,7.9 -10.9,12 3.5,-7 3.1,-14.9 6.1,-21.8 -3.7,3.7 -3.9,8.6 -5.2,13.2 -2.1,7.2 -3.3,9.1 -9.4,9.9 2.2,-3.5 7.2,-5.4 5.9,-11.2 -1.2,2.3 -1.9,4.2 -3,5.7 -1.3,1.8 -3.3,2.3 -5.5,1.9 -0.1,-1.2 0.9,-1.6 1.6,-2.1 2.8,-2.2 3.9,-5 3.1,-8.3 -0.6,-2.6 0.1,-4.7 1.8,-7.2 -3.2,1 -4.6,4.9 -8.2,3.6 2.5,-2.6 4.2,-5.7 5.8,-9.4 -3.4,1.3 -5,6 -9.3,4.3 3,-1.8 5,-4.4 6.4,-7.5 1.5,-3.4 4.3,-5 7.6,-6.1 3.9,-1.5 7.2,-3.5 10,-7.9 z"
   class="st0" />
		<path
   id="path22744"
   d="m 190.3,235 c -3,-2.8 -4,-5.6 -3.7,-9.2 -2.1,1.4 -2.2,4 -4,5.2 -0.9,0.6 -1.8,1.6 -2.7,0.9 -1.3,-1.1 0.8,-1.3 0.8,-2.2 0,-0.9 1.2,-1.6 0.6,-2.6 -4.5,3 -6.8,6.9 -6.1,10.6 -3.9,-1.5 -3.7,-4 -1.8,-7.4 -2.6,5.6 -7.2,3.7 -11.3,3.7 -0.1,-1.4 1,-2.3 1.7,-3.3 -3.6,1.2 -4.2,2.6 -2.9,6 0.4,1 1.1,1.9 0.8,3.1 -0.2,0.8 -0.6,1.4 -1.3,1.6 -1.1,0.3 -0.9,-0.9 -1.3,-1.4 -1.7,-2.1 -3.6,-3.1 -6.2,-1.5 -0.9,0.6 -1.9,1.3 -2.7,-0.1 -0.8,-1.5 0.2,-2.6 1.2,-3 2.9,-1.2 5.2,-3.3 7.7,-5 0.2,-0.2 0.3,-0.6 0.7,-1.7 -3.3,1.7 -6,3.2 -8.7,4.5 -2.3,1.1 -5,3.6 -6.5,-1.1 0,-0.1 -0.4,-0.2 -0.6,-0.2 -0.1,0 -0.2,0.1 -0.3,0.1 -0.8,0.8 0.4,1.2 0.4,1.9 0.1,1.1 0.2,2.3 -1,2.9 -1.4,0.7 -2.1,-0.6 -3,-1.3 -1.6,-1.2 0,-1.6 0.4,-2.2 1,-1.6 0.8,-3.3 0.3,-5 3.2,-0.6 6.2,0.1 9.4,-0.8 4.3,-1.1 6.9,-4.1 9.8,-6.8 5.1,-4.7 10.5,-8.8 17.6,-10.1 0.8,-0.2 1.5,-0.6 1.6,-1.3 0.1,-1.2 -0.9,-0.8 -1.5,-0.9 -0.2,0 -0.5,0.1 -0.7,0 -2.1,-0.7 -4.1,-1.5 -6,-2.7 -3,-2 -0.4,-3.9 -0.4,-6.2 -3.3,2.6 -4.8,6.4 -8.3,8.3 1.4,-5.1 5.2,-8.4 8.4,-12.2 -2.3,0.4 -3.7,2 -5.4,3.2 -2.2,1.6 -6.1,1 -8.4,-1.5 -2,-2.3 -0.8,-4.3 1,-6.5 0.4,2.3 -0.5,5.1 2.2,5.9 2.9,0.9 5.5,-0.3 7.4,-2.4 3.4,-3.7 6.4,-7.8 11.2,-9.6 4.8,-1.8 9.1,-4 12.4,-8.1 0.4,-0.5 1,-1.2 1.8,-0.9 3.7,1.1 8,-0.2 11.4,2.2 3.3,2.3 5,5.5 5.8,9.5 0.3,1.4 0.4,3.1 1.9,4.2 -2.8,-0.6 -3,-3.7 -5.5,-4.8 1.2,3.5 -1.3,5.8 -2.6,8.3 -1.9,3.8 -3.5,7.2 1.5,10.5 -2.9,0 -4.5,-0.6 -5.3,-3.2 -0.2,3.3 3.2,7.4 6.7,8.6 0.4,1.5 -2.7,0.6 -1.7,2.4 1.5,2.6 6.3,4.7 8.9,4.1 -3.7,3.6 -9.8,2.6 -12.5,-2.1 -0.5,3.2 0.5,7.8 2.5,10.6 -4.6,-0.9 -4.9,-4.7 -6.4,-8.1 0.1,4.7 -1.8,8.3 -5.7,10.8 -1.1,-2.1 2.1,-3.5 0.8,-5.7 -3,3.2 -3.8,7 -2.4,12 z"
   class="st0" />
		<path
   id="path22746"
   d="m 33.1,137.5 c 1.6,0.3 2,2.7 4.3,2.7 -0.4,-2.6 -3.4,-3.1 -3.6,-5.3 -0.2,-2.7 3.4,-1.8 4.1,-3.9 -1.9,-0.7 -3.4,0.4 -5,1 -1.9,0.7 -3.3,0 -4.5,-1.2 -0.4,-0.4 -2.4,-1.7 0.5,-2.4 2.1,-0.5 2.8,-2.9 1.3,-5.1 -0.5,-0.7 -2,-0.7 -0.5,-2.1 1.3,-1.2 2,-0.4 2.6,0.5 2.3,3.1 5.9,3.9 9.6,5.7 -0.6,-2.6 -2.9,-3.5 -3.1,-5.6 -0.1,-1.3 -3,-2.5 -0.1,-3.9 0.2,-0.1 0.1,-0.9 -0.5,-1 -2.1,-0.4 -2,-1.2 -0.9,-2.9 0.7,-1.1 -0.4,-1.6 -1.6,-1.5 -1.3,0.1 -2.7,0 -2.6,-1.7 0.1,-1.2 1.5,-1.4 2.7,-1.2 2.2,0.4 4.1,0.6 5.9,-1.5 1.2,-1.4 1.3,0.6 1.6,1.6 0.5,2.1 -2,4.3 0.3,6.2 1.4,-1.2 0.1,-5.8 4.4,-3.3 1.2,-1 -0.2,-1.8 -0.5,-2.4 -0.6,-1.2 0.2,-1.4 0.7,-2 0.8,-1 1.3,-0.1 1.6,0.4 1.3,1.8 3.1,2.1 5,2 0.1,0.4 0.2,0.8 0.1,0.8 -5.6,5.2 -5.4,11.3 -2.8,17.7 3.7,9.2 6,18.8 9.5,28 0.8,2.2 1.6,4.4 2.4,6.7 0.3,-0.4 0.5,-0.5 0.5,-0.7 0.1,-1.2 -0.5,-2.5 -0.5,-3.4 0.1,-1.6 1.6,-0.9 2.8,-0.6 1.1,0.3 2.2,0.4 3.8,0.7 -2.9,2.1 -3.8,5.5 -7.3,6.5 -1.9,0.5 -3.7,1 -5.3,-0.5 -0.9,-0.9 -0.9,-1.7 -0.3,-2.9 0.3,-0.6 2.2,0 1.1,-1.4 -0.8,-1 -2.1,-0.9 -3,-0.3 -1.3,1 -2.5,2.1 -2.4,4.2 0.1,2.7 1.9,4 3.7,4.9 1.4,0.7 3,1.7 5.1,0.4 -1.4,2.7 -2.4,5 -3.7,7.1 -0.6,1 -1.8,1.7 -2.3,2.8 -0.8,1.5 -4.8,0.7 -3.1,3.6 1.2,2.1 3.9,0.9 6.9,0.5 -2.1,1.8 -2.6,4.8 -5.9,1.9 0.2,3.5 2.5,3.7 4.8,3.7 4.8,0.1 5.9,1.8 4.1,6.4 -0.7,1.8 -2.4,2.6 -3.5,4.1 -1.6,2.1 -3.1,0.3 -4.6,0 -4.4,-0.9 -9,-2.7 -12.7,1.9 -0.2,-5 3.1,-7.2 12.5,-8.3 -4.1,-2.4 -8.5,-0.8 -13,-0.4 1.2,-3.9 3.5,-5.5 7.4,-5.1 -1.7,-3.1 -6.1,-4.7 -4.8,-9.2 1.7,0.6 3.5,1.3 5.6,2 -3.2,-4.3 -8.7,-5.9 -12.9,-4.2 1.5,-4.4 2.7,-5 8.5,-4.1 -3,-4.7 -6.3,-8.8 -12.7,-9 2.7,-4.3 6.3,-2 10.5,-1.9 -3.3,-2.5 -8.3,-2.1 -7.8,-7.3 1.2,0.9 2.3,1.9 4.1,1.1 -2.5,-1.6 -4.6,-3.5 -7.5,-4.1 -0.4,-0.1 -1,0.1 -1.1,-0.6 -0.1,-0.7 0.5,-1.1 1,-1.4 2.8,-2.1 5,-0.1 7.4,1.2 -2.2,-3 -5.1,-5.4 -6.5,-9.4 2.2,0.8 2.9,3.3 5.3,3.7 -0.5,-3.9 -6.5,-3.8 -5.1,-8.2 z"
   class="st0" />
		<path
   id="path22748"
   d="m 74.5,109.5 c 0.4,6.4 4.7,9.9 12.4,10.3 0.4,0 0.7,0 1.1,0 1.4,0.1 3.6,-0.4 3.3,1.6 -0.2,1.5 -1.9,3.4 -4.1,2.8 -4.6,-1.3 -9.3,-2.4 -12.8,-6.3 -2.7,-3.2 -2.8,-4.6 0.1,-8.4 z"
   class="st0" />
		<path
   id="path22750"
   d="m 231.4,232.2 c 1.9,-1.8 2.2,-3.6 2.1,-5.5 -0.1,-1.9 1,-2.9 2.7,-1.9 3.2,1.9 6.5,2.6 10.7,0.5 -2.7,3 -11.6,7 -15.5,6.9 z"
   class="st0" />
		<path
   id="path22752"
   d="m 106.8,128.8 c 0,0.8 0.2,1.8 -0.7,2.3 -0.9,0.4 -1.6,-0.2 -2.1,-0.7 -1.9,-1.8 -4,-3.4 -6.5,-4.2 -2.3,-0.7 -1.3,-2 -0.9,-3.2 0.7,-2 1.7,-0.8 2.7,-0.3 1.7,0.8 3.5,1.4 5,2.5 1.2,0.7 2.8,1.6 2.5,3.6 z"
   class="st0" />
		<path
   id="path22754"
   d="m 30,246.3 c -4.5,-2.3 -4.8,-5.6 -0.9,-9.5 0.9,-0.9 1.3,-3.6 4,-1.8 2.2,1.5 1.6,2.2 0,3.3 -4.1,2.6 -4.5,3.5 -3.1,8 z"
   class="st0" />
		<path
   id="path22756"
   d="m 201.8,173.9 c -4.7,0 -9.2,0 -13.6,0 -1.1,0 -2.8,0.1 -2.7,-1 0,-1.4 1.8,-1.9 3.1,-1.9 4.4,0 9.1,-1 13.2,2.9 z"
   class="st0" />
		<path
   id="path22758"
   d="m 26.5,105.4 c 1.2,-2.5 2.9,-4.2 5.9,-4 3.4,0.2 5.6,2.3 7.6,4.7 0.4,0.5 0.5,1.4 -0.3,1.9 -0.8,0.5 -1.5,0.5 -2.5,0.1 -1.3,-0.5 -1.3,-1.9 -2.2,-2.7 -2.4,-2.5 -5.3,-2.4 -8.5,0 z"
   class="st0" />
		<path
   id="path22760"
   d="m 239.1,245.1 c -3.3,-0.7 -4.7,-2.1 -4.9,-4.3 -0.3,-2.5 1.7,-4 3,-5.8 0.8,-1.1 1.4,0.2 2,0.7 1.3,1 0.7,1.8 -0.3,2.6 -2.2,1.8 -2.9,3.9 0.2,6.8 z"
   class="st0" />
		<path
   id="path22762"
   d="m 47.3,101.6 c 2.3,-2.8 4.4,-1.6 5.6,-0.2 1.4,1.8 3.1,4.1 1.5,6.7 -0.3,0.6 -1.1,0.8 -1.6,0.5 -1.2,-0.7 -1.6,-1.9 -1.5,-3.2 0.1,-2.4 0.1,-4.8 -4,-3.8 z"
   class="st0" />
		<path
   id="path22764"
   d="m 132.9,240.2 c -2,-3.4 1.1,-10.4 4.9,-11.3 1.5,-0.4 1.1,0.9 1.6,1.4 1,1.1 -0.1,1.2 -0.8,1.6 -5.6,3.1 -5,2.9 -5.7,8.3 z"
   class="st0" />
		<path
   id="path22766"
   d="m 43.8,225.4 c -2.4,3.1 -5.2,1.7 -7.9,1.2 -1.5,-0.3 -0.7,-1.5 -0.8,-2.4 -0.2,-1.3 0.7,-1.3 1.6,-1.3 2.6,0.2 4.7,1.7 7.1,2.5 z"
   class="st0" />
		<path
   id="path22768"
   d="m 144.6,226.4 c -2.9,0.6 -5,0.2 -5.2,-2.2 -0.2,-1.4 1.8,-1.9 2.9,-1.9 2.3,0 4.5,1.8 5,3.3 0.4,1.4 -2.3,0.6 -2.7,0.8 z"
   class="st0" />
		<path
   id="path22770"
   d="m 25.7,232.7 c 2.2,-2.9 3.6,-6.5 7.9,-7.7 -0.1,5.3 -4.9,5.7 -7.9,7.7 z"
   class="st0" />
		<path
   id="path22772"
   d="m 259.4,246.4 c -2.9,-0.2 -4,-1.2 -4,-3.2 -0.1,-2.1 0.9,-3.7 2.5,-4.8 0.6,-0.4 1.3,-0.3 2,0.3 1,0.9 0,1.2 -0.4,1.6 -1.6,1.8 -3,3.6 -0.1,6.1 z"
   class="st0" />
		<path
   id="path22774"
   d="m 156.3,247.2 c -3,-0.2 -4.1,-1.2 -4.1,-3.2 -0.1,-2.1 0.9,-3.7 2.6,-4.8 0.6,-0.4 1.3,-0.3 2,0.3 1,0.9 -0.1,1.2 -0.4,1.6 -1.7,1.8 -3.2,3.5 -0.1,6.1 z"
   class="st0" />
		<path
   id="path22776"
   d="m 53,249.2 c -2.7,0 -3.8,-1 -3.9,-2.9 -0.2,-2.2 0.9,-3.9 2.7,-5 0.5,-0.3 1.4,-0.2 1.9,0.6 0.7,1 -0.4,1.1 -0.7,1.6 -1.4,1.7 -2.9,3.4 0,5.7 z"
   class="st0" />
		<path
   id="path22778"
   d="m 21.4,128.3 c 1,-2.4 2.5,-3.8 4.9,-4.6 1.4,-0.5 2,0.4 2.8,0.8 0.4,0.2 0.3,1.1 -0.1,1.6 -0.7,1.1 -1.4,0.7 -2.4,0.3 -2,-0.7 -3.7,0.4 -5.2,1.9 z"
   class="st0" />
		<path
   id="path22780"
   d="m 224.1,234.9 c 0.7,-4.5 4.1,-6.4 8,-8.3 -0.3,2 -0.1,3.5 -2.6,3.7 -2.9,0.2 -4.2,2.4 -5.4,4.6 z"
   class="st0" />
		<path
   id="path22782"
   d="m 91.2,114.6 c 4.4,1.8 3.1,5.6 3.8,8.5 -2.1,-2.3 -3.2,-5.1 -3.8,-8.5 z"
   class="st0" />
		<path
   id="path22784"
   d="m 100.6,129.8 c -6.8,0.5 -6.8,0.5 -6.8,-3.1 2.3,0.4 4.3,1.3 6.8,3.1 z"
   class="st0" />
		<path
   id="path22786"
   d="m 102.8,121.9 c -2.2,-1.8 -6.3,-0.7 -7.2,-5.1 3,1.4 5.8,2.2 7.2,5.1 z"
   class="st0" />
		<path
   id="path22788"
   d="m 131.5,228.4 c 1.4,-2.3 3.6,-2.3 4.9,-3.8 0.6,-0.7 1.3,0.2 1.7,0.7 0.6,0.9 -0.1,1.1 -0.9,1.3 -1.8,0.4 -3.5,1.1 -5.7,1.8 z"
   class="st0" />
		<path
   id="path22790"
   d="m 91.9,123.7 c 0,1.6 1,3.4 -0.3,4.8 -0.3,0.3 -1.4,0.3 -1.5,-0.4 -0.4,-1.8 0.5,-3.2 1.8,-4.4 z"
   class="st0" />
		<path
   id="path22792"
   d="m 97.8,228.5 c -4.7,-6 3.1,-7.3 4.2,-11.6 0.2,2.1 0.1,2.1 -1.3,3.7 -1.9,2.3 -4.5,4.4 -2.9,7.9 z"
   class="st1" />
		<path
   id="path22794"
   d="m 118.9,111 c -3.5,-0.8 -7.1,-1.5 -10.6,-2.3 -0.7,-0.2 -1.8,-1 -1.8,-1.5 -0.2,-2.6 -2.3,-3.7 -4.6,-5.2 2.4,-0.5 4.2,-0.8 6,-1.2 3.9,-0.8 5.9,1.4 6.8,4.6 0.6,2.5 1.7,4.4 4.2,5.6 z"
   class="st1" />
		<path
   id="path22796"
   d="m 110.7,138.3 c 0.2,-0.6 -3,-1.2 0.1,-2 1.2,-0.3 4.9,-1.2 2.6,-4.5 3.8,-1.8 -1.5,-5.2 1.2,-7.3 0.1,-0.1 -0.2,-1.1 -0.6,-1.5 -0.7,-0.7 -2.2,0 -2.4,-1.2 -0.2,-1.2 1.4,-0.1 1.7,-1 0.2,-0.8 -0.4,-0.8 -0.9,-1.2 -2.6,-1.6 -4.3,-4.5 -7.8,-4.8 0.6,-1.2 1.2,-1 1.7,-0.9 3.1,0.3 4.7,3.1 7.1,4.5 3,1.7 2.7,4.5 2.4,7.7 -0.1,1.6 -0.1,3.6 0,5.2 0.4,4.4 -2.2,5.6 -5.3,7 z"
   class="st1" />
		<path
   id="path22798"
   d="m 125.6,126.9 c 3.4,-2.1 4.2,-5.7 2.1,-8.4 -0.6,-0.8 -1.6,-1.3 -0.8,-2.1 1,-1 2.5,-1.2 4,-1.1 1.1,0 1.9,0.3 2.3,1.4 0.9,2.5 -2.9,9.7 -5.5,10.3 -0.5,0.1 -1,0 -2.1,-0.1 z"
   class="st1" />
		<path
   id="path22800"
   d="m 96.3,101.2 c 4.4,0.5 8.1,-3.1 12.5,-2.4 -4.3,0.8 -8,4.1 -12.5,2.4 z"
   class="st1" />
		<path
   id="path22802"
   d="m 102.8,104.4 c 0.3,0.7 1.7,0.3 1.8,1.3 0.1,0.9 -0.7,0.8 -1.2,0.8 -0.9,-0.1 -1.5,-0.6 -1.6,-1.5 0,-0.6 0.5,-0.7 1,-0.6 z"
   class="st1" />
		<path
   id="path22804"
   d="m 110.6,138.2 c -1,1.7 -2.5,1.5 -4.6,1.1 1.9,-0.6 3.1,-1.8 4.6,-1.1 0.1,0.1 0,0 0,0 z"
   class="st1" />
		<path
   id="path22806"
   d="m 124.3,127.1 c -0.4,-0.2 -1.1,0.2 -1,-0.5 0,-0.3 0.5,-0.8 0.9,-0.9 0.5,-0.2 0.9,0 0.9,0.6 0.1,0.7 -0.5,0.6 -0.8,0.8 z"
   class="st1" />
		<path
   id="path22808"
   d="m 44.5,114.9 c 1.5,1.8 3.4,2.3 2.9,4.7 -1.7,-0.9 -2.4,-2.2 -2.9,-4.7 z"
   class="st1" />
		<path
   id="path22810"
   d="m 110.5,102.4 c -1.8,1.6 -2.1,3.1 -0.1,4.8 -1.8,-0.2 -2.8,-1 -2.8,-2.9 0,-1.8 0.9,-2.4 2.9,-1.9 z"
   class="st0" />
	</g>
</g>
</svg>
