<?xml version="1.0" encoding="UTF-8" standalone="no"?>
<svg
   xmlns:dc="http://purl.org/dc/elements/1.1/"
   xmlns:cc="http://creativecommons.org/ns#"
   xmlns:rdf="http://www.w3.org/1999/02/22-rdf-syntax-ns#"
   xmlns:svg="http://www.w3.org/2000/svg"
   xmlns="http://www.w3.org/2000/svg"
   xmlns:sodipodi="http://sodipodi.sourceforge.net/DTD/sodipodi-0.dtd"
   xmlns:inkscape="http://www.inkscape.org/namespaces/inkscape"
   inkscape:version="1.0 (4035a4f, 2020-05-01)"
   height="205.61925"
   width="133.42429"
   sodipodi:docname="owl.svg"
   xml:space="preserve"
   viewBox="0 0 133.42429 205.61925"
   y="0px"
   x="0px"
   id="Layer_1"
   version="1.1"><metadata
   id="metadata25113"><rdf:RDF><cc:Work
       rdf:about=""><dc:format>image/svg+xml</dc:format><dc:type
         rdf:resource="http://purl.org/dc/dcmitype/StillImage" /><dc:title></dc:title></cc:Work></rdf:RDF></metadata><defs
   id="defs25111" /><sodipodi:namedview
   inkscape:current-layer="Layer_1"
   inkscape:window-maximized="0"
   inkscape:window-y="25"
   inkscape:window-x="0"
   inkscape:cy="137"
   inkscape:cx="65.553118"
   inkscape:zoom="2.52"
   fit-margin-bottom="0"
   fit-margin-right="0"
   fit-margin-left="0"
   fit-margin-top="0"
   showgrid="false"
   id="namedview25109"
   inkscape:window-height="480"
   inkscape:window-width="820"
   inkscape:pageshadow="2"
   inkscape:pageopacity="0"
   guidetolerance="10"
   gridtolerance="10"
   objecttolerance="10"
   borderopacity="1"
   bordercolor="#666666"
   pagecolor="#ffffff" />
<style
   id="style24936"
   type="text/css">
  .st0{fill:#FFFFFF;}
  .st1{fill:#000000;}
</style>
<g
   transform="translate(-84.446882,-63)"
   id="g25106">
	<g
   id="g25104">
		<path
   id="path24938"
   d="m 204.1,245.6 c 0.5,3.8 0.9,7.5 1,11.3 0.1,3.7 -2.2,5.4 -4.8,5.9 -2.6,0.5 -5.7,-0.5 -7.1,-3.2 -5.5,-10.8 -12.6,-20.5 -20.1,-30 -2.3,-2.9 -6.3,-3.3 -8.4,-6.4 -1.1,1 -0.7,2 -0.7,2.9 -0.1,7.5 0,7.4 7.4,6.9 3.8,-0.3 5.5,3.1 7.1,5.4 1.8,2.5 3,5.7 2.1,9.4 -0.6,-0.5 -1.3,-0.7 -1.6,-1.2 -3.6,-6.6 -9.6,-3.4 -14.8,-3.6 -1.5,-0.1 -1.2,1.1 -1.4,2.1 -0.9,4.5 0,9.4 -4.3,13 -1.7,1.4 -0.6,3.9 0.3,5.9 0.4,0.9 2.1,2 0.4,2.9 -1.3,0.7 -2.7,-0.2 -3.3,-1.5 -1.3,-2.7 -3.3,-5.1 -4.2,-8.1 -0.6,-1.9 -0.6,-5 -3.4,-5.2 -2.5,-0.1 -4,2.5 -5.1,4.3 -1.7,2.7 -2.5,6 -2.3,9.3 0,1.3 -0.1,2.7 -1.3,2.9 -1.3,0.2 -1.4,-1.2 -1.8,-2.3 -2,-6.2 -3.9,-12.4 1.7,-18.2 -5.8,3.7 -13.5,3.7 -18,11.5 -1.2,-7.2 -1.6,-12.5 3.5,-17 -2.8,1.8 -5.2,1.4 -7.9,0.5 -2.4,-0.8 -5,-0.1 -6.2,2.6 -0.6,1.3 -1.1,2.7 -2.7,2 -1.4,-0.6 -1.5,-2.1 -1.3,-3.4 0.4,-3.5 2.4,-5.7 5.5,-7.5 2.5,-1.5 5.7,-2.4 7,-5.6 0.6,-1.5 2.5,-1.7 3.5,-1.1 5.6,3.5 7.3,-1.5 9,-4.5 3.5,-6.1 3.5,-13.3 0.7,-19.3 -1.8,-3.8 -6.7,-6.3 -10.3,-9.2 -16.7,-13.8 -30.8,-29.7 -36,-51.4 -2.3,-9.8 -2.6,-20.1 -0.1,-29.8 2.1,-8.4 0.6,-16.3 -0.4,-24.4 -1.6,-13.1 2.4,-25.2 18.5,-27.4 9.7,-1.4 19.4,-1.6 28.9,0.2 7.2,1.3 15.9,7.8 15.6,16.4 -0.6,18 7.2,32.8 16.1,47.4 12.4,20.2 22,41.7 29.1,64.3 3.3,10.3 6.2,21 12.2,30.2 4,6.1 8.1,11.9 10.9,18.7 1.6,4 0.4,7.4 -0.8,10.8 -1.1,3 -4.6,2.8 -6,0.6 -1.6,-2.9 -4.2,-4.7 -6.2,-7.1 z"
   class="st1" />
		<path
   id="path24940"
   d="m 182.9,202.1 c 3.6,7.2 9.2,12.9 14,19.2 4.8,6.3 9.6,12.5 14.1,19 -7.3,-5.7 -15.1,-10.8 -20.7,-18.4 -1,-1.3 -2.5,-4.8 -4.3,-3 -1.7,1.7 2.3,2.7 3,4.5 0.3,0.9 3.7,1.5 0.4,3.1 -0.6,0.3 0.1,2.4 1.9,1.9 1.4,-0.4 0.9,1 1.2,1.5 2.9,5.5 5.8,11 8.5,16.6 0.4,0.8 0.1,1.9 0.1,3.6 -1.9,-3 -1.4,-6.6 -4.8,-8.1 2.1,5.3 4.2,10.4 6.7,16.7 -4.9,-2.3 -2.8,-7.2 -6.1,-9.1 -0.5,2.9 2.4,5.2 1,7.8 -3.3,-5.3 -2.2,-11.9 -5.5,-17.3 -0.8,-1.3 -0.5,-3.9 -2.6,-2.9 -1.8,0.8 -1.1,2.9 0.4,4.2 0.1,0.1 -0.1,0.6 -0.2,1.1 -4.1,-2.4 -5.1,-6.5 -6.2,-10.6 1.4,1.9 2.7,3.7 4.1,5.6 0.4,-1 -0.1,-2 0,-2.7 0.2,-2 -4.1,-4.1 0.2,-6.2 0.4,-0.2 -1.7,-4.8 -3.4,-6.8 -1.6,-1.9 -1.9,0.9 -3,1 -1.1,0.1 -2.4,1.6 -3.3,-0.2 -1,-2 -2.8,-0.5 -4.2,-1.7 0.2,2.6 2.3,3.1 2.8,4.7 -1.4,1 -1.9,-0.5 -2.7,-1.1 -0.9,-0.6 -1.3,-2.6 -3,-1 -0.2,0.2 -2.8,-3.3 -3.1,-3.5 -1.4,-0.8 -0.3,-5.8 -4.3,-2.5 -0.5,0.4 -2.2,-0.7 -3.6,-1.3 -1.7,0.4 3.4,3.6 -0.9,3.2 1.1,1.7 -1.5,3.1 -0.1,5 1.1,1.5 2.4,3.3 -0.8,4.1 -0.2,0 -0.4,1.4 -0.1,1.9 3.7,6.4 1.5,13 0.9,19.6 -0.3,3.6 -3.5,2.1 -4.9,2.5 -2,0.6 -1.3,-2.2 -0.8,-3.2 3,-6.3 0,-13 2.1,-19.4 -2.9,7.7 -2.9,16.9 -11.4,21.6 -1.2,0.7 -2.4,0.6 -3.8,0.1 4,-5.5 11.5,-8.8 10.4,-17.5 -0.4,2.4 -3,2.4 -4,3.9 -2.9,4.6 -3,4.9 -6.6,6.5 -1.9,0.8 -3.8,1.7 -5.8,2.4 -1.2,0.4 -2.6,-0.1 -2.9,-1.3 -0.2,-0.9 0.9,-1.4 1.9,-1.7 5.2,-1.6 9.2,-5.2 13.5,-8.3 5,-3.7 5.1,-9.5 4,-14.8 -0.6,-2.8 -0.3,-5.5 -0.9,-8.6 4,1.4 4.4,5.3 6.9,7.6 -1.5,-5.1 -4.4,-9.6 -5.6,-14.8 0,-1.5 -0.9,-2 -2.2,-2.2 -0.5,0.6 -2,-2 -1.8,0.4 0.2,1.6 4.1,3.1 -0.1,4.5 0.5,1 1.1,1.9 1.6,2.9 -2.6,-1.2 -4.2,-4.2 -2.5,-8.4 1.7,-4.1 -0.9,-6.3 -2.2,-9.2 -0.3,-0.8 -0.5,-1.1 -1.2,-0.5 -0.5,0.5 -0.8,0.8 -0.1,1.5 0.6,0.7 1.1,1.6 1.5,2.4 1,2 0.9,4 -0.9,5.6 -2.5,2.2 -3,-0.9 -4.2,-1.8 -1.2,-0.9 -2.1,-2.3 -3.5,-4 0.3,5.1 5.4,6.2 6.7,10.5 -3.2,-0.4 -4.1,-2.5 -5.5,-4.5 -1.5,-2.1 -3.2,-4 -6.4,-3.7 -2.5,0.2 -5.1,-4.1 -4.8,-7 0.1,-0.9 0.1,-0.9 -3.3,-3.4 -1.2,1.5 0.9,2.6 0.6,4 -5.9,-1.5 -4.9,-7.5 -7,-11.5 -1.9,1.2 1,4.2 -1.4,3.7 -1.4,-0.3 -4,-2 -3.9,-4.8 0,-1.4 1.8,-4.9 -2.2,-2.2 0,0 -0.2,-0.2 -0.2,-0.3 -3.1,-5.6 -11.6,-8.2 -8.6,-17.6 -2.2,1.4 -1.1,2.9 -1.9,3.8 -3.1,-3.6 -4,-7.7 -2.4,-12.3 -1.9,0.2 -2.3,1.1 -2.5,2.9 -2.3,-4.1 -1.6,-8.4 -3.7,-11.8 -0.2,-0.4 -1.4,-2.5 1.3,-2.8 1.2,-0.1 0.1,-1 -0.7,-1.7 -2.6,-2.1 -2.6,-2.5 0.5,-4.3 1.3,-0.7 0.8,-1.6 0.7,-2.3 -0.3,-2.2 -1.1,-0.4 -1.7,-0.1 -2.1,0.9 -1.1,-0.9 -1.2,-1.4 -0.3,-3.9 0.8,-7.3 3.9,-9.9 1.9,-1.3 1.6,-4.3 4.1,-5 2.6,-1.3 4.5,-4.1 8.3,-2.2 0.8,0.4 3.8,-2.2 5.3,-2.5 2.7,-0.4 3.4,-1.8 4.4,-3.8 0,1.6 -0.1,3.1 0,4.7 0,0.9 -0.5,2 0.6,2.7 0.2,0.1 0.8,0.1 0.9,-0.1 0.8,-1.1 0.6,-2.1 -0.3,-3 -0.2,-0.3 0,-0.9 0,-1.6 2.9,1.7 2.9,5.9 6.7,7.1 0.1,-2.9 -3.2,-4.1 -2.7,-6.6 2.1,-0.3 2.1,1.8 2.4,2.7 1.4,4.3 4.8,2.7 7.5,2.6 1.1,0 0,-1 0.1,-1.4 1.6,-4.5 4.7,-5.1 8.1,-1.4 0.4,-1.8 -1.2,-2.8 -1.4,-4.8 4.3,2.1 4.2,-4 7.8,-3.9 -3.4,0.5 -5.8,-3 -9.7,-2.1 1.3,1.1 4,0.8 3.1,2.8 -1.5,3.2 -3.9,-2.6 -5.7,0.8 0,1 1.8,-0.5 2.1,1 -1.4,0.1 -2.7,0.3 -4.3,0.4 1.3,1.6 3.2,0 4.4,1.3 -0.9,0.3 -2,0.4 -2.7,1 -1.4,1.2 -3.8,3 -4.4,2.1 -2.3,-3.4 -9.6,-2 -8.2,-9.6 0.6,-3 2,-7.1 0.1,-10.7 -2.5,0.8 -2.8,3.4 -4,5.2 -1.3,-0.3 0,-1.8 -1.2,-2.3 -0.3,0.8 -0.6,1.6 -1,2.8 -0.6,-2.4 -0.6,-3.7 1.4,-5.2 2.1,-1.6 3.4,-4.3 2.2,-7.4 -0.6,-1.6 0.7,-2.7 1.8,-3.8 1.7,-1.9 1.8,-2.7 1.7,-5.6 -2.4,0.3 -3.2,2.8 -5,3.8 -2.4,-1.9 -4.8,-3.9 -7.3,-5.7 -0.1,-0.1 -1.3,-2.2 -2.5,0.2 -1,2.1 0.6,1.7 1.2,2.1 6.5,4.1 7,5 5.4,13.2 -0.6,-4 -0.9,-7 -3.2,-9.7 -2.2,-2.6 -5.3,-0.5 -7.5,-3.1 -1,-1.1 0.1,2.6 -1,3.7 -1.8,0.1 -1.3,-2.2 -2.2,-2.5 -1.5,-0.4 -0.7,-3.4 -2.6,-2.3 -1.5,0.9 0.7,2.1 0.6,3.2 -0.2,1.7 3.4,2.4 1.3,3.9 -1.7,1.6 -4.1,3.5 -6.7,0.8 3.2,4.5 5.1,9.4 8.3,13.7 2.7,3.6 6,1.7 7.8,0.7 4.2,-2.3 4,0.6 3.7,2.7 -0.4,3.3 1.1,4.5 4.4,4.9 -1.6,1 -3.2,0.5 -3.9,1.9 -3,6.2 -7.5,3.8 -12.4,2.3 1.2,-0.4 1.9,-0.6 2.9,-0.9 -0.4,-0.3 -0.6,-0.5 -0.8,-0.5 C 94.4,105.7 89.8,99.2 91.6,94 91.9,93.1 92.3,92.5 91.1,92.1 89.4,91.6 88,90.2 88,88.8 c 0,-0.6 -0.5,-1.8 1.1,-1.2 2.5,1 1.3,-0.7 0.8,-1.4 -1.5,-2.5 -0.4,-4.9 -0.3,-7.4 0.1,-2.8 4,-0.9 3.3,-3.6 -0.8,-3.1 1.8,-4.3 3.5,-6 1.1,1.6 1.3,3.7 3.9,5.3 -0.9,-2.3 -1.4,-3.7 -2,-5.2 0.5,0 0.7,-0.1 0.8,-0.1 1.7,0.6 1.6,4.9 4,2.8 1.3,-1.1 -2.1,-2.5 -2.8,-4.3 2.6,-1.8 3.9,0.3 5.5,1.7 2.6,2.3 4.9,1.9 7.1,-0.7 -1.8,1.6 -3.6,-2.4 -5.4,0.1 -0.5,-0.4 -1.1,-0.6 -1.4,-1.1 -0.3,-0.6 -0.3,-1.3 0.6,-1.5 2.2,-0.4 4.3,-1.6 6.7,-1.1 6.6,1.4 13.4,-0.2 19.5,2.6 -2.3,0.5 -4.9,1.7 -7.4,3.2 -2.7,1.5 -5.1,3 -4.4,7.2 3.9,-5.7 9.9,-6.9 16,-8.2 -0.9,0.7 -1.7,1.8 -2.7,2 -6.2,1.1 -8.6,7 -12.9,10.4 -4.3,3.4 -2.1,8.9 1,10.6 3.6,2.1 7,5.7 12,2.2 1.8,-1.3 2.5,-1.2 2,-4.2 -0.6,-3.2 0.6,-7.1 0.2,-10.8 0,-0.1 0.6,-0.2 0.8,-0.3 -7.7,-4.8 4.2,-5.8 0.6,-10.3 2.7,1.6 3.8,2.7 4.6,4.1 -1.3,1 -3.5,-0.4 -4.4,2.1 5.9,-0.9 6.9,3.6 7.5,7.4 0.5,3.6 3.7,8.2 -1.6,11.5 0.8,-0.5 1.6,-0.9 2.6,-1.5 0.1,0.7 0.4,1.6 0.1,1.9 -1.8,2.1 -3.9,4.2 -0.1,6.4 0.1,0 -1,0.5 -1.6,0.3 -0.3,-0.1 -0.5,-0.2 -0.6,-0.2 0.1,0.1 0.4,0.1 0.7,0.1 2.1,2.7 -0.6,3 -2.3,4.1 2.7,0.1 4.4,1.9 6.6,2.6 -0.4,1 -2,0.6 -1.9,0.8 0.6,1.8 2.4,1.9 4,2 -0.5,1.5 -2.1,0.2 -2.4,1.6 1.1,0.1 2.2,0.3 3.3,0.4 -0.3,1.6 -2,0.1 -2,0.1 8.2,10 13.8,20.9 20.3,31.1 -2.9,-1 -3.6,-4.1 -5.8,-5.9 -1.7,-1.4 -0.7,-5.9 -5.2,-4.1 9.8,10.9 18.1,22.4 23,36.7 -2.9,-1.9 -4,-5.7 -8.1,-5.6 2.5,7.2 11.1,10.3 12.3,18.1 1.2,8.1 7.1,14.6 7.9,24.2 -3.4,-4.3 -6.3,-7.7 -8.9,-11.3 -0.9,-1.3 -1.5,-3.9 -3.3,-2.6 -1.8,1.3 0.9,3 1.6,3.7 9.1,10.4 16,22.4 24.1,33.5 0.3,0.3 0.3,0.8 -0.3,1.8 -2.4,-3.4 -4.7,-6.8 -7.3,-10 -5.6,-6.8 -11.3,-13.6 -17,-20.3 -0.2,-0.3 -0.8,-0.2 -1.3,-0.3 -0.2,-1.9 -2.2,-2.8 -2.5,-4.6 0.4,1.9 2.2,2.8 2.8,4.5 z"
   class="st0" />
		<path
   id="path24942"
   d="m 138.3,230.3 c -0.8,1.7 -1.6,3.4 -3,6.4 5.6,-2.4 4.1,-7.4 6.4,-10.6 0.2,1.6 0.3,3 0.4,4.4 1.3,-3.1 0.5,-6.1 -0.2,-9.3 2,1.1 1.7,3.1 2.6,4.7 0.3,-1 0.5,-1.7 0.8,-2.5 0.3,0.3 0.5,0.5 0.6,0.6 0.2,5.9 -6,15 -12,17.6 -2,0.9 -4.1,1.5 -6.4,2.4 0.6,-2 1.8,-3.3 3.4,-4.5 2,-1.5 4,-3.2 4.6,-6.1 0.2,-1.1 0.5,-3.5 3,-2.9 z"
   class="st0" />
		<path
   id="path24944"
   d="m 117.1,236.4 c 9.5,-0.2 12.8,-0.9 21,-15.2 -1.1,4.8 -2.3,8.2 -4,11.6 -1.9,3.6 -4.2,5.9 -8.6,5.4 -1.1,-0.1 -3.2,-0.9 -2.5,1.9 0.1,0.2 -2.4,1.5 -3.9,1 -2.6,-0.9 0.3,-3.8 -2,-4.7 z"
   class="st0" />
		<path
   id="path24946"
   d="m 103.8,93 c -3.4,0.1 -6.9,-3 -6.7,-6.1 0.2,-4.1 3.5,-5.1 6.5,-5.8 2.1,-0.5 6.8,4.6 6.3,6.8 -0.7,3.1 -2.8,5 -6.1,5.1 z"
   class="st0" />
		<path
   id="path24948"
   d="m 122.9,87.2 c 0.2,-5.9 3.3,-6.1 6.6,-6.2 3.2,-0.1 5.3,2 5.4,4.6 0,3.3 -1.7,6.6 -5.8,6.3 -3.5,-0.3 -6.5,-1.7 -6.2,-4.7 z"
   class="st0" />
		<path
   id="path24950"
   d="m 96,114.9 c -1.5,1.6 -0.8,4.9 -4.1,5 -0.3,-2.9 1.8,-4.9 3.7,-7.6 -4.3,0.8 -3.6,5.3 -6.7,6.6 0.8,-4.7 1.5,-9 2.3,-13.7 2.7,1.7 4.5,5.2 8.5,5.1 -2.5,0.7 -4.3,1.6 -3.7,4.6 z"
   class="st0" />
		<path
   id="path24952"
   d="m 170.9,237.4 c -2.2,2 -4.1,4.8 -7.2,3.3 -1.1,-0.6 -2.8,-4.7 1.4,-4.5 1.7,0.2 3.8,0.4 5.8,1.2 z"
   class="st0" />
		<path
   id="path24954"
   d="m 124,252.4 c 1.3,-6.2 2.8,-6.9 7.1,-3.8 -2.8,0.5 -4.9,1.5 -7.1,3.8 z"
   class="st0" />
		<path
   id="path24956"
   d="m 110.3,242.6 c 0.6,-3 2.9,-3.7 5.6,-4.8 -0.2,4 -3.8,3.3 -5.6,4.8 z"
   class="st0" />
		<path
   id="path24958"
   d="m 142.2,253.4 c -1.4,3 -2.5,4.9 -2.3,7.4 -2.5,-2.9 -2.3,-3.9 2.3,-7.4 z"
   class="st0" />
		<path
   id="path24960"
   d="m 155.7,259.6 c -1.6,-4 -1.6,-4 2.6,-5.9 -1.8,2.1 -2.8,3.7 -2.6,5.9 z"
   class="st0" />
		<path
   id="path24962"
   d="m 149,202.9 c 0.2,-0.6 0.4,-1.2 0.6,-1.7 1.1,1.5 3.4,2.1 3.3,4.5 -0.6,-0.2 -1.1,-0.4 -1.7,-0.6 -1.1,-0.5 -1.9,-1.2 -2.2,-2.2 z"
   class="st1" />
		<path
   id="path24964"
   d="m 176.8,240.5 c -1.2,-1.3 -3.3,-1 -4.3,-2.4 0,0 0.6,-0.9 1,-0.9 2.1,-0.2 2.7,1.6 3.3,3.3 z"
   class="st0" />
		<path
   id="path24966"
   d="m 138.4,230.4 c -0.8,-2.4 -0.7,-4.8 1.2,-7.4 0.9,3 -0.6,5 -1.4,7.2 0.1,0.1 0.2,0.2 0.2,0.2 z"
   class="st0" />
		<path
   id="path24968"
   d="m 123.7,233.4 c 0.4,0.7 -0.5,0.5 -0.7,0.6 -0.7,0.1 -1.7,0.3 -1.8,-0.8 0,-0.3 0.3,-1 0.6,-1 0.8,-0.3 1.3,0.3 1.9,1.2 z"
   class="st0" />
		<path
   id="path24970"
   d="m 172.7,170.3 c 1.9,-1 3.3,0.5 3.6,1.6 1.1,3.5 4.2,6 4.7,11.1 -1.9,-3 -3.1,-5 -4.5,-7 -0.6,-0.8 -1.4,-1.5 -2.5,-0.6 -2,1.7 0.6,1.4 0.9,2 0.7,1.3 1.5,2.7 1.9,4.3 -0.9,-2.8 -3.7,-0.8 -5,-2.3 -0.7,1.2 -2.7,1.6 -1.2,4 1.9,3.1 5.7,5 6.3,9.8 -3.6,-3.9 -6.8,-7.3 -10,-10.7 -0.5,0.5 -1.1,0.9 -1.6,1.4 12.6,16.1 25.2,32.1 37.7,48.2 -6.2,-3.5 -10.1,-9.1 -14,-14.7 -4,-5.7 -8.4,-11.1 -12.7,-16.6 -4.4,-5.5 -9.5,-10.2 -14.7,-14.9 6.7,11.3 17.5,19.5 22.9,31.8 -1.7,-1.9 -3.3,-3.8 -5,-5.7 -0.4,-0.5 -0.9,-1.6 -1.8,-0.4 -1,1.3 0.3,1 0.8,1.4 1.6,1.4 2.7,3.2 2.3,5.6 -1.8,-1.2 -1.5,-3.7 -3.5,-4.6 -1.5,3.2 3.1,4.4 2.5,7.3 -5.3,-3.7 -6.1,-6 -3.5,-12.2 0.6,-1.5 -0.4,-1.9 -0.9,-2.2 -5.6,-3 -7.3,-9.3 -11.4,-13.6 -8.5,-9 -15.9,-18.9 -23.2,-28.9 -4.2,-5.9 -6.7,-12.7 -10.9,-18.6 l 0.1,0.1 c -0.6,-4.8 -4,-8.4 -5.9,-12.8 2.4,0.7 3.2,-0.2 2.9,-2.6 -0.6,-5.2 0.1,-9.8 4.9,-13.3 3.7,-2.7 5.4,-1.1 6.9,2.4 -3,-2 -6,-1.3 -7.7,0.9 -2.5,3.2 -2.6,7.1 -1.9,11.2 2.1,11.3 8.2,20.5 15.2,29.1 0.8,0.9 2.4,1.6 0.8,3.2 -0.8,0.8 -0.2,1.6 0.5,2 4.4,2.8 6.3,7.7 9.3,11.6 1.8,2.4 3.8,4 6.8,5.4 0,-3.3 -3.1,-3.9 -3.7,-6 3.1,-1.3 4.4,4.1 8.3,1.9 -7.2,-7.3 -11.5,-16.7 -18.5,-23.8 4.9,-3.6 -1.2,-5.9 -2.7,-8.9 3.8,-0.2 7.4,5.2 7.8,13 0.8,-3.4 3.3,-2.1 4.6,-3.2 0.6,1 2.9,1.2 1.3,3.3 -0.6,0.8 3.7,1 0.9,2.6 -1.7,1 -2.1,-2 -4.1,-2 2.6,6.1 6.1,11.4 10.9,15.9 0.9,0.8 1.5,1 2.5,0.1 1.4,-1.3 -0.1,-1.7 -0.6,-2.2 -2.6,-2.7 -5.4,-5.3 -8,-7.9 0.3,-0.3 0.5,-0.6 0.8,-0.9 3.2,2.4 6.4,4.8 9.6,7.2 0.9,0.7 2.1,0.9 2.7,0.2 0.9,-1 -0.4,-1.7 -0.9,-2.5 z"
   class="st1" />
		<path
   id="path24972"
   d="m 172.8,170.2 c -3.4,-2.8 -9,-2.4 -11.1,-8.1 3.1,1 4.3,5.4 7.9,3.6 -0.6,-2.1 -3.3,-2.7 -3.8,-5.3 1.9,-0.2 2.2,2.2 3.8,2.2 0.7,-3.8 -0.2,-7.2 -3.4,-10.5 4.8,1.5 5.4,3.4 6.3,18.1 0.2,0.1 0.3,0 0.3,0 z"
   class="st1" />
		<path
   id="path24974"
   d="m 144.3,112.3 c 0.3,-2 -2.1,-2.8 -2.3,-4.8 3.2,2.1 11,12.3 14,18.4 -3.3,0 -3.9,-2.8 -4.8,-4.7 -0.5,-1 -0.5,-2.2 -1.4,-3 -0.7,-0.6 -1.2,-1.6 -2.5,-0.9 -1.5,0.9 -0.6,1.8 -0.2,2.8 0.5,1.2 1.1,2.4 1.1,3.8 -1.2,-2.6 -5.1,-4.2 -2.5,-8.3 0.8,-1.3 -0.6,-2.5 -1.6,-3.5 z"
   class="st1" />
		<path
   id="path24976"
   d="m 142.9,151.9 c 5.3,7.9 10.5,15.9 15.8,23.8 -8.1,-5.9 -12,-14.8 -15.8,-23.8 z"
   class="st1" />
		<path
   id="path24978"
   d="m 161.7,140.3 c 5.5,3.7 5.5,5.5 0.2,12.1 4.8,-1.6 4.1,3.9 7.1,4.8 -1.7,1.5 -2.5,0 -2.8,-0.7 -1.1,-2.3 -4,-1.4 -5.5,-3.8 -1.6,-2.7 -0.2,-3.5 1.1,-3.8 2.8,-0.7 2.6,-1.9 1.3,-3.8 -1.1,-1.5 -2,-3 -1.2,-5 z"
   class="st1" />
		<path
   id="path24980"
   d="m 134.4,191.2 c -1.5,1.6 2.5,2.8 0,4.5 -3.2,-2.2 -1.7,-6.7 -4,-9.6 3.1,3.6 7.9,5.2 11.6,9.5 -4.8,-1.7 -6.4,-2.7 -7.6,-4.4 z"
   class="st1" />
		<path
   id="path24982"
   d="m 181.7,183.1 c 4.3,5.2 8.2,10.7 10.6,18.4 -6.2,-5.4 -6.5,-13.1 -10.6,-18.4 z"
   class="st1" />
		<path
   id="path24984"
   d="m 167.6,147.2 c 5.9,4.2 6.5,11.6 10.7,17.5 -5,-1 -5.1,-5.2 -6,-8.1 -1,-3.6 -3.4,-6.2 -4.7,-9.4 z"
   class="st1" />
		<path
   id="path24986"
   d="m 179.3,185 c 2.5,2.3 5,4.3 2.1,7.7 -3.6,-2.7 -6.4,-6.1 -8.2,-10.9 4.1,1.5 3.4,6.9 7.5,7.8 1.3,-1.9 -2.1,-2.1 -1.4,-4.6 z"
   class="st1" />
		<path
   id="path24988"
   d="m 98.9,149.4 c 1.6,2 0.9,3.5 1.1,4.9 0.1,1.1 0.3,2.1 1.7,1.4 2,-0.9 2.1,0.5 2.3,1.7 0.1,0.8 0.6,2.1 -0.7,2.5 -1.2,0.4 -2.5,-0.1 -2.9,-1.3 -1,-2.7 -3.4,-5.3 -1.5,-9.2 z"
   class="st1" />
		<path
   id="path24990"
   d="m 161.7,194.3 c 3.3,0.2 3.6,3.5 5,5.3 2.4,3 4.1,6.6 6,10 -0.4,0.2 -0.7,0.5 -1.1,0.7 -3.3,-5.4 -6.5,-10.8 -9.8,-16.2 z"
   class="st1" />
		<path
   id="path24992"
   d="m 154.3,150.7 c -2.7,-2.8 -5.9,-5 -8.7,-9 3.9,1 4.9,4.6 7.6,5.3 2.1,-1.3 -1.5,-2.6 0.2,-3.8 3.7,2.2 1.7,5 0.7,7.7 z"
   class="st1" />
		<path
   id="path24994"
   d="m 115.3,174.4 c 1.9,1.3 2.7,1.8 2.7,3 1,-0.3 0.5,4.6 2.8,0.8 0.4,-0.7 1.9,0.7 2.2,1.9 0.2,0.8 1.4,1.5 0.1,2.4 -1.1,0.7 -2.1,0.9 -3.1,0 -2.2,-1.8 -2.9,-4.4 -4.7,-8.1 z"
   class="st1" />
		<path
   id="path24996"
   d="m 94.9,138.2 c 0.4,2.3 -0.4,4.5 2.1,5.8 1.5,0.8 0.7,2.8 -0.3,3.6 -1.5,1.1 -2.2,-0.5 -2.6,-1.7 -1,-2.6 -2.1,-5.2 0.8,-7.7 z"
   class="st1" />
		<path
   id="path24998"
   d="m 144.9,122.4 c -3.8,-1.4 -4.8,-5.1 -6.9,-8.4 6,0 4.7,5.6 6.9,8.4 z"
   class="st1" />
		<path
   id="path25000"
   d="m 105.6,163.9 c 2.8,0.2 3,2 3.2,2.9 0.4,2.2 0.5,1.7 1.8,0.4 0.7,-0.8 1.5,0.2 1.4,1.2 -0.2,1.2 0.8,2.8 -0.8,3.5 -0.6,0.3 -1.6,0.4 -2.1,-0.7 -1.1,-2.2 -2.1,-4.4 -3.5,-7.3 z"
   class="st1" />
		<path
   id="path25002"
   d="m 135.7,139.3 c 2.9,1.5 3.2,1.6 5.8,0.9 0.5,2.8 -3.4,0.6 -3.6,3.2 -0.2,1.7 2.8,3.6 -0.3,5.2 -1.2,-3.1 -1.7,-6.2 -1.7,-9.5 z"
   class="st1" />
		<path
   id="path25004"
   d="m 110.8,132 c 0.1,2.1 0.2,3.9 0.3,5.9 0.8,-1 1.5,-1.8 2.2,-2.7 1.7,2.1 -0.1,3.4 -0.9,4.6 -0.5,0.8 -1.9,-0.4 -1.9,-0.8 0.3,-2.2 -2.9,-4.6 0.3,-7 z"
   class="st1" />
		<path
   id="path25006"
   d="m 107.8,145.3 c -0.5,1 -0.7,1.9 -1.2,2.4 -0.8,0.8 -1.7,0 -2,-0.7 -0.7,-1.6 -1.1,-3.3 -1.5,-5 -0.2,-0.8 1.2,-1.1 1.2,-1 0.3,2.3 2.3,3.2 3.5,4.3 z"
   class="st1" />
		<path
   id="path25008"
   d="m 155.3,208.3 c 4.5,1.7 2.1,5.4 2.9,8.9 -2.9,-3 -3,-5.9 -2.9,-8.9 z"
   class="st1" />
		<path
   id="path25010"
   d="m 161.6,209.1 c 0.3,0.8 0.4,1.3 0.7,1.6 1.1,1.3 2.7,2.4 2,4.4 -0.2,0.5 -0.8,1 -1.5,0.2 -1.7,-1.7 -3.4,-3.3 -1.2,-6.2 z"
   class="st1" />
		<path
   id="path25012"
   d="m 139.4,169.8 c -3.4,-1.4 -3.4,-4.9 -5.7,-7.8 5.3,0.7 2.9,6.3 5.7,7.8 z"
   class="st1" />
		<path
   id="path25014"
   d="m 106.9,121 c 0.4,-1.1 -0.4,-3.2 1.1,-2.7 1,0.4 1.4,2.8 1.9,4.3 0.3,1 -0.4,1.4 -1.4,1.4 -2.6,-0.1 -0.9,-2.2 -1.6,-3 z"
   class="st1" />
		<path
   id="path25016"
   d="m 182.9,202.1 c -2.7,-1.9 -3.9,-5 -5.6,-7.6 2.8,1.9 5.3,4 5.5,7.7 -0.1,0.1 0.1,-0.1 0.1,-0.1 z"
   class="st1" />
		<path
   id="path25018"
   d="m 168.7,210.3 c 3.5,1.3 4.6,4.1 4.4,7.7 -1.4,-2.6 -2.9,-5.2 -4.3,-7.9 z"
   class="st1" />
		<path
   id="path25020"
   d="m 101.8,125.9 c -0.7,2.2 2.7,3.5 0.1,5.6 -0.5,0.4 -0.8,0.2 -1.1,-0.2 -1.3,-1.8 -1.3,-3.5 1,-5.4 z"
   class="st1" />
		<path
   id="path25022"
   d="m 111.6,156.9 c 0.7,1.1 1.3,2.1 2,2.9 0.6,0.7 2.7,-0.6 2.3,1.5 -0.1,0.6 -0.8,1 -1.2,1.5 -0.8,-0.8 -2.1,-1.4 -2.4,-2.4 -0.3,-1 -1.8,-1.6 -0.7,-3.5 z"
   class="st1" />
		<path
   id="path25024"
   d="m 121.5,158.3 c -0.6,3 4.4,1.1 3.4,4.1 -0.3,1 -1.5,0.8 -2.1,0.5 -2.2,-0.8 -1.9,-2.7 -1.3,-4.6 z"
   class="st1" />
		<path
   id="path25026"
   d="m 156.8,195.5 c -1.6,-1.9 -5,-1.9 -6,-5.3 3.2,0.9 4.9,2.6 6,5.3 z"
   class="st1" />
		<path
   id="path25028"
   d="m 152.8,188.2 c -3.3,-0.5 -3.3,-3.7 -4.6,-5.8 1.7,1.8 5.2,2.3 4.5,5.9 z"
   class="st1" />
		<path
   id="path25030"
   d="m 141,176.4 c 0.7,-0.2 0.9,-0.4 1,-0.3 1.8,0.8 3.1,2.2 4,3.9 0.1,0.2 -0.5,0.9 -0.7,0.9 -2.8,-0.4 -2.3,-3.3 -4.3,-4.5 z"
   class="st1" />
		<path
   id="path25032"
   d="m 123.6,168.4 c -0.1,1.3 1.6,3.1 -0.8,3.6 -0.8,0.2 -1.9,-0.1 -2,-0.9 -0.2,-1.7 1.9,-1.6 2.8,-2.7 z"
   class="st1" />
		<path
   id="path25034"
   d="m 98.7,115.1 c 0.8,3 -1.2,3.8 -3.5,5.6 0.5,-2.9 1.5,-4.3 3.5,-5.6 z"
   class="st1" />
		<path
   id="path25036"
   d="m 117.2,153.1 c -2.2,-0.7 -2.3,-2.7 -3.1,-4.2 0,-0.1 0.8,-0.8 0.9,-0.8 1.5,0.9 1.2,3.2 3,4 -0.3,0.3 -0.6,0.7 -0.8,1 z"
   class="st1" />
		<path
   id="path25038"
   d="m 150.5,141.7 c -2.6,-0.6 -3.6,-2.3 -4.1,-4.8 3,0.5 2.6,3.5 4.1,4.8 z"
   class="st1" />
		<path
   id="path25040"
   d="m 136.7,133.9 c -2.2,-1.4 -3.6,-3.2 -3.5,-5.5 0.1,-0.8 1.8,-0.5 1.6,0.9 -0.1,1.9 2.5,2.3 1.9,4.6 z"
   class="st1" />
		<path
   id="path25042"
   d="m 135.8,139.2 c -2.2,-1.3 -2.3,-3.9 -3.2,-6 1.6,1.7 3.4,3.3 3,6.2 0.1,-0.1 0.2,-0.2 0.2,-0.2 z"
   class="st1" />
		<path
   id="path25044"
   d="m 129.5,172.1 c 0.9,1.5 3.4,0.1 4,2.1 -3.3,0.9 -3.3,0.9 -4,-2.1 z"
   class="st1" />
		<path
   id="path25046"
   d="m 94.8,123.2 c 1.4,1.9 1.8,3.2 1.4,4.7 0,0.1 -1.1,0.3 -1.4,0 -1.4,-1.1 -0.9,-2.5 0,-4.7 z"
   class="st1" />
		<path
   id="path25048"
   d="m 149.4,197 c -1.2,-0.1 -2.1,-0.8 -2.3,-2 -0.1,-0.8 0.9,-1.2 1.2,-0.9 0.8,0.9 2.8,0.4 2.6,2.2 -0.1,0.7 -0.9,0.7 -1.5,0.7 z"
   class="st1" />
		<path
   id="path25050"
   d="m 164.6,202.2 c 1.4,1.1 2.2,2.4 0.7,4 -1.2,1.3 -1.5,-0.3 -2.1,-0.8 2.9,0 -0.2,-2.6 1.4,-3.2 z"
   class="st1" />
		<path
   id="path25052"
   d="m 117.8,125.5 c 1.7,1.6 1.4,2.9 0.8,4.2 -0.1,0.2 -0.7,0.3 -0.8,0.2 -1.3,-1.2 -0.9,-2.5 0,-4.4 z"
   class="st1" />
		<path
   id="path25054"
   d="m 140.7,187.3 c 1.8,-0.7 2.7,0.2 3.2,1.8 0.1,0.2 -0.6,0.8 -0.9,0.8 -1.5,-0.2 -2.1,-1.3 -2.2,-2.8 z"
   class="st1" />
		<path
   id="path25056"
   d="m 142.9,144.9 c 0,0.8 0,1.6 0,3.1 -1.3,-1.7 -2.2,-2.9 -3.1,-4.2 1.9,-0.9 2,1.4 3.3,1.3 z"
   class="st1" />
		<path
   id="path25058"
   d="m 161.9,140.2 c -1.5,-0.9 -2.2,-3 -4.3,-2.6 2.3,-0.5 4.7,-1.1 4.2,2.8 -0.1,-0.1 0.1,-0.2 0.1,-0.2 z"
   class="st1" />
		<path
   id="path25060"
   d="m 115.7,121.7 c 0.2,-1.9 -2.1,-3.6 0,-5.9 0,2.4 0,4.1 0,5.9 z"
   class="st1" />
		<path
   id="path25062"
   d="m 133.2,169.4 c 1.2,0.7 2.8,1.3 2.7,3.1 0,0.2 -0.6,0.5 -0.8,0.4 -1.6,-0.5 -1.5,-2 -1.9,-3.5 z"
   class="st1" />
		<path
   id="path25064"
   d="m 125.5,121.5 c 0.1,-1.6 -2,-2.6 -1,-4.3 0.1,-0.2 0.7,-0.3 0.9,-0.2 1.2,1.5 0.5,3 0.1,4.5 z"
   class="st1" />
		<path
   id="path25066"
   d="m 127.7,179.1 c 2.8,-0.3 3.1,2.5 6.4,1.8 -3.8,2 -4.7,-0.2 -6.4,-1.8 z"
   class="st1" />
		<path
   id="path25068"
   d="m 140.9,187.1 c -0.1,-0.1 -0.3,-0.1 -0.4,-0.2 -0.8,-1.1 -2.6,-1.6 -2.3,-3.4 0,-0.2 1.1,-0.5 1.2,-0.4 0.8,1.3 2.1,2.4 1.4,4.2 -0.1,0 0.1,-0.2 0.1,-0.2 z"
   class="st1" />
		<path
   id="path25070"
   d="m 157.9,207.3 c -1.5,-0.3 -2.7,-1.1 -3,-2.8 2.1,-0.1 2.3,1.7 3,2.8 z"
   class="st1" />
		<path
   id="path25072"
   d="m 129.9,145.9 c -0.9,1.8 -0.9,1.8 -3.8,-0.5 1.6,-1.3 2.5,1.4 3.9,0.6 0.1,0.1 -0.1,-0.1 -0.1,-0.1 z"
   class="st1" />
		<path
   id="path25074"
   d="m 154.1,150.8 c 1.6,0.8 1.9,2.4 2.8,4.6 -2.2,-1.4 -3.2,-2.6 -2.7,-4.7 0.1,0 -0.1,0.1 -0.1,0.1 z"
   class="st1" />
		<path
   id="path25076"
   d="m 161.9,194.1 c -1.1,-1 -2.7,-1.7 -2.9,-4.4 1.7,1.6 3.6,2.1 2.8,4.5 -0.1,0.1 0.1,-0.1 0.1,-0.1 z"
   class="st1" />
		<path
   id="path25078"
   d="m 145.3,101.7 c -2.3,1 -3,-1.1 -4.5,-2.4 2.6,-0.5 3.1,1.6 4.3,2.6 0.1,-0.1 0.2,-0.2 0.2,-0.2 z"
   class="st1" />
		<path
   id="path25080"
   d="m 181.3,174.9 c 0.6,1.1 1.2,2.2 2.1,4 -2.5,-0.8 -2.6,-2.3 -2.1,-4 z"
   class="st1" />
		<path
   id="path25082"
   d="m 157.4,141.9 c -0.7,-0.9 -1.4,-1.8 -2.2,-2.8 2.1,-0.1 2.5,1 2.2,2.8 z"
   class="st1" />
		<path
   id="path25084"
   d="m 143.1,145.1 c -0.2,-1 -0.4,-2 -0.6,-3.2 2.1,2.2 2.1,2.2 0.5,3 -0.1,0 0.1,0.2 0.1,0.2 z"
   class="st1" />
		<path
   id="path25086"
   d="m 168.9,210.1 c -0.9,-0.8 -1.8,-1.7 -2.8,-2.5 2.2,-0.3 3.2,0.5 2.6,2.7 0,0 0.2,-0.2 0.2,-0.2 z"
   class="st1" />
		<path
   id="path25088"
   d="m 126.6,127.9 c -3.3,0.2 -2.4,-1.9 -4.3,-2.8 3.3,-0.1 2.5,1.9 4.3,2.8 z"
   class="st1" />
		<path
   id="path25090"
   d="m 144.1,112.1 c -1,1.3 -1,1.3 -2.7,-0.9 1.4,-0.8 1.8,1 2.9,1 0,0.1 -0.2,-0.1 -0.2,-0.1 z"
   class="st1" />
		<path
   id="path25092"
   d="m 145.7,174.3 c 1.7,1.5 2.6,2.3 3.7,3.3 -2.6,0.7 -3.1,-0.5 -3.7,-3.3 z"
   class="st1" />
		<path
   id="path25094"
   d="m 152.7,188.3 c 2.1,-0.8 2.7,0.5 3.4,1.8 -0.3,0.3 -0.6,0.7 -0.8,1 -0.8,-1 -1.6,-2 -2.4,-3 -0.1,0.1 -0.2,0.2 -0.2,0.2 z"
   class="st1" />
		<path
   id="path25096"
   d="m 158.5,233.8 c 0.9,2.4 0.2,3.3 -1.1,4.1 -1.1,-1.7 0.9,-2.4 1.1,-4.1 z"
   class="st1" />
		<path
   id="path25098"
   d="m 161.6,131.1 c -2.7,-0.3 -3.4,-1.1 -3.9,-3.5 1.5,1.4 2.4,2.1 3.9,3.5 z"
   class="st1" />
		<path
   id="path25100"
   d="m 100.2,85.6 c 1.7,-1.4 3.4,3.6 4.3,-1.1 0.3,-1.4 2.2,0.3 2.5,1.5 0.5,1.7 -0.2,3.1 -1.6,4.3 -1,0.8 -2,1.1 -3.1,0.4 -2,-1.4 -3,-3.1 -2.1,-5.1 z"
   class="st1" />
		<path
   id="path25102"
   d="m 127,85.1 c 2.1,1 5.3,-6 5.9,0.9 0.2,2.5 -1.5,3.9 -4,4 -2.4,0.1 -3.6,-1.4 -3.9,-3.6 -0.2,-1.9 1.4,-1.3 2,-1.3 z"
   class="st1" />
	</g>
</g>
</svg>
