<?xml version="1.0" encoding="UTF-8" standalone="no"?>
<svg
   xmlns:dc="http://purl.org/dc/elements/1.1/"
   xmlns:cc="http://creativecommons.org/ns#"
   xmlns:rdf="http://www.w3.org/1999/02/22-rdf-syntax-ns#"
   xmlns:svg="http://www.w3.org/2000/svg"
   xmlns="http://www.w3.org/2000/svg"
   xmlns:sodipodi="http://sodipodi.sourceforge.net/DTD/sodipodi-0.dtd"
   xmlns:inkscape="http://www.inkscape.org/namespaces/inkscape"
   inkscape:version="1.0 (4035a4f, 2020-05-01)"
   height="257.01437"
   width="212.41322"
   sodipodi:docname="pegasus-rampant.svg"
   xml:space="preserve"
   viewBox="0 0 212.41322 257.01437"
   y="0px"
   x="0px"
   id="Layer_1"
   version="1.1"><metadata
   id="metadata26699"><rdf:RDF><cc:Work
       rdf:about=""><dc:format>image/svg+xml</dc:format><dc:type
         rdf:resource="http://purl.org/dc/dcmitype/StillImage" /><dc:title></dc:title></cc:Work></rdf:RDF></metadata><defs
   id="defs26697" /><sodipodi:namedview
   inkscape:current-layer="Layer_1"
   inkscape:window-maximized="0"
   inkscape:window-y="25"
   inkscape:window-x="0"
   inkscape:cy="139.90185"
   inkscape:cx="103.04037"
   inkscape:zoom="2.52"
   fit-margin-bottom="0"
   fit-margin-right="0"
   fit-margin-left="0"
   fit-margin-top="0"
   showgrid="false"
   id="namedview26695"
   inkscape:window-height="480"
   inkscape:window-width="820"
   inkscape:pageshadow="2"
   inkscape:pageopacity="0"
   guidetolerance="10"
   gridtolerance="10"
   objecttolerance="10"
   borderopacity="1"
   bordercolor="#666666"
   pagecolor="#ffffff" />
<style
   id="style26466"
   type="text/css">
  .st0{fill:#FFFFFF;}
  .st1{fill:#000000;}
</style>
<g
   transform="translate(-46.959627,-60.098147)"
   id="g26692">
	<g
   id="g26690">
		<path
   id="path26468"
   d="m 69.1,215.1 c 3.8,-0.8 4.5,2.2 4.8,4.7 0.4,3.3 0.1,6.7 0.1,10 0,0.9 0.4,2.1 -1.2,2.2 -1.2,0.1 -1.9,-0.5 -2.5,-1.3 -3.4,-4.8 -7,-9.7 -10.2,-14.6 -1.3,-2 -2.3,-4.2 -2.1,-6.8 0.6,-8.6 -2.4,-16.7 -3.4,-25.1 -0.4,-3.4 -1.3,-6.7 -1.5,-10.1 -0.4,-6 4.5,-11.4 10.5,-11 8.1,0.6 16.1,1.9 24.2,2.9 -0.2,-0.5 -0.2,-0.9 -0.4,-1.1 -2,-1.8 -5.8,-2.2 -6.1,-5 -0.5,-3.9 -0.5,-7.9 0.2,-11.9 1.8,-10.3 4.3,-20.5 5.7,-31 0.6,-5 -2,-8.2 -5.1,-10.9 -5,-4.3 -9.2,-9.7 -16,-11.7 C 65,94.1 63.7,92.2 63.6,91 63.3,86.2 59.8,86.2 56.5,86.1 50.7,85.8 46.5,81 47,75.1 c 0.2,-2.5 0.9,-3.9 3.7,-2.1 2.1,1.4 4.3,2.8 6.7,3.7 3.1,1.2 5.4,3.8 9.4,3.6 2.1,-0.1 4.8,1.9 6.5,3.7 7.5,7.7 15.8,14.4 23.9,21.5 4.2,3.7 5.9,8 4.8,13.1 -1.7,7.9 -0.4,15.9 -1,24.1 3.1,-0.9 4.2,-3.6 5,-5.7 5.3,-13.3 14.6,-22.9 27.1,-29.5 1.9,-1 4.7,-2.1 4.4,-4.4 -0.3,-2.4 -1.6,-4.8 -4.5,-5.8 -5.6,-2 -10.6,-5.6 -16.9,-5.3 -0.6,0 -1.7,-0.1 -1.8,-0.4 -2,-4.1 -5.7,-5.9 -9.5,-8 -1.6,-0.9 0.9,-3.1 2.5,-3.5 1.7,-0.4 3.6,-0.1 5.5,-0.1 0,-1.7 -1.8,-2.1 -2.2,-3.2 -0.5,-1.4 -2.2,-2.7 -1.1,-4.5 0.9,-1.6 2.6,-1 4,-1.3 9.9,-2.4 18.9,3.4 28.5,3.5 3.7,0.1 7.3,1.1 11.3,1.7 -0.7,-2.9 -2,-4.4 -4.5,-4.1 -3.6,0.4 -6.1,-2 -9,-3.2 -1.8,-0.8 -2.9,-2.9 -2.5,-4.9 0.5,-2.4 2.6,-2 4.4,-1.8 1.1,2 -3.4,1.2 -1.6,3.3 1.4,1.6 2.9,4 5.7,1.7 0.6,-0.5 1.4,-0.9 2.2,-1 3.1,-0.8 5.5,1.1 7.9,2.5 1.1,-3.3 3.6,-4 6.7,-3.6 4.2,0.5 6.3,2.5 5.3,7.2 -2.3,-0.6 -4.8,-4.7 -6.5,0.3 -0.4,1.2 -0.2,2.2 0.8,3.1 1.1,1 1.8,0.1 2.5,-0.5 0.2,-0.2 0.5,-0.6 0.7,-0.7 1.5,-0.3 3,-2.5 4.4,-0.9 1,1.2 -0.9,2.5 -1.3,3.8 -0.1,0.4 -0.2,0.9 -0.3,1.5 3.2,0.6 4.6,-2.9 7.5,-3 1.3,-0.1 3.1,-1.3 4,-0.3 1.1,1.2 -0.9,2.4 -1.2,3.8 -0.1,0.5 -0.2,0.9 -0.2,1.1 10.1,4.5 16.8,-1.7 23.5,-7.5 4,-3.4 7.8,-7.1 11.7,-10.6 0.9,-0.8 2.1,-1.6 3.3,-2 1.2,-0.4 2.6,-0.6 3.7,0.7 1.1,1.2 0.6,2.3 -0.1,3.6 -1,1.9 -1.6,4.1 -1.5,6.8 2.5,-2.6 4.9,-5.3 7.4,-7.9 0.8,-0.8 1.6,-2 2.6,-2.1 1.9,-0.3 4.4,-0.6 5.7,0.4 1.3,0.9 0.5,3.1 -0.2,5 -0.8,2.1 -1.5,4.2 -0.5,6.9 1.3,3.5 -0.1,7.2 -2.6,10.4 6.1,-3.8 11.4,-8.3 15.7,-13.9 1.6,-2 3.6,-3.7 4.9,-6 0.9,-1.6 3.4,-2.7 5.2,-1.7 1.8,0.9 1,3.1 0.6,4.8 -1.2,5 -3.3,9.5 -6.6,13.6 2.6,-1.2 5.5,-4 7.4,-2.1 2,2 0.1,5.3 -1.1,8.1 -4.7,10.4 -10.6,20 -19.5,28.3 3.9,0.5 6.5,-2 9.8,-1.9 5.2,0.3 7.2,3.6 4.4,8.3 -3.1,5.2 -7.4,9.2 -13.4,12.8 3.1,0 5.2,0.1 7.3,0 2,-0.1 3.2,1.1 3.9,2.5 0.8,1.5 0.3,3.2 -1.1,4.4 -1.6,1.5 -4.2,2.9 -1,5.3 0.2,0.2 0.3,1.2 0.1,1.3 -5.6,3.8 -6.5,13.1 -16.1,12.5 3,1.8 4.9,3.5 6.3,5.7 1.8,2.9 3.1,5.8 -1.7,7.2 -0.7,0.2 -1.8,0.8 -1.9,1.3 -0.4,2.1 -0.5,4.8 -2.8,5.3 -3.2,0.7 -6.5,0.8 -9.8,-0.2 -1.7,-0.5 -3.5,-0.4 -6.3,-0.6 4,3.7 5.8,7.4 5.6,12.1 -0.1,2.9 -1,4.6 -4,4 -2.7,-0.5 -4.2,0.6 -4.7,3.2 -0.6,2.7 -2.6,2.8 -4.9,2.8 -5.2,0.1 -5,1.1 -3.6,6 2,7.2 8.4,11.3 10.9,18 2.2,6 1.1,12.1 1.3,18.1 0.2,4.6 2.4,6.6 7,6.9 2.7,0.2 3.4,-1.3 4,-3.2 0.5,-1.6 -1.1,-4.1 1.1,-4.8 2.5,-0.8 3.2,2.1 4.7,3.7 -0.3,-6.9 -2.3,-12.9 -6,-18.6 -5.9,-9.1 -9.4,-19.2 -5.7,-30 2.5,-7.3 7.6,-13.4 14.6,-17.2 8.2,-4.5 9.1,-7 4.8,-15.2 -0.9,-1.7 -1.7,-4.3 1.9,-3.9 4.1,0.5 8.3,3 12.1,-1.4 -4.2,6.6 2.4,15.9 -6.4,20.3 2.2,2.5 7.7,2.4 5.3,7.6 -0.1,0.2 0.5,0.9 0.9,1.1 5.9,3.9 4.5,10 4.8,15.7 0.2,3.4 -3.9,4.4 -3.7,7.7 0.1,1 -1.8,3 1.5,2 1.4,-0.4 1.3,1 0.6,1.9 -1.1,1.4 -2.4,2.5 -4.2,1.9 -2,-0.7 -3.8,-2.2 -4.1,-4.4 -0.3,-2 -0.1,-4 -0.1,-6.5 -2.4,2.2 -4.9,2.9 -7.1,0.9 -1.3,-1.2 -3.6,-3.1 0.1,-4.4 1.4,-0.5 2.8,-0.9 1.1,-3 -1.7,-2.1 -3.6,-1.5 -4.6,-0.3 -1.9,2.3 -2.4,5.2 -0.7,8.2 1.9,3.3 3.2,7.1 5.5,10.2 1.8,2.5 3,5 2.7,8.4 1.9,-1.3 3.5,-2.9 5.5,-1.7 1.1,0.6 3.2,1.6 2.1,3.2 -1.1,1.7 -1.9,-1.2 -3.6,-1 0.1,4.9 -0.1,9.6 1.4,14.7 2.7,9.3 -0.4,17.8 -6.9,24.7 -4.2,4.4 -7,10.3 -13.7,12.2 -5.3,1.5 -10.6,1.8 -15,-1.2 -4.4,-3.1 -7.1,-0.8 -9.7,1.7 -9.1,8.9 -18,18 -25,28.7 -2.6,4 -8.8,0.9 -10.3,3.9 -2.3,4.6 -5.4,5 -9.4,4.9 -3.1,-0.1 -6.2,0 -9.7,-0.8 6,-3.2 8.1,-10.5 15.1,-12.4 2.9,-0.8 5.6,-2.6 7.6,-5 5.5,-6.4 11,-13 16.5,-19.4 1.2,-1.4 1.2,-2 -0.7,-2.7 -0.9,-0.3 -1.8,-0.6 -2.8,-0.8 -6.9,-1.3 -12.2,-5 -16.6,-10.3 -4.4,-5.3 -10.2,-9.5 -13.9,-15.3 -1,-1.6 -1.3,-1.1 -2.5,-0.5 -2.9,1.4 -5.5,3.4 -8.9,3.3 -0.9,0 -1.7,0.1 -1.7,1.2 0,4.5 -0.5,9.1 0.4,13.4 0.5,2.3 1.6,4.2 -0.5,5.8 -1.9,1.4 -4.1,0.8 -6,-0.4 -7.2,-4.8 -15.2,-7.5 -23.6,-9.2 -9.5,-1.9 -18.8,-5.3 -28.7,-4.8 -0.7,0 -1.6,0.2 -1.9,-0.1 -4.9,-5.3 -7.1,0.3 -9.7,2.6 -2.9,2.6 -5.3,4.5 -9.5,2.8 -3.4,-1.3 -7.4,-0.9 -10.5,-3.7 3.4,-3.7 7.2,-6.5 12.1,-7.5 2.4,-0.5 4.7,-1.6 6.5,-3.1 6.5,-5.5 13.8,-4.4 20.9,-2.6 7.8,1.9 15.8,2 23.6,3.6 1.9,0.4 2.9,-0.1 3,-2.5 0.4,-7.8 1.2,-15.7 1.9,-23.5 0.6,-5.9 8.5,-13 14.4,-13 4,0 8,0 12.3,0 -2.2,-4.8 -6.5,-6.8 -10.6,-7.8 -6,-1.3 -11.7,-3.2 -17.5,-5.2 -2.6,-0.9 -5.3,-1.8 -7.1,-4 -5.1,-6.2 -12.9,-5.1 -19.4,-7.2 -7.5,-2.5 -14.7,-5.6 -21.8,-9 -0.9,-0.4 -1.6,-1.1 -2.5,-1.4 -4.3,-1.6 -6.4,-0.4 -5.7,4.2 0.9,6 0.9,12.2 3.6,18 1.7,3.7 2.8,8.1 0.2,12.1 -1.4,2.1 1.7,2.1 1.5,3.6 -2.7,1.3 -4.4,-0.1 -5.9,-2.2 -1.3,-1.9 -1.2,-3.7 0.5,-5.4 1.9,-1.9 0.9,-4.1 0.4,-6.1 -2,-8.4 -3.6,-16.8 -3.8,-25.6 -0.1,-3.9 2.9,-4.8 5,-5.9 1.9,-1 5.1,-0.2 6.1,2.1 1.6,3.6 4.7,4.4 7.7,5.7 0.4,0.2 0.9,0.4 1.3,0.6 6.1,4 13.1,5.5 19.9,7.5 1.2,0.3 2.7,0.5 3.2,-0.6 1.7,-4.2 6.9,-4.6 8.8,-8.9 1.1,-2.5 5.5,-2.5 7.4,-5.3 0.5,-0.7 1.5,0.2 1.8,1 0.5,1.3 0.5,2.6 0.3,3.9 -0.2,1 -0.6,1.8 -1.3,2.5 -1,0.9 -2.3,1.3 -3.3,2.2 -3.2,2.6 -3.6,5.3 -1.4,8.7 0.7,1.1 1,2.4 1.9,3.8 1.1,-2.8 2.9,-3.2 4.1,-0.6 1.7,3.6 4.8,4.2 8,5.2 7,2.2 14,4.3 20.7,9.6 -1.9,-1.8 -3.5,-2.7 -3.3,-4.6 0.1,-0.5 0.4,-0.8 0.9,-1 4.8,0.4 6.5,3 6.6,9.9 0.3,-1 0.2,-2.8 1.6,-2.4 2.3,0.7 1,3.1 1.5,4.5 0.1,-1.3 -0.5,-3.4 1.3,-3.6 1.9,-0.1 1.6,2.1 1.7,3.5 0.1,1.8 0,3.7 -0.5,4.9 0.6,-1.3 1.4,-1.5 4.8,-0.8 -3,-4 -4.9,-8.9 -10.4,-10.7 -1.5,-0.5 -1.7,-2.8 -2.3,-4.3 -0.6,-1.6 0.4,-2.2 1.8,-1.7 2.7,0.9 6.6,-0.3 7.1,4.5 0.1,1.2 2.2,1.9 3.5,2.5 1.3,0.5 2.4,-1.7 3.7,-0.7 1.1,0.8 -0.3,2.6 0,3 2.5,4.6 2.6,4.5 2.1,7 -0.7,3.3 -1.1,6.6 -2.6,9.6 -1.9,3.7 -3.7,7.5 -5.8,11.1 -3.4,5.8 -3,9.9 1.7,14.9 4.4,4.7 9.1,9.3 13.8,13.8 4.6,4.3 10.3,5.9 16.5,5.8 1.7,0 3.5,-0.6 4.4,1.3 0.8,1.7 -0.7,2.7 -1.5,3.9 -5.2,7.3 -11.2,14.1 -17,20.9 -3.4,4 -7.3,7.1 -12.2,9.1 4.6,0.2 8.4,-0.5 11.6,-4.5 8.4,-10.5 17.1,-20.8 27.7,-29.3 4.1,-3.3 3.7,-4.5 -1.3,-6.3 -2.3,-0.8 -4.1,-2.2 -5.6,-4 -2.9,-3.6 -5.6,-7.4 -10.5,-8.9 -2.3,-0.7 -2,-2.8 -1.6,-4.6 0.3,-0.4 0.6,-0.8 1.1,-1 6.1,-2.2 7.9,-7.7 9.6,-13.1 1.5,-4.8 1.7,-9.8 0.7,-14.8 -0.2,-1.2 -1.1,-2.9 0.6,-3.5 1.8,-0.7 3.4,0.6 4.1,2.1 1.8,4.1 3,8.4 3.5,12.8 0.4,4.2 -0.3,8.2 -1.6,12.2 -2.2,6.7 -0.8,12.7 4.3,17.8 0.8,0.6 1.6,1.2 2.4,1.8 0.6,0.5 1.1,1 1.4,1.7 0.6,2.1 2.8,3.8 0.9,6.4 -0.9,1.3 0.9,1.9 1.8,2.4 1.8,1.1 3.9,1.2 6.2,2 -2.1,-0.9 -4.2,-0.9 -5.8,-2.1 -0.9,-0.6 -1.5,-1.5 -1,-2.5 0.4,-0.8 1.4,-0.7 2.2,-0.5 4,0.9 7.9,2.5 12.8,3.4 -3.6,-1.3 -3.3,-1.8 -1,-3.4 6.6,-4.6 13.4,-9.2 16.7,-17.2 1.2,-3 1.5,-6.1 0.7,-9.3 -1.2,-4.4 -1.9,-8.8 -1.3,-13.8 -2.1,1.7 -1.2,3.4 -1.2,5 0,0.9 -0.1,1.8 -0.9,2.2 -1.1,0.5 -1.8,-0.5 -2.4,-1.3 -1.4,-1.7 -1.5,-3.6 -0.7,-5.6 1.6,-3.9 0.7,-7.3 -1.3,-10.9 -2.3,-3.9 -5.1,-7.8 -5.7,-12.1 -0.1,1.4 1.3,4 -2,4.6 -0.5,-0.1 -0.9,-0.3 -1.2,-0.7 -1.1,-5.4 1,-9.8 4.4,-13.7 2,-2.4 4.9,-2.9 7.8,-1.7 2.9,1.2 3.8,3.5 2.6,7.2 1.6,-2.2 1.2,-3.7 0.3,-5.2 -0.5,-0.8 -1.2,-1.8 -0.1,-2.6 1.1,-0.8 2.2,-0.5 3.3,0.2 2.3,1.4 3.4,3.6 3.5,6.3 0.1,2.6 -0.7,5.1 -1.2,7.8 0.6,-1.5 1.1,-2.9 2,-4.2 2.1,-3.1 1.9,-5.9 -0.8,-8.5 -1.1,-1 -2,-2.3 -2.6,-3.7 -0.5,-1.2 -1.5,-2.6 -0.2,-3.7 1.7,-1.4 2.4,0.8 3.5,1.4 -2.6,-3.3 -5.9,-4.3 -10,-2.9 -1.4,0.5 -2.9,0.7 -4.4,0.8 -1.2,0.1 -3,0.9 -3.3,-1 -0.2,-1.5 1.4,-2.1 2.7,-2.5 2.7,-0.9 5.4,-1.4 8.2,-2.1 -1.3,-1.3 -2.8,-0.9 -4.3,-1 -1,-0.1 -2.2,0.1 -2.6,-1 -0.4,-1.2 0.8,-1.7 1.5,-2.3 1,-0.8 2.3,-1.3 3.4,-2 2.5,-1.6 4,-3.9 4.5,-6.9 0.5,-2.7 0.3,-4.9 -3.2,-5.4 0.8,2.9 1.2,5.9 -0.2,8.8 -1.4,3 -3.8,4.9 -6.6,6.6 -8.2,4.8 -14.1,11.5 -15.8,21.3 -0.9,5.2 0.4,9.9 2.3,14.6 1.6,4 3.6,7.9 6.2,11.4 3,4.1 3.9,8.6 4.1,13.6 0.3,6.1 -2.3,9.8 -7.6,12 -0.5,0 -0.9,-0.2 -1.2,-0.6 -0.7,-2.3 1.6,-3.2 2.3,-5.2 -3.7,4.6 -7.8,5.9 -12.2,3.8 -4.3,-2 -5.9,-5.7 -5.3,-11.1 1,-8.5 0.5,-16.5 -7,-22.6 -2.8,-2.3 -3.1,-6.4 -5.4,-9.4 -3,-4 -7.8,-3.4 -11.5,-5.3 -1.2,-0.6 -1.6,1.3 -2.3,2.2 -3.1,4.3 -5.4,4.9 -10.1,2.3 -2.1,-1.1 -3.8,-2.7 -5.4,-4.4 -2.6,-2.6 -5,-3.5 -6.8,0.8 -0.3,0.6 -0.8,1.1 -1.9,1.3 -0.6,-3.8 -2.7,-5.9 -6.9,-5.4 -0.5,0.1 -1,-0.8 -1.4,-1.4 -0.2,-0.4 -0.3,-0.9 -0.3,-1.4 0.4,-1.8 0,-3.9 1.8,-5.2 0.5,-0.1 0.9,0 1.3,0.3 1.1,1 1,3 2.5,2.9 -1.7,-1.2 -1.6,-3.8 -2.3,-6 -0.1,-0.5 0.2,-1 0.6,-1.2 0.7,-0.3 1.4,-0.2 1.8,0.4 1.1,1.4 2,3.1 3,4.6 -0.7,-1.1 -1.3,-2.3 -2,-3.4 -0.8,-1.2 -0.7,-3 -3.5,-2.6 -1.9,0.3 -1.9,-3.1 -3.1,-4.7 -1.7,-2.2 0.1,-3.3 1.8,-4.1 1.8,-0.8 2.3,-2.3 2.2,-4.1 0,-1.3 0.4,-2.4 1.9,-2.4 1.8,0 2.2,1.3 2.2,2.8 -0.6,11.4 5.9,19.3 13.4,26.6 2,2 2.1,1.9 5.5,3 1.1,-1.8 -0.6,-2.2 -1.4,-3 -2.9,-2.6 -6.5,-4.6 -7.7,-8.8 0.1,-0.5 0.3,-0.9 0.7,-1.2 2.9,0 3.9,2.8 6,3.9 1.5,0.8 2.3,2.6 4.2,2.4 -0.1,-0.4 -0.1,-0.7 -0.2,-1.1 -2.1,-3.3 -5.3,-5.5 -7.7,-8.5 -1.3,-1.6 -2.2,-3.3 -3.2,-5.1 -0.6,-1.2 -1.4,-2.7 0.1,-3.5 1.5,-0.9 2.5,0.5 3.1,1.6 3.2,5.6 8,9.8 12.5,14.2 2.1,2 4.4,3.9 7.8,4.6 -0.1,-3.3 -1.9,-5.1 -3.6,-6.8 -3.7,-3.9 -7.7,-7.4 -11.1,-11.5 -1.4,-1.7 -3.1,-2.4 -5.3,-2.3 -1,0 -2.1,-0.2 -2.2,-1.5 -0.2,-2.2 1.5,-3.2 3,-4.2 0.9,-0.6 1.7,-0.5 2.6,0.4 4.7,4.6 9.5,9.1 14.1,13.8 4.2,4.2 9.5,6.4 15,9 -1,-4.6 -15.9,-20.1 -23.7,-25 -0.2,0.1 0,0.3 0.3,0.6 1.2,1.5 3.3,2.5 2.9,4.9 -0.1,0.8 -1.2,1 -1.6,0.7 -2.1,-1.6 -5.7,-0.9 -6.9,-4 -0.9,-2.5 -1.4,-5.1 -3.1,-7.3 -0.6,-0.8 -0.8,-1.8 0,-2.7 1,-1 2,-0.9 3.2,-0.3 2.4,1.3 4.5,3.4 7.7,1.1 1,-0.7 3.2,0.2 2.9,2.2 -0.4,2.6 1.4,3.9 2.8,5.5 6.1,6.5 13,11.9 20.9,16.1 1.2,0.7 2.8,2 4.1,0.7 1.5,-1.5 0,-3.2 -1,-4.4 -4.8,-6.3 -11.7,-9.9 -18.1,-13.9 -4.1,-2.6 -8.2,-5 -12.1,-7.9 -1.2,-0.9 -2.3,-2 -4,-1.6 -3.1,0.9 -3.7,-0.6 -2.7,-3.1 0.6,-1.7 -1.4,-4.1 0.8,-5 2.2,-0.9 4.9,-0.7 7.4,-0.9 1.8,-0.1 1.7,1.6 0.8,2.4 -2.3,2.1 -0.7,3.1 0.7,4.6 5.4,6 13.1,7 20.2,9.1 4.9,1.5 10,2.1 15.1,2.5 -10.7,-4.8 -22.1,-7.4 -33,-11.2 -2.5,-0.9 -4.4,-1.5 -1.5,-4.1 1.3,-1.2 0.5,-2 -0.4,-2.8 -1.5,-1.3 -3,-2.7 -3.3,-4.8 0,-0.5 0.2,-0.9 0.5,-1.3 2.2,-1.1 4.6,-4.4 6.3,0.8 0.6,1.9 2.6,0.4 4,0.4 1.3,0 2.9,-0.6 3.5,1 0.5,1.3 -1,1.9 -2,3.1 2.9,0.4 5.6,0.3 8,1.3 1.2,0.5 2.8,0.9 2.3,2.7 -0.4,1.4 -1.8,1.2 -3,1.1 -2.9,-0.1 -5.8,-1.3 -9.8,-0.7 6.5,3.1 12.3,4.7 18.2,6.2 5.2,1.3 10.3,2.7 14.9,5.6 1.7,1.1 4.3,2.8 5.6,0.2 1.1,-2.2 -1.3,-3.9 -3.1,-5 -4.9,-3 -10.4,-4.4 -16,-5.3 -1.3,-0.2 -2.7,-0.3 -3.9,-0.6 -0.9,-0.3 -2.2,-0.5 -1.9,-1.8 0.1,-0.8 1.2,-1.3 2,-1.2 4.6,0.2 9.3,-1.7 13.8,1.8 2.7,2.1 6.8,0.6 9.5,0.2 -2.6,0.6 -6,0.5 -9.7,0.3 1.1,-3 3.4,-3.1 5.4,-3.5 2.1,-0.5 4.2,-0.9 6.8,-1.7 -3.6,-1.8 -6.8,-2 -10.2,-1.5 -6.4,1.1 -12.9,0.5 -19.4,0.5 -1.2,0 -2.3,-0.3 -3.4,-0.7 -2.6,-0.8 -4.2,-1.8 -1.2,-4.2 0.6,-0.5 1.3,-1 1.4,-2 -0.4,-1 -1.4,-1.1 -2.1,-0.9 -5.4,2.3 -11.2,-0.9 -16.6,1.2 -1.1,0.4 -2.4,0 -2.7,-1.5 -0.3,-1.6 0.3,-2.6 1.8,-3 1.6,-0.5 3.3,-0.4 4.8,-1.2 1.3,-0.7 2.9,-1.4 1.9,-3.4 -0.6,-1.2 -2.5,-2.5 0.2,-3.3 2.4,-0.7 4.6,-0.4 5.8,2.3 0.9,2 -0.8,3.4 -0.9,5.3 2.7,0.6 4.3,-1.5 6.2,-2.5 2.6,-1.4 3.1,-1.2 4.9,1.5 0.8,1.2 1.8,0.4 2.5,0.2 6.2,-1.4 11.9,-4.4 17.5,-7.2 5.2,-2.6 10.1,-5.8 15.3,-8.4 2,-1 3.7,-2.3 4.6,-4.4 0.7,-1.7 0.1,-2.8 -1.8,-2.4 -3.4,0.8 -7,1.2 -10,3.1 -8.7,5.7 -18.5,9.1 -27.7,13.5 -0.7,0.1 0.3,0.8 0,0.2 -0.1,-0.2 0,-0.2 0.4,-0.3 1.3,-0.3 3,-0.7 3.4,1 0.3,1.7 -1.6,2.2 -2.7,2.1 -2.7,-0.1 -5.3,0.4 -7.9,0.6 -1.1,0.1 -2.6,0 -3,-1.3 -0.5,-1.4 1,-1.9 1.9,-2.5 1.3,-0.8 2.8,-1.2 3.9,-2.2 1,-0.9 2,-2 1.3,-3.5 -0.6,-1.4 -2,-1.6 -3.4,-1.6 -2.6,0 -4,2.1 -5.7,3.6 -3,2.7 -3.6,2.4 -5.1,-1.4 -0.6,-1.7 -2.8,-2.5 -2.6,-5 0.1,-0.9 -2.3,-1.9 -0.7,-3.5 1.4,-1.4 3,-2.8 5.3,-2 1.1,0.4 2.4,1.4 3.2,0.3 3.1,-4.6 7.4,-2.5 11.4,-2.4 1.5,3.2 -1.3,4.7 -2.6,6.8 1.8,0.1 4,0.4 5,2.1 2,3.4 4.3,2 6.8,0.9 3.8,-1.8 7.2,-4.1 10.9,-6 0.3,-0.2 0.8,-0.3 0.8,-0.5 0.1,-5.4 5.6,-5.1 8.3,-7.8 2.9,-3 5.3,-6.4 7.9,-9.6 4.1,-5.1 6.2,-11.4 10.3,-17.8 -2.7,0.9 -3.6,2.2 -4.6,3.3 -8.5,9.5 -18.5,17.2 -29.2,24 -1.5,1 -2.9,2.3 -5,1.5 -1.4,-1.8 -1.6,-3.1 0.7,-4.9 2.9,-2.3 5.9,-4.2 9,-6.2 6,-3.8 10.9,-8.7 15.6,-13.9 0.8,-0.9 1.2,-1 0,-2.3 -1.5,-1.5 1,-2.2 2,-3.1 3.8,-3.6 8.1,-6.9 9.2,-12.7 -8.6,10.9 -20.9,17.3 -31.1,26.3 -1.6,1.5 -3.5,2.6 -5.3,3.7 -1,0.7 -2.5,1.7 -3.5,0.1 -0.8,-1.2 0.4,-2.2 1.3,-2.9 4,-3.2 7.2,-7.2 9.6,-9.2 -2.3,2.3 -6.1,6 -10.4,9.2 -1.2,0.9 -2.6,1.8 -1.1,3.6 1.4,1.7 2.7,0.5 3.9,-0.3 4.5,-3.1 9.1,-6.2 13.5,-9.5 1,-0.7 2.3,-2.2 3.4,-0.9 1.2,1.4 -0.1,3 -1.2,3.8 -5.1,3.7 -9.7,8.2 -15.3,11.2 -2.6,1.4 -4.7,3 -6.1,5.6 1.4,2.1 4.3,0.4 5.8,2.3 -1.3,3.9 -4.4,4.3 -7.8,4.1 -3.5,-0.9 -6.9,-3.4 -10.4,0.1 -0.9,0.9 -1.9,2.4 -3.3,1.8 -1.9,-0.8 -0.2,-2.3 -0.1,-3.4 0.4,-5 0.4,-5 5.9,-4.3 1.4,-1.2 -2,-3.1 0.6,-4.2 2.2,-0.9 3.8,0.1 5.4,2 1.3,-1.7 2.8,-3.5 1.4,-5.3 -1.8,-2.3 -3.6,-0.2 -5.2,0.8 -5.7,3.4 -11.4,6.6 -15.8,12 -5.3,6.5 -7.2,14.1 -8.6,22 -0.1,0.3 0.1,0.7 0,1 -1.3,5.5 -6.4,8.4 -8.6,13.2 -2.5,5.3 -6.5,8.2 -12.5,8.4 -4.6,0.2 -8.6,2.4 -12.9,3.7 -6,1.8 -9,-0.7 -8.6,-6.8 0.2,-3.3 1.8,-6.3 2,-9.7 0.1,-1.7 2.4,-3.1 3.7,-1.7 1.5,1.6 2.7,2.4 4.8,2.3 0.8,0 1.4,1 1.3,1.9 -0.2,1.9 -2,2 -3.3,2.7 2.4,-0.9 4.7,0 7.1,-0.1 4.2,-0.1 8.2,-1.1 11.6,-3.9 0.9,-0.7 2,-1.7 3,-0.6 0.9,1 0.1,2.2 -0.7,3.1 -1.5,1.8 -3.2,3.2 -5.7,3.8 -3.8,0.9 -7.5,1.3 -11.4,1.2 -2.3,0 -4.7,-0.2 -6.3,2.2 5.7,-0.6 11.1,-1.6 16.5,-3 6,-1.6 8.3,-4.4 8.2,-10.5 0,-0.8 -0.1,-1.7 0.1,-2.5 0.2,-1.3 0.3,-3.1 1.7,-3.3 1.8,-0.3 2.3,1.4 2.7,3.2 -0.4,-4.9 0.4,-9.7 -3.1,-13.5 -0.9,-0.9 -1.7,-2.5 -3.2,-1.5 -1.2,0.8 -0.3,2.2 0.1,3.2 1.4,3.2 1.5,6.2 -1.2,8.8 -2.3,2.2 -3.3,1.7 -4.2,-1.8 -1,3.7 -3.3,5.4 -6.7,4.6 -2.6,-0.6 -4,-1.9 -1.7,-4.5 2.7,-3.1 5.4,-6.4 7.5,-10 7.1,-12 11,-24.5 8,-38.6 -0.4,-1.9 0,-3.2 1.8,-4.2 1.5,-0.8 2.9,-1.7 4.1,-2.8 0.2,-0.2 0.4,-0.5 0.6,-1 -1.6,-0.2 -2.7,1 -4,1.5 -0.4,0.2 -0.8,0.5 -1.3,0.6 -2.3,0.2 -4.6,3.4 -7,0.1 1,-1.1 1.6,-2.5 2.9,-3.6 -2.6,-0.5 -4.4,-2.1 -5.4,-4.3 -1.1,-2.4 0.5,-4.4 1.4,-6.9 -2.7,5 -2.7,5 -6.9,2 -1.1,-0.7 -2,-1.6 -2.8,-1.3 4.8,2.5 8.5,6.6 11.7,11.3 0.5,0.8 -0.2,1.9 -0.8,2.7 -4.9,-0.8 -8.9,-4.2 -14,-4.5 -7.3,-0.5 -14.6,-1.6 -21.6,-3.5 -3.3,-0.9 -6.4,-1.6 -10.5,0.1 5,3 9.4,5.8 14.5,6.9 3.5,0.7 2.2,2.7 2.2,4.7 0,2.6 -1.3,3.1 -3.5,2.8 -3,-0.4 -5.8,-1.4 -9.4,-1.2 9.5,2.2 18.2,4.9 23.4,13.6 1.9,3.1 5.3,3 8.6,2.5 1.3,-0.2 2.5,-0.9 3.8,-1.1 0.9,-0.1 2.1,-0.1 2.3,0.6 0.6,2.4 -2.2,3.9 -1.7,6.5 0.2,1.4 -1.6,1.5 -2.7,1.2 -2.6,-0.9 -5.2,-0.6 -7.9,-0.6 -1.2,0 -4.4,0.9 -2.6,-2.7 0.4,-0.7 -0.8,-1.3 -2.9,-0.2 -7.7,4 -15,8.6 -20.7,15.4 -4.8,5.7 -7.5,12.5 -10.3,19.3 -0.2,0.5 -0.5,0.9 -0.7,1.3 -1.5,1.8 -3.3,3.1 -5.6,4 -5.4,2.2 -7.9,6.9 -7.2,13 0.5,4.3 -3.5,8.7 -8,8.1 -6.6,-0.9 -13.3,-0.5 -19.8,-2 -6.7,-1.5 -9.4,1.6 -8.8,8.5 0.9,10.9 4,21.6 3.7,32.7 -0.1,4.1 3.1,6.5 4.8,9.6 0.3,0.6 1.2,-1.2 2.2,-1.1 1.6,0.8 1.2,2.2 0.8,3.4 -0.6,1.8 -0.5,3.4 1.7,5.3 -0.9,-3.4 -0.6,-6.1 -2.1,-8.6 -0.5,-1.3 -0.5,-1.9 0.2,-2.4 z"
   class="st1" />
		<path
   id="path26470"
   d="m 210.9,263.9 c -4.6,-2.5 -7.9,-10.7 -6.5,-15.9 1.4,-5.1 3.7,-10.3 2.4,-15.7 -1.2,-5 -0.6,-11 -6.6,-15 3.3,10.2 2,19 -3.2,27.2 -1.8,2.9 -3.2,6.3 -7.7,5.1 -3.2,-1 -5.7,1.6 -7.9,2.8 -2,1.1 -3.1,0.6 -4.6,0.4 3.4,2 5.9,-0.5 8.5,-2 1.4,-0.8 2.6,-1.3 4.1,-1.3 0.1,2.4 -0.4,4.2 3.6,4.8 3.3,0.5 5.8,4.5 8,7.7 1.9,2.8 4.2,5 7.9,5 1,0 2.7,-0.7 3,0.8 0.3,1.5 0.6,3.2 -0.8,4.7 -2.2,2.3 -4.8,4 -7.1,6.1 -9,8.3 -17,17.4 -24.3,27.2 -1.6,2.1 -10.7,5.1 -13,4.1 -0.7,-0.3 -1.5,-1 -1.6,-1.7 -0.3,-1.1 0.7,-2 1.7,-2.1 10.7,-1.4 14.2,-11.5 20.9,-17.6 3.9,-3.5 6.1,-8.8 9.9,-12.6 0.5,-0.5 1.6,-0.8 0.9,-1.9 -0.6,-0.9 -1.3,-0.8 -2.5,-0.6 -6.9,1.3 -13.2,-0.8 -18.3,-5.4 -5.1,-4.5 -9.7,-9.6 -14.5,-14.4 -4.8,-4.9 -5.7,-10.3 -2,-15.8 5.5,-8.3 8.8,-17.4 9.8,-27.3 -2.4,-0.2 -1.4,3.2 -3.6,3.2 -1.2,-2.5 1.8,-3.9 1.5,-6.2 -1.9,-0.2 -1.4,2.2 -2.4,2.3 -0.6,0 -2.1,2.7 -2.6,-0.5 -0.4,-2.5 -4,-3.3 -4.3,-6.5 -0.1,-0.9 -4.5,1.3 -6.8,-2.7 1.1,5.9 5,7 8.1,9.1 3.3,2.2 4,6.4 5.5,10.2 -2.1,0.1 -0.8,-1.6 -1.8,-1.9 -1.2,0.7 0.2,2.5 -1.3,3.3 -0.1,-1.5 -0.2,-3 -0.5,-5.9 -0.7,3.3 -2,4.8 -2.7,6.8 0,-3.7 0,-7.3 0,-11.4 -2.4,2.7 0.8,6.6 -3,8.7 0,-3.4 0,-6.5 0,-10.2 -1.8,2.6 -0.4,4.9 -1.3,6.9 -1.7,-0.3 -1.7,-1.6 -1.7,-3 0,-1.8 -0.1,-3.6 -0.3,-5.5 -0.4,-3.4 -2.9,-4.4 -5.8,-5.1 -3.3,-2.7 -6.9,-4.8 -11,-6.2 -0.4,-0.6 -0.3,-1.4 -0.6,-1.8 -0.4,-0.4 0.1,-0.6 0,-0.1 -0.1,0.7 0.2,1.6 0.9,2.1 3.7,1.7 7.3,3.7 10.8,5.9 -0.4,1.6 0.7,3 1.7,3.2 3.4,0.6 2.1,2.7 2.1,5 -6.5,-6.5 -14.4,-9.1 -22.5,-11.1 -4.7,-1.1 -8.1,-3.4 -9.7,-9.2 -0.9,3.1 0.6,4.2 1.2,6 -4.9,-0.2 -5.3,-4.1 -6,-7.6 -1.5,0.8 0,2.7 -1.5,3.4 -0.7,-8.9 -0.1,-10.1 6.6,-13.6 0.5,0.1 0.7,1.1 0.9,0.8 0.6,-0.9 1.5,-1.9 0.3,-3 0,-1.5 0,-3 0,-4.5 -1.5,3.5 -3.8,5 -7.6,4.8 -3.1,-0.1 0.9,1.6 -0.5,3 -2.8,2.8 -8,3.3 -8.3,8.5 0,0.1 -1.3,0.4 -1.8,0.3 -7.6,-2.3 -15.6,-3.6 -22.4,-8.2 -0.2,-0.2 -0.3,-0.6 -0.4,-0.9 2.7,-2.3 4.8,-0.9 7,0.9 4.5,1.2 8.9,2.6 12.9,4.5 -0.8,-1.1 -3.3,-1.8 -2,-4.3 1,-0.6 2,-1.3 3.2,-1.4 0.5,0 1.3,0.1 1.3,0.4 0.2,3.6 1.8,1.3 3.1,0.6 -1.7,0.5 -2.6,-1.3 -4.2,-1.3 -1.8,-0.5 -2.3,1.6 -3.7,1.9 -1.4,-0.7 -1.3,-1.7 -0.4,-2.9 -1.3,0.7 -1.1,1.8 -0.9,2.9 0.1,0.8 0.1,1.7 -0.8,2.1 -0.9,0.3 -1.6,-0.2 -2.1,-0.9 -1.6,-2.2 -3.6,-2.6 -6,-1.2 -2.2,-2 -4.3,-4.4 -7.2,-1.1 -3.5,0.2 -6,-2.3 -8.9,-3.5 -1.8,-0.8 -0.5,-1.5 0.6,-2 -0.7,-1 -2.4,-2.5 -2.5,-2.2 -0.8,3.3 -4.4,-4.5 -4.3,1.1 0,0.3 0,0.7 -0.2,0.9 -2.6,2.4 -3.7,6.2 -2.7,11.2 1.3,6.8 2.7,13.5 4.5,20.2 0.4,1.7 0.6,2.8 -0.8,3.8 -2.7,2 -2.3,4.7 1.1,6.3 0.7,0.3 1.6,0.2 2.4,0.3 0,0 -0.2,-0.1 -0.1,-0.1 0,0.6 0,1.1 0.1,1.7 l 0.1,-0.1 c -1.5,0.6 -2.3,1.8 -2.7,3.1 -6,-4.8 -6.6,-11.2 -6.8,-18.4 -0.2,-8.5 -1.8,-17.1 -3.5,-25.5 -1.5,-7.6 2.6,-12 10.3,-10 6.7,1.8 13.7,0.5 20.4,2 5,1.1 4.9,-4.1 6.9,-6.6 0.1,-0.1 -0.1,-0.6 -0.3,-0.8 -0.2,-0.4 -0.9,-4.2 -0.7,-4.6 1.9,-4.3 3.6,-8.6 9.5,-9.1 1.6,-0.1 3,-2.4 4.5,-3.6 1.4,1.6 0.1,2.6 -0.9,4 1.5,-1.3 3.3,-2.2 0.8,-3.8 3.6,-14 11.7,-24.7 24,-32.2 2.9,-1.8 5.7,-3.5 8.8,-5 2.7,-1.3 4.4,1 7.2,2.7 -2.4,0.1 -3.7,0.2 -5.1,0.3 4.3,1.3 8.9,-1.2 12.9,2.7 0.4,-2.7 -1.6,-2.4 -2.2,-3.5 1.2,-0.1 2.3,-0.3 3.5,-0.4 -0.5,-1.4 -1.9,-0.3 -2.4,-1.3 1.1,-0.7 2.3,-1.4 4,-2.5 -4,0 -6.6,2.6 -10,2.1 -2.9,-0.5 -5,-0.9 -6.7,-3.8 -4.7,-8.4 -13,-11 -21.9,-12.2 -1.5,-0.2 -3.6,-0.1 -3.5,-1.9 0.1,-2.2 2.3,-1 3.6,-1.1 4.1,-0.4 7.9,1 13.1,2.3 -2.9,-2.8 -3.1,-4.7 0.7,-5.7 -7.8,-0.4 -13.2,-4.6 -19.1,-7.7 -0.6,-0.3 -1.6,-0.9 -0.9,-1.9 0.5,-0.7 1.2,-1 2.1,-1 3.7,0.1 7.3,-0.2 11.1,0.8 7.8,2 15.8,3.2 23.9,4.1 4.7,0.5 8,3.1 11.6,5.5 l -0.1,-0.1 c 2.6,1.4 4.5,-1.5 6.9,-1.3 l 0.2,0.4 -0.4,-0.2 c 2.2,-2.2 5,-3 8.1,-4.3 -0.7,4.9 -4.1,6.6 -7.4,8.2 -1.2,0.6 -1.8,0.3 -1.2,2.1 4,14.2 -0.4,27 -7.3,39.3 -2.6,4.6 -5.7,8.9 -9.8,12.6 2.1,1.6 4.5,1.7 6.9,0.2 1.5,-1 2.6,-2.2 0.5,-3.9 -0.4,-0.3 -2,0.2 -1.2,-1.2 0.2,-0.4 0.7,-0.7 1.1,-0.9 1,-0.4 1.8,0.5 1.9,1.1 0.4,1.5 0.5,3.1 0.7,4.8 5.2,-3.1 6,-5.4 2.8,-10.2 -1.6,-2.4 -0.4,-3.9 0.8,-4.9 1.5,-1.4 2.8,0.4 3.8,1.4 4.7,4.5 5.8,12.7 2.8,18.3 -1.3,-1.5 0.8,-4.2 -2.2,-5.3 -0.4,2.2 -0.8,4.2 -0.4,6.6 0.5,3.8 -3.5,8.4 -7.7,10.2 -4,1.7 -8.4,1.8 -12.5,3.3 -1.7,0.6 -4.2,-0.3 -6,1.6 -0.3,0.4 -1.8,0.1 -2.3,-0.3 -0.8,-0.7 0.2,-1.4 0.5,-2.1 1.1,-3 3.5,-3.5 6.3,-3.5 4.3,0 8.5,0 12.7,-0.9 3.4,-0.8 5.9,-2.2 6.6,-6.1 -2.9,4.1 -7.4,5.2 -11.8,5.8 -4.4,0.7 -9,-1.2 -14.1,1.7 1.4,-3.8 3.6,-4.5 6.1,-4.6 1,0 1.7,-0.4 1.2,-1.5 -0.4,-0.8 -0.6,-2 -2.1,-0.1 -1.5,1.9 -3.1,0.7 -3.1,-2.5 0,-1.1 -0.6,-0.9 -1.1,-0.9 -1.6,0 -2.9,1.2 -2.4,2.4 1.6,4.1 -1.6,7.2 -1.9,10.8 -0.2,2.2 3.2,5.1 5.6,4.3 6.1,-2 11.9,-4.8 18.6,-5 2.9,-0.1 5.5,-2.1 7,-5.3 1.1,-2.5 2.7,-4.9 4.7,-6.7 5,-4.8 5.7,-11.2 6.9,-17.3 1.9,-9.2 7.2,-15.8 14.2,-21.3 3.4,-2.7 7.5,-4.4 11.1,-6.8 1.5,-1 2.6,-1.9 4.3,-0.4 1.6,1.4 2.2,3 1.3,4.8 -1.1,2.1 -2.5,4 -4.5,7.2 0,-4 0.2,-7.6 -4.7,-5.4 2.2,0.6 3.6,2 2.2,4.1 -1.1,1.7 -2.4,2.6 -4,-0.1 -0.8,-1.3 -2.8,-0.2 -4.4,-0.4 5.9,2.5 0.8,4.4 -0.1,6.5 2.1,0.9 2.7,-1 3.5,-1.9 1.3,-1.3 2.8,-2.4 4.3,-1.6 1.9,1 2.9,0.7 4.2,-0.7 0.7,-0.7 1.9,-0.8 2.6,0.1 0.7,0.8 -0.4,1.4 -0.5,2.2 l 0.1,-0.1 c -2.3,0.1 -4.8,2.7 -6.9,-0.5 -0.1,-0.1 -0.8,-0.1 -0.9,0.1 -2.8,5.6 -10.2,1.4 -13.4,6.4 1.3,1.4 3.5,-2.2 4.4,0.7 0.6,2.1 -2.5,1.1 -2.5,3 1.1,1.8 3.4,-0.1 4.8,1.2 0.4,2.1 -2.3,2.4 -2.6,4.7 2.1,-0.9 3.8,-1.3 4.9,-3.6 1.1,-2.5 3.9,-3.6 6.5,-3.2 1.9,0.3 5,1 5,3.1 0,2 -1.4,4.4 -3.9,5.6 -1.8,0.9 -4.1,0.7 -5.7,2.9 4.8,-0.2 9.3,0.9 13.5,-1.5 -2.5,-1.7 -4.8,1.7 -7.2,0.2 7.3,-5.2 16.2,-7.3 23.9,-11.7 5.4,-3.2 10.8,-6.1 17,-7.6 1.5,-0.4 3.2,-0.8 4.3,0 1.6,1.2 -0.4,2.6 -0.5,3.9 -0.2,2.5 -2.1,3.8 -3.9,4.7 -10.2,5 -19.7,11.5 -30.5,15.2 -3.4,1.2 -6.7,2.2 -10.3,1.7 -0.3,-2.9 2,-2.7 3.8,-3.3 -2.3,-1.2 -3.8,-0.7 -5.1,1 -1.3,1.7 -3,2.3 -4.9,3 -1.7,0.5 -3.4,1.1 -4.4,-0.6 -0.8,-1.4 1.2,-1.9 1.9,-2.9 0.6,-1 1.9,-1.3 0.9,-3.3 -1.6,-3.3 -3.9,-1.1 -6.1,-1.9 0.7,2.2 3.9,-0.1 3.6,2.5 -0.3,2 -0.7,4.1 -3.4,4.7 -1.9,0.4 -3.7,1.2 -5.7,0.9 -1.4,-0.2 -1.3,0.4 -1.1,1.6 0.1,0.8 0.1,2 0.8,1.3 4.3,-4.4 9.1,0.8 13.4,-1 3,-1.3 6,-0.9 9.2,-0.8 -0.6,3.5 -2.6,5.3 -6,6 12.8,5.6 26.5,-3 39.9,4.2 -6,1.5 -10.8,2.7 -16.4,4.1 5.5,1.3 9.7,-0.5 14.6,-1.5 -4.4,3.8 -10.1,3.3 -15.9,1.4 -4.2,-1.4 -9.2,-0.3 -13.8,0 7.2,0.9 14.2,2.3 20.9,5.5 2.4,1.2 4,2.8 5.4,4.7 0.4,0.6 2.1,2.5 0.4,3.7 -1.3,0.9 -2.9,2.5 -4.4,1.5 -5.9,-3.8 -12.3,-6.3 -19,-7.8 -6.7,-1.5 -13.1,-4 -19.6,-6.4 4,-5.4 8.6,-0.7 12.8,-1.2 0.6,-0.1 1.6,1 2,0 0.6,-1.6 -1,-1.1 -1.8,-1.4 -2.7,-1.1 -5.4,-0.9 -8.2,-1 -1,0 -2.5,0.8 -2.8,-1.1 -0.4,-2.2 1.2,-1.9 2.5,-1.9 1.1,0 1.7,-0.6 2.2,-1.6 -2,-1.3 -3.6,1.1 -5.6,0.7 -1.2,-0.2 -2.8,1.9 -3.9,0.3 -1.1,-1.6 0.9,-2.7 1.9,-4.6 -2.3,0.8 -4.1,1.3 -5.8,1.9 -0.6,-0.1 -1.3,-0.3 -1.9,-0.3 -0.7,0 -1.1,-0.9 -1.8,-0.8 0.3,0.8 0.2,1.6 -0.3,2.3 0.7,-0.2 1,-1.1 1.8,-1.3 0.8,-0.2 1.6,0.1 2.4,-0.1 0.5,2.2 1.3,4.4 3.5,5.2 1.3,0.5 2.9,0.5 3,2 0.1,1.9 -1.6,2.1 -3.2,2.3 -0.5,0.1 -1,0.8 -1.4,1.2 13.3,4.6 27,7.5 39.3,14.3 -16.2,-1.4 -32.4,-2.6 -44.5,-16 1,-1.5 4.9,0.6 4.8,-3.5 -2.7,1.8 -5.5,3 -8.7,0.9 3.4,2.8 1.5,5.1 -0.3,7.7 3.6,-2.5 5.8,-2.1 8.3,1.5 1.8,2.6 5.4,3.9 8.4,5.6 7.7,4.3 15.3,8.8 21.3,15.4 0.7,0.7 1,1.6 1.5,2.5 1,1.7 1.4,3.8 0.2,5 -1.1,1.2 -3,0.1 -4.5,-0.6 -8.7,-4.5 -16.5,-10 -22.8,-17.5 -1.5,-1.7 -7.1,-2.5 -2.5,-6.7 0.4,-0.4 -0.3,-0.6 -0.7,-0.8 -0.6,-0.1 -1.5,-0.6 -1.6,-0.6 -3.4,6.5 -5.8,0.5 -8.4,-0.8 -0.9,-0.4 -1.3,-0.6 -2.1,0 -0.9,0.7 -0.7,1.4 0,1.9 3.4,2.1 3.3,5.4 2.9,9.3 4,-3.6 4.8,2.3 8,2.2 -1.5,-3.3 -5.6,-4.4 -6,-8.8 7,3.3 11.8,8.4 16.5,13.7 3.3,3.8 8.1,6.1 10.7,10.7 0.9,1.5 3,2.5 1.3,4.6 -1.7,2.2 -3.9,0.1 -4.7,-0.4 -5.8,-3.8 -12.4,-6.5 -16.8,-12.3 -3,-3.9 -7,-7 -10.3,-10.8 -1.1,-1.3 -3.1,2.2 -4.9,3.7 4.7,-1.2 7.1,0.8 9.6,4.2 3.3,4.3 7.8,7.7 11.4,11.8 1.7,1.9 4.5,5 2.7,7 -1.8,2.1 -4.6,-0.5 -6.7,-2.1 -6.5,-5 -12.4,-10.6 -16.6,-17.9 -0.4,-0.7 -0.4,-1.7 -2.2,-1.2 1.6,3 2.8,6.1 5.4,8.6 2.3,2.2 4.5,4.5 6.7,6.7 0.9,0.9 1.7,1.8 -0.2,2.5 -3.9,-3.6 -7.9,-7.1 -11.1,-11.4 -1.6,-3 -4.2,-5.8 -2,-9.6 0.2,-0.4 0,-1 -0.3,-1.4 -2.6,-4.4 -1.1,-7.6 2.5,-9.4 -1,1 -3.1,2 -4.2,4 -0.5,0.9 -1.5,1.4 -2.5,0.8 -1.1,-0.7 -0.9,-1.7 -0.3,-2.6 0.9,-1.5 0.4,-3.9 2.7,-4.1 -3.3,1.9 -3.8,5 -1.1,7.8 1.3,1.4 2.3,3.1 2.1,4.9 -0.5,3.8 1.4,6.7 3.3,9.6 3.3,4.1 6.9,7.9 11.1,11.1 0.6,0.9 1.1,1.8 2,3.2 -5.8,-1.6 -8.6,-6.7 -13.3,-8.9 -2,-4 -4.8,-7.5 -6.3,-11.7 1.6,4.1 4,7.9 6.5,11.5 2,4.1 5.2,7.1 9.1,9.2 1.8,1 2.7,2.1 1.9,3.7 -0.9,1.9 -2.8,1.7 -4.4,0.7 -7.6,-4.9 -12.9,-11.7 -16.5,-19.9 -1.6,-3.6 -2.1,-7.3 -1.3,-11.1 0.3,-1.4 0.1,-1.8 -1.2,-1.8 -2,0 -0.7,1 -0.6,1.8 0.3,3.4 0.3,3.4 -6.1,6.8 4.2,0.4 2.4,4.4 4.4,6.3 1.6,-1 0.2,-2.7 1.3,-3.5 1.8,4.4 3.4,9.1 8.7,12.9 -5.9,-1.1 -6.3,-6.1 -10.1,-8.8 1.8,4.2 1.9,8.2 5.9,10.2 -2.9,-1 -5.5,-2.1 -6.5,-5.2 -0.4,-2.3 -1.2,-4.4 -2.2,-6.4 0.9,2.1 1.7,4.3 2.2,6.5 -1.6,-0.7 -1.5,0.5 -1.5,1.4 0,1.4 0.3,2.9 -1.5,3.6 -0.3,-5.2 -2.1,-10.1 -2.9,-14.6 0.3,0.8 0.7,2.5 -1,3.1 -1.6,0.6 -3,-0.4 -3.5,-2 -0.9,-3 -3.7,-5.6 -1.9,-9.2 0.1,-0.1 0.4,-0.2 0.4,-0.2 0,-0.5 -0.1,-0.5 -0.4,0 -0.3,0.6 -1.8,0 -1.4,1.2 0.7,2 1.8,3.9 1.3,6.1 -0.1,0.1 -0.3,0.2 -0.4,0.2 -2.8,0.5 -4.5,-0.6 -4.8,-3.5 -0.4,2 -1.1,3.7 -3,2.5 2.4,0.7 5.4,1.8 8.7,0.6 1.4,2.3 2.5,4.7 5.6,5.5 1.6,0.4 2.5,2.1 2.3,3.9 -0.2,2.2 0.7,4.1 1,6.2 1.2,-0.7 2.5,5.3 3.8,0 0.1,-0.3 4.7,3.7 4.7,4.4 0,1 0,1.9 0,3.9 3.2,-8.6 4.3,-8.8 10,-3.1 0.8,0.8 1.5,1.8 2.5,2.4 6.2,4 8.9,4.8 11.5,-2.3 0.5,-1.4 1.1,-3.5 3.4,-1 0.9,1 2.9,1.5 4.4,1.6 6.5,0.8 8.6,5.7 10.8,10.7 0.4,1 -0.2,2.1 1.2,3 9.2,5.8 8.9,14.9 7.5,24 -0.6,4.3 1.9,9 6,9.9 5.7,1.2 9,-1 9.8,-6.5 2.5,3 2.5,3 0,5.8 -0.8,0.9 -1.6,1.7 -0.9,3 -0.7,0 -1.2,0.3 -1.8,0.6 -0.5,0.3 -1.1,0.6 -1.8,0.7 1.3,-0.1 2.2,-1.1 3.4,-1.5 3.3,-3.3 8,-5.2 7.1,-11.6 -0.7,-4.7 -1.1,-9 -4,-13.2 -4.5,-6.3 -8.1,-13.3 -9,-21 -0.8,-7.5 2,-14.3 7,-19.9 2.7,-3 5.5,-5.9 9.4,-7.7 7.9,-3.7 9.5,-10 4.1,-18.4 3.4,2 7.4,3.1 7.9,5 1.3,5.5 -0.2,10.6 -6.3,13 -1.5,0.6 -2.8,1.5 -4.2,2.6 4,-1.2 7.5,-0.3 11.2,3.1 -5.9,0 -10.6,1.7 -15.1,3.9 2.2,-0.4 4.5,-0.7 6.7,-1.3 7,-1.9 11.2,0.5 13.8,8.2 -3,-1 -3.5,-4.4 -6.7,-6.6 1,3.8 2.3,6.3 4.6,8 3.1,2.4 3.1,5.5 1.2,8.2 -1.9,2.6 -3.2,5.2 -2.9,9.3 -2.7,-3.3 -2,-6 -1.2,-8.9 1.6,-5.6 -0.5,-9 -5.5,-9.3 3.7,4.4 3.5,7.8 -0.7,9.5 -0.8,0.3 -1.7,0.5 -2.3,-0.3 -0.4,-0.6 -0.1,-1.2 0.6,-1.5 3,-1.3 3,-3.4 1.1,-5.5 -2.2,-2.4 -5.1,-2.5 -7.5,-0.4 -4.2,3.7 -5.4,8.7 -5.4,14 -2.4,-2.2 -2.4,-2.2 -1.3,-7 -1.2,5.2 -1.2,5.2 4.8,13 -0.6,-2.2 -3.9,-3.1 -3.7,-6.1 4.4,-0.9 0.7,-4.5 2.5,-6.5 2.3,5.8 5.2,11.2 8.5,16.5 1.6,2.5 1.9,5.7 0.4,7.9 -2.3,3.3 -0.7,5.3 1.7,8.4 -1.2,-4.6 -1.9,-8.5 2.8,-11.2 0,6.6 0.8,12.7 1.8,19 1.3,7.7 -2.6,14 -8.9,18.6 -1.5,1.1 -4.3,0.3 -3.8,4.4 0.3,2.1 -4.3,3.4 -7.5,3.6 1.4,0.2 2.7,0.5 4.5,0.8 -6.4,3.9 -11.4,-1.6 -17.4,-1.7 2.8,3.1 7.3,1.8 9.6,4.9 -4.5,1.3 -8.2,-1.4 -12.1,-3.1 -0.6,-0.3 -1.7,-1.7 -1,-1.9 4.9,-1.7 -0.4,-4.6 1,-6.7 2.6,-0.6 2.2,2.7 4.1,3.1 2,1.9 4.5,2.8 7.2,3.5 -2.9,-0.7 -5.6,-1.9 -7.8,-3.9 0.2,-2.2 0.2,-2.2 2.4,-2.1 3.5,0.1 6.4,3.1 9.4,2.2 -4.7,-1.1 -10.4,-1.9 -15.7,-4 -2.4,-1.6 -3.4,-4.2 -4.8,-6.1 -1,1.7 2,2.8 1,5.3 z"
   class="st0" />
		<path
   id="path26472"
   d="m 145.4,220.6 c -0.5,-2 -1,-4 -1.6,-6.2 11.4,1.6 14.6,10 17.3,19.1 -1.5,0.7 -1.7,-1.3 -2.8,-1.1 -1.2,1.3 1.8,2.2 0.2,3.5 -3.3,-2.5 -4.3,-6.7 -7.5,-10.4 1,5.7 4.5,9 7.1,12.7 -0.7,0.9 -1.3,1 -1.9,0.5 -0.5,-0.4 -1,-0.9 -1.8,-0.5 -1.8,0.6 4.2,2.3 -0.2,2.6 -2,-0.7 -3.2,-2.3 -4.3,-4 -0.3,-0.2 -0.1,-0.9 -0.7,-0.7 0.5,0.2 0.6,0.7 0.9,1 1.2,1.5 2.1,3.3 4.2,3.6 -0.7,1.8 2.2,2 1.5,4 -1.8,0.8 -2.9,-1.2 -4.6,-1.3 -0.8,3 3.3,2.1 3.5,4.6 -3.9,-0.4 -5.6,-3.8 -8.5,-6 0,3.7 4.3,4.5 5,7.8 -2.7,-0.9 -3.6,-3.5 -5.8,-4.6 -0.9,2.4 2,2.7 2.6,5 -3.4,-2.1 -7.1,-3 -9.4,-6.2 -0.2,0.5 -0.5,1 -0.4,1 7.7,5.3 3.8,12.6 3.1,19.2 -0.2,1.7 0.5,2.8 0.9,4.1 0.4,1 1.4,1.8 0.2,3 -1.2,1.2 -2,0.4 -3,-0.2 -9.5,-6.4 -20.5,-9.3 -31.4,-11.4 -7,-1.4 -13.8,-4 -21.3,-2.9 -3.1,0.4 -1.2,-3 -2.7,-4.5 -2.9,3.8 -9.5,1.6 -12.4,6.8 -0.8,-1.7 -1.5,-3.1 -2.3,-4.6 2.6,-1.5 5.2,-2.8 7.8,-4.5 6.5,-4.2 13,-0.6 19.3,0.3 6.1,0.8 12.2,1.8 18.3,2.5 6.3,0.8 11.7,2.7 15.3,8.1 0.9,1.4 2.2,1.6 3.7,1.8 -3.6,-3.6 -6.9,-7.4 -7.3,-12.8 -3,1.2 1.5,3.6 -1.4,3.9 -2.1,0.2 -2,-2.1 -2,-3.8 -0.2,-9.1 1,-18 2.1,-26.9 0.3,-2.4 2.2,-4.3 4.4,-5.8 1.8,1.8 -1.3,5.1 1.9,6.3 -0.1,0.9 0.3,1.8 0,2.8 0.1,0.7 0.9,-0.3 0.4,0 0,0 -0.2,-0.1 -0.2,-0.4 0,-0.8 -0.1,-1.5 -0.3,-2.3 -0.3,-2.8 -0.9,-5.8 1.5,-8.3 0.1,3.2 0.3,6.4 0.4,9.6 0.4,0 0.7,0 1.1,-0.1 0,-3.6 0,-7.2 0,-10.9 2.8,0.3 0.9,2.7 2.2,3.5 4.4,-2.2 4.4,-2.2 4.9,3.2 1.3,-2.1 0.2,-4.2 1,-6.4 1.3,2.1 0.1,5.3 3,6.3 -0.4,1.8 0.6,3.1 1.5,4.4 2.3,2.2 1.8,5.8 4.6,8.2 -2.7,-2.4 -2.3,-6 -4.6,-8.1 -0.8,-1.4 -1.7,-2.8 -1.5,-4.5 z"
   class="st0" />
		<path
   id="path26474"
   d="m 86.3,152.1 c -1.7,2.4 -3.5,4.7 -0.4,7.7 -3,0.3 -3,-1.6 -2.9,-3.5 0,-1.8 0,-3.7 0,-5.5 6.7,0.2 0.4,-2.7 0.8,-4.1 1.6,-5.7 2.4,-11.7 3.6,-17.5 0.7,-3.3 1.8,-6.5 2.6,-9.8 1.8,-7.6 -2.3,-12.8 -7.9,-16.6 -4.9,-3.4 -8,-9.3 -14.7,-10 -0.3,0 -0.7,-0.4 -0.7,-0.6 -0.2,-4.4 -2.6,-6.7 -6.8,-8 -1.7,-0.5 0.1,-2.1 1,-2.1 3.9,0 8.4,0.1 10.7,3.3 4,5.6 9.6,9.3 14.7,13.6 3.6,3.1 6.8,6.7 10.4,9.8 2.4,2 3.1,5.9 2.2,9.2 -1.6,5.9 -1.3,11.9 -0.8,17.7 0.6,7 -2.9,12 -6.2,17.3 -0.9,1.5 -1.6,3.1 -2.4,4.6 -1.4,0 0.9,-5.7 -3.3,-2.1 -0.3,0.4 1.8,-1.8 0.1,-3.4 z"
   class="st0" />
		<path
   id="path26476"
   d="m 215.7,112.2 c 8.1,-4.1 15.6,-9.2 22.4,-15.1 5.9,-5.1 11,-11 16.7,-16.7 3,8.2 -16.9,35.1 -25.7,34.3 4.8,1.2 3.3,3.1 1.1,4.3 -5.9,3.1 -11.4,7.3 -18,9.2 -0.9,0.3 -2.3,1.2 -2.1,-0.2 1,-6 -4.7,-3.2 -6.4,-5.6 1.4,-2.2 3,-4.5 4.6,-6.9 0,0 -0.1,0.1 -0.1,0.1 2.8,-0.7 6,-0.6 7.6,-3.6 z"
   class="st0" />
		<path
   id="path26478"
   d="m 215.9,112.1 c -2.7,1.7 -5.1,-0.5 -8.2,-0.9 6.5,-9.6 18.6,-12.6 25.2,-21.8 -5.2,4.6 -11.6,7.5 -16.8,12.1 -2.9,2.5 -4.1,0.1 -5.8,-1.7 -2.4,-2.7 0.7,-2.9 1.7,-3.7 4.9,-4.2 10,-8.4 15,-12.5 0.5,-0.4 1.1,-0.8 2.3,0.3 -5.5,5.2 -10.9,10.3 -16.7,15.8 6.2,-1.1 9.1,-6.1 13.2,-9.1 9.6,-6.9 19.6,-13.4 26.6,-23.3 0.5,-0.7 1.2,-1.4 2,-1 0.9,0.4 0.8,1.6 0.5,2.2 -2,3.4 -2.4,7.3 -6.1,10.1 -2.4,1.8 -4.1,4.8 -7.4,5.8 1.5,2 2.7,-0.5 4.1,-0.1 -4.6,7.1 -15.5,17.4 -23.1,20.7 -2.7,1.2 -3,5.6 -6.9,4.4 0.6,1 1.8,1.9 0.3,3.1 -0.1,-0.3 0.1,-0.4 0.1,-0.4 z"
   class="st0" />
		<path
   id="path26480"
   d="m 175.9,112.8 c 4.3,6.4 4.3,8.3 -0.5,13.1 -0.6,-1.9 -1.9,-3.2 -3.3,-4.2 -4,-2.5 -4.8,-5.6 -3.2,-10.1 2.1,-5.9 2.4,-12.1 2,-18.7 5.5,2.1 11.4,2.4 15.5,6.9 0.7,0.8 2.9,0.7 1.8,2.3 -1.3,1.8 -1.9,-0.8 -2.9,-1.1 -2.4,-0.6 -3.9,-3.5 -7.6,-2.7 5.1,2 7.6,5.6 10.6,10.9 -3.4,-1.2 -4.8,-3.4 -7.4,-2.9 0.5,2.6 4.2,2.3 3.9,5.6 -1.1,-0.8 -2,-1.5 -2.9,-2.2 -0.3,0.5 -0.6,0.8 -0.6,0.9 1.5,1.5 2.6,2.9 0.6,5 -2.3,2.4 -2.3,-1.4 -3.9,-1.2 -0.6,0.1 -1.4,-1 -2.1,-1.6 z"
   class="st0" />
		<path
   id="path26482"
   d="m 232,62.4 c -0.7,8.4 -6.4,12.9 -11.8,17.6 -5.2,4.7 -11.2,7.9 -17.8,10.4 -1,0.4 -3,2.6 -4.8,3.2 -2.9,1.1 -5.4,0.3 -8.5,-1 -3.5,-1.4 -8.2,-3.3 -12.7,-1.6 2.1,-2.2 4.3,-2.5 7,-1.4 1.7,0.7 3.9,2.3 5.5,1.2 2.5,-1.8 4,-1.5 5,1.1 0.7,1.8 1.4,0.4 1.6,0 2.2,-5.5 7.8,-7 12.1,-9.9 7,-4.7 13.2,-10.2 19,-16.2 1.5,-1.5 2.9,-3.1 5.4,-3.4 z"
   class="st0" />
		<path
   id="path26484"
   d="m 206.4,147.7 c 2.3,-4.4 5.7,-6.1 10.5,-5.7 7.6,0.6 15.4,-2.2 23,0.7 -3,-3.3 -6.9,-2.3 -10.5,-2.7 -4,-0.5 -7.7,1.7 -11.7,0.6 8.6,-1.1 16.5,-5.7 25.5,-4.5 1.3,0.2 3.5,-1.3 3.9,1.6 0.3,2.2 -1.2,4.1 -2.7,4.1 -2.5,0 -3.3,1.5 -4.5,2.9 -1.1,1.3 -2.6,2.2 -4.2,2.3 -9.8,0.1 -19.4,2 -29.3,0.7 z"
   class="st0" />
		<path
   id="path26486"
   d="m 190,83.2 c 9.2,-4.9 17,-11.4 24.1,-18.9 1,-1 2.1,-2 3.4,-1.1 1.5,1 -0.4,2 -0.6,3 -1.9,8.5 -8.9,12.5 -15.4,16.9 -1.2,0.8 -2.5,1.5 -3.6,2.5 -1.8,1.6 -3.4,3.4 -4.5,-0.6 -0.4,-1.5 -2.3,-0.5 -3.4,-1.8 z"
   class="st0" />
		<path
   id="path26488"
   d="m 189.6,107.9 c -1.1,-3.8 0.5,-5.4 3,-5.9 2.9,-0.6 5,-2.8 6.7,-4.4 7.5,-6.9 16.8,-11.1 24.6,-17.5 2.5,-2.1 4.9,-4.2 6.8,-7 2.9,3.3 0.6,5.9 -1.7,7.3 -9.8,5.9 -18.1,14.1 -27.9,20 -3.8,2.3 -8.2,3.5 -11.5,7.5 z"
   class="st0" />
		<path
   id="path26490"
   d="m 204.8,234.5 c -0.8,8.4 -5.2,16.3 -2.2,25.2 -2.4,-2.6 -4.8,-5.3 -7.2,-7.9 -0.6,-0.6 -0.4,-1.3 0.1,-1.7 4.7,-4.2 6.5,-10.1 9.3,-15.6 z"
   class="st0" />
		<path
   id="path26492"
   d="m 202.4,170.3 c 6.8,2.5 14.2,2.6 21.1,4.6 1.6,0.5 3.8,0.4 5.3,-0.4 1.9,-1 2.8,0.1 3,1.2 0.3,1.5 -1,2.2 -2.5,2.3 -5.6,0.5 -11,-1 -16.3,-2.5 -3.7,-1.1 -7.7,-2 -10.6,-5.2 z"
   class="st0" />
		<path
   id="path26494"
   d="m 191.7,86.4 c -2.1,1.8 -3.8,3 -7,1.1 -2.3,-1.3 -5.6,-1.4 -8.2,1.2 -1.2,1.2 -3.3,1.6 -6.2,2.8 2.3,-3 5.4,-3.6 6.4,-6.6 -2.9,0.4 -3.7,3.9 -6.6,3.6 3.9,-6.5 10.7,-7.1 21.6,-2.1 z"
   class="st0" />
		<path
   id="path26496"
   d="m 161.3,83.3 c -0.8,-6.2 -8.2,-13 -14.9,-13.7 2.7,-2.8 5.3,-1.9 7.5,0.4 2,2 3.5,3.1 4.1,-0.8 0.2,-1.3 1.3,-1.9 2,-2.7 0.7,-0.8 1.4,-0.5 2.1,0.1 1.3,1.1 0.2,1.9 -0.5,2.1 -1.8,0.4 -2.1,2 -2.5,3.2 -0.8,2.4 0.3,4.4 2.3,6 2.5,2.1 2.5,-1.9 4.2,-1.5 0.3,3.4 0.1,3.6 -4.3,6.8 -0.1,0 0,0.1 0,0.1 z"
   class="st0" />
		<path
   id="path26498"
   d="m 57.9,260.7 c 0.5,-2.9 2.8,-2.9 4.1,-4 1.1,-1 3.2,-2.1 4.7,-1.2 2.3,1.3 2.4,4.2 3,6.4 0.5,2 -2.1,1.3 -2.9,1 -2.8,-1.1 -5.7,-1.7 -8.9,-2.2 z"
   class="st0" />
		<path
   id="path26500"
   d="m 173.6,132.1 c -1.7,-3.7 -3.6,-6.6 -7.1,-8.3 -0.8,-0.4 -2.2,-1.2 -1.1,-2.7 0.6,-0.9 1.5,-1.3 2.6,-1.1 2.9,0.5 6.9,8.7 5.6,12.1 z"
   class="st0" />
		<path
   id="path26502"
   d="m 194,122.8 c -1.8,-1.8 0.5,-2.1 1.2,-2.4 1.9,-0.8 4,-1.1 5.9,-2 1.6,-0.8 2.2,0.2 2.7,1.1 0.8,1.5 -0.9,1.2 -1.5,1.8 -1.7,1.8 -4.1,2.6 -6.2,3.6 -1.1,0.4 -3.6,0.8 -2.1,-2.1 z"
   class="st0" />
		<path
   id="path26504"
   d="m 50.1,75.1 c 3.1,1.9 6.7,2.5 8.8,5.5 -7.3,3.5 -8.3,2.9 -8.8,-5.5 z"
   class="st0" />
		<path
   id="path26506"
   d="m 176.2,92.6 c 5.9,-1 10.4,2.4 15.2,4.4 0.6,0.2 2,0.8 1,2.1 -0.5,0.7 -1.2,1.3 -2,0.7 -4.5,-3 -9.1,-5.6 -14.2,-7.2 z"
   class="st0" />
		<path
   id="path26508"
   d="m 161.5,308.3 c 2.3,2.2 3.8,3.5 5.4,5.1 -3.4,2.6 -7,1.3 -10.6,1.7 1.9,-2.5 3.6,-4.7 5.2,-6.8 z"
   class="st0" />
		<path
   id="path26510"
   d="m 223.3,137.4 c 6.4,-3.2 13.1,-6.2 19.8,-11.3 -4.5,6.1 -9.3,9 -19.8,11.3 z"
   class="st0" />
		<path
   id="path26512"
   d="m 69.2,216.8 c 2.6,3.2 2.9,6.9 2.7,10.8 -6.5,-2.4 -4.6,-6.7 -2.6,-10.9 0,0 -0.1,0.1 -0.1,0.1 z"
   class="st0" />
		<path
   id="path26514"
   d="m 107.8,82.1 c 5.3,-0.1 10,-0.8 14.3,1.5 0.5,0.3 1.9,-0.2 1.4,1.2 -0.3,0.8 -1.1,1.4 -2,1 -4.2,-1.7 -9,-1.2 -13.7,-3.7 z"
   class="st0" />
		<path
   id="path26516"
   d="m 217.8,269.2 c -2.2,0.1 -1.8,-2.9 -3.7,-3.1 -0.4,-0.3 -0.7,-0.7 -1.1,-1 -0.2,-0.3 -0.3,-0.5 -0.2,-0.8 0.1,-0.2 0.2,-0.4 0.3,-0.4 6.2,1.3 12,4.2 18.5,4.6 -3.4,0.8 -6.5,0.8 -9.7,-0.9 -1.1,-0.6 -4.5,-2.8 -4.1,1.8 z"
   class="st1" />
		<path
   id="path26518"
   d="m 236.9,148.5 c 2.7,-0.7 4.9,-1.6 5.4,-4.7 1,1.6 3.5,1.8 2.2,4.1 -2,3.7 -4.7,1.2 -7.6,0.6 z"
   class="st0" />
		<path
   id="path26520"
   d="m 213,263.9 c 0,0.4 0,0.7 0,1.1 -0.9,0 -1.6,-0.3 -2.1,-1.1 -1.3,-2.8 -3.4,-5.2 -3.2,-8.8 1.8,3 3.6,5.9 5.3,8.8 z"
   class="st1" />
		<path
   id="path26522"
   d="m 196.8,195.3 c 2.6,1.7 5.2,1.6 5.2,4.4 0,1.2 -0.8,1.9 -1.7,2.2 -1.1,0.3 -1.1,-0.7 -1.3,-1.5 -0.4,-1.4 -1.1,-2.7 -2.2,-5.1 z"
   class="st0" />
		<path
   id="path26524"
   d="m 121,175.9 c 0.5,0.6 2.1,-1.9 1.8,0.4 -0.3,1.9 -1.6,3.6 -2.4,5.3 -2.4,-0.9 0.4,-2.5 -0.5,-3.6 0.9,-0.4 1.1,-1.2 1.1,-2.1 z"
   class="st1" />
		<path
   id="path26526"
   d="m 213.2,192.5 c -2.4,0.9 -3.3,0.1 -4.1,-1.1 1.7,-1.1 2.4,0.9 4.1,1.1 z"
   class="st0" />
		<path
   id="path26528"
   d="m 145,141.9 c 3,1.8 6.8,1.5 9.9,3.9 1.3,1 4.2,-0.5 6,-2.1 1.4,-1.3 2.4,-3.1 5.1,-4 -2.1,3.6 -5.1,5.5 -6.9,8.5 -1.3,2.2 -2.5,0.7 -3,-1.1 -3.4,1.3 -6.7,-0.6 -10,-0.5 -0.9,0 -1.6,0.2 -2.5,-0.3 -2.9,-1.5 -4.4,-5.1 -8.7,-5 -2,0.1 -2.9,-3.6 -2.7,-5.6 0.1,-1.6 2.6,-2.2 4.4,-2.6 1.8,-0.4 4.4,1.6 3.8,-3.3 -0.7,-5.7 8.5,-10.2 13.8,-7.6 2.1,1 3.4,2.8 2.6,5.2 -0.3,1.2 -1.3,1.9 -2.7,1.7 -1.6,-0.3 -0.6,-1.2 -0.7,-2.1 -0.3,-2.6 -2,-2.3 -3.7,-1.1 -3.1,2.1 -3.5,4.5 -2.1,10.9 -5.6,-3.2 -3.3,-10.1 2.1,-13.3 -4.6,0.2 -7.4,3.7 -6.9,8.9 0.2,2.1 0.6,3.3 -2.3,2 -1.7,-0.8 -4.5,-1 -5.1,1.2 -0.2,0.9 -0.4,4.7 3.2,4.8 1.4,0.1 2.6,1.9 4.4,1.6 0.6,-0.2 1.3,-0.2 2,-0.1 z"
   class="st1" />
		<path
   id="path26530"
   d="m 172.3,186.7 c -3.3,-1.8 -4.6,-5.1 -4.9,-8.4 -0.2,-3 -0.5,-5.3 -3.6,-6.4 -1.5,-0.6 -2.2,-1.5 -0.5,-2.7 2.3,-1.6 2.1,-3.5 0.4,-5.6 4,0.5 4,0.5 4.9,-3.9 3.7,5.6 -5.7,6.5 -2.5,12 0.8,-4.5 7.1,-4 5.9,-9.8 3.7,2.4 1.8,4.3 0,5.5 -1.9,1.3 -3.6,2.8 -2.6,5 1.2,2.8 4,5.1 0.2,8.2 -0.5,0.4 1.7,4.1 2.7,6.2 z"
   class="st1" />
		<path
   id="path26532"
   d="m 144.3,183.3 c -1.5,-2.5 -0.2,-6.8 -4.6,-7.5 -0.3,0 -0.6,-0.8 -0.5,-1.1 0.2,-0.8 1,-1 1.5,-0.5 2.5,2.7 3.9,0.8 5.6,-1.6 -3.5,6.2 -1.4,10.4 3.9,14.7 0,-2.9 0,-4.9 0,-6.8 1.3,6 4.6,11.5 3.5,17.9 0,0 0.1,-0.1 0.1,0 -0.4,-1.1 -1.8,-1.5 -1.6,-2.9 0.7,-4.1 -0.4,-6.9 -5,-7.5 -3,-0.4 -1.1,-3.7 -2.9,-4.8 z"
   class="st1" />
		<path
   id="path26534"
   d="m 145.1,79.4 c 3,2.6 8.9,0.5 9.8,6.2 -2.7,-0.2 -4.1,-4.7 -7.6,-2.1 4.3,2.2 4.3,2.2 8.1,8.6 -3.5,-0.9 -5.8,-3.1 -8.6,-4.2 -4.4,-1.8 0.8,-5.9 -1.7,-8.5 z"
   class="st1" />
		<path
   id="path26536"
   d="m 133.6,161.3 c -2,1.6 -2,1.6 -0.1,3.9 0.3,0.3 0.1,0.4 0,0.8 -0.4,1.3 -2.5,3 0.1,3.9 1.8,0.6 4,0.6 5.4,-1.3 0.2,-0.3 0.8,-0.4 2.4,-1 -1.2,2.7 -1.6,4.9 -4.2,4.1 -1.5,-0.5 -2.5,-0.4 -2.7,0.7 -0.2,0.9 0,2.5 1.7,2.8 0.5,0.1 2,-0.5 1.1,1.1 -0.4,0.7 -1.1,1.1 -2.1,0.6 -1.6,-0.8 -6.9,-11.1 -6.2,-12.8 0.9,-1.9 2,-3.7 4.6,-2.8 z"
   class="st1" />
		<path
   id="path26538"
   d="m 102.9,156.8 c -0.7,2.3 -2.2,3.6 -3.3,4.7 -2.8,3.1 -3.2,6.1 -1.7,9.8 0.3,0.8 2.2,1.9 0.1,2.6 -1.2,0.5 -2.2,0 -2.1,-1.7 0.2,-3.4 -3,-2.5 -4.9,-3.9 5.8,-1.7 4.7,-10.5 11.9,-11.5 z"
   class="st1" />
		<path
   id="path26540"
   d="m 97.5,179.5 c 0.6,2.2 1.7,4.1 4.1,5.1 -5.5,0 -10.1,-2.8 -15.1,-4.2 v 0 c 1.2,-0.4 1.8,-4.5 3.9,-0.8 0.1,0.1 1.7,-1.1 1.9,-2.5 0.6,1.8 1.1,3.5 3.1,5.4 -0.9,-3.7 -0.7,-6.4 2.8,-7.6 1,1.9 -1.9,2.9 -0.7,4.6 z"
   class="st1" />
		<path
   id="path26542"
   d="m 213.1,254.1 c -0.5,-1.3 -1,-2.7 -1.5,-4 -1.4,-3.1 -2.8,-5.8 -1,-9.8 1.4,-3 0.3,-7.2 0.3,-11.5 4.4,4.5 0.9,8.9 0.9,12.9 0.1,7.7 0.8,9.9 7.8,13.6 -2.9,2.4 -4.3,-2 -6.6,-1.4 z"
   class="st1" />
		<path
   id="path26544"
   d="m 188.8,178.8 c 5,3.9 10,7.8 15.1,11.7 -1.4,1.4 -2,-0.8 -3.5,-0.3 0.4,1.1 0.8,2.3 1.2,3.5 -3.7,-5.6 -9,-9.5 -12.8,-14.9 z"
   class="st1" />
		<path
   id="path26546"
   d="m 232,213 c 3,2.6 4.9,5.8 5.7,9.8 -7.5,-4 -10,-12.1 -5.9,-19.7 0.4,3.6 -2.5,7 0.4,10.1 -0.1,0 -0.2,-0.2 -0.2,-0.2 z"
   class="st1" />
		<path
   id="path26548"
   d="m 189.4,249.6 c -3.9,1.7 -7.1,4.8 -11.9,4.6 -3.6,-0.2 -3.1,-1.9 -3.3,-4.1 2.9,-0.2 3.3,3.9 6.5,2.7 0.3,-1.3 -2.3,-1.8 -1.3,-3.5 1.1,0.6 2.2,1.3 3.3,1.7 0.5,0.2 1.5,0.1 1.9,-0.2 2.2,-1.8 2.1,-1.9 4.8,-1 -0.1,-0.1 0,-0.2 0,-0.2 z"
   class="st1" />
		<path
   id="path26550"
   d="m 144.1,183.2 c -2,4.5 -4.8,-0.2 -7.4,0.5 -1.3,0.3 -4.2,-2.2 -3.5,-5.5 1.3,1.7 2,3.7 4.2,3.9 1.2,-1.3 0.1,-2.9 1,-4.7 1.1,3.1 2.9,5.2 5.9,6.1 0,-0.2 -0.2,-0.3 -0.2,-0.3 z"
   class="st1" />
		<path
   id="path26552"
   d="m 246.7,231 c 1.6,21.4 1.6,21.4 -2,23.8 4.1,-7.4 -0.6,-15.6 2,-23.8 z"
   class="st1" />
		<path
   id="path26554"
   d="m 212.9,254 c 2.2,3.5 5.2,5.7 9.7,5.2 -7.4,1.5 -12.3,-1.8 -13.5,-8.9 2.3,0.3 1.6,3.5 3.9,3.8 0.1,0 -0.1,-0.1 -0.1,-0.1 z"
   class="st1" />
		<path
   id="path26556"
   d="m 209.3,235.4 c 1.1,-5.5 -3.6,-9.8 -3.2,-15.6 4.7,4.8 4.5,10.2 3.2,15.6 z"
   class="st1" />
		<path
   id="path26558"
   d="m 145.8,169.7 c 3.6,-0.9 5.6,-2.2 7.9,0 1.2,1.1 3.5,0.7 3.5,-2.1 0,-0.9 1.1,-1.9 2.2,-1.4 1.4,0.7 0.2,1.6 -0.3,2.4 -0.4,0.7 -0.7,1.8 -1.2,2 -3.7,0.8 -7.3,0.3 -12.1,-0.9 z"
   class="st1" />
		<path
   id="path26560"
   d="m 171.9,192.1 c -4.7,-3.1 -5,-9.5 -9.4,-12.8 3.1,-0.2 7.8,6.2 9.3,12.9 -0.1,0.1 0.1,-0.1 0.1,-0.1 z"
   class="st1" />
		<path
   id="path26562"
   d="m 136.6,196.4 c 1.1,-0.2 2,-4.1 3.6,0 0.6,1.5 4,0.8 5.3,2.8 0.7,1 2.2,1.5 2.3,3 0,0 0.1,-0.1 0.1,-0.1 -4.2,-1 -7.8,-3.3 -11.3,-5.7 z"
   class="st1" />
		<path
   id="path26564"
   d="m 172.1,186.9 c 3.7,3.6 7.9,6.9 10.8,11.3 0,0 0.1,-0.1 0.1,-0.1 -4.9,-2.5 -8.9,-5.8 -10.8,-11.2 0.1,-0.2 -0.1,0 -0.1,0 z"
   class="st1" />
		<path
   id="path26566"
   d="m 106.8,143.3 c 0.8,-0.5 1.7,-0.9 2.6,-1.4 -0.2,3.1 -0.4,5.9 -3.7,7 -0.6,0.2 -0.9,1.4 -2,0.4 -1.3,-1.3 0.3,-1.6 0.7,-2.2 0.8,-1.3 2.9,-1.8 2.5,-4 0,0 -0.1,0.2 -0.1,0.2 z"
   class="st1" />
		<path
   id="path26568"
   d="m 153.6,172.7 c 1.3,4.5 -1,5.9 -4.3,6.6 -0.9,0.2 0.6,2.6 -1.4,1.9 -1.3,-0.5 -0.9,-2 -0.9,-3.1 0,-1.1 0.6,-0.5 1.2,-0.6 2.7,-0.1 4.5,-1.7 5.4,-4.8 z"
   class="st1" />
		<path
   id="path26570"
   d="m 101,177.9 c 0.6,0.8 2.3,-3.2 2.4,0.6 0,0.9 1.5,0.6 2.4,0.1 0.4,-0.2 -0.2,-2.2 1,-0.6 0.1,0.1 1.9,1.1 0,2.1 -2.1,1.1 -3.9,2.7 -6.5,1.6 -0.4,-1 5.1,-0.5 0.6,-2.6 -0.1,-0.4 -0.1,-0.8 0.1,-1.2 z"
   class="st1" />
		<path
   id="path26572"
   d="m 125.3,189 c -4.3,-2.1 -4.7,-4.9 -1.5,-10.5 -0.6,4.1 -0.3,7.2 1.5,10.5 z"
   class="st1" />
		<path
   id="path26574"
   d="m 80.1,179.1 c -0.3,-1.2 -0.7,-2.4 -1,-3.6 1.8,2.8 7.8,-0.9 7.5,4.9 0,0 0.1,0 0.1,0 -1.7,-2.7 -4.3,-1.8 -6.6,-1.5 -0.2,0 0,0.2 0,0.2 z"
   class="st1" />
		<path
   id="path26576"
   d="m 248.3,191.4 c -4.2,1.1 -8.9,-0.5 -13,2.4 3.8,-4.4 8.6,-2.2 13,-2.4 z"
   class="st1" />
		<path
   id="path26578"
   d="m 156.5,193.5 c -1.5,-3.2 -3.7,-6.2 -3,-10.2 1.7,3.1 3.2,6.4 3,10.2 0,-0.1 0,0 0,0 z"
   class="st1" />
		<path
   id="path26580"
   d="m 143.5,84.1 c 1,1.9 -0.4,4.6 2.7,5.5 -4.8,0.1 -5.3,-1.1 -2.7,-5.5 z"
   class="st1" />
		<path
   id="path26582"
   d="m 217.7,269.3 c 3.7,-0.1 6.2,3.3 9.9,3.2 -3.9,0.7 -7.3,0 -9.8,-3.4 0,0.1 -0.1,0.2 -0.1,0.2 z"
   class="st1" />
		<path
   id="path26584"
   d="m 186.4,147.6 c -0.5,0.1 -1,0.2 -1.4,0.4 -3.1,1.7 -3,1.7 -3.1,-1.2 0,-0.5 -0.4,-1 -1,-2.4 2.3,1.4 3.8,2.4 5.3,3.3 0.1,0 0.2,-0.1 0.2,-0.1 z"
   class="st1" />
		<path
   id="path26586"
   d="m 204.6,268.9 c 1.5,0.7 3.8,1.1 4.1,2.1 0.4,1.4 -1.6,2.4 -3.5,3.2 2.1,-2.4 0,-3.5 -0.6,-5.3 z"
   class="st1" />
		<path
   id="path26588"
   d="m 145,141.9 c -0.7,1.1 -1.4,1.1 -2.1,0 -0.7,-1.3 -1.1,-2.8 -3.1,-3.8 3.5,-0.3 4.8,1.1 5.2,3.8 z"
   class="st1" />
		<path
   id="path26590"
   d="m 228.2,254.2 c -1.7,2.2 -3.9,3.3 -7.5,2.5 2.6,-2 5.1,-2.2 7.6,-2.4 0,0 -0.1,-0.1 -0.1,-0.1 z"
   class="st1" />
		<path
   id="path26592"
   d="m 119.7,76.3 c 0.3,-0.1 0.2,-3.1 2.6,-2.2 0.4,0.1 0.8,1.2 0.6,1.6 -0.9,2.8 -3,0.5 -3.2,0.6 z"
   class="st1" />
		<path
   id="path26594"
   d="m 208.4,254.6 c -3.1,-3.4 -2.4,-6.2 -1.9,-9 0.6,2.6 1.1,5.1 1.9,9 z"
   class="st1" />
		<path
   id="path26596"
   d="m 129.7,192.3 c 1.8,-0.3 0.9,-2.2 1.7,-3.1 2.3,1.2 1.3,3.7 2.2,5.6 -1.3,-0.9 -2.6,-1.8 -3.8,-2.6 z"
   class="st1" />
		<path
   id="path26598"
   d="m 161,87.1 c 1.9,0.6 3.1,-1.8 4.9,-0.4 0.3,0.2 0.2,1.6 -0.1,1.8 -1.8,1 -3.4,0.9 -4.8,-1.4 z"
   class="st1" />
		<path
   id="path26600"
   d="m 193.6,244.4 c -1.9,0.7 -1.6,3.8 -4.2,3.6 -0.7,0 -1.4,-0.2 -1.3,-1 0.1,-1.1 0.7,-0.4 1.3,-0.3 1.8,0.2 1.2,-4.1 4.2,-2.3 z"
   class="st1" />
		<path
   id="path26602"
   d="m 175.5,157.9 c 0.7,1.6 1.4,3.3 2.1,4.9 -2.6,0.9 -2.6,-0.7 -2.6,-2.5 0,-0.7 -0.3,-1.4 -0.5,-2.1 0.3,-0.1 0.6,-0.2 1,-0.3 z"
   class="st1" />
		<path
   id="path26604"
   d="m 229.7,197.8 c 0.1,1 0.3,1.5 0.2,1.6 -1.7,1.1 0.2,3.6 -1.8,4.5 -0.2,0.1 -0.8,-0.3 -0.8,-0.3 0.4,-1.9 0.4,-4 2.4,-5.8 z"
   class="st1" />
		<path
   id="path26606"
   d="m 126.5,148.2 c -2.5,1 -5,1.2 -7.2,-1 2.7,-0.8 4.6,2.2 7.2,1 z"
   class="st1" />
		<path
   id="path26608"
   d="m 185.8,139.1 c -1.1,-0.8 1.4,-3 -1.1,-3.4 -0.4,-0.1 0.6,-0.6 1,-0.6 1.3,0.1 2.2,0.8 2.2,2 0,0.9 -0.8,1.6 -2.1,2 z"
   class="st1" />
		<path
   id="path26610"
   d="m 101,177.9 c 0,0.4 0,0.8 0,1.2 -1,1.6 -2.3,0.9 -3.5,0.4 0,0 0.1,0.1 0,0.1 1.5,-0.3 1.1,-2.2 2.2,-2.9 2.1,-1.3 0.9,0.8 1.3,1.2 z"
   class="st1" />
		<path
   id="path26612"
   d="m 77.7,175.6 c -1.8,0.9 -3.6,0 -3.5,-1.3 0.1,-2.4 1.1,-1.7 1.9,0 0.2,0.6 1,0.9 1.6,1.3 z"
   class="st1" />
		<path
   id="path26614"
   d="m 129.8,192.2 c -1.8,-1.1 -2.2,-2.9 -2.6,-4.7 1.8,1.1 3,2.5 2.5,4.9 0,-0.1 0.1,-0.2 0.1,-0.2 z"
   class="st1" />
		<path
   id="path26616"
   d="m 136.8,196.2 c -0.9,-1.5 -2.1,-2.8 -1.6,-4.9 1.6,1.5 2.4,3 1.5,5 -0.1,0.1 0.1,-0.1 0.1,-0.1 z"
   class="st1" />
		<path
   id="path26618"
   d="m 124.3,150.6 c -2.3,0.4 -3.6,0.8 -5,-0.2 1.5,-0.6 2.8,-0.6 5,0.2 z"
   class="st1" />
		<path
   id="path26620"
   d="m 244.3,242.7 c 0.9,2.2 0.9,3.5 0.3,5.1 -1,-1.5 -0.6,-2.8 -0.3,-5.1 z"
   class="st1" />
		<path
   id="path26622"
   d="m 148.6,156.2 c 2.4,0 3.7,0 6.2,0 -2.7,1 -4.1,1.1 -6.2,0 z"
   class="st1" />
		<path
   id="path26624"
   d="m 167.9,82.1 c 0.9,0.1 1.9,0.2 2.8,0.3 -0.5,0.5 -0.9,1.5 -1.5,1.5 -1.5,0.2 -1.1,-1.1 -1.1,-2 0,0 -0.2,0.2 -0.2,0.2 z"
   class="st1" />
		<path
   id="path26626"
   d="m 146.7,225.3 c 5.2,1.4 2.9,7.4 6.3,10 -3.4,-2.6 -5.1,-6.2 -6.1,-10.1 z"
   class="st1" />
		<path
   id="path26628"
   d="m 150.6,221.9 c 3.5,2.1 5.1,5.6 6.2,9.4 -2.1,-3.1 -4.2,-6.3 -6.2,-9.4 z"
   class="st1" />
		<path
   id="path26630"
   d="m 129.1,254.6 c 3.1,1.6 4.9,4.5 7.8,6.5 -4.1,-0.5 -5.6,-3.9 -7.8,-6.5 z"
   class="st1" />
		<path
   id="path26632"
   d="m 127.3,230.2 c 1.1,1.6 2.1,3.1 3.1,4.7 0.6,0.9 2.9,1.7 0.9,2.9 -1.2,0.7 -2,-1 -2.4,-2.3 -0.6,-1.7 -2.5,-3 -1.6,-5.3 z"
   class="st1" />
		<path
   id="path26634"
   d="m 143.5,246.9 c -3.3,-3.1 -5.8,-4.9 -6.1,-8.5 1.2,2.8 4.6,4 6.1,8.5 z"
   class="st1" />
		<path
   id="path26636"
   d="m 140.6,226.4 c 4.1,1.3 2.7,5.9 4.8,8.4 -3,-2 -3.1,-5.7 -4.7,-8.5 z"
   class="st1" />
		<path
   id="path26638"
   d="m 140.7,226.3 c -2,-3.3 -1.8,-7 -1.2,-10.7 -0.6,3.7 2.4,7 1.1,10.8 0,0 0.1,-0.1 0.1,-0.1 z"
   class="st1" />
		<path
   id="path26640"
   d="m 132.3,246.7 c -4.3,0.9 -4.2,-2.1 -5,-4.3 1.3,1.5 3,2.6 5,4.3 z"
   class="st1" />
		<path
   id="path26642"
   d="m 141.1,234.5 c 1.2,1.5 2.6,3 2.8,5.5 -2.3,-1.4 -2.5,-3.4 -2.8,-5.5 z"
   class="st1" />
		<path
   id="path26644"
   d="m 140.3,232.9 c -1.8,-2.9 -2.9,-4.4 -1.8,-6.9 1.7,1.8 1.1,3.8 1.8,6.9 z"
   class="st1" />
		<path
   id="path26646"
   d="m 131.3,223.7 c 0.8,1.8 1.8,3.6 1.7,6.4 -2.8,-2.1 -1.9,-4.4 -1.6,-6.5 0,0 -0.1,0.1 -0.1,0.1 z"
   class="st1" />
		<path
   id="path26648"
   d="m 149.9,225.7 c -1.3,-2.7 -2.1,-4.4 -3,-6 2.2,1 3.2,2.6 3,6 z"
   class="st1" />
		<path
   id="path26650"
   d="m 154.3,240.7 c -2.9,0.6 -3.8,-1.3 -4.5,-3.5 l -0.1,0.1 c 2.3,0.2 3.1,2.2 4.4,3.6 0.1,-0.1 0.2,-0.2 0.2,-0.2 z"
   class="st1" />
		<path
   id="path26652"
   d="m 141.2,251.4 c -2.2,-1 -4.1,-1.1 -5.4,-3.7 2.2,0.9 4.1,1 5.4,3.7 z"
   class="st1" />
		<path
   id="path26654"
   d="m 127.6,239.2 c 2.1,0.3 2.4,2.4 4.1,2.1 -2.4,1.4 -3.1,0 -4.1,-2.1 z"
   class="st1" />
		<path
   id="path26656"
   d="m 149.9,237.2 c -1.6,-0.8 -1.9,-2.4 -2.8,-4.6 2.2,1.4 3.2,2.6 2.7,4.7 -0.1,0 0.1,-0.1 0.1,-0.1 z"
   class="st1" />
		<path
   id="path26658"
   d="m 133.7,225.8 c 2.9,1.4 2.3,3.1 2.1,5.7 -0.8,-2.1 -1.3,-3.5 -2.1,-5.7 z"
   class="st1" />
		<path
   id="path26660"
   d="m 135.2,257.3 c 1.1,-0.5 2.4,-0.7 3.3,-0.1 0.6,0.4 -0.3,1.1 -0.7,1.4 -1.5,1 -2,-0.4 -2.6,-1.3 z"
   class="st1" />
		<path
   id="path26662"
   d="m 133.3,256.1 c -0.8,-0.8 -1.5,-1.7 -2.4,-2.7 2.2,-0.7 2.7,0.5 2.4,2.7 z"
   class="st1" />
		<path
   id="path26664"
   d="m 144.5,226.1 c 0.8,0.8 1.6,1.5 2.6,2.5 -2.1,0.6 -2.7,-0.5 -2.6,-2.5 z"
   class="st1" />
		<path
   id="path26666"
   d="m 129.7,227.3 c 0.3,1.2 0.6,2.3 1,3.9 -2.5,-0.9 -1.3,-2.5 -1,-3.9 z"
   class="st1" />
		<path
   id="path26668"
   d="m 136.7,233.1 c 2.3,0.8 2.4,2 2,4.4 -0.8,-1.9 -1.3,-2.9 -2,-4.4 z"
   class="st1" />
		<path
   id="path26670"
   d="m 146.8,225.2 c -1.8,-1.2 -2.4,-2.7 -1.4,-4.6 0,0 -0.1,0 0,0 0.2,1.6 2.2,2.8 1.3,4.7 0,0 0.1,-0.1 0.1,-0.1 z"
   class="st1" />
		<path
   id="path26672"
   d="m 133.1,231 c 1.5,0.9 2.2,1.9 1.6,3.7 -0.8,-1.1 -1.7,-1.8 -1.6,-3.7 z"
   class="st1" />
		<path
   id="path26674"
   d="m 93.7,110.1 c 0.9,2.2 -0.7,5 2.3,6.5 -4.8,-1.9 -5,-2.6 -2.3,-6.5 z"
   class="st1" />
		<path
   id="path26676"
   d="m 89.4,134.1 c 0.9,2.2 -0.9,3.6 -1.6,5.3 -1.2,-3.4 -1.2,-3.4 1.6,-5.3 z"
   class="st1" />
		<path
   id="path26678"
   d="m 87.9,141.3 c -2,1.6 1.6,2.6 0.2,4.1 -0.6,0.7 -1.1,0.2 -1.5,-0.3 -1,-1.5 -0.9,-2.8 1.3,-3.8 z"
   class="st1" />
		<path
   id="path26680"
   d="m 92.3,118.5 c 0.7,1.9 1.4,3.9 -0.9,5.4 -0.8,-2 1.6,-3.5 0.9,-5.4 z"
   class="st1" />
		<path
   id="path26682"
   d="m 91.7,146.7 c -1.5,1.7 -2.3,2.6 -3.3,3.7 -0.7,-2.6 0.5,-3.1 3.3,-3.7 z"
   class="st1" />
		<path
   id="path26684"
   d="m 95,141.8 c -0.1,2.3 -0.9,3.1 -2.5,3.1 0,-1.6 1.2,-2 2.5,-3.1 z"
   class="st1" />
		<path
   id="path26686"
   d="m 223.9,119.6 c -1.7,1.2 -3.4,2.3 -5.9,4.1 1.3,-3.4 3.5,-3.9 5.9,-4.1 z"
   class="st1" />
		<path
   id="path26688"
   d="m 228.2,114.9 c -0.1,1.4 -0.6,2.7 -2,2.8 -0.3,0 -0.6,-0.7 -0.9,-1 1,-0.7 2,-1.3 2.9,-1.8 z"
   class="st1" />
	</g>
</g>
</svg>
