<?xml version="1.0" encoding="UTF-8" standalone="no"?>
<svg
   xmlns:dc="http://purl.org/dc/elements/1.1/"
   xmlns:cc="http://creativecommons.org/ns#"
   xmlns:rdf="http://www.w3.org/1999/02/22-rdf-syntax-ns#"
   xmlns:svg="http://www.w3.org/2000/svg"
   xmlns="http://www.w3.org/2000/svg"
   xmlns:sodipodi="http://sodipodi.sourceforge.net/DTD/sodipodi-0.dtd"
   xmlns:inkscape="http://www.inkscape.org/namespaces/inkscape"
   inkscape:version="1.0 (4035a4f, 2020-05-01)"
   height="250.70023"
   width="202.33231"
   sodipodi:docname="ram-rampant.svg"
   xml:space="preserve"
   viewBox="0 0 202.33231 250.70023"
   y="0px"
   x="0px"
   id="Layer_1"
   version="1.1"><metadata
   id="metadata27403"><rdf:RDF><cc:Work
       rdf:about=""><dc:format>image/svg+xml</dc:format><dc:type
         rdf:resource="http://purl.org/dc/dcmitype/StillImage" /><dc:title></dc:title></cc:Work></rdf:RDF></metadata><defs
   id="defs27401" /><sodipodi:namedview
   inkscape:current-layer="Layer_1"
   inkscape:window-maximized="0"
   inkscape:window-y="25"
   inkscape:window-x="0"
   inkscape:cy="152.96484"
   inkscape:cx="105.004"
   inkscape:zoom="2.52"
   fit-margin-bottom="0"
   fit-margin-right="0"
   fit-margin-left="0"
   fit-margin-top="0"
   showgrid="false"
   id="namedview27399"
   inkscape:window-height="480"
   inkscape:window-width="820"
   inkscape:pageshadow="2"
   inkscape:pageopacity="0"
   guidetolerance="10"
   gridtolerance="10"
   objecttolerance="10"
   borderopacity="1"
   bordercolor="#666666"
   pagecolor="#ffffff" />
<style
   id="style27262"
   type="text/css">
  .st0{fill:#FFFFFF;}
  .st1{fill:#000000;}
</style>
<g
   transform="translate(-44.996,-47.03516)"
   id="g27396">
	<g
   id="g27394">
		<path
   id="path27264"
   d="m 136.8,292.8 c 4.9,-5.2 10.2,-8.1 15.7,-11 7.2,-3.8 12.4,-10.2 16.4,-17.4 1.9,-3.4 2.8,-6.9 1.3,-11 -0.7,-1.8 -1.3,-3.4 -2.9,-4.2 -2.2,-1.1 -3.8,-2.6 -4.5,-4.9 -1.2,-4 -2.2,-8.1 -7.6,-8.3 -0.7,0 -1.4,-0.8 -1.9,-1.4 -3.7,-4.4 -9.6,-5.2 -13.8,-1.4 -4.6,4.1 -10.7,5 -16.1,6.3 -4,1 -8.1,-3.9 -12.2,-6 -6.7,-3.5 -13.1,-7.5 -19.6,-11.4 -5.9,-3.5 -12.2,-6.5 -17.2,-11.4 -1.7,-1.7 -2.6,-3.5 0.5,-4.7 0.6,-0.2 0.9,-0.1 0.6,-1.1 -1.8,-5.8 2.9,-4.3 5,-3.5 6.8,2.4 13.5,4.5 19,10.1 4.1,4.2 9.9,7.8 16.8,7.6 1.9,0 2.7,-1 4,-2.5 4.9,-5.7 7.5,-13 13,-18.1 2.7,-2.5 6.3,-3 11,-4 -5.6,-3.1 -8.3,-8 -12.6,-11.2 -5.8,-4.3 -8.6,-11.1 -12.2,-16.9 -2.2,-3.5 -5.2,-3.6 -7.3,-3.5 -8.3,0.4 -15.7,3.8 -22.6,8.3 -5.6,3.6 -10.8,7.9 -17.2,10.6 -3.5,1.5 -6,-2.5 -8.3,-0.7 -2.4,1.9 -4.5,3.4 -7.8,3.3 -2.5,0 -4.7,-1.1 -7.2,-1.3 -1.8,-0.2 -3.1,-1.9 -0.9,-3.4 2.8,-1.9 0.7,-1.8 -0.6,-2.7 -0.9,-0.6 -2.7,-0.4 -2.6,-2.4 0.1,-2.3 2,-1.2 3,-1.8 4.2,-2.5 9,-1 13.5,-1.9 7,-1.4 11.9,-6.8 17.7,-10.4 4.9,-3 9.6,-6.5 14.7,-9.3 4.1,-2.2 4.9,-6.3 7,-9.6 0.7,-1 -0.5,-2 -1.3,-2.3 -4.2,-1.4 -5.1,-5.4 -5.3,-8.6 -1,-14 -8.7,-25.1 -15,-36.8 -2.2,-4 -3.5,-8.8 -7.5,-11.8 -0.5,-0.4 -0.8,-1.9 -0.5,-2.2 3.3,-3.3 1.1,-6.3 0.1,-9.8 -1.1,-4 1.8,-7.6 3.6,-11.2 0.4,-0.8 0.9,-0.5 1.5,-0.1 1.9,1.4 3.4,0.6 5.5,-0.4 2.4,-1.2 4.9,-0.6 4.3,3.3 -1.6,9.9 0.4,18.6 7.3,26.5 3.3,3.7 4.7,9 7.7,13.3 3.4,4.8 8.6,6.1 13.7,7.6 2,0.6 3.1,-1.1 4.1,-2.3 7.4,-9.4 17.4,-13.2 29,-13.6 3.5,-0.1 3.9,-2.3 2.9,-4.7 -1.3,-3 -3.1,-5.6 -7.3,-5.4 -5.3,0.2 -7.3,-2 -8.3,-7.5 -0.8,-4.4 1.4,-7.6 5.5,-9.2 1.8,-0.7 3.8,-0.9 5.4,-1.8 1.6,-0.9 4,0.9 4.9,-1.3 0.8,-2.1 -1,-3.9 -1.3,-5.9 -2.7,-0.3 -3.4,4.8 -6.9,2.2 -3.6,-2.6 -3.7,-7.1 0.3,-9.8 4.4,-3 9.3,-3.7 14.4,-1.4 4.9,2.2 6.6,6.3 6.6,11.4 0,1.1 -0.9,2.8 1,3.3 1.8,0.5 3.2,-0.3 4.3,-1.8 0.2,-0.3 0.5,-0.5 0.6,-0.8 4,-10.7 12.3,-13.1 22.7,-12.5 4.7,0.2 7.4,2 9.5,6.2 2.1,4.2 -0.5,6.8 -2.4,9.6 -1,1.4 -2.8,2.2 -4.6,3.6 4.9,2.8 8.7,5.5 12.8,7.1 6.8,2.5 8.7,8.5 10.7,14.1 4,10.7 -2.7,25.1 -12.7,30.7 -8.5,4.7 -16.8,5.5 -25.6,1.5 -1.8,-0.8 -2,-0.3 -2.7,1.1 -1.2,2.1 -1.2,4.6 -0.5,6.2 4.6,9.7 8.7,19.6 13.2,29.3 3.6,7.7 7.4,15.7 12.7,22.6 3.3,4.3 7.2,8 10,12.6 2.1,3.4 6,4.7 9.7,4.6 6.2,-0.3 11.4,1 15.7,6.5 3.4,4.3 6.9,8.1 7.3,13.8 0.1,2 0.7,3.9 -0.4,5.8 -2.1,3.8 -0.9,7.4 0.6,11 1.6,3.8 1.9,7.2 -1.8,10.1 -1.1,0.9 -2.1,2 -2.6,3.5 -1.8,4.9 -5.7,6 -10.3,5.2 -4.4,-0.7 -8.1,-4.8 -8.3,-9.4 -0.1,-2.1 -0.6,-3.7 -2.1,-5.2 -4.6,-4.5 -5.2,-8.8 -2.3,-14.5 1.1,-2.1 1.6,-3.9 0,-5.6 -2.1,-2.3 -4.7,-2 -5.1,0.9 -0.7,6.1 -4.8,10.4 -7,15.5 -3.5,8.2 -10.4,14 -13.8,22.1 -0.9,2.2 -3,3.5 -2,6.8 0.8,2.8 -2.6,5.1 -4.8,7 -7.4,6.4 -14.9,12.4 -21.4,19.8 -4.2,4.8 -11.2,9.1 -18.7,6.4 -3,-1.1 -5.6,-3.4 -9.2,-4.1 z"
   class="st1" />
		<path
   id="path27266"
   d="m 179.9,141.9 c 1,1.7 4.5,3.8 -0.9,4.5 4.4,1.7 8.2,8.3 7.2,12.6 -0.3,1.4 1.7,3.9 3.1,4.4 0.9,0.3 2.2,1.2 2.4,2.1 2.2,10.7 9.8,18 16.1,26.1 2.2,2.8 6.5,5.8 1.6,10.1 -0.6,-1.1 -1.4,-2.4 -2.2,-3.8 -2.5,5.3 -0.3,8.8 4.3,11.3 -2.5,2 -2.9,-1 -4.4,-0.5 0,0.4 -0.2,0.9 -0.1,1 4.2,2.1 4.3,5.1 3,9.2 -0.9,3 -1.2,6.1 -2.9,10 -0.7,-6.3 3.5,-11 0.9,-16.3 -0.1,1.7 -0.2,3.3 -0.3,5.1 -2.2,-1.5 -2.3,-1.5 -2.9,-5.7 -0.1,-0.8 0.1,-1.8 -1.1,-1.7 -0.8,0 -1,0.8 -0.9,1.5 1,3.6 -2.5,5.1 -3.9,7.3 -1.2,2 -3.2,4.3 -5.4,5.9 0,1.1 -1,1.4 -1.7,2 1.1,-0.2 1.6,-1 1.5,-2.1 0.9,0.1 1.7,2.1 2.8,0.4 2,-3.2 5.7,-4.7 7.7,-9.2 2.3,6.3 0,11 -0.8,16.5 -2,-1.3 -0.7,-3.7 -3.1,-3.8 0,4.3 -4.4,6.8 -5.5,11.7 3.5,-1.2 4.9,-3.6 6.2,-6 2.6,3.7 2.3,5.8 -2.1,7 -2.4,0.7 -2.5,1.8 -3.6,3.4 -2.2,3.4 -2.8,7.8 -6.2,10.6 -0.5,0.4 -0.2,2.2 -1.6,1.4 -1,-0.6 0,-1.3 0.3,-2 1.5,-3.4 -0.2,-5.4 -3.7,-7.4 1.1,3.3 4.1,5.2 1.3,8 -0.6,0.5 -0.2,1.1 0.1,1.8 3,5.9 2.8,6.5 -2.9,11.8 -1.7,-0.7 0.8,-1.9 -0.4,-2.8 -6,5.5 -10,12.6 -15.6,18.5 -4.4,4.6 -9.2,4.1 -14.1,5.1 l 0.1,0.1 c -1.1,-1.4 -1.8,-4.3 -3.6,-0.5 -1.1,2.3 -2.9,3.5 -5.8,2.6 2.6,-3.8 5.9,-6.5 10.4,-7.6 1.5,-0.4 2.7,-0.8 3.8,-2 6.7,-7.1 15.1,-12.9 17.7,-23 0.4,-1.6 1.1,-1 2.1,-0.6 2.9,1.1 5.8,2.1 9.3,2.8 -6.8,-2.1 -2,-6.7 -2.4,-10.3 -3.4,2.7 -6.2,6.6 -11.6,2 4.5,1.4 6.5,-0.2 7.3,-3.9 -2.1,-0.4 -3.2,3.4 -5.6,1.5 -3.9,-3.2 -8.2,-5.9 -9.9,-11.1 -0.4,-1.2 0.9,-1.1 1.1,-1.6 0.9,-1.5 1.8,-2.8 0.4,-4.9 -2.7,-4 1.4,-7 2.5,-10.5 0.2,-0.7 0.9,-0.5 1,0.9 0,0.6 -0.3,1.4 0.5,1.6 1.1,0.3 1.1,-0.7 1.5,-1.4 1,-1.4 -1,-3 0.5,-4.2 -4.1,-1.7 0.9,-3.2 -0.2,-4.7 -3.5,0.9 -3.6,1.2 -2.7,5 0.1,0.4 -0.1,1.2 -0.3,1.2 -4.8,1 -4.5,5.6 -6.1,9.5 -1.6,-7.1 2.4,-11.9 5.7,-16.1 2.3,-2.9 3.7,-5.7 3.7,-8.9 0.1,-3.4 1.2,-5.6 4,-7.1 0.7,0.4 1.3,0.7 1.8,1.4 0,0 0.2,0.3 0.2,0.3 0,0 -0.2,-0.3 -0.2,-0.4 -0.4,-0.8 -1.2,-0.9 -1.9,-1.2 1.1,-2.6 -0.6,-4.7 -2.4,-5.3 -4.5,-1.5 -4.9,-5.2 -5.7,-9.1 -3.2,3.1 -1.4,6.8 0.3,8 4.4,3.2 4,6.5 2.2,10.5 -0.3,0.6 -0.1,1.3 -0.1,1.9 -1.7,0.7 0.2,-3.3 -2.5,-1.7 -1.4,0.8 -1.9,1.9 -1.2,2.6 2.1,2 0.6,4 0.6,6.6 -2.2,-9 -2.2,-9 1.3,-13.9 -3.1,1.1 -5.5,1.4 -3.5,-2.6 -2.1,-2.5 -1.4,5.1 -4,0.9 -0.4,-0.6 -1.8,-0.2 -1.6,-1.5 0.3,-1.2 1.1,-0.6 1.9,-0.5 1.9,0.3 1,-1.7 0.9,-1.8 -2.6,-1.8 -6,-2.6 -7.1,-6.2 -3.9,2.8 -3.7,-2.8 -6.8,-2.9 0.2,3 1.7,5.6 4.2,6.4 4.1,1.3 4.9,4.3 6,8.2 -3.6,-0.9 -4.6,-4.2 -7,-5.7 -1.6,-1.1 -2.7,-2.6 -4.6,-2.6 -1.5,0 -1.5,0 -1.9,-4.5 -0.7,0.9 -1.4,1.7 -2.3,2.8 -0.6,-1.4 -1.7,-3.2 -1.3,-3.6 2.6,-3 -3.1,-4.3 -1.2,-6.9 -1.4,-0.9 -1.5,1.6 -2.7,1 -0.5,-2.6 -0.4,-4.9 3.7,-6 -5.3,-1.3 -4.7,2.1 -5,3.8 -6.4,1.4 -3.9,-5.1 -6.6,-6.8 2.8,-2 -3.2,-3 -0.5,-4.9 -2.5,-0.8 -3.4,0.5 -4,2.8 -0.2,0.8 -1.3,-0.4 -1.6,-0.9 -0.7,-1.5 1.7,-1.8 1.5,-3.1 -1.1,-1.8 -2.7,1.7 -3.6,-0.5 -0.2,-0.4 0.4,-1.7 0.5,-1.6 2.4,0.4 4.7,-3.5 6.5,-1 2.1,2.9 6.9,4.7 5,9.9 -0.5,1.3 -0.1,2.9 0.4,4.4 0.6,-3.9 4.3,-7.3 0.1,-12 -1.8,-2 -2.8,-6.8 0.1,-10.4 2.3,2.9 5.1,4.7 8.7,5 0.7,0.1 1.2,1.2 2.9,0.4 -1.4,-2.7 -4.1,-3.6 -6.4,-4.7 -0.5,-0.2 -1.4,0.4 -1.8,-0.7 -0.8,-2.7 -1.9,-3.9 -4.5,-1.3 -1.9,1.9 -2.2,-2.4 -4.3,-1.5 0,0.5 -0.1,0.9 0,1.3 0.2,1.4 3.6,1.7 1.8,3.5 -0.8,0.8 -2.3,-1.7 -3.7,-2.1 -1.3,-0.4 -1,-3.3 -2.6,-2.1 -2.5,1.9 0.7,2 1.4,2.8 1.8,2 0.6,3.4 -1,4.5 -2.4,1.8 -4.5,0.8 -6.2,-1.3 -0.4,-0.5 0.1,-1.7 -1.1,-1.8 -2.2,1.1 -1.7,5.1 -3.2,5 -5.2,-0.5 -6.4,-2 -7.7,-6.6 1.7,0.1 2.1,1.9 3.4,2.4 1.4,-0.9 1.7,-2.6 2.4,-4.3 -2.1,2.9 -5.1,-2.5 -7.1,1.1 -1.5,2.7 -3.2,5.2 -4.9,8 2.5,0.9 2.8,-1.2 3.5,-2.7 1.4,2.7 0.2,4 -1.8,4.8 -9.4,3.6 -17.5,9.3 -25.9,14.7 -2.4,1.6 -5.6,4.5 -9.1,0.9 -1.1,-1.1 -2.3,0 -3.4,0.9 -4.6,3.7 -4.7,3.6 -10.9,2.2 1,-2.5 4.9,-0.8 5.7,-4 -2.8,-1.4 -6.3,0.7 -8.9,-1.8 4.3,-2.8 9.1,-1 13.4,-2 7.7,-1.7 13.5,-7.2 20.1,-11 4,-2.3 7.7,-5.2 11.7,-7.7 2.8,-1.8 2.8,-1.6 5.2,1 0.5,0.5 0.9,1.4 1.6,-0.2 1,-2.3 2.4,-4.3 3.8,-6.6 -2.5,-0.6 -2.8,2.3 -4.6,2.4 1.5,-3.6 3.2,-5.3 4.7,-4.8 2.2,0.7 3.4,3.5 6.6,2.7 -3.6,0 -0.8,-5.8 -5.3,-4.9 0,-0.4 -0.2,-1 0,-1.3 0.4,-0.5 0.7,-1 1.9,-0.8 3,0.4 6,-3 5.6,-5.8 -0.1,-1 -0.8,-0.8 -1.4,-0.5 -0.5,0.2 -1.1,1.1 -1.3,-0.2 -0.1,-0.9 0.6,-1.4 1.5,-1.6 1.7,0 3,-1.2 4.8,-0.9 1.4,0.3 3,2 4.5,-0.5 -3.2,1 -6.4,-0.1 -9.4,1.4 -1.2,-1.4 -3.9,-2 -1.8,-5 1.9,-2.7 3.9,-2.9 5.7,-1.1 1.3,1.3 2.3,2.2 4.4,2.7 0.2,-3.6 -7,-6 -1.1,-10.1 -1.7,2.3 -5.6,0.4 -6.4,3.9 -0.1,0.2 -2.1,0.4 -2.8,-0.1 -1.1,-0.8 -0.8,-2 0.1,-3 0.5,-0.6 0.4,-2.9 1.7,-0.3 0.2,0.4 2.5,-0.6 3.3,-1.9 -0.7,-1.8 -2,0.9 -2.5,-0.2 -1,-2 0.9,-2.9 2.4,-4.6 0.4,3.4 1.7,5.2 5.1,3.8 -1.4,-1 -3.8,-2 -2.5,-3.9 1.7,-2.6 2.4,2.3 4.7,0.7 -0.3,-2.3 -5.4,-4.9 -0.2,-7.8 2.6,-1.4 3.7,-5.6 8.1,-3.4 -1.7,-3.4 -1.7,-3.4 7,-6.2 0.7,3.7 -9.5,3.4 -2.6,9.4 -2.4,-5.5 3.2,-4 4.5,-6.4 0.6,-1.2 4.1,-0.6 2.5,-3.6 0.9,-0.2 1.8,-1.6 2.7,-0.5 2.1,2.6 2,2.6 4.4,-0.4 0.4,-0.5 1.2,-0.8 1.9,-1.1 1,5 5.6,-1.9 7,2.1 0.2,0.6 1.1,0.8 1.7,0.1 3.9,-4.4 3.5,0.6 4.7,2.3 1.4,-1.3 2.7,-2.6 4.1,-3.9 1,1.9 -0.9,2.3 -1.5,3.3 -0.3,0.5 -1.2,1.3 -0.5,1.4 5,0.5 1.2,3.3 1.3,4.9 0.1,2.8 0.5,5.9 -2.5,7.7 -0.5,-0.2 -1.2,0.4 -1.5,-0.4 0.3,0.9 1,0.2 1.4,0.3 1.5,2 4.8,-1.2 5.1,1.1 0.4,2.4 -4.7,1 -4.8,4.3 -2.6,-1.3 -5.4,1.1 -8.3,-1.2 2.2,5.2 7.5,2.2 10.3,5.1 0.4,0.4 2,-2.2 2.9,-3.5 0.5,-0.6 0.9,-2.5 2.5,-1.4 1.8,1.3 -0.2,1.9 -0.7,2.5 -1.7,1.8 -1.5,3 0.6,4.5 2.1,1.5 0.3,4.2 1.1,6 1.8,3.8 -2,1.7 -3.1,3.3 6.8,-0.4 7.5,4.8 9.1,9.2 -0.2,0.4 -0.5,0.4 -0.8,0.2 1,0.1 0.9,-0.8 1.1,-0.8 z"
   class="st0" />
		<path
   id="path27268"
   d="m 154,207.9 c 2.4,3 -2.3,3.1 -2.1,5.2 -0.1,0.2 -0.3,0.3 -0.4,0.5 -3.3,4.4 -7.7,7.2 -12.8,8.7 -4.8,1.3 -2.7,-2.5 -3.1,-4.5 0.5,2 -2.5,7 3.5,4.1 5.2,-0.4 9,-3.8 13.3,-6.3 0.2,0.1 0.4,0.1 0.7,0.2 1.1,3.5 -2.2,5 -3.8,5.7 -2.1,1 -4.3,1.1 -5.2,3.7 -2.4,-1.6 -4.6,4.5 -7.1,0.2 -0.1,-0.1 -0.8,0.1 -1.1,0.3 -0.4,0.2 -0.7,0.6 -0.2,1.1 0.9,0.9 1.7,2 3.1,2.3 -2.2,2.7 -2.2,2.5 -6.2,2.9 -1.5,0.1 -3.1,1.1 -4.1,2.2 -2.7,2.8 -5.5,1.9 -8,0.3 -9,-5.7 -19,-9.3 -28.2,-14.6 -0.5,-0.3 -2.2,0.4 -1.6,-0.9 2.4,-5.2 -1.6,-4.1 -4,-4.1 -2.4,0.1 -4,-0.9 -5.5,-2.5 -1.4,-1.5 -3,-2.9 -4.5,-4.3 1.7,-1 3.5,0.4 5.3,1 0.2,-3.3 -3,-3.7 -3.6,-6.4 5.8,3.7 12.4,4.6 17.5,9.9 4.8,5 11.7,7.9 19,8.2 2.6,0.1 4.6,3.4 7.7,1.3 0.5,-0.3 0.8,1.4 0.6,2 -1.2,3.9 0.9,4.5 4.1,5 2.8,0.4 5.5,1.7 8.9,1.1 -2.1,-2.9 -7,-0.3 -7.4,-4.9 0,-0.2 -1.5,2.2 -3.6,1.2 3.9,-3.9 -1.6,-7.2 -0.7,-11.9 1.8,4 4.5,5.4 8.1,5.3 -1,-1.9 -1,-1.7 -3.9,-2.3 -1.4,-0.3 -1.8,-1.8 -1.4,-3.2 1.5,-4.2 3.5,-8.2 5.9,-12 2.2,-3.3 4.9,-4.4 8.7,-1.8 -0.5,-0.8 -1,-1.6 -1.6,-2.7 1.5,0.4 2.7,0.7 3.9,1 0.4,0.1 1.1,0 1.4,-0.3 1.1,-1.2 2.4,-2 2.9,-1.6 3.1,1.9 1.3,3.7 -0.2,5.7 3,0.7 2.5,-1.9 3.3,-3.2 0.9,0.3 0.5,1 0.6,1.5 0.6,2.5 -2.4,2.4 -2.9,3.9 -0.7,2.5 4,-1.4 2.8,2.2 -0.1,0.1 -0.2,0.3 -0.3,0.4 -0.3,0.2 -0.4,0.4 -0.4,0.7 0,0.1 0.2,0.2 0.4,0.1 0.7,0.1 1.5,-0.3 2.2,-0.4 z"
   class="st0" />
		<path
   id="path27270"
   d="m 190,73.9 c -0.8,1.7 0.8,6.1 -4.1,3.3 -1.1,-0.6 0.8,1.4 -0.1,2.5 -2.8,3.2 -2.1,6.2 1.1,9 -2.3,-0.9 -4.4,-0.4 -6.8,-2.7 -3.7,-3.7 -4.3,2 -4.8,3.7 -0.6,2.3 -2,2.8 -3.6,3.1 -0.7,0.1 -2.1,-0.6 -2.4,-1.4 -0.7,-1.4 0.6,-1.4 1.6,-1.5 0.4,0 1.2,-0.2 0.6,-0.8 -0.5,-0.5 -1.9,-1 -2,-0.9 -1.4,2.3 -3.6,-0.1 -5.4,1.1 0.6,0.6 1.1,1.2 1.8,1.5 0.7,0.3 1.2,0.4 0.5,1.2 -0.4,0.5 -0.7,0.8 -1.5,0.2 -1.6,-1.2 -1.8,-4 -4.5,-4 -1.4,1.6 1.8,2 1,3.8 -3.1,-1.9 -4,-5.3 -6,-8.2 -0.2,0.9 -0.3,1.7 -0.7,3.5 -3.4,-6.5 -10.2,-6.1 -15.2,-9.7 2.8,0 5.5,0 8.3,0 0.4,0 0.8,-0.3 1.2,-0.2 1.3,0.2 -2.5,2.8 0.9,1.9 0.6,-0.2 1.2,-1.9 0.4,-3.3 -1,-1.7 -1.9,-1.2 -3.2,-0.6 -2,1 -4.2,0.3 -6.4,0.4 -1,0 -2.5,0.7 -2.6,-1.3 -0.1,-1.8 1.1,-1.7 2.3,-1.7 1.9,0 3.8,0.1 3.5,-2.7 -0.4,-0.1 -0.7,-0.2 -1,-0.2 -1.2,-0.1 -2,3.3 -3.2,0.7 -0.5,-1.1 1.3,-2.2 2.7,-2.7 4.7,-1.6 9.6,-2.8 14.6,-2.9 8.5,-0.2 17,-0.1 25.8,-0.1 -0.8,2.1 -1.9,3.4 -4.4,3 0.7,1.6 1.8,0.7 2.5,1.1 1,0.5 2.9,0.6 2.6,1.9 -0.4,1.9 -2.1,-0.5 -3.7,0.7 3.6,1.8 7,2.1 10.4,2.4 z"
   class="st0" />
		<path
   id="path27272"
   d="m 190.1,74.1 c -0.7,-1.6 -2.7,-1.4 -3.9,-2.8 5.9,-1 11.4,-0.5 16.2,3 0.1,0.1 -0.7,1.6 -1.6,3.3 5.3,-4.3 8.2,-0.1 10.4,2.4 7.9,9.3 5.9,27.2 -3.3,35.6 -3,2.7 -5.6,-0.6 -8.4,-0.4 -0.3,2.6 2.3,1.2 3.2,2.3 -3.9,5.9 -7.5,1.9 -11.6,0 0.9,1 1.8,2.1 3.1,3.7 -3.4,-0.5 -4.2,-3.6 -6.7,-4.3 -0.6,1.7 2.2,2.2 1.2,3.8 -0.3,0.1 -0.6,0.4 -0.8,0.3 -1.9,-1 -1.6,-4.2 -6,-2.9 -4.8,1.5 -11.4,-10.1 -10.2,-15.5 1.4,-6.8 5.4,-10.4 11.9,-11.4 3.4,-0.5 6.3,0.6 8.4,3.3 3,3.8 5.5,7.8 3.1,12.9 -1.5,3.2 -3.4,6.1 -8,5.6 1.7,-3.2 5.6,-4.6 5,-9.1 -0.4,-3.4 -1.4,-5.8 -4.5,-6.7 -4.4,-1.3 -9.3,0.7 -10.6,4 -3.3,8.7 1.5,13.3 9.5,14.8 8.8,1.7 20.1,-6.4 22.2,-15.2 1,-4.4 -2.7,-12.2 -6.9,-14.3 -3.2,-1.6 -6.3,-3.3 -9.7,-4.3 -3.6,-1 -2.5,-2.8 -0.9,-4.1 1.7,-1.4 2.1,-3.3 3.8,-4.7 -2.2,-0.8 -3.1,2.8 -5.1,0.6 0.1,-0.1 0.2,0.1 0.2,0.1 z"
   class="st0" />
		<path
   id="path27274"
   d="m 242.1,242.9 c -0.1,1.4 -2,0.9 -2.2,2.8 -0.3,2.4 -2.5,4.7 -4.7,4.7 -5.5,-0.1 -8.9,-3 -9,-7.4 -0.1,-2.4 -0.7,-4.5 -1.8,-6.5 4.5,-0.7 4.5,-0.7 8,-6.2 -2.9,0.8 -3.7,3.5 -5.8,4.6 1,-4.6 5.2,-6.4 8.5,-9.1 -5.5,-2.3 -5.3,5.1 -9.8,4.8 1.4,-4.5 8.8,-7.7 3.8,-14 -1.3,-1.6 -2.7,-1.6 -5,-1.3 1.8,1.9 3.3,3.6 4.9,5.3 -1.1,1 -1.8,-0.2 -3.2,-0.3 4.3,5.7 -5.3,8.4 -1.9,13.8 -4.6,-3.1 -1,-5.7 -0.1,-8.8 -0.8,0.5 -1.5,1 -3.6,2.4 6,-8.6 5,-13.7 -4.9,-14.9 4.3,-3.9 8.5,1.6 13,-0.4 -1.1,-2.6 -3,-4.4 -5.7,-4 -1.3,0.2 -1.9,-0.2 -2.2,-0.9 -0.9,-2.9 -2.2,-1.3 -3,-0.1 -0.6,0.8 -0.6,2 -1.7,0.6 -0.7,-0.9 -0.8,-2.5 -0.2,-2.6 4,-0.9 6.4,-4.2 9.8,-6 0.9,-0.5 1.5,-0.2 2.2,0.3 3.7,2.8 8.7,3.6 11.7,7.7 2.4,3.4 3.3,7.1 4.2,11.4 -2.7,-1.1 -3.3,-2.8 -3.1,-5.1 0.3,-4.4 -3.4,-6.5 -6,-9.1 -0.5,-0.5 -2.3,0.3 -3.6,0.8 3.5,0.4 5.4,2.5 7.1,5.3 1.7,2.9 -0.8,6.1 1.6,8.9 3.4,3.8 -3.4,4.8 -2.6,8.2 1.9,0.9 2.1,-2.6 4.4,-1.4 -0.1,3 -3.2,3.9 -4.8,4.4 -2.9,0.8 -4.2,2.7 -4.7,5 -0.1,0.7 -0.3,6 4.2,3.5 0.4,1.4 2,2.5 1.3,4 -0.5,1.1 -1.4,1.3 -3,1.3 -6.1,0 -3,-4.8 -4.2,-7.6 -1.3,2.6 -4.4,4.2 -1.9,7.3 1,1.2 1.1,4.9 3.5,1 0.1,-0.2 0.9,-0.2 1.3,-0.1 3.6,1.4 5.2,0.6 6.4,-3 0.5,-1.4 1.1,-2.8 -1,-3.3 -2.8,-0.7 -1.3,-4.6 -4,-5.3 1,-2.5 4.3,-1.4 5.5,-3.6 0.1,-0.1 1.1,0 1.2,0.3 1.4,2.8 3.1,5.6 4.1,8.7 0.7,2 -1.4,3.1 -2.9,4 -1.1,-2.2 1.7,-5.1 -0.6,-6.2 1.2,1.2 -0.6,4 0.5,6.1 z"
   class="st0" />
		<path
   id="path27276"
   d="M 74,80.1 C 75.8,80 77.2,79.9 79.2,79.8 75.7,76.4 71.8,73 80.1,69.2 77.2,69 75.7,68.9 73.7,68.7 c 1.5,-1.9 0.8,-4.4 2.9,-5.6 1.9,0.7 1.3,3.9 4,3.7 1.5,-1.6 -0.8,-4.6 2.1,-5.6 1.8,2.9 0.5,6.3 0,8.7 -1.3,6.4 1.4,11.2 4.8,15.4 5,6.7 8,14.5 13.5,20.7 4,4.5 -1.7,4.5 -3.1,6.2 -0.7,0.8 -2.1,1.9 -3.3,2.7 -0.8,-1.2 -1.6,-2.3 -3.1,-4.4 4.3,2.9 4.6,-1.8 8.1,-1.6 -3.1,-1.7 -4.8,1.3 -7,-0.1 0.8,-1.6 2.7,-1.5 4.1,-2.3 -3.2,1.5 -4.4,-4.2 -7.8,-2.1 -0.1,0.1 -1.4,-1 -1.3,-1.3 1.7,-4.8 -4.4,-4.8 -5.1,-8.6 C 81.8,90.8 79,87.4 77,83.9 76.2,82.6 75.1,81.5 74,80.1 Z"
   class="st0" />
		<path
   id="path27278"
   d="m 172.2,62.8 c 5,-10.7 11.4,-14.1 22.4,-11.8 3.1,0.6 5.2,4.5 4.4,7.5 -1.2,4.3 -4.6,6.8 -7.7,9.3 -1.5,1.2 -4.2,0.4 -6.4,1 -1,0.3 -2.5,-1 -0.8,-2.5 1.5,-1.3 2.9,-2.6 0.4,-4.2 -1.9,-1.3 -3.9,-3.7 -6.3,-0.9 -1.6,2.1 -3.5,2 -6,1.6 z"
   class="st0" />
		<path
   id="path27280"
   d="m 96.8,120.3 c -3.6,-3.7 1.2,-4.8 2.4,-6.1 2.3,-2.5 4.7,-5.8 9.3,-4.1 4.3,1.6 2.9,3.8 0.8,6.1 -0.7,0.8 -1.8,1.5 -2.9,1.7 -1.7,0.4 -1.9,1.7 -1.2,2.5 1,1.1 1.3,-1.4 2.5,-0.9 -1.3,5.1 -3.9,9.5 -6.7,15.3 0.5,-3.2 -1.9,-5.4 1.3,-7.5 -2.6,-0.3 -3.9,0.9 -5.2,2.7 -0.8,-5.6 5.6,-3.2 6.6,-6.7 -2.5,-0.2 -5.1,1.2 -7.5,0.1 -0.4,-0.2 -0.9,-2.4 0.7,-3.2 3,-0.3 5.3,-1.4 6.2,-5.9 -2.4,2.7 -3,6.1 -6.3,6 z"
   class="st0" />
		<path
   id="path27282"
   d="m 142.9,56.8 c 0.5,-5.3 3.4,-7 6.5,-7.7 3.7,-0.8 7.2,0.7 9.5,3.6 1.4,1.8 2.7,4.1 2.2,6.7 -0.3,1.3 1.1,3.6 -1.9,3.5 -2.1,0 -3.6,-0.2 -4.2,-3 -1.6,-7.4 -4.8,-9.1 -10.3,-5.9 -0.5,0.4 -0.8,1.2 -1.8,2.8 z"
   class="st0" />
		<path
   id="path27284"
   d="m 157.9,234 c -3.5,-2.2 -5.5,-5.7 -3.8,-9.7 2.7,-6.1 4.1,-12.6 6.4,-19 -1.8,3 3.6,5.2 0.9,8.5 -0.3,0.4 1.8,-1.3 2.5,-0.1 -5.9,5.7 -4.4,13.1 -6,20.3 z"
   class="st0" />
		<path
   id="path27286"
   d="m 192.4,114.8 c 3.3,-4 8.9,-6.4 9.6,-12.4 0.6,-5.5 -0.2,-10.8 -4.8,-14.8 3.1,0.3 3.1,0.3 5.2,5.1 0.3,0.7 4.2,-0.5 1.1,2 2.9,0 1.7,3 2.8,4.4 1.8,2.5 -1.2,5.4 -2.5,7.4 -2.6,3.9 -6.7,6.7 -11.4,8.3 z"
   class="st0" />
		<path
   id="path27288"
   d="m 198.2,104.5 c 0.4,-3.9 -0.8,-7 -3.1,-10 -2.1,-2.6 -4.2,-5.4 -2.8,-9.1 7.7,6 9.2,10.6 5.9,19.1 z"
   class="st0" />
		<path
   id="path27290"
   d="m 187.8,100.1 c 3.8,6.6 -2.3,8.5 -3.9,12.1 -0.5,1.1 -1,0.1 -1.4,-0.2 -0.7,-0.7 -0.8,-1.4 0,-2.1 2.8,-2.3 3.9,-5.7 5.3,-9.8 z"
   class="st0" />
		<path
   id="path27292"
   d="m 152.5,289.6 c 0.3,1.5 3.6,1.5 2.4,3.5 -1.1,1.9 -3.3,2.2 -5.5,1.7 0.3,-2.2 1.9,-3.6 3.1,-5.2 0.1,0 0,0 0,0 z"
   class="st0" />
		<path
   id="path27294"
   d="m 154,207.9 c -0.8,1.1 -1.3,3 -3.1,1 -0.5,-1.1 0.6,-1.4 1.1,-2 0,0 -0.1,0.2 -0.1,0.2 1,-0.4 2.3,-1.9 2.1,0.8 z"
   class="st0" />
		<path
   id="path27296"
   d="m 151.9,213.1 c 1.7,-0.2 2.9,0.4 2.9,2.2 0,1 -1.2,0.7 -1.9,0.7 0,0 0.2,0.1 0.2,0.1 -1.4,-0.7 -3.7,-1.1 -1,-3.1 z"
   class="st0" />
		<path
   id="path27298"
   d="m 179.6,244.5 c 0.2,0.6 0.5,1.4 -0.5,1.4 -1.3,-0.1 -2.4,-1.2 -2,-2.3 0.9,-2.4 -0.5,-4.1 -1.5,-6.9 2.6,1.4 4.5,3.3 7,0.3 0.1,3.9 -5.9,3.8 -2.9,7.7 z"
   class="st1" />
		<path
   id="path27300"
   d="m 124.1,116 c 1.2,2.7 -0.1,6.8 4.3,5.2 0.2,-0.1 1.3,1.1 1.2,1.3 -0.5,1.1 -2.6,-0.2 -2.9,1.9 -0.1,1 -1.3,0.7 -1.9,0 -1.7,-2.2 -3.1,-4.5 -0.7,-8.4 z"
   class="st1" />
		<path
   id="path27302"
   d="m 192.9,183 c -0.4,-0.3 -1,-0.5 -1.1,-0.9 -1,-2.8 -1.8,-5.7 -2.4,-8.7 2.5,2.3 4.7,4.6 4.7,8.4 0.3,1.2 -0.2,1.5 -1.2,1.2 z"
   class="st1" />
		<path
   id="path27304"
   d="m 112.5,133.5 c 2.8,-2.4 6.6,-1.1 9.7,-2.5 0.1,0 2.3,0.1 0.8,0.7 -1.8,0.8 0.8,5.1 -2.6,3.1 -2.6,-1.5 -5.1,-1.5 -7.9,-1.3 0.1,0 0,0 0,0 z"
   class="st1" />
		<path
   id="path27306"
   d="m 124.1,129.9 c -0.1,-2.1 1.2,-2.2 1.7,-2.1 2.8,0.2 5.6,0.9 8.4,0 0.6,-0.2 1.4,0.6 3.1,1.4 -5.6,1.7 -9.4,-0.5 -13.2,0.7 z"
   class="st1" />
		<path
   id="path27308"
   d="m 149,172.2 c -2.8,2.8 -2.1,4.5 -0.3,6.2 0.6,0.5 0.6,1.7 -0.1,2.2 -0.4,0.3 -1.3,0.4 -1.8,0.3 -1.1,-0.3 -0.3,-1.2 -0.4,-1.9 -0.5,-2.4 -4.6,-5.4 2.6,-6.8 z"
   class="st1" />
		<path
   id="path27310"
   d="m 192.3,242.6 c -1.4,2.4 -2.9,3.2 -4.4,4 -1.6,0.9 -3.4,0.3 -3.6,-1.2 -0.4,-2.6 1.3,-1.2 2.3,-0.7 0.9,-3.7 3.5,-0.7 5.7,-2.1 z"
   class="st1" />
		<path
   id="path27312"
   d="m 172.8,240.3 c -0.7,1.5 -1.4,3 -2.2,4.6 -1.6,-1.8 -3.9,-2.9 -4.6,-5.5 2.6,-1.7 3.7,6.2 6.8,0.9 z"
   class="st1" />
		<path
   id="path27314"
   d="m 159.8,122.5 c -1.7,2.2 -4,2.7 -6.5,2.5 -0.7,-0.1 -1.3,-0.3 -1.2,-1.1 0,-0.3 0.4,-0.7 0.4,-0.7 2.6,1.3 4.7,-2.6 7.3,-0.7 z"
   class="st1" />
		<path
   id="path27316"
   d="m 171.6,126 c -1.6,0 -3.1,0.1 -4.6,0 -1,-0.1 -1.8,-0.8 -1.9,-1.9 0,-0.3 0.5,-0.9 0.8,-0.9 0.9,0 1.8,0.2 2.7,0.3 -0.9,3.2 2.7,0.3 3,2.5 z"
   class="st1" />
		<path
   id="path27318"
   d="m 150.9,124.3 c -2.2,-0.5 -4.8,-0.3 -5.6,-3.2 2.3,0.2 4.1,1.5 5.6,3.2 z"
   class="st1" />
		<path
   id="path27320"
   d="m 128.4,117.9 c -1.8,-2.1 -1.7,-3.5 -0.8,-4.7 0.2,-0.3 1.2,0.1 1.9,0.1 -0.3,1.2 -0.6,2.5 -1.1,4.6 z"
   class="st1" />
		<path
   id="path27322"
   d="m 170.9,128.9 c -2.4,0 -4.4,0 -7.7,0 3.3,-1.2 5.3,-2.7 7.7,0 z"
   class="st1" />
		<path
   id="path27324"
   d="m 173.8,236.3 c 0.3,1 0.1,1.7 -0.7,1.6 -1.3,-0.1 -2.2,-1 -2,-2.2 0.1,-0.8 1,-1.8 2.1,-1.6 1.8,0.3 -2,2.3 0.6,2.2 z"
   class="st1" />
		<path
   id="path27326"
   d="m 187,239.2 c 1.7,0 3.1,0 5.1,0 -1.9,2.4 -3.4,2.5 -5.1,0 z"
   class="st1" />
		<path
   id="path27328"
   d="m 193.6,224.6 c 1.6,6.6 -2.9,1.1 -4.1,2.1 1.1,-1.3 3.4,0 4.2,-2 0.1,0.1 -0.1,-0.1 -0.1,-0.1 z"
   class="st1" />
		<path
   id="path27330"
   d="m 192.9,183 c 0.4,-0.4 0.8,-0.8 1.2,-1.2 1,0.3 1.1,1.2 0.9,2 -0.2,1.2 -1,2.4 -2.2,1.9 -1.2,-0.4 0.9,-1.7 0.1,-2.7 z"
   class="st1" />
		<path
   id="path27332"
   d="m 165.3,112.3 c -0.7,0.9 -1.8,0.9 -2.7,0.6 -0.6,-0.2 -1.1,-1.1 -1.5,-1.8 -0.1,-0.2 0.3,-1 0.6,-1 1.1,-0.2 1,0.9 1.5,1.4 0.5,0.5 1.4,0.6 2.2,0.9 0,0 -0.1,-0.1 -0.1,-0.1 z"
   class="st1" />
		<path
   id="path27334"
   d="m 169.7,229.3 c -0.2,1.5 -0.2,2.9 0.6,5.1 -2.9,-2.1 -2.7,-3.6 -0.6,-5.1 z"
   class="st1" />
		<path
   id="path27336"
   d="m 179.9,141.9 c 0.3,4.1 -2.4,-0.6 -3.2,1 -0.1,0.2 -1,-0.8 -0.6,-1.4 0.9,-1.2 1.6,0.1 2.4,0.4 0.4,0.2 1,0.1 1.5,0.1 0.1,0.1 -0.1,-0.1 -0.1,-0.1 z"
   class="st1" />
		<path
   id="path27338"
   d="m 114,155 c -0.1,1 -0.9,1.6 -1.8,1.9 -0.7,0.2 -1.4,-0.3 -1.1,-1 0.3,-0.7 0.9,-1.4 1.5,-1.7 0.5,-0.4 1.2,-0.1 1.4,0.8 z"
   class="st1" />
		<path
   id="path27340"
   d="m 175.7,198.3 c 1.1,-0.1 1.6,-2 2.8,-1 1.4,1.1 -0.7,1.8 -0.6,2.8 L 178,200 c -1.5,0.4 -2.2,-0.2 -2.2,-1.8 0.1,-0.1 -0.1,0.1 -0.1,0.1 z"
   class="st1" />
		<path
   id="path27342"
   d="m 122,154.6 c 0.4,-0.4 1,-0.8 1.6,-1.3 0.4,0.5 1.2,1.1 1.1,1.4 -0.2,0.5 -0.9,1.1 -1.4,1.2 -0.8,0.3 -1.3,-0.2 -1.3,-1.3 z"
   class="st1" />
		<path
   id="path27344"
   d="m 198.7,186.1 c 0.7,2 0.1,3 -1.3,3.7 -0.9,-1.6 -0.4,-2.8 1.3,-3.7 z"
   class="st1" />
		<path
   id="path27346"
   d="m 193.8,235.3 c -1.2,1.9 -2.4,1.8 -3.7,1.4 0.9,-1.7 2.1,-2.1 3.7,-1.4 z"
   class="st1" />
		<path
   id="path27348"
   d="m 177.9,200.1 c 1.4,-0.2 2.3,0.1 2.1,1.7 -0.1,0.8 -0.5,1.4 -1.2,1.1 -1.5,-0.6 -0.6,-2 -0.7,-3 0,0 -0.2,0.2 -0.2,0.2 z"
   class="st1" />
		<path
   id="path27350"
   d="m 96.3,162.8 c 0,-2.6 2.4,-2.7 1.4,-5.1 1.6,1.4 1.5,2.3 1,3 -0.4,0.6 -1.1,1 -2.4,2.1 z"
   class="st1" />
		<path
   id="path27352"
   d="m 135.7,125 c 1.1,0 1.6,0.6 1.9,1.4 0,0 -0.6,0.5 -0.9,0.6 -0.7,0.1 -1.7,0.2 -1.7,-1 0.1,-0.4 0.5,-0.7 0.7,-1 z"
   class="st1" />
		<path
   id="path27354"
   d="m 165.3,184.1 c -0.5,-0.9 -1.1,-1.5 -1,-1.8 0.2,-0.5 0.9,-1 1.4,-1.2 0.5,-0.2 1.3,-0.1 0.7,0.9 -0.3,0.6 -0.6,1.2 -1.1,2.1 z"
   class="st1" />
		<path
   id="path27356"
   d="m 115.7,148.9 c 0.8,0.8 1.5,1.7 2.4,2.7 -2.3,1 -2.4,-0.7 -3.2,-1.6 0.2,-0.4 0.5,-0.7 0.8,-1.1 z"
   class="st1" />
		<path
   id="path27358"
   d="m 179.7,244.6 c 0.9,0.1 1.1,-2.4 2.2,-0.6 0.2,0.4 1.5,1.2 0.5,1.8 -1.2,0.7 -1.8,-1 -2.7,-1.2 -0.1,-0.1 0,0 0,0 z"
   class="st1" />
		<path
   id="path27360"
   d="m 189.6,231 c -0.4,-0.4 -0.9,-1 -1.4,-1.6 0.4,-0.1 0.9,-0.3 1.3,-0.4 0.6,-0.1 1.3,0 1.4,0.8 0.2,0.8 -0.3,1.2 -1.3,1.2 z"
   class="st1" />
		<path
   id="path27362"
   d="m 141,165.8 c 0,0.7 -0.2,1.3 -1,1.2 -0.6,-0.1 -1.1,-0.3 -1.7,-0.4 0.4,-0.5 0.8,-1 1.3,-1.3 0.5,-0.5 1.1,-0.3 1.4,0.5 z"
   class="st1" />
		<path
   id="path27364"
   d="m 120.8,150.7 c 0,0.3 -0.6,0.4 -0.9,0.2 -0.6,-0.4 -1.1,-1 -1.7,-1.5 0.5,-0.4 1,-0.9 1.4,-1.3 0.3,0.8 0.7,1.5 1.2,2.6 z"
   class="st1" />
		<path
   id="path27366"
   d="m 152.1,212.9 c -1.9,1.8 1,2 1,3.1 -3.4,2.4 -6.6,5 -10.7,6.4 -1.6,0.5 -2.3,-0.2 -3.4,-0.5 l 0.1,0.1 c -0.5,-1.3 -1.8,-2.6 1.3,-2.4 1,0.1 5.3,2.2 4.2,-2.7 -0.3,-1.2 0.1,-1.3 4.5,0.1 -2.4,-4.2 0.2,-4.2 3,-4.1 z"
   class="st1" />
		<path
   id="path27368"
   d="m 138.9,221.9 c 0.5,2.6 -1.4,2.2 -2.8,2 -1.5,-0.2 -2.7,-1.5 -2.1,-2.7 1.3,-2.3 0.1,-4.1 -0.7,-6.1 1.7,0.9 4.4,1 2.9,4.1 -1.4,3 0.9,2.8 2.8,2.8 0.1,0.1 -0.1,-0.1 -0.1,-0.1 z"
   class="st1" />
		<path
   id="path27370"
   d="m 141.1,203.8 c 1.4,0.9 3,-0.1 4.7,0.6 -1.9,2.9 -3.3,0.6 -4.7,-0.6 z"
   class="st1" />
		<path
   id="path27372"
   d="m 137.2,214.5 c 1.3,-0.7 2.4,-0.8 3.5,0.1 0.2,0.1 0,1.1 -0.2,1.2 -1.1,0.4 -2.2,0.4 -3.3,-1.3 z"
   class="st1" />
		<path
   id="path27374"
   d="m 143.2,207.5 c -2.1,0.7 -3.7,0.8 -5.1,0 -0.1,-0.1 0.2,-0.8 0.3,-1.3 1.4,0.4 2.9,0.8 4.8,1.3 z"
   class="st1" />
		<path
   id="path27376"
   d="m 152.1,206.9 c -0.4,0.7 -0.7,1.3 -1.1,2 -0.9,-0.1 -1.8,-0.2 -2.7,-0.3 0.6,-2 2.3,-1.5 3.8,-1.7 z"
   class="st1" />
		<path
   id="path27378"
   d="m 130.9,227 c -0.2,-0.2 -0.7,-0.5 -0.8,-0.8 -0.2,-0.9 0.5,-1.5 1.2,-1.8 0.7,-0.3 0.6,0.5 0.6,0.8 0.1,0.7 0.3,1.6 -1,1.8 z"
   class="st1" />
		<path
   id="path27380"
   d="m 143.7,212.4 c -0.2,0.8 -0.9,0.6 -1.4,0.6 -0.7,0 -1.3,-0.1 -1.2,-1 0.1,-0.3 0.5,-0.8 0.8,-0.9 0.9,-0.1 1.3,0.6 1.8,1.3 z"
   class="st1" />
		<path
   id="path27382"
   d="m 178.4,78.7 c -6.5,0.3 -11.1,-2.5 -15.3,-6.3 -0.5,-0.4 0.2,-2.2 0.3,-2.2 2.6,2.2 5,-0.6 7.5,-0.3 3.3,0.4 3.6,2.8 4.1,5.1 0.3,1.7 2.3,1.6 3.4,3.7 z"
   class="st1" />
		<path
   id="path27384"
   d="m 177.1,72.6 c -1.5,-1.5 -2.2,-2.3 -3.2,-3.4 2.3,-0.3 2.9,0.7 3.2,3.4 z"
   class="st1" />
		<path
   id="path27386"
   d="m 232.8,211.1 c 4.2,6.4 4.2,9.1 -0.6,12.1 3.3,-4.2 -1.3,-8.2 0.6,-12.1 z"
   class="st1" />
		<path
   id="path27388"
   d="m 242.1,242.9 c -0.5,0 -1,0 -1.5,0 1.5,-3.4 -1.4,-6.2 -1.6,-9.6 3.6,2.7 5.2,5.7 3,9.7 -0.1,0.1 0.1,-0.1 0.1,-0.1 z"
   class="st1" />
		<path
   id="path27390"
   d="m 187.9,64.8 c 3.1,-3.7 7,-5.9 7.4,-10.9 2.8,4.6 -1.2,10.3 -7.4,10.9 z"
   class="st1" />
		<path
   id="path27392"
   d="m 96.8,120.3 c 1.5,-1 2.9,-1.9 3.3,-3.9 0.3,-1.9 1.6,-3.3 3.6,-3.3 3.4,0 -2.8,2.5 0.7,3.3 0.7,0.2 -4.9,5.5 -7.3,4.7 -0.1,0 -0.1,-0.6 -0.1,-0.9 -0.1,-0.1 -0.2,0.1 -0.2,0.1 z"
   class="st1" />
	</g>
</g>
</svg>
