<?xml version="1.0" encoding="UTF-8" standalone="no"?>
<svg
   xmlns:dc="http://purl.org/dc/elements/1.1/"
   xmlns:cc="http://creativecommons.org/ns#"
   xmlns:rdf="http://www.w3.org/1999/02/22-rdf-syntax-ns#"
   xmlns:svg="http://www.w3.org/2000/svg"
   xmlns="http://www.w3.org/2000/svg"
   xmlns:sodipodi="http://sodipodi.sourceforge.net/DTD/sodipodi-0.dtd"
   xmlns:inkscape="http://www.inkscape.org/namespaces/inkscape"
   inkscape:version="1.0 (4035a4f, 2020-05-01)"
   height="236.8"
   width="237.42839"
   sodipodi:docname="sun-in-splendor.svg"
   xml:space="preserve"
   viewBox="0 0 237.42839 236.8"
   y="0px"
   x="0px"
   id="Layer_1"
   version="1.1"><metadata
   id="metadata31759"><rdf:RDF><cc:Work
       rdf:about=""><dc:format>image/svg+xml</dc:format><dc:type
         rdf:resource="http://purl.org/dc/dcmitype/StillImage" /><dc:title></dc:title></cc:Work></rdf:RDF></metadata><defs
   id="defs31757" /><sodipodi:namedview
   inkscape:current-layer="Layer_1"
   inkscape:window-maximized="0"
   inkscape:window-y="25"
   inkscape:window-x="0"
   inkscape:cy="155.7"
   inkscape:cx="119.9284"
   inkscape:zoom="2.52"
   fit-margin-bottom="0"
   fit-margin-right="0"
   fit-margin-left="0"
   fit-margin-top="0"
   showgrid="false"
   id="namedview31755"
   inkscape:window-height="480"
   inkscape:window-width="820"
   inkscape:pageshadow="2"
   inkscape:pageopacity="0"
   guidetolerance="10"
   gridtolerance="10"
   objecttolerance="10"
   borderopacity="1"
   bordercolor="#666666"
   pagecolor="#ffffff" />
<style
   id="style31608"
   type="text/css">
  .st0{fill:#FFFFFF;}
  .st1{fill:#000000;}
</style>
<g
   transform="translate(-30.071605,-44.3)"
   id="g31752">
	<g
   id="g31750">
		<path
   id="path31610"
   d="m 207.1,205 c 8,11.9 15.7,23.5 23.4,34.9 0.8,1.2 2.5,2.4 1.1,3.7 -1.1,1 -3.1,0.8 -4.6,-0.2 -2.4,-1.5 -4.9,-3 -7.4,-4.5 -12.7,-8.2 -25.3,-16.5 -38.1,-24.8 -1.8,8.7 0.9,14.6 8.4,19 4.5,2.6 5.5,8.2 6.9,12.8 1.6,5.1 1.5,10.4 0.5,15.9 -0.9,4.8 2.9,8.7 6.3,12 0.9,0.9 2.7,1.1 2.2,2.7 -0.5,1.7 -2.2,1.5 -3.7,1.6 -11,0.4 -20.2,-8.2 -20,-19.2 0.2,-7.9 -1.4,-13.8 -10.4,-16.1 -4.6,-1.2 -7.2,-5.8 -10.4,-10.3 -4,15.1 -7.7,29.4 -11.5,43.7 -0.5,0 -1,0 -1.4,0 -5.8,-17.9 -8.7,-36.6 -13.6,-54.7 -6.1,1.9 -7,6.8 -6.8,12.4 0.5,10 -2.8,18.1 -10.8,24.7 -4.2,3.5 -9.3,6.7 -10.7,12.5 -0.8,3.1 -0.6,6.5 -0.8,10 -4.6,-1 -6.4,-5 -7.2,-8.3 -2.1,-8.1 -2.3,-15.8 4.7,-22.9 7.1,-7.2 10.1,-7.2 3.4,-20.1 -1.7,-3.3 -0.6,-8.1 -0.8,-12.7 -9.1,5.3 -18.1,10.6 -27.1,15.8 -3.1,1.8 -6.3,3.3 -9.1,5.3 -1.7,1.2 -3.5,3 -5.1,1.4 -1.7,-1.8 0.1,-4 1.2,-5.7 4.1,-6.5 8.3,-13 12.5,-19.5 4.1,-6.3 8.4,-12.6 13.1,-19.6 -5.8,1.1 -10.9,0.5 -14.6,5.8 -6.5,9.4 -15.9,12.9 -27,9.3 -4.8,-1.5 -8,0.8 -11.3,3.3 -1.8,1.4 -3.9,4.3 -5.7,2.6 -2,-2 -2.8,-5.7 -1.2,-8.7 4,-7.4 9.9,-11.5 18.7,-11.1 8.7,0.3 9.1,-0.6 12.9,-8.7 2.7,-5.7 5.6,-11.8 13.6,-14.2 -5.3,-2.9 -10.1,-3.8 -14.6,-4.8 -8.5,-1.9 -16.6,-5.3 -25.3,-6.4 -1.3,-0.2 -3.5,-0.8 -3.7,-2.7 -0.2,-2.1 2.1,-2.6 3.4,-2.9 12.2,-2.9 24.5,-5.6 36.8,-8.3 3.3,-0.7 6.6,-1.5 10,-2 1.1,-0.2 2.5,-1 2.4,-1.3 -0.5,-1 -0.5,-2.2 -2,-2.9 -4.9,-2.3 -10.1,-1.9 -15.1,-1.7 -5.3,0.2 -10,-2 -14,-4.5 -4.1,-2.7 -6.3,-7.7 -8.7,-12.2 -2.8,-5.2 -7.3,-7.4 -13,-6.3 -0.9,0.2 -1.9,2 -2.7,0.1 -0.4,-0.9 0.2,-1.8 0.9,-2.6 5.3,-6.8 14.2,-7.4 20.6,-1.5 3.8,3.5 6.6,8.3 12.3,9.5 1.5,0.3 3.1,0.9 4.3,0.4 6.7,-2.4 13.8,-1.8 21.5,-2 C 82.2,110.4 75.1,100.4 68,90.5 c -1.4,-2 -2.6,-4.1 -4.1,-6 -0.9,-1.2 -2.7,-2.4 -1.6,-3.7 1.3,-1.6 3.3,-0.5 4.9,0.4 5.4,3.2 10.8,6.5 16.2,9.6 10.8,6.3 21.6,12.7 32.7,19.1 0.7,-7 -3.9,-11 -8.5,-14.5 -6.1,-4.8 -9.3,-10.7 -9.4,-18.3 0,-2.7 0.2,-5.6 1.1,-8.2 2.6,-7.3 0.2,-12.3 -6.1,-16.1 -1,-0.6 -1,-1.4 -0.1,-2.3 1,-1 2.1,-1.4 3.5,-1.4 7.9,0 17.7,6.6 17.4,16.4 -0.1,2 -0.3,4 0,6 0.7,4.1 1.3,8 6.3,9.8 5.8,2.2 11.1,5.4 15,10.9 3.4,-14.6 6.7,-28.8 10.2,-42.9 0.2,-0.9 -0.5,-3.5 2.1,-3.1 1.9,0.3 1.9,2.1 2.3,3.3 4.7,16 9.4,32 14,48 0.3,1.2 0.7,2 1.8,1.6 2.4,-0.9 5.2,-1.6 5.2,-5 0.1,-3.7 0.2,-7.3 0,-11 -0.4,-9.7 3.8,-16.8 12.3,-20.9 7.3,-3.5 10.8,-8.5 9.8,-16.6 -0.1,-0.4 0.2,-0.9 0.3,-1.3 7.7,2.7 10.5,13.2 6.9,20.2 -2.6,5 -7.7,7.7 -9.9,12.8 -1,2.3 -1.1,4.3 -0.5,6.9 1.5,6 3.5,12.2 1,19.5 8,-5.1 15.2,-9.6 22.4,-14.3 4.3,-2.8 8.5,-5.8 12.8,-8.7 1.3,-0.9 2.8,-1.9 4.2,-0.4 0.9,1 -0.2,2.1 -0.8,3.1 -7.8,13.5 -15.7,27 -23.5,40.5 -1,1.6 -1.8,3.4 -2.6,5 6.8,1.8 11,-0.7 15.2,-6.1 4.9,-6.3 12.5,-8.9 20.5,-9.5 3,-0.2 6,-0.1 9,0 5.7,0.2 11.1,-0.3 15,-5.7 3.1,9.9 -1.7,17.4 -11.5,18.5 -3.4,0.4 -6.7,1.2 -10.2,1.3 -5.1,0.1 -7.9,4 -9.8,8.2 -2.3,5.1 -7.8,10 -13.4,12.5 14,3.4 27.7,6.8 41.4,10.2 1.5,0.4 3.3,0.5 3.5,2.6 0.2,2.2 -2,1.5 -2.9,1.8 -16.2,4.5 -32.4,8.7 -48.7,13.1 2.4,1.5 3.6,3.8 4.6,6.4 1.2,2.9 3.6,4.9 6.6,5.1 3.5,0.1 6.8,1 10.2,1.1 8.9,0.3 15.1,4.7 17.9,12.6 2.6,7 6.6,9.8 13.8,8.5 1,-0.2 2,0 3,0 -1,4.9 -4.7,7.6 -9.2,8.1 -7.6,0.7 -13.6,-0.8 -18,-7.9 -3.6,-5.8 -9.7,-6.3 -16.1,-4.2 -9,2.4 -7.4,2.5 -17.1,-0.5 z"
   class="st1" />
		<path
   id="path31612"
   d="m 149.7,217 c -18.6,0.9 -33.4,-6.9 -45.5,-20.4 -12,-13.3 -11.5,-29.8 -11.2,-46.2 0.4,-21.2 25.6,-48.2 60.5,-45.4 27.5,2.2 52.2,23.2 51.4,56.9 -0.9,32 -22.1,54.3 -55.2,55.1 z"
   class="st0" />
		<path
   id="path31614"
   d="m 66.2,200.2 c 2.9,-0.6 4.3,-2.9 5.4,-5.3 3.3,-7.7 9.6,-10.6 17.4,-12 4.6,-0.8 6.2,2.1 6.3,5 0.1,2.7 -2.5,5.4 -5.7,5 -8,-1.1 -12.8,2.7 -17,9 -3.3,5 -12.9,9 -19.5,6.2 -7.1,-3 -12.7,0.7 -18.3,4.4 -0.8,-4.3 1.2,-8.3 5.2,-10.8 4.3,-2.6 8.6,-4.1 13.8,-3.8 4.7,0.3 10.2,-1.1 11.1,-5.9 0.9,-4.7 3.4,-8 5.7,-11.5 3.2,-4.8 8.9,-6.2 14.3,-7.3 4,-0.8 6.3,2.2 7.4,6.5 -2.9,0.5 -5.9,0.9 -8.7,1.7 -6.7,2 -11.1,6.8 -13.1,13.1 -0.8,2.7 -5.6,2.1 -3.9,5.9 -4.4,1.1 -8.4,3.8 -11.5,3.3 2.7,0.1 6.9,-1.8 11.1,-3.5 z"
   class="st0" />
		<path
   id="path31616"
   d="m 237.7,197.3 c -2.3,-3.4 -9.3,-5.4 -13.6,-3.9 -7.1,2.5 -17.9,-1.7 -20.6,-8.7 -0.9,-2.3 -0.7,-6 2.8,-7.8 3.6,-1.9 4.9,0.7 6.2,3.1 2,3.4 2.8,8.3 7.5,8.8 3.6,0.3 7.1,1.2 10.7,1.2 8.3,-0.1 14.7,3.4 17.7,11.1 2.6,6.8 5.6,12.1 15.2,9.5 -8.1,6.8 -15.1,5.5 -21.2,-2.7 -5.3,-7.2 -14,-9.1 -21.7,-4.8 -5,2.8 -14.3,0.5 -17.7,-4.3 -1.9,-2.7 -4.9,-5.1 -2,-9 1.2,-1.7 2.5,-2.6 3.7,-0.5 4.2,7.4 11.6,7 18,6.4 5.4,-0.6 10.2,0.5 15.1,1.5 0.3,0.1 0.5,0.2 0.6,0.2 -0.1,-0.1 -0.4,-0.1 -0.7,-0.1 z"
   class="st0" />
		<path
   id="path31618"
   d="m 121.5,214.7 c -5.1,5.7 -7,12.4 -4.4,19.9 1.2,3.6 1.4,6.9 -0.5,10.3 -0.8,1.4 -1.1,3.1 -0.9,4.9 2.7,-4.1 4.6,-8.4 4,-13.7 -0.5,-3.9 -2.3,-7.6 -0.8,-11.8 1,-2.8 2.7,-5 4,-7.6 0.7,-1.4 8.4,-0.7 9.1,0.7 0.4,0.8 0.4,2.2 -0.7,2.7 -6.6,2.6 -5.2,8.3 -5.2,13.4 0.1,10.1 -3.6,18.2 -12.1,24.1 -2.8,2 -5.2,4.7 -7.4,7.4 -2.8,3.4 -4.3,7.2 -2.2,12.7 -6.1,-7.6 -5.2,-20.3 0.6,-25.6 4.1,-3.8 9.6,-8 8.2,-15.4 -0.2,-1.3 -0.2,-2.7 -1.1,-3.6 -4,-4.8 -3,-10.5 -3,-16 0.1,-3.4 7,-6.7 9.8,-4.7 0.9,0.7 2.4,0.3 2.6,2.3 z"
   class="st0" />
		<path
   id="path31620"
   d="m 179.6,236.4 c -1.6,-4.4 -6.3,-6.6 -7.4,-11.5 -1.4,-6.5 -0.2,-9.8 5.7,-11.5 0.1,5.8 -0.6,11.8 4,16.4 0.6,0.6 0.9,1.7 1.8,2.2 10.1,5.5 12.3,15.2 10.9,24.9 -1.1,7.4 1.8,12.4 5.2,17.8 -7.4,0.3 -14.8,-7.4 -14.7,-15.9 0,-3.5 -0.4,-6.9 -1.2,-10.2 -1.2,-4.5 -5.4,-6.2 -9.4,-7.6 -8.8,-3.1 -13.7,-13.6 -10.4,-22.2 1,-2.5 3.7,-1.5 6.1,-3.8 -1.1,9.7 0.7,17.3 9.6,21.2 3.5,0.1 4.5,3.4 6.6,5.2 4.9,7.3 2.4,15.4 2.5,19.7 -0.2,-4.3 2.6,-12.6 -2.7,-19.9 -2.1,-1.6 -2.9,-5.1 -6.6,-4.8 z"
   class="st0" />
		<path
   id="path31622"
   d="m 105.7,58.6 c 0.8,6.9 -0.3,14 0.5,21 0.5,4.6 3.9,8.1 8.2,10.2 3.3,1.6 6.3,3.4 8.6,6.6 4.7,6.5 4,9.8 -3.6,12.7 -0.7,-7.8 -6,-12.2 -11.5,-17 -5,-4.5 -8.2,-10.2 -6.2,-18.1 1.9,-7.8 3.1,-16.3 -5.5,-22.8 9.4,0.9 14.8,6.6 14.8,14.6 0,2.2 -0.2,4.4 0.1,6.5 0.9,6 3.9,10.3 9.8,12.3 4.4,1.5 7.6,4.9 11.1,7.8 3.5,2.9 2.9,6.3 2.9,9.9 0,2.5 -2.2,2.4 -3.8,2.8 -1.8,0.4 -1.9,-0.8 -2.2,-2.3 -1.4,-6.4 -5.7,-10.8 -11.4,-13.5 -6.2,-2.9 -10.6,-9.1 -10.5,-16 0,-2.4 0.6,-4.8 0.4,-7.2 -0.2,-2.6 -1.1,-5 -1.7,-7.5 z"
   class="st0" />
		<path
   id="path31624"
   d="m 222.1,132.9 c -1.3,0.2 -2.5,0 -2.8,0.4 -3.7,5.8 -9.6,4.5 -14.9,4.5 -2.7,0 -3.6,-2.7 -3.3,-4.6 0.3,-1.8 2.3,-2.9 4.5,-2 5.5,2.1 10,-0.1 12.7,-4.5 5.2,-8.6 13.8,-10.2 22.3,-11.7 6.6,-1.1 13.4,0.5 20.3,-1.2 -1.3,5.4 -4.3,8.2 -9.6,9.1 -4.1,0.7 -8.3,1.5 -12.4,2 -5.2,0.7 -7.9,4.7 -10,9.1 -4.1,8.2 -12.7,13.4 -20.5,12.9 -2,-0.1 -2.8,-0.7 -2.4,-2.6 0.2,-1.4 -1,-3.6 2,-3.5 5.9,0.4 10.2,-2.6 14.1,-7.9 z"
   class="st0" />
		<path
   id="path31626"
   d="m 35.1,114.8 c 5.8,-5.4 10,-3.6 14.1,-0.1 1.9,1.6 3.6,3.5 5.3,5.3 6,6.3 13.4,6.3 20.8,3.8 5.8,-1.9 17.6,-0.3 20.4,5.6 0.5,1 2.4,2.5 0.8,3.3 -1.3,0.6 -2.3,3.2 -4.5,1.3 -0.9,-0.7 -2.6,-0.6 -3.5,-1.3 -6.5,-4.8 -13.3,-2.6 -20.3,-1.6 -4,0.6 -8.1,-1.2 -11.2,-4.4 -1.8,-1.9 -3.6,-3.8 -5.8,-6.1 3.3,9.3 11.4,13.3 20.4,11.9 6.5,-1 13.4,-1.6 18.9,4.2 2.1,2.2 2.2,4 0.6,5.7 -1.8,1.9 -3.8,0.2 -4.9,-1.1 -2.8,-3.5 -6.3,-4.5 -10.7,-4.2 -4.7,0.3 -9.5,0.5 -14.2,-0.9 -5.1,-1.6 -9,-4.9 -11.1,-9.6 -3.3,-7.1 -4.8,-11.7 -15.1,-11.8 z"
   class="st0" />
		<path
   id="path31628"
   d="m 148.6,55.6 c 4.1,13.3 8.2,26.5 12.2,39.8 1.8,6.1 -0.8,8.5 -7.1,7.6 -4.8,-0.8 -6,-2.7 -5.8,-7.5 0.5,-13.3 0.2,-26.6 0.2,-39.9 0.1,-0.1 0.3,0 0.5,0 z"
   class="st0" />
		<path
   id="path31630"
   d="m 193.9,62.1 c 3.1,-2 2.7,-5.9 4.6,-8.7 2.8,6.4 -1,10.7 -4.6,15.2 -1.6,2 -3.5,3.8 -5.2,5.9 -5.1,6.3 -0.5,12 0.4,17.8 1.2,7.2 -1.9,15.1 -8.2,18.4 -2.1,1.1 -2.5,-1 -3.5,-1.7 -1,-0.7 -1.7,-1.3 -0.3,-2.6 6.5,-6.3 5.5,-14.1 4,-22 -0.7,-3.9 1.3,-7.6 2,-11.4 0.1,-0.2 0.2,-0.4 0.3,-0.6 0.7,-0.8 1.4,-1.6 2,-2.5 0.6,-0.8 1.4,-1.6 2.1,-2.4 0.9,-0.9 1.8,-1.7 2.7,-2.6 0.3,-0.3 0.6,-0.5 1,-0.7 0.8,-0.5 1.6,-1.2 2.3,-1.9 0.1,-0.1 0.3,-0.1 0.4,-0.2 z"
   class="st0" />
		<path
   id="path31632"
   d="m 188,67.9 c -0.4,1 -1.1,1.8 -2.2,2.2 -1,1 -2,2 -3,3 0,0 0.1,-0.1 0.1,-0.1 -3.7,2.1 -5,7.2 -3.6,13.1 1.6,6.5 0.2,16.9 -6,20 -3,1.5 -5.8,0 -7.1,-1.7 -1.7,-2.1 1.2,-3.2 2.9,-4 3.5,-1.6 4.9,-4.1 4.9,-8.1 0,-5 -0.3,-10.1 0.6,-15.2 1.1,-6.4 5.1,-9.9 9.9,-13 1.9,-1.2 4,-1.9 5.9,-3.2 4.1,-2.8 5,-7 4.4,-12.8 4.5,6 -1,9.7 -1,14 0,0 0.1,-0.1 0.1,-0.1 -0.8,1.3 -1.8,2.4 -3.1,3.1 L 191,65 c -1.2,0.7 -2.2,1.6 -3,2.9 z"
   class="st0" />
		<path
   id="path31634"
   d="m 223.2,88.8 c -6.8,11.6 -13.5,23.3 -20.4,34.8 -3.9,6.4 -4.3,6 -8.4,-0.6 -2.3,-3.7 -1.8,-5.5 1.2,-8.3 9.2,-8.7 17.9,-17.8 26.9,-26.8 0.2,0.4 0.4,0.6 0.7,0.9 z"
   class="st0" />
		<path
   id="path31636"
   d="M 40.6,158.4 C 57,154.7 73.4,151 89.8,147.3 90.4,159 90.4,159 79,159 c -12.8,0 -25.6,0 -38.4,0 0,-0.2 0,-0.4 0,-0.6 z"
   class="st0" />
		<path
   id="path31638"
   d="m 226.8,239.6 c -12.1,-12.1 -24.2,-24.2 -36.4,-36.4 -0.1,0.2 0,-0.1 0.2,-0.3 6.7,-6.8 7,-7 12.8,1.2 8.2,11.5 15.8,23.4 23.7,35.1 -0.1,0.1 -0.2,0.3 -0.3,0.4 z"
   class="st0" />
		<path
   id="path31640"
   d="m 73.6,88 c 12.5,7.4 25.1,14.7 37.6,22.1 1.8,1.1 2.4,2.2 0.5,3.8 -0.5,0.4 -0.9,0.9 -1.4,1.4 -5.3,5.3 -5.3,5.3 -10.4,0.3 C 90.9,106.7 82,97.8 73,88.8 73.2,88.5 73.4,88.2 73.6,88 Z"
   class="st0" />
		<path
   id="path31642"
   d="m 73.8,231.7 c 9.9,-9.9 19.4,-19.3 28.8,-28.9 1.5,-1.5 2.4,-1.8 3.7,-0.1 0.5,0.6 1.4,0.7 2,1.2 5.6,4.6 5.4,5.3 -0.8,8.9 -10,5.8 -19.8,11.8 -29.7,17.7 -0.9,0.6 -1.9,1.7 -4,1.2 z"
   class="st0" />
		<path
   id="path31644"
   d="m 69.7,232.2 c 6,-9.2 12.1,-18.4 18.1,-27.6 2.6,-3.9 5.1,-7.8 7.7,-11.6 0.4,-0.5 0.5,-2.2 1.1,-1.6 2.2,2.4 4,5 5.9,7.6 1.4,2 -0.8,2.6 -1.7,3.5 -10,10.2 -20.1,20.3 -30.2,30.4 -0.2,-0.2 -0.6,-0.5 -0.9,-0.7 z"
   class="st0" />
		<path
   id="path31646"
   d="m 252.4,160 c -14.1,0 -28.2,-0.1 -42.3,0.1 -5.5,0.1 -2.5,-3.8 -3,-5.9 -0.5,-2.3 -0.5,-4.3 3.2,-4.2 9.2,0.2 17.6,3.8 26.4,5.5 5.3,1 10.5,2.7 15.7,4 0,0.1 0,0.3 0,0.5 z"
   class="st0" />
		<path
   id="path31648"
   d="m 47.6,161 c 13.3,0 26.5,0 39.8,0 1.7,0 2.6,0.2 2.7,2.3 0.6,7.3 -2.9,9.7 -10.2,7.2 -10.5,-3.7 -21.4,-6.3 -32.3,-9.5 z"
   class="st0" />
		<path
   id="path31650"
   d="m 247.5,162.9 c -13.1,3.4 -26.3,6.7 -39.4,10 -0.5,0.1 -1.7,-0.1 -1.8,-0.4 -1,-3.3 1.2,-6.3 0.8,-9.6 -0.2,-1.6 2.1,-0.9 3.3,-0.9 12.3,-0.1 24.6,0 36.9,0 0.1,0.3 0.2,0.6 0.2,0.9 z"
   class="st0" />
		<path
   id="path31652"
   d="m 150,261.4 c 0,-12.8 0.1,-25.6 -0.1,-38.4 0,-2.4 0.8,-3 3.1,-3 8.8,-0.2 8.8,-0.1 6.5,8.1 -3.1,11.1 -6,22.2 -8.9,33.3 -0.2,0 -0.4,0 -0.6,0 z"
   class="st0" />
		<path
   id="path31654"
   d="M 98.3,127.1 C 86.4,114.7 78.9,99.5 67.3,86.6 c 1.9,-0.4 2.4,0.8 3,1.4 9.4,9.4 18.9,18.8 28.3,28.2 5.3,5.2 5.3,5.4 -0.3,10.9 z"
   class="st0" />
		<path
   id="path31656"
   d="m 147.4,262.3 c -2.2,-9.7 -4.3,-19.3 -6.7,-29 -0.9,-3.4 -1.1,-7 -2.5,-10.3 -0.6,-1.5 -0.5,-3.4 2.2,-3.1 1.6,0.2 3.3,0.2 5,0 2.3,-0.2 2.7,0.7 2.7,2.8 -0.1,13.3 0,26.5 0,39.8 -0.3,0 -0.5,-0.1 -0.7,-0.2 z"
   class="st0" />
		<path
   id="path31658"
   d="m 217.3,234 c -11.2,-7 -22.5,-14 -33.7,-21.1 -1.4,-0.9 -2.5,-3 -1.2,-3.5 2.5,-0.9 3.4,-5.3 7,-3.4 1.1,0.6 2.3,1.3 3.2,2.2 8.5,8.4 16.9,16.9 25.4,25.3 -0.2,0.2 -0.5,0.3 -0.7,0.5 z"
   class="st0" />
		<path
   id="path31660"
   d="m 183.2,112.4 c 11.1,-8.7 23.5,-15.5 35.7,-22.8 -5.7,5.7 -11.5,11.5 -17.2,17.2 -2,2 -4,4 -6,6 -6.5,6.5 -6.5,6.5 -12.5,-0.4 z"
   class="st0" />
		<path
   id="path31662"
   d="m 146,61.6 c 0,12.8 -0.1,25.6 0.1,38.4 0.1,3.7 -2.1,2.9 -4.1,3 -2.1,0.1 -4,0.5 -4.1,-3 -0.3,-10.3 3.7,-19.7 5.4,-29.5 0.5,-3 1.9,-5.8 2.7,-8.9 z"
   class="st0" />
		<path
   id="path31664"
   d="m 161.9,164.1 c 3.6,0.1 4.8,2.9 4.8,5.6 0,3.4 -2.7,3.7 -5.5,3.4 -3,-0.3 -5.7,0.2 -8.2,2.3 -1.8,1.5 -3.9,2.1 -6.7,0.9 -2.6,-1.2 -5.4,-2.8 -9.1,-1.5 -3,1.1 -4.6,-2.7 -6.3,-4.7 -1.1,-1.3 0.1,-3.5 1.5,-4.9 1.8,-1.9 3.4,-3.8 5.3,-5.8 1,3.1 -1.6,4 -2.9,5.4 -1.5,1.6 -2.4,2.9 -0.9,5.1 0.8,1.2 1.2,2.3 2.8,2.2 2.2,-0.2 1.3,-2 1.3,-3.1 -0.2,-3 0.3,-5.8 2.1,-8.3 2.5,-3.6 0.3,-7.3 -0.2,-10.8 -0.2,-1.5 -1.5,-0.2 -2.3,0.1 -4.1,1.4 -8.1,3 -12.3,4 -2.2,0.5 -4.9,0.6 -6.8,-0.2 -3.6,-1.6 -7.3,-1.5 -11.1,-1.6 -0.7,0 -1.4,0.2 -2,0 -2.5,-0.8 -4.1,-2.8 -5.2,-4.9 -0.7,-1.3 0,-2.8 2,-1.4 1,0.7 1.3,1.9 2.4,2.7 3.3,2.5 5.4,3.1 7.2,-1.6 1.5,-3.9 11.7,-7 16.9,-5.5 1.5,0.4 2.9,1.2 4.4,1.7 1.3,0.4 3.2,2.3 3.6,0.9 0.5,-1.6 2.3,-3.7 -0.1,-6 -3.3,-3.2 -6.6,-4.7 -11.4,-4.3 -1.8,0.1 -3.9,-1.2 -6.5,-0.9 -5.8,0.7 -10.3,3.2 -14.4,7.3 0.1,-3.7 5,-7.7 10.4,-9 6.7,-1.7 13,-2.4 19.4,1.4 1.5,0.9 5.9,4.2 6,-1.8 4.3,6.5 0.9,13.7 1.9,20.5 0.7,4.7 1.4,9.1 -0.9,13.7 -1,1.9 -0.4,4.8 1.7,6.1 2.9,1.7 5.9,3.2 9.6,1.3 2.8,-1.5 3.5,-3.6 3.5,-6.3 0.1,-3.5 -2.8,-6.3 -2,-9.9 1.3,-6.5 0.5,-12.7 -1.9,-18.9 -0.2,-0.6 -0.6,-2.2 1.2,-1.7 l -0.1,-0.1 c 2.2,5.3 6.1,0.9 7.4,0.2 8.5,-4.6 16.9,-5.6 25.8,-1.6 0.9,0.4 2.1,0.3 4.7,0.6 -5.9,0.6 -2.6,2.5 -1.7,4.1 -12.6,-8.2 -23.2,-5.5 -32.7,4.3 2.2,1.2 4.7,4.4 7,-0.9 1.2,-2.7 10.5,-5.6 13.2,-4.8 1.3,0.4 1.9,1.2 1.9,2.5 -7.9,1.1 -7.9,1.1 -11.9,4.7 5,-2.1 9.2,-1.4 13.1,-1.8 3.7,-0.4 5.2,2.6 5.3,3 0.6,3.2 2.4,4.2 5.3,3.6 3,-0.6 4.8,-2.3 4.4,-6.2 2.6,5 1,8 -4.7,8.1 -4.1,0.1 -7.6,1.4 -11.3,2.6 -6.1,1.9 -11.8,-0.3 -17.7,-1.6 -0.3,-0.1 -0.5,-0.4 -0.8,-0.6 -1.2,-1.1 -0.2,-3.4 -2.3,-4 -0.2,0 -0.7,0.4 -0.7,0.7 -0.3,2.8 -3.5,5.5 -0.1,8.3 0.2,0.2 0.2,0.6 0.3,0.9 0,0.2 0,0.4 0,0.6 0,1 0.3,2 0.7,3 0.2,0.4 0.3,0.8 0.4,1.3 0.7,2.3 0.6,4.9 2.8,7 1.2,-1.5 -0.1,-2.9 -0.1,-4.1 0.4,-0.9 0.5,-1.1 0.5,-1.3 z"
   class="st1" />
		<path
   id="path31666"
   d="m 172.5,189.1 c -1.5,-1.6 -2.4,-2.5 -3.5,-3.7 0.7,-0.2 1.1,-0.5 1.4,-0.4 4.4,1 3.7,4.3 3.3,7.4 -0.1,0.6 -1.1,1.4 -1.7,1.4 -1.3,0.1 -0.9,-0.8 -0.7,-1.7 0.3,-2.2 -1.3,-1.1 -1.9,-0.9 -2.9,1.2 -5,3 -6.5,5.9 -3.5,6.8 -14.3,8.2 -20.1,3.1 -3,-2.6 -4.9,-6.2 -8.7,-8.1 -1.9,-1 -3.6,-1.2 -5.6,-1.2 -2.4,0 -5.9,-0.8 -0.9,5 -6.1,-4.8 -5.9,-6.4 -1.2,-10.9 1.8,3.1 6.2,4.3 9.6,1.7 4.1,-3 8.1,-4 12.7,-1.6 0.3,0.2 0.7,0.6 0.8,0.6 7.3,-5.1 12.8,1.1 18.9,2.9 0.9,0.4 1.9,0.3 4.1,0.5 z"
   class="st1" />
		<path
   id="path31668"
   d="m 135.7,141.1 c -6.5,-1.1 -12.8,-4.5 -19.2,0.3 6,-5.4 11.7,-5.5 19.2,-0.3 z"
   class="st1" />
		<path
   id="path31670"
   d="m 94.8,165.7 c 2.1,3.4 4.4,6.8 2.8,11 -1,-3.8 -1.9,-7.4 -2.8,-11 z"
   class="st1" />
		<path
   id="path31672"
   d="m 157.9,157.1 c 2.6,1.6 2.9,4.5 4,7 0,0 0.1,-0.2 0.1,-0.2 -3.2,1.5 -2.8,-1.9 -4.1,-3 l 0.1,0.2 c -0.8,-1.4 -0.9,-2.8 0,-4.2 z"
   class="st1" />
		<ellipse
   id="ellipse31674"
   ry="0.30000001"
   rx="7.9000001"
   cy="112.5"
   cx="148" />
		<path
   id="path31676"
   d="m 103.7,180 c 1.2,2.3 2.4,4.7 3.8,7.5 -2.6,-1.5 -2.6,-1.5 -3.8,-7.5 z"
   class="st1" />
		<path
   id="path31678"
   d="m 177.6,205.4 c -2.3,0.8 -3.2,4.6 -6.6,3.2 1.9,-2 4.2,-2.7 6.6,-3.2 z"
   class="st1" />
		<path
   id="path31680"
   d="m 193.6,141.6 c -0.2,-2 -3.5,-1.2 -3.2,-3.4 0.1,-0.7 0.7,-0.8 1.8,-0.5 2.6,0.7 1.7,2.3 1.4,3.9 z"
   class="st1" />
		<path
   id="path31682"
   d="m 137.9,109.5 c -2.6,0.7 -4.8,2.4 -7.8,1 2.6,-0.7 4.9,-2.4 7.8,-1 z"
   class="st1" />
		<path
   id="path31684"
   d="m 99.4,179 c 0.3,0.8 0.6,1.1 0.5,1.3 -0.4,1.9 2.6,2.3 1.8,4.2 -0.1,0.2 -1.2,0.4 -1.2,0.3 -1,-1.6 -2.1,-3.3 -1.1,-5.8 z"
   class="st1" />
		<path
   id="path31686"
   d="m 185.5,180.9 c 1,2 0.3,3.2 -1.2,4 -0.3,0.2 -1.2,-0.2 -1.2,-0.4 -0.2,-1.9 1.6,-2.2 2.4,-3.6 z"
   class="st1" />
		<path
   id="path31688"
   d="m 100.5,173.1 c -0.6,-2.5 -1.1,-4.4 -1.8,-7.1 2.6,2.3 2.7,4.4 1.8,7.1 z"
   class="st1" />
		<path
   id="path31690"
   d="m 200.7,154.6 c 0,2 0,4 0,7.1 -1,-3.1 -0.8,-5.1 0,-7.1 z"
   class="st1" />
		<path
   id="path31692"
   d="m 180.9,180.8 c -0.8,1.8 -0.8,3.4 -2.6,4 -0.7,-2.1 -0.1,-3.3 2.6,-4 z"
   class="st1" />
		<path
   id="path31694"
   d="m 198.5,169.5 c -0.6,-1.8 -0.8,-3.4 1,-4.3 1.6,2 -0.8,3 -1,4.3 z"
   class="st1" />
		<path
   id="path31696"
   d="m 118.4,204.9 c -2.7,0.1 -3.2,-1.5 -4.7,-2.9 2.6,0 3.1,1.6 4.7,2.9 z"
   class="st1" />
		<path
   id="path31698"
   d="m 188.7,173.7 c 0.3,2.1 0.7,3.2 -0.2,4.2 -0.2,0.2 -1.1,0 -1.2,-0.2 -0.6,-1.5 0.8,-2.2 1.4,-4 z"
   class="st1" />
		<path
   id="path31700"
   d="m 114.5,189.3 c -2.1,-1.3 -3.2,-2 -3.5,-3.8 1.8,0.1 2.5,1.3 3.5,3.8 z"
   class="st1" />
		<path
   id="path31702"
   d="m 121.5,118.2 c -0.4,1.9 -2.1,1.7 -3.6,3.1 0.4,-3.1 2.5,-2.5 3.6,-3.1 z"
   class="st1" />
		<path
   id="path31704"
   d="m 162.4,114.5 c 1.7,-0.8 2.8,-0.3 3.4,1.1 -1.7,1.4 -2.1,-1.6 -3.4,-1.1 z"
   class="st1" />
		<path
   id="path31706"
   d="m 198,174.2 c 0,1.1 0,1.9 -1.1,1.7 -0.3,0 -0.7,-0.6 -0.8,-0.9 0,-0.9 0.7,-1.4 1.4,-1.7 0.1,0 0.4,0.7 0.5,0.9 z"
   class="st1" />
		<path
   id="path31708"
   d="m 153.3,135.3 c -0.8,-1.4 -0.1,-2.4 1.1,-3.1 0.2,-0.1 1,0.5 1,0.8 0,1.5 -1.7,1.1 -2.3,2.1 0.1,0.1 0.2,0.2 0.2,0.2 z"
   class="st1" />
		<path
   id="path31710"
   d="m 66.2,200.2 c -4.2,3.5 -9.2,4.4 -14.5,3.3 5.1,-0.2 9.5,-3.2 14.7,-3.2 -0.1,0 -0.2,-0.1 -0.2,-0.1 z"
   class="st1" />
		<path
   id="path31712"
   d="m 50.3,202.6 c -2.7,0.3 -4.5,2.4 -6.9,1 1.8,-1.6 3.9,-2.1 6.9,-1 z"
   class="st1" />
		<path
   id="path31714"
   d="m 246.1,204.8 c 2.3,2.3 4.8,3.9 6.1,6.8 -4,-1 -4.5,-1.6 -6.1,-6.8 z"
   class="st1" />
		<path
   id="path31716"
   d="m 237.7,197.3 c 2,-0.6 3.7,-0.5 4.4,2.3 -1.9,-0.5 -3.4,-0.9 -4.3,-2.5 0,0.1 -0.1,0.2 -0.1,0.2 z"
   class="st1" />
		<path
   id="path31718"
   d="m 108.7,257.3 c -0.7,1.1 -1.4,2.2 -2.2,3.3 -0.9,-0.7 -0.7,-1.6 -0.2,-2.4 0.4,-0.6 1.1,-1 1.7,-1.5 0.2,0.3 0.5,0.5 0.7,0.6 z"
   class="st1" />
		<path
   id="path31720"
   d="m 185.7,241.3 c 3.8,2 3.9,5.7 4.3,9.3 0.6,6 -1.6,12.2 2.5,18.3 -4.7,-3 -5.7,-4.3 -4.3,-9.9 1.4,-5.9 0.8,-11.1 -2.1,-16.2 -0.2,-0.4 -0.1,-1 -0.2,-1.5 z"
   class="st1" />
		<path
   id="path31722"
   d="m 179.6,236.4 c 4.1,-1 5.8,1.1 6.1,4.9 0,0 0.1,-0.2 0.1,-0.1 -3.3,0 -3,-4.6 -6.1,-4.9 0,0 -0.1,0.1 -0.1,0.1 z"
   class="st1" />
		<path
   id="path31724"
   d="m 222.3,132.3 c 0.4,-5.4 5.7,-11.1 10,-11.3 0.7,0 1.4,0 1.6,0.7 0.1,0.3 -0.4,1.1 -0.6,1.1 -2.7,-0.3 -4.5,1.7 -6.2,3.1 -1.9,1.6 -3,4 -4.8,6.4 z"
   class="st1" />
		<path
   id="path31726"
   d="m 182.9,73.1 c 0.1,-1.9 0.7,-3.2 3,-3 0.3,2.3 -1.1,2.9 -3,3 z"
   class="st1" />
		<path
   id="path31728"
   d="m 190.9,65.1 c 0.7,-1.4 1.7,-2.5 3.1,-3.1 0.1,2 -1,3.1 -3.1,3.1 z"
   class="st1" />
		<path
   id="path31730"
   d="m 188,67.9 c -0.2,-2.2 1.1,-2.9 3,-3 -0.6,1.4 -1.5,2.5 -3,3 z"
   class="st1" />
		<path
   id="path31732"
   d="m 178.9,144.9 c 2,1 1.5,3.9 4,4.6 -1.7,1 -3.4,0.7 -4.9,1.8 -2.6,2 -7.2,0.1 -7.8,-3.1 -0.9,-4.5 3.1,-3.1 5.2,-4.4 0.6,1.9 -1.9,4.3 0.8,5.1 3.2,0.9 0.8,-3.2 2.7,-4 z"
   class="st0" />
		<path
   id="path31734"
   d="m 116.1,147.6 c 5.1,-5.4 7.1,-5.7 10.8,-2.6 1.7,1.4 1.4,2.8 0.4,4.1 -2.1,2.9 -5.5,2.4 -11.2,-1.5 z"
   class="st0" />
		<path
   id="path31736"
   d="m 157.9,160.9 c 2.1,0 1.5,3.8 4.1,3 1.3,2 2.8,4 1.7,6.6 -0.1,0.3 -1.2,0.6 -1.7,0.4 -2.5,-0.9 -2.8,-3 -3.3,-5.3 -0.4,-1.6 -0.5,-3.1 -0.8,-4.7 z"
   class="st0" />
		<path
   id="path31738"
   d="m 130.5,150.2 c -0.9,-2.3 0.1,-4.3 -1,-6.1 1.9,1.2 5.3,0.6 5.4,3.6 0,2.8 -3.5,0 -4.4,2.5 z"
   class="st0" />
		<path
   id="path31740"
   d="m 167.6,152 c -1.5,-1.9 -2.7,-2.8 -2.9,-4 -0.1,-0.9 1.5,-1.4 2.4,-0.9 1.8,0.9 0.7,2.4 0.5,4.9 z"
   class="st0" />
		<path
   id="path31742"
   d="m 158.1,156.9 c 0,1.4 0,2.8 0,4.2 -1.1,-1.4 -3.1,-2.8 0,-4.2 z"
   class="st0" />
		<path
   id="path31744"
   d="m 162.7,191.9 c -2,5.4 -4.3,8.3 -8.3,9 -5.7,1.1 -10.2,-1.3 -15,-7.9 7.8,0.3 15,1.7 23.3,-1.1 z"
   class="st0" />
		<path
   id="path31746"
   d="m 135.3,189.8 c 3.7,-1.5 6.4,-4.5 8.4,-3.5 4.1,2.1 7.2,1.9 11.5,0.1 2.4,-1 6.3,1.8 10.5,3.3 -5.6,0.9 -10.4,-0.9 -14.6,2.2 -0.6,0.4 -2.1,0.3 -2.8,-0.2 -3.6,-2.7 -7.9,-1.3 -13,-1.9 z"
   class="st0" />
		<path
   id="path31748"
   d="m 122.7,145 c 1.5,-0.1 2.2,0 2.3,1.1 0.1,1.3 -0.5,2.2 -1.6,2.7 -1.1,0.4 -1.4,-0.4 -1.3,-1.3 0,-1 -0.7,-2.4 0.6,-2.5 z"
   class="st1" />
	</g>
</g>
</svg>
