<?xml version="1.0" encoding="UTF-8" standalone="no"?>
<svg
   xmlns:dc="http://purl.org/dc/elements/1.1/"
   xmlns:cc="http://creativecommons.org/ns#"
   xmlns:rdf="http://www.w3.org/1999/02/22-rdf-syntax-ns#"
   xmlns:svg="http://www.w3.org/2000/svg"
   xmlns="http://www.w3.org/2000/svg"
   xmlns:sodipodi="http://sodipodi.sourceforge.net/DTD/sodipodi-0.dtd"
   xmlns:inkscape="http://www.inkscape.org/namespaces/inkscape"
   inkscape:version="1.0 (4035a4f, 2020-05-01)"
   height="193.72816"
   width="221.64984"
   sodipodi:docname="tiger-passant.svg"
   xml:space="preserve"
   viewBox="0 0 221.64984 193.72816"
   y="0px"
   x="0px"
   id="Layer_1"
   version="1.1"><metadata
   id="metadata32469"><rdf:RDF><cc:Work
       rdf:about=""><dc:format>image/svg+xml</dc:format><dc:type
         rdf:resource="http://purl.org/dc/dcmitype/StillImage" /><dc:title></dc:title></cc:Work></rdf:RDF></metadata><defs
   id="defs32467" /><sodipodi:namedview
   inkscape:current-layer="Layer_1"
   inkscape:window-maximized="0"
   inkscape:window-y="25"
   inkscape:window-x="0"
   inkscape:cy="109.95433"
   inkscape:cx="112.77269"
   inkscape:zoom="2.52"
   fit-margin-bottom="0"
   fit-margin-right="0"
   fit-margin-left="0"
   fit-margin-top="0"
   showgrid="false"
   id="namedview32465"
   inkscape:window-height="480"
   inkscape:window-width="820"
   inkscape:pageshadow="2"
   inkscape:pageopacity="0"
   guidetolerance="10"
   gridtolerance="10"
   objecttolerance="10"
   borderopacity="1"
   bordercolor="#666666"
   pagecolor="#ffffff" />
<style
   id="style32322"
   type="text/css">
	.st0{fill:#010101;}
	.st1{fill:#FFFFFF;}
</style>
<g
   transform="translate(-37.227315,-90.045669)"
   id="g32462">
	<g
   id="g32460">
		<path
   id="path32324"
   d="m 136.8,135.5 c 0.8,3.2 0,6.5 -2.8,7.8 -6.1,2.8 -1.6,8.4 -3.6,12.2 -0.6,1.2 2.7,2.2 4.5,3 1.2,0.5 1.9,0.5 2.5,-0.4 1,-1.4 1.1,-2.5 -0.9,-3.4 -0.9,-0.4 -0.6,-1.5 0.5,-1.6 1.6,-0.3 2.5,0.5 3,2 1.2,3.8 -4.2,9 -8.3,7.8 -2.1,-0.6 -4.2,-1.7 -6.5,-2.7 0,4.9 3.1,7.4 7,8.7 3.1,1 5.5,-0.1 5.4,-5.2 1.8,4.8 1.8,4.8 -8.5,9.2 14.3,0.4 28,-0.2 41.7,-1.8 18,-2.1 35.8,-2 53.2,4.3 7,2.5 14.1,0.7 16.3,-8.1 1.8,-7 -3.7,-11.1 -8.4,-10.2 -2.2,0.4 -4.7,1.1 -3.2,4.4 0.3,0.8 0.6,1.7 -0.2,2.3 -0.9,0.6 -1.8,0.3 -2.7,-0.3 -1.9,-1.1 -3.8,-1.8 -3.9,-4.5 -0.2,-3.5 0.4,-6.6 3.5,-8.7 1.6,-1.1 3.4,-1.7 5.5,-2.7 -2.4,-2.9 -5.9,-1.7 -8.6,-2.3 -6.8,-1.5 -14,-1.3 -20.9,-2.3 -10.4,-1.5 -19.1,-5.9 -24,-15.9 -4.4,-8.9 0.7,-22.7 13.5,-24.8 4.1,-0.7 8.4,-1.4 12.7,-1.3 4.8,0.2 5.4,-1.2 2.6,-5.7 4.9,-1.2 8,0.6 8.6,5.6 0.4,3 2.7,2.6 4.6,3.2 5,1.6 10.5,-0.1 12.1,-4.4 1.9,-4.8 -0.9,-7.7 -6.4,-9.4 5.8,-1 9,1 10.8,5.1 1.6,3.7 1.9,7.3 -1.6,10.7 -5.9,5.7 -11.4,12.4 -19.9,13.7 -5.5,0.8 -9.2,6.2 -15.1,5.2 -1.2,-0.2 -2.3,-0.1 -3.1,-1.3 0.8,-1.7 4.5,-1.9 3.2,-4.4 -1.2,-2.4 -3.7,-4.8 -6.7,-4.2 -2.7,0.6 -5.6,2.3 -5.9,5.8 -0.3,4.3 1.1,7.7 5.2,10.1 5.9,3.5 12.4,4.9 19,4.8 4.8,-0.1 9.6,0.6 14.2,1.6 3.4,0.7 3.5,0.1 3.6,-2.7 0.1,-5.3 2.8,-8.5 7.9,-9.7 5.2,-1.3 10.7,0.7 13,4.7 0.9,1.6 1.6,3.2 0.7,5 -1.1,0.3 -1.3,-0.2 -1.8,-1 -1.2,-2.3 -2.8,-5.2 -5.8,-3.2 -2.5,1.7 -4.3,4.4 -2.3,8 0.8,1.5 1.9,2.7 3.1,3.8 10.6,9.6 10.3,24.5 3.5,35.7 -3.4,5.6 -8.2,9.8 -14.4,11.8 -1.7,0.6 -2.4,1.1 -1.9,2.5 1.2,3.4 1.1,7 2.1,10.4 0.5,1.8 0.2,4.6 2.9,5.1 2.6,0.5 4.8,-0.1 6.1,-3.1 1.6,4.5 -1,7 -4,9.1 -1.1,0.8 -2.3,0.8 -1.3,2.7 3.2,5.8 4.6,12.3 10,17 3,2.7 4.8,2.2 7.3,-0.1 1,-1 1.6,-3.4 3.8,-2 1.8,1.1 1,3 1,4.6 0,2 -0.9,4.1 -2.7,5 -2.8,1.4 -4.1,3.3 -3.2,6.3 1.1,3.5 3.9,0.4 5.8,0.9 0,0.6 0,1.1 -0.1,1.2 -6.9,2.4 -6.6,8.9 -8.3,14.4 -0.7,2.4 -0.9,4.2 0.9,6.3 2.7,3 2,6.9 -1.1,8.8 -2.8,1.7 -3,1.3 -4,-1.9 -0.5,-1.6 -2.6,-3.3 -4.3,-3.8 -1.6,-0.5 -2.1,1.5 -2.1,3.1 0,1.9 -1.1,2.8 -2.8,2.6 -1.3,-0.1 -2.1,0.6 -3,1.3 -1.2,0.9 -1.8,3.4 -3.8,2.3 -2,-1 -1.2,-3.2 -1.2,-5 0,-0.7 0.3,-1.5 0.9,-3.5 -4.4,5 -9.5,-0.1 -13.8,2.8 -0.5,0.3 -1.9,0.4 -2,-0.7 -0.2,-1.1 -0.4,-2.2 0.4,-3.3 3.2,-4.3 8.3,-6.2 12.1,-9.8 0.5,-0.4 1.9,-0.5 2.4,-0.1 4.7,4.3 5.2,-0.6 6.3,-3 3.2,-7 2.2,-12.1 -3.5,-17.6 -2.4,-2.3 -4.3,-5.2 -7.8,-6.6 -3.2,-1.3 -5.4,-2.5 -7.6,1.1 -1,1.7 -3,1.5 -4.4,0.5 -2,-1.4 0.4,-2.1 0.9,-3 1.8,-3 1.3,-5.6 -1,-8 -1.4,-1.4 -2.8,-2.8 -4.2,-4.2 -3.9,6.8 -3.8,9.1 0.2,14.4 2,2.5 4.1,4.6 7.5,2.1 0.9,4.2 -3,3.7 -4.3,3.9 -2.6,0.4 -3.9,1.3 -4.2,3.7 -0.2,2.1 -0.4,4.2 2.8,4.8 2.4,0.5 0.7,1.9 -0.3,2.6 -2.5,1.8 -5.4,1.1 -8.1,1.3 -0.8,0.1 -2.4,-2.2 -2.6,0.8 -0.1,1.2 -1.8,2.1 -0.8,3.7 0.7,1 3,1.6 1.2,3.5 -1.5,1.6 -3.5,0.6 -5.2,0.9 -1.4,0.3 -2.5,-3.3 -3.8,-0.7 -0.9,1.9 -1,4.3 0.8,6.5 3.8,4.4 1.7,8.3 -2.7,10 -1.4,0.5 -3,0.6 -2.5,-1.5 0.8,-3.6 -2.5,-4.3 -4.1,-4.9 -1.8,-0.6 -1.8,2 -2,3.6 -0.1,1.3 -1,2 -2.4,2.1 -1,0 -1.8,0 -2.8,0.7 -1.5,1 -2.3,4.3 -4.5,2.8 -2.6,-1.7 -1.2,-4.6 -0.5,-8.2 -4.3,5 -9.2,0.4 -13.7,2.5 -2.9,1.3 -2.4,-2.4 -1.6,-3.5 3.1,-4.6 8.6,-6.4 12.5,-10.2 0.3,-0.3 1.5,-0.4 1.9,0 5.6,4.4 6.4,-1.5 8.1,-4.1 2.2,-3.3 4,-6.9 6.6,-10.1 3.3,-4 3.2,-11 0.2,-15.5 -0.6,-1 -1.3,-1.7 -2.8,-0.9 -2.1,1.2 -4.6,0.2 -6.8,0.5 -3.1,0.4 -4.8,-1.6 -5.8,-3.7 -0.9,-2.1 -0.6,-4.7 2.3,-5.9 0.6,1.6 2,2.9 3.4,4.1 1.5,1.3 2.9,0.5 3.8,-0.8 0.7,-0.9 2.6,-1.2 1.1,-3.4 -2.6,-4 -3.4,-8.7 -2.9,-13.7 -5,0.4 -9.2,3.1 -13.4,4.9 -6.8,2.9 -13.8,3.4 -20.7,4.5 -6.5,1 -12.4,4.9 -19.3,4.3 -0.2,0 -0.6,0.3 -0.8,0.5 -3,4.7 -5.4,9.6 -6.8,15 -0.2,0.7 0.1,1.9 0.6,2.3 5.9,4.3 -0.7,4.5 -2,4.8 -2.1,0.4 -2,1.4 -2.8,2.9 -2.7,5.4 -3.8,11.5 -8.1,16.1 -2.5,2.7 -6.5,5 -1.4,9.4 2.8,2.4 -0.7,8.5 -4.6,8.7 -0.8,0 -1.5,0.1 -1.8,-1.1 -1.3,-4.3 -1.4,-4.3 -5.7,-7.1 0.8,6.9 -7.1,4.7 -9.2,9 -0.2,0.4 -2,-0.9 -2,-2.1 0,-1.9 0.2,-3.8 0.3,-5.9 -2.9,1.2 -5.7,3.9 -8.8,0.5 -0.2,-0.2 -1.8,1 -2.8,1.4 -1.2,0.4 -2.9,1 -3.5,-0.4 -0.5,-1 -0.3,-2.4 0.7,-3.7 3.2,-4.1 8.3,-5.7 11.9,-9.4 0.5,-0.5 2.3,-0.4 2.8,0.1 3.6,3.6 4.7,0.3 5.8,-2.2 5,-10.5 8.2,-21.6 10.6,-32.9 0.3,-1.2 0,-2.6 0,-3.8 -8.1,1 -15.7,0.8 -22.3,-4.3 -1.5,1 -0.3,2.8 -1.2,4.1 -1.1,1.4 -1.6,3.7 -3.5,3.7 -1.3,0 -1.9,-2 -2,-3.4 -0.1,-2 -1.6,-1.4 -2.6,-1.3 -2.7,0.2 -0.1,1.5 -0.4,2.4 -0.7,2.3 0.3,4.3 2.5,5.4 0.8,0.4 1.7,0.6 1.3,1.6 -0.3,0.7 -1.1,1.5 -1.8,1.5 -3,0.1 -6.5,1.1 -8.1,-2.9 -0.7,-1.6 -2.1,-2.5 -3.3,-3.7 -1.7,0.7 0.5,3.1 -1.9,3.8 -4.2,1.2 -3.2,3 0.4,4.7 -3.3,1.6 -6.1,2.3 -8.4,-0.5 -1.9,-2.3 -1.2,-9.2 1,-11.8 -0.3,-0.1 -0.7,-0.4 -0.9,-0.3 -1.8,0.6 -3.4,3.7 -5.3,0.9 -1.5,-2.3 -0.7,-4.6 1.4,-6.5 2.1,-1.9 3.8,-4.1 7.2,-3.4 2.4,0.5 3.5,-1 4.3,-3 3.5,-7.9 9.5,-11.6 18.2,-11.1 5.3,0.3 10.6,0.1 15.9,0.1 0.9,-2.4 -2.1,-2.9 -1.9,-4.9 -1.1,1.1 -1.4,2.4 -1.2,4.1 -2.7,-1.4 -2.5,-4.2 -3.4,-6.1 -1.2,-2.6 -1.9,-5.1 -5.6,-4.2 -1.5,0.4 -3.6,-0.1 -3.3,-1.9 0.4,-2.8 1.9,0.1 2.9,0 1.1,-0.1 2.1,-0.3 2.5,-1.3 0.4,-0.9 -0.8,-1.2 -1.2,-1.8 -1.5,-2.5 -4,-2 -6.2,-1.9 -4.3,0.1 -8.4,-0.4 -12,-3.2 -3.4,-2.7 -3.1,-6.2 -0.7,-8.6 2.2,-2.2 5.4,-5.1 9.3,-1.9 -0.3,0.3 -0.4,0.4 -0.5,0.4 -2.3,0.3 -4.7,-0.1 -6.1,2.4 -0.7,1.3 0.2,1.8 0.9,2.5 2.2,2.1 4.8,3.1 7.6,1.9 2.8,-1.2 6,-2.3 1.6,-5.9 -2.1,-1.7 -3.9,-4.3 -1.4,-7.2 2.6,-3 5.7,-4.9 9.8,-2.5 -0.7,1.6 -2.2,0.5 -3,1.5 -0.7,0.9 -1.2,1.8 -0.7,2.7 0.5,1.2 1.4,2.4 2.8,2.6 1.1,0.2 1.7,-0.8 2.1,-1.8 1.4,-3.6 3.9,-6.3 6.4,-9.1 3.3,-3.7 2,-6.6 -2.8,-8.1 -5.9,-1.9 -11.8,-0.4 -17.7,-0.9 -1.9,-0.2 -3.8,-0.3 -5.7,-0.8 -4,-1.1 -4.8,-3.3 -3.5,-6.9 -6,-0.6 -7.7,-2.3 -7.1,-7.6 5.1,4.6 10.6,1.3 16,1.2 -0.4,-1.1 -0.3,-3.3 -1.8,-2.7 -4.5,1.8 -3.6,-1.4 -3.8,-3.6 -0.2,-4.6 -3.1,-6.2 -7.2,-3.7 -1.7,1 -3.4,2.2 -4.6,0.3 -1,-1.6 0.1,-3.5 1.8,-4.6 5,-3.2 10,-6.6 16.4,-6.5 4.3,0 8.6,0.4 12.2,-2.5 -1,-3.3 -7.4,-4.2 -5.1,-9.3 0.9,-2 2.9,-4.3 6.2,-2.8 -4.7,4.5 0.7,5.7 2.8,8.3 0,-3.6 0.5,-7.1 2.5,-10 2.3,-3.4 6,-2.7 9.5,-2.5 -0.1,1.6 -1.1,1.9 -2.3,1.9 -3.2,-0.2 -3.4,2 -3.2,4.3 0.2,2.2 1.3,4.7 3.2,5.1 2.1,0.4 2.3,-2.2 3.1,-4 2.8,-6.5 9.1,-8.3 15,-10.4 0.8,-0.3 2,0.1 1.6,1.2 -1.8,4.9 -1.2,10.2 -2.5,15.5 4.2,-5 9.7,-7.6 15.7,-9.4 3,-0.9 4,-0.3 4.1,3 0,4 -1.3,7.4 -4.1,10 -1.6,1.5 -2,3.1 -0.4,4.3 1.4,1 3.5,2.5 5.1,0 0.8,-1.2 1.1,-3.3 2.9,-2.5 2.1,0.8 1.4,3.1 1.4,4.9 0,1.9 -1.2,3.3 -2.3,4.7 -1.8,2.4 -4.7,4.6 -0.9,7.8 1.8,1.6 -1.7,2.9 -1,4.7 2.3,4.1 4.9,4.1 9.6,0 z"
   class="st0" />
		<path
   id="path32326"
   d="m 104.1,212.1 c -3.9,-0.5 -4.8,-4 -6.6,-6.9 -1.7,2.6 3.3,5.1 -0.3,7.6 -3,-8.6 -4.8,-16.7 4.4,-23.7 -7.3,2.4 -8.1,3.7 -8.9,13.3 -4.8,-10.1 3.9,-12.9 8.6,-17.6 -5.3,0.8 -8.3,4.4 -11,8.2 -1.7,0 -1.1,-1.6 -1.9,-2.2 -0.9,-0.7 -1.6,-1.1 -2.5,-0.1 -1.5,1.6 0.7,1.1 0.9,1.7 1,2.8 4.6,4.8 2.5,9.1 -3.6,-6.1 -8.7,-11.5 -0.2,-18.2 -4.3,0.9 -4.1,1 -5.5,4.6 -0.9,2.2 0.4,5.1 -2.2,6.9 -2.3,-6.8 2.3,-11.3 5.5,-16.5 -4.2,1.5 -2.3,-2 -3,-3.4 0.3,0.1 0.5,0 0.6,-0.3 0,0.3 -0.2,0.4 -0.5,0.5 -2.7,3 -1.8,7.3 -3.8,10.7 -0.7,1.2 -1.1,2.1 -2.9,2.5 1.1,-3.5 2,-6.6 3.1,-10.2 -3.2,1.4 -2.1,4.4 -3.9,5.8 -6.3,-4 3.1,-5.9 1.2,-9.3 -10.5,8.4 -17.4,8.8 -21.4,0.8 2.4,2.2 5,3.6 8.3,3.8 3.6,0.2 5.8,-1.8 8,-4.2 1.4,-1.6 4.1,-1.3 5.4,-4 -4.2,2.1 -7.1,0.9 -9,-2.8 -1.1,-2.1 -1.2,-2.1 1.7,-5.1 0.2,2.3 0.5,4.2 2.2,5.6 2.6,2.1 4.4,2.4 6.2,-1 1.6,-3.2 3.5,-6.2 6.4,-8.6 3.5,-2.9 2.2,-6.9 2.6,-10.7 1.8,1.1 1.8,3 2.2,4.6 5.7,-3.2 6.8,-5.7 4,-10 -0.5,2.9 -0.1,5.8 -3,8 -0.2,-1.6 -0.2,-3 -0.5,-4.3 -0.1,-0.7 -0.9,-1.8 -1.6,-1.3 -5.3,3.8 -10.7,-0.3 -16.2,0.4 -4.8,0.6 -9.8,1 -14.7,-0.7 -1.2,-0.4 -1.9,-1 -2.7,-2.6 2.6,-0.7 4.9,-0.5 7.3,-0.1 6.4,1.2 12.8,1.1 19,-0.6 3.1,-0.8 4.8,-3.6 4,-7 -0.9,-4.1 -2.7,-8.2 -7.3,-8.3 -1.6,-0.1 -3.2,-1.1 -5,-0.3 0.9,2.2 3.2,1.6 4.7,3 -5.1,-0.8 -10.4,-1 -15.1,-2.8 -2.9,-1.1 -6.3,-4.3 -3.3,-9.2 -2.8,3.7 -6.7,4.2 -11.4,4.7 5.3,-4.4 10.7,-6.7 16.7,-6.7 5.4,0 10.1,-1.2 15,-3.6 6.2,-3 12.8,-6 19.6,-1.2 1,0.7 3.3,0.6 2.6,2.6 -0.5,1.5 -2.3,0.9 -3.5,1 -0.8,0.1 -1.6,0.1 -2.5,0.1 0.6,1.8 2.3,0.1 3.1,1.4 -0.4,1.1 -3.1,1 -2.1,3.5 5.1,-1.3 8.6,-4.8 11.6,-8.9 3.5,-4.7 7.5,-8.4 13.7,-9.3 2.5,-0.4 2.6,0.3 2.3,2.1 -0.1,0.6 -0.4,1.4 -0.9,1.6 -3.7,1.7 -1,8.2 -6.4,8.5 1.1,5.3 -4,5.7 -6.5,8.1 -2.1,2 -5,2 -7.7,0.7 -1.1,2 1.2,2.4 1.3,3.8 -1.1,0.1 -2.2,0.3 -2.9,0.3 1.4,3.7 2.8,7.5 4.2,11.2 -2.1,0.5 -1.6,-1.9 -2.7,-2.4 -0.4,0.3 -0.9,0.5 -0.9,0.6 1,3.2 1.2,6.8 4.4,9.2 -4.6,1.3 -4.7,-6.9 -9.8,-4 1.3,1.6 1,3.8 1,6.5 1.7,-1.9 3,-3.4 5.1,-1.3 2.1,2 4.2,0.8 6.1,-0.7 1,-0.8 1.7,-1.9 -0.5,-2.3 -3,-0.6 -3.4,-2.1 -1.8,-4.6 1.8,-2.7 1,-6.6 0.1,-8.3 -1.7,-3.3 0.3,-3.2 1.8,-4.6 1.8,-1.6 2.2,-0.7 2.8,0.7 3.6,7.7 4.1,15.7 2.8,23.9 -0.5,3.4 -1,6.7 -1.5,10.1 -0.4,2.8 0.6,5.1 2.7,7 5,4.8 10.5,7.7 17.7,7.9 11.1,0.3 22.2,-0.4 33.2,-1.4 9.7,-0.9 19.3,-1.8 29,-1.8 9.9,0 19.1,2.9 28.4,5.6 10.3,3 19.8,-3.9 18.9,-13.5 -0.5,-4.9 -3.8,-8.7 -8,-9.1 -4.4,-0.4 -8.2,0.5 -9.5,5.7 -3,-4.1 -1.3,-7.2 2,-9.5 6,-4.2 8.2,-3.2 16,6.4 0.5,-4.7 -4,-10.6 -10.4,-12.5 -3.7,-1.1 -7.6,-1.5 -11.4,-2.1 -8,-1.2 -16.3,-1 -24.2,-3 -9.4,-2.4 -15.3,-8.8 -19.1,-17.3 -1.9,-4.3 3.3,-13.4 8.7,-16.8 5.2,-3.2 11.1,-1.8 16.7,-2.7 4.1,-0.7 6.7,-1.3 6.3,-6.2 4.3,4.9 4,6.3 -1.5,7.6 4.7,0.3 9.3,1 13.9,2.2 4.8,1.3 10.5,-3.6 12.2,-9.5 0.5,5.2 -4.3,11.8 -9.1,12.6 -5.5,1 -10.7,-2.2 -16.8,-1.9 9,5.1 9.8,5.2 16.8,3.2 -1.5,3.6 -5.6,5.4 -8.9,3.9 -3.8,-1.7 -7.5,-3.7 -11.4,-5.4 -5.9,-2.6 -11.8,-3.5 -17.1,1.9 4.5,-1.8 8.8,-3.9 13.9,-1.9 4.7,1.8 8.2,5.6 12.9,7.6 -3.2,2.9 -5.4,1.5 -7,-1.3 -2.2,-3.8 -5.1,-5.8 -10.4,-5 4.8,1.5 8.6,3.5 9,8.1 0.1,1.3 -2.2,4.1 -5.4,3.4 1.6,-3.4 0.3,-6 -2.2,-8.1 -2.7,-2.2 -6,-2.4 -9.2,-1.1 -3.2,1.2 -4.7,3.7 -4.9,7.1 -0.7,9.3 8,15 17,16.3 9.8,1.4 19.9,0.4 29.9,4.1 -0.6,-4.1 -2.2,-8.4 1.2,-11.5 2.9,-2.5 6.6,-3.4 10.6,-2.5 -1.8,2.2 -5.4,2.8 -5.6,6.5 -0.2,3.6 0.4,6.5 3.2,9.3 5.6,5.4 9.2,12 8.8,20.3 -0.2,4.9 -2.6,8.9 -4.8,13 -1.2,2.2 -3,2 -4.9,0.2 -0.1,2.5 1.9,2.1 2.3,3.2 -1.6,1.4 -2.7,-1 -4.1,-0.5 -0.3,1.8 1.9,1.3 2.2,2.5 -2.2,1.1 -4.3,-0.5 -6.4,-0.6 0.6,2.7 3.3,1.1 4.5,2.5 -2.5,0.7 -4.9,0.3 -7.3,-0.7 0.2,2.4 2.1,1.8 3.2,2.4 -0.1,0.2 -0.2,0.6 -0.4,0.6 -1.3,0.4 -2.6,1.9 -4.1,0.7 -1.3,-1.1 -2.4,-2.3 -3.5,-3.5 -3.5,-4 -7.9,-5.5 -13.3,-5 2.7,3 6.7,2.8 9.7,5.1 6.5,5.2 6.7,12.7 8,19.7 1.3,6.6 1,6.7 7.7,7.3 -3.2,2.7 -6.5,4 -10.5,0.5 0.1,1.1 0.1,1.8 0.3,1.9 5.7,2.3 7.4,7.6 9.7,12.5 1.5,3.3 3.5,6.2 6.3,8.7 1,0.9 2.6,1.4 2,3.8 -0.5,2.4 2.3,1.4 3.2,1 2.5,-1.1 5.1,-2.1 6.9,-4.8 0.3,5.6 -2.5,7.8 -10.3,8.6 5.8,0.1 3.4,6.1 7.1,8 -3.4,1.4 -4.6,-2.3 -7.1,-2.2 -0.3,1.7 1.1,2.2 1.8,3 0.9,1.1 2.8,2 2,3.6 -0.7,1.6 -2.5,-1.2 -3.8,0.6 5.4,2.3 0.2,6.5 1.7,9.7 0.3,0.6 -0.4,0.9 -3.4,-1.1 -0.8,1.4 -0.6,2.9 0.8,3.4 4.2,1.4 3,3.6 1.2,6.1 -2.1,-0.9 -2.8,-4.4 -5.6,-3.5 -2.9,0.9 -2.8,4 -3.1,6.5 -2.4,-0.2 -3.4,-2.4 -5.5,-2.9 1.2,-2.4 5.9,-0.4 5.1,-4.2 -0.1,-0.5 -4,1.5 -5.9,2.7 -2.2,1.4 -5.4,-0.1 -6.7,3.3 0.2,-2.5 0.6,-4.3 -0.6,-6.4 2,0 3.8,-0.2 5.5,0 3.3,0.5 5.2,-1.6 6.2,-4 2.4,-6 5.1,-12.1 1.9,-18.7 -0.6,-1.2 -0.3,-1.2 0.7,-1.4 3.2,-0.6 0.2,-1.7 0,-1.8 -4,-0.4 -6.1,-3.6 -8.7,-6 -1.6,-1.6 -3.1,-3.3 -5.6,-3.7 -2.8,-0.4 -3.4,-3.1 -4.8,-5.7 -0.4,3.3 -2.1,5.5 -3.8,7.9 0.6,-2.9 0,-6 1.8,-8.5 1,-1.4 0.6,-2.5 -0.5,-2.7 -1.7,-0.4 0,2 -1.3,2.1 -9.2,-7.2 -15.5,-16.7 -21.6,-26.4 -2.6,-4.2 -5.7,-8 -13.3,-6.8 6.7,2.5 10.1,7 14.5,11.2 -4,1.3 -4.9,-3.7 -8,-3.1 -0.2,1.7 1.2,1.9 2.3,2.6 2.5,1.5 1.6,3.6 0,4.8 -1.5,1.2 -1.2,2.6 -0.9,3.5 0.4,1.2 2.3,0.8 3,0.3 2.7,-1.7 4.9,-0.8 7.2,0.7 -2.2,0.6 -4.1,1.9 -6.5,1.5 2.5,3.5 7.2,1.1 9.9,4.9 -5.4,-0.3 -9.7,-3.6 -14.8,-2.5 4.1,0.9 7.2,4.1 11.5,4.7 1.7,0.2 3.3,1.6 3.1,3.4 -0.6,6 2,10.5 6,14.5 0.6,0.6 0.9,0.7 0.3,1.3 -0.5,0.6 -1.1,0.6 -1.5,-0.1 -0.6,-0.9 -1.1,-2.1 -1.9,-2.8 -1,-0.8 -2.2,-0.7 -3.1,0.4 -1.4,1.8 0.9,1 1.3,1.6 0.8,1.5 2.8,3.3 1.8,4.7 -2.5,3.4 -0.3,5.2 2.2,7.3 -5,1.6 -8.2,-0.3 -10.7,-4.2 -0.6,1.8 0,3.2 0.6,4.8 0.5,1.2 0.4,2.9 -1,3.5 -1.6,0.6 -1.6,-1.5 -2.6,-2.6 -0.8,4.2 3.4,4.9 4.5,7.9 -1.4,0.2 -2.8,0.8 -3.9,-0.5 -1.4,-1.8 -2.3,-1.6 -4.2,-0.3 -3,2 -0.7,-3.6 -3.5,-2.4 -0.6,1.3 1,2.4 1.1,3.8 0.1,1.1 1.5,2.5 0.2,3.4 -1.3,0.9 -1.8,-1.5 -3.2,-1.4 -0.6,1.3 -0.4,2.6 0.8,3.1 3.7,1.4 4.1,3.5 1.2,6.2 -0.5,-0.4 -1.3,-1 -1.9,-1.8 -2.9,-3.5 -5.3,-2 -5.9,1.3 -0.9,5.1 -2.7,3 -4.8,1.1 -0.3,-0.3 -0.8,-0.4 -1.3,-0.7 1.2,-2.2 5.3,-0.6 5.7,-5.1 -4.2,3.4 -9.5,2.9 -13.7,7.3 0.5,-2.8 1.2,-4.8 -0.3,-7.1 8.2,2.4 11.7,-3.3 14.8,-8.7 2.2,-3.8 4.3,-7.5 7.2,-10.9 3.1,-3.6 2.1,-8 1.3,-12.2 -0.3,-1.5 -1,-3 -1.5,-4.5 2.1,-0.2 3.4,2.2 5.6,1.3 -3.5,-3.5 -7.1,-4.4 -12.1,-3 -3.1,0.9 -7.6,1.7 -9.5,-3.5 4.5,4.2 8.1,3.2 11.5,-1.2 0.9,-1.2 2.6,-1.7 4.3,-2.7 -1.6,-0.8 -3.9,0.4 -4.6,-2 0.7,-0.3 1.6,-0.6 2.4,-0.9 -3.7,0.8 -2.4,-3.4 -4.3,-4.3 0.6,-0.7 1.4,-1.9 2.4,-0.9 3.5,3.4 6,0.1 8.9,-1.1 -3.8,-0.5 -7.9,1.5 -11.3,-2.1 2.6,-0.1 5.1,-0.7 7.8,-0.1 -1.5,-1.2 -3.1,-2.4 -5,-3.9 0.9,-0.1 1.6,0 2.2,-0.3 1.5,-0.6 3.5,2.1 4.5,-0.7 1,-2.7 -2.7,-2.3 -3.1,-4.3 -0.3,-1.5 -1.1,0.1 -1.6,0.3 -7.9,3.6 -15.8,6.9 -23.9,10 -3.3,1.3 -4.5,-2.7 -7,-1 0.3,1.2 1.2,1.8 2.7,1.8 -0.6,0.5 -0.7,0.8 -1,0.8 -2,0.4 -3.9,-0.2 -5.6,-1.2 -0.8,-0.4 -1.6,-1.5 -2.3,0 -0.5,1.2 1.3,1 1.5,1.9 -2.4,0.8 -4.3,0.1 -6.3,-0.9 -3.2,-1.7 -2.6,0.2 -1.2,2.6 -3.2,-1 -4.7,-4 -7.8,-3.1 0.1,2.1 2.7,1.5 3.3,3.5 -4.6,0.6 -8.9,4.2 -13.6,0.3 2.9,0.4 5.8,2.1 8.4,-0.6 -8,-1.6 -9,-2.7 -7.8,-8 1.9,0.1 2.7,-1.3 3.6,-2.7 -0.9,1.4 -1.8,2.7 -3.7,2.7 0.4,-1.7 0.9,-3.4 1.4,-5.1 -2.2,0.2 -1.9,2 -2.1,3.6 -1.2,-1.2 -1.5,-3.5 -3.2,-2.7 -1.4,0.7 0,2.2 0.2,3.4 0.7,4.2 2.7,8.5 0,12.8 -3.7,0.1 -3.8,-9.4 -10.4,-3 4.9,-1.6 6,2 7.5,4.4 2,3 -0.4,5.9 -1.2,9.2 -0.8,-1.8 -1.4,-3.3 -1.9,-4.7 -0.1,5.4 -2.1,10.9 0.6,16 -3.2,0.2 -4,-0.6 -5.7,-6 -1.7,2.1 -1.7,2.1 -0.7,4.5 1.2,2.9 2,6 -0.2,8.7 -2.2,2.7 -1.4,-0.9 -2.7,-1.4 0,2.5 0,4.9 0,7.5 -2.1,-1.3 -0.2,-3.5 -1.8,-4.4 -1.1,2.8 0.9,6.1 -1,8.6 -1.6,2.1 -3.2,5.3 -6.9,2.8 -0.6,2.5 1.2,2.9 2.6,3.6 -1.7,0.9 -2.9,1.9 -5.5,1.5 2.7,2.5 7.8,3.6 3,7.8 -2.2,-1.6 -4.1,-3.7 -5.6,-6.8 -0.7,1.2 -1.6,2 -1.7,2.9 -0.8,6.9 -3.9,4 -6.8,1.6 1.9,-1.2 4.3,-1.7 6,-5 -5.1,2.4 -9.2,4.3 -13.7,6.4 -0.1,-1.7 1.5,-3.8 -1.1,-6 10.7,1.8 13.8,-5.1 16.6,-12.3 3.3,-8.3 6.1,-16.8 8.5,-25.5 0.9,-3.3 0.4,-6.6 0.4,-9.9 0.1,-8 0,-8 6,-10.2 1.4,-1.2 2.7,-0.4 3.8,0.3 -1.3,1.5 -2.4,-1.8 -3.8,1.4 z"
   class="st1" />
		<path
   id="path32328"
   d="m 87.1,216 c -0.3,3.3 2,5.1 2.6,7.6 -1.5,0.9 -2,-0.4 -2.6,-1.3 -1.4,-1.9 -1.2,-1.8 -2.5,0 -1.2,1.6 -2.9,0.2 -4.2,0.6 -1,-2.2 2.3,-2.6 1.5,-4.5 -0.1,0 -0.3,-0.1 -0.4,-0.1 -1.9,0.3 -2.4,4.6 -4.6,2.6 -1.8,-1.5 2.9,-2.1 1.8,-4.9 -2.2,1.4 -3.8,5.1 -6.9,2.8 -2.1,-1.6 -3.8,-3.6 -6.1,-5 -1.5,2.2 0.1,3.2 1.1,4.5 0.6,0.8 3.2,0.4 1.9,2.5 -1.1,1.7 -3.6,1.9 -4.3,0.8 -2.2,-3.6 -4.2,1.8 -6,-0.2 -1.1,2 0.5,3.1 1.7,4.2 1.3,1.2 1.3,2.7 0.7,4.1 -0.4,0.9 -1.7,0.7 -2.2,0.2 -1.5,-1.4 -3.8,-2.3 -3.5,-5 0.1,-0.8 1.3,-1.2 0.5,-2.8 -2.6,2.6 -6.2,4.2 -4.7,8.8 -0.6,0.1 -0.9,0.2 -0.9,0.1 -1.3,-2.3 -5.5,-0.9 -5.6,-3.2 -0.1,-1.4 3.1,-2.9 4.8,-4.4 3.6,-3.2 3.7,-8.1 5.6,-12.1 2.8,-5.8 7.2,-8.1 13.1,-8.2 5.2,-0.1 10.3,0 15.7,0 -0.9,1.8 -3.8,2 -3.4,5 2.4,-1.9 4.2,-4.4 7.9,-3.9 -1.7,1.1 -3,1.9 -4.7,2.9 3.1,2.2 4.7,-0.9 6.8,-1.1 0.5,0 1.3,-1.7 1.6,0.1 0.1,0.7 0.4,1.2 -1.3,1.4 -3.3,0.5 -2.1,3.9 -2.3,6.3 0,0.3 0.7,0.7 1,1 0.7,-1.2 1.4,-2.3 2.1,-3.5 1.8,0.7 1.8,2.3 1.4,3.7 -0.9,3.1 -1.2,3.1 -0.5,4.9 0.3,0.8 0.2,1.2 -0.3,1.6 -1,0.9 -1.5,-0.2 -1.8,-0.7 -0.8,-1.6 -0.8,-3.6 -3,-4.8 z"
   class="st1" />
		<path
   id="path32330"
   d="m 123.9,138.7 c 0.4,5.5 6.3,7.8 4.8,13.1 -1.4,-1.5 -1.9,-3.7 -5.6,-3.8 4.1,4.5 4.9,10.3 11.9,13 -6,-0.4 -9.3,-2.7 -10.9,-8.5 -1.9,8.9 -2.5,11.6 5.5,18 -3.7,0.4 -3.7,0.4 -11,-12.1 -0.9,4 -0.3,6 2.9,10.3 -5.7,-2.8 -6.7,-5.5 -5.8,-11.3 1.6,-10.8 3.2,-21.7 -2,-32.2 -0.6,-1.2 -1.4,-2.7 0.3,-3.2 3,-0.7 3.1,-6.4 7.7,-4.3 4.6,2.1 5.3,1.8 7.8,-1.5 0.2,5.7 -3.8,7.2 -11.1,4.1 1.7,3.3 1.7,3.4 7.3,3.8 -1.2,1.5 -2.8,1.7 -4.5,2.2 2.3,1.4 4,3.2 5.8,5.3 -2.4,1 -3.1,-3 -6,-1 5.3,2 4.2,11.5 12.4,9.8 -2.9,3.8 -4.3,3.7 -9.5,-1.7 z"
   class="st1" />
		<path
   id="path32332"
   d="m 106,101.7 c -1.4,0.2 -2.5,0.4 -3.5,0.6 0.7,1.5 2.3,0.2 3.2,1.2 -1.1,0.5 -2.3,1 -3.4,1.5 -0.5,0.2 -1.6,0.4 -0.4,1 0.9,0.4 2.3,-0.3 1.2,1.8 -1.3,2.5 -2.3,0.1 -2.9,-0.1 -1.9,-1 -5.5,0 -5.6,-2.3 -0.1,-2.7 1.8,-5.3 4,-7.5 2,-2 4.6,-2.3 6.8,-3.5 0.7,-0.4 1.1,-0.1 1.6,0.5 1.5,1.7 -3.1,0.1 -1.2,2.3 1.4,1.7 0.4,2.9 -1.8,3 -0.4,-0.1 0.2,0.7 2,1.5 z"
   class="st1" />
		<path
   id="path32334"
   d="m 51.6,137.5 c 10.5,-0.3 21,-4.2 31.3,0.9 -10.4,-2.4 -20.9,0 -31.3,-0.9 z"
   class="st1" />
		<path
   id="path32336"
   d="m 80.2,133.5 c -3.8,1.5 -6.7,-0.8 -9.8,-0.5 -1,0.1 -1.4,-0.5 -1.4,-1.5 0,-1.4 0.9,-1.5 2,-1.5 3.3,0 6.1,1.3 9.2,3.5 z"
   class="st1" />
		<path
   id="path32338"
   d="m 83.1,108.1 c 0.1,-3.5 -1,-6.8 1.7,-10 0.1,3.3 0.6,6.3 3.2,8.5 -1.6,0.4 -2.9,0.9 -4.9,1.5 z"
   class="st1" />
		<path
   id="path32340"
   d="m 44.3,222.5 c -1.4,-7.2 2.6,-5.1 5.5,-4.8 -1.7,1.4 -3.8,2.2 -5.5,4.8 z"
   class="st1" />
		<path
   id="path32342"
   d="m 64.7,275 c 1.4,-1.1 2.8,-2.3 4.2,-3.4 1.4,-1.2 2.2,-0.2 2.7,0.8 0.8,1.4 -0.3,1.4 -1.3,1.7 -1.6,0.5 -3.2,1.3 -4.7,2 -0.3,-0.4 -0.6,-0.8 -0.9,-1.1 z"
   class="st1" />
		<path
   id="path32344"
   d="m 214.9,274.5 c 2,-1.5 3.3,-2.4 4.6,-3.5 0.8,-0.6 1.4,-1.5 2.4,-0.5 0.4,0.4 1,1.1 0.9,1.6 0,1.3 -1.2,0.7 -1.9,0.9 -1.5,0.4 -2.7,2.2 -6,1.5 z"
   class="st1" />
		<path
   id="path32346"
   d="m 155.9,274.7 c 1.5,-1.6 2.8,-3 4.2,-4.4 1.1,-1 1.9,0 2.4,0.7 0.8,1.1 0.5,1.9 -1,1.9 -1.9,0.1 -3.1,2.3 -5.6,1.8 z"
   class="st1" />
		<path
   id="path32348"
   d="m 79.5,108.8 c -2.9,-1.8 -6,-3.6 -6.3,-7.4 1.7,2.8 4.8,4.5 6.3,7.4 z"
   class="st1" />
		<path
   id="path32350"
   d="m 65.7,140.2 c 3.6,0 7.1,0 10.7,0 0,0.2 0,0.3 0,0.5 -3.6,0 -7.2,0 -10.7,0 0,-0.2 0,-0.3 0,-0.5 z"
   class="st1" />
		<path
   id="path32352"
   d="m 45.8,230.5 c 1.9,1.9 1.1,3.5 1.1,5.1 -1.8,-1.8 -1.8,-1.8 -1.1,-5.1 z"
   class="st1" />
		<path
   id="path32354"
   d="m 171.4,279.9 c -1,-2 0.4,-3.2 1.2,-4.6 0.4,0.3 0.9,0.6 1.1,0.9 0.8,2.3 -1.3,2.6 -2.3,3.7 z"
   class="st1" />
		<path
   id="path32356"
   d="m 231.4,279.9 c -1,-2 0.4,-3.2 1.2,-4.6 0.4,0.3 0.9,0.6 1.1,0.9 0.8,2.3 -1.3,2.6 -2.3,3.7 z"
   class="st1" />
		<path
   id="path32358"
   d="m 80.4,280.9 c -1,-2 0.4,-3.2 1.2,-4.6 0.4,0.3 0.9,0.6 1.1,1 0.8,2.2 -1.3,2.5 -2.3,3.6 z"
   class="st1" />
		<path
   id="path32360"
   d="m 165.9,266.6 c 3,-3.1 3.6,-0.1 5.8,1.7 -2.6,-0.8 -4,-1.2 -5.8,-1.7 z"
   class="st1" />
		<path
   id="path32362"
   d="m 230.7,267.5 c -1.8,0.7 -2.6,-1.7 -4.3,-0.6 2.2,-3.6 3,0 4.3,0.6 z"
   class="st1" />
		<path
   id="path32364"
   d="m 74.7,267.5 c 2.9,-1.2 2.9,-1.2 5.1,1.5 -1.7,-0.5 -3.1,-0.9 -5.1,-1.5 z"
   class="st1" />
		<path
   id="path32366"
   d="m 249.4,277.2 c -0.5,-2.1 -1,-3.7 1,-4.9 1.2,1.7 0.7,3 -1,4.9 z"
   class="st1" />
		<path
   id="path32368"
   d="m 99.8,275.1 c 0.3,2.2 0.6,3.8 -1.5,4.7 -0.5,-1.8 -0.8,-3.5 1.5,-4.7 z"
   class="st1" />
		<path
   id="path32370"
   d="m 189.4,277.2 c -0.5,-2.1 -1,-3.7 1,-4.9 1.2,1.7 0.7,3 -1,4.9 z"
   class="st1" />
		<path
   id="path32372"
   d="m 67.1,133 c -2.1,-1.1 -2.5,-2.2 -1.8,-3.6 0.1,-0.2 1.2,-0.2 1.2,-0.2 0.2,1.1 0.4,2.2 0.6,3.8 z"
   class="st1" />
		<path
   id="path32374"
   d="m 40.5,224.3 c -0.8,-2.4 -0.3,-3.5 1.1,-4.1 1.1,1.6 -0.9,2.3 -1.1,4.1 z"
   class="st1" />
		<path
   id="path32376"
   d="m 68.7,226.7 c -1,-1.3 -0.8,-2.3 0.3,-3.1 0.5,-0.4 0.9,-0.4 1,0.1 0.3,1.3 -1.7,1.6 -1.3,3 z"
   class="st1" />
		<path
   id="path32378"
   d="m 60,126.5 c 0.9,0.7 2.1,1.4 1.4,2.5 -0.2,0.3 -0.8,0.5 -1.2,0.7 0,-1.1 -0.1,-2.1 -0.2,-3.2 z"
   class="st1" />
		<path
   id="path32380"
   d="m 76.5,116.9 c 9,-5.4 13.6,0.5 17.7,7.3 -5.5,-3.4 -13.4,-1.2 -17.7,-7.3 z"
   class="st0" />
		<path
   id="path32382"
   d="m 187.5,200.1 c -11.4,-3.8 -21.3,3 -31.9,4 -0.9,-2.2 4.4,0.5 1.9,-2.9 -0.1,-0.2 0.7,-1 1.5,-0.7 0.4,0.2 0.9,0.5 1.3,0.5 3.7,-0.4 7.3,-1.4 10.7,-2.4 6.5,-1.8 10.8,-2.4 16.5,1.5 z"
   class="st0" />
		<path
   id="path32384"
   d="m 107.3,116.8 c 7,-10.5 7,-10.5 13.9,-13.1 -2.3,4.5 -6.9,6 -7.8,10.2 -0.4,-0.1 0.4,0.1 1.1,0.3 -1.8,2.2 -4,3.4 -7.2,2.6 z"
   class="st0" />
		<path
   id="path32386"
   d="m 105.3,219.9 c 1.5,-1.1 2.7,-1.9 2.9,-3.6 2.7,1.9 -1.2,4 0.4,6.1 0.2,0.3 -1.7,0.9 -2.5,0.1 -2.5,-2.3 -4.3,-5 -5.7,-8.2 2.6,0.7 4.5,2.2 4.9,5.6 z"
   class="st0" />
		<path
   id="path32388"
   d="m 200.8,226.7 c -4.3,-4.4 -10.8,-1.4 -15.2,-5 3.3,-2.2 12.9,0.8 15.2,5 z"
   class="st0" />
		<path
   id="path32390"
   d="m 222.7,193.7 c -1.6,-4.6 -5.3,-6.9 -8.7,-9.2 3.9,-0.7 10.2,3.3 11,7.5 0.4,2 -0.8,2.3 -2.4,1.6 z"
   class="st0" />
		<path
   id="path32392"
   d="m 89.6,127.4 c -4.2,1.3 0.6,2.1 0.1,3.6 -5.4,-1.4 -7.7,-6.4 -11.3,-9.7 4.1,1.3 6.7,5.5 11.2,6.1 z"
   class="st0" />
		<path
   id="path32394"
   d="m 96.6,184 c 2.1,-4.6 7,-6.2 10,-9.7 -1.2,5.5 -5.9,7.3 -10,9.7 z"
   class="st0" />
		<path
   id="path32396"
   d="m 84.2,143.5 c 3.8,-2.4 4.8,-5.6 3.3,-9.6 -0.3,-0.9 0.3,-1.3 0.7,-1.4 1.4,-0.3 2.1,1 2.3,1.8 1.2,3.9 -1.6,8.1 -6.3,9.2 z"
   class="st0" />
		<path
   id="path32398"
   d="m 203.7,246.6 c -5.1,-2.1 -6.8,-6.8 -11.1,-7.8 -0.1,0 -0.2,-0.6 -0.1,-0.7 0.3,-0.4 1,-1 1.1,-0.9 3.6,2.3 7.3,4.4 10.1,9.4 z"
   class="st0" />
		<path
   id="path32400"
   d="m 198.3,238.8 c -2.2,-2.6 -3.9,-4.6 -5.6,-6.6 -0.4,-0.4 -2,0.2 -1.1,-1.3 0.4,-0.7 1.3,-1.5 2,-0.7 2,2.4 5.7,3.6 4.7,8.6 z"
   class="st0" />
		<path
   id="path32402"
   d="m 157.6,209.2 c -4.4,1.2 -8.9,3.3 -13.4,0.1 4.5,2.9 8.8,-1.6 13.4,-0.1 z"
   class="st0" />
		<path
   id="path32404"
   d="m 222.6,193.6 c 2.2,2.4 3.8,5.1 4.8,8 -3.2,-0.2 -6.3,-5 -4.7,-7.9 0,0 -0.1,-0.1 -0.1,-0.1 z"
   class="st0" />
		<path
   id="path32406"
   d="m 193.3,226.7 c 3.5,0.1 6.5,0.9 7.4,5.1 -4.1,0.7 -4.7,-3.8 -7.3,-5.2 z"
   class="st0" />
		<path
   id="path32408"
   d="m 175.4,204.3 c -0.3,-1.7 -2.7,-1.1 -3,-3.1 2.9,-1.1 5.3,1.7 8.5,0.5 -1.6,2.5 -3.8,2.1 -5.7,2.4 z"
   class="st0" />
		<path
   id="path32410"
   d="m 123.6,209.5 c 2.9,-1.1 2.6,-4.7 5.3,-6.5 0.4,4.3 -0.9,6.6 -5.2,6.4 0,0 -0.1,0.1 -0.1,0.1 z"
   class="st0" />
		<path
   id="path32412"
   d="m 104.1,212.1 c -0.2,-1.3 -0.3,-2.7 -0.5,-4.3 2.8,1.1 3.5,5.1 8,4 -3.4,2.5 -5.4,-0.5 -7.6,0.2 -0.1,-0.1 0.1,0.1 0.1,0.1 z"
   class="st0" />
		<path
   id="path32414"
   d="m 175.2,204.2 c -2.8,1.3 -5.7,3.1 -8.9,0.1 3.2,0 6.1,0 9,0 0.1,0 -0.1,-0.1 -0.1,-0.1 z"
   class="st0" />
		<path
   id="path32416"
   d="m 183.2,188.3 c 4.5,-0.6 6.7,1.1 8.6,3.4 -2.5,-1 -5,-2 -8.6,-3.4 z"
   class="st0" />
		<path
   id="path32418"
   d="m 87.9,113.1 c -2.1,0.3 -4.3,0.6 -6.4,1 2,-2.5 4.1,-3 6.3,-0.8 z"
   class="st0" />
		<path
   id="path32420"
   d="m 159.2,208.8 c 1.8,-3.8 4.3,-1 6.3,-1.4 -2,0.7 -3.8,2.2 -6.3,1.4 z"
   class="st0" />
		<path
   id="path32422"
   d="m 193.1,242.4 c 0.5,-0.2 0.6,-0.4 0.7,-0.4 2,0.8 3.3,2.4 4.7,3.9 -0.2,0.2 -0.6,0.7 -0.7,0.6 -2.1,-0.6 -3.2,-2.6 -4.7,-4.1 z"
   class="st0" />
		<path
   id="path32424"
   d="m 87.4,165.1 c -1.1,-3.3 1.3,-3.9 3.1,-6 0.1,3.2 -1.5,4.4 -3.1,6 z"
   class="st0" />
		<path
   id="path32426"
   d="m 225.8,205.8 c 2.8,0.2 5,0.9 2.8,3.9 -1,-1.3 -1.9,-2.6 -2.8,-3.9 z"
   class="st0" />
		<path
   id="path32428"
   d="m 87.7,113.3 c 2.3,-0.5 3.9,0.7 5.2,2.4 0.1,0.2 -0.3,1.2 -0.4,1.2 -2.3,-0.3 -3.3,-2.2 -4.6,-3.7 0,-0.1 -0.2,0.1 -0.2,0.1 z"
   class="st0" />
		<path
   id="path32430"
   d="m 195.1,191 c 1,0.3 1.8,1 1.9,2.3 0,0.8 -0.1,2 -1.1,1.5 -0.8,-0.4 -1.4,-1.5 -1.8,-2.5 -0.3,-0.5 0,-1.2 1,-1.3 z"
   class="st0" />
		<path
   id="path32432"
   d="m 175.7,189.9 c 1.6,0.8 3.3,1.6 5.1,2.5 -3.3,0.5 -3.3,0.5 -5.1,-2.5 z"
   class="st0" />
		<path
   id="path32434"
   d="m 128.2,209.6 c 1.7,-2.8 4.1,-0.5 5.7,-2 -1.8,1 -3.2,3.2 -5.7,2 z"
   class="st0" />
		<path
   id="path32436"
   d="m 189.2,254 c 3.4,2.2 -0.1,3.8 0,5.6 0,-1.7 0,-3.4 0,-5.6 z"
   class="st0" />
		<path
   id="path32438"
   d="m 193.4,226.6 c -2.3,0.2 -4.6,0.3 -7,0.5 2.3,-1 4.6,-1.7 6.8,-0.3 0.1,-0.1 0.2,-0.2 0.2,-0.2 z"
   class="st0" />
		<path
   id="path32440"
   d="m 189.5,240.2 c -0.7,-2.3 -0.9,-3.9 1.5,-5.2 -0.5,1.8 -0.9,3.2 -1.5,5.2 z"
   class="st0" />
		<path
   id="path32442"
   d="m 83.9,174.9 c 1,-1.2 1.7,-2.7 4.4,-3 -1.6,1.7 -2.2,3.6 -4.6,2.8 0,0.1 0.2,0.2 0.2,0.2 z"
   class="st0" />
		<path
   id="path32444"
   d="m 199.7,197.1 c -0.7,-0.8 -1.2,-1.2 -1.5,-1.7 -0.3,-0.6 -0.1,-1.2 0.7,-1.4 0.8,-0.1 1.2,0.3 1.1,1.1 -0.1,0.6 -0.2,1.1 -0.3,2 z"
   class="st0" />
		<path
   id="path32446"
   d="m 159.7,193.6 c 2.2,-0.8 3.6,-0.8 5,-0.1 -1.4,0.8 -2.7,0.6 -5,0.1 z"
   class="st0" />
		<path
   id="path32448"
   d="m 171,192.2 c -0.3,0.7 -0.8,1 -1.4,0.6 -0.5,-0.3 -0.8,-0.9 -1.3,-1.3 0.6,-0.1 1.1,-0.4 1.7,-0.4 0.8,-0.1 1,0.4 1,1.1 z"
   class="st0" />
		<path
   id="path32450"
   d="m 79.5,209.2 c 1.7,5 -2.7,5.4 -5.6,8.2 0.6,-4.5 6,-4.1 5.6,-8.2 z"
   class="st0" />
		<path
   id="path32452"
   d="m 86.7,211.6 c 0.5,3.6 -1.2,5.4 -3.5,7 0.7,-2.4 1.5,-4.7 3.5,-7 z"
   class="st0" />
		<path
   id="path32454"
   d="m 75.7,211.5 c -0.8,1.3 -1.6,1.6 -2.7,1.4 -1.8,-0.4 -0.2,-1 -0.1,-1.5 0.1,-1.9 0.9,-0.9 1.7,-0.5 0.5,0.3 1.3,0.1 1.1,0.6 z"
   class="st0" />
		<path
   id="path32456"
   d="m 82.4,207.6 c 1,2.4 0.5,3.5 -1.1,4.2 -0.8,-1.6 0.9,-2.2 1.1,-4.2 z"
   class="st0" />
		<path
   id="path32458"
   d="m 83.6,120 c -2.7,-2.5 -1.1,-3.3 1.2,-4.5 -0.5,1.8 -0.8,3.1 -1.2,4.5 z"
   class="st1" />
	</g>
</g>
</svg>
