<?xml version="1.0" encoding="UTF-8" standalone="no"?>
<svg
   xmlns:dc="http://purl.org/dc/elements/1.1/"
   xmlns:cc="http://creativecommons.org/ns#"
   xmlns:rdf="http://www.w3.org/1999/02/22-rdf-syntax-ns#"
   xmlns:svg="http://www.w3.org/2000/svg"
   xmlns="http://www.w3.org/2000/svg"
   xmlns:sodipodi="http://sodipodi.sourceforge.net/DTD/sodipodi-0.dtd"
   xmlns:inkscape="http://www.inkscape.org/namespaces/inkscape"
   inkscape:version="1.0 (4035a4f, 2020-05-01)"
   height="255.27576"
   width="154.07788"
   sodipodi:docname="tower.svg"
   xml:space="preserve"
   viewBox="0 0 154.07788 255.27576"
   y="0px"
   x="0px"
   id="Layer_1"
   version="1.1"><metadata
   id="metadata33855"><rdf:RDF><cc:Work
       rdf:about=""><dc:format>image/svg+xml</dc:format><dc:type
         rdf:resource="http://purl.org/dc/dcmitype/StillImage" /><dc:title></dc:title></cc:Work></rdf:RDF></metadata><defs
   id="defs33853" /><sodipodi:namedview
   inkscape:current-layer="Layer_1"
   inkscape:window-maximized="0"
   inkscape:window-y="25"
   inkscape:window-x="0"
   inkscape:cy="126.27575"
   inkscape:cx="74.977881"
   inkscape:zoom="2.52"
   fit-margin-bottom="0"
   fit-margin-right="0"
   fit-margin-left="0"
   fit-margin-top="0"
   showgrid="false"
   id="namedview33851"
   inkscape:window-height="480"
   inkscape:window-width="820"
   inkscape:pageshadow="2"
   inkscape:pageopacity="0"
   guidetolerance="10"
   gridtolerance="10"
   objecttolerance="10"
   borderopacity="1"
   bordercolor="#666666"
   pagecolor="#ffffff" />
<style
   id="style33700"
   type="text/css">
  .st0{fill:#FFFFFF;}
  .st1{fill:#000000;}
</style>
<g
   transform="translate(-75.022119,-73.724251)"
   id="g33848">
	<g
   id="g33846">
		<path
   id="path33702"
   d="m 85.9,78.2 c 10.1,-0.3 19.6,-2.6 29.4,-2.3 3.2,0.1 3.9,0.9 3.8,3.9 -0.3,5 -0.1,9.9 -0.1,15.1 5.2,-1.7 10.1,-0.8 15,-0.9 2.4,0 3.2,-0.7 3.1,-3.1 -0.2,-4.7 0.1,-9.3 -0.1,-14 -0.1,-2.4 0.7,-3.1 3.1,-3.1 8,0.1 16,0.1 24,0 2.4,0 3.2,0.7 3.1,3.1 -0.2,4.7 0.1,9.3 -0.1,14 -0.1,2.4 0.7,3 3.1,3.1 5.4,0.1 10.9,-0.8 17,0.9 0,-5.9 0.1,-11.8 -0.1,-17.7 -0.1,-2.5 0.6,-3.3 3.3,-3.4 6.8,-0.4 13.5,0.9 20.2,1.2 3,0.1 5.4,1.2 4.4,5.5 -3.8,15.5 -7.2,31 -10.9,46.5 -0.6,2.6 -1,4.9 -4.6,6.4 -7.8,3.5 -10.1,10.7 -8.2,19.1 3.5,15.4 6.6,30.9 9.8,46.3 2,9.3 3.5,18.7 6.2,27.8 1.1,3.6 4.8,6.4 7.5,9.5 4.2,5 8.6,9.9 12.8,14.9 0.8,0.9 1,2.3 1.5,3.5 -3.4,1.2 -8.1,-1.2 -9.6,1.3 -1.6,2.6 -0.5,6.8 -0.5,10.2 0,19.5 -0.1,39 0.1,58.5 0,3.2 -0.4,4.5 -4.1,4.5 -42,-0.2 -84,-0.1 -125.9,0 -3.3,0 -4.1,-0.9 -4.1,-4.1 0.1,-21.2 -0.1,-42.3 0.2,-63.5 0.1,-4.5 -1.1,-6.2 -5.6,-5.6 -1.4,0.2 -3.5,1.2 -4.4,-0.9 -0.8,-2 1.3,-2.8 2.3,-4 5.5,-6.3 11.3,-12.4 16.7,-18.8 3.1,-3.7 2.8,-8.9 3.7,-13.3 5,-24.5 9.3,-49.2 14.3,-73.7 1.1,-5.3 -3,-6.5 -5.4,-8.6 -3.1,-2.6 -5.1,-4.9 -6.2,-9.2 C 96.2,111.1 91,94.9 85.9,78.2 Z"
   class="st1" />
		<path
   id="path33704"
   d="m 152.6,111 c -6.5,0 -13,-0.1 -19.5,0 -2.3,0 -3.1,-0.4 -3.2,-3 -0.5,-12 -0.6,-12 11.5,-12 10.3,0 20.7,0.1 31,-0.1 2.7,0 3.7,0.5 3.7,3.5 0.1,11.6 0.2,11.6 -11.5,11.6 -4,0 -8,0 -12,0 z"
   class="st0" />
		<path
   id="path33706"
   d="m 194.6,133.4 c -4.2,6.7 -9.5,8.4 -17.6,6.9 -12.2,-2.2 -24.8,-1.8 -37.2,-1.2 -5.5,0.3 -10.8,1.8 -16.3,2.6 -3.8,0.6 -7.5,0.9 -10.2,-2.8 -1.4,-1.9 -3.6,-3.2 -5.7,-5.1 6.7,-2.9 10.8,1 15.5,3.4 -1.6,-1.5 -3.3,-3.1 -5,-4.6 3.6,-2.2 5.2,0.8 6.9,3 1.1,-2.1 -1.5,-2.4 -0.5,-3.4 0.6,-0.7 1.8,-0.4 2.7,0.4 1,1 2,2.7 2.5,-0.5 0.1,-0.6 3.4,-0.5 4.1,1.3 0.6,1.6 1.8,2.3 2.6,3.4 2.5,-1.9 -3.9,-2.8 -0.2,-5 4.6,-2.6 8,-2.1 10.2,3.7 1,-2.7 -1.2,-3.6 -0.9,-5.6 3.5,1 7.4,-1.8 10.7,1.6 2.5,-2.5 3.9,-0.6 5.4,1.3 1.7,-2.5 4.4,-0.9 6.3,-1.6 3.1,-1.1 3,1.7 4.3,2.5 2.3,-0.4 -1.2,-2.3 0.8,-2.7 0.6,-0.1 1.5,0.1 1.7,0.5 1,1.8 -0.9,2.7 -1.5,4.1 1,0.8 1.5,-0.2 2.2,-0.5 1.5,-0.7 1.3,-4.1 3.7,-2.9 1.1,0.6 -1,2.8 0.2,4.3 1.1,0.1 0.7,-1.1 1.1,-1.5 0.9,-1 1,-3.4 2.8,-2.8 2.3,0.7 -1.7,2.4 0.3,3.6 1.8,-0.6 1.2,-3.9 4.3,-3.7 -0.1,2.8 -2.6,4.4 -3,7.1 2.5,-2.3 5,-4.7 7.6,-6.9 0.3,-0.3 1.6,0.7 2.2,1.1 z"
   class="st0" />
		<path
   id="path33708"
   d="m 142.6,128 c -6.6,-0.4 -13.1,1.5 -19.7,1.1 -2.9,-0.2 -4.2,-0.5 -3.9,-3.8 0.2,-2.7 0.5,-5.5 -0.7,-8.2 -1.2,-2.6 1.1,-4 3.4,-4 9.5,-0.1 19,0 28.5,-0.1 1.4,0 2.2,0.5 2.1,2 -0.1,1.2 0,2.3 0,3.5 -0.3,9.5 -0.3,9.5 -9.7,9.5 z"
   class="st0" />
		<path
   id="path33710"
   d="m 118,296.5 c 0,0.2 0,0.3 0,0.5 0,8.4 -0.1,7.7 -8.5,9.2 -5.4,0.9 -10.8,-0.2 -16,1.7 -2.8,1 -5.2,0.1 -4.5,-3.9 0.3,-1.8 0.3,-3.7 0,-5.5 -0.8,-5.1 0.3,-8 6.3,-8.3 6.8,-0.3 13.6,-1.4 20.4,-2.3 2.1,-0.3 2.5,0.8 2.4,2.6 -0.2,2.1 -0.1,4.1 -0.1,6 z"
   class="st0" />
		<path
   id="path33712"
   d="m 215,300.2 c 0,9 0,8.8 -8.6,7.1 -3.7,-0.7 -7.6,-0.2 -11.4,-0.3 -8,-0.1 -8,-0.1 -8,-7.7 0,-2.3 0.3,-4.7 -0.1,-7 -0.6,-4 1.3,-5.1 4.7,-4.3 6.5,1.5 13.2,1.5 19.7,2.7 3.5,0.6 3.9,1.7 3.7,4.5 -0.1,1.7 0,3.3 0,5 z"
   class="st0" />
		<path
   id="path33714"
   d="m 170.1,113 c 4.2,0 8.4,0.3 12.5,-0.1 3.7,-0.3 3.8,1.6 3.4,4.1 -0.2,1.4 -0.8,2.8 -0.9,4.3 -0.7,7.7 -0.7,7.5 -8.3,7.8 -6.8,0.3 -13.5,-1.8 -20.3,-1.1 -2,0.2 -2.7,-0.7 -2.5,-2.6 0,-0.2 0,-0.3 0,-0.5 -0.5,-11.9 -0.5,-11.9 11.6,-11.9 1.5,0 3,0 4.5,0 z"
   class="st0" />
		<path
   id="path33716"
   d="m 185,249.1 c 9.1,1.8 17.7,3.4 26.4,3.8 2.7,0.1 4,0.5 3.6,3.5 -0.3,2.3 0,4.7 -0.1,7 0,5.9 -1.1,7.1 -6.8,5.5 -6.5,-1.8 -13.1,-2 -19.7,-2.8 -2.5,-0.3 -3.5,-1.1 -3.5,-3.7 0.2,-4.3 0.1,-8.6 0.1,-13.3 z"
   class="st0" />
		<path
   id="path33718"
   d="m 135.1,249 c 1.2,0 2.3,0 3.5,0 12.7,0 12.6,0 11.5,12.6 -0.1,1.5 -0.2,2.6 -2.1,2.4 -8.5,-0.8 -16.8,1.2 -25.3,1.1 -2.1,0 -3.2,-1 -3.4,-2.6 -0.3,-3.8 -0.4,-7.6 -0.2,-11.5 0.1,-1.8 1.8,-2 3.5,-2 4.1,0 8.3,0 12.5,0 z"
   class="st0" />
		<path
   id="path33720"
   d="m 168,249 c 1,0 2,0 3,0 13.1,0 13.1,0 12.1,13.4 -0.1,1.8 -0.4,2.9 -2.4,2.6 -8.9,-1.3 -17.8,-1 -26.7,-1 -1.5,0 -2.1,-0.7 -1.9,-2.1 0,-0.3 0,-0.7 0,-1 -0.5,-11.9 -0.5,-11.9 11.5,-11.9 1.4,0 2.9,0 4.4,0 z"
   class="st0" />
		<path
   id="path33722"
   d="m 171.5,266.1 c 7.9,2.1 16.1,2.2 24.2,2.8 3.1,0.2 4.5,0.9 4.4,4.3 -0.1,3.7 1.2,7.4 1,11.2 -0.1,2.3 -0.9,3 -2.9,2.6 -7.4,-1.2 -14.8,-2.5 -22.4,-2 -1.7,0.1 -1.7,-1.2 -2.3,-2.1 -1.2,-1.6 0.2,-1.7 1.2,-2.3 1.2,-0.8 2.2,-2 3.2,-3 -1.9,-3.9 -9.2,-4.6 -6.4,-11.5 z"
   class="st0" />
		<path
   id="path33724"
   d="m 89,270 c 0,-4.8 0,-9.4 0,-14 0,-2.1 1,-2.8 3,-3 6.4,-0.9 12.8,-1.9 19.1,-2.9 5.1,-0.8 5.7,-0.3 5.9,5.1 0.1,3.1 -0.9,6.2 0.7,9.3 0.7,1.4 -0.5,1.5 -1.5,1.6 -7.7,1 -15.4,2 -23.1,3 -1.2,0.1 -2.5,0.5 -4.1,0.9 z"
   class="st0" />
		<path
   id="path33726"
   d="m 95.5,99.5 c 9.3,-2.2 18.8,-0.4 27.9,-3.4 2.6,-0.8 5.3,-0.6 4.7,3.7 -0.5,3.6 1.4,8.1 -0.8,10.6 -1.9,2.2 -6.5,1 -9.8,1.3 -4.5,0.5 -9.1,1.1 -13.7,1.4 -3.7,0.3 -5.1,-1.2 -5.8,-4.5 -0.7,-3.1 -1.7,-6.2 -2.5,-9.1 z"
   class="st0" />
		<path
   id="path33728"
   d="m 130.2,284.7 c -8.1,-0.1 -15.5,0.7 -22.8,2.2 -2.3,0.5 -3.4,-0.2 -3.5,-3 -0.2,-4.5 1.6,-8.7 1.1,-13.2 -0.1,-1.3 0.5,-1.8 1.8,-1.7 7.4,0.5 14.6,-1.8 21.9,-2.1 3.4,-0.1 4.1,1.2 2.8,4 -0.6,1.5 -1.2,3.2 -2.3,4.2 -4.2,3.5 -5.7,6.5 1,9.6 z"
   class="st0" />
		<path
   id="path33730"
   d="m 133.6,177.1 c 1.6,4.6 -1.1,8.8 -0.6,13.2 0.2,1.3 -0.6,1.7 -1.8,1.7 -7.7,0 -15.2,1.6 -22.7,3 -2.5,0.5 -2.8,-1.1 -2.5,-2.9 0.7,-4.1 1.3,-8.3 2.2,-12.4 0.2,-0.8 0.4,-2.6 1.8,-2.6 5.3,0.2 10.8,-3.4 15.9,1.3 2.7,2.4 5.1,-1.3 7.7,-1.3 z"
   class="st0" />
		<path
   id="path33732"
   d="m 178,103.2 c 0,-0.3 0,-0.7 0,-1 0,-6.7 -0.1,-6.3 7,-5.4 6.2,0.8 12.4,0.3 18.7,1 3.5,0.4 3.9,1.8 3.3,4.2 -0.7,2.8 -1.8,5.5 -1.9,8.4 -0.1,2.6 -2.1,3 -3.9,2.5 -5.9,-1.7 -12,-1.1 -17.9,-1.6 -4.4,-0.4 -5.9,-1.3 -5.2,-5.6 0,-0.8 -0.1,-1.6 -0.1,-2.5 z"
   class="st0" />
		<path
   id="path33734"
   d="m 152.5,93.8 c -4,0 -9.3,1.6 -11.6,-0.4 -2.7,-2.3 -0.4,-7.8 -0.9,-11.9 -0.5,-3.8 0.9,-4.8 4.6,-4.6 5.5,0.3 11,0.2 16.5,0 2.5,-0.1 3.3,0.8 3,3.1 -0.1,0.8 0,1.7 0,2.5 C 164,94 164,94 152.5,93.8 Z"
   class="st0" />
		<path
   id="path33736"
   d="m 116,87.6 c 0,8.4 0,8.4 -8.5,8.4 -2.1,0 -4.1,0.2 -6.3,0.7 -3.7,1 -7.5,0.9 -8.2,-4.6 -0.4,-3 -1.1,-6.1 -2.3,-8.8 -1.3,-2.9 0.4,-3.2 2.3,-3.3 6.1,-0.4 12.1,-0.5 18.2,-1.1 4.4,-0.5 5.6,1.2 4.9,5.2 -0.3,1.1 -0.1,2.3 -0.1,3.5 z"
   class="st0" />
		<path
   id="path33738"
   d="m 153.9,225 c -2.7,0 -5.3,0 -8,0 -6.9,0 -6.9,0 -6.9,-7.1 0,-6.9 0,-6.9 7.1,-6.9 6.2,0 12.3,0.1 18.5,0 2.3,0 3.5,0.1 3.6,3.1 0.2,10.9 0.4,10.9 -10.7,10.9 -1.2,0 -2.4,0 -3.6,0 z"
   class="st0" />
		<path
   id="path33740"
   d="m 154,194 c 8.1,0 15.7,0 23.3,0 1.7,0 3,0.1 2.7,2.3 -0.3,2.1 0.5,4.2 0.9,6.3 1.1,5.9 0.5,6.4 -5.4,6.4 -6.3,0 -12.6,0.1 -19,-0.1 -1.5,0 -3.8,1.1 -4.3,-0.9 -0.6,-2.1 -0.9,-4.6 1.5,-6.3 3.2,-2.1 2.9,-4.7 0.3,-7.7 z"
   class="st0" />
		<path
   id="path33742"
   d="m 224.4,252.2 c -7.4,-0.9 -13.8,-1.8 -20.3,-2.6 -5.1,-0.6 -5.1,-5.7 -7.4,-8.6 -2.9,-3.8 -5.1,-8.1 -8.2,-13.1 7,1.2 13.6,-0.8 19.2,5.1 5.6,5.9 10.6,12.3 16.7,19.2 z"
   class="st0" />
		<path
   id="path33744"
   d="m 186.8,326 c -3,0 -6,0.1 -8.9,-0.1 -1.5,-0.1 -4.1,1.3 -3.8,-2.1 0.2,-2 -1.5,-5.4 3.1,-4.9 3,0.3 1.8,-2.2 1.9,-3.5 0.3,-7.9 1.9,-9.1 9.9,-7 0.3,0.1 0.6,0.4 0.9,0.5 3,0.6 8.1,-1.3 8.8,0.9 1.2,4 0.9,8.7 1.5,13 0.4,2.7 -0.8,3.4 -3.3,3.2 -3.5,-0.1 -6.8,0 -10.1,0 z"
   class="st0" />
		<path
   id="path33746"
   d="m 198.4,248.3 c -7.1,-1.3 -13.7,-1.6 -20.4,-1.3 -2.4,0.1 -2.4,-1.8 -3,-3.1 -2.3,-5.4 -4.3,-11 -5.6,-16.8 5.2,-0.7 10.1,1.6 15.2,0.9 2.4,-0.3 2.6,2.3 3.4,3.7 3.7,5.4 7,11.1 10.4,16.6 z"
   class="st0" />
		<path
   id="path33748"
   d="m 138.3,247 c -3,-0.4 -7.8,1.6 -9.8,-0.8 -1.8,-2.3 2,-5.9 3,-9.1 3.2,-10.1 3.6,-10 14.2,-10.2 3.5,-0.1 4.6,0.8 4.3,4.3 -0.3,4.1 -0.2,8.3 0,12.4 0.1,2.4 -0.4,3.7 -3.2,3.4 -2.6,-0.2 -5.3,0 -8.5,0 z"
   class="st0" />
		<path
   id="path33750"
   d="m 114.6,326 c -3.8,-0.5 -10.1,1.8 -11,-1 -1.4,-4.3 0.8,-9.8 1.4,-14.8 0.1,-1.1 0.9,-1 1.7,-1.3 3.7,-1.2 7.4,-1.1 11.2,-0.9 3.3,0.2 5.8,1.2 5.2,5.5 -0.3,2.3 -1.5,5.7 3.3,5.8 1.2,0 0.4,3.3 0.5,5.1 0.1,2.2 -1.8,1.5 -2.9,1.5 -3.1,0.2 -6.3,0.1 -9.4,0.1 z"
   class="st0" />
		<path
   id="path33752"
   d="m 190.1,85.8 c -0.1,-8.9 -0.1,-8.9 9,-8.8 3.5,0 6.7,1.6 10.2,1.1 1.8,-0.3 1.6,1.2 1.6,2.3 0.1,4.8 -1.5,9.2 -2.6,13.8 -0.4,1.5 -1.3,1.9 -2.9,1.9 -2.5,0 -4.8,-0.5 -7.3,-1 -2.4,-0.5 -5,-0.1 -7.5,-0.2 -0.2,0 -0.7,-0.4 -0.7,-0.6 0.2,-2.8 0.2,-5.6 0.2,-8.5 z"
   class="st0" />
		<path
   id="path33754"
   d="m 173.7,247 c -6.6,0 -12.8,-0.1 -18.9,0 -2.2,0.1 -2.9,-0.6 -2.8,-2.8 0.2,-4.8 0.2,-9.7 0,-14.5 -0.1,-2.2 0.6,-3.1 2.8,-2.8 0.2,0 0.3,0 0.5,0 11.2,-0.4 11.2,-0.4 15,10.7 1,3.1 2.2,6.1 3.4,9.4 z"
   class="st0" />
		<path
   id="path33756"
   d="m 148.2,194 c -3.3,3.3 -2.6,5.8 0.5,8.1 2.1,1.6 1.7,4 1.2,5.9 -0.5,2.1 -2.8,0.9 -4.3,1 -6,0.1 -11.9,-0.2 -17.9,0.1 -3.2,0.2 -3.8,-0.9 -3.8,-3.9 0,-11.2 -0.1,-11.2 11.3,-11.2 4.1,0 8.2,0 13,0 z"
   class="st0" />
		<path
   id="path33758"
   d="m 188.3,226 c -5.3,0.6 -10.6,-1.7 -16.1,-1 -0.9,0.1 -2.2,0.3 -2.2,-1.2 -0.1,-3.8 -0.1,-7.6 0,-11.5 0.1,-2.1 2,-1.2 3.1,-1.2 6.6,0 13.2,-0.2 19.7,0.9 1.8,0.3 2.5,1 2,2.4 -1.4,3.9 3.3,8 -0.2,11.4 -0.9,1.1 -4,0.2 -6.3,0.2 z"
   class="st0" />
		<path
   id="path33760"
   d="m 116.2,228.6 c -4.6,6.7 -8.7,12.7 -12.9,18.5 -2.2,3.1 -6.1,3.1 -9.1,3.6 -4.2,0.7 -8.5,1.8 -13.2,2.4 4.8,-7.5 10.4,-13.7 16.2,-19.8 1.6,-1.7 4,-1.9 6.2,-2.3 4,-0.8 8,-1.6 12.8,-2.4 z"
   class="st0" />
		<path
   id="path33762"
   d="m 196.9,192.7 c -7.5,1.4 -14.8,-1.4 -22.3,-0.7 -0.4,0 -1.3,-0.2 -1.3,-0.4 -0.4,-4 -1.9,-8.4 -0.8,-12 1.1,-3.5 5.8,-2.7 9.2,-2.5 1.1,0.1 2.1,0.8 3.2,0.9 2.9,0.3 7.1,-1.3 8.6,0.7 1.9,2.6 1.7,6.8 2.4,10.2 0.4,1.2 0.7,2.5 1,3.8 z"
   class="st0" />
		<path
   id="path33764"
   d="m 127.6,226 c -3.4,0.1 -6.8,-0.3 -10.2,0.9 -2.2,0.8 -3.9,-0.1 -3.3,-3 0.6,-3.4 1.4,-6.7 1,-10.2 -0.1,-1.3 0.6,-1.7 1.8,-1.7 5.9,0.1 11.7,-1.6 17.7,-1.1 1.9,0.2 2.7,0.6 2.5,2.6 -0.1,1 0,2 0,3 -0.1,9.5 -0.1,9.5 -9.5,9.5 z"
   class="st0" />
		<path
   id="path33766"
   d="m 147.7,156.8 c -8.9,0.4 -8.9,0.4 -7.7,-8.5 1,-7.4 1,-7.4 8.3,-7.4 1.7,0 3.3,-0.1 5,0 3.4,0.2 8.4,-1.4 9.8,1.3 1.9,3.6 2,8.5 1.9,12.9 -0.1,1.7 -0.9,1.8 -2.2,1.8 -2.7,0 -5.3,0 -8.5,0 1.5,-2.7 3.1,-5.5 -0.3,-7.4 -2,-1.1 -4.4,-1.2 -6.5,0.4 -3,2.4 -1.2,4.7 0.2,6.9 z"
   class="st0" />
		<path
   id="path33768"
   d="m 171,142 c 4.2,0.9 8.6,1.2 13,1 1.8,-0.1 2.8,0.8 2.9,2.6 0,0.2 0,0.3 0,0.5 0.7,3.1 1.5,6.3 2,9.4 1.2,7.6 -3.8,1.9 -5.6,2.3 -3.2,0.7 -6.6,0.1 -9.9,0 -0.9,0 -1.9,-0.8 -2.8,-0.7 -3.7,0.6 -4,-1.5 -3.8,-4.3 0.1,-1.8 0.3,-3.8 -0.3,-5.4 -1.7,-4.5 -0.4,-6.3 4.5,-5.4 z"
   class="st0" />
		<path
   id="path33770"
   d="m 112.5,158.6 c 2.2,-4.6 1.4,-8.5 2.4,-12.1 0.5,-1.7 0.6,-2.6 2.6,-2.5 6.2,0.2 12.4,-0.4 18.4,-1.9 1.8,-0.4 2.3,0.6 2.2,2.2 -0.2,3.7 -1.5,7.4 -1,11.2 0.2,1.4 -0.9,1.5 -1.9,1.5 -7.4,0.1 -14.6,-0.4 -22.7,1.6 z"
   class="st0" />
		<path
   id="path33772"
   d="m 131.5,228.2 c -0.3,1.6 -0.5,3.1 -0.9,4.6 -4.5,14.7 -4.7,14.9 -20.2,15.1 -1.7,0 -3.2,0.3 -4.8,1.2 9.2,-17.5 12.9,-22.6 25.9,-20.9 z"
   class="st0" />
		<path
   id="path33774"
   d="m 174.7,170.8 c -2.9,-2.8 -5.4,-2.3 -7.8,0.7 -1,1.3 -12.1,2.2 -13.3,1.4 -0.8,-0.6 -0.6,-1.4 -0.7,-2.2 -1.2,-11.7 -1.2,-11.7 10.2,-11.6 3.1,0 6.1,0.7 9.2,0.9 0.9,0.1 1.7,0.4 1.5,1.4 -0.4,3.2 2,6 0.9,9.4 z"
   class="st0" />
		<path
   id="path33776"
   d="m 161.9,192 c -8.9,0 -8.6,0 -9,-9 -0.2,-4.8 0.8,-7 6,-6.1 1.9,0.3 4,-0.2 5.9,0.1 3,0.4 5.6,1.6 5.2,5.5 0,0.3 0,0.7 0,1 0.6,8.5 0.6,8.5 -8.1,8.5 z"
   class="st0" />
		<path
   id="path33778"
   d="m 122,202 c 0,8 0,7.9 -8.2,8 -2.1,0 -4.6,-0.4 -6.4,0.4 -4.5,2 -4.8,-0.4 -4.4,-3.7 0.2,-2.1 0.9,-4.1 1.1,-6.2 0.7,-5.4 5.7,-2.6 8.3,-4.4 0.7,-0.5 1.9,0 2.9,-0.1 6.7,-0.4 6.7,-0.4 6.7,6 z"
   class="st0" />
		<path
   id="path33780"
   d="m 138.7,159 c 9.3,0 9.1,0 9.4,9.6 0.1,3.8 -1,5 -4.6,4.5 -1.8,-0.3 -3.6,0 -5.4,0 -6.3,0 -11.1,-6.9 -9,-12.8 0.5,-1.4 1.4,-1.2 2.3,-1.2 2.4,-0.1 4.8,-0.1 7.3,-0.1 z"
   class="st0" />
		<path
   id="path33782"
   d="m 195.5,210 c -3.9,0.3 -7.3,-1.6 -11,-1 -1,0.2 -1.5,-0.5 -1.5,-1.5 -0.1,-3.8 0.1,-7.5 -0.9,-11.2 -0.5,-1.7 -0.1,-2.4 2.4,-1.7 3.1,0.9 6.6,0.4 9.9,0.4 2.4,0 3.6,0.7 3.7,3.4 0.1,2.1 0.4,4.3 1.2,6.1 1.8,4.4 0.8,6.2 -3.8,5.5 z"
   class="st0" />
		<path
   id="path33784"
   d="m 89,280.1 c 0,-7.9 0,-7.9 8.5,-9.1 5.9,-0.9 6.7,0 5,6 -0.8,2.8 -0.4,5.6 -0.4,8.3 0,2.2 -0.7,3 -2.8,2.7 -0.6,-0.1 -1.3,-0.1 -2,0 -8.3,0.7 -8.3,0.7 -8.3,-7.9 z"
   class="st0" />
		<path
   id="path33786"
   d="m 203.5,115.3 c -0.8,4.1 -1.7,8.1 -2.5,12.2 -0.5,2.4 -1.1,4.2 -4.4,2.7 -1.1,-0.5 -2.7,-1 -4.1,-1.2 -1.7,-0.3 -4.4,0.9 -5.1,-0.6 -0.9,-2.1 -0.7,-4.9 -0.3,-7.3 0.2,-1.6 1.1,-3.1 0.9,-4.7 -0.3,-2.1 0.9,-2.3 2.6,-2.4 4.5,-0.3 8.8,0.6 12.9,1.3 z"
   class="st0" />
		<path
   id="path33788"
   d="m 100,115.2 c 4.1,-0.6 7.9,0.2 11.7,-1.1 2.3,-0.8 5.2,-0.6 4.4,3.5 -0.2,0.9 0.4,1.9 0.7,2.8 1.7,6.9 0.1,8.2 -6.5,9.8 -5.8,1.4 -6.5,-1.2 -7.3,-5.5 -0.7,-3.1 -1.9,-6 -3,-9.5 z"
   class="st0" />
		<path
   id="path33790"
   d="m 189.4,176 c -4,0.2 -7.4,-1.6 -11,-1 -0.7,0.1 -1.4,-0.3 -1.3,-1 0.2,-4.1 -0.2,-8.2 -1,-12.2 -0.1,-0.4 0.1,-1.2 0.4,-1.3 4.1,-1.7 7.9,1.1 12,0.7 2.1,-0.2 2.2,2 2.5,3.5 0.6,2.3 0.5,4.9 1.4,7.1 1.5,3.5 0.4,4.7 -3,4.2 z"
   class="st0" />
		<path
   id="path33792"
   d="m 215,318.5 c 0,8 0,7.9 -9.9,7.6 -2.3,-0.1 -3.3,-0.5 -3.1,-3 0.2,-3.3 0.2,-6.5 -0.9,-9.7 -1.2,-3.9 1.1,-4.9 4.5,-4.3 0.8,0.1 1.5,0.7 2.2,0.9 7.2,1.6 7.2,1.6 7.2,8.5 z"
   class="st0" />
		<path
   id="path33794"
   d="m 89,317.5 c 0,-7.8 0,-7.8 8.2,-8.5 5.7,-0.5 5.8,-0.4 4.9,5.3 -0.3,2.1 0.5,4.2 -0.8,6.3 -1,1.6 1,4.7 -1.3,5.2 -3.2,0.7 -6.6,0.3 -9.9,0.1 -1.3,-0.1 -1,-1.5 -1,-2.4 -0.1,-2 -0.1,-4 -0.1,-6 z"
   class="st0" />
		<path
   id="path33796"
   d="m 127.1,165.8 c -0.6,4.9 -4.5,6.7 -8.5,7.9 -2.8,0.8 -6.6,2.2 -8.4,1 -1.9,-1.2 0.5,-5 0.7,-7.7 0.2,-2.4 0.6,-6.2 1.9,-6.6 3.8,-1.2 8.2,-1.7 12.1,-1.1 2,0.3 2.2,3.9 2.2,6.5 z"
   class="st0" />
		<path
   id="path33798"
   d="m 215,280.2 c 0,0.2 0,0.3 0,0.5 0,9.2 -0.9,9.9 -9.8,7.3 -1.5,-0.4 -2.2,-1.3 -2.2,-2.9 0,-2.3 -0.2,-4.7 0,-7 0.2,-2.7 -1.4,-7 0.9,-7.7 2.8,-0.9 6.5,1 9.8,1.5 1.5,0.3 1.2,1.3 1.2,2.2 0.1,2.1 0.1,4.1 0.1,6.1 z"
   class="st0" />
		<path
   id="path33800"
   d="m 148,184.8 c 0,7.2 0,7.2 -7.3,7.2 -6.6,0 -6.6,0 -5,-6.5 0.1,-0.5 0.2,-1 0.2,-1.4 0.3,-2.3 -1,-5.9 0.6,-6.5 2.9,-1.1 6.5,-0.5 9.7,-0.6 1.8,-0.1 1.7,1.2 1.7,2.3 0.1,1.9 0.1,3.7 0.1,5.5 z"
   class="st0" />
		<path
   id="path33802"
   d="m 113,215.7 c 0.4,3.5 -1.4,6.5 -1.1,9.8 0.2,2.2 -1.8,1.3 -2.9,1.5 -3.2,0.6 -7.5,3.2 -9.4,1.3 -1.9,-2 0.5,-6.2 1.3,-9.5 1,-4.1 7,-8 11,-6.7 2.2,0.6 0.6,2.5 1.1,3.6 z"
   class="st0" />
		<path
   id="path33804"
   d="m 157.8,266 c 2.3,0 4.7,-0.1 7,0 1.1,0.1 2.9,-1 3.1,1.2 0.2,1.6 0.3,3.1 -1.1,4.6 -1.4,1.5 -2.5,1 -3.8,0.2 -0.7,-0.4 -1.5,-0.7 -2.2,-1.1 -3.1,-1.7 -5.6,-1.8 -4.8,2.8 0.8,4.9 -2.2,4.5 -5.3,4.3 -0.8,-0.1 -1.9,0 -1.7,-1.1 0.3,-2.3 -1.3,-3.9 -1.9,-5.8 -0.7,-2.5 -1.1,-5.9 3.7,-5.1 2.3,0.3 4.7,0 7,0 z"
   class="st0" />
		<path
   id="path33806"
   d="m 174,287 c 3.4,0 5.8,-0.3 8.1,0.1 1.6,0.3 3.2,1.2 3,3.6 -0.3,3.1 -0.5,6.3 0,9.4 0.8,5.3 -1.5,6.8 -6.1,5.8 -1.4,-0.3 -3.9,1.3 -3.8,-1.5 0,-1.8 -1.8,-4.3 1.7,-5.7 2.7,-1 1.2,-8.9 -2.9,-11.7 z"
   class="st0" />
		<path
   id="path33808"
   d="m 124.4,287 c 1.1,0 1.6,-0.1 2.1,0 1,0.1 2.4,-0.6 2.6,1.3 0.1,1.9 -1.2,1.6 -2.3,1.6 -1.9,0 -4.5,-0.5 -3.6,2.7 0.6,2.2 -2.6,6.2 3.1,6.4 3.6,0.2 1.3,3.6 1.8,5.5 0.6,2.6 -1.3,2.5 -3,2.4 -2,-0.1 -4.8,0.8 -4.9,-2.6 -0.2,-5.1 -0.1,-10.3 0,-15.4 -0.1,-4.1 3.5,-0.3 4.2,-1.9 z"
   class="st0" />
		<path
   id="path33810"
   d="m 142.3,279.9 c -4.5,4.9 -8.6,5.2 -13.3,1.7 -1,-0.8 -1.3,-1.5 -0.4,-2.9 4.3,-6.3 5.2,-6.4 10.3,-0.4 0.9,0.9 1.3,2 3.4,1.6 z"
   class="st0" />
		<path
   id="path33812"
   d="m 128.7,317.1 c -2.4,0.5 -3.9,-0.3 -3.9,-4.4 -0.1,-5.1 3,-3.4 5.5,-3.7 3.3,-0.4 4.9,0.1 4.9,4.3 0,5 -3,3.5 -6.5,3.8 z"
   class="st0" />
		<path
   id="path33814"
   d="m 173,309 c 2.7,-0.6 4,0.2 4.2,4 0.3,5.2 -2.9,3.8 -5.6,4.1 -3,0.3 -4.5,-0.1 -4.7,-4 -0.3,-5.3 2.9,-4 6.1,-4.1 z"
   class="st0" />
		<path
   id="path33816"
   d="m 175,277.6 c -0.8,0.7 -1.4,1.5 -2.3,2 -1.3,0.9 -3.2,1.2 -4.1,2.4 -3.2,4.1 -4.9,0.5 -6.4,-1.4 -2.2,-2.9 1.5,-2.8 2.5,-4 2.7,-3.2 5.6,-4.1 8.7,-0.6 0.6,0.6 1.1,1 1.6,1.6 z"
   class="st0" />
		<path
   id="path33818"
   d="m 196.9,215.4 c 0.4,-1.4 -0.8,-3.3 1.8,-3.5 2.3,-0.2 2.1,1.2 2.5,2.6 1,2.9 1.6,5.8 2,8.9 0.2,1.5 2.1,3.2 -0.8,3.5 -2,0.2 -4.5,-0.1 -4.3,-3.1 0.1,-3 -0.6,-5.8 -1.2,-8.4 z"
   class="st0" />
		<path
   id="path33820"
   d="m 145,269.4 c 0.4,2 -0.6,3.4 -2.6,2.5 -2.5,-1 -4.5,3.5 -7.3,0 -1.1,-1.4 -1.5,-2.4 -1.1,-3.7 1.8,-4.9 5.8,-1.3 8.7,-2.1 2.7,-0.8 2.3,1.5 2.3,3.3 z"
   class="st0" />
		<path
   id="path33822"
   d="m 171.6,296.9 c -2.8,0.2 -4.8,0.5 -4.7,-3.2 0.1,-4.3 3,-2.5 4.8,-2.7 2,-0.2 4.5,-1.1 4.5,3 -0.1,4.6 -3.2,2.5 -4.6,2.9 z"
   class="st0" />
		<path
   id="path33824"
   d="m 130,297.3 c -1.6,-1.3 -5,1.8 -5,-2.6 -0.1,-4.8 3.4,-2.4 5.3,-2.5 1.7,-0.1 4.9,-2 4.8,2.4 -0.2,4.4 -3.5,1.4 -5.1,2.7 z"
   class="st0" />
		<path
   id="path33826"
   d="m 173,302.8 c 0.1,2.3 0.6,4.3 -3,4.3 -4,0 -2.8,-2.5 -3,-4.5 -0.3,-2.5 0.1,-3.8 3.2,-3.8 3.8,0.1 2.6,2.4 2.8,4 z"
   class="st0" />
		<path
   id="path33828"
   d="m 129,322.4 c -0.4,-2.2 0,-3.4 2.9,-3.5 3.4,-0.1 3,1.8 3.1,3.9 0.2,2.6 -0.7,3.2 -3.3,3.3 -3,0.1 -2.9,-1.6 -2.7,-3.7 z"
   class="st0" />
		<path
   id="path33830"
   d="m 129.9,303.1 c 0.6,-1.6 -1.2,-4.1 2.4,-4.2 3.4,-0.1 2.8,1.9 2.6,3.8 -0.2,1.7 1.4,4.4 -2.5,4.4 -3.6,0 -2,-2.5 -2.5,-4 z"
   class="st0" />
		<path
   id="path33832"
   d="m 172,322.6 c -0.2,1.4 0.8,3.5 -2.3,3.5 -2.8,0 -2.9,-1.3 -2.7,-3.3 0.2,-1.7 -0.9,-4 2.6,-3.9 3,0.1 2.4,1.9 2.4,3.7 z"
   class="st0" />
		<path
   id="path33834"
   d="m 147,275.8 c 0,2.4 -1.1,3.2 -3.1,3.2 -2.4,0 -3.6,-2.2 -3.7,-3.4 -0.2,-3 2.6,-1.3 4,-1.6 1.5,-0.2 3.2,-0.3 2.8,1.8 z"
   class="st0" />
		<path
   id="path33836"
   d="m 171.7,285.5 c 0.7,3.5 -0.6,3.5 -2.1,3.5 -1.2,-0.1 -2.7,0.4 -2.7,-1.8 0,-2.2 1.3,-3.9 2.9,-4 1.7,0 1.9,2.3 1.9,2.3 z"
   class="st0" />
		<path
   id="path33838"
   d="m 135,287.7 c 0.2,1.6 -0.3,2.3 -2.1,2.3 -2,0 -1.8,-1.2 -1.9,-2.5 -0.1,-1.8 0.4,-2.6 2.4,-2.5 2.2,0.1 1.4,1.6 1.6,2.7 z"
   class="st0" />
		<path
   id="path33840"
   d="m 158.4,272.3 c 1.4,0.7 2.9,1.4 4.4,2.1 -1,1.3 -1.9,3.1 -3.8,2.5 -2.4,-0.7 0,-2.9 -0.6,-4.6 z"
   class="st0" />
		<path
   id="path33842"
   d="m 170.7,134.3 c -0.7,1.1 -1.4,2.2 -2.2,3.3 -0.9,-0.5 -0.6,-1.4 -0.4,-2 0.3,-0.8 0.9,-1.6 1.4,-2.4 0.4,0.5 0.8,0.8 1.2,1.1 z"
   class="st1" />
		<path
   id="path33844"
   d="m 118.4,137.8 c -2.8,0.2 -3.3,-1.5 -4.4,-2.4 2.4,-1 2.7,1.3 4.4,2.4 z"
   class="st1" />
	</g>
</g>
</svg>
