<?xml version="1.0" encoding="UTF-8" standalone="no"?>
<svg
   xmlns:dc="http://purl.org/dc/elements/1.1/"
   xmlns:cc="http://creativecommons.org/ns#"
   xmlns:rdf="http://www.w3.org/1999/02/22-rdf-syntax-ns#"
   xmlns:svg="http://www.w3.org/2000/svg"
   xmlns="http://www.w3.org/2000/svg"
   xmlns:sodipodi="http://sodipodi.sourceforge.net/DTD/sodipodi-0.dtd"
   xmlns:inkscape="http://www.inkscape.org/namespaces/inkscape"
   inkscape:version="1.0 (4035a4f, 2020-05-01)"
   height="124.2574"
   width="131.726"
   sodipodi:docname="two-axes-in-saltire.svg"
   xml:space="preserve"
   viewBox="0 0 131.726 124.2574"
   y="0px"
   x="0px"
   id="Layer_1"
   version="1.1"><metadata
   id="metadata34475"><rdf:RDF><cc:Work
       rdf:about=""><dc:format>image/svg+xml</dc:format><dc:type
         rdf:resource="http://purl.org/dc/dcmitype/StillImage" /><dc:title></dc:title></cc:Work></rdf:RDF></metadata><defs
   id="defs34473" /><sodipodi:namedview
   inkscape:current-layer="Layer_1"
   inkscape:window-maximized="0"
   inkscape:window-y="25"
   inkscape:window-x="0"
   inkscape:cy="82"
   inkscape:cx="71.436137"
   inkscape:zoom="2.52"
   fit-margin-bottom="0"
   fit-margin-right="0"
   fit-margin-left="0"
   fit-margin-top="0"
   showgrid="false"
   id="namedview34471"
   inkscape:window-height="480"
   inkscape:window-width="820"
   inkscape:pageshadow="2"
   inkscape:pageopacity="0"
   guidetolerance="10"
   gridtolerance="10"
   objecttolerance="10"
   borderopacity="1"
   bordercolor="#666666"
   pagecolor="#ffffff" />
<style
   id="style34418"
   type="text/css">
  .st0{fill:#FFFFFF;}
  .st1{fill:#000000;}
</style>
<g
   transform="translate(-78.563863,-118)"
   id="g34468">
	<g
   id="g34466">
		<path
   id="path34420"
   d="m 118.5,169 c -6,9 -3.2,18.4 4.3,22.6 -2.4,3 -5.9,3 -8.9,2.4 -18.2,-3.7 -28,-8.8 -34.4,-29.2 -1.5,-4.9 -1.4,-10.5 1.8,-15.2 1.2,-1.8 2.4,-3.1 4.3,-0.5 5.3,7 12.5,9 21.4,7.8 -2.4,-2.2 -3.2,-6 -7.6,-4.9 -0.5,0.1 -1.9,-0.8 -1.9,-1.2 0.9,-6.1 -7.7,-5.4 -7.8,-11.8 0,-4.7 -3.6,-9.5 -5.6,-14.2 -0.5,-1.1 -1.8,-2.4 -0.5,-3.5 1,-0.8 2.5,-0.7 3.7,0.3 4.8,3.8 10.3,6.5 15.9,8.9 2.1,0.9 2,3.3 2.7,5 0.8,2 0.7,4.4 3.8,4.7 1.2,0.1 1.5,1.5 1.5,2.8 0,4.5 0,4.5 3.5,7.8 4.2,-4 7.6,-8.4 7.4,-14.6 -0.1,-3.3 1.8,-3 3.3,-1.3 3,3.5 6.5,3.8 10.8,3.2 4.5,-0.6 6.2,2.7 3.5,6.5 -1.1,1.7 -1.8,2.4 -0.3,4.5 1.5,2 2.1,5.1 -2.7,5 -2.2,-0.1 -4.3,1.4 -6,2.8 -4.6,3.6 -4.7,5.6 -0.6,9.6 4.7,4.7 9.4,9.4 14.4,14.4 5.7,-6 10.3,-12.7 14.7,-19.5 1,-1.6 0.8,-2.5 -0.5,-3.2 -3.4,-1.8 -6.1,-5.4 -10.8,-3.4 -1,0.4 -3.1,0.8 -3.6,-0.5 -0.5,-1.3 -0.7,-3.1 0.5,-4.7 1.8,-2.2 3.8,-4 0.6,-7.4 -2.5,-2.7 0.9,-6.2 5.8,-6.3 2.9,-0.1 6.2,1.5 7.6,-3.1 0.8,-2.6 3.7,-2.1 6.3,-1.6 -3.4,7.2 3,9.4 6.8,14.5 -0.2,-4.1 0.6,-6.4 4.4,-5.8 0.9,0.2 1.6,-0.1 1.7,-1.2 0.7,-12.4 12.5,-13.5 20,-20.7 0,4.7 -0.4,8.1 0.1,11.2 0.7,5.3 -1.3,9.3 -6,11 -5,1.8 -7.1,6.8 -11.6,9 -2.4,1.2 -1.5,2.7 0.7,3.8 5.4,2.9 15.6,0.9 19.3,-4 1,-1.4 1.8,-4.1 3.2,-3.5 1.8,0.8 3.6,2.6 4.4,5 5.1,15.1 1.1,24.2 -10,33.9 -6.1,5.3 -13.2,7.9 -21.3,7.7 -1.9,-0.1 -3.5,-0.4 -5.2,-1.1 -2.8,-1.1 -5.4,-1.9 -1.1,-5.1 5.3,-4 4.6,-14.3 -0.7,-18.6 -1.9,-1.6 -2.8,-0.4 -3.8,0.8 -4.6,6.1 -9.2,12.2 -13.7,18.3 -1,1.4 -1.3,2.7 0.4,4 4.8,3.9 7.9,9.8 14.3,11.7 1,0.3 1.8,1 1.9,2 1.3,10 10.9,13.5 16,20.5 6,-0.1 6.9,6 10.6,8.6 2.4,1.7 2.1,4.8 0.8,6.7 -1.5,2.2 -4.5,3 -7.1,1.8 -3.8,-1.7 -7.4,-3.9 -11,-6 -0.4,-0.2 -1,-0.7 -1,-1 -1,-9.4 -10.4,-12.1 -14.8,-18.7 -0.8,-1.2 -2,-0.8 -3.1,-1 -3.5,-0.6 -6.7,-1.4 -3.9,-6.1 0.7,-1.2 -0.7,-1.6 -1.2,-2.2 -3.1,-3.3 -6.2,-6.5 -9.6,-9.9 -1.8,2.6 -3.4,5 -5.1,7.3 -1.4,1.8 -4.3,3 0.1,5.3 2,1 -0.3,3.9 -1.7,4.2 -7.3,1.6 -9.7,8.1 -13.9,12.9 -1.6,1.9 -3.3,3.4 -3.1,6.4 0.2,2.1 -9.5,9.1 -11.8,9.2 -2.9,0.2 -4.9,-0.4 -6.3,-3.4 -1.3,-2.8 0.4,-4.4 1.5,-6.5 4.7,-8.2 12.8,-13.5 18.3,-21.1 0.9,-1.3 1.4,-2.4 1.4,-4 0.1,-3.7 0.1,-3.8 4.2,-4.3 1.7,-0.2 1.6,-1.8 2.4,-2.8 8.2,-10.6 8.2,-10.6 -1.3,-20.1 -3.5,-3.6 -7,-7.2 -10.8,-10.9 z"
   class="st1" />
		<path
   id="path34422"
   d="m 169.1,163.6 c 0.4,-0.5 1,-0.9 1.3,-1.5 3.3,-6.3 7.3,-8.3 14.9,-5.5 5.8,2.1 11.9,-2 16.7,-5.8 2.4,-1.9 3.1,-0.7 3.8,0.8 4.3,10.1 -0.4,23.5 -9,30.6 -5.5,4.5 -11.4,6.4 -17.9,7.7 -1.4,0.3 -3.1,0.3 -4.4,-0.1 -2,-0.6 -3.6,-1.3 -1.2,-3.8 6.4,-6.5 4.6,-16.1 -4.2,-22.4 z"
   class="st0" />
		<path
   id="path34424"
   d="m 116.2,190.7 c -11.4,1 -24,-6.3 -29.3,-16.1 -3.1,-5.7 -5.6,-11.3 -4.9,-18 0.2,-1.7 0.5,-3.5 1.7,-4.3 1.3,-0.8 2.1,1.1 3.1,1.9 5.7,4.8 12.5,5.8 19.4,4.6 5.4,-0.9 6,4 9,5.9 2.4,1.5 -0.2,3 -0.7,4.5 -2.8,7.3 -4,12.5 1.7,21.5 z"
   class="st0" />
		<path
   id="path34426"
   d="m 146.2,152.7 c 1.6,-5.1 2.9,-6.3 6.5,-6 -0.3,-1 -1.1,-1.3 -1.9,-1.8 -2.1,-1.3 -4.6,-3.4 -3.2,-5.6 1.5,-2.5 4.5,-1.4 7.1,-0.4 1.6,0.6 2.4,2.2 4.2,3.1 0.1,-1 0,-1.6 0.1,-2.1 0.2,-2 -1,-5.2 1.7,-5.6 2.5,-0.3 0.8,2.8 1.4,4.3 1,2.1 2.6,3.8 4.3,5.3 2.5,2.3 4.7,4.4 0.8,7.7 -1.9,1.6 -2.7,5.1 -4.7,5.9 -2.2,0.9 -4.2,-2.2 -6.4,-3.5 -4,-2.3 -4.6,-2.4 -9.9,-1.3 z"
   class="st0" />
		<path
   id="path34428"
   d="m 140.5,187.6 c -13.3,-11.8 -23.5,-24.7 -35.3,-36 -0.7,-0.7 -2.2,-1.9 -0.3,-2.5 1.2,-0.4 1.7,-3.2 3.9,-1 10.7,10.9 21.6,21.7 32.4,32.5 2.4,2.6 -0.9,4 -0.7,7 z"
   class="st0" />
		<path
   id="path34430"
   d="m 124.7,161.1 c -0.7,-0.7 -1.2,-1.1 -1.7,-1.6 -6.4,-6.3 -6.4,-6.3 -1.7,-13.3 2,-3 2.6,-4.7 3,-9.1 0.6,0.5 1.4,0.9 1.5,1.4 0.7,3.8 2.8,3.8 5.8,2.6 2.1,-0.9 5.2,-2.7 6.1,0.8 0.8,2.8 -1.7,4.7 -4.6,5.8 1.8,0.6 4,0.5 3.8,3.1 -0.2,2.5 -2.4,0.9 -3.5,1.5 -3.6,1.8 -6.4,4.7 -8.7,8.8 z"
   class="st0" />
		<path
   id="path34432"
   d="m 132.5,207.9 c -0.5,-0.5 -1.2,-1.2 -1.9,-1.8 -1,-1 -0.4,-1.6 0.3,-2.5 8.7,-11.3 17.3,-22.7 26.1,-33.9 0.6,-0.8 0.4,-3.7 2.8,-2.2 2.2,1.3 1.1,3.2 0.2,4.7 -2.6,3.9 -5.3,7.7 -8.1,11.5 -5.8,7.6 -11.7,15.2 -17.5,22.8 -0.6,0.4 -0.3,1.6 -1.9,1.4 z"
   class="st0" />
		<path
   id="path34434"
   d="m 188.9,131.7 c -2.7,3.1 -5.4,6.2 -8.4,9.6 -0.7,-7.4 5.7,-14.4 15,-17.5 3.6,9.9 -3.4,14 -10.1,18.4 -0.9,0.6 -1.5,1.2 -2.5,0.2 -1.6,-1.5 0.3,-1.9 0.8,-2.6 2,-2.5 4.9,-4.2 6.4,-7.1 -0.4,-0.3 -0.8,-0.7 -1.2,-1 z"
   class="st0" />
		<path
   id="path34436"
   d="m 86.8,124.2 c 3.6,2.1 6.7,4.3 10,5.7 3.6,1.6 5.6,3.9 6.4,7.7 0.5,2.6 2,4.8 -1.6,6.4 -3.9,1.7 -6.6,0.2 -8.1,-3.1 -2.4,-5.3 -4.3,-10.8 -6.7,-16.7 z"
   class="st0" />
		<path
   id="path34438"
   d="m 165,215.9 c 3.1,-4.6 5.4,-3.5 8.4,-0.1 3.6,4.1 7.8,7.8 11.7,11.6 -3,3.5 -5.4,3.6 -8.4,0 -3.6,-4.3 -7.9,-7.8 -11.7,-11.5 z"
   class="st0" />
		<path
   id="path34440"
   d="m 130.8,214.1 c -3.9,2.2 -5.3,6.1 -7.8,9 -1.5,1.7 -3.1,3.4 -4.7,5.1 -1.4,1.4 -3,1.4 -4.4,0.2 -1.4,-1.2 -1.5,-3 -0.3,-4.4 3.6,-4 7.5,-7.8 11.1,-11.9 2,-2.3 3.8,1.8 6.1,2 z"
   class="st0" />
		<path
   id="path34442"
   d="m 165.3,164.9 c -1,-1.5 -4.6,-0.7 -2,-3.8 3.6,-4.5 6.9,-9.4 10.2,-14.1 1.4,-2 2.7,-0.4 3.8,0.1 1.4,0.6 0.5,1.5 -0.2,2.3 -3.6,4.6 -7.2,9.2 -10.8,13.8 -0.3,0.5 -0.6,1.1 -1,1.7 z"
   class="st0" />
		<path
   id="path34444"
   d="m 151.9,192.9 c 4,5.7 11.4,8 8.4,16.9 -3.7,-3.7 -7.5,-6.9 -10.5,-10.7 -1.5,-1.9 2.9,-2.6 2.1,-6.2 z"
   class="st0" />
		<path
   id="path34446"
   d="m 165.2,202.1 c 3,4.9 1.8,8.1 -1.2,10.1 -2.7,1.8 -5.9,1.6 -8.2,-2.6 6.6,2.2 8.8,-1.2 9.4,-7.5 z"
   class="st0" />
		<path
   id="path34448"
   d="m 195,236.9 c -0.7,1.5 -1.5,3.2 -4,3.1 -1.9,-0.1 -4.7,-1 -4.4,-2.5 0.4,-1.9 2.4,-4.2 4.8,-4.2 1.2,0 3.6,0.7 3.6,3.6 z"
   class="st0" />
		<path
   id="path34450"
   d="m 190,229.6 c 0,1.7 -6,6.8 -7.2,6.3 -1,-0.4 -2.1,-1.4 -2.4,-2.3 -0.3,-0.8 1,-1.2 1.9,-1.7 1.6,-0.8 3.2,-1.5 4.4,-2.9 0.4,-0.4 -0.3,-2.7 1.5,-1.2 0.7,0.5 1.3,1.3 1.8,1.8 z"
   class="st0" />
		<path
   id="path34452"
   d="m 108.6,240 c -2.4,0.2 -3.6,-0.6 -3.7,-3.3 -0.1,-2.2 1,-3.3 2.4,-4.5 1.1,2.4 3.9,3.3 5.1,5.3 0.6,0.8 -1.7,2.7 -3.8,2.5 z"
   class="st0" />
		<path
   id="path34454"
   d="m 138.1,210.7 c -8,2.5 -12.1,0.2 -11.9,-7.4 3.1,4.8 6.8,7.3 11.9,7.4 z"
   class="st0" />
		<path
   id="path34456"
   d="m 109.1,227.6 c 2.1,1.3 3.8,2.3 5.4,3.3 0.8,0.5 2.5,-0.4 2.5,1.6 0,1.2 -0.5,2 -1.5,2.4 -1.2,0.4 -2.5,0.6 -3.7,-0.4 -1.9,-1.8 -2.4,-4 -2.7,-6.9 z"
   class="st0" />
		<path
   id="path34458"
   d="m 109.3,141.9 c -1.8,4.6 -5.3,6.1 -8.7,7.9 -0.7,0.4 -1.4,0.2 -1.5,-0.5 -0.1,-0.6 -0.1,-1.7 0.2,-1.8 3.2,-1.7 5.6,-4.7 10,-5.6 z"
   class="st0" />
		<path
   id="path34460"
   d="m 183.3,145.5 c -3.1,1.1 -5.3,0.4 -7.4,-1.1 -0.7,-0.5 -2.3,-0.3 -1.8,-1.7 0.4,-1.1 1.5,-2.2 2.7,-1.6 2.2,1 5,1.4 6.5,4.4 z"
   class="st0" />
		<path
   id="path34462"
   d="m 163.9,166.4 c -0.5,0.5 -0.8,1.6 -1.6,1.2 -0.9,-0.4 -2,-1.1 -2,-2.3 0,-0.3 0.9,-0.6 1.4,-1 0.5,1 2.6,0.2 2.2,2.1 z"
   class="st0" />
		<path
   id="path34464"
   d="m 90.2,128.3 c 3.7,3.9 7.4,7.8 10.7,11.2 -3,0 -9,-5.9 -10.7,-11.2 z"
   class="st1" />
	</g>
</g>
</svg>
