<?xml version="1.0" encoding="UTF-8"?>
<svg xmlns="http://www.w3.org/2000/svg" viewBox="-0.5 -0.8 11 17.6" width="375" height="600">
<defs><filter id="paperGrain" x="-5%" y="-5%" width="110%" height="110%">
    <feTurbulence type="fractalNoise" baseFrequency="0.9" numOctaves="1" result="noise" seed="42"/>
    <feColorMatrix type="matrix" values="0 0 0 0 0.55  0 0 0 0 0.48  0 0 0 0 0.38  0 0 0 0.12 0" in="noise" result="colored"/>
    <feBlend in="SourceGraphic" in2="colored" mode="multiply"/>
  </filter>
  <filter id="inkEdge" filterUnits="userSpaceOnUse" x="-1" y="-1" width="12" height="18">
    <feTurbulence type="fractalNoise" baseFrequency="0.04" numOctaves="1" result="turb"/>
    <feDisplacementMap in="SourceGraphic" in2="turb" scale="0.28" xChannelSelector="R" yChannelSelector="G"/>
  </filter>
</defs>
<g transform="translate(-0.5 -0.8)"><rect width="11" height="17.6" fill="#ede4d3" filter="url(#paperGrain)"/></g>
<defs><clipPath id="map-content-clip"><rect width="10" height="16"/></clipPath></defs>
<g id="map-content" clip-path="url(#map-content-clip)">
<g id="map-layers">
<defs>
<path data-water-body="ocean" d="M -0.466 11.996 L -0.381 11.992 L -0.295 11.987 L -0.21 11.979 L -0.125 11.974 L -0.039 11.967 L 0.046 11.969 L 0.131 11.978 L 0.215 11.996 L 0.299 12.01 L 0.384 12.02 L 0.47 12.023 L 0.555 12.022 L 0.641 12.028 L 0.726 12.022 L 0.81 12.008 L 0.895 12.012 L 0.98 12.016 L 1.065 12.004 L 1.15 12.01 L 1.234 12.027 L 1.319 12.036 L 1.404 12.04 L 1.489 12.03 L 1.574 12.027 L 1.66 12.029 L 1.745 12.031 L 1.831 12.032 L 1.915 12.019 L 2 12.009 L 2.085 12.004 L 2.169 11.987 L 2.253 11.973 L 2.337 11.986 L 2.422 11.988 L 2.507 11.979 L 2.592 11.965 L 2.676 11.953 L 2.761 11.963 L 2.846 11.974 L 2.93 11.986 L 3.016 11.992 L 3.101 11.994 L 3.186 12 L 3.272 12.002 L 3.357 12.003 L 3.443 12.008 L 3.528 12.015 L 3.612 12.001 L 3.697 11.996 L 3.781 12.015 L 3.866 12.016 L 3.951 12.011 L 4.036 12.02 L 4.121 12.024 L 4.204 12.004 L 4.29 11.997 L 4.375 11.995 L 4.461 11.993 L 4.546 11.992 L 4.631 11.982 L 4.716 11.986 L 4.801 11.998 L 4.887 12 L 4.972 12.003 L 5.056 12.019 L 5.142 12.016 L 5.226 12.004 L 5.309 11.982 L 5.392 11.964 L 5.478 11.966 L 5.563 11.969 L 5.649 11.971 L 5.734 11.967 L 5.82 11.963 L 5.905 11.963 L 5.991 11.964 L 6.075 11.975 L 6.159 11.991 L 6.243 12.009 L 6.326 12.032 L 6.41 12.041 L 6.495 12.03 L 6.58 12.024 L 6.665 12.019 L 6.749 12 L 6.833 11.99 L 6.918 11.997 L 7.004 11.993 L 7.089 11.983 L 7.174 11.978 L 7.259 11.973 L 7.344 11.962 L 7.43 11.961 L 7.515 11.962 L 7.601 11.958 L 7.686 11.958 L 7.771 11.97 L 7.856 11.973 L 7.941 11.981 L 8.025 11.999 L 8.108 12.017 L 8.193 12.026 L 8.279 12.031 L 8.364 12.04 L 8.449 12.042 L 8.535 12.043 L 8.62 12.034 L 8.705 12.033 L 8.791 12.032 L 8.875 12.019 L 8.959 12 L 9.04 11.972 L 9.124 11.958 L 9.209 11.966 L 9.294 11.974 L 9.379 11.982 L 9.463 11.969 L 9.548 11.965 L 9.634 11.969 L 9.719 11.978 L 9.802 11.995 L 9.886 12.015 L 9.97 12.032 L 10.055 12.041 L 10.14 12.043 L 10.225 12.034 L 10.304 12.003 L 10.384 11.974 L 10.468 11.98 L 10.546 12.015 L 10.598 12.081 L 10.617 12.164 L 10.62 12.25 L 10.624 12.335 L 10.63 12.42 L 10.617 12.505 L 10.6 12.588 L 10.592 12.674 L 10.574 12.757 L 10.553 12.84 L 10.544 12.925 L 10.546 13.011 L 10.554 13.096 L 10.561 13.181 L 10.563 13.267 L 10.582 13.35 L 10.597 13.433 L 10.585 13.518 L 10.585 13.603 L 10.599 13.688 L 10.6 13.773 L 10.597 13.858 L 10.592 13.944 L 10.582 14.029 L 10.565 14.113 L 10.558 14.198 L 10.557 14.283 L 10.556 14.369 L 10.555 14.454 L 10.554 14.54 L 10.547 14.625 L 10.54 14.71 L 10.529 14.795 L 10.529 14.88 L 10.542 14.965 L 10.554 15.05 L 10.565 15.134 L 10.574 15.219 L 10.578 15.305 L 10.578 15.39 L 10.584 15.476 L 10.593 15.561 L 10.602 15.646 L 10.604 15.731 L 10.586 15.815 L 10.572 15.899 L 10.562 15.984 L 10.539 16.066 L 10.523 16.15 L 10.526 16.235 L 10.535 16.32 L 10.554 16.403 L 10.542 16.486 L 10.478 16.54 L 10.393 16.55 L 10.308 16.556 L 10.223 16.559 L 10.138 16.55 L 10.052 16.551 L 9.967 16.554 L 9.883 16.573 L 9.8 16.589 L 9.714 16.593 L 9.629 16.601 L 9.544 16.608 L 9.459 16.599 L 9.374 16.588 L 9.289 16.577 L 9.204 16.57 L 9.119 16.566 L 9.033 16.566 L 8.948 16.561 L 8.862 16.561 L 8.777 16.554 L 8.691 16.549 L 8.606 16.546 L 8.521 16.551 L 8.435 16.56 L 8.351 16.576 L 8.268 16.596 L 8.184 16.589 L 8.099 16.575 L 8.014 16.573 L 7.929 16.564 L 7.844 16.551 L 7.76 16.539 L 7.675 16.535 L 7.592 16.558 L 7.509 16.571 L 7.423 16.567 L 7.339 16.581 L 7.256 16.596 L 7.171 16.588 L 7.086 16.576 L 7.002 16.559 L 6.917 16.558 L 6.832 16.567 L 6.747 16.564 L 6.661 16.564 L 6.576 16.562 L 6.49 16.565 L 6.405 16.567 L 6.32 16.58 L 6.235 16.585 L 6.152 16.566 L 6.067 16.56 L 5.981 16.561 L 5.896 16.554 L 5.811 16.551 L 5.726 16.562 L 5.641 16.559 L 5.556 16.55 L 5.47 16.556 L 5.385 16.562 L 5.3 16.561 L 5.214 16.568 L 5.129 16.577 L 5.045 16.593 L 4.961 16.602 L 4.878 16.579 L 4.794 16.563 L 4.71 16.55 L 4.625 16.536 L 4.541 16.526 L 4.456 16.537 L 4.372 16.551 L 4.287 16.563 L 4.203 16.577 L 4.118 16.588 L 4.035 16.609 L 3.95 16.615 L 3.866 16.599 L 3.781 16.598 L 3.696 16.603 L 3.61 16.607 L 3.525 16.608 L 3.44 16.601 L 3.356 16.585 L 3.273 16.563 L 3.19 16.544 L 3.105 16.535 L 3.02 16.54 L 2.934 16.547 L 2.849 16.555 L 2.765 16.567 L 2.68 16.576 L 2.594 16.573 L 2.509 16.577 L 2.424 16.589 L 2.339 16.594 L 2.253 16.598 L 2.168 16.607 L 2.083 16.611 L 1.997 16.612 L 1.912 16.607 L 1.827 16.602 L 1.743 16.62 L 1.658 16.62 L 1.574 16.604 L 1.494 16.575 L 1.414 16.544 L 1.329 16.543 L 1.244 16.549 L 1.158 16.552 L 1.073 16.551 L 0.987 16.549 L 0.903 16.535 L 0.818 16.527 L 0.733 16.536 L 0.649 16.55 L 0.565 16.565 L 0.482 16.585 L 0.397 16.6 L 0.312 16.609 L 0.227 16.611 L 0.141 16.61 L 0.057 16.598 L -0.028 16.588 L -0.112 16.599 L -0.197 16.592 L -0.279 16.569 L -0.364 16.563 L -0.449 16.561 L -0.519 16.516 L -0.549 16.437 L -0.57 16.354 L -0.563 16.269 L -0.567 16.184 L -0.59 16.101 L -0.594 16.016 L -0.599 15.931 L -0.604 15.845 L -0.609 15.76 L -0.605 15.675 L -0.613 15.59 L -0.619 15.505 L -0.594 15.424 L -0.569 15.342 L -0.553 15.258 L -0.546 15.173 L -0.551 15.087 L -0.557 15.002 L -0.566 14.917 L -0.582 14.833 L -0.592 14.748 L -0.596 14.662 L -0.589 14.577 L -0.583 14.493 L -0.605 14.41 L -0.614 14.325 L -0.612 14.24 L -0.616 14.154 L -0.621 14.069 L -0.61 13.984 L -0.608 13.899 L -0.616 13.814 L -0.613 13.729 L -0.6 13.644 L -0.587 13.56 L -0.57 13.476 L -0.55 13.393 L -0.545 13.307 L -0.545 13.222 L -0.538 13.136 L -0.533 13.051 L -0.54 12.966 L -0.535 12.88 L -0.529 12.795 L -0.528 12.71 L -0.528 12.624 L -0.526 12.539 L -0.527 12.453 L -0.532 12.368 L -0.536 12.282 L -0.547 12.197 L -0.561 12.113 L -0.542 12.031 Z" id="waterBody0"/>
<clipPath id="waterBody0Clip"><use href="#waterBody0"/></clipPath>
</defs>
<defs>
<filter id="terrain-tone-blur" filterUnits="userSpaceOnUse" x="-4.2932505167995965" y="-4.2932505167995965" width="18.58650103359919" height="24.58650103359919" color-interpolation-filters="sRGB"><feGaussianBlur stdDeviation="1.0733126291998991"/></filter>
<mask id="terrain-tone-land" maskUnits="userSpaceOnUse" x="0" y="0" width="10" height="16" style="mask-type:luminance"><rect width="10" height="16" fill="white"/><use href="#waterBody0" fill="black"/></mask>
</defs>
<g data-terrain-tones="true" opacity="0.8">
<g mask="url(#terrain-tone-land)"><g filter="url(#terrain-tone-blur)">
<rect x="-4.2932505167995965" y="-4.2932505167995965" width="18.58650103359919" height="24.58650103359919" fill="rgb(216,198,173)"/>
<polygon points="0.000,0.000 5.000,0.000 5.000,4.000 0.000,4.000" fill="rgb(216,198,173)" stroke="rgb(216,198,173)" stroke-width="0.03219937887599697" stroke-linejoin="round"/>
<polygon points="5.000,0.000 10.000,0.000 10.000,4.000 5.000,4.000" fill="rgb(216,198,173)" stroke="rgb(216,198,173)" stroke-width="0.03219937887599697" stroke-linejoin="round"/>
<polygon points="0.000,4.000 5.000,4.000 5.000,8.000 0.000,8.000" fill="rgb(216,198,173)" stroke="rgb(216,198,173)" stroke-width="0.03219937887599697" stroke-linejoin="round"/>
<polygon points="5.000,4.000 10.000,4.000 10.000,8.000 5.000,8.000" fill="rgb(216,198,173)" stroke="rgb(216,198,173)" stroke-width="0.03219937887599697" stroke-linejoin="round"/>
<polygon points="0.000,8.000 5.000,8.000 5.000,12.000 0.000,12.000" fill="rgb(216,198,173)" stroke="rgb(216,198,173)" stroke-width="0.03219937887599697" stroke-linejoin="round"/>
<polygon points="5.000,8.000 10.000,8.000 10.000,12.000 5.000,12.000" fill="rgb(216,198,173)" stroke="rgb(216,198,173)" stroke-width="0.03219937887599697" stroke-linejoin="round"/>
</g></g>
<g data-water-tones="true" fill="rgb(230,238,244)"><use href="#waterBody0"/></g>
</g>
<g data-water-hatching="ocean" clip-path="url(#waterBody0Clip)">
<path d="M -0.057 12.097 L 0.414 12.15 L 1.1 12.136 L 1.386 12.167 L 1.843 12.159 L 2.219 12.109 L 2.453 12.114 L 2.671 12.085 L 3.186 12.128 L 3.529 12.142 L 3.671 12.128 L 4.1 12.152 L 4.271 12.128 L 4.643 12.112 L 5.1 12.146 L 5.414 12.095 L 5.929 12.092 L 6.414 12.168 L 6.814 12.123 L 7.643 12.087 L 7.9 12.107 L 8.157 12.151 L 8.5 12.171 L 8.814 12.158 L 9.157 12.09 L 9.357 12.109 L 9.643 12.1 L 10.057 12.17" fill="none" stroke="#786451" stroke-width="0.08" stroke-opacity="0.72" stroke-linejoin="round" stroke-linecap="round"/>
<path d="M -0.057 12.278 L 0.414 12.33 L 1.071 12.316 L 1.414 12.348 L 1.843 12.339 L 2.243 12.29 L 2.443 12.295 L 2.671 12.267 L 3.186 12.308 L 4.1 12.332 L 4.643 12.293 L 5.1 12.326 L 5.443 12.274 L 5.929 12.272 L 6.414 12.349 L 6.814 12.304 L 7.643 12.267 L 7.886 12.286 L 8.157 12.332 L 8.5 12.351 L 8.843 12.336 L 9.157 12.271 L 9.357 12.289 L 9.614 12.278 L 10.057 12.35" fill="none" stroke="#786451" stroke-width="0.08" stroke-opacity="0.518" stroke-linejoin="round" stroke-linecap="round"/>
<path d="M -0.057 12.531 L 0.357 12.58 L 0.643 12.588 L 1.089 12.57 L 1.414 12.6 L 1.871 12.591 L 2.243 12.546 L 2.471 12.546 L 2.671 12.521 L 3.157 12.559 L 4.1 12.584 L 4.643 12.547 L 5.1 12.578 L 5.443 12.529 L 5.929 12.524 L 6.243 12.586 L 6.414 12.601 L 6.843 12.557 L 7.614 12.519 L 7.843 12.536 L 8.129 12.583 L 8.5 12.603 L 8.871 12.587 L 9.157 12.529 L 9.386 12.542 L 9.557 12.527 L 10.057 12.602" fill="none" stroke="#786451" stroke-width="0.08" stroke-opacity="0.373" stroke-linejoin="round" stroke-linecap="round"/>
<path d="M -0.057 12.885 L 0.357 12.933 L 1.071 12.928 L 1.414 12.953 L 1.871 12.944 L 2.271 12.9 L 2.7 12.877 L 3.5 12.928 L 4.129 12.937 L 4.357 12.91 L 4.643 12.902 L 5.1 12.931 L 5.5 12.881 L 5.871 12.877 L 6.186 12.934 L 6.414 12.954 L 7.586 12.873 L 8.1 12.935 L 8.529 12.956 L 8.9 12.938 L 9.186 12.886 L 9.557 12.882 L 9.843 12.936 L 10.057 12.955" fill="none" stroke="#786451" stroke-width="0.08" stroke-opacity="0.269" stroke-linejoin="round" stroke-linecap="round"/>
</g>
<use href="#waterBody0" fill="none" stroke="#4a3d32" stroke-width="0.36" stroke-linejoin="round" stroke-linecap="round"/>
<use href="#waterBody0" fill="none" stroke="#ede4d3" stroke-width="0.2" stroke-linejoin="round" stroke-linecap="round" clip-path="url(#waterBody0Clip)"/>
<defs><mask id="riverInk" maskUnits="userSpaceOnUse" x="0" y="0" width="10" height="16"><rect width="10" height="16" fill="white"/><use href="#waterBody0" fill="black"/></mask></defs>
<g data-map-rivers="true" data-river-network-version="1" mask="url(#riverInk)"><g fill="#4a3d32"><path data-river-edge="1" data-flow="1" data-river-reach="river-edge:1" data-river-kind="ordinary" data-river-size="stream" d="M 5 0 L 4.981 0.168 L 4.945 0.338 L 4.904 0.513 L 4.845 0.692 L 4.774 0.874 L 4.698 1.059 L 4.627 1.248 L 4.571 1.438 L 4.539 1.629 L 4.531 1.819 L 4.546 2.008 L 4.576 2.194 L 4.611 2.375 L 4.641 2.551 L 4.661 2.723 L 4.667 2.889 L 4.661 3.051 L 4.651 3.209 L 4.645 3.363 L 4.655 3.513 L 4.69 3.657 L 4.755 3.793 L 4.851 3.919 L 4.972 4.031 L 5.028 3.969 L 4.912 3.863 L 4.824 3.75 L 4.765 3.63 L 4.733 3.501 L 4.723 3.362 L 4.727 3.213 L 4.736 3.055 L 4.741 2.889 L 4.733 2.717 L 4.712 2.541 L 4.68 2.362 L 4.643 2.182 L 4.613 2 L 4.597 1.818 L 4.603 1.635 L 4.633 1.451 L 4.685 1.267 L 4.753 1.081 L 4.828 0.896 L 4.899 0.711 L 4.957 0.528 L 4.998 0.348 L 5.007 0.17 Z"/>
<path data-river-edge="2" data-flow="2" data-river-reach="river-edge:2" data-river-kind="ordinary" data-river-size="stream" d="M 0 4 L 0.21 4.016 L 0.422 4.025 L 0.636 4.024 L 0.851 4.027 L 1.068 4.033 L 1.287 4.036 L 1.508 4.03 L 1.73 4.008 L 1.952 3.967 L 2.174 3.907 L 2.394 3.833 L 2.611 3.753 L 2.826 3.677 L 3.037 3.616 L 3.245 3.577 L 3.45 3.564 L 3.653 3.578 L 3.853 3.613 L 4.05 3.667 L 4.245 3.73 L 4.436 3.8 L 4.623 3.873 L 4.805 3.95 L 4.982 4.037 L 5.018 3.963 L 4.839 3.875 L 4.654 3.797 L 4.465 3.724 L 4.271 3.655 L 4.073 3.591 L 3.87 3.537 L 3.662 3.501 L 3.45 3.488 L 3.236 3.502 L 3.02 3.543 L 2.803 3.607 L 2.586 3.684 L 2.37 3.765 L 2.153 3.839 L 1.937 3.898 L 1.72 3.939 L 1.504 3.962 L 1.287 3.969 L 1.069 3.967 L 0.852 3.962 L 0.636 3.959 L 0.421 3.961 L 0.209 3.978 Z"/>
<path data-river-edge="7" data-flow="5" data-river-reach="river-edge:7" data-river-kind="ordinary" data-river-size="channel" d="M 4.953 4.044 L 5.058 4.155 L 5.135 4.269 L 5.188 4.39 L 5.217 4.518 L 5.227 4.656 L 5.225 4.805 L 5.217 4.964 L 5.212 5.13 L 5.217 5.303 L 5.234 5.48 L 5.259 5.659 L 5.287 5.839 L 5.31 6.017 L 5.32 6.195 L 5.312 6.372 L 5.283 6.55 L 5.236 6.73 L 5.174 6.912 L 5.107 7.095 L 5.043 7.279 L 4.989 7.463 L 4.951 7.646 L 4.93 7.825 L 4.924 7.997 L 5.076 8.003 L 5.081 7.837 L 5.1 7.67 L 5.134 7.499 L 5.184 7.324 L 5.246 7.144 L 5.313 6.96 L 5.375 6.771 L 5.424 6.58 L 5.454 6.387 L 5.462 6.194 L 5.451 6.004 L 5.426 5.818 L 5.397 5.638 L 5.371 5.464 L 5.354 5.295 L 5.348 5.13 L 5.352 4.968 L 5.359 4.809 L 5.361 4.652 L 5.348 4.498 L 5.313 4.348 L 5.25 4.205 L 5.159 4.073 L 5.047 3.956 Z"/>
<path data-river-edge="12" data-flow="10" data-river-reach="river-edge:12" data-river-kind="ordinary" data-river-size="broad" d="M 4.924 8 L 4.923 8.165 L 4.916 8.328 L 4.901 8.491 L 4.877 8.654 L 4.846 8.819 L 4.815 8.988 L 4.791 9.159 L 4.781 9.334 L 4.792 9.509 L 4.823 9.684 L 4.871 9.856 L 4.928 10.024 L 4.983 10.189 L 5.028 10.35 L 5.056 10.509 L 5.066 10.667 L 5.057 10.826 L 5.034 10.988 L 5.003 11.153 L 4.972 11.321 L 4.947 11.491 L 4.931 11.662 L 4.925 11.832 L 4.924 11.993 L 4.915 12.036 L 5.065 12.064 L 5.076 12.007 L 5.077 11.835 L 5.084 11.672 L 5.099 11.509 L 5.123 11.346 L 5.154 11.181 L 5.185 11.012 L 5.209 10.841 L 5.219 10.666 L 5.208 10.491 L 5.177 10.316 L 5.129 10.144 L 5.072 9.976 L 5.017 9.811 L 4.972 9.65 L 4.944 9.491 L 4.934 9.333 L 4.943 9.174 L 4.966 9.012 L 4.997 8.847 L 5.028 8.679 L 5.053 8.509 L 5.069 8.338 L 5.075 8.168 L 5.076 8 Z"/>
<circle cx="5" cy="4" r="0.064"/>
<circle cx="5" cy="8" r="0.076"/>
<circle cx="5" cy="12" r="0.076"/></g><g fill="rgb(230,238,244)"><path d="M 4.97 4.029 L 5.075 4.141 L 5.155 4.258 L 5.21 4.382 L 5.24 4.515 L 5.25 4.656 L 5.248 4.806 L 5.24 4.964 L 5.235 5.13 L 5.24 5.302 L 5.257 5.478 L 5.282 5.656 L 5.31 5.835 L 5.333 6.015 L 5.343 6.195 L 5.335 6.375 L 5.306 6.555 L 5.258 6.736 L 5.196 6.919 L 5.129 7.103 L 5.064 7.286 L 5.011 7.469 L 4.974 7.65 L 4.953 7.827 L 4.947 7.998 L 5.053 8.002 L 5.059 7.835 L 5.077 7.666 L 5.112 7.494 L 5.163 7.317 L 5.225 7.137 L 5.291 6.952 L 5.353 6.765 L 5.402 6.575 L 5.432 6.384 L 5.44 6.194 L 5.428 6.006 L 5.403 5.822 L 5.374 5.642 L 5.348 5.467 L 5.331 5.296 L 5.325 5.13 L 5.329 4.968 L 5.336 4.808 L 5.338 4.653 L 5.326 4.501 L 5.291 4.355 L 5.23 4.217 L 5.141 4.088 L 5.03 3.971 Z"/>
<path d="M 4.946 8 L 4.946 8.165 L 4.939 8.33 L 4.924 8.494 L 4.9 8.658 L 4.869 8.824 L 4.838 8.991 L 4.813 9.161 L 4.804 9.333 L 4.814 9.506 L 4.845 9.679 L 4.893 9.849 L 4.949 10.017 L 5.005 10.182 L 5.05 10.345 L 5.079 10.506 L 5.089 10.667 L 5.08 10.828 L 5.057 10.991 L 5.026 11.157 L 4.995 11.325 L 4.97 11.494 L 4.954 11.663 L 4.947 11.832 L 4.947 11.995 L 4.938 12.04 L 5.043 12.06 L 5.053 12.005 L 5.054 11.835 L 5.061 11.67 L 5.076 11.506 L 5.1 11.342 L 5.131 11.176 L 5.162 11.009 L 5.187 10.839 L 5.196 10.667 L 5.186 10.494 L 5.155 10.321 L 5.107 10.151 L 5.051 9.983 L 4.995 9.818 L 4.95 9.655 L 4.921 9.494 L 4.911 9.333 L 4.92 9.172 L 4.943 9.009 L 4.974 8.843 L 5.005 8.675 L 5.03 8.506 L 5.046 8.337 L 5.053 8.168 L 5.054 8 Z"/>
<circle cx="5" cy="4" r="0.042"/>
<circle cx="5" cy="8" r="0.054"/>
<circle cx="5" cy="12" r="0.054"/></g></g>
</g>

<g id="map-compass" data-reserved-box="0.143 0.143 1.114 1.371" transform="translate(0.629 0.871) scale(0.286)" aria-label="North">
<rect x="-1.65" y="-2.5" width="3.3" height="4.2" rx="1.4" fill="#ede4d3"/>
<g stroke="#4a3d32" stroke-width="0.08" stroke-linejoin="round">
<path d="M 0 -1.35 L 0.28 -0.28 L 1.35 0 L 0.28 0.28 L 0 1.35 L -0.28 0.28 L -1.35 0 L -0.28 -0.28 Z" fill="#ede4d3"/>
<path d="M 0 -1.35 L 0 0 L -0.28 -0.28 Z M 1.35 0 L 0 0 L 0.28 -0.28 Z M 0 1.35 L 0 0 L 0.28 0.28 Z M -1.35 0 L 0 0 L -0.28 0.28 Z" fill="#4a3d32"/>
</g>
<text x="0" y="-1.7" text-anchor="middle" font-family="&apos;Times New Roman&apos;, Times, serif" font-size="0.7" fill="#2a1d12">N</text>
</g>

</g>
<g id="map-frame" fill="none" stroke="#4a3d32"><rect x="0" y="0" width="10" height="16" stroke-width="0.034"/><rect x="-0.175" y="-0.28" width="10.35" height="16.56" stroke-width="0.023"/></g>
</svg>