<?xml version="1.0" encoding="UTF-8" standalone="no"?>
<svg
   xmlns:dc="http://purl.org/dc/elements/1.1/"
   xmlns:cc="http://creativecommons.org/ns#"
   xmlns:rdf="http://www.w3.org/1999/02/22-rdf-syntax-ns#"
   xmlns:svg="http://www.w3.org/2000/svg"
   xmlns="http://www.w3.org/2000/svg"
   xmlns:sodipodi="http://sodipodi.sourceforge.net/DTD/sodipodi-0.dtd"
   xmlns:inkscape="http://www.inkscape.org/namespaces/inkscape"
   width="179.33583"
   height="239.07906"
   viewBox="0 0 47.449271 63.256335"
   version="1.1"
   id="svg8"
   inkscape:version="1.0 (4035a4f, 2020-05-01)"
   sodipodi:docname="anchor.svg">
  <defs
     id="defs2" />
  <sodipodi:namedview
     inkscape:pagecheckerboard="true"
     id="base"
     pagecolor="#ffffff"
     bordercolor="#666666"
     borderopacity="1.0"
     inkscape:pageopacity="0.0"
     inkscape:pageshadow="2"
     inkscape:zoom="2.8"
     inkscape:cx="104.69967"
     inkscape:cy="112.84728"
     inkscape:document-units="mm"
     inkscape:current-layer="layer1"
     inkscape:document-rotation="0"
     showgrid="false"
     inkscape:window-width="1630"
     inkscape:window-height="1067"
     inkscape:window-x="0"
     inkscape:window-y="25"
     inkscape:window-maximized="0"
     units="px"
     fit-margin-top="0"
     fit-margin-left="0"
     fit-margin-right="0"
     fit-margin-bottom="0" />
  <metadata
     id="metadata5">
    <rdf:RDF>
      <cc:Work
         rdf:about="">
        <dc:format>image/svg+xml</dc:format>
        <dc:type
           rdf:resource="http://purl.org/dc/dcmitype/StillImage" />
        <dc:title />
      </cc:Work>
    </rdf:RDF>
  </metadata>
  <style
     id="style920"
     type="text/css">
    .st0{fill:#FFFFFF;stroke-width:0px;stroke:#000000;}
    .st1{fill:#000000;}
  </style>
  <g
     inkscape:label="Layer 1"
     inkscape:groupmode="layer"
     id="layer1"
     transform="translate(-1.4985736,-1.2680674)">
    <path
       style="stroke-width:0.558909"
       class="st1"
       d="M 23.764578,64.410787 C 23.095259,64.274964 22.247063,63.801589 21.879692,63.358956 21.512322,62.916299 20.802402,62.548607 20.302098,62.541873 16.976438,62.496873 9.9496732,57.488007 7.3068116,53.278275 5.1099843,49.779014 4.3046488,49.454423 4.7584966,52.251159 5.2479355,55.267217 3.9918465,54.371889 2.6921002,50.778279 1.0195468,46.1539 1.1162865,39.609384 2.9104626,36.005918 c 0.7652751,-1.537016 1.6429207,-2.73925 1.9503216,-2.671675 0.3074012,0.0676 0.7080944,1.450893 0.8904279,3.074007 0.6075411,5.408224 4.0869768,9.963376 8.5151439,11.147744 1.436042,0.38408 2.610989,0.903898 2.610989,1.155155 0,0.870972 -3.085923,1.642976 -5.508819,1.378117 l -2.4348185,-0.26614 2.9937275,3.0363 c 3.03735,3.080516 8.317882,6.18477 9.391749,5.521095 0.909753,-0.562263 0.803542,-30.277276 -0.110269,-30.852929 -0.384248,-0.242041 -2.133095,-0.360189 -3.886337,-0.262509 -2.242709,0.124844 -3.563645,-0.08577 -4.455908,-0.710704 -0.697515,-0.488558 -1.835224,-0.88829 -2.52824,-0.88829 -0.7199684,0 -1.6440739,-0.586136 -2.1560494,-1.367515 -0.7714485,-1.177377 -0.7917295,-1.585306 -0.1458841,-2.934275 0.6855277,-1.431818 1.10479,-1.605434 4.8672255,-2.015624 2.548587,-0.277869 4.734556,-0.233614 5.737848,0.116183 2.506297,0.873697 3.265985,0.283062 3.265985,-2.539189 0,-1.667456 -0.269354,-2.576196 -0.827053,-2.7902 C 20.625614,13.960978 19.714508,12.94607 19.055815,11.880272 15.510274,6.14348 21.440902,-0.77058255 27.67352,1.8335611 c 4.865803,2.0330727 5.734596,9.2899829 1.469841,12.2771479 -0.947462,0.663615 -1.123255,1.295543 -0.981301,3.527123 l 0.173008,2.718655 2.935893,-0.179764 c 1.876355,-0.114918 3.571438,0.137095 4.696895,0.698616 0.968522,0.483171 2.333146,0.878488 3.03246,0.878488 2.462651,0 4.111158,3.464511 2.329399,4.895527 -1.470746,1.181246 -10.228656,2.156501 -11.309576,1.259401 -1.779371,-1.476724 -1.964528,-0.02578 -1.964528,15.396106 0,12.447983 0.141109,15.337026 0.749085,15.337026 1.685159,0 7.568217,-3.493023 10.031057,-5.955868 1.448531,-1.448528 2.633847,-2.77599 2.634037,-2.949903 1.9e-4,-0.173855 -1.281726,-0.22745 -2.848724,-0.118936 -3.262027,0.22593 -4.85606,-0.684098 -2.660498,-1.518843 3.926961,-1.493039 8.302049,-8.068329 8.302998,-12.478507 4.62e-4,-2.421376 0.674195,-3.052017 1.924575,-1.801632 2.170509,2.170486 2.80022,4.329224 2.757717,9.453649 -0.03337,4.014833 -0.302244,5.594284 -1.332321,7.824747 l -1.290599,2.794553 -0.383574,-2.102085 c -0.538834,-2.952924 -0.847101,-3.018491 -1.893693,-0.402813 -1.351608,3.378024 -5.41718,7.408791 -9.50019,9.418836 -1.954173,0.962036 -3.879641,1.749168 -4.278799,1.749168 -0.399185,0 -1.122835,0.357651 -1.60814,0.794817 -1.043955,0.940359 -3.19408,1.406869 -4.893897,1.061826 z m 3.971598,-1.617112 c 1.072618,-1.07265 1.076359,-1.243896 0.06928,-3.174622 C 27.184262,58.428218 26.976972,55.058834 26.886796,44.68698 26.822783,37.320136 26.556517,31.424872 26.295169,31.586389 26.033821,31.747985 25.82,31.487946 25.82,31.008705 c 0,-0.479245 0.249035,-0.871351 0.553433,-0.871351 0.304398,0 0.135193,-0.488558 -0.376181,-1.085717 -0.705985,-0.824541 -1.175261,-0.954242 -1.950707,-0.539234 -0.949954,0.508394 -1.021098,1.592487 -1.021098,15.557581 0,12.827618 0.121887,15.057905 0.838349,15.332816 0.461123,0.177017 0.838379,0.706858 0.838379,1.177608 0,0.470754 0.398213,0.855909 0.884936,0.855909 1.186712,0 0.71617,1.260796 -0.539303,1.445064 -0.56613,0.08302 -0.885863,-0.135618 -0.74568,-0.510069 0.13498,-0.360545 0.04628,-1.15855 -0.19688,-1.773351 -0.341959,-0.86425 -0.451192,-0.642386 -0.481566,0.978089 -0.03654,1.953757 0.07161,2.095897 1.597511,2.095897 0.900251,0 2.032041,-0.395208 2.51511,-0.878272 z M 22.926605,61.063458 C 22.822463,60.526377 21.680513,59.780566 20.230804,59.302803 16.563841,58.094329 12.309726,55.210735 10.075143,52.418926 7.6064176,49.334582 5.6967239,46.161671 5.7073898,45.161953 c 0.00444,-0.424812 0.3225823,-0.151249 0.706781,0.608123 0.9814763,1.939636 4.1516032,3.929135 6.2608612,3.929135 2.866083,0 2.745253,-0.663786 -0.400053,-2.197696 C 8.6862908,45.751359 6.0995282,42.187504 5.0660918,37.569638 L 4.3549896,34.392097 3.3649974,36.596275 C 2.2208438,39.1437 2.0154158,45.413138 2.9641308,48.830286 3.4895626,50.722821 3.6563146,50.892473 4.1405645,50.027159 4.4508891,49.472631 4.5624164,47.977337 4.3884017,46.70425 L 4.072015,44.389565 4.8185299,46.376319 c 1.1227192,2.987944 3.1125886,6.739125 4.637064,8.741511 3.1793991,4.176119 14.0591291,8.978021 13.4710111,5.945628 z M 3.5724681,42.712836 c 0.011406,-0.922194 0.1366529,-1.23181 0.2783617,-0.687994 0.1417009,0.543804 0.1323849,1.29832 -0.020697,1.67673 C 3.6770249,44.079974 3.561091,43.635036 3.5724815,42.712836 Z M 34.448544,60.03114 c 3.618612,-1.71188 7.52816,-5.768653 9.316934,-9.667811 0.731656,-1.594868 1.488933,-2.899755 1.682877,-2.899755 0.19392,0 0.512916,0.801686 0.708886,1.781533 0.503049,2.515207 1.349873,1.397315 2.079569,-2.745218 0.694858,-3.944742 -0.06655,-8.849093 -1.684065,-10.846573 -0.991928,-1.224971 -0.993172,-1.223854 -1.683131,1.516225 -0.944145,3.74952 -4.187862,8.911544 -6.652034,10.585994 l -2.03787,1.384772 h 1.961567 c 1.840501,0 4.20599,-1.143476 5.136002,-2.482704 0.837824,-1.206458 0.390203,0.365176 -0.728574,2.558183 -2.180439,4.274007 -7.355638,8.344437 -12.94674,10.182955 -1.279466,0.420732 -0.657657,2.037576 0.783625,2.037576 0.60096,0 2.429276,-0.632331 4.062954,-1.405177 z M 45.425881,46.019716 c 0.02682,-0.651088 0.159272,-0.78353 0.337665,-0.337667 0.161387,0.403449 0.141534,0.885524 -0.04414,1.071247 -0.185689,0.185679 -0.317816,-0.144489 -0.29355,-0.73358 z m 0.558902,-2.235628 c 0.02681,-0.651111 0.159278,-0.78354 0.337685,-0.33769 0.161388,0.40347 0.141537,0.885524 -0.04414,1.071244 -0.185688,0.185682 -0.317839,-0.144486 -0.293564,-0.733554 z m 0.04414,-3.02743 c 0,-0.768521 0.126949,-1.082888 0.281902,-0.698641 0.15505,0.384246 0.15505,1.01303 0,1.397281 -0.155055,0.384251 -0.281902,0.06992 -0.281902,-0.69864 z M 28.035904,26.261728 c 0.909098,-1.698681 0.680452,-3.847241 -0.539234,-5.066928 -1.98715,-1.98713 -2.537519,-1.439255 -2.525838,2.51441 0.01057,3.373594 0.09886,3.632259 1.248608,3.632909 0.680848,4.62e-4 1.49825,-0.485792 1.816464,-1.080391 z m 8.868825,-0.512772 c 0.300515,-2.123148 -0.380888,-3.893052 -1.654403,-4.297266 -1.543305,-0.489829 -2.168096,0.528168 -2.072061,3.376019 l 0.07541,2.235661 0.391005,-2.51511 0.391031,-2.515086 0.08386,2.693694 c 0.07647,2.453932 0.195824,2.677804 1.341492,2.515084 0.827178,-0.117453 1.321206,-0.628427 1.443602,-1.492996 z m -17.975764,0.6016 c 1.913911,-1.217451 1.172475,-6.273586 -0.919936,-6.273586 -0.987575,0 -1.13667,0.373603 -1.170933,2.934294 -0.0262,1.956289 -0.181245,2.571678 -0.465027,1.846381 -0.40626,-1.038168 -0.440397,-1.03177 -0.746951,0.140475 -0.176597,0.675613 -0.110479,1.098185 0.147025,0.939052 0.257482,-0.159065 0.626141,-0.03381 0.819215,0.278673 0.411161,0.665285 1.411918,0.722956 2.336691,0.134771 z m 5.773145,-1.87203 c 0,-2.508008 -0.80988,-3.581406 -2.817602,-3.73439 -1.61511,-0.123152 -1.757909,-0.01058 -1.450743,1.135173 0.187371,0.699418 0.369208,1.900456 0.404063,2.668951 l 0.06337,1.397278 0.447495,-1.397278 c 0.246117,-0.768495 0.472546,-1.068036 0.503198,-0.665647 0.03063,0.402395 0.283761,0.590677 0.562494,0.418411 0.278733,-0.172162 0.375165,0.190113 0.214262,0.805374 -0.485961,1.858385 0.322479,1.25385 0.933266,-0.697874 0.567814,-1.814395 0.568112,-1.814018 0.259803,0.334482 -0.207436,1.444823 -0.113435,2.030309 0.285878,1.783471 0.327,-0.20216 0.594556,-1.123681 0.594556,-2.047951 z m 6.663679,0.768373 0.608838,-1.536996 -0.305199,1.58383 c -0.196455,1.019833 -0.09823,1.455899 0.27611,1.224569 0.886775,-0.54807 0.692517,-3.455724 -0.29698,-4.445221 -1.715664,-1.715646 -2.477567,-0.509603 -1.387136,2.195729 0.256652,0.636763 0.210391,1.418464 -0.107739,1.816445 -0.374655,0.468874 -0.36726,0.69864 0.02237,0.69864 0.319416,0 0.854725,-0.691647 1.189588,-1.536996 z m -18.08141,-2.135845 c -0.205538,-0.819086 -0.499544,-1.363496 -0.653237,-1.2098 -0.153699,0.153786 -0.111261,0.949638 0.09434,1.768724 0.205537,0.819091 0.499523,1.363502 0.653222,1.209807 0.153784,-0.153787 0.111324,-0.949639 -0.09442,-1.768731 z m 25.592692,0.83056 c 2.375902,0.317965 2.45186,-0.752946 0.08555,-1.205301 -1.212631,-0.231813 -1.404358,-0.06844 -1.396961,1.190811 0.0063,1.013644 0.153153,1.231496 0.481674,0.71313 0.260205,-0.410507 0.633622,-0.724897 0.829805,-0.69864 z M 11.627916,23.110062 c 0.198524,-0.791011 0.10429,-1.694874 -0.209446,-2.008589 -0.753165,-0.753183 -2.4849654,-0.389528 -2.8112451,0.590313 -0.1569309,0.471241 -0.010346,0.623039 0.3728668,0.386196 0.3661515,-0.226304 0.6314206,-0.02408 0.6314206,0.481098 0,0.479249 0.2515076,0.871356 0.5589087,0.871356 0.307401,0 0.558909,-0.293418 0.558909,-0.652063 0,-0.358626 0.1616,-0.490461 0.359101,-0.292949 0.19751,0.197507 0.04096,0.742427 -0.34789,1.210962 -0.470218,0.566567 -0.500457,0.851874 -0.09028,0.851874 0.339185,0 0.779133,-0.64718 0.977662,-1.438198 z m 3.572699,-1.389332 c 0,-0.712224 -0.383932,-1.084836 -1.117806,-1.084836 -1.279596,0 -1.344004,0.209765 -0.530872,1.729121 0.688521,1.286544 1.648678,0.911318 1.648678,-0.644285 z m 0.940721,-0.630724 c -0.178499,-0.445873 -0.310862,-0.313423 -0.33769,0.337665 -0.02429,0.589195 0.107945,0.919303 0.293562,0.73358 0.185682,-0.185679 0.205538,-0.667774 0.04415,-1.071245 z m 10.561865,-3.760354 c -0.02469,-1.203635 -0.170679,-2.179889 -0.324381,-2.169454 -1.707526,0.11597 -3.353458,-0.230525 -3.353458,-0.705882 0,-0.34441 0.701996,-0.481821 1.67673,-0.328205 1.196488,0.188635 1.676728,0.038 1.676728,-0.525359 0,-0.43427 0.377259,-0.7896 0.838356,-0.7896 1.095199,0 1.073234,-1.362025 -0.03995,-2.475185 -1.393729,-1.3937463 -3.836338,-1.1149532 -4.721439,0.538883 -0.605841,1.132022 -0.624853,1.786614 -0.09443,3.253414 0.365194,1.009946 0.663994,2.635805 0.663994,3.613031 0,1.640756 0.142379,1.776775 1.8614,1.776775 1.799967,0 1.859898,-0.07224 1.816445,-2.188418 z m -5.761823,-5.21714 C 20.642113,11.728261 20.448573,10.176015 20.51129,8.6630869 20.59811,6.568371 20.926338,5.6685667 21.887276,4.8904375 c 1.26578,-1.0249649 3.613793,-1.3235765 5.304866,-0.6746636 1.46927,0.5638249 2.533358,3.2461698 2.283605,5.7565873 -0.125898,1.2652068 -0.01691,2.1697878 0.240839,2.0101328 0.258308,-0.159702 0.345692,-0.855928 0.194133,-1.547259 C 29.71405,9.5377078 29.786715,9.3915527 30.165093,9.9241108 30.577922,10.50526 30.763034,10.409696 31.003151,9.4914033 31.486599,7.6427246 30.393404,4.5891016 28.799223,3.335108 27.03517,1.9475047 23.263068,1.808064 21.469735,3.0641485 c -1.41986,0.9945255 -2.916717,3.6188419 -2.913633,5.1082456 0.0021,1.0749855 1.979143,4.6387579 2.573218,4.6387579 0.195821,0 0.111324,-0.31439 -0.188005,-0.69864 z m 5.781026,-3.0162557 1.892047,0.9022578 v -1.667694 c 0,-0.9224679 -0.499499,-2.1671878 -1.117806,-2.7854921 -2.312671,-2.3126507 -6.148014,-0.7506038 -6.148014,2.5039503 v 1.8816553 l 1.740864,-0.8684733 c 1.581098,-0.788756 1.914502,-0.7856487 3.632909,0.033807 z"
       id="path897" />
    <path
       style="stroke-width:0;stroke-miterlimit:4;stroke-dasharray:none"
       id="path1486"
       d="M 23.521102,19.28753 C 23.19048,19.12796 23.173768,19.061587 23.03527,17.358141 22.96496,16.493402 22.797561,15.487154 22.614675,14.829953 22.447586,14.229509 22.239031,13.47967 22.151223,13.163647 c -0.275264,-0.990689 0.115937,-2.181028 0.970526,-2.953099 0.591563,-0.5344419 1.130437,-0.7016137 2.087338,-0.6475437 0.616034,0.03481 0.896205,0.1161976 1.33979,0.3892057 0.566789,0.348835 1.24831,1.210492 1.383519,1.7492 0.109578,0.436588 -0.09206,0.870859 -0.451212,0.97179 -0.172686,0.04853 -0.456186,0.12821 -0.63,0.17707 -0.234551,0.06593 -0.354653,0.206658 -0.465866,0.545859 -0.08241,0.251363 -0.201552,0.508736 -0.264751,0.571942 -0.06433,0.06433 -0.746121,0.114917 -1.548903,0.114917 -1.126733,0 -1.456104,0.03561 -1.537182,0.166185 -0.311402,0.501512 0.698889,0.912237 2.330182,0.947317 0.556304,0.01196 1.038871,0.0661 1.072371,0.120298 0.118104,0.191099 0.238155,2.703914 0.155272,3.25005 -0.04956,0.326534 -0.16986,0.616014 -0.29362,0.706509 -0.257392,0.18821 -2.394402,0.199122 -2.777585,0.01419 z"
       class="st0" />
    <path
       id="path1488"
       d="m 20.950319,12.642457 c -0.2828,-0.158263 -1.218002,-1.615905 -1.748994,-2.7260484 -0.434851,-0.9091418 -0.48012,-1.0866987 -0.475913,-1.8665972 0.0035,-0.6528652 0.07197,-1.0151603 0.282234,-1.4939285 0.475763,-1.0832962 1.024679,-1.9345112 1.741948,-2.7012749 1.076164,-1.1504221 2.153525,-1.5521933 4.153647,-1.5489787 2.673587,0.00429 4.316624,0.9684293 5.36608,3.1488157 0.627518,1.303757 0.896293,2.6802008 0.722019,3.697597 -0.07264,0.4240516 -0.205381,0.8443198 -0.294995,0.933929 -0.140622,0.140623 -0.20544,0.112403 -0.473496,-0.2061621 -0.172982,-0.20558 -0.351591,-0.3235924 -0.403171,-0.2663898 -0.05093,0.056485 -0.03876,0.4755189 0.02705,0.9311879 0.09009,0.623829 0.08512,0.90428 -0.02015,1.135297 -0.07689,0.168744 -0.176639,0.269902 -0.221677,0.224793 -0.04504,-0.04511 -0.08461,-0.969697 -0.08794,-2.0546388 -0.0065,-2.10739 -0.09022,-2.6193961 -0.623997,-3.8147903 -0.605089,-1.355106 -1.337415,-1.9145214 -2.804948,-2.1426738 -1.704073,-0.264927 -3.512276,0.2246002 -4.490752,1.2157626 -0.726642,0.7360617 -0.976908,1.4176852 -1.079126,2.9391139 -0.123096,1.8321949 0.01981,3.3605774 0.378934,4.0527784 0.324654,0.625755 0.331755,0.69807 0.05325,0.542208 z"
       class="st0" />
    <path
       id="path1490"
       d="m 10.459224,24.388392 c -0.03217,-0.05205 0.122295,-0.348923 0.343257,-0.659712 0.308768,-0.434288 0.393878,-0.658406 0.367734,-0.968346 -0.0443,-0.525138 -0.315604,-0.529975 -0.491099,-0.0088 -0.233362,0.69309 -0.7945384,0.788121 -0.9227395,0.156258 C 9.5822607,22.049688 9.5494984,22.010184 9.038718,22.042506 l -0.4772369,0.0302 0.1207776,-0.346462 c 0.2040935,-0.585463 0.7244498,-0.863114 1.6175943,-0.863114 1.017348,0 1.259623,0.216769 1.330019,1.189993 0.05516,0.7626 -0.09627,1.359276 -0.507319,1.998972 -0.262168,0.407999 -0.533881,0.545754 -0.663329,0.336299 z"
       class="st0" />
    <path
       id="path1492"
       d="m 14.045294,22.882097 c -0.155174,-0.12206 -0.4543,-0.595446 -0.664724,-1.051968 -0.365809,-0.793629 -0.373312,-0.836826 -0.171071,-0.984709 0.116336,-0.08507 0.462552,-0.154668 0.769369,-0.154668 0.445848,0 0.617136,0.05929 0.85315,0.295304 0.265153,0.265152 0.290302,0.364445 0.24632,0.972493 -0.03199,0.442285 -0.122487,0.758411 -0.260878,0.911331 -0.263774,0.291468 -0.414131,0.293847 -0.772166,0.01221 z"
       class="st0" />
    <path
       id="path1494"
       d="m 13.064119,24.368118 c -0.28605,-0.601711 -0.551012,-1.979674 -0.436586,-2.270518 0.197462,-0.501902 0.809023,1.458544 0.726211,2.327976 l -0.04378,0.45967 z"
       class="st0" />
    <path
       id="path1496"
       d="M 16.757786,26.277804 C 16.434539,25.963869 16.23303,25.862047 15.935008,25.862047 h -0.394683 l 0.08156,-0.482717 c 0.04485,-0.265495 0.143851,-0.662658 0.219991,-0.882584 l 0.138436,-0.399866 0.221051,0.537402 c 0.238204,0.579099 0.469619,0.694515 0.560804,0.279692 0.03126,-0.14221 0.101444,-1.121056 0.155965,-2.175216 0.107228,-2.0733 0.215847,-2.436728 0.76983,-2.575769 0.70304,-0.176452 1.364579,0.308976 1.848108,1.356113 0.307282,0.665453 0.333872,0.828293 0.333872,2.044592 0,1.158289 -0.03366,1.389923 -0.272485,1.874993 -0.355587,0.722223 -0.971721,1.13547 -1.794696,1.203717 -0.583196,0.04837 -0.640252,0.02846 -1.04497,-0.3646 z"
       class="st0" />
    <path
       id="path1498"
       d="m 23.801263,26.206657 c -0.03308,-0.126486 0.01443,-0.834835 0.105564,-1.574112 0.09114,-0.739277 0.148474,-1.424409 0.127417,-1.522518 -0.02106,-0.09811 -0.185224,0.26118 -0.364813,0.798419 -0.615889,1.842434 -1.212963,2.758305 -1.041423,1.597472 0.168895,-1.142937 0.158811,-1.191023 -0.258242,-1.231242 -0.284573,-0.02744 -0.389792,-0.102438 -0.443399,-0.316025 -0.138352,-0.551237 -0.306015,-0.368509 -0.68203,0.743317 L 20.98803,25.459835 20.9143,24.655411 c -0.04055,-0.442433 -0.180985,-1.412872 -0.312076,-2.156531 -0.131089,-0.743657 -0.206539,-1.43499 -0.167664,-1.536294 0.05966,-0.155463 0.236204,-0.176912 1.132042,-0.137537 1.85651,0.0816 2.651211,0.71315 2.960587,2.352776 0.248631,1.317688 -0.04976,3.258811 -0.500946,3.258811 -0.09066,0 -0.191902,-0.10349 -0.224978,-0.229979 z"
       class="st0" />
    <path
       id="path1500"
       d="m 25.39432,27.020433 c -0.272037,-0.300596 -0.445052,-2.294934 -0.354719,-4.088787 0.08334,-1.655076 0.229655,-2.381469 0.535413,-2.658174 0.220201,-0.199282 0.245758,-0.19709 0.736215,0.0631 0.672152,0.356575 1.495608,1.251725 1.836557,1.996452 0.819738,1.790546 0.179919,4.246824 -1.246624,4.785808 -0.532514,0.201198 -1.279878,0.152395 -1.506842,-0.0984 z"
       class="st0" />
    <path
       id="path1502"
       d="m 29.925231,26.598021 c 0,-0.03765 0.110311,-0.223365 0.245138,-0.412708 0.381961,-0.536417 0.394454,-1.164844 0.04412,-2.219407 -0.748657,-2.253555 -0.370926,-3.153744 0.931021,-2.218759 0.365791,0.262694 0.615897,0.580182 0.880664,1.117949 0.339376,0.689293 0.36979,0.842703 0.36979,1.865357 0,0.942094 -0.03621,1.162832 -0.234313,1.42835 -0.500294,0.670564 -0.628295,0.151814 -0.335055,-1.357897 0.108495,-0.558569 0.173325,-1.03951 0.144074,-1.068763 -0.02923,-0.02925 -0.242982,0.426358 -0.474957,1.012464 -0.456032,1.152198 -0.996281,1.921864 -1.34901,1.921864 -0.121809,0 -0.221471,-0.03081 -0.221471,-0.06845 z"
       class="st0" />
    <path
       id="path1504"
       d="m 34.682785,27.159816 c -0.330371,-0.238118 -0.41727,-0.728334 -0.509541,-2.874509 -0.05295,-1.23153 -0.118472,-2.261347 -0.145604,-2.288478 -0.02713,-0.02713 -0.141086,0.559949 -0.253234,1.304624 -0.112143,0.744678 -0.271765,1.741804 -0.354718,2.21584 -0.150123,0.857869 -0.150697,0.853053 -0.123493,-1.034259 0.02422,-1.682022 0.05502,-1.948735 0.272566,-2.361895 0.390571,-0.741776 0.975346,-0.908416 1.828401,-0.521029 0.982383,0.446117 1.453148,1.462171 1.468852,3.17022 0.0115,1.252129 -0.143825,1.704679 -0.73523,2.142031 -0.314985,0.232934 -1.247123,0.392233 -1.447999,0.247455 z"
       class="st0" />
    <path
       id="path1506"
       d="m 37.707208,24.757055 c -0.12177,-0.121765 -0.100231,-1.36158 0.02955,-1.703009 0.09698,-0.255049 0.180524,-0.294775 0.619948,-0.294775 0.611917,0 1.942527,0.392994 2.141226,0.63241 0.113746,0.137054 0.113683,0.207044 -2.32e-4,0.344388 -0.104776,0.126245 -0.382782,0.172377 -1.038804,0.172377 h -0.895738 l -0.386709,0.465549 c -0.212694,0.256054 -0.423832,0.428428 -0.469198,0.38306 z"
       class="st0" />
    <path
       id="path1508"
       d="m 24.536314,63.556256 c -0.743736,-0.115663 -0.816634,-0.281869 -0.816634,-1.861873 0,-0.746374 0.04341,-1.357046 0.09647,-1.357046 0.208936,0 0.396716,0.675741 0.427691,1.539082 0.03716,1.035684 0.118742,1.142847 0.79739,1.047381 0.529623,-0.07451 0.961396,-0.354436 1.202824,-0.77982 0.152547,-0.268782 0.148124,-0.319593 -0.04654,-0.534696 -0.122963,-0.135868 -0.357392,-0.237685 -0.547269,-0.237685 -0.402908,0 -0.896132,-0.455378 -0.896738,-0.827932 -6.93e-4,-0.366977 -0.403285,-0.990184 -0.738503,-1.142921 -0.671765,-0.306075 -0.736083,-0.964497 -0.879539,-9.003781 -0.148201,-8.305191 -5.6e-5,-19.368113 0.276133,-20.620681 0.375238,-1.701756 1.719876,-1.879832 2.768517,-0.366642 l 0.326113,0.470578 -0.365864,0.341772 c -0.318272,0.297307 -0.361239,0.405952 -0.330288,0.835125 0.02697,0.373972 0.09516,0.519513 0.281781,0.601466 0.194327,0.08534 0.26095,0.242721 0.316204,0.746966 0.17945,1.637703 0.308004,5.528802 0.410742,12.432428 0.175798,11.81268 0.309057,13.597254 1.138064,15.2408 0.50782,1.006775 0.59622,1.426869 0.389897,1.852882 -0.531793,1.098034 -2.313038,1.857467 -3.810451,1.624597 z"
       class="st0" />
    <path
       id="path1510"
       d="M 20.387068,61.715672 C 17.269462,60.942065 12.394068,58.127053 10.208924,55.838903 8.5387465,54.089992 6.3380735,50.128951 4.8031227,46.108881 4.4335399,45.140937 4.1114442,44.408118 4.0873516,44.480393 c -0.024094,0.07228 0.046787,0.826981 0.1575091,1.67711 0.240782,1.848738 0.1843083,3.03529 -0.1803131,3.788491 C 3.9263558,50.231467 3.7544168,50.446681 3.682461,50.424256 3.4957303,50.366063 2.9595885,48.712925 2.7377848,47.51144 2.623832,46.894178 2.5258722,45.57298 2.4903055,44.173687 2.3951519,40.43006 2.7362888,38.161075 3.7269153,35.948701 c 0.2624317,-0.58609 0.5125352,-1.103007 0.5557858,-1.148706 0.043251,-0.04569 0.2754005,0.781714 0.5158881,1.838685 0.240487,1.056971 0.5662868,2.309613 0.7239985,2.783644 0.7342283,2.206882 1.9702891,4.256241 3.4738258,5.759528 1.0747145,1.074531 2.0705245,1.77365 3.8781275,2.722675 0.639383,0.335687 1.311373,0.766162 1.493309,0.956606 0.31638,0.331176 0.321472,0.353118 0.116837,0.503447 -0.287581,0.211256 -1.329367,0.331014 -2.141335,0.246148 C 10.261788,49.393159 7.5751823,47.61453 6.4701489,45.722449 5.5708278,44.182601 5.3777802,45.100396 6.2377123,46.827512 c 0.9073832,1.822417 3.1675913,5.035211 4.6043757,6.544929 2.291199,2.407508 5.649279,4.594171 8.970392,5.841197 2.424551,0.910379 3.442613,1.701191 3.014829,2.341863 -0.290984,0.435788 -1.112285,0.489694 -2.440241,0.160171 z M 3.8840915,43.722337 c 0.038365,-0.09998 0.068962,-0.526605 0.067995,-0.948071 -0.00169,-0.736589 -0.1307077,-1.18926 -0.2927636,-1.027204 -0.1308312,0.130832 -0.1975919,1.080469 -0.1147799,1.6327 0.080111,0.534219 0.2141247,0.66943 0.3395485,0.342575 z"
       class="st0" />
    <path
       id="path1512"
       d="m 29.616542,61.147479 c -0.417702,-0.254689 -0.610651,-0.557123 -0.610651,-0.957151 0,-0.396772 0.275068,-0.595719 1.379921,-0.998053 2.243671,-0.81703 5.261207,-2.515901 7.123983,-4.01079 1.176173,-0.943891 2.946202,-2.740245 3.751907,-3.807722 1.096369,-1.452574 2.709174,-4.839156 2.4351,-5.11323 -0.03532,-0.03532 -0.446391,0.314539 -0.913458,0.777493 -1.418055,1.40556 -3.023382,2.032441 -5.213038,2.035682 l -1.14612,0.0014 0.916285,-0.633275 c 1.569847,-1.084982 2.001155,-1.460548 2.902014,-2.52696 2.202769,-2.607592 3.905091,-5.85436 4.790099,-9.135953 0.230117,-0.853266 0.496406,-1.628957 0.591758,-1.723764 0.154255,-0.153378 0.223514,-0.115386 0.628414,0.344751 1.291015,1.467153 2.165908,4.662366 2.171973,7.932334 0.0054,2.885427 -0.927395,6.97109 -1.620619,7.098742 -0.205791,0.03791 -0.472598,-0.524606 -0.611387,-1.288957 -0.147243,-0.810921 -0.525663,-1.675782 -0.733136,-1.675562 -0.244021,1.62e-4 -0.64581,0.63665 -1.524276,2.414261 -1.326886,2.685021 -2.575876,4.440037 -4.580114,6.43575 -2.399905,2.389699 -4.832233,3.875708 -7.889453,4.819985 -0.948368,0.292921 -1.382253,0.295435 -1.849202,0.01069 z m 16.28224,-14.909174 c 0,-0.41844 -0.170027,-0.840262 -0.338696,-0.840262 -0.167598,0 -0.256597,0.849926 -0.125188,1.195556 0.10219,0.268775 0.151716,0.299476 0.293415,0.181879 0.09376,-0.07782 0.170469,-0.319544 0.170469,-0.537173 z m 0.512273,-2.307675 c -0.0044,-0.546349 -0.18334,-0.968339 -0.342894,-0.808784 -0.119519,0.11952 -0.197929,0.882711 -0.121837,1.185881 0.05114,0.203721 0.139331,0.288395 0.272592,0.2617 0.156618,-0.03141 0.195997,-0.162315 0.192139,-0.638797 z m 0.06075,-3.065069 c -0.0025,-0.633773 -0.10851,-0.983562 -0.299127,-0.983562 -0.120903,0 -0.158975,0.201827 -0.158975,0.84273 0,0.463498 0.03738,0.880095 0.08303,0.925764 0.153318,0.153317 0.376655,-0.314065 0.375069,-0.784932 z"
       class="st0" />
    <path
       class="st0"
       d="m 15.913146,22.084462 c -0.06862,-0.128221 -0.08841,-0.870754 -0.02911,-1.092051 0.05045,-0.188247 0.111607,-0.159461 0.21611,0.101716 0.128847,0.322022 0.121535,0.81204 -0.01463,0.980191 l -0.107052,0.132204 z"
       id="path2096" />
    <path
       class="st0"
       d="m 33.242505,26.547992 -0.0061,-0.317945 0.06828,2.8e-5 c 0.06585,2.7e-5 0.06788,0.0024 0.05679,0.06605 -0.0063,0.03631 -0.02685,0.171151 -0.04562,0.29964 -0.01876,0.128492 -0.04157,0.241847 -0.05068,0.251897 -0.0091,0.01006 -0.01931,-0.1248 -0.02269,-0.299673 z"
       id="path2098" />
  </g>
</svg>
