<?xml version="1.0" encoding="UTF-8" standalone="no"?>
<svg
   xmlns:dc="http://purl.org/dc/elements/1.1/"
   xmlns:cc="http://creativecommons.org/ns#"
   xmlns:rdf="http://www.w3.org/1999/02/22-rdf-syntax-ns#"
   xmlns:svg="http://www.w3.org/2000/svg"
   xmlns="http://www.w3.org/2000/svg"
   xmlns:sodipodi="http://sodipodi.sourceforge.net/DTD/sodipodi-0.dtd"
   xmlns:inkscape="http://www.inkscape.org/namespaces/inkscape"
   inkscape:version="1.0 (4035a4f, 2020-05-01)"
   height="146.41098"
   width="259.4953"
   sodipodi:docname="bat-volant.svg"
   xml:space="preserve"
   viewBox="0 0 259.4953 146.41098"
   y="0px"
   x="0px"
   id="Layer_1"
   version="1.1"><metadata
   id="metadata1853"><rdf:RDF><cc:Work
       rdf:about=""><dc:format>image/svg+xml</dc:format><dc:type
         rdf:resource="http://purl.org/dc/dcmitype/StillImage" /><dc:title></dc:title></cc:Work></rdf:RDF></metadata><defs
   id="defs1851" /><sodipodi:namedview
   inkscape:current-layer="Layer_1"
   inkscape:window-maximized="0"
   inkscape:window-y="25"
   inkscape:window-x="0"
   inkscape:cy="104.5"
   inkscape:cx="128.2"
   inkscape:zoom="2.52"
   fit-margin-bottom="0"
   fit-margin-right="0"
   fit-margin-left="0"
   fit-margin-top="0"
   showgrid="false"
   id="namedview1849"
   inkscape:window-height="480"
   inkscape:window-width="820"
   inkscape:pageshadow="2"
   inkscape:pageopacity="0"
   guidetolerance="10"
   gridtolerance="10"
   objecttolerance="10"
   borderopacity="1"
   bordercolor="#666666"
   pagecolor="#ffffff" />
<style
   id="style1640"
   type="text/css">
	.st0{fill:#FFFFFF;}
  .st1{fill:#000000;}
</style>
<g
   transform="translate(-21.8,-95.5)"
   id="g1846">
	<g
   id="g1844">
		<path
   id="path1642"
   d="m 150.5,235.9 c -0.1,0.8 0,1.6 -0.2,2.4 -0.6,2.6 -1.6,3.9 -4.7,2.6 -4,-1.7 -7.1,-4.6 -10.2,-7.4 -7.2,-6.5 -14.1,-13.3 -21,-20.1 -1.5,-1.5 -2.2,-1.9 -4.1,-0.3 -2.7,2.3 -6,3.7 -8.7,6.1 -1.2,1.1 -2.7,1.4 -4.4,1.4 -1.6,0 -2.6,-0.7 -3.4,-1.8 -1.1,-1.6 0.7,-2 1.4,-2.8 2.3,-2.9 5.7,-4.2 8.7,-6 2.7,-1.6 3.5,-3.1 0.8,-5.5 -2.1,-1.8 -3.8,-3.8 -6.8,-4.5 -5.6,-1.4 -9.7,1.1 -10.1,7 -0.1,2.2 0,4.3 -0.1,6.5 0,0.8 0.6,2 -1,2.2 -1.4,0.2 -1.4,-1 -1.8,-1.7 -2,-3.5 -2,-7.9 -5.7,-10.6 -1.8,-1.3 -3.3,-2.4 -5.7,-2.4 -10.3,-0.1 -16.5,5.6 -17.8,17.1 -1.6,-0.3 -2.2,-1.4 -3,-2.7 -2.6,-4 -6.8,-5.2 -11.2,-3.4 -0.8,0.3 -1.7,0.7 -2.6,0.9 -7.4,1.4 -12,6 -14.6,12.9 -0.3,0.7 -0.7,1.4 -1.2,2.1 -0.1,0.2 -0.4,0.3 -1.3,1 0.4,-7.8 -0.5,-15 0.6,-22.3 1,-6.7 2.1,-13.3 2.7,-20 1.4,-14.3 3.3,-28.4 9,-41.7 0.7,-1.6 1.9,-2.8 3,-4.2 8.7,-10.3 19.4,-18.5 28.9,-27.9 1.8,-1.8 2.8,-3.3 1.4,-5.8 -2.3,-4.1 0.1,-6.8 3,-9.2 1.8,-1.5 3.9,-1.2 5.2,0.8 1.8,2.6 -0.9,2.1 -2.2,2.8 -1.4,0.7 -1.5,1.8 -0.7,3.3 2.1,4 4.7,7.6 8.6,10 10.8,6.7 21.8,12.9 33.1,18.5 7.3,3.6 15.2,4.9 23.2,6 -5.2,-2.7 -7.1,-7.1 -7,-12.7 0.1,-7.7 -0.6,-15.5 1.6,-23.1 0.1,-0.3 0,-0.6 0.1,-0.8 1.6,-3.2 3,-7 7.2,-7 4.2,0 5.9,3.6 7.2,7 2.2,5.5 3.4,11.3 3.4,17.3 0,0.9 -0.7,2.4 1.2,2.4 1.9,0 1.2,-1.5 1.2,-2.4 0.1,-6.7 1.4,-13 4.2,-19.1 1.3,-2.7 3.1,-5.3 6.4,-5.3 3.3,0 5,2.5 6.4,5.2 2,4 2.2,8.4 2.5,12.7 0.3,4.4 0,8.9 0.1,13.4 0,5.4 -1.9,9.7 -6.8,12.7 5,-1 10.2,-1.5 15,-3.2 15.6,-5.6 29.5,-14.5 43.4,-23.2 2.2,-1.4 3.7,-4.1 5.3,-6.4 1.6,-2.2 2.7,-4.5 -1.2,-5.7 -0.7,-0.2 -1.6,-1.1 -1.1,-1.9 0.6,-0.9 1.3,-1.9 2.8,-2.1 4.3,-0.6 8.5,4.3 6.5,8.5 -1.9,4.1 -0.3,6.2 2.4,8.7 5.2,5 11.1,9.4 16,14.6 6.2,6.6 14.1,12.1 16.7,21.4 2.9,10.2 5.4,20.5 6.1,31.3 0.6,8.8 2.9,17.4 3.8,26.2 0.6,6.8 0.1,13.7 0.1,21.2 -2.8,-2.5 -3.3,-5.8 -5.1,-8.3 -2.3,-3.3 -4.9,-5.7 -8.9,-6.6 -1.6,-0.4 -3.2,-1 -4.8,-1.6 -6.5,-2.3 -8.2,-1.8 -12.2,3.7 -0.6,0.8 -1.2,1.8 -2.8,2 -0.7,-1.6 -0.1,-3.3 -0.4,-4.9 -1.6,-7.4 -12.1,-14 -19.5,-12 -3.5,1 -5.9,3.8 -7.3,7.4 -0.7,1.8 -1.3,3.7 -2.1,5.5 -0.3,0.8 -0.4,1.9 -1.8,1.7 -1.6,-0.2 -0.9,-1.4 -1,-2.2 -0.1,-2.7 0.4,-5.6 -0.3,-8.1 -2,-7.2 -8.3,-7.5 -13.7,-3.6 -6.3,4.5 -6,5.2 0.3,9.5 2.3,1.6 5,2.5 6.6,5 0.5,0.7 1.9,1.3 1.3,2.3 -0.6,0.9 -1.3,2 -2.8,2.1 -1.8,0.1 -3.7,0.1 -4.9,-1.1 -3,-3 -7.1,-4.3 -10,-7.3 -1.2,-1.2 -1.6,-0.1 -2.2,0.5 -2.2,2.2 -4.4,4.5 -6.6,6.6 -6.9,6.4 -13.7,12.8 -20.7,19 -1.6,1.4 -3.7,2.5 -5.8,3.2 -2.1,0.8 -3.3,-0.8 -3.6,-2.7 -0.2,-1.8 -0.3,-3 -2.3,-3.1 z"
   class="st1" />
		<path
   id="path1644"
   d="m 193.2,136.6 c -6.5,2.8 -13.2,4.6 -20.1,6.2 -2.1,0.5 -2.5,-1.3 -4,-1.5 13.2,-2.5 24.9,-7.9 35.9,-15 5.9,-3.8 12.2,-7 18.1,-10.9 2.5,-1.7 8.2,-7.3 9,-10 0.3,-1.2 0.6,-2.6 -0.3,-3.9 -0.6,-0.9 -2.2,-1.3 -1.7,-2.8 4.6,1 5.9,4.3 3.6,7.6 -2.2,3.1 -1.2,5.1 1.3,7.5 6.2,5.9 12.5,11.8 19,17.3 9.4,8 15.3,18 17.6,30.5 1.7,9.6 3,19.3 4.1,29 1,9.2 3.4,18.2 3,28.2 -7.5,-7.4 -15.6,-12.2 -26.6,-9.3 0,-5.9 0,-11.9 0,-17.9 -3.3,6.8 -0.5,14.2 -2.7,21.3 -1.5,-6.2 -5.3,-10.3 -10.8,-12.5 -5.4,-2.2 -11.1,-3.8 -16.4,1.2 -0.9,-1.8 0.5,-2.9 1.1,-4.2 0.6,-1.4 1.1,-2.8 1.8,-4.9 -1.6,1.3 -2.8,1.5 -3.6,-1 -1.3,5.9 -1.5,11.2 -3.7,17.3 0.2,-3.3 -0.6,-5.3 -1.7,-7.2 -2.4,-4.2 -7.8,-5.8 -12,-3.6 -2,1 -3.9,2.2 -5.8,3.3 -1,0.6 -1.6,2.5 -2.8,1.9 -1,-0.6 -2,-2.4 -2,-3.6 0.1,-5.4 -2.4,-10.5 -1.7,-15.8 0.6,-5.2 1.9,-10.3 2.9,-15.4 0.1,-0.6 0.2,-1.2 0.4,-2.2 -2.9,3.1 -3.8,8.4 -4.2,26.2 -2.9,-3.5 -2.9,-3.5 -1.3,-20.4 0.2,-0.7 0,-1.5 0.2,-1.9 0.1,0.4 -0.2,1.2 -0.1,2 -2,1 -1.9,2.9 -1.9,4.7 -0.1,3.3 0,6.6 0,9.7 -6.3,-2.8 -1.1,-8.4 -3.2,-13.4 -1.1,3.4 -1.9,5.8 -2.1,8.4 -2,-2 -1.3,-4.5 -1.1,-6.6 0.2,-2 2,-3.9 1.2,-6.4 -3.6,2.7 -1,7.2 -3.4,10.2 -2.7,-2.5 -3.9,-5.1 -2,-8.7 2.7,-5.2 4,-11 7.5,-15.8 0.4,-0.6 0.8,-1.5 2,-1 -3.1,5.3 -5.7,10.7 -7.8,16.5 6.7,-4.5 5.8,-13.3 11.4,-19 -1,5.7 -6.1,9.9 -4.7,16.2 3.9,-7.1 5.5,-15 10.7,-21.1 -2.2,6.6 -6.8,12.4 -5.7,19.8 0.8,-3.2 2.1,-6.3 3.1,-9.5 1.5,-4.6 4.2,-8.9 6.5,-13.2 0.3,-0.5 1.8,-1.1 1.9,-1 0.7,0.8 0.3,1.6 -0.3,2.5 -3.1,4.2 -4.4,9.1 -5.3,14.2 3.7,-7.4 5.7,-15.8 12.5,-21.5 -1.8,4.1 -3.7,8.1 -5.5,12.2 3,-1.3 3.3,-4.4 4.5,-6.7 3.4,-6.4 6.6,-12.9 12.3,-17.6 0.7,-0.6 0.8,-1.3 2.1,-0.1 1.1,1 2.1,-1.5 3.3,-2.9 1.4,4.8 -1.8,9.3 0.2,13.6 0.1,-1.6 0.2,-3.3 0.3,-5.2 2.3,4.2 0.6,8.3 0.8,12.3 0.5,11 -2,21.7 -3.3,32.5 -0.4,3 -0.8,5.9 -1.6,8.9 -0.6,2.5 -0.4,5.2 1,7.3 1.5,-9.4 3.5,-19 4.4,-28.7 1.2,-11.9 2.5,-23.8 1.7,-35.7 -0.2,-3 -1.2,-5.9 -1.9,-9 -2.8,1 -5.1,2.7 -7.2,4.7 -7.3,7.3 -15.4,13.8 -23.7,20 -4.1,3.1 -8.1,6.3 -12.6,8.8 -1.6,0.9 -0.2,3.7 -3.1,3.5 -1.2,-0.1 -1,0.5 -1.4,-0.4 -1.7,-4.2 1.3,-5.4 4.5,-6.4 -1.9,-2 -3.2,1 -4.7,-0.3 2,-2 5.4,-2.1 7.7,-5.3 -5.4,0.7 -9,6.1 -14.2,3.6 5.5,-2 10.9,-4 16.4,-6 1.8,-0.7 3.9,-1.1 4.2,-3.5 0.2,0 0.3,0 0.5,0 -0.5,0.1 0,-0.3 -0.5,-0.1 z"
   class="st0" />
		<path
   id="path1646"
   d="m 113.5,171.9 c 0.6,4.5 1.2,9 1.1,13.5 -0.1,2.6 -0.5,4.9 -2.5,7.5 0.3,-9.4 -0.5,-18.2 -3.5,-26.6 0.6,4 0.6,8.1 1.7,12 1.5,5.2 1.2,10.2 -0.2,15.2 -0.7,2.8 0.5,5.9 -1.7,8.5 -0.9,1.1 -1.1,2 -2.5,0.6 -1.3,-1.3 -3,-2.2 -4.5,-3.2 -8.9,-6.3 -16.1,1.2 -16.5,9.2 -0.8,-3.1 -2,-5.7 -2,-8.2 0,-2.7 -1.4,-5.2 -1,-7.8 -1.4,-1.3 -1.7,4.6 -3.5,-0.8 -0.4,4.4 2.7,6.6 2.6,10.1 -5.2,-4.9 -10.8,-3.7 -16.2,-1.6 -5.6,2.2 -9.8,6.2 -11.2,12.6 -2.3,-6.9 0.6,-14.4 -2.6,-21.2 0,6.1 0,12.1 0,18.1 -10.9,-2.9 -19,1.6 -26.4,9 -1.2,-5.1 0,-10 0.7,-14.9 1.2,-7.8 2.3,-15.7 3,-23.6 0.6,-6.7 1.9,-13.3 3.6,-19.8 0.8,-3.3 1.5,-6.6 2.5,-9.9 2.8,-8.6 9.1,-14.5 15.6,-20.2 6.7,-6 13.4,-11.9 19.7,-18.3 2.1,-2.1 0.3,-3.9 -0.6,-5.7 -1.7,-3.5 0,-6.6 4.9,-7.8 -2,1.4 -3.6,2.3 -3.5,4.6 0.1,2 0.8,3.5 1.9,5 2,2.6 3.6,7.4 5.7,7.5 3.5,0.3 5.1,2.5 7.4,3.8 9.2,5.2 18.3,10.6 27.7,15.4 6.3,3.3 13.4,4.6 20.6,6.2 -1.5,1.4 -2.7,1.9 -4.9,1.4 -6.7,-1.3 -13.1,-3.4 -19.3,-6 -0.3,0 -0.4,-0.1 -0.5,-0.3 0,0.6 0.4,0 0.6,0.2 0.2,2.7 2.6,3 4.4,3.7 5.3,2.1 10.7,3.9 16,6.3 -5.1,1.9 -8.7,-2.8 -13.2,-4.2 0.9,2.2 0.9,2.2 6.8,5.3 -1.4,1.7 -2.7,-1.3 -4.2,0 0.1,0.8 0.6,1.2 1.4,1.3 4.4,0.5 2.6,3.8 2.8,6.2 0,0.2 -0.5,0.5 -0.8,0.8 -0.5,-1.2 -2.5,-1.4 -2.5,-1.6 0,-4.5 -4.4,-4.3 -6.7,-6.1 -6.9,-5.3 -13.7,-10.7 -20.6,-16 -5.9,-4.5 -10.1,-11.1 -17,-14.3 -3.8,11.9 -0.6,64.2 4.7,72.8 0,-2.9 0.2,-5.7 -0.4,-8.7 -1.3,-5.8 -1.1,-11.9 -2.7,-17.6 -2.5,-8.7 -0.3,-17.6 -2.2,-26.2 -0.6,-2.7 0.5,-5.2 1.4,-7.8 0.1,1.7 0.2,3.4 0.3,5 2.4,-4.4 -1.3,-8.8 0,-12.8 4.8,2.6 10,4.8 12.8,10.2 2.9,5.7 6.1,11.1 9,16.8 -0.7,-4.6 -3.2,-8.4 -4.6,-12.8 6.5,5.8 8.3,14.3 12.2,21.6 -0.8,-5.1 -2.2,-10 -5.2,-14.2 -0.6,-0.9 -1.2,-1.7 -0.4,-2.4 0.2,-0.2 1.6,0.3 2.2,1.5 3.8,7.1 7.1,14.3 9.3,22.1 1,-7.4 -3.3,-13.2 -5.7,-19.6 5.3,5.8 6.9,13.6 10.6,21.1 1.3,-6.6 -3.5,-10.8 -4.9,-16.7 5.7,6 4.9,14.9 11.7,19.4 -2,-5.8 -4.8,-11.2 -8.1,-17.1 2.6,1.3 4.1,3.3 4.7,5.1 1.6,5.1 4.4,9.7 6,14.8 1,3.2 -2.1,4 -2.6,6.4 -2.6,-3.2 -0.1,-7.7 -4,-10.8 0.2,4.7 3,8.8 0.8,14 -0.8,-3.2 -1.4,-5.7 -2,-8.2 -2.5,4 2.7,9.7 -3.5,12.3 -0.6,-4.4 0.7,-9.2 -1,-13.9 -0.2,-0.6 -0.5,-0.9 -1.1,-0.5 0.1,-0.7 -0.2,-1.5 0,-2.2 0,-0.5 -0.8,0.3 -0.3,0 0,0 0.2,0.1 0.2,0.3 0,1 0.1,1.6 0.2,2.2 z"
   class="st0" />
		<path
   id="path1648"
   d="m 153.1,189.1 c 2.5,1.1 0.8,3.3 1.4,4.9 -1.2,0.3 -1.5,-1.2 -2.1,-0.9 -0.7,0.4 0,1.6 -0.1,2 -1.5,3.4 -1,6.9 -1.1,10.4 0,2.2 0.4,4.1 3,5.5 -0.8,-3.5 -1.5,-6.6 -2.1,-9.8 -0.2,-0.9 -0.8,-2.3 0.7,-2.7 1.7,-0.4 1.4,0.9 1.6,2 1.8,7.8 1.7,15.7 2,23.6 -0.8,-4.1 -1.5,-8.2 -2.3,-12.3 -0.9,6 1.4,11.7 1.7,17.6 0.1,1.4 0.7,2.9 -0.4,4.2 -0.3,0.3 0.1,1.7 -1.1,0.9 -1.8,-1.2 -3.5,-1 -5.5,-0.2 -1.2,0.5 -1.9,-1.2 -1.7,-2.5 0.5,-4.5 0.7,-9 1.8,-13.3 0.6,-2.3 0.4,-4.5 0.3,-6.7 -1,3 -1,6.3 -2.7,9.6 -0.3,-12.1 3.9,-23.2 3,-34.7 -1.6,1.1 -1.8,3.2 -2,5.2 -0.1,0.6 0.7,1.3 -0.3,1.5 -1,0.2 -0.9,-0.7 -1,-1.3 0,-1.8 0,-3.7 0,-5.6 -0.5,0.2 -0.8,0.2 -0.9,0.3 -1.1,1.3 1.4,3.7 -0.4,4 -1.9,0.3 0.1,-2.4 -1.1,-3.4 -1.8,-1.7 -1.7,-4 -1.6,-7.4 -1.6,3.6 0.3,6.7 -2.1,9.3 -0.2,-5.6 -5.2,-10.1 -2.9,-16.2 -0.9,1.9 -1.9,3.7 -3.1,6.2 0.4,-3.5 0.7,-6.2 0.9,-9 0.1,-0.5 1.6,-0.2 0.7,-1.1 -0.3,-0.3 -1.3,-0.3 -1.7,0.5 -1.2,2.8 -2,5.7 -2,8.8 0.6,-3.5 -3.4,-6.3 -1,-10.9 0.4,1.7 0.6,2.6 0.8,3.5 0.1,-2.6 1.8,-4.6 3,-7 -2.5,0.1 -2.5,3.1 -5,2.9 1.4,-2.6 1.6,-5.5 4.3,-7.5 -3.4,0.2 -4.9,2.9 -5.1,8.2 -1.8,-2.6 -1.3,-4.1 3.4,-11.3 -1.5,-0.1 -1.8,1.3 -2.7,1.8 -0.9,0.6 -0.5,2.2 -1.9,2.3 -2.1,-3.2 2.4,-4.6 2.1,-7.7 -1,0.8 -1.1,2 -2.4,2.2 2.1,-8.1 9.2,-12 14.4,-17.5 1.8,3 4.4,5.5 7.8,7.1 1.2,-1.2 0.1,-1.9 -0.6,-2.3 -4.3,-2.3 -6.1,-6.4 -7.8,-10.5 -1.5,-3.6 0.4,-6 4.4,-6 1.3,0 1.9,-1.8 3.4,-0.7 -2.1,-2.3 -4.2,-2.8 -6.6,-0.8 -0.6,0.5 -0.9,1.9 -2.2,1.1 -1.1,-0.8 -0.9,-2.1 -0.7,-3 1,-3.1 2.3,-6.2 3.6,-9.5 1.3,2 -1.6,3.7 0.1,5.5 2.3,-5.2 1.8,-13.4 -2.8,-17.7 0,2.9 3.2,4.9 2.1,8.1 -0.9,-2.2 -1.2,-4.5 -3.7,-5.6 0,3.5 3.3,6.3 2.2,9.9 -1.1,-0.3 -0.5,-1.2 -0.6,-1.8 -0.2,-1 -0.8,-2 -1.8,-1.7 -1.1,0.4 -0.7,1.4 -0.2,2.3 0.8,1.4 0.9,3.8 0.3,4.2 -2.6,1.8 -1.8,4.6 -2.2,6.8 -0.6,3.1 1.5,6 2.2,9 0.3,1.2 0.4,2.6 -1,3.2 -1.6,0.7 -1.7,-0.9 -2.4,-1.8 -4.3,-6.3 -3.3,-13.2 -2.5,-20 0.3,-2.6 0.9,-5.2 1,-7.8 0.1,-2.6 1.3,-4.8 2.6,-6.8 1.4,-2.2 3.1,-2.3 5.2,-0.7 4.1,3.2 5.3,8.1 5.8,12.5 0.4,3.5 2.9,7.4 0.1,11.1 -0.8,1.1 0.6,0.7 0.9,1 1.5,1.2 3.4,0.6 5.1,0.5 0.8,-0.1 2.8,-0.1 1.2,-2.6 -1.7,-2.6 0.2,-6 0.6,-8.9 0.6,-4.8 1.7,-9.9 5.7,-13.4 2.2,-1.9 3.6,-1.7 5.6,0.8 2.4,3.1 2.2,6.7 3,10 1.3,5.5 1,11.2 0.9,16.8 -0.1,3.3 -2.5,5.7 -3.6,8.6 -0.2,0.6 -0.9,1.2 -1.6,0.9 -0.7,-0.3 -1.4,-0.9 -1.3,-1.9 0.2,-1.6 0.1,-3.4 0.9,-4.6 2.3,-3.8 2,-8.2 0.4,-11.4 -1.3,-2.6 -1.2,-4.4 -0.5,-6.7 0.1,-0.4 0.1,-1.2 -0.6,-1.2 -0.5,0 -1.1,0.3 -1.3,0.7 -0.4,0.9 -0.6,2 -0.9,3.2 -1.5,-4 2.1,-6.8 2,-10.4 -2.3,1.1 -2.8,3.2 -3.5,5.2 -1.3,-1.4 -0.1,-2.5 0.3,-3.7 0.4,-1.3 1.9,-2.2 1.4,-3.9 -4.5,4.3 -4.9,13.3 -2.6,17.6 1.5,-1.7 -0.8,-3.2 -0.2,-5.3 2.3,2.9 2,6.6 3.8,9.4 0.4,0.7 0.5,2.2 -0.7,2.9 -1.2,0.7 -1.6,-0.7 -2.2,-1.1 -2.4,-2 -4.4,-1.1 -6.5,0.4 2,1.6 5.1,0.1 7,2.4 1,1.3 2,2 1,4.1 -2.3,4.8 -3.9,10.1 -10,11.8 -0.7,0.2 -1,0.7 -0.7,1.1 0.3,0.7 1.2,0.7 1.8,0.4 3.5,-1.5 6.5,-3.6 7.9,-7.1 5.3,5.6 12.4,9.5 14.6,17.4 -1.5,0.1 -1.2,-1.5 -2.3,-1.9 -0.4,3.4 4.7,4.8 2.9,8.5 -2.3,-1.2 -2.6,-4.3 -5.5,-5.4 1.1,2.7 3.6,4.3 3.9,7.3 -2.4,-0.6 -1.9,-4.6 -5.5,-3.9 2.6,1.9 2.6,5 4.4,7 1.1,-0.4 0.2,-1.5 0.9,-2 1.2,0.9 1.5,2.7 0.4,3.1 -2.7,0.9 -3.8,-2 -6,-3.9 0.2,2.2 0.5,3.3 2.2,4 1.7,0.7 2.6,2.3 2.2,4.3 -0.5,2.3 -1.2,4.5 -1.9,7 -2.2,-3.3 0.8,-6.1 0.2,-9.2 -0.9,1.5 -1.6,1.6 -2.3,0.3 -0.4,-0.8 -1.1,-1 -1.5,-0.7 -1.5,1.1 0.7,0.6 0.7,1.3 0.1,2.6 -0.5,5.3 1.5,8.6 -2.5,-2 -2.8,-4.2 -4.1,-6 3.1,6.1 -3.4,10.3 -2.1,16.5 -2.9,-2.9 -1.1,-6.1 -2.4,-9.9 0.1,4.8 -1.6,8.2 -2,11.8 -3.7,-0.5 1.1,-4.2 -2,-5 -0.9,2.3 0.5,4.9 -1.4,7.8 -0.4,-2.5 0.2,-4.5 -1.1,-5.9 -0.6,-0.6 0.4,-2.4 -1.1,-2.1 -1.5,0.6 -0.8,2 -0.5,2.9 -0.5,-0.1 -0.9,0 -1.3,0.4 0.4,-0.2 0.7,-0.6 1.3,-0.4 z"
   class="st0" />
		<path
   id="path1650"
   d="m 132.1,188.4 c 1.2,1 1.3,-2.7 3.2,-0.6 1.5,1.6 0.1,2 -0.3,3 -0.6,1.9 -0.2,1.4 1.2,0.6 1.3,-0.8 1,1.3 1.6,2 -0.1,0.7 -0.3,1.4 -0.1,2 0.1,0.4 -0.2,0.3 -0.1,-0.1 0.2,-0.6 0.3,-1.3 0.1,-2 3.3,-0.9 3.2,2 3.1,3.5 -0.1,1.4 0.2,3.2 -1.7,4.7 3.5,-0.4 1.2,-3.6 3.3,-4.1 2.7,1.4 -0.2,3.8 1,6.1 1.1,-3.1 1.9,-6 4.9,-6.9 -3.4,9.1 -2.2,19 -4.2,28.3 -1.1,-2.7 -0.5,-6.2 -2.7,-9.3 -0.7,8.3 2.3,15.4 5.6,23.2 -4.1,-1.2 -6.1,-3.2 -8.1,-5 -7.3,-6.8 -14.4,-13.8 -21.6,-20.7 -3.1,-3 -4.7,-5.6 -1.6,-10 2.5,-3.5 4.5,-7.7 5.7,-12 0.9,-3.1 3.5,-4.4 6.1,-6.5 -0.6,2.2 -1.2,4.1 -1.8,6.2 1.8,-0.7 1.5,-2.3 2.8,-4.4 -0.7,5.6 -3.1,9.7 -3.3,14.3 1.5,-0.3 2,-1.7 2,-2.4 0.3,-4.5 3.1,-8.3 3.5,-12.7 0.2,-2 -0.4,-1.5 -1.2,-0.4 -0.6,-1 -0.6,-2 0,-3 0.7,-1 1.2,-0.5 1.8,0.1 1.8,2 1.7,4 0.8,6.1 0.3,5.3 -2.2,10.1 -2.8,15.2 0.6,-5.2 3.3,-9.9 2.8,-15.2 z"
   class="st0" />
		<path
   id="path1652"
   d="m 165.2,193.4 c 0.8,-1.4 0.8,-1.4 2.3,-1.2 0.6,0.1 1.1,-0.6 0.7,-1.3 -0.5,-1 -1.8,-1.4 -0.3,-3 1.9,-2.2 2,1.6 3.2,0.6 -0.4,5.2 2.1,9.9 2.5,12.5 -0.4,-2.5 -2.7,-7.2 -2.6,-12.4 -0.7,-2.1 -1,-4.2 0.8,-6 0.4,-0.4 0.6,-1.2 1.5,-0.5 0.8,0.6 0.7,1.4 0.7,2.2 -0.1,1.3 -0.1,1.2 -1,0.2 -0.7,-0.7 -0.6,1 -0.5,1.2 0.8,1.2 0.4,2.6 0.8,3.8 1.2,3.9 2.7,7.7 4.4,11.4 0.1,-4.6 -2.1,-8.7 -2.4,-13.3 0.5,1.1 1,2.3 1.7,3.8 0.7,-2.5 -1.1,-4.2 -1.2,-6.3 3.5,1.9 5.4,4.6 6.7,8.4 1.7,4.6 4.3,8.9 6.6,13.3 0.4,0.8 1.2,1 0.3,2.2 -8.9,10.6 -19.4,19.6 -29.8,28.6 -0.6,0.5 -1.4,0.6 -3.2,1.4 2.7,-8 6.3,-15 5.2,-23.2 -1.9,3 -1.8,6.4 -2.6,9.7 -1.8,-9.7 -0.9,-19.5 -4,-28.4 3.1,1.6 3.1,1.6 4,6.6 3,-1.7 -1.8,-5.1 2,-6.3 1.8,0.5 -0.3,3.7 2.2,4.4 0,-2.2 -1.3,-4.2 -0.8,-6.6 0.4,-2.3 1.5,-2 2.8,-1.8 0,0.6 0.1,1.3 0.2,1.9 0.1,0.4 -0.2,0.5 -0.1,0.1 0.2,-0.6 0,-1.4 -0.1,-2 z"
   class="st0" />
		<path
   id="path1654"
   d="m 174.3,176 c 2.6,3.1 4.7,5.5 7.5,7.4 4.7,3.2 5.8,8.9 8.2,13.6 1.4,2.8 2.8,5.8 3.6,9 1,4.1 5.2,5.3 8.5,7.2 1.9,1.2 5.4,3.3 4.5,4.4 -1.7,2.1 -3.4,-1.4 -5.3,-2.1 -4.2,-1.5 -7.3,-4.6 -9.2,-8.5 -2.5,-5.3 -6.1,-10 -7.9,-15.7 -0.8,-2.5 -2.5,-4.6 -5,-6.3 -2.8,-1.7 -6.1,-4 -4.9,-9 z"
   class="st0" />
		<path
   id="path1656"
   d="m 128.6,176.8 c 1.3,4.1 -1.9,6.5 -4.5,8.3 -2.8,1.9 -4.3,4.2 -5.4,7 -2.8,7.1 -6.5,13.8 -11,19.7 -2.3,3 -6.7,4.3 -10.1,6.5 -0.7,0.5 -0.9,0 -1.3,-0.3 -0.7,-0.6 0,-0.9 0.3,-1.2 2.1,-2.7 5.1,-4.2 8.1,-5.5 2.8,-1.3 4.1,-3.4 4.9,-5.9 2,-5.7 4.9,-10.9 7.2,-16.4 2.1,-5 7.2,-6.9 10.4,-10.7 0.5,-0.5 1,-0.9 1.4,-1.5 z"
   class="st0" />
		<path
   id="path1658"
   d="m 247.8,196.5 c 0.2,-6.6 -2,-12.2 -2,-17.8 0,-5.6 -2,-10.7 -1.9,-16.1 0.1,-7.2 -3,-13.1 -5.4,-19.5 -0.9,-2.5 -2.1,-5 -2.1,-7.9 0.1,-3.8 -2.3,-6.8 -4,-10.3 1.4,18.1 2,36 -2.8,53.7 -1,-7.7 2.8,-15 1.6,-22.7 -0.7,4.1 -0.8,8.4 -2.6,12.2 0.1,-5.2 0.8,-10.3 1.5,-15.3 1.4,-9.7 0.9,-19.2 -0.5,-28.8 -0.2,-1.5 -1.3,-3.5 0.3,-4.2 2.3,-1.1 3.9,1.1 4.7,2.8 3,6 5.7,12.3 7.5,18.8 3.4,12.3 5.3,24.7 5.9,37.5 0.3,5.2 -0.5,10.7 1.2,15.8 0.2,0.3 -0.5,0.8 -1.4,1.8 z"
   class="st1" />
		<path
   id="path1660"
   d="m 254.6,151.9 c -1.6,-2.5 -2.7,-5.3 -3.6,-8.2 -0.4,-1.4 -0.3,-3.5 -2.7,-3.5 0,-0.6 -0.1,-1.1 -0.3,-2 0.1,0.9 0.3,1.4 0.4,1.9 0.6,2.5 1.3,5 1.9,7.5 -4.7,-8.8 -6.8,-18.7 -12.7,-26.9 -0.2,0.7 -0.5,1.3 -1,2.8 0,-3.8 -2.9,-5.6 -3.6,-8.7 3.1,0.2 3.3,2.8 4.7,4.2 6.2,6.3 12,13.2 18.6,19.1 7.7,7 10.6,16.1 12.6,25.7 0.7,3.3 2.1,6.5 1.3,10.1 -1.9,-10.2 -5.1,-19.9 -10.5,-28.9 0.2,4.9 2.9,9 4.7,13.3 2,4.7 2.7,9.5 3.7,14.4 1,4.9 1.6,9.8 2.5,14.8 -1.5,0.1 -2.4,-1.1 -2.3,-2 0.3,-5.5 -2.8,-10.5 -2.6,-16 0.1,-2.7 -1.6,-4.9 -2.5,-7.4 -2.6,-6.8 -3.6,-14.2 -7.7,-20.4 -1.1,-1.6 -1.8,-4.3 -4.7,-4 0.1,0 -0.2,-0.3 0.1,-0.1 0.3,5 4.1,9.1 3.5,14.3 z"
   class="st1" />
		<path
   id="path1662"
   d="m 214.3,164.3 c 2.6,-12.8 6.6,-25.2 9.4,-38 -2.2,12.9 -4,25.9 -9.4,38 z"
   class="st1" />
		<path
   id="path1664"
   d="m 247.9,155.8 c 0.8,0.7 1.6,1.5 1.5,2.7 -1,11.3 3.6,22.5 0.6,33.8 -1.3,-12 -0.9,-24.2 -2.1,-36.5 z"
   class="st1" />
		<path
   id="path1666"
   d="m 220.6,119.9 c -8,4.5 -13.3,11.8 -19.8,17.9 -0.2,-0.2 -0.5,-0.5 -0.7,-0.7 2.1,-2.2 4.2,-4.4 6.2,-6.6 -2.6,0.6 -4.3,2.9 -6.7,3.4 0.5,-2.5 0.9,-2.9 6,-5.3 2.6,-1.3 5.1,-2.7 7.3,-4.5 2.3,-1.8 4.6,-3.5 7,-5.2 0.2,0.4 0.4,0.7 0.7,1 z"
   class="st1" />
		<path
   id="path1668"
   d="m 235.4,172.4 c 3.2,-12.4 -0.5,-24.5 -1.6,-37.6 3.9,9.8 4.7,30.6 1.6,37.6 z"
   class="st1" />
		<path
   id="path1670"
   d="m 261.2,164.4 c -2.3,-7.1 -4.7,-14.1 -7,-21.2 4,6.5 6.4,13.6 7,21.2 z"
   class="st1" />
		<path
   id="path1672"
   d="m 228,170.4 c -0.3,5.9 -0.6,11.8 -3.4,17.3 1.1,-5.8 2.4,-11.5 3.4,-17.3 z"
   class="st1" />
		<path
   id="path1674"
   d="m 266.3,189.4 c 0.3,4.4 0.6,8.7 0.8,13.1 -0.3,0 -0.7,0 -1,0.1 0,-4.5 0,-9 0,-13.4 0.1,0 0.2,0.1 0.2,0.2 z"
   class="st1" />
		<path
   id="path1676"
   d="m 215.3,133 c -2,2.9 -1.8,6.7 -4.7,9.2 1.9,-2.9 1.1,-7.1 4.7,-9.2 z"
   class="st1" />
		<path
   id="path1678"
   d="m 253,159.4 c -2.9,-2.2 -0.7,-6.2 -3.4,-8.4 -0.4,-0.3 -0.1,-1.1 0.6,-1.1 1.1,0 1.7,0.8 1.7,1.8 -0.2,2.6 0.3,5.1 1.1,7.7 z"
   class="st1" />
		<path
   id="path1680"
   d="m 254.4,152 c 2,2.6 2.3,3.7 2,7.7 -0.6,-3 -2.9,-4.9 -1.9,-7.8 0.1,0 -0.1,0.1 -0.1,0.1 z"
   class="st1" />
		<path
   id="path1682"
   d="m 242.9,135.2 c 2.2,2.1 2.1,4.9 2.3,7.6 -0.9,-2.5 -2.2,-4.9 -2.1,-7.7 z"
   class="st1" />
		<path
   id="path1684"
   d="m 219.4,132.1 c -0.4,2.1 -2.1,3.7 -2,5.8 -0.6,-2.3 -1.2,-4.5 2,-5.8 z"
   class="st1" />
		<path
   id="path1686"
   d="m 210.3,170.4 c 0,0.3 0.1,0.5 0.1,0.8 -0.3,1.7 0.8,3.7 -0.7,5.2 -0.1,0.1 -0.7,-0.1 -0.7,-0.2 0.2,-2 0.4,-3.9 0.6,-5.9 0.3,0.1 0.5,0.1 0.7,0.1 z"
   class="st1" />
		<path
   id="path1688"
   d="m 195.5,193.2 c 0.9,2.1 2.7,3.2 0.8,5.5 -0.4,-2 -1.8,-3.1 -0.8,-5.5 z"
   class="st1" />
		<path
   id="path1690"
   d="m 239.1,159.1 c 0,-2.1 0,-4.2 0,-6.3 0.1,0 0.2,0 0.3,0 0,2 0,4.1 0,6.1 -0.1,0.1 -0.2,0.1 -0.3,0.2 z"
   class="st1" />
		<path
   id="path1692"
   d="m 243,135.1 c -3.7,-0.3 -0.3,-3.5 -2,-4.7 1.4,1.3 1.5,3.1 1.9,4.8 0,0 0.1,-0.1 0.1,-0.1 z"
   class="st1" />
		<path
   id="path1694"
   d="m 189.6,172 c -0.4,-1.8 -1,-3.6 1,-5.2 0.7,2 -0.5,3.5 -1.1,5.1 0.1,0 0.1,0.1 0.1,0.1 z"
   class="st1" />
		<path
   id="path1696"
   d="m 196.3,140.1 c -0.7,1.5 -1.5,2.7 -3.6,2.2 0.7,-1.8 2.3,-1.6 3.6,-2.2 z"
   class="st1" />
		<path
   id="path1698"
   d="m 201,184 c 0,-1.4 -0.8,-3.3 1.4,-4.1 -0.5,1.5 -1,2.8 -1.4,4.1 z"
   class="st1" />
		<path
   id="path1700"
   d="m 239.3,162.4 c 0.4,1.7 0.7,3.3 -0.1,5.1 -0.5,-1.9 -0.4,-3.5 0.1,-5.1 z"
   class="st1" />
		<path
   id="path1702"
   d="m 197.7,187 c -0.2,-1.1 -0.6,-2.1 0.3,-3 0.1,-0.1 0.9,0.1 1,0.3 0.3,1 0.1,2 -1.3,2.7 z"
   class="st1" />
		<path
   id="path1704"
   d="m 198.8,194 c 0.4,1.1 0.7,2.2 1.2,3.6 -2.3,-0.8 -1.6,-2.3 -1.2,-3.6 z"
   class="st1" />
		<path
   id="path1706"
   d="m 246.3,150 c 0,-1.3 0,-2.5 0,-3.8 0.1,0 0.3,0 0.4,0 0,1.3 0,2.6 0,4 -0.1,-0.1 -0.3,-0.1 -0.4,-0.2 z"
   class="st1" />
		<path
   id="path1708"
   d="m 249.2,204.5 c -0.7,-1.1 -0.7,-2.2 -0.2,-3.4 0.8,1.2 0.2,2.3 0.2,3.4 z"
   class="st1" />
		<path
   id="path1710"
   d="m 238.8,148.7 c -0.8,-1.6 -1.2,-2.4 -1.7,-3.5 1.9,0.2 1.8,1.3 1.7,3.5 z"
   class="st1" />
		<path
   id="path1712"
   d="m 195.2,177.3 c -0.3,-1.5 0.8,-2.1 1,-3.1 0.9,1.4 0.4,2.3 -1,3.1 z"
   class="st1" />
		<path
   id="path1714"
   d="m 267.3,203.9 c 0,0.9 -0.5,1.3 -1.1,1.6 0,0 -0.4,-0.5 -0.4,-0.7 0,-0.6 -0.2,-1.4 0.8,-1.3 0.2,-0.1 0.5,0.3 0.7,0.4 z"
   class="st1" />
		<path
   id="path1716"
   d="m 193.2,136.6 c 0.7,-1 1.5,-1.8 3.2,-1.3 -1.1,0.8 -1.9,1.8 -3.3,1.2 0,0 0.1,0.1 0.1,0.1 z"
   class="st1" />
		<path
   id="path1718"
   d="m 74.7,167.8 c -2.1,-3.6 -2.4,-7.8 -2.8,-11.9 -1.4,7.8 2.5,15.1 1.6,22.9 -4.9,-17.7 -4.2,-35.8 -2.8,-53.9 -2,3.9 -3.7,7.6 -4.3,12 -0.6,4.5 -2.8,8.8 -4.7,13.1 -3.5,8 -3.5,16.8 -4.3,25.1 -0.7,7.1 -3.4,14.1 -1.9,21.6 -1.3,-0.4 -1.8,-1.4 -1.7,-2 1.8,-20.3 1.9,-40.9 9.6,-60.3 1.5,-3.7 3,-7.5 4.8,-11.1 0.7,-1.4 1.7,-2.6 2.9,-3.2 1.5,-0.8 3.7,-0.6 2.8,1.9 -2.3,6.7 -1,13.7 -2.1,20.5 -0.5,2.9 0.4,6.3 0.8,9.4 0.6,5.3 1.4,10.6 2.1,15.9 z"
   class="st1" />
		<path
   id="path1720"
   d="m 48.6,152 c -0.4,-5.2 3.1,-9.3 3.6,-14.3 0.1,-0.1 0.2,-0.3 0.2,-0.3 -0.2,-0.3 -0.2,-0.3 0,0.1 0.2,0.5 -0.1,-0.2 -0.1,0.3 -3,-0.4 -3.6,2.3 -4.7,3.9 -4.1,6 -5,13.3 -7.7,19.9 -3,7.3 -3.8,15.2 -4.9,22.9 -0.2,1.6 -1,2.4 -2.3,3.2 1.3,-14.9 4.3,-29.2 11.1,-42.7 -5.9,8.8 -9,18.6 -11,28.8 0,-6 1.9,-11.6 3.1,-17.3 1.5,-7.2 5.3,-13 10.6,-18.1 7.3,-7.1 14.2,-14.6 20.8,-22.3 0.5,-0.6 1.1,-1.6 2.5,-1.1 -0.3,3 -3.5,4.7 -3.3,8.7 -0.6,-1.7 -0.8,-2.4 -1,-3 -5.9,8.2 -8,18.1 -12.3,28 -0.4,-3.6 1.2,-6 1.5,-8.5 0.1,-0.5 0.2,-1.1 0.4,-2 -0.2,0.9 -0.4,1.5 -0.3,2.1 -2.5,-0.1 -2.2,2.1 -2.7,3.5 -0.9,2.8 -1.9,5.7 -3.6,8.1 z"
   class="st1" />
		<path
   id="path1722"
   d="m 88.8,164.3 c -5.4,-12.1 -7.2,-25 -9.5,-37.8 3.1,12.6 6.8,25.1 9.5,37.8 z"
   class="st1" />
		<path
   id="path1724"
   d="m 53.5,192.4 c -2.9,-4.7 -1.3,-9.3 -0.9,-14 0.4,-4.4 0.7,-8.8 1,-13.2 0.1,-2.2 0,-4.3 0,-6.5 0,-1.2 0.7,-2.9 1.3,-2.8 2,0.5 0.3,2 0.2,2.8 -0.5,2.8 -0.9,5.6 -0.7,8.4 0.6,8.5 -1.5,16.9 -0.9,25.3 z"
   class="st1" />
		<path
   id="path1726"
   d="m 104.1,133.5 c -2.8,-0.1 -4.7,-1.9 -6.9,-3.2 2.3,2 4.5,4 6.8,6 -0.5,0.5 -1,1 -1.5,1.5 -6.6,-6 -11.9,-13.6 -19.5,-18.5 6.8,5.2 14.4,9 21.1,14.2 z"
   class="st1" />
		<path
   id="path1728"
   d="m 67.4,172.4 c -2.5,-12.4 -2,-24.7 1.5,-36.9 -0.6,12.3 -4.4,24.5 -1.5,36.9 z"
   class="st1" />
		<path
   id="path1730"
   d="m 41.8,164.4 c 0.6,-7.7 3.2,-14.8 7.1,-21.5 -2.4,7.2 -4.7,14.4 -7.1,21.5 z"
   class="st1" />
		<path
   id="path1732"
   d="m 75,170.6 c 1,5.8 2.5,11.4 3.4,17.1 -2.9,-5.4 -2.9,-11.4 -3.4,-17.1 z"
   class="st1" />
		<path
   id="path1734"
   d="m 37,189.3 c 0,4.4 0,8.8 0,13.2 -0.4,0 -0.7,0 -1.1,0 0.3,-4.4 0.6,-8.8 0.9,-13.2 0,0 0.1,0 0.2,0 z"
   class="st1" />
		<path
   id="path1736"
   d="m 87.8,133.1 c 3.5,2.1 2.6,6.1 4.5,8.8 -2.7,-2.3 -2.8,-6 -4.5,-8.8 z"
   class="st1" />
		<path
   id="path1738"
   d="m 49.6,160.1 c 1.1,-3.3 1.8,-6 1.6,-8.8 0,-0.5 0.7,-1.1 1.1,-1.5 0.2,-0.1 0.9,0.1 1,0.3 0.5,0.7 -0.2,1.2 -0.6,1.7 -1.6,2.3 0,5.6 -3.1,8.3 z"
   class="st1" />
		<path
   id="path1740"
   d="m 48.5,151.9 c 1.3,2.9 -1.5,4.8 -1.8,7.3 -0.7,-2.8 0,-5.2 1.9,-7.2 0,0 -0.1,-0.1 -0.1,-0.1 z"
   class="st1" />
		<path
   id="path1742"
   d="m 60.1,135.1 c 0.2,2.8 -1.4,5.1 -2.1,7.7 0,-2.7 0,-5.5 2.2,-7.6 z"
   class="st1" />
		<path
   id="path1744"
   d="m 92.6,169.9 c 2,2.1 -0.1,4.4 1.5,6 -0.3,0.2 -0.6,0.5 -0.9,0.5 -0.3,-0.1 -0.6,-0.5 -0.6,-0.8 0,-1.7 0,-3.4 0,-5.7 z"
   class="st1" />
		<path
   id="path1746"
   d="m 83.2,131.7 c 3.5,1.7 3.1,3.9 2.5,6.2 -0.1,-2 -1.2,-3.7 -2.5,-6.2 z"
   class="st1" />
		<path
   id="path1748"
   d="m 107.5,193 c 1,2.7 -0.7,3.8 -0.4,5.7 -2.7,-2.4 -0.1,-3.4 0.4,-5.7 z"
   class="st1" />
		<path
   id="path1750"
   d="m 63.6,159.1 c 0,-2.1 0,-4.2 0,-6.3 0.1,0 0.2,0 0.3,0 0,2 0,4.1 0,6.1 -0.1,0.1 -0.2,0.1 -0.3,0.2 z"
   class="st1" />
		<path
   id="path1752"
   d="m 60.2,135.2 c 0.4,-1.7 0.8,-3.3 1.1,-5 -1,1.4 2.4,4.4 -1.3,4.9 0.1,0 0.2,0.1 0.2,0.1 z"
   class="st1" />
		<path
   id="path1754"
   d="m 106.2,139.6 c 1.8,0.9 3.3,0.9 4.1,2.3 -2,0.2 -2,0.2 -4.1,-2.3 z"
   class="st1" />
		<path
   id="path1756"
   d="m 113.5,171.9 c -0.6,-1.5 -1.4,-2.9 -1.4,-5.2 2.4,1.7 1.6,3.6 1.4,5.2 -0.1,0.1 0,0 0,0 z"
   class="st1" />
		<path
   id="path1758"
   d="m 100.6,179.9 c 2.4,0.6 1.4,2.6 1.6,4 -0.5,-1.2 -1,-2.4 -1.6,-4 z"
   class="st1" />
		<path
   id="path1760"
   d="m 105.3,186.9 c -1.3,-0.5 -1.6,-1.5 -1.2,-2.6 0.1,-0.2 0.9,-0.4 1,-0.3 0.8,0.9 0.6,1.9 0.2,2.9 z"
   class="st1" />
		<path
   id="path1762"
   d="m 64,162.6 c 0,1.5 0,3 0,4.6 -0.8,-1.7 -0.8,-3.3 0,-4.6 z"
   class="st1" />
		<path
   id="path1764"
   d="m 56.2,150 c 0,-1.3 0,-2.5 0,-3.8 0.1,0 0.3,0 0.4,0 0,1.3 0,2.6 0,3.9 -0.2,0 -0.3,0 -0.4,-0.1 z"
   class="st1" />
		<path
   id="path1766"
   d="m 103.3,197.7 c 0,-1.7 1.3,-2.5 1,-3.8 0.7,1.4 0.9,2.8 -1,3.8 z"
   class="st1" />
		<path
   id="path1768"
   d="m 107.9,177.4 c -1.2,-0.8 -1.8,-1.6 -1.3,-3 0.7,0.8 1.5,1.4 1.3,3 z"
   class="st1" />
		<path
   id="path1770"
   d="m 37.4,204.9 c -0.1,0.1 -0.4,0.7 -0.4,0.7 -0.6,-0.3 -1.2,-0.6 -1.1,-1.4 0,-0.3 0.4,-0.7 0.6,-0.7 0.9,-0.2 0.9,0.6 0.9,1.4 z"
   class="st1" />
		<path
   id="path1772"
   d="m 65.6,144.9 c 0.3,1.5 -0.8,2.1 -1,3.1 -0.9,-1.4 -0.3,-2.3 1,-3.1 z"
   class="st1" />
		<path
   id="path1774"
   d="m 110,136.5 c -1.4,0.8 -2.2,-0.5 -3.4,-0.9 1.7,-1 2.5,0.1 3.3,1.1 0,-0.1 0.1,-0.2 0.1,-0.2 z"
   class="st1" />
		<path
   id="path1776"
   d="m 54.2,205.3 c -0.7,-1.8 -0.7,-2.9 -0.2,-4.1 0.8,1.1 0.4,2.2 0.2,4.1 z"
   class="st1" />
		<path
   id="path1778"
   d="m 147.9,131.2 c -0.2,1.1 0.4,2.7 -1.4,2.3 -2,-0.5 -3.4,-2.2 -4.2,-3.9 -0.4,-0.9 0.9,-1.7 2.1,-1.7 2.3,0 3.4,1.2 3.5,3.3 z"
   class="st1" />
		<path
   id="path1780"
   d="m 160.9,129.8 c -1.6,1.2 -2.4,3.7 -4.8,3.6 -1.7,0 -0.9,-1.7 -0.9,-2.5 0.1,-2 1.4,-3 3.4,-3.1 1.3,0 2,0.6 2.3,2 z"
   class="st1" />
		<path
   id="path1782"
   d="m 158.4,170 c 1.1,2.9 0.9,5.3 2.3,7.2 0.4,0.5 0.4,1.6 -0.8,1.8 -1,0.1 -1.5,-0.2 -1.5,-1.3 0.1,-2.2 0,-4.5 0,-7.7 z"
   class="st1" />
		<path
   id="path1784"
   d="m 144.6,170.9 c 0,2.3 0,4.5 0,6.8 0,1.1 -0.6,1.3 -1.5,1.2 -0.9,-0.1 -1.1,-0.9 -0.8,-1.4 1.1,-2 1.7,-4.3 2.3,-6.6 z"
   class="st1" />
		<path
   id="path1786"
   d="m 157.2,137.2 c -2.5,3.7 -9,3.6 -11,0.3 3.6,2.2 7,2.4 11,-0.3 z"
   class="st1" />
		<path
   id="path1788"
   d="m 141.6,169.5 c -1,1.4 0.8,2.4 0.6,3.7 -0.1,0.6 0.3,1.4 -0.7,1.6 -0.8,0.2 -1.6,-0.7 -1.5,-1 0.6,-1.4 -0.5,-3.5 1.6,-4.3 z"
   class="st1" />
		<path
   id="path1790"
   d="m 161.4,169.6 c 2.1,0.8 1.2,2.8 1.6,4.3 0.1,0.3 -0.7,1.2 -1.5,1 -0.9,-0.2 -0.5,-1 -0.6,-1.6 -0.2,-1.3 1.5,-2.3 0.6,-3.8 z"
   class="st1" />
		<path
   id="path1792"
   d="m 163.6,169.9 c 0.9,-0.8 -0.1,-2.3 1.1,-3 0.2,-0.1 0.9,0.3 0.9,0.5 0.3,1.3 -0.2,2.3 -2,2.5 z"
   class="st1" />
		<path
   id="path1794"
   d="m 139.4,169.8 c -1.7,0 -2.2,-0.9 -2,-2.3 0,-0.3 0.6,-0.7 0.8,-0.7 1.5,0.5 0.2,2.3 1.2,3 z"
   class="st1" />
		<path
   id="path1796"
   d="m 146.6,177.3 c 0.7,2 0.5,3.6 0.1,5.3 -0.5,-1.6 -0.6,-3.3 -0.1,-5.3 z"
   class="st1" />
		<path
   id="path1798"
   d="m 155.2,136.5 c 0,0.7 -0.3,1.3 -1.1,1 -0.4,-0.2 -0.8,-0.7 -1.1,-1 0.4,-0.4 0.8,-1.1 1.3,-1.2 0.8,-0.3 0.9,0.5 0.9,1.2 z"
   class="st1" />
		<path
   id="path1800"
   d="m 156.2,182.6 c 0,-1.6 0,-3.1 0,-4.7 0.1,0 0.2,0 0.4,0 0,1.5 0,3.1 0,4.6 -0.2,0 -0.3,0.1 -0.4,0.1 z"
   class="st1" />
		<path
   id="path1802"
   d="m 150.4,136.2 c -0.6,0.5 -1,1 -1.5,1.2 -0.6,0.3 -1,-0.1 -1,-0.7 0,-0.6 -0.3,-1.5 0.7,-1.5 0.5,0 1,0.6 1.8,1 z"
   class="st1" />
		<path
   id="path1804"
   d="m 150,206.2 c 0,1.5 0,2.9 0,4.4 -0.2,0 -0.5,0 -0.7,0 0.1,-1.4 0.2,-2.9 0.3,-4.3 0.1,0 0.3,0 0.4,-0.1 z"
   class="st1" />
		<path
   id="path1806"
   d="m 161.5,169.5 c -0.5,-1.3 -1,-2.5 -1.7,-4.3 2.6,1.2 1.8,2.9 1.7,4.3 -0.1,0.1 0,0 0,0 z"
   class="st1" />
		<path
   id="path1808"
   d="m 153.1,189.1 c -1.1,0.5 -1.3,1.5 -1.1,2.9 -1.5,-1.4 -0.4,-2.7 -1,-4.1 1,0.6 1.5,0.9 2.1,1.2 0,0 0,0 0,0 z"
   class="st1" />
		<path
   id="path1810"
   d="m 141.7,169.6 c -0.5,-1.6 -0.8,-3.1 1.1,-4.4 0.2,1.7 -0.7,2.9 -1.2,4.3 0,0 0.1,0.1 0.1,0.1 z"
   class="st1" />
		<path
   id="path1812"
   d="m 140.4,159.5 c 0.3,1.6 -0.8,2.2 -1,3.2 -0.9,-1.5 -0.3,-2.4 1,-3.2 z"
   class="st1" />
		<path
   id="path1814"
   d="m 162.6,159.4 c 1.2,0.8 1.8,1.6 1.3,3 -0.6,-0.8 -1.4,-1.4 -1.3,-3 z"
   class="st1" />
		<path
   id="path1816"
   d="m 132.1,188.4 c 0.8,3.2 0.7,6.4 -0.6,9.3 -1.5,3.4 -1.3,7 -2.4,10.5 -1.8,-7 2,-13.2 3,-19.8 0.1,0.1 0,0 0,0 z"
   class="st1" />
		<path
   id="path1818"
   d="m 134.2,201.4 c -0.4,5.4 -0.7,10.8 -1.2,17.2 -2.6,-6.5 -1,-11.8 1.2,-17.2 z"
   class="st1" />
		<path
   id="path1820"
   d="m 139.9,222 c -1.3,-6.2 -1.3,-12.3 -0.2,-18.5 -0.2,6.2 -0.3,12.3 0.2,18.5 z"
   class="st1" />
		<path
   id="path1822"
   d="m 137.2,203.8 c 0,2.1 0,4.2 0,6.3 -0.1,0 -0.3,0 -0.4,0 0,-2.1 0,-4.1 0,-6.2 0.1,0 0.2,0 0.4,-0.1 z"
   class="st1" />
		<path
   id="path1824"
   d="m 137.8,193.3 c 0.5,1.7 0.6,3.4 0,5.1 0,0.1 -0.7,0.1 -0.7,0 -0.3,-1.8 0.2,-3.4 0.7,-5.1 0.1,0.1 0,0 0,0 z"
   class="st1" />
		<path
   id="path1826"
   d="m 170.9,188.5 c 1.2,6.6 4.8,12.7 3.1,19.7 -0.2,-6.7 -4.7,-12.7 -3.1,-19.7 0.1,-0.1 0,0 0,0 z"
   class="st1" />
		<path
   id="path1828"
   d="m 168.8,200.6 c 2.9,4.5 3.5,13 1.2,17.4 -0.4,-5.9 -0.8,-11.3 -1.2,-17.4 z"
   class="st1" />
		<path
   id="path1830"
   d="m 163.7,222.6 c -2.4,-2.4 -0.2,-4 -0.4,-5.7 -0.5,-3.9 0.8,-8 -0.8,-11.9 -0.2,-0.5 -0.2,-1.4 0.7,-1.5 0.7,-0.1 0.8,0.5 0.8,1 0.3,5.8 0.7,11.7 -0.3,18.1 z"
   class="st1" />
		<path
   id="path1832"
   d="m 166.1,210.3 c -0.5,-2.2 -0.6,-4.4 0.1,-7.8 0.5,3.4 0.5,5.6 -0.1,7.8 z"
   class="st1" />
		<path
   id="path1834"
   d="m 165.2,193.4 c 0.2,0.3 0.6,0.8 0.5,1 -0.5,1.4 1.3,2.6 0.4,4 -0.1,0.1 -0.7,0.1 -0.7,0 -0.8,-1.4 -0.3,-2.9 -0.3,-4.3 -0.1,-0.3 0,-0.5 0.1,-0.7 0.1,-0.1 0,0 0,0 z"
   class="st1" />
		<path
   id="path1836"
   d="m 248.4,140.2 c -0.7,-1.2 -1.7,-2.3 -1.3,-4 1.3,1.2 2,2.5 1.3,4 -0.1,0.1 0,0 0,0 z"
   class="st0" />
		<path
   id="path1838"
   d="m 250.9,137.7 c -1.2,-0.8 -1.9,-1.7 -1.2,-3.3 1.6,0.8 1.5,2 1.1,3.4 0,0 0.1,-0.1 0.1,-0.1 z"
   class="st0" />
		<path
   id="path1840"
   d="m 54.8,140.3 c -0.8,-1.6 0,-2.8 1.1,-4.2 0.6,1.9 -0.6,2.9 -1.2,4.1 0,0 0.1,0.1 0.1,0.1 z"
   class="st0" />
		<path
   id="path1842"
   d="m 52.3,137.8 c -0.5,-1.3 -0.5,-2.6 1,-3.4 1,1.6 0,2.4 -1.1,3.3 0,0 0.1,0.1 0.1,0.1 z"
   class="st0" />
	</g>
</g>
</svg>
