<?xml version="1.0" encoding="UTF-8" standalone="no"?>
<svg
   xmlns:dc="http://purl.org/dc/elements/1.1/"
   xmlns:cc="http://creativecommons.org/ns#"
   xmlns:rdf="http://www.w3.org/1999/02/22-rdf-syntax-ns#"
   xmlns:svg="http://www.w3.org/2000/svg"
   xmlns="http://www.w3.org/2000/svg"
   xmlns:sodipodi="http://sodipodi.sourceforge.net/DTD/sodipodi-0.dtd"
   xmlns:inkscape="http://www.inkscape.org/namespaces/inkscape"
   inkscape:version="1.0 (4035a4f, 2020-05-01)"
   height="334.02213"
   width="199.30984"
   sodipodi:docname="battleaxe.svg"
   xml:space="preserve"
   viewBox="0 0 199.30984 334.02213"
   y="0px"
   x="0px"
   id="Layer_1"
   version="1.1"><metadata
   id="metadata2483"><rdf:RDF><cc:Work
       rdf:about=""><dc:format>image/svg+xml</dc:format><dc:type
         rdf:resource="http://purl.org/dc/dcmitype/StillImage" /><dc:title></dc:title></cc:Work></rdf:RDF></metadata><defs
   id="defs2481" /><sodipodi:namedview
   inkscape:current-layer="Layer_1"
   inkscape:window-maximized="0"
   inkscape:window-y="25"
   inkscape:window-x="0"
   inkscape:cy="176.4"
   inkscape:cx="91.304773"
   inkscape:zoom="2.52"
   fit-margin-bottom="0"
   fit-margin-right="0"
   fit-margin-left="0"
   fit-margin-top="0"
   showgrid="false"
   id="namedview2479"
   inkscape:window-height="480"
   inkscape:window-width="820"
   inkscape:pageshadow="2"
   inkscape:pageopacity="0"
   guidetolerance="10"
   gridtolerance="10"
   objecttolerance="10"
   borderopacity="1"
   bordercolor="#666666"
   pagecolor="#ffffff" />
<style
   id="style2416"
   type="text/css">
	.st0{fill:#FFFFFF;}
  .st1{fill:#000000;}
</style>
<g
   transform="translate(-58.695227,-23.6)"
   id="g2476">
	<g
   id="g2474">
		<path
   id="path2418"
   d="m 172.5,23.6 c 2.6,5.4 3.9,10.7 5.4,16 2.8,10.2 7.7,19.6 11.5,29.4 1.2,3 0.9,4.4 -1.2,6.5 -5.7,5.6 -8.4,12.7 -9.7,20.4 -0.5,3 -2.2,5.8 -1.7,9 0.2,1.1 -0.2,2 1.6,2.3 3.9,0.7 5.5,3.3 5.4,7.3 -0.2,5.6 0,5.6 5.6,5.6 12.1,0 23.2,-3 33.3,-9.8 0.9,-0.6 1.9,-2 3.3,-1.1 1.4,0.8 1.2,2.3 1,3.5 -0.6,4.1 -2.8,7.5 -6.3,10.8 6.8,0.3 13,-0.3 19.2,0.9 5.3,1 10.6,2.3 15.6,4.4 1.2,0.5 2.6,1.4 2.5,2.6 -0.1,1.2 -1.7,1.4 -2.9,1.8 -10.9,3.1 -22.1,4.7 -33.9,4.3 1.8,3.5 4.6,6.4 4.1,10.6 -0.1,1.2 0,2.4 -1.1,3 -1.4,0.8 -2.3,-0.3 -3.3,-1.1 -10.5,-7.8 -22.5,-10.3 -35.3,-9.9 -1.7,0 -1.6,0.9 -1.9,2.1 -4.8,21 -2.6,42.4 -2.3,63.6 0.3,19.4 1.4,38.9 2.7,58.2 0.8,12.6 3.6,25.2 7.5,37.3 2.4,7.3 2.8,13.9 -1.4,21.1 -6.3,10.7 -11.4,22 -17.1,33 -0.4,0.7 -0.3,2 -1.7,2.2 -1.5,0.2 -1.5,-1 -2,-1.8 -6.6,-12.4 -13.2,-24.8 -20,-37.2 -1.4,-2.5 -1.2,-4.5 -0.1,-7.1 3.1,-6.7 3.6,-14.2 5.6,-21.3 2.4,-8.5 1.9,-17.6 4.3,-26.1 0.3,-0.9 0.1,-2 0.1,-3 -0.6,-11.8 0.1,-23.6 1.1,-35.3 2,-23.7 1.1,-47.4 1.5,-71.1 0,-2.1 0.2,-4.1 -1.8,-5.9 -1.8,-1.6 -0.7,-4.1 -0.7,-6.2 0,-2 -0.4,-2.8 -2.6,-2.7 -13.9,0.2 -27.2,6 -31.6,21 -3.9,13 -1,25.3 8.1,35.8 0.7,0.8 1.6,1.3 2.1,2.2 0.9,1.8 1.4,3.3 -1.8,3.5 -10.9,0.8 -20.8,-2.5 -30.6,-6.5 C 88.4,190 77.8,179.3 69,166.8 64.3,160.1 61.4,152.3 60.5,143.9 60.1,140.1 58.6,136.6 58.7,132.7 59,116.1 64.5,101.5 74.5,88.4 83.9,76.4 96,68 110.7,63.7 c 7,-2 14.2,-3.6 21.6,-3.2 0.9,0 2.1,-0.6 2.6,0.7 0.5,1.3 -0.4,2 -1.4,2.8 -13.1,11.1 -17.8,24.4 -12.1,39.8 3.6,9.8 12.2,15.2 22.8,16.4 4.2,0.5 8.1,3 12.8,1.2 1.9,-0.8 2.3,-1.3 2.3,-3 -0.1,-4.7 -0.8,-9.5 5.5,-11.4 1.4,-0.4 1,-3.9 0.4,-5.6 -2.6,-7.6 -3.5,-16 -9.3,-22 -4.5,-4.7 -3.3,-7.8 -0.3,-12.9 6.6,-11.3 11.1,-23.6 14.1,-36.4 0.6,-2.2 1,-4.4 2.8,-6.5 z"
   class="st1" />
		<path
   id="path2420"
   d="m 127.5,64.1 c -5.3,6.1 -9.5,12.3 -10.7,20.3 -1.5,10.2 -1.2,19.5 6.3,28.1 6.8,7.7 15.2,10.2 24.7,11.3 3.3,0.4 6.6,1.6 10,0 1.3,-0.6 1.6,0.5 1.6,1.7 0,4 0,8 -0.4,12 -1.2,-1.8 -3.1,-3.1 -3,-5.4 0.1,-2.2 2,-4 1.4,-7.4 -2.4,4.6 -3.2,8.4 -0.7,13.3 -4.1,-3.4 -4.7,-6.7 -3.4,-10.7 -4.2,3.4 -2,6.8 -0.2,10.1 -4.5,0.2 -4.5,0.2 -5.2,-10.4 -0.6,2.1 -1.3,3.5 -1.3,5 -0.1,1.6 -0.6,3.4 0.6,5 0.5,0.7 0.1,1.3 -0.8,1.4 -0.7,0.1 -1.3,0 -1.6,-1 -0.6,-2.1 -1.1,-4.1 -0.8,-6.3 0.1,-1 -0.5,-1.9 -1.2,-2 -0.7,-0.1 -1.4,0.8 -1.3,1.8 0.1,1.6 -0.4,3.6 0.4,4.6 2.7,3.7 0.5,4.2 -2.4,5.6 -15.6,7.5 -21.2,22 -17.8,38.3 1.6,7.4 4.4,14.4 10,19.8 -26.3,1.6 -60.3,-20.9 -67.2,-53.5 -9.2,-41.7 21.8,-77.2 63,-81.6 z"
   class="st0" />
		<path
   id="path2422"
   d="m 174.9,233.2 c -0.6,0.8 -1.2,1.3 -2.2,1.4 -1.9,0.1 -1.3,1.2 -0.5,1.9 0.5,0.4 1.3,0.4 1.9,0.7 0.3,0.1 0.5,0.5 0.8,0.8 -4.7,1.7 1.2,5.5 -1.1,6.7 -2.3,1.2 -1.4,1.7 -0.3,2.5 1.9,1.3 2.8,2.3 -0.3,2.9 -0.9,0.2 -1.7,0 -1.7,1.3 0,1.7 1.2,1.3 2.1,1.3 1.2,0 2.1,0.6 2.1,1.7 0.1,1.3 -1.3,0.6 -1.9,1 -1.1,0.8 -2.8,1.5 0.1,2.6 2.3,0.9 1.3,3.4 -2.1,5.3 2.7,1.7 2.7,2 0.6,3.7 -1.1,0.9 -0.5,1.6 0.2,1.9 1,0.4 2.1,0.4 3.1,0.5 0.2,2.4 -2.5,2 -3.1,3.6 1,1.4 3.8,-0.9 3.9,1.6 0.1,2.6 -3.5,1 -4.3,3.3 1,1.4 2.5,0.5 3.8,0.7 0.8,0.1 1.4,0.1 1.4,1.1 0.1,1.1 -0.4,1.6 -1.5,1.5 -1.8,-0.2 -3.2,0.5 -4.9,1.7 1.5,1.5 3.1,0.7 4.5,0.9 0.8,0.1 1.8,-0.2 1.9,1.1 0.1,1.1 -0.4,1.4 -1.5,1.5 -1.3,0.2 -2.5,0.9 -4.3,1.5 2.7,1.8 5.3,0.4 7.5,1.3 -0.4,4.8 -7.2,-0.5 -7.3,4.9 2.2,0 4.5,0 6.7,0 1,0 1.6,0.3 1.5,1.5 -0.1,1 -0.6,1.2 -1.4,1.1 -2.3,-0.2 -4.3,0.5 -6.9,1.7 2.2,1.4 4.2,0.6 6,1 1.1,0.2 3,-0.9 3.1,1.1 0.1,1.9 -1.3,2.9 -3.3,3.3 -2,0.3 -4.4,-1.2 -6.1,1.5 2.9,0 5.7,0.5 8.2,-0.2 1.7,-0.5 2.5,-0.3 2.9,1.1 0.7,2 -1.3,1.6 -2.2,2.1 -2.8,1.6 -6.1,-0.3 -8.9,1.6 4.6,1.2 9.3,1.9 13.8,-0.2 1.8,-0.8 0.8,-2.3 0.3,-3.6 -4.2,-10.4 -4.9,-21.5 -6.3,-32.4 -1.8,-14 -2.1,-28.1 -2.8,-42.2 -1.4,-25.5 -0.2,-51 -0.7,-76.5 0,-0.7 -0.1,-1.4 1.7,-2.7 0,27.8 -0.2,54.9 1.6,81.9 1.8,26.6 2.8,53.4 12.2,79 -13.2,0 -25.9,0 -38.2,0 1.5,-7.5 2.5,-15.1 4.6,-22.5 2.4,-8.6 1.8,-17.6 4.1,-26.2 1.1,-4.1 0.5,-8.5 0.8,-12.8 0.4,-5.8 0.8,-11.7 1.2,-17.5 1.9,-26.8 1.7,-53.7 1.6,-80.6 0,-3.8 2.5,-2.2 4.1,-2.4 2,-0.2 3.4,0.2 1.2,2.3 3,1.4 -0.8,5 2.1,6.4 0.2,0.1 0.3,0.4 0.4,0.7 -3.3,2 1.1,4.9 -0.8,7.2 -0.8,0.9 -0.5,1.4 0.6,2 0.9,0.5 2.1,1.6 0,2.3 -0.7,0.2 -0.8,1.2 -0.6,1.4 2.7,1.8 -2.1,5.1 1.5,6.8 0.5,0.2 0.6,1.6 -0.5,2.1 -1.7,0.9 -1.6,1.6 0,2.7 1.1,0.7 1.2,1.7 -0.1,2.6 -1.3,0.8 -1.3,1.9 -0.1,2.5 1.7,0.8 0.7,1.4 0.1,2.2 -0.9,1.2 -3.9,2.7 0.4,3.3 0.6,0.1 0.7,1.6 0.2,1.9 -2.7,1.4 -1.5,2.8 -0.1,4.2 0.5,0.5 0.4,1.2 -0.3,1.4 -3.5,1.1 -2.1,2 0.2,2.7 0.8,0.2 1.2,0.5 1.2,1.3 0.1,1.3 -0.8,1.3 -1.7,1.3 -0.6,0 -1.6,-0.3 -1.7,0.7 -0.1,1 0.8,1.4 1.5,1.8 2.2,1.2 2.2,1.3 0.3,2.6 -1.5,1 -1.5,1.1 0.3,2.8 1.2,1.2 2.5,2.3 -0.6,2.4 -0.9,0 -1.7,0.1 -1.7,1.3 0,1.3 0.8,1.3 1.7,1.3 0.8,0 1.7,-0.1 1.8,1.2 0,1.2 -0.6,1.3 -1.6,1.4 -0.6,0.1 -1.7,0.8 -1.6,1.1 0.1,0.8 0.8,1.4 1.8,1.4 1.5,0 2,1.1 0.8,1.7 -3.9,2.5 -0.6,3.7 0.8,5 z"
   class="st0" />
		<path
   id="path2424"
   d="m 155.7,73.3 c 8.2,-13 13.1,-26.9 16.7,-42.5 1.6,5.6 2.9,10.2 4.3,14.9 2.5,8.3 5.9,16.1 9.5,24 0.4,0.9 1.6,1.9 0.1,3.3 -7.2,6.4 -9.1,15.4 -11.2,24.3 -0.9,3.9 -1.4,8 -2.3,13.1 -1.4,-22.1 0.9,-43.3 -0.7,-64.3 -1.4,21.1 -2.4,42.2 -2.5,63.4 -2,-13.3 -5.1,-26.1 -13.9,-36.2 z"
   class="st0" />
		<path
   id="path2426"
   d="m 250.1,130.9 c -12.6,3.8 -25.7,3.1 -38.9,3.8 3.9,2.4 8.3,4 10,8.7 0.4,1.2 0.5,2.2 0.4,3.5 -9,-6.9 -19.2,-9.4 -30.2,-9.4 -1.7,0 -3.5,0.1 -5.2,0 -0.9,-0.1 -2.5,0.8 -2.5,-1.3 0,-1.6 1.3,-1 2.1,-1.3 3.4,-1.5 7,-0.4 10.5,-1.8 -4.2,0 -8.4,0 -12.6,0 0,-0.6 0,-1.2 0,-1.8 9.4,0 18.8,0 28.2,0 0,-0.6 0,-1.1 -0.1,-1.7 -9.3,0 -18.7,0 -28.2,0 0.5,-2.5 2.4,-0.9 3.1,-2 -0.7,-0.9 -2.3,-0.4 -3,-1.7 -0.4,-0.8 -1.1,-1.3 -0.8,-2.3 0.3,-1.2 1.3,-0.8 2.1,-0.8 2.3,-0.1 4.6,-0.1 6.9,0 10.5,0.3 20.2,-2.1 28.9,-8.2 0.5,-0.3 1,-0.7 1.5,-0.3 0.6,0.5 0.5,1.3 0.2,2 -1.3,2.6 -3.2,4.5 -5.7,6 -1.9,1.1 -5.5,1.9 -5,3.8 0.6,2.2 3.9,0.9 6.1,0.9 8.4,0.2 16.9,-0.2 25.3,0.9 2.4,0.4 4.4,2.1 6.9,3 z"
   class="st0" />
		<path
   id="path2428"
   d="m 189.6,316 c -5.9,12.3 -11.9,24.3 -18.6,36.2 -6.5,-12 -12.9,-23.9 -19.5,-36.2 12.9,0 25.3,0 38.1,0 z"
   class="st0" />
		<path
   id="path2430"
   d="m 180.2,118.8 c 0,8.9 -0.1,17.5 0.1,26.2 0.1,2.9 -1.3,3.7 -3.7,3.8 -0.1,0 -0.3,0 -0.4,0 -15.7,0 -13.1,0.8 -13.2,-12.5 0,-5.8 0,-11.5 0,-17.5 5.6,2.1 11.2,2.1 17.2,0 z"
   class="st0" />
		<path
   id="path2432"
   d="m 171.3,117.8 c -2.6,-0.9 -5.3,-0.8 -7.5,-2.7 -0.8,-0.7 -2.2,-1 -1.6,-2.4 0.6,-1.2 0.8,-2.8 2.7,-2.9 1.4,0 2.3,0.3 3.1,1.7 2.9,4.9 3.4,5 5.9,0.2 1.1,-2.1 2.7,-2 4.3,-1.8 1.5,0.2 2.7,1.3 2.7,2.9 0,1.6 -0.9,2.7 -2.4,3.5 -2.3,1.2 -5,0.2 -7.2,1.5 z"
   class="st0" />
		<path
   id="path2434"
   d="m 76.8,98.8 c -11.4,19.5 -10.4,40.1 -1.5,59.3 9,19.4 25.6,31.2 47.6,33.9 -0.8,2.1 -2.2,1.9 -3.5,1.8 C 103.8,192 91.2,183.5 81.6,172.2 71.7,160.7 65.8,146.4 66.8,130.6 67.6,119.5 69,108.1 76.8,98.8 Z"
   class="st1" />
		<path
   id="path2436"
   d="m 120.1,185.8 c -5.3,2.7 -26.8,-8.6 -33.3,-16.3 -16.5,-19.4 -15.9,-45.8 -9.6,-53.3 -6.4,16 -1.9,31 5.7,44.6 7.9,13.9 22.8,19.4 37.2,25 z"
   class="st1" />
		<path
   id="path2438"
   d="m 81.7,123.2 c -1.5,11.9 1.2,22.5 7.8,32.5 5.1,7.9 11.8,13.7 19.8,18.2 1.6,0.9 3.3,0.8 4.9,0.8 1.1,0 2.4,0.3 2.4,1.2 0,1.3 -1.4,1.3 -2.6,1.5 -3.7,0.7 -6.6,-1.7 -9.2,-3.3 -11.1,-6.8 -18.8,-16.7 -22.9,-29 -1.2,-3.7 -2.7,-7.9 -1.4,-12.1 0.2,-0.6 0.2,-1.7 -0.2,-2.1 -3.4,-3.4 0.4,-5.3 1.4,-7.7 z"
   class="st1" />
		<path
   id="path2440"
   d="m 104.9,164.3 c -3.2,0.5 -4.6,-2.5 -6.1,-4.1 -7.3,-7.6 -11.4,-16.8 -11.2,-27.6 0,-0.7 -0.2,-1.4 1.1,-2.3 1.4,2.9 0.7,6 1.4,8.8 1.7,6.6 3.8,12.8 8.7,17.8 2.3,2.3 5.2,4.1 6.1,7.5 z"
   class="st1" />
		<path
   id="path2442"
   d="m 97.6,136.8 c 2.8,11.8 8.8,20.6 21.7,24.2 -10.2,3.1 -22.9,-13.1 -21.7,-24.2 z"
   class="st1" />
		<path
   id="path2444"
   d="m 119.3,154.9 c -5.6,1.2 -12.6,-7.2 -12,-14 2.4,5.8 5.7,10.9 12,14 z"
   class="st1" />
		<path
   id="path2446"
   d="m 104.7,164.5 c 4.7,0 7.4,3.8 11.3,5.3 -4.4,-0.5 -8.5,-1.6 -11.2,-5.5 0.1,0 -0.1,0.2 -0.1,0.2 z"
   class="st1" />
		<path
   id="path2448"
   d="m 118.1,141.1 c 2.1,3 3.6,5.7 3,9.2 -2.4,-2.6 -4.2,-5.3 -3,-9.2 z"
   class="st1" />
		<path
   id="path2450"
   d="m 85.4,89.2 c -2.7,1.3 -2.7,4.4 -6.5,5.3 2.3,-2.4 2,-5.8 6.5,-5.3 z"
   class="st1" />
		<path
   id="path2452"
   d="m 79.1,111.6 c -1.3,-0.3 -1.3,-1.2 -1,-1.7 0.7,-1.3 0.7,-3.1 2.5,-3.5 0.8,-0.1 1,0.7 0.8,1.1 -0.7,1.5 -1.6,2.8 -2.3,4.1 z"
   class="st1" />
		<path
   id="path2454"
   d="m 85.3,112.2 c 0.2,0.6 0.5,1.3 0.4,1.3 -1.6,0.9 0.4,3.6 -2,4 -0.5,0.1 -1.5,0 -1.3,-0.6 0.6,-1.6 0.9,-3.5 2.9,-4.7 z"
   class="st1" />
		<path
   id="path2456"
   d="m 138.5,139 c -2.6,-2 -2.8,-4 -2.3,-6.6 1.3,2 2,3.8 2.3,6.6 z"
   class="st1" />
		<path
   id="path2458"
   d="m 125.4,140.3 c 1,1.5 2,2.9 3.1,4.6 -3.2,-0.2 -3.5,-2.2 -3.1,-4.6 z"
   class="st1" />
		<path
   id="path2460"
   d="m 89.9,120.4 c 0.1,1.2 0.8,2.4 -0.4,3.3 -0.1,0.1 -0.7,0 -0.7,-0.2 -0.8,-1.3 -0.5,-2.2 1.1,-3.1 z"
   class="st1" />
		<path
   id="path2462"
   d="m 96.9,130.6 c -0.2,-0.2 -0.6,-0.4 -0.7,-0.7 -0.2,-0.8 0.4,-1.3 1.1,-1.6 0.6,-0.3 0.5,0.4 0.6,0.7 0,0.7 0.1,1.4 -1,1.6 z"
   class="st1" />
		<path
   id="path2464"
   d="m 132.3,139.5 c -2.3,-0.8 -1.3,-2.1 -1.1,-3.3 0.4,1 0.7,2 1.1,3.3 z"
   class="st1" />
		<ellipse
   id="ellipse2466"
   ry="0.30000001"
   rx="4.4000001"
   cy="125.9"
   cx="191.39999" />
		<path
   id="path2468"
   d="m 196.1,127.8 c -1.7,0 -3.3,0 -5,0 0,-0.1 0,-0.3 0,-0.4 1.6,0 3.3,0 4.9,0 0.1,0.2 0.1,0.3 0.1,0.4 z"
   class="st1" />
		<path
   id="path2470"
   d="m 169.9,323 c 2.4,0 4.8,0 8.5,0 -4.3,-2 -7.8,-2.4 -11.1,-3.5 2.5,-1.4 5.2,-1.3 7.8,-0.5 2.1,0.6 3.9,0.7 5.4,-1.1 0.8,-1 1.9,-1.8 2.9,-0.8 1,1 -0.1,1.9 -0.7,2.9 -2.8,5.3 -7.9,9.1 -9.5,15.2 -0.2,0.9 -1,1.9 -2.3,1.2 -0.8,-0.4 -0.7,-1 -0.3,-2 0.5,-1.3 -1.5,-3.5 1.4,-4.1 -0.3,-0.2 -0.6,-0.3 -0.8,-0.5 -1.3,-1.1 -1.3,-1 0.3,-1.7 1.4,-0.6 2.7,-1.3 4.2,-2 -1.6,-2.2 -4.3,-0.8 -5.8,-3.1 z"
   class="st1" />
		<path
   id="path2472"
   d="m 170.5,145.5 c 1.3,-1.8 3.4,-1.3 4.5,-2.4 2.9,-2.9 -2.3,-1.3 -1.6,-3.3 0.8,-0.4 1.8,-1 2.9,-1.6 -0.6,-1.4 -7.3,-0.8 -1.5,-4.4 -3.2,-1.1 3,-5.2 -1.9,-5.9 -0.9,-0.1 -0.4,-1.2 0.2,-1.6 1.3,-0.9 2.3,-1.6 -0.3,-1.8 -0.1,0 -0.3,-1.8 -0.1,-1.9 1.2,-0.6 2.6,-1.1 3.9,-1.3 1.1,-0.1 1.9,0.7 1.9,1.8 0.1,1.9 0,3.7 0,5.6 0,4.3 0,8.6 0,12.9 -0.1,6.2 -1.9,7.2 -8,3.9 z"
   class="st1" />
	</g>
</g>
</svg>
