<?xml version="1.0" encoding="UTF-8" standalone="no"?>
<svg
   xmlns:dc="http://purl.org/dc/elements/1.1/"
   xmlns:cc="http://creativecommons.org/ns#"
   xmlns:rdf="http://www.w3.org/1999/02/22-rdf-syntax-ns#"
   xmlns:svg="http://www.w3.org/2000/svg"
   xmlns="http://www.w3.org/2000/svg"
   xmlns:sodipodi="http://sodipodi.sourceforge.net/DTD/sodipodi-0.dtd"
   xmlns:inkscape="http://www.inkscape.org/namespaces/inkscape"
   inkscape:version="1.0 (4035a4f, 2020-05-01)"
   height="280.08762"
   width="248.74768"
   sodipodi:docname="boar-head-erased.svg"
   xml:space="preserve"
   viewBox="0 0 248.74768 280.08762"
   y="0px"
   x="0px"
   id="Layer_1"
   version="1.1"><metadata
   id="metadata7173"><rdf:RDF><cc:Work
       rdf:about=""><dc:format>image/svg+xml</dc:format><dc:type
         rdf:resource="http://purl.org/dc/dcmitype/StillImage" /><dc:title></dc:title></cc:Work></rdf:RDF></metadata><defs
   id="defs7171" /><sodipodi:namedview
   inkscape:current-layer="Layer_1"
   inkscape:window-maximized="0"
   inkscape:window-y="25"
   inkscape:window-x="0"
   inkscape:cy="173.30228"
   inkscape:cx="125.635"
   inkscape:zoom="2.52"
   fit-margin-bottom="0"
   fit-margin-right="0"
   fit-margin-left="0"
   fit-margin-top="0"
   showgrid="false"
   id="namedview7169"
   inkscape:window-height="480"
   inkscape:window-width="820"
   inkscape:pageshadow="2"
   inkscape:pageopacity="0"
   guidetolerance="10"
   gridtolerance="10"
   objecttolerance="10"
   borderopacity="1"
   bordercolor="#666666"
   pagecolor="#ffffff" />
<style
   id="style6942"
   type="text/css">
  .st0{fill:#FFFFFF;}
  .st1{fill:#000000;}
</style>
<g
   transform="translate(-24.365,-26.697719)"
   id="g7166">
	<g
   id="g7164">
		<path
   id="path6944"
   d="m 241.3,209.4 c -0.7,3.8 -1.1,7.4 -3.1,10.5 -0.4,0.7 -0.7,1.6 -1.2,2.3 -5.6,7 -4.8,15.7 2.1,21.7 0.6,0.5 1,1.1 1.5,1.7 3,3.4 5.6,3.1 8.2,-0.6 0.4,-0.6 0.8,-1.3 1.7,-1.7 0.5,3.7 1.1,7.1 -1.3,10.2 -0.8,1 -0.9,1.6 0.5,2.8 3.3,2.9 5.3,6.7 6.6,10.9 0.8,2.5 0.4,4.6 -1.4,6.1 -1.8,1.5 -2.2,3.3 -2.3,5.3 -0.4,7.5 -7.1,14.2 -14.5,14.5 -3.4,0.1 -5.3,-1.6 -6.9,-4.2 -0.8,-1.3 -0.3,-2.3 0.9,-3 1.5,-0.8 3.1,-1.3 4.9,-0.7 0.2,1.4 -2.3,1.5 -1.6,3.1 0.4,0.9 1.5,1.1 2.1,0.7 1.9,-1.2 3.7,-2.9 3.8,-5.3 0.1,-5 -4.8,-9.8 -9.6,-10.8 -8.4,-1.9 -16.9,-3.4 -25.1,-6.6 -5.6,-2.2 -11,-4.3 -15.8,-8 -4.6,-3.5 -8.2,-7.4 -8.5,-13.4 0,-0.7 -0.2,-1 -0.6,-1.2 -0.8,-0.4 -1.1,0.4 -1.4,0.9 -3.7,7.1 -9,13.1 -13.8,19.4 -6.4,8.4 -9.2,23.1 -0.1,31.1 3.6,3.2 9.3,3 9.8,-2.5 0.1,-1.1 0.7,-1.8 1.7,-1.9 1,-0.1 1.8,-0.2 2.5,1.1 1.6,3.1 4.2,5.8 2.3,9.6 -2,3.9 -5.2,5.5 -9.6,5.3 -4.9,-0.2 -10,-0.5 -14.9,0 -12.7,1.3 -26.2,-12.5 -27,-24.6 -0.1,-1.2 -0.3,-2 -1.2,-2.8 -2.9,-2.3 -4.2,-5.7 -3.4,-8.8 1,-4.1 -0.8,-7.7 -1.1,-11.4 -0.1,-1.2 -0.7,-3 -3.2,-1.9 -8.3,3.8 -16.8,7.1 -25.1,10.9 -2.4,1.1 -3.3,3.6 -3.7,6.2 -0.4,2.2 1.5,2.6 2.8,3.2 1.9,0.9 2.1,-1 2.7,-2 0.8,-1.3 1,-2.8 1.1,-4.8 3.6,2.8 1.7,5.1 0.6,7.5 -1.8,3.9 -7,4.7 -10.8,2.9 -4.6,-2.1 -5.5,-5.4 -5.2,-9.7 0.1,-1.4 -0.5,-1.7 -1.8,-1.8 -2,-0.2 -3.6,0.7 -5.4,1 -7.9,1.1 -14.5,-2.7 -21.1,-5.7 -2.2,-1 -4.4,-1.1 -6.4,-1.3 -3.4,-0.4 -6.2,-1.9 -9.3,-2.8 -4.2,-1.2 -4.8,-1 -5.7,3.8 1,-0.3 2,-0.5 3,-0.8 0,0.4 0.2,0.8 0.1,1.2 -0.4,1.5 -1.5,1.5 -2.8,1.6 -4.1,0.2 -8.3,-2.4 -10.2,-6.2 -1.4,-2.8 -0.8,-5.2 1.8,-6.7 2.4,-1.4 2.1,-2.6 1.2,-5 -2.3,-6.6 -4,-13 -3.2,-20.5 1.3,-11.5 7.7,-17.5 17.6,-21.4 4.4,-1.8 8.7,-3.9 13.1,-5.7 1.8,-0.7 2.6,-2.1 3.3,-3.6 0.2,-0.4 0.1,-1.2 -0.2,-1.5 -0.6,-0.6 -1,-0.2 -1.4,0.6 -0.8,1.6 -1.6,0.4 -2,-0.2 -0.5,-0.9 -0.8,-1.7 0.8,-2.4 1.9,-0.8 3.5,-1.1 5.1,0.3 2.3,2.1 4.6,4.2 3.1,7.8 -0.3,0.8 -0.7,1.7 -1.3,2.4 -2.1,2.5 -5.6,4.8 -0.9,8.2 0.6,0.5 0.3,2.4 -1.1,3 -1.2,0.6 -1.6,-0.2 -2.4,-1.1 -1.9,-2.3 -4.4,-2.5 -7.1,-1.1 -7.8,4.3 -8.7,10.4 -2.6,17 3.5,3.7 7.8,6.4 12.8,7.8 3.8,1.1 7.4,-0.9 10.6,-2.1 3.1,-1.2 6.7,-3 8.9,-6.4 1.3,-2.1 1.1,-5.1 4.1,-6.4 0.8,-0.3 -0.6,-0.9 -1.3,-1.1 -1.9,-0.5 -2.3,-2.3 -2.4,-3.7 -0.1,-2 1.7,-0.9 2.7,-1.1 4.4,-1 6.2,-4.8 8.4,-8 1.4,-2.1 1.9,-4.7 3.1,-6.6 5,-7.7 7.4,-17.5 17,-21.8 1.5,-0.7 5.2,-1.3 4.2,-4.8 -1,-3.6 -4.8,-6.9 -7.9,-7 -10.1,-0.4 -19.8,-2.5 -29.4,-5.4 -5.3,-1.6 -11.1,-1.3 -16.1,-4.2 -5,-2.9 -10,-5.8 -14,-10 -1.7,-1.7 -3.5,-4.1 -0.9,-6.9 1.5,-1.6 0.4,-2.3 -1.6,-2.5 -3.7,-0.5 -6.6,2 -10.3,1.9 -3.8,-0.1 -4.8,-1.9 -5.2,-4.8 -0.6,-4.1 2.5,-9.7 6.3,-11.4 7.8,-3.6 15.9,-3.9 24.2,-2.9 0.8,0.1 1.6,0.6 1.6,-0.5 0,-2.9 2.2,-4.9 2.8,-7.6 0.4,-2.1 -0.1,-2.8 -1.9,-3.6 -6,-2.6 -12.3,-4.8 -16.8,-9.9 -0.6,-0.7 -1.3,-1.4 -2,-1.9 -5.1,-3.1 -7.3,-7.6 -6.9,-13.5 0.5,-6.7 2.4,-12.9 8.1,-16.8 5.5,-3.8 11.2,-5.9 16.4,-1.4 2.2,1.9 2.6,4.8 3.5,7.3 0.6,1.6 0.5,1.7 2.2,1 11.4,-4.8 22.7,-4.7 34.1,0.2 9.4,4 19.2,4.6 29.5,4 7.3,-0.4 13.7,-3.3 20,-5.7 4.3,-1.6 7.6,-6.7 10,-11.4 4.1,-7.8 8.6,-15.5 16.1,-20.7 0.5,-0.4 1,-1 1.6,-1.1 6.8,-0.5 10.2,-5.6 13.5,-10.5 1,-1.4 2.6,-1.9 3.4,-3.5 0.7,-1.3 2.8,-0.7 4.1,-0.4 1.2,0.2 0.7,1.6 0.6,2.4 -0.5,2.4 1.7,3.1 2.8,3.7 4.3,2.1 6.3,5.7 6.5,10 0.3,5.3 1.7,10.6 0.4,15.9 -0.1,0.4 0,0.9 -0.2,1.2 -0.9,1.4 -3.6,2.9 -2.5,4.2 1.7,2.1 4.6,3.3 7,4.8 0.8,0.5 1.2,-0.2 1.7,-0.6 3,-2 6.1,-4 9.1,-6 5.5,-3.5 11.8,-4.3 18.1,-5.3 6.6,-1.1 13.3,-1.4 19.7,-3.8 1.8,-0.7 4.9,-1.6 6.5,0.7 2.7,3.9 2.6,8.7 0.2,11.1 -5,5 -9.4,10.5 -13.1,16.6 -1.2,1.9 0.1,4 -1.6,5.9 -5.7,6.2 -8.9,14.3 -14.8,20.3 -0.9,0.9 -1.3,1.1 0.1,2.5 3.3,3.5 6.2,7.6 6.1,13 -0.1,2.7 0.1,5.4 1.2,8.1 0.9,2.1 1.2,4.8 1.2,7.3 0.1,6.9 0.6,13.9 0.4,20.7 -0.4,12 1.1,24.5 -4.8,36 -2.1,4 -0.3,8.2 2.7,11.6 1.6,1.7 4,3.3 1.3,5.9 -2.6,2.5 -4.2,-0.6 -6.2,-1.2 -1,-0.3 -1.5,-1.5 -2.5,-2.7 z"
   class="st1" />
		<path
   id="path6946"
   d="m 248.7,279.9 c -1.9,3.3 -2.8,7.4 -7.1,9 3.1,-2.8 1.9,-6 1.4,-9.3 -0.5,-3.7 -3,-5.7 -5.1,-8.1 -5.4,-6.4 -12.7,-11.4 -14.7,-20.3 -0.2,-1 -0.8,-2.9 -2.2,-2.3 -1.6,0.6 -0.2,1.9 0.1,3 2.2,6.5 5,12.5 11,16.5 0.4,0.3 0.9,1.4 0.7,1.7 -0.4,0.8 -1.4,0.5 -2.1,0.3 -8.5,-2.2 -14.5,-12.6 -14.5,-18.9 0,-4.7 -1.2,-9.4 -0.8,-14.2 0.1,-0.6 -0.7,-1.3 -1.5,-2.6 -1.6,6.3 -1.2,12 0.2,17.5 1.3,5.2 0.7,11.7 7.2,14.7 -4,0.1 -6.6,-0.9 -7.6,-4.9 -0.7,-2.9 -2.7,-5.5 -3.9,-8.3 -1.5,-3.5 -0.5,-7.3 -1,-11.3 -3,4.2 -1.5,8.9 -1.8,12.9 -0.2,3.6 4,7 6.9,10.5 -10.5,-3.1 -17.7,-8.6 -18,-20.3 -2.9,2.2 -3,3.5 -0.7,11.4 -1.8,0 -3.1,-1.2 -3,-2.4 0.2,-3.5 -1.4,-7.2 1,-10.4 0.6,-0.8 0.9,-1.9 -0.2,-2.3 -1,-0.3 -1.3,0.8 -1.8,1.7 -1.5,2.8 0.2,5.8 -0.7,8.6 -0.2,0.6 0.3,1.4 -1.1,1.6 -1.1,-1 -0.4,-2.5 -0.5,-3.9 -0.1,-1.5 0,-2.9 0,-5.3 -1.7,2.4 -0.6,5 -1.9,6.4 -6.3,-5.3 -1.9,-10.7 -0.1,-16.2 2.9,1.7 1.6,4.4 1.5,7 0.4,-2.1 4.4,-3 1.6,-5.8 -0.6,-0.6 0.3,-1 0.6,-1.1 0.9,-0.4 0.7,0.9 0.7,0.8 1,-0.9 1.8,-2.3 1.2,-3.4 -1.5,-2.9 0,-5.6 0.7,-8 1.9,-6.4 3.4,-12.9 3.6,-19.6 0,-1.9 0.5,-3 2.3,-3.6 1.6,-0.5 2.4,-1.6 1.4,-3.3 0.9,0.3 1.9,-0.2 2,-0.8 0.7,-3.6 3.8,-4.9 6.2,-7 -0.5,0.4 -0.8,0.9 -1.4,1.2 -1.5,0.9 -3,0.4 -3.9,-0.8 -1.2,-1.7 0.2,-2.8 1.4,-3.6 2.2,-1.5 4.9,-2.1 6.2,-4.5 -0.4,0 -0.4,0.7 -0.8,1 -1.3,1.2 -2.8,3 -4.4,1.9 -1.3,-0.9 -2.5,-3.4 -1.8,-5 1.1,-2.4 -0.1,-3.5 -1.4,-4.8 -0.9,-0.9 -1.8,-1.8 -1.3,-3.1 0.6,-1.4 1.9,-1.3 3.1,-1 1.2,0.3 2.1,-0.1 2.8,-1.1 1,-1.3 2.4,-2.1 3.8,-1 1.3,1.1 0.8,2.6 -0.1,4 0.6,-0.5 0.9,-1.2 1.4,-1.7 0.9,-0.9 1.7,-2.8 3,-1.9 1.5,1 0.8,2.8 -0.3,4.1 3.2,-3.7 5.8,-7.4 5.4,-13.1 -0.3,-4.8 1.2,-9.7 0.2,-14.7 -0.5,-2.1 -1.1,-4 -2.2,-5.6 -1,2.5 -1.4,5.5 -4,7.3 0.7,0.1 1.6,-0.3 2.4,-0.3 1.6,-0.1 2.6,0.7 3,2.1 0.4,1.7 -0.2,3 -1.8,3.5 -2,0.7 -4.1,1.1 -5.7,1.3 2.1,-1.1 4,1.4 6.4,1.2 0.3,0 0.5,0.1 0.7,0.3 0.8,0.6 1.2,8.6 0.6,10.2 -0.9,2.5 -2.9,2.2 -5,2.2 -5.6,0 -10.6,-2.4 -15.5,-3.6 0.9,0.4 2.1,1.1 3.5,1.5 1.2,0.4 2.4,1.1 2.2,2.5 -0.3,1.7 -2,1.8 -3.2,1.6 -3.4,-0.5 -6.5,-2.1 -9.7,-3.5 -1.2,-0.5 -2.3,-1.4 -3.5,-1.8 1.8,1.3 3.8,2.7 5.8,2.9 5.6,0.7 6.6,5.2 8.3,9.1 0.5,1.1 0.5,2.5 -0.8,3.2 -1.4,0.7 -2.8,0.3 -3.4,-1.1 -1.9,-4.7 -6.5,-6.2 -10.1,-8.8 -2.3,-1.6 -5.2,-2.7 -7.5,-4.5 -2.6,-1.9 -3.1,-0.4 -3.3,1.8 -1.1,1 -2.2,0.9 -3.2,0 -2,-1.9 -4.7,-3.1 -5.9,-5.8 1,3.2 4.3,4.1 6.3,6.3 0.8,0.9 2,0.5 2.8,-0.5 2.5,-1.1 4.6,-1.1 6.9,0.8 2.6,2.2 5.6,3.9 8.8,5.3 3.8,1.7 3.9,4.2 1.6,7.9 -1,1.6 -0.1,3 1.4,4 0.3,0.2 0.5,0.5 0.7,0.8 1.8,0.7 2.2,-1.2 3.3,-1.8 0.9,-0.5 1.7,-1.5 2.8,-0.8 1.2,0.8 0.9,2.1 0.3,3.2 -0.7,1.4 -1.4,2.8 -2.5,4 -1.5,1 -2.4,2.8 -4.1,3.7 1.9,-1 2.9,-3 4.7,-4 1.3,-0.2 2.4,0.5 2.2,1.6 -0.5,2.2 -0.3,4.9 -3.3,5.8 -1.2,1.5 -2.4,2.8 -4.4,3.3 -1.5,0.4 -1.9,2 -1.9,3.7 0.1,5.4 -0.1,10.8 -1.5,15.9 -0.8,2.8 -1.6,5.7 -2.2,8.6 -0.3,1.3 -1.3,1.8 -2.4,2.4 3.6,-7.8 3.3,-15.7 2.1,-23.9 -1.8,0.2 -1.2,1.4 -1.2,2.2 -0.1,3.8 0.3,7.5 -0.1,11.2 -0.2,2.2 1,5.9 -3.4,6 -0.4,0 -1.1,0.8 -1.2,1.4 -1.8,6.6 -4.7,12.7 -9.8,17.5 -0.4,0.3 -0.6,0.9 -0.7,1.3 -0.1,0.4 -0.9,0.7 -0.3,1.2 1.8,0.2 1.6,-1.8 3.1,-2 -5.6,5.9 -9.4,13.2 -15.4,18.8 2.9,-5.4 6.3,-10.6 10,-15.6 -4.6,3 -8.6,6.5 -11.5,11.1 -5.5,9 -5.8,19 -2.7,28.7 2.9,9.4 12.3,13 20.7,7.3 0.9,-0.6 1.3,-0.5 1.9,0 0.8,0.8 0.9,1.8 0.2,2.5 -1,1.2 -2.2,2.2 -3.7,3 -5.6,2.8 -14.6,0.3 -18.6,-4.6 -5.9,-7.2 -4.8,-15.3 -4.1,-23.5 0.1,-0.7 0.1,-1.3 0.1,-2 0,-0.5 -0.1,-0.9 -0.2,-1.7 -4.6,12.2 -4.8,23.4 4.9,33.2 -3,0.5 -6.6,-2.9 -8,-5.9 -3,-6.4 -3.3,-13.2 -3.6,-19.9 -0.1,-3.4 2.5,-6.8 3.6,-10.3 1.1,-3.6 5.1,-3.9 7.1,-6.7 4.3,-5.8 10.6,-10.1 14.1,-16.4 1.5,-2.7 3.9,-5 4.3,-8.2 2.2,-0.4 1.8,-3 3.2,-3.6 0.5,-0.7 -0.5,-0.6 0.1,-0.5 0.1,0 0.1,0.2 -0.1,0.4 -1.2,1.1 -1.3,3.2 -3,3.9 -2.5,1.3 -3.7,4.3 -6.7,5.1 -0.2,0.1 -0.4,0.8 -0.3,1 2.7,2.9 -0.4,4.2 -1.7,5.6 -4.4,4.8 -9.5,8.9 -13.2,14.7 -1,-0.2 0.1,-2.4 -1.2,-2 -0.8,0.2 -1.8,0.9 -2.1,1.7 -2.2,6.7 -7.1,12.6 -6.1,20.2 -2.8,-7.2 -0.8,-14 1.8,-20.7 0.5,-1.2 2.8,-2.5 1,-3.5 -1.6,-0.9 -1.7,1.8 -2.7,2.8 -0.2,0.2 -0.2,0.4 -0.4,0.7 -3.2,-4.3 -0.1,-7.4 2,-10.6 0.5,-0.8 2.3,-1.4 1.2,-2.4 -1.2,-1.2 -1.7,0.4 -2.5,1.3 -3.8,4.2 -5.7,8.5 -2.2,13.9 1.1,1.7 0.1,3.7 -0.6,5.3 -2.6,6.7 -1.9,13 1.1,19.6 1.3,2.9 3.5,5.7 3.8,9.4 -5.4,-2.2 -6,-7.2 -8.4,-11.2 -3.2,-5.3 1.6,-9.7 -0.1,-14.8 -2,2.3 -2.1,5 -3.2,7.7 -1.5,-7.4 1.1,-13.6 3.8,-19.8 -5.2,2.9 -5.9,8.6 -8.4,13.2 -1.9,-2.4 0.2,-5 -1.1,-7.2 -0.2,-0.3 -0.3,-0.5 0.1,-0.6 5.8,-1.2 1.4,-6.7 4,-9.9 2.2,-2.7 4.8,-6.3 5.9,-10.6 -3.4,1.6 -4.8,4.6 -6.4,7.2 -1.5,2.6 -2.7,5.5 -4,8.3 -3.9,-4.8 0.9,-9.2 0.1,-13.7 -0.1,-0.7 0.7,-0.6 1.1,-0.9 4.9,-2.9 5.7,-8.3 7.5,-13 0.9,-2.2 0.3,-4.9 -2.5,-6.3 -1.5,5.3 -1.9,10.8 -6,15.8 0.3,-3.9 1.8,-7.2 0.3,-10.7 -2.2,6.8 -1.9,14.1 -6.5,19.8 0,-1.9 0.9,-3.6 -0.1,-5.4 -0.3,0 -0.7,0 -0.8,0.1 -2,7.2 -8.6,8.8 -14.1,11.9 -5.7,3.2 -12.2,4.8 -16.8,9.9 -1.3,1.4 -1.8,3.3 -3.6,5.1 -1.9,-6.8 4.3,-10.5 4.8,-16.4 -5.3,3.2 -8.4,9.8 -15.6,10.6 1.5,-5.1 7.5,-5.7 8.6,-10.5 -0.3,0 -0.9,-0.2 -1,-0.1 -2.7,4.9 -8.3,5.9 -12.4,8.9 -2.1,1.5 -4.3,-0.8 -6.4,-1.4 -0.6,-0.2 0.7,-1.5 1.7,-2 5,-2.6 10,-5.3 14.9,-8 1.5,-0.8 2.8,-1.8 3.4,-3.7 -1.8,0.1 -2.8,1.1 -3.8,2 -2.8,3 -7.1,2.6 -10.4,4.5 -1.4,0.8 -2.2,2 -3.2,2.9 -3.1,2.7 -6.1,3 -9.7,1.5 -2.7,-1.2 -5.7,-0.8 -8.6,-0.8 -1,0 -2.3,0.3 -2.7,-1.3 3.9,-0.9 8.4,-0.7 12.4,-4.7 -7.3,2.5 -14.1,-0.1 -21,3.7 1.2,-3 4.1,-2.9 4.3,-5.3 -3.2,-0.3 -9.9,3.5 -11.1,6.2 -0.4,0.9 0.1,2.8 -1.6,2.6 -1.1,-0.2 -2.4,-1.2 -3.1,-2.2 -0.8,-1.1 -0.6,-2.4 0.6,-3.6 2.5,-2.6 5.5,-4.3 8.6,-6.1 0.7,-0.4 1.4,-0.7 2,-1.2 0.9,-0.6 0.7,-1.2 0,-2 -0.8,-0.9 -1.1,0 -1.5,0.3 -5,3.4 -4.7,3.3 -7,-2.2 -3.6,-8.8 -3.4,-17.5 0.7,-25.8 2.4,-5 6.4,-8.9 12.1,-10.7 4.4,-1.4 8.7,-3.2 13,-4.7 2.6,-0.9 4.6,-2.3 4.7,-5.5 1.5,3 0.7,5.4 -2.1,7 -2.4,1.3 -3,3 -1.9,5.5 -8.2,-0.9 -12.5,1.1 -15,7.8 -1.8,4.7 -1.7,9.6 1.7,13.8 4.8,5.9 10.5,10 18.6,9.2 1.1,-0.1 2.1,0 2.9,0.9 0.5,0.6 1.3,1.4 1.8,1.3 1.4,-0.3 -0.5,-1.2 0.1,-1.8 1.1,-1 2.5,-0.6 3.7,-0.5 5.3,0.5 6.7,0.3 11.1,-2.3 -4.1,1.3 -8.1,0.5 -13.1,0.5 8.3,-4 16.4,-6.8 23.5,-12.1 -3.8,-0.9 -5.4,2.6 -8.2,3.5 1,-4.1 5.4,-6.9 11.4,-7.7 -3.7,-0.8 -3.7,-0.8 -7.3,1 -0.8,-2.8 0.8,-2.9 2.9,-3.1 4.3,-0.4 8.3,-1.6 11.6,-4.7 0.4,-0.4 0.7,-0.8 0.1,-1.7 -2.2,0.2 -3.1,3.4 -5.7,3 -0.1,-2.7 3.2,-3.2 3.4,-5.7 0.3,-0.1 0.5,-0.1 0.4,0 -0.1,0.1 -0.2,0.2 -0.3,0.2 -1.6,0.3 -3,1 -4,2.2 -1.3,1.6 -1.5,4.5 -3.6,4.9 -2.8,0.6 -5.8,0.1 -9,-0.2 6.7,0.2 8.7,-5.7 12.5,-9.2 2.1,-2 4.6,-3.3 7.4,-4.1 1.5,-0.5 3.6,-1 3.8,-3.3 2.2,-0.8 4.1,-2.4 6.4,-2.9 -2.3,0.6 -4.3,1.7 -6.3,3 -4.5,-0.4 -7.3,2.8 -11.1,4.9 0.3,-3.1 2.2,-4.7 4.5,-5.5 2.4,-0.8 6.6,-2 6.3,-3.4 -0.6,-2.4 -3.7,1.5 -5.7,-0.3 2.3,-4.7 6.5,-7.6 10.9,-10.4 -1.7,-1.5 -3,1.1 -4.5,0.1 2,-5 7.2,-5.6 11.2,-7.8 3.1,-1.7 4.8,-4.1 5.2,-7.3 0.2,-1.7 1.3,-1.7 2.4,-2.2 0.5,3.7 -0.2,7 -2.8,10 0.6,-0.5 1.3,-0.9 1.8,-1.5 0.6,-0.7 1,-1.5 1.5,-2.2 0.4,-0.5 0.9,-1.2 1.6,-0.8 0.7,0.3 0.6,1.2 0.3,1.8 -0.7,1.8 -1.3,3.7 -3.6,5.2 4.2,0.4 4.3,-3 5.7,-4.8 2.4,-3 -3.4,-3.8 -1.7,-7.2 3.3,4.1 8.5,6 11.1,10.4 1.7,2.8 2.9,6.1 1.4,9.6 -0.2,0.5 -0.3,1.5 0.6,1.6 0.9,0.2 1.6,-0.6 1.7,-1.4 0.2,-3 0.4,-6.1 -0.7,-9 -0.5,-1.3 -1.1,-2.4 -0.4,-3.9 4.1,0.6 3.6,6.2 7.5,7.3 0.9,-2.5 -3.6,-3 -1.8,-5.5 4.3,2.5 3.7,6.8 3.9,10.9 0,1 -2.6,4.1 1.8,3.9 1.2,-0.1 0.1,3.6 -0.6,4.5 -2.7,3 -1.8,6.7 -3.2,10.1 1.5,-0.3 2.5,-1.1 2.5,-1.9 -0.3,-4.5 2.8,-7.7 4,-11.7 1.1,-3.6 -1.1,-6.4 -2.3,-9.4 -0.1,-0.3 -0.9,-0.6 -0.6,-1.1 0.1,-0.2 1.1,0.2 1.2,0 0.9,-1.4 -0.3,-2.6 -0.9,-3.6 -1,-1.5 -2.2,-2.8 -1.9,-5.4 4.5,4.2 5.8,9.3 7.1,14.5 0.1,0.5 -0.1,1.4 0.1,1.5 1,0.4 -0.8,2.3 1.2,2.1 1.8,-0.2 1.1,-1.7 1,-2.5 -0.5,-2.8 -1.4,-5.5 -1.8,-8.4 -0.2,-1.4 0.3,-2 1,-3 3.2,5.4 3.8,11.4 5.3,17.6 2.8,-5.7 0.5,-13.6 -6,-22.3 2.7,0.5 5.3,2.4 6.3,5.6 0.9,2.8 2.6,5.2 3.1,8.2 0.5,3.1 -0.9,6.4 1.6,9.6 1.7,-5.2 1.5,-10.1 -0.6,-14.8 -0.3,-0.7 -0.7,-1.4 -1.2,-2 -0.5,-0.7 -0.8,-1.7 -0.1,-2.2 1.1,-0.8 1.7,0.4 2.2,1 2.4,2.9 4,6.3 5.5,9.7 0.4,1 -0.1,2.5 1.7,2.1 1.3,-0.3 2.9,-0.2 3.2,-2.3 0.3,-1.9 1.4,-3.6 0.2,-5.6 -0.6,-1 -0.7,-2.7 1.3,-3.5 -0.4,2.1 1.8,3.9 0.3,6.3 -0.5,0.8 -1,3.1 0.6,3.9 2,1 3.5,-0.5 4.5,-1.9 0.9,-1.2 0.7,-3.1 3,-2.9 0.1,0 0.3,-0.1 0.3,-0.2 -0.3,-2.9 -0.3,-5.8 -1.2,-8.7 -0.5,-1.7 -1,-2.6 -3.2,-2.1 3,4.3 0.9,8.3 -0.3,12.4 -0.3,-3.4 -2.2,-6.3 -2.4,-9.7 -0.2,-2.5 -1.3,-2.6 -3.1,-1 -1.2,1.1 -2.5,0.4 -2.9,-0.7 -0.5,-1.2 -1.4,-1.9 -2.2,-2.8 -1.1,-1.2 -2.6,-1.4 -3.5,-0.4 -0.8,1 0.3,1.9 1.3,2.8 4.4,3.7 5.9,7.4 5.5,12.9 -1.5,-1.9 -2.9,-3.4 -3.1,-5.8 -0.3,-3.1 -3.9,-3.5 -5.6,-5.5 -0.1,-0.1 -0.3,0 -0.4,0 -2.7,-4.3 -8.2,-3.9 -11.7,-6.8 -0.9,-0.7 -1.6,-1 -1.6,-2.3 0,-0.7 -1.1,-0.6 -1.7,-0.4 -0.9,0.4 -0.6,1 -0.1,1.6 0.8,0.9 2,2.1 0.7,2.9 -1.1,0.7 -2.7,0.6 -4,-0.6 -2.6,-2.4 -4.9,-5.1 -7,-7.8 -0.4,-0.5 -0.8,-1.1 -1.9,-0.8 -0.4,2.1 2.2,3 2.1,5.1 -3.5,-0.4 -4.6,-4.3 -8.1,-5.5 1.2,4 4.7,6.1 5.6,9.8 -2,-0.4 -2.7,3.1 -4.5,2.1 -2.5,-1.4 -5.8,-1.9 -7.2,-5 2,-0.8 3.1,1.2 4.7,1.4 1.5,0.2 2.8,1.6 4.6,0.4 -3.3,-2.9 -6.2,-6.1 -8.7,-11 0,2.7 0,4.1 0,5.7 -1.5,-0.7 -2,-1.8 -2.6,-3 -0.8,-1.6 -0.9,-6 -4.8,-2.6 -0.5,0.5 -1.7,0.2 -2.6,-1 -0.6,-0.8 -1.4,-3 -3.7,-1.7 3.4,3.4 6.5,6.9 10.2,10 -4.6,-2.9 -10.8,-2.2 -14.5,-6.9 -0.3,-0.3 -1.1,0.1 -0.9,-0.8 0.7,-2.4 0.7,-2.4 -1.7,-3.3 -2,6.7 3.7,8.1 7.5,10.9 -3.3,-0.1 -5.9,-1.7 -8.2,-3.7 -2.9,-2.5 -5.6,-4.9 -10,-3.5 -1,0.3 -3,-0.4 -4.1,-1.7 -0.7,-0.9 -1.4,-0.4 -1.9,0.3 -0.7,1 0.3,1.3 0.9,1.6 2.5,1.3 5.7,1.5 7.9,4.7 -5.7,-0.2 -9.4,-4 -14,-5.5 l -0.1,-0.2 0.2,0.1 c -0.3,2.5 -1.8,2.7 -3.7,1.8 -3.1,-1.4 -6.5,-1.5 -9.8,-2.4 -3.8,-1.1 -7.9,-1.4 -10.3,-5.3 -0.1,-0.2 -0.7,-0.3 -1.1,-0.3 -0.2,0 -0.5,0.1 -0.8,0.1 -0.3,1.2 1.9,1.5 0.6,3.5 -4.3,-5 -11.5,-6.1 -14.4,-12.6 -0.3,-0.6 -1.5,-0.9 -0.4,-1.8 0.7,-0.6 1.5,-0.7 2.2,-0.3 8.9,5.6 19.1,4.7 28.9,5.3 13.6,0.8 27.1,2.7 40.8,2.9 2.2,0 4,2.6 6.4,3.4 5.1,1.7 10.3,2.9 15.7,2.7 5.5,-0.2 6.4,-1.7 4.4,-6.8 -0.9,-2.3 -2.8,-3.7 -3.7,-5.9 -1,-2.4 -3.4,-4 -2.4,-7.6 0.7,-2.5 -2.9,-4.9 -4.9,-6.6 -3.9,-3.3 -8.5,-5.9 -14.1,-6.2 -2.1,-0.1 -4.2,-1.9 -4.8,-4.2 -0.6,-2.8 1,-5 3.1,-6.3 1.9,-1.2 4.6,-1.3 6.4,0 4.4,3.2 4.3,3.4 7.2,3.1 -3,-4.1 -3.1,-4.1 -13.2,-4.7 0.9,-4.5 2.8,-9 -0.6,-13.2 -1.5,-1.8 -3.4,-3 -5.8,-2.6 -0.9,0.2 -2.2,0.7 -2.6,1.4 -0.4,0.9 0.9,1.3 1.6,1.9 2.8,2.3 2.2,5.9 0.9,7.8 -4.3,6.2 -12.3,8.1 -18.5,3.3 -1.6,-1.2 0.6,-2.2 0.6,-3.4 0.1,-2 2.2,-2.4 3.4,-3.4 1.3,-1.1 3.1,-0.7 2.6,1.8 2.4,0.3 4.9,0.6 7.3,0.9 -3.3,-1.5 -5.9,-4.6 -9.9,-4.1 -0.4,-1.6 0.8,-2.1 1.5,-2.8 1.2,-1.2 2.4,-2.8 1.1,-4 -1,-0.9 -3.3,-1 -4.8,0.4 -1.1,1 -2.2,2 -3.1,3.1 -2,2.4 -4.1,4.1 -7.5,3.3 0.1,1.4 2.9,0.1 1.8,2.3 -0.8,1.7 -0.9,3.8 -3.5,4.2 -6.4,1.1 -12.8,1.7 -19,-0.9 -2.1,-0.9 -4.1,-2.6 -5.3,-4.6 -0.5,-0.8 -0.3,-2 1.2,-2.8 6.7,-3.7 12.9,-8.1 19.8,-11.3 2.8,-1.3 5.7,-3.2 9.2,-3.1 -1.8,-1.7 -1.9,-1.6 -15.5,4.8 -5.4,2.5 -10.1,5.9 -15.3,8.9 0.8,-2 2.6,-3 4.2,-4.2 2,-1.5 4.9,-1.8 5.7,-4.8 2.5,-0.6 4.1,-3.1 6.7,-3.3 -2.6,0.4 -4.3,2.4 -6.6,3.5 -3.5,0.7 -5.9,3.2 -8.6,5.2 -1,0.8 -1.8,2 -3.3,0.9 0.4,-3.3 4.9,-3 5.3,-6.2 0.9,0 1.7,-0.7 2.3,-0.8 -0.7,0 -1.4,0.7 -2.2,0.9 -1.9,-0.6 -2.3,1.7 -3.8,2.1 -0.8,0.2 -1.4,2.2 -2.4,0.7 -0.7,-1 0.3,-1.9 1.2,-2.6 2.3,-2.1 5.2,-3.1 7.7,-4.8 0.5,-0.4 1.9,0 1.3,-1.2 -0.6,-1.1 -1.3,0.2 -1.9,0.3 -3.2,0.7 -5.3,3.1 -8.2,4.4 1.9,-5.4 7.5,-6.2 11.9,-9 -1.6,-0.1 -3,-0.2 -4.6,-0.3 5.1,-4 11.3,-4.7 17.1,-6 2.8,-0.6 6.5,0.9 9.8,1.8 12.1,3.6 24.1,7.5 37.1,6.8 8.5,-0.5 16.6,-3 23.6,-7 4.2,-2.4 7.9,-7.5 10.5,-12.4 3.9,-7.5 8,-14.8 14.9,-20 2,-1.5 4.6,-2.4 6.9,-3.3 3.9,-1.5 7.5,-3.4 10.2,-6.6 0.9,-1.1 2.3,-0.2 3.1,-1.5 0.8,3.7 -2.1,5.4 -3.7,7.9 2.7,0.4 3.4,-2.2 5.1,-3.1 0.8,-0.5 1,-2.4 2.4,-0.7 1,1.2 0.5,2.4 -0.6,3 -1.2,0.7 -2.7,1.1 -2.7,2.9 -0.2,0 -0.3,0 -0.5,0 0.4,-0.3 -0.1,0.1 0.4,-0.1 0.9,-0.3 1.8,-0.6 3.4,-1.2 -3,4.1 -7.3,4.9 -10.5,7.3 3.2,0.7 5.3,-1.7 7.8,-2.7 1.6,-0.7 3,-2 4.6,-2.9 0.8,-0.5 1.5,-2.3 2.4,-1 1.2,1.7 -0.9,2.2 -1.8,2.7 -6,3.4 -11.8,7.1 -18.2,9.8 -0.3,0.1 -0.4,0.5 -0.6,0.8 -1.9,0.9 -3.6,2.1 -5.5,2.8 2,-0.7 3.7,-1.8 5.4,-2.9 5.9,-1.1 11.5,-2.9 16,-7.2 1.2,-1.1 2.5,-3 3.8,-0.6 1.1,2.1 -2,1.2 -2.5,2.9 1.5,0.3 4.4,-0.7 3.7,2.8 -0.4,2.1 0.3,4.4 -0.2,6.4 -0.7,2.8 -6.6,7.1 -8.9,6 -2.8,-1.3 -5,-0.2 -7.5,-0.1 -1.9,0 -2.8,1.4 -4.2,1.9 -4.4,1.7 -9.3,1.5 -13.5,3.3 -4.9,2.2 -10.7,0.3 -15.3,3.8 -0.7,0.6 -1.6,0.8 -1.9,2.1 3,1.5 5.3,-1.1 8,-1.4 13,-1.2 25.4,-6.7 38.8,-6.4 2.9,0.1 5.9,-0.9 8.8,0.2 0.9,0.3 1.7,0.8 1.4,2.4 -2.8,-1.5 -5.3,-0.2 -8.3,0.4 1.2,1.7 2.5,1.4 3.4,0.9 1.4,-0.9 2.2,-0.3 2.5,0.7 0.5,1.7 -1.1,1 -1.8,1.2 -4.1,1.7 -8.4,0.3 -12.6,0.7 -1,0.1 -2.1,-0.3 -3.8,1.1 3.9,1 7.4,0.2 10.9,0.7 -0.7,1.7 -2.2,2 -3.7,2.3 -4.4,0.8 -8.6,2.3 -13.2,1.7 -0.6,-0.1 -2,-0.7 -1.9,1 -0.9,0.2 -1.8,0.5 -2.6,1.2 0.9,-0.5 1.7,-1 2.5,-1.3 2,0 2.6,3.9 5.3,1.9 0,0 0.8,0.6 0.7,0.8 -0.1,0.4 -0.5,0.8 -0.9,1.1 -1.2,1 -3,0.7 -4.2,1.9 -1.4,1.3 -2.1,2.6 -1.9,4.5 0.1,1.4 1.6,0.8 1.9,1.7 0.7,-0.5 1.8,-0.9 1,-2.1 -1.2,-1.9 0.1,-2.5 1.5,-3.6 4.2,-3.2 9.3,-3.6 14,-5.2 7.8,-2.7 14.1,-7.3 19.8,-13.1 3.7,-3.8 8.1,-6.5 13.2,-8.1 7.8,-2.4 16.1,-2 24,-4 1.4,-0.4 3,-0.4 4,-1.2 1.3,-0.9 2.8,-2 3.8,-0.8 1.3,1.5 0.1,3.8 -1.1,4.5 -2.2,1.3 -2.5,2.8 -2.7,5.1 -0.2,2.5 -3.3,2.6 -4.9,4 -1.3,1.1 -2.8,2.2 -5,3.4 1.5,0.3 2.4,0.4 3.8,0.7 -3.6,1.7 -5.4,5.4 -10.4,4.7 1.6,1.5 2.3,2.5 3.4,2.2 1.1,-0.2 2.6,-0.9 2.5,0.8 -0.1,1.2 -0.5,3.2 -2.7,3.3 -1.4,0 -3,-0.3 -3.6,1.9 0.3,0.2 0.5,0.4 0.8,0.5 1,0.4 2.5,-0.8 3.1,0.8 0.6,1.6 -1.1,2.2 -1.7,3.4 -0.8,1.9 -5.5,0.8 -3.7,5.4 0.5,1.2 -3.7,4.1 -6.5,4.8 -1.6,0.4 -2.9,0.9 -4.1,2.1 0.8,0.3 1.5,0.5 2.3,0.8 -4,2.6 -8.6,2.2 -13.5,3.3 3.5,2.4 6.5,0 10.3,0.5 -4.8,2.6 -8.9,2.8 -13.1,1.3 -0.9,-0.3 -1.6,-1 -2.5,-0.4 -0.3,0.2 -0.4,1 -0.3,1.4 0.4,1.3 1.6,0.6 2.4,0.7 3.5,0.6 7,1 10.4,1.7 1.2,0.2 1.9,1.2 1.6,2.4 -0.7,2.1 -2.1,0.2 -2.4,-0.1 -2,-2 -4.4,-1.4 -6.7,-1.5 -1.9,-0.1 -3.9,0.5 -5.8,-0.6 -0.8,-0.5 -2.4,0.5 -2.5,1.2 -0.5,2.1 1.8,-0.1 2.3,1.3 -1.5,0.9 -3.1,0.2 -5.1,0.7 1.8,-2.3 1.5,-3.5 -0.9,-4.2 -2.7,-0.8 -5.1,-2.4 -7.8,-3.1 -1.8,-0.5 -4.1,0.3 -4.6,2.1 -0.4,1.5 1.3,2.6 3.2,2.6 1.7,0 2.4,1.8 3.9,2.3 l 0.1,-0.1 c -2.1,0 -4.3,0.3 -6.4,0 -1,-0.2 -1.1,0 -1.1,0.7 0,2.6 4.6,5.5 6.9,4.2 1.7,-1 2.8,-3.7 5.1,-2.5 2.5,1.3 4.6,3.6 5.6,6.2 1.3,3.7 4.4,6.4 5.4,10.2 1.2,4.2 3,8.3 2.7,12.8 -0.2,2.5 0.4,4.9 0.3,7.3 0,4.5 -1.8,8.7 -2.1,13.5 3.3,-4 3.4,-5.1 3.4,-23.8 0,-7.8 -3.4,-14.4 -8.2,-21.4 5,1.3 5.1,4.9 6.8,7.2 1.4,1.8 1.2,5.5 5,4.9 1,5.7 1.8,11.4 4.2,16.9 1.7,4 2.9,8.3 1.4,12.8 -0.9,2.9 1.3,5 2.4,7.5 -0.6,-2.5 -1.3,-5 0.1,-7.5 0.8,-1.3 -0.9,-2.4 -1.2,-3.6 -2,-8.8 -5.9,-17 -6.9,-26 -1.5,-2.5 -2.1,-5.3 -3.2,-9.1 5.4,5.3 5.6,12 8.9,17.7 0.9,-3.1 0.4,-5.7 -0.7,-8 -2.1,-4.4 -4.7,-8.5 -7,-12.8 -1.1,-2 -2.2,-2.5 -4,-0.4 0.5,-1.7 1,-3 0.8,-5.4 8.9,7.8 10.8,18.5 15.4,28.8 0.6,-1.8 1.2,-2.7 0,-3.2 -1.5,-0.6 -1.6,-2.7 -1.3,-3 2.4,-3.3 0.1,-5.7 -1.3,-8.2 -2.1,-3.8 -2.1,-8 -3,-12 -0.2,-1 -1,-5.2 3.2,-3.7 0.1,0 0.4,-0.1 0.5,-0.2 2,-1.6 2.1,-1.7 2.5,-1 0.9,1.5 3,2.8 0.3,4.9 -2.3,1.8 -1.1,7.4 1.7,9.7 4.2,3.4 4.2,3.4 4.3,6.8 -1.1,-0.4 -1,-2.7 -2.7,-1.9 -1.9,0.9 -0.4,2.4 -0.2,3.4 0.8,3.2 2.4,6.3 2.9,9.5 0.5,3.2 0.1,6.6 0.1,10.4 -2.1,-1.5 -1.5,-4.6 -4.4,-4.9 -0.5,2 -0.7,3.6 0.7,5.6 1.6,2.3 2.5,5 -0.1,7.4 -0.3,0.3 -0.9,0.6 -0.6,1.2 4.8,7.8 3.7,16.1 1.1,24 -2.8,8.4 -2.2,15.4 6.9,20.9 -4.6,0.7 -6.5,-1.8 -8,-3.9 -1.7,-2.4 -2.2,-5.4 -3.1,-8.3 -0.9,-2.8 0.2,-5.7 -0.9,-8.6 -4.7,4.6 -3.2,9.5 -1.8,14.6 1.5,5.7 0.5,11.2 -2.6,16.4 -1.5,-1.4 -0.4,-2.9 -1.2,-4.3 -3.9,5 -4.7,10.5 -2.7,16.2 2.2,6.2 5.5,11.9 11.6,15.4 3.5,2 4,1.9 7.4,-1.1 -0.3,3.6 -2.7,4.8 -5.3,5.9 -2.5,1 -4.8,0.1 -6.4,-1.3 -2.8,-2.5 -4.8,-5.5 -6.1,-9.4 -2.2,-6.5 -3.6,-13.1 -5.7,-20.4 -1.7,8.3 1.7,15 4,22.5 -4.8,-2.3 -5.6,-6.1 -6.9,-9.7 -2.7,-7.9 0.3,-15.2 2.4,-22.6 1,-3.6 3.2,-7.2 2.9,-10.7 -0.2,-2.3 -0.6,-5.1 0.7,-6 2.3,-1.6 2.6,-4 3.7,-6.1 0.3,-0.6 1.4,-1.8 -0.1,-2.2 -1,-0.2 -2.2,1.1 -2.1,1.8 0.5,3 -1.9,4.4 -3.2,6.8 -1.8,-6.7 1.2,-12 4,-17.5 -0.9,1.8 -2.9,2.2 -3.8,4.1 -0.8,1.8 -2.3,2.7 -1.9,5.3 0.8,5.4 -2.1,10.3 -1.6,15.6 1.3,0.1 1.6,-0.8 2,-1.8 0.2,4.1 -1.5,7.6 -2.7,11.2 -2.1,6.5 -3.4,13.1 -3.3,20 0.1,5.7 3.6,10.9 8.8,13.1 1.6,0.7 2.8,1.7 3.5,3.4 1.9,4.1 5.1,6.2 9.7,5.8 3,-0.3 4.9,0.9 6.3,3.6 0.9,1.8 2.7,3.2 3.7,5.1 0.9,1.6 1.1,3.6 1.9,6.1 -4.6,-2 -6.4,-7.1 -11.4,-8.5 0.4,2.8 2.6,3.9 4,5.3 3.5,3.7 3.9,7.9 2.5,12.4 -1.4,-0.8 -1.8,-2.3 -2.8,-3.4 -0.6,-3.8 -2.4,-6.4 -5.8,-8.6 -3.7,-2.4 -6.7,-5.7 -8.8,-9.7 1.5,3.3 4,5.9 6.5,8.4 3.1,3.1 6.5,6 8.4,10.1 1.1,0.2 1,2.1 2.8,2.2 z"
   class="st0" />
		<path
   id="path6948"
   d="m 86.1,143.1 c -0.1,2.6 -1.2,1.9 -2.6,1.4 -6.1,-2.4 -12.6,-3.2 -19,-4.4 -5.2,-1 -10.2,-2.5 -15.6,-2.7 -2.7,-0.1 -5,0 -7.3,1.2 -2.1,1.1 -4.3,1.7 -6,-0.1 -1.9,-2 -0.7,-4.1 0.8,-6 6.3,-8.1 15,-8.6 24.1,-7.2 6.6,1 13.1,3.2 19.9,3.6 2.2,0.1 3.8,0.8 3.4,3.5 -0.7,4 1.4,7.4 2.3,10.7 z"
   class="st0" />
		<path
   id="path6950"
   d="m 136.5,140.7 c -4.3,-0.7 -8.2,-3.7 -13.9,-2.5 4.8,1.7 8.8,3.1 12.9,4.5 4.1,1.4 7.1,4.4 9.8,7.6 1.3,1.6 1.4,2.8 -1.4,3.8 -4.9,1.8 -9,-0.5 -13.1,-2 -3.4,-1.2 -6.5,-2.4 -10.2,-2.2 -5.3,0.2 -10.3,-1.7 -15.3,-2.8 -4,-0.9 -6.8,-5.6 -9.7,-9.1 -1.6,-2 -3.6,-4 -2.2,-7 8.6,0.5 17.2,1.9 26,2.1 5.1,0.1 10.2,1 15.2,1.6 1.1,0.1 2.4,1.6 1.6,1.9 -3.8,1.6 1.5,2.7 0.3,4.1 z"
   class="st0" />
		<path
   id="path6952"
   d="M 58,105.6 C 52.7,101.1 45.2,98.4 42.6,90.8 39.7,82.6 45.1,70.6 54.3,67.9 c 2.6,-0.8 5.7,0.3 6.4,1.8 1.2,2.7 1.2,6.3 -0.6,9.1 -4.2,6.7 -4.5,13.9 -3,21.4 0.3,1.9 3,2.9 0.9,5.4 z"
   class="st0" />
		<path
   id="path6954"
   d="m 103.7,97.1 c -3.3,3.5 -5.9,6.9 -8.1,10.5 -4.9,8.1 -5.8,16.9 -5.5,26 0.1,2.9 2.1,4.9 4,6.9 1.8,2 3.7,3.8 5.6,5.7 0.5,0.5 1.1,1.1 0.6,1.6 -0.3,0.4 -1.2,0.3 -1.8,0.3 -6.7,-0.4 -9.1,-4.2 -11.2,-10.6 -4.8,-14.6 4.1,-33.2 14.9,-40.7 0.1,0 0.2,0.1 1.5,0.3 z"
   class="st0" />
		<path
   id="path6956"
   d="m 118.8,99.7 c 3.2,2.6 3.3,6.1 2.5,9 -3,11.6 -14.8,16.6 -25,13.9 -2.6,-0.7 -2.1,-2.3 -2.2,-3.9 -0.1,-1.9 0.8,-2.6 2.6,-2.6 2,0 4.1,-0.9 5.9,-0.3 5.3,1.7 9.4,-0.8 13.4,-3.5 4.8,-3.2 2.7,-8 2.8,-12.6 z"
   class="st0" />
		<path
   id="path6958"
   d="m 100.5,129 c -1.6,0.1 -3.9,-0.2 -6.2,-0.7 -1.6,-0.4 -2.3,-0.7 -1.5,-2.2 0.5,-1 0.5,-2.1 2.6,-1.4 5.8,1.8 11.8,2.4 17.1,-1.6 0.7,-0.5 1.6,-0.8 2.2,-0.2 0.9,0.8 -0.2,1.3 -0.6,1.9 -3.2,4.6 -8.1,4.1 -13.6,4.2 z"
   class="st0" />
		<path
   id="path6960"
   d="m 75.6,121.4 c 0.4,-1.5 -1.2,-4.4 2.5,-4.5 3.1,-0.1 5.7,3 5.5,6.7 -0.1,1.2 1.5,3.6 -1.3,3.7 -3.8,0.1 -6.7,-2.5 -6.7,-5.9 z"
   class="st0" />
		<path
   id="path6962"
   d="m 71,124.9 c -4.7,0 -5.6,-1.1 -4.2,-5.1 0.6,-1.6 1.4,-3 1.9,-4.6 0.6,-1.9 1.9,-1.9 3.4,-1.3 1.4,0.6 2.4,1.1 1.4,3.1 -0.7,1.5 -0.5,3.7 -0.3,5.5 0.2,2.1 -0.5,2.8 -2.2,2.4 z"
   class="st0" />
		<path
   id="path6964"
   d="m 86.8,113.2 c -0.5,0.7 -1.1,1.1 -1.3,1.7 -0.3,1.1 -0.3,2.9 -1.6,2.7 -1.7,-0.3 -3.2,-1.4 -4.7,-2.4 -0.5,-0.3 -0.5,-1.2 0.5,-1.4 0.3,-0.1 0.5,-0.1 0.8,0 2,0.1 3.8,-1.7 6.3,-0.6 z"
   class="st0" />
		<path
   id="path6966"
   d="m 60.9,145.1 c -1.7,-0.3 -2.8,-1.2 -2.9,-3 -0.1,-0.8 0.6,-1.4 1.2,-0.9 1.3,1.2 4.2,0.4 4.3,2.9 0,1.7 -1.7,0.6 -2.6,1 z"
   class="st0" />
		<path
   id="path6968"
   d="m 69.8,146.6 c -2,0.3 -2.4,-1.6 -2.8,-2.7 -0.3,-0.7 0.9,-1.5 1.9,-1.2 1.5,0.4 2.6,1.3 2.6,3 0.1,1.3 -1,0.9 -1.7,0.9 z"
   class="st0" />
		<path
   id="path6970"
   d="m 77.3,144.2 c 0.9,0.3 2.4,-0.6 2.3,1.3 -0.1,1.3 -0.8,2.1 -2,1.9 -1.1,-0.2 -2.8,-0.3 -2.7,-2.1 0,-1.8 1.6,-0.7 2.4,-1.1 z"
   class="st0" />
		<path
   id="path6972"
   d="m 206,116 c 0.7,0.4 2.5,-0.3 2.1,0.8 -0.6,1.8 -2.6,1.9 -4.8,1.5 1.3,-0.8 2.4,-1.2 2.8,-2.4 0,0 -0.1,0.1 -0.1,0.1 z"
   class="st0" />
		<path
   id="path6974"
   d="m 177.8,167.6 c -0.5,-0.9 -0.9,-1.8 -0.9,-2.9 0,-1.9 0.9,-2.7 2.3,-1.6 5.7,4.6 12.7,7.1 18.2,11.8 1,0.8 2.2,1.6 2,3.2 -0.2,2.1 1.5,1.6 2.4,1.4 1.4,-0.3 0.6,-1.4 0.4,-2.3 -1.3,-6.9 -6.9,-8.7 -12.5,-10.4 -1.1,-0.3 -1.9,-0.7 -2.7,-1.5 -0.7,-0.6 -0.9,-1.5 -0.5,-2.2 0.6,-0.9 1.7,-0.7 2.4,0.1 2.9,3 7.2,3.3 10.5,5.6 0.7,0.5 2.1,0.3 3.1,0.3 0.8,-0.1 2.2,0.7 2.2,-0.8 0,-1 -0.9,-1.5 -2,-1.5 -2.2,-0.1 -3.6,-1.9 -5.6,-2.3 -1.1,-0.2 -1.4,-0.7 -0.8,-1.6 0.5,-0.6 1,-1.2 2,-0.6 5.8,3.5 12.3,4.5 18.9,5 2,0.1 3.2,-3 2.6,-4.1 -1.4,-2.5 -0.4,-5 -0.5,-7.1 -1.5,-1.1 -3.5,3.4 -4.3,-1.1 -0.1,-0.8 -2.3,-0.7 -3.3,-0.1 -1.2,0.6 -1.9,0.7 -2.7,-0.9 3.2,0.6 5.5,-2.1 8.6,-1.8 1.4,0.1 2.1,-1.2 1.6,-2.6 -0.4,-1.1 -0.9,-1.7 -2.6,-1.6 -2,0.2 -3.9,1.9 -6.9,0.1 6,-1.1 7.2,-5.6 8.3,-10.1 1.2,1.7 3.3,3.3 3.5,5 0.5,5.3 1.4,10.8 -0.1,16.1 -0.3,0.9 -0.6,1.8 -0.4,2.7 1.2,6.2 -3.4,9.5 -6.4,13.7 -0.5,0.7 -0.6,0.5 -1.1,0.1 -0.7,-0.7 -0.7,-1.3 0,-2 1.4,-1.2 2.5,-2.4 1.6,-4.1 -2.4,2 -4.8,4.1 -7,6 -0.3,-1.6 2.6,-2 2.6,-3.9 0,-0.9 0.9,-2.1 -0.4,-2.5 -0.8,-0.2 -1.9,-0.6 -2.4,1.2 -0.3,1.4 -1,4.6 -3.6,1.4 -0.4,-0.5 -2,-0.6 -2.5,0.3 -0.6,1.1 0.2,1.4 1.3,2.1 3.8,2.2 3.9,4 0.6,6.7 4.6,-0.3 1.4,2.7 2.1,4.1 3.2,-1.2 5,-4 7.8,-5.8 -1,3 -3,5.4 -5.9,6.8 -1,0.5 -1.7,1.3 -2.6,1.6 -1,0.3 -1.9,0.7 -1.8,1.8 0.1,1.1 1.4,1 2.1,1.4 0.9,0.5 1.8,0 2.4,-0.9 0.2,-0.3 0.2,-0.8 0.4,-1.1 0.7,-0.6 0.4,-2.3 2,-1.9 0.3,0.1 0.8,0.3 0.9,0.5 0.2,1.1 -1,1.4 -1.5,2.2 -1.5,2.9 -6.2,3.2 -5.9,7.8 0.1,1.3 -2.1,0.7 -3.4,0.4 0,0 0,0.1 0,0 1.7,-1.4 1.7,-3.8 2.6,-5.6 0.9,-1.8 -1.4,-1 -2.3,-1.4 l 0.1,0.1 c -0.6,-2.3 1.6,-3.4 2.2,-5.2 0.2,-0.7 0.5,-1.6 -0.4,-2 -0.7,-0.3 -1.2,0.4 -1.6,0.9 -1.4,1.9 -3.1,3.4 -6,4.2 0.8,-1.3 1.2,-2 1.7,-2.8 0.2,-0.2 0.4,-0.3 0.6,-0.5 -0.2,0.2 -0.3,0.4 -0.5,0.6 -6.3,0.2 -1.9,-4.6 -3.7,-6.9 1.6,0 1.3,1.8 2.5,1.7 0.6,-4.5 -0.3,-5.9 -4.6,-7.4 -3.6,-1.2 -6.2,-3.9 -9,-6.2 -0.6,-0.5 -0.9,-0.7 -1.1,-0.1 -1,2.5 -2.3,0.5 -3.4,0.3 z"
   class="st1" />
		<path
   id="path6976"
   d="m 206.5,99 c 3,-2 4.7,1 7.6,2.2 -1,-3.2 -1.4,-5.3 -5.3,-4.1 -2.2,0.7 -5.1,0.8 -7.9,0 2.6,-2.4 6.9,-2.9 11,-1.5 0.3,0.1 0.9,0 1,-0.2 0.3,-1.2 0.4,-2.4 -0.1,-3.5 -0.7,0.4 -1.1,-1.3 -2.2,-0.1 -1.4,1.6 -3.3,2.5 -5.5,0.3 1.5,-0.8 3.1,-0.2 4.2,-2.2 0.9,-1.6 3.1,-2.9 5.5,-3.2 0.4,-0.1 4.6,-0.2 1.5,-3 -0.4,-0.4 -0.2,-1.6 1,-1.6 5,-0.2 7.8,-3.4 10.6,-7.1 5.4,-7.3 13.5,-9.7 22,-11.3 2.9,3.5 6,-1.3 9.1,0.2 0.6,0.3 0.7,0.8 1.2,1 -5.1,0.9 -10.1,1.8 -15.2,2.7 -0.6,0.1 -1.5,0 -1.3,1 0.2,0.9 1.2,0.9 1.6,0.6 1.6,-0.9 3.1,-1 5.7,0 -4.6,1.6 -8.2,2.9 -12.2,3.3 -0.8,0.1 -1.6,0 -2.3,0.3 -0.5,0.2 -1.2,0.8 -0.8,1.6 0.4,0.8 1,0.5 1.6,0 2.3,-2 4.6,-1.2 7.7,0.5 -6.5,-0.6 -9.9,3.6 -15.3,5.5 2.5,1.4 4.4,-1.2 6,1 -2,1.7 -4.4,0.2 -6.4,1.3 -1.6,0.9 -3.5,1.2 -3.3,3.2 0.2,2.3 2.7,0 3.5,1.5 -1.3,0.6 -2.9,0.7 -4,0.1 -2.5,-1.5 -1.8,0.7 -2.2,1.6 -0.9,2 0.7,1.7 1.8,1.9 2.7,0.3 5.2,-0.3 7.7,-1.2 v 0 c 0.4,1.2 1.1,2.9 -0.4,3.4 -0.8,0.2 -3,1.8 -4,-1.1 -0.2,-0.7 -4.5,-0.2 -6.8,-0.1 -0.6,0 -0.5,0.8 -0.5,1.3 0,0.9 0.7,0.9 1.4,1 1.5,0.1 3.1,-0.4 5.6,0.8 -3.9,0 -6.8,0 -9.7,0 -0.8,0 -1.9,-0.6 -2.2,1 -0.2,1.4 1,1.4 1.6,1.8 1.8,1.3 3.7,-0.4 5.9,-0.2 -1.2,2.3 -3.6,2.5 -5.5,3.9 1.8,1.2 3.5,0.3 4.9,0.9 -3.4,2.3 -10,1.8 -13,-1.4 -1.2,-1.2 -2.4,-1.7 -3.8,-2.3 z"
   class="st1" />
		<path
   id="path6978"
   d="m 174,99.9 c -1.8,0.1 -3.7,0.1 -5.5,0.3 -0.6,0.1 -1.1,0.7 -1.9,1.2 3.2,0.2 5.8,1.7 8.5,2.5 2.9,0.9 6,0.9 8.8,2.5 1.3,0.7 3.1,1.4 2.6,2.8 -0.5,1.2 -2.2,0.1 -3.4,0 -3.1,-0.2 -5.8,-2.5 -9.3,-1.8 0.4,2.3 2.7,1.6 3.7,2.7 -2.8,1.3 -5.8,-1.8 -7.5,-0.7 -1.8,1.2 -2.8,3.9 -5.4,4.9 -5.3,2 -10.1,0.5 -12.5,-4.5 -0.7,-1.4 -1.9,-2 -3.4,-1.9 -2.4,0.2 -4.6,-1.2 -7,-0.9 -0.6,0.1 -2.3,-0.3 -2.3,-1.6 0.1,-1.2 1.2,-1.5 2.4,-1.5 1.8,-0.1 3.7,0.3 5.6,-0.3 2.5,-0.8 5.1,-0.7 6.2,-4.3 0.6,-1.8 3.9,-2.1 6.4,-1.7 -0.6,1.2 -2.5,0.3 -2.7,2.1 2.9,0.2 5.5,-2.2 8.4,-1.1 2.6,1.2 5.6,0 8.3,1.3 z"
   class="st1" />
		<path
   id="path6980"
   d="m 173.8,132.3 c -0.3,2.7 -2.5,2.9 -4.2,2.5 -8,-2 -14.8,-5.3 -20.4,-12.3 -3.7,-4.5 -5.9,-9.9 -10.3,-13.8 0.2,-0.3 0.5,-0.6 0.7,-0.9 3.4,2.1 7.1,3.9 10,6.5 3.8,3.3 7.1,6.6 12.7,4.4 -7.2,5.2 -11.5,-0.6 -16.7,-4 4.4,4.6 7.6,10.1 12.2,14.6 1.2,-1.8 -1,-2.8 0.4,-4.4 3.8,5.5 9.2,7.9 15.8,7.5 z"
   class="st1" />
		<path
   id="path6982"
   d="m 227.5,171 c 4.2,-3.1 5.2,-1 6.1,1.4 1.3,3.6 2.9,7.2 1.6,11.9 -2.9,-4.1 -1.2,-8.9 -3.9,-12.2 -1.3,1.6 -3.1,3.3 -3.9,5.7 -0.2,0.6 -1,1.5 -1.9,0.8 -0.5,-0.4 -0.4,-1.2 -0.1,-1.8 1.5,-2.8 1.4,-2.7 0,-4.8 -0.5,-0.7 -0.2,-1.7 0.1,-2.6 1.5,-5 3.2,-10 3,-15.2 -0.1,-3.9 -1.4,-7.8 -0.8,-11.6 4.8,8.6 2.8,17.9 -0.2,28.4 z"
   class="st1" />
		<path
   id="path6984"
   d="m 150.9,97.3 c -0.1,4.2 -3.7,3.5 -6.1,4.2 -1.2,0.3 -2.6,-0.7 -4.1,0.4 0.6,-2.1 2.6,-1.8 3.1,-3.2 -4.7,-4.8 -3.8,-8.2 2.9,-10.9 4.7,-1.9 9.5,-2.2 14.6,-2.1 -2.3,1.4 -5.7,1.3 -6,4.9 0,0.1 -0.5,0.3 -0.6,0.2 -3.1,-3.4 -5.4,-0.3 -7.8,1.1 -1,0.6 -3,0.7 -2.8,2.4 0.2,1.7 2,2.4 3.4,2.9 1,0.4 2.3,0.1 3.5,0.1 z"
   class="st1" />
		<path
   id="path6986"
   d="m 208.6,261 c -4.7,-0.5 -6.1,-4.1 -7.1,-6.9 -1.3,-3.8 -2.1,-7.8 -3.4,-11.7 -2.5,-7.2 0.9,-13.8 4.3,-20.1 1.1,-2.1 2.5,-4 3.4,-6.1 0.4,-0.9 0.8,-1.5 1.6,-1.1 1.7,0.6 0,1.1 -0.3,1.5 -1.7,3.1 -3.3,6.3 -5.3,9.3 -3.2,4.8 -2.3,10.1 -2.4,15.3 2.6,-1 1.7,-4.2 4.6,-6.7 -3.2,10.1 -2.7,18.7 4.6,26.5 z"
   class="st1" />
		<path
   id="path6988"
   d="m 147.1,135.5 c 1.6,0.4 3.8,0.2 4.8,1.2 2,2 3.6,4.4 6.3,5.4 -1.1,2.8 -0.3,4.7 2.5,5.7 0.1,0 -0.2,0.7 -0.2,1.1 -0.1,1.3 -3.2,0.4 -2,1.4 3.1,2.5 1.5,6.6 4.1,9.4 2.2,2.3 4.6,4.2 7,6.6 -2.6,1.2 -4,-1 -4.9,-2 -4.6,-4.8 -9.3,-9.6 -9.5,-16.9 0,-0.9 -0.1,-1.7 -0.9,-2.1 -2.2,-1.1 -2.3,-1.6 0.3,-2.1 1.2,-0.2 0.1,-1.1 -0.1,-1.8 -0.6,-1.5 -5,0.3 -3,-3.5 -0.9,-0.2 -1.9,-0.1 -2.6,-0.6 -0.7,-0.5 -1.6,-1 -1.7,-2.1 z"
   class="st1" />
		<path
   id="path6990"
   d="m 229.6,135.1 c 1,4.1 3.8,7.7 2.9,12.2 -0.1,0.3 0.2,0.8 0.4,1 3.4,2.9 2.6,7.2 3.8,10.9 0.4,1.2 0.4,2.7 2.2,3.3 0.9,0.3 1.2,1.8 0.5,2.4 -3,2.1 -1.4,4.3 -0.6,6.8 0.4,1.2 0.4,2.8 -0.6,4.6 -1.7,-3.5 -3,-6.7 -4.7,-9.6 -1.2,-2.1 1.6,-2.2 1.5,-3.9 -0.2,-3.1 -0.2,-6.3 -1.6,-9.1 -2,-4 -3,-8.2 -3.3,-12.6 -0.2,-2.1 -3,-3.9 -0.5,-6 0,-0.1 0,0 0,0 z"
   class="st1" />
		<path
   id="path6992"
   d="m 143.2,231.9 c -0.9,0 -1.9,0 -2.8,0 1.3,-5.5 5.4,-9.5 7.3,-14.6 0.2,-0.6 0.2,-3.7 2.3,-0.9 0.6,0.8 1.9,-0.8 2.3,-1.6 1.7,-3.1 4.3,-5.9 4.5,-9.8 0,-0.4 0.6,-0.8 1.5,-1.8 0,9 -6.9,13.3 -10.1,19.9 1.6,-1 3.3,-2 4.9,-3 -1.8,2.7 -3.6,5.2 -6.9,6.3 -2.4,0.8 -4.4,2.5 -3.3,5.6 z"
   class="st1" />
		<path
   id="path6994"
   d="m 246.5,276.6 c -0.6,0.4 -1.5,0.6 -1.8,0 -2.8,-6.2 -9.2,-9.3 -12.8,-15 -1.1,-1.7 -2.3,-3.2 -1.7,-5.5 2.9,1.5 3,5.2 5.6,6.9 2.4,1.7 4.1,4.2 7,5.6 2.7,1.4 4.3,4.5 3.7,8 z"
   class="st1" />
		<path
   id="path6996"
   d="m 208.7,204.6 c -3.4,1 -3.6,4.6 -6.9,6.1 2.4,-5.1 7,-8.2 6.3,-13.7 -0.1,-1 -1.2,0.9 -2.1,-0.2 0.8,-0.7 1.2,-2.5 2.7,-1.7 0.8,0.5 1,2.2 1.2,3.5 1.2,7.3 -4.6,11.9 -6.5,18 -0.3,1 -1.6,1.3 -2.1,1.1 -0.7,-0.4 -0.3,-1.3 0.2,-2.1 2.4,-3.4 4.6,-6.9 7.2,-11 z"
   class="st1" />
		<path
   id="path6998"
   d="m 94.6,89.3 c 0.4,1.6 -1.5,1.7 -1.9,1.7 -4.5,-0.1 -7.2,2.1 -9,6 -0.7,1.6 -2.4,2.7 -4.5,2.9 0.3,-2.2 3.5,-2.2 3.3,-4.9 -4.4,1 -7.6,5.1 -13,4.6 8.3,-4.6 16.1,-8.9 25.2,-10.3 z"
   class="st1" />
		<path
   id="path7000"
   d="m 197.4,61.8 c -5.4,1.1 -10.5,2.5 -15,5.7 -0.4,0.3 -1.3,0.3 -1.9,0.1 -0.2,-0.1 -0.5,-1.1 -0.3,-1.3 1.7,-2.1 3.1,-4.5 5.4,-6.1 0.3,0.2 0.5,0.4 0.8,0.7 -0.4,0.6 -0.8,1.3 -1.7,2.9 4.5,-3.2 8.7,-1.6 12.7,-2 z"
   class="st1" />
		<path
   id="path7002"
   d="m 205.7,160.1 c 2.2,-1.3 3.4,-0.1 4.7,1 1.6,1.2 3.4,2.4 4.6,-0.6 0.2,-0.5 0.8,-1.1 1.8,-0.9 0.3,1.1 1,2.4 0.8,3.5 -0.7,3.5 -4,2.2 -5.6,1.8 -2.4,-0.7 -4.6,-2.5 -6.3,-4.8 z"
   class="st1" />
		<path
   id="path7004"
   d="m 115,252.4 c 5.1,-4.4 5.8,-11.1 8.8,-17.2 1.3,5.3 -3.5,14.7 -8.8,17.2 z"
   class="st1" />
		<path
   id="path7006"
   d="m 100.2,91.6 c -5,0.6 -8.4,3.6 -11.9,6.7 -0.4,0.3 -0.6,1.2 -1.5,0.5 -0.8,-0.7 0,-1 0.1,-1.5 0.7,-2.7 2.2,-4 5,-4.5 2.6,-0.6 5.3,-1.8 8.3,-1.2 z"
   class="st1" />
		<path
   id="path7008"
   d="m 96.6,260.6 c 5.2,-4.9 9.9,-9.2 13.1,-16 0.5,5 -7.4,14.1 -13.1,16 z"
   class="st1" />
		<path
   id="path7010"
   d="m 172.3,93.3 c -0.4,-1.2 0.6,-1.4 2.2,-1.6 -4.5,-1.2 -7.8,0.1 -11.1,0.2 -0.7,0 -1.9,0.3 -1.6,-1 0.2,-1 1,-0.2 1.5,-0.2 2.9,0.2 5.5,-1.6 8.6,-1.3 2.4,0.2 4.6,0.3 6.3,2.2 -1.9,0.6 -3.8,1.1 -5.9,1.7 z"
   class="st1" />
		<path
   id="path7012"
   d="m 177.7,167.5 c 0.4,2 -1.5,2.1 -2.2,1.6 -3.5,-2.7 -8,-4.6 -9,-9.6 0,-0.2 0.2,-0.4 0.5,-0.9 2.4,2.7 4.6,5.4 7.2,7.7 1.1,0.9 2.1,1.5 3.5,1.4 0.1,-0.1 0,-0.2 0,-0.2 z"
   class="st1" />
		<path
   id="path7014"
   d="m 172.1,222.5 c 0.1,-2.7 2.3,-3.4 3.4,-4.6 1.9,-2.1 4.2,-3.8 4.6,-6.8 0.2,-1 0.9,-2 1.9,-1.6 1,0.4 0.6,1.5 0.1,2.4 -2.5,4.1 -5,8.2 -10,10.6 z"
   class="st1" />
		<path
   id="path7016"
   d="m 102.7,258.2 c 4.9,-2.4 7.8,-6 9.9,-10.5 0.3,-0.7 0.9,-1.5 1.8,-1.3 0.6,0.1 0.6,0.8 0.6,1.3 -0.3,3 -8.4,10.2 -12.3,10.5 z"
   class="st1" />
		<path
   id="path7018"
   d="m 179.9,198.9 c 1.9,6.3 -0.8,12.5 -5.8,13.6 3.2,-4.3 6.3,-8.2 5.8,-13.6 z"
   class="st1" />
		<path
   id="path7020"
   d="m 228.2,215.6 c 2.3,-0.4 1.5,-2.2 1.9,-3.6 1.1,-3.4 2.1,-6.8 2.7,-10.9 1.3,4.7 -0.2,8.7 -0.5,12.7 -0.1,2 -2.2,2.4 -4.1,1.8 z"
   class="st1" />
		<path
   id="path7022"
   d="m 133.6,182.4 c -1.2,2.6 -2.8,4.1 -4.6,5 -1.1,0.5 -2.2,0.4 -2,2.2 0.2,1.9 -1.3,1.2 -2.2,1.3 -0.7,0.1 -1.6,0.3 -1.7,-1 -0.1,-1.4 1,-1.1 1.7,-1.5 2.8,-1.7 5.5,-3.7 8.8,-6 z"
   class="st1" />
		<path
   id="path7024"
   d="m 94.3,258.3 c 2.6,-3.8 6.4,-5.5 8,-9.2 0.1,-0.2 0.9,-0.3 1,-0.2 0.6,0.7 0.7,1.7 0,2.1 -2.8,2.2 -4,6.4 -9,7.3 z"
   class="st1" />
		<path
   id="path7026"
   d="m 136.8,244 c -0.2,-2.3 1.9,-3.1 3.1,-4.3 2.1,-2 4.5,-3.7 7.1,-5.1 -3.4,3.1 -6,7.1 -10.3,9.3 z"
   class="st1" />
		<path
   id="path7028"
   d="m 175.3,195.7 c 1.7,2.9 0.2,5.7 -0.2,8.5 -0.1,0.5 -0.7,1.2 -1.5,1 -0.9,-0.2 -0.9,-1.1 -0.6,-1.6 1.4,-2.4 1.4,-5.2 2.3,-7.9 z"
   class="st1" />
		<path
   id="path7030"
   d="m 129,119.9 c 4.4,-3.2 6.7,0.8 9.7,1.4 -3.2,0.9 -5.9,-1 -9.7,-1.4 z"
   class="st1" />
		<path
   id="path7032"
   d="m 72.3,91.9 c 2.2,-2.9 5.3,-4.3 9.8,-5.6 -3.1,3.7 -6.6,4.5 -9.9,5.5 0,-0.1 0.1,0.1 0.1,0.1 z"
   class="st1" />
		<path
   id="path7034"
   d="m 141.4,248.6 c -1,-4.2 2.9,-4.7 4.9,-6.6 0.6,-0.6 0.9,0 1.2,0.3 0.6,0.6 0,1.1 -0.3,1.2 -2.7,0.8 -3.6,3.8 -5.9,5 z"
   class="st1" />
		<path
   id="path7036"
   d="m 83.4,237.6 c 2.3,-2.1 4.6,-4.2 6.9,-6.3 0.5,-0.5 1.2,-1.5 1.9,-0.7 0.8,0.9 -0.6,1 -0.9,1.5 -1.8,2.7 -4.8,4 -6.9,6.5 -0.3,-0.4 -0.7,-0.7 -1,-1 z"
   class="st1" />
		<path
   id="path7038"
   d="m 176,154.3 c 4.4,0.3 7.3,1.9 10.2,3.3 -3.3,0 -6.6,-0.4 -10.2,-3.3 z"
   class="st1" />
		<path
   id="path7040"
   d="m 196.4,60.1 c 2.1,-0.7 3.9,-1.2 5.7,-1.8 1,-0.4 1.4,0.4 2,0.9 -1,1 0.9,1.6 0.5,2 -0.5,0.4 -1.9,0.4 -2.2,0 -1.8,-2 -4,0.3 -6,-1.1 z"
   class="st1" />
		<path
   id="path7042"
   d="m 169.5,87.9 c -3.6,-1.9 -6.5,3 -10.3,1.3 3.4,-2.8 6.9,-2 10.3,-1.3 z"
   class="st1" />
		<path
   id="path7044"
   d="m 187.3,55.7 c -1.8,2.7 -4.4,4 -7.7,3.8 2.4,-1.6 4.7,-3.6 7.8,-3.6 0.1,-0.1 -0.1,-0.2 -0.1,-0.2 z"
   class="st1" />
		<path
   id="path7046"
   d="m 107.7,202.8 c 2.2,-3 5.7,-3.3 8.7,-4.5 -2.6,2.2 -5.4,3.9 -8.8,4.4 -0.1,0 0.1,0.1 0.1,0.1 z"
   class="st1" />
		<path
   id="path7048"
   d="m 80.5,108.2 c 2.4,-1.4 3.8,-4.3 7.4,-4.1 -2.3,2.3 -4.4,4.1 -7.4,4.1 z"
   class="st1" />
		<path
   id="path7050"
   d="m 201,190.8 c -0.6,3.4 -3.1,4.3 -6,4.7 2.6,-0.7 2.6,-5 6.1,-4.6 0,0 -0.1,-0.1 -0.1,-0.1 z"
   class="st1" />
		<path
   id="path7052"
   d="m 176,236.6 c 1.2,-2.3 2.5,-4.6 3.9,-7.3 0.8,4 -0.8,6.1 -4,7.2 0,0 0.1,0.1 0.1,0.1 z"
   class="st1" />
		<path
   id="path7054"
   d="m 206.4,98.9 c 0.1,3.4 -1.1,3.8 -5.3,2 1.1,-2.7 4.2,0.4 5.5,-1.9 -0.1,0 -0.2,-0.1 -0.2,-0.1 z"
   class="st1" />
		<path
   id="path7056"
   d="m 148.4,229.9 c -0.5,-3.6 3.1,-3.5 4.7,-5.1 -0.9,2.3 -2.3,4.1 -4.7,5.1 z"
   class="st1" />
		<path
   id="path7058"
   d="m 185.2,153.8 c 3,-1.5 5.2,0.7 7.5,0.3 0.1,0 0.3,0.5 0.2,0.6 -0.2,0.3 -0.6,0.7 -0.7,0.7 -2,-1.1 -4.5,0.1 -7,-1.6 z"
   class="st1" />
		<path
   id="path7060"
   d="m 185.1,82.4 c -0.7,0.8 -1.4,1.6 -2.1,2.3 -0.6,0.6 -0.4,2.5 -2,1.2 -1.5,-1.2 0.5,-1.6 0.7,-2.4 0.6,-2.2 2.3,-1 3.6,-1 -0.1,0 -0.2,-0.1 -0.2,-0.1 z"
   class="st1" />
		<path
   id="path7062"
   d="m 232.9,86.8 c 2.5,-0.6 4.7,-2.5 8.6,-1.6 -3.6,1.2 -5.9,2.3 -8.6,1.6 z"
   class="st1" />
		<path
   id="path7064"
   d="m 143.1,232 c 2,-0.1 2.6,-3.7 5.2,-2.1 0,0 -0.1,-0.1 -0.1,-0.1 -1.6,1.3 -3.3,2.4 -4.8,3.8 -1.1,1.1 -1.5,-0.3 -2.2,-0.4 l 0.1,0.1 c 0.3,-0.9 1.8,-0.3 1.8,-1.5 0.1,0.1 0,0.2 0,0.2 z"
   class="st1" />
		<path
   id="path7066"
   d="m 174,132.4 c -0.1,-0.8 -1.7,-1.6 -0.8,-2.3 1.8,-1.3 2.9,1.2 4.7,1.1 -1.3,1.4 -2.7,0.8 -4,1.1 -0.1,0 0.1,0.1 0.1,0.1 z"
   class="st1" />
		<path
   id="path7068"
   d="m 179.8,224.6 c -1.1,0 -1.3,-0.5 -1.2,-1 0.4,-1.5 0.6,-3.1 2.3,-3.7 0.6,-0.2 0.9,0.3 0.9,0.9 -0.1,1.7 -2.2,2.2 -2,3.8 z"
   class="st1" />
		<path
   id="path7070"
   d="m 209,181 c -0.9,-0.2 -0.8,-0.9 -0.6,-1.2 0.9,-1.5 2.4,-2.2 3.8,-3.1 0.1,-0.1 1,0.7 0.6,1.1 -1.2,1.2 -2.6,2.2 -3.8,3.2 z"
   class="st1" />
		<path
   id="path7072"
   d="m 141.3,248.5 c 0.6,2.4 -0.2,4.1 -3,5.4 0.5,-2.5 1.2,-4.3 3.1,-5.3 0,0 -0.1,-0.1 -0.1,-0.1 z"
   class="st1" />
		<path
   id="path7074"
   d="m 220.5,213 c 1.7,-2.2 1.6,-5 2.9,-7.3 -0.3,2.7 0.1,5.7 -2.9,7.3 z"
   class="st1" />
		<path
   id="path7076"
   d="m 86,154.9 c 2,-0.1 3.7,-0.8 4.7,1 0.3,0.5 0,0.9 -0.6,1.2 -1.9,0.7 -2.5,-1.2 -4.1,-2.2 z"
   class="st1" />
		<path
   id="path7078"
   d="m 141.5,125.1 c -0.6,1.1 -1.6,0.7 -2.4,0.6 -1,-0.1 -1.8,-0.8 -1.5,-1.9 0.3,-0.8 1.4,-0.5 2.1,-0.5 1.1,0.1 1.6,0.8 1.8,1.8 z"
   class="st1" />
		<path
   id="path7080"
   d="m 110.6,159 c -1.8,0.8 -3.1,1 -4.2,-0.5 -0.4,-0.5 -0.3,-1.1 0.3,-1.3 1.5,-0.4 2.6,0.6 3.9,1.8 z"
   class="st1" />
		<path
   id="path7082"
   d="m 152.8,163.6 c -0.2,1 -1,0.8 -1.6,0.7 -1.1,-0.2 -1.7,-1 -1.6,-2.2 0,-0.6 0.4,-1.1 0.9,-0.9 1.1,0.5 1.9,1.2 2.3,2.4 z"
   class="st1" />
		<path
   id="path7084"
   d="m 122.2,196.1 c -1.3,1.3 -2.6,2.1 -4.4,2 1.6,-2.3 1.6,-2.3 4.4,-2 z"
   class="st1" />
		<path
   id="path7086"
   d="m 94.7,89.4 c 1.7,-1.3 3.5,-1.9 5.8,-1.1 -1.8,2 -3.9,1.2 -5.8,1.1 -0.1,-0.1 0,0 0,0 z"
   class="st1" />
		<path
   id="path7088"
   d="m 177.4,224.9 c -1.4,2.4 -2,2.8 -4.7,3 1.6,-1 3.2,-2 4.7,-3 z"
   class="st1" />
		<path
   id="path7090"
   d="m 238.3,155.7 c 1.3,0.7 2.5,1.5 2.1,3.2 0,0.2 -0.8,0.6 -0.8,0.5 -1,-1 -1.9,-2 -1.3,-3.7 z"
   class="st1" />
		<path
   id="path7092"
   d="m 228.1,215.5 c 0.3,2 1,4.1 -0.9,6 -1,-2.3 0.5,-4 1,-5.9 0,0 -0.1,-0.1 -0.1,-0.1 z"
   class="st1" />
		<path
   id="path7094"
   d="m 240.5,183.6 c -0.8,1.7 1.3,2.6 0.3,4 -0.1,0.1 -1,-0.2 -1.3,-0.5 -1.2,-1.3 -0.8,-2.4 1,-3.5 z"
   class="st1" />
		<path
   id="path7096"
   d="m 248.7,279.9 c -0.7,0.3 -1.3,0.7 -2,1 -0.2,-1.4 -1.1,-2.8 -0.2,-4.3 0,0 -0.1,0.1 -0.1,0 0.6,1.3 2.3,1.7 2.2,3.4 0,0.1 0.1,-0.1 0.1,-0.1 z"
   class="st1" />
		<path
   id="path7098"
   d="m 65.8,91.8 c 1.1,-1.5 2.6,-2.2 5,-2.4 -1.8,1.3 -2.9,3.2 -5.1,2.3 0,0 0.1,0.1 0.1,0.1 z"
   class="st1" />
		<path
   id="path7100"
   d="m 75.1,152.3 c 1,0 1.2,0.4 1.3,1.2 0,1.1 -0.6,1.3 -1.5,1.2 C 74,154.6 74,154 74,153.3 c 0,-0.9 0.5,-1.1 1.1,-1 z"
   class="st1" />
		<path
   id="path7102"
   d="m 141.3,233.2 c 0.3,0.6 0.4,1.3 -0.1,1.8 -0.6,0.6 -1.4,1.1 -2.1,1.6 -0.1,0 -0.7,-0.4 -0.7,-0.6 0.1,-1 0.8,-1.5 1.7,-1.8 0.5,-0.1 0.8,-0.6 1.2,-0.9 0.1,0 0,-0.1 0,-0.1 z"
   class="st1" />
		<path
   id="path7104"
   d="m 192.7,57.6 c -0.9,1.9 -2.8,1.4 -4.1,2.1 0.8,-2 2.7,-1.5 4.1,-2.1 z"
   class="st1" />
		<path
   id="path7106"
   d="m 114.2,193.5 c 2,0 3.5,-1.9 5.7,-0.5 -2,0.1 -3.5,1.9 -5.7,0.5 z"
   class="st1" />
		<path
   id="path7108"
   d="m 146.3,162.4 c 0,1 -0.5,1.3 -1,1.1 -0.7,-0.2 -1.4,-0.7 -2,-1.1 0.5,-0.4 1,-1.2 1.4,-1.1 0.7,0.1 1.2,0.8 1.6,1.1 z"
   class="st1" />
		<path
   id="path7110"
   d="m 95.6,156.9 c -1.1,0.2 -2.2,0.6 -3,-0.3 -0.1,-0.1 0.1,-0.9 0.3,-0.9 1,-0.4 2,-0.2 2.7,1.2 z"
   class="st1" />
		<path
   id="path7112"
   d="m 240.2,80.3 c -1.3,-0.2 -2.2,1.6 -3.6,0.7 -0.1,-0.1 -0.2,-0.6 -0.1,-0.7 1.2,-0.8 2.5,-0.4 3.7,0 z"
   class="st1" />
		<path
   id="path7114"
   d="m 147.2,135.3 c -1.4,0.2 -2.3,-0.3 -2.4,-1.8 0,-0.2 0.3,-0.5 0.5,-0.5 1.5,0.1 2,1 1.8,2.4 0,0.1 0.1,-0.1 0.1,-0.1 z"
   class="st1" />
		<path
   id="path7116"
   d="m 204.2,54.8 c -1.2,1.3 -2.7,0.8 -4.2,0.6 1.2,-0.8 2.9,0.1 4.2,-0.6 z"
   class="st1" />
		<path
   id="path7118"
   d="m 104.9,210 c 0.4,-1.5 1.6,-1.5 2.9,-2.1 -0.3,2.1 -1.9,1.6 -2.9,2.1 z"
   class="st1" />
		<path
   id="path7120"
   d="m 100.4,212.5 c 0.8,-1 1.5,-2 2.9,-2.1 -0.6,1.2 -1.1,2.7 -3,2 0,0 0.1,0.1 0.1,0.1 z"
   class="st1" />
		<path
   id="path7122"
   d="m 205,73.3 c -1,1.2 -2.2,0.9 -4.4,0.8 1.9,-0.9 3.3,-0.4 4.4,-0.8 z"
   class="st1" />
		<path
   id="path7124"
   d="m 193.8,57 c 1.3,-0.5 2.4,-0.8 3.9,-1.4 -1.5,1.6 -1.5,1.6 -3.9,1.4 z"
   class="st1" />
		<path
   id="path7126"
   d="m 136.7,243.9 c 0.3,1.5 -0.5,2.1 -2.4,2.8 0.8,-1.5 0.5,-3.1 2.5,-2.7 0,0 -0.1,-0.1 -0.1,-0.1 z"
   class="st1" />
		<path
   id="path7128"
   d="m 118,162.1 c 2.2,-0.4 2.4,1.3 3.8,1.7 -2.3,1 -2.5,-0.9 -3.8,-1.7 z"
   class="st1" />
		<path
   id="path7130"
   d="m 200.4,43 c -0.7,1 -1.5,1.9 -3.1,1.2 1,-0.8 1.8,-1.7 3.2,-1.1 0,0 -0.1,-0.1 -0.1,-0.1 z"
   class="st1" />
		<path
   id="path7132"
   d="m 151,97.4 c 1,-0.5 1.9,-1 3.2,-1.7 -0.6,2.3 -1.9,2 -3.2,1.7 -0.1,-0.1 0,0 0,0 z"
   class="st1" />
		<path
   id="path7134"
   d="m 232.9,90 c 0.9,-0.3 1.9,-1 2.7,0.1 0.1,0.1 0,0.6 -0.1,0.7 -1.3,1 -1.7,-0.7 -2.6,-0.8 0,-0.1 0,0 0,0 z"
   class="st1" />
		<path
   id="path7136"
   d="m 90.3,160.9 c -0.9,0.3 -1.8,0.6 -2.5,-0.2 -0.1,-0.2 0.1,-0.9 0.3,-1 1.2,-0.4 1.6,0.7 2.2,1.3 -0.1,0 0,-0.1 0,-0.1 z"
   class="st1" />
		<path
   id="path7138"
   d="m 115.3,142.9 c 5.7,2 11.7,2.3 17,5 -5.1,2.3 -9.4,-1.3 -14,-2 -2.1,-0.2 -1.8,-2.3 -3,-3 z"
   class="st1" />
		<path
   id="path7140"
   d="m 142.6,151.8 c -2.2,1.2 -9.1,0.4 -10.1,-1 -0.2,-0.3 -0.5,-0.6 -0.1,-0.9 0.4,-0.3 0.9,-0.8 1.3,-0.7 2.8,0.7 5.7,1.6 8.9,2.6 z"
   class="st1" />
		<path
   id="path7142"
   d="m 132.9,144.9 c 3.6,-0.1 6,2.7 9.1,3.7 -3.4,-0.2 -6.6,-1.1 -9,-3.8 z"
   class="st1" />
		<path
   id="path7144"
   d="m 107.1,139.9 c 2.8,-4.7 6.1,2.2 8,0 -1.9,0 -4.7,0 -8,0 z"
   class="st1" />
		<path
   id="path7146"
   d="m 112.8,135.8 c 3,0.5 5.9,1 9.2,1.5 -4,0.8 -5,0.7 -9.2,-1.5 z"
   class="st1" />
		<path
   id="path7148"
   d="m 133,144.8 c -2.8,0.9 -4.8,-1.4 -7.2,-1.8 2.7,-0.7 5.2,-0.5 7.1,1.9 0,0 0.1,-0.1 0.1,-0.1 z"
   class="st1" />
		<path
   id="path7150"
   d="m 108.4,142.1 c 1.7,-0.4 2.9,-0.5 3.9,0.6 -1.4,1.4 -2.5,0.7 -3.9,-0.6 z"
   class="st1" />
		<path
   id="path7152"
   d="m 109.5,145.3 c 1.1,-0.2 2.2,-0.7 3,0.3 0.1,0.1 -0.2,1 -0.3,1 -1.1,0 -1.8,-0.7 -2.7,-1.3 z"
   class="st1" />
		<path
   id="path7154"
   d="m 50.7,88 c 1.6,-2.2 -1,-6.4 3.1,-8.8 0.8,-0.5 1.4,-1.2 2.1,-0.7 1,0.7 -0.3,1.3 -0.4,1.9 -0.6,3.7 -4.4,7.1 -0.9,11.2 0.7,0.9 0.1,2.1 -1.1,2.6 -1.2,0.5 -1.7,0.1 -2.1,-1.3 -0.5,-1.4 -0.8,-2.8 -0.7,-4.9 z"
   class="st1" />
		<path
   id="path7156"
   d="M 49.6,77.7 C 46,82.5 46.9,88 46.6,93.2 44.5,91.7 43,85.1 44.5,81.8 c 0.9,-1.9 1.2,-5.3 5.1,-4.1 z"
   class="st1" />
		<path
   id="path7158"
   d="m 197.1,186.1 c -0.1,-1.1 -0.4,-2.4 1.8,-3.3 -0.7,1.4 1,3.3 -1.9,3.2 0,0 0.1,0.1 0.1,0.1 z"
   class="st0" />
		<path
   id="path7160"
   d="m 158.3,101.6 c 5.2,0 9.1,2.3 9,5 -0.1,2.6 -4.3,6.5 -7,6.2 -3.5,-0.4 -7,-2.3 -6.8,-6.9 0.2,-3.8 1.8,-4.9 4.8,-4.3 z"
   class="st0" />
		<path
   id="path7162"
   d="m 158.6,108.8 c 0.9,-1.1 2.1,-2.1 2,-2.6 -0.5,-1.5 -0.6,-2.5 1.1,-2.9 0.8,-0.2 1.5,0.7 1.6,1.5 0.1,1.4 1.7,2.6 -0.3,4.2 -2.8,2.1 -5.3,2.1 -6.8,-0.8 -0.3,-0.6 -1.5,-1.3 -0.5,-2.4 0.6,-0.7 1.2,-1 2.1,-0.8 1.4,0.3 0.6,1.5 0.8,2.3 -0.1,0.3 -0.1,0.8 0,1.5 z"
   class="st1" />
	</g>
</g>
</svg>
