<?xml version="1.0" encoding="UTF-8" standalone="no"?>
<svg
   xmlns:dc="http://purl.org/dc/elements/1.1/"
   xmlns:cc="http://creativecommons.org/ns#"
   xmlns:rdf="http://www.w3.org/1999/02/22-rdf-syntax-ns#"
   xmlns:svg="http://www.w3.org/2000/svg"
   xmlns="http://www.w3.org/2000/svg"
   xmlns:sodipodi="http://sodipodi.sourceforge.net/DTD/sodipodi-0.dtd"
   xmlns:inkscape="http://www.inkscape.org/namespaces/inkscape"
   inkscape:version="1.0 (4035a4f, 2020-05-01)"
   height="294.08871"
   width="250"
   sodipodi:docname="fox-sejant.svg"
   xml:space="preserve"
   viewBox="0 0 250 294.08871"
   y="0px"
   x="0px"
   id="Layer_1"
   version="1.1"><metadata
   id="metadata16909"><rdf:RDF><cc:Work
       rdf:about=""><dc:format>image/svg+xml</dc:format><dc:type
         rdf:resource="http://purl.org/dc/dcmitype/StillImage" /><dc:title></dc:title></cc:Work></rdf:RDF></metadata><defs
   id="defs16907" /><sodipodi:namedview
   inkscape:current-layer="Layer_1"
   inkscape:window-maximized="0"
   inkscape:window-y="25"
   inkscape:window-x="0"
   inkscape:cy="162.99846"
   inkscape:cx="126"
   inkscape:zoom="2.52"
   fit-margin-bottom="0"
   fit-margin-right="0"
   fit-margin-left="0"
   fit-margin-top="0"
   showgrid="false"
   id="namedview16905"
   inkscape:window-height="480"
   inkscape:window-width="820"
   inkscape:pageshadow="2"
   inkscape:pageopacity="0"
   guidetolerance="10"
   gridtolerance="10"
   objecttolerance="10"
   borderopacity="1"
   bordercolor="#666666"
   pagecolor="#ffffff" />
<style
   id="style16776"
   type="text/css">
  .st0{fill:#FFFFFF;}
  .st1{fill:#000000;}
</style>
<g
   transform="translate(-24,-37.001536)"
   id="g16902">
	<g
   id="g16900">
		<path
   id="path16778"
   d="m 42.8,66.4 c -2.4,4.6 -6.4,6.4 -7.3,10.3 6.5,0 7.1,-7.4 12.2,-9.4 -1.8,2.4 -3.7,4.9 -5.9,7.8 8.3,-3.9 16.8,-4.4 24.8,-7.1 10.6,-3.6 19.1,-9.3 23.4,-20.2 1.6,-4.2 4.3,-7.5 8.3,-9.8 3.3,-1.9 4.6,-1.1 4.6,2.5 0,4.1 -0.2,8.2 1.4,12.2 7.7,-3.3 13.5,-10.2 22.3,-12.6 0.9,9.4 0.6,18.6 -2.9,27.3 -1.2,3.1 -1,5.7 0.5,8.4 3.4,6.1 5,12.5 4.7,19.6 -0.4,9.2 0,18.3 -0.1,27.5 -0.1,3.4 0.5,6.6 2.1,9.3 6.2,10.2 10.9,21.1 14.8,32.3 5.1,14.6 13.8,27.5 20.6,41.4 4,8.2 8.4,16.2 12.3,24.4 6.7,14.2 11.8,29 14.5,44.6 1.4,7.9 1.9,17 10.7,21.7 9.4,5 21.1,1.8 26.2,-9.1 4,-8.7 2.4,-17.1 1.1,-25.8 -2.1,-14.2 -8.4,-27.2 -11.6,-41.2 -2.9,-13 -2.5,-25.6 1.5,-38.1 1.9,-6.1 3,-12.4 6.6,-18 4.5,-6.9 11.1,-11.6 17.6,-16.1 2.9,-2.1 4.2,-5.4 8.4,-8.2 2.5,23.7 10.3,46 5.8,69.9 3.8,-1.1 3.8,-1.1 7.5,-0.4 -4.6,6.4 -3.4,13.4 -1.7,20.1 2.4,9.5 3.5,19.1 4.5,28.7 0.3,2.9 -1.4,5.5 -2.1,8.2 2.5,0.6 2.8,-1.9 6.4,-2.8 -5.8,7.6 -3.6,15.9 -6,23.3 1.8,0.7 2.7,-1.2 4.6,-2.2 0.2,4.8 -2.2,8.5 -4.1,12 -8.9,16.3 -22,27.8 -40.1,32.9 -8.2,2.3 -16.4,1.5 -23.7,-2.2 -7.9,-4.1 -16.2,-3.2 -24.1,-2.5 -6.3,0.6 -12.7,0.9 -19.1,1.4 -11.9,0.9 -24,0.6 -36,0.2 -10.5,-0.3 -21,0.1 -31.5,-1.8 -3,-0.5 -2.6,-2 -2.1,-3.7 1.7,-5.8 6.9,-9.8 13.1,-9.4 6.3,0.5 12,-2.8 18.7,-2.1 -3.5,-5.3 -9.1,-7.6 -12.2,-12.6 -8.2,-12.7 -8.8,-34.8 -0.5,-47 4.2,-6.2 10.6,-8.8 18.3,-9.8 -2.1,-2.2 -4.5,-2.4 -6.4,-2.4 -5.6,0 -11.1,-0.2 -16.2,-2.7 -2.7,-1.3 -2.5,1.5 -2.7,2.2 -2.6,7.7 -5.3,15.5 -7.1,23.4 -1.2,5.3 -2.8,10.6 -4.3,15.8 -3.5,11.8 -3.6,24.6 -9.9,35.6 -3.5,5.9 -6.4,13.2 -14.2,14.2 -7.9,1 -16,0.6 -23.9,0.2 -3.3,-0.1 -5.3,-4.7 -3.3,-7.6 2.2,-3.3 4.5,-6.8 8.5,-8.6 3.1,-1.4 5.3,-3.8 7.1,-6.6 5,-8.1 7,-16.9 8.3,-26.4 2.6,-19 1.4,-38 1.6,-57 0.1,-11.6 -3.1,-22.9 -4.4,-34.3 -0.5,-4.5 -0.8,-8.7 0.5,-13.1 3.4,-11.3 5.5,-23.1 11.7,-33.5 3,-5.1 5.9,-10.2 7.4,-16.1 C 84.9,112.5 77.6,96.9 63.1,95.6 51.3,94.5 38.9,95.3 28.2,88.6 26.5,87.6 24,87 24,84 c 0,-3 2.4,-4 4.4,-4.7 6.3,-2 8.1,-8.9 14.4,-12.9 z"
   class="st1" />
		<path
   id="path16780"
   d="m 260.6,249.6 c 2.2,0.8 2.3,-2.1 4.7,-2.3 -1.8,3.8 -2.2,7.7 -1.9,11.7 0,0.4 -0.5,1.1 -0.2,1.7 1.8,3.3 0.6,8.5 -2.6,11.1 -5.3,4.3 -5.3,4.3 -7.4,11.4 L 253,283.1 V 283 c 4.2,-3.1 6.6,-8.1 11.1,-10.9 1.1,-0.7 1.6,-2.1 4.1,-2.4 -2.9,3.1 -5.4,5.7 -6.2,8.9 -1,3.9 -6.8,2.5 -7.1,6.9 1.4,1 1.9,-0.2 2.6,-0.8 0.5,-0.4 0.9,-1 1.7,-0.6 2.5,1.2 2.7,1.2 4.6,-2.5 0.6,-1.1 1,-2.2 1.9,-3.2 -0.8,6.5 -2.8,12.4 -6.6,18.1 -2.8,4.2 -9.1,5.1 -10,10.9 -1.8,-0.3 -3,1 -4.4,1.8 1.4,-0.8 2.6,-1.8 4.3,-1.9 7.3,-3.2 12.6,-8.9 17.3,-15.1 -4,10.8 -16.8,25.2 -24.1,27.7 -0.2,-1.5 2.2,-1.6 1.2,-3.6 -4,0.6 -7,3.8 -10.7,5.2 -3.9,1.5 -8.2,0.2 -12.9,0.8 4,5.7 9.1,0.9 13.4,2.3 -5.4,1.5 -10.1,4.8 -16.5,2.7 -6.5,-2.2 -13.2,-3.9 -19.4,-7 -9.7,-5 -12.5,-10.9 -9.8,-21.5 1.2,-4.6 -1.4,-12.1 -5.2,-14.8 -1,2.3 0.4,5.4 0.9,6.3 2.9,5 0.5,9.3 -0.2,14 -0.6,4.4 1.7,8.4 4.4,11.9 1.2,1.6 2.9,2.8 4.1,4.6 -3.6,-1.3 -6.6,-3.4 -8.7,-6.5 -0.4,-0.5 0.5,-1.9 -0.8,-1.7 -0.8,0.2 -1.5,1 -1,2.3 1,2.3 2.7,3.8 6.2,5.7 -5.6,0.6 -9.7,1.1 -13.8,1.5 -4.5,0.4 -9.1,-0.9 -13.5,1.8 -2.2,1.4 -5.7,0.3 -7.8,-0.2 -6.5,-1.6 -12.7,0.6 -19,0.5 -3.7,-0.1 -5.1,-1.1 -3.7,-5.4 -4.5,5.4 -10.7,3.7 -16.1,5.5 -0.4,-4.7 4.9,-4.4 6.1,-8 -6.4,-0.4 -8.3,9.3 -16.1,6.2 6.5,-4.1 10.9,-10.5 20,-8.6 5,1 10.3,1.1 15.4,2.2 4.4,0.9 8.9,0.1 13.2,-1.1 6.2,-1.8 12.3,-3.3 18.7,-2.8 1.1,0.1 1.9,-0.2 2.8,-1.4 -1.1,-1 -3.1,-0.6 -3.8,-2.1 -0.2,-0.4 -0.9,-1.1 -1,-1 -7,3.8 -6.8,-4.6 -10.6,-6.3 -0.6,1.7 -0.6,3.2 0.8,4.5 1.1,1 3.1,2.5 1.3,3.9 -1.4,1.1 -3.7,0.9 -5.3,-1 -1.4,-1.7 -1.5,-1.6 -2.6,0.8 -0.4,1 -3.6,0.8 -5.1,-0.5 -2.6,-2.3 -4.2,-5.4 -6.2,-8.1 -0.5,-0.6 -1,-2.6 -2.5,-1 -1.3,1.3 0.4,1.6 0.8,2.2 1.7,2.6 3.5,5.1 6,8.8 -8.4,-4.3 -10.7,-11.7 -14.1,-17.5 -0.9,4.6 0.9,8.8 8,17 -6.6,-2.8 -10.6,-6.5 -10.7,-14.1 -2.1,3.7 -1.7,5.7 1.3,11.8 -5.9,-3.1 -6.1,-9.3 -7.7,-14.8 1.8,-0.8 2,1.6 3.4,1.3 0,-1.9 0,-1.9 -5.7,-5.4 0.3,4.8 1.4,9.1 3.5,14.5 -7.9,-7.2 -5.9,-14.2 -2.2,-21.4 -5.8,4 -6.9,7.9 -4.3,15.7 -1.2,-0.9 -2.3,-1.4 -2.7,-2.2 -6.1,-13.2 -9,-26.5 -2.2,-40.4 2.7,-5.5 14.6,-11.3 23,-9.2 4.5,1.1 9,2.3 13.4,3.6 8.2,2.3 10.2,10.3 15.7,15 1.7,1.4 -0.8,3.7 1.1,5.1 0.5,0.4 1,1 1.6,1.1 0.8,0.1 1,-0.5 1.1,-1.3 0.2,-2.7 0.4,-5.4 0.6,-8.1 3.1,0.4 2.4,3.4 3.4,5.1 -1,-1.8 -0.1,-4.7 -3.4,-5.1 -0.8,-0.4 -0.3,-1.2 -0.6,-1.7 -1,-1.5 -1.1,-4.4 -3.7,-3.7 -1.8,0.4 1,2.7 -0.8,3.7 -2.4,-1.2 -1.6,-3.8 -2.2,-5.7 -1.2,-3.8 -0.5,-8.1 -7,-7.8 -1.9,0.1 -3.9,-4.2 -5.9,-6.4 -0.6,-0.7 -0.2,-2.1 -2.2,-2.3 -1.3,0.3 0.7,2.5 -1.1,3.3 -0.7,-3.2 -3.8,-5 -4.4,-8.3 -2.4,2.8 -3.3,2.1 -6.5,-5.2 -0.9,5 0.6,9 4.1,12.6 -5.1,-1.7 -8.8,-5.4 -12.4,-9.3 -2.3,2.6 2,3.1 0.8,5 -2.4,-0.3 -3.7,-2.2 -5.3,-3.7 -1,1.2 -1.2,-5.6 -2.8,-0.3 -0.2,0.7 -1.5,0.4 -1.6,-0.7 -0.1,-2.5 -2.7,-3.5 -3.5,-6 0.8,3.7 -2.7,3.2 -3.9,4.8 -0.3,0.4 -1.7,0.4 -1.5,-0.4 1.1,-4.6 -5.9,-9.9 1,-14.1 0.6,-0.4 0.2,-0.7 -0.2,-1.3 -2.2,-3.4 -3.3,-7.2 -3,-11.4 -1.8,1.5 -1.8,1.5 -2.4,3.3 -1.1,-1.5 0.4,-4 -2.3,-4.5 -1.4,4.7 2.6,9.7 -0.8,14.3 -0.6,-1.1 -1.2,-2.2 -1.8,-3.3 -3.1,2.1 -0.9,3.9 0.7,5.8 -1.6,0.9 -3,-1.3 -4.1,0.3 0.9,2.7 4.3,2.4 5.8,5.1 3,5.3 0.5,9.9 -0.8,14.6 -4.1,14.9 -8.9,29.5 -12,44.6 -1.4,6.8 -3.6,13.4 -4.8,20.2 -1.3,7.2 -5.8,13.9 -11.8,18.4 -4.8,3.6 -11.3,2.7 -17.6,2.5 3.1,-4.8 6.9,-8 13.1,-7.7 -6.6,-1.9 -10.9,0.9 -14.5,5.5 -0.8,1 -2,1.6 -3.2,2.2 -0.9,0.4 -1.5,-0.3 -2.1,-1 -0.7,-0.9 0.3,-1.2 0.7,-1.5 2.8,-2.1 4.3,-5.6 8.3,-6.6 9.4,-2.4 12.4,-10.7 15.5,-18.4 2.9,-7.3 3.5,-15.1 4.1,-22.8 0.7,-7.9 1.4,-16 3.1,-23.7 1.9,-8.4 1,-17.1 3.3,-25.6 0.5,0.8 0.8,1.6 1.3,2 1.1,0.7 1.6,3.2 3.1,2 1.5,-1.1 0.5,-2.7 -0.9,-3.8 -0.6,-0.5 -1.4,-1.1 -0.3,-2.6 2.7,4.9 9,6.7 9.9,13 0.1,0.7 1.4,1.2 2.2,1.9 0.4,-0.7 0.8,-1.3 1.1,-2 1.1,-2.6 2.6,-5.3 -0.5,-7.6 -0.1,-0.1 -0.3,-0.1 -0.5,-0.1 3,-6.6 -6.8,-4.8 -6.1,-9.9 -0.8,3.7 1.3,6.4 2.6,10.1 -4,-1.3 -5.7,-4 -7.1,-6.7 -0.6,-1 -0.8,-2.3 -2.1,-2.4 -2,-0.2 1.5,3 -1.6,2.3 -4.8,-11.5 -10.8,-23.2 -2.8,-36.2 -1.1,0.9 -2.2,1.8 -3.5,2.9 0,-2.1 1.7,-3.7 0.6,-5.7 -1,-1.2 -1.1,5.3 -2.8,0.5 -0.6,-1.7 -1.3,0 -1.6,0.3 -0.7,0.7 0.1,1.4 0.4,2.1 2.3,7.6 1.5,14.8 -2.3,21.8 -1.5,2.8 1.1,4 2.5,5.2 3.6,3 5.6,7.3 4.8,11.3 -0.9,4.4 0.5,8.7 -1.2,13 -2,-1.1 -2.6,-3.5 -3.9,-5.4 -0.5,-0.7 -1.2,-1.5 -2,-1.1 -1,0.6 -0.9,1.8 -0.3,2.6 1,1.3 2.2,2.5 3.5,3.5 2.2,1.7 2.7,3.8 1.7,6.9 -1.9,-2.7 -3.8,-5 -4.9,-8.1 -2.5,4 0.8,6.5 2.6,7.8 4.7,3.5 2,7.7 1.6,11.3 -0.8,7.8 -2.4,15.4 -2.9,23.2 -0.6,11.2 -3.2,22 -10.2,31.2 -0.8,1.1 -1.7,2.4 -2.8,2.8 -6.3,2.3 -11.8,5.6 -15.7,11.3 3.1,-3.5 4.2,-8.3 9.4,-10.2 6.8,-2.5 8.7,-9.5 11.2,-15.6 3,-7.1 3,-14.9 4,-22.4 2,-14 0.7,-28.2 1,-42.2 0,-2.3 2,-4.5 -0.3,-7 3.6,1 4.7,4 7.3,6 -0.6,-5.4 -8.2,-7.6 -5.6,-13.8 1.3,0.1 1.6,1.7 2.6,1.9 1.2,0.3 0.3,3.3 2.2,1.9 2.1,-1.5 0,-2.6 -1,-3.4 -6.8,-5.7 -6.5,-13.6 -7.3,-21.6 1.4,0.8 1.1,1.7 1.1,2.5 -0.1,1.8 0.8,3.1 1.8,4.3 0.1,0.1 0.9,-0.2 1.2,-0.5 1.6,-1.5 1.3,-3.4 0.6,-5 -1.1,-2.5 -2.7,-4.8 -0.9,-7.8 0.5,-0.8 1.9,-2.2 0,-3.3 -0.7,1.7 -3.5,-1 -3.7,1.8 0,0.8 0.2,1.7 -1.4,1.8 -2,-4.2 2,-6.4 3.9,-9.3 -2.9,-1.4 -2.9,1.2 -4.8,2.3 1.4,-6.7 1.7,-13.1 6.4,-18 1.4,-1.5 1.8,-3.3 2.9,-4.9 0.3,-0.5 0.3,-1.8 0.4,-1.8 6,-0.3 5.6,-5.5 7.4,-9.8 -5.2,3.5 -8.6,7.9 -11.5,13 -0.4,-0.3 -0.7,-0.5 -1.1,-0.8 0.9,-1.7 1.5,-3.6 2.6,-5.1 2.7,-3.6 1.8,-8.3 4,-12.2 1.8,-3.3 6.2,-2.9 7.2,-6.7 -1.7,-0.8 -2,2.2 -3.7,1.1 0.6,-3.9 7.3,-3.4 6.4,-8.6 -0.9,0.6 -1.7,1.1 -3.5,2.3 4.6,-9.8 2.7,-18.4 -1.2,-27.1 4.1,3.3 7.4,8.1 13.7,6.4 -1.1,-2.5 -4.4,-1.9 -5.8,-4.5 3.7,0.3 6.2,3.2 9.9,3.9 -1.1,-3.1 -5.4,-2.1 -5.9,-5.6 3.1,0.3 5.2,3.6 8.7,2.3 -0.8,-1.2 -3,-0.2 -3.4,-2.4 4,-2.6 9.7,1.5 13.8,-3.2 -3.5,0.8 -6.4,1.2 -9.6,0.1 -1.5,-0.5 -4,-1.7 -5.6,1.2 -0.9,1.7 -2.6,0.2 -3.9,-0.3 -1.8,-0.8 -3.8,-1.4 -5.7,-2.1 -0.1,2.2 2.7,1.5 2.6,3.4 -1.1,1.1 -2.8,1.1 -3.5,0.3 -3.8,-3.8 -10.4,-2.6 -13.3,-7.9 -1.1,-2.1 -2.8,1 -4.4,0.3 -6.4,-3 -13.9,-0.5 -20.7,-5 7.8,0 14.7,0.7 21.3,3.9 -1.3,-5 -7.8,-9.5 -13,-9 -0.6,0.1 -1.6,0.1 -0.4,0.9 2,1.4 -0.3,2 -0.6,1.9 -5.6,-0.9 -11.9,2.5 -17,-2.5 0.9,1.1 1.8,2.1 2.9,3.4 -2.5,0.2 -3.7,-2.1 -5.9,-2.4 -2,-0.3 -2.5,-3 -2.8,-4.8 -0.3,-2 2,-1.4 3.2,-1.9 11.7,-5 23.7,-6.7 34.9,-11.1 5.7,-2.2 11.2,-4.9 16.7,-7.3 2.9,-1.2 5.7,-2.3 9,-1.4 1,2.4 -2.7,1.5 -2.2,4.4 10.7,-5.3 17.3,-16.3 29.3,-19.5 0,6.2 2,12.7 -5.8,17 2.5,0.8 3,-1.8 5.3,-0.6 -2.7,3.7 -6.8,5.4 -10,8.1 2,1.6 2.9,-1.1 4.5,-1.4 0.1,4.4 -6.5,3.8 -5.7,8.4 2.5,-0.2 3.8,-2.2 5.6,-3.7 0.5,3.9 -2.7,4.7 -4.7,6.6 1.3,0.5 2.8,1.5 3.6,1.1 5.7,-3.1 6,1.6 7.5,4.9 3.3,7.4 1.2,15.3 2,23.1 -2.8,-1.4 -1.6,-4.9 -4,-6.3 -0.5,3.4 0,6.4 1.9,9.3 1.2,1.8 1.1,1.9 -0.7,4.7 -0.3,0.5 -0.4,1.3 -0.3,1.9 1.9,8.6 3.8,17.2 9.2,24.4 4.6,6.3 7,13.7 9.7,20.9 3.9,10.5 9.3,20.4 14.4,30.4 11.4,22.5 22.7,45.1 29.8,69.5 2.5,8.6 3.8,17.5 6.6,26.1 2.4,7.3 9.4,12.4 16.7,12.5 1.3,0 3.1,-0.8 3.9,1.2 -0.4,0 -0.5,0 -0.5,0 0.1,-0.1 0.2,-0.2 0.4,-0.2 1.8,-2.2 4.7,-1.5 6.9,-1.9 8.3,-1.6 16,-14.5 16.1,-21.8 0,-4 1.7,-7.9 0.7,-12 -1.5,0.1 0.1,2.1 -1.8,2 0.5,-4.4 0.7,-9 -0.9,-13.4 -0.2,-0.6 -1.6,-3.4 1.8,-2.3 0.5,0.2 0.4,-2.4 -0.9,-2.6 -3.1,-0.6 -2.9,-3.3 -3.9,-5.3 1.3,-0.8 1.6,1.1 2.9,1 -0.8,-4.1 -4.6,-6.4 -5.7,-10.3 3.1,3.2 5.8,6.7 9.9,9.2 -10.7,-12.4 -16.6,-26.6 -16.1,-43 2.6,-0.3 3.2,1.7 3.9,3.4 0.7,1.7 1.1,3.4 2,6.2 0.7,-5.5 -1.2,-10 -4.2,-11.9 -1.9,-1.2 -1.9,-1.2 -0.4,-6 1.4,1.8 0.9,5.1 4.8,5.7 -1.5,-3.9 -0.6,-8.1 -4.3,-10.7 -1,-0.7 -0.2,-1.4 0.1,-2.1 1.6,-5 3.2,-10 4.9,-15.2 2.8,1.7 1.6,5.6 5,6.6 0.2,-1.2 0.3,-2.2 -0.1,-3.5 -0.9,-2.9 -3.4,-5.6 -0.8,-9.2 2,-2.7 2.7,-6 6.1,-7.8 2.3,-1.3 3.9,-3.9 6.4,-5.2 2.3,-1.2 4.2,-2.9 6.6,-5.8 0.2,11.9 -6.5,19.4 -11.9,27.5 5,-4.2 9,-8.9 12.6,-14.5 0.1,0.6 0.4,1.2 0.2,1.6 -0.7,1.7 0.4,1.6 0.7,3.6 0.4,3.3 2.1,6.6 1.1,10.1 -1.5,5.2 -3.3,10.1 -7.6,13.7 -0.7,0.5 -1.3,1.1 -0.7,2.1 -4.2,-1 -0.6,-3.2 -0.7,-4.9 -1.2,2.6 -2.7,2.4 -4.1,0.2 -0.7,-1.1 -0.2,-2.2 0.1,-3.3 1.2,-4 3.8,-7.2 5.3,-10.1 -1.4,2.5 -3.5,5.4 -4.9,8.7 -1,2.4 -1.8,4.5 0.5,6.8 2,2 0.3,4.3 -0.3,6.9 0.9,-2.1 1.2,-4.6 4,-4.4 6.6,-1.8 7.5,-8.1 10.3,-13.6 1.4,11.3 -0.7,20.8 -9,28.4 4.2,-2 7.5,-4.5 8.6,-9.6 0.5,3.3 0.2,3.2 -0.7,5.3 -3.1,7.3 -9.4,13.6 -7.3,23.2 1.7,-7.5 5.4,-13.5 8,-20 1.8,10.1 -7.7,18 -5,28.6 0.9,-8.2 7.1,-13.6 9.3,-21.1 -1.8,9.9 0.2,19.1 2.9,28.2 0.8,2.5 -1.7,2.8 -2,4.6 -0.2,1.3 -2.5,2.2 -0.9,4.1 -0.2,2 -0.4,3.9 -1.4,5.7 1.1,-1.4 1.4,-3.4 1.3,-5.4 z"
   class="st0" />
		<path
   id="path16782"
   d="m 88.5,57.9 c 4.1,-5.6 4.6,-13.5 11.7,-17.9 -0.8,4.1 1.5,7.9 -1.7,11.2 -0.7,0.7 -0.4,2 0.4,1.7 3.1,-1.2 2.4,1.1 2,2.3 -0.3,1.2 -0.7,2.7 -3.1,2 -2.9,-0.8 -6.1,-0.5 -9.3,0.7 z"
   class="st0" />
		<path
   id="path16784"
   d="m 95.1,321.7 c 4.2,-4.6 7.2,-9.1 15,-7.1 -6.6,0.5 -7.7,8.2 -15,7.1 z"
   class="st0" />
		<path
   id="path16786"
   d="m 121.8,56.6 c -5.1,0.6 -3.4,7 -7.3,9.6 -1.3,0.9 -6.4,0.1 -2.9,4.6 0.4,0.4 -3.4,2.1 -4.3,1.6 -2.3,-1.5 -5,-4 -3.2,-6.9 3.3,-5.3 6.4,-10.8 12.6,-13.5 2.3,-1 3.4,0.9 2.9,1.6 -4.1,5.9 2.8,0.3 2.2,3 z"
   class="st1" />
		<path
   id="path16788"
   d="m 78.5,77.6 c -2.6,-0.6 -4.6,-1.9 -7.1,-4.9 9.1,1 17.2,1 25.9,-0.5 -2.4,1.7 -3.2,3.8 -4.4,5.7 -2.7,4.4 -8.6,4 -12.9,-0.8 -0.7,-0.8 -1,-1.2 -1.8,-0.7 -0.1,0 0.1,0.8 0.3,1.2 z"
   class="st1" />
		<path
   id="path16790"
   d="m 197.3,307.2 c 4.2,3.2 5.8,8 10.2,9.8 0.6,0.2 1.6,0.9 1.6,0.9 2.8,-4.5 5.5,0.2 8.2,0.1 1.4,-0.1 4.2,2.3 3.4,-1.9 -0.2,-0.8 0.3,-1.1 1.4,-0.4 2.3,1.4 4.4,1.6 6.7,0 2.9,-2.1 5.7,-3.2 8.7,0 -5.8,1.6 -11.8,3.2 -17.6,5 -1.5,0.5 -2.4,0 -3.6,-0.6 -1.7,-0.8 -3.4,-1.7 -5.5,-0.5 -2.2,1.3 -4,-0.5 -5.5,-1.9 -3,-2.8 -6.6,-5.1 -8,-10.5 z"
   class="st1" />
		<path
   id="path16792"
   d="m 196.2,316.8 c 0.6,0.1 1.8,-0.2 1.6,-0.4 -2.8,-2.2 -4,-5.7 -6.3,-8.5 -1.1,1.8 1.8,3.2 -0.5,5.2 -0.5,-4.7 -3.6,-8.4 -2,-13.2 0.3,-0.9 0.8,-1.7 1.5,-1.7 0.5,0 1.4,1 1.4,1.7 0.5,10.2 6.4,16.5 15.2,20.6 0.2,0.1 0.4,0.5 0.5,0.8 -3.7,0.5 -9.5,-1.9 -11.3,-4.8 z"
   class="st1" />
		<path
   id="path16794"
   d="m 246.4,191.4 c -2.5,1.3 -2.9,4 -4.1,7 -0.8,-4.4 1.2,-8.5 -2.1,-11.9 -1.2,-1.2 1,-3.5 1.8,-5.2 1.5,-3.6 4.4,-8.1 7.9,-11.7 -1.5,5.5 -6.3,8.7 -7,13.9 -0.1,0.6 -0.7,1.1 -0.8,1.7 -0.3,1.4 0.6,2.4 1.7,2.6 1.6,0.3 1.2,-1.2 1.2,-2.1 0,-1.1 0.3,-2 1.7,-2.5 1.1,2.1 -0.6,3.9 -1.2,5.5 -0.6,1.7 -0.1,2.1 0.9,2.7 0,0.1 0,0 0,0 z"
   class="st1" />
		<path
   id="path16796"
   d="m 77.1,304.1 c -0.2,-3.4 2.4,-6 2.5,-7.7 0.2,-3.6 3.3,-4.3 4.3,-6.7 0.3,-0.6 1,-0.9 1.7,-0.5 0.3,0.2 0.5,1 0.4,1.2 -3.4,4.2 -3.9,10 -8.9,13.7 z"
   class="st1" />
		<path
   id="path16798"
   d="m 123.4,222.7 c -8.8,-0.7 -13.1,-6.8 -9.6,-13.8 0.4,3.9 -0.7,7.9 4,9.7 1,-0.2 -0.5,-2.1 1,-2.4 1.5,2 1.7,4.9 4.6,6.5 z"
   class="st1" />
		<path
   id="path16800"
   d="m 248.7,198.7 c 0.7,1.8 -0.2,3 -1.2,4.4 -1.1,1.6 -2.5,3.3 -0.4,5.6 2.3,2.5 -2.9,4 -1.9,5.5 -0.1,-4.6 -2.5,-10.9 3.6,-15.4 z"
   class="st1" />
		<path
   id="path16802"
   d="m 209.6,307.5 c 2.9,-3.5 7.2,-1.7 11,-2.4 0.7,-0.1 1.3,0.1 1.2,0.9 0,0.3 -0.7,1 -0.8,0.9 -4,-1.4 -7.6,4.6 -11.4,0.6 z"
   class="st1" />
		<path
   id="path16804"
   d="m 239.6,314.7 c 4.5,-0.7 7.5,-4.9 12.8,-5.2 -3.2,5.4 -8.3,4.6 -12.8,5.2 z"
   class="st1" />
		<path
   id="path16806"
   d="m 251,273.9 c 2.8,-3.5 4.7,-6.9 6,-10.7 0.2,-0.7 0.3,-1.3 1.2,-1.1 0.3,0 0.6,0.3 0.7,0.5 1.1,2.4 -4.2,10.4 -7.9,11.3 z"
   class="st1" />
		<path
   id="path16808"
   d="m 257.5,227.6 c 1.8,4.7 3,9.7 2.2,14.9 -0.8,-5 -3.1,-9.6 -2.2,-14.9 z"
   class="st1" />
		<path
   id="path16810"
   d="m 168.6,261.5 c 2.6,-1.4 3.1,0.6 3.7,2.3 0.7,2 1.9,4.2 1,6.2 -0.9,1.8 -1.1,-0.2 -1.5,-0.8 -1.9,-2.2 -0.6,-5.8 -3.2,-7.7 -0.1,0 0,0 0,0 z"
   class="st1" />
		<path
   id="path16812"
   d="m 131.8,222.4 c 0,2.4 0,4.8 0,8.5 -0.9,-4.1 -5.5,-3.8 -5.3,-7.8 1.8,-0.1 2.4,1.2 2.7,2.8 1.3,-1.2 0.3,-3.3 2.6,-3.5 z"
   class="st1" />
		<path
   id="path16814"
   d="m 248.8,252.5 c 1.9,-3.4 3.7,-6.7 5.5,-10.1 0.5,3.7 -2.6,9.6 -5.5,10.1 z"
   class="st1" />
		<path
   id="path16816"
   d="m 73.8,168.8 c 1.8,-3.7 4.8,-5.4 8.9,-5.5 -3.3,1.3 -4.9,5.5 -9,5.3 z"
   class="st1" />
		<path
   id="path16818"
   d="m 260.6,249.6 c 1.3,2.6 -0.1,5.1 -0.7,7.6 -0.2,1 -1.1,2.4 -2.5,1.5 -0.9,-0.6 -0.7,-2 0,-2.6 2,-1.7 2.1,-4.3 3.2,-6.4 0.1,0 0,-0.1 0,-0.1 z"
   class="st1" />
		<path
   id="path16820"
   d="m 78.4,77.7 c 0.2,0.9 1.9,1.1 1,2.4 -0.6,0.8 -1.3,1.3 -2.5,0.5 C 76,80 74.8,79.9 73.8,79.4 72.9,79 71,81.5 71.2,78.9 c 0.1,-1.3 2.6,-1.8 3.9,-1.1 1.4,0.8 2.3,2 3.3,-0.1 0.1,-0.1 0,0 0,0 z"
   class="st1" />
		<path
   id="path16822"
   d="m 87.7,112.3 c 3.8,1.4 4,3.4 0.5,7.5 -0.2,-2.6 -0.4,-5.1 -0.5,-7.5 z"
   class="st1" />
		<path
   id="path16824"
   d="m 202.8,304.2 c -0.5,0 -1.4,0 -1.4,0 -0.2,4.7 -1.6,1.2 -2.4,0.3 -0.8,-0.8 -2,-1.3 -2,-3.4 1.9,1.6 5.4,-1.3 5.7,3.2 z"
   class="st1" />
		<path
   id="path16826"
   d="m 73.6,168.6 c 0.9,3.5 0.9,6.6 -3.5,8 0.3,-3.1 2,-5.5 3.6,-7.9 0.1,0.1 -0.1,-0.1 -0.1,-0.1 z"
   class="st1" />
		<path
   id="path16828"
   d="m 116.2,279.5 c 1.1,-2.7 -4.3,-5.5 0.6,-8.2 0.2,2.8 1.9,5.5 -0.6,8.2 z"
   class="st1" />
		<path
   id="path16830"
   d="m 254.1,235.1 c 0.8,2.9 0.4,4.1 -2.5,8.5 -0.2,-2.9 0.3,-4.5 2.5,-8.5 z"
   class="st1" />
		<path
   id="path16832"
   d="m 93.9,83.5 c -2.3,2.6 -5.3,1.1 -7.9,1.4 -0.8,0.1 -1.2,-0.5 -0.9,-1.2 0.1,-0.3 0.9,-0.7 1.1,-0.6 2.4,2 5.2,-1.2 7.7,0.4 z"
   class="st1" />
		<path
   id="path16834"
   d="m 144.3,301.4 c 4.6,2.2 5.4,3 6.6,5.7 -3.3,-1 -4.5,-3.9 -6.6,-5.7 z"
   class="st1" />
		<path
   id="path16836"
   d="m 95.7,242 c -1.8,-3.2 -3.3,-5.7 -4.8,-8.3 1.6,2.7 6.2,3.6 4.8,8.3 z"
   class="st1" />
		<path
   id="path16838"
   d="m 71.1,242.3 c 2.4,1.9 3.4,4.4 4.3,8.1 -3.5,-2.5 -3.1,-5.7 -4.3,-8.1 z"
   class="st1" />
		<path
   id="path16840"
   d="m 90.8,254.8 c 0.1,-2.4 0.2,-4.9 0.3,-7.4 2.7,4 2.6,5.3 -0.5,7.3 z"
   class="st1" />
		<path
   id="path16842"
   d="m 144.2,183.9 c -1.4,-1.9 -1.5,-3.9 -0.4,-6.7 1.9,2.7 0.9,4.7 0.4,6.7 z"
   class="st1" />
		<path
   id="path16844"
   d="m 109.9,218.2 c 1.7,2.6 0.8,5.4 0.7,8.3 -2.6,-2.5 1.1,-5.8 -0.7,-8.3 z"
   class="st1" />
		<path
   id="path16846"
   d="m 95,249.4 c -2.2,-3.1 -3.6,-5.3 -4,-8.9 2.2,2.9 3.9,5 4,8.9 z"
   class="st1" />
		<path
   id="path16848"
   d="m 155.4,198.6 c 0.9,2.5 0.9,4.1 -0.9,5.2 -0.3,0.2 -1.2,0 -1.2,-0.2 -0.4,-1.7 0.9,-2.8 2.1,-5 z"
   class="st1" />
		<path
   id="path16850"
   d="m 249.9,301.1 c 0.1,2.1 -1.2,2.9 -2.6,3.6 -0.1,0.1 -1,-0.8 -1,-0.9 0.6,-1.6 1.5,-2.7 3.6,-2.7 z"
   class="st1" />
		<path
   id="path16852"
   d="m 249.2,307.2 c -2.2,0.9 -3.6,3.8 -7.3,2.2 3.1,-0.1 4.4,-3.6 7.5,-2.1 0,0 -0.2,-0.1 -0.2,-0.1 z"
   class="st1" />
		<path
   id="path16854"
   d="m 202.7,304.3 c 2.5,-1.1 3.9,0.4 5.2,2.3 -2.7,1.3 -3.6,-1.1 -5,-2.4 -0.1,0 -0.2,0.1 -0.2,0.1 z"
   class="st1" />
		<path
   id="path16856"
   d="m 149.5,195.5 c -0.4,-2 -1.3,-4 1,-5.3 1.6,2.2 -1.5,3.4 -1,5.3 z"
   class="st1" />
		<path
   id="path16858"
   d="m 146.5,188.5 c -0.3,-1.5 -1.3,-3.2 0.3,-4.4 0.1,-0.1 0.7,0 0.8,0.2 1.4,1.8 -0.8,2.8 -1.1,4.2 z"
   class="st1" />
		<path
   id="path16860"
   d="m 159.6,209.2 c 1.3,2.2 -0.9,3 -0.7,5.9 -1.2,-3.2 -1.3,-4.8 0.7,-5.9 z"
   class="st1" />
		<path
   id="path16862"
   d="m 90.7,254.7 c 0.1,0.1 0.2,0.3 0.2,0.4 -0.4,1.1 1.8,2 0.3,3.3 -0.7,0.6 -1.1,0.2 -1.5,-0.3 -1.7,-1.8 0.3,-2.4 1.2,-3.3 -0.1,0 -0.2,-0.1 -0.2,-0.1 z"
   class="st1" />
		<path
   id="path16864"
   d="m 120.8,145.5 c 2.1,-0.7 3.7,-0.8 5.1,0 0.1,0.1 -0.2,0.8 -0.3,1.3 -1.4,-0.4 -2.9,-0.8 -4.8,-1.3 z"
   class="st1" />
		<path
   id="path16866"
   d="m 141.9,177.1 c -1.2,-1.8 -2.4,-3 -1.6,-4.9 2.4,1 1.6,2.8 1.6,4.9 z"
   class="st1" />
		<path
   id="path16868"
   d="m 114.1,97.4 c -2.5,0.9 -4.5,0.6 -6.5,0.1 2,-0.6 4,-0.7 6.5,-0.1 z"
   class="st1" />
		<path
   id="path16870"
   d="m 213.2,303.1 c -1.1,1.5 -2.2,3 -4.1,-0.1 1.7,0.1 3,0.1 4.3,0.2 -0.1,0.1 -0.2,-0.1 -0.2,-0.1 z"
   class="st1" />
		<path
   id="path16872"
   d="m 219.1,303.7 c 0.9,-1.7 2.1,-2 3.7,-1.3 -0.8,1.6 -2,2 -3.7,1.3 z"
   class="st1" />
		<path
   id="path16874"
   d="m 165,220 c 0.9,0.1 0.9,0.7 1,1.4 0,0.9 -0.2,1.7 -1.3,1.5 -0.7,-0.1 -0.8,-0.9 -0.7,-1.6 0.1,-0.6 0.2,-1.2 1,-1.3 z"
   class="st1" />
		<path
   id="path16876"
   d="m 157.4,205.1 c -0.4,1 0.1,2.5 -1.3,2.8 -0.3,0.1 -1,-0.4 -1,-0.7 -0.1,-1.5 1.1,-1.7 2.3,-2.1 z"
   class="st1" />
		<path
   id="path16878"
   d="m 196.3,316.7 c -2.3,1 -3,-1.1 -4.5,-2.4 2.6,-0.5 3.1,1.6 4.3,2.6 0.1,-0.1 0.2,-0.2 0.2,-0.2 z"
   class="st1" />
		<path
   id="path16880"
   d="m 254.2,298.2 c -0.8,0.9 -1.7,1.8 -2.5,2.7 -0.2,-2.2 0.5,-3.3 2.7,-2.6 -0.1,0 -0.2,-0.1 -0.2,-0.1 z"
   class="st1" />
		<path
   id="path16882"
   d="m 254.3,298.3 c -0.7,-2 0.3,-2.9 2.8,-2.6 -1,0.8 -2,1.6 -3,2.4 0.1,0.1 0.2,0.2 0.2,0.2 z"
   class="st1" />
		<path
   id="path16884"
   d="m 161.6,219.2 c -1.2,-2.3 -0.3,-3.2 1,-4.1 0.9,1.7 -0.8,2.3 -1,4.1 z"
   class="st1" />
		<path
   id="path16886"
   d="m 248.9,198.9 c 0.8,-0.9 1.7,-1.8 2.5,-2.8 0.3,2.2 -0.5,3.2 -2.7,2.6 0,0 0.2,0.2 0.2,0.2 z"
   class="st1" />
		<path
   id="path16888"
   d="m 81.9,184.2 c 1,-1.4 0.7,-2.9 3.1,-3.3 -0.9,1.3 -0.3,2.9 -3.1,3.3 z"
   class="st1" />
		<path
   id="path16890"
   d="m 253.1,283.1 c -0.8,0.9 -1.7,1.8 -2.5,2.8 -0.2,-2.2 0.5,-3.2 2.7,-2.6 0,0 -0.2,-0.2 -0.2,-0.2 z"
   class="st1" />
		<path
   id="path16892"
   d="m 82.2,175.1 c -0.2,-2.3 0.7,-2.9 2.2,-3.1 0.4,1.7 -1.1,2 -2.2,3.1 z"
   class="st1" />
		<path
   id="path16894"
   d="m 129.5,151 c -1.1,-0.1 -2.2,-0.2 -3.2,-0.3 0.2,-0.4 0.4,-0.9 0.7,-1.2 1.3,-1.1 1.4,1.7 2.5,1.5 z"
   class="st1" />
		<path
   id="path16896"
   d="m 97.8,139.6 c 0.5,-2.7 1.1,-3.7 3.3,-3.5 -1.1,1.2 -1.8,2 -3.3,3.5 z"
   class="st1" />
		<path
   id="path16898"
   d="m 87.5,73.8 c 1.6,0.5 2.5,1.1 2.4,2.2 0,1.3 -1,2 -2.3,2 -0.4,0 -1.6,-0.5 -1,-0.6 2.3,-0.5 0.7,-2.4 0.9,-3.6 z"
   class="st0" />
	</g>
</g>
</svg>
