<?xml version="1.0" encoding="UTF-8" standalone="no"?>
<svg
   xmlns:dc="http://purl.org/dc/elements/1.1/"
   xmlns:cc="http://creativecommons.org/ns#"
   xmlns:rdf="http://www.w3.org/1999/02/22-rdf-syntax-ns#"
   xmlns:svg="http://www.w3.org/2000/svg"
   xmlns="http://www.w3.org/2000/svg"
   xmlns:sodipodi="http://sodipodi.sourceforge.net/DTD/sodipodi-0.dtd"
   xmlns:inkscape="http://www.inkscape.org/namespaces/inkscape"
   inkscape:version="1.0 (4035a4f, 2020-05-01)"
   height="316.88187"
   width="257.54739"
   sodipodi:docname="horse-rampant.svg"
   xml:space="preserve"
   viewBox="0 0 257.54739 316.88187"
   y="0px"
   x="0px"
   id="Layer_1"
   version="1.1"><metadata
   id="metadata21359"><rdf:RDF><cc:Work
       rdf:about=""><dc:format>image/svg+xml</dc:format><dc:type
         rdf:resource="http://purl.org/dc/dcmitype/StillImage" /><dc:title></dc:title></cc:Work></rdf:RDF></metadata><defs
   id="defs21357" /><sodipodi:namedview
   inkscape:current-layer="Layer_1"
   inkscape:window-maximized="0"
   inkscape:window-y="25"
   inkscape:window-x="0"
   inkscape:cy="176.8559"
   inkscape:cx="125.49863"
   inkscape:zoom="2.52"
   fit-margin-bottom="0"
   fit-margin-right="0"
   fit-margin-left="0"
   fit-margin-top="0"
   showgrid="false"
   id="namedview21355"
   inkscape:window-height="480"
   inkscape:window-width="820"
   inkscape:pageshadow="2"
   inkscape:pageopacity="0"
   guidetolerance="10"
   gridtolerance="10"
   objecttolerance="10"
   borderopacity="1"
   bordercolor="#666666"
   pagecolor="#ffffff" />
<style
   id="style21116"
   type="text/css">
  .st0{fill:#FFFFFF;}
  .st1{fill:#000000;}
</style>
<g
   transform="translate(-24.501371,-23.144097)"
   id="g21352">
	<g
   id="g21350">
		<path
   id="path21118"
   d="m 234.8,226 c -6.6,4 -10.4,4.7 -17.9,-0.8 1.5,7.8 1.3,15.3 -1.1,22.6 -2.6,8 -7.2,15 -13.7,20.3 -8.1,6.6 -5.4,22.9 2.8,27 5,2.4 4.6,8.6 -0.2,12.1 -3,2.2 -6.6,3.2 -9.9,4.9 -8.3,4.3 -16.4,8.8 -23.2,15.3 -2.6,2.5 -6.3,2.4 -9.5,1.9 -4.1,-0.5 -5.6,1.7 -6,5.1 -0.4,3.7 -2,5.5 -6,4.9 -4.2,-0.6 -8.4,1.9 -12.7,0 -3,-1.3 -3.7,-2.4 -1,-4.6 5.3,-4.4 10.6,-8.7 15.5,-13.7 2,-2.1 5.3,-2.3 8,-3.1 8.4,-2.5 16.5,-5.3 23.7,-10.5 4,-2.9 3.9,-6.8 -0.6,-9.2 -5.1,-2.7 -10,-5.5 -14.1,-9.7 -3.4,-3.6 -5.6,-7.7 -6.2,-12.6 -0.4,-3.1 -3,-5.2 -4.1,-8.1 -2.1,-5.7 -3.1,-11.6 -2.3,-18.3 -7.9,2.3 -13.9,6.2 -18,12.9 -0.9,1.4 -1.1,3 -1.1,4.6 0,4.3 -1.8,6.8 -5.8,7.3 -2.7,0.3 -5.4,1 -8,0.9 -7.4,-0.3 -14.6,0.9 -22,1.1 -6.4,0.1 -12.7,1.7 -19.1,2.2 -2.8,0.2 -5.6,0.8 -8.4,-1.7 -4.7,-4.3 -7.7,-3.3 -10.2,2.6 -1,2.3 -2.5,3.3 -5.3,3.4 -4.1,0.2 -8,-0.8 -11.8,-1.9 -1.6,-0.5 -3.5,-1.2 -3.8,-3.2 -0.3,-2.2 1.6,-3 3.2,-3.6 6.5,-2.6 12.9,-5.4 19.2,-8.3 3.8,-1.7 8.5,-0.6 12.8,-1 5.8,-0.5 11.6,-0.4 17.3,-1.5 5.4,-1 10.9,-2.1 16.7,-3.2 -1.9,-2.9 -3.4,-5.5 -4.6,-8.5 -3.4,-8.3 0.3,-14.7 5.3,-20.2 3.6,-4 5.7,-8.7 8.4,-13 3.9,-6.3 9.9,-8.2 16.5,-8.8 4.6,-0.4 9.2,-0.1 14.5,-0.1 -3.6,-4.4 -8.2,-6.7 -12.8,-8.1 -15.3,-4.5 -28,-13.6 -40.6,-22.7 -5.3,-3.8 -10.2,-8 -13.2,-14 -2.3,-4.7 -7.2,-3.9 -11,-5.2 -4.7,-1.6 -9.8,-2.3 -14.7,-3.4 -5.2,-1.2 -10.2,1.4 -12.1,6.3 -2.8,7.3 -6,14.3 -7.1,22.2 -0.4,2.9 1.3,5.2 0.5,7.9 -0.3,1.1 0.2,2.3 -0.7,3.4 -2.6,3.3 -2.3,6.6 0.6,9.8 3.1,3.4 3.6,9.9 1.3,13.8 -0.9,1.5 -1.4,3.1 -2,4.7 -0.5,1.4 -1.5,1.7 -2.8,1.8 -1.6,0 -1,-1.2 -1.4,-1.9 -3.2,-5.6 -6.1,-11.3 -7.6,-17.6 -1.6,-6.7 -1.7,-13.1 0.5,-19.7 3,-8.7 5.4,-17.6 8.4,-26.3 0.9,-2.5 0.3,-4.9 1.1,-7.5 2.5,-7.9 6.1,-10.9 14.3,-11.7 7.5,-0.7 15,-1.7 22.7,-1.6 -1.5,-6.9 -3.6,-13.6 -3.1,-20.6 0.2,-3.8 0.6,-7.8 1.7,-11.4 1.1,-3.6 0.2,-6.9 -0.2,-10.3 C 73.5,93.8 70,92.8 67.9,90.8 64.2,87.3 60.1,84.4 56.1,81.2 54.5,79.9 52.9,78.6 50.7,78 47,76.8 44.8,73.9 43.4,70.3 42.8,68.9 42.1,66.7 40.1,67.6 35,69.8 32.2,66 29.5,63.4 26.2,60.2 24,56 24.6,50.8 c 0.3,-2.3 1.2,-2.5 2.8,-2 1.7,0.6 3.6,1.3 4.9,2.4 3.2,2.8 6.9,4.4 10.8,5.7 4.7,1.6 7.9,4.8 10.6,8.8 2.6,3.9 7.3,5.4 10.8,8.2 6.1,4.9 12.6,9.4 18.8,14.1 4.2,3.2 3.6,8.4 4.6,12.8 1.3,5.8 2.4,11.6 4.4,17.9 2.4,-7.7 5.3,-14.5 10.3,-20.2 7.8,-9 18,-13.9 29.2,-17 3.3,-0.9 6.4,-2.3 9.4,-4.2 -9.3,-5.9 -9.3,-5.7 -18.4,-5.7 -2.3,0 -3.5,1.7 -5.6,1.9 -4.8,0.4 -9,-1.4 -12.9,-3.5 -1.7,-0.9 -3.3,-1.6 -5.2,-1.5 -0.7,0 -1.7,0.4 -2,-0.7 -0.3,-1.1 0.3,-2 1.2,-2.4 3.5,-1.5 6.7,-3.7 10.9,-3.5 3.5,0.2 7.1,0 10.7,0 -0.4,-1.9 -1.8,-1.6 -3,-1.6 -3.1,0 -6.4,-0.6 -9.4,0.1 -4.7,1.2 -5.4,-3.2 -7.8,-5 -0.5,-0.4 -0.2,-1.8 -0.1,-2.8 0.4,-2.9 7.6,-7.3 10.5,-6.8 9.7,1.6 19.1,0.3 28.1,-4 0.3,-0.1 0.4,-0.6 1,-1.5 -4.8,2 -8.8,1.2 -12.1,-2.2 -1.9,-1.9 -2.7,-3.9 -0.9,-6.4 0.8,-1 0.8,-2.8 2.6,-2.6 2.1,0.2 0.8,1.9 1.2,2.8 1.2,3 3.8,2.7 6.5,2.8 -2.8,-3.4 -1.5,-6 0.9,-8.6 2.7,-2.9 5.7,-3.8 9.4,-2.1 0.4,0.2 1.2,0 1.2,0.8 0,0.9 -0.7,1.6 -1.5,1.7 -1.9,0.2 -3.5,1.3 -3.1,2.9 0.5,1.8 1.4,4.2 3.9,4.5 1.2,0.2 2.3,0.6 3.5,0.8 3,0.7 5.5,-1.3 4.6,-4.3 -1.1,-3.7 1.7,-3.7 3,-2.9 2.7,1.8 2.3,-1.7 3.7,-1.6 0,-1.2 0.3,-2.3 1.8,-1.8 1.4,0.5 0.9,2.1 0.7,2.8 -1,2.4 -0.7,4.8 -0.7,7.5 2.4,-0.9 2.8,-3.3 4.1,-4.9 0.9,-1.1 1.7,-3 3.1,-2.6 1.9,0.6 1.9,2.7 1.7,4.5 -0.2,1.7 -1.4,3.3 -0.7,5.1 2.9,-1 3.1,-1.5 2.5,-4.8 -0.2,-1.2 -1,-3.1 0.6,-3.5 1.6,-0.4 3.5,0.4 4.1,2.4 0.5,1.9 0.7,3.9 1,6.3 1.9,-1.8 4,-2 6.2,-1.2 2.1,0.7 4.4,0.7 6.1,2.6 1.3,1.6 2.8,3 4.3,4.4 1.1,1 2,1.9 4,0.5 2.3,-1.7 5.7,0.9 4.6,3.7 -2.1,5.3 -3,9.9 0.8,15 1.1,1.4 0.3,4.2 -0.9,6.1 -1.6,2.5 -0.1,4.5 1.6,6 1.4,1.2 3.2,2.9 5,0.5 -0.4,-1.5 -2.2,-1.1 -2.8,-2.3 1.3,-2.1 2.9,-1.3 4.4,-0.3 1.1,0.7 2.4,1.7 1.7,3.3 -1.6,3.5 -3.5,6.7 -8.4,6.4 1.5,2.9 0.5,5.1 0,7.7 -0.8,4.7 -2.2,8.9 -3.7,13.3 -0.9,2.8 0.9,5.4 2.8,7.6 1.6,1.9 2.9,2.3 4,-0.5 0.2,-0.6 0.3,-2.4 1.6,-1.8 1.2,0.5 2.4,1.4 2.2,3.1 -0.2,2.3 -1.3,4.1 -3.4,5 -1.6,0.6 -3.5,1.9 -4.8,1.5 -5.3,-1.6 -6.8,2.5 -9,5.5 -1.2,1.6 -1.3,3.2 -0.1,4.8 1.2,1.6 2.5,2 4,0.3 0.6,-0.7 1.1,-1 1.8,0.2 0.8,1.3 0.3,2.3 -0.3,3.1 -2.2,2.9 -8.6,4.1 -11.9,2.4 -1.2,-0.7 -2.1,-0.7 -3.5,0.2 -2.8,1.9 -3.9,4.8 -5.7,7.3 -3.1,4.3 -7.2,9 -14.5,8.4 3.1,4.8 5.6,9.3 8.7,13.4 4.1,5.5 8.4,11 13.7,15.4 7,5.9 13.2,12.4 19.3,19.2 3.5,3.9 6.6,8.1 8.5,12.9 1.2,3.2 2.7,4.1 5.9,4 3.3,0 5.2,-2 6,-4.5 2,-6.2 -1.2,-11.1 -4.9,-15.7 -1.9,-2.3 -4,-4.5 -6,-6.5 -5.1,-5.2 -3.9,-10.5 -1.6,-16.2 1.2,-2.8 2.7,-5.4 4.3,-8 2.7,-4.3 2.3,-5.4 -2.3,-7.3 3.5,-4.9 4.2,-5.2 9,-1.8 1.8,1.3 3.2,0.4 4.2,-0.6 8.2,-8 22.1,-3 29.2,2.3 4,2.9 4.6,7.7 7.5,11.1 8.1,9.2 10.1,20.4 11.9,32.2 1.5,9.8 -2,18.1 -4,26.9 -0.4,2 -0.7,4.2 -1.1,6.2 -0.6,3.2 2.5,2.3 4.4,2.1 0.8,-0.1 1.3,-2.2 2.4,-0.5 0.8,1.2 0.8,2.6 -0.5,3.7 -2.1,1.7 -4.4,3.2 -7.2,2.8 -4,-0.5 -6.5,0.7 -8.6,4.5 -2.2,3.9 -6.7,6.2 -8.6,10.6 -1.9,4.4 -4.3,8.6 -3,13.6 0.9,3.6 3.2,6.1 7.1,5.7 3.9,-0.4 5.8,-3 5.7,-6.9 0,-0.4 0.2,-0.8 0.5,-1.9 3,3.4 2.1,6.7 1.2,9.9 -0.8,3.2 -3,5.3 -6.1,6.4 -6.3,2.2 -12.4,4.3 -19.4,2.6 -4.7,-1.2 -7.5,-4.2 -10.1,-7.9 -1.9,-2.7 -2.1,-6.2 -5.4,-8.5 -2.9,-2 -1.3,-10.9 1.7,-14.1 0.9,-1 1.9,-1.9 2.9,-2.9 1.7,-1.6 3.6,-2.9 0.7,-5.4 -1.5,-1.3 -0.6,-3.8 -0.3,-5.8 1.3,-7.4 6.5,-11.4 12.4,-15 8.8,-5.3 12.1,-15.7 9.3,-25.4 -0.2,-0.6 -0.7,-1.5 -1.3,-1.1 -1.2,0.8 -2.8,1.6 -2.7,3.3 0.4,4.8 -1.7,8.9 -3.5,12.9 -2.3,4.9 -5.7,9.4 -11.5,10.8 -0.5,-1.4 0.2,-2.4 1.2,-3.2 6.5,-4.9 9.1,-11.9 10.3,-19.4 0.8,-5 3.5,-8.5 6.7,-11.9 0.9,-0.9 1.3,-1.8 3,0.3 3.3,4.2 1.1,8.5 2,12.6 1.9,9.5 -2.9,16.6 -10.1,22.3 -2.3,1.8 -4.6,3.4 -7,5.1 -2.8,1.9 -4,4.8 -4.6,8 -0.3,1.6 0.1,3.3 2.3,2.9 1.2,-0.2 2.3,-1 3.1,0.6 0.7,1.5 0.1,2.7 -0.9,3.7 -2.4,2.7 -4.9,5.2 -7.5,7.6 -2.6,2.4 -4.3,5.2 -3.9,8.7 1,-4.5 3.7,-8.2 7.2,-11.3 1,-0.9 2.2,-2.7 3.8,-1 1.3,1.4 -0.3,2.5 -1.1,3.5 -0.5,0.7 -1.1,1.2 -1.6,1.9 -5.5,7.1 -5.8,13.1 -0.9,20.6 0.7,1 1.4,2 2,2.9 -4,-8.4 -5.1,-16.8 1.3,-24.9 0.5,-0.6 1,-1.3 1.7,-1.8 0.5,-0.4 1.2,-0.8 1.9,-0.4 0.7,0.5 0.5,1.2 0.3,1.8 -0.5,1.6 -1.5,2.9 -2.3,4.3 -4.8,8.6 -1.8,18.6 6.8,23.2 -4,-1.7 -5.4,-5.4 -6.4,-9.3 -1.1,-4.4 -1.6,-8.9 0.6,-13.2 0.4,-0.8 0.8,-2 2,-1.6 1.1,0.4 1.1,1.6 0.9,2.5 -1.1,5.7 1.7,10.1 4.4,14.5 3.7,6 7.4,6.7 13.3,2.7 -3.4,1.5 -6.3,0.4 -9,-1.5 -2.9,-2 -4.4,-4.8 -4.7,-8.3 -0.4,-6.9 3,-12.4 6.8,-17.6 3.2,-4.3 7.8,-7.7 8.4,-13.7 0.2,-1.6 1.6,-1.1 2.6,-0.6 2.6,1.4 5.4,1.4 8.2,1.4 -4.5,-0.5 -7.6,-3.5 -10.6,-6.5 -1.3,-1.3 -1.7,-3.2 -1.5,-5 0.5,-4.2 2.5,-7.7 4.5,-11.3 0.4,-0.7 1.1,-1.5 2,-1.1 1.1,0.5 0.9,1.7 0.5,2.5 -1,2.1 -1.8,4.3 -2.5,6.5 -0.4,1.3 -0.6,2.7 -0.1,4 0.4,1.1 1.1,2 2.3,2 1.3,0 1.3,-1.2 1.5,-2.1 0.7,-3.5 1.7,-6.9 2.9,-10.3 1.6,-4.6 2.2,-9.2 1.4,-14.1 -0.8,-5 -1.5,-10 -2.5,-15 -2.4,-11.7 -9.1,-19.7 -20.4,-23.7 -1.3,-0.5 -3.7,-0.7 -3.2,-2.4 0.6,-1.8 2.8,-1 4.4,-0.7 0.9,0.2 1.8,0.6 2.7,0.8 0.9,0.3 1.8,0.6 2.8,0.8 -4.2,-8.5 -18.6,-11.7 -27.2,-6 -4.5,2.9 -5.1,2.9 -9.2,0.1 2.2,2.8 1.8,5.5 -0.1,8.1 -2.4,3.4 -4.1,7 -5.4,11 -1.1,3.6 -0.4,6.7 1.8,9.7 1.9,2.6 4.1,4.7 6.2,7.1 4,4.5 7,9.5 5.4,16 -0.2,0.7 -0.2,0.8 0.2,1 2.3,1 1.1,2.4 0.4,3.6 -4.4,6.3 -14.9,7.7 -19,-0.5 -6,-11.8 -15.4,-20.8 -25.2,-29.5 -6.8,-6.1 -12.9,-12.7 -17.8,-20.3 -1.6,-2.5 -3.7,-4.7 -5.3,-7.3 -1.1,-1.7 -2.6,-1.6 -4.3,-1.4 -6.2,0.5 -12.3,0.2 -17.8,-3.3 -4.4,-2.8 -7.2,-9.4 -6.2,-14.7 1,-5 5.5,-9.2 10.8,-10 1.7,-0.3 3.8,-0.7 4.9,1 1.3,1.9 -0.3,3.3 -1.4,4.7 -1.5,1.9 -2.7,3.8 -2.5,6.3 0.1,1.4 0.2,2.8 1.6,3.5 1.4,0.7 2.6,0.3 3.8,-0.5 3.6,-2.3 4,-4.1 1.6,-7.6 -3.4,-5.2 -2.2,-13.2 2.4,-19.1 4.1,-5.2 8.9,-9.6 13.2,-14.6 4.6,-5.3 6.1,-11.5 7,-18.1 0.4,-3 0.9,-5.9 1.1,-9 0.1,-1.3 0.7,-2.7 2.1,-2.5 1.2,0.1 1.3,1.6 1.3,2.7 0.2,9.2 -1.3,18.1 -6.6,25.8 -2.6,3.8 -5.4,7.5 -8.7,10.9 -4.8,4.8 -4.8,7.5 -0.6,12.9 0.6,0.8 1.5,1.6 0.9,2.5 -0.7,1.1 -2,0.6 -3,0.3 -1.7,-0.6 -3.1,-1.6 -4.1,-3.2 -0.5,1.7 0.2,3.3 -0.3,4.9 -0.1,0.4 -0.3,0.7 -0.6,1 -2,1.4 -1,2.8 0,4.2 1.7,2.4 2.6,5.1 0.7,7.6 -2.4,3.2 -5.1,6.3 -9.7,5.9 -5.2,-0.4 -7.8,-6.4 -5.4,-12.2 0.5,-1.1 1.5,-1.9 1.8,-3.2 -7.8,1.4 -8.4,10.1 -3.7,15.2 4.7,5.1 15.6,6.2 21.3,2.3 4.3,-2.9 5.5,-6.9 4,-12.7 -0.4,-1.4 -1.6,-3.4 0.1,-4 1.8,-0.7 2.5,1.6 3.1,3 0.8,1.7 1.1,3.6 0.5,5.6 0.6,-1.5 0.1,-3 0.3,-4.4 0.1,-0.8 0.2,-1.8 1.2,-1.9 1,-0.1 1.4,0.8 1.7,1.5 0.9,1.9 0.4,4 0.5,6.2 3.5,-2.7 3.9,-6.1 2.8,-9.9 -0.4,-1.3 -2,-3 0.2,-3.8 1.7,-0.6 2.5,1.2 3.2,2.5 0.4,0.7 0.2,1.6 1.1,2.3 1.6,-2.3 1.7,-4.4 0,-6.7 -0.8,-1.1 -1.7,-2.6 -0.6,-3.7 1.1,-1.1 2.3,0.8 3.2,0.7 5.7,-0.5 3.4,5.7 6.6,7.4 -0.5,-3.1 -1.2,-6.1 0.1,-9 0.3,-0.8 -0.1,-1.6 -0.6,-2.3 -0.8,-1.1 -1.4,-2.2 -0.1,-3.2 1.4,-1.2 2.5,-0.4 3.6,0.7 0.4,0.4 0.4,1.1 1.1,1.1 0.5,-1.2 -0.3,-2.1 -0.9,-3 -0.5,-0.9 -0.7,-1.8 0.1,-2.6 1,-1.1 2.1,-0.6 2.9,0.2 2.8,2.5 6.2,2.7 9.5,2.6 -4,-0.3 -7.9,-3.6 -8.3,-8.5 -0.5,-5.8 -4.1,-8.9 -8.5,-11.8 -0.3,-0.2 -0.7,-0.4 -1.1,-0.6 -1,-0.7 -2.6,-1.4 -1.9,-2.7 0.7,-1.4 2.2,-0.5 3.3,0 2.4,1.1 4.8,2.1 7.3,4.6 -2,-3.9 -4.7,-6 -7.6,-7.8 -0.8,-0.5 -1.7,-0.9 -2.5,-1.5 -0.6,-0.5 -1.6,-0.9 -1.4,-1.8 0.3,-1.2 1.5,-1 2.4,-0.9 5.6,0.6 11.5,6 12.8,11.6 0.7,-5.1 -1.3,-8.9 -5.7,-11.5 -1,-0.6 -2.6,-1.4 -1.9,-2.7 0.8,-1.5 2.4,-0.6 3.7,-0.1 1.8,0.7 3.2,2.1 4.9,3.1 0.1,-1.4 -1,-1.8 -1.7,-2.6 -0.7,-0.9 -2.1,-1.7 -1.2,-3.1 0.7,-1 2,-0.7 3.1,-0.4 1.3,0.4 2.5,1.1 5.1,0.6 -4.2,-0.4 -6.2,-2.5 -7.5,-5.2 -1.2,-2.5 -2.2,-5 -4.4,-6.8 -0.7,-0.6 -1.4,-1.6 -0.7,-2.5 0.8,-1.1 1.7,-0.2 2.5,0.3 1.1,0.6 2,1.5 3.6,2.9 -0.6,-2.7 -2.2,-3.4 -3.3,-4.6 -1,-1.1 -3.5,-2 -2.4,-3.6 1.1,-1.7 2.9,0.3 4.3,0.6 -2.4,-2.3 -5.1,-4.4 -8.7,-4.9 -0.8,-0.1 -1.8,-0.4 -1.7,-1.4 0.1,-0.9 1,-1.3 1.8,-1.5 2.3,-0.4 4.6,0.4 7.3,-0.2 -0.8,-1.5 -2.5,-1.3 -3.4,-2.2 -0.7,-0.7 -1.6,-1.4 -1,-2.4 0.7,-1.3 1.6,-0.3 2.4,0 0.8,0.3 1.5,0.6 2.9,0.6 -4.2,-1.1 -7.5,-3.5 -11.5,-3 -0.8,0.1 -1.4,-0.6 -1.3,-1.7 0.1,-0.9 1.4,-0.7 1.4,-1.6 0,-0.1 -0.5,-0.2 -0.7,-0.3 -2,-0.9 -3.5,-3.2 -6.1,-1.6 -1.8,1.1 -3.3,2.5 -5,3.5 -1.3,0.8 -2.6,3 -4.1,1.5 -1.5,-1.5 0.4,-2.9 1.5,-4.1 1.9,-2.1 3.1,-4.4 2.1,-7.6 0.8,2.8 -0.1,4.8 -2.2,6.4 -2.7,2.1 -3.7,5 -2.7,8.3 0.5,1.6 0,2.9 -1.2,3.6 -1.7,1 -3,1.9 -3.7,3.9 -0.7,1.7 -7.3,0.9 -8.4,-0.7 -0.8,-1.3 -0.6,-2.8 0.7,-3.2 8.4,-2.5 9,-9.3 9.4,-16.4 0,-0.4 0.2,-0.8 0.5,-1.3 -2.9,3.6 -5.9,7 -7.9,10 0.8,-1.4 2.6,-3.2 4,-5.2 1,-1.5 1.8,-0.8 2.2,0.5 0.5,1.8 0.7,3.8 -0.5,5.1 -2.4,2.8 -4.9,5.5 -8.6,6.8 -1.5,0.5 -3,0.4 -3.4,-1.1 -0.7,-2.3 -1.2,-4.3 -4.1,-5 -3.6,-0.8 -7.2,-2 -10.8,-0.1 -9.2,4.8 -19.1,5.2 -29.1,5.3 -1.8,0 -3.6,-0.2 -5.1,1.1 -0.8,0.7 -2.2,1.2 -2,2.4 0.2,1.4 1.7,1 2.7,1.2 4.6,0.8 9.3,0.9 13.6,2.8 1.2,0.6 2.5,1.1 3.7,1.9 3.6,2.5 3.3,6.4 -0.7,8.4 -1.7,0.9 -3.6,1.2 -5.6,1.3 -1.5,0 -3,0 -4.5,0 -1.3,0 -2.7,0.1 -3.9,-0.1 3,2.1 6.3,2.2 10,1.2 4.2,-1.1 8.7,-0.8 13,-1.4 2.3,-0.3 4.1,0.9 5.9,2.4 4.5,3.8 9.5,5.7 15.6,4.3 2,-0.5 3.5,-1.2 4.8,-2.7 0.8,-0.9 2,-2 3.2,-1.2 1.5,1 0.5,2.5 -0.2,3.6 -1.3,2.2 -2.5,5.5 -5.4,4.7 -2.7,-0.7 -5,0.2 -7.5,-0.1 -1.6,-0.2 -3.3,0.2 -4.8,1 -7,3.8 -14.8,5.6 -22.1,8.7 -8,3.4 -14.6,8.5 -19.2,16.1 -1.2,2 -2.7,3.9 -1.4,6.4 0.5,1 0,2 -1.1,2.3 -3.6,1 -3.2,3.6 -2.4,6.2 0.4,1.1 0,1.9 -0.6,2.6 -0.8,1 -1.4,2 -1.4,3.3 0,0.9 -0.4,2.1 0.6,2.6 1,0.4 1.6,-0.4 2.2,-1.3 1.1,-1.8 8,-4.1 10.3,-3.6 1.5,0.4 1.8,1.1 0.9,2.3 -0.9,1.2 -2,2.2 -3.6,2.5 -2.5,0.5 -4.5,2 -6.5,3.4 -1.2,0.8 -3.9,1.5 -1.4,3.8 0.2,0.2 0.1,0.8 -0.2,1.2 -1.8,2.4 -3,5.2 -4.9,7.6 -0.7,0.9 -1.8,1.4 -2.9,0.7 -1.2,-0.8 -0.4,-1.8 0.2,-2.4 1.5,-1.7 -0.3,-3.4 -0.2,-4.2 0.6,-3.7 -3.5,-7.2 -0.3,-11 1.1,-1.3 1.3,-3.2 0.5,-5.1 -3.7,-7.7 -5,-16.1 -6.5,-24.5 C 82.9,93.2 81.5,90 78,87.8 70.5,83.6 64.3,77.3 57,72.5 54.6,70.9 52.5,69 50.7,66.7 48.1,63.4 44.9,60.9 40.8,59.7 40,59.5 39.1,59.2 38.6,60 c -0.7,1.1 -0.8,2.4 -0.4,3.6 0.3,1 1.3,0.7 2.1,0.7 4.8,0.1 5.8,0.9 6.8,5.7 0.3,1.6 0.8,3.1 2.5,3.4 4.2,0.9 7.2,3.8 10.5,6.2 4,2.9 7.7,6.1 11.6,9.1 5.6,4.2 7,10 6.1,16.8 -0.5,3.7 -1.8,7.3 -0.5,11.1 0.4,1.4 -1.4,2.9 -1.4,4.6 1.4,-2.4 2.5,-4.9 4.6,-6.7 0.6,-0.5 1.4,-1 2.2,-0.4 0.9,0.7 0.3,1.5 -0.1,2.2 -1.4,2.6 -3.3,4.9 -4.2,7.9 0.7,-0.6 0.8,-2.1 2.1,-1.5 1.1,0.4 0.9,1.6 0.8,2.5 -0.3,2 -1.7,3.7 -1.8,5.8 1.4,-3.9 3.8,-6.9 7,-9.4 0.6,-0.5 1.4,-1.1 2.2,-0.6 1,0.7 0.6,1.7 0.2,2.6 -0.9,1.9 -2.3,3.4 -3.5,5 -1.6,2 -2.1,4.4 -2.5,6.8 -0.2,1.3 0.5,2.2 1.8,2.3 1.4,0.2 1.4,-1 1.6,-1.9 0.1,-0.3 0,-0.5 0.1,-0.8 0.2,-1.1 0.1,-2.6 1.4,-2.6 1.6,0 2.2,1.7 2.2,3 0,1.5 0.1,2.5 1,3.9 1.5,2.5 -1.3,2.9 -2.8,2.9 -4.4,0.1 -8.7,1 -13.1,1 -8.1,0 -16.1,1 -24.1,1.8 -4.4,0.5 -7.4,3.5 -8.1,7.7 -2.4,13.5 -8.1,26.1 -11.4,39.4 -1.1,4.3 0.4,8.4 0.6,12.6 0,0.7 0.3,1.5 1.1,1.5 0.8,0 1.6,-0.7 1.5,-1.2 -1.2,-5.6 2.8,-10.1 2.8,-15.5 0.1,-12.4 4,-23.6 11.4,-33.5 0.9,-1.2 2.2,-2 3.7,-2.9 -0.8,-0.9 -3.4,-0.5 -2.3,-2.7 0.9,-1.7 2.5,-1.9 3.9,-1 6.6,4.2 14.3,4.4 21.5,6.4 5.9,1.7 12,2.5 17.9,4.6 3.5,1.3 6.9,0.8 9.5,-2.7 2,-2.7 5.2,-3.9 8.5,-4.5 2.1,-0.3 3.7,-0.1 2.3,2.8 -1.3,2.7 -1.9,5.7 -2.7,8.6 -0.2,0.8 -0.5,1.7 -1.6,1.4 -0.7,-0.2 -1,-0.9 -1.1,-1.6 -0.2,-1.9 0.3,-3.8 0.4,-5.9 -0.7,1.5 -0.7,3 -0.6,4.4 0.1,1.9 -0.1,4.2 3.2,2.8 1.5,-0.6 2.2,0.7 2.6,2 0.4,1.1 0,2.2 0.1,3.3 0.1,1.2 0.6,2.7 -0.7,3.3 -1.8,0.8 -2.2,-1.1 -2.9,-2.1 -1.2,-1.7 -3.4,-2.4 -4.3,-4.3 -0.2,-0.1 -0.2,0 -0.2,0.4 0.2,2.1 1.3,5.4 -1,5.7 -2.8,0.4 -1.9,-3.2 -2.4,-5.2 -0.3,-1.3 0.2,-3.1 -2,-3.5 -2.7,-0.6 -4.4,1.3 -6.2,2.5 -0.7,0.4 1,1.1 1.2,2.1 0.9,-0.9 0.7,-1.8 1.2,-2.5 0.4,-0.6 0.7,-1.3 1.5,-1.2 1,0.1 1.1,1 1.3,1.8 0.3,1.2 0,2.5 0.3,3.7 0.5,2.2 0.7,4.8 4.4,3.6 1.6,-0.6 3.4,0.5 4.3,1.7 1.2,1.5 -0.7,2.3 -1.9,3.4 1.8,0.3 2.4,-2.9 3.8,-0.9 0.9,1.2 1.3,2.7 2.2,3.8 -0.3,-1 -1.5,-1.7 -1.3,-3 0.1,-0.9 0.5,-1.6 1.4,-1.8 0.8,-0.3 1.2,0.4 1.6,0.9 0.2,0.2 0.3,0.5 0.4,0.7 3.9,8.1 11.1,12.2 19.1,15.3 5.3,2.1 10.7,4.1 16,5.9 3.9,1.3 4.2,5.1 7.8,6.2 4.6,1.4 6.8,5.4 6.5,10.6 -0.2,3 1.1,5.3 4.9,5 0.8,-0.1 1.6,0.4 2.4,1.1 0.5,-2.5 0.8,-4.3 -1.1,-6.5 -2,-2.3 -2.6,-5.7 -2.6,-8.9 0,-1.3 0,-3 2.1,-2.8 1.4,0.2 3.2,0.2 3,2.4 -0.3,2.7 1.6,4.1 2.9,5.9 2.8,4.1 2,12.3 -1,16.3 -2.9,4 -6.5,7.4 -9.7,11.2 -7.3,8.5 -6.4,17.5 -1.3,27.1 1.4,2.7 3.1,5.2 3.7,8.2 1.9,8.8 8.1,13.6 15.7,17.2 0.9,0.4 1.8,0.7 2.6,1.1 6.3,3.3 6.9,9.6 1.2,13.8 -6.8,5 -14.5,8.2 -22.5,10.8 -4,1.3 -8.2,2.1 -11.5,5.2 -1,0.9 -2.4,1.8 -1.2,3.4 1.5,2 2.2,-0.1 3.1,-0.9 2,-1.9 4.5,-3 7.1,-2 3.8,1.4 6.9,0.1 9.5,-2.2 8.2,-7.3 18.1,-11.7 27.8,-16.5 1.6,-0.8 3.1,-1.5 4.1,-3.2 2,-3.2 1.9,-4 -1.3,-6.2 -5.7,-3.8 -9.5,-12.9 -8,-19.7 0.5,-2.4 -1,-3.8 -1.8,-5.7 -0.4,-1 -1.2,-1.9 -0.5,-3.1 0.8,-1.2 1.8,-0.9 2.9,-0.4 1.4,0.7 2.3,0 3.3,-0.9 4.8,-4.6 8.9,-9.7 12.1,-15.5 1.9,-3.4 1.4,-3.7 -1.9,-6 -1.8,-1.2 -2.9,-4.1 -1.9,-5.8 1,-1.8 0.6,-2.9 0.1,-4.3 -0.3,-1 -1,-2.2 0.3,-2.9 1.4,-0.7 2.4,0.4 2.9,1.5 1.4,2.8 3.2,5.4 3.9,7.8 1.2,-4.8 0.9,-10.2 0,-15.6 -0.6,-3.6 -1.4,-6.9 -4.6,-9.2 -1.7,-1.2 -2.7,-3 -3.5,-5 -0.3,-0.8 -0.5,-1.7 0.2,-2.3 0.8,-0.5 1.8,0 2.2,0.6 2.7,3.9 7.8,5.3 9.7,10.2 0.9,2.4 3.8,3.5 6.6,3.5 2.7,0 5.4,0.7 8.2,0.1 0.8,-0.2 1.9,-0.3 2.4,1.1 z"
   class="st1" />
		<path
   id="path21120"
   d="m 234.8,226 c -3.5,0 -7,-0.1 -10.6,-0.1 -4.6,0 -7,-1.9 -8.2,-6.5 -0.4,-1.7 -2.2,-0.8 -3.2,-1.9 -2.1,-2.5 -4.7,-4.7 -7.3,-7.3 0.4,3.1 1.8,5.8 3.8,6.6 3.6,1.4 4.2,4.6 4.7,7.1 1.5,7.1 1.7,14.4 0.1,21.6 -0.1,0.3 -0.6,0.5 -1,0.9 -0.5,-5.2 -3.4,-9.1 -5.8,-13.3 -0.3,0.1 -0.7,0.3 -1,0.4 1,2.5 2.1,5 3.2,7.6 -1.3,0.4 -1.6,-1.9 -3.3,-0.8 0.8,1.8 2.4,3.4 1.5,6 1.6,-0.7 0.4,-2.8 2.2,-2.7 6,6.6 -0.4,11.2 -3.4,16 -2.3,3.7 -5.9,6.7 -8.9,10 -1.2,1.3 -2.5,2.5 -3.5,0 -0.5,-1.2 -1,-1 -1.8,-0.4 -0.8,0.6 -0.4,1 0.1,1.6 2.5,2.9 3.9,5.7 1.8,9.9 -1.6,3.3 4.6,13.8 8.1,16 1.4,0.9 4.4,0.7 3.9,3.1 -0.6,2.9 -1.7,6.2 -4.8,7.4 -8.5,3.3 -16.3,8 -24.2,12.7 -3.5,2.1 -5.9,5.8 -10,7.2 -1.8,0.6 -3.2,0.7 -4.9,-0.1 -3.1,-1.4 -6.9,-0.4 -7.6,2.5 -0.9,3.4 -1.8,2 -3.2,0.6 -0.9,-0.9 -1.8,-1.7 -2.7,-2.5 4.2,-5.2 10,-7.2 15.9,-8.9 7.9,-2.3 15.2,-5.9 22,-10.4 2.2,-1.4 3.8,-3.7 3.2,-6.6 -0.6,-3 -2.7,-5.1 -5.5,-5.9 -4.2,-1.2 -7.5,-3.9 -10.9,-6.3 -4.3,-3 -6,-7.8 -7.3,-12.6 -1.7,-6.1 -6.2,-10.9 -7.2,-17.4 -1,-6.5 0.5,-12 4.2,-17.3 2.8,-4 6.4,-7.3 9.6,-10.9 4.9,-5.4 3.4,-11.1 2.3,-17 -0.1,-0.3 -0.6,-0.8 -0.7,-0.7 -3.7,1.1 -2.3,-1.8 -2.5,-3.2 -0.2,-1.3 0,-2.6 0,-3.9 -1.4,-0.2 -0.2,1.9 -1.5,1.3 -0.5,-0.2 0.2,-1.9 -1.1,-1.6 -1.2,0.3 -0.6,1.6 -0.6,2.5 -0.3,3 2,5.5 1.8,8.5 2.7,-0.2 3.4,1.7 2.6,3.5 -0.8,1.9 0.8,4.2 -1.6,5.8 0.1,-4.6 -4.2,-1.9 -6,-3.6 -0.3,1 -0.5,1.7 -1,0 -0.9,-2.8 -2,-5.5 -1.6,-8.5 0.4,-2.5 -1.3,-4.1 -3,-4.7 -1.5,-0.6 -2.7,-0.5 -3.2,-2.6 -0.4,-1.9 -1.2,1 -2.3,0.1 -1.9,-1.5 -1.9,-3.7 -2.3,-5.6 -1.2,-0.6 -1.8,4 -3.5,0 -0.5,-1.2 -3.2,-1.4 -4.9,-2.1 -5.6,-2 -11.2,-3.9 -16.7,-6 -3.7,-1.4 -6.7,-3.8 -7.7,-8 -1.9,1.2 0.6,1.9 0,2.7 -0.2,0.3 -0.3,0.4 -0.4,0.5 -2.8,-2.9 -4.2,-6.6 -5.8,-10.6 -2.9,3.7 1.9,5.1 2,8.2 -3,-1.8 -4.2,-4.7 -5.6,-7.5 -2.2,1.5 1.6,2.9 -0.6,4.1 -1.5,-0.7 -2.3,-2.7 -4.7,-3.5 1.6,-0.3 2.6,-0.3 3.4,-0.7 0.5,-0.2 1.2,-0.8 0.8,-1.6 -0.3,-0.7 -1,-0.2 -1.4,-0.3 -1.5,-0.6 -2.7,-0.4 -4.3,0 -3.1,0.8 -3.5,-2.4 -4,-4.6 -0.4,-1.8 -0.1,-3.8 -0.1,-6 -2.5,1.6 -1.2,4.2 -2,6.4 -1.9,-1.6 -2.8,-3.6 -3.7,-5.7 2.2,0.1 2.6,-2.6 4.8,-2.8 4.8,-0.5 5.7,0.3 5.9,5.3 0.1,1.5 -0.9,3.4 1.2,4.3 1.6,-3.1 -1.3,-6.4 0.4,-9.8 0,5.4 7.2,5 6.8,10.6 0.4,-0.2 0.8,-0.4 1.1,-0.5 -0.1,-2.2 -0.1,-4.5 -0.3,-6.7 -0.1,-0.8 -0.4,-1.9 -1.8,-1.1 -2.9,1.8 -3.4,-0.7 -3.9,-2.4 -1,-3 0.5,-7.1 2.8,-8.2 -0.3,3.3 -0.6,6.6 -0.9,9.9 2,-3.9 2,-8.3 5,-12 -5,1 -9.3,2.3 -12.2,6.8 -2,3.1 -5.9,2 -8.2,1.2 -11.7,-4.1 -23.8,-5.9 -35.7,-8.7 -1.4,-0.3 -1.8,-1.7 -2.9,-2.1 -1.2,-0.5 -2.2,-1.8 -3.7,-1 -0.6,0.3 -1.3,0.8 -1,1.6 0.3,1 1,0.7 1.6,0.3 1.4,-1.1 2,0.7 3.5,0.7 -9.9,4.8 -12.1,14.1 -14.9,22.9 -1.7,5.2 -3.8,10.6 -1.8,16.3 0.4,1.3 0.5,3.3 -1.3,3.9 -2.8,0.9 -2.1,3 -1.9,4.7 0.7,5.4 0.8,5.3 -3.7,8.7 -1.8,-7.6 -2.9,-14.9 0,-22.6 3.1,-8.2 5.5,-16.7 8.1,-25.2 1,-3.3 0.8,-6.8 2.1,-10.1 1.7,-4.3 5.5,-6.9 10.1,-7.4 12.1,-1.3 24.2,-1.9 36.4,-2.4 0.9,0 1.7,-0.6 3.1,-1.2 -4.6,-1.1 -0.8,-5.7 -4.3,-8 0,1.9 0,3.5 0,5 0,1.2 -0.3,2.2 -1.5,2.5 -2,0.5 -2.5,-1.9 -4,-2.3 -1.7,-0.5 -0.2,-1.2 -0.2,-1.7 0.4,-5.2 4,-8.8 6.7,-12.8 0.4,-0.5 1,-1 0.4,-1.9 -4.1,3.5 -7.8,7.2 -8.8,13.4 -4,-4.7 1.9,-7.7 0.6,-11.9 -0.4,2.4 -1.9,3.4 -3.5,4.6 0.8,-4.8 3.1,-8.8 5.8,-12.7 -4,1.9 -4.5,6.6 -7.7,9.6 0,-2.6 -0.9,-5.1 1.7,-7 0.2,-0.1 0.8,-0.3 0.3,-0.9 -1.1,-1.5 -1.5,-4.5 -1,-6.6 1,-4 1.7,-8 0.5,-12.1 -0.6,-2 -1.2,-4 -3,-5.5 C 67,86.6 60.7,81.4 54.5,76.2 53.6,75.5 52.7,75.8 51.9,75.5 48.9,74.4 45.3,74 46,69.1 46.4,66.3 43.3,64.4 40.5,65.2 39,65.6 37.7,66.1 36.3,65.1 38,62.9 36,60 37.9,57.8 c 0.6,-0.7 1.1,-0.1 1.8,0.1 4.8,1.5 9.1,4 12.1,8.2 1.9,2.7 4.5,4.4 7.1,6.2 7.7,5.5 14.8,11.8 22.7,16.9 2.3,1.5 2.9,4.4 3.1,7.1 0.3,5 1.6,9.7 3.1,14.4 1.2,3.8 0.8,8.1 4.1,11.6 1.7,1.8 -1.1,5.1 -2.1,7.6 -0.9,2.1 -0.7,3.1 1.5,3.5 1.6,0.2 0.6,0.7 0.4,1.3 -0.5,1.5 -2.8,2.6 0.1,4.5 1.3,0.8 0.7,3.9 -2.3,4.5 1.6,1.2 2.6,0.7 3.3,-0.4 1.5,-2.5 2.3,-5.5 4.9,-7.3 0.2,-0.1 0.2,-0.9 0,-1 -0.7,-0.6 -1.2,-0.4 -1.4,0.5 -0.2,0.7 -0.6,0.8 -1.5,0.6 0.7,-3.9 4.3,-4.9 6.7,-7.1 2.5,-2.3 7.2,-0.6 8.1,-5 -3,0.6 -6.4,1.1 -9.7,1.9 -2,0.5 1.5,1.9 -0.2,2.6 -1.6,0.7 -3.2,1.3 -4.8,1.9 -0.2,-3.8 -1,-7.6 3.2,-9.9 -1.7,-1.4 -1.9,0.9 -3,0.8 -0.1,-0.2 -0.3,-0.5 -0.2,-0.7 0.5,-1.4 2.5,-1.9 1.6,-4.3 -0.6,-1.7 1.4,-3.1 3.2,-3 0.4,0 0.9,-0.4 1.3,-0.8 0.6,-0.7 -0.2,-1 -0.5,-1.2 -2.1,-1.4 -0.9,-2.5 -0.1,-4.2 6.2,-12.8 17.5,-18.6 30.3,-22.5 2.8,-0.8 5.6,-1.4 8.1,-3.2 4.9,-3.5 10.9,-3 16.4,-4.1 0.6,-0.1 0,2.3 1.8,1.4 1.4,-0.8 2.8,-1.3 2.9,-3.4 0.1,-1.5 2.8,-1.9 2,-4.6 -1,1.4 -3,1.1 -3.1,3.3 0,0.5 -0.7,1.2 -1.2,1.4 -5.3,2.5 -15.2,0.5 -19.7,-4.1 -1.7,-1.7 -3.4,-2.9 -5.7,-2.2 -5.1,1.4 -10.4,0.1 -15.5,2.1 -4,1.6 -6.7,-2.2 -10,-3.8 3.6,0 7.2,0 10.8,0 1.2,0 2.4,0.1 3.6,-0.4 2.2,-0.9 4.7,-1.3 4.8,-4.3 0.2,-3.1 -2.7,-3.4 -4.5,-4.3 -5.1,-2.6 -10.7,-3 -16.3,-3.3 -1.3,-0.1 -2.6,-0.1 -2.9,-1.5 -0.3,-1.4 0.8,-1.9 1.7,-2.7 2.4,-2.3 4.8,-2.5 8.1,-2.5 9.9,0.1 19.7,-0.7 28.8,-5.5 5,-2.6 9.8,0.1 14.5,1.9 1.2,0.5 1.2,1.5 0.4,2.6 -0.6,0.8 -0.1,1.8 0.7,2.5 1,0.7 1.4,-0.4 2,-0.5 3.7,-0.6 5.2,-4.1 8,-5.9 1.6,-1.1 0.2,-4 0.7,-6.5 -3.3,3.2 -4.2,7.7 -8.8,10.2 2.9,-7.2 9,-11.1 11.5,-17.6 2.6,7.8 -2,18.5 -9.1,21.4 -1.1,0.4 -2.1,0.7 -1.8,2.1 1.5,-0.5 1,3.1 3.3,1.6 0.8,-0.5 2.6,-3.1 3.8,0.2 0.2,0.5 1,-1.7 0.8,-2.3 -0.9,-2.3 -0.2,-2.7 1.9,-1.9 2.4,0.9 2.5,-1.5 2.8,-2.5 0.9,-2.4 -0.9,-0.2 -1.3,-0.6 -0.2,-0.2 -0.6,-0.4 -0.5,-0.4 1.5,-2.7 0.6,-6.4 3.1,-8.5 4.3,-3.7 4.6,-3.8 3.4,-8.8 1.6,1.9 1.7,5.6 1.5,7.6 -0.2,3.2 -5,3.1 -4.2,7 2.6,-2.4 5.2,-4.2 7.7,-6.1 2,-1.5 4.1,-2.1 5.3,-0.5 1.5,2 4.9,0.8 5.5,3.9 -0.7,0 -1.3,0 -2,0.1 -0.7,0.1 -1.9,-0.4 -1.8,0.9 0.1,1.2 1.2,0.8 1.9,0.6 2.5,-0.9 4.4,-0.3 6.4,1.4 0.9,0.8 2.6,2.3 4.2,0.4 0.4,-0.5 0.8,-1 1.6,-0.2 0.7,0.8 0.6,1.3 -0.1,2.1 -2.6,3.1 -4.4,0.1 -7.2,-1.1 1.5,3.4 4.1,3.2 6.5,3.4 -0.5,5.7 -4.9,3 -7.3,2.7 -1.6,-0.2 -2.2,0.7 -3.4,0.8 6.3,0.3 10.2,3.6 12.7,9.1 -2.1,-1.7 -4.4,-3 -7.2,-3.8 1.9,3.9 9.9,3.8 6,10.9 -1.1,-2.8 -3.8,-3.7 -5.6,-5.7 -0.2,0.3 -0.4,0.6 -0.4,0.7 3.4,2.8 4.9,6.9 6.9,10.6 1.6,2.8 4.7,2.7 7.7,2.7 -3.1,5.5 -6.9,0 -10.6,0.9 2.1,2.5 6,3.7 4.8,7.8 -3.5,-1.5 -5.8,-5.4 -10.6,-5.4 10.6,6.5 10,10.6 7.9,17.2 -0.9,-3.9 -1.6,-7.6 -5,-9.7 -3.1,-1.9 -6.1,-4.1 -10.6,-4.2 6.2,3.4 12.2,6.2 13.8,14.6 -3.8,-4.4 -7.8,-6.5 -12.3,-7.8 3.1,2.3 6.6,4 9.2,7 1.8,2 3,3.9 2.9,6.8 -0.1,3.7 2.2,6.3 4.9,8.4 1.7,1.3 3.9,0.9 5.6,-0.9 -2.6,4 -8.4,4.3 -12.2,1.2 -0.7,-0.6 -1.2,-3.2 -2.9,-1.3 -1.3,1.5 0.7,2.1 1.4,2.8 1,1.2 0.3,3.4 -2.8,5.8 0.9,-1.9 1.5,-3.3 0.1,-4.4 -0.8,-0.6 -1.5,-1.8 -2.6,-0.4 -1.3,1.6 0.1,1.4 1.1,1.9 1.5,0.8 0.5,2.5 0.6,3.9 0.2,1.9 -3.9,3.9 0.2,5.6 -2.4,2 0.5,3.2 1.4,5 -5.6,-1.3 -6.8,-4.9 -6.2,-9.5 -1.5,0.9 -0.4,2.3 -1.5,3.2 -1.7,-1 -2.2,-3.6 -5.6,-4.4 4,4.6 5.5,8.9 0.8,13.3 -0.4,-1 -1,-2 -1.1,-3 0,-1.3 -0.8,-2.2 -1.3,-3.3 -0.2,-0.5 -0.9,-1.2 -1.6,-0.8 -0.6,0.3 -0.4,0.8 -0.1,1.4 3.1,7.5 2.5,9.5 -4.2,14.6 0.7,-7.3 0.7,-7.3 -0.8,-10.3 -0.6,3.1 0.5,6.1 -1.7,8.5 -0.2,-3.8 0.1,-7.8 -3.2,-10.7 -0.9,2.2 1.3,3.6 1.5,5.6 1.4,10.6 -7.8,15.9 -16.3,14.6 -3.2,-0.5 -6.4,-1.5 -9.3,-3.2 -3.5,-2 -6.8,-8.1 -4.9,-13.9 1,-3 6,-5.8 10.5,-5.4 -3.2,3 -5.4,5.9 -4.8,10.3 0.5,3.9 2.3,5.8 6.2,5.7 4.1,-0.1 6.2,-3.4 8.2,-6 1.5,-1.9 0.4,-4.4 -1.6,-6.5 -2.3,-2.5 -1.6,-4.3 1.2,-4.9 0.3,0.4 0.7,0.8 1.1,1.1 0.1,0.1 0.1,-0.1 -0.3,-0.3 -0.3,-0.2 -0.6,-0.5 -0.9,-0.7 -0.2,-3 -0.8,-6.1 1.1,-10.3 0.2,5.4 3.1,7 7.4,7.9 -0.7,-0.9 -0.9,-1.3 -1.3,-1.6 -6.2,-5.4 -6.2,-8.8 -0.4,-14.8 5.6,-5.8 10.8,-11.8 13.2,-19.7 1.8,-6.1 2.9,-12.3 2.1,-18.6 -1.4,1.3 -1.4,1.3 -1.5,2.9 -0.5,7 -1.2,14 -4.1,20.6 -1.6,3.7 -4.2,6.4 -6.8,9.3 -3.6,4.1 -7.6,7.8 -11.1,11.9 -4.5,5.4 -4.9,13.8 -0.5,19 1.4,1.7 1.5,3.1 -0.1,4.6 -0.6,0.6 -1.2,1.1 -1.8,1.7 -2,2.1 -4.3,3.5 -7.1,2 -1.8,-1 -2.3,-6.5 -0.9,-8.6 1,-1.6 2.2,-3 3.5,-4.4 0.6,-0.7 0.9,-1.4 0.7,-2.2 -0.2,-1 -1.1,-0.6 -1.7,-0.6 -8.7,-0.7 -15.2,7.8 -12.4,15.1 2.6,6.8 7.6,11 15,11.1 3.2,0 6.5,0.8 9.6,-0.7 1.1,-0.5 2,0.2 2.7,1.3 3.6,5.7 7.6,11.2 11.7,16.6 3,4 6.4,7.5 10.1,10.6 7.7,6.3 14.2,13.8 20.8,21.2 2.6,2.9 4.3,6.6 6.2,10.1 1.9,3.5 4.5,5.4 8.7,5.2 4.5,-0.2 7.1,-2.9 9.7,-6 0.4,-0.5 0.4,-1.1 -0.2,-1.4 -1.1,-0.5 -1,1 -2.1,1.4 3.2,-9.2 -1.5,-15.4 -7.6,-21.2 -1.8,-1.7 -3.2,-3.9 -4.6,-6 -2.8,-4.1 -1.1,-8.2 0.5,-12 1.2,-2.9 2.5,-5.8 4.7,-8.2 2.1,-2.3 1.8,-4.8 -0.3,-7.2 -0.3,-0.4 -2.1,0.1 -0.9,-1.3 0.5,-0.6 1.2,-0.9 1.7,-0.2 3.4,4.2 6.1,2.5 9.8,-0.1 4.3,-3.1 9.6,-3.7 14.9,-1.9 6,2.1 11.9,4.5 15,11.3 -4.6,-0.3 -8.3,-3.5 -13.7,-3 6,2.3 11.2,4.1 15.5,7.9 6.1,5.4 8.8,12.5 10.3,20.2 1.1,5.5 1.8,11 2.5,16.6 0.7,5.9 -2.3,11.1 -3.7,16.6 -0.7,2.7 -1.2,5.4 -1.4,9 -1.7,-2.2 -4.6,-0.2 -5.6,-3 -1.5,-4.1 0.7,-7.6 2,-11.3 0.4,-1 1.9,-1.6 1.1,-3.2 -3.2,2.7 -3.7,6.8 -5.3,10.2 -2,4.3 4.9,12 10.6,12.4 1.2,0.1 2.4,0 4,0 -5,3.1 -9.7,2.9 -13.9,-0.9 1.4,5.9 -2.6,9.1 -5.7,12.5 -3.8,4.1 -6.6,8.6 -8.3,13.9 -1.6,4.7 -1.5,9.2 2.6,12.8 3.9,3.4 5.7,3.5 11.7,0.4 -2.3,6.6 -9.8,8.7 -15,2.9 -3.3,-3.7 -4.8,-8.5 -6.7,-12.9 -1,-2.3 1.5,-4.6 0.5,-7.1 -4.6,10.7 -2.1,20.1 6.4,24.8 -3.1,0.4 -8.2,-1.5 -9.6,-4.3 -4.3,-8.8 -4.7,-17.5 2.7,-25.3 -9.2,5.9 -9.6,21 -1.9,28.9 -3.7,-0.5 -7.2,-4.8 -8.9,-9.2 -3,-8 0.5,-13.7 5.5,-19.2 0.5,-0.5 0.9,-1 1.5,-1.4 0.6,-0.5 0.3,-0.9 -0.1,-1.2 -0.6,-0.5 -0.6,0 -1,0.4 -5,3.9 -8.5,8.6 -9,15.1 0,0.6 -0.1,1.1 -0.8,1.1 -1.9,-5.1 -1.2,-8.9 2.2,-12.3 2.9,-2.9 5.7,-5.9 8.8,-8.7 1.7,-1.5 1.3,-2.6 0.3,-4.1 -1.4,0.5 -0.6,2.9 -2.5,2.9 0.2,-2.3 -3.9,-1.4 -3,-4.5 1.2,-4.1 2.1,-7.9 6.2,-10.5 6.1,-4 12.2,-8.2 15,-15.6 1.7,-4.5 1.1,-9.1 0.7,-13.6 -0.3,-2.8 -1.9,-5.6 1.3,-8.1 -2.5,-0.4 -2.7,2.3 -4.5,2.2 -0.4,-1.9 1.6,-2.7 2,-4.3 -3.6,1.8 -7.6,7.9 -8.3,12.4 -1.4,8.3 -3.8,16.2 -11.8,20.8 -0.4,0.3 -0.5,1.2 -0.7,1.8 -0.3,-0.4 -0.2,-0.5 -0.2,-0.5 z"
   class="st0" />
		<path
   id="path21122"
   d="m 120.7,228.4 c -0.7,-4.4 1.5,-7.5 5,-6.8 -0.9,-1 -1.7,-1.9 -2.5,-2.8 9.3,-9.7 21,-6.1 31.9,-6.5 -2.1,1.2 -2,1.2 -1.8,2.3 0.4,1.7 1,1.2 2.5,1 2.4,-0.4 1.9,1.9 1.8,3.4 -1.3,0.7 -1.8,-3.2 -3.3,-0.4 -2.7,-2 -4.3,-0.7 -6.2,1.5 -0.9,1 -1,-2.1 -2.6,-1.6 -0.2,-0.2 0.1,0 0.1,-0.1 -0.4,2.8 2.5,3.3 3.6,5.1 0.1,0.2 1.2,0.1 1.5,-0.2 1.8,-1.6 1.6,-1.5 3.9,-0.1 1.3,0.8 1.8,2.6 3.6,2.5 0.1,-0.2 0.3,-0.5 0.2,-0.7 -0.6,-1.3 -3,-2.6 -1.6,-3.7 2,-1.6 1.7,1.6 2.5,2.4 2.8,2.9 5.5,6 7.4,9.6 0.5,0.9 0.1,1 -0.2,1.4 -1.2,2.4 -3.2,4 -5.1,5.9 -1.1,-1.6 -2.2,-3.1 -3.6,-5.2 0,2.7 1.2,4.2 2.3,5.6 1.2,1.5 0.1,1.8 -0.9,2.2 l -0.1,-0.2 0.2,0.1 c -1.5,1.7 -1.4,5.9 -5.5,3.6 -2,3 -6,2.5 -8.4,4.9 -2.8,2.8 -6,5.1 -8.6,8 -1.5,1.7 -2.5,4 -2.2,6.7 0.3,3.1 -1.5,5.2 -4.5,5.5 -2.4,0.2 -4.8,0.9 -7.2,0.8 -6.7,-0.3 -13.3,1 -19.9,1 -8.3,0 -16.5,1.6 -24.7,2.7 -1.3,0.2 -2.1,0.2 -2.6,-0.7 -1,-2.3 -8,-5.7 -9.7,-4.2 -2.6,2.3 -4,0.6 -6,-0.7 4.6,-3.1 9.6,-3.8 14.8,-3.8 10.6,-0.1 21.1,-1.4 31.4,-3.8 3.3,-0.8 6.7,-0.6 9.7,1.4 0.9,0.6 2.1,1.5 2.6,0 0.4,-1.2 -1.2,-1.3 -2,-1.6 -1,-0.3 -2.8,0.5 -2.4,-1.7 0.4,-1.7 1.3,-1.7 2.5,-0.5 0.3,0.3 0.7,0.1 0.7,-0.4 0,-0.6 0.2,-1.2 -0.7,-1.7 -11.5,-5.6 -9.4,-20.5 -1.3,-26.8 1.6,-1.2 3.5,-2.7 5.4,-3.7 1.1,1.2 2.7,1.5 3.9,2.4 0.2,0.2 0.4,0.3 0.5,0.4 -0.1,-0.1 -0.3,-0.2 -0.5,-0.4 -1.2,-0.8 -2.6,-1.3 -3.9,-2.1 z"
   class="st0" />
		<path
   id="path21124"
   d="m 127.5,31.6 c 1.8,4.6 2,4.7 14.5,4.4 -1.4,-2.5 -6,-3.2 -4.6,-6.6 0.9,-2.2 2.8,-4.5 6.2,-4.9 -4.4,3.7 -3.4,7.8 1.5,10 4,1.8 8.6,1.5 12.2,4.2 0.8,0.6 2.5,0.6 1.2,2.3 -0.7,1 -1,1.9 -2.7,1.1 -6.4,-2.8 -13.5,-2.5 -20.3,-3.5 -5.1,-0.7 -7.9,-2.3 -8,-7 z"
   class="st0" />
		<path
   id="path21126"
   d="m 45,277.9 c 3.3,-4.2 12.6,-6.3 15.9,-4.5 2.7,1.5 0.5,3 0.6,4.4 0.2,1.8 -1,2.1 -2.6,2.3 -4.7,0.4 -9.2,-0.6 -13.9,-2.2 z"
   class="st0" />
		<path
   id="path21128"
   d="m 41.1,213.3 c -0.4,2.7 -0.4,6.3 -3,7.2 -1.5,0.5 -2.7,-3.2 -3.8,-5.1 -1.9,-3.3 0.1,-8.8 3.5,-9.7 1.2,-0.3 2.2,1.1 2.2,1.7 0,2.1 1.7,3.8 1.1,5.9 z"
   class="st0" />
		<path
   id="path21130"
   d="m 142.3,337.6 c -2,0 -3.7,0.4 -3.9,-1 -0.2,-1.1 1.2,-1.8 2.4,-2.3 1.3,-0.6 2.3,-1.8 3.6,-2.5 1.1,-0.7 1.4,-2.9 3.5,-1.9 2.4,1.1 4.2,3 5.6,5.1 0.6,1 -0.7,1.9 -1.9,1.9 -3.5,-0.2 -6.8,-0.1 -9.3,0.7 z"
   class="st0" />
		<path
   id="path21132"
   d="m 27.2,51.2 c 1.6,0.8 2.8,1.6 4.1,2.2 3.1,1.6 5,3.9 4,7.7 -0.2,0.8 0.5,2.2 -1.1,2.1 -1,0 -2.1,0.6 -3,-0.6 -2.2,-3.4 -4.7,-6.8 -4,-11.4 z"
   class="st0" />
		<path
   id="path21134"
   d="m 100.6,66.2 c 7.2,-4.1 14.7,-3.4 23.3,-2.2 -4.6,2.1 -8.4,1.7 -12.1,1.7 -3.8,-0.1 -7.5,0.2 -11.2,0.5 z"
   class="st0" />
		<path
   id="path21136"
   d="m 160.4,30.8 c 0.9,1.7 0.4,3.4 1.8,4.7 1.3,1.2 -0.7,2 -1.4,2.7 -1.3,1.2 -1.3,-0.5 -1.8,-1.1 -1.9,-2.4 -0.5,-4.1 1.4,-6.3 z"
   class="st0" />
		<path
   id="path21138"
   d="m 112.1,57.9 c -2.6,0 -5.1,0 -8.5,0 3.4,-2.7 5.8,0.8 8.5,0 z"
   class="st0" />
		<path
   id="path21140"
   d="m 161,217.4 c -0.1,0.8 0.3,1.9 -1,1.8 -0.9,-0.1 -0.7,-1 -0.7,-1.6 0,-0.6 -0.2,-1.4 0.8,-1.5 1.1,-0.1 0.8,0.8 0.9,1.3 z"
   class="st0" />
		<path
   id="path21142"
   d="m 157.2,31.8 c -0.3,-1 -0.8,-2.1 0.3,-3 0.1,-0.1 0.9,0.2 0.9,0.4 0.3,1.1 0.1,2.1 -1.2,2.6 z"
   class="st0" />
		<path
   id="path21144"
   d="m 165.1,228.3 c -0.6,0 -0.9,-0.4 -0.8,-1 0.1,-0.5 0.2,-1.2 0.5,-1.3 0.8,-0.3 1.1,0.4 1.1,1.1 0,0.5 0,1 -0.8,1.2 z"
   class="st0" />
		<path
   id="path21146"
   d="m 168.1,225.9 c 0.4,0.6 0.8,1.1 1.1,1.6 0.1,0.2 -0.2,1 -0.5,0.5 -0.4,-0.6 -1.8,0 -1.5,-1.2 0,-0.3 0.5,-0.6 0.9,-0.9 z"
   class="st0" />
		<path
   id="path21148"
   d="m 132,52.3 c 2.5,-2.3 4.6,-3.8 7.1,-4.8 3.1,-1.2 6.1,-1.9 8.1,2.1 0.9,1.9 3,2.8 5.3,3.4 -5,-1.8 -8.9,5.9 -14.3,1.3 0.8,2.2 3,3.6 2.5,6.4 -3.4,-2 -3,-8.1 -8.7,-8.4 z"
   class="st1" />
		<path
   id="path21150"
   d="m 194.3,65.3 c -8.6,-4.8 -12,-3.7 -14.2,1.6 5,-1.9 7.6,-1.8 11.1,0.7 -0.6,0.8 -1.6,0.8 -2,0.3 -2.1,-2.7 -4.2,-0.8 -6.1,0 -2.8,1.1 -4.7,0.4 -4.9,-2.4 -0.1,-2.4 0.3,-4.6 -2.4,-6.2 -1,-0.6 -1.8,-2.9 0.9,-3.5 2.3,-0.4 4.2,-2.6 6.9,-1.3 -1.7,0.7 -3.4,1.2 -5,2.1 -0.8,0.4 -2.1,1.2 -0.9,2.5 0.7,0.8 1.1,1.6 2.8,0.6 3.2,-1.9 7.6,-2.7 12,0.9 -4.6,-1.2 -9.4,-3.1 -12.7,2.9 6.1,-5.4 10.3,-1.7 14.5,1.8 z"
   class="st1" />
		<path
   id="path21152"
   d="m 117.4,176.8 c 1.6,-1.4 0,-3.3 1.8,-4.6 1.5,2.9 -0.6,6.9 2.8,8.8 0,-0.1 0.2,-0.3 0.2,-0.6 0.1,-1.5 -2.2,-3.9 0.4,-4.4 2.7,-0.5 0.4,2.5 1.5,3.6 1.3,1.3 -0.2,3.4 1.5,4.7 -2.9,-2.3 -6.4,-3.2 -8.8,-6 -2.1,-2.5 -3.4,-6.6 -2,-9.4 0.1,-0.3 0.6,-0.6 0.9,-0.5 0.9,0.2 0.9,1.2 0.6,1.6 -1.1,2.5 -0.6,4.6 1.1,6.8 z"
   class="st1" />
		<path
   id="path21154"
   d="m 239.4,187.9 c -4.6,-7.7 -1.3,-12.3 3.6,-19.1 -0.9,3.6 -1,6.8 -3.4,9.4 -1.4,1.5 -1.3,4.1 0.1,6 1.3,1.5 1.3,2.6 -0.3,3.7 z"
   class="st1" />
		<path
   id="path21156"
   d="m 242.7,244.8 c -0.6,-4.2 1.9,-9 5.4,-10.7 3.2,-1.5 5.8,-3.7 7.2,-7.1 -0.1,3.3 -1.6,5.8 -4.6,7.4 -2.8,1.5 -5.2,3.5 -6.3,6.5 -0.4,1.2 1.5,3.2 -1.7,3.9 z"
   class="st1" />
		<path
   id="path21158"
   d="m 179,271.7 c -5.7,0.4 -5.7,0.4 -5,5.7 -2.4,-0.9 -1.5,-4.3 -3.1,-4.9 -2.4,-0.8 -2.4,-2.6 -3.2,-4.3 1.5,1.4 3,2.7 5.4,2.7 -0.4,-0.8 -0.7,-1.7 -1.1,-2.4 -0.7,-1 0,-1.6 0.6,-2 0.9,-0.5 1.2,0.4 1.4,0.9 0.8,2.2 2.8,3.3 5,4.3 z"
   class="st1" />
		<path
   id="path21160"
   d="m 232.6,208.3 c 1.7,-5.9 -0.6,-10.6 -3.8,-15.4 -1.6,-2.4 -2.8,-5.3 -3.2,-9 7.7,10.2 10.5,20.2 7,24.4 z"
   class="st1" />
		<path
   id="path21162"
   d="m 243.5,198.9 c -0.8,-3.3 1.2,-5.4 1.9,-7.8 0.4,-1.5 1.4,-2.3 2.7,-2.6 2.2,-0.4 5,1.4 6.3,-2 0.1,-0.3 0.9,0.1 1,0.8 0.2,1.5 -0.9,2.4 -1.8,2.9 -0.9,0.4 -2,2.1 -3.1,0.7 -3,-3.9 -3.2,0.1 -4,1.5 -0.4,0.7 0.1,2 -0.3,2.8 -0.6,1.2 -1.6,2.3 -2.7,3.7 z"
   class="st1" />
		<path
   id="path21164"
   d="m 244.3,189.4 c -0.6,-3.2 -2.8,-5.9 0.9,-7.7 1.4,1 -1.1,1.7 -0.1,2.9 2.2,-0.9 1.3,-4.7 4.3,-4.7 3,-0.1 3.4,2.5 4.4,4.3 -0.7,0.9 -1.5,0.8 -1.8,0.1 -2,-4.4 -3.6,-2.3 -5.1,0.3 -0.6,1.3 -1.4,2.7 -2.6,4.8 z"
   class="st1" />
		<path
   id="path21166"
   d="m 92.4,145.2 c -0.2,2.2 -2.3,2.3 -2.6,4 1.5,1.1 2.6,-1.3 4.1,-0.4 0.5,2.1 -5.3,1 -2.3,4.4 0.1,0.1 -0.5,0.9 -0.7,0.9 -2.1,-0.6 -2.6,-2.7 -3.9,-4.1 -1,-1.1 -0.4,-1.6 0.4,-2.1 1.7,-1 3.3,-1.8 5,-2.7 z"
   class="st1" />
		<path
   id="path21168"
   d="m 210.8,236 c -1.3,-2.6 -2.2,-4.4 -3.1,-6.2 0.1,-0.2 0.3,-0.3 0.4,-0.5 0.5,0.4 1,0.8 1.8,1.4 0.8,-3.1 0.2,-5.9 -1.4,-8.6 3.3,2.3 3.3,2.6 2.3,13.9 z"
   class="st1" />
		<path
   id="path21170"
   d="m 163.7,208.1 c 1.7,0.2 0.9,2.1 2,2.8 0.1,-2.4 0.3,-4.6 0.4,-6.9 0,0 0.2,-0.1 1.1,-0.3 -1.4,2.9 0.4,5.2 0.2,7.8 -0.1,0.8 0.5,2.1 -1.1,2.1 -1.1,0 -2.1,-0.6 -2.1,-1.5 0.2,-1.4 -1.4,-2.4 -0.5,-4 z"
   class="st1" />
		<path
   id="path21172"
   d="m 161.2,143.1 c -0.1,-0.3 -0.3,-0.6 -0.2,-0.8 2.8,-3.8 3.5,-7.6 -0.2,-11.4 4.9,3.3 4.8,9.2 0.3,12.1 z"
   class="st1" />
		<path
   id="path21174"
   d="m 154.5,136.4 c -1.2,1.1 -0.8,3.4 -2.8,3.9 -0.1,-2.1 -3.2,0.2 -2.8,-1.6 0.3,-1.6 2.2,-2.5 3.8,-3.2 0.5,-0.2 1.6,-0.2 1.8,0.9 z"
   class="st1" />
		<path
   id="path21176"
   d="m 164.2,264 c -4,-5.2 -4.2,-8.5 -0.7,-12.4 -2.9,4.4 -0.3,8.3 0.7,12.4 z"
   class="st1" />
		<path
   id="path21178"
   d="m 163.5,145.7 c 2.5,-2.6 3.1,-5.8 3.5,-9.2 2.1,3.7 0.8,7.5 -3.5,9.2 z"
   class="st1" />
		<path
   id="path21180"
   d="m 78.7,99.2 c 0.1,-3 -2.5,-5.4 -2.1,-8.6 0.6,3 6,4.7 2.1,8.6 z"
   class="st1" />
		<path
   id="path21182"
   d="m 259.8,208.3 c 2.7,-4 4.2,-8.4 5.2,-13 0.8,5.3 -1.7,9.4 -5.2,13 z"
   class="st1" />
		<path
   id="path21184"
   d="m 172,53.1 c 1.5,-6 6.6,-2.1 9.8,-3.9 -3.3,1.1 -6.9,1.5 -9.8,3.9 z"
   class="st1" />
		<path
   id="path21186"
   d="m 119.8,110.8 c 3.6,0.4 6.8,-0.8 9.7,1.2 -3.1,0.3 -6.3,1.5 -9.7,-1.2 z"
   class="st1" />
		<path
   id="path21188"
   d="m 100.7,165.2 c 1.3,2.2 -0.1,4.5 1.1,6.5 0.3,0.5 -0.6,1.4 -1.2,1.4 -0.4,0 -1.1,-0.9 -1.1,-1.4 -0.2,-2.2 -0.5,-4.4 1.2,-6.5 z"
   class="st1" />
		<path
   id="path21190"
   d="m 113.2,117.8 c -0.7,0.4 -1.3,0.8 -2,1.1 -1.2,-2.1 -3.6,2 -4.2,-0.7 -0.2,-0.8 1.9,-2.6 3.2,-3.2 2.1,-0.7 -0.3,4.2 3,2.8 z"
   class="st1" />
		<path
   id="path21192"
   d="m 194.8,70.4 c 2.4,1.2 3.2,3.7 4.8,5.5 0.5,0.6 0.8,1 0,1.6 -0.9,0.7 -1.2,-0.2 -1.5,-0.6 -1.5,-2 -2.7,-4.1 -3.2,-6.6 z"
   class="st1" />
		<path
   id="path21194"
   d="m 168.2,117.7 c 3.4,1.7 7,3.2 9.1,6.7 -2.5,-2.9 -7.2,-2.8 -9,-6.8 z"
   class="st1" />
		<path
   id="path21196"
   d="m 161.1,143 c -2.4,2.1 -4.7,4.4 -8.2,4.5 2.9,-1.2 4.2,-5.4 8.3,-4.4 0,0 -0.1,-0.1 -0.1,-0.1 z"
   class="st1" />
		<path
   id="path21198"
   d="m 268.9,195.6 c 1.3,4.7 -0.1,7.9 -2,10.9 0.6,-3.2 1.2,-6.5 2,-10.9 z"
   class="st1" />
		<path
   id="path21200"
   d="m 254,176 c -2.5,-0.7 -3.7,-2.8 -5.8,-2.7 -0.7,0 -1,-0.6 -0.8,-1 0.2,-0.3 1,-0.7 1.3,-0.5 1.9,0.8 4.6,0.6 5.3,4.2 z"
   class="st1" />
		<path
   id="path21202"
   d="m 128.5,181.4 c 1.6,2.1 1.5,4.7 3.1,6.5 0.1,0.1 0.8,0.7 0,0.8 -0.5,0.1 -1.5,0 -1.5,0 -0.2,-2.4 -2.8,-4.2 -1.6,-7.3 z"
   class="st1" />
		<path
   id="path21204"
   d="m 202.9,302.7 c -0.8,0.7 -1.6,1.9 -2.2,1.9 -1.8,-0.2 -1.2,-2.2 -1.8,-3.4 -0.3,-0.5 0,-1.5 0.9,-1.3 1.5,0.2 1.3,2.5 3.1,2.8 z"
   class="st1" />
		<path
   id="path21206"
   d="m 106.8,53.4 c 1.9,-1.4 3.1,-3.2 5.4,-2.3 0.3,0.1 0.5,1.2 0.3,1.4 -1.6,1.7 -3.5,0.5 -5.7,0.9 z"
   class="st1" />
		<path
   id="path21208"
   d="m 75.6,154.4 c -1,0 -1.7,0 -2.4,0 -1.4,0 -2.8,0.2 -3.3,-1.6 -0.1,-0.3 0,-0.8 0.6,-0.6 1.1,0.4 2.9,-2.3 3.5,0.7 0.1,0.6 0.9,0.9 1.6,1.5 z"
   class="st1" />
		<path
   id="path21210"
   d="m 168.3,117.6 c -2.2,-2.2 -3.5,-4.5 -1,-7.7 0.3,2.9 0.6,5.3 0.9,7.8 0,0 0.1,-0.1 0.1,-0.1 z"
   class="st1" />
		<path
   id="path21212"
   d="m 118.8,116.6 c -1.5,0 -1.2,-1 -1.3,-1.7 -0.1,-1.3 0.5,-1.8 1.6,-1.5 0.7,0.2 1.4,0.9 2.1,1.3 -1.4,0 -1,2.4 -2.4,1.9 z"
   class="st1" />
		<path
   id="path21214"
   d="m 254,178.9 c 0.5,0 1.1,0.1 1.6,0.2 0.8,0.1 0.6,-2.6 2,-0.7 0.6,0.8 0.5,1.7 -0.2,2.5 -1.2,1.3 -1.8,0.3 -2.6,-0.5 -0.4,-0.4 -1.1,-0.8 -0.7,-1.6 z"
   class="st1" />
		<path
   id="path21216"
   d="m 123.5,58.8 c 3,-1 3.6,0.7 4.7,1.6 0.9,0.8 1.4,2.2 0.3,2.6 -1.5,0.6 -0.8,-1.2 -1.2,-1.8 -0.9,-1.1 -1.7,-2.1 -3.8,-2.4 z"
   class="st1" />
		<path
   id="path21218"
   d="m 207.2,254.2 c 0,-2.5 0,-4.3 0,-6.1 0.4,0 0.7,0 1.1,0 0.5,1.8 0.9,3.6 -1.1,6.1 z"
   class="st1" />
		<path
   id="path21220"
   d="m 159.3,127.3 c 1.9,-0.4 3.1,0.4 4,2.4 -1.9,-0.2 -4.5,1.3 -3.9,-2.5 0,0 -0.1,0.1 -0.1,0.1 z"
   class="st1" />
		<path
   id="path21222"
   d="m 220.3,219.2 c 2.6,1.2 5,-0.9 8.3,-0.7 -3.2,1.7 -5.7,2.2 -8.3,0.7 z"
   class="st1" />
		<path
   id="path21224"
   d="m 101,122.3 c 0.3,1.1 -0.3,1.5 -1.3,1.9 -0.8,0.4 -1.4,0.7 -2.2,0.5 -0.2,-0.1 -0.6,-0.7 -0.5,-0.9 0.3,-0.9 1,-1.5 2.1,-1.5 0.7,0 1.3,0 2,0.1 z"
   class="st1" />
		<path
   id="path21226"
   d="m 204.2,253.2 c -0.7,-1.8 -0.8,-3.2 0.8,-4.2 0.2,-0.1 0.9,0 1,0.2 0.6,1.8 -0.3,2.9 -1.8,4 z"
   class="st1" />
		<path
   id="path21228"
   d="m 142.2,139.5 c -1.1,-1.6 -1.1,-3.2 -0.3,-5.4 1.6,2.2 1,3.8 0.3,5.4 z"
   class="st1" />
		<path
   id="path21230"
   d="m 254.1,178.8 c -2.6,1.1 -4.5,-0.7 -6.5,-1.9 2.1,0.7 4.7,-0.3 6.3,2 0.1,0 0.2,-0.1 0.2,-0.1 z"
   class="st1" />
		<path
   id="path21232"
   d="m 240.3,198.5 c -0.8,-1.4 -0.4,-2.7 -0.4,-4.1 0,-1.7 -0.4,-3.5 0.3,-5.3 0.8,1.4 0.4,2.7 0.4,4.1 0,1.7 0.4,3.5 -0.3,5.3 z"
   class="st1" />
		<path
   id="path21234"
   d="m 175.9,274.3 c 0.6,0.9 1,1.4 1.3,2 0.6,0.8 1.9,1.2 1.7,2.6 0,0.2 -0.9,0.5 -1,0.4 -0.7,-1.1 -2.8,-1.2 -2.2,-3.2 0.2,-0.5 0.2,-0.9 0.2,-1.8 z"
   class="st1" />
		<path
   id="path21236"
   d="m 161.5,145.6 c -1.2,1.3 -1.8,3.6 -4.6,2.9 1.3,-1.6 2.9,-2.4 4.6,-2.9 z"
   class="st1" />
		<path
   id="path21238"
   d="m 80.5,155.1 c 0,1.1 -0.8,0.9 -1.4,1 -1,0.1 -2,0 -1.8,-1.4 0.1,-0.5 0.4,-1.5 0.4,-1.3 0.4,1.5 2.4,0.4 2.8,1.7 z"
   class="st1" />
		<path
   id="path21240"
   d="m 101.1,122.4 c 0.1,-1 -0.8,-2.6 1.4,-2.5 1.3,0 -0.2,2.1 1.4,1.8 -0.7,1.6 -2,0.3 -2.9,0.7 0,-0.1 0.1,0 0.1,0 z"
   class="st1" />
		<path
   id="path21242"
   d="m 200.6,255.3 c -0.2,-1.4 -0.6,-2.7 0.7,-4.7 0.9,2.1 1.4,3.5 -0.7,4.7 z"
   class="st1" />
		<path
   id="path21244"
   d="m 194.5,48.2 c -1.9,0.8 -3.2,-0.9 -4.7,-1.4 1.5,0.8 3.6,-1.1 4.7,1.4 z"
   class="st1" />
		<path
   id="path21246"
   d="m 168.2,215 c 0,1.9 0,3.7 0,5.6 -0.7,-2 -0.8,-3.9 0,-5.6 z"
   class="st1" />
		<path
   id="path21248"
   d="m 110.4,122 c 1.6,-0.6 3.1,-0.8 4.5,0 0.1,0 0.1,0.7 0,0.7 -1.7,0.8 -3,-0.8 -4.5,-0.7 z"
   class="st1" />
		<path
   id="path21250"
   d="m 270.1,211 c -3.2,-1.7 0.4,-3 -0.5,-4.5 0.9,1.4 0.6,2.8 0.5,4.5 z"
   class="st1" />
		<path
   id="path21252"
   d="m 247.9,244.6 c 0.8,-1.4 1.6,-2.7 2.4,-4.1 0.3,2.2 -0.3,3.7 -2.5,4 z"
   class="st1" />
		<path
   id="path21254"
   d="m 192.8,107 c 1.6,0 2.2,1.1 2.6,2.4 0,0.1 -0.5,0.7 -0.7,0.6 -1.8,-0.3 -1.6,-1.8 -1.7,-3.1 z"
   class="st1" />
		<path
   id="path21256"
   d="m 192.9,106.9 c -1.4,-1.1 -2.8,-2.1 -2.4,-4.2 0.7,1.5 2.9,2.1 2.3,4.3 0,0 0.1,-0.1 0.1,-0.1 z"
   class="st1" />
		<path
   id="path21258"
   d="m 164.1,131.3 c 1.7,0.4 3,1.1 2.4,3.3 -0.8,-1.2 -1.6,-2.3 -2.4,-3.3 z"
   class="st1" />
		<path
   id="path21260"
   d="m 161.1,56.4 c 1.1,0.8 2,-1.2 3,-0.2 0.2,0.2 0.1,1 0,1 -1.1,0.2 -2.3,0.8 -3,-0.8 z"
   class="st1" />
		<path
   id="path21262"
   d="m 205.3,246.5 c 0,0.8 0,1.4 -0.7,1.5 -1,0.1 -1,-0.7 -0.9,-1.3 0,-0.6 0.1,-1.1 0.9,-1 0.7,0 0.7,0.5 0.7,0.8 z"
   class="st1" />
		<path
   id="path21264"
   d="m 164.2,70.2 c -0.8,-1.2 -0.8,-2.4 0.4,-3.6 -0.2,1.2 -0.3,2.4 -0.4,3.6 z"
   class="st1" />
		<path
   id="path21266"
   d="m 262.7,191.9 c 0,1.3 0,2.6 0,3.8 -0.1,0 -0.3,0 -0.4,0 0,-1.3 0,-2.7 0,-4 0.2,0.1 0.3,0.2 0.4,0.2 z"
   class="st1" />
		<path
   id="path21268"
   d="m 156.9,200 c 0,-0.5 0,-1.1 0.7,-1.2 1,-0.1 1,0.7 0.9,1.3 0,0.6 -0.1,1.1 -0.9,1 -0.6,0 -0.7,-0.5 -0.7,-1.1 z"
   class="st1" />
		<path
   id="path21270"
   d="m 240.2,182.1 c -0.4,-1.8 1.1,-2 1.7,-3.2 1.1,2.2 -1.3,2.2 -1.7,3.2 z"
   class="st1" />
		<path
   id="path21272"
   d="m 186.9,41.9 c -0.6,2 -2,1.8 -3.6,1.3 1.1,-0.8 2.5,-0.4 3.6,-1.3 z"
   class="st1" />
		<path
   id="path21274"
   d="m 247.8,244.5 c 0.8,1.9 -0.9,2.4 -2,3.7 -0.4,-2.1 1.3,-2.6 2.1,-3.5 0,-0.1 -0.1,-0.2 -0.1,-0.2 z"
   class="st1" />
		<path
   id="path21276"
   d="m 151.7,87.8 c 0.3,-0.8 -0.1,-2.1 1.1,-2.3 0.2,0 0.8,0.4 0.8,0.6 0,1.1 -1,1.4 -1.9,1.7 z"
   class="st1" />
		<path
   id="path21278"
   d="m 246,241.3 c 1,-1 1.7,-1.7 2.7,-2.7 0.1,2.1 -0.5,2.9 -2.7,2.7 z"
   class="st1" />
		<path
   id="path21280"
   d="m 196.6,307.4 c -0.3,-1.5 1.1,-1.8 2.1,-2.8 0.2,2 -0.8,2.5 -2.2,2.7 z"
   class="st1" />
		<path
   id="path21282"
   d="m 196.5,307.3 c -0.6,0.7 -1,1.7 -2.2,1.4 -0.2,-0.1 -0.4,-0.8 -0.3,-1 0.7,-0.9 1.7,-0.4 2.6,-0.3 0,0 -0.1,-0.1 -0.1,-0.1 z"
   class="st1" />
		<path
   id="path21284"
   d="m 253.8,249.2 c -0.4,0.3 -0.8,0.7 -1.3,1.1 -0.1,-0.4 -0.3,-0.7 -0.3,-1.1 -0.1,-0.5 0,-1.1 0.7,-1.1 0.6,-0.1 0.9,0.3 0.9,1.1 z"
   class="st1" />
		<path
   id="path21286"
   d="m 80.5,107.5 c -0.7,1.1 -0.3,2.3 -2.4,2.7 0.7,-1.1 0.2,-2.4 2.4,-2.7 z"
   class="st1" />
		<path
   id="path21288"
   d="m 240.9,212.5 c -0.6,-1.4 0.8,-1.9 1,-3.2 0.7,1.8 0.4,2.6 -1,3.2 z"
   class="st1" />
		<path
   id="path21290"
   d="m 187.8,101.4 c -1.4,0.7 -2.3,0.3 -2.8,-0.9 1.4,-1.2 1.7,1.3 2.8,0.9 z"
   class="st1" />
		<path
   id="path21292"
   d="m 173,132.3 c -0.6,-0.6 -1,-1 -1.2,-1.4 -0.3,-0.5 -0.1,-1 0.6,-1.1 0.6,-0.1 1,0.3 0.9,0.9 0,0.4 -0.1,0.9 -0.3,1.6 z"
   class="st1" />
		<path
   id="path21294"
   d="m 154.6,81.7 c 0.5,-0.7 0.9,-1.3 1.6,-1.2 0.2,0.1 0.6,0.5 0.6,0.8 0,1 -0.8,0.8 -1.4,0.7 -0.3,0.1 -0.5,-0.2 -0.8,-0.3 z"
   class="st1" />
		<path
   id="path21296"
   d="m 195,70.3 c -2.3,1 -1.8,-1.1 -2.8,-2.1 2.2,-0.1 1.6,1.9 2.7,2.2 -0.1,0 0.1,-0.1 0.1,-0.1 z"
   class="st1" />
		<path
   id="path21298"
   d="m 115.3,114.1 c -1.1,-0.1 -2.2,-0.1 -4,-0.2 1.9,-0.8 3,-0.7 4,0.2 z"
   class="st1" />
		<path
   id="path21300"
   d="m 151.3,224.6 c 3.2,0.1 7.1,4.1 7.9,8.3 -2.7,-2.8 -5.3,-5.6 -7.9,-8.3 z"
   class="st1" />
		<path
   id="path21302"
   d="m 151.7,233.8 c -1.8,-1.2 -3.7,-2.3 -5.4,-3.6 -0.4,-0.3 -0.7,-1.4 -0.5,-1.6 0.4,-0.5 1.3,-0.5 1.8,0 1.5,1.5 3,3.1 4.4,4.7 -0.1,0.1 -0.2,0.3 -0.3,0.5 z"
   class="st1" />
		<path
   id="path21304"
   d="m 144,230.6 c -2.8,-0.6 -5.2,-1.7 -5.7,-5 l -0.1,0.1 c 2.6,0.9 3.9,3.2 5.7,5 z"
   class="st1" />
		<path
   id="path21306"
   d="m 151,228.4 c 2.8,0.3 3.5,2.7 4.6,4.8 -2.2,-0.9 -3.6,-2.6 -4.5,-4.9 z"
   class="st1" />
		<path
   id="path21308"
   d="m 148.9,225.6 c -2.6,0.5 -3.1,-1.9 -4.1,-3.5 1.3,1.2 2.7,2.4 4,3.6 0,0.1 0.1,-0.1 0.1,-0.1 z"
   class="st1" />
		<path
   id="path21310"
   d="m 144.2,226 c -2.7,-0.4 -3.3,-1.9 -5,-3.5 2.7,0.3 3.3,1.9 5,3.5 z"
   class="st1" />
		<path
   id="path21312"
   d="m 124.7,230.9 c -1.5,-0.7 -3.4,-0.7 -3.9,-2.7 0,0 -0.1,0.1 -0.1,0.1 1.7,0.3 3.6,0.3 3.9,2.7 z"
   class="st1" />
		<path
   id="path21314"
   d="m 134.7,233.6 c 2.5,-1 2.6,0.6 2.9,2 -1.5,0.2 -1.9,-1.1 -2.9,-2 z"
   class="st1" />
		<path
   id="path21316"
   d="m 129.4,220.7 c 2.6,-1.3 3.3,0.4 4.5,1.6 -2.1,0.8 -2.4,-1.8 -4.5,-1.6 z"
   class="st1" />
		<path
   id="path21318"
   d="m 138.3,225.6 c -1.9,0.9 -2.5,-0.8 -3.4,-1.8 2.4,-1.5 2.2,1.2 3.3,1.9 0,0 0.1,-0.1 0.1,-0.1 z"
   class="st1" />
		<path
   id="path21320"
   d="m 153.4,235.6 c 1.9,0.3 2.6,0.8 2.6,1.9 0,0.2 -0.6,0.6 -0.8,0.6 -1.2,-0.2 -0.8,-1.5 -1.8,-2.5 z"
   class="st1" />
		<path
   id="path21322"
   d="m 148.8,225.8 c 0.9,0.8 2.1,1.3 2.3,2.7 0,0 0.1,-0.1 0.1,-0.1 -2.2,0.4 -2.9,-0.6 -2.3,-2.7 0,-0.1 -0.1,0.1 -0.1,0.1 z"
   class="st1" />
		<path
   id="path21324"
   d="m 164.9,234.3 c -1.7,-0.7 -1.8,-1.9 -2.4,-3.2 2,0.3 1.8,1.8 2.4,3.2 z"
   class="st1" />
		<path
   id="path21326"
   d="m 132.4,215.9 c 1.5,0.1 2.2,1.2 3.1,2.5 -2,0.1 -2.8,-1 -3,-2.6 z"
   class="st1" />
		<path
   id="path21328"
   d="m 124.6,231 c 1.9,-0.8 2.4,0.9 3.7,2 -2.1,0.4 -2.6,-1.3 -3.5,-2.1 -0.1,0 -0.2,0.1 -0.2,0.1 z"
   class="st1" />
		<path
   id="path21330"
   d="m 127.9,228.5 c 2.2,-0.2 2.4,1.4 3.8,1.9 -2.2,0.8 -2.5,-1 -3.8,-1.9 z"
   class="st1" />
		<path
   id="path21332"
   d="m 132.5,215.7 c -1,0.1 -2.1,0.2 -3.5,0.4 1.3,-2.6 2.4,-1.7 3.4,-0.2 0,0 0.1,-0.2 0.1,-0.2 z"
   class="st1" />
		<path
   id="path21334"
   d="m 160.3,233.2 c 1.2,0.8 1.8,1.6 1.3,3.1 -0.7,-0.9 -1.4,-1.5 -1.3,-3.1 z"
   class="st1" />
		<path
   id="path21336"
   d="m 143.8,230.7 c 0.8,0.7 1.5,1.4 2.3,2.1 -1.8,0.2 -2.6,-0.4 -2.1,-2.2 0,0 -0.2,0.1 -0.2,0.1 z"
   class="st1" />
		<path
   id="path21338"
   d="m 137.9,230.3 c 1.2,1.3 1.8,1.9 2.6,2.8 -1.8,0.3 -2.3,-0.6 -2.6,-2.8 z"
   class="st1" />
		<path
   id="path21340"
   d="m 126.1,217.8 c 1.5,0.4 2.5,0.6 4.1,1.1 -1.8,0.4 -2.9,0.9 -4.1,-1.1 z"
   class="st1" />
		<path
   id="path21342"
   d="m 134.4,228.4 c 2.1,-0.2 2.2,0.9 2.4,2.1 -0.6,-0.5 -1.3,-1.1 -2.4,-2.1 z"
   class="st1" />
		<path
   id="path21344"
   d="m 145.7,218.2 c -2.3,1 -1.8,-1.1 -2.8,-2.1 2.2,-0.1 1.6,1.9 2.7,2.2 0,0 0.1,-0.1 0.1,-0.1 z"
   class="st1" />
		<path
   id="path21346"
   d="m 159.4,243.1 c -1,0.2 -1.9,0 -1.7,-1.3 0,-0.3 0.4,-0.8 0.5,-0.7 1,0.4 1.3,1.2 1.1,2.2 0,-0.1 0.1,-0.2 0.1,-0.2 z"
   class="st1" />
		<path
   id="path21348"
   d="m 137.6,51.1 c 4.5,-4.6 5.6,-4.5 7.8,0 -2.4,0 -4.7,0 -7.8,0 z"
   class="st0" />
	</g>
</g>
</svg>
