<?xml version="1.0" encoding="UTF-8" standalone="no"?>
<svg
   xmlns:dc="http://purl.org/dc/elements/1.1/"
   xmlns:cc="http://creativecommons.org/ns#"
   xmlns:rdf="http://www.w3.org/1999/02/22-rdf-syntax-ns#"
   xmlns:svg="http://www.w3.org/2000/svg"
   xmlns="http://www.w3.org/2000/svg"
   xmlns:sodipodi="http://sodipodi.sourceforge.net/DTD/sodipodi-0.dtd"
   xmlns:inkscape="http://www.inkscape.org/namespaces/inkscape"
   inkscape:version="1.0 (4035a4f, 2020-05-01)"
   height="272.61731"
   width="266.07101"
   sodipodi:docname="pegasus-passant.svg"
   xml:space="preserve"
   viewBox="0 0 266.07101 272.61731"
   y="0px"
   x="0px"
   id="Layer_1"
   version="1.1"><metadata
   id="metadata25903"><rdf:RDF><cc:Work
       rdf:about=""><dc:format>image/svg+xml</dc:format><dc:type
         rdf:resource="http://purl.org/dc/dcmitype/StillImage" /><dc:title></dc:title></cc:Work></rdf:RDF></metadata><defs
   id="defs25901" /><sodipodi:namedview
   inkscape:current-layer="Layer_1"
   inkscape:window-maximized="0"
   inkscape:window-y="25"
   inkscape:window-x="0"
   inkscape:cy="143.99534"
   inkscape:cx="135.88896"
   inkscape:zoom="2.52"
   fit-margin-bottom="0"
   fit-margin-right="0"
   fit-margin-left="0"
   fit-margin-top="0"
   showgrid="false"
   id="namedview25899"
   inkscape:window-height="480"
   inkscape:window-width="820"
   inkscape:pageshadow="2"
   inkscape:pageopacity="0"
   guidetolerance="10"
   gridtolerance="10"
   objecttolerance="10"
   borderopacity="1"
   bordercolor="#666666"
   pagecolor="#ffffff" />
<style
   id="style25676"
   type="text/css">
  .st0{fill:#FFFFFF;}
  .st1{fill:#000000;}
</style>
<g
   transform="translate(-14.11104,-56.00466)"
   id="g25896">
	<g
   id="g25894">
		<path
   id="path25678"
   d="m 16.6,129.3 c 1.4,-6 6.3,-6.5 10.6,-8.1 -4.1,1.2 -7.2,-1.9 -11,-2 -2.5,0 -2.7,-2.5 -0.9,-4.9 4.7,-6.3 11.4,-8.6 18.7,-10 3.2,-0.6 6.4,-1.6 9.5,-3 3,-1.3 2.9,-3.9 4.1,-6.1 0.7,-1.3 -0.8,-1 -1.2,-1.3 -2.7,-1.7 -5.5,-3.3 -4.8,-7.2 0.7,-3.8 3.3,-6 6.9,-7.1 1.1,-0.3 2.1,-0.4 3.1,0.3 0.9,0.6 2.8,0.8 2.2,2.4 -0.5,1.1 -1.8,0.1 -2.8,-0.2 -2.1,-0.6 -3.9,-0.2 -4.9,2.3 -1.2,2.9 1.1,3.3 2.6,4 4,2.1 5.4,1.4 6.2,-2.9 0.8,-4.1 4.1,-5.4 9,-3.3 -0.4,0.4 -0.6,0.9 -1,1.2 -3.7,2.4 -3.8,3.7 0,5.8 0.9,0.5 1.8,1.5 3,0.9 1.8,-0.9 -0.3,-1.8 -0.2,-2.7 0.1,-2.5 0.5,-4.8 2.4,-6.6 2.1,-2 4,-2.4 5.3,0.8 0.7,1.8 1.3,3.4 3.8,1.3 1.4,-1.2 2.3,0.9 2.4,1.8 0.5,3.7 1.7,3 4.3,1.5 6.2,-3.6 13.1,-1.7 17.1,2.1 1.3,1.2 0.7,3.3 2.7,4.2 0.9,-9 7.4,-12.6 14.7,-15.6 10.5,-4.4 22,-5.3 32.7,-9 7.4,-2.5 14.2,-6.1 21.2,-9.3 1.8,-0.8 3.6,-2.7 5.5,-1.1 2.3,1.9 -0.2,3.9 -0.6,6.1 3.5,0.1 6.6,-1.2 9.5,-2.8 4.7,-2.6 9.8,-3.4 14.9,-4.6 2.2,-0.5 4.6,-0.1 5.8,1.9 1.2,1.9 -0.4,3.3 -1.7,4.6 -0.6,0.6 -0.8,1.5 -1.4,2.7 4.8,-1.4 8.7,-3.8 12.7,-5.7 1.7,-0.8 3.4,-2.1 5.2,-0.2 1.8,1.9 1.4,3.8 0.6,6 -1.3,3.5 -4.6,4.3 -7.5,5.9 1.4,2.2 2.8,2.4 5.3,1.6 11.1,-3.4 21.9,-7.7 32.1,-13.3 2.6,-1.4 5.3,-1.6 6.8,0.8 1.4,2.1 0.3,4.5 -1.6,6.5 -6.6,7.2 -14.1,13 -23,17.1 -0.8,0.4 -1.9,0.5 -2.3,2.3 4,-1.9 7.7,-3.5 11.2,-5.5 4.2,-2.4 8.9,-3.8 12.6,-7.1 1.1,-1 2.9,-1.9 4.5,-0.5 1.4,1.3 1,3 0.3,4.5 -2.2,4.8 -5.8,8 -10.4,10.4 -7.3,3.8 -12.6,10.4 -20.4,14 -0.2,0.1 -0.1,0.3 0.3,0.4 2.7,0.3 5.5,1 6.5,3.7 1,2.8 -1.4,4.4 -3.1,6.1 -5.6,5.6 -12.9,8 -20.2,10.3 -0.3,0.1 -0.6,0.3 -1.9,0.8 2.9,0 4.7,0 6.6,0 2,0 4,0.5 4.7,2.5 0.9,2.5 -0.7,4.3 -2.6,5.5 -6.3,3.8 -12.6,7.6 -20.3,8.2 3.1,0.1 5.7,1.5 8.3,2.7 4,1.8 4.3,4.4 0.8,7 -2.8,2 -6,2.9 -9.4,3.1 -3,0.1 -5.8,1.2 -8.9,0.9 -2.9,-0.3 -5.9,-0.1 -9.8,-0.1 5.7,3.6 10.7,6.6 15.4,10 2.5,1.8 6.4,1.6 9.5,2.6 9.6,3.1 18,8.7 26.5,13.9 1,0.6 2,1.4 3.2,1.7 1.7,0.5 3.6,0 4.5,-1.2 1.2,-1.6 -0.7,-2.7 -1.7,-3.6 -2,-1.8 -4.1,-3.5 -6.3,-5.1 -5,-3.5 -7,-9.8 -5.5,-15.8 3.1,-12.1 19.7,-22.3 33.1,-16.5 4,1.7 7.1,5 10.1,8.1 0.7,0.7 1.2,2.2 2.6,1.5 1.5,-0.7 1.1,-1.8 0.4,-3 -0.5,-0.9 0.1,-2 1.1,-2.4 1.2,-0.4 2.3,-0.4 3.4,0.6 2.7,2.5 3.1,5.9 -0.3,9.2 -2.5,2.5 -1.6,4.1 -0.6,6.7 3,8.2 4.2,16.5 2.8,25.6 -1.8,11.3 -6.1,21.9 -8.1,33 -0.2,1 -0.4,2.2 0.7,3 1.5,1.2 1.9,-0.4 2.6,-0.9 0.6,-0.5 1.1,-1.5 2.1,-1 0.9,0.5 1.1,1.4 1.2,2.4 0.6,6.3 -2.3,9 -8.3,7.5 1.9,2.8 4.8,4.5 5.9,7.8 1.4,4.1 3.1,7.8 1.6,12.4 -1.5,4.7 -0.6,9.9 -2.3,14.7 -2,5.6 -4.9,10.4 -9.4,14.4 -1.9,1.7 -4,3.6 -1.2,6.4 0.7,0.7 0.3,1.7 -0.4,2.6 -0.9,1 -1.9,1.7 -3.2,1.3 -1.7,-0.6 -3.1,-1.8 -3.5,-3.6 -0.5,-2.5 0.3,-4.8 1.2,-7.1 0.9,-2.2 1.8,-4.5 2.9,-6.6 2.4,-4.6 1.6,-8.9 -1.5,-12.6 -2.6,-3.1 -5.4,-6.2 -8.9,-8.4 -3.8,-2.5 -5.1,-6.8 -7,-10.7 -0.9,-1.9 -1.7,-3.6 -4.4,-3.3 -1.5,0.2 -3,-0.6 -1.8,-2.4 2.8,-4.1 2.1,-8.7 1.9,-13.1 -0.3,-7.3 2.6,-13.3 7.7,-18 6.3,-5.9 11.3,-12.3 13.3,-20.8 0.5,-2.2 -1.4,-6.1 -3.6,-6.1 -2.1,-0.1 -2.6,1.1 -2.1,3.2 1.1,4.7 0.9,9.4 -1.3,13.8 -2.5,5 -6.6,7.2 -12,5.8 -2.5,-0.7 -2.7,0.4 -2.7,2 -0.4,8.4 -3,16.3 -4.8,24.4 -1.2,5.6 0.8,10.4 3.9,14.8 2.6,3.7 5.4,7.1 9.3,9.6 2.6,1.7 4.5,4.1 2.5,7.6 -0.4,0.6 -0.1,1.6 -0.1,2.5 0.5,15.7 -2.3,31.2 -1.7,46.9 0.2,4.5 -2.3,7.6 -6.7,8.8 -3.6,1 -5.5,3.3 -7.6,6.4 -2.2,3.2 -5,6.7 -10.1,6.2 -3.8,-0.4 -7.7,0 -11.6,-0.1 -0.7,0 -1.7,0.4 -2.1,-0.7 -0.3,-0.9 0,-1.6 0.7,-2.2 5.7,-4.6 10,-11.2 18.2,-12.1 1.6,-0.2 2.7,-1.7 3.3,-2.9 1.8,-3.9 3.5,-7.7 3.5,-12.2 0,-9.8 0.2,-19.6 -1,-29.3 -0.7,-5.7 -4,-10.5 -8.8,-13.5 -6.8,-4.2 -13.4,-8.7 -19,-14.9 0.7,5.7 -3.2,11.1 0.4,16.9 3.2,5 2.6,8 -1.6,12.5 -8.2,8.7 -14.1,19 -21.5,28.3 -3.9,5 -6.9,10.5 -9,16.4 -1.4,4.1 -4.4,5.5 -8.4,5.4 -3.1,0 -5.9,0.7 -7.9,3.3 -3.1,4.1 -7.1,5.7 -12.2,5.1 -2.6,-0.3 -5.3,0 -7.9,-0.1 -0.9,0 -2.3,0.8 -2.8,-0.8 -0.4,-1.1 0.4,-1.8 1.1,-2.4 4.5,-4.1 8.6,-8.7 14.4,-11.1 7.1,-2.9 10.9,-8.8 14.4,-15.1 4.7,-8.4 9.8,-16.6 14.6,-24.9 2.7,-4.6 2.3,-8.7 -0.6,-13.5 -5.2,-8.7 -7.4,-18.3 -5.4,-28.6 0.2,-1.1 0.3,-2.2 0.3,-3.2 0,-2.4 2.4,-5.9 0.4,-6.8 -3,-1.4 -7,-1.2 -10.4,0 -10.9,3.6 -21.8,7.1 -32.9,9.7 -4.6,1.1 -9.2,2.8 -13.9,2.1 -4.1,-0.6 -5.6,1.7 -6.9,4.7 -5.3,12.7 -9.3,25.8 -13.4,38.8 -2.9,9 -6,17.9 -9.1,26.9 -1.2,3.5 -2.5,6.9 -3.9,10.4 -0.8,2.2 -1.9,3.8 -4.7,4.2 -3.5,0.4 -5.5,3.4 -7.6,5.8 -2.2,2.4 -4.6,3.5 -7.9,3.3 -3.6,-0.2 -7.2,0 -10.8,-0.1 -0.8,0 -2,0.6 -2.4,-0.8 -0.2,-0.9 0.2,-1.6 0.8,-2.2 4.1,-4 8,-8.6 13.3,-10.5 7.7,-2.8 10.6,-9.1 13.1,-15.6 3.8,-9.8 5.7,-20 6.2,-30.7 0.4,-9.3 0.6,-18.8 2.2,-28 0.8,-4.4 -1.2,-5.8 -4.8,-8.2 -5.2,-3.4 -10,-1.5 -15.2,-1.2 -8,0.4 -16,0.1 -24.1,0.1 -1.1,0 -2.2,-0.1 -3.3,0.1 -5.5,1.1 -7.2,4.6 -5.5,11.1 1.7,6.4 2,13.2 4.6,19.5 1.2,3 -0.4,6.7 0.9,10.1 0.5,1.2 1,2.6 2,2.9 2.3,0.7 3.8,1.8 4.8,4 2.1,4.8 2.4,9.7 1.2,14.6 -0.8,3.2 -3,3.5 -5.5,1.1 -5,-4.9 -8.7,-10.7 -12.4,-16.7 -4.1,-6.5 -5.6,-12.6 -6,-20 -0.3,-4.9 -0.4,-10 -1.1,-15 -0.5,-4.4 -1.7,-8.7 -2.1,-13.2 -0.4,-4.8 2.6,-7 5.9,-8.3 8.7,-3.4 17.7,-5.9 26.3,-9.4 6.3,-2.5 5.2,-1.2 4.6,-7.6 -1.2,-11.2 -4.4,-22.1 -5.5,-33.4 -1,-10.2 1.9,-18.8 5.7,-27.5 2,-4.6 1.8,-9 -1.4,-12.3 -3.5,-3.7 -8.4,-3.8 -13.2,-2.1 -1.8,0.6 -3.7,1 -5.3,1.9 -3.3,1.9 -6.6,1.8 -10.1,0.7 -3.3,-1.2 -6.8,-2.4 -10.8,-1.9 z"
   class="st1" />
		<path
   id="path25680"
   d="m 84.8,186.7 c -0.4,0 -1.2,-0.1 -1.2,0 -1.6,7.1 -10,9.4 -11.8,16.5 -0.3,1 -1.6,1.2 -2.4,0.7 -0.8,-0.5 -0.6,-1.6 -0.1,-2.2 0.9,-1 0,-2.3 1.1,-3.2 -2.9,1.5 -3.4,5.2 -1.2,7.9 3.8,4.5 6,9.7 6.4,15.6 -4.3,-1 -3.1,-4.9 -3.7,-7.4 -0.4,-1.6 -1.2,-2.3 -2,-3.3 -0.5,-0.3 0.1,0.2 -0.4,-0.1 -0.5,-0.3 -0.7,-0.9 -1,-1 -0.4,-0.1 0,-0.5 0.1,0 0.1,0.7 0.7,1.1 1.5,1 0.2,3.1 0.4,6.2 0.5,9.3 0.1,1.9 0,2.6 -2.4,1.2 -3.4,-2 -7.3,-3.3 -12.4,-1.2 4.1,1.4 9.4,-0.8 10.6,5.3 -1.9,-1.5 -3.2,-3.3 -5.9,-3.5 1,1.2 1.8,2.1 2.5,2.9 -1.1,0.6 -1.8,0.3 -2.7,-0.2 -1.3,-0.8 -2.7,-1.7 -3.6,0.7 -0.3,0.7 -1.2,1.3 -1.8,0.1 -0.8,-1.5 -1.4,-3 -1.8,0.2 -0.1,0.8 -1,0.2 -1.7,0 -1,-0.2 -1.8,-1.8 -3.5,-0.5 5,3.7 10.8,0.4 15.6,2.6 -7.3,0 -14.7,0.1 -22,0 -2.1,0 -4.1,0.3 -6,1 -2.6,0.9 -4.1,2.5 -4.1,5.7 -0.1,9.4 2.2,18.4 4.6,27.4 0.2,0.8 0.4,1.6 0.4,2.4 0.5,9 0.5,9 7.3,13.8 -1.2,2.5 -4,3.3 -6.1,4.3 -3,1.4 -4.2,-2 -4.4,-3.9 -0.2,-3.2 -1.8,-5.3 -3.9,-7.3 -1.7,-1.6 -2.9,-3.7 -2.9,-6 0.1,-9.2 -1.4,-18.3 -1.8,-27.4 -0.1,-2.2 -0.8,-4.5 -1.3,-6.7 -0.8,-3.6 -0.2,-6.6 3.6,-8 9.7,-3.7 19.4,-7.4 29.2,-10.8 2.6,-0.9 4.4,1.2 5.1,3.6 0.5,1.6 1.4,2.5 4.2,3.4 -3.2,-4 -2.7,-7.4 0.3,-11.2 -3.2,0.7 -3.6,2.3 -4.1,4.5 -1.9,-5.3 -1.5,-10.3 -2.6,-15.2 1.4,1.3 2.9,2.6 4.3,3.9 -3.5,-5.7 -6,-11.7 -7.7,-18.2 -0.7,-2.6 -0.3,-5.1 -0.7,-7.7 -1.4,-9.1 -1.8,-18.2 2.8,-26.8 3.1,-5.7 4.9,-11.8 1.7,-18.6 5.6,2.1 10.5,0 15.2,-1.6 3.7,-1.3 5,-5.2 5.6,-9 0.2,-1.2 -0.3,-2.4 -1.5,-2.5 -1.6,-0.1 -0.8,1.4 -0.9,2.2 -0.6,6.4 -3.7,8.7 -12.2,9.3 -4.3,0.3 -8.3,-1.2 -12.1,-2.6 -4.3,-1.6 -8.5,-0.4 -12.2,0.8 -5.5,1.8 -10.4,5 -16.1,1.2 2,-2.3 6.4,0.3 8.5,-3.4 -5,-0.7 -9.2,1.4 -13.4,3.1 0.7,-2.1 0.6,-2.4 9.2,-4.8 3.4,-1 6.6,-2.8 10.6,-2 3.8,0.8 6.6,4.6 11.5,3.1 -4.3,-2.3 -9,-3.5 -11.3,-8 -1.5,1.3 1,2.2 -0.1,3 -1.4,1 -1.8,-0.7 -2.6,-1.2 -2.6,-1.8 -5.7,-2.6 -8.5,-1.4 -4.1,1.7 -8.3,1.2 -13.9,1.3 4.1,-3.1 5,-7.4 9.9,-8.6 10.1,-2.4 20.1,-5.6 28.8,-11.4 1.1,-0.8 2.9,-0.2 3.6,-1.9 -2.8,-1.2 -5.9,-1.3 -8.7,-2.9 -2.7,-1.6 -5.4,-2.8 -6.3,-7 3.4,3.9 6.9,6.1 11.4,6 4.3,0 8.6,0 12.9,0 1.3,0 2.8,-0.1 3.2,1.2 0.6,1.9 -1.5,0.9 -2.2,1.5 -1.1,1.1 -2.2,2.1 -3.2,3.3 -0.6,0.7 -0.5,2.4 -1.9,1.8 -1.4,-0.6 -1.2,-1.9 -0.2,-3.1 0.4,-0.5 0.5,-1.2 0.9,-2.1 -1.8,0 -2.9,2.2 -4.9,1 0.7,1.5 1.8,2.2 1.9,3.8 0.1,1.9 4.4,3.4 6.1,2.4 0.7,-0.4 1.4,-1 0.4,-1.9 -0.8,-0.7 -1.3,-1.4 -0.3,-2.4 0.7,-0.7 1.7,-0.9 2.2,-0.5 0.9,0.6 0.3,1.8 0.5,2.7 0.3,1.5 -2.2,1.8 -1.3,3.8 2.1,-0.6 3,-1.7 3,-4 -0.1,-4.7 2.3,-8.7 4.2,-12.8 0.3,-0.7 0.8,-1.6 1.8,-1.4 1,0.2 0.4,1.2 0.7,1.7 3.9,6.4 -1.8,10.5 -3.7,15.6 -0.1,0.4 -0.3,0.7 -0.4,1.1 0,0.1 0.1,0.2 0.2,0.4 0.2,0.1 0.5,0.3 0.7,0.2 1.9,-0.3 1.7,-3.9 3.2,-3 2.5,1.5 5,3.7 6.5,6.2 3.8,6.3 5.7,13.4 6.9,20.8 1.3,8.3 1.4,16.8 4.7,24.9 1.7,4.2 3.8,7.2 7.5,9.5 -3,4.1 -7,5.9 -11,4.8 -3.5,-1 -6.6,-3.2 -6.8,-6.6 -0.2,-4.6 3.8,-6.5 8.4,-7.7 -4.8,-1.5 -8.1,0.5 -11.1,2.5 -5.5,3.6 -3.9,11.3 2.6,15.3 4.6,2.8 9.5,2.3 14.9,2.5 -2.2,1.8 -4.6,1.8 -6.5,2.8 -3.3,1.7 -5.7,3.9 -5.3,8.2 0.4,4.2 3.9,4.1 6.3,5.7 0.2,-0.6 0.4,-0.9 0.3,-1 -2.5,-3.4 -1.5,-6.4 3.3,-9 1.5,-0.8 3.2,-1.2 5.3,-1.9 -2.2,3.2 -5.1,4.9 -6.2,8.2 -2.1,6.3 0.5,13.3 8.3,14.4 1.7,0.2 3.6,-0.1 4.2,-1.5 0.7,-1.8 -1,-2.1 -2.5,-2.8 -4.1,-1.8 -4.2,-8.1 -0.2,-12.2 1.5,-1.5 3.2,-3.1 5.1,-4.1 14.3,-7.4 14.4,-18.2 11.8,-29.3 -1.6,-6.6 -2.9,-13.3 -4.7,-19.9 -0.8,-3 0.3,-5.9 1.7,-8.6 3.6,-7.3 7.3,-14.6 10.9,-21.9 1.6,-3.3 4.4,-4.9 7.7,-6.1 9.5,-3.4 19.3,-5.9 29.2,-8.2 -1.8,5.7 -6.9,10.1 -12.5,10.7 -0.6,0.1 -2.2,1 -1.5,-1.4 0.7,-2.1 -0.7,-3 -4,-3.3 0.7,0.7 1.1,1.4 1.8,1.9 0.7,0.6 1.1,1.6 0.6,2.2 -0.4,0.4 -1.6,0.6 -2.2,0.3 -2.1,-0.9 -3.9,-0.6 -6,1.2 2,0 3.6,0 5.1,0 1.3,0 2.8,0.7 3,1.5 0.2,0.9 -0.7,2.3 -1.5,3.1 -1.1,1 -2.5,1.7 -4.2,2.8 3.6,0.3 6.1,-1.3 7.3,-3.6 1.2,-2.4 2.9,-3.3 5,-3.8 4.2,-1.1 8,-3.5 11.9,-5.2 4.1,-1.8 6.8,-0.4 10.5,1.1 -8.3,8.4 -18.8,10.9 -30.2,12.8 2.4,1.2 9.4,0.8 12.1,-0.3 3,-1.2 7.5,-2.2 8.5,0.2 1,2.5 -3.8,3.3 -6.1,4.4 -6.6,3.1 -8.5,2.6 -13.3,-1.8 -0.2,2.3 3.2,5.2 6.3,5.5 2.5,0.3 4.8,-0.6 7.1,-1.3 1.8,-0.5 3.4,-0.7 5.1,0 1.8,0.8 3.8,1.9 3.9,3.8 0,1.4 -2.5,1.5 -3.8,2.4 -5.9,4 -12.8,3.2 -19.7,3.9 1.4,-2.2 0.1,-4 -1.5,-5.9 2.3,-0.6 4.4,-0.5 6,-2.4 -1.2,-0.6 -1.7,-1.8 -3.8,-0.5 -3.3,2 -7.1,4.3 -11.1,0.9 -0.2,-0.2 -1,0.1 -1.4,0.2 -0.2,1.6 1.1,2.1 1.8,2.8 0.9,1 0.5,2 0.6,3.1 0.1,1.2 -3.4,-0.3 -1.3,1.6 0.6,0.6 3.3,-0.5 3.8,-2.3 0.4,-1.2 0.8,-2.4 2,-2 1.1,0.4 2.8,0.7 3,2.4 0.2,1.3 0.1,2.6 -1.3,3.2 -2.6,1.1 -5,3.9 -8.1,0.5 -0.9,-1 -3.1,-1.4 -4.6,0 4.5,4.5 9.8,3.1 14.7,1.6 5.4,-1.7 10.6,-1.3 15.8,0.5 1.7,0.6 3.1,1.6 3.3,3.5 0.3,2.3 -2,1.5 -2.9,2 -4.7,2.3 -9.7,0.7 -14.6,1 -0.5,0 -1.1,-0.7 -1.5,-1.2 -2.6,-3.3 -9.2,-4.6 -12.5,-2.4 -0.4,0.3 -0.7,0.8 -1.2,1.5 1.8,1.1 3.3,0.6 4.6,-0.3 2.7,-1.8 4.5,0 5.9,1.7 1.3,1.6 0.7,3.3 -1.6,3 -1.1,-0.1 -1.7,0.1 -1.7,0.8 0,0.7 0.9,1.3 1.8,1.2 1.2,-0.1 2.6,-0.5 3.4,-1 4.3,-2.6 8.6,-1.5 12.9,-0.7 2.1,0.4 4.3,1.2 4.6,3.4 0.3,2.3 -1.8,3.4 -3.7,4.3 -5.3,2.4 -10.6,0.6 -12.5,-4.3 -1.7,0 -1,1.3 -1.1,2.1 -0.2,1.1 -0.7,1.9 -1.8,1.9 -0.9,0 -2,0.6 -2.5,-1.2 -0.4,-1.9 -2,0.2 -3.2,-0.3 -0.8,-0.4 -0.9,0.7 -0.9,1.4 0.1,1.3 1.1,1 1.9,1 2.5,-0.1 2.9,0.8 1.6,2.9 -0.6,0.9 -0.6,2.2 -0.9,3.7 1.9,0.1 3,-1.1 3.2,-2.5 0.8,-5.2 4.6,-3.3 7.2,-2.9 1.5,0.2 4.4,0.8 4.2,3 -0.1,1 -2,2.6 -3.5,3.8 -2.6,2 -4.4,2.5 -6.7,0.4 -1.8,-1.6 -5.1,0.3 -6.3,-3.2 -0.6,-1.7 -3.9,-0.9 -5.4,-2.6 -0.1,-0.1 -0.9,0.2 -1,0.5 -0.2,0.8 0.5,1.2 0.9,1.7 0.6,0.8 2.8,-0.6 2.1,1.5 -0.4,1 -1.3,2 -2.8,2.2 -1.3,0.2 -2.5,0.8 -3.8,1.3 -0.6,0.3 -2.1,0.5 -1.5,1.5 2.1,3.3 -0.9,4.1 -2.5,5.9 2.9,0.2 4.5,-1.2 4.8,-4 0.2,-1.4 0.1,-2.9 2,-3 0.8,-0.1 2.5,-0.8 0.8,1.3 -1,1.3 1.1,0.8 1.7,1.2 1.2,0.7 2.8,1.4 2.7,2.9 -0.2,1.8 -1.4,2.3 -3.1,1.2 -0.1,-0.1 -1,0.5 -1.2,0.9 -0.4,0.9 0.6,0.5 0.9,0.7 0.8,0.6 1.5,1.2 2.3,1.7 1.1,0.7 0.7,1.8 0.5,2.6 -0.4,1.3 -1.2,0.2 -1.9,0.1 -1.3,-0.2 -2.7,-0.2 -4.6,0 5.1,1.5 6.3,4.4 3.4,8.6 0.6,0.1 1,0.3 1.1,0.2 1.3,-1.3 2.6,-4.4 3.8,-3.7 2.1,1.2 5,2.8 5.6,5.4 0.7,2.8 2.5,3.7 4.4,5.1 5.5,4 8.9,9.3 9.5,16.3 -3,-5.4 -7.3,-9.8 -11.8,-13.9 -0.5,-0.5 -0.8,-2.2 -2.1,-1.1 -1.5,1.4 0.5,1.9 1,2.3 5,4.1 7.9,9.5 10.7,15.1 1.2,2.4 0.5,4 -1,5.8 -1.7,2 -3.4,0.9 -5.1,0.2 -5.6,-2.4 -6.9,-7.2 -7.1,-12.6 -0.1,-2.7 -1.2,-3.9 -3.9,-3.9 3.6,5.4 3.1,11.4 3,17.3 0,0.8 -0.7,1.5 -1.6,1.7 -0.9,0.2 -1.7,-0.1 -2.2,-0.9 -0.7,-1.3 -1.4,-2.6 -1.2,-4.2 0.3,-2.7 -0.4,-5.7 -2.1,-7.1 -4.1,-3.6 -1.1,-5.5 1.4,-6.7 2.7,-1.2 4.4,-3 4.7,-5.5 0.3,-2.4 3.4,-1.8 3.4,-4.1 -3.2,1 -10,-2.4 -11.9,-5.9 -0.4,2.5 -0.2,3.4 1.6,4.5 1.6,1 3.4,1.7 4.6,3.2 1.3,1.5 1.1,3.1 -0.4,4.2 -1.4,1 -3,1.5 -4.1,-0.5 -0.9,-1.6 -1.7,-3.2 -2.7,-5.1 -0.8,2.3 -0.1,4.1 1,5.9 0.6,1 2.9,1.4 1.5,3.2 -1,1.2 -2.6,1.9 -4.4,1.7 -0.6,-0.1 -1.1,-0.3 -2.8,-0.8 5.9,4.2 8.2,9.1 7.8,15.2 -0.1,1.3 -0.6,2.3 -1,3.4 -0.5,1.2 -1.6,1.3 -2.8,1.3 -1.5,0.1 -1.5,-1.3 -1.7,-1.9 -0.6,-1.8 -1.2,-3.7 -1.1,-5.5 0.2,-4.4 -2.1,-7 -5.9,-8.3 -1.8,-0.6 -2.1,-0.9 -0.9,-2.3 1.6,-2 2.1,-4.3 1.8,-6.7 1.4,-0.6 2.3,1.3 4.1,0 -3.4,-0.1 -3.7,-4.2 -7.4,-4.6 0.4,1.7 2.5,2.7 1.1,4.4 -1.4,1.8 -2.9,-0.1 -4.6,0.1 0.2,1.9 1.2,2.8 2.7,2.2 1.1,-0.4 1.9,-1 2.8,0.2 0.7,1 -0.2,2.1 -0.6,2 -1.7,-0.5 -1.3,3.5 -3.3,1.6 -1.1,-1 -2,-1.7 -2.9,-0.1 -1.1,1.8 1.1,1.3 1.6,2.1 0.8,1.4 2.2,2 3.6,2.6 5.4,2.2 8.3,8.4 6,13.4 -0.7,1.5 -2.3,2.1 -4.4,1.1 -1.9,-1 -2.3,-1.6 -1.4,-3.6 0.6,-1.4 3.3,-2.9 0.5,-4.8 -0.4,0.8 -0.7,1.7 -1.3,2.4 -1,1.2 -0.3,3.9 -2.2,3.9 -2.1,0.1 -2.7,-2.5 -3.4,-4 -1.8,-3.7 -4.4,-7.6 -0.5,-11.8 0.8,-0.9 1.8,-2.8 1,-4.5 -2.1,0.1 -2.5,6.9 -6.5,0.8 2.5,2.6 2.5,4.4 2,7.3 -1.6,9.3 7.4,16 16.9,16.3 5.2,0.2 8.9,-3.9 13.9,-2.3 1.3,0.4 2.2,-0.8 2.6,-1.7 1.3,-3.1 2.6,-2.1 5.1,-1.1 6.9,3 9.8,1.1 11.3,-6.9 5.9,4.9 15.5,3.8 19.2,12.4 0,-2.8 -2.1,-4.1 -3.1,-6 -0.4,-0.8 -2,-1.4 -1.1,-2.2 0.8,-0.7 2.1,-1.7 3.7,-1 3.1,1.4 5.6,3.4 6.9,7 -2.1,-0.2 -2,-2.8 -4.2,-3.2 0.6,4 5.2,4.2 6.7,8.2 -2.8,-2.1 -5,-3.7 -7.6,-5.7 2.1,5.1 6.4,7.8 10,11.5 -4.2,0.3 -8.5,0.7 -12.7,1 -1.5,0.1 -2.5,-0.8 -2.2,-2.3 0.5,-2.2 1.6,-0.2 2.4,-0.2 2.5,0 5,0 7.5,0 0,-0.4 0.1,-0.8 0.1,-1.2 -2.4,-0.8 -4.9,-1.5 -7.3,-2.3 -0.6,-0.1 -1.2,-0.2 -1.4,-0.3 0.3,-0.2 0.9,0.4 1.5,0.2 -2.3,2.4 -5.3,1.3 -7.7,1 -5.1,-0.5 -10.2,1.3 -15.4,-0.2 0.4,2 2,0.6 2.5,1.7 -3.1,1.3 -6.9,0.5 -9.5,3.2 -1.4,1.5 -2.7,-0.4 -4.2,-0.4 -2.5,0.1 -5,0 -7.8,0 1.5,3.7 4.7,-1.1 5.9,2.4 -2.9,0.1 -5.8,0.4 -8.6,0.9 -3.9,0.6 -7.4,-1.2 -10.1,-3.9 -1.1,-1.1 -1.9,-1.4 -2.5,-0.6 -0.7,1 0.9,1 1.2,1.5 1.6,2.9 5.5,2.6 7.4,5.3 -2.8,0.9 -5,0.1 -6.7,-2.2 -1,1.8 1.2,1.9 0.9,3.2 -1.7,0.7 -3.1,-1 -5,-0.9 -0.8,0.1 -1.4,-0.3 -1.9,0.5 -1.8,3 -5.2,3.1 -8.5,-0.2 4.7,2.4 8.3,-3.7 13.1,-1.3 -2.6,-1.7 -5.3,-4 -8.5,-1.2 -2,1.7 -3.5,-0.7 -5.2,-0.3 -0.1,-1.1 -1,-2.9 1.5,-1.7 0.6,0.3 1,0.4 1.8,-0.1 -2,-1.7 -3.4,-3.6 1.1,-5.7 -6,-0.6 -8.8,-3.8 -10.6,-8.2 -1.4,1.9 0.1,2.9 0.4,4.1 0.1,0.6 0.9,1 0.3,1.8 -1.7,2 -1.8,2.3 0.8,3.3 1.8,0.7 1.8,1.4 1.3,2.9 -1.5,4.4 -1.7,9.5 -6.3,12.3 -0.8,0.5 0.2,2 -1.1,2.4 -1.7,-0.5 -0.9,-3.6 -3.3,-3.3 -2,0.3 0.3,1.8 -0.9,2.6 -0.7,-1 -1.7,-1.9 -1.6,-3.3 0.1,-1.2 -0.3,-2.2 -1.6,-2.5 -0.7,-0.2 -1,0.4 -0.9,1 0.3,1.1 -1.8,2.1 -0.3,3.3 2.4,1.8 4,5.2 8.1,4 2.8,-0.9 3.8,1.3 4.7,3.3 -0.4,0.3 -0.9,0.6 -1.1,0.6 0.2,0 0.6,-0.3 1,-0.8 0.5,-0.4 1,-0.8 1.6,-1.1 -3.2,-4 1.9,-6.1 1.9,-9.4 2.5,1.2 2.5,2.6 1.7,5 -7.3,21.4 -14.4,42.9 -21.7,64.3 -1.6,4.6 -3.6,9.1 -5.8,13.4 -1.7,3.3 -5.5,4.1 -8.5,5.5 -1.4,0.7 -2.3,-2.7 -3.7,-4 -0.9,-0.9 0.6,-1.3 1.2,-1.4 5.1,-0.6 6.6,-5 8.2,-8.5 5,-11.5 8.8,-23.2 8.8,-36.1 0.1,-12.3 1.5,-24.5 2.5,-36.7 0.1,-1.6 -0.5,-3.1 -0.3,-4.6 -0.6,1.2 -0.7,-4.5 -1.5,-0.1 0,0.2 -0.6,0.6 -0.9,0.6 -1,-0.1 -0.7,-1 -0.7,-1.6 0.1,-1.8 1.5,-3.5 0.4,-5.6 -1.7,2 -2.5,4.2 -2,6.6 0.3,1.2 0.1,1.5 -0.9,1.9 -1.3,0.5 -1.7,-0.4 -1.7,-1.4 0,-1.2 -0.3,-2.2 -0.9,-3 -1.2,-1.5 -0.6,1.8 -1.8,0.7 -1.3,-1.2 -1.1,-3.2 -0.5,-4.1 1.4,-2.2 0.9,0 1.1,0.6 0,0 0.9,0 1,-0.2 0.3,-1.1 1,-2.4 0.7,-3.4 -1.2,-3.9 -1,-5.9 1.8,-9.1 -1.8,-0.1 -1.8,0 -3.4,2.7 -0.9,1.5 -2,3 -3.2,4.8 -1.8,-4.2 2.7,-6.2 2.3,-9.6 -2.5,0.1 -2.6,2.9 -4.4,4.2 -0.8,-5.7 3.8,-8.8 6.1,-13.9 -4.2,2.1 -5.3,6.1 -9.2,8.1 3.2,-5.7 6.7,-10.4 10.6,-14.6 1.7,-1.9 1.1,-3.9 2.2,-5.5 1.1,-0.8 1.3,-2.2 1.7,-3.4 -0.3,0.7 -0.6,2 -1.4,3 z"
   class="st0" />
		<path
   id="path25682"
   d="m 244.8,144.1 c -6.2,0.7 -9.8,4.5 -12.2,9.9 -2.6,5.7 0.8,10.6 2.6,15.9 -8.7,-5.9 -6.6,-14.3 -1.6,-21.2 4.5,-6.2 16.6,-11.1 25.5,-7 3.3,1.5 6,3.6 8.2,6.4 0.5,0.6 0.6,1.7 1.4,1.8 1.8,0.4 3,2.6 5.2,1.6 2.6,-1.2 1.7,-3.8 2,-6.5 1.8,2.7 2.4,4.8 0.1,7 -2.8,2.8 -7.9,3.6 -10.2,0.7 -3.1,-3.7 -6.7,-3.4 -10.7,-3.5 -2.9,-0.1 -4,2.1 -5.6,3.6 -0.7,0.6 -0.1,1.3 0.5,1.7 1.2,0.9 0.7,-0.5 1,-0.8 3.1,-3.5 8.9,-3.9 12.3,-0.7 1.8,1.6 3.5,2.6 6,3 4.2,0.6 5.1,4.8 6.1,7.8 0.9,2.6 1.6,5.4 2.1,8.1 1.4,7.9 -0.4,15.6 -2.3,23 -2,7.5 -4.1,14.9 -5.8,22.4 -0.4,1.7 -1.6,4.4 1.1,5.8 1.9,1.1 3.9,3.2 5.9,-0.3 1,3 -1.1,4.1 -2.6,4.9 -1.7,1 -3.8,0.2 -5.3,-1 -3.8,-2.7 -4.2,-8.5 -1.7,-12.6 2,-3.2 3,-7 4.5,-10.7 -0.7,0.1 -1.1,0 -1.1,0.1 -2.5,4.8 -5.6,9.4 -7.3,14.4 -1.1,3.3 0.4,7.1 2.1,10.4 1,1.8 2.3,3.2 3.7,4.3 4.2,3.1 5.7,7.7 7.1,12.4 0.8,2.4 -1.7,4.3 -0.9,7 -3.1,-9 -12.1,-13 -16.6,-20.7 1.5,4.6 4,8.1 7.9,11 3.2,2.4 4,6.9 6.3,10.2 1.9,2.7 1.9,5.4 1.2,8.6 -3.6,-9.1 -10.6,-15.5 -17.3,-22.3 -0.1,2.5 0.2,3.3 4.9,8.1 4.2,4.2 6.9,9.2 9.7,14.3 1.7,3.1 1.1,5.7 -0.5,8 -1.9,2.9 -3.8,5.9 -6.4,8.3 -2.8,2.6 -3.5,5.7 -0.9,8.9 -3.8,-0.1 -4.7,-1.5 -3.2,-4.9 1.8,-4 4,-7.7 5.3,-12 1.6,-5.5 -0.1,-9.4 -3.7,-13.2 -2.8,-3 -6,-5.4 -9.3,-7.8 -3.2,-2.3 -3.6,-6.5 -5.7,-9.6 -2.9,-4.1 1.4,-6.5 1.9,-9.8 0.2,-1.8 2,-3.5 -0.1,-5.1 -3.6,3 -1.6,9.8 -7.8,11.2 3.4,-4.2 2,-9 2.1,-13.6 0.1,-6.1 2.4,-11.5 6.6,-15.5 6.5,-6.2 11.3,-13.2 13.6,-22 1.1,-4.1 0,-7.3 -3.4,-9.4 -2,-1.3 -3.6,-0.7 -5.2,0.5 -1.4,1 -1.6,2.1 -1.2,4.1 1.1,4.7 0.6,9.6 -1.5,13.9 -1.4,2.9 -3.9,5.1 -7.8,3.7 2.4,-2.2 5.4,-4.1 6.4,-8 -1.5,0.8 -2,1.6 -2.7,2.7 -2.6,4 -5.9,4.5 -9,1 -3.8,-4.4 -9.2,-6.9 -13,-11.2 -0.8,-0.9 -1.6,-0.8 -2.8,-0.7 1.3,5.1 5.4,7.9 9.1,10 6.6,3.7 5.3,9.3 4.7,14.7 -1,8.2 -4.6,16 -4.7,24.4 -0.1,6.7 3.2,12 7.7,15.8 6.7,5.8 9,12.2 8.3,20.9 -1,12.8 -2.3,25.7 -1.9,38.6 0.1,4.2 -1.8,7.6 -6.2,9.3 -2.6,1 -5.9,1.6 -6.4,5.4 -0.1,0.6 -1.6,1.6 -2.9,0.2 -2.9,-3.4 -2.5,-3.5 1.6,-5.7 4.3,-2.3 6.3,-6.7 6.5,-11.5 0.3,-8.6 0.5,-17.2 -0.1,-25.7 -0.3,-3.8 -0.1,-7.7 -0.9,-11.4 -1.2,-5.8 -5.3,-10.5 -9.9,-12.9 -12.6,-6.6 -20.8,-16.8 -28.2,-28.4 -3.6,-5.6 -7.4,-11.2 -10.6,-17 -1.5,-2.7 -4.3,-3.1 -6.5,-4.5 -0.6,-0.4 -1.8,-0.2 -1.8,-1.3 0,-0.9 0.7,-1.5 1.6,-1.6 5.5,-1.1 8.4,-3.7 5.9,-9.6 -0.2,-0.5 0,-1.2 0.8,-1.1 3.1,0 5.2,-1.5 6.3,-4.3 1.2,-3.3 -0.1,-6.3 -1.3,-9.3 -0.2,-0.4 -0.3,-0.7 -0.5,-1.1 3.6,-0.4 5.9,-1.9 5.6,-6 -0.2,-1.9 0.7,-1.9 2.3,-1.5 11.7,2.7 21.7,8.8 31.3,15.6 2.8,2 7,2.3 9.8,0.2 2.6,-2 2.9,-4.4 0.3,-6.7 -5.1,-4.5 -6.4,-11 -8.7,-16.9 -1.2,-3.2 3.7,-9.9 7.7,-12.4 1.2,-0.7 3.2,-0.6 3.5,-2.6 4.5,-1.6 9,-2.1 11.9,-1 -3.2,-1.2 -7.7,-1.2 -12.2,0.8 z"
   class="st0" />
		<path
   id="path25684"
   d="m 103.3,119 c 2,2.8 5.6,2.6 8.2,4.4 1.3,0.8 2.7,1.3 2.1,2.8 -0.7,1.7 -2,0.2 -3.1,-0.1 -0.7,-0.2 -1.5,0 -3,0 1.7,1.1 3,1.6 3.8,2.5 1.7,2 5.2,2.8 3.6,7 -0.6,1.5 0.5,4.5 3,5.8 -1.4,0.8 -2.5,0.6 -3,-0.5 -1.3,-3.2 -4,-3.5 -6.7,-3.1 -3.4,0.6 -6.7,0.7 -10.1,-1.1 -0.2,2.4 1.1,2.7 2.5,2.7 2.4,0 4.7,-0.2 7,0.1 0.6,0.1 4.6,-2.2 2.2,1.9 0,0 0.5,0.4 0.8,0.5 5.3,0.6 7.1,4.9 10.3,9.3 -2.3,-1 -3.7,-2.8 -5.6,-1.3 0.5,2.2 3,2 4.3,3.6 7.4,8.9 1.4,20.1 -5.7,24.1 -3.2,1.8 -6.3,3.7 -8.8,6.4 -4.9,5.3 -4,11.2 3.3,15.3 -4.7,-0.7 -7.4,-2.3 -9,-6.1 -1.6,-3.7 -0.4,-6.8 1.8,-9.3 3.6,-4 7.4,-8 12.3,-10.6 6.1,-3.2 8.1,-11.2 4.4,-15.9 -0.3,-0.4 -0.7,-0.8 -1.5,-0.4 0.3,2.4 3.1,4.2 1.8,7.2 -2.2,5.3 -6.8,7.8 -11.3,10.4 -4.8,2.8 -10.8,3.6 -14.4,8.6 -0.5,0.7 -1.6,1.1 -1.5,2.3 -1,-4.1 -0.6,-5.9 3.1,-7.2 7.1,-2.4 11.9,-8.1 18.1,-11.7 3.2,-1.8 4,-8.9 1.8,-11.4 -0.4,-0.5 -1,-1.2 -1.7,-0.8 -0.7,0.4 -0.7,1.4 -0.3,1.9 3.3,4.2 0.2,7.2 -2.4,9.7 -5.5,5.3 -12,7.4 -19.7,5 -4.4,-1.4 -6.9,-4.7 -8.5,-8.6 -1,-2.4 1,-3.9 3.1,-6 -0.6,2.9 -1.5,5 -0.4,7.3 1,2.1 2.4,3.8 4.3,4.7 5.4,2.7 13.4,0.8 17,-3.8 3.4,-4.3 3.6,-9.2 0.6,-13.1 -2.6,-3.3 -3.2,-3.5 -7,-1.8 4.4,-0.5 5.2,2.3 6.6,5.6 -1.8,-0.8 -3,-1.2 -4.1,-1.7 -0.1,0.2 -0.2,0.4 -0.3,0.5 1.3,0.9 2.5,2 3.9,2.8 2.2,1.1 0.6,2.3 0.1,3.3 -0.7,1.4 -1.8,0 -2.1,-0.2 -1.5,-1.3 -3,-2.6 -4,-4.5 -3.6,-6.9 -4.9,-14.4 -5.5,-22 -0.6,-8.1 -1.7,-16 -5.7,-23.4 1.5,-0.5 3.2,-0.7 3.7,-2.6 -1,-0.7 -1.8,-0.2 -2.7,0.6 -0.7,0.7 -1.3,1.4 -2.1,-0.2 -0.6,-1.2 0,-1.3 0.7,-1.9 2.9,-2.6 7,-3.6 9.5,-6.9 0.3,-0.4 0.8,-0.8 0.4,-1.9 -2.8,2.2 -6.1,4 -8.5,6.2 -3.3,2.9 -4.9,1.9 -7,-1.3 6,-2.6 7.6,-11.9 16.9,-9.9 -3.5,-2.7 -8.3,-1.7 -11.1,1.9 -1.3,1.6 -2.7,3 -3.9,4.7 -0.8,1.1 -2.5,2.5 -4.2,1.2 -1.6,-1.2 0.2,-2.2 0.6,-3.3 0.5,-1.4 1.4,-2.7 1.6,-4.1 0.7,-5.4 5.1,-5.2 8.9,-6.6 -0.2,1.8 -1.6,0.7 -2,1.5 -0.4,0.7 -1,1.2 -1.8,2.1 4,-0.5 7.6,-3.4 11,-0.2 0.8,0.7 2.8,0.5 2.3,2.3 -0.4,1.2 -1.2,2.2 -2.8,2.3 -5.4,0.3 -7.7,5.3 -11.5,8.1 -0.4,0.3 -0.7,0.9 0,1.7 5.3,-2.8 8.7,-9.2 15.9,-9.1 -0.7,1.5 -2.7,1.2 -3.3,2.9 2,0.4 3.3,-0.9 5.4,-1.1 -1,2.5 -1.2,4.5 -4.9,4.1 -2.4,-0.2 -3.4,2.9 -5.1,4.6 2.9,-1.8 5.8,-3.8 9.6,-3.3 0.9,4.1 -4.4,3.2 -5.7,6.7 5.9,-4.2 10.4,0.1 15.3,1.3 -3,3.5 -6.8,5.4 -11.9,4.5 2.1,2.9 5.1,1.2 7.4,2.5 1.2,0.6 2.2,1.4 3.3,2.2 0.9,0.7 1.3,1.7 0.1,2.3 -1.6,0.8 -0.6,-0.9 -1,-1.3 -1,-1.1 -2.3,-0.4 -3.4,-0.6 -1.3,-0.3 -2.9,-0.3 -4.3,-0.5 -1.1,-0.1 -2.1,-0.1 -2.4,-0.1 0.4,0 1.4,0.2 2.4,0.1 z"
   class="st0" />
		<path
   id="path25686"
   d="m 180.7,244.2 c -0.1,-2.1 -4.9,-1.9 -2.4,-5.4 3.2,2.3 6.7,3.7 11.3,3.3 -2.8,-1.2 -5.3,-1.9 -7.3,-3.2 -1.1,-0.7 -6.2,0.4 -2.5,-3.8 0.4,-0.4 -1.6,-1.1 -1.1,-2.6 2.6,0.1 4,1.9 5.5,3.6 -1.2,1.1 -1.7,-0.9 -2.9,-0.2 0.5,1.4 2.5,2.8 2.9,2.4 2.3,-2.2 3.7,1.4 6.1,0.2 -3.8,-3 -7.5,-5.8 -11.1,-8.6 3.9,0.1 6.1,3.2 9.6,4.9 -1.9,-4.5 -5.9,-5.5 -9.1,-7.5 10.5,-3.5 16.2,-2.5 21.7,8.5 -6.2,-3.2 -10.2,-9.4 -18,-9.3 6.4,5.7 15.3,7.4 20.2,14.3 -9.6,-6.8 -9.9,-7 -14.1,-6.2 5.7,1.8 10,5.5 14.9,9.8 -2.3,0 -2.7,-1.7 -4.1,-1.5 -2.3,-0.8 -4,-2.8 -6.5,-3.2 2.5,0.4 4.2,2.6 6.6,3.1 0,1.9 2.4,2.8 2.1,4.9 -1.2,0.3 -1.4,-1.8 -3,-1 -0.3,3 5.9,2.7 3.6,6.8 -1.5,0 -1.9,-3.1 -4.1,-1.9 0.4,2.6 3.6,2.7 5.2,5.8 -2.6,-1.6 -4.3,-2.6 -6.8,-4.1 2.6,4.4 7.2,5.1 9.7,9.2 -4.6,-2.1 -7.8,-5.3 -12.3,-6.3 0.4,2.2 1.9,2.3 3.3,2.8 8,3.1 8.8,6.7 2.9,12.7 -5.3,5.3 -8.5,12.1 -13.2,17.8 -3.8,4.5 -7.3,9.3 -10.6,14.2 -2.2,3.3 -3,7.1 -5.1,10.4 -2.2,3.4 -2.2,3.5 -4.3,0.4 -0.5,-0.8 -0.9,-0.4 -1.2,-0.1 -2,2.3 -5.8,2 -7.1,5.1 -0.5,1.1 -2,1.6 -2.4,1.2 -1.3,-1.3 -2.6,-2.8 -3.3,-4.5 -0.4,-1 1.5,-1.4 2,-1.4 4.6,0.1 6.1,-4.3 9.4,-6 0.2,-0.1 0.6,-0.3 0.6,-0.4 0.2,-5.1 -0.1,-5.3 4.5,-12.3 5.3,-8 9.1,-17 15.1,-24.5 1.5,-1.8 -0.1,-3.4 -0.4,-5 -0.6,-3.5 -0.9,-7.2 -2.8,-10.4 2,-0.4 3.7,0.5 5.4,1.3 -1.7,-0.7 -3.3,-1.9 -5.3,-1.2 -0.5,-1.1 -1,-2.3 -1.8,-4.1 3.1,1 5.6,1.8 8.9,2.8 -3.2,-4 -8.7,-2.4 -11.4,-6.7 2.2,0 4,1.2 5.9,0.5 -0.4,-2.2 -2.6,-1.4 -3.8,-2.1 -1,-0.6 -2.7,-0.6 -2.3,-2.1 0.4,-1.3 1.9,-0.7 2.9,-0.4 4.1,-0.1 7.2,2.3 10.7,3.6 -3.5,-1.2 -6.6,-3.8 -10.7,-3.6 z"
   class="st0" />
		<path
   id="path25688"
   d="m 175.9,59.9 c -1.3,2.9 -3.5,4.8 -6.1,6.3 -10,5.6 -21,8.4 -31.8,11.7 -3.9,1.2 -7.5,3.4 -11.9,1.8 -2,-0.7 -3.7,1.1 -5.5,2.1 2.1,1.2 3.7,-0.9 5.6,-0.6 0.9,0.1 1.8,0.2 2.1,1 0.4,1 -0.5,1.3 -1.3,1.6 -2.3,0.7 -3.6,2.7 -5.5,3.9 2.1,0.9 4.4,0 5.4,-1 6.7,-6.7 15.7,-7.8 24.1,-10.1 7.9,-2.2 15,-6 22.4,-9.2 2.2,-0.9 4.4,-1.2 6.5,-1.6 6.8,-1.5 12.7,-5.5 19.6,-6.6 1.7,-0.3 3.8,-1.1 4.9,0.5 0.9,1.2 -1,2.4 -1.6,3.6 -2.4,5.6 -8.2,4.9 -12.7,6.3 -15.5,5 -31.9,6.5 -47.4,11.7 -4.3,1.5 -8.7,2.7 -11.7,6.2 4.7,1.9 4.6,2.5 -1,11.1 -1.6,-1.2 -2.7,-3.3 -5.3,-2.2 0.8,-2.7 5.1,-3.5 3.4,-5.9 -1.6,-2.2 -5.1,-1.2 -7.7,-0.5 -1,0.3 -1.8,0.2 -2.9,0.3 0,-1.8 2.2,-4.1 -0.5,-5.3 -2.3,-1 -4.8,-1 -6.4,1.8 1.7,1.2 4.3,-2.3 5.4,0.7 0.7,1.9 -2.2,2.5 -2.9,4.5 4.3,-1.1 8.7,2.1 12.9,-2.5 0.1,2.8 -0.7,4.8 -2.1,4.5 -3.5,-1 -7.2,3.5 -10.4,-0.7 -3.2,3 -0.5,7.9 -3.6,10.9 2.4,0 4.1,-1.6 3.8,-3.8 -0.3,-2.6 -0.3,-2.5 1.8,-3 1.8,-0.4 3.2,-2 5.4,-2 -0.6,2.5 -2.9,2.6 -4.5,3.9 1.2,0.2 2.4,0 3,0.6 2.4,2.3 2,1.3 2,-1.2 0,-2.8 2.5,-2.6 6.4,0.6 -4,1.9 -8.2,3.1 -12.5,4.2 1.4,0.6 2.7,-0.2 4.2,1.1 1.7,1.5 -0.4,2.8 0.6,4.3 1,-1.4 4.3,-1.2 1.9,-4.1 -0.9,-1 -0.2,-1.6 0.4,-1.8 2,-0.7 3.6,-2.6 6.2,-1.6 -1.3,1.6 -0.9,4.3 -3.7,4.7 -0.1,0 -0.3,0 -0.4,0 0.7,2.4 0.8,4.8 -2.4,4.8 -2.6,0.1 -4.8,0.7 -6.9,1.8 -0.7,0.4 -1.3,0.8 -2.2,1.4 3.5,1.1 6.4,-2.6 10,-0.8 -1.9,3.8 -3.9,7.7 -6.2,12.4 -0.6,-2.2 -1.3,-3.6 -1.3,-5 0,-2.3 -0.5,-3.9 -2.8,-4.8 -1.7,-0.7 -2,-2.2 -0.2,-3 1.9,-0.8 3,-2.4 4.3,-3.7 0.6,-0.6 2.8,-0.3 1.6,-1.9 -0.2,-0.3 -1.4,-2.7 -3.5,-0.6 -2.3,2.4 -8.4,-1 -8.5,-4.5 -0.1,-3.6 -0.4,-7.3 0.1,-10.8 1,-6.7 6.2,-9.6 11.9,-11.9 10.5,-4.3 22,-5.4 32.7,-9 8.4,-2.9 16.3,-7.2 24.8,-10.6 z"
   class="st0" />
		<path
   id="path25690"
   d="m 193,104.6 c -7.5,1.2 -14.1,5.2 -22.3,6.9 2.2,-2.4 5.5,-2.4 5.4,-5.8 0,-0.3 1.6,-0.7 2.5,-1 17,-4.9 33.8,-10.4 50.6,-15.7 9.9,-3.1 19.1,-7.4 27.8,-12.9 0.6,-0.4 1.1,-1.1 1.7,-0.5 0.6,0.6 0.5,1.6 -0.1,2.2 -1.9,2 -3.7,4.2 -5.9,5.8 -6.1,4.2 -11.9,8.7 -17.8,13.1 -9.9,7.5 -21.8,10.8 -33.6,14.3 -6.1,1.8 -12.4,3.1 -18.3,5.4 -3.7,1.4 -5,-0.9 -6.9,-2.7 -0.9,-0.9 -0.5,-1.6 0.7,-2.2 3.7,-2 8.1,-2.3 11.9,-4.3 1.4,-0.8 2.9,-1.9 4.3,-2.6 z"
   class="st0" />
		<path
   id="path25692"
   d="m 169.7,103.2 c 8.2,-2 13,-8.6 20.4,-11.1 -4.5,2.2 -7.8,-0.3 -10.9,-2.1 12.6,-4.3 25.4,-8.6 38.2,-13 12.5,-4.3 24.9,-8.6 36.6,-14.8 0.7,-0.4 2.4,-1.9 3.2,-0.6 1,1.6 -0.5,3 -1.5,4.2 -7.1,8.3 -15.9,14.2 -25.9,18.3 -16.1,6.6 -32.3,13.1 -49.1,17.8 -3.3,0.9 -6.4,3.9 -11,1.3 z"
   class="st0" />
		<path
   id="path25694"
   d="m 160.9,164.3 c 0,-1.2 -0.8,-1.6 -1.8,-1.9 -3.2,-0.7 -3.7,-2.8 -2.7,-5.6 9.3,4.4 19.7,6.6 27.9,13.2 3.7,3 8.1,5.7 8.3,11.4 0.1,2.2 -0.4,4 -2.6,4.9 -2.1,0.8 -3.8,0.3 -5.5,-1.5 -5.7,-6.2 -11.9,-12 -19.7,-15.4 -3.3,-1.4 -6.8,-3.3 -10.9,-2.3 8.5,1.3 14.8,6.7 21.3,11.3 4.3,3 8.1,6.7 10.1,12 0.9,2.5 0.9,4.5 -1,6.1 -2.2,1.8 -4,0.5 -5.7,-1.1 -3.6,-3.2 -4.8,-8.2 -8.6,-11.2 -4.6,-3.7 -8.7,-8.1 -14.4,-10.3 -3.2,-1.2 -4.7,-3.9 -5.1,-6.7 -0.3,-2 3.1,-1.2 4.3,-3 1.7,-2.6 4.1,-0.5 6.3,-0.1 1.7,0.7 3.1,1.7 4.8,2.3 0.5,0.3 1,0.8 1.8,0.9 -0.7,-0.2 -1.2,-0.5 -1.6,-0.8 -1.8,-0.6 -3.2,-1.9 -5.2,-2.2 z"
   class="st0" />
		<path
   id="path25696"
   d="m 208,116 c -13.7,3.7 -27.7,6.1 -41.7,8.3 6.4,-4.3 13.8,-5.8 21.1,-7.4 10.1,-2.3 20,-5.3 29.8,-8.9 4.2,-1.5 8.7,-2.8 13.3,-2.8 1.4,0 2.9,-0.3 3.5,1.3 0.6,1.6 -0.9,2.4 -1.7,3.4 -3.3,4.3 -8,6.6 -12.8,8.2 -9.8,3.5 -19.3,7.6 -29.5,9.8 -5.4,1.2 -10.8,2.1 -16.2,2.7 -2,0.2 -1.2,-2.5 -2.5,-3.6 -1.3,-1.1 0.9,-1.4 1.4,-1.6 5.2,-1.9 10.7,-2.2 16.1,-3.4 6.6,-1.2 12.7,-4.2 19.2,-6 z"
   class="st0" />
		<path
   id="path25698"
   d="m 136.4,93.3 c -0.7,-1.7 0.5,-3.7 -1.2,-5.4 -1.2,-1.3 1,-1.2 1.3,-1.4 6.5,-3.8 13.9,-5.4 21.2,-6.9 13.2,-2.6 26.3,-5.9 39.4,-9.3 7.1,-1.9 13.9,-4.5 20.3,-8.2 0.7,-0.4 1.6,-1.6 2.9,-0.3 1.4,1.4 0,2.5 -0.5,3.2 -2.4,3.5 -6.5,4.6 -10.1,6.3 -9.8,4.5 -19.9,8.3 -30.3,11.1 -8.5,2.3 -17.4,3.2 -25.9,5.4 -5.9,1.4 -11.5,3.5 -17.1,5.5 z"
   class="st0" />
		<path
   id="path25700"
   d="m 188.4,134.4 c -7.3,-0.5 -14.1,3 -22,1.6 4.7,-4.3 10.2,-4.4 15,-4.8 9.3,-0.8 17.9,-4.2 27,-5.7 3.3,-0.5 6.8,-1 10.1,0.3 3,1.2 2.9,1.7 0.6,3.5 -6.6,5.4 -14.6,7.8 -22.8,9 -7.7,1.1 -15.4,1.9 -23.2,2 -1.5,0 -2.6,0.2 -2.9,-1.4 -0.3,-1.9 1.4,-1.1 2.3,-1.3 4.2,-0.7 8.5,-1.6 12.8,-1.7 1.3,0 2.1,-0.7 3.1,-1.5 z"
   class="st0" />
		<path
   id="path25702"
   d="m 161.3,145.7 c 7.2,0.8 14.4,0.1 21.6,-0.5 -5,0 -10,0 -15.4,0 1.3,-3.7 4.5,-3.2 6.5,-3.3 8.5,-0.4 17.1,-0.3 25.7,0 2.7,0.1 5.3,1.5 7.9,2.4 2,0.7 2,1.8 0.5,3.3 -1.8,1.8 -4.2,2.1 -6.3,2.3 -8.7,1 -17.3,1.5 -26.1,0.4 -5.1,-0.7 -10.1,-0.7 -14.4,-4.6 z"
   class="st0" />
		<path
   id="path25704"
   d="m 164.1,154 c -0.4,-1.9 -2.3,-0.9 -2.9,-1.9 -0.1,-1.1 0.6,-1.2 1.3,-1.1 12.5,0.8 22.9,6 31.8,14.6 1.5,1.4 2.8,3.4 0.9,5.7 -1.6,2 -3.6,1.6 -5,0.4 -9,-7.8 -20.1,-11.3 -30.9,-15.5 -1,-0.4 -2.9,0.1 -2.2,-2 0.5,-1.5 1.9,-0.4 2.8,-0.8 1.5,-0.6 2.6,1.6 4.2,0.6 z"
   class="st0" />
		<path
   id="path25706"
   d="m 173.7,204 c -4.7,0 -8,-2.7 -9.5,-7 -2.2,-6.3 -5.2,-12.1 -11.3,-15.7 -0.8,-0.5 -1.5,-1.3 -2,-2 -1,-1.5 -1.1,-3.1 0,-4.5 1.2,-1.6 2.6,-0.3 3.6,0.3 8.6,4.6 15.5,10.9 20.7,19.3 1.5,2.4 4.8,4.1 2.3,7.6 -0.9,1.3 -2,2.5 -3.8,2 z"
   class="st0" />
		<path
   id="path25708"
   d="m 170,90.5 c 1.1,-3.7 3.6,-4.6 6,-5.1 11.7,-2.9 23.1,-7 34.3,-11.5 1.2,-0.5 2.8,-2.1 3.7,0.2 0.7,2.1 -1.7,2.4 -2.8,2.7 -9.4,3.2 -18.9,6.2 -28.3,9.4 -4.1,1.3 -8.2,2.7 -12.9,4.3 z"
   class="st0" />
		<path
   id="path25710"
   d="m 141.2,162.2 c 2.8,0.3 4.7,-0.6 6.1,-2.9 1.4,-2.1 -1.2,-2 -1.1,-3.3 -1.8,0.7 0.2,3.3 -1.9,3 -1.1,-0.2 -2.2,-1.6 -3,-2.7 -1.2,-1.7 0.9,-2.1 1.5,-3 0.8,-1.2 1.5,-1 2.6,0.4 1.2,1.4 3.6,1 5.3,2.7 1.8,1.8 3,3.3 2.6,5.7 -0.5,3 -3.4,2.4 -5.2,2.7 -2.3,0.4 -4.9,-0.5 -6.9,-2.6 z"
   class="st0" />
		<path
   id="path25712"
   d="m 214,326.1 c 3.1,-3.4 6.3,-5.5 9.3,-7.9 1.7,-1.4 2.2,-0.4 3,0.5 0.6,0.7 1.1,1.5 1.5,2.3 0.5,1 2.6,1.2 1.6,2.6 -0.8,1.3 -1.8,2.6 -3.9,2.5 -3.5,-0.1 -7.1,0 -11.5,0 z"
   class="st0" />
		<path
   id="path25714"
   d="m 55.2,325.3 c 3.3,-3.4 6.4,-5.5 9.3,-7.9 1.6,-1.3 2.2,-0.8 3.1,0.4 0.6,0.7 1.1,1.5 1.5,2.3 0.5,1 2.5,1.3 1.7,2.6 -0.8,1.3 -1.8,2.7 -3.8,2.6 -3.6,-0.1 -7.3,0 -11.8,0 z"
   class="st0" />
		<path
   id="path25716"
   d="m 140.1,326.1 c 3,-3.5 6.3,-5.5 9.3,-7.9 1.7,-1.5 2.2,-0.3 3,0.5 0.6,0.7 1.1,1.5 1.5,2.3 0.4,1 2.6,1.2 1.6,2.6 -0.9,1.3 -1.8,2.6 -3.9,2.5 -3.6,-0.1 -7.2,0 -11.5,0 z"
   class="st0" />
		<path
   id="path25718"
   d="m 44.1,293.7 c -1.1,-1.5 -2.2,-3.1 -3.4,-4.6 -2.1,-2.4 -1.8,-5.8 0.9,-7.5 1.6,-1.1 3.9,0.5 4.1,3 0.2,2.7 0,5.4 0,8.1 -0.6,0.3 -1.1,0.7 -1.6,1 z"
   class="st0" />
		<path
   id="path25720"
   d="m 148.5,174.6 c -2.5,-2.2 -5.1,-3.2 -7.3,-4.7 -0.7,-0.5 0.4,-1.6 1.1,-2.4 0.9,-0.9 1.7,-1.1 2.9,-0.6 2.4,1 3.5,3 4.5,5.3 1.1,2.2 -2.6,0 -1.2,2.4 z"
   class="st0" />
		<path
   id="path25722"
   d="m 70.9,81.1 c 1.1,2.3 3.2,4.4 1.2,7 -0.6,0.8 -0.6,2.7 -2.4,2.1 -1.7,-0.5 -2.6,-2.5 -2.3,-3.4 0.8,-1.9 0.2,-4.8 3.5,-5.7 z"
   class="st0" />
		<path
   id="path25724"
   d="m 59.9,89.3 c -1.4,-0.2 -3.1,1.1 -3.4,-0.8 -0.4,-2.3 0.3,-4.4 3.4,-6.5 -1.6,3 -3.2,5.3 0,7.3 z"
   class="st0" />
		<path
   id="path25726"
   d="m 53.1,96.6 c -1.6,0.8 -3,1.4 -4.4,2.1 0.9,-1.7 1.5,-4.3 4.4,-2.1 z"
   class="st0" />
		<path
   id="path25728"
   d="m 141.4,152 c -1.3,0.5 -0.5,2.1 -2,2.1 -0.2,0 -0.7,-0.6 -0.6,-0.8 0.2,-0.9 0.7,-1.7 2.6,-1.3 z"
   class="st0" />
		<path
   id="path25730"
   d="m 49.3,108 c 1.7,-1.3 2.6,-1.9 3.4,-2.6 -0.6,-0.1 -1.2,-0.3 -1.6,-0.4 5.4,-3.7 10.9,0 16.9,-0.6 -1.9,1.7 -4.2,0 -5.8,1.5 0.9,2.2 3.3,0.1 4.4,2.1 -2.9,0.7 -5.9,1 -8.5,2.6 -3.6,2.1 -4.9,-3 -8.8,-2.6 z"
   class="st1" />
		<path
   id="path25732"
   d="m 140.5,99.8 c 1.5,-2.4 3.3,-0.4 4.6,0 1.8,0.6 1.5,2.9 1,4 -2,4.3 0.6,4.1 3.5,3.9 0.8,0 1.9,-0.4 2.5,0.8 -2.9,1.1 -10,2.3 -11.6,1.9 0.1,-1.5 3,-1.3 2.3,-2.8 -0.8,-1.7 -3,-1.8 -4.8,-1.6 0,-1.9 1.1,-1.4 1.8,-1.6 1.3,-0.4 3.4,1.1 3.9,-0.9 0.3,-2.1 -1.8,-2.8 -3.2,-3.7 z"
   class="st1" />
		<path
   id="path25734"
   d="m 92.6,266.4 c 3.6,3 3.1,6.2 -2,12.9 1,-4.2 1.9,-8.5 2,-12.9 z"
   class="st1" />
		<path
   id="path25736"
   d="m 173.1,217.4 c -5.3,-2.9 -11.8,1.3 -17.1,-2.9 2.1,-1.3 3.4,0.4 4.9,0.6 0.7,0.1 1.7,0.8 2.3,0.4 3.7,-2.5 6.9,-0.6 9.9,1.9 z"
   class="st1" />
		<path
   id="path25738"
   d="m 76.8,89.8 c 0.7,3.9 -0.2,7.4 -3.7,10.7 0,-4.4 2.4,-7.3 3.7,-10.7 z"
   class="st1" />
		<path
   id="path25740"
   d="m 131.5,120 c 3.6,1.4 5.1,3.2 2.1,6.2 -1,1 -2.3,1 -3.1,0 -0.5,-0.6 -0.2,-1.5 1.2,-2 3.2,-1.1 -0.2,-2.5 -0.2,-4.2 z"
   class="st1" />
		<path
   id="path25742"
   d="m 25.7,112.7 c 0.1,1.8 -1.1,2.7 -2.5,3.2 -0.6,0.2 -1.7,-0.6 -1.2,-1.5 0.8,-1.4 -0.5,-4 2.2,-4.1 1.1,0 1.7,1.2 1.5,2.4 z"
   class="st1" />
		<path
   id="path25744"
   d="m 113.3,214.9 c 2.8,1.3 5.6,2.5 8.8,3.9 -3.9,0.5 -7.2,0.1 -8.8,-3.9 z"
   class="st1" />
		<path
   id="path25746"
   d="m 75.4,165.3 c -1.2,1.7 -1.8,3.5 -2.6,5.3 -0.3,0.6 -1,1.5 -1.9,0.8 -0.6,-0.5 -0.5,-1.4 -0.1,-1.9 1.5,-1.4 1.8,-4 4.6,-4.2 z"
   class="st1" />
		<path
   id="path25748"
   d="m 168.1,210.4 c 4.1,1.1 6.7,3.4 10.5,3.8 -4.3,0.9 -6.9,0 -10.5,-3.8 z"
   class="st1" />
		<path
   id="path25750"
   d="m 77.2,175.1 c -0.6,2 -1.2,3.8 -1.6,5.6 -0.3,1.2 -1.1,1.1 -1.8,0.9 -1.1,-0.3 -0.9,-1.5 -0.5,-2 1.3,-1.4 1.6,-3.5 3.9,-4.5 z"
   class="st1" />
		<path
   id="path25752"
   d="m 76.9,170 c -1.2,2.4 -2.9,3.7 -3,5.8 -0.1,1.2 -1.2,0.9 -1.9,0.6 -0.9,-0.4 -0.4,-1.1 0,-1.6 1.1,-1.7 1.8,-3.8 4.9,-4.8 z"
   class="st1" />
		<path
   id="path25754"
   d="m 77.7,136.3 c -1.1,0.7 -2,1.7 -1.6,3 0.6,2 -0.7,2.8 -2,2.3 -1.9,-0.7 0.5,-1.3 0.5,-2.1 0.1,-2.8 0.3,-2.8 3.1,-3.2 z"
   class="st1" />
		<path
   id="path25756"
   d="m 75.8,134.5 c -0.1,-2.9 1.2,-5.2 2.8,-7.4 1.2,3.4 -0.4,5.5 -2.9,7.3 z"
   class="st1" />
		<path
   id="path25758"
   d="m 84.8,186.7 c -0.1,-0.7 0.1,-1.2 0.4,-1.9 0.7,-1.6 0.1,-3.7 2.1,-4.8 0.1,-0.1 0.7,0.6 0.7,0.7 -1.2,1.9 -0.2,5 -3.3,5.8 -0.1,0 0.1,0.2 0.1,0.2 z"
   class="st1" />
		<path
   id="path25760"
   d="m 134.4,137.9 c 0.9,-1.4 1.7,-2.7 2.6,-4.1 0.5,0.6 1.8,0.2 1.7,1.4 -0.2,2.2 -2.4,2.1 -3.4,3.3 -0.3,-0.1 -0.6,-0.3 -0.9,-0.6 z"
   class="st1" />
		<path
   id="path25762"
   d="m 73.9,155.8 c 0.7,-0.1 2,-0.6 2.1,-0.4 0.8,1.2 -0.4,1.7 -1.2,2.1 -1.6,0.7 -1.6,3.5 -4,3.2 -1.2,-2.4 3,-1.8 2.1,-4 0.2,-0.5 0.5,-0.8 1,-0.9 z"
   class="st1" />
		<path
   id="path25764"
   d="m 73.9,155.8 c -0.3,0.3 -0.6,0.6 -1,1 -0.8,-0.2 -1.8,0.4 -2.2,-0.5 -0.6,-1.2 0.7,-1.1 1.3,-1.5 1.1,-0.6 0.9,-3.2 3.2,-2 0.1,1.1 -1.8,1.5 -1.3,3 z"
   class="st1" />
		<path
   id="path25766"
   d="m 75.4,160.4 c -2.2,2.1 -2.5,4.2 -4.5,5.2 -1.2,-3.4 1.1,-4 4.5,-5.2 z"
   class="st1" />
		<path
   id="path25768"
   d="m 133.9,129.2 c 0.5,0.7 1.3,1.5 1.2,2 -0.3,1.1 -1.1,2.3 -2.5,2.2 -0.4,0 -1.3,-1.3 -0.9,-1.3 1.8,-0.2 0.5,-2.6 2.2,-2.9 z"
   class="st1" />
		<path
   id="path25770"
   d="m 75.8,187.1 c -0.8,-0.7 -0.9,-0.8 -0.9,-0.9 0.7,-1.5 1.3,-3 2.1,-4.5 0,0 0.9,0.2 1,0.4 0.6,2.2 -1.9,2.8 -2.2,5 z"
   class="st1" />
		<path
   id="path25772"
   d="m 54.5,114.2 c 1.8,1.2 3.8,0.6 4.4,2.5 0.1,0.2 -0.4,0.9 -0.5,0.9 -1.4,-0.5 -3.1,-0.7 -3.9,-3.4 z"
   class="st1" />
		<path
   id="path25774"
   d="m 138.4,223.8 c -0.9,0 -1.9,0.1 -2.8,0.1 -1.2,0.1 -2.1,-0.3 -2.6,-1.4 -0.1,-0.2 0,-0.6 0.2,-0.7 1.2,-0.9 1.5,0.6 2.3,0.9 1,0.4 2,0.5 3,0.7 -0.1,0.2 -0.1,0.3 -0.1,0.4 z"
   class="st1" />
		<path
   id="path25776"
   d="m 140.7,140.7 c -1.6,1.2 -2.6,2.5 -5,1.3 1.6,-1.2 2.7,-2.5 5,-1.3 z"
   class="st1" />
		<path
   id="path25778"
   d="m 173.6,209.1 c 2.6,-0.3 3.4,1.1 4.4,3.1 -2.1,-0.6 -3.5,-1.3 -4.4,-3.1 z"
   class="st1" />
		<path
   id="path25780"
   d="m 53.9,112.2 c 2.2,-0.8 3.5,0.5 5.4,2 -2.6,0.4 -3.9,-0.8 -5.4,-2 z"
   class="st1" />
		<path
   id="path25782"
   d="m 78.6,188.3 c 0.6,1.7 0.1,2.7 -1.3,3.2 -0.2,0.1 -0.9,-0.4 -0.9,-0.5 0.1,-1.3 1.2,-1.8 2.2,-2.7 z"
   class="st1" />
		<path
   id="path25784"
   d="m 103.7,242.2 c -0.3,3.3 -1.6,1.8 -3.1,0.8 1,-1.3 2.2,-0.5 3.2,-0.6 0.1,-0.1 -0.1,-0.2 -0.1,-0.2 z"
   class="st1" />
		<path
   id="path25786"
   d="m 181.3,217.8 c -1.6,0.5 -3.2,0.8 -4.4,-1 1.8,-1.1 2.9,0.5 4.3,1.1 0,0 0.1,-0.1 0.1,-0.1 z"
   class="st1" />
		<path
   id="path25788"
   d="m 70.1,211.2 c -4,0.7 -0.5,-2.6 -1.9,-3.3 1.3,0.8 0.2,2.7 1.8,3.4 -0.1,0 0.1,-0.1 0.1,-0.1 z"
   class="st1" />
		<path
   id="path25790"
   d="m 148.4,219.7 c 2,-1.1 3.4,-0.5 4.8,-0.4 -1.4,0.8 -2.8,0.5 -4.8,0.4 z"
   class="st1" />
		<path
   id="path25792"
   d="m 75.7,134.4 c -0.6,0.7 -1,1.7 -2.2,1.4 -0.2,-0.1 -0.4,-0.8 -0.3,-1 0.7,-0.9 1.7,-0.5 2.6,-0.3 0,0 -0.1,-0.1 -0.1,-0.1 z"
   class="st1" />
		<path
   id="path25794"
   d="m 131.3,171.8 c 1.1,0.5 1.8,1.1 2.2,2.3 -1.6,0 -2.3,-0.7 -2.2,-2.3 z"
   class="st1" />
		<path
   id="path25796"
   d="m 80.8,206.6 c -0.3,-1.8 0.5,-2.2 1.8,-2.6 0.2,1.5 -1,1.7 -1.8,2.6 z"
   class="st1" />
		<path
   id="path25798"
   d="m 271.5,166.7 c 2.6,1.4 4.8,7.3 4.2,10.2 -1.1,4.8 -2.7,9.5 -2.4,14.4 0.1,2.3 -0.8,3.2 -2.9,3.5 0.7,-3.9 0.3,-7.7 -0.5,-11.5 -0.1,-0.7 -1.2,-1.4 0,-2.1 1.3,-0.8 1.3,1.1 2.4,1 0.5,-4 -2.2,-7 -3.7,-10.4 2.4,-1 2.4,2.5 4.4,1.9 -0.4,-2.3 -0.9,-4.7 -1.4,-7.1 z"
   class="st1" />
		<path
   id="path25800"
   d="m 245.5,149 c 0.6,1.1 0.2,1.9 -0.8,2.5 -4.3,2.4 -4.9,6.4 -4.7,12 1.6,-4.5 3.2,-7.7 6.1,-9.9 0.5,-0.4 0.8,-1.2 1.5,-0.3 0.9,1.1 -0.4,0.8 -0.7,1.1 -1.8,2.5 -3.6,5 -5.1,7.6 -1.4,2.5 1.1,4 2.1,5.7 0.8,1.3 2.2,2.2 2.3,4.7 -4,-4 -8.8,-6.5 -8,-12.9 0.6,-4.9 3.2,-8.1 7.4,-10.3 z"
   class="st1" />
		<path
   id="path25802"
   d="m 266.9,236.3 c -5.6,-1.5 -7.4,-6.3 -8.3,-11 -1.3,-6.3 0.1,-12.4 4.3,-17.7 -2.6,10.1 -5.7,20.3 4,28.7 z"
   class="st1" />
		<path
   id="path25804"
   d="m 271.6,166.6 c -2.9,1 -3.7,-3 -6.4,-2.8 -0.5,0 -0.3,-1.1 0.2,-1.2 3.3,-1.1 0.9,-2.6 0,-3.1 -2.9,-1.7 -6,-3.2 -9.6,-1.9 -0.7,0.2 -1.6,1.2 -2,0 -0.5,-1.3 1.3,-1.4 1.7,-1.5 7,-1.3 15.1,2.2 16,10.7 0,-0.1 0.1,-0.2 0.1,-0.2 z"
   class="st1" />
		<path
   id="path25806"
   d="m 230.3,211.5 c 0.8,-6.8 1.3,-13.6 -4.7,-18.7 7.2,2.4 9.6,11.7 4.7,18.7 z"
   class="st1" />
		<path
   id="path25808"
   d="m 244.8,144.1 c 4.3,-3.6 13.3,-3.2 16.8,1.2 -5.8,-2.4 -11.3,-1.5 -16.9,-1.3 0,0 0.1,0.1 0.1,0.1 z"
   class="st1" />
		<path
   id="path25810"
   d="m 244.4,270 c 0.4,-4.9 2.2,-9.8 -3.2,-14.2 5.1,1.2 5.4,1.6 5.5,5 0,3.3 -0.9,6.4 -2.3,9.2 z"
   class="st1" />
		<path
   id="path25812"
   d="m 245.7,185.8 c -3.6,5.7 -6.9,5.6 -11.3,-0.1 3.7,1.6 7.4,5.3 11.3,0.1 z"
   class="st1" />
		<path
   id="path25814"
   d="m 230.5,217.1 c -2.1,-2.2 -3,-4.5 -5.1,-5.8 -0.3,-0.2 -0.2,-1.2 -0.1,-1.9 0,-0.1 0.8,-0.4 1,-0.2 2,2 4.9,3.6 4.2,7.9 z"
   class="st1" />
		<path
   id="path25816"
   d="m 269.8,197.7 c 0.3,4.5 -1.9,6.7 -4,8.9 -0.3,-0.2 -0.7,-0.4 -1,-0.6 1.5,-2.4 3,-4.9 5,-8.3 z"
   class="st1" />
		<path
   id="path25818"
   d="m 245.6,149.1 c 1.3,-2.1 3.7,-1.5 5.6,-2.2 -1.6,1.6 -3.3,2.6 -5.7,2.1 0,0 0.1,0.1 0.1,0.1 z"
   class="st1" />
		<path
   id="path25820"
   d="m 113.7,135.7 c -2.4,-0.2 -4.9,-0.9 -7.2,-0.4 -3,0.6 -5.8,0.9 -8.6,-0.2 -0.6,-0.2 -1.2,-0.5 -1.8,-0.8 -0.9,-0.5 -0.8,-1.5 -0.3,-2.1 0.6,-0.7 1.2,-0.1 1.7,0.4 2,2.4 4.3,2.2 6.9,1 3.3,-1.4 6.3,0.2 9.4,1.1 -0.1,0.3 -0.1,0.6 -0.1,1 z"
   class="st1" />
		<path
   id="path25822"
   d="m 103.3,119 c -1.9,0.7 -3.9,0.3 -6.6,0.3 2.7,-2.3 4.6,-0.5 6.6,-0.3 -0.1,0.1 0,0 0,0 z"
   class="st1" />
		<path
   id="path25824"
   d="m 96.2,114.5 c -0.8,1.7 -2,1.7 -3.1,1.9 0,-0.4 -0.2,-0.8 -0.1,-1.2 0.7,-1.7 2,-0.5 3.2,-0.7 z"
   class="st1" />
		<path
   id="path25826"
   d="m 180.7,244.2 c 5.2,-1.6 8.5,2.5 12.3,4.9 -4.1,-1.7 -8.1,-3.3 -12.2,-5 0,0 -0.1,0.1 -0.1,0.1 z"
   class="st1" />
		<path
   id="path25828"
   d="m 192.1,259.1 c 3.7,1.3 7.1,2.8 9.6,5.8 -3.4,-1.7 -7.1,-2.8 -9.6,-5.8 z"
   class="st1" />
		<path
   id="path25830"
   d="m 185.4,249.5 c 4.2,0.1 8.1,1.2 11.1,4.3 -3.7,-1.4 -7.4,-2.9 -11.1,-4.3 z"
   class="st1" />
		<path
   id="path25832"
   d="m 200.4,242.8 c -3.8,0.1 -6.4,-2.5 -9.2,-4.3 3.5,0.6 6.8,1.4 9.1,4.4 0,0 0.1,-0.1 0.1,-0.1 z"
   class="st1" />
		<path
   id="path25834"
   d="m 182.4,256.1 c 3.4,-1.7 5.7,0.8 9.3,2.4 -4.2,0.6 -6.3,-2.5 -9.3,-2.4 -0.1,-0.1 0,0 0,0 z"
   class="st1" />
		<path
   id="path25836"
   d="m 189.9,265.1 c 3.2,-1.1 3.5,1.6 5.8,2.4 -3.4,1.2 -3.9,-1.4 -5.8,-2.4 z"
   class="st1" />
		<path
   id="path25838"
   d="m 190.3,243 c 3.5,0.3 5.6,0.8 7.9,3.8 -3,-1.4 -5,-2.3 -7.9,-3.8 z"
   class="st1" />
		<path
   id="path25840"
   d="m 193.3,264 c -1.8,-0.1 -3.3,-0.8 -5.2,-2.4 2.9,-0.5 4.6,-0.2 5.1,2.5 z"
   class="st1" />
		<path
   id="path25842"
   d="m 193.3,256 c -1.4,0.7 -2.4,0.1 -3.1,-1.1 -0.1,-0.2 0.2,-1 0.4,-1 1.5,-0.1 2,1.2 2.7,2.1 z"
   class="st1" />
		<path
   id="path25844"
   d="m 193.2,264.1 c 2.1,-0.9 3.2,0.4 4.5,2.1 -2,0 -3.3,-0.8 -4.3,-2.2 -0.1,0 -0.2,0.1 -0.2,0.1 z"
   class="st1" />
		<path
   id="path25846"
   d="m 194.3,64.2 c -5.9,3.2 -12.6,4.1 -19,5.6 5.9,-3.2 12.5,-4.1 19,-5.6 z"
   class="st1" />
		<path
   id="path25848"
   d="m 109.1,89.5 c 0.6,0.5 1.1,1 1.6,1.6 0.8,0.8 0.8,1.8 0,2.6 -0.5,0.6 -1.2,0.9 -1.8,1.4 -0.3,-0.4 -0.6,-0.8 -0.9,-1.2 2.4,-1.1 2.4,-2.1 0,-3.2 0.4,-0.4 0.7,-0.7 1.1,-1.2 z"
   class="st1" />
		<path
   id="path25850"
   d="m 107.2,98.8 c 1.6,-0.3 2.1,0.8 3.2,1 -1.5,0.9 -2.4,0.4 -3.2,-1 z"
   class="st1" />
		<path
   id="path25852"
   d="m 220.1,100.4 c 3.8,-1.6 7.5,-4 12.3,-3.4 -4,2.3 -8,3.3 -12.3,3.4 z"
   class="st1" />
		<path
   id="path25854"
   d="m 194.3,103.6 c 4,-1.5 8,-2.9 12,-4.4 -3.4,3.2 -7.7,3.6 -11.6,5.4 -0.1,-0.3 -0.3,-0.7 -0.4,-1 z"
   class="st1" />
		<path
   id="path25856"
   d="m 194.3,110.9 c 1.2,-2.3 3,-1.2 4.5,-1.3 -1.3,0.4 -2.4,1.7 -4.5,1.3 z"
   class="st1" />
		<path
   id="path25858"
   d="m 212,105.6 c -1.8,0.6 -3,0.7 -4.2,0.1 1.2,-0.8 2.3,-0.5 4.2,-0.1 z"
   class="st1" />
		<path
   id="path25860"
   d="M 191.5,92 C 202,85.7 213.4,82.2 225,79.3 213.9,83.7 202.7,87.8 191.5,92 Z"
   class="st1" />
		<path
   id="path25862"
   d="m 165.9,166.8 c -2.3,0.4 -3.6,-1.2 -4.9,-2.6 0,0 -0.1,0.1 -0.1,0.1 2.2,-0.2 4.1,0.1 4.9,2.6 z"
   class="st1" />
		<path
   id="path25864"
   d="m 165.8,166.9 c 2.1,-0.9 3.2,0.3 4.3,1.9 -2.3,1.1 -3,-0.9 -4.2,-2 0,0 -0.1,0.1 -0.1,0.1 z"
   class="st1" />
		<path
   id="path25866"
   d="m 156.8,170.5 c -1.6,1.1 -2.5,-0.6 -4.5,-0.8 2.2,-0.7 3.6,-0.9 4.5,0.8 z"
   class="st1" />
		<path
   id="path25868"
   d="m 172,180.3 c -1.8,-0.9 -3.4,-0.9 -4.5,-3.1 1.9,0.8 3.4,0.9 4.5,3.1 z"
   class="st1" />
		<path
   id="path25870"
   d="m 166.4,177.2 c -1.9,-1 -2.8,-1.5 -3.8,-2 1.5,-0.4 2.6,-0.2 3.8,2 z"
   class="st1" />
		<path
   id="path25872"
   d="m 164.1,81.3 c -8.9,3.4 -18.3,4.4 -26.8,8.9 -0.6,-1.6 0.5,-1.9 1.4,-2.4 7.6,-3.4 15.8,-4.4 23.7,-6.6 0.6,-0.2 1.2,0 1.7,0.1 z"
   class="st1" />
		<path
   id="path25874"
   d="m 184.3,76.7 c -5.7,3.3 -12.1,4.3 -18.6,5.1 5.9,-2.7 12.5,-3 18.6,-5.1 z"
   class="st1" />
		<path
   id="path25876"
   d="m 204.1,69.8 c -4.2,4.1 -10.1,3.9 -15.1,6.2 4.4,-3.5 10.3,-3.4 15.1,-6.2 z"
   class="st1" />
		<path
   id="path25878"
   d="m 209.4,68.1 c 2.3,-1.2 4.6,-2.4 6.9,-3.7 -1.3,3.1 -4.2,3.2 -6.9,3.7 z"
   class="st1" />
		<path
   id="path25880"
   d="m 189.8,134.1 c 2.2,-0.3 4.2,-2.3 6.8,-1.1 -1.9,2.5 -4.5,0.5 -6.8,1.1 z"
   class="st1" />
		<path
   id="path25882"
   d="m 194.6,145.6 c -2.3,0.3 -4.5,0.7 -7.3,-0.2 3,-0.4 5.2,-0.5 7.3,0.2 z"
   class="st1" />
		<path
   id="path25884"
   d="m 180.7,161.4 c -1.5,-0.2 -2.9,-0.5 -3.9,-2 1.9,-0.3 2.9,1 3.9,2 z"
   class="st1" />
		<path
   id="path25886"
   d="m 170.8,156.9 c -1.1,-0.3 -2.5,0 -3,-1.8 1.3,0.3 2.7,0.1 2.9,1.9 z"
   class="st1" />
		<path
   id="path25888"
   d="m 170.7,157 c 1.4,-0.6 2.6,-0.6 3.6,1.1 -1.5,0.3 -2.4,-0.7 -3.5,-1.2 0,0 -0.1,0.1 -0.1,0.1 z"
   class="st1" />
		<path
   id="path25890"
   d="m 156.1,178.9 c 6.5,4.1 11.4,9.4 13.7,16.8 -3.5,-6.5 -8.3,-11.9 -13.7,-16.8 z"
   class="st1" />
		<path
   id="path25892"
   d="m 58.9,104.7 c -0.5,0.6 -0.9,1.2 -1.4,1.7 -0.6,0.6 0.5,2.2 -1.1,2.1 -0.5,0 -1.3,-0.7 -1.4,-1.3 -0.3,-1.1 0.9,-1.5 1.4,-2.2 0.5,-0.8 1.3,-0.7 2.5,-0.3 z"
   class="st0" />
	</g>
</g>
</svg>
