<?xml version="1.0" encoding="UTF-8" standalone="no"?>
<svg
   xmlns:dc="http://purl.org/dc/elements/1.1/"
   xmlns:cc="http://creativecommons.org/ns#"
   xmlns:rdf="http://www.w3.org/1999/02/22-rdf-syntax-ns#"
   xmlns:svg="http://www.w3.org/2000/svg"
   xmlns="http://www.w3.org/2000/svg"
   xmlns:sodipodi="http://sodipodi.sourceforge.net/DTD/sodipodi-0.dtd"
   xmlns:inkscape="http://www.inkscape.org/namespaces/inkscape"
   inkscape:version="1.0 (4035a4f, 2020-05-01)"
   height="234.04237"
   width="256.23251"
   sodipodi:docname="rose.svg"
   xml:space="preserve"
   viewBox="0 0 256.23251 234.04237"
   y="0px"
   x="0px"
   id="Layer_1"
   version="1.1"><metadata
   id="metadata28825"><rdf:RDF><cc:Work
       rdf:about=""><dc:format>image/svg+xml</dc:format><dc:type
         rdf:resource="http://purl.org/dc/dcmitype/StillImage" /><dc:title></dc:title></cc:Work></rdf:RDF></metadata><defs
   id="defs28823" /><sodipodi:namedview
   inkscape:current-layer="Layer_1"
   inkscape:window-maximized="0"
   inkscape:window-y="25"
   inkscape:window-x="0"
   inkscape:cy="136.72906"
   inkscape:cx="128.17696"
   inkscape:zoom="2.52"
   fit-margin-bottom="0"
   fit-margin-right="0"
   fit-margin-left="0"
   fit-margin-top="0"
   showgrid="false"
   id="namedview28821"
   inkscape:window-height="480"
   inkscape:window-width="820"
   inkscape:pageshadow="2"
   inkscape:pageopacity="0"
   guidetolerance="10"
   gridtolerance="10"
   objecttolerance="10"
   borderopacity="1"
   bordercolor="#666666"
   pagecolor="#ffffff" />
<style
   id="style28638"
   type="text/css">
  .st0{fill:#FFFFFF;}
  .st1{fill:#000000;}
</style>
<g
   transform="translate(-21.823036,-63.270942)"
   id="g28818">
	<g
   id="g28816">
		<path
   id="path28640"
   d="m 261.3,140.3 c -0.1,7.6 1.8,14 6.7,20.3 4.9,6.3 7.1,14.4 4.1,22.7 -0.9,2.6 -2.6,4.9 -4.2,7.2 -1.4,2 -1.1,3.6 -0.1,5.7 2.4,5 6.7,8.7 8.8,14 1.3,3.5 2.4,7.1 0.2,10.1 -2.6,3.5 -7.1,4.2 -11,3.2 -4.5,-1.2 -8.2,-0.9 -11.9,2 -3.7,2.9 -7,5.5 -9.3,10.3 -3,6.1 -7.2,12.7 -13.8,15.7 -4.5,2 -8.5,4.9 -13.1,6.7 -3,1.2 -5.1,3.4 -7,6.2 -4.4,6.9 -10.4,12.1 -18,15.3 -4.4,1.8 -9.2,1.4 -13.7,0.7 -3.4,-0.6 -6,0.2 -9.2,0.9 -7.1,1.6 -10.1,7.2 -13.9,12.1 -4,5.1 -11,5.3 -14.8,0.1 -1.4,-2 -3,-3.9 -3.3,-6.5 -0.1,-1.3 -0.4,-2.9 -2.3,-3.3 -5,-1.1 -8.9,-3.8 -11.2,-8.4 -0.7,-1.3 -2.1,-1.1 -3.2,-0.9 -10.2,1.1 -19.2,-2.2 -27,-8.3 -4,-3.1 -7.9,-6.5 -10.8,-11 -2.6,-4 -6.6,-7 -11.3,-8.5 -2.2,-0.7 -3.9,-1.4 -5.1,-3.4 -2,-3.2 -6.1,-3.8 -8.2,-6.8 -2.5,-3.6 -6.2,-6.3 -7.4,-10.8 -1.5,-5.5 -7.6,-7.5 -9.3,-12.9 -1.9,-6 -7.3,-6.2 -12.3,-7.1 -2.9,-0.6 -6.8,-0.4 -7.7,-3.8 -1.1,-4 3.2,-4.2 5.4,-5.9 0.7,-0.5 1.4,-1.2 2.2,-1.3 3.8,-0.7 5.3,-3.3 5.8,-6.8 0,-0.1 0,-0.4 0,-0.4 5.5,-3.8 2.9,-9.3 2.6,-14.1 -0.6,-8.1 2,-15.4 5.5,-22.3 3.3,-6.5 4.1,-13.6 5.4,-20.6 2.5,-13.2 8.7,-23.8 20.7,-30.5 1.8,-1 2.5,-1.9 3,-4 1.3,-5.5 3.2,-10.4 0.1,-16.3 -1.8,-3.5 -1,-9.4 2.7,-11.7 3.5,-2.2 8.8,-1.4 12.1,1.7 4.4,4 8.8,5.4 14.3,3.2 0.3,-0.1 0.6,-0.1 0.9,0 7.3,3.2 12.7,-1.4 18.5,-4.5 9.4,-5 19.6,-6.6 29.5,-3.3 7.8,2.6 14.5,2 22.2,0.3 9.9,-2.2 19.6,-0.4 27.9,6.1 2.8,2.1 5.2,5.3 9.5,3.3 0.5,-0.2 1.2,0 1.8,0 3.6,-0.6 6.9,3.3 10.1,1.5 3.2,-1.8 6.4,-3.3 9.9,-4.3 7.2,-2.1 10.3,0 10.4,7.5 0.1,4.2 0.3,8.4 -3.7,11.3 -1.4,1 -0.9,2.2 -0.1,3.5 2.2,3.6 3.5,7.5 2.9,11.8 -0.2,1.5 0.3,2.4 1.8,3.2 9.6,5.2 13.4,14.9 17.8,23.9 1,1.6 0.1,4.6 0.1,7.2 z"
   class="st1" />
		<path
   id="path28642"
   d="m 134,252.6 c 2.8,-4.2 5.5,-8.4 7.2,-13.2 2.3,-6.7 0.4,-13.2 -2.4,-18.7 -2.4,-4.8 -1.5,-8.5 -0.2,-12.8 2.8,-8.7 14.8,-11.6 21.7,-5.3 6.2,5.7 6.9,12.6 3.8,20.2 -2.7,6.5 -4.5,12.9 -4.1,20 0.3,4.2 1.4,7.4 4.5,10.3 1.7,1.6 1.9,4.2 4,5.7 8.4,6 19.6,1.4 22.5,-9.2 1.9,-6.8 4.4,-13.7 10.6,-17.6 3.5,-2.2 7.8,-4.1 12.3,-3.7 6.9,0.5 11.9,-2.2 15.8,-8 1.7,-2.5 -0.2,-5.2 1.6,-7.4 1.9,0.2 1.1,2.6 2.8,3.1 2.7,-1 0.3,-2.9 0.2,-4.5 -0.1,-2.1 -1.5,-1.5 -2.6,-1.1 -1.9,0.7 -0.9,-0.8 -1.1,-1.3 -1.9,-4.6 -4.9,-7.1 -10.2,-8.3 -7.7,-1.8 -15,-5.2 -22.2,-8.4 -1.6,-0.7 -3.9,-2.3 -3.7,-4.7 0.2,-2.8 3,-3.1 5,-3.6 4.7,-1.3 8.5,1.2 11.4,4.2 5,5.2 10.5,9.1 17.7,10.3 5.3,0.8 8.8,4 11.1,8.5 3.5,6.8 6.2,14.1 3.6,21.8 -3.7,10.8 -11.5,18.7 -21.4,23.3 -6.8,3.1 -11.2,7.7 -15.9,13.1 -4,4.5 -9,8.7 -15.2,10.6 -5.2,1.6 -10.4,1.3 -15.5,-0.3 -10.2,-3.2 -16.6,-9.8 -20.2,-20 -2.1,-5.9 -2.4,-11.6 -2,-17.5 0.4,-5.3 4,-9.5 6.4,-14.1 3.5,-6.7 2.8,-17.6 -6.6,-19.8 -5.4,-1.3 -11.1,3.2 -11.8,8.7 -0.7,5.3 1.9,9.4 4.2,13.2 6,9.8 0.5,28 -6.3,35.4 -5.1,5.5 -11.3,8 -17.4,8.7 -7.4,0.9 -15.5,-0.2 -22,-5.4 C 94.2,260.5 89.4,255.7 85,250.3 82.3,247 78.7,244.2 74.5,242.2 64.1,237.4 56.6,229.5 52.8,218.5 50.3,211.1 57.5,199.6 65,197 c 9.7,-3.3 19.5,-4.8 29.6,-4.1 4.4,0.3 8.6,1.8 13.1,0.1 3.2,-1.2 5.5,-3.5 6.9,-6 1.8,-3.1 -0.6,-5.4 -3.6,-6.9 -6.8,-3.4 -13.1,-1.6 -19.3,1.4 -7.2,3.4 -14.1,7.3 -22,9.3 -11.4,2.9 -21.9,-1.5 -26.8,-11.9 -2.1,-4.6 -1.6,-9.5 -0.4,-14.4 1.1,-4.8 3.1,-9.3 5.4,-13.7 3.1,-5.9 3,-12.7 4.8,-19 3.3,-11.8 7.9,-22.9 19.9,-28.5 8.6,-4 17.2,-2.8 24.6,2.7 6.6,4.9 11.2,11.6 13.7,19.6 1.1,3.6 0.3,7.3 1.5,10.8 1.7,4.9 4.8,8.6 9.7,10 3.6,1 7.2,0.5 10.2,-2.8 2.9,-3.3 2.6,-6.8 0.7,-9.8 -2.2,-3.5 -5,-7 -9,-8.4 -5.8,-2 -9.8,-5.8 -13.2,-10.6 -11,-15.7 -8.5,-32.5 8.4,-42.4 8,-4.7 16.4,-7 25.7,-6.3 1.2,0.1 2.2,0.3 3.4,0.8 9.2,4 18.3,3.4 27.9,0.6 7.5,-2.2 14.6,1.2 21.2,5.1 8.7,5.2 11.1,13.6 11.9,22.7 0.4,5 -2.2,9.2 -4.2,13.6 -4.2,8.9 -11.8,13.9 -20.3,17.8 -4.2,2 -7.8,4.5 -9.5,9.2 -1.2,3.1 -2.5,6.3 0.4,9 3.2,3 6.8,4.5 11.3,2.9 3.7,-1.4 5.9,-3.8 7.1,-7.7 1.7,-5.7 2.6,-11.7 6.4,-16.5 6.8,-8.8 14.6,-16.2 26.3,-17.7 2.9,-0.4 5.6,0.4 8.5,1.5 13.4,5.3 19.4,16.2 22.8,29.1 0.6,2.3 0.3,4.8 0.1,7.2 -0.6,7 1.9,13 6,18.3 4.3,5.6 6.4,11.8 4.7,18.6 -0.9,3.8 -3.6,7.2 -6.4,9.8 -2.9,2.6 -5.9,5.5 -9.8,6.9 l 0.1,-0.1 c -0.8,0 -1.5,-0.1 -2.3,0.1 -1.1,0.2 -2.7,-0.8 -3.1,0.8 -0.3,1.4 1.3,1.7 2.3,2.2 0.5,0.2 1,0.7 1.3,1.2 0.9,1.8 4.6,2.2 3.8,3.5 -1,1.8 -4,0.5 -6,0.3 -3,-0.3 -6.2,-0.7 -8.1,-3.9 -1.1,-1.8 -2.9,-2.9 -5.1,-3.2 -9.1,-1.1 -16.2,-5.9 -22.2,-12.5 -4.9,-5.4 -10.5,-6.1 -17.4,-4.1 -3.6,1.1 -4.8,3.6 -5.5,6.1 -0.7,2.3 1.6,4.4 3.4,5.9 4.9,3.9 11.1,4.8 16.7,7.1 3.4,1.4 7,2.6 10.8,3.3 3.8,0.7 5.8,3.9 5.7,8.1 -0.1,4.7 -2.6,8.9 -6,10.5 -4.2,2 -8.9,1.6 -13.3,2.5 -2.3,0.5 -4.6,0.3 -6.6,1.9 -1.5,1.2 -3.2,0.1 -3.7,-1.4 -3.7,-11.1 -9.1,-21.8 -11.7,-33.3 -2.1,-9.5 8.6,-17.7 18.1,-15.5 7.9,1.8 14,5.6 19.9,10.9 6.8,6.1 17.7,3.5 23.2,-3.1 3.8,-4.5 0.6,-12.7 -5.7,-15.6 -6.3,-2.9 -9.2,-8 -9.8,-14.7 -0.4,-4.8 0.3,-9.4 2,-13.9 1.6,-4.2 0.7,-8.6 0.6,-12.9 -0.1,-2.9 -8.6,-7.8 -12.3,-8.4 -7.4,-1.2 -18.6,7.8 -21,15.5 -2.9,9.5 -9.2,15.5 -18.4,18.6 -6,2 -14.5,-7.1 -13.8,-13.3 0.9,-9.2 7.1,-13.7 13.9,-18 3.6,-2.2 7.3,-4.2 10.7,-6.7 7.9,-5.6 7.7,-19.5 -0.2,-25.2 -6.7,-4.8 -8.7,-4.7 -15.8,-0.4 -6,3.6 -12.3,7 -19.3,7.6 -5.8,0.5 -11.2,-2.6 -15.2,-6.8 -7.4,-7.8 -22,-6.4 -27.7,4.5 -2.7,5.1 -0.9,13.7 3.4,18.4 4.8,5.3 11,8.9 16.4,13.6 3,2.7 4.3,6.8 7.5,9.3 1,0.8 0.3,1.5 -0.2,2.3 -1.3,1.9 -3.3,3.8 -3.6,5.9 -0.6,5.1 -4,6.6 -8,8.2 -5.1,2 -9.5,0 -13.1,-2.7 -6.2,-4.6 -9.9,-11.1 -10.8,-19 -0.9,-8.4 -8.8,-13.8 -18.9,-12.8 -4.9,0.5 -10.2,7.5 -10,12.9 0.1,2 0.9,3.7 1.6,5.4 2.1,5 2.5,9.6 0.1,15.1 -2.8,6.5 -6.6,11.6 -12.4,15.4 -3.4,2.2 -6.3,4.8 -5.4,9.3 0.8,3.9 5.7,6.8 10.7,7 8.4,0.3 15.3,-4.5 22.7,-7.1 6.8,-2.3 12.9,-2.3 19.3,0.6 2.4,1.1 4.7,1.8 6.1,4.3 2.4,4.2 2.3,7.6 -1.8,10.4 -3,2 -6.1,3.8 -10.1,3.6 -8.4,-0.3 -16.9,-0.1 -25.3,-0.1 -6.3,0 -10.4,2.8 -11.8,7.9 -1.5,5.8 1.6,13.7 6.4,16.2 3.7,1.9 7.8,2.3 11.6,3.3 7.2,2 13.6,5.9 18.2,12.5 3,4.3 4.8,9.3 8.2,13.5 3.2,3.9 7.1,4.7 11.2,4.2 2.3,-0.2 4.7,-0.4 7,-0.9 0.4,1.2 -0.5,1.9 -1.2,2.7 1.9,0.5 2,-0.5 1.2,-1.7 z"
   class="st0" />
		<path
   id="path28644"
   d="m 137.4,125.3 c 3.4,-1.1 6.5,-2.1 9.7,-3.1 0,-0.2 0,-0.5 -0.1,-0.7 -1.7,0 -3.8,-0.7 -4.9,0.1 -5.8,4.1 -9.5,-0.3 -13.5,-3.2 -6.5,-4.7 -12.1,-10.1 -11,-19.2 0.4,-3.7 5.2,-8.8 9.4,-9.3 5.1,-0.6 10.2,-0.3 13.9,3.9 2.2,2.4 5,4 7.8,4.7 5.2,1.3 5.7,3.8 4.2,8.3 -1.7,5.4 -2.7,11 -4.1,16.5 -0.9,3.7 -7.9,5.3 -11.4,2 z"
   class="st0" />
		<path
   id="path28646"
   d="m 174.4,220.4 c -1.1,-0.4 -1.8,-0.2 -2.7,0.3 -1.6,0.9 -3,0.3 -3.4,-1.6 -0.4,-1.9 1.1,-1.5 2.2,-1.7 2.1,-0.4 2.8,-1 6.1,-4.2 6.2,4.8 12.4,9.6 18.6,14.5 0.9,0.7 1.6,1.1 0,2.6 -4.3,4.1 -6.8,9.3 -8.1,15.2 -0.6,2.6 -2.1,5 -3.4,7.4 -1.9,3.6 -7.8,4.5 -11.7,2.3 -9.1,-5.3 -11.4,-15.7 -7.4,-25.7 1.3,-3.4 2.2,-7.3 7.3,-7.1 0.7,-0.1 2.1,-0.5 2.5,-2 z"
   class="st0" />
		<path
   id="path28648"
   d="m 165.7,135.3 c -0.1,-4.8 -0.6,-8.9 -1.9,-12.8 -0.9,-2.8 -0.4,-4.1 2.8,-3.8 1.6,0.2 3.3,0 5.3,0 -1.4,-1.3 -2.3,-1.8 -4.3,-1.1 -3.2,1.1 -5.5,0.1 -5.7,-4.1 -0.2,-3.4 -1.2,-6.9 -2.3,-10.2 -0.7,-2.1 0.2,-2.9 1.7,-3.2 7.9,-1.5 14.4,-6.1 21.4,-9.5 2.7,-1.3 4.8,-0.9 6.8,0.9 8.8,7.7 9.8,17.1 -1.3,24.1 -2.8,1.8 -5.5,3.7 -8.6,5.1 -6.4,2.8 -9.8,8.5 -13.9,14.6 z"
   class="st0" />
		<path
   id="path28650"
   d="m 118.6,196.3 c -4.3,8.4 -8.5,16.7 -12.8,25 -1,1.9 -2.8,2 -4.6,0.9 -5,-3.2 -10.4,-5 -16.4,-4.9 -6.3,0.1 -9.6,-3.3 -9.7,-9.8 -0.1,-6.1 2.9,-9 9.6,-9.1 7.7,-0.1 15.3,-0.2 23,0 3.7,0.1 7.2,-0.4 10.9,-2.1 z"
   class="st0" />
		<path
   id="path28652"
   d="m 125.5,212.6 c -0.9,2.5 1,4 2.6,4.5 4.8,1.5 7.9,4.7 8.9,9.3 1,4.6 1.6,9.5 -0.6,13.9 -1,2 -0.2,4.1 -2,6.2 -5.5,6.3 -13.3,3.3 -16.6,-2 -3.6,-5.7 -6.1,-12.1 -9.7,-17.8 -0.7,-1.1 -1,-1.3 -0.1,-2 5.9,-4 11.7,-8 17.6,-12 z"
   class="st0" />
		<path
   id="path28654"
   d="m 216.8,155 c -4.7,1.5 -8,-0.9 -9.6,-6.2 -0.2,-0.8 -1,-1.5 -1.5,-2.1 -4.9,-6.1 -5,-6.2 -1,-13 1.8,-3 4.1,-5.2 7.4,-7.2 6.7,-4.2 11.3,-4.9 15.8,0.9 2.4,3.1 3.3,6.8 2.1,11 -1.1,4 -2.8,7.9 -2.9,12.3 -0.1,2.7 -1.4,4.8 -4.8,4.3 -1.6,-0.2 -3.1,0 -5.5,0 z"
   class="st0" />
		<path
   id="path28656"
   d="m 82.3,153 c 5,-6.5 2.4,-12.9 0.1,-19.3 -1.4,-4 0.3,-8.8 3.8,-11.1 2.7,-1.8 9.2,-1.7 11.8,0.5 2.9,2.4 5,5.3 5.3,9.3 0.2,2.1 0.6,4.5 1.8,6.2 3.1,4.2 1.6,7.7 -0.8,11.3 -0.4,0.6 -0.8,1.3 -0.9,1.9 -0.3,1.7 -0.1,4.2 -2.8,3 -2,-0.9 -1,-2.9 -0.4,-4.6 1,-3.2 1.5,-6.6 4.7,-10.2 -3,1 -4.3,1.9 -4.4,3.9 -0.2,3.3 -2.4,5.9 -2.9,9.1 -0.3,2 -3,1.2 -4.2,0.9 -3.6,-1 -7.1,-0.5 -11.1,-0.9 z"
   class="st0" />
		<path
   id="path28658"
   d="m 244.3,180.5 c 0,6 -6.1,9.6 -12.6,7.6 -3.2,-1 -6.2,-2.1 -8.6,-4.8 -5,-5.5 -12.2,-6.6 -19,-8.2 -1.6,-0.4 -2.1,-1.2 -2.4,-2 -0.5,-1.2 1,-1.3 1.7,-1.7 6.7,-3.5 13.4,-6.8 20,-10.5 2.4,-1.3 3.8,-0.1 4.4,1.4 1.9,5 5.5,7.9 10.3,10.1 3.6,1.4 7,3.5 6.2,8.1 z"
   class="st0" />
		<path
   id="path28660"
   d="m 238.5,106 c -5.6,-4 -11.6,-2.7 -18,-1.7 4.4,-8.8 7.2,-17.8 14.3,-24.6 -2.9,-0.1 -4.3,1.7 -5.7,3.2 -4.3,4.8 -9.6,8.2 -15.1,11.3 -1,0.6 -2,1.3 -2.3,-1.1 -0.5,-4.6 -1.6,-9.1 -2.8,-13.6 -0.5,-2 0.3,-2.2 1.7,-2.3 3.2,-0.2 6,0.9 8.7,2.5 1.8,1.1 3.4,1.2 4.8,-0.8 2.6,-3.6 7.1,-3.7 10.8,-5.2 1.7,-0.7 3.3,-0.1 4.2,2.5 2,5.6 -0.1,9.9 -3.5,13.5 -2,2.1 -1.3,3.3 -0.2,5 2.1,3.3 4.6,6.5 3.1,11.3 z"
   class="st0" />
		<path
   id="path28662"
   d="m 108.3,76.5 c -3.7,5 -6.6,10.2 -7.3,16.8 -6.6,-6.1 -13.2,-12.2 -19.8,-18.2 -0.4,0.2 -0.7,0.5 -1.1,0.7 5.2,7.2 8.7,15.3 12.2,23.9 -4.2,-2 -8.5,-1.6 -12.7,-1.7 -1.5,-0.1 -3.6,1 -4.5,-0.7 -0.9,-1.8 0.1,-4.4 1.2,-5.3 4.1,-3.2 4.2,-5.6 0.6,-9.4 -2,-2.1 -2.4,-5.5 -1.3,-9 1.3,-4.2 3.5,-4.1 6.6,-3.1 3.1,1 5.7,3.2 7.9,5.4 2.1,2.1 3.8,2.7 6.5,1.1 3.7,-2.3 7.6,-2.2 11.7,-0.5 z"
   class="st0" />
		<path
   id="path28664"
   d="m 149.6,294.3 c -2.4,0.2 -7.9,-5.3 -7.5,-8.2 0.6,-4.4 -1.7,-6 -5.3,-6.2 -2.1,-0.1 -3.6,-1.5 -5.1,-2.3 -3.7,-1.9 -3.4,-4.8 0.4,-6.9 3.5,-1.9 7,-3.7 9.8,-6.6 1.8,-1.8 4.5,0.1 4.5,3.6 0,4.5 0.6,8.9 1,13.3 0.2,2.3 0.6,4.6 1,6.9 0.1,0.7 0.6,1.4 1.4,1.3 0.7,-0.1 1.4,-0.8 1.2,-1.7 -1.7,-6.4 2.6,-12.1 2,-18.4 -0.2,-1.9 1.4,-3.2 3.1,-1.1 2.7,3.2 5.6,5.9 9.1,8.2 0.8,0.5 2.1,1.2 1.7,2.4 -0.4,1.1 -1.6,1.1 -2.7,1 -1,-0.1 -2.1,0.1 -3.2,0 -2.7,-0.3 -3.7,0.9 -3.7,3.6 0.1,4.8 -3,7.6 -6.7,10 -0.3,0.5 -0.6,0.8 -1,1.1 z"
   class="st0" />
		<path
   id="path28666"
   d="m 72.2,181.3 c -3.1,0.3 -6,-1.7 -6.8,-5.2 -0.7,-3.1 1.9,-5.2 4.7,-6.7 4.2,-2.4 7.4,-5.8 10.1,-9.8 0.4,-0.7 0.2,-2.5 1.9,-1.6 4.1,2.2 8.9,2.9 12.5,6 0.3,0.3 1.1,0.5 1.1,0.6 -1.2,3.8 -1.4,9.1 -4.1,10.9 -5.3,3.5 -11.8,5.5 -19.4,5.8 z"
   class="st0" />
		<path
   id="path28668"
   d="m 153.2,161.3 c -6.7,-0.1 -13.1,-5.2 -13,-10.5 0.1,-6 7.2,-13.2 12.8,-13 6.2,0.2 12.6,6.3 12.5,12 -0.1,5.6 -6.4,11.6 -12.3,11.5 z"
   class="st0" />
		<path
   id="path28670"
   d="m 252.4,197.5 c 3.1,-0.7 6.3,0.9 9.5,-1.4 1.8,-1.3 2.9,1.4 2.2,2.8 -1.5,3.3 0.8,4.4 2.9,5.7 4.3,2.9 6.7,6.8 7.2,12 0.2,1.9 -0.9,3.1 -2.2,3.1 -3.9,0 -8,1.8 -11.6,-1.2 -1.5,-1.2 -3.2,-1 -4.6,0.4 -0.6,0.6 -1,1.5 -1.6,2.1 -1.6,1.4 -3.6,3.3 -5.3,2.9 -1.9,-0.4 -1,-3.2 -0.9,-4.8 0.1,-2.5 -0.9,-4.6 -1.3,-6.9 -0.6,-3.3 0.4,-4.6 3.5,-3.7 5.4,1.6 10.7,3.4 16.1,5 0.9,0.3 2.2,1.9 2.9,0.1 0.5,-1.2 -1.1,-1.2 -1.8,-1.8 -4.1,-3.4 -8.9,-6 -12.6,-9.9 -1.3,-1.3 -2.3,-2.7 -2.2,-4.5 -0.1,0 -0.2,0.1 -0.2,0.1 z"
   class="st0" />
		<path
   id="path28672"
   d="m 48.5,215.3 c -1.6,-1.1 -3,-2.4 -3.7,-4.3 -2,-5.9 -6.7,-7.6 -12.3,-8.2 -2.5,-0.3 -6.5,0.2 -6.8,-2.5 -0.3,-2.7 3.6,-3.1 6.1,-3.8 4,-1.1 5.9,-4 6.9,-7.6 0.9,-3.4 1.7,-5.3 5.1,-1.8 2.2,2.3 5.1,3.9 7.9,6 -2.9,1.3 -5.1,3.2 -7.9,3.7 6.8,1.9 12.1,-6 18.9,-2.8 -8.6,3.9 -9.3,5 -14.2,21.3 z"
   class="st0" />
		<path
   id="path28674"
   d="m 153,183.9 c -7.6,0.1 -13.9,-5 -13.7,-10 0.2,-4.1 6.9,-10 11.7,-9.8 5.7,0.2 10.5,2.3 13.5,7.6 2.1,3.7 -0.5,10.3 -5,11.1 -2.5,0.4 -5.2,0.9 -6.5,1.1 z"
   class="st0" />
		<path
   id="path28676"
   d="m 194,224.2 c -9.5,-7.6 -18.4,-14.7 -27,-21.6 3.6,-3.4 10.3,-2.4 12.3,-8.4 1.3,0.7 3.3,-1.4 4.3,1.2 3.3,9.3 6.7,18.6 10.4,28.8 z"
   class="st0" />
		<path
   id="path28678"
   d="m 181.5,178.5 c -6.1,0 -10.4,-2.9 -10.5,-7.1 -0.1,-7 3.4,-11.9 8.4,-11.9 6.9,0 12.5,4.4 12.4,9.7 -0.1,5.8 -4,9.3 -10.3,9.3 z"
   class="st0" />
		<path
   id="path28680"
   d="m 148.3,136.1 c 2.9,-11.2 5.6,-21.9 8.6,-33.7 2.5,13.1 5.9,24.7 6.9,36.9 -4.8,-2.6 -9.3,-5.8 -15.5,-3.2 z"
   class="st0" />
		<path
   id="path28682"
   d="m 108.7,220.6 c 4.1,-7.8 8.2,-15.5 12.2,-23.3 1.3,-2.5 2.4,-2.6 3.9,-0.3 2,3 5.5,2.4 8.3,3.1 1.3,0.3 1.6,0.9 2.1,1.8 0.6,1.3 -0.5,1.4 -1.1,1.9 -8.2,5.8 -16.5,11.5 -24.7,17.3 -0.3,-0.2 -0.5,-0.3 -0.7,-0.5 z"
   class="st0" />
		<path
   id="path28684"
   d="m 196.3,172.3 c 0.4,-4.8 -1.2,-8 -4.4,-10.5 -0.8,-0.6 -1.1,-1.3 -1,-2.3 0.2,-1.1 1,-0.9 1.7,-0.9 10.1,0.7 20.2,-1.7 31.1,-0.7 -9.3,4.9 -18.1,9.5 -27.4,14.4 z"
   class="st0" />
		<path
   id="path28686"
   d="m 125,177.6 c -4.2,0 -9.1,-4.7 -9,-8.7 0.1,-4.8 6.7,-10.1 12.7,-10 2.7,0 7,5.7 7.1,9.2 0,5 -5.8,9.4 -10.8,9.5 z"
   class="st0" />
		<path
   id="path28688"
   d="m 146.6,193.5 c 0,3.2 -6,6.6 -10,5.7 -2.1,-0.5 -4.2,-1.2 -6.3,-1.8 -3.5,-0.9 -6.3,-6.1 -4.2,-8.8 2,-2.6 4.6,-5.3 8.8,-4.3 10.3,2.7 11.7,3.8 11.7,9.2 z"
   class="st0" />
		<path
   id="path28690"
   d="m 176.5,192 c -0.4,2.8 -0.6,5.2 -4.7,5.6 -3.4,0.3 -6.3,2 -10.1,0.9 -6.9,-2.1 -7.8,-4.4 -3.4,-10 2.4,-3.1 12.9,-4.7 16.3,-1.1 1.2,1.4 2,2.8 1.9,4.6 z"
   class="st0" />
		<path
   id="path28692"
   d="m 195,125.4 c -1.4,4.1 -2.7,8.2 -4.1,12.2 -1,2.8 -2.3,5.4 -4.8,7.2 -3,2.3 -5.6,0.7 -7.8,-1.2 -2.1,-1.8 -1.7,-3.7 -0.3,-6.1 2.6,-4.6 7.2,-6.8 11.2,-9.6 1.6,-1.2 2.9,-4.2 5.8,-2.5 z"
   class="st0" />
		<path
   id="path28694"
   d="m 114.9,125.1 c 5.5,3 11.4,4.5 14.7,10.4 1.6,2.8 1.6,4.7 -0.7,6.8 -2.6,2.3 -5.2,2.4 -7.9,0.2 -3.9,-3.1 -6,-7.2 -6.1,-12.2 0,-1.5 0,-3 0,-5.2 z"
   class="st0" />
		<path
   id="path28696"
   d="m 81.7,190 c 6.7,-2.9 11.9,-6.3 17.9,-8.1 4.1,-1.2 7.4,-0.7 10.5,2.1 0.7,0.7 1.9,1.3 0.8,2.6 -2.7,3.1 -6.2,5.2 -10.1,4.4 -6,-1.2 -12,-0.3 -19.1,-1 z"
   class="st0" />
		<path
   id="path28698"
   d="m 85.3,155.9 c 6.2,-0.2 11,1.7 16,1.7 5.1,-0.1 10,1.7 16.4,0.6 -3.2,3.4 -4.3,6.5 -5.3,9.7 -0.7,2.5 -2.1,0.6 -2.5,0.4 -7.9,-3.9 -15.7,-7.9 -24.6,-12.4 z"
   class="st0" />
		<path
   id="path28700"
   d="m 150.9,228.2 c -1.5,-3.1 -2.8,-6 -4.3,-8.8 -1.3,-2.4 -1.1,-5 -0.8,-7.4 0.2,-1.4 0.7,-3.3 2.7,-3.6 2.2,-0.3 4.4,0.1 5.7,1.8 4.2,5.4 2.6,13.7 -3.3,18 z"
   class="st0" />
		<path
   id="path28702"
   d="m 207.6,110.9 c 2.6,-8.6 7.2,-16.1 16,-19.8 -3.1,8.3 -8,15.4 -16,19.8 z"
   class="st0" />
		<path
   id="path28704"
   d="m 168.6,152.5 c 1.2,0.4 1.8,1.5 3.3,1.7 1.7,0.2 2.6,1.5 0.8,3.1 -3.1,2.7 -4.7,6.2 -4.7,10.6 -2.8,-1.1 -3.9,-3.7 -6.3,-4.6 -1,-0.4 -1.2,-1.2 0.4,-2.1 3.3,-2 4.8,-5.4 6.5,-8.7 z"
   class="st0" />
		<path
   id="path28706"
   d="m 187.1,155.9 c 3.3,-2 6.2,-0.4 9,-1.1 -0.6,-0.5 -1.3,-0.9 -1.5,-1.4 -0.6,-1.2 -1.8,-2.6 0.3,-3.6 1.8,-0.9 2.2,0.6 2.8,1.7 0.9,1.8 1.2,4.6 4.4,3.3 0,-2.5 -1.7,-4.1 -3.1,-5.9 -0.6,-0.8 -1.9,-2.2 -0.1,-3.4 1.6,-1.1 2.3,0.8 3.5,1 0.1,0 0.1,0.5 0.2,0.8 1.1,2.6 4.8,4.9 3.3,7.7 -1.4,2.5 -5.1,0.7 -7.8,0.9 -3.3,0.2 -6.8,0 -11,0 z"
   class="st0" />
		<path
   id="path28708"
   d="m 167.4,181.7 c 0.6,-3.1 2,-4.8 4.9,-2.1 3.2,3 6.8,1.1 10.2,1.7 0.8,0.1 2.1,-0.3 2,1 -0.2,2.2 -1.4,4.1 -2.8,5.8 -0.6,0.8 -1.3,0.2 -1.9,-0.3 -6.6,-5.3 -6.6,-5.3 -12.4,-6.1 z"
   class="st0" />
		<path
   id="path28710"
   d="m 143.7,161.3 c -1,1.4 -2.2,3.1 -4.3,6 0.8,-7.1 -5.6,-7.8 -7,-12 2.8,-1.6 5,-2.8 6.8,1.5 0.8,2 2.9,4 4.5,4.5 z"
   class="st0" />
		<path
   id="path28712"
   d="m 91.6,89.3 c 3.6,4.6 11.4,6.5 9.5,14.9 -5.8,-3.4 -6.3,-10 -9.5,-14.9 z"
   class="st0" />
		<path
   id="path28714"
   d="m 149.3,268.9 c -0.9,-3.9 -2.2,-7.6 -1.9,-11.6 0.1,-1.1 0.2,-2.4 1.3,-2.6 0.6,-0.1 1.6,1.2 2,1.8 0.8,1.2 1.7,3.5 1.2,4.4 -1.6,2.6 -1.5,5.4 -2.6,8 z"
   class="st0" />
		<path
   id="path28716"
   d="m 101.3,167.8 c -1.7,1.8 0.5,5.8 -3.6,6.1 -1.6,0.1 -2.9,-0.7 -2.6,-2.3 0.5,-2.4 1.1,-5 3.5,-6.1 0.7,-0.3 2.6,0.6 2.7,2.3 z"
   class="st0" />
		<path
   id="path28718"
   d="m 104.8,155.1 c 1.1,-3.5 1.9,-6.5 3.9,-9 4.2,2.2 1.5,5 0.7,7.5 -0.8,2.8 -2.8,0.7 -4.6,1.5 z"
   class="st0" />
		<path
   id="path28720"
   d="m 154.4,197.4 c -2.3,0 -3.5,0 -5.2,0 2,-3.5 0.7,-6.5 -0.5,-9.7 1.7,0 3.3,0 5.3,0 -1.3,3.2 -3.6,6.3 0.4,9.7 z"
   class="st0" />
		<path
   id="path28722"
   d="m 135.7,179.5 c 0,0.8 0,1.7 -1,1.6 -2.7,-0.1 -5.1,0.5 -7.5,1.7 -1,0.5 -1.7,-0.4 -2.1,-1.2 -0.6,-1.4 0.5,-1.3 1.4,-1.4 2.4,-0.4 4.7,-1.3 6.9,-2.4 1.5,-0.8 2.5,-0.2 2.3,1.7 z"
   class="st0" />
		<path
   id="path28724"
   d="m 145.2,136.5 c -0.3,-3.2 -4.5,-3.9 -3,-6.8 0.5,-1 3.8,-3.1 4.7,-1.6 1.3,2.3 -0.6,5.1 -1.7,8.4 z"
   class="st0" />
		<path
   id="path28726"
   d="m 125.6,212.7 c 1.1,-1.6 3,-3.1 4.6,-2.6 2.6,0.9 3.6,3.4 2.4,6.4 -2.8,-0.8 -3.8,-4.6 -7.1,-4 0,0.1 0.1,0.2 0.1,0.2 z"
   class="st0" />
		<path
   id="path28728"
   d="m 111.3,172.7 c -2.9,1.2 -4.9,-0.8 -7.3,-0.5 -1.3,0.2 -2.1,-0.4 -1.7,-1.8 0.3,-1.1 0.9,-2.4 2.4,-1.5 2.1,1.2 4.6,1.6 6.6,3.8 z"
   class="st0" />
		<path
   id="path28730"
   d="m 174.5,211.7 c -1.4,1 -2.8,2.3 -4.4,2.8 -1.3,0.4 -0.7,-1.7 -1.7,-2.1 1.1,-1.3 2.5,-2 4.1,-2.2 1,-0.1 1.5,0.5 2,1.5 z"
   class="st0" />
		<path
   id="path28732"
   d="m 117.4,155.5 c -1.8,0 -3.8,1.4 -5.1,-0.6 -0.5,-0.8 -0.4,-2.9 0.8,-3 2.2,-0.2 2.7,2.4 4.3,3.6 z"
   class="st0" />
		<path
   id="path28734"
   d="m 167,205.6 c 1.6,0.6 2.3,1.3 2.8,2.3 -0.5,0.1 -1,0.5 -1.4,0.4 -1.9,-0.3 -0.5,-1.6 -1.4,-2.7 z"
   class="st0" />
		<path
   id="path28736"
   d="M 128.4,258.5 C 117.7,261.9 109.3,253.1 106,246 101.1,235.2 93.2,229.3 81.5,228.3 76.8,227.9 71.2,222.6 70,217 c 3.2,3 5.6,6 9.3,7.6 3,1.3 6.2,1.9 9.2,2.5 6.9,1.4 11.2,5.7 15.8,10.4 3.8,3.8 4,9.4 8,12.6 3.6,3 7,6.8 12.5,6.2 1.6,-0.2 3.4,-0.2 3.6,2.2 z"
   class="st1" />
		<path
   id="path28738"
   d="m 112.1,91.3 c 2.3,-8.3 14.3,-11 19.4,-11.1 8,-0.1 13.9,4.1 20.2,7.4 6.2,3.2 11.4,1.5 17,-0.6 3.8,-1.4 7.1,-3.9 11.1,-4.7 3.2,-0.7 6.2,-1.3 9.1,1.1 -7.7,-1.9 -13.3,2.9 -19.4,5.8 -8.3,4 -16.2,2.9 -23.7,-1.6 -5.4,-3.2 -11,-4.6 -17.2,-4.2 -4.7,0.3 -8.9,0.7 -11.9,4.9 -0.8,1.2 -2.6,1.7 -4.6,3 z"
   class="st1" />
		<path
   id="path28740"
   d="m 179.1,264.6 c 10.5,-2.9 14.5,-11.2 18.2,-20 3.6,-8.5 10.8,-12.2 19.5,-13.7 6.1,-1.1 11.8,-3.1 14.6,-9.3 0.6,-1.3 1.5,-1.6 2.5,-2.1 1.1,5.3 -3.8,9 -9.3,11.5 -4.9,2.3 -10.2,2.9 -15.2,5.1 -5.1,2.3 -8.7,6.2 -10.1,11 -2.4,8.5 -8.3,13.4 -15,17.9 -1.4,0.9 -3.4,0.4 -5.2,-0.4 z"
   class="st1" />
		<path
   id="path28742"
   d="m 252.4,182 c 0.1,-5.1 -1.4,-9.4 -5.7,-12.4 -4.2,-2.9 -8.4,-6.1 -10.1,-10.7 -1.4,-3.8 -2.3,-8.3 -1,-12.7 1.2,-3.9 0.8,-8 2.2,-12 1.6,-4.7 -3.2,-12.6 -8.4,-15.9 3.1,-0.1 5.6,0.5 6.6,2.7 1.5,3.3 4.4,6.2 3.9,10.4 -0.6,5 0.3,9.9 -1.7,14.9 -2.3,6.1 2.5,16.5 8.6,20.5 6.3,4.1 7.9,9.7 5.6,15.2 z"
   class="st1" />
		<path
   id="path28744"
   d="m 76.5,122.3 c 1,2.4 0,3.8 -0.7,5.2 -1.3,2.7 -1.5,5.5 -0.6,8.4 3.7,11.7 0.6,20.1 -8.9,27.7 -4.2,3.3 -9.2,7 -6.6,14 0.3,0.8 0.2,1.8 -1.2,1.9 -1.3,0.1 -1.3,-0.7 -1.5,-1.6 -1.5,-7.1 1.3,-11.6 5.8,-14.4 12.1,-7.7 11.2,-13 9.9,-25.7 -0.5,-5.7 -0.5,-10.9 3.8,-15.5 z"
   class="st1" />
		<path
   id="path28746"
   d="m 166.4,262.1 c 3.6,-1.3 5.6,2.1 8.5,1.6 0.1,0 0.5,0.9 0.6,1.5 0.1,1 -0.6,1.1 -1.4,1.2 -3.4,0 -5.3,-2.1 -7.7,-4.3 z"
   class="st1" />
		<path
   id="path28748"
   d="m 202.2,203.9 c -1,5.3 -5.6,5.4 -9.3,6.8 3.3,-2 6.3,-4.5 9.3,-6.8 z"
   class="st1" />
		<path
   id="path28750"
   d="m 68.8,205 c 0,2 0,3.9 0,5.7 0,1 -0.7,1.9 -1.4,1.9 -0.7,0 -1.3,-1 -1.3,-2 -0.1,-2.3 -0.4,-4.6 2.7,-5.6 z"
   class="st1" />
		<path
   id="path28752"
   d="m 200,198.5 c -1.3,4.4 -5.8,4.7 -8.7,7.7 1.4,-3 5,-6.1 8.7,-7.7 z"
   class="st1" />
		<path
   id="path28754"
   d="m 134,252.6 c 0.8,0.4 2.6,-0.6 2.4,1 -0.2,1.9 -2.2,2.5 -3.7,3.3 -0.8,0.4 -1.9,0.7 -2.3,-0.3 -0.4,-0.8 -0.6,-2.2 1.1,-2.2 1.4,0 2.1,-1 2.6,-2.1 0.1,0.1 -0.1,0.3 -0.1,0.3 z"
   class="st1" />
		<path
   id="path28756"
   d="m 193.9,86.4 c 2.3,-0.9 3,1 4.2,2 1,0.9 1.7,2.3 0.4,2.9 -1.7,0.8 -0.8,-1.3 -1.4,-1.9 -1,-0.9 -2.6,-1.2 -3.2,-3 z"
   class="st1" />
		<path
   id="path28758"
   d="m 110.9,94.6 c 0.4,2.5 1,4.3 -0.8,5.8 -1.8,-1.8 -1.7,-3.5 0.8,-5.8 z"
   class="st1" />
		<path
   id="path28760"
   d="m 250.7,185.8 c -0.2,2.7 -1.7,4.3 -4.3,5.6 0.2,-3.2 3.7,-3.2 4.3,-5.6 z"
   class="st1" />
		<path
   id="path28762"
   d="m 226.9,117.3 c -3,-0.7 -4.8,-1.1 -6.7,-1.6 2,-0.4 4.1,-1.3 6.7,1.6 z"
   class="st1" />
		<path
   id="path28764"
   d="m 137.1,109.9 c 2.3,0 4.7,0 7,0 0,0.1 0,0.3 0,0.4 -2.3,0 -4.5,0 -6.8,0 -0.1,-0.1 -0.1,-0.3 -0.2,-0.4 z"
   class="st1" />
		<path
   id="path28766"
   d="m 149,118.1 c -2.6,-0.6 -4.1,-0.9 -6.4,-1.4 2.5,-0.9 4.1,-1.1 6.4,1.4 z"
   class="st1" />
		<path
   id="path28768"
   d="m 138.7,116.1 c -1,1.1 -2.3,1.1 -4.4,0.2 2.1,-0.1 3.3,-0.2 4.4,-0.2 z"
   class="st1" />
		<path
   id="path28770"
   d="m 177.6,227.5 c -3.4,1 -5.9,1.2 -8,2.4 -0.7,0.4 -1.9,0.6 -2.1,-0.7 -0.1,-1.1 1,-1.1 1.6,-0.9 2.6,0.8 4.5,-2.9 8.5,-0.8 z"
   class="st1" />
		<path
   id="path28772"
   d="m 180.2,113.2 c -4.1,-0.7 -6.6,-1.9 -9.5,-2.1 2.9,0 6.1,-1.8 9.5,2.1 z"
   class="st1" />
		<path
   id="path28774"
   d="m 173.1,118.3 c 1.7,-0.2 3.7,-1.3 4.9,1.1 -2,0.9 -3.2,-1 -4.9,-1.1 z"
   class="st1" />
		<path
   id="path28776"
   d="m 166.1,123.7 c 1.8,-0.4 3.6,-0.7 5.7,0.1 -2.1,0.6 -3.9,0.5 -5.7,-0.1 z"
   class="st1" />
		<path
   id="path28778"
   d="m 102.1,205.8 c -2.4,-1.1 -4.6,-2.3 -3.9,-6.4 1.6,2.6 3.8,3.9 3.8,6.6 z"
   class="st1" />
		<path
   id="path28780"
   d="m 108.5,203.8 c -1.9,-1.1 -2.8,-2.5 -3.4,-5.1 1.8,1.8 3.2,2.9 3.4,5.1 z"
   class="st1" />
		<path
   id="path28782"
   d="m 101.9,205.9 c 2.6,-1.2 1.9,1.3 3.3,2.3 -2.6,0.2 -1.9,-2 -3.1,-2.4 0,0 -0.2,0.1 -0.2,0.1 z"
   class="st1" />
		<path
   id="path28784"
   d="m 123.7,219 c 2.3,4.1 7.2,3.1 10.8,5.4 -4.8,1.7 -7.4,0.5 -10.8,-5.4 z"
   class="st1" />
		<path
   id="path28786"
   d="m 127.8,231.3 c -4.3,-1.2 -7.1,-3.1 -9.6,-6.9 2.4,0.8 3.9,1.2 4.9,3.2 0.8,1.5 3.2,1.2 4.7,3.7 z"
   class="st1" />
		<path
   id="path28788"
   d="m 205.8,140.9 c 4.2,-0.4 6.2,2.3 6.5,7.7 -2.6,-2.2 -2.5,-6.2 -6.5,-7.7 z"
   class="st1" />
		<path
   id="path28790"
   d="m 97.1,138.8 c -0.8,3.5 -1.5,7 -4.1,9.7 -0.2,-3.9 2.7,-6.6 4.1,-9.7 z"
   class="st1" />
		<path
   id="path28792"
   d="m 220.2,168.4 c 3.6,1.9 4.3,5.3 2.6,10.4 -0.2,-3.8 -0.6,-6.8 -2.6,-10.4 z"
   class="st1" />
		<path
   id="path28794"
   d="m 214.6,168.7 c 1.8,3.2 3.1,5.6 3.4,8.9 -3.2,-2.1 -3.6,-4.9 -3.4,-8.9 z"
   class="st1" />
		<path
   id="path28796"
   d="m 209.3,170.4 c 0.4,0.6 0.7,1.1 0.9,1.5 0.5,1.1 1.6,2 1.3,3.4 0,0.2 -0.9,0.5 -1.1,0.3 -1.6,-0.8 -1.5,-2.3 -1.4,-3.8 0,-0.3 0.1,-0.7 0.3,-1.4 z"
   class="st1" />
		<path
   id="path28798"
   d="m 88.6,174.5 c -3.8,-3.2 -3.6,-4.9 1.5,-9.1 -1.9,3.4 -3.5,6 -1.5,9.1 z"
   class="st1" />
		<path
   id="path28800"
   d="m 155.5,144.4 c 3.9,1.4 5.1,3.5 4.3,5.6 -1.1,2.7 -2.1,6 -5.6,6.7 -1.5,0.3 -2.6,-1.2 -3,-2.3 -0.7,-2.2 1.1,-3 2.5,-4 1.3,0.9 0.1,1.3 -0.2,1.6 -1.1,1 -0.8,2 0.3,2.5 1.3,0.6 0.9,-1 1.4,-1.5 2.4,-2.2 3.2,-4.8 0.3,-8.6 z"
   class="st1" />
		<path
   id="path28802"
   d="m 41.6,197.9 c -4.5,0.8 -7.2,3.1 -10.8,1.9 3.1,-1.8 6.1,-2.8 10.8,-1.9 z"
   class="st1" />
		<path
   id="path28804"
   d="m 152.8,180.2 c -0.9,0 -1.9,0.1 -2.7,0 -0.9,-0.2 -1.8,-0.9 -1.6,-1.8 0.2,-1.2 1.5,-1 2.1,-0.6 1.5,1 2.8,1.1 3.8,-0.5 1.1,-1.6 1.9,-4.8 3.2,-0.1 0.3,0.9 1.3,0.3 1.8,-0.3 0.8,-0.9 2.5,-1.6 0.9,-3.2 -0.6,-0.6 -1.7,-1.2 -0.7,-2.1 0.9,-0.8 1.9,-0.3 2.8,0.5 1.1,1 1.8,2.1 1.3,3.5 -0.5,1.8 -2,3.5 -3.6,3.6 -2.5,0.1 -4.8,1.7 -7.3,1 z"
   class="st1" />
		<path
   id="path28806"
   d="m 181.7,169 c 1.5,-0.3 1.6,1.4 2.7,0.8 0.4,-1.8 0.1,-3.6 -1.2,-6 3.4,0.6 4.3,2.8 4.8,4.8 0.5,1.9 -0.6,3.3 -2.3,4.6 -2.9,2.3 -5.7,3.2 -9.9,1.3 3.2,-1.3 7.9,-0.5 5.9,-5.5 z"
   class="st1" />
		<path
   id="path28808"
   d="m 120.4,170.9 c 3.5,1.5 5.6,-4.1 8.3,0.5 1.2,-1.8 -0.3,-2.5 -0.6,-3.5 -0.4,-1.1 -1.3,-2.4 0.3,-2.8 0.7,-0.2 2.6,0.2 2.8,2 0.3,2.6 1.9,5.4 -2.1,6.9 -3.2,1.3 -5.9,1.6 -8.7,-3.1 z"
   class="st1" />
		<path
   id="path28810"
   d="m 130.1,195.2 c 2.8,-1 6.1,2 7.1,-2.2 0,0 0.6,0 0.8,0.1 1.1,0.5 1.8,2.8 3.6,0.8 1.7,-2 -2.1,-2.4 -1,-4.4 1.8,0.2 3.8,0.5 4.2,3 0.4,3.1 -1.9,2.7 -4,3.3 -3.6,1.1 -6.9,1.1 -10.7,-0.6 z"
   class="st1" />
		<path
   id="path28812"
   d="m 161.5,194.7 c 3.6,1.5 7.2,0.3 10.7,0.2 -3.5,2.3 -7,4.3 -10.7,-0.2 z"
   class="st1" />
		<path
   id="path28814"
   d="m 172.9,191.5 c -0.2,1.2 0.2,2.6 -1.2,2.2 -1.8,-0.5 -1.9,-2.8 -3.1,-4 -0.2,-0.2 0.9,-1.3 1.9,-1.2 2.2,0.2 1.5,2.3 2.4,3 z"
   class="st1" />
	</g>
</g>
</svg>
