<?xml version="1.0" encoding="UTF-8" standalone="no"?>
<svg
   xmlns:dc="http://purl.org/dc/elements/1.1/"
   xmlns:cc="http://creativecommons.org/ns#"
   xmlns:rdf="http://www.w3.org/1999/02/22-rdf-syntax-ns#"
   xmlns:svg="http://www.w3.org/2000/svg"
   xmlns="http://www.w3.org/2000/svg"
   xmlns:sodipodi="http://sodipodi.sourceforge.net/DTD/sodipodi-0.dtd"
   xmlns:inkscape="http://www.inkscape.org/namespaces/inkscape"
   inkscape:version="1.0 (4035a4f, 2020-05-01)"
   height="310.0412"
   width="234.60791"
   sodipodi:docname="stag-statant.svg"
   xml:space="preserve"
   viewBox="0 0 234.60791 310.0412"
   y="0px"
   x="0px"
   id="Layer_1"
   version="1.1"><metadata
   id="metadata31045"><rdf:RDF><cc:Work
       rdf:about=""><dc:format>image/svg+xml</dc:format><dc:type
         rdf:resource="http://purl.org/dc/dcmitype/StillImage" /><dc:title></dc:title></cc:Work></rdf:RDF></metadata><defs
   id="defs31043" /><sodipodi:namedview
   inkscape:current-layer="Layer_1"
   inkscape:window-maximized="0"
   inkscape:window-y="25"
   inkscape:window-x="0"
   inkscape:cy="173.7404"
   inkscape:cx="124.2"
   inkscape:zoom="2.52"
   fit-margin-bottom="0"
   fit-margin-right="0"
   fit-margin-left="0"
   fit-margin-top="0"
   showgrid="false"
   id="namedview31041"
   inkscape:window-height="480"
   inkscape:window-width="820"
   inkscape:pageshadow="2"
   inkscape:pageopacity="0"
   guidetolerance="10"
   gridtolerance="10"
   objecttolerance="10"
   borderopacity="1"
   bordercolor="#666666"
   pagecolor="#ffffff" />
<style
   id="style30884"
   type="text/css">
  .st0{fill:#FFFFFF;}
  .st1{fill:#000000;}
</style>
<g
   transform="translate(-25.8,-26.259599)"
   id="g31038">
	<g
   id="g31036">
		<path
   id="path30886"
   d="m 47.6,326.4 c -2.9,1.6 -5,4.3 -8.2,5.5 -2.8,1 -5.3,2 -7.6,-1 -1.5,-1.9 -3.8,-0.3 -6,-1.1 3.1,-4.5 7.9,-7 12.3,-9.8 7.8,-5 12.7,-10.8 13.7,-21 0.8,-8.4 1.7,-17.1 3.6,-25.5 0.8,-3.6 0.8,-7.2 1.1,-10.8 0.6,-8.2 2.3,-16.4 1,-24.5 -0.9,-5.6 -1.9,-11.4 -6.2,-16 -5.6,-5.9 -5,-13.1 -3,-20.3 0.4,-1.3 0.4,-2.6 0.5,-3.9 0.1,-2.5 -0.1,-4.6 -3.2,-1.8 -0.3,0.3 -1.2,1.3 -2.2,0.5 -0.9,-0.8 -1,-1.7 -0.6,-2.7 2.6,-5.6 0.2,-10.3 -2.3,-15.2 -0.7,-1.4 -1.6,-3 -1.4,-4.4 0.7,-4.4 -1.6,-5.3 -5.4,-4.6 0.3,-2.6 2.2,-4.1 3.5,-5.5 3.7,-3.9 3.1,-9.5 6,-13.6 1,-1.4 -2.4,-2.5 -1.5,-4.6 1,-2.4 2,-4.8 4,-6.5 0.8,-0.6 1.7,-1.3 0.3,-2.3 -2.9,-2 -1.1,-2.7 0.9,-4 2.5,-1.7 4.8,-3.9 6.8,-6.2 5.8,-6.7 12.7,-11.7 20.9,-15 1.3,-0.5 2.5,-1.5 3.5,-2.4 1.3,-1.1 1.1,-2.8 -0.2,-3.3 -6.5,-2.2 -12,-7.4 -19.6,-6.7 -2.2,0.2 -4.3,0.7 -6.4,1.1 -6.4,1 -11.1,-1.7 -15.5,-5.8 -2.8,-2.7 -2.4,-6.5 1.1,-8.5 6.7,-3.9 14.3,-4.9 21.7,-6 8.9,-1.4 17.5,-3.7 26.1,-6.3 2.6,-0.8 1.6,-2.4 0.9,-3.7 -3.4,-6 -3.6,-12.3 -2.1,-18.8 0.6,-2.5 1.7,-4.9 3.8,-6.6 3.8,-3.2 6.2,-7.2 6.8,-12.1 0.3,-1.9 1.4,-2.4 3.1,-2.3 1.6,0.1 2.1,1.1 2.3,2.6 0.5,3.8 -0.7,7.2 -2.2,10.4 -1.9,4 -2.8,8.3 -4.5,12.4 -1.1,2.8 0.7,4.6 1.9,6.1 0.8,1.1 2.1,-1.4 3.2,-2.2 0.8,-0.5 1.7,-1.6 2.5,-1.5 7.2,0.7 8.3,-6.3 11.9,-9.8 2.7,-2.6 5.3,-5.4 7.8,-8.2 1.8,-2 2.7,-0.8 3.2,1.1 1.1,4.2 -1.8,6.4 -4.2,9.1 4,-1.5 7.6,-3.2 9.5,-7.5 2.8,-6.5 7.5,-11.1 14.1,-13.8 0.6,-0.3 1.4,-0.5 2,-0.5 1.5,0 3.6,-0.6 4.1,1.5 0.3,1.5 -1.3,2.4 -2.7,3 -4.4,1.8 -6.5,6 -9.5,9.4 -1.6,1.7 0.3,2.4 1.6,2.1 9.5,-2.6 20.1,-2 27.4,-10.6 2.2,-2.6 5.1,-4.7 7.8,-7 1.8,-1.5 3.7,-1.3 5.5,0.1 2.3,1.8 -0.4,2.8 -0.9,3.8 -0.9,1.9 -2.8,3.2 -4.6,5.1 4.8,1.8 8.3,1.8 12.4,-1.6 5.7,-4.6 13.2,-5.9 20.4,-6.5 4.1,-0.4 8.3,0 12.4,-0.1 2.3,0 5.1,0.3 5.4,2.5 0.4,2.6 -2.8,3.1 -4.7,3.5 -7.5,1.7 -15.1,3.1 -22.6,4.7 -1.1,0.2 -2.1,0.7 -3.4,1.2 1.9,2.2 4.7,2.7 7,4.1 1.1,0.7 2,1.3 1.8,2.6 -0.2,1.4 -1.2,1.9 -2.5,1.9 -2.1,-0.1 -4.6,0.6 -6.1,-0.4 -6,-3.8 -12,-1 -18,-0.9 -7.7,0.2 -15.1,2.5 -22.7,2.9 -9.5,0.5 -18.2,3.3 -26.9,6.4 -3.4,1.2 -6.9,2.6 -9.9,5 -0.2,0.2 -0.6,0.1 -0.8,0.3 -2.7,1.8 -5.6,4.8 -4.6,7.5 0.9,2.4 4.8,2 8,1.7 8.4,-0.8 16.7,-3.1 25.2,-2 8.4,1 15.2,-1.1 20.1,-8.3 0.5,-0.7 1.1,-1.4 1.9,-1.8 1.7,-1 3.6,-2.7 5.5,-0.8 1.6,1.6 1.1,3.6 -0.3,5.5 -1.1,1.6 -2.7,3 -2.9,5.4 6.1,0 11.7,-2.4 17.2,-4.6 8.2,-3.3 15.7,-7.8 21.6,-14.6 1,-1.2 2.4,-2.1 3.8,-2.8 1.4,-0.7 2.7,-0.3 3.9,1 1.1,1.2 1.1,2.4 0.7,3.6 -0.3,0.9 -1.1,1.7 -1.5,2.6 -0.7,1.4 -2.9,2.7 -2,4.1 0.9,1.4 3.2,2 5,1.7 5,-0.9 10.3,-0.7 15,-3.3 2.3,-1.3 5.5,-2.6 7,0.1 1.8,3.1 -1.9,5.1 -3.8,5.7 -6.3,2.1 -12.5,5.5 -19.4,4.5 -3.6,-0.5 -6.9,-2.5 -10.8,-0.8 -6.6,2.9 -13.4,5.5 -20,8.3 -0.4,0.2 -1,1.1 -0.8,1.3 0.5,0.7 1.2,1.1 2.2,1.1 4.4,-0.1 8.8,0 13.3,0 2.5,0 5,0.2 7.5,0 2,-0.2 3.5,0.9 3.9,2.2 0.5,1.8 -1.5,2.4 -2.8,3.3 -2.2,1.6 -4.8,0.6 -7.2,1.2 -8.8,2.4 -17.7,1.3 -26.3,-1.5 -0.9,-0.3 -1.8,-0.9 -2.6,-1.5 -5.4,-4.1 -10.5,-4.1 -15.8,0.3 -5.2,4.3 -10.9,6.1 -17.5,3.9 -0.5,-0.2 -1.5,-0.2 -1.6,-0.4 -0.8,-8 -7,-4 -10.9,-4.9 -0.7,-0.2 -1.4,0 -3.2,0 6.4,3.4 11.5,7 17.7,8.8 1.3,0.4 3,0.4 3.2,2.2 0.2,1.7 -1.3,2.5 -2.6,3.2 -7.6,3.9 -15.7,5.4 -24.1,5.2 -3.4,-0.1 -4.7,0.8 -4.3,4.3 1.2,10.1 -5.5,17.1 -10,24.9 -5.5,9.2 -13.5,16.8 -17,27.2 -1.3,3.9 0.9,6.5 3.2,9 2.2,2.3 4.5,0.7 6.7,-0.3 10.7,-4.5 21.8,-5.5 33.4,-4.3 7.7,0.8 15.6,2.8 23.4,0.3 0.5,-0.2 1.2,-0.1 1.8,0 15.9,0.6 31.7,-1.8 47.6,-0.8 9.6,0.6 19.4,0.6 28.7,3.6 7,2.2 12.3,6.6 15,14.2 1.4,4 3.1,7.9 4.2,12 1,4 2.8,7.1 7.6,7.5 2.9,0.3 2.7,2.5 1.4,4.6 -2.2,3.6 -5.8,4.6 -9.5,4 -3.8,-0.5 -7.6,-1.4 -10.5,-4.3 -1.9,-1.9 -3,-1.5 -3.7,1 -1.7,6.2 -1.5,12.8 -4.6,18.6 -0.3,0.6 0,1.8 0.4,2.5 4.8,7.8 7.9,16.4 12.3,24.2 4.9,8.7 2.4,17.1 2.6,25.7 0.2,8.1 -1.9,16.1 -0.6,24.3 0.8,5.3 2.3,11.4 -3.5,16.2 -2.8,2.3 -2.6,7.3 -5,10.6 -2.4,3.2 -5.8,4.6 -9.3,5.9 -1,0.3 -2.8,1 -3.3,-1.5 -0.4,-2 -2.7,-0.6 -4.1,-1 -0.9,-0.2 -2.2,0.6 -2.7,-0.7 -0.3,-1.1 -0.4,-2.3 0.7,-3.2 3.1,-2.7 5.3,-6.4 9.1,-8.1 4.1,-1.9 6,-5.5 5.9,-9.3 -0.5,-12.3 2.6,-24.4 2,-36.7 -0.4,-7 -2.7,-13.1 -7.6,-18.1 -7.9,-8.1 -16.9,-15.1 -24.9,-24.3 -0.1,7.1 -2.8,13.1 0.3,19.6 1.9,3.9 -0.4,7.9 -2.4,11.4 -4.5,7.7 -7.6,16.1 -11.4,24.1 -4.1,8.8 -8.2,17.5 -12.4,26.2 -0.4,0.9 -1.4,2.2 -2,2.1 -5.1,-0.5 -7.5,3.2 -9.9,6.6 -3.1,4.5 -8,4 -12.3,5.1 -5.1,1.4 -10.4,0.9 -15.7,0.9 -0.9,0 -2.2,0.7 -2.5,-1 -0.2,-1.2 0.5,-2 1.4,-2.5 5.6,-2.8 11,-6 16.9,-8.1 6.9,-2.5 11.6,-6.4 14.3,-13.4 4.3,-11.1 10.1,-21.6 13.6,-33 1.9,-6.1 3.4,-12.1 3.4,-18.5 0,-7.7 -2.6,-14.3 -8.1,-19.7 -3.6,-3.5 -7.1,-7.1 -10.6,-10.6 -4.3,-4.3 -7.8,-4.6 -13.6,-2.8 -14.1,4.4 -26.8,12.3 -40.8,16.8 -5.3,1.7 -10.8,3 -16.5,2.5 -2.4,-0.2 -2.8,0.6 -3.3,3 -1.7,6.6 -3.8,13.2 -4.6,19.7 -1.3,10 -4.5,19.5 -6,29.4 -1.6,10.9 -2.5,21.9 -5.2,32.7 -0.5,2 -2.4,2.7 -4,2.7 -2.7,-0.1 -3.4,1.8 -3.8,3.4 -2.3,9.5 -14.3,15.1 -23.7,11.7 -2.3,-0.8 -1.1,-2.1 -0.1,-3.2 1.6,-1.8 3.9,-3.1 4,-5.9 3.6,-3.3 7.9,-5.9 11.5,-9.2 2.4,-2.1 3.4,-5.1 4.1,-8.4 1.8,-8 2.1,-16.2 3.3,-22.4 -0.1,7.1 -3.2,15.6 -3.6,24.4 -0.1,1.5 -0.5,3 -1.8,3.9 -5.6,3.5 -10.2,7.2 -14.1,11.9 z"
   class="st1" />
		<path
   id="path30888"
   d="m 79.2,165 c 2.2,-0.8 3,-3.5 6.3,-4.2 -1.7,1.9 -2.8,3.1 -3.9,4.2 1.2,1.4 2.6,-1.9 3.3,0.3 0.4,1.3 2.5,1.9 1.6,3.2 -0.6,0.8 -2,1.5 -3.5,1.4 -2.5,-0.2 -4.9,0.3 -7.2,2.5 2.4,-0.4 4.3,-1.2 7.5,-0.2 -7.7,1.8 -10.4,8 -15.2,12.1 2.6,0.1 7.4,-3.3 8.4,-6.4 0.3,-0.9 0.5,-0.9 1,-1.1 6.9,-4 13.6,-8.3 21.3,-11 12.1,-4.2 24.1,-4.3 36.6,-2.4 6.1,1 12.6,0.9 18.8,-0.4 0.7,-0.1 1.4,-0.3 2.1,-0.3 14.7,0.6 29.4,-1.4 44,-0.8 9.1,0.4 18.2,1.2 27.2,2.8 9.8,1.7 17.6,11.8 19.4,23.2 0.4,2.6 1.5,5.2 2.6,7.6 1.3,2.8 4.1,2.9 7.2,2.7 -1,2 -0.8,4.5 -3.7,4.3 -5.1,-0.3 -8.8,-2.5 -10,-7.8 -2.7,1.4 -1,3.3 0,5.5 -5.3,-3.3 -6.9,-6.5 -5.3,-12 1.2,-4.3 0.6,-9.3 -0.9,-13.8 -0.7,-2.3 -2.4,-4.3 -4.4,-5.2 -5.2,-2.2 -10.5,-4 -16.7,-5 2.6,4 7,2.3 9.8,4.5 2.5,2.1 6.8,1.8 8.3,6.4 -2.5,-0.9 -4.6,-1.5 -6.5,-2.4 -1.1,-0.6 -1.8,-0.2 -2.1,0.6 -0.5,1.3 1,1.2 1.5,1.3 3.4,1.4 7.7,1.3 8.9,7.1 -2.6,-2.8 -5,-4.1 -8.3,-4.1 2.1,3.4 7.9,2.6 8.1,7.9 -1.9,-0.9 -3.1,-2.6 -5,-2.5 -0.8,1.5 0.4,2.1 1.1,2.6 4.3,3.1 3.8,7.6 2.4,11.5 -2.6,7.5 -1.9,15.9 -6.4,22.9 -0.4,0.7 -0.1,1.9 0.4,2.9 2.6,5.3 5.8,10.2 8.2,15.4 4.1,8.8 9.9,17.2 8.1,27.9 -1.5,8.6 -1.7,17.4 -1.8,26.1 0,2.9 0.1,5.7 0.7,8.7 0.7,3.5 0.6,7.1 -2.6,10.1 -2,1.9 -2.7,4.9 -3.4,7.7 -0.7,2.5 -1.9,3 -3.5,0.9 -1.2,-1.6 -3.5,-0.8 -4.5,-2.8 6,-3.2 7.3,-8.6 7,-14.9 -0.5,-11.5 2.6,-22.9 1.9,-34.5 -0.4,-5.7 -2.3,-10.8 -5.5,-15 -8.6,-11.1 -20.3,-19.1 -30.3,-28.9 -0.7,-0.7 -1.2,-1.5 -1.8,-2.3 -3.7,-5.6 -7.6,-11.2 -11.4,-16.7 -1.9,-2.7 -6,-3.3 -7,-7 -0.1,-0.3 -1.5,-0.6 -2,-0.4 -1.9,0.9 1.3,2.2 -0.3,3.4 -5.1,-2.5 -10.3,-5 -16.1,-7.8 0.7,3.5 4.1,3.2 5,5.9 -7.8,-2.2 -15.4,-4.7 -23.4,-5 8.2,3 16.7,5.4 25.6,7.4 -1.4,1.8 -2.6,2.4 -5,1.6 -4.5,-1.6 -9,-3.4 -13.9,-4 -1.7,-0.2 -3.1,-0.8 -4.9,0 -1.3,0.6 -3.1,0.6 -4.4,-0.8 -1.3,-1.5 -2.6,-0.8 -3.7,0.6 2,1.8 3.9,2.4 6.9,1.5 4.2,-1.2 8.7,0.3 12.6,1.8 2.5,1 5.1,2.3 8,3.8 -3.4,1 -5.8,-1.2 -8.7,-1.2 0,1.9 2.4,1.3 2.8,2.7 -6.1,2.8 -11.9,1 -17.8,-1.1 1.9,2.5 5,2.5 7.3,4.2 -5.3,1.3 -10.1,-0.8 -15,-1.6 -2.6,-0.4 -2.4,-0.5 -3.7,1.4 -0.5,0.8 -1.8,0.5 -2.8,0.2 -2.4,-0.6 -2.4,-0.6 -3.4,1.6 -0.1,0.3 -0.9,0.4 -1.4,0.4 -1.6,0 -3.2,0 -4.9,0.4 2.9,-0.2 4.9,2.1 7.5,2.7 0.9,0.2 1.4,0.9 2,-0.4 0.5,-1 -0.9,-3.6 2.1,-2.7 2,0.6 3.9,-0.6 5.9,-0.8 2.1,-0.2 0.4,2.3 2,2.9 0.5,0.2 -1.1,0.3 -1.7,0.6 -5.6,2.2 -11.8,2.5 -17.4,4 -3.7,1 -7.6,1 -11.2,2.7 0.3,2.2 1.9,3.7 3.5,5.4 -3.5,1.1 -3.8,-2.1 -5.3,-3.5 -0.9,-0.9 -1.2,-3.7 -3.4,-2 -1.3,1.1 -1.3,3 -0.1,4.5 0.5,0.6 1,1.2 1.8,2.2 -6.1,-2.1 -7.8,-7 -5.2,-13.2 2.6,3.2 6,3.1 9.4,2.1 2.4,-0.7 4.9,0.8 7.3,-0.4 0.8,-0.4 2.1,-0.6 2,-1.2 -0.1,-0.8 -1,-1.9 -1.8,-2.2 -1.4,-0.4 -3.1,-0.6 -4.3,-0.1 -2,0.8 -3.3,0.2 -4.9,-0.9 -0.7,-0.5 -1.7,-1.8 -3,-0.3 -1.3,1.5 1.5,1.6 0.6,2.9 -4.6,0 -3.9,-6.2 -7.9,-7 -0.8,1.5 0,3.2 -0.4,4.6 -0.4,1.6 0.8,4.7 -3.3,3.5 -0.8,-0.2 -3.8,2.6 -3.7,5.4 0.1,8 -2.2,15.4 -3.9,23.1 -2.1,9.4 -3.9,19 -6.1,28.4 -2,8.5 -2.3,17.3 -4.4,25.7 -1.3,5.4 -1.2,11.1 -2.3,16.7 -0.4,1.7 -0.7,2.2 -2.4,2.1 -2.5,-0.2 -3.8,1.3 -4.8,3.4 -2.6,5.4 -4,5.8 -9.8,3.2 11.5,-6.5 12,-18 13.3,-28.9 1.5,-12.3 2.8,-24.7 3.4,-37.1 0.4,-7 1.2,-14.1 -0.7,-21 -0.1,-0.4 -0.1,-0.9 0,-1.3 0.6,-10 -0.9,-19.9 -0.9,-29.9 0,-1.4 0.4,-2.8 0.7,-4.2 1.5,-5.6 3.2,-11 9.5,-14 -3.2,-0.6 -4.8,0.8 -6.3,2.4 -1.7,1.7 -3.3,3.4 -5,5 -0.4,0.4 -0.7,1.5 -1.6,0.6 -0.7,-0.7 -1.2,-1.3 -0.3,-2.2 1.7,-1.7 2.4,-4.3 5,-5.3 0.9,-0.3 1.9,-0.9 1.3,-2.6 -4.2,1.8 -6.7,5.1 -8.4,8.9 -0.6,1.4 0.5,3.7 3.1,3.4 1,-0.1 1.5,0.3 1,1.2 -3.1,5 -1.2,10.6 -1.6,15.8 -0.3,3.4 -0.2,6.8 0,10.2 0.1,2.5 -2,0.8 -2.7,1.7 -3,-3.6 -7.8,-4 -11.5,-6.5 -4.5,-3 -6.5,-8.5 -4.7,-13.8 1.6,-4.9 3.8,-9.2 8.4,-12.1 2.3,-1.5 2.9,-4 3.6,-7.7 -3.7,4.1 -6.7,7.4 -9.7,10.8 -0.4,-0.3 -0.8,-0.7 -1.2,-1 0.9,-6.7 10.4,-7.8 10.7,-15.3 -4.3,2.4 -5.8,7 -9.8,9.4 2.6,-3.6 4.4,-7.6 5.4,-11.9 0.1,-0.3 0.1,-0.5 0.2,-0.5 0,0.1 -0.1,0.3 -0.1,0.6 -2.8,0.4 -3,2.9 -3.9,4.9 -1.6,3.9 -3.2,7.8 -7.9,9.4 3.4,-4.8 6.1,-9.8 8.9,-15.3 -4.1,1.5 -4.2,6.2 -7.6,8 -3,-3.2 1.6,-5.9 1.1,-9 -1.8,0.3 -1.2,2.7 -3.1,3.1 -1.5,-5.4 6.1,-6.3 5.7,-11 -1.3,2.4 -4.6,2.9 -5.3,6 -1.6,-2.5 0.4,-3.9 2.3,-6.3 -3.5,2.1 -3.5,2.1 -4,7.5 -3,-6.6 -2.3,-9.4 3.6,-14 0.8,-0.6 1.8,-1.5 1.9,-2.3 0.5,-3.3 1.4,-6.3 4.6,-8.3 -3.9,0.8 -6.1,2.1 -6.8,6.7 -0.6,4.2 -5.3,6.7 -8.7,9.5 6,-5.3 4.4,-16 14.8,-18.7 -3.2,-1.2 -4.2,1.2 -6.5,0.8 2,-1.9 3,-4.1 4.3,-6.2 0.4,-0.7 1.3,-1.3 0.1,-2 -1,-0.6 -1.3,0.4 -1.6,0.8 -1.3,1.8 -2.3,4 -5.4,3.9 3.7,-5.1 7.5,-9.7 12.9,-14 -3.7,0.3 -5,4.1 -8.7,3.3 5.9,-4.4 10.4,-9.8 15.4,-14.6 2.9,-2.8 6.6,-3.9 10,-5.7 3.2,-1.7 6.1,-3.7 8.9,-5.9 2,-1.6 4.4,-4.2 7.8,-1.3 1.6,1.3 3.5,-0.2 5.1,-1.2 2,-1.3 1.9,-1 5,-0.4 1.9,0.4 4,-0.5 5.4,-2 1.5,-1.6 3.3,-2.6 5.4,-3.9 -0.3,2.9 -0.3,5.5 -0.5,8.1 -0.7,9.2 -9,7.7 -14.1,10.8 3.5,2.2 6.3,-3.1 9.8,-0.9 -4.2,1.3 -8.1,3.1 -11.9,5.4 3.7,0.2 6.6,-2.4 10.4,-3 -3.2,5 -9.9,3.9 -13.2,8.3 3.3,-0.4 6.3,-1.1 9.2,-2.7 -4.4,5 -11.2,5.9 -16.1,10.1 4.6,-1.5 9.3,-2.9 13.5,-5.6 -4.3,6.2 -12.5,6.3 -18.5,11.4 3.8,-1.1 7.2,-0.6 9.8,-3 0.9,-0.8 1.9,-1.3 2.7,-0.5 1.1,1 -0.3,2 -0.7,2.6 -2,3.3 -4.4,6.3 -6.2,9.8 -1.1,2.1 -1.8,4.1 -1.7,6.6 -5.1,-3.9 -4.9,-6.5 0.6,-10.3 2.7,-1.9 2.7,-1.9 2.6,-4.5 -4.9,1 -5.8,6 -9,8.8 -1,-3.1 2.4,-4.8 2.3,-7.7 -4,1.5 -6.1,9.1 -2.8,11 4.6,2.9 4.6,5.9 2.6,9.8 -0.8,0 -1.6,-0.6 -2.5,-0.3 -0.6,0 0,0.5 0,0.4 0.8,-0.6 1.6,-0.1 2.5,-0.1 z"
   class="st0" />
		<path
   id="path30890"
   d="m 101.1,95.7 c 0.9,-0.4 1.8,-0.8 2.8,-1 1,-0.3 1.7,0.5 2.1,1.2 0.7,1.3 -0.7,1.2 -1.3,1.6 -1,0.6 -1.9,1.3 -2.9,1.9 -1.6,1.1 0.3,1.3 0.5,1.9 -0.7,0.1 -1.3,0.2 -2,0.4 -1.8,0.5 -2.7,-1.5 -4.4,-2 1.1,2.6 -1,5 -3.6,4.7 -1.7,-0.2 -2.1,-2.1 -3.5,-2.5 -1.2,-0.4 -2.1,-1.9 -3.7,-0.8 0.4,1.4 1.6,2 2.9,2.6 -3.7,2.5 -5.5,-2.8 -9,-2 -0.5,1.1 1.3,1.3 0.9,2.8 -4.2,-3.2 -8.2,-6.2 -12.6,-9.5 -0.3,4 4.1,3.6 4.9,6.8 -3.5,-2.3 -7.4,-3.3 -10,-6.4 -1.1,-1.3 -1.8,-1.9 -3.6,-0.3 -5.7,4.9 -11.4,5.2 -17.9,1.4 5.5,-1.2 11.4,1.5 16.6,-2.9 -1.7,0 -3.1,-0.4 -4.2,0.1 -2.8,1.2 -5.8,0.8 -8.6,0.8 -3.1,0 -6.9,-0.2 -7.4,-3.7 -0.5,-3.3 3.3,-3.8 5.8,-4.5 7.9,-2.4 16.2,-3.4 24.2,-5.1 7.2,-1.5 14.5,-3 21.4,-5.8 1.9,-0.8 3.9,-0.6 4.1,2.2 0.1,1 0.7,1.7 1.6,1.8 1.4,0.2 0.7,-1.3 1.1,-1.9 2.6,-3.8 5.4,-7.4 7.9,-11.3 5,-7.9 9.7,-16 16.6,-22.4 0.5,-0.5 1,-1 2.1,-1.9 -0.1,5.6 -4.4,8 -7,10.9 -3.9,4.3 -5,9.6 -7,14.5 -1.3,3.1 1.6,5.6 6.2,5.8 3.2,0.2 6.3,-0.2 9.5,-0.7 10.1,-1.5 20.3,-2.5 31.3,-1.7 -1.4,1.4 -2.5,2.7 -3.7,3.7 -1.1,1 -1.9,3 -3.9,2.1 -2,-0.8 -0.4,-2.9 -1.4,-4.6 -1,1.8 -4.5,1.9 -2.8,4.8 1.5,2.6 4.2,2.2 6.6,1 4,-2.1 6.8,-5.5 9.5,-8.9 2.9,-3.7 6.1,-6.8 10.4,-9.2 0.5,2.6 -1.2,4.2 -2.4,5.4 -4.9,5 -8.3,11.3 -14.4,15.2 -2.5,1.6 -5.3,2.2 -8,2.6 -2.4,0.4 -5.1,0.7 -5.1,-3.4 0,-1.7 -1.7,-2.8 -3.8,-2.8 -10.3,-0.1 -20.6,0.2 -30.6,3.2 -2.4,0.7 -3.8,0.4 -4.8,-2.1 -0.4,-1 -0.4,-2.4 -1.4,-2.6 -4.9,0.3 2.3,5 -2.7,5.3 2.5,2.2 3.7,5.6 8.4,2 3.4,-2.6 9,-2.3 13.6,-3.2 1.6,-0.3 2.3,1 3.3,1.7 6,4.2 12.5,7.4 19.7,9.4 -3.8,3.8 -9.1,4 -13.9,5.1 -5.6,1.2 -11.5,2.7 -17.3,-0.2 -2.2,-1.1 -3.7,-3 -6.2,-3.8 -1.8,-0.6 -3.2,-1.2 -4.9,0.7 2.6,0.1 2.9,1.5 2.1,3.3 -0.3,0.1 -0.6,-0.3 -0.9,0.1 -0.1,0.1 0.1,0 0.4,-0.1 0.5,0.1 -0.1,0.5 0.4,0.3 z"
   class="st0" />
		<path
   id="path30892"
   d="m 195.7,239 c 4.2,3.1 5.8,10.1 3.4,15.1 -7.6,16.2 -15.1,32.4 -22.6,48.6 -1.3,2.8 -2.6,4.8 -6.2,5.7 -4.2,1.1 -6.6,5.5 -9.8,8.5 -1.6,1.5 -2.8,2.3 -4.7,0.4 -3.2,-3 -3.1,-3.2 1.1,-5.1 6.7,-3 11,-7.9 13.7,-15 4.7,-12.3 11.3,-23.8 14.5,-36.8 1.9,-7.7 2.4,-15.4 0.8,-23.1 -0.4,-2 -2.2,-3.2 -2.8,-5.4 5,1.5 8.4,5.2 12.7,7.1 z"
   class="st0" />
		<path
   id="path30894"
   d="m 64.8,240.1 c 0.8,1.2 1.7,2.5 2.5,3.7 0.9,1.4 4.3,2.9 -0.3,4 -1,0.2 -0.1,1 0.1,1.3 4.2,6.2 1.4,12.8 0.3,18.9 -2.1,12.3 -6.9,24.3 -7.7,36.6 -0.5,7.6 -6.5,8.5 -9.1,13.1 -0.8,1.5 -2.5,2.3 -3.3,4 -0.9,1.8 -2.4,1.6 -4,0.2 -2.2,-2 0.6,-2 1.1,-2.3 6.8,-5.8 9.2,-13.3 10.4,-21.9 1.3,-9.4 1.9,-18.9 3.4,-28.3 1.8,-11 1.7,-22.1 1.7,-33.2 0,-0.9 -0.2,-1.8 0,-2.6 0.4,-1.4 -2.2,-2.9 -0.1,-3.8 1.7,-0.7 2.5,1.4 3.4,2.5 2.2,2.6 4.3,5.3 6.1,9.3 -1.8,-0.6 -2.7,-2.7 -4.5,-1.5 z"
   class="st0" />
		<path
   id="path30896"
   d="m 222.2,31.2 c -10.1,3 -20.1,3.3 -29.4,6.7 -1.4,0.5 -2.6,0.8 -2.5,2.4 0.1,1.4 1.1,1.6 2.3,2.2 2.5,1.2 5.7,1.1 7.4,4.3 -1.1,0 -2.2,0.3 -2.8,-0.1 -7.6,-4.8 -15.8,-1.9 -23.7,-1.6 -6.4,0.2 -12.8,1.7 -19.2,2.5 -8.5,1.1 -17,2.2 -25.1,5.3 -5.8,2.2 -11.3,5.1 -16.6,8.5 1.8,-3.9 4,-7.1 8.6,-8.5 6.3,-2 10.4,-6.6 12.9,-12.8 1.3,-3.3 8,-7.9 12.3,-9 -3.7,3.5 -7.9,6 -10.3,10.2 -0.9,1.5 -1.9,2.7 -1.2,4.3 0.9,1.9 2.9,1.5 4.3,1.2 11.2,-2.1 23,-2.6 31,-12.8 1.9,-2.4 3.8,-5.2 7.1,-5.9 0.3,0.3 0.6,0.7 1,1 -1.9,1.7 -3.6,3.4 -5.6,5 -2.9,2.3 -1.4,3.7 1,4.4 4.9,1.5 10,2.8 14.1,-1.4 3.9,-3.9 9.2,-4.7 14,-5.9 5.5,-1.3 11.3,-1.7 17,-1.1 1,0.1 2,0.6 3.4,1.1 z"
   class="st0" />
		<path
   id="path30898"
   d="m 237.4,57.1 c -2.2,3.6 -4.9,4.5 -8,5.2 -6.2,1.4 -12,3.9 -18.8,0.8 -4.4,-2 -9.1,2.1 -13.5,3.9 -4.3,1.8 -8.6,3.7 -12.9,5.5 -1.7,0.7 -2.9,1.9 -2.7,4 0.3,2.6 2.3,2.1 4,2.1 6.3,0 12.7,0 19,0 1.4,0 3,-0.7 4,1 -8.5,3.9 -26,4.4 -32.7,-0.7 -4.3,-3.2 -7.8,-4.9 -12.9,-2.8 0.9,-6.7 6.3,-4.6 9.5,-5.4 13.2,-3.4 25.6,-8 35.3,-18.1 2.7,-2.8 2.7,-2.7 5.5,-3.8 0.2,2.9 -1.9,4.8 -3.3,6.8 -2.3,3.1 -0.5,4.4 1.9,5.1 6.6,2 13,0.8 19.4,-1.4 1.9,-0.5 3.7,-1.2 6.2,-2.2 z"
   class="st0" />
		<path
   id="path30900"
   d="m 195.8,239.1 c -2.2,-3.6 -5.9,-5.4 -9.5,-7.1 -2.6,-1.2 -4.6,-2.8 -6.5,-5.2 2.6,-1.3 4.3,2.4 7,1 -3.4,-3 -8.3,-2.3 -11.7,-6.2 8.9,0.4 15.1,5.5 21.7,9.9 -5.9,-9.5 -17.1,-10.3 -25.9,-15.2 8.7,1.1 16.6,4.3 24.2,8.4 -6.9,-6.7 -16.7,-8 -24.1,-13.9 0.9,-0.7 2,-0.6 2.8,-0.2 7.6,4.1 15.9,6.7 23.2,11.6 2.8,1.9 3.8,5 2.7,8.1 -0.5,1.6 -0.3,3.1 -0.8,4.7 -1,-0.4 -2,-0.8 -3.3,-1.3 0.2,2.6 3.1,3.1 3.6,5.5 -1.2,-0.1 -2.3,-0.2 -3.5,-0.3 0,0.1 0.1,0.2 0.1,0.2 z"
   class="st0" />
		<path
   id="path30902"
   d="M 89.6,72.8 C 89.2,68.5 86.2,66 85.7,62.3 c -0.9,-7.1 0.4,-12.9 5.7,-17.8 3.4,-3.2 4.9,-7.4 5.8,-12.5 1.6,4.2 1.5,4.1 -1.1,10.6 -1.7,4.2 -3.3,8.4 -4.6,12.8 -0.6,2.2 -1.1,5.1 0.8,6.6 4.7,3.9 1,6 -1.2,8.6 -0.7,0.6 -1.1,1.4 -1.5,2.2 z"
   class="st0" />
		<path
   id="path30904"
   d="m 47.6,326.4 c 1.7,-4.5 5.1,-7.5 8.9,-10.2 0.2,-0.1 0.1,-0.8 0.2,-0.8 7.5,-0.5 4.2,-6.4 5.3,-10.2 2.1,-7.4 2.2,-15.1 4.9,-22.4 0,8.3 -0.5,16.6 -2.5,24.7 -1.6,6.6 -3.8,12.5 -11.1,14.9 -2.2,0.7 -2.6,4.5 -5.8,3.9 0,0 0.1,0.1 0.1,0.1 z"
   class="st0" />
		<path
   id="path30906"
   d="m 105.4,60.2 c -2.8,5 -7.6,8.1 -10.6,12.6 -0.5,0.7 -1.3,0.7 -1.8,0 -0.3,-0.3 -0.7,-0.5 -0.5,-1.3 0.7,-2.5 8.4,-11 10.8,-11.4 0.5,-0.1 1.1,0.1 2.1,0.1 z"
   class="st0" />
		<path
   id="path30908"
   d="m 139,320.9 c 4.6,-2.2 8.5,-3.4 11.8,-5.7 1.7,-1.2 1.5,1.5 2.4,2.3 1.3,1.1 -0.2,1.6 -1.1,1.9 -3.8,1.2 -7.7,2.2 -13.1,1.5 z"
   class="st0" />
		<path
   id="path30910"
   d="m 220.2,325.2 c 2.1,-2.1 4.1,-4 6,-5.9 0.7,-0.7 1.3,-1.2 2.2,-0.3 0.7,0.6 1.3,1.4 0.4,2.2 -2.4,2 -3.9,5.7 -8.6,4 z"
   class="st0" />
		<path
   id="path30912"
   d="m 61.7,327.7 c -2,3.7 -6.5,3.9 -8.8,7 0.9,-5.4 3.6,-7.5 8.8,-7 z"
   class="st0" />
		<path
   id="path30914"
   d="m 46,333.4 c 2.6,-3 5.2,-5.6 8.5,-7.5 0,3.6 -4.3,7.6 -8.5,7.5 z"
   class="st0" />
		<path
   id="path30916"
   d="m 227.4,328.9 c 0.1,-4.2 2.9,-5.3 4.6,-7.1 0.8,-0.9 1.3,0.6 1.8,1.1 1.2,1 -0.2,1.4 -0.6,1.9 -1.5,1.4 -3.9,1.6 -5.8,4.1 z"
   class="st0" />
		<path
   id="path30918"
   d="m 45.3,325 c -3.6,2.6 -6.1,4.9 -10.6,6.4 3.4,-3.2 5.1,-6.8 10.6,-6.4 z"
   class="st0" />
		<path
   id="path30920"
   d="m 41.2,321.3 c -1.3,3.4 -6.9,6.9 -10,6.6 3.6,-1.8 6.6,-4.6 10,-6.6 z"
   class="st0" />
		<path
   id="path30922"
   d="m 66.6,186.5 c -0.6,4.4 -3.3,7.3 -3.9,11.1 -0.4,2.7 -1.4,5.1 0.9,7.6 1,1.1 2.1,3.1 0.1,4.1 -6,-8 -3.8,-15.3 2.9,-22.8 z"
   class="st1" />
		<path
   id="path30924"
   d="m 54.1,216.6 c -5.9,-4.5 -4.4,-11 4.4,-19.2 -0.6,6.9 -9.8,11.3 -4.4,19.2 z"
   class="st1" />
		<path
   id="path30926"
   d="m 169.4,168.1 c 3.6,-2.8 7,-4.5 11.8,-2.8 3.9,1.3 8,-1.6 12.3,-0.5 -3.6,2.1 -7.1,1.8 -11,1.9 -4.3,0 -8.9,-0.9 -13.1,1.4 z"
   class="st1" />
		<path
   id="path30928"
   d="m 220.2,235.5 c -5.5,-2.2 -8.8,-6.6 -12.9,-9.9 -1.4,-1.1 -0.7,-2 -0.2,-2.8 0.7,-1.1 1.3,0.2 1.4,0.5 2.4,4.1 6.2,6.5 10,9.1 1,0.5 2.1,1.2 1.7,3.1 z"
   class="st1" />
		<path
   id="path30930"
   d="m 103.8,110.4 c 1.6,0.4 2,-1.4 3.7,-1.4 -2,3.1 -4.1,5.3 -7.2,6.7 -0.4,-1.9 1.5,-2.2 1.9,-3.3 1.8,-4.7 1.7,-4.7 6.5,-8.7 1.1,4 -4.2,3.8 -4.9,6.7 z"
   class="st1" />
		<path
   id="path30932"
   d="m 52.2,165.5 c -0.8,-5.7 2.5,-11 8,-12.8 -3.1,3.9 -5.5,8.3 -8,12.8 z"
   class="st1" />
		<path
   id="path30934"
   d="m 214.6,166.1 c -6.8,3 -13.6,0.9 -20.3,0.7 6.7,-3.3 13.5,1.1 20.3,-0.7 z"
   class="st1" />
		<path
   id="path30936"
   d="m 69.8,123.4 c -0.8,0.9 -1.6,1.8 -2.4,2.7 1.3,1.2 2.1,-1.4 3.3,0 -3.4,2.1 -5.7,5.9 -10.9,6.8 3.3,-3.9 5.6,-7.6 10,-9.5 z"
   class="st1" />
		<path
   id="path30938"
   d="m 134.2,203.1 c -6.1,0.9 -10.5,5.1 -16.4,3.3 5,-1.9 9.7,-5 16.4,-3.3 z"
   class="st1" />
		<path
   id="path30940"
   d="m 103,169.5 c 4.2,-3 9.2,-3.5 13.9,-4.8 -4,3.4 -9.3,3 -13.9,4.8 z"
   class="st1" />
		<path
   id="path30942"
   d="m 86.4,109.9 c -1.1,2.9 -2.5,5.5 -6.2,7.5 1.1,-4.2 3.3,-6.2 6.2,-7.5 z"
   class="st1" />
		<path
   id="path30944"
   d="m 53.6,148.5 c -0.5,-0.4 -1.6,-0.8 -1,-1.4 1.5,-1.8 3.3,-3.4 5,-5.1 0.7,-0.7 1,0.2 1.3,0.5 0.3,0.2 0.4,1.1 0.3,1.1 -2.3,1.1 -3.7,3.3 -5.6,4.9 z"
   class="st1" />
		<path
   id="path30946"
   d="m 63.8,134.3 c -1.3,2.3 -2.8,3.5 -4.7,4.3 -1,0.4 -1.3,3.1 -2.8,1.2 -0.9,-1.1 1,-1.7 1.5,-2.5 1.4,-2.1 3.6,-2.1 6,-3 z"
   class="st1" />
		<path
   id="path30948"
   d="m 60.8,144.7 c 0.2,1 0.3,1.5 0.3,1.5 -2.2,1.2 -1.9,5 -5.2,5 -0.3,0 -0.9,-0.6 -0.8,-0.7 1.1,-2.4 3.1,-4.1 5.7,-5.8 z"
   class="st1" />
		<path
   id="path30950"
   d="m 56.7,211.5 c 0.9,3.4 1.8,6.7 2.9,10.8 -4.8,-2.9 -1.6,-7.5 -4.2,-10.4 0.4,-0.1 0.8,-0.2 1.3,-0.4 z"
   class="st1" />
		<path
   id="path30952"
   d="m 140.2,202 c -2.7,1.3 -4.5,0 -6.5,-0.3 -0.8,-0.1 -2.1,0.3 -1.7,-1.1 0.3,-1.1 1,-2 2.6,-1.1 1.6,0.9 3.3,1.5 5.6,2.5 z"
   class="st1" />
		<path
   id="path30954"
   d="m 60.7,215.4 c 1.6,-0.6 1.5,-2.6 3.1,-3.6 -2.2,4.1 -0.7,7.9 1.6,12.5 -3.6,-3 -3.4,-6.3 -4.7,-8.9 z"
   class="st1" />
		<path
   id="path30956"
   d="m 73.3,171.1 c 3.7,-4.6 4,-4.8 8.6,-3.8 -2.9,1.3 -5.5,2.4 -8.6,3.8 z"
   class="st1" />
		<path
   id="path30958"
   d="m 57.6,168.2 c -1.6,4.2 -2.9,7.1 -6.9,7.5 2.9,-1.5 3.4,-5.1 6.9,-7.5 z"
   class="st1" />
		<path
   id="path30960"
   d="m 228.5,192.3 c 0.3,-0.1 0.5,-0.3 0.6,-0.2 1.9,0.9 3.5,2 3.7,4.3 0.1,0.7 -0.5,1.2 -1.1,0.9 -1.9,-1.2 -3,-2.8 -3.2,-5 z"
   class="st1" />
		<path
   id="path30962"
   d="m 73.2,224.7 c 2.5,1.2 3.5,2.8 3.6,4.9 0,0.4 -1.1,1.1 -1.2,1.1 -1.7,-1.5 -1.7,-3.6 -2.4,-6 z"
   class="st1" />
		<path
   id="path30964"
   d="m 242.4,255.6 c -0.2,3.2 -0.3,5.9 -0.4,8.6 -0.4,0 -0.8,-0.1 -1.2,-0.1 0.1,-2.7 -0.9,-5.5 1.6,-8.5 z"
   class="st1" />
		<path
   id="path30966"
   d="m 227.6,188.9 c -3.1,1.4 -3.7,-2.2 -5.9,-2.2 3.1,-2.1 4,1 5.9,2.2 z"
   class="st1" />
		<path
   id="path30968"
   d="m 89.4,175.5 c 2.3,-3.8 5.4,-3.9 8,-4.7 -2.2,1.4 -4.5,2.7 -8,4.7 z"
   class="st1" />
		<path
   id="path30970"
   d="m 124.8,164.8 c -2.4,1.1 -4.6,2.1 -7.7,3.5 2.1,-3.6 4.5,-4.1 7.7,-3.5 z"
   class="st1" />
		<path
   id="path30972"
   d="m 193.5,201.7 c 1,2.5 -0.6,4.1 -0.8,6.1 -2.3,-2.3 -1.2,-4 0.8,-6.1 z"
   class="st1" />
		<path
   id="path30974"
   d="m 199.5,216.4 c 0.1,-2.3 -2.5,-3.8 -2,-6.5 1.8,2 3.4,3.7 2,6.5 z"
   class="st1" />
		<path
   id="path30976"
   d="m 79.2,165 c -1.7,0.5 -3.4,1 -5.2,1.5 1.5,-1.4 2.6,-5 5.2,-1.5 0,0 0,0 0,0 z"
   class="st1" />
		<path
   id="path30978"
   d="m 76.8,224.9 c -0.8,-1.9 -1.7,-3.8 -2.6,-5.8 2.9,1.6 2.9,1.6 2.5,5.9 z"
   class="st1" />
		<path
   id="path30980"
   d="m 77.5,265.9 c -1.1,0.7 -1.5,-0.3 -2,-0.9 3.2,-0.3 -0.5,-3.2 1.5,-3.9 0.7,-0.2 1,0.4 1,1 -0.2,1.3 -0.4,2.6 -0.5,3.8 -0.1,0.1 0,0 0,0 z"
   class="st1" />
		<path
   id="path30982"
   d="m 89.3,177.5 c -0.8,1.7 -1.5,3.5 -4,2.9 0.5,-2.1 2.3,-2.4 4,-2.9 z"
   class="st1" />
		<path
   id="path30984"
   d="m 76.7,225 c 2.8,0.5 2.8,0.5 4.5,4.9 -2.3,-1.1 -2.7,-3.6 -4.4,-5 0,0 -0.1,0.1 -0.1,0.1 z"
   class="st1" />
		<path
   id="path30986"
   d="m 85,220.2 c 1.5,1.2 3.1,2 2.5,4.2 -1.8,-0.6 -2.6,-1.7 -2.5,-4.2 z"
   class="st1" />
		<path
   id="path30988"
   d="m 201.2,220 c 0.9,-1.5 0,-3.7 2.1,-4.8 0.8,2.2 -0.8,3.5 -2.1,4.8 z"
   class="st1" />
		<path
   id="path30990"
   d="m 66.1,221.3 c -0.9,-2.5 -2.1,-4.5 -0.8,-7.9 -0.1,3.2 1.6,5.1 0.8,7.9 z"
   class="st1" />
		<path
   id="path30992"
   d="m 150.7,206.1 c 3.2,-2.4 4.2,0.3 6,0.5 -2.2,1.2 -3.4,-0.9 -6,-0.5 z"
   class="st1" />
		<path
   id="path30994"
   d="m 227.2,195.4 c -1,-0.8 -2.4,-1.3 -2.2,-2.9 0,-0.2 0.9,-0.5 1.1,-0.4 1.2,0.7 1.8,1.8 1.1,3.3 z"
   class="st1" />
		<path
   id="path30996"
   d="m 84.9,182.8 c -0.9,1.5 -2.1,2.3 -4,2 0.5,-2.5 2.8,-1.2 4,-2 z"
   class="st1" />
		<path
   id="path30998"
   d="m 219.1,179.4 c 3.2,-1.6 3.8,1.4 5.7,1.5 -2.5,1.6 -3.2,-1.5 -5.7,-1.5 z"
   class="st1" />
		<path
   id="path31000"
   d="m 195.1,209.6 c -0.9,-1.9 0.5,-2.8 1,-4.2 0.6,1.7 0.8,3.1 -1,4.2 z"
   class="st1" />
		<path
   id="path31002"
   d="m 77.4,266 c 1,1.9 0.6,3.2 -1.7,4 0,-1.8 1,-2.9 1.7,-4 0.1,-0.1 0,0 0,0 z"
   class="st1" />
		<path
   id="path31004"
   d="m 56.9,179 c -0.6,-1.8 -0.3,-3.2 2.1,-4 -0.5,1.8 -0.9,3.1 -2.2,3.9 0,0 0.1,0.1 0.1,0.1 z"
   class="st1" />
		<path
   id="path31006"
   d="m 81.7,227.4 c 0.2,-2.5 -2.1,-2.8 -1.5,-4.5 0.1,-0.2 0.4,-0.4 0.7,-0.5 0.7,1.1 1.8,2 0.8,5 z"
   class="st1" />
		<path
   id="path31008"
   d="m 204.6,220.1 c -0.5,0.9 -1,1.8 -1.5,2.7 -0.3,-0.3 -0.9,-0.6 -0.9,-0.8 0,-1.3 1.1,-1.8 2.4,-1.9 z"
   class="st1" />
		<path
   id="path31010"
   d="m 228.4,205.8 c -0.1,0.7 -0.2,1.3 -0.9,1.2 -0.7,-0.1 -1,-0.6 -0.7,-1.1 0.2,-0.5 0.7,-1.1 1.1,-1.1 0.8,-0.1 0.2,0.7 0.5,1 z"
   class="st1" />
		<path
   id="path31012"
   d="m 77.5,259.6 c -0.6,-1.8 -0.9,-2.9 0.9,-5 -0.4,2.3 -0.6,3.3 -0.9,5 z"
   class="st1" />
		<path
   id="path31014"
   d="m 60.8,215.3 c -1.2,-1.4 -0.4,-2.9 -0.3,-4.3 0.8,1.4 0.7,2.9 0.3,4.3 -0.1,0.1 0,0 0,0 z"
   class="st1" />
		<path
   id="path31016"
   d="m 90.1,85.4 c -3.6,-0.8 -7.1,-3.3 -10.7,1.3 3.2,0 5.7,0.1 8.3,0 2.9,-0.2 5.1,0.8 7.2,3.7 -2.8,-1.3 -4.9,-0.8 -7,0.6 -1.5,1 -3.3,1.6 -4.9,0.9 -2.5,-1.1 -6,-1.9 -5.9,-5.4 0.1,-3.7 3.8,-4 6.4,-4.7 2.9,-0.9 5.4,0.6 6.6,3.6 z"
   class="st1" />
		<path
   id="path31018"
   d="m 135.8,91.5 c -3.5,1.1 -5.6,-0.7 -7.6,-2 -5.1,-3.2 -10.1,-5.4 -15.3,-0.3 -2.1,2.1 -4.8,0.2 -7.2,0.8 5.5,-0.8 9.1,-6.8 14.9,-5.8 5.4,1 10.4,3.7 15.2,7.3 z"
   class="st1" />
		<path
   id="path31020"
   d="m 111.8,92.2 c 4.4,-4.3 9.1,-4.7 14.2,-2.2 0.7,0.3 2,0.3 1.3,1.6 -0.5,0.9 -1.3,2 -2.4,0.8 -1.8,-2 -2.9,-0.7 -4.8,0 -2.6,1 -5.3,-2.5 -8.3,-0.2 z"
   class="st1" />
		<path
   id="path31022"
   d="M 72.7,85.3 C 77.6,89.6 80.8,95 86.1,97.7 82,98.3 74.4,91.7 72.7,85.3 Z"
   class="st1" />
		<path
   id="path31024"
   d="M 92.5,82.3 C 87.3,78.5 82.3,80 76.9,82.5 80.6,76.8 88.4,76.8 92.5,82.3 Z"
   class="st1" />
		<path
   id="path31026"
   d="m 43,93 c -1.3,-2.1 0.1,-3.2 1.4,-4.1 0.9,-0.7 1.4,0.5 1.4,0.9 0.2,1.9 -1.4,2.5 -2.8,3.2 z"
   class="st1" />
		<path
   id="path31028"
   d="m 101.1,95.7 c -1,0.6 -2.1,1.1 -3.6,1.9 0.8,-2.6 2.2,-2.2 3.7,-1.8 0,0 -0.1,-0.1 -0.1,-0.1 z"
   class="st1" />
		<path
   id="path31030"
   d="m 191.3,243.4 c 3.7,0.1 5.4,3.1 7.8,4.9 0.1,0.1 -0.1,0.9 -0.4,1 -0.5,0.3 -0.9,-0.1 -1.3,-0.6 -1.9,-1.7 -3.9,-3.4 -6.1,-5.3 z"
   class="st1" />
		<path
   id="path31032"
   d="m 190.4,239.2 c 1.8,-0.6 2.7,0.1 3.3,1.2 0.1,0.2 -0.2,1.1 -0.4,1.1 -1.5,0.1 -2,-1.3 -2.9,-2.3 z"
   class="st1" />
		<path
   id="path31034"
   d="m 189.2,229.7 c 2,0.9 3.6,1 4.8,3.3 -2,-0.9 -3.6,-0.9 -4.8,-3.3 z"
   class="st1" />
	</g>
</g>
</svg>
