<?xml version="1.0" encoding="UTF-8" standalone="no"?>
<svg
   xmlns:dc="http://purl.org/dc/elements/1.1/"
   xmlns:cc="http://creativecommons.org/ns#"
   xmlns:rdf="http://www.w3.org/1999/02/22-rdf-syntax-ns#"
   xmlns:svg="http://www.w3.org/2000/svg"
   xmlns="http://www.w3.org/2000/svg"
   xmlns:sodipodi="http://sodipodi.sourceforge.net/DTD/sodipodi-0.dtd"
   xmlns:inkscape="http://www.inkscape.org/namespaces/inkscape"
   height="325.86252"
   width="272.80014"
   inkscape:version="1.0 (4035a4f, 2020-05-01)"
   sodipodi:docname="wyvern.svg"
   xml:space="preserve"
   viewBox="0 0 272.80014 325.86252"
   y="0px"
   x="0px"
   id="Layer_1"
   version="1.1"><metadata
   id="metadata3086"><rdf:RDF><cc:Work
       rdf:about=""><dc:format>image/svg+xml</dc:format><dc:type
         rdf:resource="http://purl.org/dc/dcmitype/StillImage" /><dc:title></dc:title></cc:Work></rdf:RDF></metadata><defs
   id="defs3084" /><sodipodi:namedview
   fit-margin-bottom="0"
   fit-margin-right="0"
   fit-margin-left="0"
   fit-margin-top="0"
   inkscape:current-layer="Layer_1"
   inkscape:window-maximized="0"
   inkscape:window-y="25"
   inkscape:window-x="0"
   inkscape:cy="151.71334"
   inkscape:cx="62.622472"
   inkscape:zoom="2.52"
   showgrid="false"
   id="namedview3082"
   inkscape:window-height="1080"
   inkscape:window-width="1324"
   inkscape:pageshadow="2"
   inkscape:pageopacity="0"
   guidetolerance="10"
   gridtolerance="10"
   objecttolerance="10"
   borderopacity="1"
   bordercolor="#666666"
   pagecolor="#ffffff"
   inkscape:document-rotation="0" />
<style
   id="style2693"
   type="text/css">
  .st0{fill:#FFFFFF;}
  .st1{fill:#000000;}
</style>
<g
   transform="translate(-10.988639,-16.540625)"
   id="g3079">
	<g
   id="g3077">
		<path
   id="path2695"
   d="m 15.3,77.3 c -7,-6.4 -5.2,-17.5 3.4,-22.2 3.7,-2 7.5,-3.6 11.8,-4.6 6,-1.4 11.7,-4.4 17.6,-6.4 2.6,-0.9 1,-1.8 0.2,-2.5 -1.2,-1.1 -1.9,-2.3 -1.3,-3.7 0.7,-1.5 2.2,-0.6 3.4,-0.7 5.9,-0.3 11.8,0.4 17.7,-0.8 3.3,-0.7 5.7,-1.8 6,-5.4 0.5,-5.4 3,-8.7 8.7,-9.8 3.7,-0.7 7.5,-1.6 10.7,-3.9 1.3,-0.9 2.9,-1 4,-0.3 1.1,0.7 0.8,2.5 0.3,3.5 -1.1,1.9 -0.3,3.9 -0.8,6.6 5.2,-5.2 11.6,-5.2 17.7,-6.2 2.2,-0.4 4.3,-1.8 6.5,-2.4 0.9,-0.3 2.5,-0.7 3.1,0.5 0.4,0.9 0.6,2.3 -0.6,3.1 -5,3.6 -3.3,7.7 -1,12 2.1,4 1.4,5.3 -2.9,5.7 -7.8,0.6 -10.2,4.8 -6.8,12.2 -2.9,0.6 -2.9,0.6 -8.5,-2.8 4.1,6.7 4.1,6.8 11.6,8.4 1.3,0.3 2.3,0.9 3.3,1.5 1,0.6 0.8,1.8 0.7,2.7 -0.1,1.3 -1.2,0.8 -2,0.9 -5.6,0.6 -6.5,1.6 -6.5,7.4 0,1.3 0.1,2.6 0,3.8 -0.5,4.6 1.7,7.5 5.8,9.2 1.9,0.8 4.5,1.4 4.3,3.8 -0.1,2.4 -2.3,3.4 -4.6,4.1 -3.3,1 -5.5,2.9 -4.7,7 0.6,2.8 0.4,5.8 1,8.7 0.7,3.2 4.4,3 6.3,5.2 2,-8.6 3.5,-16.9 3.1,-25.6 -0.1,-3.2 -0.9,-5.6 -3.2,-7.8 -3,-2.8 -2.8,-5.3 0.1,-8.2 7.4,-7.4 17,-10.9 26.2,-15.1 22.2,-10 45.3,-17.5 68.4,-25.1 10.4,-3.4 20.3,-8.1 31,-10.4 4.1,-0.9 8.2,-1.5 12.2,1.5 -3.4,3 -7.6,3.4 -11.4,4.7 -4.4,1.6 -8.6,3.5 -12.5,6 -1.2,0.8 -2.2,1.7 -3.1,2.8 -0.8,1 -0.7,2.6 -0.1,3.6 0.6,1 2,0.5 3.1,0.2 11.4,-3.2 22.8,-6.6 34.3,-9.5 3.7,-1 7.8,-0.8 11.6,-1.2 2.1,-0.2 3.8,0.6 4.3,2.5 0.5,2 -1.2,2.9 -2.9,3.5 -7.6,3 -13,8.4 -16.4,15.6 -1.7,3.6 -3.1,7.5 -4.3,11.3 -2.4,7.6 -4.4,15.4 -4.3,23.4 0.1,6.2 2.1,11.5 8.3,14.3 1.2,0.6 2.5,1.2 3.5,2.1 1.8,1.5 1.3,4.6 -0.8,4.6 -10.4,-0.1 -12.6,9 -16.8,15.3 -3.8,5.7 -4.6,13.1 -7.4,19.4 -3,6.8 -1.9,13.9 -3.9,20.6 -1,3.3 0.7,6.3 1.9,9.2 1.4,3.4 0.5,6.3 -1.1,9.1 -1.5,2.5 -3.8,2.6 -4.9,0.1 -1.9,-4.3 -6,-5.4 -9.6,-6 -5.3,-0.9 -10.6,-2.5 -16.1,-2 -13.1,1.2 -25.8,4.1 -38.2,8 -0.3,0.1 -0.5,0.7 -0.6,0.9 4.6,2.6 9.2,1.4 13.9,-0.2 1.4,-0.5 3.4,-0.9 4.8,0.6 1.9,1.9 -0.5,2.9 -1.1,4.3 -1,2 -1,3 1.2,4.7 4.2,3.2 8.5,6.5 11.8,10.8 2.8,-2.5 5.5,-4.6 9.3,-4.3 0.8,0.1 2,-0.4 2.3,0.5 0.3,1 0.3,2 -0.5,3.2 -4.7,6.8 -4.6,7.6 1.3,13.5 1.8,1.8 3.7,3.5 5.4,5.5 1.9,2.2 4,3.4 6.9,2.9 3.7,-0.6 6.1,0.1 4.8,5 4,-1.3 5.8,-4.7 9.3,-7.6 -5,0.1 -9.2,0.3 -13,-1.8 -1.5,-0.8 -2.9,-1.6 -4,-3 -0.6,-0.7 -1.9,-1.2 -1.4,-2.4 0.4,-1.2 1.6,-1.3 2.8,-1.4 9.9,-0.9 16.9,-6.3 22.9,-14 5.5,-7.2 10,-14.7 12.9,-23.3 0.5,-1.4 1.3,-2.7 2.2,-3.9 0.7,-0.9 1.5,-2.6 2.9,-2 1.3,0.5 2.3,1.8 2.3,3.7 0,6.7 -1.1,13.3 -2.1,19.9 -1.3,8.6 -3.7,16.9 -4.2,25.8 -0.3,6 -0.1,11.8 1,17.7 0.3,1.8 0.9,3.1 2.2,4.3 2,2 3.5,4.6 1.5,7 -1.9,2.2 -4.9,2.3 -7.7,0.8 -5.3,-2.9 -8.8,-7 -9.5,-13.2 -0.2,-1.3 -0.8,-2.6 -1.3,-4.3 -3.9,5.4 -8.9,8.8 -14.4,11.7 -1.6,0.9 -1.6,2.5 -0.8,4.1 1.2,2.3 2,4.8 2.4,7.4 0.7,4.6 5.4,5.7 7.9,8.7 2.6,3.1 2.7,3.9 -1.2,5.5 -2.2,0.8 -2.9,1.9 -2.7,4.1 0.7,7.6 -0.6,15 -2.4,22.3 -0.3,1.3 0.3,2.2 0.7,3.1 1.5,3.2 1,6 -0.7,9.1 -0.9,1.6 -2,1.5 -2.5,0.8 -2.5,-3.7 -3.8,-0.1 -4.3,1 -1.5,4.2 -4.8,7.1 -7.5,10.4 -3.6,4.5 -9.1,6.6 -14.1,9.1 -12.1,6.1 -24,4.6 -35.6,-1.4 -7.6,-4 -11.2,-11.3 -13.6,-18.9 -5,-15.9 0.9,-29.1 11.5,-40.8 5,-5.5 10.7,-10.2 16.9,-13.8 -1,-4 -2.4,-7.6 -7.6,-6.6 -0.1,0 -0.3,-0.1 -0.4,-0.2 -4.3,-4.2 -9.9,-4.8 -15.4,-6.1 -2.5,-0.6 -4.6,-2.1 -5.3,-5.2 -0.5,-2.7 -3,-2.9 -5.3,-3 -2.2,-0.1 -3.4,0.9 -4,2.9 -1.6,4.6 -2.6,9.2 -2.7,14.2 -0.1,14.6 -2.5,29 -2.7,43.7 -0.1,4.2 0.3,8.9 -1.4,13.2 -0.6,1.6 0.2,3.4 1.4,4.6 1.6,1.6 2.1,-0.9 3.3,-1.2 3.3,-1 9.8,1.7 11.9,5.5 1.3,2.3 -0.2,9.4 -2.5,10.7 -1.9,1 -3,-0.3 -3.2,-2 -0.6,-4.3 -3.8,-4.3 -6.6,-3.5 -4.8,1.4 -9.3,0.3 -13.9,-0.7 -0.8,-0.2 -1.2,-0.3 -1.6,0.6 -1.4,3.7 -4,6.8 -5.2,10.7 -1,3.1 -2.5,5.9 -6.7,5.2 -1.5,-0.3 -3.1,1.9 -3.4,4.3 -0.2,1.7 0.8,4.3 -1.9,4.4 -2.5,0.1 -4.3,-2.2 -4.9,-4.5 -0.8,-3.4 0.8,-7 0,-10.6 -0.4,-1.7 1.9,-2.3 2.9,-2.4 5.3,-0.5 7,-4.9 9.6,-8.3 -6.2,4.1 -13.7,5.3 -19.9,9.5 -1.2,0.8 -3.1,0.6 -4.6,0 -4.3,-1.8 -6.8,-0.3 -7,4.5 -0.1,1.4 0.2,3 -1.6,3.4 -1.8,0.4 -2.3,-1 -3,-2.3 -2.3,-4.4 -0.8,-9.5 4.1,-12.8 1.1,-0.7 2.2,-1.3 2.9,-2.3 2.4,-3.7 6,-3.4 9.5,-2.9 5.2,0.7 13.2,-2.6 15.8,-6.8 0.4,-0.7 0.6,-1.2 0,-1.8 -0.6,-0.6 -1.1,-1.1 -2.1,-0.4 -1.1,0.7 -2.6,0.9 -3.5,-0.2 -2.1,-2.7 -3.6,-1.5 -5.8,0.1 -3.5,2.5 -7.7,2.9 -11.9,1.8 -5.1,-1.3 -9.4,1 -14,2.3 -0.3,0.1 -0.4,0.9 -0.5,1.4 -1,2.6 -2.1,4.6 -5.6,4.6 -2,0 -4.5,0.7 -5.4,3.2 -0.6,1.7 -1.9,2 -3.3,1.7 -1.9,-0.3 -1.7,-1.8 -1.9,-3.3 -0.2,-1.7 0.4,-3.2 1.3,-4.3 1.8,-2.2 2.5,-4.9 3.9,-7.1 -1,-1.2 -1.6,-0.3 -2.2,0.2 -2.6,1.9 -5.4,2.7 -7.7,-0.1 -3.1,-3.8 -4.9,-1 -6.7,1.1 -1.1,1.2 -1.4,3.4 -3.6,2.2 -1.8,-1 -1.4,-3 -0.8,-4.6 1.5,-4.1 4,-7.4 8.7,-7.8 1.6,-0.1 2.1,-0.9 2.7,-2 1.7,-3 3.8,-5.6 7.5,-5.8 1,-0.1 1.5,-0.7 2.1,-1.3 1.9,-1.9 3.9,-1.9 5.9,-0.1 0.9,0.8 2,1.4 3,2.2 6.5,5.1 13.7,2.4 15.9,-5.6 1.4,-5.5 1.8,-11 1.7,-16.6 -0.1,-3.6 -0.5,-7.3 1.7,-10.6 1.1,-1.8 1.1,-3.6 -0.3,-5.4 -1.6,-2 -2,-4.6 -1.3,-6.8 0.9,-2.6 -0.1,-4.7 -1.2,-6.3 -1.9,-2.9 -3.2,-5.5 -1.6,-8.8 0.2,-0.3 0.2,-1.1 0,-1.2 -5,-4.2 -4.1,-11.4 -8.5,-15.9 -1,-1 -1.2,-1.9 -3.3,-1.4 -3.7,0.9 -7.1,-0.7 -8.7,-4.6 -1,-2.4 -2.6,-3.9 -4.9,-5 -8.1,-3.9 -9.5,-6.6 -8.5,-15.6 0.2,-1.9 -0.3,-3.1 -2.1,-4.4 -3.5,-2.4 -8.4,-3.7 -8.2,-9.4 0.1,-1.9 0.6,-3.7 2,-4.8 2.1,-1.7 2.2,-2.9 0,-4.7 -5.7,-4.7 -7.9,-10.5 -2.3,-18.6 1,-1.4 0.4,-1.4 -0.5,-2.1 -4,-3.3 -5.4,-11.6 -0.4,-15 1.6,-1.1 1.6,-2.3 0.9,-4.1 -1.4,-3.2 -0.9,-6.3 1.8,-8.7 1.8,-1.6 2.5,-3.2 2,-5.7 -0.7,-3.4 0.9,-6.2 3.1,-8.7 2.5,-2.9 6.6,-4.8 4.8,-9.9 -1.8,-0.7 -3.7,0.6 -5.5,1.3 -2.3,0.9 -4.6,1.6 -7.1,2 -3.3,0.5 -6.4,0.9 -8.1,4.6 -0.8,1.7 -2.8,3.4 -4.8,1.9 -2,-1.4 -1.8,-4.1 -0.4,-5.6 3.4,-3.8 -0.6,-4.8 -2,-6.9 -1.9,-2.8 -3.8,-0.4 -5.2,0.5 -2.1,1.3 -3.6,3.4 -5.8,4.8 -1.4,0.9 -2.5,1 -4.2,0.3 3.6,-6.4 7.8,-11.7 15.1,-14.2 2.3,-0.8 6.1,-1.4 6.2,-4 0.1,-2.7 -3.8,-1.7 -5.7,-3 -1.7,-1.2 -3.3,-2.5 -5.1,-3.4 -5.2,-2.8 -10.8,0.5 -11,6.5 -0.5,0.4 -0.5,1.6 -0.5,3.5 z"
   class="st1" />
		<path
   id="path2697"
   d="m 110.6,210.7 c -3.6,2.7 -3.7,3.1 -1.8,7.7 -1.6,0 -3.5,0.9 -4.6,-1.1 -0.7,-1.2 0,-3.3 2.7,-7.4 -6.9,1.1 -11.2,-1 -11.4,-8.2 -2.1,0.7 -2.9,1.8 -1.6,3.5 1.2,1.6 -0.6,2.4 -1,2.4 -1.4,0 -3.1,0.1 -4,-1.3 -0.9,-1.6 0.4,-1.4 1.4,-1.5 0.4,0 0.7,-0.3 0.4,-0.8 -0.3,-0.3 -0.6,-0.8 -0.9,-0.8 -1.5,0.1 -2.4,1 -2.3,2.5 0.2,3.1 3.1,5.1 6.1,4.2 4.7,-1.4 8,2 7.7,8.3 -1.9,-1.4 -3.5,-2.8 -5.4,-3.9 -0.5,-0.3 -1.4,-1.3 -2,-0.5 -0.6,0.9 -0.1,1.5 1.1,2.2 2.4,1.3 4.5,3.1 6.8,4.7 0.8,0.5 2.5,0.5 1.5,2 -0.9,1.3 -2.5,1.4 -3.5,0 -0.6,-0.8 -0.8,-1.8 -2.2,-1.7 0.7,2 1.8,3.6 3.8,4.1 1.2,0.3 2.6,0.1 1.2,1.8 -0.7,0.9 -1.4,2.2 -2.8,0.5 -1.1,-1.2 -2.7,-1.9 -3.9,-2.8 1.2,3.7 4,5.2 8.1,4 -0.6,2.5 1.5,5.7 -1.6,7.7 1.4,0.6 1.8,2.3 1.7,4.5 -0.4,6.6 -0.7,13.1 -0.8,19.7 0,1.7 -1.4,2.4 -1.7,3.7 -0.2,0.8 -0.9,2.4 1,2.7 1.5,0.2 1.2,-1 1.5,-1.8 1.2,-3 1.7,-6.1 1.6,-9.3 0,-1.4 0.5,-1.8 1.8,-1.5 l -0.1,-0.1 c 0.2,1.1 -0.4,2.1 -0.6,3.2 -0.4,2 -1.1,4.7 2.8,3.9 1.9,-0.4 1.4,1.2 1.1,1.9 -1.5,4.4 -1.6,9.2 -2.9,14 -0.9,-2.4 0.3,-5.2 -2.5,-6.9 -1,2.5 0.3,4.7 0.5,6.8 0.5,5.3 -1.2,9.8 -3.7,14.1 -1.4,2.4 -0.5,3.9 1.2,5.4 2,1.7 4.1,1.6 6.1,0.2 1.2,-0.8 2.5,-2.8 3.6,-2 1.4,1.1 2,3.2 2.7,5 0.5,1.2 -0.8,1.6 -1.4,2.4 -0.9,1.2 -1.7,0.5 -2.4,-0.3 -1.8,-2.2 -3.4,-1.7 -5.7,-0.3 -3.7,2.2 -7.8,3.4 -12.5,2.3 -5.8,-1.4 -11,1.6 -16.2,3.8 -0.7,0.3 -0.5,1.3 -0.9,1.8 -0.6,0.9 -0.1,3.2 -2.3,2.5 -2.3,-0.8 -3.6,-2.5 -3.6,-5 0,-1.9 1.2,-2.5 2.8,-2.3 4.3,0.6 6.7,-2.7 9.8,-4.6 0.6,-0.4 1.6,-1.1 0.7,-2 -0.6,-0.6 -1.6,-0.4 -2.3,0.3 -3.8,3.9 -8.2,4.2 -13.1,2.2 -1.6,-0.6 -2.5,0.2 -3.1,1.8 -0.7,1.7 -2.7,2 -3.9,1 -1.4,-1.2 -2.7,-2.7 -1.3,-5.1 1,-1.6 1.5,-2.6 3.8,-1.8 9.7,3.6 18.9,2 26.5,-4.9 4.7,-4.3 6.3,-10.7 6.7,-17.1 0.4,-6.8 -1.5,-13.8 2.4,-20.2 0.5,-0.8 0.2,-2.3 -0.3,-3.3 -1,-2.3 -2.6,-4.3 -2.2,-7 0.5,-3.5 4.5,-1.2 5.7,-3.9 -4.6,-0.3 -5.4,-5.3 -8.7,-7.4 -1.3,-0.8 0,-2.4 0.6,-3.3 0.7,-1 1.1,0.6 1.7,0.7 2.3,0.2 2.1,2.5 3.3,3.7 0,-1.4 0.4,-3.1 -0.9,-3.8 -5.5,-2.9 -6.3,-8.6 -8.6,-13.5 -1.2,-2.4 -1.9,-5.1 -4,-7.2 -1.8,-1.8 -1.3,-2.9 1.3,-8.3 -0.8,-1.1 -2.1,0 -3.4,-1.3 4.7,-0.7 4.9,-5.9 8.9,-7.8 2.1,-1 2.8,-5.1 4,-7.8 0.1,-0.3 -0.1,-1.1 -0.3,-1.1 -4.1,-1 -4,-5.6 -6.9,-8.2 -0.5,1.8 -0.9,3.5 -1.5,5.1 -0.2,0.6 -0.4,1.4 0,1.3 3.4,-1.2 2.2,2.5 3.2,3 3.5,1.5 1.8,4.5 1.2,5.7 -1.1,1.9 -3.5,3.1 -6.3,2.5 -2.1,-0.4 -4.5,-1 -6.3,0.9 -1.4,1.4 -2.2,-0.4 -3.3,-0.7 -1.2,-0.3 -1.5,-2.4 -3.3,-2 -0.9,2.3 2.1,1.9 2.3,3.3 -4.2,1.3 -7.6,-0.2 -9.2,-4.5 -0.4,-1.1 -0.6,-1.9 -1.8,-1.5 -1.5,0.4 -0.8,1.5 -0.5,2.4 1.9,5.6 5.9,7.3 11.8,5.5 3.3,-1 7,0.4 11.1,-1.7 -2.2,4.2 -5.3,5.6 -8.5,5.6 -5.5,0 -10.7,-1.6 -15.3,-5 -4.4,-3.3 -3.7,-7.4 -2.5,-11.5 0.6,-2.2 -0.2,-3.9 -1.7,-4.4 -4.7,-1.5 -2.2,-3.1 -0.4,-4.8 0.3,-0.3 0.5,-0.6 1,-1.4 -2.7,0.5 -3.7,2.2 -4.9,4.3 -3.3,-2.9 2.1,-5.5 0.1,-8.2 -1,1.7 -2.4,3.2 -2.2,5.6 -2.3,-1.1 -3.3,-2.8 -2.2,-4.8 1.4,-2.5 2.8,-4.9 6.3,-5.4 5.5,-0.9 11.2,1.3 16.5,-1.6 1.9,-1 4.1,-1.6 5.9,-2.7 1.4,-0.8 3.3,2.4 4.1,-0.7 0.5,-1.9 -0.7,-3.4 -1.4,-5 -0.4,-0.9 0.9,-2.8 0.6,-4.3 -0.2,-1.3 -0.7,-2.6 -1.1,-4.1 -1.2,1.9 -2.1,3.7 -2.4,6 -0.4,3.2 -3.2,4.8 -6,5.7 -3.5,1.1 -7.1,1.6 -10.7,2.4 -3.3,-0.2 -6.4,-0.7 -9.1,-4.4 2.4,4.4 5.9,4.1 9.2,4.3 -0.4,1.9 1.2,1.3 1.8,1.1 5.6,-1.4 12,-0.9 16,-6.7 0.4,2.2 0.1,2.7 -2.3,4.1 -7.4,4.3 -15.3,4.5 -23.3,2.6 -5.3,-1.3 -8.7,-8.6 -6.7,-13.4 1.2,-2.9 3,-5 6.9,-3.5 5.7,2 11.5,0.8 17,-1 1,-0.3 2.3,-1.7 2.9,-1.4 1.3,0.6 2.2,-2.4 3.6,-0.2 1.1,1.7 0.6,2.8 -1.4,4 3.9,0.6 4.2,-1.2 3.6,-3.6 -0.2,-1 -1.5,-1.9 -1,-2.9 1.3,-2.9 1.6,-6 1.2,-9 -0.5,-3 -1.7,-5.8 -1.8,-9.2 -2.4,1.3 -5.4,0.9 -7.1,4.4 2.2,-0.5 3.8,-0.9 5.3,-1.3 1.3,2.8 -0.9,3.9 -3.4,4.8 1.7,1.6 3.5,-1.8 4.4,0.7 0.7,1.9 -0.8,3.1 -2,4.3 -4.7,4.7 -4.5,5.6 -9.2,2.7 2.5,4.7 3.8,4.6 10.8,-1.5 1.3,1.6 -0.3,3.5 -0.9,3.7 -3.6,0.9 -6.2,4 -10.3,3.7 -5.3,-0.4 -10.7,0.7 -15.7,-2.5 -3.2,-2 -4.9,-4.3 -5,-7.8 -0.1,-4.4 2.9,-6.9 7,-5.9 6.2,1.6 12.3,0.9 19.2,-0.4 -2.4,-2 -4.5,-1.5 -6.3,-1 -4.7,1.3 -9,0.6 -13.2,-1.6 -2.5,-1.4 -4.2,-2.9 -2.5,-6.2 2.4,-4.8 4.3,-6.1 7.8,-4.8 5.7,2.1 11.3,2.1 16.9,-0.7 1.1,-0.6 2.4,-2.5 3.9,-0.6 1.6,2 -0.6,2.9 -1.5,4.2 -4.7,6 -10.5,9 -18.3,6 5.5,4.5 11.9,3.1 19.9,-4 1.7,0.8 -2.2,2.7 0.5,3 1.1,0.1 2.6,-1.3 2.4,-2.9 -0.3,-2.9 0.8,-5.8 -0.8,-8.6 -1,-1.7 0.8,-3.3 2.1,-4.2 0.9,-0.6 0.9,-3.4 3.3,-1.6 0.5,0.4 1.9,-0.4 3,-0.6 -4.5,-3.4 -5.3,-8.3 -1.8,-11.6 2.3,3.2 4.7,3 7.9,-0.5 -2.7,0.4 -5.1,1 -5.7,-1.6 -0.4,-1.7 -0.7,-3.9 1.4,-4.9 1.4,-0.7 3,0 4.2,1.1 1.2,1.1 2.6,2.1 3.9,3.1 2.6,2 3.1,0.7 2.9,-1.8 3.4,-0.1 4.3,1 2.8,3.7 -1.9,3.3 -4.7,5.8 -9.2,7.6 3.6,-0.8 4.9,-3.3 6.9,-4.6 1,-0.6 2,-2.3 3.2,-1.1 1.3,1.2 0.9,3.1 -0.4,4.1 -2.3,1.8 -3,5.2 -6.4,6.2 -0.2,0.1 0.7,0.7 0.3,0.3 0,0 0,-0.1 0.3,-0.3 6.4,-4.5 7.9,-8 6.5,-14 -0.6,-2.5 -1.6,-3.1 -3.8,-1.8 -1.2,0.5 0.1,-4.1 -2.5,-1.2 -0.7,0.8 -1.3,-0.6 -1.8,-1.1 -1,-1 0.2,-0.8 0.7,-1.2 2.1,-1.6 1.6,-3.9 0.8,-5.7 -1.1,-2.4 -3.1,-4.2 -5.6,-5.1 -0.5,-0.2 -2.1,0.6 -0.9,1.9 0.9,1.1 2.2,1.9 2.9,3.1 1,1.5 2.9,3.7 0.7,5 -1.6,1 -4.2,0.5 -4.7,-2.6 -2.2,1.4 -2.6,3.8 -4.4,5.4 -1.4,-2.4 -2.3,-4.6 -5.4,-1.1 -2.1,2.4 -6.1,1.4 -9.2,0.7 -2.1,-0.5 -4.1,-0.6 -6.2,-0.1 -8.7,2.2 -17,6 -26,7.3 -3.2,0.5 -3.2,4.5 -6.4,5.8 -0.1,-3.9 1.4,-6.4 5.1,-8 -2.6,-0.3 -3.9,-2.2 -5.4,-3.7 -0.5,-0.5 -1.7,-0.8 -0.8,-1.9 0.6,-0.8 1.8,-1.1 2.3,-0.6 6.7,5.7 13.5,1.5 19.6,-0.5 7.7,-2.5 14.9,-6 23.2,-6.5 3.8,-0.2 4.4,-3.1 2.2,-8.3 2.6,0.1 4.3,1.5 4.8,3.8 0.6,2.8 -1.4,4.5 -3.6,6 2.3,-0.7 5.1,-0.6 5.5,-3.9 0.6,-4.4 -1.3,-6.9 -5,-7.7 -13.2,-3.1 -25.7,-0.5 -38.1,3.7 -4.3,1.4 -8.7,1 -11.6,-2 -6.2,-6.5 -13.8,-4.8 -19,3.1 -0.7,-5 3.5,-12.3 8.9,-14.4 7.9,-3 15.9,-5.5 23.9,-8.3 0.3,-0.1 0.5,-0.2 0.8,-0.3 3,-1.3 5.6,-4.2 9.4,-1.8 -2.3,-1.9 -4.6,-3.7 -7.1,-5.7 2.3,-1.6 4,0.3 5.8,0.3 5.9,0 11.8,0 17.4,-1.9 4.1,-1.4 8.1,-0.4 12.1,-0.7 1.3,-0.1 2.4,0.5 2.3,1.8 -0.1,1.3 -1.3,1.6 -2.5,1.6 -3.6,0.1 -7.2,-0.5 -11.5,0.6 2.7,2.2 4.5,-0.2 6.4,0.2 8.2,1.7 8.8,1.3 12.8,-5 4.6,-7.4 10.3,-13 19.9,-13 2.8,0 5.9,-1 9.1,-2.4 -8,5.5 -2.1,10.7 -0.3,15.6 -2.7,2.7 -6.9,-0.1 -9.6,3.2 -2.5,3.1 -2.5,6.2 -1.3,9.9 -2.1,-2.3 -4.9,-2.9 -7.5,-2.1 -2.3,0.7 -4.6,2 -6.3,3.9 -4.2,4.5 -5.1,4.6 -10.6,1.7 -0.6,-0.3 -0.9,-0.3 -1.3,0.1 -0.6,0.6 -0.2,0.9 0.2,1.3 1.4,1.9 3.4,2.9 5.5,2.2 5.5,-2 9.7,-0.1 13.4,3.9 0.2,0.3 0.7,0.3 1.8,0.7 -0.7,-5.4 -5.1,-5.8 -8.4,-7.6 1.1,-1.7 3.5,-3.8 4.8,-3 3,1.8 5.4,4.9 6,8.6 2.1,13.6 2.5,27.3 2.7,41.1 0.2,9.3 1.8,18.6 2.6,27.9 0.3,4.1 3,7.8 6.4,10.3 3,2.2 1.3,4.2 -0.2,5.6 -1.5,1.4 -3.8,2.4 -5.8,2.7 -5.2,0.8 -9.8,2.7 -13.4,6.6 -0.6,0.6 -0.7,0.6 -2.8,1 -0.6,-4 10,-7.3 0.7,-11.8 -3.5,-1.7 -5.1,-1.2 -7,2.5 2.1,0.4 3.9,-2.8 6,-0.7 0.5,0.5 0.9,1 1.4,1.5 -0.6,0.4 -1.1,0.8 -1.7,1 -0.5,0.2 -1.1,0.1 -1.7,0 -1.2,-0.1 -2.3,0 -3,1.1 -0.2,0.3 -0.1,1 0,1.1 1.2,0.8 2.1,0.2 2.9,-0.7 0.8,-0.9 1.2,-0.2 1.6,0.3 0.6,0.9 0.6,1.8 -0.2,2.7 -1.4,1.6 -4.4,3.3 -2.3,5.3 1.6,1.5 5,0.9 7,-0.8 5.2,-4.3 11.8,-5.4 17.5,-8.4 3.3,-1.8 5.5,-5.2 7.4,-8.5 4.7,-8.2 8,-16.9 8.8,-26.3 0.6,-6.5 3.3,-13.1 -0.9,-19.5 -1.4,-2.2 -1.1,-5.4 1.8,-6.6 7.2,-3 12.6,-8.7 19.4,-12.3 9.1,-4.8 18.2,-9.3 27.8,-13 9.5,-3.7 18.4,-9.1 28.2,-12.2 14.4,-4.6 28.1,-11.3 43.2,-14 7.7,-1.4 15.3,-4.2 23.2,-5.4 1.2,-0.2 2.4,-0.6 2.9,0.6 0.6,1.6 -1.2,1.4 -1.9,1.9 -3.6,2.6 -8.4,2.9 -11.3,6.9 -3.6,4.9 -5.8,10.5 -8,16.1 -3.4,8.5 -5.5,17.6 -6.2,26.7 -0.6,8 1.5,15.4 9.8,19.3 0.8,0.4 2.3,0.4 2.5,1.9 -6.8,1.7 -12.9,-0.8 -19.1,-3 -5.9,-2.2 -12.1,-3.3 -18.3,-4.6 -8.6,-1.8 -17.3,-1.9 -25.8,-3.6 -4.4,-0.9 -8.9,-1 -13.4,-1.1 -8.9,-0.2 -17.8,0 -26.7,-0.5 9.2,-3.9 18.9,-0.9 28.3,-3.2 -8.4,-2.5 -17.2,-0.6 -25.9,-0.8 7.7,-5.3 17.1,-1.7 25.2,-5 -7.3,-2.1 -14.3,2.8 -21.2,0.6 8.2,-3 17,-5.2 26.1,-6.6 -9,-0.7 -17.5,1.7 -26.1,4 8.6,-7.1 19.4,-6.6 29.5,-8.6 -7.3,-0.8 -14.5,-0.6 -21.3,2.7 -1.4,0.7 -2.9,0.3 -2.7,-0.3 0.3,-1 0.6,-1.7 2.1,-2.1 8.6,-2.2 17.1,-4.8 25.1,-8.6 5.1,-2.5 9.9,-5.5 15.3,-7.7 4.7,-1.9 9.4,-2.9 14.4,-3.2 0.9,0 1.7,-0.2 2,-1.4 -1.2,-0.9 -2.8,0.1 -4.4,-0.6 6.6,-1.8 13,-3.9 19.9,-4.1 -1,-1.4 -2.6,-0.2 -3.6,-1 4,-2.4 9.1,-2 12.8,-5.2 -1.9,-1.4 -3.6,-0.1 -5.2,0.4 -8.6,2.5 -17.4,4.8 -25.9,7.7 -13,4.5 -25.3,10.6 -37.9,16.1 -6.4,2.8 -13,5.2 -18.8,9.2 -0.9,0.6 -1.3,1.3 -1.8,2 -2.5,3.7 -5.8,5.8 -10.5,5 -1.3,-0.2 -2.6,-0.2 -3.4,1.1 -0.6,1 0.4,1.6 0.7,2.2 0.9,1.7 2,0.5 3.1,0.1 1,-0.3 2.2,-0.4 3.6,0.4 -3.3,0.4 -6.2,2.3 -9.3,0.4 -0.5,-0.3 -1.5,-0.2 -1.6,0.7 -0.1,0.8 0,1.3 1.1,1.8 2,1.1 3.9,1.9 6.2,2 -2.5,0.4 -4.9,0.9 -7.3,-0.3 -0.9,-0.4 -2.6,-0.5 -2.9,0.8 -0.4,1.4 1,1.5 2,1.7 1.2,0.2 2.4,0.7 3.4,1.3 0.4,0.3 1.6,-0.2 1.3,1 -1.3,-0.5 -1,2.4 -2.2,1.2 -2.1,-2.1 -2.8,-0.1 -3.9,1 1,1.2 3,-0.5 3.6,1.7 -0.2,0.9 -1.6,1.4 -2,0.8 -2,-2.5 -2.6,1.2 -4,0.8 1.7,0.4 0.3,2.9 2.2,3.2 0.6,0.1 1.1,0.7 2.2,1.4 -3.6,0.2 -4.8,-2.6 -6.9,-3.9 -1.5,3.4 1,5 2.8,6.8 1.3,1.4 2.7,2.6 -0.2,4.1 -1.5,0.8 -2.6,2.6 -1.3,4.6 1,1.6 1.9,3.4 2.7,5 1.1,2.1 2.1,4.1 -1.8,3.9 -0.9,0 -1.3,0.3 -1.9,1.2 -3.3,5.7 -7.5,11.1 -5.9,18.4 0,0.2 -0.2,0.4 -0.3,0.7 -4.7,-2.3 -5.8,-1.9 -7.2,3.7 -0.4,1.6 -1.1,1.4 -2.2,1.7 -2.4,0.7 -4.5,2 -1.4,4.4 1.3,1 0.3,3.3 2.3,3.8 0.1,-0.2 0.3,-0.4 0.3,-0.6 0.5,-1.4 -2.2,-3.2 -0.2,-4 1.8,-0.7 1.9,1.9 2.7,3.1 0.3,0.5 0.4,1 1.3,0.9 0.1,-0.3 0.3,-0.6 0.5,-0.9 1.1,-1.5 -3,-2.4 -0.6,-3.6 1,-0.5 0.8,2.5 3.5,3 -3.6,-5.3 1.5,-7.2 3.1,-10.6 0.9,-2 1.4,-4.2 2.2,-6.6 3,4.1 2.4,9.1 4.3,13.7 1.3,-6.5 -0.2,-11.9 -4,-16.6 -1,-1.3 -0.3,-1.9 0,-2.9 0.3,-0.9 1.1,-0.8 1.5,-1.2 1.4,-1.5 1.7,-5.1 4,-4.5 2.6,0.7 3.7,3.8 5.1,6.3 4.3,7.7 6,16.3 8.3,24.7 1.6,5.7 0.7,11.4 -0.4,16.9 -0.5,2.3 0,4.5 -0.6,6.8 -0.3,-0.1 -0.9,-0.2 -1,-0.4 -0.7,-4.1 -3.5,-6.3 -7.2,-6.7 -4.5,-0.5 -9.2,-1.1 -13.2,2.2 -1.5,1.2 -3.4,1.7 -4.6,4.3 -0.5,-8.2 -1.6,-11.1 -5.2,-13.7 0.6,4.5 4,8.1 3,13.4 -1.5,-3.2 -2.8,-5.7 -4,-8.3 -3.1,-7 -12.2,-8.4 -17.6,-7.2 -3.5,0.7 -4.1,3.2 -2,6.3 0.3,0.4 0.7,0.9 0.7,1.4 0.2,4.4 2,2.1 3.6,0.9 0.7,-0.6 1.5,-1.2 2.2,-1.8 -1.2,-1.2 -3,1.7 -4.6,-1.6 -2.2,-4.4 1.1,-3.5 2.5,-3.7 6.5,-0.7 13.3,4.5 15.9,11.9 1.9,5.4 3.8,5.8 7.9,1.8 4.7,-4.7 10.9,-5.6 17.1,-3.1 2.7,1.1 3.5,3.3 3.8,5.4 0.7,4.8 2.9,4.6 6.1,2.5 1.3,-0.8 2.8,-1.2 3.8,-2.5 0.8,-1.2 2.1,-1.2 3.1,-0.8 6,2.3 12,4.5 17,8.8 11.7,10.1 22.1,21.4 33,32.3 3.1,3.1 4.1,9 4.4,13.9 0.3,4 3.4,7.3 2.7,11.6 0,0.1 0.6,0.6 0.9,0.5 0.7,-0.1 0.7,-0.7 0.7,-1.3 -0.1,-1.2 -1.6,-2.1 -0.4,-3.6 3.4,4.7 4.2,10.4 5.2,15.7 1.1,5.4 2.6,10.8 2.1,16.5 -1.4,14.3 -5.7,27.5 -15.7,38.1 -6.3,6.7 -14.4,10.1 -23.7,11.5 -8.7,1.3 -16.4,-0.4 -23.6,-4.8 -7.5,-4.5 -11.3,-11.8 -12.8,-20 -2.9,-16.1 3.7,-28.6 15.9,-38.9 3.8,-3.2 7.9,-5.8 12.1,-8.5 -3.1,3.1 -6.2,6.1 -9.4,9.2 0.2,0.3 0.5,0.6 0.7,0.9 3.7,-3.5 7.6,-6.7 11.9,-9.3 -1.9,3.4 -4.8,5.8 -8.3,8.8 5.5,-1 7.9,-5.7 13.1,-7 -2.4,3.4 -5.7,4.5 -8.1,7 3.8,0.5 5.3,-3.5 9.2,-3.8 -3,2.8 -5.9,4.4 -8.3,6.9 -8.1,8.3 -11.1,18.4 -10.2,29.7 0.6,7.1 7.2,13.6 14.5,14.5 -2.7,2.7 -4.7,6 -9,2.5 -1.3,-1 -2.8,0.4 -4.3,0.6 -0.1,-1.3 1.8,-1.7 1.2,-2.9 -0.2,-0.3 -1,-0.5 -1.5,-0.4 -1.8,0.4 -0.2,2.3 -1.3,3.2 -2.5,-2.2 -0.8,-4.8 -0.5,-7.3 -2.2,-0.5 -1.6,2.5 -3.4,2.4 -1.5,-2.1 -0.4,-5.1 -2.8,-6.7 -0.1,0.2 -0.3,1 0,1.5 1.6,3.1 0.8,5.2 -2.9,6.1 2.1,-0.6 3.6,-2.5 5.8,-1.1 -1.4,2.4 0.1,5.3 -1.3,7.7 -0.5,0.9 -1,2.1 0.1,2.5 0.7,0.2 2,-0.7 2.7,-1.4 0.4,-0.5 0.2,-1.6 0.3,-2.9 0.8,1.7 1.7,2.7 3.1,3.1 1.9,0.4 3.1,1.3 2.7,3.6 -0.2,1.1 0.6,1.9 1.7,2 0.5,0.1 1.5,-0.2 1.5,-0.4 0.1,-0.7 0.1,-1.4 -0.6,-2.2 -0.8,-0.9 -0.5,-1.9 1.2,-2.6 6.4,-2.3 11.5,-6.7 16,-11.7 5.3,6.7 11.1,6.7 16.8,-0.3 -2.8,1.1 -5.2,1.9 -7.5,3 -1.6,0.7 -3.4,1.2 -4.1,-0.4 -1,-2.4 -4.2,-3.6 -3.3,-6.9 0.9,-3.2 1.5,-6.4 2.2,-9.5 3.2,3.6 8.5,4.8 13.2,2.9 2.6,-1.1 5.3,-6.9 4.8,-11 -1.5,1.7 -2.4,3.5 -2.9,5.5 -0.7,2.7 -2.2,4.7 -5,4.6 -2.9,-0.1 -5.9,-0.6 -7.9,-3.4 -2.4,-3.4 -2.8,-7.3 -3.5,-11.9 3,2.7 6.4,3.5 9.4,2.5 3,-1 6.1,-2.1 8.8,-4.4 2.1,-1.9 4.1,-3.9 6.2,-5.8 0.5,-0.5 1.1,-1.9 0.9,-2 -0.9,-0.8 -1.7,-0.4 -2.5,0.4 -1.9,2 -3.8,3.9 -5.8,5.7 -1.4,1.3 -3.2,2.1 -5,2.9 -5.1,2.2 -9.9,0.4 -11.8,-5 -0.8,-2.2 -2.6,-3.9 -2.6,-6.5 4.2,1.1 8.5,1.2 12.1,-0.7 4.6,-2.4 2.9,-7.3 2.8,-11.5 -0.4,2.3 -3.7,3.6 -1.8,6.9 0.4,0.7 -0.9,2.5 -2.3,3.1 -2.8,1.2 -5.7,0.8 -9.5,0.7 2.9,-0.9 5,-1.6 8.1,-2.6 -2.4,-0.7 -3.4,-0.8 -4.7,0.1 -2,1.3 -5,1.6 -6,-0.2 -1.3,-2.3 -2.2,-5.8 1.9,-7.2 0.5,-0.2 1.1,-0.2 1.1,-1 0.8,-0.8 1.9,-1.2 2.7,-2 3.7,-3.3 3.8,-3.3 7.3,0.2 0.4,-1.3 -0.8,-1.9 -1.3,-2.7 -0.5,-0.9 -0.6,-1.9 -1.5,-2.9 -1.9,3 -4.4,5.4 -7.1,7.6 -1.8,0 -3.7,-0.1 -5.5,-0.1 -5,0 -8.2,-2.2 -10.2,-6.7 -0.9,-1.9 -0.6,-3.2 1.3,-3.5 5.6,-0.7 8.6,-4.9 12.1,-8.5 2,-2.1 0.7,-5.7 -2.4,-7.5 3,5.7 -0.5,8.8 -6.1,12.6 -4.4,2.9 -9.3,1.4 -13.9,0.3 -1,-0.2 -2.2,-1.7 -2.4,-2.7 -0.2,-1.6 1.8,-1.3 2.6,-2 3.1,-2.5 6.8,-4.5 8.4,-8.6 0.7,-1.9 3.9,-1.7 4.2,-4.7 -3.5,-0.3 -4.6,2.2 -6.1,4.5 -2.5,4 -6.4,6.4 -10.4,8.7 -1.1,0.6 -2.7,0.7 -5.1,-1 9,-1.4 13.9,-6 14.6,-14.4 -1.3,0.3 -1.1,1.8 -1.8,2.5 -0.9,1 -1.3,2 -1.7,3.3 -1.1,4.6 -5.8,4.6 -9,6.3 -0.7,0.4 -1.5,0.2 -2.3,0.8 -3.6,3.1 -7.2,2.2 -9.2,-2.2 -1.6,-3.5 -5.1,-3.8 -8.2,-4.5 -4.3,-1.1 -4.8,-1.6 -3.8,-5.7 -1.6,0.7 -2,1.4 -2.1,3.9 -1.6,-0.2 -0.8,-1.5 -1,-2.3 -0.2,-0.7 -0.4,-1.3 -0.5,-2 -0.1,-2.2 -3.5,1.3 -2.9,-1.6 0.3,-1.4 1.8,-2.5 2.2,-3.9 1.4,-4.6 3.2,-9.2 0.3,-13.9 -0.5,-0.9 -0.9,-2 -2,-1.7 -1.2,0.4 -0.9,1.9 -0.5,2.6 3.2,5.8 0.8,11.2 -1.2,16.6 -0.4,1 0.8,0.7 1.4,3.1 0.8,3.1 3.5,5.9 2.1,9.5 -2.2,5.6 -2.5,11.4 -2.4,17.2 0.4,13.4 -2.2,26.6 -2,40 0.1,4.8 0.2,10 -1.4,14.9 -0.8,2.5 0.3,4.8 2.5,6.2 2.2,1.3 4.3,0.6 6.3,-1.5 -1.5,2.6 -2,4.8 0.4,6.8 -2.1,0.8 -4.1,-0.2 -6.1,0.8 -1.7,0.8 -2.5,-1 -3.2,-2.4 -0.3,-0.5 -0.9,-0.9 -1.4,-1.3 -0.4,0.4 -1.1,1 -1,1.2 0.7,2 0.1,2.9 -1.6,1.5 -0.8,-0.7 -4.6,0.4 -2.4,-2.8 0.7,-1 0.5,-1.6 -0.3,-2.1 -1.3,-0.9 -1.9,0.6 -2.1,1.1 -2.5,5.9 -6.4,11.1 -8.2,17.3 -0.2,0.8 -0.2,2 -1.4,1.3 -3,-2 -6.4,-1.2 -10.2,-1.8 1.9,-2.3 4.3,-2.9 6.4,-3.9 5.5,-2.7 6.2,-8.8 9.3,-13.1 0.3,-0.4 0.1,-1.3 -0.5,-1.3 -0.6,0 -1.4,0.3 -1.8,0.8 -6.7,7.8 -17,8.7 -25.3,13.9 -0.5,-2.1 -0.5,-4.1 -1.9,-5.7 -0.6,-0.7 -2.2,-1 -1.3,-2.5 0.8,-1.3 2.2,-2 3.6,-1.5 9.6,3.6 15.1,-3 21.7,-8.1 3.3,-2.5 5.4,-5.3 7,-8.7 0.8,-1.8 2.9,-0.9 3.8,-2.8 1.3,-3 2,-5.9 1.3,-9.3 -1.1,3 -2.2,5.9 -3.4,9.1 -2.2,-2.7 -1.8,-5.6 -1.3,-8.1 0.5,-2.5 0.6,-5 0.7,-7.5 0,-0.8 -0.6,-2.1 1,-2.3 1.5,-0.2 1.4,0.8 1.6,1.8 0.1,0.8 0.6,1.5 0.8,2.3 0.2,1 0.9,1 1.6,0.9 0.9,-0.1 1.2,-0.6 0.7,-1.4 -1.9,-3.1 -1.3,-6.3 -0.7,-9.6 0.6,-2.8 0.6,-5.6 0.9,-9 -2.3,1.6 -5.1,2.3 -2.6,5.6 0.5,0.7 0.5,2.5 0,3.3 -0.7,1.1 0,2.9 -1.7,3.4 -1.4,0.4 -2.1,-0.7 -2.8,-1.6 -1,-1.4 -0.8,-2.9 0.5,-4.1 0.6,-0.6 1.1,-1.2 1.8,-1.9 -2.1,-1.4 -5.4,-1.2 -4,-5.4 1,-3.2 5.2,-0.9 5.5,-4.6 -6.4,3.2 -7,-2.9 -8.1,-5.8 -2,-4.9 4.1,-4.3 6.4,-6.7 -0.6,-0.2 -1,-0.5 -1.2,-0.4 -3.6,2.3 -6,1.2 -8.2,-2.1 -1.8,-2.8 -4.3,-5.1 -1.2,-8.6 0.2,-0.3 0.4,-4 -1.7,-5.6 -2,-1.5 -3.6,-3.5 -6,-5.8 5.5,0.1 10,-0.6 13.2,-4.5 -4.5,2.5 -9.1,3.6 -14.1,1.2 1.7,0 3.5,0 5.2,0 -3.7,-1.6 -7.1,-3.1 -4.9,-8 4.2,-1.1 7.9,-2.8 9.1,-5.3 -1.1,2.6 -5.1,4 -9,5.4 z"
   class="st0" />
		<path
   id="path2699"
   d="m 233.2,99.1 c -3.5,0.4 -7.1,-0.2 -11.1,1.8 4.7,0.4 8.5,-0.7 12.4,-0.7 3.7,0 6.8,1.2 9.7,2.9 2.7,1.5 -1,1.8 -1.2,2.9 2.7,0.8 4.5,-2.7 7.2,-1.3 -0.5,1.2 -1,2.4 -1.5,3.6 2,-1.7 4.2,-2.4 7.1,-2.6 -4,7.8 -9.9,14.3 -12.5,22.5 -2.5,8 -5.3,15.9 -7.2,24.1 -1.9,8.5 1.4,16.7 0.8,25.3 -1.3,-4 -4.5,-5.7 -7.7,-6.5 -6,-1.6 -12.1,-2.9 -18.4,-2.8 -10.9,0.2 -21.4,2.2 -31.8,5.3 -6.7,2 -12.8,4.7 -17.6,10.9 -1.2,-4.7 0.5,-7.9 1.2,-11.1 2.7,-12 -1.3,-23 -5.5,-33.7 -2.1,-5.3 -4.7,-10.5 -7.9,-15.3 -0.7,-1 -0.1,-2.8 0.3,-4.4 3.3,8.1 8.2,15.2 13.7,21.8 -1.4,-4.6 -3.9,-8.5 -7.4,-12 2,1.4 4.4,2.1 5.6,4.5 0,-4.5 -5.4,-5.9 -6.2,-10 2,-0.1 2.3,1.8 4.4,1.6 -3.4,-3.3 -6.7,-6.7 -10.1,-9.9 -0.9,-0.8 -3.2,-0.9 -1.7,-2.8 1.4,-1.8 2.3,0.6 2.8,1 3.7,3.1 7.9,5.8 10.4,10.2 -0.8,-5.4 -5.7,-7.8 -8.3,-11.9 7.8,5.9 17.1,8.9 25.3,14 10,6.2 19.7,13 29.4,19.7 7.1,4.9 13.7,11.1 17.3,19.6 0.6,1.4 1.4,2.5 2.7,1.9 1.6,-0.7 0.9,-2.2 0.3,-3.5 -3.1,-6.9 -8.6,-12.1 -14.3,-16.4 -14.1,-10.7 -28.3,-21.5 -44.7,-28.8 -7.5,-3.3 -14.5,-7.1 -20.1,-13.1 2.8,-1.6 4.9,1.8 7.6,1.4 0.1,-2 -2.8,-1.3 -2.7,-3.2 1.5,-0.1 3,-0.2 4.6,-0.2 -0.7,-1.3 -2,-0.2 -3.5,-1.9 10.9,1.5 19.4,7 29.2,8.9 -3.8,-1.7 -7.6,-3.6 -11.5,-5.1 -5,-1.9 -9.8,-4.2 -15.1,-5.1 -0.5,-0.1 -1.2,0.1 -1.4,-0.6 -0.2,-0.7 0.4,-0.8 0.9,-1.1 2.5,-1.6 -1.8,-0.3 -0.2,-1.7 4.1,1 8.6,2.8 13.6,1.4 -4.7,-1.4 -9.3,-1.7 -14.4,-2.4 1.4,-1.7 3,-2.3 4.9,-2.3 8.4,0 16.8,-0.4 25.1,0.1 11.1,0.6 22.2,1.9 33.4,3.1 -3.8,0 -7.5,0.5 -11.8,1.6 9.2,0.8 17.6,-3.2 25.9,0.3 z"
   class="st0" />
		<path
   id="path2701"
   d="m 201.2,44.9 c 8.7,-2 17.1,-4.6 25.5,-7.5 0.6,-0.2 1,-0.2 2.3,0.8 -15.8,6.8 -32.8,9 -46.9,18.7 13.4,-6 27.1,-11.5 41.7,-14 -3.8,1.2 -7.6,2.4 -11.3,3.7 -14.6,5 -28.4,12 -42.8,17.4 -10.8,4.1 -19.9,10.9 -29.3,17.3 -1.2,0.9 -2.6,1.5 -3.9,2.2 -5.9,3.1 -7,6 -4.4,12.1 0.3,0.8 0.9,1.4 -0.5,2.4 -3,2.2 -2.2,6.3 -3.6,9.4 -1.6,3.6 -3.8,7.1 -4.3,12 4.5,-6.4 5.4,-13.6 9,-19.6 0.2,6.8 -0.9,13.3 -4.5,19.2 -0.7,1.2 -1.3,2.1 -1,3.4 -1.4,1.2 -2,3.1 -3.5,4.2 -0.2,0.2 -0.4,0.3 -0.6,0.4 0.3,-0.1 0.5,-0.3 0.8,-0.5 1.4,-1.2 2.2,-2.8 3.2,-4.2 2.7,-2.1 3.2,-5.5 4.9,-8.2 -1.3,8.6 -4.7,16.2 -9.6,23.5 -3.4,-3.5 -7.6,-6.4 -7.2,-12.2 0.1,-1 0,-1.9 0.9,-2.7 6.7,-5.4 6,-13.9 8.4,-21 2,-5.8 0.7,-12 1,-18 0.1,-2.3 -1.2,-3.9 -2.7,-5.4 -3.1,-3.3 -2.7,-5.1 0.8,-8 9.2,-7.5 20.4,-11.1 31.1,-15.8 17,-7.5 34.6,-13.4 52.2,-19.2 11.5,-3.8 22.9,-8.2 34.3,-12.1 3.2,-1.1 6.3,-2.9 10.1,-2.2 -21,10.6 -43.2,17.6 -65.1,25.4 0.1,0.4 0.3,0.8 0.4,1.2 14,-4.9 28.1,-9.9 42.2,-14.9 -0.9,3.2 -2.1,3.7 -7.5,5.3 -6.4,1.9 -13.1,2.8 -19.1,5.9 -0.6,0.3 -1,0.4 -0.7,1.1 -11.5,3.7 -22.6,8.5 -29.3,11.2 6.5,-2.8 17.7,-7.1 29,-11.3 z"
   class="st0" />
		<path
   id="path2703"
   d="m 264,169.4 c 0.4,8.3 -1,15.5 -2.4,22.6 -1.5,7.2 -3.2,14.2 -3.6,21.6 -0.4,7 -1.1,13.8 1,20.6 0.7,2.4 1.5,4.7 3.2,6.5 0.8,0.9 1.7,1.9 0.8,2.9 -0.7,0.8 -2.1,0.6 -3.1,0 -4.2,-2.3 -7.4,-5.8 -8.2,-10.4 -0.9,-4.5 -2.6,-8.8 -1.7,-14.6 -3.4,3.2 -4.2,7 -6.7,9.7 -2.9,3.1 -5.7,5.9 -9.3,8 -1.2,0.7 -2.2,2.6 -4.3,0.9 -2.1,-1.7 -3,-4.1 -3.5,-6.4 -0.2,-0.9 1.4,-2.1 3.1,-2.3 2.7,-0.3 5,-1.6 6.7,-3.7 3.1,-3.9 7.5,-6.1 11.1,-9.5 -8.2,2.4 -15.8,2.6 -23.7,-3.9 13.2,1 19.7,-7.5 26.3,-15.3 5.8,-6.8 9.3,-15.1 12.7,-23.3 0.2,-0.7 0.7,-1.6 1.6,-3.4 z"
   class="st0" />
		<path
   style="opacity:1;fill:none;fill-opacity:1"
   id="path2705"
   d="m 182.8,301.9 c 2.4,-1.3 4.3,-2.3 7.1,-3.8 -1.5,-1.1 -2.4,-2.2 -3.6,-2.7 -1.6,-0.6 -4.2,-0.5 -4.5,-2 -0.6,-2.8 -0.6,-6 0,-8.8 1.8,-8.2 5.7,-15.1 12.4,-20.5 2.1,-1.7 2.9,-1.7 3.7,0.9 3.8,12.1 7.4,24.2 2.8,37 -2.3,6.5 -6.8,8.1 -12.7,4.4 -2,-1.1 -3.4,-2.6 -5.2,-4.5 z"
   class="st0" />
		<path
   style="fill:none"
   id="path2707"
   d="m 117.7,244.3 c 2,0.9 2.7,2.3 2.4,4.2 -0.4,2.5 0.5,4.6 1.7,6.7 1.4,2.4 1.7,4.9 2,7.8 0.5,4.1 0.8,8.6 2.6,12.6 0.7,1.6 0.8,3.2 0.4,4.5 -1.9,6.3 1,13.2 -3.2,19.2 -1.6,-3.6 -6,-3.7 -9,-6.1 -1.9,-1.5 -4.3,0.2 -5.8,2 -1.5,1.9 -2.7,0.4 -3.9,-0.2 -1.8,-0.9 -0.6,-2.2 -0.1,-3.1 3.7,-6.8 4.9,-14.3 6.8,-21.7 1.8,-7.1 2.4,-14.5 5.7,-21.2 0.6,-1.4 0.3,-3 0.4,-4.7 z"
   class="st0" />
		<path
   id="path2709"
   d="m 61.7,107.4 c 2.8,0.8 5.7,1.6 8.5,2.5 -5,2.6 -9.4,-0.5 -13.9,-1.7 -1.6,-0.5 -2.1,-2.4 -1.5,-4.3 2,-6.8 5.6,-9.2 12.5,-7.9 3.9,0.8 7.5,0.1 11.1,-1.2 1.1,-0.4 2.1,-2.4 3.6,-0.8 1.2,1.4 2.3,3.2 1.3,4.9 -2.1,3.9 -4.6,7.8 -9.1,9.1 -2.3,0.6 -5.1,0.1 -7.5,-0.6 -1.8,-0.6 -3.4,-0.2 -5,0 z"
   class="st0" />
		<path
   id="path2711"
   d="m 71.7,89.8 c 1.5,2 2.9,3.3 5.9,2.4 -3.2,2.3 -11.7,2.6 -14.1,1 -1.7,-1.1 -1.1,-2.7 -1.2,-4.2 -0.1,-1.5 0.8,-2 2.2,-2.5 2.3,-0.9 4.7,-0.6 7,-0.8 4.2,-0.3 8.4,0.8 12.5,-0.7 1.2,-0.4 1.7,0.7 2.3,1.4 1.1,1.2 -0.5,1.8 -1,2.1 -3,1.5 -5.8,4.2 -9.6,1.8 -1,-0.6 -2.5,-0.4 -4,-0.5 z"
   class="st0" />
		<path
   id="path2713"
   d="m 75.3,35.2 c 0.5,-1.9 0.7,-3.8 1.4,-5.6 1.1,-3.1 2.3,-6.1 6.5,-6.3 2.1,-0.1 4,-2 6.1,-2.3 2.2,-0.3 4.1,-1.1 6,-2.3 -4.2,6.2 -10.2,10.7 -15.3,16 -1.1,1.4 -3.1,0.5 -4.7,0.5 z"
   class="st0" />
		<path
   id="path2715"
   d="m 47,74.9 c 7.5,-1.4 14.7,-2.6 21.8,-4.1 2.4,-0.5 4.6,-0.9 6.8,0.3 0.6,0.3 1.9,-0.3 1.8,1 -0.1,0.8 -0.8,1.5 -1.7,1.6 -6.5,0.3 -12.6,2.6 -19,3.6 -3.8,0.6 -6.9,1.2 -9.7,-2.4 z"
   class="st0" />
		<path
   style="fill:none"
   id="path2717"
   d="M 77.5,69 C 67.1,67.7 57.4,72.4 47.2,72.8 50.3,65.6 71.8,63 77.5,69 Z"
   class="st0" />
		<path
   id="path2719"
   d="m 111,233 c -1.6,0.5 -1.4,2.3 -2.4,3.2 -1.5,-0.6 -1.2,-1.9 -1.3,-3.1 -0.2,-2.2 0.7,-4.5 -1.4,-6.3 -0.9,-0.9 -0.3,-2.2 0.9,-2.8 1.2,-0.6 1.9,-0.3 2.5,1.1 0.7,1.6 1.6,3.2 2.7,4.6 2.1,2.4 2,4.8 0.3,7.2 -0.7,1.1 -1.4,1.8 0.5,2.4 0.7,0.2 1.6,0.9 1.1,1.9 -0.5,1.1 -1.3,1.3 -2.2,0.5 -1.5,-1.4 -2.9,3.4 -4.3,0.2 -1.2,-2.5 1.8,-2.9 2.7,-4.4 0.8,-1.4 2.4,-2.7 0.9,-4.5 z"
   class="st0" />
		<path
   id="path2721"
   d="m 21.4,86.3 c 4.1,-6.1 11.2,-7.4 16.8,-10.8 0.4,-0.3 1.2,-0.2 1.7,0 1.8,0.7 4.2,1.3 4.1,3.4 0,0.9 -2.5,1.8 -4.1,1.6 -5.2,-0.6 -9.7,1.2 -14.3,3.3 -1.5,0.7 -1.9,3 -4.2,2.5 z"
   class="st0" />
		<path
   id="path2723"
   d="m 85.3,292.6 c -3.2,2.1 -6.3,2.6 -9.3,3.3 -1.7,0.4 -3.9,1 -5.3,-1.3 -1.4,-2.2 -0.7,-4.3 0.1,-6.3 0.6,-1.4 1.8,-1 2.7,-0.1 3,3.4 6.8,5 11.8,4.4 z"
   class="st0" />
		<path
   id="path2725"
   d="m 107.4,254.4 c -0.2,-1.3 -0.5,-2.6 -0.7,-3.9 2.5,1.4 2.5,1.4 4.7,-1.8 -1.1,-1.1 -1.8,1.3 -3,0.3 -1.1,-0.9 -2,-2.2 -1.8,-3.5 0.3,-2 1.9,-0.5 2.9,-0.6 5,-0.7 5.5,0 4,4.7 -0.8,2.3 -1.3,4.7 -2,7.1 -1.8,-0.3 -2.3,-2.7 -4.3,-2.4 0.1,-0.1 0.2,0.1 0.2,0.1 z"
   class="st0" />
		<path
   id="path2727"
   d="m 154.1,321.5 c -0.2,-3.8 -2.5,-5.2 -3.9,-7.1 -0.8,-1.1 -1.6,-2.4 0.1,-3.9 1.8,-1.6 2.4,-0.1 3.4,0.8 3.8,3.6 3.9,4.6 0.4,10.2 z"
   class="st0" />
		<path
   id="path2729"
   d="m 71.8,201 c 4.5,1.5 7.7,2.1 10.9,0.6 0.4,-0.2 1.2,0.1 1.4,0.4 0.4,0.5 -0.1,1 -0.4,1.4 -3.7,5.4 -6.4,5.4 -9.9,0 -0.3,-0.5 -0.8,-1 -2,-2.4 z"
   class="st0" />
		<path
   id="path2731"
   d="m 87.8,32.7 c -1.9,0.8 -2.9,3.8 -5.9,2.3 3.5,-4.3 7.7,-7.8 12.1,-11.3 2.5,3 -3.1,3.2 -2.1,5.7 -0.1,0.2 -0.2,0.3 -0.3,0.5 -1.1,1 -2.1,2 -3.3,2.7 -0.1,0.1 -0.3,0.1 -0.5,0.1 z"
   class="st0" />
		<path
   id="path2733"
   d="m 112.5,91 c 0,-3 0,-5.3 0,-7.8 2.6,1.3 5,2.5 7.4,3.6 -1.4,3.2 -5,1.8 -7.4,4.2 z"
   class="st0" />
		<path
   id="path2735"
   d="m 87.9,331.3 c -3,-4.1 -1.5,-6.8 0.7,-9.6 1.1,-1.4 2.5,-1.9 4.2,-1.7 0.9,0.1 1.5,0.7 1.7,1.6 0.2,1.1 -0.9,1 -1.4,1.1 -3.9,1.1 -6.1,3.5 -5.2,8.6 z"
   class="st0" />
		<path
   id="path2737"
   d="m 48.9,305.2 c 0.4,-3.7 2.2,-6.2 5.4,-7.7 1.1,-0.6 2,-0.8 3,0.1 0.9,0.8 0.9,1.9 0.6,2.7 -0.5,1.6 -1.4,-0.4 -2.3,0 -2.6,1.2 -5.3,2.1 -6.7,4.9 z"
   class="st0" />
		<path
   id="path2739"
   d="m 116.9,330.2 c -1.2,3.6 -4.7,5.4 -4.6,9.6 -3.1,-5.9 -1.8,-8.6 4.6,-9.6 z"
   class="st0" />
		<path
   id="path2741"
   d="m 210.3,197.7 c -2.8,2.1 -3.8,4.4 -4.3,7.2 -1.1,-1.4 -3.9,-2 -2.7,-4 1.1,-2.1 3.1,-4.2 7,-3.2 z"
   class="st0" />
		<path
   id="path2743"
   d="m 60.5,294 c 1.6,-1.4 2.6,-3.2 4.7,-4 1.1,-0.4 2.2,-1.3 2.8,-0.1 0.6,1.2 0.4,3.1 -1.2,3.5 -2,0.4 -3.8,1.7 -6.3,0.6 z"
   class="st0" />
		<path
   id="path2745"
   d="m 68.5,309.2 c 0.8,1.1 1.8,2.2 3,3.7 -2.1,0 -3.2,1.2 -4.4,2.5 -0.5,0.6 -1.2,1.6 -2,1 -0.8,-0.7 -0.5,-1.7 0.2,-2.6 1.2,-1.6 2.2,-3.2 3.2,-4.6 z"
   class="st0" />
		<path
   id="path2747"
   d="m 117,297.1 c 2.1,0.3 2.9,1.9 4.1,3 0.5,0.4 1.8,1.3 0.9,1.7 -1.1,0.5 -1,2.5 -2.7,1.9 -1,-0.4 -1.6,-0.9 -1.8,-2.1 -0.1,-1.4 0.7,-3 -0.5,-4.5 z"
   class="st0" />
		<path
   id="path2749"
   d="m 186.5,180.8 c -0.8,2.4 -2.3,3.8 -1.1,6.7 -2.3,-2.1 -5.6,-2.5 -5,-4.6 0.5,-1.9 3.8,-1.1 6.1,-2.1 z"
   class="st0" />
		<path
   id="path2751"
   d="m 113.5,110.7 c 1.7,1.2 4.9,0.7 4.9,3.8 0,1.3 -1.1,1.9 -2.4,1.8 -0.8,0 -1.9,0.2 -1.8,-1.1 0.1,-1.5 -0.2,-3 -0.7,-4.5 z"
   class="st0" />
		<path
   id="path2753"
   d="m 109.8,64.1 c 0.3,-2.6 -0.6,-5.3 0.7,-5.4 2.1,-0.2 4.8,0 7.4,2 -3.2,0.2 -6,0 -8.1,3.4 z"
   class="st0" />
		<path
   id="path2755"
   d="m 92,29.5 c 1.3,-0.1 1.5,-2.2 3.4,-1.5 -1.8,2.2 -4,3.8 -5.3,6.2 -0.4,0.7 -1,2.2 -2.4,1.4 -1.4,-0.9 0.7,-1.9 0.1,-2.9 0,0 -0.1,0.1 -0.1,0.1 1.6,-1 2.8,-2.5 4.4,-3.5 z"
   class="st0" />
		<path
   id="path2757"
   d="m 45.8,77 c 2.1,1.2 3.9,1.5 5.3,3.1 -1.2,1.1 -2.4,2.5 -4,1.7 C 45.2,81 46.3,79.1 45.8,77 Z"
   class="st0" />
		<path
   id="path2759"
   d="m 236.3,258.4 c 1.5,1.8 2.8,3.4 4,4.8 -3.6,1.5 -4.3,0.9 -4,-4.8 z"
   class="st0" />
		<path
   id="path2761"
   d="m 38.7,71.2 c 2.8,0 4.8,0 6.7,0 0.4,1.7 -1.4,2.5 -1.3,4.1 -1.6,-1.2 -3.1,-2.4 -5.4,-4.1 z"
   class="st0" />
		<path
   id="path2763"
   d="m 233.8,296.4 c 1.8,2 1.7,4.2 0,6.2 -1.7,-2.1 -1.6,-4.2 0,-6.2 z"
   class="st0" />
		<path
   id="path2765"
   d="m 222.5,223.8 c 1.5,0 2.8,0 4.1,0 -1.9,3.3 -2.1,3.3 -4.1,0 z"
   class="st0" />
		<path
   id="path2767"
   d="m 182.9,297 c 1.4,-0.2 2.4,0.2 2.5,1.3 0,0.3 -1.3,1 -2,1.2 -0.9,0.2 -1.7,-0.6 -1.8,-1.4 -0.3,-1.5 1,-1 1.3,-1.1 z"
   class="st0" />
		<path
   id="path2769"
   d="m 109.9,257.9 c -0.4,0.7 -0.8,1.5 -1.7,1.4 -0.7,0 -0.9,-0.7 -0.7,-1.1 0.3,-0.5 0.9,-1.1 1.5,-1.3 0.6,-0.2 0.9,0.4 0.9,1 z"
   class="st0" />
		<path
   id="path2771"
   d="m 117.6,117.6 c -0.2,1.6 -1.3,2.2 -2.3,2.8 -1,-2.4 0.6,-2.6 2.3,-2.8 z"
   class="st0" />
		<path
   id="path2773"
   d="m 108.6,33.7 c 1.2,-0.5 2.4,-1 3.6,-1.5 0.2,0.3 0.5,0.7 0.7,1 -6.8,6 -14.7,10.5 -23,14.8 3.4,-5 6.6,-10.1 10.2,-15 0.6,-0.9 1.6,-5 4.3,-1.2 0.5,0.7 1.7,-0.5 2,-1.5 0.8,-2.8 3.3,-3.7 5.3,-5.3 2.5,4.6 -1.2,6.1 -3.9,8 0.3,0.2 0.6,0.4 0.8,0.7 z"
   class="st1" />
		<path
   id="path2775"
   d="m 61.4,57.6 c -1.9,-2.4 -3.9,-4.7 -6.6,-6.3 -0.9,-0.5 -3.1,-1.4 -1.4,-3.2 1.6,-1.7 1.7,1.1 2.7,1.3 0.5,0.1 0.8,0.7 1.8,1.6 -0.2,-3.7 0,-6.8 2.2,-9.4 1.2,0.5 1.7,2.1 3.4,2.7 3,1.2 6.8,0.9 8.5,5.2 0.8,2 4.3,3.8 6.4,0.1 1.8,1.8 -2.4,3 0.5,4.3 -1.1,1.5 -2,1 -3,-0.1 -1.8,-2 -3.8,-2.1 -5.9,-0.3 -2.1,1.9 -1.1,2.9 2.2,4 -4.5,0 -7.8,0 -11,0 z"
   class="st1" />
		<path
   id="path2777"
   d="m 230,278.3 c -3.2,1.2 -5.2,4.3 -8.8,4 -0.2,-1.8 1,-2.8 2.2,-3.9 0.4,-0.3 0.9,-0.9 1.3,-0.8 1.6,0.3 5.5,-0.9 6,-2.2 0.4,-1.1 0.3,-2.5 0.6,-4.5 2.4,3.8 1.7,7.4 1.3,10.5 -1.4,11 -6.1,20.7 -12.5,29.5 -4,5.5 -9.8,8.6 -16.1,10.7 -1,0.3 -2,-0.1 -2.6,-1.4 5.3,-0.7 8.1,-5.1 12.4,-7.6 -1.3,1.4 -2.6,2.9 -3.9,4.3 9.3,-2.6 18.7,-21.8 20.1,-38.6 z"
   class="st1" />
		<path
   id="path2779"
   d="m 59.1,176.3 c 0.9,-0.6 2.1,-0.4 2.9,-1.4 1.8,-2.4 3,-1.9 3.1,1 0,0.9 0.4,1 0.9,0.8 4.9,-2 10.3,0.8 15.3,-1.6 2.4,-1.2 3.6,-2.9 4.6,-5 0.2,-0.6 1.6,-4 -1.9,-2 -0.5,-1.5 -1.3,-2.9 -1.4,-4.4 0,-0.9 1.1,-1.8 1.8,-2.7 0.2,-0.3 0.8,-0.4 1.1,-0.3 0.3,0.1 0.6,0.8 0.5,0.9 -1.7,2.4 0.5,3 1.8,4.1 2.2,2 1.9,4.3 1.1,7.1 -2.1,6.9 -8.1,7.7 -13.6,8.9 -3.8,0.8 -7.7,1.7 -11.8,0.8 6.2,-2.6 12.8,-3.2 19,-5.3 -7.9,1.9 -15.7,1.9 -23.4,-0.9 z"
   class="st1" />
		<path
   id="path2781"
   d="m 139.7,213.3 c 1.5,6 -3.1,8.3 -6.5,10.9 -2.1,1.7 -3.6,3.1 -3.8,6.5 2.9,-3.5 6.8,-4.6 10.1,-8 0.2,3.1 -1.9,3.3 -2.8,4 -5,3.6 -5.7,5.5 -4.4,11.3 1.2,5.1 2.1,10.2 3,15.3 0.6,3.1 -1.5,5 -3.4,6.9 1.1,-4.7 0.1,-9.2 -0.8,-13.7 -0.8,-3.9 -1,-7.9 -1.8,-11.9 -0.5,-2.6 -1.3,-4.8 -5,-2.8 -1.5,0.8 -5,2.9 -5.2,-2.3 4.3,2.1 7.6,1.2 9.2,-3.1 1.2,-3.1 4.4,-2.7 6.1,-4.8 2.3,-2.3 4.9,-4.6 5.3,-8.3 z"
   class="st1" />
		<path
   id="path2783"
   d="m 120.4,158.6 c -1.3,0.3 -2.5,0.7 -3.8,1.5 -2.2,1.3 -4.5,2.8 -7.6,1.6 -1.5,-0.6 -4,0.4 -4.9,2.7 -0.2,0.6 -0.7,1.2 -0.9,1.9 -0.5,2.2 -1.6,5.2 -3.6,4.3 -2.3,-1 0.4,-3.2 1,-4.8 1.4,-3.9 3,-7.3 8.8,-6.6 1.7,0.2 5.3,-2.6 8,-4 4.1,-2.3 4.4,-1.8 3,-5.3 3.4,1.3 3.7,2.1 2.7,4.9 -0.6,1.7 -2.2,2.5 -2.8,4 z"
   class="st1" />
		<path
   id="path2785"
   d="m 108,77.7 c -2.4,-0.8 -1.3,-4.5 -4.1,-3.9 -2.1,0.4 -0.1,2.7 -1.3,3.9 -1.2,-3.8 -4.7,-6 -6.2,-9.7 3.5,-0.9 3.9,2.7 6.4,4.5 -0.5,-1.6 -0.8,-2.6 -1.2,-3.9 2,0.3 1.9,3 4.3,3.2 -2.6,-4.3 -6.4,-6.8 -9.6,-9.9 -0.5,-0.5 -1.3,-0.7 -0.9,-1.4 0.4,-0.7 1.5,-0.7 1.9,-0.2 3.6,3.4 7.4,6.6 10.3,10.6 1,1 1,4.5 0.4,6.8 z"
   class="st1" />
		<path
   id="path2787"
   d="m 102.1,85.5 c 1,-0.5 0.6,-2.5 2,-2.3 1.2,0.2 2.2,1.2 2.4,2.6 0.8,4.2 2.4,8.1 -2.3,11.8 -2.5,2 -4,5 -8,4.4 5.3,-1.9 8.1,-5.8 9.1,-11.2 -2,1.6 -4,3.2 -6,4.9 -1,0.9 -1.8,2.4 -3.5,1.6 -1.6,-0.8 -1.4,-2.3 -1,-4.2 1.7,2.8 3.4,2.4 5.1,0.3 1.3,-1.6 2.7,-3.1 4,-4.8 2.3,-3.1 0.2,-3.1 -1.9,-3.4 0,0.2 0.1,0.3 0.1,0.3 z"
   class="st1" />
		<path
   id="path2789"
   d="m 90.5,296.1 c 0.3,-0.9 0.3,-2 0.8,-2.2 5.6,-3.2 7.2,-8.3 7.6,-14.3 0.2,-3.1 3,-5.7 2.5,-9.2 -0.1,-0.6 0.6,-0.9 1.2,-0.6 0.5,0.3 1.4,0.6 0.9,1.5 -1.8,3.1 -1,6.6 -1.4,9.9 -0.7,5.1 -6.1,11.9 -11.6,14.9 z"
   class="st1" />
		<path
   id="path2791"
   d="m 158.1,227.6 c 9.5,-1.3 10.6,-8.2 12.7,-14.5 2.7,1.9 2.7,1.9 0.3,6.7 -3.3,6.7 -7.3,9.6 -13,7.8 z"
   class="st1" />
		<path
   id="path2793"
   d="m 203.7,254.4 c 0,-0.4 -0.2,-1.1 0,-1.2 3.5,-2.2 5.3,-5.8 7.6,-9.6 1.3,2.7 0.6,5.8 3.3,7.5 0.3,0.2 1.1,2.8 -1,3.4 -0.4,0.1 -0.7,0.3 -1,0.5 1.9,-2.9 -3.5,-2.6 -1.9,-5.5 -2.9,1.5 -3.5,5.3 -7.1,4.9 0,-0.1 0.1,0 0.1,0 z"
   class="st1" />
		<path
   id="path2795"
   d="m 173.9,308.8 c -2.2,0.2 -4.5,0.3 -5.2,3.1 -0.2,1.1 -0.6,1.6 -1.6,0.9 -0.6,-0.4 -1.6,-1.2 -0.7,-2 2.8,-2.3 5.1,-4.6 3.7,-8.9 -0.3,-1.1 1.1,-2.4 2.5,-3.2 -1.2,3.6 2.8,6.5 1.1,10.2 0.1,0 0.2,-0.1 0.2,-0.1 z"
   class="st1" />
		<path
   id="path2797"
   d="m 160.2,205.7 c 1.4,5.8 -4.6,14.5 -10.3,15.2 4.2,-4.6 7.9,-9.5 10.3,-15.2 z"
   class="st1" />
		<path
   id="path2799"
   d="m 112.4,201.1 c 2.7,2.8 1.7,6.6 -1.5,7 -3.5,0.5 -7.1,0.5 -10.5,-0.1 -1.6,-0.3 -3.8,-2 -3,-4.7 6,5 7.6,5.2 12.9,2.6 2,-0.9 2.9,-1.8 2.1,-4.8 z"
   class="st1" />
		<path
   id="path2801"
   d="m 61.3,57.4 c -0.5,3.6 -2.8,1.7 -4.3,1.2 -3.3,-1.2 -6.5,-3 -9.3,1 -0.7,1 -1.5,0.3 -2,-0.4 -0.7,-0.9 0.3,-1.1 0.8,-1.5 3.2,-2.7 6.5,-4.2 10.2,-1 1.5,1.3 3.2,0.5 4.8,0.9 -0.1,0 -0.2,-0.2 -0.2,-0.2 z"
   class="st1" />
		<path
   id="path2803"
   d="m 66.1,140.2 c -2.5,0 -5.1,-0.1 -7.6,0 -4.2,0.3 -5.6,-2.9 -7.3,-5.7 -0.3,-0.5 -0.3,-1.5 0.4,-1.8 0.3,-0.2 1.2,0.2 1.4,0.5 2.5,5.9 8.4,5.2 13.1,7 z"
   class="st1" />
		<path
   id="path2805"
   d="m 229.3,251.2 c 1.6,6.2 5,12.4 1.9,19 1.1,-6.4 -2.8,-12.5 -1.9,-19 z"
   class="st1" />
		<path
   id="path2807"
   d="m 96.2,162.7 c 0.5,1.7 -0.4,3.5 0.8,5.3 0.6,0.9 -0.8,2.8 -1.3,1.8 -1.3,-2.3 -5.2,-2.9 -4.5,-6.5 0.2,-0.9 0.7,-1.6 1.5,-1.8 1.8,-0.3 0.1,1 0.5,1.5 1.4,2 1.9,-0.9 3,-0.3 z"
   class="st1" />
		<path
   id="path2809"
   d="m 201.3,322.3 c -3.4,0.2 -6,-0.3 -7.8,-2.9 -1.6,-2.4 -0.6,-4.7 2.2,-5.5 0.7,-0.2 1.8,-1.4 2.3,0.2 0.3,1.1 -1.1,0.9 -1.6,1.2 -3.1,2 -0.8,3.3 0.6,4.5 1.1,1 2.6,1.6 4.3,2.5 z"
   class="st1" />
		<path
   id="path2811"
   d="m 110.6,210.7 c 0.6,-1.4 2.1,-1.9 3.3,-2.3 3.4,-1 5.3,-3.4 6.1,-6.6 0.3,-1.2 0.9,-1.3 1.8,-1.2 1.1,0.1 0.9,0.8 0.6,1.5 -1.6,3.7 -6.9,9.3 -11.9,8.4 0,0.1 0.1,0.2 0.1,0.2 z"
   class="st1" />
		<path
   id="path2813"
   d="m 141.8,213.9 c -0.8,-6 -8.4,-9.1 -4.1,-15.6 0.3,0.3 1.1,0.9 1.1,1 -2.3,3.1 0,5 1.8,7.1 1.5,1.9 2.2,4.1 1.2,7.5 z"
   class="st1" />
		<path
   id="path2815"
   d="m 62.6,159.4 c -4.1,1.3 -7.6,0.8 -10.1,-3 -0.5,-0.7 -2,-1.2 -1,-2.3 0.7,-0.7 1.9,-0.4 2.6,0.6 2,2.9 5.3,3.8 8.4,4.9 0,-0.1 0.1,-0.2 0.1,-0.2 z"
   class="st1" />
		<path
   id="path2817"
   d="m 104,125.6 c 0.4,-3 -1.3,-5 -3,-7.1 2.7,-1.7 4.2,4.9 7,-1.1 -0.1,4.4 -1.3,6.5 -4,8.2 z"
   class="st1" />
		<path
   id="path2819"
   d="m 99.7,193.4 c -1.3,2.8 -1.4,5.5 -1.9,8.1 -1.7,0.1 -2.2,-1.3 -3.1,-2.1 2.9,-1.3 0,-3.9 1.2,-5.2 0.4,-0.5 2.5,0.3 3.8,-0.8 z"
   class="st1" />
		<path
   id="path2821"
   d="m 103.8,189.4 c 0.6,-1.1 -1,-3.3 1.6,-3.2 1.6,0.1 2.3,1.4 1.9,2.7 -0.5,1.4 0.1,3.9 -2,3.9 -2.7,0.1 -0.7,-2.4 -1.5,-3.4 z"
   class="st1" />
		<path
   id="path2823"
   d="m 101.4,106.6 c -0.2,-5.8 5.9,-4.1 7.1,-7.4 -0.6,3.9 -3.9,5.1 -7.1,7.4 z"
   class="st1" />
		<path
   id="path2825"
   d="m 216.4,235.9 c 0.2,-2.4 3.2,-1.9 3.6,-4.1 0.2,-1.1 1.5,-0.3 1.9,0.3 0.7,1.1 1.1,2.9 -0.2,3.2 -1.6,0.5 -3.3,2.1 -5.3,0.6 z"
   class="st1" />
		<path
   id="path2827"
   d="m 154.7,203.3 c 3.5,4.1 -1.1,5.2 -2.1,8 -1,-3.1 -1,-3.1 2.1,-8 z"
   class="st1" />
		<path
   id="path2829"
   d="m 97.3,111.1 c 3.1,3.9 4.3,-0.8 6.3,-1.1 0.8,-0.1 1.3,-2 2.6,-0.6 0.2,0.2 0.6,0.4 0.9,0.6 -0.9,0.6 -2.2,2 -2.6,1.8 -1.6,-1 -2.1,0.4 -2.6,1.1 -2.6,3.1 -3.7,1.1 -4.6,-1.8 z"
   class="st1" />
		<path
   id="path2831"
   d="m 124.9,222 c 2.2,-1.5 4.1,-3 5.2,-5.3 0.2,-0.4 0.9,-0.5 1.4,-0.6 0.1,0 0.5,0.6 0.5,0.9 0.3,2.5 -4,5.8 -7.1,5 z"
   class="st1" />
		<path
   id="path2833"
   d="m 193,236.4 c -2.4,4.3 -6.7,3.4 -10.4,4.3 -0.6,0.1 -1.2,-0.2 -1.1,-0.9 0.1,-0.5 0.8,-1.3 0.9,-1.2 4,1.6 7.3,-0.5 10.6,-2.2 z"
   class="st1" />
		<path
   id="path2835"
   d="m 223.9,267.2 c 0.6,3.1 -1,5 -2.9,6.7 -0.5,0.5 -1.1,1.2 -1.7,0.6 -0.7,-0.6 -0.6,-1.8 0,-2.3 1.9,-1.2 2.2,-3.8 4.6,-5 z"
   class="st1" />
		<path
   id="path2837"
   d="m 83.7,124.4 c 1.4,2.9 2,6.2 5.8,3 -0.9,2.2 -2.1,4.6 -3.9,4 -2.6,-0.9 -2.3,-3.8 -1.9,-7 z"
   class="st1" />
		<path
   id="path2839"
   d="m 191.9,248.5 c 3.1,2.1 6.2,3.4 9.9,1.5 -4.5,3.6 -7.4,3.1 -9.9,-1.5 z"
   class="st1" />
		<path
   id="path2841"
   d="m 160.8,223.4 c -0.6,2.6 -2.6,3 -4.7,2.7 -1.2,-0.2 -3.5,-0.6 -3.2,-2.2 0.5,-2.2 2.3,-0.5 3.3,-0.1 1.7,0.6 3.1,-0.6 4.6,-0.3 z"
   class="st1" />
		<path
   id="path2843"
   d="m 219.3,243.3 c 0.8,0.3 1.7,1.8 2.2,-0.1 0.3,-0.9 0.2,-2.4 1.5,-1.2 1.2,1.3 -0.6,2.7 -0.9,4.2 -0.1,0.7 -2.3,1.1 -3,-0.3 -0.3,-0.7 -1.7,-1.4 -0.5,-2.5 0.1,-0.2 0.5,-0.1 0.7,-0.1 z"
   class="st1" />
		<path
   id="path2845"
   d="m 223,298.8 c -2.9,2.3 -6.1,3.4 -9.7,1.4 3.2,-0.5 6.5,-1 9.7,-1.4 z"
   class="st1" />
		<path
   id="path2847"
   d="m 218.7,303 c -4.5,3.6 -7.5,3.3 -10.5,-1.7 3.8,2.7 7,4.4 10.5,1.7 z"
   class="st1" />
		<path
   id="path2849"
   d="m 95.3,108.1 c -2.9,3.2 -4.8,3.5 -5.7,0.9 -0.3,-1 -0.1,-2 0.8,-2.5 0.9,-0.5 1.3,0.5 1.4,0.9 0.6,3 2.6,-0.6 3.5,0.7 z"
   class="st1" />
		<path
   id="path2851"
   d="m 168.9,288.7 c -0.7,1.1 1.3,2 0.5,2.5 -1.2,0.8 0,3.2 -1.6,2.9 -2.2,-0.4 0,-1.6 0.1,-2.5 0.1,-1.4 -2.3,-2 -0.9,-3.6 0.5,-0.6 1,-1.6 1.9,-1.3 1.3,0.6 0.4,1.4 0,2 z"
   class="st1" />
		<path
   id="path2853"
   d="m 98.3,191.2 c 0.2,-1.7 0.7,-3.2 0.5,-4.9 0,-0.4 -0.6,-1.6 0.7,-1.3 0.6,0.2 2,0.1 1.8,1.3 -0.4,1.8 -0.5,4 -3,4.9 z"
   class="st1" />
		<path
   id="path2855"
   d="m 208.5,228.8 c -1.3,-0.1 -2.3,-0.6 -2.2,-1.7 0.1,-2.3 3.1,-0.7 3.8,-2.4 0.4,0.5 1.2,1.1 1.1,1.5 -0.4,1.3 -1.4,2.3 -2.7,2.6 z"
   class="st1" />
		<path
   id="path2857"
   d="m 142.2,226.9 c 0.1,1.1 -5.3,6.3 -6.2,6 -0.6,-0.2 -0.8,-1 -0.4,-1.3 2.4,-1 3.5,-3.3 5.1,-5.2 0.5,-0.5 1.3,-0.4 1.5,0.5 z"
   class="st1" />
		<path
   id="path2859"
   d="m 101.9,175.8 c 1,1.8 2.5,2.1 4.5,1.8 -1.5,1.3 -2.2,3.5 -4.2,2.5 -1.7,-0.9 -0.6,-2.6 -0.3,-4.3 z"
   class="st1" />
		<path
   id="path2861"
   d="m 201,311.4 c 2.6,1.3 4.6,3.3 7.4,1.7 -3.4,3.6 -4.7,3.3 -7.4,-1.7 z"
   class="st1" />
		<path
   id="path2863"
   d="m 110.5,194.2 c 1.5,-2.3 0.8,-4.2 1.2,-5.9 3.6,2.4 3.5,3.6 -1.2,5.9 z"
   class="st1" />
		<path
   id="path2865"
   d="m 141.3,190.5 c -0.7,1.2 -1.3,2.4 -2.7,2.4 -1.3,0 -2.9,0.7 -3.9,-0.5 -0.3,-0.4 -0.7,-2.1 1.1,-1.9 0.6,0.1 1.3,0.7 1.9,0.7 1.1,0 2.3,-0.4 3.6,-0.7 z"
   class="st1" />
		<path
   id="path2867"
   d="m 94.3,137.6 c 1.4,-1.3 2.7,-0.7 3.9,-0.8 1,-0.1 2.3,-0.4 2.5,1.3 0,0.3 0.4,0.9 0.3,0.9 -1,0.7 -1.7,0.1 -2.6,-0.4 -1.2,-0.6 -2.7,0.4 -4.1,-1 z"
   class="st1" />
		<path
   id="path2869"
   d="m 107.3,138.8 c 0,1.7 -1.4,1.6 -2.1,2 -1.5,0.7 -2,-1 -2.8,-1.8 -0.6,-0.7 0.1,-1.3 0.6,-1.7 1.7,-1.4 1.7,0.5 2.1,1.2 0.6,1 1.7,0 2.2,0.3 z"
   class="st1" />
		<path
   id="path2871"
   d="m 31.2,60.1 c 1,0.1 2,0.7 1.9,1.7 -0.1,1.2 -1.1,1.8 -2.3,1.6 -1,-0.2 -1.9,-0.8 -1.7,-1.9 0.2,-0.9 1,-1.6 2.1,-1.4 z"
   class="st1" />
		<path
   id="path2873"
   d="m 98.4,121.5 c -1.1,2.7 -3.1,2.9 -5.6,2.2 0.7,-4.1 4.2,-0.2 5.6,-2.2 z"
   class="st1" />
		<path
   id="path2875"
   d="m 27.7,60.1 c -1.3,-1.9 3.6,-3.3 -0.3,-4.7 0.3,-0.3 0.5,-0.7 0.8,-0.9 0.7,-0.5 1.2,-0.3 1.8,0.2 0.7,0.7 1,1.6 0.5,2.2 -0.7,1.2 -1.8,2.1 -2.8,3.2 z"
   class="st1" />
		<path
   id="path2877"
   d="m 221.4,262.1 c 0.4,2.7 -0.5,4.5 -3.2,6.6 0.9,-2.9 0.3,-5.3 3.2,-6.6 z"
   class="st1" />
		<path
   id="path2879"
   d="m 179.2,211.7 c -1.8,0.1 -2.3,-0.6 -2.7,-1.3 1.6,-0.2 2.1,-2.2 3.9,-2.1 0.6,0.1 1.3,0.3 1,0.9 -0.6,1.3 -1.4,2.4 -2.2,2.5 z"
   class="st1" />
		<path
   id="path2881"
   d="m 105.5,108.2 c 0.5,-2.6 1.4,-4.2 3.1,-5.3 0.4,3 0.4,3 -3.1,5.3 z"
   class="st1" />
		<path
   id="path2883"
   d="m 87,120.6 c -0.4,0.1 -1.2,-0.3 -1,-1.6 0.1,-0.7 -0.2,-2.1 0.9,-1.7 0.9,0.3 2.5,0.3 2.5,2.1 0,1.3 -0.8,1.1 -2.4,1.2 z"
   class="st1" />
		<path
   id="path2885"
   d="m 205.7,241.8 c 1,-2.4 0.6,-4.5 2.6,-5.3 0.3,-0.1 1.1,0.2 1.1,0.3 -0.2,1.9 -1.1,3.5 -3.7,5 z"
   class="st1" />
		<path
   id="path2887"
   d="m 167.9,189.9 c -3.2,1.9 -3.2,1.9 -5.1,-1.8 2,-0.3 3.1,1.3 5.1,1.8 z"
   class="st1" />
		<path
   id="path2889"
   d="m 109.2,135.4 c 2.2,-3 1.2,-5.5 1.9,-8.1 1.1,2.9 2.9,5.6 -1.9,8.1 z"
   class="st1" />
		<path
   id="path2891"
   d="m 207.8,217.9 c 0.5,0.4 1.8,-2.1 1.8,0.2 0,1.1 -0.6,2 -1.7,2 -1.2,0 -2.2,-1.2 -2.3,-2.1 -0.1,-0.6 1,-1.9 2.2,-0.1 z"
   class="st1" />
		<path
   id="path2893"
   d="m 120.8,185 c -1.3,-0.1 -3,1.4 -3.4,-0.7 -0.1,-0.3 -1.5,-2.1 0.3,-2.4 2.3,-0.4 1.6,2.5 3.1,3.1 z"
   class="st1" />
		<path
   id="path2895"
   d="m 226.6,253.7 c -1,0.4 -0.4,2.5 -1.9,2.1 -0.8,-0.2 -2,-1.2 -2.1,-1.9 -0.1,-1.9 1.8,-0.5 2.7,-1.2 0.6,-0.4 1.3,0 1.3,1 z"
   class="st1" />
		<path
   id="path2897"
   d="m 177.1,202.8 c -1,1.1 -0.9,3 -2.8,3 -0.8,0 -1.7,-0.3 -1.3,-1 0.7,-1.1 1.9,-2 3,-2.9 0.1,-0.1 0.7,0.6 1.1,0.9 z"
   class="st1" />
		<path
   id="path2899"
   d="m 160.5,195.4 c 2.1,-1.4 3.6,0.5 5.8,0.3 -2.7,3.2 -4.1,0.1 -5.8,-0.3 z"
   class="st1" />
		<path
   id="path2901"
   d="m 119.3,174.2 c -1.5,0.9 -2.9,1.3 -4.2,0.3 -0.2,-0.2 0,-1.6 0.3,-1.8 1.7,-0.7 2.6,0.8 3.9,1.5 z"
   class="st1" />
		<path
   id="path2903"
   d="m 95.9,131.8 c -0.7,1.5 -1.4,2.7 -3.1,2.4 -0.9,-0.2 -0.9,-1.2 -0.6,-1.7 0.8,-1.8 2.4,-0.3 3.7,-0.7 z"
   class="st1" />
		<path
   id="path2905"
   d="m 170.4,185.7 c -0.5,0.4 -1,1.1 -1.5,1.2 -1.3,0.1 -1.7,-1.2 -2.5,-1.9 0.4,-0.5 0.8,-1.3 1.3,-1.3 1.2,-0.1 1.7,1.2 2.7,2 z"
   class="st1" />
		<path
   id="path2907"
   d="m 102,156.5 c -0.4,3.8 -0.9,4 -3.9,1.9 1.3,-0.6 2.6,-1.2 3.9,-1.9 z"
   class="st1" />
		<path
   id="path2909"
   d="m 207.1,243.9 c 0.4,-0.5 0.6,-0.9 1,-1.3 0.9,-0.9 0.7,-2.8 2.6,-2.7 0.2,0 0.6,0.9 0.5,0.9 -1.3,0.9 -1.1,3.9 -4.1,3.1 z"
   class="st1" />
		<path
   id="path2911"
   d="m 104,133.6 c 1.4,-1.4 1.3,-4 4.2,-4.8 -1.1,2.3 -1.4,4.5 -4.2,4.8 z"
   class="st1" />
		<path
   id="path2913"
   d="m 104.9,118.5 c -0.2,-3.4 1.1,-5 3.3,-6.6 -0.4,2.5 -1.5,4.2 -3.3,6.6 z"
   class="st1" />
		<path
   id="path2915"
   d="m 197.7,218.9 c -0.4,0.3 -1.2,1.1 -1.3,1 -0.9,-0.7 -2.6,-0.5 -2.6,-2.1 0,-0.5 0.9,-1.4 1.5,-1 0.8,0.7 2.3,0.4 2.4,2.1 z"
   class="st1" />
		<path
   id="path2917"
   d="m 170.5,299.6 c -3.8,-2.5 -1.8,-3.4 0.4,-4.6 0.8,1.8 -1.2,2.7 -0.4,4.6 z"
   class="st1" />
		<path
   id="path2919"
   d="m 86.3,137.8 c 1.5,0.3 1.3,3.7 4,1.4 -0.9,1.2 -1.2,2.8 -2.5,2.1 -1.2,-0.6 -2.3,-1.7 -1.5,-3.5 z"
   class="st1" />
		<path
   id="path2921"
   d="m 143.6,184.8 c -1.3,0.7 -2.5,2.3 -4.1,0.8 -0.5,-0.5 -0.5,-0.8 0,-1.3 1.6,-1.7 2.7,0.9 4.1,0.5 z"
   class="st1" />
		<path
   id="path2923"
   d="m 153,187.3 c -1.5,1.9 -3.1,1.7 -5.2,0.8 1.9,-1.8 3.7,-0.6 5.2,-0.8 z"
   class="st1" />
		<path
   id="path2925"
   d="m 186.3,203.2 c 0.8,1.5 2.8,0 2.7,1.9 0,0.5 -0.8,1.4 -1.3,1.4 -1.3,0.1 -2,-0.8 -1.9,-2.1 0,-0.4 0.3,-0.7 0.5,-1.2 z"
   class="st1" />
		<path
   id="path2927"
   d="m 150.7,203.6 c 0.1,2.6 0.7,4.3 -1.1,5.4 -0.2,0.2 -1,0 -1,-0.1 -0.4,-1.9 1.1,-3 2.1,-5.3 z"
   class="st1" />
		<path
   id="path2929"
   d="m 115.8,139.7 c -1.3,1.4 -2.7,2.1 -4.8,2.2 1.8,-2.5 1.8,-2.5 4.8,-2.2 z"
   class="st1" />
		<path
   id="path2931"
   d="m 122,215.9 c -1.3,1.7 -2,2.9 -3.7,2.6 -0.3,-0.1 -0.7,-0.7 -0.6,-0.8 0.8,-1.4 2.2,-1.7 4.3,-1.8 z"
   class="st1" />
		<path
   id="path2933"
   d="m 176.6,216 c -0.5,2.9 -1.6,3.7 -3.4,4.4 -0.4,-2.4 1.3,-2.8 3.4,-4.4 z"
   class="st1" />
		<path
   id="path2935"
   d="m 222.6,294.4 c -0.5,2.9 -1.6,3.7 -3.4,4.4 -0.4,-2.4 1.3,-2.8 3.4,-4.4 z"
   class="st1" />
		<path
   id="path2937"
   d="m 117,192.4 c 2.7,2.4 0.7,3.4 -1.3,5.6 0.6,-2.7 1.6,-4 1.3,-5.6 z"
   class="st1" />
		<path
   id="path2939"
   d="m 124.4,196.4 c -0.2,0.9 -0.8,1.5 -1.6,1.6 -1,0.1 -1,-0.7 -0.9,-1.4 0.1,-0.7 -0.4,-1.9 0.9,-1.8 0.8,0 1.3,0.7 1.6,1.6 z"
   class="st1" />
		<path
   id="path2941"
   d="m 152.5,180.2 c 0.8,0.1 1.6,0.7 1.6,1.8 0,1 -0.9,0.8 -1.6,0.7 -0.9,-0.1 -1.5,-0.7 -1.7,-1.5 -0.1,-1 0.7,-1 1.7,-1 z"
   class="st1" />
		<path
   id="path2943"
   d="m 142.8,177.5 c 2,0.4 3.5,-0.7 4.5,0.8 0.3,0.5 -0.4,0.8 -0.8,1.1 -1.9,1.2 -2.3,-0.4 -3.7,-1.9 z"
   class="st1" />
		<path
   id="path2945"
   d="m 193.5,201.4 c -0.2,0.1 -0.9,0.8 -1.4,0.7 -0.7,-0.2 -1.3,-0.9 -1.3,-1.8 0,-0.7 0.1,-1.5 1,-1.3 0.8,0.2 1.5,0.8 1.7,2.4 z"
   class="st1" />
		<path
   id="path2947"
   d="m 193.7,224.6 c 0.8,1 2.7,1.2 2,3.1 -0.1,0.3 -0.6,0.5 -0.9,0.8 -0.8,-1.2 -1.9,-2.2 -1.1,-3.9 z"
   class="st1" />
		<path
   id="path2949"
   d="m 105.8,263.4 c 1.3,1.4 2.2,2.4 3.3,3.5 -2.6,0.5 -3.7,-0.4 -3.3,-3.5 z"
   class="st1" />
		<path
   id="path2951"
   d="m 160.1,199.4 c -0.8,0.4 -1.7,1 -2.7,1.2 -0.6,0.1 -0.9,-0.6 -0.6,-1.1 0.5,-0.9 1.2,-1.5 2.3,-1.3 0.8,0 1,0.3 1,1.2 z"
   class="st1" />
		<path
   id="path2953"
   d="m 128.8,199.8 c 0,-1.7 -0.7,-3.1 1,-4.9 0.7,2 1.1,3.3 -1,4.9 z"
   class="st1" />
		<path
   id="path2955"
   d="m 204,233.6 c 0.7,2.1 0.7,3.5 -0.9,4.5 -0.2,0.1 -1,-0.1 -1.1,-0.3 -0.2,-1.8 1.9,-2.2 2,-4.2 z"
   class="st1" />
		<path
   id="path2957"
   d="m 195.9,211.1 c 2.3,-0.6 3.1,0.3 3.6,2.1 -2.1,0.4 -2.5,-1.1 -3.6,-2.1 z"
   class="st1" />
		<path
   id="path2959"
   d="m 124.6,180 c -2.3,0.3 -2.9,-0.1 -2.7,-1.2 0.1,-0.5 0,-1.2 0.8,-1.1 0.9,0.1 1.5,0.7 1.7,1.6 0.1,0.7 -0.5,0.8 0.2,0.7 z"
   class="st1" />
		<path
   id="path2961"
   d="m 214.6,222.2 c -1,1.1 -1.4,1.9 -1.9,2 -0.8,0.1 -1.5,-0.7 -1.3,-1.5 0.1,-0.6 0.7,-1.4 1.2,-1.4 0.5,-0.1 1.2,0.5 2,0.9 z"
   class="st1" />
		<path
   id="path2963"
   d="m 132.7,200.6 c -0.4,1.2 1.3,4.2 -2.2,3.3 0.8,-1.2 1.5,-2.3 2.2,-3.3 z"
   class="st1" />
		<path
   id="path2965"
   d="m 120.3,158.8 c 0.2,0.2 0.5,0.3 0.7,0.5 0.9,0.7 2.6,0.7 2.5,2.4 0,0.2 -0.5,0.4 -0.8,0.6 -0.6,-1.3 -3.1,-1.4 -2.2,-3.6 -0.1,-0.1 -0.2,0.1 -0.2,0.1 z"
   class="st1" />
		<path
   id="path2967"
   d="m 183.9,196.4 c 0.7,0 0.9,0.4 1,1 0.1,1 -0.2,1.6 -1.3,1.5 -0.5,-0.1 -1.2,0 -1.1,-0.8 0,-0.9 0.6,-1.4 1.4,-1.7 z"
   class="st1" />
		<path
   id="path2969"
   d="m 196.1,85.6 c 2.5,0.2 3.9,-0.7 4.9,0.7 0.1,0.1 -0.1,0.6 -0.2,0.7 -1.5,0.9 -2.5,-0.3 -4.7,-1.4 z"
   class="st1" />
		<path
   id="path2971"
   d="m 157.5,193.2 c -1.1,1.8 -2.3,2 -4.1,0.2 1.5,-0.7 2.7,-0.5 4.1,-0.2 z"
   class="st1" />
		<path
   id="path2973"
   d="m 201.5,208.6 c 2.3,1.1 3.4,1.8 3.7,3.3 0,0.2 -0.8,0.6 -0.8,0.6 -0.8,-1 -1.5,-2.1 -2.9,-3.9 z"
   class="st1" />
		<path
   id="path2975"
   d="m 191,86 c 1.4,-0.5 2.7,-0.6 3.9,0.1 0.1,0.1 0,0.9 -0.2,1 -1.4,0.7 -2.4,-0.4 -3.7,-1.1 z"
   class="st1" />
		<path
   id="path2977"
   d="m 181,215.5 c 0.5,0.2 1.5,-1.9 2.9,-0.8 0.1,0.1 0,0.9 -0.2,1.1 -1.3,1.7 -2.3,-0.4 -2.7,-0.3 z"
   class="st1" />
		<path
   id="path2979"
   d="m 165.2,302.9 c 0.7,0 0.9,0.4 1,1 0.1,1 -0.2,1.6 -1.3,1.5 -0.5,-0.1 -1.2,0 -1.1,-0.8 -0.1,-0.9 0.6,-1.4 1.4,-1.7 z"
   class="st1" />
		<path
   id="path2981"
   d="m 167.1,286 c 1.1,-2.3 1.1,-2.3 3.9,-1.4 -1.1,0.4 -2.2,0.8 -3.9,1.4 z"
   class="st1" />
		<path
   id="path2983"
   d="m 217,229.3 c -0.6,-2.3 -1,-3.7 -1.3,-5.3 1.5,1.5 1.5,1.5 1.3,5.3 z"
   class="st1" />
		<path
   id="path2985"
   d="m 204.6,86.7 c 1.2,-0.2 2.3,-0.6 3.2,0.3 0.1,0.1 -0.1,0.9 -0.3,1 -1.2,0.4 -2.1,0.2 -2.9,-1.3 z"
   class="st1" />
		<path
   id="path2987"
   d="m 153.8,198.1 c 0.7,0 1.4,0.1 1.2,0.8 -0.2,0.6 -0.7,1.1 -1.2,1.5 -0.5,0.4 -1.1,0.1 -1.2,-0.5 -0.2,-0.9 0.8,-1.2 1.2,-1.8 z"
   class="st1" />
		<path
   id="path2989"
   d="m 226.5,260.8 c 0.6,0.6 1.4,0.9 1.5,1.4 0.1,0.6 -0.5,1.3 -1.2,1.1 -0.6,-0.1 -1.2,-0.6 -1.8,-0.9 0.5,-0.4 0.9,-0.9 1.5,-1.6 z"
   class="st1" />
		<path
   id="path2991"
   d="m 168.2,213.9 c -0.9,-0.8 -1.4,-1.2 -1.9,-1.7 0.4,-0.4 0.8,-1.1 1.3,-1.3 0.6,-0.2 1.1,0.2 1,0.8 0,0.7 -0.2,1.2 -0.4,2.2 z"
   class="st1" />
		<path
   id="path2993"
   d="m 160.9,223.5 c 0.8,-1 1.5,-2.1 2.8,-2.5 0.4,2.5 -0.8,3 -2.9,2.3 0,0.1 0.1,0.2 0.1,0.2 z"
   class="st1" />
		<path
   id="path2995"
   d="m 213.7,88.1 c -0.8,1.8 -1.8,1.9 -2.8,1.6 -0.2,0 -0.5,-0.9 -0.4,-1 0.9,-1.1 2.1,-0.2 3.2,-0.6 z"
   class="st1" />
		<path
   id="path2997"
   d="m 170.5,195 c 1.2,-0.4 2.3,-0.6 3.2,0.1 0.1,0.1 -0.1,1 -0.3,1.1 -1.2,0.4 -1.8,-0.7 -2.9,-1.2 z"
   class="st1" />
		<path
   id="path2999"
   d="m 179.7,190.4 c -0.1,0.8 -0.7,0.8 -1.2,0.8 -0.8,0 -1.4,-0.2 -1.2,-1.1 0.1,-0.3 0.9,-0.5 1.3,-0.6 0.6,0 1.1,0.2 1.1,0.9 z"
   class="st1" />
		<path
   id="path3001"
   d="m 237.8,93.6 c 1.4,-0.7 2.4,-0.3 3,0.9 -1.2,1.1 -2.1,0.5 -3,-0.9 z"
   class="st1" />
		<path
   id="path3003"
   d="m 199.3,205.3 c 0,1 -0.4,1.4 -1,1.2 -0.5,-0.2 -1.1,-0.6 -1.2,-1 -0.1,-0.2 0.7,-1.2 0.8,-1.1 0.6,0.2 1.1,0.7 1.4,0.9 z"
   class="st1" />
		<path
   id="path3005"
   d="m 166.1,232.3 c 0.2,-1.1 0.9,-1 1.6,-0.9 0.3,0 0.9,-0.1 0.6,0.6 -0.3,0.6 -0.7,1.2 -1.5,1 -0.3,-0.1 -0.5,-0.5 -0.7,-0.7 z"
   class="st1" />
		<path
   id="path3007"
   d="m 163.2,211.6 c -0.5,-1.1 -0.8,-2.1 -0.1,-3 0,0 0.5,0.2 0.6,0.4 1.4,1.3 -1.1,1.4 -0.5,2.6 z"
   class="st1" />
		<path
   id="path3009"
   d="m 234.3,92.5 c -0.2,0.2 -0.3,0.7 -0.6,0.7 -0.8,0.2 -1.2,-0.4 -1.6,-1 -0.4,-0.7 0.4,-0.6 0.6,-0.6 0.6,0 1.3,-0.2 1.6,0.9 z"
   class="st1" />
		<path
   id="path3011"
   d="m 126.8,189.8 c -0.9,0.4 -1.5,1.6 -2.6,0.8 -0.2,-0.1 -0.4,-0.6 -0.4,-0.6 1,-0.8 1.9,-0.4 3,-0.2 z"
   class="st1" />
		<path
   id="path3013"
   d="m 62.4,80.4 c 1.7,-0.8 2.6,-1.2 3.6,-1.7 -0.1,1.9 -1.2,1.9 -3.6,1.7 z"
   class="st1" />
		<path
   id="path3015"
   d="m 221.2,90.2 c -0.2,0.7 -0.8,0.5 -1.2,0.5 -0.6,0 -1.1,-0.1 -1,-0.9 0.1,-0.3 0.4,-0.7 0.7,-0.7 0.8,-0.1 1.2,0.5 1.5,1.1 z"
   class="st1" />
		<path
   id="path3017"
   d="m 77.4,45.4 c -0.7,2 -1.7,2 -3.8,1.7 1.7,-0.7 2.6,-1.1 3.8,-1.7 z"
   class="st1" />
		<path
   id="path3019"
   d="m 157.9,107.2 c 4.5,1 8.3,3.5 12,6.3 -4.5,-0.9 -8.1,-3.8 -12,-6.3 z"
   class="st1" />
		<path
   id="path3021"
   d="m 171.9,110.5 c -3.9,-0.7 -7.2,-2.8 -10.4,-5 3.9,0.7 7.7,1.7 10.3,5.1 z"
   class="st1" />
		<path
   id="path3023"
   d="m 171.8,110.6 c 2.5,-0.4 3.9,1.1 5.7,3.2 -2.8,-0.5 -4.3,-1.7 -5.5,-3.4 -0.1,0.1 -0.2,0.2 -0.2,0.2 z"
   class="st1" />
		<path
   id="path3025"
   d="m 164.6,133 c -1.7,-1.8 -3.3,-2.5 -3.8,-5.3 1.7,1.8 3.3,2.5 3.8,5.3 z"
   class="st1" />
		<path
   id="path3027"
   d="m 185.9,121.7 c 1.5,-0.7 2.5,-0.1 3.2,1.1 0.1,0.2 -0.2,1 -0.4,1.1 -1.5,0.1 -2.1,-1.2 -2.8,-2.2 z"
   class="st1" />
		<path
   id="path3029"
   d="m 198.1,129.1 c 1.2,0 1.2,0.7 1.2,1.4 0,0.6 -0.1,1.3 -0.8,1.1 -0.6,-0.2 -1.1,-0.7 -1.6,-1.1 0.5,-0.6 0.9,-1 1.2,-1.4 z"
   class="st1" />
		<path
   id="path3031"
   d="m 182.2,121.4 c -1.6,-0.9 -1.9,-1.9 -1.3,-3.1 1.6,0.4 1.5,1.5 1.3,3.1 z"
   class="st1" />
		<path
   id="path3033"
   d="m 192.1,125.7 c 0.3,0.3 0.7,0.8 1.1,1.3 -0.4,0.3 -0.9,1 -1.2,0.9 -0.4,-0.1 -0.9,-0.7 -1.1,-1.2 -0.2,-0.6 0.2,-1 1.2,-1 z"
   class="st1" />
		<path
   id="path3035"
   d="m 201.2,44.9 c -4.2,3.6 -9.6,4.4 -14.5,6.2 -7.4,2.7 -14.3,6.6 -22.1,8.5 -0.6,-1.2 0.5,-1.6 1.6,-2 10.5,-4.1 21,-8.2 31.4,-12.4 1.3,-0.5 2.5,-0.4 3.7,-0.2 0,0 -0.1,-0.1 -0.1,-0.1 z"
   class="st1" />
		<path
   id="path3037"
   d="m 184.4,47.5 c -7.1,4 -14.5,6.6 -22.1,9 7,-4.1 14.6,-6.5 22.1,-9 z"
   class="st1" />
		<path
   id="path3039"
   d="m 143.6,64.8 c -0.7,3.5 -4.1,4.5 -6.2,6.6 -2.6,2.6 -5.8,4.5 -7.6,7.9 2.3,-7 8.4,-10.4 13.8,-14.5 z"
   class="st1" />
		<path
   id="path3041"
   d="m 156.5,67.5 c 0.3,0.6 0,1.2 -0.5,1.4 -6.9,3.4 -13,7.9 -19.2,12.2 5.8,-5.7 12.2,-10.5 19.9,-13.5 z"
   class="st1" />
		<path
   id="path3043"
   d="m 140,73.1 c -0.4,-0.9 -0.4,-1.8 0.5,-2.2 3.5,-1.7 6.1,-5.2 10.2,-5.8 L 150.6,65 c -2.9,3.5 -6.9,5.6 -10.7,8 z"
   class="st1" />
		<path
   id="path3045"
   d="m 160.6,65.6 c 2.8,-3.7 6.5,-5.8 11.3,-6 -3.8,2 -7.6,3.9 -11.3,6 z"
   class="st1" />
		<path
   id="path3047"
   d="m 150.7,65.1 c 2.1,-2.9 5.6,-3.2 8.3,-5 -2.5,2.2 -4.6,5.1 -8.4,4.8 0,0 0.1,0.2 0.1,0.2 z"
   class="st1" />
		<path
   id="path3049"
   d="m 129.9,84.5 c 0.4,-3.9 3.1,-6.1 5.4,-8.7 -0.8,3.6 -3.5,5.9 -5.4,8.7 z"
   class="st1" />
		<path
   id="path3051"
   d="m 148.5,62.9 c 1.2,-3.2 4.2,-4 6.9,-5.3 -1.8,2.4 -4,4.3 -7,5.1 z"
   class="st1" />
		<path
   id="path3053"
   d="m 132.3,70.5 c 0.3,-3.4 3,-4.4 5.6,-5.4 L 137.8,65 c -0.8,2.9 -3.4,4 -5.6,5.4 z"
   class="st1" />
		<path
   id="path3055"
   d="m 129.4,72.7 c 0.1,0.7 0.3,1.6 -0.4,1.8 -1.8,0.5 -0.1,3.7 -2.7,3.3 -0.2,0 -1.2,-0.2 -0.6,-0.6 1.9,-1.1 0.4,-4.9 3.8,-4.5 z"
   class="st1" />
		<path
   id="path3057"
   d="m 123.8,126.8 c 0.2,-2.1 1.2,-3.7 3.2,-4.5 0,0 -0.1,-0.1 -0.1,-0.1 -0.3,2.1 -1.2,3.6 -3.2,4.4 z"
   class="st1" />
		<path
   id="path3059"
   d="m 148.4,62.8 c -1.2,1.5 -2.6,2.7 -4.8,2 0,0 0.1,0.1 0,0.1 1.5,-0.9 2.7,-2.5 4.9,-2 0,0 -0.1,-0.1 -0.1,-0.1 z"
   class="st1" />
		<path
   id="path3061"
   d="m 156.6,67.6 c 1.1,-1 1.7,-3.2 3.9,-2.1 0,0 -0.1,-0.1 0,-0.1 -1.4,0.5 -1.9,2.9 -4,2 0,0.1 0.1,0.2 0.1,0.2 z"
   class="st1" />
		<path
   id="path3063"
   d="m 139.8,73 c -0.9,1 -1.5,2.3 -3.7,2.5 1.3,-1.5 1.8,-3 3.9,-2.3 0,-0.1 -0.2,-0.2 -0.2,-0.2 z"
   class="st1" />
		<path
   id="path3065"
   d="m 137.9,65.1 c 0.9,-1 1.5,-2.3 3.7,-2.5 -1.3,1.5 -1.8,3 -3.9,2.3 0.1,0 0.2,0.2 0.2,0.2 z"
   class="st1" />
		<path
   id="path3067"
   d="m 123.7,126.7 c -0.6,0.8 -1.2,1.7 -1.7,2.5 0,-1.3 -0.7,-3.3 1.9,-2.4 -0.1,0 -0.2,-0.1 -0.2,-0.1 z"
   class="st1" />
		<path
   id="path3069"
   d="m 132.2,70.4 c -0.8,0.9 -1.3,2.2 -2.8,2.4 0,0 0.1,0.1 0.1,0.1 0,-1.9 0.8,-2.8 2.8,-2.4 0,0 -0.1,-0.1 -0.1,-0.1 z"
   class="st1" />
		<path
   id="path3071"
   d="m 229.3,233.6 c 0.8,-1 1.3,-2.3 2.8,-2.1 0.2,0 0.5,0.8 0.4,1.1 -0.7,1.1 -1.7,1.7 -3.2,1 z"
   class="st1" />
		<path
   id="path3073"
   d="m 92.1,29.3 c -1.1,1.6 -2.1,3.4 -4.4,3.5 1.1,-1.5 2.1,-3.4 4.4,-3.5 z"
   class="st1" />
		<path
   id="path3075"
   d="m 61.8,53.9 c -2.5,-1.4 -2.5,-3.1 -1.4,-5.3 0.4,-0.9 0.8,-1.6 1.6,-1.2 2.1,0.9 4.1,2 6,3.2 0.4,0.3 0.1,1.6 -0.7,2.2 -0.8,0.6 -0.7,-0.1 -1,-0.5 -2.6,-3.2 -3.6,-1.4 -4.5,1.6 z"
   class="st0" />
	</g>
</g>
</svg>
